<svg id="Layer_1" enable-background="new 0 0 48 24" viewBox="0 0 48 24" xmlns="http://www.w3.org/2000/svg" xmlns:xlink="http://www.w3.org/1999/xlink"><defs><symbol id="New_Symbol_2" viewBox="-12 -12 24 24"><path d="m9.8-1h-.8v12h-15v-1-2h-3v-1-2h-2v-1-16h13 1v0c0 0 .1 0 .1 0h6.7c1.2 0 2.2 1 2.2 2.2v6.7c0 1.2-1 2.1-2.2 2.1z" fill="#939393"/><path d="m7.5-5.5h-14v17h14z" fill="#d6d6d6" stroke="#5a5a5a" stroke-miterlimit="10"/><path d="m4.5-7.5h-14v16h14z" fill="#d6d6d6" stroke="#5a5a5a" stroke-miterlimit="10"/><path d="m1.5-10.5h-13v16h13z" fill="#d6d6d6" stroke="#5a5a5a" stroke-miterlimit="10"/><path d="m11-2.2c0 1.2-1 2.2-2.2 2.2h-6.6c-1.2 0-2.2-1-2.2-2.2v-6.6c0-1.2 1-2.2 2.2-2.2h6.6c1.2 0 2.2 1 2.2 2.2z" fill="#5a5a5a"/><path d="m10-8.8c0-.7-.5-1.2-1.2-1.2h-6.6c-.7 0-1.2.5-1.2 1.2v6.6c0 .7.5 1.2 1.2 1.2h6.6c.7 0 1.2-.5 1.2-1.2z" fill="#fff"/><path d="m1.9-5.8c.7-.3 1.3-.6 2.1-.9.1 0 .1 0 .2 0 1.8 1.7 3.6 3.4 5.5 5.2.2.2.7.1.6-.1-3.3-3.8-5-6-6-7.7-.1-.2-.3-.1-.4 0-.3.3-.6.9-.7.9-.7 1.3-.7 1.3-1.3 2.6-.2 0-.1.1 0 0z" fill="#5a5a5a"/><path d="m-1-9h-9v1h9z" fill="#5a5a5a"/><path d="m-1-7h-9v1h9z" fill="#5a5a5a"/><path d="m-1-5h-9v1h9z" fill="#5a5a5a"/><path d="m0 3h-4v1h4z" fill="#5a5a5a"/><path d="m0 1h-4v1h4z" fill="#5a5a5a"/><path d="m-5.1 2.2c0-1-.8-1.9-1.9-1.9s-1.9.8-1.9 1.9.9 1.9 1.9 1.9 1.9-.9 1.9-1.9z" fill="#5a5a5a"/><path d="m-3.4-3c0 .1 0 .1 0 .2 0 1.2-.6 2.2-1.5 2.9-.5-.5-1.3-.9-2.1-.9s-1.6.3-2.1.9c-.9-.6-1.5-1.7-1.5-2.9 0-.1 0-.1 0-.2z" fill="#5a5a5a"/><path d="m-12 12h24v-24h-24z" display="none" fill="none"/></symbol><symbol id="New_Symbol_3" viewBox="-12 -12 24 24"><path d="m9.8-1h-.8v12h-15v-1-2h-3v-1-2h-2v-1-16h13 1v0c0 0 .1 0 .1 0h6.7c1.2 0 2.2 1 2.2 2.2v6.7c0 1.2-1 2.1-2.2 2.1z" fill="#5a5a5a"/><path d="m7-6h-14v17h14z" fill="#fff"/><path d="m8-6h-15v18h15zm-14 1h13v16h-13z" fill="#ac382e"/><path d="m4-8h-14v16h14z" fill="#fff"/><path d="m5-8h-15v17h15zm-14 1h13v15h-13z" fill="#ac382e"/><path d="m1-11h-13v16h13z" fill="#fff"/><path d="m2-11h-14v17h14zm-13 1h12v15h-12z" fill="#ac382e"/><path d="m11-2.2c0 1.2-1 2.2-2.2 2.2h-6.6c-1.2 0-2.2-1-2.2-2.2v-6.6c0-1.2 1-2.2 2.2-2.2h6.6c1.2 0 2.2 1 2.2 2.2z" fill="#fff"/><path d="m10-8.8c0-.7-.5-1.2-1.2-1.2h-6.6c-.7 0-1.2.5-1.2 1.2v6.6c0 .7.5 1.2 1.2 1.2h6.6c.7 0 1.2-.5 1.2-1.2z" fill="#e74c3c"/><path d="m1.9-5.8c.7-.3 1.3-.6 2.1-.9.1 0 .1 0 .2 0 1.8 1.7 3.6 3.4 5.5 5.2.2.2.7.1.6-.1-3.3-3.8-5-6-6-7.7-.1-.2-.3-.1-.4 0-.3.3-.6.9-.7.9-.7 1.3-.7 1.3-1.3 2.6-.2 0-.1.1 0 0z" fill="#fff"/><path d="m-1-9h-9v1h9z" fill="#e74c3c"/><path d="m-1-7h-9v1h9z" fill="#e74c3c"/><path d="m-1-5h-9v1h9z" fill="#e74c3c"/><path d="m0 3h-4v1h4z" fill="#e74c3c"/><path d="m0 1h-4v1h4z" fill="#e74c3c"/><path d="m-5.1 2.2c0-1-.8-1.9-1.9-1.9s-1.9.8-1.9 1.9.9 1.9 1.9 1.9 1.9-.9 1.9-1.9z" fill="#e74c3c"/><path d="m-3.4-3c0 .1 0 .1 0 .2 0 1.2-.6 2.2-1.5 2.9-.5-.5-1.3-.9-2.1-.9s-1.6.3-2.1.9c-.9-.6-1.5-1.7-1.5-2.9 0-.1 0-.1 0-.2z" fill="#e74c3c"/><path d="m-12 12h24v-24h-24z" display="none" fill="none"/></symbol></defs><use height="24" overflow="visible" transform="matrix(1 0 0 -1 12 12)" width="24" x="-12" xlink:href="#New_Symbol_2" y="-12"/><use height="24" overflow="visible" transform="matrix(1 0 0 -1 36 12)" width="24" x="-12" xlink:href="#New_Symbol_3" y="-12"/></svg>