<svg version="1.1" xmlns="http://www.w3.org/2000/svg" width="32" height="32" viewBox="0 0 32 32">
<path class="fill-active" d="M2.133 24h3.2v3.2h3.2v3.2h21.333v-22.4h-3.2v-3.2h-3.2v-3.2h-21.333zM3.2 2.667h19.2v20.267h-19.2zM25.6 26.133h-19.2v-2.133h17.067v-18.133h2.133zM28.8 29.333h-19.2v-2.133h17.067v-18.133h2.133z"></path>
<path class="fill-active" d="M13.867 4.8h6.4v6.4h-6.4v-6.4z"></path>
<path class="fill-active" d="M5.333 12.267h14.933v2.133h-14.933v-2.133z"></path>
<path class="fill-active" d="M5.333 15.467h14.933v2.133h-14.933v-2.133z"></path>
<path class="fill-active" d="M5.333 18.667h14.933v2.133h-14.933v-2.133z"></path>
<path class="fill-active" d="M11.733 8c0 1.767-1.433 3.2-3.2 3.2s-3.2-1.433-3.2-3.2c0-1.767 1.433-3.2 3.2-3.2s3.2 1.433 3.2 3.2z"></path>
</svg>
