<svg version="1.1" xmlns="http://www.w3.org/2000/svg" width="32" height="32" viewBox="0 0 32 32">
<path class="fill-active" d="M30.24 24.075v-14.933l-7.467-7.467h-10.667c-0.589 0-1.067 0.478-1.067 1.067v0 7.381c0.78 0.049 1.507 0.224 2.177 0.507l-0.044-0.016v-6.805h8.533v6.4h6.4v12.8h-11.040c0.652 0.624 1.223 1.324 1.701 2.088l0.027 0.045h10.325c0.016 0.001 0.035 0.001 0.053 0.001 0.589 0 1.067-0.478 1.067-1.067 0-0 0-0.001 0-0.001v0z"></path>
<path class="fill-active" d="M12.587 21.728c1.983-0.808 3.355-2.72 3.355-4.953 0-2.946-2.388-5.333-5.333-5.333s-5.333 2.388-5.333 5.333c0 2.233 1.372 4.145 3.319 4.94l0.036 0.013c-3.703 1.322-6.394 4.595-6.854 8.549l-0.005 0.048h17.675c-0.465-4.002-3.156-7.275-6.787-8.575l-0.072-0.023z"></path>
</svg>
