<svg xmlns="http://www.w3.org/2000/svg" viewBox="0 0 48 24" enable-background="new 0 0 48 24"><g fill="#939393"><path d="M9,21h15V5c-1.6-1.6-2.4-2.4-4-4H9V21z"/><path d="m23 20v-14.6l-3.4-3.4h-9.6v18z"/><circle cx="10" cy="9.8" r="5"/><path d="m10 14c5 0 9 4.5 9 10h-18c0-5.5 4-10 9-10"/><path d="m18 23c-.4-4-3.8-8-8-8s-7.5 4-8 8h16"/><circle cx="10" cy="9.8" r="4"/></g><path fill="#5a5a5a" d="M8,20h15V4c-1.6-1.6-2.4-2.4-4-4L8,0V20z"/><g fill="#fff"><path d="m22 19v-14.6l-3.4-3.4h-9.6v18z"/><g stroke="#5a5a5a" stroke-miterlimit="10"><path d="m23 4.5h-5"/><path d="m17.5 0v5"/></g></g><g fill="#5a5a5a"><circle cx="9" cy="8.8" r="5"/><path d="m9 13c5 0 9 4.5 9 10h-18c0-5.5 4-10 9-10"/></g><g fill="#d6d6d6"><path d="m17 22c-.4-4-3.8-8-8-8s-7.5 4-8 8h16"/><circle cx="9" cy="8.8" r="4"/></g><g fill="#939393"><path d="M33,21h15V5c-1.6-1.6-2.4-2.4-4-4H33V21z"/><path d="m47 20v-14.6l-3.4-3.4h-9.6v18z"/><circle cx="34" cy="9.8" r="5"/><path d="m34 14c5 0 9 4.5 9 10h-18c0-5.5 4-10 9-10"/><path d="m42 23c-.4-4-3.8-8-8-8s-7.5 4-8 8h16"/><circle cx="34" cy="9.8" r="4"/></g><path fill="#5a5a5a" d="m32 20h15v-16c-1.6-1.6-2.4-2.4-4-4h-11v20"/><g fill="#fff"><path d="m46 19v-14.6l-3.4-3.4h-9.6v18z"/><g stroke="#5a5a5a" stroke-miterlimit="10"><path d="m47 4.5h-5"/><path d="m41.5 0v5"/></g></g><g fill="#5a5a5a"><circle cx="33" cy="8.8" r="5"/><path d="m33 13c5 0 9 4.5 9 10h-18c0-5.5 4-10 9-10"/></g><g fill="#e74c3c"><path d="m41 22c-.4-4-3.8-8-8-8s-7.5 4-8 8h16"/><circle cx="33" cy="8.8" r="4"/></g></svg>