<svg xmlns="http://www.w3.org/2000/svg" xmlns:xlink="http://www.w3.org/1999/xlink" viewBox="0 0 48 24" enable-background="new 0 0 48 24"><defs><path id="1" d="m26 19v-15h19v15c0 1.1-.9 2-2 2h-15c-1.1 0-2-.9-2-2"/><clipPath id="0"><use xlink:href="#1"/></clipPath></defs><path fill="#939393" d="m21 24h-17c-1.7 0-3-1.3-3-3v-17c0-1.7 1.3-3 3-3h17c1.7 0 3 1.3 3 3v17c0 1.7-1.3 3-3 3"/><path fill="#5a5a5a" d="m20 23h-17c-1.7 0-3-1.3-3-3v-17c0-1.7 1.3-3 3-3h17c1.7 0 3 1.3 3 3v17c0 1.7-1.3 3-3 3"/><path fill="#d6d6d6" d="m2 19v-15h19v15c0 1.1-.9 2-2 2h-15c-1.1 0-2-.9-2-2"/><g fill="#fff"><path d="m2 1h2v2h-2z"/><path d="m19 1h2v1h-2z"/><path d="m15 1h2v1h-2z"/></g><g fill="#5a5a5a"><circle cx="8.5" cy="9.9" r="4.3"/><path d="m8.5 13.5c4.2 0 7.7 3.8 7.7 8.5h-15.4c0-4.7 3.5-8.5 7.7-8.5"/></g><g fill="#fff"><path d="M15.3,21c-0.4-3-3.3-6.8-6.8-6.8S2.1,18,1.7,21H15.3z"/><circle cx="8.5" cy="9.9" r="3.4"/></g><g fill="#5a5a5a"><path d="m14 5h6v4h-6z"/><path d="m14 10h6v1h-6z"/><path d="m14 12h6v1h-6z"/><path d="m16 14h4v1h-4z"/></g><path fill="#939393" d="m45 24h-17c-1.7 0-3-1.3-3-3v-17c0-1.7 1.3-3 3-3h17c1.7 0 3 1.3 3 3v17c0 1.7-1.3 3-3 3"/><path fill="#ac382e" d="m44 23h-17c-1.7 0-3-1.3-3-3v-17c0-1.7 1.3-3 3-3h17c1.7 0 3 1.3 3 3v17c0 1.7-1.3 3-3 3"/><g fill="#fff"><path d="m26 19v-15h19v15c0 1.1-.9 2-2 2h-15c-1.1 0-2-.9-2-2"/><path d="m26 1h2v2h-2z"/><path d="m43 1h2v1h-2z"/><path d="m39 1h2v1h-2z"/></g><path fill="#e74c3c" d="m38 5h6v4h-6z"/><g fill="#ac382e"><path d="m38 10h6v1h-6z"/><path d="m38 12h6v1h-6z"/><path d="m40 14h4v1h-4z"/></g><g clip-path="url(#0)"><g fill="#e74c3c"><circle cx="32.5" cy="9.9" r="4.3"/><path d="m32.5 13.5c4.2 0 7.7 3.8 7.7 8.5h-15.4c0-4.7 3.5-8.5 7.7-8.5"/></g><g fill="#fff"><path d="m39.3 21c-.4-3-3.3-6.8-6.8-6.8s-6.4 3.8-6.8 6.8h13.6"/><circle cx="32.5" cy="9.9" r="3.4"/></g></g></svg>