<svg id="Layer_1" enable-background="new 0 0 48 24" viewBox="0 0 48 24" xmlns="http://www.w3.org/2000/svg"><path d="m23.8 15.8c-.2-.3-.5-.4-.8-.4-.1 0-.1 0-.2.1l-1.8.7v-6.1-9.1h-15v1 2h-3v1 2h-2v1 16h12.8 1.2v-3h .5l1.7 2.3c.2.3.5.4.8.4s.7-.2.8-.4l4.8-6.2c.5-.4.5-.9.2-1.3z" fill="#939393"/><path d="m5 1h14v17h-14z" fill="#d6d6d6"/><path d="m20 18h-15v-18h15zm-14-1h13v-16h-13z" fill="#5a5a5a"/><path d="m2 4h14v16h-14z" fill="#d6d6d6"/><path d="m17 20h-15v-17h15zm-14-1h13v-15h-13z" fill="#5a5a5a"/><path d="m0 7h13v16h-13z" fill="#d6d6d6"/><path d="m14 23h-14v-17h14zm-13-1h12v-15h-12z" fill="#5a5a5a"/><path d="m2 20h9v1h-9z" fill="#5a5a5a"/><path d="m2 18h9v1h-9z" fill="#5a5a5a"/><path d="m2 16h9v1h-9z" fill="#5a5a5a"/><path d="m8 8h4v1h-4z" fill="#5a5a5a"/><path d="m8 10h4v1h-4z" fill="#5a5a5a"/><circle cx="5.5" cy="9.3" fill="#5a5a5a" r="1.9"/><path d="m9.1 15c0-1 0-.4 0-.5 0-1.2-.6-2.4-1.5-3-.5.5-1.3.8-2.1.8s-1.6-.3-2.1-.9c-.9.6-1.5 1.9-1.5 3.1 0 .1 0-.6 0 .4h7.2z" fill="#5a5a5a"/><path d="m17.4 22.7c-.3 0-.6-.2-.8-.4l-4.8-6.2c-.1-.2-.2-.4-.2-.6 0-.2.1-.5.2-.6.2-.3.5-.4.8-.4.1 0 .2 0 .4.1l2.1.8v-6.3c-.1-.6.4-1.1 1-1.1h2.5c.6 0 1.4.5 1.4 1.1v6.1l1.9-.8c.1 0 .2-.1.3-.1.3 0 .6.2.8.4.3.4.3.9 0 1.3l-4.8 6.2c-.2.3-.5.5-.8.5z" fill="#5a5a5a"/><path d="m17.4 21.9c-.1 0-.2 0-.2-.1l-4.8-6.2c0 0-.1-.1-.1-.2 0-.1 0-.1.1-.2.1-.1.2-.1.3-.1l3.2 1.2v-7.2c0-.1.1-.3.3-.3h2.5c.1 0 .3.1.3.3v7.3l3.2-1.2c.1 0 .2 0 .3.1.1.1.1.2 0 .3l-4.8 6.2c-.2 0-.3.1-.3.1z" fill="#fff"/><path d="m47.8 15.8c-.2-.3-.5-.4-.8-.4-.1 0-.1 0-.2.1l-1.8.7v-6.1-9.1h-15v1 2h-3v1 2h-2v1 16h12.8 1.2v-3h .5l1.7 2.3c.2.3.5.4.8.4s.7-.2.8-.4l4.8-6.2c.5-.4.5-.9.2-1.3z" fill="#939393"/><path d="m29 1h14v17h-14z" fill="#fff"/><path d="m44 18h-15v-18h15zm-14-1h13v-16h-13z" fill="#ac382e"/><path d="m26 4h14v16h-14z" fill="#fff"/><path d="m41 20h-15v-17h15zm-14-1h13v-15h-13z" fill="#ac382e"/><path d="m24 7h13v16h-13z" fill="#fff"/><path d="m38 23h-14v-17h14zm-13-1h12v-15h-12z" fill="#ac382e"/><path d="m26 20h9v1h-9z" fill="#e74c3c"/><path d="m26 18h9v1h-9z" fill="#e74c3c"/><path d="m26 16h9v1h-9z" fill="#e74c3c"/><path d="m32 8h4v1h-4z" fill="#e74c3c"/><path d="m32 10h4v1h-4z" fill="#e74c3c"/><circle cx="29.5" cy="9.3" fill="#ac382e" r="1.9"/><path d="m33.1 15c0-1 0-.4 0-.5 0-1.2-.6-2.4-1.5-3-.5.5-1.3.8-2.1.8s-1.6-.4-2.1-.9c-.9.6-1.5 1.9-1.5 3.1 0 .1 0-.6 0 .4h7.2z" fill="#ac382e"/><path d="m41.4 22.7c-.3 0-.6-.2-.8-.4l-4.8-6.2c-.1-.2-.2-.4-.2-.6 0-.2.1-.5.2-.6.2-.3.5-.4.8-.4.1 0 .2 0 .4.1l2.1.8v-6.3c-.1-.6.4-1.1 1-1.1h2.5c.6 0 1.4.5 1.4 1.1v6.1l1.9-.8c.1 0 .2-.1.3-.1.3 0 .6.2.8.4.3.4.3.9 0 1.3l-4.8 6.2c-.2.3-.5.5-.8.5z" fill="#fff"/><path d="m41.4 21.9c-.1 0-.2 0-.2-.1l-4.8-6.2c0 0-.1-.1-.1-.2 0-.1 0-.1.1-.2.1-.1.2-.1.3-.1l3.2 1.2v-7.2c0-.1.1-.3.3-.3h2.5c.1 0 .3.1.3.3v7.3l3.2-1.2c.1 0 .2 0 .3.1.1.1.1.2 0 .3l-4.8 6.2c-.2 0-.3.1-.3.1z" fill="#e74c3c"/></svg>