<svg version="1.1" xmlns="http://www.w3.org/2000/svg" width="32" height="32" viewBox="0 0 32 32">
<path class="fill-active" d="M5.333 30.4h21.333v-19.2h-21.333zM6.4 12.267h19.2v17.067h-19.2z"></path>
<path class="fill-active" d="M17.067 14.4h6.4v6.4h-6.4v-6.4z"></path>
<path class="fill-active" d="M8.533 21.867h14.933v2.133h-14.933v-2.133z"></path>
<path class="fill-active" d="M8.533 25.067h14.933v2.133h-14.933v-2.133z"></path>
<path class="fill-active" d="M14.933 17.6c0 1.767-1.433 3.2-3.2 3.2s-3.2-1.433-3.2-3.2c0-1.767 1.433-3.2 3.2-3.2s3.2 1.433 3.2 3.2z"></path>
<path class="fill-active" d="M11.733 1.6v3.2h-3.2l7.467 5.333 7.467-5.333h-3.2v-3.2h-8.533z"></path>
</svg>
