<svg enable-background="new 0 0 48 24" viewBox="0 0 48 24" xmlns="http://www.w3.org/2000/svg"><g fill="#939393"><path d="m8 1h16v16h-16z"/><path d="m4 4h16v16h-16z"/><path d="m1 8h16v16h-16z"/></g><path d="m7 0h16v16h-16z" fill="#5a5a5a"/><path d="m8 1h14v14h-14z" fill="#d6d6d6"/><g fill="#5a5a5a"><path d="m15.8 12c-.2-1.1-1.9-4.4-3.9-4.4s-3.6 3.3-3.9 4.4z"/><ellipse cx="11.9" cy="4.3" rx="3.1" ry="2.6"/><path d="m17 2h4v4h-4z"/><path d="m17 7h4v1h-4z"/><path d="m17 9h4v1h-4z"/><path d="m17 11h4v1h-4z"/><path d="m9 13h5v1h-5z"/><path d="m15 13h6v1h-6z"/><path d="m3 3h16v16h-16z"/></g><path d="m4 4h14v14h-14z" fill="#d6d6d6"/><g fill="#5a5a5a"><path d="m11.8 15c-.2-1.1-1.9-4.4-3.9-4.4s-3.6 3.3-3.9 4.4z"/><ellipse cx="7.9" cy="7.3" rx="3.1" ry="2.6"/><path d="m13 5h4v4h-4z"/><path d="m13 10h4v1h-4z"/><path d="m13 12h4v1h-4z"/><path d="m13 14h4v1h-4z"/><path d="m5 16h5v1h-5z"/><path d="m11 16h6v1h-6z"/><path d="m0 7h16v16h-16z"/></g><path d="m1 8h14v14h-14z" fill="#fff"/><g fill="#5a5a5a"><path d="m8.8 19c-.2-1.1-1.9-4.4-3.9-4.4s-3.6 3.3-3.9 4.4z"/><ellipse cx="4.9" cy="11.3" rx="3.1" ry="2.6"/><path d="m10 9h4v4h-4z"/><path d="m10 14h4v1h-4z"/><path d="m10 16h4v1h-4z"/><path d="m10 18h4v1h-4z"/><path d="m2 20h5v1h-5z"/><path d="m8 20h6v1h-6z"/></g><g fill="#939393"><path d="m32 1h16v16h-16z"/><path d="m28 4h16v16h-16z"/><path d="m25 8h16v16h-16z"/></g><path d="m31 0h16v16h-16z" fill="#ac382e"/><path d="m32 1h14v14h-14z" fill="#d6d6d6"/><g fill="#e74c3c"><path d="m39.8 12c-.2-1.1-1.9-4.4-3.9-4.4-2 0-3.6 3.3-3.9 4.4z"/><ellipse cx="35.9" cy="4.3" rx="3.1" ry="2.6"/><path d="m41 2h4v4h-4z"/><path d="m41 7h4v1h-4z"/><path d="m41 9h4v1h-4z"/><path d="m41 11h4v1h-4z"/><path d="m33 13h5v1h-5z"/><path d="m39 13h6v1h-6z"/></g><path d="m27 3h16v16h-16z" fill="#ac382e"/><path d="m28 4h14v14h-14z" fill="#d6d6d6"/><g fill="#e74c3c"><path d="m35.8 15c-.2-1.1-1.9-4.4-3.9-4.4s-3.6 3.3-3.9 4.4z"/><ellipse cx="31.9" cy="7.3" rx="3.1" ry="2.6"/><path d="m37 5h4v4h-4z"/><path d="m37 10h4v1h-4z"/><path d="m37 12h4v1h-4z"/><path d="m37 14h4v1h-4z"/><path d="m29 16h5v1h-5z"/><path d="m35 16h6v1h-6z"/></g><path d="m24 7h16v16h-16z" fill="#ac382e"/><path d="m25 8h14v14h-14z" fill="#fff"/><g fill="#e74c3c"><path d="m32.8 19c-.2-1.1-1.9-4.4-3.9-4.4s-3.6 3.3-3.9 4.4z"/><ellipse cx="28.9" cy="11.3" rx="3.1" ry="2.6"/><path d="m34 9h4v4h-4z"/><path d="m34 14h4v1h-4z"/><path d="m34 16h4v1h-4z"/><path d="m34 18h4v1h-4z"/><path d="m26 20h5v1h-5z"/><path d="m32 20h6v1h-6z"/></g></svg>