<svg xmlns="http://www.w3.org/2000/svg" viewBox="0 0 48 24" enable-background="new 0 0 48 24"><path fill="#939393" d="m14 23.4c-.9.9-2.3.9-3.1 0l-9.3-9.4c-.9-.9-.9-2.3 0-3.1l9.3-9.3c.9-.9 2.3-.9 3.1 0l9.3 9.3c.9.9.9 2.3 0 3.1l-9.3 9.4"/><path fill="#5a5a5a" d="m13.1 22.4c-.9.9-2.3.9-3.1 0l-9.3-9.3c-.9-.9-.9-2.3 0-3.1l9.3-9.4c.9-.9 2.3-.9 3.1 0l9.3 9.3c.9.9.9 2.3 0 3.1l-9.3 9.4"/><g fill="#fff"><path d="m8.2 6c-1.1 0-2 .4-2.7 1.2-.7.8-1 1.9-1 3.2v2.3c0 1.3.3 2.4 1 3.2.7.8 1.6 1.2 2.7 1.2 1.1 0 2-.3 2.5-1 .6-.7.9-1.6.9-2.9h-2c0 .7-.1 1.2-.4 1.5-.2.3-.6.5-1.1.5-.5 0-.9-.2-1.2-.7-.3-.5-.4-1.1-.4-1.8v-2.3c0-.7.1-1.3.4-1.8.3-.5.6-.7 1.1-.7.6 0 1 .2 1.2.5.4.4.5.9.5 1.6h2c-.1-1.3-.4-2.2-1-2.9-.5-.8-1.4-1.1-2.5-1.1"/><path d="m18.2 12.3c-.3-.4-.6-.7-1.2-.9.4-.2.7-.5.9-.9.2-.4.3-.9.3-1.4 0-1-.3-1.8-.9-2.3-.6-.6-1.5-.8-2.6-.8h-4.1c1.2.6 1.9 1.8 1.9 3.2v4.8c0 .9-.3 1.7-.9 2.4-.3.3-.6.6-.9.8h4.4c1.1 0 1.9-.3 2.5-.8.6-.6.9-1.4.9-2.5.1-.7-.1-1.2-.3-1.6m-4.5-4.3h1c.5 0 .9.1 1.1.3.2.2.4.6.4 1 0 .4-.1.7-.4 1-.2.2-.6.3-1.1.3h-1v-2.6m2.4 6.8c-.2.2-.6.3-1 .3h-1.4v-2.8h1.6c.4 0 .7.1.9.4.2.2.3.6.3 1.1 0 .4-.1.8-.4 1"/></g><path fill="#939393" d="m38 23.4c-.9.9-2.3.9-3.1 0l-9.3-9.4c-.9-.9-.9-2.3 0-3.1l9.3-9.3c.9-.9 2.3-.9 3.1 0l9.3 9.3c.9.9.9 2.3 0 3.1l-9.3 9.4"/><path fill="#0584c7" d="m37.1 22.4c-.9.9-2.3.9-3.1 0l-9.3-9.3c-.9-.9-.9-2.3 0-3.1l9.3-9.4c.9-.9 2.3-.9 3.1 0l9.3 9.3c.9.9.9 2.3 0 3.1l-9.3 9.4"/><g fill="#fff"><path d="m32.2 6c-1.1 0-1.9.4-2.6 1.2-.7.8-1 1.9-1 3.2v2.3c0 1.3.3 2.4 1 3.2.7.8 1.6 1.2 2.7 1.2 1.1 0 2-.3 2.5-1 .6-.7.9-1.6.9-2.9h-2c0 .7-.1 1.2-.4 1.5-.2.3-.6.5-1.1.5-.5 0-.9-.2-1.2-.7-.3-.5-.4-1.1-.4-1.8v-2.3c0-.7.1-1.3.4-1.8.3-.5.6-.7 1.1-.7.6 0 1 .2 1.2.5.2.3.4.9.4 1.6h2c-.1-1.3-.4-2.2-1-2.9-.5-.8-1.4-1.1-2.5-1.1"/><path d="m42.2 12.3c-.3-.4-.6-.7-1.2-.9.4-.2.7-.5.9-.9.2-.4.3-.9.3-1.4 0-1-.3-1.8-.9-2.3-.6-.6-1.5-.8-2.6-.8h-4.1c1.2.6 1.9 1.8 1.9 3.2v4.8c0 .9-.3 1.7-.9 2.4-.3.3-.6.6-.9.8h4.4c1.1 0 1.9-.3 2.5-.8.6-.6.9-1.4.9-2.5.1-.7-.1-1.2-.3-1.6m-4.5-4.3h1c.5 0 .9.1 1.1.3.2.2.4.6.4 1 0 .4-.1.7-.4 1-.2.2-.6.3-1.1.3h-1v-2.6m2.4 6.8c-.2.2-.6.3-1 .3h-1.4v-2.8h1.6c.4 0 .7.1.9.4.2.2.3.6.3 1.1 0 .4-.1.8-.4 1"/></g></svg>