<svg version="1.1" xmlns="http://www.w3.org/2000/svg" width="32" height="32" viewBox="0 0 32 32">
<path class="fill-active" d="M30.101 13.984l-12.085-12.085c-0.517-0.514-1.229-0.832-2.016-0.832s-1.499 0.318-2.016 0.832l-12.085 12.085c-0.514 0.517-0.832 1.229-0.832 2.016s0.318 1.499 0.832 2.016l12.085 12.085c0.517 0.514 1.229 0.832 2.016 0.832s1.499-0.318 2.016-0.832l12.085-12.085c0.514-0.517 0.832-1.229 0.832-2.016s-0.318-1.499-0.832-2.016l0 0zM11.819 23.211c-0.038 0.001-0.082 0.002-0.127 0.002-1.363 0-2.581-0.621-3.387-1.594l-0.006-0.007c-0.848-1.050-1.361-2.401-1.361-3.871 0-0.098 0.002-0.195 0.007-0.292l-0 0.014v-2.912c-0.003-0.079-0.005-0.171-0.005-0.263 0-1.464 0.491-2.812 1.318-3.891l-0.011 0.015c0.768-0.979 1.951-1.601 3.28-1.601 0.036 0 0.071 0 0.107 0.001l-0.005-0c0.082-0.006 0.178-0.009 0.275-0.009 1.224 0 2.327 0.515 3.105 1.34l0.002 0.002c0.819 1.035 1.316 2.358 1.323 3.796v0.055h-2.645c0.001-0.025 0.001-0.054 0.001-0.084 0-0.714-0.19-1.384-0.523-1.962l0.010 0.019c-0.319-0.41-0.812-0.671-1.367-0.671-0.063 0-0.126 0.003-0.188 0.010l0.008-0.001c-0.002 0-0.004 0-0.006 0-0.627 0-1.171 0.356-1.44 0.876l-0.004 0.009c-0.363 0.638-0.578 1.401-0.578 2.214 0 0.043 0.001 0.085 0.002 0.128l-0-0.006v2.944c-0.003 0.059-0.005 0.128-0.005 0.198 0 0.792 0.216 1.533 0.591 2.169l-0.011-0.020c0.316 0.54 0.892 0.896 1.552 0.896 0.013 0 0.026-0 0.039-0l-0.002 0c0.044 0.005 0.095 0.007 0.147 0.007 0.509 0 0.959-0.249 1.236-0.632l0.003-0.004c0.319-0.562 0.508-1.235 0.512-1.951v-0.001h2.635v0.053c0.002 0.056 0.003 0.122 0.003 0.189 0 1.353-0.459 2.598-1.229 3.59l0.010-0.013c-0.752 0.782-1.808 1.269-2.977 1.269-0.101 0-0.201-0.004-0.3-0.011l0.013 0.001zM23.947 22.144c-0.796 0.67-1.833 1.078-2.965 1.078-0.113 0-0.224-0.004-0.335-0.012l0.015 0.001h-5.728c1.351-0.855 2.246-2.323 2.293-4.004l0-0.007v-6.208c-0.004-1.799-1.006-3.364-2.482-4.169l-0.025-0.012h5.333c0.101-0.007 0.219-0.011 0.338-0.011 1.156 0 2.225 0.376 3.090 1.013l-0.014-0.010c0.754 0.664 1.227 1.632 1.227 2.71 0 0.101-0.004 0.201-0.012 0.3l0.001-0.013c0 0.023 0.001 0.050 0.001 0.077 0 0.639-0.146 1.244-0.406 1.783l0.011-0.025c-0.259 0.528-0.677 0.946-1.19 1.199l-0.015 0.007c0.654 0.166 1.19 0.583 1.508 1.14l0.006 0.012c0.309 0.554 0.491 1.215 0.491 1.918 0 0.027-0 0.054-0.001 0.081l0-0.004c0.005 0.078 0.008 0.169 0.008 0.26 0 1.121-0.442 2.138-1.162 2.888l0.001-0.001z"></path>
<path class="fill-active" d="M21.515 14.368c0.286-0.287 0.462-0.683 0.462-1.121 0-0.037-0.001-0.074-0.004-0.111l0 0.005c0.004-0.046 0.007-0.099 0.007-0.153 0-0.462-0.181-0.882-0.477-1.192l0.001 0.001c-0.344-0.264-0.78-0.423-1.254-0.423-0.062 0-0.123 0.003-0.183 0.008l0.008-0.001h-1.291v3.435h1.344c0.031 0.002 0.068 0.003 0.105 0.003 0.487 0 0.934-0.17 1.286-0.454l-0.004 0.003z"></path>
<path class="fill-active" d="M20.811 17.067h-2.027v3.616h1.867c0.044 0.004 0.095 0.006 0.146 0.006 0.441 0 0.845-0.16 1.158-0.424l-0.003 0.002c0.283-0.307 0.456-0.718 0.456-1.169 0-0.058-0.003-0.115-0.008-0.171l0.001 0.007c0.004-0.048 0.006-0.103 0.006-0.159 0-0.469-0.141-0.905-0.384-1.268l0.005 0.008c-0.262-0.282-0.635-0.458-1.048-0.458-0.059 0-0.117 0.004-0.174 0.011l0.007-0.001z"></path>
</svg>
