<svg xmlns="http://www.w3.org/2000/svg" viewBox="0 0 48 24" enable-background="new 0 0 48 24"><path fill="#939393" d="m22 24h-19c-1.1 0-2-.9-2-2v-19c0-1.1.9-2 2-2h19c1.1 0 2 .9 2 2v19c0 1.1-.9 2-2 2"/><path fill="#5a5a5a" d="m21 23h-19c-1.1 0-2-.9-2-2v-19c0-1.1.9-2 2-2h19c1.1 0 2 .9 2 2v19c0 1.1-.9 2-2 2"/><path fill="#d6d6d6" d="m21 22h-19c-.6 0-1-.4-1-1v-19c0-.6.4-1 1-1h19c.6 0 1 .4 1 1v19c0 .6-.4 1-1 1"/><path fill="#5a5a5a" d="m4 21c-1.1 0-2-.9-2-2v-15c0-1.1.9-2 2-2 1.1 0 2 .9 2 2v15c0 1.1-.9 2-2 2"/><path fill="#939393" d="m4 20c-.6 0-1-.4-1-1v-15c0-.5.4-1 1-1 .5 0 1 .4 1 1v15c0 .6-.4 1-1 1"/><circle fill="#5a5a5a" cx="4" cy="7" r="3"/><circle fill="#fff" cx="4" cy="7" r="2"/><path fill="#5a5a5a" d="m11 21c-1.1 0-2-.9-2-2v-15c0-1.1.9-2 2-2 1.1 0 2 .9 2 2v15c0 1.1-.9 2-2 2"/><path fill="#939393" d="m11 20c-.6 0-1-.4-1-1v-15c0-.5.4-1 1-1 .5 0 1 .4 1 1v15c0 .6-.4 1-1 1"/><circle fill="#5a5a5a" cx="11" cy="15" r="3"/><circle fill="#fff" cx="11" cy="15" r="2"/><path fill="#5a5a5a" d="m18 21c-1.1 0-2-.9-2-2v-15c0-1.1.9-2 2-2 1.1 0 2 .9 2 2v15c0 1.1-.9 2-2 2"/><path fill="#939393" d="m18 20c-.6 0-1-.4-1-1v-15c0-.5.4-1 1-1 .5 0 1 .4 1 1v15c0 .6-.4 1-1 1"/><circle fill="#5a5a5a" cx="18" cy="10" r="3"/><circle fill="#fff" cx="18" cy="10" r="2"/><path fill="#939393" d="m46 24h-19c-1.1 0-2-.9-2-2v-19c0-1.1.9-2 2-2h19c1.1 0 2 .9 2 2v19c0 1.1-.9 2-2 2"/><path fill="#ac382e" d="m45 23h-19c-1.1 0-2-.9-2-2v-19c0-1.1.9-2 2-2h19c1.1 0 2 .9 2 2v19c0 1.1-.9 2-2 2"/><path fill="#fff" d="m45 22h-19c-.6 0-1-.4-1-1v-19c0-.6.4-1 1-1h19c.6 0 1 .4 1 1v19c0 .6-.4 1-1 1"/><path fill="#ac382e" d="m28 21c-1.1 0-2-.9-2-2v-15c0-1.1.9-2 2-2 1.1 0 2 .9 2 2v15c0 1.1-.9 2-2 2"/><path fill="#d6d6d6" d="m28 20c-.6 0-1-.4-1-1v-15c0-.5.4-1 1-1 .5 0 1 .4 1 1v15c0 .6-.4 1-1 1"/><circle fill="#ac382e" cx="28" cy="7" r="3"/><circle fill="#e74c3c" cx="28" cy="7" r="2"/><path fill="#ac382e" d="m35 21c-1.1 0-2-.9-2-2v-15c0-1.1.9-2 2-2 1.1 0 2 .9 2 2v15c0 1.1-.9 2-2 2"/><path fill="#d6d6d6" d="m35 20c-.6 0-1-.4-1-1v-15c0-.5.4-1 1-1 .5 0 1 .4 1 1v15c0 .6-.4 1-1 1"/><circle fill="#ac382e" cx="35" cy="15" r="3"/><circle fill="#e74c3c" cx="35" cy="15" r="2"/><path fill="#ac382e" d="m42 21c-1.1 0-2-.9-2-2v-15c0-1.1.9-2 2-2 1.1 0 2 .9 2 2v15c0 1.1-.9 2-2 2"/><path fill="#d6d6d6" d="m42 20c-.6 0-1-.4-1-1v-15c0-.5.4-1 1-1 .5 0 1 .4 1 1v15c0 .6-.4 1-1 1"/><circle fill="#ac382e" cx="42" cy="10" r="3"/><circle fill="#e74c3c" cx="42" cy="10" r="2"/></svg>