<svg xmlns="http://www.w3.org/2000/svg" viewBox="0 0 72 72" enable-background="new 0 0 72 72"><path fill="#e74c3c" d="M0,36c0,19.9,16,36,36,36V0C16,0,0,16.1,0,36z"/><path fill="#ac382e" d="m36 0v72c20 0 36-16.1 36-36 0-19.9-16-36-36-36"/><path fill="#fff" d="m25.7 34.5c.1.1.3.2.3.3.5 1.3 3.5 7.4 10.1 7.4 6.6 0 9.6-6.1 10.1-7.3.1-.1.2-.2.3-.3.7-.3 2.9-1.4 3.6-5.1.6-2.6-.9-3.8-1.6-4.2-.2-.1-.3-.3-.3-.5.1-1.8.2-9.7-4.9-11.8-.9-.4-2.1-.1-3.3-.5-1.8-.6-4.1-.7-4.1-.7s-12.5-.4-11.9 13.1c0 .2-.1.4-.3.5-.7.3-2.1 1.4-1.6 4 .6 3.2 2.3 4.6 3.6 5.1"/><path fill="#e74c3c" d="m24 28.3c.3-2 1.2-1 4.2-1.5s5.1-2.7 7.9-5.3 6.6-1.7 8.2-.6c1.4 1 2.1 3.7 2.4 5.5 0 .2.2.4.5.5.9.1 1.7.9.9 3.4-.7 2.2-2.1 2.5-2.7 2.6-.2 0-.4.2-.5.4-.6 1.5-3 7-8.6 7-5.6 0-8-5.5-8.6-7-.1-.2-.2-.3-.4-.4-1.9-.2-3.5-2.8-3.3-4.6"/><path fill="#fff" d="m52.9 47.3c-3-2-7.1-4.6-8.6-5.6-.4-.2-.8-.1-1 .2l-1.9 3c-.6.9-1.3 1.8-2.2 2.5l-3.3 2.8-3.3-2.8c-.9-.7-1.6-1.6-2.2-2.5l-1.9-3.1c-.2-.4-.7-.5-1-.3-1.5 1-5.8 3.5-8.9 5.5-3.8 2.6-4.6 7.2-4.6 7.2v5.1c0 .6 1 1.3 1.6 1.3h40.5c.6 0 .9-.7.9-1.3v-4.8c0 .1-.3-4.7-4.1-7.2m-2.9 7.8c0 .3-.3.6-.6.6h-6.9c-.3 0-.6-.3-.6-.6v-.9c0-.3.3-.6.6-.6h6.9c.3 0 .6.3.6.6v.9"/></svg>