<svg xmlns="http://www.w3.org/2000/svg" viewBox="0 0 72 72" enable-background="new 0 0 72 72"><path fill="#939393" d="M0,36c0,19.9,16,36,36,36V0C16,0,0,16.1,0,36z"/><path fill="#5a5a5a" d="m36 0v72c20 0 36-16.1 36-36 0-19.9-16-36-36-36"/><path fill="#d6d6d6" d="m21 25.5c0-3.9 6.7-7 15-7s15 3.1 15 7v20.8c0 3.9-6.7 7-15 7s-15-3.1-15-7v-20.8"/><g fill="#5a5a5a"><ellipse cx="36.2" cy="25.5" rx="12.9" ry="4.9"/><path d="m36.1 44.8c5.6 0 9.9-1.4 12.9-3.5v-5.3c-3 2.1-7.4 3.5-12.9 3.5-5.6-.1-11.1-1.5-13.1-3.7v5.2c2 2.3 7.4 3.8 13.1 3.8"/><path d="m49 42.5c-3 2.2-7.2 3.3-12.8 3.3-5.8 0-10.8-1.2-13.1-3.6 0 0-.1 0-.1 0v4.6c2 2.5 7.2 4.1 13.1 4.1 5.7 0 10.9-1.5 12.9-3.8v-4.6"/><path d="m23 34.3c2 2.4 7.4 4 13.1 4 5.6 0 9.9-1.5 12.9-3.7v-5.3c-3 2.1-7.4 3.5-12.9 3.5-5.6-.1-11.1-1.6-13.1-3.8v5.3"/></g><g fill="#d6d6d6"><path d="m44 34.9c2-.3 2-.7 3-1.1v-1.2c-1 .3-2 .5-3 .8v1.5"/><path d="m44 41.1c2-.3 2-.7 3-1.1v-1.2c-1 .3-2 .5-3 .8v1.5"/><path d="m44 47.9c2-.3 2-.7 3-1.1v-1.2c-1 .3-2 .5-3 .8v1.5"/></g></svg>