<svg xmlns="http://www.w3.org/2000/svg" viewBox="0 0 72 72" enable-background="new 0 0 72 72"><path fill="#e74c3c" d="M0,36c0,19.9,16,36,36,36V0C16,0,0,16.1,0,36z"/><path fill="#ac382e" d="m36 0v72c20 0 36-16.1 36-36 0-19.9-16-36-36-36"/><path fill="#fff" d="m60.2 53.4h-48.4c-.6 0-1.1-.5-1.1-1.1v-32c0-.6.5-1.1 1.1-1.1h48.4c.6 0 1.1.5 1.1 1.1v32.1c0 .5-.5 1-1.1 1"/><path fill="#2c3e50" d="m61.3 24.8h-50.6v-4.5c0-.6.5-1.1 1.1-1.1h48.4c.6 0 1.1.5 1.1 1.1v4.5"/><g fill="#fff"><path d="m58.5 23.1h-32.6c-.3 0-.6-.3-.6-.6v-1.1c0-.3.3-.6.6-.6h32.6c.3 0 .6.3.6.6v1.1c-.1.3-.3.6-.6.6"/><circle cx="13.5" cy="21.9" r="1.1"/><circle cx="16.9" cy="21.9" r="1.1"/><circle cx="20.2" cy="21.9" r="1.1"/></g><g fill="#e74c3c"><path d="m13 25.6h11v11h-11z"/><path d="m17 40.6h6v6h-6z"/><path d="m33 40.6h6v6h-6z"/><path d="m48 40.6h6v6h-6z"/></g><g fill="#2c3e50"><path d="m25 25.6h33v3h-33z"/><path d="m25 29.6h33v3h-33z"/><path d="m25 33.6h33v3h-33z"/><path d="m13 47.6h15v3h-15z"/><path d="m29 47.6h14v3h-14z"/><path d="m44 47.6h14v3h-14z"/></g></svg>