<svg enable-background="new 74.8 197.7 446.5 446.5" viewBox="74.8 197.7 446.5 446.5" xmlns="http://www.w3.org/2000/svg"><path d="m74.8 420.9c0 123.3 99.2 223.2 223.2 223.2v-446.4c-124 0-223.2 100-223.2 223.2" fill="#939393"/><path d="m298 197.7v446.5c124 0 223.2-99.9 223.2-223.2 0-123.3-99.2-223.3-223.2-223.3" fill="#5a5a5a"/><path d="m147.5 532.2c-5.6 0-10.1-4.5-10.1-10.1v-198.8c0-5.6 4.5-10.1 10.1-10.1h300c5.6 0 10.1 4.5 10.1 10.1v198.8c0 5.6-4.5 10.1-10.1 10.1z" fill="#939393"/><path d="m447.4 316.3c3.9 0 7 3.1 7 7v198.8c0 3.9-3.1 7-7 7h-300c-3.9 0-7-3.1-7-7v-198.8c0-3.9 3.1-7 7-7zm0-6.2h-300c-7.3 0-13.2 5.9-13.2 13.2v198.8c0 7.3 5.9 13.2 13.2 13.2h300c7.3 0 13.2-5.9 13.2-13.2v-198.8c0-7.3-5.9-13.2-13.2-13.2z" fill="#d6d6d6"/><path d="m454.4 351.2h-313.9v-27.9c0-3.9 3.1-7 7-7h300c3.9 0 7 3.1 7 7v27.9z" fill="#5a5a5a"/><g fill="#fff"><path d="m437 340.7h-202.3c-1.9 0-3.5-1.6-3.5-3.5v-7c0-1.9 1.6-3.5 3.5-3.5h202.3c1.9 0 3.5 1.6 3.5 3.5v7c-.1 2-1.6 3.5-3.5 3.5"/><circle cx="157.9" cy="333.7" r="7"/><circle cx="178.9" cy="333.7" r="7"/><circle cx="199.8" cy="333.7" r="7"/><path d="m155 356.9h69v68h-69z"/><path d="m180 449.9h37v37h-37z"/><path d="m279 449.9h38v37h-38z"/><path d="m372 449.9h38v37h-38z"/></g><g fill="#d6d6d6"><path d="m230 356.9h204v18h-204z"/><path d="m230 380.9h204v19h-204z"/><path d="m230 405.9h204v19h-204z"/><path d="m155 492.9h93v19h-93z"/><path d="m255 492.9h86v19h-86z"/><path d="m348 492.9h86v19h-86z"/></g></svg>