<svg enable-background="new 0 0 72 72" viewBox="0 0 72 72" xmlns="http://www.w3.org/2000/svg"><path d="m0 36c0 19.9 16 36 36 36v-72c-20 0-36 16.1-36 36z" fill="#939393"/><path d="m36 0v72c19 0 36-16.1 36-36 0-19.9-17-36-36-36" fill="#5a5a5a"/><path d="m35 28.3h4v14h-4z" fill="#ac382e"/><path d="m22 25.8l5 20.4h-5.6l-.5-3.6h-4.2l-.5 3.6h-5.6l5-20.4zm-4.8 12.8h3l-1.5-8.6h-.1zm4.8-14.5h-6.7c-.8 0-1.5.5-1.6 1.3l-5 20.4c-.1.5 0 1 .3 1.4.3.4.8.6 1.3.6h5.6c.8 0 1.5-.6 1.7-1.4l.3-2.1h1.3l.3 2.1c.1.8.8 1.4 1.7 1.4h5.8c.5 0 1-.2 1.3-.6.3-.4.4-.9.3-1.4l-5-20.4c-.1-.7-.8-1.3-1.6-1.3z" fill="#5a5a5a"/><path d="m15.4 25.8h6.6l5 20.4h-5.6l-.5-3.6h-4.2l-.5 3.6h-5.6zm3.3 4.2l-1.5 8.6h3z" fill="#fff"/><path d="m37.8 25.8c3.8 0 5.6 2 5.6 5.1 0 2.2-.9 4.1-3.2 4.6v.1c2.7.3 3.8 2.5 3.8 4.7 0 3.5-1.7 6-6.1 6h-8v-20.5zm-2.7 8h1.3c1.1 0 1.7-1 1.7-2.1 0-1.1-.6-2.1-1.7-2.1h-1.3zm0 8.6h1.5c1 0 1.9-.9 1.9-2.5 0-1.6-.9-2.5-1.9-2.5h-1.5zm2.7-18.3h-8c-.9 0-1.7.8-1.7 1.7v20.4c0 .9.8 1.7 1.7 1.7h8c5 0 7.8-2.8 7.8-7.7 0-1.8-.6-3.7-2-4.9.9-1.1 1.4-2.6 1.4-4.4.1-4.2-2.7-6.8-7.2-6.8z" fill="#5a5a5a"/><path d="m29.8 25.8h8c3.8 0 5.6 2 5.6 5.1 0 2.2-.9 4.1-3.2 4.6v.1c2.7.3 3.8 2.5 3.8 4.7 0 3.5-1.7 6-6.1 6h-8v-20.5zm5.3 8h1.3c1.1 0 1.7-1 1.7-2.1 0-1.1-.6-2.1-1.7-2.1h-1.3zm0 8.6h1.5c1 0 1.9-.9 1.9-2.5 0-1.6-.9-2.5-1.9-2.5h-1.5z" fill="#fff"/><path d="m54.1 25.4c4.8 0 6.6 2.5 6.6 6.4v1.3h-5.1v-1.1c0-2.3-.4-3-1.5-3-1.6 0-1.8 1.5-1.8 7 0 5.5.2 7 1.8 7 1.3 0 1.6-1.1 1.6-5h5.1v1.5c0 5.7-3.3 7.1-6.7 7.1-6 0-7.3-3-7.3-10.6 0-7.8 1.8-10.6 7.3-10.6m0-1.7c-7.4 0-9 4.9-9 12.3 0 6.5.7 12.3 9 12.3 5.4 0 8.4-3.1 8.4-8.8v-1.5c0-.9-.8-1.7-1.7-1.7h-5.1c-.9 0-1.7.8-1.7 1.7 0 .1 0 .2 0 .4 0-.8 0-1.7 0-2.4 0-.6 0-1.4 0-2.2.3.6.9 1 1.5 1h5.1c.9 0 1.7-.8 1.7-1.7v-1.3c0-5.2-2.9-8.1-8.2-8.1z" fill="#5a5a5a"/><path d="m55.5 32c0-2.3-.4-3-1.5-3-1.6 0-1.8 1.5-1.8 7 0 5.5.2 7 1.8 7 1.3 0 1.6-1.1 1.6-5h5.1v1.5c0 5.7-3.3 7.1-6.7 7.1-6 0-7.3-3-7.3-10.6 0-7.8 1.8-10.6 7.3-10.6 4.8 0 6.6 2.5 6.6 6.4v1.3h-5.1z" fill="#fff"/></svg>