<svg xmlns="http://www.w3.org/2000/svg" viewBox="0 0 72 72" enable-background="new 0 0 72 72"><path fill="#e74c3c" d="M0,36c0,19.9,16.3,36,36,36V0C16.3,0,0,16.1,0,36z"/><path fill="#ac382e" d="m36 0v72c20.3 0 36-16.1 36-36 0-19.9-15.7-36-36-36"/><path fill="#fff" d="m40 21.9v-9.2h-18.1c-1.2 0-2.9 1.2-2.9 2.5v41.6c0 1.2 1.6 1.9 2.9 1.9h28.7c1.2 0 1.5-.7 1.5-1.9v-32.1h-8.2c-2 0-3.9-.9-3.9-2.8"/><path fill="#2c3e50" d="m43.8 23.7h8.3l-11.1-10.8v9c0 1.3 1.6 1.8 2.8 1.8"/><g fill="#e74c3c"><path d="m23 19.7h15v9h-15z"/><path d="m23 31.7h26v2h-26z"/><path d="m23 36.7h26v2h-26z"/><path d="m23 41.7h26v2h-26z"/><path d="m49 55.1h-25.3c-.3 0-.6-.3-.6-.6v-4.5h26.4v4.5c.1.4-.2.6-.5.6"/></g></svg>