<svg id="svg1650" enable-background="new 0 0 400 400" height="400" viewBox="0 0 400 400" width="400" xmlns="http://www.w3.org/2000/svg"><path id="path1575" d="m307.77 285.234c-21.844 27.577-29.103 71.905-4.326 99.947 3.051 3.07 6.711 5.613 10.819 7.045 28.522 9.524 56.007-14.431 66.226-39.516 12.598-26.873 14.264-64.633-10.464-85.23-.658-.452-1.333-.886-2.005-1.285-20.822-12.38-47.72.317-60.25 19.039zm167.919 45.997c-32.565-8.635-64.755 14.589-81.096 41.313-12.819 20.009-17.9 51.03 2.628 67.929 2.896 2.327 6.193 4.137 9.735 5.269 39.494 9.202 77.307-22.405 90.225-57.956 6.694-17.844 3.391-42.844-13.444-53.123-2.405-1.468-5.08-2.628-8.048-3.432zm-291.523 10.736c-15.871 29.556-13.809 75.745 17.55 94.369 23.566 11.493 49.479-8.949 57.03-31.057 13.004-29.192 9.769-70.362-18.753-89.186-21.963-11.267-46.736 5.515-55.827 25.874zm294.07 125.443c-35.419-2.378-71.74 22.877-81.04 57.317-4.314 16.122 2.263 35.388 18.863 41.525 40.345 13.717 87.34-16.863 96.114-57.367 3.269-15.148-4.746-29.813-17.377-36.961-4.943-2.798-10.608-4.442-16.56-4.514zm-191.511-21.126c-36.131.684-69.348 17.773-100.637 34.216-17.22 11.317-37.948 24.876-41.741 46.625-1.813 22.439 19.255 38.18 39.664 40.629 23.426 3.819 48.993 3.751 68.493 19.356 24.456 15.843 36.19 45.823 61.941 59.752 21.146 12.026 49.447-1.875 54.116-25.457 10.284-30.567 10.743-63.962 6.036-95.606-5.209-27.824-23.016-54.777-47.625-69.056-12.017-6.972-25.659-10.915-40.247-10.459z" fill="#e74c3c" transform="translate(-118.99908 -256.27405)"/></svg>