<?xml version="1.0" encoding="iso-8859-1"?>
<!DOCTYPE svg PUBLIC "-//W3C//DTD SVG 1.1//EN" "http://www.w3.org/Graphics/SVG/1.1/DTD/svg11.dtd">
<svg version="1.1"
	 id="svg1650" xmlns:inkscape="http://www.inkscape.org/namespaces/inkscape" xmlns:svg="http://www.w3.org/2000/svg" xmlns:cc="http://creativecommons.org/ns#" xmlns:dc="http://purl.org/dc/elements/1.1/" xmlns:rdf="http://www.w3.org/1999/02/22-rdf-syntax-ns#" xmlns:sodipodi="http://sodipodi.sourceforge.net/DTD/sodipodi-0.dtd" sodipodi:docname="New document 15" inkscape:version="0.48+devel rVersion: 0.49~devel+10252+4~lucid1"
	 xmlns="http://www.w3.org/2000/svg" xmlns:xlink="http://www.w3.org/1999/xlink" x="0px" y="0px" width="400px" height="400px"
	 viewBox="0 0 400 400" style="enable-background:new 0 0 400 400;" xml:space="preserve">
<sodipodi:namedview  id="base" fit-margin-left="0" inkscape:zoom="0.69842875" inkscape:cx="253.04816" bordercolor="#666666" pagecolor="#ffffff" fit-margin-top="0" inkscape:cy="133.69779" borderopacity="1.0" showgrid="false" inkscape:document-units="px" inkscape:window-height="952" inkscape:window-y="24" inkscape:pageshadow="2" inkscape:window-x="0" inkscape:pageopacity="0.0" inkscape:window-maximized="1" inkscape:current-layer="layer1" inkscape:window-width="1280" fit-margin-right="0" fit-margin-bottom="0">
	</sodipodi:namedview>
<g id="layer1" transform="translate(-118.99908,-256.27405)" inkscape:label="Layer 1" inkscape:groupmode="layer">
	<path id="path1575" style="fill:#E74C3C;" d="M307.77,285.234c-21.844,27.577-29.103,71.905-4.326,99.947
		c3.051,3.07,6.711,5.613,10.819,7.045c28.522,9.524,56.007-14.431,66.226-39.516c12.598-26.873,14.264-64.633-10.464-85.23
		c-0.658-0.452-1.333-0.886-2.005-1.285C347.198,253.815,320.3,266.512,307.77,285.234z M475.689,331.231
		c-32.565-8.635-64.755,14.589-81.096,41.313c-12.819,20.009-17.9,51.03,2.628,67.929c2.896,2.327,6.193,4.137,9.735,5.269
		c39.494,9.202,77.307-22.405,90.225-57.956c6.694-17.844,3.391-42.844-13.444-53.123
		C481.332,333.195,478.657,332.035,475.689,331.231z M184.166,341.967c-15.871,29.556-13.809,75.745,17.55,94.369
		c23.566,11.493,49.479-8.949,57.03-31.057c13.004-29.192,9.769-70.362-18.753-89.186
		C218.03,304.826,193.257,321.608,184.166,341.967z M478.236,467.41c-35.419-2.378-71.74,22.877-81.04,57.317
		c-4.314,16.122,2.263,35.388,18.863,41.525c40.345,13.717,87.34-16.863,96.114-57.367c3.269-15.148-4.746-29.813-17.377-36.961
		C489.853,469.126,484.188,467.482,478.236,467.41z M286.725,446.284c-36.131,0.684-69.348,17.773-100.637,34.216
		c-17.22,11.317-37.948,24.876-41.741,46.625c-1.813,22.439,19.255,38.18,39.664,40.629c23.426,3.819,48.993,3.751,68.493,19.356
		c24.456,15.843,36.19,45.823,61.941,59.752c21.146,12.026,49.447-1.875,54.116-25.457c10.284-30.567,10.743-63.962,6.036-95.606
		c-5.209-27.824-23.016-54.777-47.625-69.056C314.955,449.771,301.313,445.828,286.725,446.284z"/>
</g>
</svg>
