<?xml version="1.0" encoding="UTF-8" standalone="no"?>
<!-- Created with Inkscape (http://www.inkscape.org/) -->

<svg
   xmlns:dc="http://purl.org/dc/elements/1.1/"
   xmlns:cc="http://creativecommons.org/ns#"
   xmlns:rdf="http://www.w3.org/1999/02/22-rdf-syntax-ns#"
   xmlns:svg="http://www.w3.org/2000/svg"
   xmlns="http://www.w3.org/2000/svg"
   xmlns:sodipodi="http://sodipodi.sourceforge.net/DTD/sodipodi-0.dtd"
   xmlns:inkscape="http://www.inkscape.org/namespaces/inkscape"
   version="1.1"
   id="Layer_1"
   x="0px"
   y="0px"
   width="410px"
   height="90px"
   viewBox="0 0 410 90"
   enable-background="new 0 0 410 90"
   xml:space="preserve"
   inkscape:version="0.48.3.1 r9886"
   sodipodi:docname="logo_full.svg"><title
   id="title3042">Caracal - Full Logo</title><metadata
   id="metadata65"><rdf:RDF><cc:Work
       rdf:about=""><dc:format>image/svg+xml</dc:format><dc:type
         rdf:resource="http://purl.org/dc/dcmitype/StillImage" /><dc:title>Caracal - Full Logo</dc:title><dc:publisher><cc:Agent><dc:title>Way2CU ltd.</dc:title></cc:Agent></dc:publisher><dc:creator><cc:Agent><dc:title>Michael Kerch</dc:title></cc:Agent></dc:creator><dc:rights><cc:Agent><dc:title>Way2CU ltd.</dc:title></cc:Agent></dc:rights><dc:subject><rdf:Bag><rdf:li>Caracal</rdf:li></rdf:Bag></dc:subject></cc:Work></rdf:RDF></metadata><defs
   id="defs63" /><sodipodi:namedview
   pagecolor="#ffffff"
   bordercolor="#666666"
   borderopacity="1"
   objecttolerance="10"
   gridtolerance="10"
   guidetolerance="10"
   inkscape:pageopacity="0"
   inkscape:pageshadow="2"
   inkscape:window-width="1362"
   inkscape:window-height="724"
   id="namedview61"
   showgrid="false"
   inkscape:zoom="1.9178116"
   inkscape:cx="198.57948"
   inkscape:cy="-30.742298"
   inkscape:window-x="0"
   inkscape:window-y="42"
   inkscape:window-maximized="0"
   inkscape:current-layer="Layer_1" />
<g
   id="g3">
	<path
   fill="#E64C3C"
   d="M140.659,77.698c-2.419,1.188-4.703,2.051-6.844,2.57c-2.233,0.544-4.408,0.815-6.519,0.815   c-3.141,0-6.13-0.647-8.967-1.946c-2.838-1.299-5.344-3.154-7.516-5.571c-2.174-2.412-3.895-5.296-5.162-8.647   c-1.268-3.352-1.902-7.079-1.902-11.185c0-4.588,0.634-8.618,1.902-12.09c1.268-3.471,2.988-6.354,5.162-8.648   c2.172-2.294,4.678-4.016,7.516-5.163c2.837-1.146,5.826-1.721,8.967-1.721c2.111,0,4.256,0.18,6.43,0.543   c2.172,0.362,4.586,0.966,7.245,1.811l2.354-5.838c-2.777-1.012-5.508-1.771-8.195-2.277c-2.687-0.507-5.298-0.759-7.833-0.759   c-4.65,0-8.967,0.828-12.951,2.487c-3.986,1.659-7.457,3.995-10.416,7.009c-2.958,3.015-5.269,6.618-6.927,10.809   c-1.663,4.19-2.491,8.817-2.491,13.882c0,5.247,0.828,9.949,2.491,14.11c1.658,4.159,3.968,7.702,6.927,10.626   c2.959,2.925,6.43,5.171,10.416,6.737c3.984,1.568,8.301,2.352,12.951,2.352c2.535,0,5.13-0.316,7.788-0.949   c0.865-0.207,1.743-0.479,2.627-0.777L140.659,77.698z"
   id="path5" />
	<path
   fill="#E64C3C"
   d="M319.499,77.698c-2.418,1.188-4.703,2.051-6.842,2.57c-2.235,0.544-4.408,0.815-6.521,0.815   c-3.14,0-6.127-0.647-8.965-1.946c-2.84-1.299-5.344-3.154-7.518-5.571c-2.173-2.412-3.895-5.296-5.162-8.647   c-1.27-3.352-1.901-7.079-1.901-11.185c0-4.588,0.632-8.618,1.901-12.09c1.268-3.471,2.989-6.354,5.162-8.648   c2.174-2.294,4.678-4.016,7.518-5.163c2.838-1.146,5.825-1.721,8.965-1.721c2.113,0,4.257,0.18,6.43,0.543   c2.175,0.362,4.588,0.966,7.246,1.811l2.354-5.838c-2.776-1.012-5.51-1.771-8.196-2.277c-2.688-0.507-5.297-0.759-7.834-0.759   c-4.65,0-8.965,0.828-12.951,2.487c-3.984,1.659-7.457,3.995-10.413,7.009c-2.958,3.015-5.271,6.618-6.929,10.809   c-1.66,4.19-2.49,8.817-2.49,13.882c0,5.247,0.83,9.949,2.49,14.11c1.658,4.159,3.971,7.702,6.929,10.626   c2.956,2.925,6.429,5.171,10.413,6.737c3.986,1.568,8.301,2.352,12.951,2.352c2.537,0,5.133-0.316,7.79-0.949   c0.862-0.207,1.741-0.479,2.626-0.777L319.499,77.698z"
   id="path7" />
	<path
   fill="#E64C3C"
   d="M368.894,20.679h8.693v59.318h27.531l-0.093,6.521h-36.132V20.679z"
   id="path9" />
	<polygon
   fill="#E64C3C"
   points="171.958,20.679 163.536,20.679 139.808,86.519 148.411,86.519 153.846,70.761 158.855,70.761    166.39,70.761 162.32,64.239 158.855,64.239 156.744,64.239 155.657,64.422 156.653,62.519 166.795,33.448 167.431,30.822    168.063,33.448 186.448,86.519 188.29,86.519 188.29,66.001  "
   id="polygon11" />
	<path
   fill="#E64C3C"
   d="M273.593,67.89c-1.66-4.161-2.49-8.863-2.49-14.11c0-1.665,0.1-3.278,0.278-4.847l-10.183-28.254h-8.422   l-23.729,65.84h8.604l5.435-15.758h5.032h7.537l-4.069-6.521h-3.468h-2.135l-1.086,0.183l0.996-1.903l10.143-29.071l0.635-2.626   l0.633,2.626l18.384,53.071h1.843V74.983C275.972,72.854,274.638,70.509,273.593,67.89z"
   id="path13" />
	<g
   id="g15">
		<polygon
   fill="#E64C3C"
   points="350.8,20.679 342.376,20.679 318.649,86.519 327.253,86.519 332.688,70.761 337.702,70.761     345.232,70.761 341.162,64.239 337.702,64.239 335.585,64.239 334.497,64.422 335.493,62.519 345.638,33.448 346.271,30.822     346.905,33.448 365.29,86.519 367.133,86.519 367.133,66.001   "
   id="polygon17" />
	</g>
	<path
   fill="#E64C3C"
   d="M229.491,48.578c2.023-2.742,3.034-5.923,3.034-9.542v-0.179c0-2.592-0.56-5.066-1.676-7.417   c-1.118-2.351-2.716-4.417-4.8-6.194c-2.082-1.781-4.604-3.182-7.562-4.207c-2.96-1.025-6.249-1.539-9.871-1.539   c-3.322,0-6.401,0.182-9.238,0.544c-2.838,0.363-5.947,0.874-9.327,1.537v64.938h8.603V26.836c2.173-0.421,3.953-0.663,5.343-0.724   c1.389-0.06,2.928-0.091,4.62-0.091c2.051,0,3.969,0.333,5.75,0.997c1.78,0.664,3.337,1.571,4.665,2.716   c1.327,1.148,2.386,2.49,3.171,4.03c0.783,1.54,1.176,3.216,1.176,5.027c0,1.873-0.393,3.593-1.176,5.162   c-0.785,1.57-1.799,2.914-3.035,4.031c-1.238,1.118-2.642,2.008-4.211,2.671c-1.459,0.62-4.272,1.026-4.66,1.081l-2.999,0.004   l-3.85,6.168h6.036c1.254,0.01,2.248,0.012,2.554,0h0.127c2.346,0.904,4.167,2.413,5.464,4.521   c1.298,2.114,2.369,4.527,3.215,7.246c0.846,2.715,1.614,5.556,2.31,8.512c0.694,2.958,1.644,5.738,2.853,8.332h0.924l4.199-11.654   c-0.533-1.949-1.075-3.855-1.637-5.665c-0.814-2.624-1.811-5.021-2.988-7.19s-2.885-4.008-5.117-5.517l-1.811-0.725l2.174-0.723   C224.887,53.477,227.468,51.321,229.491,48.578z"
   id="path19" />
</g>
<g
   id="g21">
	<path
   fill="#FFFFFF"
   d="M53.313,69.98c0.017-0.013,0.033-0.028,0.049-0.046C53.346,69.956,53.33,69.972,53.313,69.98z"
   id="path23" />
	<path
   fill="#FFFFFF"
   d="M53.143,70.072c0.038-0.009,0.074-0.025,0.112-0.046C53.217,70.047,53.181,70.063,53.143,70.072z"
   id="path25" />
	<path
   fill="#FFFFFF"
   d="M52.803,69.98c0.112,0.087,0.22,0.112,0.319,0.095c-0.099,0.025-0.203-0.003-0.319-0.09   c-0.087,0.049-0.174,0.09-0.24,0.128C52.629,70.072,52.716,70.03,52.803,69.98z"
   id="path27" />
	<path
   fill="#FFFFFF"
   d="M52.501,70.154c-0.021,0.013-0.041,0.029-0.062,0.046c0.016-0.017,0.041-0.033,0.062-0.05   c0.017-0.013,0.038-0.024,0.063-0.037C52.539,70.13,52.518,70.142,52.501,70.154z"
   id="path29" />
	<path
   fill="#FFFFFF"
   d="M43.893,78.312c1.151,0.137,2.286-0.096,3.403-0.455c0.638-0.212,1.243-0.51,1.896-0.617   c0.166-0.025,0.335-0.059,0.464-0.059c0.004,0,0.008,0,0.017,0c0,0,0.033,0,0.041,0c0.125,0,0.319,0.033,0.484,0.059   c0.572,0.096,1.105,0.355,1.661,0.559c-0.555-0.194-1.089-0.43-1.661-0.521c-0.165-0.029-0.36-0.025-0.484-0.025   c-0.008,0-0.041,0-0.041,0c-0.008,0-0.012,0-0.017,0c-0.129,0-0.298-0.004-0.464,0.025c-0.654,0.104-1.259,0.389-1.896,0.596   c-1.118,0.361-2.252,0.584-3.403,0.447c-0.517-0.066-1.027-0.178-1.52-0.344C42.866,78.134,43.376,78.245,43.893,78.312z"
   id="path31" />
	<g
   id="g33">
		<path
   fill="#FFFFFF"
   d="M78.859,13.401c-0.021,0-0.041-0.339-0.062-0.336c-0.186,0.013-0.377-0.294-0.563-0.294    c-0.012,0-0.021,0-0.029,0c-0.112,0-0.22,0.36-0.327,0.368c-0.1,0.014-0.203,0.191-0.302,0.204c-0.05,0.004-0.1,0.094-0.145,0.102    c-0.166,0.017-0.327,0.079-0.489,0.104c-1.59,0.211-3.142,0.588-4.628,1.152c-2.249,0.853-4.319,2.201-5.992,4.006    c-0.319,0.34-0.621,0.697-0.915,1.065c-0.477,0.604-0.915,1.249-1.313,1.924c-0.654,1.068-1.192,2.229-1.652,3.421    c-0.228,0.617-0.476,1.247-0.753,1.852c-0.281,0.608-0.592,1.202-0.949,1.768c-0.36,0.563-0.757,1.106-1.233,1.574    c-0.12,0.116-0.249,0.228-0.376,0.332c-0.128,0.104-0.265,0.199-0.41,0.286c-0.042,0.029-0.087,0.054-0.132,0.075    c0.393,0.12,0.783,0.252,1.168,0.397c0.082-0.029,0.161-0.058,0.235-0.095c0.232-0.108,0.447-0.256,0.634-0.435    c0.372-0.361,0.663-0.812,0.919-1.288c0.513-0.952,0.944-1.983,1.437-2.977c0.24-0.501,0.488-1.002,0.749-1.495    c0.261-0.488,0.53-0.977,0.812-1.457c0.277-0.48,0.567-0.956,0.87-1.416c0.306-0.468,0.604-0.924,0.943-1.383    c0.17-0.224,0.348-0.447,0.531-0.658c0.127-0.145,0.256-0.282,0.389-0.418c0.063-0.067,0.128-0.133,0.191-0.195    c0.389-0.394,0.807-0.762,1.233-1.102c0.427-0.343,0.882-0.65,1.341-0.936c0.456-0.285,0.928-0.554,1.412-0.787    c0.48-0.235,0.969-0.451,1.462-0.646c0.497-0.186,0.997-0.356,1.503-0.505c0.803-0.228,1.615-0.418,2.435-0.525    c0.166-0.021,0.335-0.042,0.505-0.055c0.033-0.004,0.07-0.004,0.104-0.008c0.013,0,0.025,0,0.038-0.004    c-0.013,0.008-0.029,0.008-0.042,0.017c-0.012,0-0.029,0.008-0.042,0.012c-0.124,0.033-0.244,0.071-0.368,0.112    c-1.838,0.58-3.614,1.337-5.283,2.29c-0.447,0.265-0.89,0.53-1.321,0.828c-0.426,0.29-0.84,0.608-1.242,0.936    c-0.219,0.182-0.435,0.369-0.642,0.567c-0.173,0.153-0.343,0.318-0.509,0.488c-0.182,0.187-0.36,0.381-0.53,0.58    c-0.174,0.194-0.339,0.397-0.501,0.604c-0.315,0.411-0.621,0.866-0.923,1.317c-0.298,0.451-0.6,0.902-0.886,1.362    c-0.294,0.46-0.575,0.923-0.845,1.396c-0.277,0.472-0.551,0.944-0.82,1.424c-0.265,0.48-0.529,0.965-0.803,1.445    c-0.273,0.476-0.547,0.965-0.861,1.429c-0.323,0.459-0.667,0.915-1.118,1.242c-0.228,0.161-0.472,0.29-0.729,0.364    c-0.004,0.004-0.008,0.004-0.013,0.004c-0.037,0.008-0.07,0.021-0.108,0.024c0.133,0.054,0.261,0.104,0.39,0.153    c0.588,0.249,1.168,0.518,1.722,0.836c0.551,0.323,1.098,0.671,1.565,1.126c-0.277-0.152-0.559-0.281-0.849-0.397    c-0.29-0.12-0.58-0.224-0.874-0.319c-0.584-0.191-1.176-0.352-1.769-0.493c-1.192-0.282-2.393-0.477-3.602-0.625    c-2.414-0.298-4.845-0.389-7.283-0.389c-2.439,0-4.874,0.1-7.288,0.397c-1.209,0.149-2.41,0.348-3.602,0.63    c-1.185,0.285-2.373,0.617-3.496,1.196c0.472-0.451,1.02-0.794,1.574-1.114c0.555-0.319,1.135-0.588,1.718-0.832    c0.294-0.116,0.588-0.232,0.887-0.34c-0.133-0.062-0.257-0.136-0.377-0.223c-0.456-0.327-0.804-0.783-1.118-1.242    c-0.315-0.464-0.588-0.953-0.861-1.429c-0.273-0.48-0.539-0.964-0.803-1.445c-0.265-0.48-0.542-0.953-0.82-1.424    c-0.269-0.472-0.555-0.936-0.845-1.396c-0.286-0.459-0.588-0.911-0.886-1.362c-0.302-0.452-0.608-0.907-0.927-1.317    c-0.158-0.207-0.323-0.41-0.497-0.604c-0.169-0.199-0.348-0.393-0.531-0.58c-0.165-0.17-0.335-0.335-0.509-0.488    c-0.207-0.199-0.422-0.385-0.642-0.567c-0.401-0.328-0.815-0.646-1.242-0.936c-0.431-0.298-0.874-0.563-1.321-0.828    c-1.669-0.953-3.445-1.71-5.284-2.29c-0.124-0.041-0.244-0.079-0.368-0.112c-0.012-0.004-0.029-0.012-0.041-0.012    c-0.013-0.009-0.029-0.009-0.042-0.017c0.012,0.004,0.025,0.004,0.037,0.004c0.034,0.004,0.066,0.004,0.104,0.008    c0.166,0.013,0.335,0.034,0.505,0.055c0.819,0.107,1.631,0.297,2.434,0.525c0.505,0.149,1.007,0.319,1.503,0.505    c0.493,0.195,0.981,0.411,1.462,0.646c0.484,0.232,0.952,0.501,1.411,0.787c0.459,0.286,0.916,0.593,1.342,0.936    c0.426,0.339,0.844,0.708,1.234,1.102c0.062,0.062,0.128,0.128,0.19,0.195c0.132,0.136,0.261,0.273,0.389,0.418    c0.182,0.211,0.36,0.435,0.53,0.658c0.34,0.459,0.634,0.915,0.944,1.383c0.302,0.459,0.587,0.936,0.87,1.416    c0.277,0.48,0.546,0.969,0.812,1.457c0.261,0.493,0.505,0.994,0.75,1.495c0.488,0.994,0.923,2.025,1.436,2.977    c0.257,0.476,0.547,0.927,0.92,1.288c0.099,0.099,0.21,0.186,0.331,0.265c0.045,0.029,0.086,0.054,0.132,0.079    c0.423-0.145,0.849-0.273,1.275-0.389c-0.219-0.153-0.426-0.327-0.621-0.514c-0.476-0.468-0.877-1.01-1.234-1.573    c-0.356-0.567-0.667-1.159-0.948-1.767c-0.277-0.605-0.525-1.235-0.753-1.852c-0.46-1.192-0.998-2.352-1.652-3.42    c-0.397-0.675-0.836-1.317-1.313-1.921c-0.293-0.369-0.596-0.721-0.915-1.061c-1.673-1.805-3.743-3.142-5.991-3.996    c-1.491-0.563-3.043-0.919-4.629-1.13c-0.166-0.025-0.322-0.045-0.488-0.062c-0.045-0.008-0.095-0.013-0.149-0.017    c-0.096-0.012-0.199-0.36-0.298-0.374c-0.108-0.008-0.22-0.368-0.328-0.368c-0.008,0-0.021,0-0.029,0    c-0.187,0-0.376,0.307-0.567,0.294c-0.017-0.003-0.042,0.166-0.059,0.166c-0.07-0.008-0.145,0.077-0.215,0.069    c0.116,0.219,0.228,0.48,0.336,0.704c0.182,0.401,0.347,0.837,0.497,1.251c0,0.013,0.008,0.036,0.008,0.048    c0.273,0.766,0.488,1.566,0.654,2.374c0.149,0.691,0.265,1.398,0.327,2.105l0,0c0.042,0.468,0.062,0.942,0.054,1.414    c-0.008,0.505-0.054,1.011-0.133,1.516c-0.029,0.207-0.074,0.427-0.124,0.626l-0.133,0.596c-0.095,0.397-0.178,0.795-0.261,1.197    c-0.166,0.799-0.306,1.602-0.385,2.405c-0.083,0.808-0.095,1.619-0.037,2.435c0.045,0.617,0.116,1.234,0.203,1.847    c0.037-0.079,0.079-0.157,0.116-0.241c0.252-0.472,0.567-0.915,0.977-1.226l0.456-0.161c-0.004-0.029-0.017-0.058-0.029-0.087    c-0.253-0.721-0.547-1.424-0.853-2.124l-0.008-0.008c-0.029-0.07-0.034-0.146-0.017-0.215c0.153-0.625,0.273-1.267,0.373-1.909    c0.05-0.323,0.095-0.646,0.128-0.973c0.042-0.323,0.075-0.65,0.104-0.977c0.054-0.654,0.099-1.309,0.125-1.971    c0.008-0.236,0.096-0.477,0.1-0.716c0.008-0.422,0.088-0.845,0.088-1.267v-0.165l0,0v0.165c0,0.654,0.09,1.317,0.136,1.98    c0.037,0.666,0.019,1.333,0.003,1.999c-0.009,0.667-0.07,1.337-0.141,2.004c-0.062,0.625-0.167,1.246-0.295,1.863    c0.314,0.671,0.594,1.362,0.855,2.062c0.265,0.742,0.491,1.503,0.665,2.277c0.17,0.778,0.285,1.573,0.31,2.377    c0.02,0.708-0.026,1.424-0.175,2.12c0.153,0.017,0.306,0.059,0.447,0.128c0.29,0.145,0.509,0.369,0.679,0.608    c0.17,0.24,0.294,0.497,0.406,0.75c0.212,0.522,0.339,1.052,0.435,1.586c0.095,0.534,0.149,1.068,0.161,1.606l-0.153,0.029    c-0.149-0.509-0.286-1.019-0.443-1.512c-0.153-0.492-0.327-0.981-0.546-1.416c-0.108-0.219-0.228-0.426-0.369-0.601    c-0.137-0.173-0.285-0.314-0.447-0.389c-0.157-0.074-0.314-0.071-0.493-0.045c-0.178,0.02-0.393,0.07-0.663,0.107l-0.108-0.116    c0.083-0.323,0.302-0.555,0.596-0.675c0.041-0.02,0.141-0.033,0.141-0.045c0-0.017,0-0.037,0-0.058    c0-0.679,0.079-1.362,0.017-2.041c-0.066-0.762-0.204-1.512-0.387-2.252c-0.174-0.713-0.393-1.408-0.641-2.1l-0.455,0.161    c-0.484,0.924-0.699,1.913-0.802,2.903c-0.054,0.497-0.067,0.994-0.054,1.495c0.008,0.497,0.045,0.994,0.104,1.495    c0.053,0.497,0.14,1.006,0.24,1.482c0.096,0.485,0.215,0.964,0.377,1.433c0.165,0.468,0.376,0.919,0.633,1.337    c0.129,0.207,0.261,0.41,0.414,0.604c0.154,0.187,0.319,0.376,0.485,0.526l-0.017,0.029l0.033,0.013    c-0.058,0.314-0.062,0.667-0.058,1.01c0.008,0.343,0.029,0.691,0.066,1.039c0.07,0.691,0.178,1.379,0.323,2.058    c0.141,0.675,0.318,1.341,0.551,1.967c0.046,0.132,0.099,0.265,0.153,0.389c0.012-1.623,0.261-3.312,1.238-4.037    c0.166-0.125,0.385,0.132,0.273,0.356c-0.675,1.354-0.877,3.051-0.812,4.724c0.005,0,0.005,0.004,0.013,0.004l-0.008,0.013    c0.045,1.072,0.202,2.132,0.417,3.089c0.601,2.679,1.789,5.142,3.354,7.055c0.725,0.887,1.511,1.682,2.36,2.356    c0.853,0.679,1.76,1.192,2.634,1.813c1.519,1.084,2.964,2.65,3.44,4.886c0.087,0.405-0.29,0.658-0.517,0.394    c-0.754-0.887-1.371-1.967-2.17-2.791c-0.257-0.266-0.525-0.497-0.799-0.717c0.224,0.323,0.435,0.671,0.617,1.044    c0.654,1.37,1.105,2.878,1.735,4.269c0.215,0.488,0.774,1.842,1.619,3.209c0.385,0.617,0.828,1.242,1.329,1.785    c1.59,1.742,4.17,1.938,5.147,1.916c1.192-0.023,2.314-0.434,3.461-0.836c0.435-0.153,0.808-0.231,1.243-0.261    c0-0.368-0.033-2.005-0.038-2.456c-0.194-0.024-0.406-0.082-0.613-0.137c-0.493-0.123-2.137-1.204-1.59-2.068    c0.045-0.076,0.108-0.146,0.187-0.216c0.045-0.552-0.111-0.944-0.493-1.222c-0.074-0.05-0.187-0.1-0.307-0.162    c-0.758,0.576-1.209-1.49-1.176-2.137c0.021-0.405,0.231-1.209,0.538-1.714c0.058-0.095,0.133-0.187,0.224-0.269    c0.046-0.047,0.099-0.092,0.149-0.129c0.36-0.294,0.816-0.545,0.994-0.615c0.526-0.212,1.52-0.508,2.344-0.508    c0.004,0,0.008,0,0.017,0c0,0,0.033,0,0.041,0c0.82,0,1.827,0.296,2.352,0.508c0.252,0.096,1.064,0.424,1.371,0.945    c0.153,0.248,0.281,0.589,0.376,0.908c0.013,0.041,0.025,0.095,0.038,0.141c0.074,0.273,0.12,0.533,0.128,0.712    s0.003,0.47-0.055,0.78c-0.017,0.084-0.043,0.177-0.043,0.264c0,0.004,0,0.004,0,0.008c0,0.087-0.065,0.174-0.095,0.262    c-0.012,0.033-0.03,0.062-0.038,0.09c-0.021,0.059-0.047,0.117-0.068,0.166c-0.003,0-0.006,0-0.002,0.004    c-0.021,0.055-0.047,0.104-0.072,0.154c-0.049,0.104-0.104,0.198-0.158,0.272c-0.024,0.037-0.054,0.071-0.088,0.1    c-0.017,0.021-0.033,0.037-0.049,0.046c-0.021,0.016-0.042,0.033-0.058,0.045c-0.038,0.021-0.075,0.038-0.112,0.046    c-0.004,0.005-0.013,0.009-0.021,0.005c-0.099,0.023-0.203-0.005-0.319-0.092c-0.087,0.05-0.174,0.092-0.24,0.128    c-0.025,0.017-0.046,0.028-0.063,0.042c-0.021,0.012-0.041,0.029-0.062,0.045c-0.017,0.017-0.038,0.033-0.054,0.05    c-0.298,0.27-0.422,0.638-0.376,1.127c0.042,0.032-0.082,0.069-0.053,0.107c0.033,0.032-0.074,0.07-0.074,0.103v0.006    c0,0.028,0.194,0.057,0.206,0.086c0.381,0.849-1.085,1.863-1.561,1.982c-0.207,0.055-0.379,0.112-0.578,0.137    c-0.005,0.451-0.019,2.088-0.014,2.456c0.435,0.029,0.817,0.107,1.252,0.261c1.147,0.402,2.274,0.813,3.467,0.836    c0.977,0.021,3.559-0.174,5.149-1.916c0.302-0.328,0.581-0.68,0.842-1.048c1.117-1.582,1.852-3.371,2.108-3.946    c0.625-1.391,1.081-2.898,1.734-4.269c0.178-0.373,0.394-0.721,0.613-1.044c-0.269,0.22-0.538,0.451-0.794,0.717    c-0.799,0.824-1.416,1.904-2.174,2.791c-0.224,0.265-0.605,0.012-0.518-0.394c0.477-2.235,1.922-3.802,3.445-4.886    c0.87-0.621,1.781-1.135,2.634-1.813c0.849-0.675,1.635-1.47,2.36-2.356c1.561-1.913,2.75-4.376,3.354-7.055    c0.215-0.957,0.373-2.017,0.418-3.089l-0.008-0.013c0.004,0,0.008-0.004,0.013-0.004c0.066-1.673-0.137-3.37-0.812-4.724    c-0.116-0.224,0.107-0.48,0.273-0.356c0.977,0.725,1.226,2.414,1.238,4.037c0.053-0.124,0.107-0.257,0.153-0.389    c0.232-0.626,0.406-1.292,0.551-1.967c0.145-0.679,0.253-1.367,0.323-2.058c0.033-0.348,0.058-0.696,0.066-1.039    c0.004-0.273,0-0.55-0.029-0.808c-0.008-0.07-0.021-0.141-0.033-0.203l0.037-0.013l-0.017-0.029    c0.166-0.149,0.332-0.339,0.481-0.526c0.153-0.195,0.293-0.397,0.417-0.604c0.257-0.418,0.468-0.87,0.634-1.337    c0.162-0.468,0.277-0.948,0.377-1.433c0.1-0.476,0.186-0.985,0.236-1.482c0.062-0.501,0.095-0.998,0.108-1.495    c0.008-0.5,0-0.998-0.054-1.495c-0.104-0.99-0.319-1.979-0.803-2.903c0.41,0.311,0.721,0.754,0.973,1.226    c0.042,0.083,0.083,0.162,0.12,0.241c0.083-0.613,0.158-1.23,0.203-1.847c0.058-0.815,0.042-1.627-0.037-2.435    c-0.079-0.803-0.22-1.606-0.385-2.405c-0.083-0.402-0.17-0.799-0.261-1.197l-0.137-0.596c-0.046-0.199-0.091-0.418-0.125-0.625    c-0.079-0.497-0.12-0.998-0.129-1.499c-0.008-0.476,0.013-0.957,0.054-1.429c0.066-0.712,0.183-1.416,0.327-2.103    c0.166-0.807,0.381-1.603,0.654-2.373c0-0.009,0.004-0.021,0.008-0.033c0.146-0.406,0.307-0.803,0.484-1.201    c0,0,0-0.004,0.005-0.009c0.107-0.228,0.219-0.455,0.339-0.683C79.005,13.392,78.93,13.392,78.859,13.401z M39.347,40.426    c1.181-0.249,1.765,1.164,2.253,2.327c0.538,1.28,1.279,2.848,1.076,4.368c-0.037,0.273-0.314,0.393-0.489,0.257    c-0.911-0.733-1.229-2.261-1.714-3.424c-0.431-1.022-1.197-2.021-1.32-3.205C39.14,40.616,39.244,40.446,39.347,40.426z     M45.545,60.876c-0.025,0.111-0.157,0.095-0.191,0c-0.31-0.869-0.427-1.818-0.708-2.704c-0.273-0.874-0.551-1.759-0.923-2.592    c-0.298-0.671-0.526-1.403-0.886-2.041c-0.22-0.377-0.48-0.721-0.729-1.072c-0.273,0.285-0.642,0.505-0.965,0.629    c-1.192,0.455-2.443,0.427-3.606-0.091c-1.466-0.646-3.652-2.952-2.75-4.794c-0.431,0.053-0.857,0.049-1.292-0.054    c-0.219-0.049-0.165-0.397,0.05-0.401c1.275-0.012,2.373-0.414,3.606-0.704c1.031-0.241,2.013-0.286,3.002,0.153    c0.824,0.368,1.453,1.134,1.831,1.979c0.281,0.633,0.575,1.412,0.476,2.128c0.013,0.054,0.029,0.104,0.033,0.157    c1.292,0.658,1.797,2.332,2.107,3.718c0.236,1.018,0.526,2.024,0.742,3.051C45.521,59.1,45.757,59.997,45.545,60.876z     M57.792,42.752c0.489-1.163,1.073-2.575,2.253-2.327c0.104,0.021,0.203,0.19,0.19,0.323c-0.12,1.184-0.886,2.182-1.316,3.205    c-0.484,1.164-0.803,2.691-1.718,3.424c-0.17,0.136-0.447,0.017-0.485-0.257C56.514,45.601,57.259,44.032,57.792,42.752z     M65.896,48.156c-0.435,0.104-0.861,0.107-1.292,0.054c0.898,1.842-1.283,4.148-2.75,4.794c-1.164,0.518-2.414,0.546-3.606,0.091    c-0.323-0.124-0.691-0.344-0.969-0.629c-0.244,0.351-0.505,0.695-0.724,1.072c-0.361,0.637-0.588,1.37-0.886,2.041    c-0.373,0.833-0.65,1.719-0.924,2.592c-0.281,0.886-0.397,1.835-0.708,2.704c-0.033,0.095-0.166,0.111-0.191,0    c-0.215-0.879,0.025-1.776,0.203-2.638c0.216-1.027,0.505-2.033,0.737-3.051c0.314-1.387,0.815-3.06,2.107-3.718    c0.008-0.054,0.021-0.103,0.038-0.157c-0.1-0.716,0.19-1.495,0.476-2.128c0.377-0.844,1.006-1.611,1.826-1.979    c0.993-0.439,1.975-0.394,3.005-0.153c1.234,0.29,2.327,0.691,3.607,0.704C66.061,47.758,66.115,48.106,65.896,48.156z     M77.427,27.756c0.017,0.075,0.009,0.149-0.021,0.21l-0.004,0.013c-0.307,0.7-0.601,1.403-0.857,2.124    c-0.008,0.029-0.021,0.058-0.029,0.087c-0.245,0.691-0.464,1.387-0.638,2.1c-0.182,0.74-0.323,1.49-0.389,2.252    c-0.063,0.679-0.063,1.362,0.008,2.041c0,0.021,0.004,0.042,0.004,0.058c0.05,0.013,0.1,0.025,0.145,0.045    c0.29,0.12,0.514,0.352,0.601,0.675l-0.108,0.116c-0.27-0.037-0.485-0.087-0.667-0.107c-0.174-0.025-0.332-0.029-0.493,0.045    c-0.157,0.074-0.31,0.215-0.446,0.389c-0.141,0.174-0.257,0.381-0.369,0.601c-0.219,0.435-0.389,0.924-0.546,1.416    c-0.157,0.493-0.29,1.002-0.439,1.512l-0.153-0.029c0.012-0.538,0.066-1.072,0.162-1.606c0.091-0.535,0.223-1.064,0.434-1.586    c0.108-0.252,0.237-0.509,0.407-0.75c0.169-0.239,0.389-0.463,0.678-0.608c0.137-0.07,0.294-0.112,0.447-0.128    c-0.149-0.696-0.194-1.412-0.174-2.12c0.025-0.804,0.137-1.599,0.311-2.377c0.174-0.774,0.402-1.536,0.667-2.277    c0.261-0.7,0.542-1.391,0.861-2.062c-0.128-0.617-0.224-1.238-0.286-1.863c-0.074-0.667-0.112-1.337-0.12-2.004    c-0.017-0.667,0.004-1.333,0.042-1.999c0.045-0.663,0.107-1.326,0.215-1.98c-0.004,0.431,0,0.857,0.008,1.284    c0.004,0.236,0.013,0.468,0.021,0.7c0.024,0.663,0.07,1.317,0.12,1.971c0.033,0.327,0.066,0.654,0.107,0.977    c0.033,0.327,0.079,0.65,0.128,0.973C77.153,26.489,77.274,27.13,77.427,27.756z"
   id="path35" />
		<path
   fill="#FFFFFF"
   d="M60.58,47.361c-1.102,0.05-2,0.729-2.567,1.698c-0.27,0.459-0.443,0.964-0.498,1.502    c-0.029,0.282-0.004,0.56-0.004,0.833c0.009,0.021,0.021,0.045,0.03,0.066c0.062,0.075,0.107,0.174,0.116,0.273    c0.045,0.104,0.104,0.199,0.182,0.29c0.302,0.323,0.807,0.438,1.205,0.538c0.932,0.245,1.867,0.071,2.725-0.348    c0.381-0.186,0.75-0.417,1.093-0.691c0.053-0.521,0.298-1.019,0.406-1.532c0.153-0.712,0.124-1.358,0.116-2.062    C62.455,47.659,61.527,47.32,60.58,47.361z"
   id="path37" />
		<path
   fill="#FFFFFF"
   d="M47.628,71.886c-0.091,0.496,0.306,0.736,0.65,0.931c0.261,0.149,0.534,0.331,0.812,0.419    c0.177,0.053,0.344,0.303,0.53,0.311c0.021,0,0.037,0.225,0.037,0.225s0.008,0,0.017,0h0.041c0,0,0.021-0.225,0.045-0.225    c0.187-0.008,0.356-0.157,0.535-0.211c0.277-0.088,0.555-0.32,0.816-0.469c0.343-0.195,0.745-0.459,0.649-0.956    c-0.107,0.017-0.219-0.05-0.265-0.187c-0.261-0.732,0.042-1.464,0.542-1.845c0.12-0.095,0.746-0.554,1.056-0.513    c0.335-0.33,0.351-1.02,0.286-1.5c-0.042-0.269-0.199-0.775-0.435-1.156c-0.145-0.236-0.364-0.402-0.484-0.464    c-0.588-0.299-1.619-0.496-2.252-0.55c-0.166-0.013-0.369,0.074-0.493,0.074c-0.008,0-0.041,0-0.041,0c-0.008,0-0.012,0-0.017,0    c-0.129,0-0.306-0.088-0.476-0.075c-0.633,0.055-1.66,0.276-2.253,0.578c-0.116,0.058-0.335,0.216-0.479,0.451    c-0.241,0.373-0.398,0.878-0.436,1.147c-0.066,0.48-0.049,1.164,0.286,1.491c0.311-0.038,0.936,0.417,1.056,0.511    c0.497,0.382,0.803,1.105,0.542,1.838C47.852,71.849,47.736,71.901,47.628,71.886z"
   id="path39" />
		<path
   fill="#FFFFFF"
   d="M52.1,78.029c-0.083-0.024-0.161-0.054-0.24-0.082c-0.555-0.194-1.089-0.247-1.661-0.337    c-0.165-0.029-0.36,0.16-0.484,0.16c-0.008,0-0.041,0-0.041,0c-0.008,0-0.012,0-0.017,0c-0.129,0-0.298-0.189-0.464-0.16    c-0.654,0.103-1.259,0.297-1.896,0.503c-1.118,0.36-2.252,0.538-3.403,0.401c-0.517-0.066-1.027-0.201-1.52-0.367    c-0.066-0.017-0.132-0.053-0.195-0.073c0.042,0.046,0.083-0.147,0.125-0.106c0.003,0.004,0.006-0.197,0.009-0.197h0.569v0.462    c0,0.033-0.202,0.065-0.174,0.1c0.021,0.017-0.096,0.033-0.08,0.054c0.049,0.05,0.032,0.104,0.078,0.157    c0.071,0.079,0.106,0.161,0.177,0.239c0.215,0.245,0.406,0.493,0.625,0.721c0.642,0.663,1.285,1.309,2.038,1.739    c1.267,0.726,2.824,1.205,4.115,1.073c0.005,0,0.007,0.004,0.015,0.004c0,0,0.033-0.004,0.041-0.004    c1.287,0.132,2.865-0.348,4.124-1.073c0.758-0.431,1.411-1.076,2.053-1.739c0.443-0.459,0.857-1.002,1.325-1.436    c-0.555,0.193-1.13,0.33-1.718,0.404C54.348,78.613,53.209,78.39,52.1,78.029z"
   id="path41" />
		<path
   fill="#FFFFFF"
   d="M41.375,49.059c-0.563-0.969-1.461-1.648-2.563-1.698c-0.948-0.041-1.876,0.298-2.803,0.567    c-0.017,0.704-0.037,1.35,0.116,2.062c0.107,0.514,0.352,1.011,0.406,1.532c0.34,0.274,0.708,0.505,1.093,0.691    c0.857,0.418,1.792,0.592,2.724,0.348c0.394-0.099,0.899-0.215,1.201-0.538c0.083-0.091,0.141-0.187,0.187-0.29    c0.008-0.1,0.054-0.198,0.116-0.273c0.009-0.021,0.017-0.045,0.029-0.066c-0.004-0.273,0.025-0.551-0.004-0.833    C41.823,50.023,41.649,49.518,41.375,49.059z"
   id="path43" />
	</g>
	<g
   id="g45">
		<path
   fill="#E64C3C"
   d="M73.618,39.821c0.157-0.492,0.327-0.981,0.546-1.416c0.112-0.219,0.228-0.426,0.369-0.601    c0.137-0.173,0.29-0.314,0.446-0.389c0.162-0.074,0.319-0.071,0.493-0.045c0.182,0.02,0.397,0.07,0.667,0.107l0.108-0.116    c-0.087-0.323-0.311-0.555-0.601-0.675c-0.045-0.02-0.095-0.033-0.145-0.045c0-0.017-0.004-0.037-0.004-0.058    c-0.071-0.679-0.071-1.362-0.008-2.041c0.066-0.762,0.207-1.512,0.389-2.252c0.174-0.713,0.393-1.408,0.638-2.1    c0.008-0.029,0.021-0.058,0.029-0.087c0.257-0.721,0.551-1.424,0.857-2.124l0.004-0.013c0.029-0.062,0.037-0.136,0.021-0.21    c-0.153-0.625-0.273-1.267-0.373-1.909c-0.049-0.323-0.095-0.646-0.128-0.973c-0.042-0.323-0.074-0.65-0.107-0.977    c-0.05-0.654-0.096-1.309-0.12-1.971c-0.008-0.232-0.017-0.464-0.021-0.7c-0.008-0.426-0.012-0.853-0.008-1.284    c-0.108,0.654-0.17,1.317-0.215,1.98c-0.038,0.666-0.058,1.333-0.042,1.999c0.008,0.667,0.046,1.337,0.12,2.004    c0.062,0.625,0.158,1.246,0.286,1.863c-0.319,0.671-0.6,1.362-0.861,2.062c-0.265,0.742-0.493,1.503-0.667,2.277    c-0.174,0.778-0.286,1.573-0.311,2.377c-0.02,0.708,0.025,1.424,0.174,2.12c-0.153,0.017-0.311,0.059-0.447,0.128    c-0.29,0.145-0.509,0.369-0.678,0.608c-0.17,0.24-0.299,0.497-0.407,0.75c-0.211,0.522-0.343,1.052-0.434,1.586    c-0.096,0.534-0.15,1.068-0.162,1.606l0.153,0.029C73.328,40.823,73.46,40.314,73.618,39.821z"
   id="path47" />
		<path
   fill="#E64C3C"
   d="M57.201,47.377c0.915-0.733,1.233-2.261,1.718-3.424c0.431-1.022,1.197-2.021,1.316-3.205    c0.013-0.133-0.086-0.302-0.19-0.323c-1.18-0.249-1.764,1.164-2.253,2.327c-0.534,1.28-1.279,2.848-1.076,4.368    C56.754,47.394,57.031,47.514,57.201,47.377z"
   id="path49" />
		<path
   fill="#E64C3C"
   d="M54.038,60.876c0.31-0.869,0.426-1.818,0.708-2.704c0.273-0.874,0.551-1.759,0.924-2.592    c0.298-0.671,0.525-1.403,0.886-2.041c0.219-0.377,0.48-0.721,0.724-1.072c0.277,0.285,0.646,0.505,0.969,0.629    c1.192,0.455,2.443,0.427,3.606-0.091c1.466-0.646,3.647-2.952,2.75-4.794c0.431,0.053,0.857,0.049,1.292-0.054    c0.22-0.049,0.166-0.397-0.049-0.401c-1.28-0.012-2.373-0.414-3.607-0.704c-1.031-0.241-2.012-0.286-3.005,0.153    c-0.82,0.368-1.449,1.134-1.826,1.979c-0.286,0.633-0.576,1.412-0.476,2.128c-0.017,0.054-0.029,0.104-0.038,0.157    c-1.292,0.658-1.792,2.332-2.107,3.718c-0.232,1.018-0.521,2.024-0.737,3.051c-0.178,0.862-0.418,1.759-0.203,2.638    C53.872,60.987,54.004,60.971,54.038,60.876z M57.515,50.561c0.055-0.538,0.228-1.043,0.498-1.502    c0.567-0.969,1.465-1.648,2.567-1.698c0.948-0.041,1.875,0.298,2.803,0.567c0.008,0.704,0.038,1.35-0.116,2.062    c-0.107,0.514-0.353,1.011-0.406,1.532c-0.344,0.274-0.712,0.505-1.093,0.691c-0.857,0.418-1.793,0.592-2.725,0.348    c-0.397-0.099-0.902-0.215-1.205-0.538c-0.079-0.091-0.137-0.187-0.182-0.29c-0.009-0.1-0.054-0.198-0.116-0.273    c-0.009-0.021-0.021-0.045-0.03-0.066C57.511,51.121,57.486,50.843,57.515,50.561z"
   id="path51" />
		<path
   fill="#E64C3C"
   d="M42.187,47.377c0.174,0.136,0.452,0.017,0.489-0.257c0.203-1.52-0.539-3.088-1.076-4.368    c-0.488-1.163-1.072-2.575-2.253-2.327c-0.103,0.021-0.207,0.19-0.194,0.323c0.124,1.184,0.89,2.182,1.32,3.205    C40.958,45.117,41.276,46.645,42.187,47.377z"
   id="path53" />
		<path
   fill="#E64C3C"
   d="M33.496,48.156c0.435,0.104,0.861,0.107,1.292,0.054c-0.903,1.842,1.284,4.148,2.75,4.794    c1.163,0.518,2.414,0.546,3.606,0.091c0.323-0.124,0.692-0.344,0.965-0.629c0.249,0.351,0.509,0.695,0.729,1.072    c0.36,0.637,0.587,1.37,0.886,2.041c0.373,0.833,0.65,1.719,0.923,2.592c0.281,0.886,0.398,1.835,0.708,2.704    c0.034,0.095,0.166,0.111,0.191,0c0.211-0.879-0.025-1.776-0.203-2.638c-0.216-1.027-0.505-2.033-0.742-3.051    c-0.31-1.387-0.815-3.06-2.107-3.718c-0.004-0.054-0.021-0.103-0.033-0.157c0.1-0.716-0.195-1.495-0.476-2.128    c-0.377-0.844-1.007-1.611-1.831-1.979c-0.989-0.439-1.971-0.394-3.002-0.153c-1.233,0.29-2.331,0.691-3.606,0.704    C33.331,47.758,33.277,48.106,33.496,48.156z M36.01,47.928c0.927-0.269,1.855-0.608,2.803-0.567c1.102,0.05,2,0.729,2.563,1.698    c0.273,0.459,0.447,0.964,0.501,1.502c0.029,0.282,0,0.56,0.004,0.833c-0.012,0.021-0.02,0.045-0.029,0.066    c-0.062,0.075-0.107,0.174-0.116,0.273c-0.045,0.104-0.104,0.199-0.187,0.29c-0.302,0.323-0.807,0.438-1.201,0.538    c-0.932,0.245-1.867,0.071-2.724-0.348c-0.385-0.186-0.753-0.417-1.093-0.691c-0.054-0.521-0.298-1.019-0.406-1.532    C35.973,49.278,35.993,48.632,36.01,47.928z"
   id="path55" />
		<path
   fill="#E64C3C"
   d="M21.982,27.971l0.008,0.008c0.306,0.7,0.6,1.403,0.853,2.124c0.012,0.029,0.024,0.058,0.029,0.087    c0.248,0.691,0.468,1.387,0.642,2.1c0.183,0.74,0.318,1.49,0.385,2.252c0.063,0.679-0.017,1.362-0.017,2.041    c0,0.021,0,0.042,0,0.058c0,0.013-0.1,0.025-0.141,0.045c-0.294,0.12-0.516,0.352-0.598,0.675l0.109,0.116    c0.269-0.037,0.483-0.087,0.662-0.107c0.178-0.025,0.336-0.029,0.493,0.045c0.162,0.074,0.311,0.215,0.447,0.389    c0.141,0.174,0.261,0.381,0.369,0.601c0.219,0.435,0.393,0.924,0.547,1.416c0.157,0.493,0.293,1.002,0.443,1.512l0.152-0.029    c-0.012-0.538-0.066-1.072-0.161-1.606c-0.096-0.535-0.223-1.064-0.435-1.586c-0.111-0.252-0.236-0.509-0.406-0.75    c-0.17-0.239-0.389-0.463-0.679-0.608c-0.14-0.07-0.293-0.112-0.446-0.128c0.148-0.696,0.194-1.412,0.173-2.12    c-0.025-0.804-0.141-1.599-0.311-2.377c-0.174-0.774-0.401-1.536-0.667-2.277c-0.261-0.7-0.546-1.391-0.861-2.062    c0.128-0.617,0.224-1.238,0.286-1.863c0.07-0.667,0.112-1.337,0.121-2.004c0.017-0.667-0.005-1.333-0.042-1.999    c-0.046-0.663-0.108-1.326-0.215-1.98c0.003,0.422,0,0.845-0.009,1.267c-0.004,0.24-0.012,0.48-0.02,0.716    c-0.025,0.663-0.071,1.317-0.125,1.971c-0.029,0.327-0.062,0.654-0.104,0.977c-0.033,0.327-0.079,0.65-0.128,0.973    c-0.1,0.642-0.22,1.283-0.373,1.909C21.948,27.826,21.953,27.901,21.982,27.971z"
   id="path57" />
		<path
   fill="#E64C3C"
   d="M77.66,19.827c0.071-0.662,0.294-1.325,0.447-1.979c0.332-1.424,0.851-2.815,1.311-4.207    c0.029-0.037,0.085-0.079,0.114-0.111c0.568-0.712,1.174-1.396,1.787-2.063c1.225-1.321,2.546-2.559,3.937-3.681    c2.782-2.244,5.898-4.037,9.253-5.097c-3.383,0.939-6.57,2.629-9.447,4.794c-1.437,1.085-2.802,2.286-4.085,3.586    c-0.355,0.364-0.708,0.733-1.051,1.114c0.401-0.559,0.832-1.093,1.279-1.607c1.056-1.201,2.228-2.286,3.466-3.279    c1.233-0.994,2.538-1.893,3.883-2.712c1.35-0.812,2.737-1.565,4.173-2.19c-1.461,0.563-2.877,1.25-4.26,2.004    c-1.383,0.762-2.733,1.611-4.02,2.555c-0.916,0.675-1.802,1.395-2.642,2.186c0.452-0.51,0.928-1.001,1.412-1.474    c1.056-1.026,2.178-1.971,3.346-2.853c1.172-0.877,2.381-1.698,3.644-2.418c-1.304,0.629-2.563,1.371-3.789,2.17    c-1.226,0.807-2.418,1.685-3.548,2.65c-0.675,0.58-1.333,1.188-1.958,1.838c0.211-0.277,0.431-0.547,0.654-0.812    c0.874-1.048,1.813-2.033,2.803-2.96c0.994-0.923,2.024-1.801,3.113-2.592c-1.122,0.733-2.198,1.557-3.233,2.431    c-1.039,0.877-2.029,1.817-2.965,2.832c-0.708,0.766-1.375,1.577-1.996,2.435c0.389-0.68,0.812-1.333,1.259-1.971    c0.712-1.006,1.486-1.962,2.311-2.87c0.824-0.907,1.689-1.772,2.608-2.566c-0.964,0.725-1.883,1.532-2.77,2.385    c-0.882,0.853-1.723,1.76-2.505,2.732c-0.787,0.969-1.507,2-2.136,3.114c-0.315,0.559-0.604,1.134-0.854,1.734    c-1.738,0.021-3.481,0.273-5.171,0.816c-1.205,0.38-2.369,0.923-3.47,1.606c-1.097,0.68-2.111,1.524-3.018,2.481    c-0.567,0.596-1.082,1.922-1.553,1.922H35.401c-0.472,0-0.986-1.326-1.548-1.922c-0.911-0.957-1.921-1.804-3.019-2.483    c-1.097-0.682-2.265-1.225-3.47-1.605c-1.693-0.543-3.432-0.794-5.171-0.815c-0.252-0.6-0.542-1.176-0.853-1.734    c-0.629-1.114-1.354-2.145-2.137-3.114c-0.782-0.973-1.623-1.88-2.505-2.733c-0.886-0.853-1.805-1.66-2.77-2.384    c0.919,0.794,1.784,1.66,2.608,2.566c0.824,0.907,1.598,1.864,2.306,2.87c0.448,0.633,0.87,1.287,1.255,1.962    c-0.617-0.857-1.288-1.665-1.987-2.426c-0.932-1.015-1.93-1.955-2.965-2.832c-1.035-0.874-2.111-1.698-3.233-2.431    c1.089,0.791,2.12,1.668,3.114,2.592c0.985,0.928,1.929,1.913,2.803,2.96c0.223,0.265,0.438,0.534,0.654,0.812    c-0.629-0.65-1.283-1.259-1.958-1.838c-1.134-0.965-2.322-1.843-3.548-2.65c-1.226-0.799-2.484-1.541-3.792-2.17    c1.267,0.72,2.476,1.541,3.647,2.418c1.168,0.882,2.29,1.827,3.346,2.853c0.484,0.473,0.96,0.964,1.412,1.474    c-0.841-0.791-1.727-1.511-2.642-2.186c-1.292-0.944-2.638-1.793-4.02-2.555C9.543,3.646,8.128,2.958,6.666,2.395    c1.437,0.625,2.824,1.379,4.174,2.19c1.341,0.819,2.646,1.718,3.884,2.712c1.238,0.993,2.405,2.078,3.461,3.279    c0.452,0.514,0.878,1.048,1.284,1.607c-0.343-0.381-0.696-0.75-1.051-1.114c-1.284-1.3-2.65-2.501-4.087-3.586    c-2.877-2.166-6.07-3.855-9.448-4.794c3.349,1.06,6.467,2.853,9.25,5.097c1.391,1.122,2.704,2.36,3.929,3.681    c0.612,0.667,1.205,1.35,1.772,2.063c0.024,0.033,0.058,0.074,0.082,0.107c0.464,1.396,0.924,2.787,1.259,4.211    c0.149,0.654,0.221,1.312,0.292,1.975c-5.346,0.467-9.584,4.96-9.584,10.43v46.125c0,5.783,4.779,10.393,10.563,10.393h54.406    c5.784,0,10.03-4.609,10.03-10.393V30.252C86.882,24.816,82.96,20.344,77.66,19.827z M21.812,17.682    c-0.166-0.807-0.381-1.603-0.654-2.369c0-0.013-0.008-0.024-0.008-0.037c-0.15-0.414-0.315-0.828-0.497-1.23    c-0.108-0.224-0.22-0.443-0.336-0.663c0.07,0.008,0.146,0.008,0.215,0.017c0.017,0,0.042-0.339,0.059-0.336    c0.19,0.013,0.38-0.294,0.567-0.294c0.008,0,0.021,0,0.029,0c0.108,0,0.22,0.36,0.328,0.368c0.099,0.014,0.202,0.191,0.298,0.204    c0.054,0.004,0.104,0.094,0.149,0.102c0.166,0.017,0.323,0.079,0.488,0.104c1.586,0.211,3.139,0.588,4.629,1.152    c2.249,0.853,4.318,2.201,5.991,4.006c0.319,0.34,0.622,0.697,0.915,1.065c0.477,0.605,0.916,1.249,1.313,1.924    c0.654,1.069,1.192,2.229,1.652,3.422c0.228,0.617,0.476,1.247,0.753,1.851c0.282,0.608,0.592,1.202,0.948,1.768    c0.356,0.563,0.758,1.106,1.234,1.574c0.195,0.187,0.401,0.361,0.621,0.514c-0.426,0.116-0.852,0.245-1.275,0.389    c-0.046-0.024-0.087-0.05-0.132-0.079c-0.121-0.079-0.232-0.166-0.331-0.265c-0.373-0.361-0.663-0.812-0.92-1.288    c-0.513-0.952-0.948-1.983-1.436-2.977c-0.245-0.501-0.489-1.002-0.75-1.495c-0.265-0.488-0.534-0.977-0.812-1.457    c-0.282-0.48-0.567-0.956-0.87-1.416c-0.311-0.468-0.604-0.924-0.944-1.383c-0.169-0.224-0.348-0.447-0.53-0.658    c-0.128-0.145-0.257-0.282-0.389-0.418c-0.062-0.067-0.128-0.133-0.19-0.195c-0.39-0.394-0.808-0.762-1.234-1.102    c-0.426-0.343-0.882-0.65-1.342-0.936c-0.459-0.285-0.927-0.554-1.411-0.787c-0.481-0.235-0.969-0.451-1.462-0.646    c-0.496-0.186-0.998-0.356-1.503-0.505c-0.803-0.228-1.615-0.418-2.434-0.525c-0.17-0.021-0.34-0.042-0.505-0.055    c-0.038-0.004-0.07-0.004-0.104-0.008c-0.012,0-0.024,0-0.037-0.004c0.012,0.008,0.029,0.008,0.042,0.017    c0.012,0,0.029,0.008,0.041,0.012c0.124,0.033,0.245,0.071,0.368,0.112c1.839,0.58,3.615,1.337,5.284,2.29    c0.447,0.265,0.89,0.53,1.321,0.828c0.427,0.29,0.841,0.608,1.242,0.936c0.219,0.182,0.435,0.369,0.642,0.567    c0.174,0.153,0.344,0.318,0.509,0.488c0.183,0.187,0.361,0.381,0.531,0.58c0.174,0.194,0.339,0.397,0.497,0.604    c0.319,0.411,0.625,0.866,0.927,1.317c0.298,0.451,0.601,0.902,0.886,1.362c0.29,0.46,0.576,0.923,0.845,1.396    c0.278,0.472,0.555,0.944,0.82,1.424c0.264,0.48,0.53,0.965,0.803,1.445c0.273,0.476,0.546,0.965,0.861,1.429    c0.314,0.459,0.662,0.915,1.118,1.242c0.12,0.087,0.244,0.161,0.377,0.223c-0.298,0.108-0.592,0.224-0.887,0.34    c-0.583,0.244-1.164,0.513-1.718,0.832c-0.554,0.319-1.102,0.663-1.574,1.114c1.123-0.579,2.311-0.911,3.496-1.196    c1.192-0.282,2.393-0.481,3.602-0.63c2.414-0.298,4.849-0.397,7.288-0.397c2.438,0,4.869,0.091,7.283,0.389    c1.209,0.149,2.41,0.344,3.602,0.625c0.592,0.141,1.185,0.302,1.769,0.493c0.294,0.095,0.583,0.199,0.874,0.319    c0.29,0.116,0.571,0.245,0.849,0.397c-0.468-0.455-1.014-0.803-1.565-1.126c-0.554-0.319-1.134-0.587-1.722-0.836    c-0.128-0.049-0.256-0.099-0.39-0.153c0.038-0.004,0.071-0.017,0.108-0.024c0.004,0,0.009,0,0.013-0.004    c0.257-0.075,0.501-0.203,0.729-0.364c0.451-0.327,0.794-0.783,1.118-1.242c0.314-0.464,0.588-0.953,0.861-1.429    c0.273-0.48,0.538-0.964,0.803-1.445c0.27-0.48,0.543-0.953,0.82-1.424c0.27-0.472,0.55-0.936,0.845-1.396    c0.286-0.459,0.588-0.911,0.886-1.362c0.302-0.452,0.608-0.907,0.923-1.317c0.162-0.207,0.327-0.41,0.501-0.604    c0.17-0.199,0.348-0.393,0.53-0.58c0.167-0.17,0.336-0.335,0.509-0.488c0.208-0.199,0.423-0.385,0.642-0.567    c0.402-0.328,0.816-0.646,1.242-0.936c0.431-0.298,0.874-0.563,1.321-0.828c1.669-0.953,3.445-1.71,5.283-2.29    c0.124-0.041,0.245-0.079,0.368-0.112c0.013-0.004,0.029-0.012,0.042-0.012c0.013-0.009,0.029-0.009,0.042-0.017    c-0.013,0.004-0.025,0.004-0.038,0.004c-0.033,0.004-0.07,0.004-0.104,0.008c-0.17,0.013-0.339,0.034-0.505,0.055    c-0.82,0.107-1.631,0.297-2.435,0.525c-0.506,0.149-1.006,0.319-1.503,0.505c-0.493,0.195-0.981,0.411-1.462,0.646    c-0.484,0.232-0.956,0.501-1.412,0.787c-0.459,0.286-0.915,0.593-1.341,0.936c-0.426,0.339-0.845,0.708-1.233,1.102    c-0.063,0.062-0.128,0.128-0.191,0.195c-0.132,0.136-0.261,0.273-0.389,0.418c-0.183,0.211-0.361,0.435-0.531,0.658    c-0.339,0.459-0.638,0.915-0.943,1.383c-0.302,0.459-0.592,0.936-0.87,1.416c-0.282,0.48-0.551,0.969-0.812,1.457    c-0.261,0.493-0.509,0.994-0.749,1.495c-0.493,0.994-0.924,2.025-1.437,2.977c-0.257,0.476-0.547,0.927-0.919,1.288    c-0.187,0.178-0.402,0.327-0.634,0.435c-0.074,0.037-0.153,0.066-0.235,0.095c-0.385-0.145-0.775-0.277-1.168-0.397    c0.045-0.021,0.091-0.046,0.132-0.075c0.145-0.087,0.282-0.182,0.41-0.286c0.128-0.104,0.257-0.215,0.376-0.332    c0.476-0.468,0.874-1.01,1.233-1.573c0.356-0.567,0.667-1.159,0.949-1.767c0.277-0.605,0.526-1.235,0.753-1.852    c0.46-1.192,0.998-2.352,1.652-3.42c0.397-0.675,0.836-1.317,1.313-1.921c0.294-0.369,0.596-0.721,0.915-1.061    c1.673-1.805,3.743-3.142,5.992-3.996c1.486-0.563,3.039-0.919,4.628-1.13c0.162-0.025,0.323-0.045,0.489-0.062    c0.045-0.008,0.095-0.013,0.145-0.017c0.099-0.012,0.203-0.36,0.302-0.374c0.107-0.008,0.215-0.368,0.327-0.368    c0.008,0,0.017,0,0.029,0c0.186,0,0.377,0.307,0.563,0.294c0.021-0.003,0.042,0.166,0.062,0.166    c0.07-0.008,0.146,0.077,0.211,0.069c-0.12,0.228-0.232,0.497-0.339,0.725c-0.005,0.005-0.005,0.029-0.005,0.029    c-0.177,0.397-0.339,0.806-0.484,1.212c-0.004,0.013-0.008,0.03-0.008,0.039c-0.273,0.771-0.488,1.568-0.654,2.375    c-0.145,0.687-0.261,1.392-0.327,2.104c-0.042,0.472-0.062,0.953-0.054,1.43c0.009,0.5,0.05,1.002,0.129,1.5    c0.033,0.206,0.079,0.426,0.125,0.625l0.137,0.596c0.091,0.397,0.178,0.795,0.261,1.197c0.165,0.799,0.306,1.602,0.385,2.405    c0.079,0.808,0.095,1.619,0.037,2.435c-0.045,0.617-0.12,1.234-0.203,1.847c-0.037-0.079-0.078-0.157-0.12-0.241    c-0.252-0.472-0.563-0.915-0.973-1.226c0.484,0.924,0.7,1.913,0.803,2.903c0.054,0.497,0.062,0.994,0.054,1.495    c-0.013,0.497-0.046,0.994-0.108,1.495c-0.05,0.497-0.136,1.006-0.236,1.482c-0.1,0.485-0.215,0.964-0.377,1.433    c-0.166,0.468-0.376,0.919-0.634,1.337c-0.124,0.207-0.265,0.41-0.417,0.604c-0.149,0.187-0.315,0.376-0.481,0.526l0.017,0.029    l-0.037,0.013c0.012,0.062,0.025,0.132,0.033,0.203c0.029,0.257,0.033,0.534,0.029,0.808c-0.008,0.343-0.033,0.691-0.066,1.039    c-0.07,0.691-0.178,1.379-0.323,2.058c-0.145,0.675-0.318,1.341-0.551,1.967c-0.045,0.132-0.1,0.265-0.153,0.389    c-0.012-1.623-0.261-3.312-1.238-4.037c-0.166-0.125-0.389,0.132-0.273,0.356c0.675,1.354,0.877,3.051,0.812,4.724    c-0.004,0-0.008,0.004-0.013,0.004l0.008,0.013c-0.045,1.072-0.203,2.132-0.418,3.089c-0.604,2.679-1.792,5.142-3.354,7.055    c-0.725,0.887-1.511,1.682-2.36,2.356c-0.853,0.679-1.764,1.192-2.634,1.813c-1.523,1.084-2.968,2.65-3.445,4.886    c-0.087,0.405,0.294,0.658,0.518,0.394c0.758-0.887,1.375-1.967,2.174-2.791c0.256-0.266,0.526-0.497,0.794-0.717    c-0.219,0.323-0.435,0.671-0.613,1.044c-0.654,1.37-1.109,2.878-1.734,4.269c-0.257,0.575-0.99,2.364-2.108,3.946    c-0.261,0.368-0.538,0.72-0.84,1.048c-1.59,1.742-4.17,1.938-5.146,1.916c-1.192-0.023-2.315-0.434-3.462-0.836    c-0.434-0.153-0.808-0.231-1.242-0.261c-0.004-0.368,0.029-2.005,0.033-2.456c0.199-0.024,0.41-0.082,0.617-0.137    c0.477-0.119,1.865-1.134,1.483-1.982c-0.012-0.029-0.206-0.058-0.206-0.086v-0.006c0-0.037,0.103-0.07,0.074-0.103    c-0.029-0.038,0.016-0.075-0.025-0.107c-0.045-0.489,0.117-0.857,0.416-1.127c0.017-0.017,0.056-0.033,0.072-0.05    c0.017-0.016,0.052-0.033,0.072-0.049c0.017-0.013,0.042-0.025,0.067-0.038c0.067-0.041,0.156-0.083,0.243-0.132    c0.111,0.086,0.222,0.111,0.32,0.096c0.008,0.004,0.017,0,0.021-0.005c0.038-0.008,0.075-0.024,0.112-0.046    c0.017-0.012,0.038-0.029,0.059-0.045c0.017-0.013,0.033-0.029,0.049-0.046c0.034-0.028,0.063-0.063,0.087-0.1    c0.054-0.074,0.108-0.169,0.157-0.272c0.025-0.051,0.05-0.1,0.07-0.154c-0.004-0.004-0.004-0.004,0-0.004    c0.021-0.049,0.042-0.107,0.063-0.166c0.008-0.028,0.036-0.057,0.048-0.09c0.029-0.088,0.095-0.175,0.095-0.262    c0-0.004,0-0.004,0-0.008c0-0.087,0.026-0.178,0.043-0.262c0.058-0.311,0.072-0.6,0.065-0.777    c-0.009-0.178-0.06-0.436-0.134-0.709c-0.012-0.045-0.027-0.091-0.04-0.132c-0.095-0.319-0.225-0.642-0.377-0.891    c-0.307-0.521-1.119-0.884-1.371-0.979c-0.526-0.212-1.533-0.508-2.354-0.508c-0.008,0-0.041,0-0.041,0c-0.008,0-0.012,0-0.017,0    c-0.824,0-1.817,0.296-2.344,0.508c-0.178,0.07-0.633,0.287-0.994,0.581c-0.05,0.038-0.103,0.101-0.149,0.146    c-0.091,0.084-0.166,0.182-0.224,0.277c-0.307,0.506-0.518,1.313-0.538,1.719c-0.033,0.646,0.417,2.715,1.176,2.139    c0.12,0.063,0.232,0.113,0.307,0.162c0.381,0.278,0.538,0.672,0.493,1.223c-0.079,0.07-0.141,0.141-0.187,0.216    c-0.547,0.864,1.097,1.946,1.59,2.07c0.207,0.054,0.418,0.111,0.613,0.136c0.004,0.451,0.038,2.088,0.038,2.456    c-0.435,0.029-0.808,0.107-1.243,0.261c-1.146,0.402-2.269,0.813-3.461,0.836c-0.977,0.021-3.557-0.174-5.147-1.916    c-0.501-0.543-0.944-1.168-1.329-1.785c-0.845-1.367-1.403-2.721-1.619-3.209c-0.629-1.391-1.081-2.898-1.735-4.269    c-0.182-0.373-0.394-0.721-0.617-1.044c0.273,0.22,0.542,0.451,0.799,0.717c0.799,0.824,1.417,1.904,2.17,2.791    c0.228,0.265,0.604,0.012,0.517-0.394c-0.476-2.235-1.921-3.802-3.44-4.886c-0.874-0.621-1.781-1.135-2.634-1.813    c-0.849-0.675-1.635-1.47-2.36-2.356c-1.565-1.913-2.753-4.376-3.354-7.055c-0.215-0.957-0.372-2.017-0.417-3.089l0.008-0.013    c-0.008,0-0.008-0.004-0.013-0.004c-0.066-1.673,0.137-3.37,0.812-4.724c0.112-0.224-0.107-0.48-0.273-0.356    c-0.977,0.725-1.226,2.414-1.238,4.037c-0.054-0.124-0.107-0.257-0.153-0.389c-0.232-0.626-0.41-1.292-0.551-1.967    c-0.145-0.679-0.253-1.367-0.323-2.058c-0.038-0.348-0.059-0.696-0.066-1.039c-0.004-0.344,0-0.696,0.058-1.01l-0.033-0.013    l0.017-0.029c-0.166-0.149-0.331-0.339-0.485-0.526c-0.153-0.195-0.285-0.397-0.414-0.604c-0.256-0.418-0.468-0.87-0.633-1.337    c-0.162-0.468-0.282-0.948-0.377-1.433c-0.099-0.476-0.187-0.985-0.24-1.482c-0.058-0.501-0.096-0.998-0.104-1.495    c-0.013-0.5,0-0.998,0.053-1.495c0.104-0.99,0.319-1.979,0.804-2.903c-0.41,0.311-0.725,0.754-0.977,1.226    c-0.038,0.083-0.079,0.162-0.116,0.241c-0.086-0.613-0.157-1.23-0.203-1.847c-0.058-0.815-0.046-1.627,0.037-2.435    c0.079-0.803,0.22-1.606,0.385-2.405c0.083-0.402,0.166-0.799,0.261-1.197l0.133-0.596c0.049-0.199,0.095-0.418,0.124-0.625    c0.079-0.505,0.125-1.011,0.133-1.516c0.008-0.472-0.012-0.944-0.054-1.412C22.077,19.077,21.961,18.373,21.812,17.682z     M49.714,82.315c-0.008,0-0.041,0.004-0.041,0.004c-0.008,0-0.012-0.004-0.017-0.004c-1.292,0.132-2.853-0.348-4.12-1.073    c-0.753-0.431-1.403-1.076-2.045-1.739c-0.22-0.228-0.427-0.476-0.642-0.721c-0.07-0.078-0.141-0.16-0.211-0.239    c-0.046-0.054-0.095-0.107-0.145-0.157c-0.017-0.021,0.235-0.037,0.214-0.054c-0.028-0.034,0.174-0.066,0.174-0.1v-0.462H42.34    c-0.012,0-0.024,0.203-0.037,0.191c-0.042-0.041-0.083,0.031-0.125-0.014c0.063,0.021,0.128,0.104,0.195,0.119    c0.493,0.156,1.002,0.298,1.52,0.364c1.151,0.137,2.286-0.081,3.403-0.441c0.638-0.212,1.243-0.282,1.896-0.39    c0.166-0.025,0.335,0.17,0.464,0.17c0.004,0,0.008,0,0.017,0c0,0,0.033,0,0.041,0c0.125,0,0.319-0.188,0.484-0.162    c0.572,0.094,1.105,0.246,1.661,0.448c0.079,0.029,0.158,0.003,0.24,0.027c1.11,0.36,2.248,0.558,3.399,0.416    c0.588-0.074,1.163-0.226,1.718-0.419c-0.468,0.434-0.882,0.97-1.325,1.43c-0.642,0.662-1.295,1.305-2.053,1.734    C52.58,81.971,51.002,82.447,49.714,82.315z M47.628,71.886c0.108,0.016,0.224-0.038,0.269-0.175    c0.261-0.733-0.045-1.457-0.542-1.838c-0.12-0.096-0.745-0.551-1.056-0.514c-0.335-0.327-0.352-1.015-0.286-1.495    c0.038-0.268,0.195-0.782,0.436-1.154c0.145-0.236,0.364-0.41,0.479-0.469c0.593-0.302,1.62-0.491,2.253-0.546    c0.17-0.013,0.347,0.075,0.476,0.075c0.004,0,0.008,0,0.017,0c0,0,0.033,0,0.041,0c0.125,0,0.328-0.088,0.493-0.075    c0.633,0.055,1.664,0.284,2.252,0.582c0.12,0.062,0.339,0.212,0.484,0.447c0.236,0.381,0.394,0.878,0.435,1.147    c0.065,0.48,0.049,1.164-0.286,1.494c-0.311-0.041-0.937,0.414-1.056,0.508c-0.501,0.382-0.803,1.105-0.542,1.838    c0.046,0.137,0.157,0.19,0.265,0.174c0.095,0.496-0.306,0.736-0.649,0.932c-0.261,0.148-0.539,0.33-0.816,0.418    c-0.178,0.054-0.348,0.303-0.535,0.311c-0.024,0-0.045,0.225-0.045,0.225h-0.041c-0.008,0-0.017,0-0.017,0    s-0.017-0.225-0.037-0.225c-0.186-0.008-0.353-0.157-0.53-0.211c-0.278-0.088-0.551-0.32-0.812-0.469    C47.934,72.671,47.537,72.382,47.628,71.886z"
   id="path59" />
	</g>
</g>
</svg>
