<svg id="svg5079" height="205.83501" width="216.463" xmlns="http://www.w3.org/2000/svg"><path id="path3955" d="m490.117 487.249c0 13.976-11.329 25.305-25.305 25.305h-131.39c-13.976 0-25.305-11.329-25.305-25.305v-111.391c0-13.976 11.329-25.305 25.305-25.305h131.391c13.976 0 25.305 11.329 25.305 25.305v111.391z" fill="#2c3e50" transform="translate(-291.768 -306.719)"/><g id="g3957" transform="translate(-291.768 -306.719)"><path id="path3959" d="m508.231 307.433c-8.093 2.556-15.617 6.883-22.333 12.303-3.366 2.713-6.534 5.699-9.494 8.897-1.483 1.604-2.91 3.259-4.277 4.975-.07.086-.142.178-.217.269.116-.334.228-.673.339-1.007l-.486-.273.005-.187c-.05-.005-.101-.005-.151-.01.445-.693.906-1.376 1.392-2.04.825-.916 1.675-1.812 2.54-2.687 3.098-3.138 6.393-6.043 9.869-8.66 6.943-5.228 14.65-9.312 22.813-11.58z"/><path id="path3961" d="m503.925 306.719c-3.472 1.514-6.816 3.325-10.076 5.294-3.254 1.974-6.401 4.15-9.388 6.544-2.986 2.398-5.815 5.025-8.361 7.925-1.083 1.24-2.125 2.531-3.092 3.877-.603.653-1.199 1.326-1.781 2.004-.071-.005-.142-.01-.213-.015-.065-.005-.137-.01-.202-.015.932-1.686 1.984-3.315 3.117-4.874 1.129-1.544 2.338-3.027 3.614-4.454 2.029-1.903 4.17-3.649 6.381-5.273 3.113-2.288 6.367-4.332 9.707-6.169 3.346-1.827 6.766-3.487 10.294-4.844z"/><path id="path3963" d="m497.837 306.719c-3.052 1.736-5.972 3.72-8.801 5.84-2.824 2.126-5.532 4.413-8.082 6.888-1.175 1.144-2.318 2.328-3.411 3.558-.831.77-1.646 1.574-2.435 2.399-1.999 2.101-3.872 4.378-5.512 6.853-.045-.005-.091-.005-.137-.005.542-1.139 1.139-2.257 1.776-3.346 1.245-2.13 2.646-4.165 4.15-6.108 1.513-1.569 3.097-3.042 4.727-4.439 2.732-2.333 5.607-4.454 8.568-6.396 2.967-1.934 6.008-3.72 9.157-5.244z"/><path id="path3965" d="m491.258 307.433c-2.632 1.908-5.127 4.028-7.521 6.26-2.39 2.237-4.661 4.616-6.777 7.146-.536.638-1.063 1.291-1.573 1.959-1.022 1.047-2.01 2.146-2.956 3.29-1.099 1.326-2.146 2.718-3.112 4.18.197-.456.41-.911.622-1.356.477-.982.987-1.938 1.529-2.89 1.493-2.075 3.112-4.034 4.813-5.886 2.257-2.444 4.656-4.716 7.161-6.837 2.504-2.111 5.101-4.099 7.814-5.866z"/><path id="path3967" d="m486.389 308.126c-2.227 1.918-4.312 4.013-6.306 6.205-1.984 2.191-3.856 4.499-5.577 6.923-1.083 1.544-2.105 3.128-3.036 4.768-.481.663-.946 1.346-1.397 2.039-.86 1.326-1.665 2.703-2.394 4.135-.415-.01-.835-.01-1.255 0 .607-1.447 1.301-2.839 2.06-4.185 1.519-2.688 3.27-5.183 5.162-7.525 1.888-2.343 3.922-4.535 6.053-6.6 2.13-2.055 4.352-4.004 6.69-5.76z"/><path id="path3969" d="m475.108 325.404c.789-.825 1.604-1.629 2.435-2.399-1.276 1.427-2.485 2.91-3.614 4.454-1.133 1.559-2.186 3.188-3.117 4.874-.405-.031-.81-.056-1.215-.076 1.639-2.475 3.512-4.752 5.511-6.853z"/><path id="path3971" d="m472.431 326.088c.946-1.144 1.934-2.243 2.956-3.29-1.504 1.943-2.905 3.978-4.15 6.108-.638 1.088-1.234 2.207-1.776 3.346-.313-.021-.622-.036-.937-.041.248-.653.512-1.301.795-1.943.966-1.462 2.013-2.854 3.112-4.18z"/><path id="path3973" d="m473.008 330.359c-.485.663-.946 1.346-1.392 2.04-.132-.015-.258-.025-.39-.036.583-.678 1.179-1.351 1.782-2.004z"/><path id="path3975" d="m472.249 332.869c-.111.334-.223.673-.339 1.007-1.038 1.311-2.05 2.657-2.991 4.033.01-.025.021-.05.03-.076.349-.982.733-1.949 1.164-2.9.005-.005.005-.016.01-.021.466-.855.967-1.695 1.493-2.515.051.005.102.005.151.01l-.005.187z"/><path id="path3977" d="m471.227 332.363c.132.011.258.021.39.036-.526.82-1.027 1.66-1.493 2.515.258-.556.531-1.108.83-1.649l.046-.628c.015-.025.035-.05.056-.071.054-.066.115-.137.171-.203z"/><path id="path3979" d="m471.227 332.363c-.056.066-.116.137-.172.203-.021.021-.041.045-.056.071l.015-.288c.071.004.141.009.213.014z"/><path id="path3981" d="m471.014 332.348l-.015.288c-.192.218-.375.44-.563.663-.051 0-.101.005-.151.01.167-.329.344-.658.526-.977.066.006.137.011.203.016z"/><path id="path3983" d="m470.999 332.636l-.046.628c-.172.015-.344.02-.517.035.188-.222.371-.445.563-.663z"/><path id="path3985" d="m469.597 332.257c.405.02.81.045 1.215.076-.183.319-.359.648-.526.977-.455.031-.911.065-1.361.106.061-.136.121-.278.188-.415.16-.248.317-.496.484-.744z"/><path id="path3987" d="m470.072 328.061c.451-.693.916-1.376 1.397-2.039-.542.952-1.053 1.908-1.529 2.89-.212.445-.425.9-.622 1.356-.42.627-.824 1.275-1.21 1.928-.141 0-.288 0-.43 0 .729-1.432 1.534-2.809 2.394-4.135z"/><path id="path3989" d="m469.602 380.892c.612 2.581.679 5.284.354 7.89-.167 1.311-.369 2.576-.729 3.871-.364 1.271-.866 2.5-1.468 3.654-.597 1.159-1.29 2.252-2.09 3.244-.674.831-1.387 1.595-2.232 2.237.005.015.01.03.01.051l-.905.217c-.021-.167-.046-.334-.076-.491l.086-.025-.04-.071c.399-.359.805-.82 1.164-1.275.369-.46.703-.951 1.012-1.458.618-1.012 1.124-2.101 1.523-3.229.39-1.129.679-2.293.916-3.462.238-1.149.445-2.378.577-3.578.137-1.204.218-2.409.248-3.613.025-1.205 0-2.409-.127-3.604-.253-2.389-.774-4.783-1.938-7.015.987.75 1.741 1.827 2.349 2.966.102.192.197.385.288.582l.451.101c-.041.213-.081.43-.127.638.308.766.556 1.565.754 2.37z"/><path id="path3991" d="m469.891 367.349c.142 2.014.056 4.049-.183 6.043-.182 1.518-.44 3.011-.733 4.494l-.451-.101c.203-1.488.38-2.976.486-4.469.146-1.969.106-3.927-.081-5.875-.192-1.943-.536-3.882-.937-5.81-.197-.967-.404-1.928-.627-2.89l-.329-1.442c-.111-.481-.218-1.007-.299-1.508-.192-1.209-.288-2.424-.309-3.634-.056-2.88.329-5.75.911-8.518.409-1.948.921-3.872 1.579-5.729.941-1.376 1.953-2.723 2.991-4.033-1.104 3.366-2.223 6.721-3.027 10.162-.435 1.898-.748 3.821-.905 5.75-.162 1.928-.157 3.866.101 5.769.066.476.143.926.243 1.412l.288 1.462c.188.982.365 1.964.531 2.946.336 1.968.619 3.957.751 5.971z"/><path id="path3993" d="m469.46 332.252c.046 0 .092 0 .137.005-.167.248-.323.496-.485.744.111-.248.227-.501.348-.749z"/><path id="path3995" d="m469.46 332.252c-.121.248-.237.501-.349.749-.086.137-.172.279-.259.42-.263.026-.526.046-.789.071.142-.43.298-.855.46-1.28.315.004.623.019.937.04z"/><path id="path3997" d="m469.111 333c-.066.137-.127.279-.188.415-.025 0-.046 0-.071.005.087-.141.173-.283.259-.42z"/><path id="path3999" d="m469.318 330.268c-.283.643-.547 1.291-.795 1.943-.136-.005-.272-.01-.415-.016.386-.652.79-1.299 1.21-1.927z"/><path id="path4001" d="m468.108 332.196c.143.005.279.011.415.016-.162.425-.318.85-.46 1.28-.243.025-.486.051-.729.076.249-.461.507-.922.774-1.372z"/><path id="path4003" d="m467.679 332.196c.142 0 .289 0 .43 0-.268.451-.525.912-.773 1.372-.122.015-.238.026-.354.041.226-.477.454-.952.697-1.413z"/><path id="path4005" d="m466.424 332.196c.42-.01.84-.01 1.255 0-.243.461-.471.937-.698 1.412-.395.045-.789.097-1.18.147.192-.526.4-1.047.623-1.559z"/><path id="path4007" d="m467.051 337.211c.031-.005.061-.005.097-.01-.036.015-.07.02-.106.035.004-.009.004-.014.009-.025z"/><path id="path4009" d="m467.051 337.211c-.005.01-.005.015-.01.025-.03.005-.071.02-.102.03l-.131-.036c.076-.008.162-.014.243-.019z"/><path id="path4011" d="m466.97 367.972c.041.177.026.359-.045.511l-.01.03c-.739 1.685-1.453 3.386-2.07 5.127-.025.07-.051.136-.071.208-.592 1.67-1.123 3.355-1.538 5.076-.445 1.787-.779 3.599-.941 5.436-.151 1.64-.151 3.29.021 4.935l-.83.091c-.359-1.67-.471-3.401-.421-5.111.062-1.943.335-3.866.75-5.744.42-1.873.967-3.709 1.614-5.496.622-1.696 1.311-3.366 2.08-4.98-.31-1.493-.547-2.996-.693-4.504-.178-1.609-.269-3.224-.294-4.838-.035-1.61.011-3.224.106-4.828.106-1.604.259-3.204.521-4.783-.01 1.032-.005 2.065.021 3.092.01.566.024 1.133.045 1.7.061 1.594.167 3.178.299 4.757.071.79.152 1.579.248 2.358.086.79.192 1.569.309 2.348.246 1.553.53 3.101.899 4.615z"/><path id="path4013" d="m466.809 337.231l.131.036c-.298.086-.587.177-.88.269l-.476-.172c.404-.056.814-.102 1.225-.133z"/><path id="path4015" d="m466.424 332.196c-.223.512-.431 1.033-.623 1.559-3.831.511-7.586 1.372-11.179 2.733-5.426 2.06-10.431 5.294-14.47 9.656-2.024 2.166-3.836 4.575-5.379 7.191-1.574 2.586-2.881 5.385-3.989 8.265-.551 1.488-1.148 3.011-1.821 4.474-.684 1.462-1.433 2.895-2.287 4.266-.871 1.362-1.827 2.672-2.986 3.796-.289.284-.592.551-.906.8l-1.139-.618c.4-.354.774-.759 1.129-1.184.937-1.144 1.736-2.435 2.435-3.791.708-1.346 1.325-2.763 1.877-4.211.572-1.447 1.068-2.899 1.544-4.423 1.007-3.102 2.338-6.083 3.927-8.907 1.625-2.793 3.518-5.43 5.709-7.748 2.196-2.313 4.641-4.363 7.293-6.008 2.652-1.649 5.471-2.961 8.376-3.876 4.083-1.311 8.294-1.923 12.489-1.974z"/><path id="path4017" d="m465.584 337.363l.476.172c-4.449 1.401-8.74 3.234-12.764 5.531-1.083.643-2.156 1.281-3.188 1.999-1.037.704-2.029 1.478-3.007 2.267-.972.795-1.897 1.645-2.778 2.546-.439.45-.865.921-1.275 1.397-.42.476-.819.961-1.209 1.462-.765.987-1.503 2.095-2.231 3.178-.725 1.088-1.448 2.182-2.146 3.294-.703 1.104-1.381 2.232-2.04 3.371-.667 1.139-1.33 2.283-1.979 3.441-.643 1.154-1.275 2.328-1.938 3.487-.663 1.154-1.321 2.333-2.08 3.446-.77 1.108-1.609 2.217-2.703 3.001-.541.389-1.139.698-1.756.886-.016.005-.021.005-.03.005l-.071-.314c.562-.258 1.078-.612 1.528-1.048.906-.865 1.604-1.958 2.223-3.107 1.244-2.303 2.277-4.788 3.466-7.192.588-1.209 1.185-2.419 1.813-3.608.632-1.184 1.285-2.358 1.963-3.517.674-1.159 1.367-2.313 2.101-3.427.739-1.123 1.458-2.226 2.282-3.335.41-.546.841-1.078 1.281-1.594.45-.506.91-.998 1.392-1.478.945-.946 1.948-1.837 2.985-2.657 1.032-.835 2.131-1.569 3.239-2.268 1.108-.683 2.237-1.336 3.405-1.898 1.159-.567 2.339-1.083 3.533-1.554 1.199-.455 2.409-.86 3.629-1.225 1.937-.547 3.899-1.002 5.879-1.261z"/><path id="path4019" d="m464.126 391.166l-.264.288c-.652-.096-1.163-.212-1.599-.263-.431-.061-.81-.076-1.194.111-.385.177-.754.521-1.083.941-.334.42-.622.916-.886 1.448-.531 1.052-.941 2.227-1.326 3.416-.38 1.194-.703 2.419-1.063 3.649l-.364-.066c.03-1.3.161-2.591.385-3.881.223-1.291.546-2.571 1.053-3.826.263-.617.571-1.229.981-1.816.41-.572.941-1.114 1.64-1.468.329-.167.704-.273 1.078-.313l.83-.091c0 .045.01.091.01.136.121.026.243.061.354.107.699.292 1.241.853 1.448 1.628z"/><path id="path4021" d="m463.716 403.975c.056.876.065 1.751.051 2.622-.025 1.751-.157 3.492-.369 5.228-.218 1.736-.517 3.467-.987 5.193-.242.865-.521 1.73-.911 2.596-.197.435-.425.865-.713 1.295-.147.223-.314.435-.507.648-.096.106-.202.208-.318.309-.051.045-.096.086-.162.137-.035.476-.065.921-.096 1.335-.531 7.106-2.961 13.908-6.331 19.49-3.042 5.045-6.884 9.039-11.145 12.202-1.503 1.204-4.591 5.81-5.481 7.652-.607 1.265-4.2 10.77-6.73 15.092-.835 1.422-1.62 2.682-2.358 3.791l-1.215-.612c2.703-3.822 4.469-8.138 5.097-9.53 1.508-3.361 2.602-7.004 4.186-10.309.435-.906.946-1.741 1.487-2.521-.663.526-1.311 1.088-1.928 1.731-1.929 1.984-3.421 4.601-5.248 6.741-.542.638-1.458.025-1.25-.951 1.148-5.4 4.641-9.181 8.314-11.802 2.105-1.503 4.307-2.743 6.367-4.377 2.049-1.63 3.947-3.558 5.693-5.693 3.775-4.621 6.649-10.567 8.107-17.04.517-2.313.896-4.874 1.007-7.455l-.021-.03c.011-.005.016-.01.025-.01.162-4.049-.328-8.143-1.958-11.417-.273-.542.258-1.159.663-.856 2.358 1.746 2.955 5.825 2.991 9.753.131-.309.258-.623.369-.941.557-1.514.981-3.127 1.331-4.758.344-1.639.606-3.299.779-4.969.081-.84.142-1.675.162-2.51.005-.653 0-1.326-.076-1.949l.905-.217c.158.71.214 1.424.27 2.132z"/><path id="path4023" d="m439.004 416.272c.516.005.647.851.121.972-1.048.248-2.085.258-3.117.121 2.176 4.459-3.103 10.026-6.641 11.585-2.813 1.25-5.834 1.315-8.715.222-.774-.298-1.67-.83-2.333-1.528-.592.855-1.229 1.68-1.751 2.596-.875 1.534-1.427 3.305-2.146 4.929-.896 2.009-1.564 4.149-2.231 6.255-.674 2.141-.957 4.434-1.711 6.539-.076.223-.399.263-.461 0-.511-2.121.062-4.296.496-6.372.521-2.479 1.22-4.909 1.782-7.374.754-3.345 1.968-7.394 5.096-8.978.016-.126.046-.253.081-.385-.243-1.731.466-3.608 1.148-5.137.911-2.044 2.43-3.892 4.418-4.777 2.395-1.058 4.768-.957 7.258-.369 2.972.7 5.619 1.672 8.706 1.701zm-6.226 5.401c.37-1.721.304-3.28.273-4.98-2.241-.653-4.479-1.478-6.771-1.372-2.656.117-4.823 1.761-6.189 4.094-.652 1.113-1.078 2.333-1.209 3.634-.071.683-.005 1.347-.01 2.014.024.051.05.106.07.157.156.177.263.415.278.658.116.248.253.481.45.698.719.78 1.943 1.063 2.9 1.306 2.252.583 4.514.162 6.584-.845.921-.45 1.816-1.007 2.642-1.67.127-1.255.715-2.459.982-3.694z"/><path id="path4025" d="m433.052 416.693c.03 1.701.097 3.259-.273 4.98-.268 1.234-.855 2.439-.981 3.694-.825.663-1.721 1.22-2.642 1.67-2.07 1.007-4.332 1.427-6.584.845-.957-.243-2.182-.526-2.9-1.306-.197-.217-.334-.45-.45-.698-.016-.243-.122-.481-.278-.658-.021-.051-.046-.106-.07-.157.005-.667-.062-1.331.01-2.014.131-1.301.557-2.521 1.209-3.634 1.366-2.333 3.533-3.978 6.189-4.094 2.291-.106 4.529.719 6.77 1.372z" fill="#e4e4e4"/><path id="path4027" d="m433.553 382.016c-.668-.37-1.351-.678-2.049-.956-.699-.289-1.397-.542-2.105-.77-1.412-.461-2.84-.856-4.276-1.189-2.875-.678-5.78-1.154-8.695-1.513-5.83-.714-11.706-.941-17.597-.941-5.886.005-11.767.243-17.592.967-2.92.359-5.824.84-8.699 1.518-2.865.693-5.734 1.493-8.441 2.885 1.134-1.083 2.459-1.918 3.795-2.688 1.342-.769 2.738-1.417 4.155-2.009.703-.283 1.417-.556 2.136-.814l.223-.375c.106.066.208.131.313.192 1.022-.35 2.05-.664 3.088-.947l.749-.88c.065.061.131.117.202.167.151.122.304.238.465.344.521-.131 1.048-.258 1.574-.374 5.942-1.316 12.005-1.827 18.032-1.842 6.027 0 12.091.506 18.032 1.807 1.078.238 2.15.501 3.214.8.096-.036.192-.091.288-.142.304-.167.592-.364.871-.592.141-.111.273-.223.409-.344l1.139.618c-.313.253-.643.486-.986.693-.106.065-.213.126-.319.182.946.288 1.888.607 2.819.957.192-.066.385-.142.566-.233l.071.314c-.086.025-.172.05-.258.065.313.122.627.243.94.37 1.418.592 2.814 1.245 4.155 2.014 1.336.777 2.658 1.617 3.781 2.716z"/><path id="path4029" d="m426.442 480.952l1.215.612c-3.188 4.797-5.45 6.771-6.604 7.06-.623.152-1.377.754-2.156 1.544l-.729-.688c-1.347.47-2.738.799-4.155.977-2.778.339-5.526-.197-8.214-1.068-1.554-.501-3.001-1.204-4.59-1.463-.395-.065-.86-.055-1.17-.055-.015 0-.096 0-.096 0-.01 0-.025 0-.035 0-.314 0-.724-.01-1.123.055-1.584.259-3.037.942-4.585 1.443-2.693.87-5.441 1.417-8.22 1.078-1.417-.178-2.813-.501-4.154-.972.141.131.277.268.414.404.243.243.481.497.709.754l-.951.511c-.233-.263-.471-.516-.703-.759-.852-.891-1.681-1.589-2.349-1.756-1.286-.319-3.953-2.743-7.748-8.842l1.179-.623c.927 1.498 1.999 3.001 3.204 4.317 3.846 4.205 10.07 4.681 12.429 4.63 2.885-.066 5.598-1.053 8.366-2.024 1.047-.369 1.953-.562 2.996-.627.01-.891-.071-4.838-.086-5.927-.472-.065-.978-.207-1.478-.333-1.19-.304-5.163-2.916-3.847-5.005l1.048.354c-.229 1.199.738 1.776 1.568 2.252.628.359 1.291.795 1.958 1.007.431.131.831.248 1.276.268.055.005.096.061.096.061 0 0 .016 0 .035 0h .096c0 0 .062-.055.117-.061.445-.021.86-.137 1.29-.268.669-.212 1.337-.648 1.964-1.007.83-.476 1.802-1.053 1.574-2.252l1.048-.354c1.315 2.085-2.652 4.702-3.842 5.005-.501.126-1.007.268-1.482.333-.01 1.088-.091 5.036-.081 5.927 1.043.066 1.948.258 2.996.627 2.769.972 5.48 1.958 8.365 2.024 2.358.051 8.584-.425 12.43-4.63.725-.789 1.398-1.644 2.025-2.529z"/><path id="path4031" d="m424.995 398.57c.248.045.496.456.461.784-.289 2.86-2.142 5.264-3.179 7.738-1.169 2.809-1.943 6.493-4.15 8.265-.409.329-1.082.041-1.174-.617-.485-3.669 1.306-7.46 2.602-10.552 1.179-2.81 2.591-6.215 5.44-5.618z"/><path id="path4033" d="m418.168 489.479l.729.688c-1.306 1.32-2.688 3.127-3.659 4.18-1.594 1.71-3.229 3.204-5.07 4.408-3.098 2.02-6.696 3.31-10.128 2.9-.015 0-.096 0-.096 0-.01 0-.025 0-.035 0-3.437.41-6.984-.88-10.081-2.9-1.837-1.204-3.472-2.677-5.066-4.388-.754-.81-1.751-2.08-2.763-3.224l.951-.511c.698.774 1.366 1.589 2.064 2.313 1.554 1.605 3.123 3.163 4.944 4.206 3.052 1.746 6.827 2.91 9.95 2.591.01 0 .025.005.035.005 0 0 .081-.005.096-.005 3.118.318 6.924-.845 9.971-2.591 1.822-1.043 3.406-2.601 4.954-4.206 1.073-1.108 2.07-2.418 3.204-3.466z"/><path id="path4035" d="m410.349 465.156c.081 1.559-1.012 6.564-2.845 5.167-.283.151-.556.278-.729.404-.921.668-1.315 1.62-1.188 2.956.192.162.333.334.445.511l-1.048.354c-.258.041-.526-.086-.643-.415-.628-1.776.106-3.522 1.315-4.449.289-.223 1.792-1.326 2.546-1.23.81-.794.855-2.454.688-3.613-.097-.653-.476-1.877-1.048-2.789-.354-.572-.881-.977-1.164-1.124-1.427-.724-3.912-1.351-5.44-1.478-.405-.03-.891.025-1.2.025-.015 0-.096 0-.096 0-.01 0-.025 0-.035 0-.314 0-.744-.055-1.153-.025-1.524.126-4.014.734-5.436 1.462-.284.146-.815.562-1.17 1.134-.571.906-.951 2.141-1.042 2.793-.167 1.154-.127 2.819.688 3.608.754-.096 2.257 1.012 2.545 1.235 1.205.926 1.938 2.672 1.311 4.449-.11.329-.384.456-.642.415l-1.048-.354c.111-.172.258-.344.45-.511.121-1.331-.269-2.282-1.189-2.95-.177-.126-.45-.249-.734-.395-1.831 1.392-2.925-3.604-2.844-5.162.051-.982.562-2.916 1.296-4.135.759-1.26 2.702-1.969 3.305-2.207 1.271-.501 3.669-.977 5.663-.977.01 0 .025 0 .035 0 0 0 .081 0 .096 0 1.99 0 4.419.476 5.685.977.606.238 2.565.906 3.319 2.167.74 1.222 1.251 3.175 1.307 4.157z"/><path id="path4037" d="m408.892 464.842c.167 1.159.121 2.819-.688 3.613-.754-.096-2.257 1.007-2.546 1.23-1.209.926-1.943 2.672-1.315 4.449.116.329.385.456.643.415.228 1.199-.744 1.776-1.574 2.252-.627.359-1.295.795-1.964 1.007-.43.131-.845.248-1.29.268-.056.005-.117.061-.117.061h-.096c-.02 0-.035 0-.035 0 0 0-.041-.055-.096-.061-.445-.021-.846-.137-1.276-.268-.667-.212-1.33-.648-1.958-1.007-.83-.476-1.797-1.053-1.568-2.252.258.041.531-.086.642-.415.628-1.776-.105-3.522-1.311-4.449-.288-.223-1.791-1.331-2.545-1.235-.815-.79-.855-2.455-.688-3.608.091-.653.471-1.888 1.042-2.793.354-.572.886-.987 1.17-1.134 1.422-.729 3.911-1.336 5.436-1.462.409-.03.839.025 1.153.025.01 0 .025 0 .035 0 0 0 .081 0 .096 0 .31 0 .795-.055 1.2-.025 1.528.126 4.014.754 5.44 1.478.283.147.81.552 1.164 1.124.57.91.949 2.134 1.046 2.787z" fill="#e4e4e4"/><path id="path4039" d="m389.482 441.592c.431 2.076 1.002 4.251.496 6.372-.065.263-.385.223-.46 0-.76-2.105-1.038-4.398-1.711-6.539-.668-2.105-1.336-4.246-2.231-6.255-.72-1.625-1.271-3.396-2.146-4.929-.521-.917-1.158-1.741-1.751-2.596-.663.698-1.559 1.229-2.333 1.528-2.879 1.093-5.901 1.028-8.715-.222-3.537-1.559-8.816-7.126-6.64-11.585-1.038.137-2.07.127-3.118-.121-.526-.122-.399-.967.122-.972 3.087-.03 5.733-1.001 8.705-1.7 2.489-.587 4.863-.688 7.257.369 1.989.886 3.507 2.733 4.418 4.777.684 1.528 1.392 3.406 1.149 5.137.035.132.065.258.081.385 3.122 1.584 4.342 5.633 5.096 8.978.562 2.464 1.26 4.894 1.781 7.373zm-8.355-16.529c-.005-.667.056-1.331-.01-2.014-.132-1.301-.557-2.521-1.21-3.634-1.366-2.333-3.532-3.978-6.189-4.094-2.292-.106-4.529.719-6.771 1.372-.035 1.701-.096 3.259.273 4.98.264 1.234.855 2.439.982 3.694.819.663 1.715 1.22 2.642 1.67 2.069 1.007 4.332 1.427 6.584.845.951-.243 2.176-.526 2.9-1.306.197-.217.334-.45.45-.698.015-.243.121-.481.278-.658.02-.05.041-.106.071-.157z"/><path id="path4041" d="m380.443 404.188c1.296 3.092 3.088 6.883 2.603 10.552-.092.658-.765.946-1.18.617-2.202-1.771-2.976-5.456-4.146-8.265-1.037-2.475-2.89-4.878-3.178-7.738-.035-.329.212-.739.46-.784 2.851-.597 4.258 2.808 5.441 5.618z"/><path id="path4043" d="m381.117 423.049c.065.683.005 1.347.01 2.014-.03.051-.051.106-.07.157-.157.177-.264.415-.278.658-.116.248-.253.481-.45.698-.725.78-1.949 1.063-2.9 1.306-2.252.583-4.515.162-6.584-.845-.927-.45-1.822-1.007-2.642-1.67-.127-1.255-.719-2.46-.982-3.694-.369-1.721-.309-3.28-.273-4.98 2.242-.653 4.479-1.478 6.771-1.372 2.657.117 4.823 1.761 6.189 4.094.653 1.114 1.077 2.334 1.209 3.634z" fill="#e4e4e4"/><path id="path4045" d="m378.557 374.495l-.749.88c-.537-.364-1.033-.789-1.498-1.24-1.159-1.124-2.121-2.434-2.986-3.796-.855-1.371-1.604-2.804-2.287-4.266-.674-1.462-1.275-2.986-1.822-4.474-1.108-2.88-2.414-5.679-3.987-8.265-1.545-2.616-3.356-5.026-5.381-7.191-4.043-4.362-9.043-7.596-14.474-9.656-3.593-1.361-7.349-2.222-11.18-2.733-.192-.526-.395-1.047-.617-1.559 4.195.051 8.4.664 12.485 1.974 2.91.916 5.729 2.227 8.381 3.876 2.651 1.645 5.091 3.694 7.292 6.008 2.187 2.318 4.085 4.955 5.704 7.748 1.594 2.824 2.92 5.805 3.933 8.907.476 1.524.972 2.976 1.538 4.423.557 1.448 1.169 2.865 1.883 4.211.698 1.356 1.493 2.646 2.435 3.791.408.496.848.957 1.33 1.362z"/><path id="path4047" d="m374.406 376.13l-.223.375c-.314-.152-.617-.339-.906-.546-1.098-.785-1.938-1.893-2.702-3.001-.759-1.114-1.417-2.292-2.08-3.446-.663-1.159-1.301-2.333-1.938-3.487-.647-1.159-1.311-2.303-1.979-3.441-.658-1.139-1.342-2.267-2.04-3.371-.698-1.113-1.422-2.206-2.146-3.294-.729-1.083-1.473-2.191-2.237-3.178-.384-.501-.784-.987-1.204-1.462-.41-.476-.835-.947-1.275-1.397-.881-.901-1.812-1.751-2.778-2.546-.977-.789-1.969-1.563-3.006-2.267-1.033-.718-2.11-1.356-3.188-1.999-4.023-2.297-8.315-4.13-12.764-5.531l.471-.172c1.983.258 3.942.713 5.881 1.265 1.225.365 2.434.77 3.633 1.225 1.195.471 2.374.987 3.533 1.554 1.169.562 2.293 1.215 3.406 1.898 1.108.698 2.206 1.432 3.238 2.268 1.033.82 2.04 1.71 2.986 2.657.48.48.941.972 1.392 1.478.44.516.871 1.047 1.28 1.594.825 1.109 1.539 2.212 2.283 3.335.733 1.114 1.422 2.268 2.1 3.427.673 1.159 1.331 2.333 1.964 3.517.628 1.189 1.225 2.399 1.812 3.608 1.185 2.404 2.223 4.889 3.467 7.192.617 1.148 1.316 2.242 2.222 3.107.242.233.515.451.798.638z"/><path id="path4049" d="m372.377 479.165l-1.179.623c-.396-.627-.8-1.3-1.215-2.009-2.531-4.322-6.124-13.832-6.731-15.097-.891-1.842-3.978-6.448-5.48-7.652-4.262-3.163-8.103-7.156-11.145-12.202-3.376-5.583-5.8-12.384-6.331-19.49-.03-.415-.061-.86-.096-1.335-.066-.051-.106-.091-.162-.137-.116-.101-.224-.203-.319-.309-.197-.213-.359-.425-.506-.648-.289-.43-.517-.86-.714-1.295-.395-.866-.673-1.731-.911-2.596-.47-1.726-.77-3.457-.986-5.193-.213-1.736-.344-3.477-.375-5.228-.01-.871 0-1.746.056-2.622.051-.729.116-1.453.278-2.186l.881-.248.086.025c-.142.764-.156 1.609-.146 2.439.021.835.076 1.67.162 2.51.172 1.67.435 3.33.779 4.969.344 1.63.773 3.244 1.331 4.758.111.318.237.632.369.941.035-3.928.633-8.001 2.991-9.753.404-.303.931.314.663.856-1.635 3.274-2.121 7.368-1.959 11.417.01 0 .015.005.025.01l-.021.03c.106 2.581.491 5.142 1.008 7.455 1.457 6.473 4.327 12.419 8.107 17.04 1.746 2.135 3.644 4.063 5.693 5.693 2.06 1.634 4.256 2.875 6.366 4.377 3.669 2.622 7.162 6.402 8.315 11.802.207.977-.714 1.589-1.255.951-1.822-2.141-3.315-4.757-5.243-6.741-.617-.643-1.266-1.205-1.934-1.731.547.78 1.053 1.615 1.493 2.521 1.584 3.305 2.677 6.948 4.186 10.309.528 1.176 1.879 4.451 3.919 7.746z"/><path id="path4051" d="m343.651 400.69l-.369.066c-.354-1.23-.684-2.455-1.063-3.649-.38-1.189-.789-2.364-1.32-3.416-.264-.532-.552-1.027-.891-1.448-.329-.42-.693-.764-1.079-.941-.384-.188-.764-.172-1.193-.111-.436.051-.946.167-1.6.263l-.263-.288c.202-.775.743-1.336 1.447-1.629.11-.046.228-.081.349-.107 0-.045.011-.091.011-.136l.835.091c.369.041.743.146 1.078.313.698.354 1.229.896 1.64 1.468.409.587.714 1.199.981 1.816.506 1.255.825 2.536 1.053 3.826.222 1.291.354 2.582.384 3.882z"/><path id="path4053" d="m338.935 384.273c.046 1.71-.061 3.441-.42 5.111l-.835-.091c.177-1.645.177-3.295.024-4.935-.161-1.837-.495-3.649-.94-5.436-.42-1.721-.946-3.406-1.544-5.076-.021-.071-.046-.137-.071-.208-.612-1.741-1.326-3.442-2.064-5.127l-.015-.025c-.071-.172-.081-.349-.041-.516.369-1.513.653-3.062.896-4.616.122-.779.229-1.559.314-2.348.096-.779.177-1.569.243-2.358.136-1.579.242-3.163.298-4.757.021-.572.041-1.144.051-1.715.025-1.023.03-2.05.021-3.077.263 1.579.415 3.178.521 4.783.096 1.604.141 3.218.105 4.828-.024 1.614-.116 3.229-.293 4.838-.147 1.508-.385 3.011-.693 4.504.764 1.614 1.457 3.284 2.08 4.98.647 1.787 1.194 3.624 1.614 5.496.41 1.879.688 3.802.749 5.745z"/><path id="path4055" d="m337.487 401.47l-.046.071-.881.248c-.845-.643-1.559-1.407-2.236-2.237-.795-.992-1.488-2.084-2.086-3.244-.607-1.154-1.103-2.383-1.467-3.654-.365-1.295-.563-2.561-.729-3.871-.329-2.606-.258-5.309.354-7.89.197-.805.445-1.604.749-2.369-.04-.208-.086-.425-.127-.638l.456-.101c.086-.197.188-.39.283-.582.612-1.139 1.366-2.216 2.354-2.966-1.169 2.232-1.686 4.625-1.938 7.015-.126 1.194-.156 2.398-.126 3.604.024 1.205.111 2.409.243 3.613.136 1.2.344 2.429.581 3.578.238 1.169.526 2.333.917 3.462.399 1.128.905 2.216 1.522 3.229.31.506.643.997 1.008 1.458.365.454.764.914 1.169 1.274z"/><path id="path4057" d="m350.011 377.911c6.579 2.024 12.146-2.53 17.207-5.567.482 3.38-2.253 5.841-2.506 9.136.987-.828 2.077-1.517 3.181-2.152 1.342-.769 2.738-1.417 4.155-2.009.703-.283 1.417-.556 2.136-.814-.314-.152-.617-.339-.906-.546-1.098-.785-1.938-1.893-2.702-3.001-.759-1.114-1.417-2.292-2.08-3.446-.663-1.159-1.301-2.333-1.938-3.487-.647-1.159-1.311-2.303-1.979-3.441-.658-1.139-1.342-2.267-2.04-3.371-.27-.43-.545-.854-.821-1.279.745 8.445-4.091 16.393-11.707 19.977z" fill="#ac382e"/><path id="path4059" d="m345.456 369.813c6.559-.937 12.248-7.512 15.065-13.703-.044-.065-.086-.13-.129-.194-.729-1.083-1.473-2.191-2.237-3.178-.384-.501-.784-.987-1.204-1.462-.41-.476-.835-.947-1.275-1.397-.509-.521-1.039-1.02-1.58-1.506.932 8.029-.65 17.445-8.64 21.44z" fill="#ac382e"/><path id="path4061" d="m433.516 373.862c4.555 1.519 9.109 3.037 13.158-1.518-4.555-.506-8.098-4.049-7.591-8.604 4.555 6.073 11.64 2.53 15.688-1.519-4.555 1.012-8.604-1.518-9.616-6.073 5.567 2.53 10.122-1.519 12.652-6.073-3.036 1.518-5.061-1.012-7.591-2.024 5.061 1.518 8.604-2.53 12.146-4.555 2.353-1.47 4.535-4.134 6.943-6.606.252-.658.516-1.312.808-1.957.005-.005.005-.016.01-.021.258-.556.531-1.108.83-1.649-.172.015-.344.02-.517.035-.051 0-.101.005-.151.01-.455.031-.911.065-1.361.106-.025 0-.046 0-.071.005-.263.026-.526.046-.789.071-.243.025-.486.051-.729.076-.122.015-.238.026-.354.041-.395.045-.789.097-1.18.147-3.831.511-7.586 1.372-11.179 2.733-5.426 2.06-10.431 5.294-14.47 9.656-2.024 2.166-3.836 4.575-5.379 7.191-1.574 2.586-2.881 5.385-3.989 8.265-.551 1.488-1.148 3.011-1.821 4.474-.684 1.462-1.433 2.895-2.287 4.266-.871 1.362-1.827 2.672-2.986 3.796-.289.284-.592.551-.906.8-.313.253-.643.486-.986.693-.106.065-.213.126-.319.182.946.288 1.888.607 2.819.957.192-.066.385-.142.566-.233.562-.258 1.078-.612 1.528-1.048.906-.865 1.604-1.958 2.223-3.107 1.244-2.303 2.277-4.788 3.466-7.192.588-1.209 1.185-2.419 1.813-3.608.632-1.184 1.285-2.358 1.963-3.517.674-1.159 1.367-2.313 2.101-3.427.739-1.123 1.458-2.226 2.282-3.335.41-.546.841-1.078 1.281-1.594.45-.506.91-.998 1.392-1.478.945-.946 1.948-1.837 2.985-2.657 1.032-.835 2.131-1.569 3.239-2.268 1.108-.683 2.237-1.336 3.405-1.898 1.159-.567 2.339-1.083 3.533-1.554 1.199-.455 2.409-.86 3.629-1.225 1.938-.552 3.901-1.007 5.881-1.265.404-.056.814-.101 1.225-.132.075-.01.161-.015.242-.02.031-.005.061-.005.097-.01-.036.015-.07.02-.106.035-.03.005-.071.02-.102.03-.298.086-.587.177-.88.269-4.449 1.401-8.74 3.234-12.764 5.531-1.083.643-2.156 1.281-3.188 1.999-1.037.704-2.029 1.478-3.007 2.267-.972.795-1.897 1.645-2.778 2.546-.439.45-.865.921-1.275 1.397-.42.476-.819.961-1.209 1.462-.765.987-1.503 2.095-2.231 3.178-.725 1.088-1.448 2.182-2.146 3.294-.703 1.104-1.381 2.232-2.04 3.371-.667 1.139-1.33 2.283-1.979 3.441-.643 1.154-1.275 2.328-1.938 3.487-.663 1.154-1.321 2.333-2.08 3.446-.77 1.108-1.609 2.217-2.703 3.001-.541.389-1.139.698-1.756.886-.016.005-.021.005-.03.005-.086.025-.172.05-.258.065.313.122.627.243.94.37 1.418.592 2.814 1.245 4.155 2.014 1.336.779 2.657 1.62 3.78 2.718-.668-.37-1.351-.678-2.049-.956-.699-.289-1.397-.542-2.105-.77-.726-.236-1.454-.455-2.187-.657 3.827 1.522 7.826 2.798 10.858 5.364 1.012-4.044-2.025-8.093-4.555-11.13z" fill="#ac382e"/><path id="path4063" d="m340.395 361.21c6.004-3.001 11.999-6.01 13.604-12.922-.363-.324-.727-.647-1.101-.955-.977-.789-1.969-1.563-3.006-2.267-1.033-.718-2.11-1.356-3.188-1.999-.58-.331-1.167-.65-1.758-.962 1.767 6.667.122 13.964-4.551 19.105z" fill="#ac382e"/><path id="path4065" d="m414.011 490.456c-2.778.339-5.526-.197-8.214-1.068-1.554-.501-3.001-1.363-4.59-1.621-.395-.065-.86-.214-1.17-.214-.015 0-.096 0-.096 0-.01 0-.025 0-.035 0-.314 0-.724.148-1.123.214-1.585.258-3.037 1.021-4.586 1.522-2.692.87-5.44 1.456-8.219 1.117-1.417-.177-2.813-.481-4.154-.952.118.111.233.234.348.35 3.073 1.841 6.38 3.747 9.336 2.481 7.592-3.543 14.171 1.52 21.256-.504 1.406-.351 3.299-.704 4.833-1.733.188-.194.374-.388.569-.568-1.347.47-2.738.798-4.155.976z" fill="#ac382e"/><path id="path4067" d="m334.41 337.363l-.471.172c-.294-.091-.582-.183-.881-.269l.132-.036c.406.032.815.078 1.22.133z"/><path id="path4069" d="m333.575 332.196c.223.512.425 1.033.617 1.559-.39-.05-.779-.102-1.179-.147-.224-.476-.451-.951-.688-1.412.415-.01.83-.01 1.25 0z"/><path id="path4071" d="m332.659 343.639c.582 2.768.962 5.628.91 8.502-.02 1.22-.121 2.435-.313 3.649-.075.501-.182 1.027-.299 1.508l-.328 1.442c-.218.961-.425 1.923-.628 2.89-.395 1.928-.739 3.867-.931 5.81-.192 1.948-.229 3.907-.081 5.875.101 1.493.283 2.981.485 4.469l-.456.101c-.288-1.482-.546-2.976-.729-4.494-.237-1.994-.323-4.029-.182-6.043.126-2.014.415-4.003.743-5.972.167-.982.35-1.964.537-2.946l.283-1.462c.102-.486.183-.936.243-1.412.263-1.903.269-3.841.106-5.769-.157-1.929-.477-3.852-.906-5.75-.81-3.441-1.923-6.796-3.036-10.167 1.042 1.311 2.06 2.662 2.996 4.043.664 1.859 1.176 3.777 1.586 5.726z"/><path id="path4073" d="m333.575 332.196c-.42-.01-.835-.01-1.25 0-.734-1.432-1.539-2.809-2.399-4.135-.455-.703-.932-1.392-1.411-2.064-.927-1.63-1.949-3.209-3.027-4.742-1.715-2.424-3.588-4.732-5.576-6.923-1.989-2.191-4.075-4.287-6.302-6.205 2.339 1.756 4.556 3.705 6.69 5.759 2.131 2.065 4.16 4.256 6.053 6.6 1.894 2.343 3.645 4.838 5.163 7.525.754 1.346 1.452 2.738 2.059 4.185z"/><path id="path4075" d="m333.19 337.231l-.132.036c-.03-.01-.07-.025-.102-.03-.005-.01-.005-.015-.01-.025.082.004.163.01.244.019z"/><path id="path4077" d="m332.947 337.211c.005.01.005.015.01.025-.035-.015-.07-.021-.105-.035.035.006.06.006.095.01z"/><path id="path4079" d="m333.014 333.608c-.111-.015-.233-.025-.35-.041-.253-.46-.512-.921-.774-1.372.142 0 .288 0 .436 0 .237.462.464.937.688 1.413z"/><path id="path4081" d="m332.664 333.567c-.243-.025-.491-.05-.733-.076-.143-.43-.294-.855-.456-1.28.137-.005.273-.01.415-.016.262.451.521.912.774 1.372z"/><path id="path4083" d="m332.325 332.196c-.147 0-.294 0-.436 0-.39-.653-.795-1.3-1.215-1.928-.197-.456-.409-.911-.622-1.356-.48-.987-.992-1.958-1.538-2.915.479.673.956 1.361 1.411 2.064.861 1.326 1.666 2.703 2.4 4.135z"/><path id="path4085" d="m331.89 332.196c-.142.005-.278.011-.415.016-.248-.653-.511-1.301-.8-1.943.42.627.825 1.274 1.215 1.927z"/><path id="path4087" d="m331.475 332.211c.162.425.313.85.456 1.28-.259-.025-.526-.045-.785-.071-.086-.136-.172-.273-.253-.404-.116-.258-.232-.511-.354-.764.308-.021.622-.036.936-.041z"/><path id="path4089" d="m330.893 333.016c.081.131.167.268.253.404-.025-.005-.051-.005-.07-.005-.062-.136-.123-.268-.183-.399z"/><path id="path4091" d="m330.675 330.268c.289.643.552 1.291.8 1.943-.313.005-.628.02-.936.041-.547-1.139-1.145-2.257-1.777-3.346-1.245-2.13-2.646-4.165-4.149-6.108 1.022 1.047 2.009 2.146 2.955 3.29 1.098 1.326 2.14 2.718 3.107 4.18z"/><path id="path4093" d="m330.893 333.016c.061.131.121.263.183.399-.456-.041-.911-.075-1.367-.106-.167-.329-.339-.653-.521-.977.405-.031.806-.056 1.215-.076.16.249.327.502.49.76z"/><path id="path4095" d="m331.05 337.834c.01.025.021.056.025.081-.937-1.382-1.954-2.733-2.996-4.043-.106-.334-.224-.668-.329-1.002l.485-.273-.005-.187c.051-.005.102-.005.151-.01.517.8 1.008 1.625 1.469 2.465.44.965.84 1.962 1.2 2.969z"/><path id="path4097" d="m330.539 332.252c.121.253.237.506.354.764-.162-.258-.329-.511-.491-.759.045-.005.09-.005.137-.005z"/><path id="path4099" d="m330.539 332.252c-.047 0-.092 0-.138.005-1.64-2.475-3.512-4.752-5.511-6.853-.795-.825-1.604-1.629-2.435-2.399-1.094-1.229-2.237-2.414-3.416-3.558-2.546-2.475-5.253-4.762-8.077-6.888-2.829-2.12-5.749-4.104-8.806-5.84 3.152 1.523 6.194 3.31 9.16 5.244 2.96 1.943 5.83 4.064 8.567 6.396 1.63 1.397 3.214 2.87 4.728 4.439 1.503 1.943 2.904 3.978 4.149 6.108.635 1.089 1.232 2.207 1.779 3.346z"/><path id="path4101" d="m330.053 328.912c.213.445.425.9.622 1.356-.967-1.462-2.009-2.854-3.107-4.18-.946-1.144-1.933-2.243-2.955-3.29-.517-.668-1.043-1.321-1.574-1.959-2.115-2.53-4.393-4.909-6.776-7.146-2.398-2.232-4.889-4.353-7.521-6.26 2.713 1.767 5.309 3.755 7.813 5.866 2.501 2.121 4.904 4.393 7.156 6.837 1.7 1.848 3.315 3.791 4.804 5.861.546.956 1.057 1.928 1.538 2.915z"/><path id="path4103" d="m330.401 332.257c-.409.02-.81.045-1.215.076-.931-1.686-1.983-3.315-3.117-4.874-1.128-1.544-2.343-3.027-3.613-4.454.83.77 1.64 1.574 2.435 2.399 1.999 2.101 3.871 4.378 5.51 6.853z"/><path id="path4105" d="m329.708 333.31c-.045-.005-.101-.01-.146-.01-.188-.223-.369-.445-.562-.663l-.016-.288c.066-.005.137-.01.202-.015.183.323.355.647.522.976z"/><path id="path4107" d="m329.046 333.264c.288.526.551 1.058.805 1.599-.461-.84-.952-1.665-1.469-2.465.133-.015.259-.025.386-.036.06.066.116.137.172.203.025.021.045.045.061.071z"/><path id="path4109" d="m329.562 333.299c-.172-.015-.344-.02-.516-.035l-.046-.628c.192.218.374.441.562.663z"/><path id="path4111" d="m329.187 332.333c-.065.005-.136.01-.202.015-.07.005-.142.01-.217.015-.582-.678-1.175-1.351-1.777-2.004-.972-1.346-2.009-2.637-3.092-3.877-2.551-2.899-5.375-5.526-8.36-7.925-2.991-2.394-6.139-4.57-9.388-6.544-3.26-1.969-6.604-3.78-10.077-5.294 3.527 1.356 6.949 3.017 10.294 4.844 3.341 1.837 6.59 3.881 9.707 6.169 2.212 1.625 4.348 3.371 6.382 5.273 1.271 1.427 2.485 2.91 3.613 4.454 1.133 1.559 2.186 3.188 3.117 4.874z"/><path id="path4113" d="m328.984 332.348l.016.288c-.016-.025-.035-.05-.061-.071-.056-.065-.112-.137-.172-.203.076-.004.147-.009.217-.014z"/><path id="path4115" d="m328.768 332.363c-.127.011-.253.021-.386.036-.445-.693-.91-1.376-1.392-2.04.603.653 1.196 1.326 1.778 2.004z"/><path id="path4117" d="m328.382 332.398c-.05.005-.101.005-.151.01l.005.187-.485.273c.105.334.223.668.329 1.002-.066-.086-.137-.178-.208-.264-1.366-1.715-2.793-3.371-4.276-4.975-2.96-3.198-6.134-6.185-9.494-8.897-6.716-5.42-14.247-9.747-22.334-12.303 8.158 2.268 15.871 6.352 22.814 11.579 3.478 2.617 6.771 5.521 9.869 8.66.865.875 1.716 1.771 2.54 2.687.481.665.946 1.348 1.391 2.041z"/><path id="path4119" d="m387.699 434.219c-.754-3.345-1.974-7.394-5.096-8.978-.016-.126-.046-.253-.081-.385.242-1.731-.466-3.608-1.149-5.137-.911-2.044-2.429-3.892-4.418-4.777-2.394-1.058-4.768-.957-7.257-.369-2.972.698-5.618 1.67-8.705 1.7-.521.005-.648.851-.122.972 1.048.248 2.08.258 3.118.121-2.177 4.459 3.102 10.026 6.64 11.585 2.132.947 4.384 1.211 6.602.81.031.092.061.185.107.278 3.036 4.555 7.085 8.097 8.604 13.664.465 1.861 1.36 2.863 3.074 2.62.146.556.307 1.104.501 1.642.075.223.395.263.46 0 .506-2.121-.065-4.296-.496-6.372-.522-2.48-1.22-4.91-1.782-7.374z" fill="none"/><path id="path4121" d="m377.719 407.092c1.17 2.809 1.943 6.493 4.146 8.265.415.329 1.088.041 1.18-.617.485-3.669-1.307-7.46-2.603-10.552-1.184-2.809-2.591-6.215-5.44-5.618-.248.045-.495.456-.46.784.287 2.86 2.14 5.264 3.177 7.738z" fill="none"/><path id="path4123" d="m418.125 415.357c2.207-1.771 2.981-5.456 4.15-8.265 1.037-2.475 2.89-4.878 3.179-7.738.035-.329-.213-.739-.461-.784-2.85-.597-4.262 2.809-5.44 5.618-1.296 3.092-3.087 6.883-2.602 10.552.092.657.765.946 1.174.617z" fill="none"/><path id="path4125" d="m439.002 416.272c-3.087-.03-5.734-1.001-8.705-1.7-2.49-.587-4.863-.688-7.258.369-1.988.886-3.507 2.733-4.418 4.777-.683 1.528-1.392 3.406-1.148 5.137-.035.132-.066.258-.081.385-3.128 1.584-4.342 5.633-5.097 8.978-.562 2.464-1.26 4.894-1.781 7.374-.435 2.076-1.007 4.251-.496 6.372.062.263.385.223.461 0 .204-.571.373-1.156.525-1.748.065.341.143.683.242 1.029.506.506 1.518 0 2.024-.506.994-7.955 8.822-10.052 10.537-16.842 1.876.162 3.76-.147 5.558-.946 3.538-1.559 8.816-7.126 6.641-11.585 1.032.137 2.069.127 3.117-.121.526-.122.395-.967-.121-.973z" fill="none"/><path id="path4129" d="m376.308 374.136c-1.159-1.124-2.121-2.434-2.986-3.796-.855-1.371-1.604-2.804-2.287-4.266-.674-1.462-1.275-2.986-1.822-4.474-1.108-2.88-2.414-5.679-3.988-8.265-1.544-2.616-3.355-5.026-5.38-7.191-4.043-4.362-9.043-7.596-14.474-9.656-3.148-1.193-6.421-2.001-9.761-2.526-.472-.075-.944-.144-1.419-.207-.39-.05-.779-.102-1.179-.147-.111-.015-.233-.025-.35-.041-.243-.025-.491-.05-.733-.076-.259-.025-.526-.045-.785-.071-.025-.005-.051-.005-.07-.005-.456-.041-.911-.075-1.367-.106-.045-.005-.101-.01-.146-.01-.172-.015-.344-.02-.516-.035.288.526.551 1.058.805 1.599.33.726.631 1.472.916 2.224.953.878 2.055 1.576 3.075 2.189 1.563.938 3.317 1.683 4.79 2.592.663 4.099.457 8.305-.261 12.256 3.259-3.725 5.229-7.452 5.918-12.358-2.039-1.046-4.138-1.979-6.283-2.805.117.433.221.869.317 1.306-.097-.437-.2-.873-.317-1.306-.591-.228-1.187-.444-1.782-.656-.757-.269-1.518-.528-2.284-.77-.294-.091-.582-.183-.881-.269-.03-.01-.07-.025-.102-.03-.035-.015-.07-.021-.105-.035.035.005.061.005.096.01.081.005.162.01.243.02.405.031.814.076 1.22.132.563.073 1.124.164 1.683.268.543.101 1.083.214 1.622.337.862.196 1.722.417 2.576.66 1.225.365 2.434.77 3.633 1.225 1.195.471 2.374.987 3.533 1.554 1.169.562 2.293 1.215 3.405 1.898 1.109.698 2.207 1.432 3.239 2.268 1.033.82 2.04 1.71 2.986 2.657.48.48.941.972 1.392 1.478.44.516.871 1.047 1.28 1.594.825 1.109 1.539 2.212 2.283 3.335.733 1.114 1.422 2.268 2.1 3.427.673 1.159 1.331 2.333 1.964 3.517.628 1.189 1.225 2.399 1.812 3.608 1.185 2.404 2.223 4.889 3.467 7.192.617 1.148 1.316 2.242 2.222 3.107.243.238.517.456.8.643.106.066.208.131.313.192 1.022-.35 2.05-.664 3.087-.947-.538-.365-1.035-.79-1.499-1.24zm-37.679-32.273c-.072-.442-.156-.884-.249-1.324.093.44.178.881.249 1.324z" fill="#ac382e"/><path id="path4131" d="m456.189 408.093c.022-.024.042-.049.065-.073-.023.023-.042.049-.065.073z" fill="#e74c3c"/><path id="path4133" d="m467.992 361.63c-.197-.967-.404-1.928-.627-2.89l-.329-1.442c-.111-.481-.218-1.007-.299-1.508-.192-1.209-.288-2.424-.309-3.634-.036-1.891.119-3.777.394-5.634.144-.97.317-1.933.518-2.883.409-1.948.921-3.872 1.579-5.729.01-.025.021-.05.03-.076.112-.317.235-.629.356-.943-2.408 2.472-4.591 5.137-6.943 6.606-3.542 2.024-7.085 6.073-12.146 4.555 2.53 1.012 4.555 3.542 7.591 2.024-2.53 4.555-7.085 8.604-12.652 6.073 1.013 4.555 5.062 7.085 9.616 6.073-4.049 4.049-11.134 7.591-15.688 1.519-.507 4.555 3.036 8.097 7.591 8.604-4.049 4.555-8.604 3.037-13.158 1.518 2.53 3.037 5.567 7.085 4.555 11.134-3.032-2.566-7.031-3.842-10.858-5.364-.694-.191-1.391-.37-2.09-.532-2.875-.678-5.78-1.154-8.695-1.513-4.393-.538-8.813-.796-13.244-.892-.485-.01-.97-.02-1.455-.027-.966-.013-1.931-.022-2.897-.022-1.102.001-2.204.022-3.306.042-.443.007-.887.005-1.329.016-4.335.107-8.661.375-12.957.909-2.92.359-5.824.84-8.699 1.518-2.654.642-5.311 1.382-7.84 2.593-.2.096-.402.189-.602.292.197-.189.407-.361.614-.535.253-3.295 2.988-5.756 2.506-9.136-5.061 3.037-10.628 7.591-17.207 5.567 7.616-3.584 12.452-11.532 11.706-19.979-.396-.61-.795-1.217-1.195-1.821-2.817 6.191-8.507 12.766-15.065 13.703 7.99-3.995 9.572-13.411 8.64-21.44-.032-.029-.065-.057-.098-.085-1.604 6.912-7.6 9.921-13.604 12.922 4.674-5.141 6.318-12.438 4.551-19.105-.218-.115-.437-.226-.656-.338-.689 4.906-2.659 8.634-5.918 12.358.718-3.951.924-8.157.261-12.256-1.472-.91-3.228-1.655-4.79-2.592-1.021-.613-2.122-1.311-3.075-2.189.095.249.193.496.283.747.01.025.021.056.025.081.662 1.857 1.174 3.775 1.584 5.724.582 2.768.962 5.628.91 8.502-.012.738-.058 1.474-.131 2.209-.049.48-.106.96-.183 1.44-.075.501-.182 1.027-.299 1.508l-.328 1.442c-.218.961-.425 1.923-.628 2.89-.395 1.928-.739 3.867-.931 5.81-.192 1.948-.229 3.907-.081 5.875.101 1.493.283 2.981.485 4.469.086-.197.188-.39.283-.582.612-1.139 1.366-2.216 2.354-2.966-1.169 2.232-1.686 4.625-1.938 7.015-.126 1.194-.156 2.398-.126 3.604.024 1.205.111 2.409.243 3.613.136 1.2.344 2.429.581 3.578.238 1.169.526 2.333.917 3.462.399 1.128.905 2.216 1.522 3.229.31.506.643.997 1.008 1.458.364.456.764.916 1.169 1.275l-.046.071.086.025c-.142.764-.156 1.609-.146 2.439.021.835.076 1.67.162 2.51.172 1.67.435 3.33.779 4.969.344 1.63.773 3.244 1.331 4.758.111.318.237.632.369.941.035-3.928.633-8.001 2.991-9.753.404-.303.931.314.663.856-1.635 3.274-2.121 7.368-1.959 11.417.01 0 .015.005.025.01l-.021.03c.106 2.581.491 5.142 1.008 7.455 1.457 6.473 4.327 12.419 8.107 17.04 1.746 2.135 3.644 4.063 5.693 5.693 2.06 1.634 4.256 2.875 6.366 4.377 3.669 2.622 7.162 6.402 8.315 11.802.207.977-.714 1.589-1.255.951-1.822-2.141-3.315-4.757-5.243-6.741-.617-.643-1.266-1.205-1.934-1.731.547.78 1.053 1.615 1.493 2.521 1.584 3.305 2.677 6.948 4.186 10.309.526 1.173 1.877 4.448 3.917 7.743.927 1.498 1.999 3.001 3.204 4.317 3.846 4.205 10.07 4.681 12.429 4.63 2.885-.066 5.598-1.053 8.366-2.024 1.047-.369 1.953-.562 2.996-.627.01-.891-.071-4.838-.086-5.927-.393-.055-.81-.162-1.227-.27-.084-.022-.167-.042-.251-.063-1.19-.304-5.163-2.916-3.847-5.005.111-.172.258-.344.45-.511.121-1.331-.269-2.282-1.189-2.95-.177-.126-.45-.249-.734-.395-1.831 1.392-2.925-3.604-2.844-5.162.051-.982.562-2.916 1.296-4.135.759-1.26 2.702-2.047 3.305-2.285 1.271-.501 3.669-1.055 5.663-1.055.01 0 .025 0 .035 0 0 0 .081 0 .096 0 1.99 0 4.419.554 5.685 1.055.606.238 2.565.945 3.319 2.206.739 1.22 1.25 3.193 1.306 4.175.081 1.559-1.012 6.574-2.845 5.177-.283.152-.556.283-.729.41-.921.668-1.315 1.622-1.188 2.958.192.161.333.334.445.512 1.315 2.085-2.652 4.703-3.842 5.006-.501.126-1.007.269-1.482.334-.001.127-.004.297-.006.494 1.61 3.606 6.149 4.878 10.37 4.764.604-.016 1.2-.061 1.78-.131.516-.063 1.02-.145 1.503-.246-.483.101-.987.183-1.503.246-.58.07-1.177.115-1.78.131-4.221.114-8.76-1.158-10.37-4.764-.022 1.48-.084 4.646-.075 5.432 1.043.066 1.948.258 2.996.627 2.769.972 5.48 1.958 8.365 2.024 2.358.051 8.584-.425 12.43-4.63.724-.79 1.397-1.645 2.024-2.53 2.703-3.822 4.469-8.138 5.097-9.53 1.508-3.361 2.602-7.004 4.186-10.309.435-.906.946-1.741 1.487-2.521-.663.526-1.311 1.088-1.928 1.731-1.929 1.984-3.421 4.601-5.248 6.741-.542.638-1.458.025-1.25-.951 1.148-5.4 4.641-9.181 8.314-11.802 2.105-1.503 4.307-2.743 6.367-4.377 2.049-1.63 3.947-3.558 5.693-5.693 3.775-4.621 6.649-10.567 8.107-17.04.517-2.313.896-4.874 1.007-7.455l-.021-.03c.011-.005.016-.01.025-.01.162-4.049-.328-8.143-1.958-11.417-.045-.089-.062-.179-.067-.268-.023.024-.043.049-.065.073v0c .022-.024.042-.05.065-.074-.028-.451.392-.842.73-.588.009.007.017.016.026.023.048.036.091.079.137.117 2.219 1.813 2.793 5.781 2.828 9.613.131-.309.258-.623.369-.941.557-1.514.981-3.127 1.331-4.758.344-1.639.606-3.299.779-4.969.081-.84.142-1.675.162-2.51.005-.653 0-1.326-.076-1.949-.021-.167-.046-.334-.076-.491l.086-.025-.04-.071c.399-.359.805-.82 1.164-1.275.369-.46.703-.951 1.012-1.458.618-1.012 1.124-2.101 1.523-3.229.39-1.129.679-2.293.916-3.462.238-1.149.445-2.378.577-3.578.137-1.204.218-2.409.248-3.613.025-1.205 0-2.409-.127-3.604-.253-2.389-.774-4.783-1.938-7.015.987.75 1.741 1.827 2.349 2.966.102.192.197.385.288.582.203-1.488.38-2.976.486-4.469.146-1.969.106-3.927-.081-5.875-.188-1.946-.531-3.884-.932-5.813zm-124.71 39.126c-.354-1.23-.684-2.455-1.063-3.649-.38-1.189-.789-2.364-1.32-3.416-.264-.532-.552-1.027-.891-1.448-.329-.42-.693-.764-1.079-.941-.384-.188-.764-.172-1.193-.111-.436.051-.946.167-1.6.263l-.263-.288c.202-.775.743-1.336 1.447-1.629.11-.046.228-.081.349-.107 0-.045.011-.091.011-.136.177-1.645.177-3.295.024-4.935-.034-.392-.08-.782-.13-1.171-.184-1.437-.46-2.859-.811-4.264-.151-.616-.319-1.227-.495-1.835-.315-1.089-.666-2.169-1.049-3.24-.021-.071-.046-.137-.071-.208-.612-1.741-1.326-3.442-2.064-5.127l-.015-.025c-.071-.172-.081-.349-.041-.516.369-1.513.653-3.062.896-4.616.094-.601.175-1.203.248-1.809.022-.18.046-.358.066-.539.096-.779.177-1.569.243-2.358.136-1.579.242-3.163.298-4.757.021-.572.041-1.144.051-1.715.025-1.023.03-2.05.021-3.077.263 1.579.415 3.178.521 4.783.096 1.604.141 3.218.105 4.828-.024 1.614-.116 3.229-.293 4.838-.104 1.061-.254 2.118-.44 3.172-.078.445-.161.889-.253 1.333.202.427.386.867.578 1.302.534 1.208 1.044 2.431 1.502 3.678.647 1.787 1.194 3.624 1.614 5.496.41 1.878.688 3.801.749 5.744.029 1.102-.015 2.211-.138 3.308-.069.606-.155 1.209-.282 1.804.326.036.653.131.957.267.039.018.082.028.121.047.698.354 1.229.896 1.64 1.468.409.587.714 1.199.981 1.816.506 1.255.825 2.536 1.053 3.826.126.733.22 1.466.285 2.201.051.559.086 1.119.1 1.68zm31.721-2.186c2.85-.597 4.257 2.809 5.44 5.618 1.296 3.092 3.088 6.883 2.603 10.552-.092.658-.765.946-1.18.617-2.202-1.771-2.976-5.456-4.146-8.265-1.037-2.475-2.89-4.878-3.178-7.738-.034-.329.213-.739.461-.784zm14.976 49.394c-.065.263-.385.223-.46 0-.194-.537-.355-1.086-.501-1.642-.426-1.623-.709-3.302-1.21-4.897-.668-2.105-1.336-4.246-2.231-6.255-.72-1.625-1.271-3.396-2.146-4.929-.521-.917-1.158-1.741-1.751-2.596-.663.698-1.559 1.229-2.333 1.528-.697.265-1.403.459-2.113.587-2.218.401-4.47.137-6.602-.81-3.537-1.559-8.816-7.126-6.64-11.585-1.038.137-2.07.127-3.118-.121-.526-.122-.399-.967.122-.972 3.087-.03 5.733-1.001 8.705-1.7 2.489-.587 4.863-.688 7.257.369 1.989.886 3.507 2.733 4.418 4.777.684 1.528 1.392 3.406 1.149 5.137.035.132.065.258.081.385 3.122 1.584 4.342 5.633 5.096 8.978.562 2.464 1.26 4.894 1.781 7.374.43 2.076 1.001 4.252.496 6.372zm29.576-43.776c1.18-2.809 2.591-6.215 5.44-5.618.248.045.496.456.461.784-.289 2.86-2.142 5.264-3.179 7.738-1.169 2.809-1.943 6.493-4.15 8.265-.409.329-1.082.041-1.174-.617-.485-3.67 1.306-7.46 2.602-10.552zm19.57 13.057c-1.048.248-2.085.258-3.117.121 2.176 4.459-3.103 10.026-6.641 11.585-1.798.799-3.681 1.108-5.558.946-1.06-.091-2.117-.33-3.157-.724-.774-.298-1.67-.83-2.333-1.528-.592.855-1.229 1.68-1.751 2.596-.875 1.534-1.427 3.305-2.146 4.929-.896 2.009-1.564 4.149-2.231 6.255-.491 1.561-.776 3.201-1.186 4.792-.152.592-.321 1.176-.525 1.748-.076.223-.399.263-.461 0-.511-2.121.062-4.296.496-6.372.521-2.479 1.22-4.909 1.782-7.374.754-3.345 1.968-7.394 5.096-8.978.016-.126.046-.253.081-.385-.243-1.731.466-3.608 1.148-5.137.911-2.044 2.43-3.892 4.418-4.777 2.395-1.058 4.768-.957 7.258-.369 2.971.698 5.618 1.67 8.705 1.7.517.005.648.85.122.972zm16.152-7.45c0-.037.006-.082.017-.133-.011.051-.017.096-.017.133zm.046-.242c.006-.021.01-.04.018-.063-.008.023-.012.041-.018.063zm.09-.257c.001-.001.001-.003.002-.005-.001.002-.001.004-.002.005zm11.512-40.813l-.01.03c-.739 1.685-1.453 3.386-2.07 5.127-.025.07-.051.136-.071.208-.592 1.67-1.123 3.355-1.538 5.076-.445 1.787-.779 3.599-.941 5.436-.151 1.64-.151 3.29.021 4.935 0 .045.01.091.01.136.121.026.243.061.354.107.698.293 1.24.854 1.447 1.629l-.264.288c-.652-.096-1.163-.212-1.599-.263-.31-.043-.593-.061-.87.001-.108.024-.217.058-.324.11-.385.177-.754.521-1.083.941-.334.42-.622.916-.886 1.448-.531 1.052-.941 2.227-1.326 3.416-.38 1.194-.703 2.419-1.063 3.649l-.364-.066c.03-1.3.161-2.591.385-3.881.223-1.291.546-2.571 1.053-3.826.263-.617.571-1.229.981-1.816.41-.572.941-1.114 1.64-1.468.322-.163.688-.267 1.054-.309.008-.001.017-.004.024-.005-.008-.036-.012-.072-.02-.108-.341-1.636-.45-3.329-.401-5.003.062-1.943.335-3.866.75-5.744.42-1.873.967-3.709 1.614-5.496.622-1.696 1.311-3.366 2.08-4.98-.31-1.493-.547-2.996-.693-4.504-.178-1.609-.269-3.224-.294-4.838-.035-1.61.011-3.224.106-4.828.106-1.604.259-3.204.521-4.783-.004.382-.003.764-.003 1.146.002.65.007 1.299.023 1.946.01.566.024 1.133.045 1.7.04 1.039.104 2.073.177 3.104.038.551.076 1.103.122 1.653.071.79.152 1.579.248 2.358.086.79.192 1.569.309 2.348.094.588.195 1.174.302 1.759.176.96.369 1.916.599 2.857.041.175.026.358-.045.51z" fill="#e74c3c"/><path id="path4135" d="m391.508 492.288c-2.956 1.267-6.263-.637-9.336-2.479.022.022.045.044.066.065.243.243.481.498.709.756.698.774 1.366 1.59 2.064 2.314 1.554 1.605 3.123 3.164 4.944 4.207 3.052 1.746 6.827 2.91 9.95 2.591.01 0 .025.005.035.005 0 0 .081-.005.096-.005 3.118.318 6.924-.845 9.971-2.591 1.822-1.043 3.406-2.601 4.954-4.206.889-.917 1.729-1.966 2.635-2.897-1.534 1.029-3.427 1.382-4.833 1.733-7.084 2.025-13.663-3.036-21.255.507z" fill="#e74c3c"/></g></svg>