<svg id="Layer_1" enable-background="new 0 0 410 90" height="90" viewBox="0 0 410 90" width="410" xmlns="http://www.w3.org/2000/svg"><path id="path5" d="m140.659 77.698c-2.419 1.188-4.703 2.051-6.844 2.57-2.233.544-4.408.815-6.519.815-3.141 0-6.13-.647-8.967-1.946-2.838-1.299-5.344-3.154-7.516-5.571-2.174-2.412-3.895-5.296-5.162-8.647-1.268-3.352-1.902-7.079-1.902-11.185 0-4.588.634-8.618 1.902-12.09 1.268-3.471 2.988-6.354 5.162-8.648 2.172-2.294 4.678-4.016 7.516-5.163 2.837-1.146 5.826-1.721 8.967-1.721 2.111 0 4.256.18 6.43.543 2.172.362 4.586.966 7.245 1.811l2.354-5.838c-2.777-1.012-5.508-1.771-8.195-2.277-2.687-.507-5.298-.759-7.833-.759-4.65 0-8.967.828-12.951 2.487-3.986 1.659-7.457 3.995-10.416 7.009-2.958 3.015-5.269 6.618-6.927 10.809-1.663 4.19-2.491 8.817-2.491 13.882 0 5.247.828 9.949 2.491 14.11 1.658 4.159 3.968 7.702 6.927 10.626 2.959 2.925 6.43 5.171 10.416 6.737 3.984 1.568 8.301 2.352 12.951 2.352 2.535 0 5.13-.316 7.788-.949.865-.207 1.743-.479 2.627-.777z" fill="#e64c3c"/><path id="path7" d="m319.499 77.698c-2.418 1.188-4.703 2.051-6.842 2.57-2.235.544-4.408.815-6.521.815-3.14 0-6.127-.647-8.965-1.946-2.84-1.299-5.344-3.154-7.518-5.571-2.173-2.412-3.895-5.296-5.162-8.647-1.27-3.352-1.901-7.079-1.901-11.185 0-4.588.632-8.618 1.901-12.09 1.268-3.471 2.989-6.354 5.162-8.648 2.174-2.294 4.678-4.016 7.518-5.163 2.838-1.146 5.825-1.721 8.965-1.721 2.113 0 4.257.18 6.43.543 2.175.362 4.588.966 7.246 1.811l2.354-5.838c-2.776-1.012-5.51-1.771-8.196-2.277-2.688-.507-5.297-.759-7.834-.759-4.65 0-8.965.828-12.951 2.487-3.984 1.659-7.457 3.995-10.413 7.009-2.958 3.015-5.271 6.618-6.929 10.809-1.66 4.19-2.49 8.817-2.49 13.882 0 5.247.83 9.949 2.49 14.11 1.658 4.159 3.971 7.702 6.929 10.626 2.956 2.925 6.429 5.171 10.413 6.737 3.986 1.568 8.301 2.352 12.951 2.352 2.537 0 5.133-.316 7.79-.949.862-.207 1.741-.479 2.626-.777z" fill="#e64c3c"/><path id="path9" d="m368.894 20.679h8.693v59.318h27.531l-.093 6.521h-36.132v-65.839z" fill="#e64c3c"/><path id="polygon11" d="m171.958 20.679h-8.422l-23.728 65.84h8.603l5.435-15.758h5.009 7.535l-4.07-6.522h-3.465-2.111l-1.087.183.996-1.903 10.142-29.071.636-2.626.632 2.626 18.385 53.071h1.842v-20.518z" fill="#e64c3c"/><path id="path13" d="m273.593 67.89c-1.66-4.161-2.49-8.863-2.49-14.11 0-1.665.1-3.278.278-4.847l-10.183-28.254h-8.422l-23.729 65.84h8.604l5.435-15.758h5.032 7.537l-4.069-6.521h-3.468-2.135l-1.086.183.996-1.903 10.143-29.071.635-2.626.633 2.626 18.384 53.071h1.843v-11.537c-1.559-2.129-2.893-4.474-3.938-7.093z" fill="#e64c3c"/><path id="polygon17" d="m350.8 20.679h-8.424l-23.727 65.84h8.604l5.435-15.758h5.014 7.53l-4.07-6.522h-3.46-2.117l-1.088.183.996-1.903 10.145-29.071.633-2.626.634 2.626 18.385 53.071h1.843v-20.518z" fill="#e64c3c"/><path id="path19" d="m229.491 48.578c2.023-2.742 3.034-5.923 3.034-9.542v-.179c0-2.592-.56-5.066-1.676-7.417-1.118-2.351-2.716-4.417-4.8-6.194-2.082-1.781-4.604-3.182-7.562-4.207-2.96-1.025-6.249-1.539-9.871-1.539-3.322 0-6.401.182-9.238.544-2.838.363-5.947.874-9.327 1.537v64.938h8.603v-59.683c2.173-.421 3.953-.663 5.343-.724 1.389-.06 2.928-.091 4.62-.091 2.051 0 3.969.333 5.75.997 1.78.664 3.337 1.571 4.665 2.716 1.327 1.148 2.386 2.49 3.171 4.03.783 1.54 1.176 3.216 1.176 5.027 0 1.873-.393 3.593-1.176 5.162-.785 1.57-1.799 2.914-3.035 4.031-1.238 1.118-2.642 2.008-4.211 2.671-1.459.62-4.272 1.026-4.66 1.081l-2.999.004-3.85 6.168h6.036c1.254.01 2.248.012 2.554 0h .127c2.346.904 4.167 2.413 5.464 4.521 1.298 2.114 2.369 4.527 3.215 7.246.846 2.715 1.614 5.556 2.31 8.512.694 2.958 1.644 5.738 2.853 8.332h.924l4.199-11.654c-.533-1.949-1.075-3.855-1.637-5.665-.814-2.624-1.811-5.021-2.988-7.19s-2.885-4.008-5.117-5.517l-1.811-.725 2.174-.723c3.136-1.568 5.717-3.724 7.74-6.467z" fill="#e64c3c"/><path id="path23" d="m53.313 69.98c.017-.013.033-.028.049-.046-.016.022-.032.038-.049.046z" fill="#fff"/><path id="path25" d="m53.143 70.072c.038-.009.074-.025.112-.046-.038.021-.074.037-.112.046z" fill="#fff"/><path id="path27" d="m52.803 69.98c.112.087.22.112.319.095-.099.025-.203-.003-.319-.09-.087.049-.174.09-.24.128.066-.041.153-.083.24-.133z" fill="#fff"/><path id="path29" d="m52.501 70.154c-.021.013-.041.029-.062.046.016-.017.041-.033.062-.05.017-.013.038-.024.063-.037-.025.017-.046.029-.063.041z" fill="#fff"/><path id="path31" d="m43.893 78.312c1.151.137 2.286-.096 3.403-.455.638-.212 1.243-.51 1.896-.617.166-.025.335-.059.464-.059.004 0 .008 0 .017 0 0 0 .033 0 .041 0 .125 0 .319.033.484.059.572.096 1.105.355 1.661.559-.555-.194-1.089-.43-1.661-.521-.165-.029-.36-.025-.484-.025-.008 0-.041 0-.041 0-.008 0-.012 0-.017 0-.129 0-.298-.004-.464.025-.654.104-1.259.389-1.896.596-1.118.361-2.252.584-3.403.447-.517-.066-1.027-.178-1.52-.344.493.157 1.003.268 1.52.335z" fill="#fff"/><path id="path35" d="m78.859 13.401c-.021 0-.041-.339-.062-.336-.186.013-.377-.294-.563-.294-.012 0-.021 0-.029 0-.112 0-.22.36-.327.368-.1.014-.203.191-.302.204-.05.004-.1.094-.145.102-.166.017-.327.079-.489.104-1.59.211-3.142.588-4.628 1.152-2.249.853-4.319 2.201-5.992 4.006-.319.34-.621.697-.915 1.065-.477.604-.915 1.249-1.313 1.924-.654 1.068-1.192 2.229-1.652 3.421-.228.617-.476 1.247-.753 1.852-.281.608-.592 1.202-.949 1.768-.36.563-.757 1.106-1.233 1.574-.12.116-.249.228-.376.332-.128.104-.265.199-.41.286-.042.029-.087.054-.132.075.393.12.783.252 1.168.397.082-.029.161-.058.235-.095.232-.108.447-.256.634-.435.372-.361.663-.812.919-1.288.513-.952.944-1.983 1.437-2.977.24-.501.488-1.002.749-1.495.261-.488.53-.977.812-1.457.277-.48.567-.956.87-1.416.306-.468.604-.924.943-1.383.17-.224.348-.447.531-.658.127-.145.256-.282.389-.418.063-.067.128-.133.191-.195.389-.394.807-.762 1.233-1.102.427-.343.882-.65 1.341-.936.456-.285.928-.554 1.412-.787.48-.235.969-.451 1.462-.646.497-.186.997-.356 1.503-.505.803-.228 1.615-.418 2.435-.525.166-.021.335-.042.505-.055.033-.004.07-.004.104-.008.013 0 .025 0 .038-.004-.013.008-.029.008-.042.017-.012 0-.029.008-.042.012-.124.033-.244.071-.368.112-1.838.58-3.614 1.337-5.283 2.29-.447.265-.89.53-1.321.828-.426.29-.84.608-1.242.936-.219.182-.435.369-.642.567-.173.153-.343.318-.509.488-.182.187-.36.381-.53.58-.174.194-.339.397-.501.604-.315.411-.621.866-.923 1.317-.298.451-.6.902-.886 1.362-.294.46-.575.923-.845 1.396-.277.472-.551.944-.82 1.424-.265.48-.529.965-.803 1.445-.273.476-.547.965-.861 1.429-.323.459-.667.915-1.118 1.242-.228.161-.472.29-.729.364-.004.004-.008.004-.013.004-.037.008-.07.021-.108.024.133.054.261.104.39.153.588.249 1.168.518 1.722.836.551.323 1.098.671 1.565 1.126-.277-.152-.559-.281-.849-.397-.29-.12-.58-.224-.874-.319-.584-.191-1.176-.352-1.769-.493-1.192-.282-2.393-.477-3.602-.625-2.414-.298-4.845-.389-7.283-.389-2.439 0-4.874.1-7.288.397-1.209.149-2.41.348-3.602.63-1.185.285-2.373.617-3.496 1.196.472-.451 1.02-.794 1.574-1.114.555-.319 1.135-.588 1.718-.832.294-.116.588-.232.887-.34-.133-.062-.257-.136-.377-.223-.456-.327-.804-.783-1.118-1.242-.315-.464-.588-.953-.861-1.429-.273-.48-.539-.964-.803-1.445-.265-.48-.542-.953-.82-1.424-.269-.472-.555-.936-.845-1.396-.286-.459-.588-.911-.886-1.362-.302-.452-.608-.907-.927-1.317-.158-.207-.323-.41-.497-.604-.169-.199-.348-.393-.531-.58-.165-.17-.335-.335-.509-.488-.207-.199-.422-.385-.642-.567-.401-.328-.815-.646-1.242-.936-.431-.298-.874-.563-1.321-.828-1.669-.953-3.445-1.71-5.284-2.29-.124-.041-.244-.079-.368-.112-.012-.004-.029-.012-.041-.012-.013-.009-.029-.009-.042-.017.012.004.025.004.037.004.034.004.066.004.104.008.166.013.335.034.505.055.819.107 1.631.297 2.434.525.505.149 1.007.319 1.503.505.493.195.981.411 1.462.646.484.232.952.501 1.411.787.459.286.916.593 1.342.936.426.339.844.708 1.234 1.102.062.062.128.128.19.195.132.136.261.273.389.418.182.211.36.435.53.658.34.459.634.915.944 1.383.302.459.587.936.87 1.416.277.48.546.969.812 1.457.261.493.505.994.75 1.495.488.994.923 2.025 1.436 2.977.257.476.547.927.92 1.288.099.099.21.186.331.265.045.029.086.054.132.079.423-.145.849-.273 1.275-.389-.219-.153-.426-.327-.621-.514-.476-.468-.877-1.01-1.234-1.573-.356-.567-.667-1.159-.948-1.767-.277-.605-.525-1.235-.753-1.852-.46-1.192-.998-2.352-1.652-3.42-.397-.675-.836-1.317-1.313-1.921-.293-.369-.596-.721-.915-1.061-1.673-1.805-3.743-3.142-5.991-3.996-1.491-.563-3.043-.919-4.629-1.13-.166-.025-.322-.045-.488-.062-.045-.008-.095-.013-.149-.017-.096-.012-.199-.36-.298-.374-.108-.008-.22-.368-.328-.368-.008 0-.021 0-.029 0-.187 0-.376.307-.567.294-.017-.003-.042.166-.059.166-.07-.008-.145.077-.215.069.116.219.228.48.336.704.182.401.347.837.497 1.251 0 .013.008.036.008.048.273.766.488 1.566.654 2.374.149.691.265 1.398.327 2.105l0 0c .042.468.062.942.054 1.414-.008.505-.054 1.011-.133 1.516-.029.207-.074.427-.124.626l-.133.596c-.095.397-.178.795-.261 1.197-.166.799-.306 1.602-.385 2.405-.083.808-.095 1.619-.037 2.435.045.617.116 1.234.203 1.847.037-.079.079-.157.116-.241.252-.472.567-.915.977-1.226l.456-.161c-.004-.029-.017-.058-.029-.087-.253-.721-.547-1.424-.853-2.124l-.008-.008c-.029-.07-.034-.146-.017-.215.153-.625.273-1.267.373-1.909.05-.323.095-.646.128-.973.042-.323.075-.65.104-.977.054-.654.099-1.309.125-1.971.008-.236.096-.477.1-.716.008-.422.088-.845.088-1.267v-.165l0 0v .165c0 .654.09 1.317.136 1.98.037.666.019 1.333.003 1.999-.009.667-.07 1.337-.141 2.004-.062.625-.167 1.246-.295 1.863.314.671.594 1.362.855 2.062.265.742.491 1.503.665 2.277.17.778.285 1.573.31 2.377.02.708-.026 1.424-.175 2.12.153.017.306.059.447.128.29.145.509.369.679.608.17.24.294.497.406.75.212.522.339 1.052.435 1.586.095.534.149 1.068.161 1.606l-.153.029c-.149-.509-.286-1.019-.443-1.512-.153-.492-.327-.981-.546-1.416-.108-.219-.228-.426-.369-.601-.137-.173-.285-.314-.447-.389-.157-.074-.314-.071-.493-.045-.178.02-.393.07-.663.107l-.108-.116c.083-.323.302-.555.596-.675.041-.02.141-.033.141-.045 0-.017 0-.037 0-.058 0-.679.079-1.362.017-2.041-.066-.762-.204-1.512-.387-2.252-.174-.713-.393-1.408-.641-2.1l-.455.161c-.484.924-.699 1.913-.802 2.903-.054.497-.067.994-.054 1.495.008.497.045.994.104 1.495.053.497.14 1.006.24 1.482.096.485.215.964.377 1.433.165.468.376.919.633 1.337.129.207.261.41.414.604.154.187.319.376.485.526l-.017.029.033.013c-.058.314-.062.667-.058 1.01.008.343.029.691.066 1.039.07.691.178 1.379.323 2.058.141.675.318 1.341.551 1.967.046.132.099.265.153.389.012-1.623.261-3.312 1.238-4.037.166-.125.385.132.273.356-.675 1.354-.877 3.051-.812 4.724.005 0 .005.004.013.004l-.008.013c.045 1.072.202 2.132.417 3.089.601 2.679 1.789 5.142 3.354 7.055.725.887 1.511 1.682 2.36 2.356.853.679 1.76 1.192 2.634 1.813 1.519 1.084 2.964 2.65 3.44 4.886.087.405-.29.658-.517.394-.754-.887-1.371-1.967-2.17-2.791-.257-.266-.525-.497-.799-.717.224.323.435.671.617 1.044.654 1.37 1.105 2.878 1.735 4.269.215.488.774 1.842 1.619 3.209.385.617.828 1.242 1.329 1.785 1.59 1.742 4.17 1.938 5.147 1.916 1.192-.023 2.314-.434 3.461-.836.435-.153.808-.231 1.243-.261 0-.368-.033-2.005-.038-2.456-.194-.024-.406-.082-.613-.137-.493-.123-2.137-1.204-1.59-2.068.045-.076.108-.146.187-.216.045-.552-.111-.944-.493-1.222-.074-.05-.187-.1-.307-.162-.758.576-1.209-1.49-1.176-2.137.021-.405.231-1.209.538-1.714.058-.095.133-.187.224-.269.046-.047.099-.092.149-.129.36-.294.816-.545.994-.615.526-.212 1.52-.508 2.344-.508.004 0 .008 0 .017 0 0 0 .033 0 .041 0 .82 0 1.827.296 2.352.508.252.096 1.064.424 1.371.945.153.248.281.589.376.908.013.041.025.095.038.141.074.273.12.533.128.712s.003.47-.055.78c-.017.084-.043.177-.043.264 0 .004 0 .004 0 .008 0 .087-.065.174-.095.262-.012.033-.03.062-.038.09-.021.059-.047.117-.068.166-.003 0-.006 0-.002.004-.021.055-.047.104-.072.154-.049.104-.104.198-.158.272-.024.037-.054.071-.088.1-.017.021-.033.037-.049.046-.021.016-.042.033-.058.045-.038.021-.075.038-.112.046-.004.005-.013.009-.021.005-.099.023-.203-.005-.319-.092-.087.05-.174.092-.24.128-.025.017-.046.028-.063.042-.021.012-.041.029-.062.045-.017.017-.038.033-.054.05-.298.27-.422.638-.376 1.127.042.032-.082.069-.053.107.033.032-.074.07-.074.103v.006c0 .028.194.057.206.086.381.849-1.085 1.863-1.561 1.982-.207.055-.379.112-.578.137-.005.451-.019 2.088-.014 2.456.435.029.817.107 1.252.261 1.147.402 2.274.813 3.467.836.977.021 3.559-.174 5.149-1.916.302-.328.581-.68.842-1.048 1.117-1.582 1.852-3.371 2.108-3.946.625-1.391 1.081-2.898 1.734-4.269.178-.373.394-.721.613-1.044-.269.22-.538.451-.794.717-.799.824-1.416 1.904-2.174 2.791-.224.265-.605.012-.518-.394.477-2.235 1.922-3.802 3.445-4.886.87-.621 1.781-1.135 2.634-1.813.849-.675 1.635-1.47 2.36-2.356 1.561-1.913 2.75-4.376 3.354-7.055.215-.957.373-2.017.418-3.089l-.008-.013c.004 0 .008-.004.013-.004.066-1.673-.137-3.37-.812-4.724-.116-.224.107-.48.273-.356.977.725 1.226 2.414 1.238 4.037.053-.124.107-.257.153-.389.232-.626.406-1.292.551-1.967.145-.679.253-1.367.323-2.058.033-.348.058-.696.066-1.039.004-.273 0-.55-.029-.808-.008-.07-.021-.141-.033-.203l.037-.013-.017-.029c.166-.149.332-.339.481-.526.153-.195.293-.397.417-.604.257-.418.468-.87.634-1.337.162-.468.277-.948.377-1.433.1-.476.186-.985.236-1.482.062-.501.095-.998.108-1.495.008-.5 0-.998-.054-1.495-.104-.99-.319-1.979-.803-2.903.41.311.721.754.973 1.226.042.083.083.162.12.241.083-.613.158-1.23.203-1.847.058-.815.042-1.627-.037-2.435-.079-.803-.22-1.606-.385-2.405-.083-.402-.17-.799-.261-1.197l-.137-.596c-.046-.199-.091-.418-.125-.625-.079-.497-.12-.998-.129-1.499-.008-.476.013-.957.054-1.429.066-.712.183-1.416.327-2.103.166-.807.381-1.603.654-2.373 0-.009.004-.021.008-.033.146-.406.307-.803.484-1.201 0 0 0-.004.005-.009.107-.228.219-.455.339-.683-.062.013-.137.013-.208.022zm-39.512 27.025c1.181-.249 1.765 1.164 2.253 2.327.538 1.28 1.279 2.848 1.076 4.368-.037.273-.314.393-.489.257-.911-.733-1.229-2.261-1.714-3.424-.431-1.022-1.197-2.021-1.32-3.205-.013-.133.091-.303.194-.323zm6.198 20.45c-.025.111-.157.095-.191 0-.31-.869-.427-1.818-.708-2.704-.273-.874-.551-1.759-.923-2.592-.298-.671-.526-1.403-.886-2.041-.22-.377-.48-.721-.729-1.072-.273.285-.642.505-.965.629-1.192.455-2.443.427-3.606-.091-1.466-.646-3.652-2.952-2.75-4.794-.431.053-.857.049-1.292-.054-.219-.049-.165-.397.05-.401 1.275-.012 2.373-.414 3.606-.704 1.031-.241 2.013-.286 3.002.153.824.368 1.453 1.134 1.831 1.979.281.633.575 1.412.476 2.128.013.054.029.104.033.157 1.292.658 1.797 2.332 2.107 3.718.236 1.018.526 2.024.742 3.051.179.862.415 1.759.203 2.638zm12.247-18.124c.489-1.163 1.073-2.575 2.253-2.327.104.021.203.19.19.323-.12 1.184-.886 2.182-1.316 3.205-.484 1.164-.803 2.691-1.718 3.424-.17.136-.447.017-.485-.257-.202-1.519.543-3.088 1.076-4.368zm8.104 5.404c-.435.104-.861.107-1.292.054.898 1.842-1.283 4.148-2.75 4.794-1.164.518-2.414.546-3.606.091-.323-.124-.691-.344-.969-.629-.244.351-.505.695-.724 1.072-.361.637-.588 1.37-.886 2.041-.373.833-.65 1.719-.924 2.592-.281.886-.397 1.835-.708 2.704-.033.095-.166.111-.191 0-.215-.879.025-1.776.203-2.638.216-1.027.505-2.033.737-3.051.314-1.387.815-3.06 2.107-3.718.008-.054.021-.103.038-.157-.1-.716.19-1.495.476-2.128.377-.844 1.006-1.611 1.826-1.979.993-.439 1.975-.394 3.005-.153 1.234.29 2.327.691 3.607.704.216.003.27.351.051.401zm11.531-20.4c.017.075.009.149-.021.21l-.004.013c-.307.7-.601 1.403-.857 2.124-.008.029-.021.058-.029.087-.245.691-.464 1.387-.638 2.1-.182.74-.323 1.49-.389 2.252-.063.679-.063 1.362.008 2.041 0 .021.004.042.004.058.05.013.1.025.145.045.29.12.514.352.601.675l-.108.116c-.27-.037-.485-.087-.667-.107-.174-.025-.332-.029-.493.045-.157.074-.31.215-.446.389-.141.174-.257.381-.369.601-.219.435-.389.924-.546 1.416-.157.493-.29 1.002-.439 1.512l-.153-.029c.012-.538.066-1.072.162-1.606.091-.535.223-1.064.434-1.586.108-.252.237-.509.407-.75.169-.239.389-.463.678-.608.137-.07.294-.112.447-.128-.149-.696-.194-1.412-.174-2.12.025-.804.137-1.599.311-2.377.174-.774.402-1.536.667-2.277.261-.7.542-1.391.861-2.062-.128-.617-.224-1.238-.286-1.863-.074-.667-.112-1.337-.12-2.004-.017-.667.004-1.333.042-1.999.045-.663.107-1.326.215-1.98-.004.431 0 .857.008 1.284.004.236.013.468.021.7.024.663.07 1.317.12 1.971.033.327.066.654.107.977.033.327.079.65.128.973.099.64.22 1.281.373 1.907z" fill="#fff"/><path id="path37" d="m60.58 47.361c-1.102.05-2 .729-2.567 1.698-.27.459-.443.964-.498 1.502-.029.282-.004.56-.004.833.009.021.021.045.03.066.062.075.107.174.116.273.045.104.104.199.182.29.302.323.807.438 1.205.538.932.245 1.867.071 2.725-.348.381-.186.75-.417 1.093-.691.053-.521.298-1.019.406-1.532.153-.712.124-1.358.116-2.062-.929-.269-1.857-.608-2.804-.567z" fill="#fff"/><path id="path39" d="m47.628 71.886c-.091.496.306.736.65.931.261.149.534.331.812.419.177.053.344.303.53.311.021 0 .037.225.037.225s.008 0 .017 0h .041c0 0 .021-.225.045-.225.187-.008.356-.157.535-.211.277-.088.555-.32.816-.469.343-.195.745-.459.649-.956-.107.017-.219-.05-.265-.187-.261-.732.042-1.464.542-1.845.12-.095.746-.554 1.056-.513.335-.33.351-1.02.286-1.5-.042-.269-.199-.775-.435-1.156-.145-.236-.364-.402-.484-.464-.588-.299-1.619-.496-2.252-.55-.166-.013-.369.074-.493.074-.008 0-.041 0-.041 0-.008 0-.012 0-.017 0-.129 0-.306-.088-.476-.075-.633.055-1.66.276-2.253.578-.116.058-.335.216-.479.451-.241.373-.398.878-.436 1.147-.066.48-.049 1.164.286 1.491.311-.038.936.417 1.056.511.497.382.803 1.105.542 1.838-.045.138-.161.19-.269.175z" fill="#fff"/><path id="path41" d="m52.1 78.029c-.083-.024-.161-.054-.24-.082-.555-.194-1.089-.247-1.661-.337-.165-.029-.36.16-.484.16-.008 0-.041 0-.041 0-.008 0-.012 0-.017 0-.129 0-.298-.189-.464-.16-.654.103-1.259.297-1.896.503-1.118.36-2.252.538-3.403.401-.517-.066-1.027-.201-1.52-.367-.066-.017-.132-.053-.195-.073.042.046.083-.147.125-.106.003.004.006-.197.009-.197h.569v.462c0 .033-.202.065-.174.1.021.017-.096.033-.08.054.049.05.032.104.078.157.071.079.106.161.177.239.215.245.406.493.625.721.642.663 1.285 1.309 2.038 1.739 1.267.726 2.824 1.205 4.115 1.073.005 0 .007.004.015.004 0 0 .033-.004.041-.004 1.287.132 2.865-.348 4.124-1.073.758-.431 1.411-1.076 2.053-1.739.443-.459.857-1.002 1.325-1.436-.555.193-1.13.33-1.718.404-1.153.141-2.292-.082-3.401-.443z" fill="#fff"/><path id="path43" d="m41.375 49.059c-.563-.969-1.461-1.648-2.563-1.698-.948-.041-1.876.298-2.803.567-.017.704-.037 1.35.116 2.062.107.514.352 1.011.406 1.532.34.274.708.505 1.093.691.857.418 1.792.592 2.724.348.394-.099.899-.215 1.201-.538.083-.091.141-.187.187-.29.008-.1.054-.198.116-.273.009-.021.017-.045.029-.066-.004-.273.025-.551-.004-.833-.054-.538-.228-1.043-.502-1.502z" fill="#fff"/><path id="path47" d="m73.618 39.821c.157-.492.327-.981.546-1.416.112-.219.228-.426.369-.601.137-.173.29-.314.446-.389.162-.074.319-.071.493-.045.182.02.397.07.667.107l.108-.116c-.087-.323-.311-.555-.601-.675-.045-.02-.095-.033-.145-.045 0-.017-.004-.037-.004-.058-.071-.679-.071-1.362-.008-2.041.066-.762.207-1.512.389-2.252.174-.713.393-1.408.638-2.1.008-.029.021-.058.029-.087.257-.721.551-1.424.857-2.124l.004-.013c.029-.062.037-.136.021-.21-.153-.625-.273-1.267-.373-1.909-.049-.323-.095-.646-.128-.973-.042-.323-.074-.65-.107-.977-.05-.654-.096-1.309-.12-1.971-.008-.232-.017-.464-.021-.7-.008-.426-.012-.853-.008-1.284-.108.654-.17 1.317-.215 1.98-.038.666-.058 1.333-.042 1.999.008.667.046 1.337.12 2.004.062.625.158 1.246.286 1.863-.319.671-.6 1.362-.861 2.062-.265.742-.493 1.503-.667 2.277-.174.778-.286 1.573-.311 2.377-.02.708.025 1.424.174 2.12-.153.017-.311.059-.447.128-.29.145-.509.369-.678.608-.17.24-.299.497-.407.75-.211.522-.343 1.052-.434 1.586-.096.534-.15 1.068-.162 1.606l.153.029c.149-.508.281-1.017.439-1.51z" fill="#e64c3c"/><path id="path49" d="m57.201 47.377c.915-.733 1.233-2.261 1.718-3.424.431-1.022 1.197-2.021 1.316-3.205.013-.133-.086-.302-.19-.323-1.18-.249-1.764 1.164-2.253 2.327-.534 1.28-1.279 2.848-1.076 4.368.038.274.315.394.485.257z" fill="#e64c3c"/><path id="path51" d="m54.038 60.876c.31-.869.426-1.818.708-2.704.273-.874.551-1.759.924-2.592.298-.671.525-1.403.886-2.041.219-.377.48-.721.724-1.072.277.285.646.505.969.629 1.192.455 2.443.427 3.606-.091 1.466-.646 3.647-2.952 2.75-4.794.431.053.857.049 1.292-.054.22-.049.166-.397-.049-.401-1.28-.012-2.373-.414-3.607-.704-1.031-.241-2.012-.286-3.005.153-.82.368-1.449 1.134-1.826 1.979-.286.633-.576 1.412-.476 2.128-.017.054-.029.104-.038.157-1.292.658-1.792 2.332-2.107 3.718-.232 1.018-.521 2.024-.737 3.051-.178.862-.418 1.759-.203 2.638.023.111.155.095.189 0zm3.477-10.315c.055-.538.228-1.043.498-1.502.567-.969 1.465-1.648 2.567-1.698.948-.041 1.875.298 2.803.567.008.704.038 1.35-.116 2.062-.107.514-.353 1.011-.406 1.532-.344.274-.712.505-1.093.691-.857.418-1.793.592-2.725.348-.397-.099-.902-.215-1.205-.538-.079-.091-.137-.187-.182-.29-.009-.1-.054-.198-.116-.273-.009-.021-.021-.045-.03-.066.001-.273-.024-.551.005-.833z" fill="#e64c3c"/><path id="path53" d="m42.187 47.377c.174.136.452.017.489-.257.203-1.52-.539-3.088-1.076-4.368-.488-1.163-1.072-2.575-2.253-2.327-.103.021-.207.19-.194.323.124 1.184.89 2.182 1.32 3.205.485 1.164.803 2.692 1.714 3.424z" fill="#e64c3c"/><path id="path55" d="m33.496 48.156c.435.104.861.107 1.292.054-.903 1.842 1.284 4.148 2.75 4.794 1.163.518 2.414.546 3.606.091.323-.124.692-.344.965-.629.249.351.509.695.729 1.072.36.637.587 1.37.886 2.041.373.833.65 1.719.923 2.592.281.886.398 1.835.708 2.704.034.095.166.111.191 0 .211-.879-.025-1.776-.203-2.638-.216-1.027-.505-2.033-.742-3.051-.31-1.387-.815-3.06-2.107-3.718-.004-.054-.021-.103-.033-.157.1-.716-.195-1.495-.476-2.128-.377-.844-1.007-1.611-1.831-1.979-.989-.439-1.971-.394-3.002-.153-1.233.29-2.331.691-3.606.704-.215.003-.269.351-.05.401zm2.514-.228c.927-.269 1.855-.608 2.803-.567 1.102.05 2 .729 2.563 1.698.273.459.447.964.501 1.502.029.282 0 .56.004.833-.012.021-.02.045-.029.066-.062.075-.107.174-.116.273-.045.104-.104.199-.187.29-.302.323-.807.438-1.201.538-.932.245-1.867.071-2.724-.348-.385-.186-.753-.417-1.093-.691-.054-.521-.298-1.019-.406-1.532-.152-.712-.132-1.358-.115-2.062z" fill="#e64c3c"/><path id="path57" d="m21.982 27.971l.008.008c.306.7.6 1.403.853 2.124.012.029.024.058.029.087.248.691.468 1.387.642 2.1.183.74.318 1.49.385 2.252.063.679-.017 1.362-.017 2.041 0 .021 0 .042 0 .058 0 .013-.1.025-.141.045-.294.12-.516.352-.598.675l.109.116c.269-.037.483-.087.662-.107.178-.025.336-.029.493.045.162.074.311.215.447.389.141.174.261.381.369.601.219.435.393.924.547 1.416.157.493.293 1.002.443 1.512l.152-.029c-.012-.538-.066-1.072-.161-1.606-.096-.535-.223-1.064-.435-1.586-.111-.252-.236-.509-.406-.75-.17-.239-.389-.463-.679-.608-.14-.07-.293-.112-.446-.128.148-.696.194-1.412.173-2.12-.025-.804-.141-1.599-.311-2.377-.174-.774-.401-1.536-.667-2.277-.261-.7-.546-1.391-.861-2.062.128-.617.224-1.238.286-1.863.07-.667.112-1.337.121-2.004.017-.667-.005-1.333-.042-1.999-.046-.663-.108-1.326-.215-1.98.003.422 0 .845-.009 1.267-.004.24-.012.48-.02.716-.025.663-.071 1.317-.125 1.971-.029.327-.062.654-.104.977-.033.327-.079.65-.128.973-.1.642-.22 1.283-.373 1.909-.015.069-.01.144.019.214z" fill="#e64c3c"/><path id="path59" d="m77.66 19.827c.071-.662.294-1.325.447-1.979.332-1.424.851-2.815 1.311-4.207.029-.037.085-.079.114-.111.568-.712 1.174-1.396 1.787-2.063 1.225-1.321 2.546-2.559 3.937-3.681 2.782-2.244 5.898-4.037 9.253-5.097-3.383.939-6.57 2.629-9.447 4.794-1.437 1.085-2.802 2.286-4.085 3.586-.355.364-.708.733-1.051 1.114.401-.559.832-1.093 1.279-1.607 1.056-1.201 2.228-2.286 3.466-3.279 1.233-.994 2.538-1.893 3.883-2.712 1.35-.812 2.737-1.565 4.173-2.19-1.461.563-2.877 1.25-4.26 2.004-1.383.762-2.733 1.611-4.02 2.555-.916.675-1.802 1.395-2.642 2.186.452-.51.928-1.001 1.412-1.474 1.056-1.026 2.178-1.971 3.346-2.853 1.172-.877 2.381-1.698 3.644-2.418-1.304.629-2.563 1.371-3.789 2.17-1.226.807-2.418 1.685-3.548 2.65-.675.58-1.333 1.188-1.958 1.838.211-.277.431-.547.654-.812.874-1.048 1.813-2.033 2.803-2.96.994-.923 2.024-1.801 3.113-2.592-1.122.733-2.198 1.557-3.233 2.431-1.039.877-2.029 1.817-2.965 2.832-.708.766-1.375 1.577-1.996 2.435.389-.68.812-1.333 1.259-1.971.712-1.006 1.486-1.962 2.311-2.87.824-.907 1.689-1.772 2.608-2.566-.964.725-1.883 1.532-2.77 2.385-.882.853-1.723 1.76-2.505 2.732-.787.969-1.507 2-2.136 3.114-.315.559-.604 1.134-.854 1.734-1.738.021-3.481.273-5.171.816-1.205.38-2.369.923-3.47 1.606-1.097.68-2.111 1.524-3.018 2.481-.567.596-1.082 1.922-1.553 1.922h-28.588c-.472 0-.986-1.326-1.548-1.922-.911-.957-1.921-1.804-3.019-2.483-1.097-.682-2.265-1.225-3.47-1.605-1.693-.543-3.432-.794-5.171-.815-.252-.6-.542-1.176-.853-1.734-.629-1.114-1.354-2.145-2.137-3.114-.782-.973-1.623-1.88-2.505-2.733-.886-.853-1.805-1.66-2.77-2.384.919.794 1.784 1.66 2.608 2.566.824.907 1.598 1.864 2.306 2.87.448.633.87 1.287 1.255 1.962-.617-.857-1.288-1.665-1.987-2.426-.932-1.015-1.93-1.955-2.965-2.832-1.035-.874-2.111-1.698-3.233-2.431 1.089.791 2.12 1.668 3.114 2.592.985.928 1.929 1.913 2.803 2.96.223.265.438.534.654.812-.629-.65-1.283-1.259-1.958-1.838-1.134-.965-2.322-1.843-3.548-2.65-1.226-.799-2.484-1.541-3.792-2.17 1.267.72 2.476 1.541 3.647 2.418 1.168.882 2.29 1.827 3.346 2.853.484.473.96.964 1.412 1.474-.841-.791-1.727-1.511-2.642-2.186-1.292-.944-2.638-1.793-4.02-2.555-1.385-.753-2.8-1.441-4.262-2.004 1.437.625 2.824 1.379 4.174 2.19 1.341.819 2.646 1.718 3.884 2.712 1.238.993 2.405 2.078 3.461 3.279.452.514.878 1.048 1.284 1.607-.343-.381-.696-.75-1.051-1.114-1.284-1.3-2.65-2.501-4.087-3.586-2.877-2.166-6.07-3.855-9.448-4.794 3.349 1.06 6.467 2.853 9.25 5.097 1.391 1.122 2.704 2.36 3.929 3.681.612.667 1.205 1.35 1.772 2.063.024.033.058.074.082.107.464 1.396.924 2.787 1.259 4.211.149.654.221 1.312.292 1.975-5.346.467-9.584 4.96-9.584 10.43v46.125c0 5.783 4.779 10.393 10.563 10.393h54.406c5.784 0 10.03-4.609 10.03-10.393v-46.126c0-5.436-3.922-9.908-9.222-10.425zm-55.848-2.145c-.166-.807-.381-1.603-.654-2.369 0-.013-.008-.024-.008-.037-.15-.414-.315-.828-.497-1.23-.108-.224-.22-.443-.336-.663.07.008.146.008.215.017.017 0 .042-.339.059-.336.19.013.38-.294.567-.294.008 0 .021 0 .029 0 .108 0 .22.36.328.368.099.014.202.191.298.204.054.004.104.094.149.102.166.017.323.079.488.104 1.586.211 3.139.588 4.629 1.152 2.249.853 4.318 2.201 5.991 4.006.319.34.622.697.915 1.065.477.605.916 1.249 1.313 1.924.654 1.069 1.192 2.229 1.652 3.422.228.617.476 1.247.753 1.851.282.608.592 1.202.948 1.768.356.563.758 1.106 1.234 1.574.195.187.401.361.621.514-.426.116-.852.245-1.275.389-.046-.024-.087-.05-.132-.079-.121-.079-.232-.166-.331-.265-.373-.361-.663-.812-.92-1.288-.513-.952-.948-1.983-1.436-2.977-.245-.501-.489-1.002-.75-1.495-.265-.488-.534-.977-.812-1.457-.282-.48-.567-.956-.87-1.416-.311-.468-.604-.924-.944-1.383-.169-.224-.348-.447-.53-.658-.128-.145-.257-.282-.389-.418-.062-.067-.128-.133-.19-.195-.39-.394-.808-.762-1.234-1.102-.426-.343-.882-.65-1.342-.936-.459-.285-.927-.554-1.411-.787-.481-.235-.969-.451-1.462-.646-.496-.186-.998-.356-1.503-.505-.803-.228-1.615-.418-2.434-.525-.17-.021-.34-.042-.505-.055-.038-.004-.07-.004-.104-.008-.012 0-.024 0-.037-.004.012.008.029.008.042.017.012 0 .029.008.041.012.124.033.245.071.368.112 1.839.58 3.615 1.337 5.284 2.29.447.265.89.53 1.321.828.427.29.841.608 1.242.936.219.182.435.369.642.567.174.153.344.318.509.488.183.187.361.381.531.58.174.194.339.397.497.604.319.411.625.866.927 1.317.298.451.601.902.886 1.362.29.46.576.923.845 1.396.278.472.555.944.82 1.424.264.48.53.965.803 1.445.273.476.546.965.861 1.429.314.459.662.915 1.118 1.242.12.087.244.161.377.223-.298.108-.592.224-.887.34-.583.244-1.164.513-1.718.832-.554.319-1.102.663-1.574 1.114 1.123-.579 2.311-.911 3.496-1.196 1.192-.282 2.393-.481 3.602-.63 2.414-.298 4.849-.397 7.288-.397 2.438 0 4.869.091 7.283.389 1.209.149 2.41.344 3.602.625.592.141 1.185.302 1.769.493.294.095.583.199.874.319.29.116.571.245.849.397-.468-.455-1.014-.803-1.565-1.126-.554-.319-1.134-.587-1.722-.836-.128-.049-.256-.099-.39-.153.038-.004.071-.017.108-.024.004 0 .009 0 .013-.004.257-.075.501-.203.729-.364.451-.327.794-.783 1.118-1.242.314-.464.588-.953.861-1.429.273-.48.538-.964.803-1.445.27-.48.543-.953.82-1.424.27-.472.55-.936.845-1.396.286-.459.588-.911.886-1.362.302-.452.608-.907.923-1.317.162-.207.327-.41.501-.604.17-.199.348-.393.53-.58.167-.17.336-.335.509-.488.208-.199.423-.385.642-.567.402-.328.816-.646 1.242-.936.431-.298.874-.563 1.321-.828 1.669-.953 3.445-1.71 5.283-2.29.124-.041.245-.079.368-.112.013-.004.029-.012.042-.012.013-.009.029-.009.042-.017-.013.004-.025.004-.038.004-.033.004-.07.004-.104.008-.17.013-.339.034-.505.055-.82.107-1.631.297-2.435.525-.506.149-1.006.319-1.503.505-.493.195-.981.411-1.462.646-.484.232-.956.501-1.412.787-.459.286-.915.593-1.341.936-.426.339-.845.708-1.233 1.102-.063.062-.128.128-.191.195-.132.136-.261.273-.389.418-.183.211-.361.435-.531.658-.339.459-.638.915-.943 1.383-.302.459-.592.936-.87 1.416-.282.48-.551.969-.812 1.457-.261.493-.509.994-.749 1.495-.493.994-.924 2.025-1.437 2.977-.257.476-.547.927-.919 1.288-.187.178-.402.327-.634.435-.074.037-.153.066-.235.095-.385-.145-.775-.277-1.168-.397.045-.021.091-.046.132-.075.145-.087.282-.182.41-.286.128-.104.257-.215.376-.332.476-.468.874-1.01 1.233-1.573.356-.567.667-1.159.949-1.767.277-.605.526-1.235.753-1.852.46-1.192.998-2.352 1.652-3.42.397-.675.836-1.317 1.313-1.921.294-.369.596-.721.915-1.061 1.673-1.805 3.743-3.142 5.992-3.996 1.486-.563 3.039-.919 4.628-1.13.162-.025.323-.045.489-.062.045-.008.095-.013.145-.017.099-.012.203-.36.302-.374.107-.008.215-.368.327-.368.008 0 .017 0 .029 0 .186 0 .377.307.563.294.021-.003.042.166.062.166.07-.008.146.077.211.069-.12.228-.232.497-.339.725-.005.005-.005.029-.005.029-.177.397-.339.806-.484 1.212-.004.013-.008.03-.008.039-.273.771-.488 1.568-.654 2.375-.145.687-.261 1.392-.327 2.104-.042.472-.062.953-.054 1.43.009.5.05 1.002.129 1.5.033.206.079.426.125.625l.137.596c.091.397.178.795.261 1.197.165.799.306 1.602.385 2.405.079.808.095 1.619.037 2.435-.045.617-.12 1.234-.203 1.847-.037-.079-.078-.157-.12-.241-.252-.472-.563-.915-.973-1.226.484.924.7 1.913.803 2.903.054.497.062.994.054 1.495-.013.497-.046.994-.108 1.495-.05.497-.136 1.006-.236 1.482-.1.485-.215.964-.377 1.433-.166.468-.376.919-.634 1.337-.124.207-.265.41-.417.604-.149.187-.315.376-.481.526l.017.029-.037.013c.012.062.025.132.033.203.029.257.033.534.029.808-.008.343-.033.691-.066 1.039-.07.691-.178 1.379-.323 2.058-.145.675-.318 1.341-.551 1.967-.045.132-.1.265-.153.389-.012-1.623-.261-3.312-1.238-4.037-.166-.125-.389.132-.273.356.675 1.354.877 3.051.812 4.724-.004 0-.008.004-.013.004l.008.013c-.045 1.072-.203 2.132-.418 3.089-.604 2.679-1.792 5.142-3.354 7.055-.725.887-1.511 1.682-2.36 2.356-.853.679-1.764 1.192-2.634 1.813-1.523 1.084-2.968 2.65-3.445 4.886-.087.405.294.658.518.394.758-.887 1.375-1.967 2.174-2.791.256-.266.526-.497.794-.717-.219.323-.435.671-.613 1.044-.654 1.37-1.109 2.878-1.734 4.269-.257.575-.99 2.364-2.108 3.946-.261.368-.538.72-.84 1.048-1.59 1.742-4.17 1.938-5.146 1.916-1.192-.023-2.315-.434-3.462-.836-.434-.153-.808-.231-1.242-.261-.004-.368.029-2.005.033-2.456.199-.024.41-.082.617-.137.477-.119 1.865-1.134 1.483-1.982-.012-.029-.206-.058-.206-.086v-.006c0-.037.103-.07.074-.103-.029-.038.016-.075-.025-.107-.045-.489.117-.857.416-1.127.017-.017.056-.033.072-.05.017-.016.052-.033.072-.049.017-.013.042-.025.067-.038.067-.041.156-.083.243-.132.111.086.222.111.32.096.008.004.017 0 .021-.005.038-.008.075-.024.112-.046.017-.012.038-.029.059-.045.017-.013.033-.029.049-.046.034-.028.063-.063.087-.1.054-.074.108-.169.157-.272.025-.051.05-.1.07-.154-.004-.004-.004-.004 0-.004.021-.049.042-.107.063-.166.008-.028.036-.057.048-.09.029-.088.095-.175.095-.262 0-.004 0-.004 0-.008 0-.087.026-.178.043-.262.058-.311.072-.6.065-.777-.009-.178-.06-.436-.134-.709-.012-.045-.027-.091-.04-.132-.095-.319-.225-.642-.377-.891-.307-.521-1.119-.884-1.371-.979-.526-.212-1.533-.508-2.354-.508-.008 0-.041 0-.041 0-.008 0-.012 0-.017 0-.824 0-1.817.296-2.344.508-.178.07-.633.287-.994.581-.05.038-.103.101-.149.146-.091.084-.166.182-.224.277-.307.506-.518 1.313-.538 1.719-.033.646.417 2.715 1.176 2.139.12.063.232.113.307.162.381.278.538.672.493 1.223-.079.07-.141.141-.187.216-.547.864 1.097 1.946 1.59 2.07.207.054.418.111.613.136.004.451.038 2.088.038 2.456-.435.029-.808.107-1.243.261-1.146.402-2.269.813-3.461.836-.977.021-3.557-.174-5.147-1.916-.501-.543-.944-1.168-1.329-1.785-.845-1.367-1.403-2.721-1.619-3.209-.629-1.391-1.081-2.898-1.735-4.269-.182-.373-.394-.721-.617-1.044.273.22.542.451.799.717.799.824 1.417 1.904 2.17 2.791.228.265.604.012.517-.394-.476-2.235-1.921-3.802-3.44-4.886-.874-.621-1.781-1.135-2.634-1.813-.849-.675-1.635-1.47-2.36-2.356-1.565-1.913-2.753-4.376-3.354-7.055-.215-.957-.372-2.017-.417-3.089l.008-.013c-.008 0-.008-.004-.013-.004-.066-1.673.137-3.37.812-4.724.112-.224-.107-.48-.273-.356-.977.725-1.226 2.414-1.238 4.037-.054-.124-.107-.257-.153-.389-.232-.626-.41-1.292-.551-1.967-.145-.679-.253-1.367-.323-2.058-.038-.348-.059-.696-.066-1.039-.004-.344 0-.696.058-1.01l-.033-.013.017-.029c-.166-.149-.331-.339-.485-.526-.153-.195-.285-.397-.414-.604-.256-.418-.468-.87-.633-1.337-.162-.468-.282-.948-.377-1.433-.099-.476-.187-.985-.24-1.482-.058-.501-.096-.998-.104-1.495-.013-.5 0-.998.053-1.495.104-.99.319-1.979.804-2.903-.41.311-.725.754-.977 1.226-.038.083-.079.162-.116.241-.086-.613-.157-1.23-.203-1.847-.058-.815-.046-1.627.037-2.435.079-.803.22-1.606.385-2.405.083-.402.166-.799.261-1.197l.133-.596c.049-.199.095-.418.124-.625.079-.505.125-1.011.133-1.516.008-.472-.012-.944-.054-1.412-.065-.709-.181-1.413-.33-2.104zm27.902 64.633c-.008 0-.041.004-.041.004-.008 0-.012-.004-.017-.004-1.292.132-2.853-.348-4.12-1.073-.753-.431-1.403-1.076-2.045-1.739-.22-.228-.427-.476-.642-.721-.07-.078-.141-.16-.211-.239-.046-.054-.095-.107-.145-.157-.017-.021.235-.037.214-.054-.028-.034.174-.066.174-.1v-.462h-.541c-.012 0-.024.203-.037.191-.042-.041-.083.031-.125-.014.063.021.128.104.195.119.493.156 1.002.298 1.52.364 1.151.137 2.286-.081 3.403-.441.638-.212 1.243-.282 1.896-.39.166-.025.335.17.464.17.004 0 .008 0 .017 0 0 0 .033 0 .041 0 .125 0 .319-.188.484-.162.572.094 1.105.246 1.661.448.079.029.158.003.24.027 1.11.36 2.248.558 3.399.416.588-.074 1.163-.226 1.718-.419-.468.434-.882.97-1.325 1.43-.642.662-1.295 1.305-2.053 1.734-1.258.728-2.836 1.204-4.124 1.072zm-2.086-10.429c.108.016.224-.038.269-.175.261-.733-.045-1.457-.542-1.838-.12-.096-.745-.551-1.056-.514-.335-.327-.352-1.015-.286-1.495.038-.268.195-.782.436-1.154.145-.236.364-.41.479-.469.593-.302 1.62-.491 2.253-.546.17-.013.347.075.476.075.004 0 .008 0 .017 0 0 0 .033 0 .041 0 .125 0 .328-.088.493-.075.633.055 1.664.284 2.252.582.12.062.339.212.484.447.236.381.394.878.435 1.147.065.48.049 1.164-.286 1.494-.311-.041-.937.414-1.056.508-.501.382-.803 1.105-.542 1.838.046.137.157.19.265.174.095.496-.306.736-.649.932-.261.148-.539.33-.816.418-.178.054-.348.303-.535.311-.024 0-.045.225-.045.225h-.041c-.008 0-.017 0-.017 0s-.017-.225-.037-.225c-.186-.008-.353-.157-.53-.211-.278-.088-.551-.32-.812-.469-.344-.195-.741-.484-.65-.98z" fill="#e64c3c"/></svg>