<svg id="svg2" height="24" viewBox="0 0 48 24" width="48" xmlns="http://www.w3.org/2000/svg"><defs id="defs4"><linearGradient id="linear-gradient" gradientUnits="userSpaceOnUse" x1="1.19" x2="20.81" y1="1.19" y2="20.81"><stop id="stop3506" offset="0" stop-color="#f9ad29"/><stop id="stop3508" offset="1" stop-color="#f33432"/></linearGradient></defs><g id="layer1" transform="translate(0 -1028.3622)"><g id="g3995" transform="translate(24 1028.3622)"><path id="path3968" clip-rule="evenodd" d="m24 16c0-3.5-3-6.4-6-6.9v-3.1-1-.6c-1-1.3-2-2.1-3.3-3.4h-.6-1-11.1v23h16v-1.1c3-.5 6-3.4 6-6.9z" fill="#939393" fill-rule="evenodd"/><path id="path3970" d="m16 23h-16v-23h12.6c1.4 1.3 2.4 2.1 3.4 3.4z" fill="#e74c3c"/><path id="path3972" d="m15 22h-14v-21h11c1.2 1.2 2 1.8 3 3z" fill="#fff"/><path id="rect3974" d="m11 0h1v5h-1z" fill="#e74c3c"/><path id="rect3976" d="m11 4h5v1h-5z" fill="#e74c3c"/><circle id="circle3978" clip-rule="evenodd" cx="15" cy="15" fill="#e74c3c" fill-rule="evenodd" r="8"/><circle id="circle3980" clip-rule="evenodd" cx="15" cy="15" fill="#fff" fill-rule="evenodd" r="7"/><path id="path3984" d="m13.5 19.1c0-.9.6-1.5 1.5-1.5.9 0 1.4.6 1.4 1.5 0 .8-.6 1.5-1.4 1.5-.9 0-1.5-.7-1.5-1.5zm.6-2.3l-.4-7.4h2.6l-.4 7.4z" fill="#e74c3c"/><path id="rect3986" d="m1.9 2.3h7.9000001v4.6999998h-7.9000001z" fill="#e74c3c"/></g><g id="g4037" transform="translate(0 1028.3622)"><path id="path4010" clip-rule="evenodd" d="m24 16c0-3.5-3-6.4-6-6.9v-3.1-1-.6c-1-1.3-2-2.1-3.3-3.4h-.6-1-11.1v23h16v-1.1c3-.5 6-3.4 6-6.9z" fill="#939393" fill-rule="evenodd"/><path id="path4012" d="m16 23h-16v-23h12.6c1.4 1.3 2.4 2.1 3.4 3.4z" fill="#5a5a5a"/><path id="path4014" d="m15 22h-14v-21h11c1.2 1.2 2 1.8 3 3z" fill="#fff"/><path id="rect4016" d="m11 0h1v5h-1z" fill="#5a5a5a"/><path id="rect4018" d="m11 4h5v1h-5z" fill="#5a5a5a"/><circle id="ellipse4020" clip-rule="evenodd" cx="15" cy="15" fill="#5a5a5a" fill-rule="evenodd" r="8"/><circle id="ellipse4022" clip-rule="evenodd" cx="15" cy="15" fill="#fff" fill-rule="evenodd" r="7"/><path id="path4026" d="m13.5 19.1c0-.9.6-1.5 1.5-1.5.9 0 1.4.6 1.4 1.5 0 .8-.6 1.5-1.4 1.5-.9 0-1.5-.7-1.5-1.5zm.6-2.3l-.4-7.4h2.6l-.4 7.4z" fill="#5a5a5a"/><path id="rect4028" d="m1.9 2.3h7.9000001v4.6999998h-7.9000001z" fill="#5a5a5a"/></g></g></svg>