<?xml version="1.0" encoding="UTF-8" standalone="no"?>
<!-- Generator: Adobe Illustrator 17.1.0, SVG Export Plug-In . SVG Version: 6.00 Build 0)  -->

<svg
   xmlns:dc="http://purl.org/dc/elements/1.1/"
   xmlns:cc="http://creativecommons.org/ns#"
   xmlns:rdf="http://www.w3.org/1999/02/22-rdf-syntax-ns#"
   xmlns:svg="http://www.w3.org/2000/svg"
   xmlns="http://www.w3.org/2000/svg"
   xmlns:sodipodi="http://sodipodi.sourceforge.net/DTD/sodipodi-0.dtd"
   xmlns:inkscape="http://www.inkscape.org/namespaces/inkscape"
   version="1.1"
   id="Layer_6"
   x="0px"
   y="0px"
   viewBox="0 0 80.257618 80.429996"
   enable-background="new 0 0 100 100"
   xml:space="preserve"
   inkscape:version="0.48.5 r10040"
   width="100%"
   height="100%"
   sodipodi:docname="multilanguage_field.svg"><metadata
     id="metadata9"><rdf:RDF><cc:Work
         rdf:about=""><dc:format>image/svg+xml</dc:format><dc:type
           rdf:resource="http://purl.org/dc/dcmitype/StillImage" /><dc:title /></cc:Work></rdf:RDF></metadata><defs
     id="defs7" /><sodipodi:namedview
     pagecolor="#ffffff"
     bordercolor="#666666"
     borderopacity="1"
     objecttolerance="10"
     gridtolerance="10"
     guidetolerance="10"
     inkscape:pageopacity="0"
     inkscape:pageshadow="2"
     inkscape:window-width="1916"
     inkscape:window-height="1025"
     id="namedview5"
     showgrid="false"
     inkscape:zoom="2.36"
     inkscape:cx="40.1508"
     inkscape:cy="40.229996"
     inkscape:window-x="1920"
     inkscape:window-y="26"
     inkscape:window-maximized="0"
     inkscape:current-layer="Layer_6"
     fit-margin-top="0"
     fit-margin-left="0"
     fit-margin-right="0"
     fit-margin-bottom="0" /><path
     d="m 79.9508,35.2 c -0.7,-6.8 -3.2,-12.9 -7.2,-18.4 -6.5,-8.9 -15.1,-14.3 -26,-16.1 -2.2,-0.4 -4.4,-0.5 -6.5,-0.7 -0.1,0 -0.3,0 -0.4,0 -2,0.2 -4.1,0.4 -6.1,0.7 C 12.9508,3.8 -2.1491998,23.5 0.25080015,44.5 1.3508002,54.5 5.5508002,63 13.0508,69.8 c 8.8,8.1 19.3,11.6 31.2,10.4 9.1,-0.9 17.1,-4.6 23.7,-11 9.5,-9.3 13.5,-20.7 12,-34 z m -8.4,20.6 c -1,-1.8 -2.3,-4.2 -2.9,-6.4 -0.8,-3.1 -2.8,-0.1 -3,1.9 -0.2,2 -1.5,3.5 -4.2,0.5 -2.7,-3 -3.2,-2.3 -4,-2.3 -0.8,0 -2.3,2 -2,11.3 0.2,6.7 2.9,7.7 4.6,8.2 -3.2,2.2 -6.9,3.9 -11,5 -15.7,4 -31.8,-3.3 -39.2999998,-17.7 -7,-13.4 -3.6,-28.6 3.4999998,-36.9 0.2,1.5 0.4,2.9 0.5,4.2 0.4,3.7 0.1,7.3 -0.7,11 -0.2,0.8 -0.1,1.7 0.1,2.4 0.1,0.4 0.7,0.9 1.2,0.9 0.3,0 0.9,-0.5 1.1,-0.9 0.3,-0.7 0.3,-1.5 0.3,-2.3 0.1,-0.6 0.1,-1.1 0.1,-2 0.6,0.5 1,0.7 1.3,1.1 0.9,0.9 1.8,1.8 2.5,2.7 0.4,0.4 0.7,1 0.7,1.5 0,1.1 0.5,1.8 1,2.7 0.6,0.9 0.9,2.1 1.3,3.2 0.2,0.5 0.2,1 0.4,1.4 0.4,0.9 1.1,1.6 2.2,1.7 1.2,0.1 1.7,0.5 1.8,1.8 -0.3,0 -0.6,0.1 -0.9,0.1 -1.5,0.1 -2.2,0.8 -2.1,2.3 0.1,2.9 1.2,5.5 3.4,7.5 0.6,0.6 1.2,1.1 1.8,1.7 1.3,1.3 1.8,2.9 1.2,4.7 -0.3,0.9 -0.7,1.7 -0.9,2.6 -0.1,0.9 -0.1,1.9 0.1,2.8 0.2,0.9 0.1,3 1.1,2.8 1.7,-0.3 2.7,0 2.8,-1.9 0,-0.4 0,-0.4 -0.1,-0.7 -0.5,-1.8 1.8,-6.8 3.2,-7.8 1.2,-0.8 2.3,-1.6 3.4,-2.5 1.5,-1.3 2.2,-3.1 1.6,-5.1 -0.6,-1.9 0.1,-3.3 1.4,-4.5 1.3,-1.2 2.2,-2.7 2.1,-4.6 -0.1,-1.9 -1.3,-3.3 -3,-3.1 -0.8,0.1 -1.6,0.5 -2.3,0.7 -1.1,0.4 -2.2,0.9 -3.4,1.1 -1.6,0.3 -2.6,-0.8 -3.4,-2.1 -0.6,-1 -0.8,-1.1 -1.8,-0.5 -0.9,0.5 -1.7,1.1 -2.6,1.6 -0.9,0.5 -1.4,0.3 -2.1,-0.4 -0.4,-0.5 -1,-0.8 -1.5,-1.1 -0.4,-0.2 -0.9,-0.3 -1.2,-0.6 -0.4,-0.4 -1,-1 -0.9,-1.4 0.1,-0.5 0.7,-1.2 1.2,-1.4 0.9,-0.4 1.9,-0.4 2.9,-0.6 0.5,-0.1 1,-0.2 1.5,-0.4 0.7,-0.3 0.6,-0.7 0.1,-1.1 -0.3,-0.2 -0.6,-0.3 -0.9,-0.5 -1.5,-0.6 -2.9,-1.2 -4.4,-1.7 -0.4,-0.1 -0.7,-0.3 -1,-0.5 -0.9,-0.6 -1,-1.3 -0.2,-2 3.3,-2.9 7.1,-3.8 10.6,0.1 1.1,1.2 1.8,2.7 2.8,3.9 0.8,1 1.7,1.9 2.7,2.7 0.4,0.3 1.3,0.4 1.8,0.1 0.7,-0.4 0.7,-1.2 0.4,-1.9 -0.3,-0.6 -0.6,-1.2 -1.1,-1.8 -1.9,-2.5 -1.8,-7.4 2,-9.4 1.3,-0.7 2.6,-1.4 3.2,-3.2 -0.7,0.2 -1.3,0.3 -1.8,0.5 -2.9,0.9 -0.9,-1.3 0.5,-1.6 0.8,-0.2 -0.7,-0.8 -0.7,-0.8 0,-0.1 1,-0.3 2.1,-0.8 0.7,-0.3 1.5,-0.7 2.1,-1.2 0.4,-0.3 0.6,-1 0.8,-1.5 -0.1,-0.1 -0.1,-0.2 -0.2,-0.2 -0.8,0.1 -1.5,0.2 -2.3,0.3 -1.3,0.1 -1.6,-0.1 -1.7,-1.4 -0.1,-0.9 -1,-1.4 -1.8,-0.9 -0.6,0.3 -1.1,0.8 -1.6,1.1 -1.3,0.8 -2.2,0.5 -2.7,-0.9 -0.3,-0.8 -0.7,-1 -1.5,-0.5 -0.4,0.2 -0.7,0.6 -1.1,0.8 -0.7,0.4 -1.3,0.7 -2,1 -0.7,0.2 -1.5,0.4 -2,-0.3 -0.5,-0.8 -0.1,-1.6 0.6,-2.1 0.8,-0.6 1.7,-1.1 2.6,-1.6 1.3,-0.7 2.6,-1.3 3.8,-2.1 0.9,-0.6 1.3,-1.5 1,-2.6 -0.2,-0.9 -0.9,-1.2 -1.7,-0.8 -0.7,0.4 -1.3,0.9 -2,1.2 -0.5,0.2 -1.2,0.2 -1.8,0.1 -0.2,0 -0.4,-0.6 -0.4,-1 0,-0.2 0.4,-0.5 0.6,-0.6 1.8,-0.3 3.5,-0.5 5.3,-0.7 0.2,0 0.6,0.1 0.7,0.3 1.2,1.5 2.8,2.2 4.5,2.7 1.4,0.4 1.6,0.2 1.8,-1.3 1.8,-0.4 3.7,-1.3 5.6,-0.1 1,0.6 2,1.5 2.8,2.3 0.2,0.2 0.1,0.9 0,1.3 -0.1,0.6 -0.5,1.1 -0.6,1.7 -0.3,1.1 0.4,2 1.6,1.9 0.4,0 0.7,-0.1 1.1,-0.1 1.1,0 1.4,0.4 1.3,1.4 -0.1,1.5 0.1,1.7 1.6,1.4 0.4,-0.1 0.9,0.1 1.4,0.3 0.3,0.1 0.5,0.3 0.7,0.5 1.4,1.1 2.5,0.7 2.9,-1.1 0,-0.2 0,-0.4 0.1,-0.6 0.2,-0.8 0.6,-1 1.1,-0.4 1.1,1.2 2.2,2.4 3.3,3.7 -1.2,1.1 -1.3,2.5 -1,3.8 0.3,1.5 -0.1,2.8 -0.7,4.1 -0.6,1.3 -1.2,2.5 -1.6,3.8 -0.6,2 0.1,2.9 2.1,3.3 1.9,0.4 2.2,0.8 2.3,2.7 0.1,2.6 1.4,4.3 3.6,5.4 0.5,0.2 1,0.4 1.5,0.6 -0.2,4.1 -1.3,8.2 -3.2,12.1 z"
     id="path3"
     style="fill:#cccccc"
     inkscape:connector-curvature="0" /></svg>