<svg xmlns="http://www.w3.org/2000/svg" viewBox="0 0 48 24" enable-background="new 0 0 48 24" xmlns:xlink="http://www.w3.org/1999/xlink"><g fill="#939393"><circle cx="16.3" cy="8.7" r="7.7"/><ellipse cx="16.3" cy="15.4" rx="4.8" ry="3.8"/><path d="m18.7 24h-4.2c-.4-.4-.5-.6-1.5-1v-9h7v9c-1 .4-.9.6-1.3 1"/><path d="m16.3 18.3c-2.1 0-3.8-1.3-3.8-2.9 0-.1 0-.3.1-.5l.1-.6-.5-.3c-1.6-1.3-2.6-3.2-2.6-5.3 0-3.7 3-6.7 6.7-6.7s6.7 3 6.7 6.7c0 2.1-.9 4-2.6 5.3l-.4.3.1.6c0 .2.1.3.1.5 0 1.6-1.8 2.9-3.9 2.9"/><path d="m15 19h4v1h-4z"/><path d="m15 21h4v1h-4z"/><path d="m12.7 6.2l-3.4 1.5.4 3.7-3-2.2-3 2.2.4-3.7-3.4-1.5 3.4-1.5-.4-3.7 3 2.2 3-2.2-.4 3.7z"/><path d="m6.7 8l-1.8 1.3.2-2.2-2-.9 2-.9-.2-2.2 1.8 1.3 1.7-1.3-.2 2.2 2 .9-2 .9.2 2.2z"/></g><g fill="#5a5a5a"><circle cx="15.7" cy="7.7" r="7.7"/><ellipse cx="15.7" cy="14.4" rx="4.8" ry="3.8"/><path d="m18 23h-4.2c-.4-.4-.8-.6-.8-1v-9h6v9c0 .4-.6.6-1 1"/></g><path fill="#fff" d="m15.7 17.3c-2.1 0-3.8-1.3-3.8-2.9 0-.1 0-.3.1-.5l.1-.6-.6-.3c-1.6-1.3-2.5-3.3-2.5-5.3 0-3.7 3-6.7 6.7-6.7s6.7 3 6.7 6.7c0 2.1-.9 4-2.6 5.3l-.5.4.1.6c0 .2.1.3.1.5 0 1.5-1.7 2.8-3.8 2.8"/><path fill="#fff" d="m14 18h4v1h-4z" id="0"/><path fill="#fff" d="m14 20h4v1h-4z" id="1"/><use xlink:href="#0"/><use xlink:href="#1"/><g fill="#5a5a5a"><path d="m15.7 3.2c3.4.9 4.4 5.3 2.1 7.8-.8.9 1.1.9 1.6.4 2.8-3.2 1.7-8.2-2.5-9.3-.7-.2-2.3.8-1.2 1.1"/><path d="M12 5.2 8.6 6.7 9 10.4 6 8.2 3 10.4 3.4 6.7 0 5.2 3.4 3.7 3 0 6 2.2 9 0 8.6 3.7z"/></g><path fill="#fff" d="m6 7l-1.8 1.3.3-2.2-2-.9 2-.9-.3-2.2 1.8 1.3 1.8-1.3-.3 2.2 2.1.9-2.1.9.3 2.2z"/><g fill="#939393"><circle cx="40.3" cy="8.7" r="7.7"/><ellipse cx="40.3" cy="15.4" rx="4.8" ry="3.8"/><path d="m42.7 24h-4.2c-.4-.4-.5-.6-1.5-1v-9h7v9c-1 .4-.9.6-1.3 1"/><path d="m40.3 18.3c-2.1 0-3.8-1.3-3.8-2.9 0-.1 0-.3.1-.5l.1-.6-.5-.3c-1.6-1.3-2.6-3.2-2.6-5.3 0-3.7 3-6.7 6.7-6.7s6.7 3 6.7 6.7c0 2.1-.9 4-2.6 5.3l-.4.3.1.6c0 .2.1.3.1.5 0 1.6-1.8 2.9-3.9 2.9"/><path d="m39 19h4v1h-4z"/><path d="m39 21h4v1h-4z"/><path d="m36.7 6.2l-3.4 1.5.4 3.7-3-2.2-3 2.2.4-3.7-3.4-1.5 3.4-1.5-.4-3.7 3 2.2 3-2.2-.4 3.7z"/><path d="m30.7 8l-1.8 1.3.2-2.2-2-.9 2-.9-.2-2.2 1.8 1.3 1.7-1.3-.2 2.2 2 .9-2 .9.2 2.2z"/></g><g fill="#5a5a5a"><circle cx="39.7" cy="7.7" r="7.7"/><ellipse cx="39.7" cy="14.4" rx="4.8" ry="3.8"/><path d="m42 23h-4.2c-.4-.4-.8-.6-.8-1v-9h6v9c0 .4-.6.6-1 1"/></g><path fill="#e74c3c" d="m39.7 17.3c-2.1 0-3.8-1.3-3.8-2.9 0-.1 0-.3.1-.5l.1-.6-.6-.3c-1.6-1.3-2.5-3.3-2.5-5.3 0-3.7 3-6.7 6.7-6.7s6.7 3 6.7 6.7c0 2.1-.9 4-2.6 5.3l-.5.4.1.6c0 .2.1.3.1.5 0 1.5-1.7 2.8-3.8 2.8"/><g fill="#fff"><path d="m39.7 3.2c3.4.9 4.4 5.2 2.1 7.8-.8.9 1.1 1 1.6.4 2.8-3.2 1.6-8.2-2.6-9.4-.7-.2-2.3.9-1.1 1.2"/><path d="m38 18h4v1h-4z"/><path d="m38 20h4v1h-4z"/></g><path fill="#5a5a5a" d="m36 5.2l-3.4 1.5.4 3.7-3-2.2-3 2.2.4-3.7-3.4-1.5 3.4-1.5-.4-3.7 3 2.2 3-2.2-.4 3.7z"/><path fill="#e74c3c" d="m30 7l-1.8 1.3.3-2.2-2-.9 2-.9-.3-2.2 1.8 1.3 1.8-1.3-.3 2.2 2.1.9-2.1.9.3 2.2z"/></svg>