<!-- Generated by IcoMoon.io -->
<svg version="1.1" xmlns="http://www.w3.org/2000/svg" width="32" height="32" viewBox="0 0 32 32">
<title>tips</title>
<path class="fill-active" d="M16.149 0.533h-0.149c-0.002 0-0.005 0-0.008 0-5.579 0-10.101 4.523-10.101 10.101 0 2.16 0.678 4.161 1.832 5.803l-0.021-0.032c1.26 1.772 2.309 3.814 3.045 6l0.048 0.166 0.117 0.373v3.456c0 2.804 2.273 5.077 5.077 5.077s5.077-2.273 5.077-5.077v0-3.467l0.053-0.181c0.819-2.441 1.903-4.56 3.253-6.479l-0.053 0.079c1.11-1.588 1.776-3.558 1.781-5.684v-0.001c-0.005-5.531-4.436-10.026-9.942-10.133l-0.010-0zM18.944 26.389c0 1.626-1.318 2.944-2.944 2.944s-2.944-1.318-2.944-2.944v0-2.56h5.888zM19.243 21.696h-6.443c-0.853-2.486-1.973-4.643-3.36-6.597l0.053 0.079c-0.914-1.274-1.462-2.864-1.462-4.583 0-0.031 0-0.063 0.001-0.094l-0 0.005c0.076-4.342 3.614-7.834 7.967-7.834 4.401 0 7.968 3.567 7.968 7.968 0 1.684-0.522 3.245-1.414 4.532l0.017-0.026c-1.338 1.886-2.477 4.050-3.311 6.36l-0.060 0.189z"></path>
<path class="fill-active" d="M15.040 4.48c-3.020 0.697-5.237 3.362-5.237 6.546 0 0.515 0.058 1.017 0.168 1.499l-0.009-0.045c0.111 0.48 0.535 0.832 1.041 0.832 0.009 0 0.018-0 0.027-0l-0.001 0h0.235c0.481-0.11 0.835-0.534 0.835-1.041 0-0.081-0.009-0.159-0.026-0.235l0.001 0.007c-0.070-0.299-0.11-0.643-0.11-0.996 0-2.173 1.515-3.992 3.546-4.46l0.031-0.006c0.494-0.112 0.858-0.547 0.858-1.067 0-0.603-0.489-1.092-1.092-1.092-0.083 0-0.164 0.009-0.242 0.027l0.007-0.001z"></path>
</svg>
