<!-- Generated by IcoMoon.io -->
<svg version="1.1" xmlns="http://www.w3.org/2000/svg" width="32" height="32" viewBox="0 0 32 32">
<title>edit-tips</title>
<path class="fill-active" d="M28.341 14.016c-0.201-0.31-0.47-0.559-0.789-0.73l-0.011-0.006-2.336-1.195c-0.272-0.141-0.593-0.224-0.934-0.224-0.005 0-0.011 0-0.016 0h-0.127l-5.995 11.605 0.149 3.893c0.012 0.279 0.241 0.501 0.522 0.501 0 0 0 0 0 0h-0c0.001 0 0.001 0 0.002 0 0.107 0 0.206-0.032 0.288-0.087l-0.002 0.001 3.2-2.133zM20.096 26.304c-0.321-0.238-0.692-0.434-1.092-0.568l-0.028-0.008-0.128-2.443c0.148-0.028 0.318-0.043 0.491-0.043 0.523 0 1.012 0.143 1.431 0.392l-0.013-0.007c0.615 0.274 1.101 0.743 1.39 1.328l0.007 0.016z"></path>
<path class="fill-active" d="M28.8 10.005l-1.653-0.832c-0.193-0.101-0.422-0.16-0.665-0.16-0.562 0-1.049 0.317-1.294 0.781l-0.004 0.008-0.704 1.376h0.128c0.005-0 0.010-0 0.015-0 0.341 0 0.662 0.083 0.945 0.229l-0.011-0.005 2.336 1.195c0.33 0.177 0.599 0.426 0.795 0.728l0.005 0.008 0.704-1.376c0.102-0.195 0.163-0.425 0.163-0.67 0-0.55-0.304-1.029-0.753-1.278l-0.007-0.004z"></path>
<path class="fill-active" d="M6.624 21.643l0.096 0.288v2.923c0 2.477 2.008 4.485 4.485 4.485s4.485-2.008 4.485-4.485v0-3.051c0.69-2.062 1.605-3.853 2.743-5.475l-0.045 0.067c0.963-1.388 1.539-3.107 1.539-4.962 0-4.78-3.825-8.666-8.58-8.766l-0.009-0h-0.139c-4.838 0.006-8.757 3.93-8.757 8.768 0 1.872 0.587 3.607 1.586 5.031l-0.019-0.028c1.064 1.496 1.95 3.22 2.572 5.065l0.041 0.14zM11.307 4.8c3.602 0.080 6.492 3.019 6.492 6.633 0 1.399-0.433 2.697-1.173 3.768l0.014-0.022c-1.098 1.588-2.036 3.411-2.723 5.352l-0.050 0.163h-5.333c-0.723-2.091-1.661-3.905-2.82-5.553l0.047 0.070c-0.738-1.054-1.18-2.364-1.18-3.777 0-3.664 2.97-6.635 6.635-6.635 0.032 0 0.065 0 0.097 0.001l-0.005-0zM13.557 24.853c-0.006 1.294-1.053 2.341-2.346 2.347h-0.001c-1.294-0.006-2.341-1.053-2.347-2.346v-2.027h4.704z"></path>
<path class="fill-active" d="M6.944 13.867h0.235c0.481-0.11 0.835-0.534 0.835-1.041 0-0.081-0.009-0.159-0.026-0.235l0.001 0.007c-0.060-0.252-0.095-0.541-0.095-0.838 0-1.776 1.237-3.264 2.896-3.648l0.025-0.005c0.494-0.112 0.857-0.547 0.857-1.067 0-0.603-0.489-1.092-1.092-1.092-0.083 0-0.164 0.009-0.242 0.027l0.007-0.001c-2.645 0.61-4.588 2.945-4.588 5.734 0 0.451 0.051 0.891 0.147 1.313l-0.008-0.039c0.089 0.504 0.523 0.882 1.045 0.885h0z"></path>
</svg>
