<svg xmlns="http://www.w3.org/2000/svg" viewBox="0 0 48 24" enable-background="new 0 0 48 24"><path fill="#939393" d="m23.8 7.4c.1-.2.2-.4.2-.5v-1.4c-.3-1.3-1.3-2.4-2.7-2.6-1.4-.2-2.6.3-3.4 1.5-.1.2-.3.1-.3.1-1.3-1.3-2.1-2.1-3.4-3.4h-12.2v23h16v-7.7c1-2.8 5.7-8.7 5.8-9"/><path fill="#5a5a5a" d="M16,23H0V0h12.6c1.3,1.3,2.1,2.1,3.4,3.4V23z"/><path fill="#fff" d="M15,22H1V1h11c1.2,1.2,1.8,1.8,3,3V22z"/><g fill="#5a5a5a"><path d="m11 0h1v5h-1z"/><path d="m11 4h5v1h-5z"/><path d="m7.8 21.2c0-.9-.1-1.7-.1-2.5 0-.9-.1-1.7-.1-2.6 0-.2 0-.4.2-.6 2.9-4.1 5.7-8.2 8.6-12.3.8-1.2 2-1.7 3.4-1.5 2.1.3 3.3 2.7 2.4 4.6-.1.2-.2.5-.4.7-2.9 4.1-5.8 8.2-8.6 12.4-.1.1-.2.2-.3.2-1.4.5-2.9.9-4.4 1.3-.2.2-.4.2-.7.3m2.8-5.2c2.4-3.5 4.9-6.9 7.3-10.4-.3-.2-.7-.5-1-.7-2.4 3.5-4.9 6.9-7.3 10.4.3.2.7.5 1 .7m8.4-9.6c-2.4 3.5-4.9 6.9-7.3 10.4.3.2.7.5 1 .7 2.4-3.5 4.9-6.9 7.3-10.4-.3-.2-.6-.4-1-.7m1.8-.4c.5-.9.2-2.1-.7-2.6-.9-.6-2-.3-2.5.4 1.1.7 2.2 1.5 3.2 2.2m-9 12.6c-1-.7-1.9-1.4-2.9-2 0 .9.1 1.9.2 2.9.9-.3 1.8-.6 2.7-.9"/></g><g fill="#fff"><path d="m10.6 16c-.3-.2-.7-.5-1.1-.7 2.4-3.5 4.9-6.9 7.3-10.4.3.3.7.5 1 .7-2.3 3.5-4.8 7-7.2 10.4"/><path d="m19 6.4c.3.2.7.5 1.1.7-2.4 3.5-4.9 6.9-7.3 10.4-.3-.3-.7-.5-1-.7 2.4-3.4 4.8-6.9 7.2-10.4"/><path d="m20.8 6c-1.1-.8-2.1-1.5-3.2-2.2.5-.7 1.6-1 2.5-.4 1 .6 1.3 1.8.7 2.6"/><path d="m11.8 18.6c-.9.3-1.8.6-2.7.8-.1-1-.1-1.9-.2-2.9 1 .7 2 1.4 2.9 2.1"/></g><path fill="#5a5a5a" d="m4 10.9v.7c0 .3.2.6.4.8l.7.7c.5.5 1.2.5 1.7 0l.7-.7c.3-.1.5-.4.5-.8v-.6h-2.2c-.3 0-.5-.2-.5-.5 0-.3.2-.5.5-.5h2.2c.3-2 1.8-2.5 1.8-4.2 0-2-1.7-3.6-3.8-3.6-2.1 0-3.8 1.7-3.8 3.7 0 2 1.8 2.7 1.8 5m2.6-6.6c-.2 0-.4-.2-.4-.5 0-.3.2-.5.5-.5.4 0 .8.3 1.2.6.4.4.7.9.7 1.2 0 .3-.2.5-.5.5-.2 0-.4-.2-.5-.4 0-.3-.4-.7-1-.9"/><path fill="#939393" d="m47.8 7.4c.1-.2.2-.4.2-.5v-1.4c-.3-1.3-1.3-2.4-2.7-2.6-1.4-.2-2.6.3-3.4 1.5-.1.2-.3.1-.3.1-1.3-1.3-2.1-2.1-3.4-3.4h-12.2v23h16v-7.7c1-2.8 5.7-8.7 5.8-9"/><path fill="#ac382e" d="M40,23H24V0h12.6c1.3,1.3,2.1,2.1,3.4,3.4V23z"/><path fill="#fff" d="M39,22H25V1h11c1.2,1.2,1.8,1.8,3,3V22z"/><g fill="#ac382e"><path d="m35 0h1v5h-1z"/><path d="m35 4h5v1h-5z"/></g><path fill="#e74c3c" d="m31.8 21.2c0-.9-.1-1.7-.1-2.5 0-.9-.1-1.7-.1-2.6 0-.2 0-.4.2-.6 2.9-4.1 5.7-8.2 8.6-12.3.8-1.2 2-1.7 3.4-1.5 2.1.3 3.3 2.7 2.4 4.6-.1.2-.2.5-.4.7-2.9 4.1-5.8 8.2-8.6 12.4-.1.1-.2.2-.3.2-1.4.5-2.9.9-4.4 1.3-.2.2-.4.2-.7.3m2.8-5.2c2.4-3.5 4.9-6.9 7.3-10.4-.3-.2-.7-.5-1-.7-2.4 3.5-4.9 6.9-7.3 10.4.3.2.7.5 1 .7m8.4-9.6c-2.4 3.5-4.9 6.9-7.3 10.4.3.2.7.5 1 .7 2.4-3.5 4.9-6.9 7.3-10.4-.3-.2-.6-.4-1-.7m1.8-.4c.5-.9.2-2.1-.7-2.6-.9-.6-2-.3-2.5.4 1.1.7 2.2 1.5 3.2 2.2m-9 12.6c-1-.7-1.9-1.4-2.9-2 0 .9.1 1.9.2 2.9.9-.3 1.8-.6 2.7-.9"/><g fill="#fff"><path d="m34.6 16c-.3-.2-.7-.5-1.1-.7 2.4-3.5 4.9-6.9 7.3-10.4.3.3.7.5 1 .7-2.3 3.5-4.8 7-7.2 10.4"/><path d="m43 6.4c.3.2.7.5 1.1.7-2.4 3.5-4.9 6.9-7.3 10.4-.3-.3-.7-.5-1-.7 2.4-3.4 4.8-6.9 7.2-10.4"/><path d="m44.8 6c-1.1-.8-2.1-1.5-3.2-2.2.5-.7 1.6-1 2.5-.4 1 .6 1.3 1.8.7 2.6"/><path d="m35.8 18.6c-.9.3-1.8.6-2.7.8-.1-1-.1-1.9-.2-2.9 1 .7 2 1.4 2.9 2.1"/></g><path fill="#e74c3c" d="m28 10.9v.7c0 .3.2.6.4.8l.7.7c.5.5 1.2.5 1.7 0l.7-.7c.2-.2.4-.5.4-.8v-.6h-2.2c-.3 0-.5-.2-.5-.5 0-.3.2-.5.5-.5h2.3c.3-2 1.8-2.5 1.8-4.2 0-2-1.7-3.6-3.8-3.6-2.1 0-3.8 1.7-3.8 3.7 0 2 1.8 2.7 1.8 5m2.6-6.6c-.2 0-.4-.2-.4-.5 0-.3.2-.5.5-.5.4 0 .8.3 1.2.6.4.4.7.9.7 1.2 0 .3-.2.5-.5.5-.2 0-.4-.2-.5-.4 0-.3-.4-.7-1-.9"/></svg>