<?xml version="1.0" encoding="UTF-8" standalone="no"?>
<!-- Created with Inkscape (http://www.inkscape.org/) -->

<svg
   xmlns:dc="http://purl.org/dc/elements/1.1/"
   xmlns:cc="http://creativecommons.org/ns#"
   xmlns:rdf="http://www.w3.org/1999/02/22-rdf-syntax-ns#"
   xmlns:svg="http://www.w3.org/2000/svg"
   xmlns="http://www.w3.org/2000/svg"
   xmlns:sodipodi="http://sodipodi.sourceforge.net/DTD/sodipodi-0.dtd"
   xmlns:inkscape="http://www.inkscape.org/namespaces/inkscape"
   width="216.463"
   height="205.83501"
   id="svg5079"
   version="1.1"
   inkscape:version="0.48.3.1 r9886"
   sodipodi:docname="logo.svg">
  <title
     id="title5278">Caracal - Main Logo</title>
  <defs
     id="defs5081" />
  <sodipodi:namedview
     id="base"
     pagecolor="#ffffff"
     bordercolor="#666666"
     borderopacity="1.0"
     inkscape:pageopacity="0.0"
     inkscape:pageshadow="2"
     inkscape:zoom="2.8284271"
     inkscape:cx="65.478644"
     inkscape:cy="162.41783"
     inkscape:document-units="px"
     inkscape:current-layer="layer2"
     showgrid="false"
     fit-margin-top="0"
     fit-margin-left="0"
     fit-margin-right="0"
     fit-margin-bottom="0"
     inkscape:window-width="1362"
     inkscape:window-height="724"
     inkscape:window-x="0"
     inkscape:window-y="42"
     inkscape:window-maximized="0" />
  <metadata
     id="metadata5084">
    <rdf:RDF>
      <cc:Work
         rdf:about="">
        <dc:format>image/svg+xml</dc:format>
        <dc:type
           rdf:resource="http://purl.org/dc/dcmitype/StillImage" />
        <dc:title>Caracal - Main Logo</dc:title>
        <dc:creator>
          <cc:Agent>
            <dc:title>Michael Kerch</dc:title>
          </cc:Agent>
        </dc:creator>
        <dc:contributor>
          <cc:Agent>
            <dc:title>Roy Fruchter
Maty Avzuk
Hanan Avzuk
Eyal Gershon
Mladen Mijatov
</dc:title>
          </cc:Agent>
        </dc:contributor>
        <dc:rights>
          <cc:Agent>
            <dc:title>Way2CU ltd.</dc:title>
          </cc:Agent>
        </dc:rights>
        <dc:subject>
          <rdf:Bag>
            <rdf:li>Caracal</rdf:li>
          </rdf:Bag>
        </dc:subject>
        <dc:publisher>
          <cc:Agent>
            <dc:title>Way2CU ltd.</dc:title>
          </cc:Agent>
        </dc:publisher>
        <cc:license
           rdf:resource="http://creativecommons.org/licenses/by/3.0/" />
        <dc:coverage />
      </cc:Work>
      <cc:License
         rdf:about="http://creativecommons.org/licenses/by/3.0/">
        <cc:permits
           rdf:resource="http://creativecommons.org/ns#Reproduction" />
        <cc:permits
           rdf:resource="http://creativecommons.org/ns#Distribution" />
        <cc:requires
           rdf:resource="http://creativecommons.org/ns#Notice" />
        <cc:requires
           rdf:resource="http://creativecommons.org/ns#Attribution" />
        <cc:permits
           rdf:resource="http://creativecommons.org/ns#DerivativeWorks" />
      </cc:License>
    </rdf:RDF>
  </metadata>
  <g
     inkscape:label="Background"
     inkscape:groupmode="layer"
     id="layer1"
     transform="translate(-43.19707,-75.15897)">
    <g
       id="g3953"
       transform="translate(-248.57093,-231.56003)">
      <path
         d="m 490.117,487.249 c 0,13.976 -11.329,25.305 -25.305,25.305 h -131.39 c -13.976,0 -25.305,-11.329 -25.305,-25.305 V 375.858 c 0,-13.976 11.329,-25.305 25.305,-25.305 h 131.391 c 13.976,0 25.305,11.329 25.305,25.305 v 111.391 z"
         id="path3955"
         inkscape:connector-curvature="0"
         style="fill:#2c3e50" />
    </g>
  </g>
  <g
     inkscape:groupmode="layer"
     id="layer2"
     inkscape:label="Logo">
    <g
       id="g3957"
       transform="translate(-291.768,-306.719)">
      <path
         d="m 508.231,307.433 c -8.093,2.556 -15.617,6.883 -22.333,12.303 -3.366,2.713 -6.534,5.699 -9.494,8.897 -1.483,1.604 -2.91,3.259 -4.277,4.975 -0.07,0.086 -0.142,0.178 -0.217,0.269 0.116,-0.334 0.228,-0.673 0.339,-1.007 l -0.486,-0.273 0.005,-0.187 c -0.05,-0.005 -0.101,-0.005 -0.151,-0.01 0.445,-0.693 0.906,-1.376 1.392,-2.04 0.825,-0.916 1.675,-1.812 2.54,-2.687 3.098,-3.138 6.393,-6.043 9.869,-8.66 6.943,-5.228 14.65,-9.312 22.813,-11.58 z"
         id="path3959"
         inkscape:connector-curvature="0" />
      <path
         d="m 503.925,306.719 c -3.472,1.514 -6.816,3.325 -10.076,5.294 -3.254,1.974 -6.401,4.15 -9.388,6.544 -2.986,2.398 -5.815,5.025 -8.361,7.925 -1.083,1.24 -2.125,2.531 -3.092,3.877 -0.603,0.653 -1.199,1.326 -1.781,2.004 -0.071,-0.005 -0.142,-0.01 -0.213,-0.015 -0.065,-0.005 -0.137,-0.01 -0.202,-0.015 0.932,-1.686 1.984,-3.315 3.117,-4.874 1.129,-1.544 2.338,-3.027 3.614,-4.454 2.029,-1.903 4.17,-3.649 6.381,-5.273 3.113,-2.288 6.367,-4.332 9.707,-6.169 3.346,-1.827 6.766,-3.487 10.294,-4.844 z"
         id="path3961"
         inkscape:connector-curvature="0" />
      <path
         d="m 497.837,306.719 c -3.052,1.736 -5.972,3.72 -8.801,5.84 -2.824,2.126 -5.532,4.413 -8.082,6.888 -1.175,1.144 -2.318,2.328 -3.411,3.558 -0.831,0.77 -1.646,1.574 -2.435,2.399 -1.999,2.101 -3.872,4.378 -5.512,6.853 -0.045,-0.005 -0.091,-0.005 -0.137,-0.005 0.542,-1.139 1.139,-2.257 1.776,-3.346 1.245,-2.13 2.646,-4.165 4.15,-6.108 1.513,-1.569 3.097,-3.042 4.727,-4.439 2.732,-2.333 5.607,-4.454 8.568,-6.396 2.967,-1.934 6.008,-3.72 9.157,-5.244 z"
         id="path3963"
         inkscape:connector-curvature="0" />
      <path
         d="m 491.258,307.433 c -2.632,1.908 -5.127,4.028 -7.521,6.26 -2.39,2.237 -4.661,4.616 -6.777,7.146 -0.536,0.638 -1.063,1.291 -1.573,1.959 -1.022,1.047 -2.01,2.146 -2.956,3.29 -1.099,1.326 -2.146,2.718 -3.112,4.18 0.197,-0.456 0.41,-0.911 0.622,-1.356 0.477,-0.982 0.987,-1.938 1.529,-2.89 1.493,-2.075 3.112,-4.034 4.813,-5.886 2.257,-2.444 4.656,-4.716 7.161,-6.837 2.504,-2.111 5.101,-4.099 7.814,-5.866 z"
         id="path3965"
         inkscape:connector-curvature="0" />
      <path
         d="m 486.389,308.126 c -2.227,1.918 -4.312,4.013 -6.306,6.205 -1.984,2.191 -3.856,4.499 -5.577,6.923 -1.083,1.544 -2.105,3.128 -3.036,4.768 -0.481,0.663 -0.946,1.346 -1.397,2.039 -0.86,1.326 -1.665,2.703 -2.394,4.135 -0.415,-0.01 -0.835,-0.01 -1.255,0 0.607,-1.447 1.301,-2.839 2.06,-4.185 1.519,-2.688 3.27,-5.183 5.162,-7.525 1.888,-2.343 3.922,-4.535 6.053,-6.6 2.13,-2.055 4.352,-4.004 6.69,-5.76 z"
         id="path3967"
         inkscape:connector-curvature="0" />
      <path
         d="m 475.108,325.404 c 0.789,-0.825 1.604,-1.629 2.435,-2.399 -1.276,1.427 -2.485,2.91 -3.614,4.454 -1.133,1.559 -2.186,3.188 -3.117,4.874 -0.405,-0.031 -0.81,-0.056 -1.215,-0.076 1.639,-2.475 3.512,-4.752 5.511,-6.853 z"
         id="path3969"
         inkscape:connector-curvature="0" />
      <path
         d="m 472.431,326.088 c 0.946,-1.144 1.934,-2.243 2.956,-3.29 -1.504,1.943 -2.905,3.978 -4.15,6.108 -0.638,1.088 -1.234,2.207 -1.776,3.346 -0.313,-0.021 -0.622,-0.036 -0.937,-0.041 0.248,-0.653 0.512,-1.301 0.795,-1.943 0.966,-1.462 2.013,-2.854 3.112,-4.18 z"
         id="path3971"
         inkscape:connector-curvature="0" />
      <path
         d="m 473.008,330.359 c -0.485,0.663 -0.946,1.346 -1.392,2.04 -0.132,-0.015 -0.258,-0.025 -0.39,-0.036 0.583,-0.678 1.179,-1.351 1.782,-2.004 z"
         id="path3973"
         inkscape:connector-curvature="0" />
      <path
         d="m 472.249,332.869 c -0.111,0.334 -0.223,0.673 -0.339,1.007 -1.038,1.311 -2.05,2.657 -2.991,4.033 0.01,-0.025 0.021,-0.05 0.03,-0.076 0.349,-0.982 0.733,-1.949 1.164,-2.9 0.005,-0.005 0.005,-0.016 0.01,-0.021 0.466,-0.855 0.967,-1.695 1.493,-2.515 0.051,0.005 0.102,0.005 0.151,0.01 l -0.005,0.187 0.487,0.275 z"
         id="path3975"
         inkscape:connector-curvature="0" />
      <path
         d="m 471.227,332.363 c 0.132,0.011 0.258,0.021 0.39,0.036 -0.526,0.82 -1.027,1.66 -1.493,2.515 0.258,-0.556 0.531,-1.108 0.83,-1.649 L 471,332.637 c 0.015,-0.025 0.035,-0.05 0.056,-0.071 0.054,-0.066 0.115,-0.137 0.171,-0.203 z"
         id="path3977"
         inkscape:connector-curvature="0" />
      <path
         d="m 471.227,332.363 c -0.056,0.066 -0.116,0.137 -0.172,0.203 -0.021,0.021 -0.041,0.045 -0.056,0.071 l 0.015,-0.288 c 0.071,0.004 0.141,0.009 0.213,0.014 z"
         id="path3979"
         inkscape:connector-curvature="0" />
      <path
         d="m 471.014,332.348 -0.015,0.288 c -0.192,0.218 -0.375,0.44 -0.563,0.663 -0.051,0 -0.101,0.005 -0.151,0.01 0.167,-0.329 0.344,-0.658 0.526,-0.977 0.066,0.006 0.137,0.011 0.203,0.016 z"
         id="path3981"
         inkscape:connector-curvature="0" />
      <path
         d="m 470.999,332.636 -0.046,0.628 c -0.172,0.015 -0.344,0.02 -0.517,0.035 0.188,-0.222 0.371,-0.445 0.563,-0.663 z"
         id="path3983"
         inkscape:connector-curvature="0" />
      <path
         d="m 469.597,332.257 c 0.405,0.02 0.81,0.045 1.215,0.076 -0.183,0.319 -0.359,0.648 -0.526,0.977 -0.455,0.031 -0.911,0.065 -1.361,0.106 0.061,-0.136 0.121,-0.278 0.188,-0.415 0.16,-0.248 0.317,-0.496 0.484,-0.744 z"
         id="path3985"
         inkscape:connector-curvature="0" />
      <path
         d="m 470.072,328.061 c 0.451,-0.693 0.916,-1.376 1.397,-2.039 -0.542,0.952 -1.053,1.908 -1.529,2.89 -0.212,0.445 -0.425,0.9 -0.622,1.356 -0.42,0.627 -0.824,1.275 -1.21,1.928 -0.141,0 -0.288,0 -0.43,0 0.729,-1.432 1.534,-2.809 2.394,-4.135 z"
         id="path3987"
         inkscape:connector-curvature="0" />
      <path
         d="m 469.602,380.892 c 0.612,2.581 0.679,5.284 0.354,7.89 -0.167,1.311 -0.369,2.576 -0.729,3.871 -0.364,1.271 -0.866,2.5 -1.468,3.654 -0.597,1.159 -1.29,2.252 -2.09,3.244 -0.674,0.831 -1.387,1.595 -2.232,2.237 0.005,0.015 0.01,0.03 0.01,0.051 l -0.905,0.217 c -0.021,-0.167 -0.046,-0.334 -0.076,-0.491 l 0.086,-0.025 -0.04,-0.071 c 0.399,-0.359 0.805,-0.82 1.164,-1.275 0.369,-0.46 0.703,-0.951 1.012,-1.458 0.618,-1.012 1.124,-2.101 1.523,-3.229 0.39,-1.129 0.679,-2.293 0.916,-3.462 0.238,-1.149 0.445,-2.378 0.577,-3.578 0.137,-1.204 0.218,-2.409 0.248,-3.613 0.025,-1.205 0,-2.409 -0.127,-3.604 -0.253,-2.389 -0.774,-4.783 -1.938,-7.015 0.987,0.75 1.741,1.827 2.349,2.966 0.102,0.192 0.197,0.385 0.288,0.582 l 0.451,0.101 c -0.041,0.213 -0.081,0.43 -0.127,0.638 0.308,0.766 0.556,1.565 0.754,2.37 z"
         id="path3989"
         inkscape:connector-curvature="0" />
      <path
         d="m 469.891,367.349 c 0.142,2.014 0.056,4.049 -0.183,6.043 -0.182,1.518 -0.44,3.011 -0.733,4.494 l -0.451,-0.101 c 0.203,-1.488 0.38,-2.976 0.486,-4.469 0.146,-1.969 0.106,-3.927 -0.081,-5.875 -0.192,-1.943 -0.536,-3.882 -0.937,-5.81 -0.197,-0.967 -0.404,-1.928 -0.627,-2.89 l -0.329,-1.442 c -0.111,-0.481 -0.218,-1.007 -0.299,-1.508 -0.192,-1.209 -0.288,-2.424 -0.309,-3.634 -0.056,-2.88 0.329,-5.75 0.911,-8.518 0.409,-1.948 0.921,-3.872 1.579,-5.729 0.941,-1.376 1.953,-2.723 2.991,-4.033 -1.104,3.366 -2.223,6.721 -3.027,10.162 -0.435,1.898 -0.748,3.821 -0.905,5.75 -0.162,1.928 -0.157,3.866 0.101,5.769 0.066,0.476 0.143,0.926 0.243,1.412 l 0.288,1.462 c 0.188,0.982 0.365,1.964 0.531,2.946 0.336,1.968 0.619,3.957 0.751,5.971 z"
         id="path3991"
         inkscape:connector-curvature="0" />
      <path
         d="m 469.46,332.252 c 0.046,0 0.092,0 0.137,0.005 -0.167,0.248 -0.323,0.496 -0.485,0.744 0.111,-0.248 0.227,-0.501 0.348,-0.749 z"
         id="path3993"
         inkscape:connector-curvature="0" />
      <path
         d="m 469.46,332.252 c -0.121,0.248 -0.237,0.501 -0.349,0.749 -0.086,0.137 -0.172,0.279 -0.259,0.42 -0.263,0.026 -0.526,0.046 -0.789,0.071 0.142,-0.43 0.298,-0.855 0.46,-1.28 0.315,0.004 0.623,0.019 0.937,0.04 z"
         id="path3995"
         inkscape:connector-curvature="0" />
      <path
         d="m 469.111,333 c -0.066,0.137 -0.127,0.279 -0.188,0.415 -0.025,0 -0.046,0 -0.071,0.005 0.087,-0.141 0.173,-0.283 0.259,-0.42 z"
         id="path3997"
         inkscape:connector-curvature="0" />
      <path
         d="m 469.318,330.268 c -0.283,0.643 -0.547,1.291 -0.795,1.943 -0.136,-0.005 -0.272,-0.01 -0.415,-0.016 0.386,-0.652 0.79,-1.299 1.21,-1.927 z"
         id="path3999"
         inkscape:connector-curvature="0" />
      <path
         d="m 468.108,332.196 c 0.143,0.005 0.279,0.011 0.415,0.016 -0.162,0.425 -0.318,0.85 -0.46,1.28 -0.243,0.025 -0.486,0.051 -0.729,0.076 0.249,-0.461 0.507,-0.922 0.774,-1.372 z"
         id="path4001"
         inkscape:connector-curvature="0" />
      <path
         d="m 467.679,332.196 c 0.142,0 0.289,0 0.43,0 -0.268,0.451 -0.525,0.912 -0.773,1.372 -0.122,0.015 -0.238,0.026 -0.354,0.041 0.226,-0.477 0.454,-0.952 0.697,-1.413 z"
         id="path4003"
         inkscape:connector-curvature="0" />
      <path
         d="m 466.424,332.196 c 0.42,-0.01 0.84,-0.01 1.255,0 -0.243,0.461 -0.471,0.937 -0.698,1.412 -0.395,0.045 -0.789,0.097 -1.18,0.147 0.192,-0.526 0.4,-1.047 0.623,-1.559 z"
         id="path4005"
         inkscape:connector-curvature="0" />
      <path
         d="m 467.051,337.211 c 0.031,-0.005 0.061,-0.005 0.097,-0.01 -0.036,0.015 -0.07,0.02 -0.106,0.035 0.004,-0.009 0.004,-0.014 0.009,-0.025 z"
         id="path4007"
         inkscape:connector-curvature="0" />
      <path
         d="m 467.051,337.211 c -0.005,0.01 -0.005,0.015 -0.01,0.025 -0.03,0.005 -0.071,0.02 -0.102,0.03 l -0.131,-0.036 c 0.076,-0.008 0.162,-0.014 0.243,-0.019 z"
         id="path4009"
         inkscape:connector-curvature="0" />
      <path
         d="m 466.97,367.972 c 0.041,0.177 0.026,0.359 -0.045,0.511 l -0.01,0.03 c -0.739,1.685 -1.453,3.386 -2.07,5.127 -0.025,0.07 -0.051,0.136 -0.071,0.208 -0.592,1.67 -1.123,3.355 -1.538,5.076 -0.445,1.787 -0.779,3.599 -0.941,5.436 -0.151,1.64 -0.151,3.29 0.021,4.935 l -0.83,0.091 c -0.359,-1.67 -0.471,-3.401 -0.421,-5.111 0.062,-1.943 0.335,-3.866 0.75,-5.744 0.42,-1.873 0.967,-3.709 1.614,-5.496 0.622,-1.696 1.311,-3.366 2.08,-4.98 -0.31,-1.493 -0.547,-2.996 -0.693,-4.504 -0.178,-1.609 -0.269,-3.224 -0.294,-4.838 -0.035,-1.61 0.011,-3.224 0.106,-4.828 0.106,-1.604 0.259,-3.204 0.521,-4.783 -0.01,1.032 -0.005,2.065 0.021,3.092 0.01,0.566 0.024,1.133 0.045,1.7 0.061,1.594 0.167,3.178 0.299,4.757 0.071,0.79 0.152,1.579 0.248,2.358 0.086,0.79 0.192,1.569 0.309,2.348 0.246,1.553 0.53,3.101 0.899,4.615 z"
         id="path4011"
         inkscape:connector-curvature="0" />
      <path
         d="m 466.809,337.231 0.131,0.036 c -0.298,0.086 -0.587,0.177 -0.88,0.269 l -0.476,-0.172 c 0.404,-0.056 0.814,-0.102 1.225,-0.133 z"
         id="path4013"
         inkscape:connector-curvature="0" />
      <path
         d="m 466.424,332.196 c -0.223,0.512 -0.431,1.033 -0.623,1.559 -3.831,0.511 -7.586,1.372 -11.179,2.733 -5.426,2.06 -10.431,5.294 -14.47,9.656 -2.024,2.166 -3.836,4.575 -5.379,7.191 -1.574,2.586 -2.881,5.385 -3.989,8.265 -0.551,1.488 -1.148,3.011 -1.821,4.474 -0.684,1.462 -1.433,2.895 -2.287,4.266 -0.871,1.362 -1.827,2.672 -2.986,3.796 -0.289,0.284 -0.592,0.551 -0.906,0.8 l -1.139,-0.618 c 0.4,-0.354 0.774,-0.759 1.129,-1.184 0.937,-1.144 1.736,-2.435 2.435,-3.791 0.708,-1.346 1.325,-2.763 1.877,-4.211 0.572,-1.447 1.068,-2.899 1.544,-4.423 1.007,-3.102 2.338,-6.083 3.927,-8.907 1.625,-2.793 3.518,-5.43 5.709,-7.748 2.196,-2.313 4.641,-4.363 7.293,-6.008 2.652,-1.649 5.471,-2.961 8.376,-3.876 4.083,-1.311 8.294,-1.923 12.489,-1.974 z"
         id="path4015"
         inkscape:connector-curvature="0" />
      <path
         d="m 465.584,337.363 0.476,0.172 c -4.449,1.401 -8.74,3.234 -12.764,5.531 -1.083,0.643 -2.156,1.281 -3.188,1.999 -1.037,0.704 -2.029,1.478 -3.007,2.267 -0.972,0.795 -1.897,1.645 -2.778,2.546 -0.439,0.45 -0.865,0.921 -1.275,1.397 -0.42,0.476 -0.819,0.961 -1.209,1.462 -0.765,0.987 -1.503,2.095 -2.231,3.178 -0.725,1.088 -1.448,2.182 -2.146,3.294 -0.703,1.104 -1.381,2.232 -2.04,3.371 -0.667,1.139 -1.33,2.283 -1.979,3.441 -0.643,1.154 -1.275,2.328 -1.938,3.487 -0.663,1.154 -1.321,2.333 -2.08,3.446 -0.77,1.108 -1.609,2.217 -2.703,3.001 -0.541,0.389 -1.139,0.698 -1.756,0.886 -0.016,0.005 -0.021,0.005 -0.03,0.005 l -0.071,-0.314 c 0.562,-0.258 1.078,-0.612 1.528,-1.048 0.906,-0.865 1.604,-1.958 2.223,-3.107 1.244,-2.303 2.277,-4.788 3.466,-7.192 0.588,-1.209 1.185,-2.419 1.813,-3.608 0.632,-1.184 1.285,-2.358 1.963,-3.517 0.674,-1.159 1.367,-2.313 2.101,-3.427 0.739,-1.123 1.458,-2.226 2.282,-3.335 0.41,-0.546 0.841,-1.078 1.281,-1.594 0.45,-0.506 0.91,-0.998 1.392,-1.478 0.945,-0.946 1.948,-1.837 2.985,-2.657 1.032,-0.835 2.131,-1.569 3.239,-2.268 1.108,-0.683 2.237,-1.336 3.405,-1.898 1.159,-0.567 2.339,-1.083 3.533,-1.554 1.199,-0.455 2.409,-0.86 3.629,-1.225 1.937,-0.547 3.899,-1.002 5.879,-1.261 z"
         id="path4017"
         inkscape:connector-curvature="0" />
      <path
         d="m 464.126,391.166 -0.264,0.288 c -0.652,-0.096 -1.163,-0.212 -1.599,-0.263 -0.431,-0.061 -0.81,-0.076 -1.194,0.111 -0.385,0.177 -0.754,0.521 -1.083,0.941 -0.334,0.42 -0.622,0.916 -0.886,1.448 -0.531,1.052 -0.941,2.227 -1.326,3.416 -0.38,1.194 -0.703,2.419 -1.063,3.649 l -0.364,-0.066 c 0.03,-1.3 0.161,-2.591 0.385,-3.881 0.223,-1.291 0.546,-2.571 1.053,-3.826 0.263,-0.617 0.571,-1.229 0.981,-1.816 0.41,-0.572 0.941,-1.114 1.64,-1.468 0.329,-0.167 0.704,-0.273 1.078,-0.313 l 0.83,-0.091 c 0,0.045 0.01,0.091 0.01,0.136 0.121,0.026 0.243,0.061 0.354,0.107 0.699,0.292 1.241,0.853 1.448,1.628 z"
         id="path4019"
         inkscape:connector-curvature="0" />
      <path
         d="m 463.716,403.975 c 0.056,0.876 0.065,1.751 0.051,2.622 -0.025,1.751 -0.157,3.492 -0.369,5.228 -0.218,1.736 -0.517,3.467 -0.987,5.193 -0.242,0.865 -0.521,1.73 -0.911,2.596 -0.197,0.435 -0.425,0.865 -0.713,1.295 -0.147,0.223 -0.314,0.435 -0.507,0.648 -0.096,0.106 -0.202,0.208 -0.318,0.309 -0.051,0.045 -0.096,0.086 -0.162,0.137 -0.035,0.476 -0.065,0.921 -0.096,1.335 -0.531,7.106 -2.961,13.908 -6.331,19.49 -3.042,5.045 -6.884,9.039 -11.145,12.202 -1.503,1.204 -4.591,5.81 -5.481,7.652 -0.607,1.265 -4.2,10.77 -6.73,15.092 -0.835,1.422 -1.62,2.682 -2.358,3.791 l -1.215,-0.612 c 2.703,-3.822 4.469,-8.138 5.097,-9.53 1.508,-3.361 2.602,-7.004 4.186,-10.309 0.435,-0.906 0.946,-1.741 1.487,-2.521 -0.663,0.526 -1.311,1.088 -1.928,1.731 -1.929,1.984 -3.421,4.601 -5.248,6.741 -0.542,0.638 -1.458,0.025 -1.25,-0.951 1.148,-5.4 4.641,-9.181 8.314,-11.802 2.105,-1.503 4.307,-2.743 6.367,-4.377 2.049,-1.63 3.947,-3.558 5.693,-5.693 3.775,-4.621 6.649,-10.567 8.107,-17.04 0.517,-2.313 0.896,-4.874 1.007,-7.455 l -0.021,-0.03 c 0.011,-0.005 0.016,-0.01 0.025,-0.01 0.162,-4.049 -0.328,-8.143 -1.958,-11.417 -0.273,-0.542 0.258,-1.159 0.663,-0.856 2.358,1.746 2.955,5.825 2.991,9.753 0.131,-0.309 0.258,-0.623 0.369,-0.941 0.557,-1.514 0.981,-3.127 1.331,-4.758 0.344,-1.639 0.606,-3.299 0.779,-4.969 0.081,-0.84 0.142,-1.675 0.162,-2.51 0.005,-0.653 0,-1.326 -0.076,-1.949 l 0.905,-0.217 c 0.158,0.71 0.214,1.424 0.27,2.132 z"
         id="path4021"
         inkscape:connector-curvature="0" />
      <path
         d="m 439.004,416.272 c 0.516,0.005 0.647,0.851 0.121,0.972 -1.048,0.248 -2.085,0.258 -3.117,0.121 2.176,4.459 -3.103,10.026 -6.641,11.585 -2.813,1.25 -5.834,1.315 -8.715,0.222 -0.774,-0.298 -1.67,-0.83 -2.333,-1.528 -0.592,0.855 -1.229,1.68 -1.751,2.596 -0.875,1.534 -1.427,3.305 -2.146,4.929 -0.896,2.009 -1.564,4.149 -2.231,6.255 -0.674,2.141 -0.957,4.434 -1.711,6.539 -0.076,0.223 -0.399,0.263 -0.461,0 -0.511,-2.121 0.062,-4.296 0.496,-6.372 0.521,-2.479 1.22,-4.909 1.782,-7.374 0.754,-3.345 1.968,-7.394 5.096,-8.978 0.016,-0.126 0.046,-0.253 0.081,-0.385 -0.243,-1.731 0.466,-3.608 1.148,-5.137 0.911,-2.044 2.43,-3.892 4.418,-4.777 2.395,-1.058 4.768,-0.957 7.258,-0.369 2.972,0.7 5.619,1.672 8.706,1.701 z m -6.226,5.401 c 0.37,-1.721 0.304,-3.28 0.273,-4.98 -2.241,-0.653 -4.479,-1.478 -6.771,-1.372 -2.656,0.117 -4.823,1.761 -6.189,4.094 -0.652,1.113 -1.078,2.333 -1.209,3.634 -0.071,0.683 -0.005,1.347 -0.01,2.014 0.024,0.051 0.05,0.106 0.07,0.157 0.156,0.177 0.263,0.415 0.278,0.658 0.116,0.248 0.253,0.481 0.45,0.698 0.719,0.78 1.943,1.063 2.9,1.306 2.252,0.583 4.514,0.162 6.584,-0.845 0.921,-0.45 1.816,-1.007 2.642,-1.67 0.127,-1.255 0.715,-2.459 0.982,-3.694 z"
         id="path4023"
         inkscape:connector-curvature="0" />
      <path
         d="m 433.052,416.693 c 0.03,1.701 0.097,3.259 -0.273,4.98 -0.268,1.234 -0.855,2.439 -0.981,3.694 -0.825,0.663 -1.721,1.22 -2.642,1.67 -2.07,1.007 -4.332,1.427 -6.584,0.845 -0.957,-0.243 -2.182,-0.526 -2.9,-1.306 -0.197,-0.217 -0.334,-0.45 -0.45,-0.698 -0.016,-0.243 -0.122,-0.481 -0.278,-0.658 -0.021,-0.051 -0.046,-0.106 -0.07,-0.157 0.005,-0.667 -0.062,-1.331 0.01,-2.014 0.131,-1.301 0.557,-2.521 1.209,-3.634 1.366,-2.333 3.533,-3.978 6.189,-4.094 2.291,-0.106 4.529,0.719 6.77,1.372 z"
         id="path4025"
         inkscape:connector-curvature="0"
         style="fill:#e4e4e4" />
      <path
         d="m 433.553,382.016 c -0.668,-0.37 -1.351,-0.678 -2.049,-0.956 -0.699,-0.289 -1.397,-0.542 -2.105,-0.77 -1.412,-0.461 -2.84,-0.856 -4.276,-1.189 -2.875,-0.678 -5.78,-1.154 -8.695,-1.513 -5.83,-0.714 -11.706,-0.941 -17.597,-0.941 -5.886,0.005 -11.767,0.243 -17.592,0.967 -2.92,0.359 -5.824,0.84 -8.699,1.518 -2.865,0.693 -5.734,1.493 -8.441,2.885 1.134,-1.083 2.459,-1.918 3.795,-2.688 1.342,-0.769 2.738,-1.417 4.155,-2.009 0.703,-0.283 1.417,-0.556 2.136,-0.814 l 0.223,-0.375 c 0.106,0.066 0.208,0.131 0.313,0.192 1.022,-0.35 2.05,-0.664 3.088,-0.947 l 0.749,-0.88 c 0.065,0.061 0.131,0.117 0.202,0.167 0.151,0.122 0.304,0.238 0.465,0.344 0.521,-0.131 1.048,-0.258 1.574,-0.374 5.942,-1.316 12.005,-1.827 18.032,-1.842 6.027,0 12.091,0.506 18.032,1.807 1.078,0.238 2.15,0.501 3.214,0.8 0.096,-0.036 0.192,-0.091 0.288,-0.142 0.304,-0.167 0.592,-0.364 0.871,-0.592 0.141,-0.111 0.273,-0.223 0.409,-0.344 l 1.139,0.618 c -0.313,0.253 -0.643,0.486 -0.986,0.693 -0.106,0.065 -0.213,0.126 -0.319,0.182 0.946,0.288 1.888,0.607 2.819,0.957 0.192,-0.066 0.385,-0.142 0.566,-0.233 l 0.071,0.314 c -0.086,0.025 -0.172,0.05 -0.258,0.065 0.313,0.122 0.627,0.243 0.94,0.37 1.418,0.592 2.814,1.245 4.155,2.014 1.336,0.777 2.658,1.617 3.781,2.716 z"
         id="path4027"
         inkscape:connector-curvature="0" />
      <path
         d="m 426.442,480.952 1.215,0.612 c -3.188,4.797 -5.45,6.771 -6.604,7.06 -0.623,0.152 -1.377,0.754 -2.156,1.544 l -0.729,-0.688 c -1.347,0.47 -2.738,0.799 -4.155,0.977 -2.778,0.339 -5.526,-0.197 -8.214,-1.068 -1.554,-0.501 -3.001,-1.204 -4.59,-1.463 -0.395,-0.065 -0.86,-0.055 -1.17,-0.055 -0.015,0 -0.096,0 -0.096,0 -0.01,0 -0.025,0 -0.035,0 -0.314,0 -0.724,-0.01 -1.123,0.055 -1.584,0.259 -3.037,0.942 -4.585,1.443 -2.693,0.87 -5.441,1.417 -8.22,1.078 -1.417,-0.178 -2.813,-0.501 -4.154,-0.972 0.141,0.131 0.277,0.268 0.414,0.404 0.243,0.243 0.481,0.497 0.709,0.754 l -0.951,0.511 c -0.233,-0.263 -0.471,-0.516 -0.703,-0.759 -0.852,-0.891 -1.681,-1.589 -2.349,-1.756 -1.286,-0.319 -3.953,-2.743 -7.748,-8.842 l 1.179,-0.623 c 0.927,1.498 1.999,3.001 3.204,4.317 3.846,4.205 10.07,4.681 12.429,4.63 2.885,-0.066 5.598,-1.053 8.366,-2.024 1.047,-0.369 1.953,-0.562 2.996,-0.627 0.01,-0.891 -0.071,-4.838 -0.086,-5.927 -0.472,-0.065 -0.978,-0.207 -1.478,-0.333 -1.19,-0.304 -5.163,-2.916 -3.847,-5.005 l 1.048,0.354 c -0.229,1.199 0.738,1.776 1.568,2.252 0.628,0.359 1.291,0.795 1.958,1.007 0.431,0.131 0.831,0.248 1.276,0.268 0.055,0.005 0.096,0.061 0.096,0.061 0,0 0.016,0 0.035,0 h 0.096 c 0,0 0.062,-0.055 0.117,-0.061 0.445,-0.021 0.86,-0.137 1.29,-0.268 0.669,-0.212 1.337,-0.648 1.964,-1.007 0.83,-0.476 1.802,-1.053 1.574,-2.252 l 1.048,-0.354 c 1.315,2.085 -2.652,4.702 -3.842,5.005 -0.501,0.126 -1.007,0.268 -1.482,0.333 -0.01,1.088 -0.091,5.036 -0.081,5.927 1.043,0.066 1.948,0.258 2.996,0.627 2.769,0.972 5.48,1.958 8.365,2.024 2.358,0.051 8.584,-0.425 12.43,-4.63 0.725,-0.789 1.398,-1.644 2.025,-2.529 z"
         id="path4029"
         inkscape:connector-curvature="0" />
      <path
         d="m 424.995,398.57 c 0.248,0.045 0.496,0.456 0.461,0.784 -0.289,2.86 -2.142,5.264 -3.179,7.738 -1.169,2.809 -1.943,6.493 -4.15,8.265 -0.409,0.329 -1.082,0.041 -1.174,-0.617 -0.485,-3.669 1.306,-7.46 2.602,-10.552 1.179,-2.81 2.591,-6.215 5.44,-5.618 z"
         id="path4031"
         inkscape:connector-curvature="0" />
      <path
         d="m 418.168,489.479 0.729,0.688 c -1.306,1.32 -2.688,3.127 -3.659,4.18 -1.594,1.71 -3.229,3.204 -5.07,4.408 -3.098,2.02 -6.696,3.31 -10.128,2.9 -0.015,0 -0.096,0 -0.096,0 -0.01,0 -0.025,0 -0.035,0 -3.437,0.41 -6.984,-0.88 -10.081,-2.9 -1.837,-1.204 -3.472,-2.677 -5.066,-4.388 -0.754,-0.81 -1.751,-2.08 -2.763,-3.224 l 0.951,-0.511 c 0.698,0.774 1.366,1.589 2.064,2.313 1.554,1.605 3.123,3.163 4.944,4.206 3.052,1.746 6.827,2.91 9.95,2.591 0.01,0 0.025,0.005 0.035,0.005 0,0 0.081,-0.005 0.096,-0.005 3.118,0.318 6.924,-0.845 9.971,-2.591 1.822,-1.043 3.406,-2.601 4.954,-4.206 1.073,-1.108 2.07,-2.418 3.204,-3.466 z"
         id="path4033"
         inkscape:connector-curvature="0" />
      <path
         d="m 410.349,465.156 c 0.081,1.559 -1.012,6.564 -2.845,5.167 -0.283,0.151 -0.556,0.278 -0.729,0.404 -0.921,0.668 -1.315,1.62 -1.188,2.956 0.192,0.162 0.333,0.334 0.445,0.511 l -1.048,0.354 c -0.258,0.041 -0.526,-0.086 -0.643,-0.415 -0.628,-1.776 0.106,-3.522 1.315,-4.449 0.289,-0.223 1.792,-1.326 2.546,-1.23 0.81,-0.794 0.855,-2.454 0.688,-3.613 -0.097,-0.653 -0.476,-1.877 -1.048,-2.789 -0.354,-0.572 -0.881,-0.977 -1.164,-1.124 -1.427,-0.724 -3.912,-1.351 -5.44,-1.478 -0.405,-0.03 -0.891,0.025 -1.2,0.025 -0.015,0 -0.096,0 -0.096,0 -0.01,0 -0.025,0 -0.035,0 -0.314,0 -0.744,-0.055 -1.153,-0.025 -1.524,0.126 -4.014,0.734 -5.436,1.462 -0.284,0.146 -0.815,0.562 -1.17,1.134 -0.571,0.906 -0.951,2.141 -1.042,2.793 -0.167,1.154 -0.127,2.819 0.688,3.608 0.754,-0.096 2.257,1.012 2.545,1.235 1.205,0.926 1.938,2.672 1.311,4.449 -0.11,0.329 -0.384,0.456 -0.642,0.415 l -1.048,-0.354 c 0.111,-0.172 0.258,-0.344 0.45,-0.511 0.121,-1.331 -0.269,-2.282 -1.189,-2.95 -0.177,-0.126 -0.45,-0.249 -0.734,-0.395 -1.831,1.392 -2.925,-3.604 -2.844,-5.162 0.051,-0.982 0.562,-2.916 1.296,-4.135 0.759,-1.26 2.702,-1.969 3.305,-2.207 1.271,-0.501 3.669,-0.977 5.663,-0.977 0.01,0 0.025,0 0.035,0 0,0 0.081,0 0.096,0 1.99,0 4.419,0.476 5.685,0.977 0.606,0.238 2.565,0.906 3.319,2.167 0.74,1.222 1.251,3.175 1.307,4.157 z"
         id="path4035"
         inkscape:connector-curvature="0" />
      <path
         d="m 408.892,464.842 c 0.167,1.159 0.121,2.819 -0.688,3.613 -0.754,-0.096 -2.257,1.007 -2.546,1.23 -1.209,0.926 -1.943,2.672 -1.315,4.449 0.116,0.329 0.385,0.456 0.643,0.415 0.228,1.199 -0.744,1.776 -1.574,2.252 -0.627,0.359 -1.295,0.795 -1.964,1.007 -0.43,0.131 -0.845,0.248 -1.29,0.268 -0.056,0.005 -0.117,0.061 -0.117,0.061 h -0.096 c -0.02,0 -0.035,0 -0.035,0 0,0 -0.041,-0.055 -0.096,-0.061 -0.445,-0.021 -0.846,-0.137 -1.276,-0.268 -0.667,-0.212 -1.33,-0.648 -1.958,-1.007 -0.83,-0.476 -1.797,-1.053 -1.568,-2.252 0.258,0.041 0.531,-0.086 0.642,-0.415 0.628,-1.776 -0.105,-3.522 -1.311,-4.449 -0.288,-0.223 -1.791,-1.331 -2.545,-1.235 -0.815,-0.79 -0.855,-2.455 -0.688,-3.608 0.091,-0.653 0.471,-1.888 1.042,-2.793 0.354,-0.572 0.886,-0.987 1.17,-1.134 1.422,-0.729 3.911,-1.336 5.436,-1.462 0.409,-0.03 0.839,0.025 1.153,0.025 0.01,0 0.025,0 0.035,0 0,0 0.081,0 0.096,0 0.31,0 0.795,-0.055 1.2,-0.025 1.528,0.126 4.014,0.754 5.44,1.478 0.283,0.147 0.81,0.552 1.164,1.124 0.57,0.91 0.949,2.134 1.046,2.787 z"
         id="path4037"
         inkscape:connector-curvature="0"
         style="fill:#e4e4e4" />
      <path
         d="m 389.482,441.592 c 0.431,2.076 1.002,4.251 0.496,6.372 -0.065,0.263 -0.385,0.223 -0.46,0 -0.76,-2.105 -1.038,-4.398 -1.711,-6.539 -0.668,-2.105 -1.336,-4.246 -2.231,-6.255 -0.72,-1.625 -1.271,-3.396 -2.146,-4.929 -0.521,-0.917 -1.158,-1.741 -1.751,-2.596 -0.663,0.698 -1.559,1.229 -2.333,1.528 -2.879,1.093 -5.901,1.028 -8.715,-0.222 -3.537,-1.559 -8.816,-7.126 -6.64,-11.585 -1.038,0.137 -2.07,0.127 -3.118,-0.121 -0.526,-0.122 -0.399,-0.967 0.122,-0.972 3.087,-0.03 5.733,-1.001 8.705,-1.7 2.489,-0.587 4.863,-0.688 7.257,0.369 1.989,0.886 3.507,2.733 4.418,4.777 0.684,1.528 1.392,3.406 1.149,5.137 0.035,0.132 0.065,0.258 0.081,0.385 3.122,1.584 4.342,5.633 5.096,8.978 0.562,2.464 1.26,4.894 1.781,7.373 z m -8.355,-16.529 c -0.005,-0.667 0.056,-1.331 -0.01,-2.014 -0.132,-1.301 -0.557,-2.521 -1.21,-3.634 -1.366,-2.333 -3.532,-3.978 -6.189,-4.094 -2.292,-0.106 -4.529,0.719 -6.771,1.372 -0.035,1.701 -0.096,3.259 0.273,4.98 0.264,1.234 0.855,2.439 0.982,3.694 0.819,0.663 1.715,1.22 2.642,1.67 2.069,1.007 4.332,1.427 6.584,0.845 0.951,-0.243 2.176,-0.526 2.9,-1.306 0.197,-0.217 0.334,-0.45 0.45,-0.698 0.015,-0.243 0.121,-0.481 0.278,-0.658 0.02,-0.05 0.041,-0.106 0.071,-0.157 z"
         id="path4039"
         inkscape:connector-curvature="0" />
      <path
         d="m 380.443,404.188 c 1.296,3.092 3.088,6.883 2.603,10.552 -0.092,0.658 -0.765,0.946 -1.18,0.617 -2.202,-1.771 -2.976,-5.456 -4.146,-8.265 -1.037,-2.475 -2.89,-4.878 -3.178,-7.738 -0.035,-0.329 0.212,-0.739 0.46,-0.784 2.851,-0.597 4.258,2.808 5.441,5.618 z"
         id="path4041"
         inkscape:connector-curvature="0" />
      <path
         d="m 381.117,423.049 c 0.065,0.683 0.005,1.347 0.01,2.014 -0.03,0.051 -0.051,0.106 -0.07,0.157 -0.157,0.177 -0.264,0.415 -0.278,0.658 -0.116,0.248 -0.253,0.481 -0.45,0.698 -0.725,0.78 -1.949,1.063 -2.9,1.306 -2.252,0.583 -4.515,0.162 -6.584,-0.845 -0.927,-0.45 -1.822,-1.007 -2.642,-1.67 -0.127,-1.255 -0.719,-2.46 -0.982,-3.694 -0.369,-1.721 -0.309,-3.28 -0.273,-4.98 2.242,-0.653 4.479,-1.478 6.771,-1.372 2.657,0.117 4.823,1.761 6.189,4.094 0.653,1.114 1.077,2.334 1.209,3.634 z"
         id="path4043"
         inkscape:connector-curvature="0"
         style="fill:#e4e4e4" />
      <path
         d="m 378.557,374.495 -0.749,0.88 c -0.537,-0.364 -1.033,-0.789 -1.498,-1.24 -1.159,-1.124 -2.121,-2.434 -2.986,-3.796 -0.855,-1.371 -1.604,-2.804 -2.287,-4.266 -0.674,-1.462 -1.275,-2.986 -1.822,-4.474 -1.108,-2.88 -2.414,-5.679 -3.987,-8.265 -1.545,-2.616 -3.356,-5.026 -5.381,-7.191 -4.043,-4.362 -9.043,-7.596 -14.474,-9.656 -3.593,-1.361 -7.349,-2.222 -11.18,-2.733 -0.192,-0.526 -0.395,-1.047 -0.617,-1.559 4.195,0.051 8.4,0.664 12.485,1.974 2.91,0.916 5.729,2.227 8.381,3.876 2.651,1.645 5.091,3.694 7.292,6.008 2.187,2.318 4.085,4.955 5.704,7.748 1.594,2.824 2.92,5.805 3.933,8.907 0.476,1.524 0.972,2.976 1.538,4.423 0.557,1.448 1.169,2.865 1.883,4.211 0.698,1.356 1.493,2.646 2.435,3.791 0.408,0.496 0.848,0.957 1.33,1.362 z"
         id="path4045"
         inkscape:connector-curvature="0" />
      <path
         d="m 374.406,376.13 -0.223,0.375 c -0.314,-0.152 -0.617,-0.339 -0.906,-0.546 -1.098,-0.785 -1.938,-1.893 -2.702,-3.001 -0.759,-1.114 -1.417,-2.292 -2.08,-3.446 -0.663,-1.159 -1.301,-2.333 -1.938,-3.487 -0.647,-1.159 -1.311,-2.303 -1.979,-3.441 -0.658,-1.139 -1.342,-2.267 -2.04,-3.371 -0.698,-1.113 -1.422,-2.206 -2.146,-3.294 -0.729,-1.083 -1.473,-2.191 -2.237,-3.178 -0.384,-0.501 -0.784,-0.987 -1.204,-1.462 -0.41,-0.476 -0.835,-0.947 -1.275,-1.397 -0.881,-0.901 -1.812,-1.751 -2.778,-2.546 -0.977,-0.789 -1.969,-1.563 -3.006,-2.267 -1.033,-0.718 -2.11,-1.356 -3.188,-1.999 -4.023,-2.297 -8.315,-4.13 -12.764,-5.531 l 0.471,-0.172 c 1.983,0.258 3.942,0.713 5.881,1.265 1.225,0.365 2.434,0.77 3.633,1.225 1.195,0.471 2.374,0.987 3.533,1.554 1.169,0.562 2.293,1.215 3.406,1.898 1.108,0.698 2.206,1.432 3.238,2.268 1.033,0.82 2.04,1.71 2.986,2.657 0.48,0.48 0.941,0.972 1.392,1.478 0.44,0.516 0.871,1.047 1.28,1.594 0.825,1.109 1.539,2.212 2.283,3.335 0.733,1.114 1.422,2.268 2.1,3.427 0.673,1.159 1.331,2.333 1.964,3.517 0.628,1.189 1.225,2.399 1.812,3.608 1.185,2.404 2.223,4.889 3.467,7.192 0.617,1.148 1.316,2.242 2.222,3.107 0.242,0.233 0.515,0.451 0.798,0.638 z"
         id="path4047"
         inkscape:connector-curvature="0" />
      <path
         d="m 372.377,479.165 -1.179,0.623 c -0.396,-0.627 -0.8,-1.3 -1.215,-2.009 -2.531,-4.322 -6.124,-13.832 -6.731,-15.097 -0.891,-1.842 -3.978,-6.448 -5.48,-7.652 -4.262,-3.163 -8.103,-7.156 -11.145,-12.202 -3.376,-5.583 -5.8,-12.384 -6.331,-19.49 -0.03,-0.415 -0.061,-0.86 -0.096,-1.335 -0.066,-0.051 -0.106,-0.091 -0.162,-0.137 -0.116,-0.101 -0.224,-0.203 -0.319,-0.309 -0.197,-0.213 -0.359,-0.425 -0.506,-0.648 -0.289,-0.43 -0.517,-0.86 -0.714,-1.295 -0.395,-0.866 -0.673,-1.731 -0.911,-2.596 -0.47,-1.726 -0.77,-3.457 -0.986,-5.193 -0.213,-1.736 -0.344,-3.477 -0.375,-5.228 -0.01,-0.871 0,-1.746 0.056,-2.622 0.051,-0.729 0.116,-1.453 0.278,-2.186 l 0.881,-0.248 0.086,0.025 c -0.142,0.764 -0.156,1.609 -0.146,2.439 0.021,0.835 0.076,1.67 0.162,2.51 0.172,1.67 0.435,3.33 0.779,4.969 0.344,1.63 0.773,3.244 1.331,4.758 0.111,0.318 0.237,0.632 0.369,0.941 0.035,-3.928 0.633,-8.001 2.991,-9.753 0.404,-0.303 0.931,0.314 0.663,0.856 -1.635,3.274 -2.121,7.368 -1.959,11.417 0.01,0 0.015,0.005 0.025,0.01 l -0.021,0.03 c 0.106,2.581 0.491,5.142 1.008,7.455 1.457,6.473 4.327,12.419 8.107,17.04 1.746,2.135 3.644,4.063 5.693,5.693 2.06,1.634 4.256,2.875 6.366,4.377 3.669,2.622 7.162,6.402 8.315,11.802 0.207,0.977 -0.714,1.589 -1.255,0.951 -1.822,-2.141 -3.315,-4.757 -5.243,-6.741 -0.617,-0.643 -1.266,-1.205 -1.934,-1.731 0.547,0.78 1.053,1.615 1.493,2.521 1.584,3.305 2.677,6.948 4.186,10.309 0.528,1.176 1.879,4.451 3.919,7.746 z"
         id="path4049"
         inkscape:connector-curvature="0" />
      <path
         d="m 343.651,400.69 -0.369,0.066 c -0.354,-1.23 -0.684,-2.455 -1.063,-3.649 -0.38,-1.189 -0.789,-2.364 -1.32,-3.416 -0.264,-0.532 -0.552,-1.027 -0.891,-1.448 -0.329,-0.42 -0.693,-0.764 -1.079,-0.941 -0.384,-0.188 -0.764,-0.172 -1.193,-0.111 -0.436,0.051 -0.946,0.167 -1.6,0.263 l -0.263,-0.288 c 0.202,-0.775 0.743,-1.336 1.447,-1.629 0.11,-0.046 0.228,-0.081 0.349,-0.107 0,-0.045 0.011,-0.091 0.011,-0.136 l 0.835,0.091 c 0.369,0.041 0.743,0.146 1.078,0.313 0.698,0.354 1.229,0.896 1.64,1.468 0.409,0.587 0.714,1.199 0.981,1.816 0.506,1.255 0.825,2.536 1.053,3.826 0.222,1.291 0.354,2.582 0.384,3.882 z"
         id="path4051"
         inkscape:connector-curvature="0" />
      <path
         d="m 338.935,384.273 c 0.046,1.71 -0.061,3.441 -0.42,5.111 l -0.835,-0.091 c 0.177,-1.645 0.177,-3.295 0.024,-4.935 -0.161,-1.837 -0.495,-3.649 -0.94,-5.436 -0.42,-1.721 -0.946,-3.406 -1.544,-5.076 -0.021,-0.071 -0.046,-0.137 -0.071,-0.208 -0.612,-1.741 -1.326,-3.442 -2.064,-5.127 l -0.015,-0.025 c -0.071,-0.172 -0.081,-0.349 -0.041,-0.516 0.369,-1.513 0.653,-3.062 0.896,-4.616 0.122,-0.779 0.229,-1.559 0.314,-2.348 0.096,-0.779 0.177,-1.569 0.243,-2.358 0.136,-1.579 0.242,-3.163 0.298,-4.757 0.021,-0.572 0.041,-1.144 0.051,-1.715 0.025,-1.023 0.03,-2.05 0.021,-3.077 0.263,1.579 0.415,3.178 0.521,4.783 0.096,1.604 0.141,3.218 0.105,4.828 -0.024,1.614 -0.116,3.229 -0.293,4.838 -0.147,1.508 -0.385,3.011 -0.693,4.504 0.764,1.614 1.457,3.284 2.08,4.98 0.647,1.787 1.194,3.624 1.614,5.496 0.41,1.879 0.688,3.802 0.749,5.745 z"
         id="path4053"
         inkscape:connector-curvature="0" />
      <path
         d="m 337.487,401.47 -0.046,0.071 -0.881,0.248 c -0.845,-0.643 -1.559,-1.407 -2.236,-2.237 -0.795,-0.992 -1.488,-2.084 -2.086,-3.244 -0.607,-1.154 -1.103,-2.383 -1.467,-3.654 -0.365,-1.295 -0.563,-2.561 -0.729,-3.871 -0.329,-2.606 -0.258,-5.309 0.354,-7.89 0.197,-0.805 0.445,-1.604 0.749,-2.369 -0.04,-0.208 -0.086,-0.425 -0.127,-0.638 l 0.456,-0.101 c 0.086,-0.197 0.188,-0.39 0.283,-0.582 0.612,-1.139 1.366,-2.216 2.354,-2.966 -1.169,2.232 -1.686,4.625 -1.938,7.015 -0.126,1.194 -0.156,2.398 -0.126,3.604 0.024,1.205 0.111,2.409 0.243,3.613 0.136,1.2 0.344,2.429 0.581,3.578 0.238,1.169 0.526,2.333 0.917,3.462 0.399,1.128 0.905,2.216 1.522,3.229 0.31,0.506 0.643,0.997 1.008,1.458 0.365,0.454 0.764,0.914 1.169,1.274 z"
         id="path4055"
         inkscape:connector-curvature="0" />
      <path
         d="m 350.011,377.911 c 6.579,2.024 12.146,-2.53 17.207,-5.567 0.482,3.38 -2.253,5.841 -2.506,9.136 0.987,-0.828 2.077,-1.517 3.181,-2.152 1.342,-0.769 2.738,-1.417 4.155,-2.009 0.703,-0.283 1.417,-0.556 2.136,-0.814 -0.314,-0.152 -0.617,-0.339 -0.906,-0.546 -1.098,-0.785 -1.938,-1.893 -2.702,-3.001 -0.759,-1.114 -1.417,-2.292 -2.08,-3.446 -0.663,-1.159 -1.301,-2.333 -1.938,-3.487 -0.647,-1.159 -1.311,-2.303 -1.979,-3.441 -0.658,-1.139 -1.342,-2.267 -2.04,-3.371 -0.27,-0.43 -0.545,-0.854 -0.821,-1.279 0.745,8.445 -4.091,16.393 -11.707,19.977 z"
         id="path4057"
         inkscape:connector-curvature="0"
         style="fill:#ac382e" />
      <path
         d="m 345.456,369.813 c 6.559,-0.937 12.248,-7.512 15.065,-13.703 -0.044,-0.065 -0.086,-0.13 -0.129,-0.194 -0.729,-1.083 -1.473,-2.191 -2.237,-3.178 -0.384,-0.501 -0.784,-0.987 -1.204,-1.462 -0.41,-0.476 -0.835,-0.947 -1.275,-1.397 -0.509,-0.521 -1.039,-1.02 -1.58,-1.506 0.932,8.029 -0.65,17.445 -8.64,21.44 z"
         id="path4059"
         inkscape:connector-curvature="0"
         style="fill:#ac382e" />
      <path
         d="m 433.516,373.862 c 4.555,1.519 9.109,3.037 13.158,-1.518 -4.555,-0.506 -8.098,-4.049 -7.591,-8.604 4.555,6.073 11.64,2.53 15.688,-1.519 -4.555,1.012 -8.604,-1.518 -9.616,-6.073 5.567,2.53 10.122,-1.519 12.652,-6.073 -3.036,1.518 -5.061,-1.012 -7.591,-2.024 5.061,1.518 8.604,-2.53 12.146,-4.555 2.353,-1.47 4.535,-4.134 6.943,-6.606 0.252,-0.658 0.516,-1.312 0.808,-1.957 0.005,-0.005 0.005,-0.016 0.01,-0.021 0.258,-0.556 0.531,-1.108 0.83,-1.649 -0.172,0.015 -0.344,0.02 -0.517,0.035 -0.051,0 -0.101,0.005 -0.151,0.01 -0.455,0.031 -0.911,0.065 -1.361,0.106 -0.025,0 -0.046,0 -0.071,0.005 -0.263,0.026 -0.526,0.046 -0.789,0.071 -0.243,0.025 -0.486,0.051 -0.729,0.076 -0.122,0.015 -0.238,0.026 -0.354,0.041 -0.395,0.045 -0.789,0.097 -1.18,0.147 -3.831,0.511 -7.586,1.372 -11.179,2.733 -5.426,2.06 -10.431,5.294 -14.47,9.656 -2.024,2.166 -3.836,4.575 -5.379,7.191 -1.574,2.586 -2.881,5.385 -3.989,8.265 -0.551,1.488 -1.148,3.011 -1.821,4.474 -0.684,1.462 -1.433,2.895 -2.287,4.266 -0.871,1.362 -1.827,2.672 -2.986,3.796 -0.289,0.284 -0.592,0.551 -0.906,0.8 -0.313,0.253 -0.643,0.486 -0.986,0.693 -0.106,0.065 -0.213,0.126 -0.319,0.182 0.946,0.288 1.888,0.607 2.819,0.957 0.192,-0.066 0.385,-0.142 0.566,-0.233 0.562,-0.258 1.078,-0.612 1.528,-1.048 0.906,-0.865 1.604,-1.958 2.223,-3.107 1.244,-2.303 2.277,-4.788 3.466,-7.192 0.588,-1.209 1.185,-2.419 1.813,-3.608 0.632,-1.184 1.285,-2.358 1.963,-3.517 0.674,-1.159 1.367,-2.313 2.101,-3.427 0.739,-1.123 1.458,-2.226 2.282,-3.335 0.41,-0.546 0.841,-1.078 1.281,-1.594 0.45,-0.506 0.91,-0.998 1.392,-1.478 0.945,-0.946 1.948,-1.837 2.985,-2.657 1.032,-0.835 2.131,-1.569 3.239,-2.268 1.108,-0.683 2.237,-1.336 3.405,-1.898 1.159,-0.567 2.339,-1.083 3.533,-1.554 1.199,-0.455 2.409,-0.86 3.629,-1.225 1.938,-0.552 3.901,-1.007 5.881,-1.265 0.404,-0.056 0.814,-0.101 1.225,-0.132 0.075,-0.01 0.161,-0.015 0.242,-0.02 0.031,-0.005 0.061,-0.005 0.097,-0.01 -0.036,0.015 -0.07,0.02 -0.106,0.035 -0.03,0.005 -0.071,0.02 -0.102,0.03 -0.298,0.086 -0.587,0.177 -0.88,0.269 -4.449,1.401 -8.74,3.234 -12.764,5.531 -1.083,0.643 -2.156,1.281 -3.188,1.999 -1.037,0.704 -2.029,1.478 -3.007,2.267 -0.972,0.795 -1.897,1.645 -2.778,2.546 -0.439,0.45 -0.865,0.921 -1.275,1.397 -0.42,0.476 -0.819,0.961 -1.209,1.462 -0.765,0.987 -1.503,2.095 -2.231,3.178 -0.725,1.088 -1.448,2.182 -2.146,3.294 -0.703,1.104 -1.381,2.232 -2.04,3.371 -0.667,1.139 -1.33,2.283 -1.979,3.441 -0.643,1.154 -1.275,2.328 -1.938,3.487 -0.663,1.154 -1.321,2.333 -2.08,3.446 -0.77,1.108 -1.609,2.217 -2.703,3.001 -0.541,0.389 -1.139,0.698 -1.756,0.886 -0.016,0.005 -0.021,0.005 -0.03,0.005 -0.086,0.025 -0.172,0.05 -0.258,0.065 0.313,0.122 0.627,0.243 0.94,0.37 1.418,0.592 2.814,1.245 4.155,2.014 1.336,0.779 2.657,1.62 3.78,2.718 -0.668,-0.37 -1.351,-0.678 -2.049,-0.956 -0.699,-0.289 -1.397,-0.542 -2.105,-0.77 -0.726,-0.236 -1.454,-0.455 -2.187,-0.657 3.827,1.522 7.826,2.798 10.858,5.364 1.012,-4.044 -2.025,-8.093 -4.555,-11.13 z"
         id="path4061"
         inkscape:connector-curvature="0"
         style="fill:#ac382e" />
      <path
         d="m 340.395,361.21 c 6.004,-3.001 11.999,-6.01 13.604,-12.922 -0.363,-0.324 -0.727,-0.647 -1.101,-0.955 -0.977,-0.789 -1.969,-1.563 -3.006,-2.267 -1.033,-0.718 -2.11,-1.356 -3.188,-1.999 -0.58,-0.331 -1.167,-0.65 -1.758,-0.962 1.767,6.667 0.122,13.964 -4.551,19.105 z"
         id="path4063"
         inkscape:connector-curvature="0"
         style="fill:#ac382e" />
      <path
         d="m 414.011,490.456 c -2.778,0.339 -5.526,-0.197 -8.214,-1.068 -1.554,-0.501 -3.001,-1.363 -4.59,-1.621 -0.395,-0.065 -0.86,-0.214 -1.17,-0.214 -0.015,0 -0.096,0 -0.096,0 -0.01,0 -0.025,0 -0.035,0 -0.314,0 -0.724,0.148 -1.123,0.214 -1.585,0.258 -3.037,1.021 -4.586,1.522 -2.692,0.87 -5.44,1.456 -8.219,1.117 -1.417,-0.177 -2.813,-0.481 -4.154,-0.952 0.118,0.111 0.233,0.234 0.348,0.35 3.073,1.841 6.38,3.747 9.336,2.481 7.592,-3.543 14.171,1.52 21.256,-0.504 1.406,-0.351 3.299,-0.704 4.833,-1.733 0.188,-0.194 0.374,-0.388 0.569,-0.568 -1.347,0.47 -2.738,0.798 -4.155,0.976 z"
         id="path4065"
         inkscape:connector-curvature="0"
         style="fill:#ac382e" />
      <path
         d="m 334.41,337.363 -0.471,0.172 c -0.294,-0.091 -0.582,-0.183 -0.881,-0.269 l 0.132,-0.036 c 0.406,0.032 0.815,0.078 1.22,0.133 z"
         id="path4067"
         inkscape:connector-curvature="0" />
      <path
         d="m 333.575,332.196 c 0.223,0.512 0.425,1.033 0.617,1.559 -0.39,-0.05 -0.779,-0.102 -1.179,-0.147 -0.224,-0.476 -0.451,-0.951 -0.688,-1.412 0.415,-0.01 0.83,-0.01 1.25,0 z"
         id="path4069"
         inkscape:connector-curvature="0" />
      <path
         d="m 332.659,343.639 c 0.582,2.768 0.962,5.628 0.91,8.502 -0.02,1.22 -0.121,2.435 -0.313,3.649 -0.075,0.501 -0.182,1.027 -0.299,1.508 l -0.328,1.442 c -0.218,0.961 -0.425,1.923 -0.628,2.89 -0.395,1.928 -0.739,3.867 -0.931,5.81 -0.192,1.948 -0.229,3.907 -0.081,5.875 0.101,1.493 0.283,2.981 0.485,4.469 l -0.456,0.101 c -0.288,-1.482 -0.546,-2.976 -0.729,-4.494 -0.237,-1.994 -0.323,-4.029 -0.182,-6.043 0.126,-2.014 0.415,-4.003 0.743,-5.972 0.167,-0.982 0.35,-1.964 0.537,-2.946 l 0.283,-1.462 c 0.102,-0.486 0.183,-0.936 0.243,-1.412 0.263,-1.903 0.269,-3.841 0.106,-5.769 -0.157,-1.929 -0.477,-3.852 -0.906,-5.75 -0.81,-3.441 -1.923,-6.796 -3.036,-10.167 1.042,1.311 2.06,2.662 2.996,4.043 0.664,1.859 1.176,3.777 1.586,5.726 z"
         id="path4071"
         inkscape:connector-curvature="0" />
      <path
         d="m 333.575,332.196 c -0.42,-0.01 -0.835,-0.01 -1.25,0 -0.734,-1.432 -1.539,-2.809 -2.399,-4.135 -0.455,-0.703 -0.932,-1.392 -1.411,-2.064 -0.927,-1.63 -1.949,-3.209 -3.027,-4.742 -1.715,-2.424 -3.588,-4.732 -5.576,-6.923 -1.989,-2.191 -4.075,-4.287 -6.302,-6.205 2.339,1.756 4.556,3.705 6.69,5.759 2.131,2.065 4.16,4.256 6.053,6.6 1.894,2.343 3.645,4.838 5.163,7.525 0.754,1.346 1.452,2.738 2.059,4.185 z"
         id="path4073"
         inkscape:connector-curvature="0" />
      <path
         d="m 333.19,337.231 -0.132,0.036 c -0.03,-0.01 -0.07,-0.025 -0.102,-0.03 -0.005,-0.01 -0.005,-0.015 -0.01,-0.025 0.082,0.004 0.163,0.01 0.244,0.019 z"
         id="path4075"
         inkscape:connector-curvature="0" />
      <path
         d="m 332.947,337.211 c 0.005,0.01 0.005,0.015 0.01,0.025 -0.035,-0.015 -0.07,-0.021 -0.105,-0.035 0.035,0.006 0.06,0.006 0.095,0.01 z"
         id="path4077"
         inkscape:connector-curvature="0" />
      <path
         d="m 333.014,333.608 c -0.111,-0.015 -0.233,-0.025 -0.35,-0.041 -0.253,-0.46 -0.512,-0.921 -0.774,-1.372 0.142,0 0.288,0 0.436,0 0.237,0.462 0.464,0.937 0.688,1.413 z"
         id="path4079"
         inkscape:connector-curvature="0" />
      <path
         d="m 332.664,333.567 c -0.243,-0.025 -0.491,-0.05 -0.733,-0.076 -0.143,-0.43 -0.294,-0.855 -0.456,-1.28 0.137,-0.005 0.273,-0.01 0.415,-0.016 0.262,0.451 0.521,0.912 0.774,1.372 z"
         id="path4081"
         inkscape:connector-curvature="0" />
      <path
         d="m 332.325,332.196 c -0.147,0 -0.294,0 -0.436,0 -0.39,-0.653 -0.795,-1.3 -1.215,-1.928 -0.197,-0.456 -0.409,-0.911 -0.622,-1.356 -0.48,-0.987 -0.992,-1.958 -1.538,-2.915 0.479,0.673 0.956,1.361 1.411,2.064 0.861,1.326 1.666,2.703 2.4,4.135 z"
         id="path4083"
         inkscape:connector-curvature="0" />
      <path
         d="m 331.89,332.196 c -0.142,0.005 -0.278,0.011 -0.415,0.016 -0.248,-0.653 -0.511,-1.301 -0.8,-1.943 0.42,0.627 0.825,1.274 1.215,1.927 z"
         id="path4085"
         inkscape:connector-curvature="0" />
      <path
         d="m 331.475,332.211 c 0.162,0.425 0.313,0.85 0.456,1.28 -0.259,-0.025 -0.526,-0.045 -0.785,-0.071 -0.086,-0.136 -0.172,-0.273 -0.253,-0.404 -0.116,-0.258 -0.232,-0.511 -0.354,-0.764 0.308,-0.021 0.622,-0.036 0.936,-0.041 z"
         id="path4087"
         inkscape:connector-curvature="0" />
      <path
         d="m 330.893,333.016 c 0.081,0.131 0.167,0.268 0.253,0.404 -0.025,-0.005 -0.051,-0.005 -0.07,-0.005 -0.062,-0.136 -0.123,-0.268 -0.183,-0.399 z"
         id="path4089"
         inkscape:connector-curvature="0" />
      <path
         d="m 330.675,330.268 c 0.289,0.643 0.552,1.291 0.8,1.943 -0.313,0.005 -0.628,0.02 -0.936,0.041 -0.547,-1.139 -1.145,-2.257 -1.777,-3.346 -1.245,-2.13 -2.646,-4.165 -4.149,-6.108 1.022,1.047 2.009,2.146 2.955,3.29 1.098,1.326 2.14,2.718 3.107,4.18 z"
         id="path4091"
         inkscape:connector-curvature="0" />
      <path
         d="m 330.893,333.016 c 0.061,0.131 0.121,0.263 0.183,0.399 -0.456,-0.041 -0.911,-0.075 -1.367,-0.106 -0.167,-0.329 -0.339,-0.653 -0.521,-0.977 0.405,-0.031 0.806,-0.056 1.215,-0.076 0.16,0.249 0.327,0.502 0.49,0.76 z"
         id="path4093"
         inkscape:connector-curvature="0" />
      <path
         d="m 331.05,337.834 c 0.01,0.025 0.021,0.056 0.025,0.081 -0.937,-1.382 -1.954,-2.733 -2.996,-4.043 -0.106,-0.334 -0.224,-0.668 -0.329,-1.002 l 0.485,-0.273 -0.005,-0.187 c 0.051,-0.005 0.102,-0.005 0.151,-0.01 0.517,0.8 1.008,1.625 1.469,2.465 0.44,0.965 0.84,1.962 1.2,2.969 z"
         id="path4095"
         inkscape:connector-curvature="0" />
      <path
         d="m 330.539,332.252 c 0.121,0.253 0.237,0.506 0.354,0.764 -0.162,-0.258 -0.329,-0.511 -0.491,-0.759 0.045,-0.005 0.09,-0.005 0.137,-0.005 z"
         id="path4097"
         inkscape:connector-curvature="0" />
      <path
         d="m 330.539,332.252 c -0.047,0 -0.092,0 -0.138,0.005 -1.64,-2.475 -3.512,-4.752 -5.511,-6.853 -0.795,-0.825 -1.604,-1.629 -2.435,-2.399 -1.094,-1.229 -2.237,-2.414 -3.416,-3.558 -2.546,-2.475 -5.253,-4.762 -8.077,-6.888 -2.829,-2.12 -5.749,-4.104 -8.806,-5.84 3.152,1.523 6.194,3.31 9.16,5.244 2.96,1.943 5.83,4.064 8.567,6.396 1.63,1.397 3.214,2.87 4.728,4.439 1.503,1.943 2.904,3.978 4.149,6.108 0.635,1.089 1.232,2.207 1.779,3.346 z"
         id="path4099"
         inkscape:connector-curvature="0" />
      <path
         d="m 330.053,328.912 c 0.213,0.445 0.425,0.9 0.622,1.356 -0.967,-1.462 -2.009,-2.854 -3.107,-4.18 -0.946,-1.144 -1.933,-2.243 -2.955,-3.29 -0.517,-0.668 -1.043,-1.321 -1.574,-1.959 -2.115,-2.53 -4.393,-4.909 -6.776,-7.146 -2.398,-2.232 -4.889,-4.353 -7.521,-6.26 2.713,1.767 5.309,3.755 7.813,5.866 2.501,2.121 4.904,4.393 7.156,6.837 1.7,1.848 3.315,3.791 4.804,5.861 0.546,0.956 1.057,1.928 1.538,2.915 z"
         id="path4101"
         inkscape:connector-curvature="0" />
      <path
         d="m 330.401,332.257 c -0.409,0.02 -0.81,0.045 -1.215,0.076 -0.931,-1.686 -1.983,-3.315 -3.117,-4.874 -1.128,-1.544 -2.343,-3.027 -3.613,-4.454 0.83,0.77 1.64,1.574 2.435,2.399 1.999,2.101 3.871,4.378 5.51,6.853 z"
         id="path4103"
         inkscape:connector-curvature="0" />
      <path
         d="m 329.708,333.31 c -0.045,-0.005 -0.101,-0.01 -0.146,-0.01 -0.188,-0.223 -0.369,-0.445 -0.562,-0.663 l -0.016,-0.288 c 0.066,-0.005 0.137,-0.01 0.202,-0.015 0.183,0.323 0.355,0.647 0.522,0.976 z"
         id="path4105"
         inkscape:connector-curvature="0" />
      <path
         d="m 329.046,333.264 c 0.288,0.526 0.551,1.058 0.805,1.599 -0.461,-0.84 -0.952,-1.665 -1.469,-2.465 0.133,-0.015 0.259,-0.025 0.386,-0.036 0.06,0.066 0.116,0.137 0.172,0.203 0.025,0.021 0.045,0.045 0.061,0.071 l 0.045,0.628 z"
         id="path4107"
         inkscape:connector-curvature="0" />
      <path
         d="m 329.562,333.299 c -0.172,-0.015 -0.344,-0.02 -0.516,-0.035 L 329,332.636 c 0.192,0.218 0.374,0.441 0.562,0.663 z"
         id="path4109"
         inkscape:connector-curvature="0" />
      <path
         d="m 329.187,332.333 c -0.065,0.005 -0.136,0.01 -0.202,0.015 -0.07,0.005 -0.142,0.01 -0.217,0.015 -0.582,-0.678 -1.175,-1.351 -1.777,-2.004 -0.972,-1.346 -2.009,-2.637 -3.092,-3.877 -2.551,-2.899 -5.375,-5.526 -8.36,-7.925 -2.991,-2.394 -6.139,-4.57 -9.388,-6.544 -3.26,-1.969 -6.604,-3.78 -10.077,-5.294 3.527,1.356 6.949,3.017 10.294,4.844 3.341,1.837 6.59,3.881 9.707,6.169 2.212,1.625 4.348,3.371 6.382,5.273 1.271,1.427 2.485,2.91 3.613,4.454 1.133,1.559 2.186,3.188 3.117,4.874 z"
         id="path4111"
         inkscape:connector-curvature="0" />
      <path
         d="m 328.984,332.348 0.016,0.288 c -0.016,-0.025 -0.035,-0.05 -0.061,-0.071 -0.056,-0.065 -0.112,-0.137 -0.172,-0.203 0.076,-0.004 0.147,-0.009 0.217,-0.014 z"
         id="path4113"
         inkscape:connector-curvature="0" />
      <path
         d="m 328.768,332.363 c -0.127,0.011 -0.253,0.021 -0.386,0.036 -0.445,-0.693 -0.91,-1.376 -1.392,-2.04 0.603,0.653 1.196,1.326 1.778,2.004 z"
         id="path4115"
         inkscape:connector-curvature="0" />
      <path
         d="m 328.382,332.398 c -0.05,0.005 -0.101,0.005 -0.151,0.01 l 0.005,0.187 -0.485,0.273 c 0.105,0.334 0.223,0.668 0.329,1.002 -0.066,-0.086 -0.137,-0.178 -0.208,-0.264 -1.366,-1.715 -2.793,-3.371 -4.276,-4.975 -2.96,-3.198 -6.134,-6.185 -9.494,-8.897 -6.716,-5.42 -14.247,-9.747 -22.334,-12.303 8.158,2.268 15.871,6.352 22.814,11.579 3.478,2.617 6.771,5.521 9.869,8.66 0.865,0.875 1.716,1.771 2.54,2.687 0.481,0.665 0.946,1.348 1.391,2.041 z"
         id="path4117"
         inkscape:connector-curvature="0" />
      <path
         d="m 387.699,434.219 c -0.754,-3.345 -1.974,-7.394 -5.096,-8.978 -0.016,-0.126 -0.046,-0.253 -0.081,-0.385 0.242,-1.731 -0.466,-3.608 -1.149,-5.137 -0.911,-2.044 -2.429,-3.892 -4.418,-4.777 -2.394,-1.058 -4.768,-0.957 -7.257,-0.369 -2.972,0.698 -5.618,1.67 -8.705,1.7 -0.521,0.005 -0.648,0.851 -0.122,0.972 1.048,0.248 2.08,0.258 3.118,0.121 -2.177,4.459 3.102,10.026 6.64,11.585 2.132,0.947 4.384,1.211 6.602,0.81 0.031,0.092 0.061,0.185 0.107,0.278 3.036,4.555 7.085,8.097 8.604,13.664 0.465,1.861 1.36,2.863 3.074,2.62 0.146,0.556 0.307,1.104 0.501,1.642 0.075,0.223 0.395,0.263 0.46,0 0.506,-2.121 -0.065,-4.296 -0.496,-6.372 -0.522,-2.48 -1.22,-4.91 -1.782,-7.374 z"
         id="path4119"
         inkscape:connector-curvature="0"
         style="fill:none" />
      <path
         d="m 377.719,407.092 c 1.17,2.809 1.943,6.493 4.146,8.265 0.415,0.329 1.088,0.041 1.18,-0.617 0.485,-3.669 -1.307,-7.46 -2.603,-10.552 -1.184,-2.809 -2.591,-6.215 -5.44,-5.618 -0.248,0.045 -0.495,0.456 -0.46,0.784 0.287,2.86 2.14,5.264 3.177,7.738 z"
         id="path4121"
         inkscape:connector-curvature="0"
         style="fill:none" />
      <path
         d="m 418.125,415.357 c 2.207,-1.771 2.981,-5.456 4.15,-8.265 1.037,-2.475 2.89,-4.878 3.179,-7.738 0.035,-0.329 -0.213,-0.739 -0.461,-0.784 -2.85,-0.597 -4.262,2.809 -5.44,5.618 -1.296,3.092 -3.087,6.883 -2.602,10.552 0.092,0.657 0.765,0.946 1.174,0.617 z"
         id="path4123"
         inkscape:connector-curvature="0"
         style="fill:none" />
      <path
         d="m 439.002,416.272 c -3.087,-0.03 -5.734,-1.001 -8.705,-1.7 -2.49,-0.587 -4.863,-0.688 -7.258,0.369 -1.988,0.886 -3.507,2.733 -4.418,4.777 -0.683,1.528 -1.392,3.406 -1.148,5.137 -0.035,0.132 -0.066,0.258 -0.081,0.385 -3.128,1.584 -4.342,5.633 -5.097,8.978 -0.562,2.464 -1.26,4.894 -1.781,7.374 -0.435,2.076 -1.007,4.251 -0.496,6.372 0.062,0.263 0.385,0.223 0.461,0 0.204,-0.571 0.373,-1.156 0.525,-1.748 0.065,0.341 0.143,0.683 0.242,1.029 0.506,0.506 1.518,0 2.024,-0.506 0.994,-7.955 8.822,-10.052 10.537,-16.842 1.876,0.162 3.76,-0.147 5.558,-0.946 3.538,-1.559 8.816,-7.126 6.641,-11.585 1.032,0.137 2.069,0.127 3.117,-0.121 0.526,-0.122 0.395,-0.967 -0.121,-0.973 z"
         id="path4125"
         inkscape:connector-curvature="0"
         style="fill:none" />
      <g
         id="g4127">
        <path
           d="m 376.308,374.136 c -1.159,-1.124 -2.121,-2.434 -2.986,-3.796 -0.855,-1.371 -1.604,-2.804 -2.287,-4.266 -0.674,-1.462 -1.275,-2.986 -1.822,-4.474 -1.108,-2.88 -2.414,-5.679 -3.988,-8.265 -1.544,-2.616 -3.355,-5.026 -5.38,-7.191 -4.043,-4.362 -9.043,-7.596 -14.474,-9.656 -3.148,-1.193 -6.421,-2.001 -9.761,-2.526 -0.472,-0.075 -0.944,-0.144 -1.419,-0.207 -0.39,-0.05 -0.779,-0.102 -1.179,-0.147 -0.111,-0.015 -0.233,-0.025 -0.35,-0.041 -0.243,-0.025 -0.491,-0.05 -0.733,-0.076 -0.259,-0.025 -0.526,-0.045 -0.785,-0.071 -0.025,-0.005 -0.051,-0.005 -0.07,-0.005 -0.456,-0.041 -0.911,-0.075 -1.367,-0.106 -0.045,-0.005 -0.101,-0.01 -0.146,-0.01 -0.172,-0.015 -0.344,-0.02 -0.516,-0.035 0.288,0.526 0.551,1.058 0.805,1.599 0.33,0.726 0.631,1.472 0.916,2.224 0.953,0.878 2.055,1.576 3.075,2.189 1.563,0.938 3.317,1.683 4.79,2.592 0.663,4.099 0.457,8.305 -0.261,12.256 3.259,-3.725 5.229,-7.452 5.918,-12.358 -2.039,-1.046 -4.138,-1.979 -6.283,-2.805 0.117,0.433 0.221,0.869 0.317,1.306 -0.097,-0.437 -0.2,-0.873 -0.317,-1.306 -0.591,-0.228 -1.187,-0.444 -1.782,-0.656 -0.757,-0.269 -1.518,-0.528 -2.284,-0.77 -0.294,-0.091 -0.582,-0.183 -0.881,-0.269 -0.03,-0.01 -0.07,-0.025 -0.102,-0.03 -0.035,-0.015 -0.07,-0.021 -0.105,-0.035 0.035,0.005 0.061,0.005 0.096,0.01 0.081,0.005 0.162,0.01 0.243,0.02 0.405,0.031 0.814,0.076 1.22,0.132 0.563,0.073 1.124,0.164 1.683,0.268 0.543,0.101 1.083,0.214 1.622,0.337 0.862,0.196 1.722,0.417 2.576,0.66 1.225,0.365 2.434,0.77 3.633,1.225 1.195,0.471 2.374,0.987 3.533,1.554 1.169,0.562 2.293,1.215 3.405,1.898 1.109,0.698 2.207,1.432 3.239,2.268 1.033,0.82 2.04,1.71 2.986,2.657 0.48,0.48 0.941,0.972 1.392,1.478 0.44,0.516 0.871,1.047 1.28,1.594 0.825,1.109 1.539,2.212 2.283,3.335 0.733,1.114 1.422,2.268 2.1,3.427 0.673,1.159 1.331,2.333 1.964,3.517 0.628,1.189 1.225,2.399 1.812,3.608 1.185,2.404 2.223,4.889 3.467,7.192 0.617,1.148 1.316,2.242 2.222,3.107 0.243,0.238 0.517,0.456 0.8,0.643 0.106,0.066 0.208,0.131 0.313,0.192 1.022,-0.35 2.05,-0.664 3.087,-0.947 -0.538,-0.365 -1.035,-0.79 -1.499,-1.24 z m -37.679,-32.273 c -0.072,-0.442 -0.156,-0.884 -0.249,-1.324 0.093,0.44 0.178,0.881 0.249,1.324 z"
           id="path4129"
           inkscape:connector-curvature="0"
           style="fill:#ac382e" />
        <path
           d="m 456.189,408.093 c 0.022,-0.024 0.042,-0.049 0.065,-0.073 -0.023,0.023 -0.042,0.049 -0.065,0.073 l 0,0 z"
           id="path4131"
           inkscape:connector-curvature="0"
           style="fill:#e74c3c" />
        <path
           d="m 467.992,361.63 c -0.197,-0.967 -0.404,-1.928 -0.627,-2.89 l -0.329,-1.442 c -0.111,-0.481 -0.218,-1.007 -0.299,-1.508 -0.192,-1.209 -0.288,-2.424 -0.309,-3.634 -0.036,-1.891 0.119,-3.777 0.394,-5.634 0.144,-0.97 0.317,-1.933 0.518,-2.883 0.409,-1.948 0.921,-3.872 1.579,-5.729 0.01,-0.025 0.021,-0.05 0.03,-0.076 0.112,-0.317 0.235,-0.629 0.356,-0.943 -2.408,2.472 -4.591,5.137 -6.943,6.606 -3.542,2.024 -7.085,6.073 -12.146,4.555 2.53,1.012 4.555,3.542 7.591,2.024 -2.53,4.555 -7.085,8.604 -12.652,6.073 1.013,4.555 5.062,7.085 9.616,6.073 -4.049,4.049 -11.134,7.591 -15.688,1.519 -0.507,4.555 3.036,8.097 7.591,8.604 -4.049,4.555 -8.604,3.037 -13.158,1.518 2.53,3.037 5.567,7.085 4.555,11.134 -3.032,-2.566 -7.031,-3.842 -10.858,-5.364 -0.694,-0.191 -1.391,-0.37 -2.09,-0.532 -2.875,-0.678 -5.78,-1.154 -8.695,-1.513 -4.393,-0.538 -8.813,-0.796 -13.244,-0.892 -0.485,-0.01 -0.97,-0.02 -1.455,-0.027 -0.966,-0.013 -1.931,-0.022 -2.897,-0.022 -1.102,0.001 -2.204,0.022 -3.306,0.042 -0.443,0.007 -0.887,0.005 -1.329,0.016 -4.335,0.107 -8.661,0.375 -12.957,0.909 -2.92,0.359 -5.824,0.84 -8.699,1.518 -2.654,0.642 -5.311,1.382 -7.84,2.593 -0.2,0.096 -0.402,0.189 -0.602,0.292 0.197,-0.189 0.407,-0.361 0.614,-0.535 0.253,-3.295 2.988,-5.756 2.506,-9.136 -5.061,3.037 -10.628,7.591 -17.207,5.567 7.616,-3.584 12.452,-11.532 11.706,-19.979 -0.396,-0.61 -0.795,-1.217 -1.195,-1.821 -2.817,6.191 -8.507,12.766 -15.065,13.703 7.99,-3.995 9.572,-13.411 8.64,-21.44 -0.032,-0.029 -0.065,-0.057 -0.098,-0.085 -1.604,6.912 -7.6,9.921 -13.604,12.922 4.674,-5.141 6.318,-12.438 4.551,-19.105 -0.218,-0.115 -0.437,-0.226 -0.656,-0.338 -0.689,4.906 -2.659,8.634 -5.918,12.358 0.718,-3.951 0.924,-8.157 0.261,-12.256 -1.472,-0.91 -3.228,-1.655 -4.79,-2.592 -1.021,-0.613 -2.122,-1.311 -3.075,-2.189 0.095,0.249 0.193,0.496 0.283,0.747 0.01,0.025 0.021,0.056 0.025,0.081 0.662,1.857 1.174,3.775 1.584,5.724 0.582,2.768 0.962,5.628 0.91,8.502 -0.012,0.738 -0.058,1.474 -0.131,2.209 -0.049,0.48 -0.106,0.96 -0.183,1.44 -0.075,0.501 -0.182,1.027 -0.299,1.508 l -0.328,1.442 c -0.218,0.961 -0.425,1.923 -0.628,2.89 -0.395,1.928 -0.739,3.867 -0.931,5.81 -0.192,1.948 -0.229,3.907 -0.081,5.875 0.101,1.493 0.283,2.981 0.485,4.469 0.086,-0.197 0.188,-0.39 0.283,-0.582 0.612,-1.139 1.366,-2.216 2.354,-2.966 -1.169,2.232 -1.686,4.625 -1.938,7.015 -0.126,1.194 -0.156,2.398 -0.126,3.604 0.024,1.205 0.111,2.409 0.243,3.613 0.136,1.2 0.344,2.429 0.581,3.578 0.238,1.169 0.526,2.333 0.917,3.462 0.399,1.128 0.905,2.216 1.522,3.229 0.31,0.506 0.643,0.997 1.008,1.458 0.364,0.456 0.764,0.916 1.169,1.275 l -0.046,0.071 0.086,0.025 c -0.142,0.764 -0.156,1.609 -0.146,2.439 0.021,0.835 0.076,1.67 0.162,2.51 0.172,1.67 0.435,3.33 0.779,4.969 0.344,1.63 0.773,3.244 1.331,4.758 0.111,0.318 0.237,0.632 0.369,0.941 0.035,-3.928 0.633,-8.001 2.991,-9.753 0.404,-0.303 0.931,0.314 0.663,0.856 -1.635,3.274 -2.121,7.368 -1.959,11.417 0.01,0 0.015,0.005 0.025,0.01 l -0.021,0.03 c 0.106,2.581 0.491,5.142 1.008,7.455 1.457,6.473 4.327,12.419 8.107,17.04 1.746,2.135 3.644,4.063 5.693,5.693 2.06,1.634 4.256,2.875 6.366,4.377 3.669,2.622 7.162,6.402 8.315,11.802 0.207,0.977 -0.714,1.589 -1.255,0.951 -1.822,-2.141 -3.315,-4.757 -5.243,-6.741 -0.617,-0.643 -1.266,-1.205 -1.934,-1.731 0.547,0.78 1.053,1.615 1.493,2.521 1.584,3.305 2.677,6.948 4.186,10.309 0.526,1.173 1.877,4.448 3.917,7.743 0.927,1.498 1.999,3.001 3.204,4.317 3.846,4.205 10.07,4.681 12.429,4.63 2.885,-0.066 5.598,-1.053 8.366,-2.024 1.047,-0.369 1.953,-0.562 2.996,-0.627 0.01,-0.891 -0.071,-4.838 -0.086,-5.927 -0.393,-0.055 -0.81,-0.162 -1.227,-0.27 -0.084,-0.022 -0.167,-0.042 -0.251,-0.063 -1.19,-0.304 -5.163,-2.916 -3.847,-5.005 0.111,-0.172 0.258,-0.344 0.45,-0.511 0.121,-1.331 -0.269,-2.282 -1.189,-2.95 -0.177,-0.126 -0.45,-0.249 -0.734,-0.395 -1.831,1.392 -2.925,-3.604 -2.844,-5.162 0.051,-0.982 0.562,-2.916 1.296,-4.135 0.759,-1.26 2.702,-2.047 3.305,-2.285 1.271,-0.501 3.669,-1.055 5.663,-1.055 0.01,0 0.025,0 0.035,0 0,0 0.081,0 0.096,0 1.99,0 4.419,0.554 5.685,1.055 0.606,0.238 2.565,0.945 3.319,2.206 0.739,1.22 1.25,3.193 1.306,4.175 0.081,1.559 -1.012,6.574 -2.845,5.177 -0.283,0.152 -0.556,0.283 -0.729,0.41 -0.921,0.668 -1.315,1.622 -1.188,2.958 0.192,0.161 0.333,0.334 0.445,0.512 1.315,2.085 -2.652,4.703 -3.842,5.006 -0.501,0.126 -1.007,0.269 -1.482,0.334 -0.001,0.127 -0.004,0.297 -0.006,0.494 1.61,3.606 6.149,4.878 10.37,4.764 0.604,-0.016 1.2,-0.061 1.78,-0.131 0.516,-0.063 1.02,-0.145 1.503,-0.246 -0.483,0.101 -0.987,0.183 -1.503,0.246 -0.58,0.07 -1.177,0.115 -1.78,0.131 -4.221,0.114 -8.76,-1.158 -10.37,-4.764 -0.022,1.48 -0.084,4.646 -0.075,5.432 1.043,0.066 1.948,0.258 2.996,0.627 2.769,0.972 5.48,1.958 8.365,2.024 2.358,0.051 8.584,-0.425 12.43,-4.63 0.724,-0.79 1.397,-1.645 2.024,-2.53 2.703,-3.822 4.469,-8.138 5.097,-9.53 1.508,-3.361 2.602,-7.004 4.186,-10.309 0.435,-0.906 0.946,-1.741 1.487,-2.521 -0.663,0.526 -1.311,1.088 -1.928,1.731 -1.929,1.984 -3.421,4.601 -5.248,6.741 -0.542,0.638 -1.458,0.025 -1.25,-0.951 1.148,-5.4 4.641,-9.181 8.314,-11.802 2.105,-1.503 4.307,-2.743 6.367,-4.377 2.049,-1.63 3.947,-3.558 5.693,-5.693 3.775,-4.621 6.649,-10.567 8.107,-17.04 0.517,-2.313 0.896,-4.874 1.007,-7.455 l -0.021,-0.03 c 0.011,-0.005 0.016,-0.01 0.025,-0.01 0.162,-4.049 -0.328,-8.143 -1.958,-11.417 -0.045,-0.089 -0.062,-0.179 -0.067,-0.268 -0.023,0.024 -0.043,0.049 -0.065,0.073 v 0 c 0.022,-0.024 0.042,-0.05 0.065,-0.074 -0.028,-0.451 0.392,-0.842 0.73,-0.588 0.009,0.007 0.017,0.016 0.026,0.023 0.048,0.036 0.091,0.079 0.137,0.117 2.219,1.813 2.793,5.781 2.828,9.613 0.131,-0.309 0.258,-0.623 0.369,-0.941 0.557,-1.514 0.981,-3.127 1.331,-4.758 0.344,-1.639 0.606,-3.299 0.779,-4.969 0.081,-0.84 0.142,-1.675 0.162,-2.51 0.005,-0.653 0,-1.326 -0.076,-1.949 -0.021,-0.167 -0.046,-0.334 -0.076,-0.491 l 0.086,-0.025 -0.04,-0.071 c 0.399,-0.359 0.805,-0.82 1.164,-1.275 0.369,-0.46 0.703,-0.951 1.012,-1.458 0.618,-1.012 1.124,-2.101 1.523,-3.229 0.39,-1.129 0.679,-2.293 0.916,-3.462 0.238,-1.149 0.445,-2.378 0.577,-3.578 0.137,-1.204 0.218,-2.409 0.248,-3.613 0.025,-1.205 0,-2.409 -0.127,-3.604 -0.253,-2.389 -0.774,-4.783 -1.938,-7.015 0.987,0.75 1.741,1.827 2.349,2.966 0.102,0.192 0.197,0.385 0.288,0.582 0.203,-1.488 0.38,-2.976 0.486,-4.469 0.146,-1.969 0.106,-3.927 -0.081,-5.875 -0.188,-1.946 -0.531,-3.884 -0.932,-5.813 z m -124.71,39.126 c -0.354,-1.23 -0.684,-2.455 -1.063,-3.649 -0.38,-1.189 -0.789,-2.364 -1.32,-3.416 -0.264,-0.532 -0.552,-1.027 -0.891,-1.448 -0.329,-0.42 -0.693,-0.764 -1.079,-0.941 -0.384,-0.188 -0.764,-0.172 -1.193,-0.111 -0.436,0.051 -0.946,0.167 -1.6,0.263 l -0.263,-0.288 c 0.202,-0.775 0.743,-1.336 1.447,-1.629 0.11,-0.046 0.228,-0.081 0.349,-0.107 0,-0.045 0.011,-0.091 0.011,-0.136 0.177,-1.645 0.177,-3.295 0.024,-4.935 -0.034,-0.392 -0.08,-0.782 -0.13,-1.171 -0.184,-1.437 -0.46,-2.859 -0.811,-4.264 -0.151,-0.616 -0.319,-1.227 -0.495,-1.835 -0.315,-1.089 -0.666,-2.169 -1.049,-3.24 -0.021,-0.071 -0.046,-0.137 -0.071,-0.208 -0.612,-1.741 -1.326,-3.442 -2.064,-5.127 l -0.015,-0.025 c -0.071,-0.172 -0.081,-0.349 -0.041,-0.516 0.369,-1.513 0.653,-3.062 0.896,-4.616 0.094,-0.601 0.175,-1.203 0.248,-1.809 0.022,-0.18 0.046,-0.358 0.066,-0.539 0.096,-0.779 0.177,-1.569 0.243,-2.358 0.136,-1.579 0.242,-3.163 0.298,-4.757 0.021,-0.572 0.041,-1.144 0.051,-1.715 0.025,-1.023 0.03,-2.05 0.021,-3.077 0.263,1.579 0.415,3.178 0.521,4.783 0.096,1.604 0.141,3.218 0.105,4.828 -0.024,1.614 -0.116,3.229 -0.293,4.838 -0.104,1.061 -0.254,2.118 -0.44,3.172 -0.078,0.445 -0.161,0.889 -0.253,1.333 0.202,0.427 0.386,0.867 0.578,1.302 0.534,1.208 1.044,2.431 1.502,3.678 0.647,1.787 1.194,3.624 1.614,5.496 0.41,1.878 0.688,3.801 0.749,5.744 0.029,1.102 -0.015,2.211 -0.138,3.308 -0.069,0.606 -0.155,1.209 -0.282,1.804 0.326,0.036 0.653,0.131 0.957,0.267 0.039,0.018 0.082,0.028 0.121,0.047 0.698,0.354 1.229,0.896 1.64,1.468 0.409,0.587 0.714,1.199 0.981,1.816 0.506,1.255 0.825,2.536 1.053,3.826 0.126,0.733 0.22,1.466 0.285,2.201 0.051,0.559 0.086,1.119 0.1,1.68 l -0.369,0.063 z m 31.721,-2.186 c 2.85,-0.597 4.257,2.809 5.44,5.618 1.296,3.092 3.088,6.883 2.603,10.552 -0.092,0.658 -0.765,0.946 -1.18,0.617 -2.202,-1.771 -2.976,-5.456 -4.146,-8.265 -1.037,-2.475 -2.89,-4.878 -3.178,-7.738 -0.034,-0.329 0.213,-0.739 0.461,-0.784 z m 14.976,49.394 c -0.065,0.263 -0.385,0.223 -0.46,0 -0.194,-0.537 -0.355,-1.086 -0.501,-1.642 -0.426,-1.623 -0.709,-3.302 -1.21,-4.897 -0.668,-2.105 -1.336,-4.246 -2.231,-6.255 -0.72,-1.625 -1.271,-3.396 -2.146,-4.929 -0.521,-0.917 -1.158,-1.741 -1.751,-2.596 -0.663,0.698 -1.559,1.229 -2.333,1.528 -0.697,0.265 -1.403,0.459 -2.113,0.587 -2.218,0.401 -4.47,0.137 -6.602,-0.81 -3.537,-1.559 -8.816,-7.126 -6.64,-11.585 -1.038,0.137 -2.07,0.127 -3.118,-0.121 -0.526,-0.122 -0.399,-0.967 0.122,-0.972 3.087,-0.03 5.733,-1.001 8.705,-1.7 2.489,-0.587 4.863,-0.688 7.257,0.369 1.989,0.886 3.507,2.733 4.418,4.777 0.684,1.528 1.392,3.406 1.149,5.137 0.035,0.132 0.065,0.258 0.081,0.385 3.122,1.584 4.342,5.633 5.096,8.978 0.562,2.464 1.26,4.894 1.781,7.374 0.43,2.076 1.001,4.252 0.496,6.372 z m 29.576,-43.776 c 1.18,-2.809 2.591,-6.215 5.44,-5.618 0.248,0.045 0.496,0.456 0.461,0.784 -0.289,2.86 -2.142,5.264 -3.179,7.738 -1.169,2.809 -1.943,6.493 -4.15,8.265 -0.409,0.329 -1.082,0.041 -1.174,-0.617 -0.485,-3.67 1.306,-7.46 2.602,-10.552 z m 19.57,13.057 c -1.048,0.248 -2.085,0.258 -3.117,0.121 2.176,4.459 -3.103,10.026 -6.641,11.585 -1.798,0.799 -3.681,1.108 -5.558,0.946 -1.06,-0.091 -2.117,-0.33 -3.157,-0.724 -0.774,-0.298 -1.67,-0.83 -2.333,-1.528 -0.592,0.855 -1.229,1.68 -1.751,2.596 -0.875,1.534 -1.427,3.305 -2.146,4.929 -0.896,2.009 -1.564,4.149 -2.231,6.255 -0.491,1.561 -0.776,3.201 -1.186,4.792 -0.152,0.592 -0.321,1.176 -0.525,1.748 -0.076,0.223 -0.399,0.263 -0.461,0 -0.511,-2.121 0.062,-4.296 0.496,-6.372 0.521,-2.479 1.22,-4.909 1.782,-7.374 0.754,-3.345 1.968,-7.394 5.096,-8.978 0.016,-0.126 0.046,-0.253 0.081,-0.385 -0.243,-1.731 0.466,-3.608 1.148,-5.137 0.911,-2.044 2.43,-3.892 4.418,-4.777 2.395,-1.058 4.768,-0.957 7.258,-0.369 2.971,0.698 5.618,1.67 8.705,1.7 0.517,0.005 0.648,0.85 0.122,0.972 z m 16.152,-7.45 c 0,-0.037 0.006,-0.082 0.017,-0.133 -0.011,0.051 -0.017,0.096 -0.017,0.133 z m 0.046,-0.242 c 0.006,-0.021 0.01,-0.04 0.018,-0.063 -0.008,0.023 -0.012,0.041 -0.018,0.063 z m 0.09,-0.257 c 10e-4,-10e-4 10e-4,-0.003 0.002,-0.005 -0.001,0.002 -0.001,0.004 -0.002,0.005 z m 11.512,-40.813 -0.01,0.03 c -0.739,1.685 -1.453,3.386 -2.07,5.127 -0.025,0.07 -0.051,0.136 -0.071,0.208 -0.592,1.67 -1.123,3.355 -1.538,5.076 -0.445,1.787 -0.779,3.599 -0.941,5.436 -0.151,1.64 -0.151,3.29 0.021,4.935 0,0.045 0.01,0.091 0.01,0.136 0.121,0.026 0.243,0.061 0.354,0.107 0.698,0.293 1.24,0.854 1.447,1.629 l -0.264,0.288 c -0.652,-0.096 -1.163,-0.212 -1.599,-0.263 -0.31,-0.043 -0.593,-0.061 -0.87,10e-4 -0.108,0.024 -0.217,0.058 -0.324,0.11 -0.385,0.177 -0.754,0.521 -1.083,0.941 -0.334,0.42 -0.622,0.916 -0.886,1.448 -0.531,1.052 -0.941,2.227 -1.326,3.416 -0.38,1.194 -0.703,2.419 -1.063,3.649 l -0.364,-0.066 c 0.03,-1.3 0.161,-2.591 0.385,-3.881 0.223,-1.291 0.546,-2.571 1.053,-3.826 0.263,-0.617 0.571,-1.229 0.981,-1.816 0.41,-0.572 0.941,-1.114 1.64,-1.468 0.322,-0.163 0.688,-0.267 1.054,-0.309 0.008,-0.001 0.017,-0.004 0.024,-0.005 -0.008,-0.036 -0.012,-0.072 -0.02,-0.108 -0.341,-1.636 -0.45,-3.329 -0.401,-5.003 0.062,-1.943 0.335,-3.866 0.75,-5.744 0.42,-1.873 0.967,-3.709 1.614,-5.496 0.622,-1.696 1.311,-3.366 2.08,-4.98 -0.31,-1.493 -0.547,-2.996 -0.693,-4.504 -0.178,-1.609 -0.269,-3.224 -0.294,-4.838 -0.035,-1.61 0.011,-3.224 0.106,-4.828 0.106,-1.604 0.259,-3.204 0.521,-4.783 -0.004,0.382 -0.003,0.764 -0.003,1.146 0.002,0.65 0.007,1.299 0.023,1.946 0.01,0.566 0.024,1.133 0.045,1.7 0.04,1.039 0.104,2.073 0.177,3.104 0.038,0.551 0.076,1.103 0.122,1.653 0.071,0.79 0.152,1.579 0.248,2.358 0.086,0.79 0.192,1.569 0.309,2.348 0.094,0.588 0.195,1.174 0.302,1.759 0.176,0.96 0.369,1.916 0.599,2.857 0.041,0.175 0.026,0.358 -0.045,0.51 z"
           id="path4133"
           inkscape:connector-curvature="0"
           style="fill:#e74c3c" />
        <path
           d="m 391.508,492.288 c -2.956,1.267 -6.263,-0.637 -9.336,-2.479 0.022,0.022 0.045,0.044 0.066,0.065 0.243,0.243 0.481,0.498 0.709,0.756 0.698,0.774 1.366,1.59 2.064,2.314 1.554,1.605 3.123,3.164 4.944,4.207 3.052,1.746 6.827,2.91 9.95,2.591 0.01,0 0.025,0.005 0.035,0.005 0,0 0.081,-0.005 0.096,-0.005 3.118,0.318 6.924,-0.845 9.971,-2.591 1.822,-1.043 3.406,-2.601 4.954,-4.206 0.889,-0.917 1.729,-1.966 2.635,-2.897 -1.534,1.029 -3.427,1.382 -4.833,1.733 -7.084,2.025 -13.663,-3.036 -21.255,0.507 z"
           id="path4135"
           inkscape:connector-curvature="0"
           style="fill:#e74c3c" />
      </g>
    </g>
  </g>
</svg>
