<?xml version="1.0" encoding="UTF-8" standalone="no"?>
<!-- Created with Inkscape (http://www.inkscape.org/) -->

<svg
   xmlns:dc="http://purl.org/dc/elements/1.1/"
   xmlns:cc="http://creativecommons.org/ns#"
   xmlns:rdf="http://www.w3.org/1999/02/22-rdf-syntax-ns#"
   xmlns:svg="http://www.w3.org/2000/svg"
   xmlns="http://www.w3.org/2000/svg"
   xmlns:sodipodi="http://sodipodi.sourceforge.net/DTD/sodipodi-0.dtd"
   xmlns:inkscape="http://www.inkscape.org/namespaces/inkscape"
   version="1.1"
   id="Layer_1"
   x="0px"
   y="0px"
   width="314.60599"
   height="72.105003"
   viewBox="0 0 314.60599 72.105003"
   enable-background="new 0 0 315 70"
   xml:space="preserve"
   inkscape:version="0.48.3.1 r9886"
   sodipodi:docname="logo_text.svg"><title
   id="title3002">Caracal - Text logo</title><metadata
   id="metadata25"><rdf:RDF><cc:Work
       rdf:about=""><dc:format>image/svg+xml</dc:format><dc:type
         rdf:resource="http://purl.org/dc/dcmitype/StillImage" /><dc:title>Caracal - Text logo</dc:title><dc:creator><cc:Agent><dc:title>Michael Kerch</dc:title></cc:Agent></dc:creator><dc:rights><cc:Agent><dc:title>Way2CU ltd.</dc:title></cc:Agent></dc:rights><dc:publisher><cc:Agent><dc:title>Way2CU ltd.</dc:title></cc:Agent></dc:publisher><dc:subject><rdf:Bag><rdf:li>Caracal</rdf:li></rdf:Bag></dc:subject><dc:contributor><cc:Agent><dc:title></dc:title></cc:Agent></dc:contributor></cc:Work></rdf:RDF></metadata><defs
   id="defs23" /><sodipodi:namedview
   pagecolor="#ffffff"
   bordercolor="#666666"
   borderopacity="1"
   objecttolerance="10"
   gridtolerance="10"
   guidetolerance="10"
   inkscape:pageopacity="0"
   inkscape:pageshadow="2"
   inkscape:window-width="1362"
   inkscape:window-height="724"
   id="namedview21"
   showgrid="false"
   fit-margin-top="2"
   fit-margin-left="2"
   fit-margin-bottom="2"
   fit-margin-right="2"
   inkscape:zoom="3.5301587"
   inkscape:cx="107.39898"
   inkscape:cy="34.543743"
   inkscape:window-x="0"
   inkscape:window-y="42"
   inkscape:window-maximized="0"
   inkscape:current-layer="Layer_1" />
<g
   id="g3"
   transform="translate(-0.197,1.053)">
	<path
   d="m 48.344,59.146 c -2.419,1.188 -4.703,2.051 -6.844,2.57 -2.233,0.544 -4.408,0.815 -6.519,0.815 -3.141,0 -6.13,-0.647 -8.967,-1.946 -2.838,-1.299 -5.344,-3.154 -7.516,-5.571 -2.174,-2.412 -3.895,-5.296 -5.162,-8.647 -1.268,-3.352 -1.902,-7.079 -1.902,-11.185 0,-4.588 0.634,-8.618 1.902,-12.09 1.268,-3.471 2.988,-6.354 5.162,-8.648 2.172,-2.294 4.678,-4.016 7.516,-5.163 2.837,-1.146 5.826,-1.721 8.967,-1.721 2.111,0 4.256,0.18 6.43,0.543 2.172,0.362 4.586,0.966 7.245,1.811 L 51.01,4.076 C 48.233,3.064 45.502,2.305 42.815,1.799 40.128,1.292 37.517,1.04 34.982,1.04 c -4.65,0 -8.967,0.828 -12.951,2.487 -3.986,1.659 -7.457,3.995 -10.416,7.009 -2.958,3.015 -5.269,6.618 -6.927,10.809 -1.663,4.19 -2.491,8.817 -2.491,13.882 0,5.247 0.828,9.949 2.491,14.11 1.658,4.159 3.968,7.702 6.927,10.626 2.959,2.925 6.43,5.171 10.416,6.737 3.984,1.568 8.301,2.352 12.951,2.352 2.535,0 5.13,-0.316 7.788,-0.949 0.865,-0.207 1.743,-0.479 2.627,-0.777 l 2.947,-8.18 z"
   id="path5"
   inkscape:connector-curvature="0"
   style="fill:#e64c3c" />
	<path
   d="m 227.184,59.146 c -2.418,1.188 -4.703,2.051 -6.842,2.57 -2.235,0.544 -4.408,0.815 -6.521,0.815 -3.14,0 -6.127,-0.647 -8.965,-1.946 -2.84,-1.299 -5.344,-3.154 -7.518,-5.571 -2.173,-2.412 -3.895,-5.296 -5.162,-8.647 -1.27,-3.352 -1.901,-7.079 -1.901,-11.185 0,-4.588 0.632,-8.618 1.901,-12.09 1.268,-3.471 2.989,-6.354 5.162,-8.648 2.174,-2.294 4.678,-4.016 7.518,-5.163 2.838,-1.146 5.825,-1.721 8.965,-1.721 2.113,0 4.257,0.18 6.43,0.543 2.175,0.362 4.588,0.966 7.246,1.811 l 2.354,-5.838 c -2.776,-1.012 -5.51,-1.771 -8.196,-2.277 -2.688,-0.507 -5.297,-0.759 -7.834,-0.759 -4.65,0 -8.965,0.828 -12.951,2.487 -3.984,1.659 -7.457,3.995 -10.413,7.009 -2.958,3.015 -5.271,6.618 -6.929,10.809 -1.66,4.19 -2.49,8.817 -2.49,13.882 0,5.247 0.83,9.949 2.49,14.11 1.658,4.159 3.971,7.702 6.929,10.626 2.956,2.925 6.429,5.171 10.413,6.737 3.986,1.568 8.301,2.352 12.951,2.352 2.537,0 5.133,-0.316 7.79,-0.949 0.862,-0.207 1.741,-0.479 2.626,-0.777 l 2.947,-8.18 z"
   id="path7"
   inkscape:connector-curvature="0"
   style="fill:#e64c3c" />
	<path
   d="m 276.579,2.126 h 8.693 v 59.318 h 27.531 l -0.093,6.521 H 276.578 V 2.126 z"
   id="path9"
   inkscape:connector-curvature="0"
   style="fill:#e64c3c" />
	<polygon
   points="56.096,67.966 61.531,52.208 66.541,52.208 74.075,52.208 70.005,45.687 66.541,45.687 64.429,45.687 63.342,45.869 64.338,43.966 74.48,14.895 75.116,12.269 75.749,14.895 94.133,67.966 95.975,67.966 95.975,47.448 79.643,2.126 71.221,2.126 47.493,67.966 "
   id="polygon11"
   style="fill:#e64c3c" />
	<path
   d="m 181.278,49.337 c -1.66,-4.161 -2.49,-8.863 -2.49,-14.11 0,-1.665 0.1,-3.278 0.278,-4.847 L 168.883,2.126 h -8.422 l -23.729,65.84 h 8.604 l 5.435,-15.758 h 5.032 7.537 l -4.069,-6.521 h -3.468 -2.134 l -1.086,0.183 0.996,-1.903 10.143,-29.071 0.635,-2.626 0.633,2.626 18.384,53.071 h 1.843 V 56.431 c -1.56,-2.13 -2.894,-4.475 -3.939,-7.094 z"
   id="path13"
   inkscape:connector-curvature="0"
   style="fill:#e64c3c" />
	<g
   id="g15">
		<polygon
   points="234.938,67.966 240.374,52.208 245.387,52.208 252.917,52.208 248.847,45.687 245.387,45.687 243.27,45.687 242.182,45.869 243.178,43.966 253.323,14.895 253.956,12.269 254.59,14.895 272.975,67.966 274.818,67.966 274.818,47.448 258.485,2.126 250.061,2.126 226.334,67.966 "
   id="polygon17"
   style="fill:#e64c3c" />
	</g>
	<path
   d="m 137.176,30.025 c 2.023,-2.742 3.034,-5.923 3.034,-9.542 v -0.179 c 0,-2.592 -0.559,-5.066 -1.676,-7.417 -1.118,-2.351 -2.716,-4.417 -4.799,-6.194 -2.083,-1.781 -4.605,-3.182 -7.562,-4.207 -2.96,-1.025 -6.249,-1.539 -9.871,-1.539 -3.322,0 -6.401,0.182 -9.238,0.544 -2.838,0.363 -5.947,0.874 -9.327,1.537 v 64.938 h 8.603 V 8.283 c 2.173,-0.421 3.953,-0.663 5.343,-0.724 1.389,-0.06 2.928,-0.091 4.62,-0.091 2.051,0 3.969,0.333 5.75,0.997 1.78,0.664 3.337,1.571 4.665,2.716 1.328,1.148 2.385,2.49 3.171,4.03 0.783,1.54 1.176,3.216 1.176,5.027 0,1.873 -0.393,3.593 -1.176,5.162 -0.786,1.57 -1.798,2.914 -3.035,4.031 -1.239,1.118 -2.643,2.008 -4.212,2.671 -1.459,0.62 -4.272,1.026 -4.66,1.081 l -2.999,0.004 -3.85,6.168 h 6.036 c 1.254,0.01 2.248,0.013 2.554,0 h 0.127 c 2.346,0.904 4.167,2.413 5.464,4.521 1.298,2.114 2.369,4.527 3.215,7.246 0.845,2.715 1.614,5.556 2.31,8.512 0.694,2.958 1.644,5.738 2.853,8.332 h 0.924 l 4.2,-11.654 c -0.533,-1.949 -1.076,-3.855 -1.637,-5.665 -0.814,-2.624 -1.811,-5.021 -2.988,-7.19 -1.178,-2.17 -2.885,-4.008 -5.117,-5.517 l -1.811,-0.725 2.173,-0.724 c 3.136,-1.567 5.717,-3.722 7.74,-6.466 z"
   id="path19"
   inkscape:connector-curvature="0"
   style="fill:#e64c3c" />
</g>
</svg>
