<svg xmlns="http://www.w3.org/2000/svg" viewBox="0 0 48 24" enable-background="new 0 0 48 24"><g fill="#939393"><path d="M17,12V4.7L13.3,1h-2.1H1v23h16v-2h2.3H20V12H17z M16,5.6V7h-4V2L16,5.6z M16,23H2V2h9v6h5v4h-6v0.6V22h6
		V23z"/><path d="m12 14.8l2-1.2 2.1 3 7.9-10.9v2.3l-7.7 12.3z"/></g><path fill="#fff" d="m15 22h-14v-21h9v6h5v4h-6v.6 9.4h6z"/><path fill="#5a5a5a" d="M16,11V3.7L12.3,0h-2.1H0v23h16v-2h2.3H19V11H16z M15,4.6V6h-4V1L15,4.6z M15,22H1V1h9v6h5v4H9v0.6V21h6V22
		z"/><g fill="#939393"><path d="m2 2h7v7h-7z"/><path d="m2 16h6v2h-6z"/><path d="m2 13h6v2h-6z"/><path d="m2 10h6v2h-6z"/></g><path fill="#fff" d="m15 4.6v1.4h-4v-5z"/><path fill="#d6d6d6" d="m10 12h8v8h-8z"/><path fill="#5a5a5a" d="m11 13.8l2-1.2 2.1 3 7.9-10.9v2.3l-7.7 12.3z"/><g fill="#939393"><path d="M41,12V4.7L37.3,1h-2.1H25v23h16v-2h2.3H44V12H41z M40,5.6V7h-4V2L40,5.6z M40,23H26V2h9v6h5v4h-6v0.6V22h6
		V23z"/><path d="m36 14.8l2-1.2 2.1 3 7.9-10.9v2.3l-7.7 12.3z"/></g><path fill="#fff" d="m39 22h-14v-21h9v6h5v4h-6v.6 9.4h6z"/><path fill="#5a5a5a" d="M40,11V3.7L36.3,0h-2.1H24v23h16v-2h2.3H43V11H40z M39,4.6V6h-4V1L39,4.6z M39,22H25V1h9v6h5v4h-6v0.6V21h6
		V22z"/><path fill="#e74c3c" d="m26 2h7v7h-7z"/><g fill="#ac382e"><path d="m26 16h6v2h-6z"/><path d="m26 13h6v2h-6z"/><path d="m26 10h6v2h-6z"/></g><g fill="#fff"><path d="m39 4.6v1.4h-4v-5z"/><path d="m34 12h8v8h-8z"/></g><path fill="#e74c3c" d="m35 13.8l2-1.2 2.1 3 7.9-10.9v2.3l-7.7 12.3z"/></svg>