<svg xmlns="http://www.w3.org/2000/svg" viewBox="0 0 48 24" enable-background="new 0 0 48 24"><path fill="#939393" d="m1 13.4s0-.1 0-.1c0-.4 0-.7 0-1.1 0-.3.1-.6.2-.9.1-.4.2-.7.4-1.1.1-.1.3-.3.4-.4.7-.4 1.4-.6 2.1-.8 0 0 0 0 .1 0 0 0 0-.1-.1-.1-.4-.6-.7-1.3-.9-2 0-.2-.1-.3-.1-.5 0-.5 0-1 0-1.5 0-.8.5-1.5 1.4-1.7.5-.1.9-.1 1.4 0 .6.2 1 .6 1.2 1.2.2.3.2.6.2.9 0 .4 0 .7 0 1.1 0 .4-.1.8-.3 1.2-.2.3-.3.6-.5 1 0 .1 0 .1 0 .2 0 .2 0 .3.1.5 0 .1.3.3.5.3 0 0 .1 0 .1-.1.2-.3.5-.5.9-.7.4-.2.8-.5 1.3-.7.6-.3 1.2-.6 1.8-.7 0 0 .1 0 .1 0 0 0 0 0 0-.1-.4-.4-.6-.9-.8-1.4-.2-.4-.2-.8-.2-1.2 0-.4 0-.9 0-1.3 0-.5.2-1 .7-1.4.3-.2.6-.3 1-.4.4-.1.8 0 1.2 0 .7.2 1.2.7 1.3 1.4.1.3 0 .6 0 .9 0 .2 0 .4 0 .6 0 .6-.1 1.1-.3 1.6-.2.3-.4.7-.5 1-.1.2-.1.5 0 .7 0 .1.1.1.2.2.3.1.6.2.9.3 0 0 .1 0 .1 0 .3.1.5 0 .7-.1.5-.3 1-.5 1.5-.8.5-.3 1.1-.5 1.6-.6 0 0 .1 0 .1 0 0-.1-.1-.1-.1-.2-.3-.4-.5-.9-.7-1.4-.1-.3-.2-.7-.2-1.1 0-.5 0-.9 0-1.4-.3-.8.2-1.6 1.2-1.7.4 0 .8 0 1.2 0 .6.1 1.1.5 1.3 1.1.1.2.1.4.1.6 0 .5 0 .9 0 1.4 0 .4-.1.8-.3 1.2-.1.3-.3.6-.4.9 0 0 0 0 0 .1.3.1.6.3.9.4.3.3 2.2.9 2.2.9v16.4h-23c0 0 0-10.2 0-10.6"/><path fill="#5a5a5a" d="m0 12.4c0 0 0-.1 0-.1 0-.4 0-.7 0-1.1 0-.3.1-.6.2-.9.1-.3.3-.7.4-1 .1-.2.3-.4.4-.5.7-.4 1.4-.6 2.1-.8 0 0 0 0 .1 0 0 0 0-.1-.1-.1-.4-.6-.7-1.3-.9-2 0-.2-.1-.3-.1-.5 0-.5 0-1 0-1.5 0-.8.5-1.5 1.4-1.7.5-.1.9-.1 1.4 0 .6.2 1 .6 1.2 1.2.2.3.2.6.2.9 0 .4 0 .7 0 1.1 0 .4-.1.8-.3 1.2-.2.3-.3.6-.5 1 0 .1 0 .1 0 .2 0 .2 0 .3.1.5 0 .1.3.3.5.3 0 0 .1 0 .1-.1.2-.3.5-.5.9-.7.4-.2.8-.5 1.3-.7.6-.3 1.2-.6 1.8-.7 0 0 .1 0 .1 0 0 0 0 0 0-.1-.4-.4-.7-.9-.9-1.4-.1-.4-.2-.8-.2-1.2 0-.4 0-.9 0-1.3 0-.5.2-1 .7-1.4.3-.2.6-.3 1-.4.4-.1.8 0 1.2 0 .7.2 1.2.7 1.3 1.4.1.3 0 .6 0 .9 0 .2 0 .4 0 .6 0 .6-.1 1.1-.3 1.6-.2.3-.4.7-.5 1-.1.2-.1.5 0 .7 0 .1.1.1.2.2.3.1.6.2.9.3 0 0 .1 0 .1 0 .3.1.5 0 .7-.1.5-.3 1-.5 1.5-.8.5-.3 1.1-.5 1.6-.6 0 0 .1 0 .1 0 0-.1-.1-.1-.1-.2-.3-.4-.5-.9-.7-1.4-.1-.3-.2-.7-.2-1.1 0-.5 0-.9 0-1.4-.2-.8.3-1.6 1.3-1.7.4 0 .8 0 1.2 0 .6.1 1.1.5 1.3 1.1.1.2.1.4.1.6 0 .5 0 .9 0 1.4 0 .4-.1.8-.3 1.2-.1.3-.3.6-.4.9 0 0 0 0 0 .1.3.1.6.3.9.4.3.3 2.2.9 2.2.9v16.4h-23c0 0 0-10.2 0-10.6"/><path fill="#fff" d="m16.2 7.6l1.8 2.8-6.2 4-3.7-4.3-8.1 3.8v2.4l7.5-3.4 3.8 4.5 7.9-5.2 1.7 2.8 3.1-7.2z"/><path fill="#939393" d="m25 13.4s0-.1 0-.1c0-.4 0-.7 0-1.1 0-.3.1-.6.2-.9.1-.4.2-.7.4-1.1.1-.2.2-.4.4-.5.7-.4 1.4-.6 2.1-.8 0 0 0 0 .1 0 0 0 0-.1-.1-.1-.4-.6-.7-1.2-.9-1.9 0-.2-.1-.3-.1-.5 0-.5 0-1 0-1.5 0-.8.5-1.5 1.4-1.7.5-.1.9-.1 1.4 0 .6.2 1 .6 1.2 1.2.1.3.1.6.1.9 0 .4 0 .7 0 1.1 0 .4-.1.8-.3 1.2-.2.3-.3.6-.5 1 0 .1 0 .1 0 .2 0 .2 0 .3.1.5 0 .1.3.3.5.3 0 0 .1 0 .1-.1.3-.3.6-.5.9-.6.4-.2.8-.5 1.3-.7.6-.3 1.2-.6 1.8-.7 0 0 .1 0 .1 0 0 0 0 0 0-.1-.4-.4-.6-.9-.8-1.4-.2-.4-.2-.8-.2-1.2 0-.4 0-.9 0-1.3 0-.5.2-1 .7-1.4.3-.2.6-.3 1-.4.4-.1.8 0 1.2 0 .7.2 1.2.7 1.3 1.4.1.3 0 .6 0 .9 0 .2 0 .4 0 .6 0 .6-.1 1.1-.3 1.6-.2.3-.4.7-.5 1-.1.2-.1.5 0 .7 0 .1.1.1.2.2.3.1.6.2.9.3 0 0 .1 0 .1 0 .3.1.5 0 .7-.1.5-.3 1-.5 1.5-.8.5-.3 1.1-.5 1.6-.6 0 0 .1 0 .1 0 0-.1-.1-.1-.1-.2-.3-.4-.5-.9-.7-1.4-.1-.3-.2-.7-.2-1.1 0-.5 0-.9 0-1.4-.2-.9.3-1.7 1.3-1.8.4 0 .8 0 1.2 0 .6.1 1.1.5 1.3 1.1.1.2.1.4.1.6 0 .5 0 .9 0 1.4 0 .4-.1.8-.3 1.2-.1.3-.3.6-.4.9 0 0 0 0 0 .1.3.1.6.3.9.4.3.3 2.2.9 2.2.9v16.4h-23c0 0 0-10.2 0-10.6"/><path fill="#ac382e" d="m44.9 15l-1.7-2.8-7.9 5.2-3.9-4.5-7.4 3.4c0 3 0 6.7 0 6.7h23v-12.9l-2.1 4.9"/><path fill="#e74c3c" d="m35.8 14.4l6.2-4.1-1.8-2.7 6.8.1v-1.1s-1.9-.6-2.3-.7c-.3-.1-.6-.3-.9-.4 0 0 0-.1 0-.1.1-.3.3-.6.4-.9.2-.4.3-.8.3-1.2 0-.5 0-.9 0-1.4 0-.2 0-.4-.1-.6-.2-.6-.6-1-1.3-1.1-.3-.2-.7-.2-1.1-.2-1 .1-1.5.9-1.6 1.7 0 .5 0 .9 0 1.4 0 .4.1.7.2 1.1.2.5.4 1 .7 1.4 0 .1.1.1.1.2 0 0-.1 0-.1 0-.6.1-1.1.3-1.6.6-.5.3-1 .5-1.5.8-.2.1-.5.2-.7.1 0 0-.1 0-.1 0-.3-.1-.6-.2-.9-.3-.1 0-.2-.1-.2-.2-.1-.2-.1-.5 0-.7.2-.3.4-.7.5-1 .3-.5.4-1.1.3-1.6 0-.2 0-.4 0-.6 0-.3 0-.6 0-.9-.2-.7-.6-1.2-1.3-1.4-.4-.1-.8-.1-1.2 0-.3 0-.7.1-1 .4-.4.4-.6.8-.7 1.4 0 .4 0 .9 0 1.3 0 .4.1.8.2 1.2.2.5.4 1 .8 1.4 0 0 0 0 0 .1 0 0-.1 0-.1 0-.6.1-1.2.4-1.8.7-.4.2-.8.5-1.3.7-.3.2-.7.4-.9.6 0 0-.1 0-.1.1-.1 0-.4-.2-.5-.3 0-.2-.1-.3-.1-.5 0-.1 0-.1 0-.2.2-.3.3-.6.5-1 .2-.4.3-.8.3-1.2 0-.4 0-.7 0-1.1 0-.3 0-.6-.1-.9-.2-.6-.6-1-1.2-1.2-.5-.1-.9-.1-1.4 0-.9.2-1.4.8-1.4 1.7 0 .5 0 1 0 1.5 0 .2 0 .3.1.5.2.7.5 1.4.9 1.9 0 0 0 .1.1.1 0 0-.1 0-.1 0-.7.2-1.4.4-2.1.8-.2.1-.4.3-.4.5-.1.3-.3.7-.4 1.1-.1.3-.2.6-.2.9 0 .4 0 .7 0 1.1 0 0 0 .1 0 .1 0 .1 0 .7 0 1.5l8.1-3.7 4 4.3"/><path fill="#fff" d="m35.3 17.4l7.9-5.2 1.7 2.8 2.1-4.9 1-2.4h-1l-6.8-.1 1.8 2.7-6.2 4.1-3.7-4.3-8.1 3.8c0 .7 0 1.5 0 2.5l7.5-3.4 3.8 4.4"/></svg>