<svg xmlns="http://www.w3.org/2000/svg" viewBox="0 0 48 24" enable-background="new 0 0 48 24"><path fill="#939393" d="m24 14v-8h-2v-4h-21v21h15v1h8v-8h-2v-2z"/><path fill="#5a5a5a" d="m0 0h21v21h-21z"/><path fill="#d6d6d6" d="m1 3h19v17h-19z"/><path fill="#5a5a5a" d="m15 4h8v8h-8z"/><path fill="#fff" d="m16 5h6v6h-6z"/><path fill="#5a5a5a" d="m15 14h8v8h-8z"/><path fill="#fff" d="m16 15h6v6h-6z"/><g fill="none" stroke="#5a5a5a" stroke-miterlimit="10"><path d="m17 16l4 4"/><path d="m21 16l-4 4"/></g><g fill="#5a5a5a"><path d="m2 5h10v1h-10z"/><path d="m2 7h10v1h-10z"/><path d="m2 9h10v1h-10z"/><path d="m2 14h10v1h-10z"/><path d="m2 16h10v1h-10z"/><path d="m2 18h10v1h-10z"/></g><path fill="none" stroke="#5a5a5a" stroke-miterlimit="10" d="m16.9 8.5l1.8 1.4 2.2-4"/><path fill="#939393" d="m48 14v-8h-2v-4h-21v21h15v1h8v-8h-2v-2z"/><path fill="#ac382e" d="m24 0h21v21h-21z"/><path fill="#fff" d="m25 3h19v17h-19z"/><path fill="#e74c3c" d="m39 4h8v8h-8z"/><path fill="#fff" d="m40 5h6v6h-6z"/><path fill="#e74c3c" d="m39 14h8v8h-8z"/><path fill="#fff" d="m40 15h6v6h-6z"/><g fill="none" stroke="#e74c3c" stroke-miterlimit="10"><path d="m41 16l4 4"/><path d="m45 16l-4 4"/></g><g fill="#e74c3c"><path d="m26 5h10v1h-10z"/><path d="m26 7h10v1h-10z"/><path d="m26 9h10v1h-10z"/><path d="m26 14h10v1h-10z"/><path d="m26 16h10v1h-10z"/><path d="m26 18h10v1h-10z"/></g><path fill="none" stroke="#e74c3c" stroke-miterlimit="10" d="m40.9 8.5l1.8 1.4 2.2-4"/></svg>