<svg id="Layer_1" enable-background="new 0 0 48 24" viewBox="0 0 48 24" xmlns="http://www.w3.org/2000/svg"><path id="path3013_3_" d="m47.5 5.1c-.4-.8-1-1.4-1.8-1.9-.8-.5-1.7-.8-2.7-1-1.1-.2-2.3-.3-3.8-.3h-6.7c-.7 0-1.4.5-1.6 1.2l-4.5 19.6c-.2.6.3 1.2 1 1.2h3.2c.7 0 1.4-.5 1.5-1.2l1.1-4.7c.2-.6.8-1.2 1.5-1.2h.9c3.9 0 6.9-.8 9.2-2.4 2.1-1.7 3.2-3.8 3.2-6.4 0-1.2-.1-2.1-.5-2.9m-6.9 6.4c-1 .7-2.3 1.1-4 1.1h-.8c-.7 0-1.1-.5-1-1.2l1-4.1c.1-.7.8-1.3 1.4-1.3h1c1.2 0 2.2.2 2.8.6.6.4 1 1 1 1.9 0 1.3-.5 2.3-1.4 3" fill="#939393"/><path id="path3013_2_" d="m45.9 4c-.4-.8-1-1.4-1.8-1.9-.8-.5-1.7-.8-2.7-1-1.1-.2-2.3-.3-3.8-.3h-6.6c-.7 0-1.4.5-1.6 1.2l-4.5 19.6c-.2.6.3 1.2 1 1.2h3.1c.7 0 1.4-.5 1.5-1.2l1.1-4.7c.2-.6.8-1.2 1.5-1.2h.9c3.9 0 6.9-.8 9.2-2.4 2.2-1.6 3.3-3.7 3.3-6.4 0-1.1-.1-2.1-.6-2.9m-6.8 6.5c-1 .7-2.3 1.1-4 1.1h-.8c-.7 0-1.1-.5-1-1.2l1-4.1c.2-.6.9-1.2 1.5-1.2h1c1.2 0 2.2.2 2.8.6.6.4.9 1 .9 1.9 0 1.1-.5 2.2-1.4 2.9" fill="#fff"/><path id="path3013_1_" d="m45.1 3.2c-.4-.8-1-1.4-1.8-1.9-.8-.5-1.7-.8-2.7-1-1.1-.2-2.3-.3-3.8-.3h-6.7c-.7 0-1.4.5-1.6 1.2l-4.5 19.6c-.2.6.3 1.2 1 1.2h3.2c.7 0 1.4-.5 1.5-1.2l1.1-4.7c.2-.6.8-1.2 1.5-1.2h.9c3.9 0 6.9-.8 9.2-2.4 2.2-1.6 3.3-3.7 3.3-6.4 0-1.1-.2-2.1-.6-2.9m-6.9 6.4c-1 .7-2.3 1.1-4 1.1h-.8c-.7 0-1.1-.5-1-1.2l1-4.1c.2-.6.9-1.2 1.5-1.2h1c1.2 0 2.2.2 2.8.6.6.4.9 1 .9 1.9.1 1.2-.4 2.2-1.4 2.9" fill="#1c3664"/><path id="path3013_6_" d="m23.5 5.1c-.4-.8-1-1.4-1.8-1.9-.8-.5-1.7-.8-2.7-1s-2.3-.3-3.8-.3h-6.7c-.7 0-1.4.5-1.6 1.2l-4.5 19.6c-.2.6.3 1.2 1 1.2h3.2c.7 0 1.4-.5 1.5-1.2l1-4.7c.2-.6.8-1.2 1.5-1.2h.9c3.9 0 6.9-.8 9.2-2.4 2.2-1.7 3.3-3.8 3.3-6.4 0-1.2-.1-2.1-.5-2.9m-6.9 6.4c-1 .7-2.3 1.1-4 1.1h-.8c-.7 0-1.1-.5-1-1.2l1-4.1c.1-.7.8-1.3 1.4-1.3h1c1.2 0 2.2.2 2.8.6.6.4 1 1 1 1.9 0 1.3-.5 2.3-1.4 3" fill="#939393"/><path id="path3013_5_" d="m21.9 4c-.4-.8-1-1.4-1.8-1.9-.8-.5-1.7-.8-2.7-1s-2.3-.3-3.8-.3h-6.6c-.7 0-1.4.5-1.6 1.2l-4.5 19.7c-.2.6.3 1.2 1 1.2h3.1c.7 0 1.4-.5 1.5-1.2l1.1-4.7c.2-.6.8-1.2 1.5-1.2h.9c3.9 0 6.9-.8 9.2-2.4 2.2-1.6 3.3-3.7 3.3-6.4 0-1.2-.1-2.2-.6-3m-6.8 6.5c-1 .7-2.3 1.1-4 1.1h-.8c-.7 0-1.1-.5-1-1.2l1-4.1c.2-.6.9-1.2 1.5-1.2h1c1.2 0 2.2.2 2.8.6.6.4.9 1 .9 1.9 0 1.1-.5 2.2-1.4 2.9" fill="#fff"/><path id="path3013_4_" d="m21.1 3.2c-.4-.8-1-1.4-1.8-1.9-.8-.5-1.7-.8-2.7-1s-2.3-.2-3.8-.3h-6.7c-.7 0-1.4.5-1.5 1.2l-4.6 19.6c-.2.6.3 1.2 1 1.2h3.2c.7 0 1.4-.5 1.5-1.2l1.1-4.7c.2-.6.8-1.2 1.5-1.2h.9c3.9 0 6.9-.8 9.2-2.4 2.2-1.6 3.3-3.7 3.3-6.4 0-1.1-.2-2.1-.6-2.9m-6.9 6.4c-1 .7-2.3 1.1-4 1.1h-.8c-.7 0-1.1-.5-1-1.2l1-4.1c.2-.6.9-1.2 1.5-1.2h1c1.2 0 2.2.2 2.8.6.6.4.9 1 .9 1.9.1 1.2-.4 2.2-1.4 2.9" fill="#5a5a5a"/></svg>