<svg xmlns="http://www.w3.org/2000/svg" viewBox="0 0 48 24" enable-background="new 0 0 48 24"><g fill="#939393"><path d="m24 24h-17v-23h13.3l3.7 4.1z"/><circle cx="5.5" cy="15.6" r="4.5"/></g><path fill="#5a5a5a" d="m23 23h-17v-23h13.3l3.7 4.1z"/><path fill="#d6d6d6" d="m7 22v-21h11.4l3.6 4v17z"/><path fill="#939393" d="m22 5v1h-4v-5h.5z"/><path fill="none" stroke="#5a5a5a" stroke-miterlimit="10" d="m17.5 1v4.5h5.5"/><g fill="#5a5a5a"><circle cx="4.5" cy="14.6" r="4.5"/><path d="m16.6 17h-12.6v-3h11.5l2.3 1.4z"/></g><circle fill="#fff" cx="4.5" cy="14.6" r="2.5"/><g fill="#5a5a5a"><path d="m13.8 13h1v1h-1z"/><path d="m11.8 13h1v1h-1z"/><path d="m9.8 13h1v1h-1z"/></g><g fill="#939393"><path d="m48 24h-17v-23h13.3l3.7 4.1z"/><circle cx="29.5" cy="15.6" r="4.5"/></g><path fill="#ac382e" d="m47 23h-17v-23h13.3l3.7 4.1z"/><path fill="#fff" d="m31 22v-21h11.4l3.6 4v17z"/><path fill="#e74c3c" d="m46 5v1h-4v-5h.5z"/><path fill="none" stroke="#ac382e" stroke-miterlimit="10" d="m41.5 1v4.5h5.5"/><g fill="#e74c3c"><circle cx="28.5" cy="14.6" r="4.5"/><path d="m40.6 17h-12.6v-3h11.5l2.3 1.4z"/><path d="m37.8 13h1v1h-1z"/><path d="m35.8 13h1v1h-1z"/><path d="m33.8 13h1v1h-1z"/></g><circle fill="#fff" cx="28.5" cy="14.6" r="2.5"/></svg>