<svg enable-background="new 0 0 48 24" viewBox="0 0 48 24" xmlns="http://www.w3.org/2000/svg"><path d="m24 19.1c0 2.7-2.2 4.9-4.9 4.9h-13.2c-2.7 0-4.9-2.2-4.9-4.9v-13.2c0-2.7 2.2-4.9 4.9-4.9h13.2c2.7 0 4.9 2.2 4.9 4.9z" fill="#939393"/><path d="m23 18.1c0 2.7-2.2 4.9-4.9 4.9h-13.2c-2.7 0-4.9-2.2-4.9-4.9v-13.2c0-2.7 2.2-4.9 4.9-4.9h13.2c2.7 0 4.9 2.2 4.9 4.9z" fill="#5a5a5a"/><path d="m4.9 22c-2.1 0-3.9-1.8-3.9-3.9v-13.2c0-2.1 1.8-3.9 3.9-3.9h13.2c2.1 0 3.9 1.8 3.9 3.9v13.2c0 2.2-1.8 3.9-3.9 3.9z" fill="#d6d6d6"/><path d="m15.1 15.8c0-.6-.2-1-.6-1.3-.4-.3-1.1-.6-2-1-2.1-.6-3.6-1.3-4.6-2.1s-1.5-1.8-1.5-3.2c0-1.4.6-2.5 1.8-3.3s2.7-1.3 4.5-1.3c1.8 0 3.3.5 4.4 1.4 1.2.9 1.7 2.1 1.7 3.6v.1h-3.7c0-.6-.2-1.2-.7-1.6-.4-.4-1-.6-1.8-.6-.8 0-1.4.2-1.8.5s-.6.8-.6 1.2c0 .5.2.9.7 1.1s1.3.6 2.5 1.1c1.9.6 3.2 1.2 4.2 2 .9.8 1.4 1.9 1.4 3.3 0 1.4-.6 2.6-1.7 3.4s-2.6 1.2-4.4 1.2c-1.9 0-3.5-.5-4.8-1.4s-2-2.3-2-4v-.1h3.7c0 .9.3 1.6.8 2 .5.4 1.3.6 2.3.6.8 0 1.4-.2 1.8-.5s.4-.6.4-1.1" fill="#5a5a5a"/><path d="m13.2 14.8c0-.6-.2-1-.6-1.3-.4-.3-1.1-.6-2-1-2.1-.6-3.6-1.3-4.6-2.1s-1.5-1.8-1.5-3.2c0-1.4.6-2.5 1.8-3.3s2.7-1.3 4.5-1.3c1.8 0 3.3.5 4.4 1.4s1.7 2.1 1.7 3.6v.1h-3.7c0-.6-.2-1.2-.7-1.6-.4-.4-1-.6-1.8-.6-.7 0-1.3.1-1.8.5-.4.3-.6.7-.6 1.2 0 .5.2.9.7 1.1s1.3.6 2.5 1.1c1.9.6 3.2 1.2 4.2 2 .9.8 1.4 1.9 1.4 3.3 0 1.4-.6 2.6-1.7 3.4s-2.6 1.2-4.4 1.2c-1.9 0-3.5-.5-4.8-1.4s-2-2.3-2-4v-.1h3.7c0 .9.3 1.6.8 2 .5.4 1.3.6 2.3.6.8 0 1.4-.2 1.8-.5s.4-.6.4-1.1" fill="#fff"/><path d="m48 19.1c0 2.7-2.2 4.9-4.9 4.9h-13.2c-2.7 0-4.9-2.2-4.9-4.9v-13.2c0-2.7 2.2-4.9 4.9-4.9h13.2c2.7 0 4.9 2.2 4.9 4.9z" fill="#939393"/><path d="m47 18.1c0 2.7-2.2 4.9-4.9 4.9h-13.2c-2.7 0-4.9-2.2-4.9-4.9v-13.2c0-2.7 2.2-4.9 4.9-4.9h13.2c2.7 0 4.9 2.2 4.9 4.9z" fill="#fff"/><path d="m28.9 22c-2.2 0-3.9-1.8-3.9-3.9v-13.2c0-2.1 1.8-3.9 3.9-3.9h13.2c2.1 0 3.9 1.8 3.9 3.9v13.2c0 2.2-1.8 3.9-3.9 3.9z" fill="#228ad0"/><path d="m39.1 15.8c0-.6-.2-1-.6-1.3-.4-.3-1.1-.6-2-1-2.1-.6-3.6-1.3-4.6-2.1-1-.7-1.5-1.8-1.5-3.2 0-1.4.6-2.5 1.8-3.3 1.2-.8 2.7-1.3 4.5-1.3 1.8 0 3.3.5 4.4 1.4 1.2.9 1.7 2.1 1.7 3.6v.1h-3.7c0-.6-.2-1.2-.7-1.6-.4-.4-1-.6-1.8-.6-.8 0-1.4.2-1.8.5s-.6.8-.6 1.2c0 .5.2.9.7 1.1s1.3.6 2.5 1.1c1.9.6 3.2 1.2 4.2 2 .9.8 1.4 1.9 1.4 3.3 0 1.4-.6 2.6-1.7 3.4-1.1.8-2.6 1.2-4.4 1.2-1.9 0-3.5-.5-4.8-1.4-1.4-.9-2-2.3-2-4v-.1h3.7c0 .9.3 1.6.8 2 .5.4 1.3.6 2.3.6.8 0 1.4-.2 1.8-.5.2-.2.4-.6.4-1.1" fill="#155580"/><path d="m37.2 14.8c0-.6-.2-1-.6-1.3-.4-.3-1.1-.6-2-1-2.1-.6-3.6-1.3-4.6-2.1s-1.5-1.8-1.5-3.2c0-1.4.6-2.5 1.8-3.3s2.7-1.3 4.5-1.3c1.8 0 3.3.5 4.4 1.4s1.7 2.1 1.7 3.6v.1h-3.7c0-.6-.2-1.2-.7-1.6-.4-.4-1-.6-1.8-.6-.8 0-1.4.2-1.8.5s-.6.8-.6 1.2c0 .5.2.9.7 1.1s1.3.6 2.5 1.1c1.9.6 3.2 1.2 4.2 2 .9.8 1.4 1.9 1.4 3.3 0 1.4-.6 2.6-1.7 3.4s-2.6 1.2-4.4 1.2c-1.9 0-3.5-.5-4.8-1.4-1.4-.9-2-2.3-2-4v-.1h3.7c0 .9.3 1.6.8 2 .5.4 1.3.6 2.3.6.8 0 1.4-.2 1.8-.5.2-.2.4-.6.4-1.1" fill="#fff"/></svg>