<svg enable-background="new -24 0 48 24" height="24" viewBox="-24 0 48 24" width="48" xmlns="http://www.w3.org/2000/svg"><path d="m-.1 0h24v24h-24z" fill="none"/><path d="m21.9 12c-1.3-.5-2-1-2-1s-.1-3.7-1-4c-.5-.2-.9-.9-1.3-1.4l1.3-.6v-.4l1-.6v-1l-1-2h-9.8l-8.2 8v3.1l1.1.9h-.1v4l9 7h6c0 0 6.7-4.2 7-6s-.7-5.5-2-6z" fill="#939393"/><path d="m2 12.9l-2.1-1.8v-3.1l8.2-8h9.8l1 2v1z" fill="#57b9e5"/><path d="m2.9 12v-3l8-7 3-1h4v3l-4 2z"/><path d="m .9 12v4l9 7h6c0 0 6.7-4.2 7-6s-.7-5.5-2-6-2-1-2-1-.1-3.7-1-4-1.4-1.9-2-2-13 8-13 8z" fill="#624e42"/><path d="m5.9 12h-4v4l1 1h3z" fill="#8d6848"/><path d="m8.1 12.9c-.8-1.3-.6-3.1.2-4.4s2.2-2.2 3.6-2.7c1-.4 2.2-.6 3.2-.3 1 .3 1.9 1.4 1.8 2.5-.1.6-.5 1.1-.8 1.7-2 3-2.6 7-1.5 10.5-1.1.8-2.7.9-3.9.2-1.2-.7-1.9-2-1.8-3.4.1-.8.4-1.6.1-2.4 0-.6-.5-1.1-.9-1.7z" fill="#ad8057"/><path d="m19 10.9c-.5-.2-1-.2-1.2-.6-.2-.4.1-.9.1-1.4.1-.5-.1-1.1-.5-1.4s-1-.5-1.5-.3c.1.2 0 .5-.3.7-.2.1-.5.1-.8.1-.6 0-1.2-.1-1.8-.1-.7-.1-1.5-.1-2.1.3-.5.3-.8.9-1 1.5-.1.6-.1 1.2-.1 1.8 0 .3 0 .7.1 1s .3.6.6.7c.2.1.5.1.7.1s.5.1.7.2c.2.2.2.5 0 .6-.7 0-1.3.5-1.5 1.1s-.1 1.3.2 2c .3.6.7 1.1 1.1 1.7.5.6.9 1.1 1.4 1.7.2.3.5.6.8.7.6.3 1.3.2 1.9 0 1.2-.3 2.4-.6 3.5-1.2s2-1.6 2.2-2.8c.2-1-.1-2.1-.4-3.1-.2-.6-.4-1.2-.7-1.8-.4-.8-.8-1.3-1.4-1.5z" fill="#faeacc"/><path d="m13.2 10c .2 0 .4 0 .6.2.2.2.1.5 0 .8 0 .1-.1.2-.2.3-.1.2-.3.2-.5.3-.2 0-.4 0-.6 0-.4 0-.8 0-1.1-.3-.2-.1-.3-.3-.3-.5s0-.4.2-.5c.1-.1.2-.1.4-.2.4-.2.9-.1 1.5-.1z"/><path d="m4.9 13h-1l-1 1 1 1v1h2v-2z" fill="#f0d2a9"/><path d="m11.9 17l2 2h4l4-3.5-1-.7-6 2.2z" fill="#fff"/><path d="m18.1 19h-4.4l-1.8-1.8v-1.2h2.9l6.2-2.2 1.7 1.5zm-4-1h3.6l3.4-2.8-.3-.3-5.9 2.1h-1.8z" fill="#8d6848"/><path d="m17.9 12v-2h-2z"/><path d="m-24 0h24v24h-24z" fill="none"/><path d="m-2 12c-1.3-.5-2-1-2-1s-.1-3.7-1-4c-.5-.2-.9-.9-1.3-1.4l1.3-.6v-.4l1-.6v-1l-1-2h-9.8l-8.2 8v3.1l1.1.9h-.1v4l9 7h6c0 0 6.7-4.2 7-6s-.7-5.5-2-6z" fill="#939393"/><path d="m-21.9 12.9l-2.1-1.8v-3.1l8.2-8h9.8l1 2v1z" fill="#5a5a5a"/><path d="m-21 12v-3l8-7 3-1h4v3l-4 2z"/><path d="m-23 12v4l9 7h6c0 0 6.7-4.2 7-6s-.7-5.5-2-6-2-1-2-1-.1-3.7-1-4-1.4-1.9-2-2-13 8-13 8z" fill="#5a5a5a"/><g fill="#939393"><path d="m-18 12h-4v4l1 1h3z"/><path d="m-15.8 12.9c-.8-1.3-.6-3.1.2-4.4.8-1.3 2.2-2.2 3.6-2.7 1-.4 2.2-.6 3.2-.3 1 .3 1.9 1.4 1.8 2.5-.1.6-.5 1.1-.8 1.7-2 3-2.6 7-1.5 10.5-1.1.8-2.7.9-3.9.2-1.2-.7-1.9-2-1.8-3.4.1-.8.4-1.6.1-2.4 0-.6-.5-1.1-.9-1.7z"/></g><path d="m-4.9 10.9c-.5-.2-1-.2-1.2-.6-.2-.4.1-.9.1-1.4.1-.5-.1-1.1-.5-1.4s-1-.5-1.5-.3c.1.2 0 .5-.3.7-.2.1-.5.1-.8.1-.6 0-1.2-.1-1.8-.1-.7-.1-1.5-.1-2.1.3-.5.3-.8.9-1 1.5s-.1 1.2-.1 1.8c0 .3 0 .7.1 1s .3.6.6.7c.2.1.5.1.7.1s.5.1.7.2.2.5 0 .6c-.7 0-1.3.5-1.5 1.1s-.1 1.3.2 2c .3.6.7 1.1 1.1 1.7.5.6.9 1.1 1.4 1.7.2.3.5.6.8.7.6.3 1.3.2 1.9 0 1.2-.3 2.4-.6 3.5-1.2s2-1.6 2.2-2.8c.2-1-.1-2.1-.4-3.1-.2-.6-.4-1.2-.7-1.8-.4-.8-.8-1.3-1.4-1.5z" fill="#d6d6d6"/><path d="m-10.7 10c .2 0 .4 0 .6.2.2.2.1.5 0 .8 0 .1-.1.2-.2.3-.1.2-.3.2-.5.3-.2 0-.4 0-.6 0-.4 0-.8 0-1.1-.3-.2-.1-.3-.3-.3-.5s0-.4.2-.5c.1-.1.2-.1.4-.2.4-.2.9-.1 1.5-.1z"/><g fill="#fff"><path d="m-19 13h-1l-1 1 1 1v1h2v-2z"/><path d="m-12 17l2 2h4l4-3.5-1-.7-6 2.2z"/></g><path d="m-5.8 19h-4.4l-1.8-1.8v-1.2h2.9l6.2-2.2 1.7 1.5zm-4-1h3.6l3.4-2.8-.3-.3-5.9 2.1h-1.8z" fill="#939393"/><path d="m-6 12v-2h-2z"/></svg>