<svg width="48" xmlns="http://www.w3.org/2000/svg" height="24" viewBox="-24 0 48 24" xmlns:xlink="http://www.w3.org/1999/xlink" enable-background="new -24 0 48 24"><path fill="none" d="m-.1,0h24v24h-24z"/><path fill="#939393" d="m21.9,12c-1.3-.5-2-1-2-1s-.1-3.7-1-4c-.5-.2-.9-.9-1.3-1.4l1.3-.6v-.4l1-.6v-1l-1-2h-9.8l-8.2,8v3.1l1.1,.9h-.1v4l9,7h6c0,0 6.7-4.2 7-6s-.7-5.5-2-6z"/><path fill="#57b9e5" d="m2,12.9-2.1-1.8 0-3.1 8.2-8 9.8,0 1,2 0,1z"/><path d="m2.9,12 0-3 8-7 3-1 4,0 0,3-4,2z"/><path fill="#624e42" d="m.9,12v4l9,7h6c0,0 6.7-4.2 7-6s-.7-5.5-2-6-2-1-2-1-.1-3.7-1-4-1.4-1.9-2-2-13,8-13,8h-2z"/><path fill="#8d6848" d="m5.9,12-4,0-0,4 1,1 3,0z"/><path fill="#ad8057" d="m8.1,12.9c-.8-1.3-.6-3.1 .2-4.4s2.2-2.2 3.6-2.7c1-.4 2.2-.6 3.2-.3 1,.3 1.9,1.4 1.8,2.5-.1,.6-.5,1.1-.8,1.7-2,3-2.6,7-1.5,10.5-1.1,.8-2.7,.9-3.9,.2-1.2-.7-1.9-2-1.8-3.4 .1-.8 .4-1.6 .1-2.4 0-.6-.5-1.1-.9-1.7z"/><path fill="#faeacc" d="m19,10.9c-.5-.2-1-.2-1.2-.6-.2-.4 .1-.9 .1-1.4 .1-.5-.1-1.1-.5-1.4s-1-.5-1.5-.3c.1,.2 0,.5-.3,.7-.2,.1-.5,.1-.8,.1-.6,0-1.2-.1-1.8-.1-.7-.1-1.5-.1-2.1,.3-.5,.3-.8,.9-1,1.5-.1,.6-.1,1.2-.1,1.8 0,.3 0,.7 .1,1s.3,.6 .6,.7c.2,.1 .5,.1 .7,.1s.5,.1 .7,.2c.2,.2 .2,.5 0,.6-.7,0-1.3,.5-1.5,1.1s-.1,1.3 .2,2c.3,.6 .7,1.1 1.1,1.7 .5,.6 .9,1.1 1.4,1.7 .2,.3 .5,.6 .8,.7 .6,.3 1.3,.2 1.9,0 1.2-.3 2.4-.6 3.5-1.2s2-1.6 2.2-2.8c.2-1-.1-2.1-.4-3.1-.2-.6-.4-1.2-.7-1.8-.4-.8-.8-1.3-1.4-1.5z"/><path d="m13.2,10c.2,0 .4,0 .6,.2 .2,.2 .1,.5 0,.8 0,.1-.1,.2-.2,.3-.1,.2-.3,.2-.5,.3-.2,0-.4,0-.6,0-.4,0-.8,0-1.1-.3-.2-.1-.3-.3-.3-.5s0-.4 .2-.5c.1-.1 .2-.1 .4-.2 .4-.2 .9-.1 1.5-.1z"/><path fill="#f0d2a9" d="m4.9,13-1,0-1,1 1,1 0,1 2,0 0-2z"/><path fill="#fff" d="m11.9,17 2,2 4,0 4-3.5-1-.7-6,2.2z"/><path fill="#8d6848" d="m18.1,19h-4.4l-1.8-1.8v-1.2h2.9l6.2-2.2 1.7,1.5-4.6,3.7zm-4-1h3.6l3.4-2.8-.3-.3-5.9,2.1h-1.8l1,1z"/><path d="m17.9,12 0-2-2,0z"/><path fill="none" d="m-24,0h24v24h-24z"/><path fill="#939393" d="m-2,12c-1.3-.5-2-1-2-1s-.1-3.7-1-4c-.5-.2-.9-.9-1.3-1.4l1.3-.6v-.4l1-.6v-1l-1-2h-9.8l-8.2,8v3.1l1.1,.9h-.1v4l9,7h6c0,0 6.7-4.2 7-6s-.7-5.5-2-6z"/><path fill="#5a5a5a" d="M-21.9,12.9-24,11.1-24,8-15.8,0-6,0-5,2-5,3z"/><path d="m-21,12 0-3 8-7 3-1 4,0 0,3-4,2z"/><path fill="#5a5a5a" d="m-23,12v4l9,7h6c0,0 6.7-4.2 7-6s-.7-5.5-2-6-2-1-2-1-.1-3.7-1-4-1.4-1.9-2-2-13,8-13,8h-2z"/><g fill="#939393"><path d="m-18,12-4,0 0,4 1,1 3,0z"/><path d="m-15.8,12.9c-.8-1.3-.6-3.1 .2-4.4 .8-1.3 2.2-2.2 3.6-2.7 1-.4 2.2-.6 3.2-.3 1,.3 1.9,1.4 1.8,2.5-.1,.6-.5,1.1-.8,1.7-2,3-2.6,7-1.5,10.5-1.1,.8-2.7,.9-3.9,.2-1.2-.7-1.9-2-1.8-3.4 .1-.8 .4-1.6 .1-2.4 0-.6-.5-1.1-.9-1.7z"/></g><path fill="#d6d6d6" d="m-4.9,10.9c-.5-.2-1-.2-1.2-.6-.2-.4 .1-.9 .1-1.4 .1-.5-.1-1.1-.5-1.4s-1-.5-1.5-.3c.1,.2 0,.5-.3,.7-.2,.1-.5,.1-.8,.1-.6,0-1.2-.1-1.8-.1-.7-.1-1.5-.1-2.1,.3-.5,.3-.8,.9-1,1.5s-.1,1.2-.1,1.8c0,.3 0,.7 .1,1s.3,.6 .6,.7c.2,.1 .5,.1 .7,.1s.5,.1 .7,.2 .2,.5 0,.6c-.7,0-1.3,.5-1.5,1.1s-.1,1.3 .2,2c.3,.6 .7,1.1 1.1,1.7 .5,.6 .9,1.1 1.4,1.7 .2,.3 .5,.6 .8,.7 .6,.3 1.3,.2 1.9,0 1.2-.3 2.4-.6 3.5-1.2s2-1.6 2.2-2.8c.2-1-.1-2.1-.4-3.1-.2-.6-.4-1.2-.7-1.8-.4-.8-.8-1.3-1.4-1.5z"/><path d="m-10.7,10c.2,0 .4,0 .6,.2 .2,.2 .1,.5 0,.8 0,.1-.1,.2-.2,.3-.1,.2-.3,.2-.5,.3-.2,0-.4,0-.6,0-.4,0-.8,0-1.1-.3-.2-.1-.3-.3-.3-.5s0-.4 .2-.5c.1-.1 .2-.1 .4-.2 .4-.2 .9-.1 1.5-.1z"/><g fill="#fff"><path d="m-19,13-1,0-1,1 1,1 0,1 2,0 0-2z"/><path d="m-12,17 2,2 4,0 4-3.5-1-.7-6,2.2z"/></g><path fill="#939393" d="m-5.8,19h-4.4l-1.8-1.8v-1.2h2.9l6.2-2.2 1.7,1.5-4.6,3.7zm-4-1h3.6l3.4-2.8-.3-.3-5.9,2.1h-1.8l1,1z"/><path d="m-6,12 0-2-2,0z"/></svg>