<!-- Generated by IcoMoon.io -->
<svg version="1.1" xmlns="http://www.w3.org/2000/svg" width="32" height="32" viewBox="0 0 32 32">
<title>page-settings</title>
<path class="fill-active" d="M10.912 11.733l0.576-0.587 0.192-0.192c0.235-0.235 0.501-0.501 0.789-0.757 0.101-0.101 0.209-0.196 0.323-0.282l0.008-0.006v-6.048h8.533v6.4h6.4v12.8h-5.163c-0.128 0.533-0.267 1.067-0.395 1.429-0.092 0.271-0.226 0.505-0.397 0.707l0.003-0.003h7.019c0.589 0 1.067-0.478 1.067-1.067v0-14.933l-7.467-7.467h-10.667c-0.589 0-1.067 0.478-1.067 1.067v0 8.64z"></path>
<path class="fill-active" d="M11.829 13.803c-0.203 0.213-0.245 0.352-0.139 0.523 0.048 0.068 0.101 0.127 0.159 0.181l0.001 0.001 0.747 0.747c0.249 0.255 0.574 0.434 0.939 0.5l0.011 0.002c0.161 0.029 0.304 0.073 0.439 0.133l-0.012-0.005c0.159 0.070 0.292 0.141 0.419 0.221l-0.013-0.008c0.097 0.059 0.181 0.126 0.256 0.202l0 0c0.189 0.192 0.306 0.457 0.306 0.748 0 0.045-0.003 0.089-0.008 0.132l0.001-0.005c-0.052 0.427-0.255 0.798-0.553 1.065l-0.002 0.001q-2.059 2.091-4.139 4.16c-0.059 0.054-0.137 0.087-0.223 0.087-0.011 0-0.023-0.001-0.034-0.002l0.001 0c-0.070-0.018-0.151-0.028-0.235-0.028-0.292 0-0.554 0.126-0.735 0.326l-0.001 0.001c-0.672 0.683-1.355 1.355-2.027 2.037-0.864 0.864-1.728 1.739-2.603 2.603-0.072 0.069-0.135 0.146-0.189 0.23l-0.003 0.005c-0.093 0.14-0.148 0.312-0.148 0.497 0 0.109 0.019 0.213 0.054 0.31l-0.002-0.006c0.073 0.233 0.164 0.434 0.274 0.622l-0.008-0.014c0.113 0.19 0.24 0.355 0.384 0.502l-0-0c0.293 0.293 0.649 0.523 1.047 0.666l0.020 0.006c0.097 0.035 0.209 0.055 0.326 0.055 0.294 0 0.558-0.128 0.74-0.331l0.001-0.001q2.304-2.325 4.629-4.64c0.063-0.060 0.119-0.127 0.168-0.198l0.003-0.004c0.092-0.137 0.147-0.306 0.147-0.488 0-0.081-0.011-0.159-0.031-0.233l0.001 0.006c-0.009-0.027-0.014-0.057-0.014-0.089 0-0.093 0.042-0.176 0.109-0.231l0.001-0 4.651-4.64c0.186-0.17 0.387-0.331 0.6-0.478l0.019-0.012c0.061-0.053 0.142-0.085 0.229-0.085s0.168 0.032 0.23 0.085l-0-0c0.5 0.354 0.874 0.856 1.061 1.441l0.005 0.020c0.17 0.527 0.268 1.134 0.268 1.763 0 0.13-0.004 0.26-0.012 0.388l0.001-0.017c-0.011 0.030-0.017 0.065-0.017 0.101s0.006 0.071 0.018 0.104l-0.001-0.002 1.067 1.067c0.473-1.162 0.748-2.511 0.748-3.924 0-0.244-0.008-0.487-0.024-0.727l0.002 0.033c-0.104-0.845-0.492-1.584-1.065-2.132l-0.001-0.001c-0.768-0.757-1.536-1.515-2.283-2.293-0.183-0.23-0.463-0.376-0.777-0.376-0.023 0-0.046 0.001-0.069 0.002l0.003-0c-0.012 0.002-0.027 0.003-0.041 0.003-0.127 0-0.237-0.074-0.289-0.182l-0.001-0.002c-0.149-0.288-0.299-0.576-0.448-0.853-0.131-0.278-0.273-0.516-0.435-0.738l0.009 0.012c-0.272-0.308-0.551-0.59-0.844-0.856l-0.009-0.008c-0.224-0.213-0.352-0.224-0.597 0s-0.491 0.459-0.725 0.693c-0.427 0.405-0.885 0.864-1.333 1.333z"></path>
<path class="fill-active" d="M2.133 16c0.002 0.537 0.144 1.041 0.392 1.476l-0.008-0.015c0.089 0.16 0.177 0.296 0.274 0.426l-0.007-0.010c0.428 0.547 0.941 1.005 1.522 1.362l0.025 0.014c0.54 0.41 1.223 0.657 1.964 0.657 0.482 0 0.94-0.105 1.352-0.292l-0.020 0.008c0.030-0.015 0.064-0.023 0.101-0.023s0.072 0.009 0.103 0.024l-0.001-0.001 1.323 1.312c0.077 0.088 0.189 0.144 0.315 0.144s0.238-0.056 0.314-0.143l0-0 1.429-1.429 0.693-0.651-1.771-1.632c0.107-0.203 0.201-0.441 0.271-0.688l0.006-0.026c0.028-0.103 0.050-0.226 0.063-0.352l0.001-0.010c0.005-0.056 0.008-0.121 0.008-0.187s-0.003-0.131-0.009-0.195l0.001 0.008c-0.21-2.126-1.821-3.821-3.888-4.156l-0.027-0.004c-0.037-0.006-0.080-0.010-0.123-0.010-0.3 0-0.559 0.171-0.686 0.422l-0.002 0.004c0.405 0.395 0.8 0.789 1.205 1.173 0.282 0.26 0.459 0.632 0.459 1.045 0 0.087-0.008 0.172-0.023 0.255l0.001-0.009c-0.024 0.178-0.062 0.336-0.112 0.489l0.005-0.019c-0.105 0.318-0.265 0.592-0.471 0.824l0.002-0.002c-0.108 0.122-0.219 0.233-0.337 0.338l-0.004 0.004-0.373 0.309c-0.365 0.277-0.827 0.444-1.327 0.444-0.096 0-0.191-0.006-0.284-0.018l0.011 0.001c-0.4-0.078-0.738-0.298-0.968-0.604l-0.003-0.004-1.067-1.067c-0.21 0.146-0.345 0.386-0.345 0.658 0 0.054 0.005 0.107 0.015 0.158l-0.001-0.005z"></path>
<path class="fill-active" d="M20.405 27.008c-0.267-0.213-0.544-0.416-0.821-0.619s-0.843-0.608-1.227-0.96c-0.651-0.597-1.259-1.237-1.877-1.867l-1.067-1.067h-0.064l-2.133 2.133c-0.060 0.065-0.097 0.152-0.097 0.247 0 0.011 0 0.021 0.001 0.032l-0-0.001c0.005 0.108 0.049 0.204 0.118 0.278l-0-0c0.629 0.619 1.248 1.248 1.867 1.877 0.405 0.416 0.811 0.832 1.184 1.269 0.321 0.37 0.627 0.777 0.903 1.206l0.025 0.042c0.119 0.197 0.272 0.361 0.454 0.487l0.005 0.003c0.083 0.057 0.178 0.108 0.279 0.146l0.009 0.003c0.098 0.037 0.213 0.067 0.332 0.084l0.009 0.001c0.023 0.007 0.050 0.011 0.077 0.011 0.079 0 0.15-0.033 0.2-0.085l0-0c0.576-0.587 1.12-1.184 1.728-1.728 0.091-0.076 0.172-0.16 0.243-0.252l0.003-0.004c0.097-0.124 0.156-0.282 0.156-0.454 0-0.036-0.003-0.071-0.007-0.105l0 0.004c-0.020-0.12-0.057-0.227-0.109-0.326l0.003 0.006c-0.040-0.14-0.106-0.261-0.193-0.364l0.001 0.001zM17.291 27.755c0.102-0.441 0.492-0.765 0.957-0.765 0.458 0 0.842 0.313 0.951 0.737l0.001 0.007c0 0 0 0 0 0 0 0.54-0.432 0.98-0.97 0.992l-0.001 0c-0.523-0.023-0.939-0.453-0.939-0.98 0-0.004 0-0.008 0-0.012v0.001z"></path>
</svg>
