<svg xmlns="http://www.w3.org/2000/svg" viewBox="0 0 48 24" enable-background="new 0 0 48 24"><g fill="#939393"><path d="m24 24h-17v-23h13.3l3.7 4.1z"/><path d="m8 23v-21h11.4l3.6 4v17z"/><path d="m23 6v1h-4v-5h.5z"/><path d="m16.9 15.8c-.3-.3-.7-.7-1-1 0 0 0-.1 0-.2 0-.7 0-1.4-.2-2-.2-.6-.5-1-1-1.4-.2-.1-.3-.1-.4 0-.2.1-.4.3-.6.5-1.5 1.4-2.9 2.9-4.4 4.4-.1.1-.1.2-.1.3.1.3 0 .6-.3.9-1.5 1.4-2.9 2.9-4.3 4.3-.3.3-.6.4-1 .3-.8-.3-1.4-.8-1.6-1.7-.1-.4 0-.7.3-1 .8-.8 1.6-1.6 2.4-2.4.6-.6 1.3-1.3 1.9-1.9.3-.3.6-.4.9-.3.1 0 .2 0 .2-.1 1.3-1.3 2.6-2.6 3.9-3.9.3-.3.5-.6.5-1 0-.4-.2-.8-.5-1-.2-.1-.5-.3-.8-.3-.4-.1-.6-.2-.9-.5-.3-.3-.6-.6-.8-.8-.3-.3-.3-.4 0-.7.4-.4.8-.8 1.3-1.3.2-.2.4-.4.7-.7.2-.2.3-.2.6 0 .3.3.6.5.8.8.2.2.3.4.4.7.1.3.3.5.4.8.1.1.2.2.3.2.3 0 .6.1.8.4.7.7 1.4 1.4 2.1 2.1.6.6.9 1.3 1 2 .1 1.6-.2 3-.6 4.5"/><path d="m.4 7.7c.3.3.6.6 1 1 .3.3.5.5.9.6.5 0 1.1-.1 1.5-.4.4-.5.9-.9 1-1.5.2-.6.2-1.2-.3-1.6-.4-.4-.7-.8-1.1-1.1.2-.3.4-.4.8-.4 1.9.3 3.5 2 3.7 3.9 0 .5-.1.9-.3 1.4.5.5 1.1 1.1 1.7 1.6-.2.2-.4.4-.6.6-.4.4-.9.9-1.3 1.3-.2.2-.4.2-.6 0-.4-.4-.8-.8-1.2-1.2 0 0-.1-.1-.2 0-1.4.4-2.4.2-3.3-.4-1.1-.7-2-1.7-2-3.1-.1-.4 0-.5.3-.7"/><path d="m12.4 14.4c.3.3.7.7 1 1 .6.6 1.2 1.2 1.8 1.8.4.3.8.6 1.1.9.3.2.5.4.8.6.1.1.1.2.2.3.2.4.1.7-.3 1.1-.6.5-1.1 1.1-1.6 1.6-.1.1-.1.1-.3.1-.5-.1-.8-.3-1-.7-.3-.4-.6-.8-.9-1.2-.3-.4-.7-.8-1.1-1.2-.6-.6-1.2-1.2-1.8-1.8-.1-.1-.2-.4 0-.5.8-.6 1.4-1.3 2.1-2m1.8 5c0 .5.4.9.9.9.5 0 .9-.4.9-.9 0-.5-.4-.9-.9-.9-.5 0-.9.4-.9.9"/></g><path fill="#5a5a5a" d="m23 23h-17v-23h13.3l3.7 4.1z"/><path fill="#fff" d="m7 22v-21h11.4l3.6 4v17z"/><path fill="#d6d6d6" d="m22 5v1h-4v-5h.5z"/><path fill="none" stroke="#5a5a5a" stroke-miterlimit="10" d="m17.5 1v4.5h5.5"/><g fill="#5a5a5a"><path d="m16.9 14.8c-.3-.3-.7-.7-1-1 0 0 0-.1 0-.2 0-.7 0-1.4-.2-2-.2-.6-.5-1-1-1.4-.2-.1-.3-.1-.4 0-.2.1-.4.3-.6.5-1.5 1.4-2.9 2.9-4.4 4.4-.1.1-.1.2-.1.3.1.3 0 .6-.3.9-1.5 1.4-2.9 2.9-4.3 4.3-.3.3-.6.4-1 .3-.8-.3-1.4-.8-1.6-1.7-.1-.4 0-.7.3-1 .8-.8 1.6-1.6 2.4-2.4.6-.6 1.3-1.3 1.9-1.9.3-.3.6-.4.9-.3.1 0 .2 0 .2-.1 1.3-1.3 2.6-2.6 3.9-3.9.3-.3.5-.6.5-1 0-.4-.2-.8-.5-1-.2-.1-.5-.3-.8-.3-.4-.1-.6-.2-.9-.5-.3-.3-.6-.6-.8-.8-.3-.3-.3-.4 0-.7.4-.4.8-.8 1.3-1.3.2-.2.4-.4.7-.7.2-.2.3-.2.6 0 .3.3.6.5.8.8.2.2.3.4.4.7.1.3.3.5.4.8.1.1.2.2.3.2.3 0 .6.1.8.4.7.7 1.4 1.4 2.1 2.1.6.6.9 1.3 1 2 .1 1.6-.2 3-.6 4.5"/><path d="m.4 6.7c.3.3.6.6 1 1 .3.3.5.5.9.6.5 0 1.1-.1 1.5-.4.4-.5.9-.9 1-1.5.2-.6.2-1.2-.3-1.6-.4-.4-.7-.8-1.1-1.1.2-.3.4-.4.8-.4 1.9.3 3.5 2 3.7 3.9 0 .5-.1.9-.3 1.4.4.5 1 1 1.5 1.6-.2.2-.4.4-.6.6-.4.4-.9.9-1.3 1.3-.2.2-.4.2-.6 0-.4-.4-.8-.8-1.2-1.2 0 0-.1-.1-.2 0-1.2.4-2.2.2-3.1-.4-1.2-.7-2.1-1.7-2.1-3.1 0-.4.1-.5.4-.7"/><path d="m12.4 13.4c.3.3.7.7 1 1 .6.6 1.2 1.2 1.8 1.8.4.3.8.6 1.1.9.3.2.5.4.8.6.1.1.1.2.2.3.2.4.1.7-.3 1.1-.6.5-1.1 1.1-1.6 1.6-.1.1-.1.1-.3.1-.5-.1-.8-.3-1-.7-.3-.4-.6-.8-.9-1.2-.3-.4-.7-.8-1.1-1.2-.6-.6-1.2-1.2-1.8-1.8-.1-.1-.2-.4 0-.5.8-.6 1.4-1.3 2.1-2m1.8 5c0 .5.4.9.9.9.5 0 .9-.4.9-.9 0-.5-.4-.9-.9-.9-.5 0-.9.4-.9.9"/></g><g fill="#939393"><path d="m48 24h-17v-23h13.3l3.7 4.1z"/><path d="m32 23v-21h11.4l3.6 4v17z"/><path d="m47 6v1h-4v-5h.5z"/><path d="m40.9 15.8c-.3-.3-.7-.7-1-1 0 0 0-.1 0-.2 0-.7 0-1.4-.2-2-.2-.6-.5-1-1-1.4-.2-.1-.3-.1-.4 0-.2.1-.4.3-.6.5-1.5 1.4-2.9 2.9-4.4 4.4-.1.1-.1.2-.1.3.1.3 0 .6-.3.9-1.5 1.4-2.9 2.9-4.3 4.3-.3.3-.6.4-1 .3-.8-.3-1.4-.8-1.6-1.7-.1-.4 0-.7.3-1 .8-.8 1.6-1.6 2.4-2.4.6-.6 1.3-1.3 1.9-1.9.3-.3.6-.4.9-.3.1 0 .2 0 .2-.1 1.3-1.3 2.6-2.6 3.9-3.9.3-.3.5-.6.5-1 0-.4-.2-.8-.5-1-.2-.1-.5-.3-.8-.3-.4-.1-.6-.2-.9-.5-.2-.2-.5-.5-.7-.7-.3-.3-.3-.4 0-.7.4-.4.8-.9 1.3-1.3.2-.2.4-.4.7-.7.2-.2.3-.2.6 0 .3.3.6.5.8.8.2.2.3.4.4.7.1.3.3.5.4.8.1.1.2.2.3.2.3 0 .6.1.8.4.7.7 1.4 1.4 2.1 2.1.6.6.9 1.3 1 2 0 1.5-.3 2.9-.7 4.4"/><path d="m24.4 7.7c.3.3.6.6 1 1 .3.3.5.5.9.6.5 0 1.1-.1 1.5-.4.5-.4.9-.8 1.1-1.4.1-.7.1-1.3-.4-1.7-.4-.4-.8-.7-1.1-1.1.2-.3.4-.4.8-.4 1.9.3 3.5 2 3.7 3.9 0 .5-.1.9-.3 1.4.5.5 1.1 1.1 1.7 1.6-.2.2-.4.4-.6.6-.4.4-.9.9-1.3 1.3-.2.2-.4.2-.6 0-.4-.4-.8-.8-1.2-1.2 0 0-.1-.1-.2 0-1.1.5-2.1.3-3.1-.4-1.1-.7-2-1.7-2-3.1-.3-.4-.2-.5.1-.7"/><path d="m36.4 14.4c.3.3.7.7 1 1 .6.6 1.2 1.2 1.8 1.8.4.3.8.6 1.1.9.3.2.5.4.8.6.1.1.1.2.2.3.2.4.1.7-.3 1.1-.6.5-1.1 1.1-1.6 1.6-.1.1-.1.1-.3.1-.5-.1-.8-.3-1-.7-.3-.4-.6-.8-.9-1.2-.3-.4-.7-.8-1.1-1.2-.6-.6-1.2-1.2-1.8-1.8-.1-.1-.2-.4 0-.5.8-.6 1.4-1.3 2.1-2m1.8 5c0 .5.4.9.9.9.5 0 .9-.4.9-.9 0-.5-.4-.9-.9-.9-.5 0-.9.4-.9.9"/></g><path fill="#ac382e" d="m47 23h-17v-23h13.3l3.7 4.1z"/><path fill="#fff" d="m31 22v-21h11.4l3.6 4v17z"/><path fill="#e74c3c" d="m46 5v1h-4v-5h.5z"/><path fill="none" stroke="#ac382e" stroke-miterlimit="10" d="m41.5 1v4.5h5.5"/><g fill="#e74c3c"><path d="m40.9 14.8c-.3-.3-.7-.7-1-1 0 0 0-.1 0-.2 0-.7 0-1.4-.2-2-.2-.6-.5-1-1-1.4-.2-.1-.3-.1-.4 0-.2.1-.4.3-.6.5-1.5 1.4-2.9 2.9-4.4 4.4-.1.1-.1.2-.1.3.1.3 0 .6-.3.9-1.5 1.4-2.9 2.9-4.3 4.3-.3.3-.6.4-1 .3-.8-.3-1.4-.8-1.6-1.7-.1-.4 0-.7.3-1 .8-.8 1.6-1.6 2.4-2.4.6-.6 1.3-1.3 1.9-1.9.3-.3.6-.4.9-.3.1 0 .2 0 .2-.1 1.3-1.3 2.6-2.6 3.9-3.9.3-.3.5-.6.5-1 0-.4-.2-.8-.5-1-.2-.1-.5-.3-.8-.3-.4-.1-.6-.2-.9-.5-.2-.2-.5-.5-.7-.7-.3-.3-.3-.4 0-.7.4-.4.8-.9 1.3-1.3.2-.2.4-.4.7-.7.2-.2.3-.2.6 0 .3.3.6.5.8.8.2.2.3.4.4.7.1.3.3.5.4.8.1.1.2.2.3.2.3 0 .6.1.8.4.7.7 1.4 1.4 2.1 2.1.6.6.9 1.3 1 2 0 1.5-.3 2.9-.7 4.4"/><path d="m24.4 6.7c.3.3.6.6 1 1 .3.3.5.5.9.6.5 0 1.1-.1 1.5-.4.5-.4.9-.8 1.1-1.4.1-.7.1-1.3-.4-1.7-.4-.4-.8-.7-1.1-1.1.2-.3.4-.4.8-.4 1.9.3 3.5 2 3.7 3.9 0 .5-.1.9-.3 1.4.5.5 1.1 1.1 1.7 1.6-.2.2-.4.4-.6.6-.4.4-.9.9-1.3 1.3-.2.2-.4.2-.6 0-.4-.4-.8-.8-1.2-1.2 0 0-.1-.1-.2 0-1.1.5-2.1.3-3.1-.4-1.4-.7-2.3-1.7-2.3-3.1 0-.4.1-.5.4-.7"/><path d="m36.4 13.4c.3.3.7.7 1 1 .6.6 1.2 1.2 1.8 1.8.4.3.8.6 1.1.9.3.2.5.4.8.6.1.1.1.2.2.3.2.4.1.7-.3 1.1-.6.5-1.1 1.1-1.6 1.6-.1.1-.1.1-.3.1-.5-.1-.8-.3-1-.7-.3-.4-.6-.8-.9-1.2-.3-.4-.7-.8-1.1-1.2-.6-.6-1.2-1.2-1.8-1.8-.1-.1-.2-.4 0-.5.8-.6 1.4-1.3 2.1-2m1.8 5c0 .5.4.9.9.9.5 0 .9-.4.9-.9 0-.5-.4-.9-.9-.9-.5 0-.9.4-.9.9"/></g></svg>