<svg xmlns="http://www.w3.org/2000/svg" viewBox="0 0 640 480" xmlns:xlink="http://www.w3.org/1999/xlink"><defs><path id="0" d="m-70.866 423.42c0 14.669-12.827 26.575-17.717 26.575-4.89 0 0-11.906 0-26.575s-4.89-26.575 0-26.575 17.717 11.906 17.717 26.575"/></defs><g stroke-width="1.25"><g fill-rule="evenodd" transform="matrix(.90311 0 0 .96759 0-15.421)"><path fill="#0000bd" d="m0 15.937h237.4v496.06h-237.4z"/><path fill="#cc1900" d="m471.26 15.937h237.4v496.06h-237.4z"/><path fill="#fff600" d="m237.4 15.937h233.86v496.06h-233.86z"/></g><g transform="matrix(1.4342 0 0 1.4102-183.84-822.43)"><g stroke="#000"><path fill="#cba323" fill-rule="evenodd" d="m398.54 290.22c47.823.818 44.515-29.15 61.974-32.13 17.458-2.977 33.928 12.489 33.3 29.972 1.873 20.814-29.714 20.963-31.637 38.3-1.923 17.336 15.378 22.628 33.3 19.982s30.646-20.363 39.804-28.689c-13.321 7.493-24.22 4.778-25.21-8.558.673-17.497 18.1-23.847 26.345-17.96 6.476-5.298 6.09-7.423 13.209-6.246 4.828 2.944 6.143 2.861 8.999 7.418 3.717-2.355 5.269-3.54 12.204-.597 4.306 1.767 7.181 4.961 9.841 9.808 3.146-2.486 8.09-3.413 13.762-.197 3.61 1.837 8.108 7.182 8.72 12.995 8.451 1.696 11.381 3.654 14.03 7.953 15.765 21.775-2.435 58.47-1.432 77.2 1 18.731 16.651 19.981 16.651 19.981-14.717-9.42-.201-15.9 6.745-16.55 22.252 2.292 18.508 35.13-5.18 29.366-18.978-5.18 38.921 3.281 37.525 62.64-1.396 61.02-32.815 49.01-32.815 49.01s26.838 10.11 21.646 30.09c-5.191 13.507-32.933 22.456-30.578-3.448-8.242 11.186-10.608 15.913-10.58 32.916-1.148 21.713.656 31.631 6.845 42.3 1.48-9.935 8.206-10.361 13.952-9.1 8.101.084 12.607 6.442 9.563 14.684 4.079-1.035 7.801 1.757 9.402 5.121 1.255 6.206 4.04 8.956-2.439 11.311 6.476 1.178 9.61 2.024 10.377 11.05.18 7.261-12.596 11.246-26.14 8.891 7.07 3.533 29.983 50.02 26.922 103.44-2.119 47.905-86.04 43.639-123.53 42.3-37.488-1.332-72.51.775-87.13 13.05 11.247 7.182-1.302 29.542-10.864 19.06 0 8.242-9.449 20.979-22.497 12.718.534 14.885-14.238 25.328-27.12 25.328s-27.655-10.443-27.12-25.328c-13.05 8.261-22.497-4.476-22.497-12.718-9.562 10.478-22.11-11.882-10.864-19.06-14.621-12.277-49.645-14.384-87.13-13.05-37.489 1.334-121.41 5.6-123.53-42.3-3.061-53.42 23.699-99.91 30.764-103.44-13.54 2.355-26.316-1.63-26.14-8.891.767-9.02 3.901-9.871 10.377-11.05-6.476-2.355-3.694-5.105-2.439-11.311 1.601-3.364 5.323-6.156 9.402-5.121-3.044-8.242 1.462-14.6 9.563-14.684 5.746-1.261 12.472-.835 13.952 9.1 6.189-10.67 7.993-20.588 6.845-42.3.028-17-2.338-21.73-10.58-32.916 2.355 25.904-25.387 16.955-30.578 3.448-5.192-19.981 21.646-30.09 21.646-30.09s-31.419 12.01-32.815-49.01c-1.396-59.36 56.5-67.817 37.525-62.64-23.688 5.769-27.432-27.07-5.18-29.366 6.946.65 21.462 7.13 6.745 16.55 0 0 15.647-1.25 16.651-19.981 1-18.732-17.197-55.43-1.432-77.2 2.653-4.299 5.583-6.257 14.03-7.953.612-5.813 5.11-11.158 8.72-12.995 5.676-3.216 10.616-2.289 13.762.197 2.66-4.847 5.535-8.04 9.841-9.808 6.935-2.943 8.487-1.758 12.204.597 2.856-4.557 4.171-4.474 8.999-7.418 7.119-1.177 6.733.948 13.209 6.246 8.242-5.887 25.672.463 26.345 17.96-.992 13.336-11.889 16.05-25.21 8.558 9.158 8.326 21.88 26.04 39.804 28.689s35.23-2.646 33.3-19.982c-1.923-17.335-33.51-17.484-31.637-38.3-.626-17.483 15.844-32.949 33.3-29.972 17.459 2.977 14.15 32.944 62.18 32.13z" transform="matrix(.38925 0 0 .37394 196.25 536.23)"/><g fill="none"><path d="m356.44 346.62c-.575 17.961-31.26 14.828-51.51 13.859-26.326-1.231-77.59-46.08-44.26-69.888" transform="matrix(.38925 0 0 .37394 196.25 536.23)" id="9"/><path d="m164.84 449.52c-16.484 17.662 28.691 13.497 9.419-9.419-7.87-8.82-41.21 18.839-41.21 49.45s10.597 44.742 16.484 45.919c5.887 1.178 15.307-3.532 15.307-8.241 0-5.887-4.71-15.307-11.774-14.13-11.775 0-5.888 10.597 0 10.597" transform="matrix(.38925 0 0 .37394 196.25 536.23)" id="A"/><path d="m163.39 451.39s-24.453 9.908-24.453 39.34c0 29.436 7.06 28.26 7.06 28.26" transform="matrix(.38925 0 0 .37394 196.25 536.23)" id="B"/><path d="m166.02 430.68s24.726-3.533 23.549 18.838c-1.178 22.371-9.42 23.549-22.371 22.371-12.952-1.177-5.887-16.483-5.887-16.483" transform="matrix(.38925 0 0 .37394 196.25 536.23)" id="C"/><path d="m156.6 543.71s18.839-1.178 17.661-21.19c-1.177-20.02-15.306-21.19-23.548-20.02-8.242 1.177-10.74 5.803-8.242 12.88" transform="matrix(.38925 0 0 .37394 196.25 536.23)" id="D"/><path d="m150.71 567.26s3.936-8.158 16.887-8.158c12.952 0 18.982 30.386 17.805 63.35-1.178 32.968-33.515 61.37-40.58 59.01-7.06-2.355-10.597-3.533-4.71-8.242" transform="matrix(.38925 0 0 .37394 196.25 536.23)" id="E"/><path d="m172.39 643.31l-22.859 38.17" transform="matrix(.38925 0 0 .37394 196.25 536.23)" id="F"/><path d="m141.29 667.34c0 .416 5.05-1.105 8.587 1.249 3.532 2.355 4.365 5.816 4.365 5.816" transform="matrix(.38925 0 0 .37394 195.85 536.34)" id="G"/><path d="m144.82 650.86s4.517-1.819 10.404.536 5.695 7.662 5.695 7.662" transform="matrix(.35485 0 0 .26779 202.53 605.66)" id="H"/><path d="m171.78 731.95c12.251 6.364 24.282-25.18.671-26.726-16.888-.69-29.09 23.268-26.73 35.04 6.431 40.06 10.444 66.861 50.568 72.04 30.613 2.355 78.45-5.101 108.3-1.523 29.44 3.433 61.94 14.272 73.71 26.05 11.774 11.774 19.11 11.892 19.11 23.667 0 11.774-16.815 17.816-23.476 10.74" transform="matrix(.38925 0 0 .37394 195.83 537.04)"/><path d="m369.84 876.92c4.305-2.914 14.556-20.425 4.722-30.815-15.194-15.401-26.17-21.479-33.658-23.977" transform="matrix(.38925 0 0 .37394 195.83 537.04)" id="I"/><path d="m347.55 863.28c5.828-3.532 6.684-15.298.594-24.274-6.091-8.975-21.941-16.16-53.07-18.799-23.583-1.982-87.84 8.444-111.39 1.379-33.06-12.721-53.845-34.15-48.773-87.39 1.521-20.621 11.917-34.465 32.28-37.11 22.858-.143 28.813 14.734 28.813 33.571 0 9.681-25.317 18.878-29.909 9.705-7.109-12.854-10.217-24.451 15.881-30.607" transform="matrix(.38925 0 0 .37394 195.83 537.04)"/><path d="m337.41 844.59s9.765 5.685 7.41 10.395c-2.354 4.709-8.658 2.7-4.496-2.296" transform="matrix(.38925 0 0 .37394 195.83 537.04)" id="J"/><path d="m238.95 291.4s-6.66 6.66-3.33 22.479 9.991 14.987 9.991 14.987" transform="matrix(.38925 0 0 .37394 196.25 536.23)" id="K"/><path d="m216.47 300.55c-.833 1.665-9.706 11.858-4.71 22.681 4.995 10.824 8.956 12.977 8.956 12.977" transform="matrix(.38925 0 0 .37394 196.25 536.23)" id="L"/><path d="m193.99 313.87s-7.195 10.622-8.567 29.555 7.789 45 7.533 54.698c-.581 20.609-24.01 30.839-24.01 30.839" transform="matrix(.38925 0 0 .37394 196.25 536.23)" id="M"/><path d="m159.85 543.66c1.665 0 34.13-29.972 34.13 76.6-2.498 61.61-38.3 67.44-38.3 67.44" transform="matrix(.38925 0 0 .37394 196.25 536.23)" id="N"/><path d="m162.49 689.71c13.148-3.336 40.43 10.99 30.613 35.32" transform="matrix(.38925 0 0 .37394 196.91 537.13)"/><path d="m167.78 681.47c8.439.785 15.319 6.904 18.458 15.343" transform="matrix(.38925 0 0 .37394 196.12 536.47)"/><path d="m148.2 477.06s9.991 14.15 24.977 14.15 19.982-15.819 19.982-15.819" transform="matrix(.38925 0 0 .37394 196.25 536.23)" id="O"/><path d="m146.53 484.55s9.158 16.652 24.977 17.484c15.819.833 21.647-10.823 21.647-10.823" transform="matrix(.38925 0 0 .37394 196.25 536.23)" id="P"/><path d="m179.84 509.52s11.657 4.996 11.657 19.15c0 14.15-10.824 10.823-10.824 10.823" transform="matrix(.38925 0 0 .37394 196.25 536.23)" id="Q"/><g transform="matrix(-1 0 0 1 702.68 0)"><use xlink:href="#9"/><use xlink:href="#A"/><use xlink:href="#B"/><use xlink:href="#C"/><use xlink:href="#D"/><use xlink:href="#E"/><use xlink:href="#F"/></g><use transform="matrix(-1 0 0 1 702.68.13)" xlink:href="#G"/><use transform="matrix(-1 0 0 1 702.68 0)" xlink:href="#H"/><path d="m170.42 741.5c-2.354 0 15.451-19.877-.688-23.897-20.284-3.872-28.744 16.55-26.389 28.323 5.072 28.746 16.897 64.03 52.945 66.39 30.613 2.355 78.45-5.101 108.3-1.523 29.44 3.433 61.94 14.272 73.71 26.05 11.774 11.774 19.11 11.892 19.11 23.667 0 11.774-16.815 17.816-23.476 10.74" transform="matrix(-.38925 0 0 .37394 505.26 537.04)"/><use transform="matrix(-1 0 0 1 701.09 0)" xlink:href="#I"/><path d="m347.55 863.28c5.828-3.532 6.684-15.298.594-24.274-6.091-8.975-21.941-16.16-53.07-18.799-23.583-1.982-87.84 8.444-111.39 1.379-43.929-18.378-53.5-42.635-52.51-81.73 1.521-20.621 12.257-36.587 32.618-39.23 22.858-.143 26.774 11.906 26.774 30.744 0 9.68-9.01 25.716-21.334 23.362-12.322-3.188-21.92-25.01-1.106-36.669" transform="matrix(-.38925 0 0 .37394 505.26 537.04)"/><use transform="matrix(-1 0 0 1 701.09 0)" xlink:href="#J"/><g transform="matrix(-1 0 0 1 702.68 0)"><use xlink:href="#K"/><use xlink:href="#L"/><use xlink:href="#M"/><use xlink:href="#N"/></g><path d="m158.07 701.03c16.205-14.296 47.22 13.11 35.708 38.506" transform="matrix(-.38925 0 0 .37394 506.56 534.49)"/><path d="m167.78 681.47c8.439.785 17.357 6.197 20.496 14.636" transform="matrix(-.38925 0 0 .37394 508.02 537.4)"/><g transform="matrix(-1 0 0 1 702.68 0)"><use xlink:href="#O"/><use xlink:href="#P"/><use xlink:href="#Q"/></g><g transform="matrix(.38925 0 0 .37394 196.25 536.23)"><path d="m353.01 313.46c.416-.416-1.665-9.159 8.326-8.742 9.99.416 6.244 9.574 14.57 12.904 7.909 2.082 22.06 4.164 22.528 4.164s14.619-2.082 22.528-4.164c8.326-3.33 4.58-12.488 14.57-12.904 9.991-.417 7.91 8.326 8.326 8.742"/><path d="m373.28 349.42c-.294-4.121-1.249-9.55-6.871-9.966-10.525-.345-18.856 20.605 4.444 20.753 17.06.111 17.198-32.355.804-32.831-23.549-.667-26.788 13.389-26.402 16.14 5.957-50.4-33.25-40.21-31.373-59.77.207-10.606 10.849-11.822 22.479-9.857 17.459 2.799 14.15 30.967 62.08 30.2 47.927.769 44.619-27.399 62.08-30.2 11.63-1.965 22.272-.749 22.479 9.857 1.873 19.564-37.33 9.373-31.373 59.77.386-2.754-2.853-16.81-26.402-16.14-16.394.476-16.251 32.942.804 32.831 23.3-.148 14.969-21.1 4.444-20.753-5.622.416-6.577 5.845-6.871 9.966"/></g></g></g><path d="m404.47 889.55v.217h-4.155v-.217h.264c.231 0 .416-.041.557-.123.101-.055.179-.148.234-.281.043-.094.065-.34.065-.738v-5.227c0-.406-.022-.66-.065-.762-.043-.101-.131-.189-.264-.263-.129-.079-.304-.118-.527-.118h-.264v-.216h4.155v.216h-.264c-.23 0-.416.041-.557.123-.101.055-.181.149-.24.282-.043.093-.064.34-.064.738v5.227c0 .406.021.66.064.761.047.102.135.192.264.27.133.074.31.111.533.111h.264" transform="matrix(1.0544-.26437.21258 1.3113-201.97-224.59)"/><path d="m399.64 881.82v2.15h-.211c-.125-.496-.264-.852-.416-1.066-.153-.219-.362-.393-.627-.522-.149-.07-.409-.105-.78-.105h-.591v6.129c0 .406.021.66.064.761.047.102.135.192.264.27.132.074.312.111.539.111h.263v.217h-4.16v-.217h.264c.23 0 .416-.041.557-.123.101-.055.181-.148.24-.281.043-.094.064-.34.064-.738v-6.129h-.574c-.535 0-.924.113-1.166.34-.34.316-.555.767-.645 1.353h-.222v-2.15h7.137" transform="matrix(1.0667-.1721.13839 1.3265-141.19-274.74)"/><path d="m370.04 882.28v3.263h.229c.351 0 .638-.052.861-.158.222-.105.41-.283.562-.533.157-.25.258-.588.305-1.014h.205v3.99h-.205c-.074-.753-.277-1.25-.609-1.488-.328-.242-.702-.363-1.119-.363h-.229v2.432c0 .406.021.66.064.761.047.102.135.192.264.27.133.074.311.111.533.111h.264v.217h-4.154v-.217h.263c.231 0 .416-.041.557-.123.102-.055.18-.148.234-.281.043-.094.065-.34.065-.738v-5.227c0-.406-.022-.66-.065-.762-.043-.101-.13-.189-.263-.263-.129-.079-.305-.118-.528-.118h-.263v-.216h6.703v2.279h-.24c-.055-.535-.196-.932-.422-1.19-.223-.257-.547-.439-.973-.544-.234-.059-.668-.088-1.301-.088h-.738" transform="matrix(1.0721-.1076.08652 1.3333-97.42-305.95)"/><path d="m354.64 881.82v2.15h-.211c-.125-.496-.264-.852-.416-1.066-.153-.219-.362-.393-.627-.522-.149-.07-.409-.105-.78-.105h-.591v6.129c0 .406.021.66.064.761.047.102.135.192.264.27.132.074.312.111.539.111h.263v.217h-4.16v-.217h.264c.23 0 .416-.041.557-.123.101-.055.181-.148.24-.281.043-.094.064-.34.064-.738v-6.129h-.574c-.535 0-.924.113-1.166.34-.34.316-.555.767-.645 1.353h-.222v-2.15h7.137" transform="matrix(1.0756 0 0 1.3376-22.15-348.78)"/><path d="m346.8 889.55v.217h-4.154v-.217h.263c.231 0 .416-.041.557-.123.101-.055.18-.148.234-.281.043-.094.065-.34.065-.738v-5.227c0-.406-.022-.66-.065-.762-.043-.101-.131-.189-.263-.263-.129-.079-.305-.118-.528-.118h-.263v-.216h4.154v.216h-.264c-.23 0-.416.041-.556.123-.102.055-.182.149-.241.282-.043.093-.064.34-.064.738v5.227c0 .406.021.66.064.761.047.102.135.192.264.27.133.074.311.111.533.111h.264" transform="matrix(1.0756 0 0 1.3376-22.555-348.78)"/><path d="m336.73 881.82l3.92 4.927v-3.416c0-.476-.069-.798-.206-.966-.187-.227-.502-.336-.943-.329v-.216h2.625v.216c-.336.043-.562.1-.68.17-.113.067-.203.178-.269.334-.063.153-.094.416-.094.791v6.616h-.199l-5.373-6.616v5.05c0 .457.103.766.31.926.211.16.452.24.721.24h.188v.217h-2.819v-.217c.438-.004.742-.094.914-.269.172-.176.258-.475.258-.897v-5.607l-.17-.211c-.168-.211-.316-.35-.445-.416-.129-.067-.315-.104-.557-.112v-.216h2.819" transform="matrix(1.0756 0 0 1.3376-22.957-348.78)"/><path d="m333.61 881.82v.216c-.289.047-.547.202-.773.463-.164.196-.408.655-.733 1.377l-2.736 6.071h-.193l-2.725-6.317c-.328-.762-.549-1.209-.662-1.342-.109-.132-.318-.216-.627-.252v-.216h3.809v.216h-.129c-.344 0-.578.043-.703.129-.09.059-.135.145-.135.258 0 .07.015.154.047.252.031.094.136.35.316.768l1.693 3.955 1.571-3.522c.187-.426.303-.711.345-.855.043-.145.065-.268.065-.369 0-.118-.031-.221-.094-.311-.062-.09-.154-.158-.275-.205-.168-.066-.391-.1-.668-.1v-.216h2.607" transform="matrix(1.0747.05465-.04394 1.3365 15.894-366.74)"/><path d="m321.03 881.64l.065 2.648h-.241c-.113-.664-.392-1.197-.837-1.599-.442-.406-.92-.61-1.436-.61-.398 0-.715.108-.949.323-.231.211-.346.455-.346.732 0 .176.041.332.123.469.113.183.295.365.545.545.184.129.607.357 1.271.685.93.457 1.557.889 1.881 1.295.321.407.481.871.481 1.395 0 .664-.26 1.236-.779 1.717-.516.476-1.172.714-1.969.714-.25 0-.487-.025-.709-.076-.223-.051-.502-.146-.838-.287-.188-.078-.342-.117-.463-.117-.102 0-.209.039-.322.117-.114.078-.205.197-.276.358h-.216v-3h.216c.172.843.502 1.488.991 1.933.492.442 1.021.662 1.587.662.438 0 .786-.119 1.043-.357.262-.238.393-.516.393-.832 0-.188-.051-.369-.152-.545-.098-.176-.248-.342-.451-.498-.204-.16-.563-.367-1.079-.621-.722-.356-1.242-.658-1.558-.908-.317-.25-.561-.53-.733-.838-.168-.309-.252-.649-.252-1.02 0-.633.233-1.172.698-1.617s1.05-.668 1.757-.668c.258 0 .508.031.75.094.184.047.407.135.668.263.266.125.452.188.557.188.102 0 .182-.031.24-.094.059-.062.114-.213.164-.451h.176" transform="matrix(1.0737.07958-.06399 1.3353 32.32-374.09)"/><path d="m315.27 881.82v.216c-.289.047-.546.202-.773.463-.164.196-.408.655-.732 1.377l-2.737 6.071h-.193l-2.725-6.317c-.328-.762-.549-1.209-.662-1.342-.109-.132-.318-.216-.627-.252v-.216h3.809v.216h-.129c-.344 0-.578.043-.703.129-.09.059-.135.145-.135.258 0 .07.016.154.047.252.031.094.137.35.316.768l1.694 3.955 1.57-3.522c.187-.426.303-.711.346-.855.043-.145.064-.268.064-.369 0-.118-.031-.221-.094-.311-.062-.09-.154-.158-.275-.205-.168-.066-.391-.1-.668-.1v-.216h2.607" transform="matrix(1.0684.15492-.12457 1.3286 87.77-392.06)"/><path d="m306.3 881.82v2.15h-.211c-.125-.496-.264-.852-.416-1.066-.152-.219-.361-.393-.627-.522-.148-.07-.408-.105-.779-.105h-.592v6.129c0 .406.021.66.064.761.047.102.135.192.264.27.133.074.312.111.539.111h.264v.217h-4.16v-.217h.263c.231 0 .416-.041.557-.123.101-.055.182-.148.24-.281.043-.094.065-.34.065-.738v-6.129h-.575c-.535 0-.923.113-1.166.34-.34.316-.554.767-.644 1.353h-.223v-2.15h7.137" transform="matrix(1.0645.19192-.15432 1.3238 115.07-398.65)"/><path d="m289.79 889.55v.217h-4.154v-.217h.264c.23 0 .416-.041.556-.123.102-.055.18-.148.235-.281.042-.094.064-.34.064-.738v-5.227c0-.406-.022-.66-.064-.762-.043-.101-.131-.189-.264-.263-.129-.079-.305-.118-.527-.118h-.264v-.216h4.154v.216h-.264c-.23 0-.416.041-.556.123-.102.055-.182.149-.24.282-.043.093-.065.34-.065.738v5.227c0 .406.022.66.065.761.046.102.134.192.263.27.133.074.311.111.533.111h.264" transform="matrix(1.0454.31493-.25324 1.3 207.07-413.52)"/><path d="m285.27 881.82v.216c-.29.047-.547.202-.774.463-.164.196-.408.655-.732 1.377l-2.737 6.071h-.193l-2.725-6.317c-.328-.762-.548-1.209-.662-1.342-.109-.132-.318-.216-.627-.252v-.216h3.809v.216h-.129c-.344 0-.578.043-.703.129-.09.059-.135.145-.135.258 0 .07.016.154.047.252.031.094.137.35.316.768l1.694 3.955 1.57-3.522c.188-.426.303-.711.346-.855.043-.145.064-.268.064-.369 0-.118-.031-.221-.094-.311-.062-.09-.154-.158-.275-.205-.168-.066-.391-.1-.668-.1v-.216h2.608" transform="matrix(1.0402.34045-.27376 1.2936 226.33-414.79)"/><path d="m409.38 881.71c1.265-.047 2.293.323 3.082 1.108.793.785 1.189 1.767 1.189 2.947 0 1.01-.295 1.895-.884 2.66-.782 1.016-1.885 1.524-3.311 1.524-1.43 0-2.535-.485-3.316-1.454-.618-.765-.926-1.673-.926-2.724 0-1.18.4-2.162 1.201-2.947.805-.789 1.793-1.161 2.965-1.114m.07.375c-.726 0-1.279.371-1.658 1.114-.309.609-.463 1.484-.463 2.625 0 1.355.238 2.357.715 3 .332.454.797.68 1.394.68.403 0 .739-.098 1.01-.293.344-.25.612-.648.803-1.195.191-.551.287-1.268.287-2.151 0-1.05-.098-1.835-.293-2.355-.195-.523-.445-.893-.75-1.107-.301-.215-.648-.323-1.043-.323" transform="matrix(1.0667-.1721.13839 1.3265-141.19-275.24)"/><path d="m378.71 881.71c1.266-.047 2.293.323 3.082 1.108.793.785 1.189 1.767 1.189 2.947 0 1.01-.294 1.895-.884 2.66-.782 1.016-1.885 1.524-3.311 1.524-1.43 0-2.535-.485-3.316-1.454-.617-.765-.926-1.673-.926-2.724 0-1.18.4-2.162 1.201-2.947.805-.789 1.793-1.161 2.965-1.114m.07.375c-.726 0-1.279.371-1.658 1.114-.308.609-.463 1.484-.463 2.625 0 1.355.239 2.357.715 3 .332.454.797.68 1.395.68.402 0 .738-.098 1.01-.293.344-.25.612-.648.803-1.195.192-.551.287-1.268.287-2.151 0-1.05-.097-1.835-.293-2.355-.195-.523-.445-.893-.75-1.107-.3-.215-.648-.323-1.043-.323" transform="matrix(1.0721-.1076.08652 1.3333-97.42-305.95)"/><path d="m386.6 886.15v2.226c0 .43.025.702.076.815.055.109.148.197.281.264.133.066.381.099.744.099v.217h-4.066v-.217c.367 0 .615-.033.744-.099.133-.071.225-.161.275-.27.055-.109.082-.379.082-.809v-5.156c0-.43-.027-.699-.082-.808-.05-.114-.142-.204-.275-.27s-.381-.1-.744-.1v-.216h3.691c.961 0 1.664.066 2.11.199.445.133.808.379 1.09.738.281.356.421.774.421 1.254 0 .586-.211 1.07-.632 1.453-.27.242-.647.424-1.131.545l1.91 2.69c.25.347.428.564.533.65.16.121.346.187.557.199v.217h-2.502l-2.561-3.621h-.521m0-3.897v3.481h.334c.543 0 .949-.049 1.218-.147.27-.101.481-.281.633-.539.157-.261.235-.601.235-1.019 0-.606-.143-1.053-.428-1.342-.281-.289-.736-.434-1.365-.434h-.627" transform="matrix(1.0667-.1721.13839 1.3265-141.19-275.24)"/><path d="m417.27 886.15v2.226c0 .43.025.702.076.815.054.109.148.197.281.264.133.066.381.099.744.099v.217h-4.066v-.217c.367 0 .615-.033.744-.099.133-.071.224-.161.275-.27.055-.109.082-.379.082-.809v-5.156c0-.43-.027-.699-.082-.808-.051-.114-.142-.204-.275-.27s-.381-.1-.744-.1v-.216h3.691c.961 0 1.664.066 2.109.199.446.133.809.379 1.09.738.282.356.422.774.422 1.254 0 .586-.211 1.07-.633 1.453-.269.242-.646.424-1.13.545l1.91 2.69c.25.347.427.564.533.65.16.121.346.187.557.199v.217h-2.502l-2.561-3.621h-.521m0-3.897v3.481h.334c.543 0 .949-.049 1.218-.147.27-.101.481-.281.633-.539.156-.261.234-.601.234-1.019 0-.606-.142-1.053-.427-1.342-.282-.289-.737-.434-1.365-.434h-.627" transform="matrix(1.0417-.33296.26773 1.2955-245.66-181.16)"/><path d="m293.25 886.15v2.226c0 .43.025.702.076.815.055.109.149.197.281.264.133.066.381.099.745.099v.217h-4.067v-.217c.367 0 .615-.033.744-.099.133-.071.225-.161.276-.27.054-.109.082-.379.082-.809v-5.156c0-.43-.028-.699-.082-.808-.051-.114-.143-.204-.276-.27-.132-.066-.381-.1-.744-.1v-.216h3.692c.961 0 1.664.066 2.109.199s.809.379 1.09.738c.281.356.422.774.422 1.254 0 .586-.211 1.07-.633 1.453-.27.242-.647.424-1.131.545l1.91 2.69c.25.347.428.564.533.65.161.121.346.187.557.199v.217h-2.502l-2.56-3.621h-.522m0-3.897v3.481h.334c.543 0 .949-.049 1.219-.147.269-.101.48-.281.633-.539.156-.261.234-.601.234-1.019 0-.606-.143-1.053-.428-1.342-.281-.289-.736-.434-1.365-.434h-.627" transform="matrix(1.0633.20168-.16217 1.3223 122.81-400.27)"/><path d="m360.07 887.51h-2.806l-.334.774c-.11.257-.164.47-.164.638 0 .223.089.387.269.493.106.062.365.109.779.14v.217h-2.642v-.217c.285-.043.519-.16.703-.351.184-.196.41-.596.68-1.202l2.842-6.339h.111l2.865 6.515c.274.617.498 1.01.674 1.166.133.121.32.192.562.211v.217h-3.843v-.217h.158c.308 0 .525-.043.65-.129.086-.062.129-.152.129-.269 0-.071-.012-.143-.035-.217-.008-.035-.066-.182-.176-.44l-.422-.99m-.199-.433l-1.183-2.737-1.219 2.737h2.402" transform="matrix(1.0746-.05638.04534 1.3364-62.37-327.47)"/></g></g><g fill-rule="evenodd"><g transform="matrix(.55826 0 0 .52733 97.62-66.24)"><path fill="#fff600" d="m407.48 556.3h177.17v177.17h-177.17z"/><g fill="#cc1900"><path d="m432.79 379.13h25.309v177.17h-25.309z"/><path d="m483.41 379.13h25.309v177.17h-25.309z"/><path d="m534.03 379.13h25.309v177.17h-25.309z"/></g><g fill="#fff600"><path d="m407.48 379.13h25.309v177.17h-25.309z"/><path d="m458.1 379.13h25.309v177.17h-25.309z"/><path d="m508.72 379.13h25.309v177.17h-25.309z"/><path d="m559.34 379.13h25.309v177.17h-25.309z"/></g><g fill="#cc1900"><path d="m271.65 574.02h19.685v159.45h-19.685z"/><path d="m311.02 574.02h19.685v159.45h-19.685z"/><path d="m350.39 574.02h19.685v159.45h-19.685z"/></g><g fill="#fff600"><path d="m251.97 574.02h19.685v159.45h-19.685z"/><path d="m291.34 574.02h19.685v159.45h-19.685z"/><path d="m330.71 574.02h19.685v159.45h-19.685z"/><path d="m370.08 574.02h19.685v159.45h-19.685z"/></g><path fill="#cc1900" d="m232.28 574.02h19.685v159.45h-19.685z"/><path fill="#fff600" d="m212.6 574.02h19.685v159.45h-19.685z"/><path fill="#cc1900" d="m212.6 379.13h177.17v177.17h-177.17z"/><g stroke-width="1.25"><path fill="#fff600" d="m274.92 206.71c8.913-4.302 8.549-19.09 8.549-31.31 0-24.449-19.843-44.29-44.29-44.29s-44.29 17.488-44.29 41.937l-17.717 11.213h26.52l-26.52 17.717h35.433l-248.03 318.9 17.717 17.717 248.03-318.9c6.549-8.42 0-17.716-9.158-24.793-10.805-8.349-8.559-10.64-8.559-21.579 0-15.936 11.906-24.494 26.575-24.494s26.575 11.905 26.575 26.575c0 7.335-1.502 16.184-7.787 18.788-9.93 7.787 7.787 25.503 16.955 12.525z" transform="matrix(.38555.0508-.04544.34484 277.44 345.95)"/><path fill="#cba323" stroke="#000" d="m194.88 361.42v336.61c0 35.434 16.978 53.15 50.934 53.15h118.85c33.957 0 33.957 35.433 33.957 35.433s0-35.433 33.956-35.433h118.85c33.957 0 50.935-17.716 50.935-53.15v-336.61h-407.48zm17.716 17.717v177.16h177.17v-177.16h-177.17zm194.88 0v177.16h177.17v-177.16h-177.17zm-194.88 194.88v106.3c0 35.434 16.978 53.15 50.934 53.15h73.08 53.15v-159.45h-177.16zm372.05 0v106.3c0 35.434-16.977 53.15-50.934 53.15h-73.08-53.15v-159.45h177.16z"/></g><path fill="#fff" d="m283.46 396.85l-53.15 50.619 16.354 91.11h73.59l16.354-91.11-53.15-50.619" transform="matrix(.66667 0 0 .75 112.2 99.22)"/><path fill="#fff600" d="m283.46 406.97l-44.29 40.495 17.717 80.99h26.574v-121.48zm8.859 0v121.48h26.575l17.716-80.99-44.29-40.495z" transform="matrix(.61539 0 0 .7 124.02 126.14)"/><g fill="#fffbff"><path d="m212.6 201.97h-17.716s8.858 35.433 17.716 35.433c35.433 0 106.48-51.679 106.3-35.433 0 35.433-17.717 17.716-17.717 35.433 0 17.716 35.433 0 35.433-17.717 0-17.716 0-35.433-17.716-35.433-17.717 0-69.23 35.671-88.58 35.433-17.717 0-17.717-17.716-17.717-17.716" transform="matrix(.5 0 0 .41421 203.74 419.49)" id="2"/><use transform="matrix(-1 0 0 1 602.36 0)" xlink:href="#2"/></g></g><g transform="matrix(.21241 0 0 .16964 384.88 156.03)"><g fill="#cc1900" stroke="#fff600"><path stroke-width="5" d="m70.866 574.02c0 35.433 28.704 36.668 17.717 53.15l-35.433 53.15h-17.716l17.716-53.15c5.905-17.716 17.716-65.37 17.716-53.15z" transform="matrix(.97779.20961-.20961.97779 72.52-.076)" id="3"/><path stroke-width="7.99" d="m35.433 423.42c0 3.667 2.242 31.888 0 35.07-2.242 3.179-8.969-18.684-12.977-16.279-4.01 2.405-7.603 24.16-12.902 25.504-5.298 1.35-12.3-17.71-18.412-17.71-6.112 0-11.937 19.06-17.235 17.717-5.298-1.346-10.07-23.1-14.08-25.504-4.01-2.405-10.735 19.458-12.977 16.279-2.242-3.179 0-31.4 0-35.07 0-14.669 19.842-26.575 44.29-26.575s44.29 11.906 44.29 26.575z" transform="matrix(.7824 0 0 .50048 24.647 401.29)" id="4"/></g><use fill="#008d00" stroke-width="1.25" transform="matrix(.71447-.39551.69966.40388-390.91 291.35)" xlink:href="#0"/><g fill="#cc1900" stroke="#fff600" stroke-width="5"><path d="m-70.866 414.57v53.15h53.15v-17.717h-35.433v-35.433h-17.716z" transform="matrix(.53461.8451-.8451.53461 273.7 427.53)" id="5"/><path d="m70.866 574.02c0 35.433 28.704 36.668 17.717 53.15l-35.433 53.15h-17.716l17.716-53.15c5.905-17.716-17.716-35.433-70.866 0-12.224 0-70.866-8.963-70.866 0v53.15h-17.716v-53.15c0-6.941-35.433-53.15-35.433-70.866 0-12.224-53.15 0-53.15-17.716 0-8.859 35.433-17.717 35.433-35.433 0-17.717 35.433 0 53.15 0 0 17.716-17.717 35.433 17.716 35.433 24.449 0 177.17 0 177.17 17.716 0 17.717-17.717 5.493-17.717 17.717z" id="6"/></g><g fill="#008d00"><g stroke-width="1.25"><use transform="matrix(.3385-.70209.65562-.00456-354.02 632.49)" xlink:href="#0"/><use transform="matrix(.3385-.70209.65562-.00456-212.29 632.49)" xlink:href="#0"/><use transform="matrix(-.13112-.76832.53161-.38374-357.18 763.6)" xlink:href="#0"/><use transform="matrix(.31961-.71089.65527-.02208-282.41 624.63)" xlink:href="#0"/></g><path d="m-458.49 354.1h53.15v17.717h-53.15z" transform="matrix(.79368-.60833.60833.79368 0 0)" id="7"/><path d="m-17.717 503.15c0 39.14-11.898 70.866-26.575 70.866s-26.575-31.728-26.575-70.866 11.898-70.866 26.575-70.866 26.575 31.728 26.575 70.866" transform="matrix(.20249 0 0 .125-127.38 519.98)" id="8"/></g></g><path fill="#cc1900" stroke="#fff600" stroke-width="5.05" d="m47.995 681.85c34.09.02 34.09 12.901 19.835 12.901-19.835 0-67.83 4.38-67.83 3.28 0-1.103-16.484-14.203-16.484-14.203-1.233-3.513 1.177 14.13-1.233 14.203-2.41.074-16.429-15.381-16.429-15.381s1.288 15.232 0 15.307c-1.288.074-17.661-9.42-17.661-9.42l-1.177 8.242-15.306 9.42 15.306 10.597v8.242l15.306-8.242 1.178 15.306 18.839-15.306s4.765 16.299 2.355 16.484c-2.41.185 16.484-16.484 16.484-16.484-1.178-1.05 54.05 0 87.41-1.05 33.35-1.048 32.746-51.937 17.716-53.15-15.03-1.213-58.3 3.33-58.3-.203" transform="matrix(.1104 0 0 .12676 390.87 165.34)" id="1"/><g transform="matrix(.21241 0 0 .16964 384.88 193.4)"><g fill="#cc1900" stroke="#fff600"><use xlink:href="#3"/><use xlink:href="#4"/></g><use fill="#008d00" stroke-width="1.25" transform="matrix(.71447-.39551.69966.40388-390.91 291.35)" xlink:href="#0"/><g fill="#cc1900" stroke="#fff600" stroke-width="5"><use xlink:href="#5"/><use xlink:href="#6"/></g><g fill="#008d00"><g stroke-width="1.25"><use transform="matrix(.3385-.70209.65562-.00456-354.02 632.49)" xlink:href="#0"/><use transform="matrix(.3385-.70209.65562-.00456-212.29 632.49)" xlink:href="#0"/><use transform="matrix(-.13112-.76832.53161-.38374-357.18 763.6)" xlink:href="#0"/><use transform="matrix(.31961-.71089.65527-.02208-282.41 624.63)" xlink:href="#0"/></g><use xlink:href="#7"/><use xlink:href="#8"/></g></g><use transform="translate(0 37.37)" xlink:href="#1"/></g></svg>