<svg width="640" xmlns="http://www.w3.org/2000/svg" viewBox="0 0 512 512" height="480" xmlns:xlink="http://www.w3.org/1999/xlink"><g fill-rule="evenodd"><g stroke-width="1.25" transform="matrix(1.3333 0 0 1-85.33 0)"><path d="m0 0h512v512h-512z"/><path fill="#090" d="m341.33 0h170.67v512h-170.67z"/><path fill="#bf0000" d="m170.67 0h170.67v512h-170.67z"/></g><g fill="#fff" stroke="#000" stroke-width=".5" transform="matrix(1.9463 0 0 1.9463-350-430.25)"><path d="m384.5 357.31c-.056.297.747.736.938.508.864-1.035 1.995-3.067 2.227-4.297.068-.358-1.083-.763-1.329-.469-.809.969-1.593 2.966-1.836 4.258z"/><path d="m276.43 420.33c-.861 3.04-13.554-2.866-14.971-5.925 7.263 3.849 15.14 3.044 14.971 5.925z"/><path d="m236.3 358.23c.635.755 1.704.249.73-.773-.798-.826-.535-1.086-1.021-2.093-.481-1.124-.456-1.745-1.036-2.548-.513-.762-1.285.015-.768.657.649.758.47 1.318.867 2.051.733 1.256.555 1.915 1.229 2.705z"/><path d="m253.37 378.84c2.042 1 3.592 3.512 3.694 5.555.173 2.351.512 4.336 1.568 6.01-1.681-.468-2.486-3.147-2.725-5.713-.242-2.656-1.673-3.808-2.537-5.849z"/><path d="m257.63 383.76c1.413 2.608 3.389 3.603 3.49 5.539.171 2.227.34 2.341.944 4.532-1.663-.443-2.082-.588-2.531-3.921-.277-2.342-2.152-3.994-1.903-6.149z"/><g stroke-linejoin="round"><path d="m290.64 397.78c2.162 1.771 3.565 3.793 4.219 6.406.682 2.434 1.641 4.375 3.048 6.563-2.292-1.563-3.733-3.689-4.454-6.251-.633-2.518-1.38-4.4-2.813-6.718z"/><path d="m331.11 397.78c-2.21 1.781-3.644 3.815-4.313 6.444-.697 2.448-1.677 4.401-3.116 6.602 2.343-1.572 3.816-3.711 4.553-6.288.647-2.533 1.411-4.426 2.875-6.757z"/><path d="m328.39 397.78c-2.369 1.861-4.603 3.973-5.271 6.602-.697 2.448-1.118 4.322-2.716 6.759 2.502-1.572 3.496-3.947 4.233-6.524.647-2.532 2.13-4.425 3.755-6.836z"/><path d="m301.61 407.89c.794 1.497 1.706 3.776 3.359 3.359.026-1.146-1.784-1.94-3.359-3.359z"/><path d="m304.08 408.4c3.21 1.316 5.983.991 6.328 3.01-3.01.325-4.113-.912-6.328-3.01z"/><path d="m319.82 408.09c-.805 1.411-1.729 3.56-3.405 3.167-.026-1.08 1.808-1.829 3.405-3.167z"/><path d="m317.57 408.52c-3.257 1.249-6.07.94-6.42 2.855 3.056.308 4.173-.865 6.42-2.855z"/></g><path d="m320.54 403.95c.064-.457-.248-.856-.622-.976-.729-.274-1.454-.497-2.177-.703-.821-.195-1.281.394-1.284.781-.004.644-.034 1.191 0 1.679.045.608.16.653.544.743.615.104 1.403.21 2.02.625.49.302.961.063 1.205-.468.158-.406.245-1.2.312-1.681z"/><path d="m311.69 403.95c-.057-.457.183-.895.517-1.015.651-.274 1.299-.341 1.983-.313.759-.012.951.16.953.547.004.644.03 1.269 0 1.757-.04.608-.027.653-.37.743-.55.104-1.487.132-2.039.547-.438.302-.936.063-.96-.507.011-.43-.025-1.278-.084-1.759z"/><path d="m300.95 403.83c-.064-.457.249-.856.625-.976.732-.274 1.461-.497 2.187-.703.825-.195 1.287.394 1.29.781.004.644.034 1.191 0 1.679-.045.608-.161.653-.547.743-.618.104-1.41.21-2.031.625-.492.302-.965.063-1.211-.468-.159-.406-.246-1.2-.313-1.681z"/><path d="m309.84 403.83c.057-.457-.184-.895-.52-1.015-.654-.274-1.305-.341-1.992-.313-.763-.012-.955.16-.958.547-.004.644-.03 1.269 0 1.757.04.608.027.653.372.743.552.104 1.494.132 2.048.547.44.302.941.063.965-.507-.011-.43.025-1.278.085-1.759z"/></g></g><g transform="matrix(1.9463 0 0 1.9463-349.35-43.25)"><g fill="#fff" fill-rule="evenodd"><path stroke="#000" stroke-width=".5" d="m274.79 144.77c-1.033-1.659-2.27 2.301-6.519 5.249-1.978 1.346-3.356 4.933-3.369 7.293-.065 1.621.18 3.238-.0001 4.806-.114.992-1.148 3.194-.441 3.757 1.87 1.39 4.291 4.546 5.414 5.635.971.851 1.812-4.393 2.541-6.74.781-2.515.431-5.521 2.597-7.845 1.535-1.569 5.407-3.113 4.972-3.812l-5.194-8.343z"/><path d="m274.79 144.77c-1.033-1.659-2.27 2.301-6.519 5.249-1.978 1.346-3.356 4.933-3.369 7.293-.065 1.621.18 3.238-.0001 4.806-.114.992-1.148 3.194-.441 3.757 1.87 1.39 4.291 4.546 5.414 5.635.971.851 1.812-4.393 2.541-6.74.781-2.515.431-5.521 2.597-7.845 1.535-1.569 5.407-3.113 4.972-3.812l-5.194-8.343"/></g><g fill="none" stroke="#000" stroke-width=".25"><path d="m268.51 149.68c-.405 2.809 1.159 3.744 2.635 4.288 1.528.543 2.781 2.182 3.426 3.665"/><path d="m267.27 151.14c.645 2.422 2.342 2.119 3.818 2.663 1.528.543 3.135 2.475 3.78 3.958" transform="translate(-2.541 7.79)"/></g><g fill="#fff" fill-rule="evenodd"><path stroke="#000" stroke-width=".5" d="m273.36 143.06l.774-.497 14.86 25.03-.773.497-14.861-25.03z"/><path d="m273.36 143.06l.774-.497 14.86 25.03-.773.497-14.861-25.03"/><path stroke="#000" stroke-width=".5" d="m274.96 142.07c0 .946-.767 1.713-1.713 1.713-.946 0-1.713-.767-1.713-1.713s.767-1.713 1.713-1.713c.946 0 1.713.767 1.713 1.713z"/><path d="m274.96 142.07c0 .946-.767 1.713-1.713 1.713-.946 0-1.713-.767-1.713-1.713s.767-1.713 1.713-1.713c.946 0 1.713.767 1.713 1.713"/></g></g><g transform="matrix(1.9463 0 0 1.9463-350-41.963)"><g fill="#fff" fill-rule="evenodd" transform="matrix(-.99948 0 0 1.035 621.43-5.225)"><path stroke="#000" stroke-width=".492" d="m274.79 144.77c-1.033-1.659-2.27 2.301-6.519 5.249-1.978 1.346-3.356 4.933-3.369 7.293-.065 1.621.18 3.238-.0001 4.806-.114.992-1.148 3.194-.441 3.757 1.87 1.39 4.291 4.546 5.414 5.635.971.851 1.812-4.393 2.541-6.74.781-2.515.431-5.521 2.597-7.845 1.535-1.569 5.407-3.113 4.972-3.812l-5.194-8.343z"/><path stroke-width="1.25" d="m274.79 144.77c-1.033-1.659-2.27 2.301-6.519 5.249-1.978 1.346-3.356 4.933-3.369 7.293-.065 1.621.18 3.238-.0001 4.806-.114.992-1.148 3.194-.441 3.757 1.87 1.39 4.291 4.546 5.414 5.635.971.851 1.812-4.393 2.541-6.74.781-2.515.431-5.521 2.597-7.845 1.535-1.569 5.407-3.113 4.972-3.812l-5.194-8.343"/><path stroke="#000" stroke-width=".492" d="m273.36 143.06l.774-.497 14.86 25.03-.773.497-14.861-25.03z"/></g><g fill="none" stroke="#000" stroke-width=".25"><path d="m268.43 149.76c-.405 2.809 1.237 3.665 2.713 4.209 1.528.543 2.859 2.064 3.504 3.547" transform="matrix(-.99948 0 0 1.035 621.43-5.225)"/><path d="m267.35 151.26c.645 2.422 2.264 2 3.74 2.549 1.528.543 3.135 2.32 3.78 3.803" transform="matrix(-.99948 0 0 1.035 623.97 2.837)"/></g><g fill="#fff" fill-rule="evenodd" transform="matrix(-.99948 0 0 1.035 621.43-5.225)"><path stroke-width="1.25" d="m273.36 143.06l.774-.497 14.86 25.03-.773.497-14.861-25.03"/><path stroke="#000" stroke-width=".492" d="m274.96 142.07c0 .946-.767 1.713-1.713 1.713-.946 0-1.713-.767-1.713-1.713s.767-1.713 1.713-1.713c.946 0 1.713.767 1.713 1.713z"/><path stroke-width="1.25" d="m274.96 142.07c0 .946-.767 1.713-1.713 1.713-.946 0-1.713-.767-1.713-1.713s.767-1.713 1.713-1.713c.946 0 1.713.767 1.713 1.713"/></g></g><g fill="#fff" fill-rule="evenodd"><g transform="matrix(1.9463 0 0 1.9463-350-41.963)"><g stroke="#000" stroke-width=".5"><path d="m287.99 121.3h6.02v1.381h-6.02z" id="C"/><path d="m287.99 123.91h6.02v11.538h-6.02z" id="D"/><path d="m287.63 119.72l6.68.039c.261-2.265-2-4.712-3.32-4.687-1.305.063-3.412 2.474-3.36 4.648z" id="E"/><path d="m327.55 121.33h6.02v1.381h-6.02z" id="F"/><path d="m327.55 123.95h6.02v11.538h-6.02z" id="G"/><use transform="translate(39.556.039)" xlink:href="#E"/></g><g stroke-width="1.25"><use xlink:href="#C"/><use xlink:href="#D"/></g><path d="m287.63 119.72l6.68.039c.261-2.265-2-4.712-3.32-4.687-1.305.063-3.412 2.474-3.36 4.648" id="1"/><g stroke-width="1.25"><use xlink:href="#F"/><use xlink:href="#G"/></g><use transform="translate(39.556.039)" xlink:href="#1"/></g><g stroke-width="1.25" transform="matrix(1.9463 0 0 1.9463-350-430.25)"><path d="m327.55 323.45h6.02v11.538h-6.02z"/><path d="m327.55 320.83h6.02v1.381h-6.02z"/><path d="m327.19 319.26l6.68.039c.261-2.265-2-4.712-3.32-4.687-1.305.063-3.412 2.474-3.36 4.648"/><path d="m287.99 323.41h6.02v11.538h-6.02z"/><path d="m287.99 320.8h6.02v1.381h-6.02z"/><path d="m287.63 319.22l6.68.039c.261-2.265-2-4.712-3.32-4.687-1.305.063-3.412 2.474-3.36 4.648"/></g><g transform="matrix(1.9463 0 0 1.9463-350-41.963)"><path stroke="#000" stroke-width=".5" d="m282.98 137.41l3.829 4.219 47.658.078 3.907-4.219-12.188-.156-5.938-4.141-19.14-.078-5.547 4.297h-12.579z"/><path d="m282.98 137.41l3.829 4.219 47.658.078 3.907-4.219-12.188-.156-5.938-4.141-19.14-.078-5.547 4.297h-12.579"/></g></g><g transform="matrix(1.9463 0 0 1.9463-350-41.963)"><path fill="none" stroke="#000" stroke-width=".5" d="m302.49 130.9l16.457-.017c2.228-1.178 2.923-4.94 2.912-7.05-.031-6.218-4.38-9.2-8.745-9.359-.654-.033-1.413-.542-1.586-1.138-.43-1.35-.319-4.865-.79-4.817-.419-.006-.296 3.441-.669 4.707-.205.63-.913 1.251-1.619 1.287-5.433.271-8.937 4.237-8.8 9.32.092 3.361.483 5.368 2.84 7.06z"/><path fill="#fff" fill-rule="evenodd" d="m302.49 130.9l16.457-.017c2.228-1.178 2.923-4.94 2.912-7.05-.031-6.218-4.38-9.2-8.745-9.359-.654-.033-1.413-.542-1.586-1.138-.43-1.35-.319-4.786-.79-4.817-.34.033-.296 3.441-.669 4.707-.205.63-.913 1.251-1.619 1.287-5.433.271-8.937 4.237-8.8 9.32.092 3.361.483 5.368 2.84 7.06"/><g fill="none" stroke="#000" stroke-width=".25"><path d="m301.46 125.42c.415 2.049 1.402 1.735 1.329.743-.243-3.165.013-6.282 2.812-8.36.887-.65-.104-1.25-.859-.937-2.38 1-3.826 5.59-3.282 8.554z" id="2"/><path d="m302.08 125.07c.415 2.049 2.11 1.96 1.798.626-.635-2.555-.534-6.282 1.718-7.891.889-.647-.104-1.25-.859-.937-2.38 1-3.201 5.238-2.657 8.202z" transform="translate(2.149 1.641)" id="3"/><g transform="matrix(-1.0011 0 0 1 621.88.078)"><use xlink:href="#2"/><use xlink:href="#3"/></g></g><g fill="#fff" fill-rule="evenodd"><path stroke="#000" stroke-width=".5" d="m275.4 191.24h70.71l-6.329-5.157h-58.05l-6.328 5.157z"/><path d="m275.4 191.24h70.71l-6.329-5.157h-58.05l-6.328 5.157"/><g stroke="#000" stroke-width=".5"><path d="m287.67 144.84h6.719v9.297h-6.719z" id="H"/><path d="m288.06 159.45h6.485v1.953h-6.485z" id="I"/><path d="m287.91 162.88h6.641v7.266h-6.641z" id="J"/><path d="m287.44 171.63h7.266v4.063h-7.266z" id="K"/><path d="m288.44 157.7h5.855l1.161-1.933h-8.07l1.05 1.933z" transform="translate(-.11)" id="L"/><path d="m296.23 150.58l.055-5.082h4.03c-1.584 1.307-3.057 2.891-4.088 5.082z" id="M"/><path d="m-333.68 144.84h6.606v9.297h-6.606z" transform="scale(-1 1)" id="N"/><path d="m-333.57 159.45h6.375v1.953h-6.375z" transform="scale(-1 1)" id="O"/><path d="m-333.69 162.88h6.492v7.266h-6.492z" transform="scale(-1 1)" id="P"/><path d="m-334.11 171.63h7.143v4.063h-7.143z" transform="scale(-1 1)" id="Q"/><g transform="matrix(-.98312 0 0 1 616.5 0)"><use xlink:href="#L"/><use xlink:href="#M"/></g></g><g stroke-width="1.25"><use xlink:href="#H"/><use xlink:href="#I"/><use xlink:href="#J"/><use xlink:href="#K"/></g><path d="m288.44 157.7h5.855l1.161-1.933h-8.07l1.05 1.933" transform="translate(-.11)" id="4"/><path d="m296.23 150.58l.055-5.082h4.03c-1.584 1.307-3.057 2.891-4.088 5.082" id="5"/><g stroke-width="1.25"><use xlink:href="#N"/><use xlink:href="#O"/><use xlink:href="#P"/><use xlink:href="#Q"/></g><g transform="matrix(-.98312 0 0 1 616.5 0)"><use xlink:href="#4"/><use xlink:href="#5"/></g></g><g fill="none" stroke="#000" stroke-width=".25"><path d="m288.71 152.66c.04 1.087 1.271.602 1.271.055 0-1.677.022-3.49-.045-4.677-.008-.875 2.085-.656 2.073-.117.008 1.416.024 3.358.032 5.01-.015.807 1.352.737 1.333 0-.008-1.851-.009-4.541 0-5.903.012-1.754-4.605-1.716-4.641-.039.002 1.377-.025 3.842-.023 5.666z"/><path d="m288.71 152.66c.04 1.087 1.271.602 1.271.055 0-1.677.022-3.49-.045-4.677-.008-.875 2.085-.656 2.073-.117.008 1.416.024 3.358.032 5.01-.015.807 1.312.737 1.294 0-.008-1.89.03-4.541.039-5.903.012-1.754-4.605-1.716-4.641-.039.002 1.377-.025 3.842-.023 5.666z" transform="translate(39.533.195)"/></g></g><g transform="matrix(1.9463 0 0 1.9463-349.77-41.963)"><path fill="none" stroke="#000" stroke-width=".25" d="m288.61 163.74h4.766v5.938h-4.766z" id="0"/><g fill-rule="evenodd" stroke-width="1.25"><path d="m291.66 166.2h1.68v.977h-1.68z" id="6"/><path d="m288.73 166.2h1.641v.977h-1.641z" id="7"/><path d="m290.37 163.82h1.289v2.422h-1.289z" id="8"/><path d="m290.37 167.14h1.289v2.578h-1.289z" id="9"/></g></g><g transform="matrix(1.9463 0 0 1.9463-273.13-42.04)"><use xlink:href="#0"/><g fill-rule="evenodd" stroke-width="1.25"><use xlink:href="#6"/><use xlink:href="#7"/><use xlink:href="#8"/><use xlink:href="#9"/></g></g><g transform="matrix(1.9463 0 0 1.9463-350-41.963)"><g fill="#fff" fill-rule="evenodd"><g stroke="#000" stroke-width=".5"><path d="m323.77 164.05h.82v5.899h-.82z"/><path d="m307.83 171.87l1.289 3.867h2.929l-2.343-3.868-1.875.0001zm-1.64 3.867l.742 3.828 3.437.039-1.25-3.868-2.929.0001zm5.82.039l2.383 3.789h4.883l-3.828-3.829-3.438.04zm-28.83 8.672c2.591-2.409 4.245-4.466 4.258-7.422h6.328c.013 1.654.612 2.643 1.524 2.578l6.407-.039-.039-3.789h-4.649v-20.666c-.169-7.305 8.881-11.563 12.58-11.524l-21.994-.039v-.664h46.25l.039.664-22.306.039c6.615.013 12.995 6.277 13.05 11.564v5.859h-.86l-.039-5.781c0-5.782-7.282-11.186-13.13-11.02-5.05.145-12.891 4.962-12.813 10.978v1.797l11.993.078-.117 2.07 1.883 1.202 3.756 1.197-.055 3.105 2.69.793.023 3.102 3.227 1.385v3.211l2.047 1.261-.094 3.261 2.774 1.953h-6.563l4.102 4.571h-6.06l-3.01-4.571h-3.984l1.797 4.531-4.257-.039-1.017-4.492h-5.195l.039 4.843-18.595.0001zm18.556-12.54v3.828h4.454l-.9-3.828h-3.554z"/></g><path stroke-width="1.25" d="m307.83 171.87l1.289 3.867h2.929l-2.343-3.868-1.875.0001m-1.64 3.867l.742 3.828 3.437.039-1.25-3.868-2.929.0001m5.82.039l2.383 3.789h4.883l-3.828-3.829-3.438.04m-28.83 8.672c2.591-2.409 4.245-4.466 4.258-7.422h6.328c.013 1.654.612 2.643 1.524 2.578l6.407-.039-.039-3.789h-4.649v-20.666c-.169-7.305 8.881-11.563 12.58-11.524l-21.994-.039v-.664h46.25l.039.664-22.306.039c6.615.013 12.995 6.277 13.05 11.564v5.859h-.86l-.039-5.781c0-5.782-7.282-11.186-13.13-11.02-5.05.145-12.891 4.962-12.813 10.978v1.797l11.993.078-.117 2.07 1.883 1.202 3.756 1.197-.055 3.105 2.69.793.023 3.102 3.227 1.385v3.211l2.047 1.261-.094 3.261 2.774 1.953h-6.563l4.102 4.571h-6.06l-3.01-4.571h-3.984l1.797 4.531-4.257-.039-1.017-4.492h-5.195l.039 4.843-18.595.0001m18.556-12.54v3.828h4.454l-.9-3.828h-3.554"/></g><g fill="none" stroke="#000"><path stroke-width=".248" d="m301.97 165.15h2.774v6.368h-2.774z"/><path stroke-width=".25" d="m298.05 171.73h2.707l-.017-4.594c-.035-1.997 1.793-4.01 2.668-4.077.97-.036 2.4 1.885 2.448 3.92l.039 4.766 2.872-.006v-11.829l-10.717.056v11.764z" transform="matrix(1 0 0 1.0198 0-3.169)"/><g stroke-width=".247"><path d="m319.47 174.76h3.36v2.617h-3.36z"/><path d="m317.48 170.26h3.36v2.617h-3.36z"/><path d="m314.24 165.77h3.36v2.617h-3.36z"/><path d="m311.46 161.98h3.36v2.617h-3.36z"/></g><path stroke-width=".25" d="m309.24 171.98l3.437.117 6.133 5.43v-3.203l-2.07-1.484v-2.54l-3.01-1.718v-2.735l-2.93-.976v-3.712l-1.485-1.211-.077 12.03z"/></g><path fill="#fff" fill-rule="evenodd" stroke-width="1.25" d="m323.77 164.05h.82v5.899h-.82z"/></g><g fill-rule="evenodd"><g fill="#fff"><g transform="matrix(1.9463 0 0 1.9463-350-41.963)"><g stroke="#000" stroke-linejoin="round" stroke-width=".5"><path d="m273.06 107.63c.298 4.66-1.148 7.218-3.616 6.829-.68-2.585.867-4.319 3.616-6.829z" transform="translate(-9.1-3.323)"/><path d="m267.46 119.35c-2.194-1.116-.611-9.637.231-13.209.623 4.601 1.665 11.141-.231 13.209z" transform="translate(-8.92-4.723)"/><path d="m267.72 119c3.688 1.283 6.608-2.689 7.595-7.289-3.044 4.201-7.998 4.206-7.595 7.289z" transform="translate(-8.396-3.965)"/><path d="m264.63 123.47c-2.884-.762-1.147-9.802-.623-13.418.634 3.735 2.622 12.181.623 13.418z" transform="translate(-8.104-4.139)"/><path d="m265.44 122.96c.161-3.118 3.269-2.217 5.414-3.881-.35 1.558-1.669 4.319-5.414 3.881z" transform="translate(-7.929-3.906)"/><path d="m262.26 128.01c-2.858-.771-1.14-10.5-1.302-14.506.838 3.461 3.491 13.568 1.302 14.506z" transform="translate(-8.279-4.781)"/><path d="m263.25 127.06c2.341.761 5.442-.76 5.686-3.548-2.02 1.368-5.235.322-5.686 3.548z" transform="translate(-7.929-4.256)"/><path d="m262.34 128.34c-2.733.218-1.51-8.07-1.508-15.785 1 7.213 3.739 13.816 1.508 15.785z" transform="translate(-10.494-.816)"/><path d="m263.29 127.15c1.846.926 5.153-.554 6.097-3.672-3.335 1.45-5.565.033-6.097 3.672z" transform="translate(-10.494)"/></g><path d="m273.06 107.63c.298 4.66-1.148 7.218-3.616 6.829-.68-2.585.867-4.319 3.616-6.829" transform="translate(-9.1-3.323)"/><path d="m267.46 119.35c-2.194-1.116-.611-9.637.231-13.209.623 4.601 1.665 11.141-.231 13.209" transform="translate(-8.92-4.723)"/><path d="m267.72 119c3.688 1.283 6.608-2.689 7.595-7.289-3.044 4.201-7.998 4.206-7.595 7.289" transform="translate(-8.396-3.965)"/><path d="m264.63 123.47c-2.884-.762-1.147-9.802-.623-13.418.634 3.735 2.622 12.181.623 13.418" transform="translate(-8.104-4.139)"/><path d="m265.44 122.96c.161-3.118 3.269-2.217 5.414-3.881-.35 1.558-1.669 4.319-5.414 3.881" transform="translate(-7.929-3.906)"/><path d="m262.26 128.01c-2.858-.771-1.14-10.5-1.302-14.506.838 3.461 3.491 13.568 1.302 14.506" transform="translate(-8.279-4.781)"/><path d="m263.25 127.06c2.341.761 5.442-.76 5.686-3.548-2.02 1.368-5.235.322-5.686 3.548" transform="translate(-7.929-4.256)"/><path d="m262.34 128.34c-2.733.218-1.51-8.07-1.508-15.785 1 7.213 3.739 13.816 1.508 15.785" transform="translate(-10.494-.816)"/><path d="m263.29 127.15c1.846.926 5.153-.554 6.097-3.672-3.335 1.45-5.565.033-6.097 3.672" transform="translate(-10.494)"/><g stroke="#000" stroke-linejoin="round" stroke-width=".5"><path d="m274.25 108.62c-.486 4.04-2.138 6.394-4.606 6-.68-2.585 1.321-4.237 4.606-6z"/><path d="m267.72 119c4.1.582 5.577-2.565 8.337-6.588-3.868 2.799-8.493 3.381-8.337 6.588z"/><path d="m266.56 118.53c-2.235-2.682-.075-6.05 1.633-8.921-.367 4.271 1.088 6.647-1.633 8.921z"/><path d="m265.57 122.96c-.252-2.623 4.217-3.206 6.238-4.664-.68 1.516-1.71 5.597-6.238 4.664z"/><path d="m264.63 123.02c-3.09-.35-1.807-5.597.408-8.513-.933 4.02 1.632 6.822-.408 8.513z"/><path d="m262.3 127.39c-3.517-1.555-1.263-5.966.059-8.57-.564 3.42 2.254 6.02-.059 8.57z"/><path d="m263 126.98c1.846 2.41 5.442-.719 6.18-4.373-3.129 2.605-5.441 2.177-6.18 4.373z"/></g><path d="m274.25 108.62c-.486 4.04-2.138 6.394-4.606 6-.68-2.585 1.321-4.237 4.606-6"/><path d="m267.72 119c4.1.582 5.577-2.565 8.337-6.588-3.868 2.799-8.493 3.381-8.337 6.588"/><path d="m266.56 118.53c-2.235-2.682-.075-6.05 1.633-8.921-.367 4.271 1.088 6.647-1.633 8.921"/><path d="m265.57 122.96c-.252-2.623 4.217-3.206 6.238-4.664-.68 1.516-1.71 5.597-6.238 4.664"/><path d="m264.63 123.02c-3.09-.35-1.807-5.597.408-8.513-.933 4.02 1.632 6.822-.408 8.513"/><path d="m262.3 127.39c-3.517-1.555-1.263-5.966.059-8.57-.564 3.42 2.254 6.02-.059 8.57"/><path d="m263 126.98c1.846 2.41 5.442-.719 6.18-4.373-3.129 2.605-5.441 2.177-6.18 4.373"/><g stroke="#000" stroke-linejoin="round" stroke-width=".5"><path d="m347.66 109.02c.467 2.1.584 6.24 4.315 5.423.544-3.848-2.585-4.02-4.315-5.423z"/><path d="m354.01 118.94c-.135-3.965-4.411-3.091-8.103-6.356 1.01 3.44 4.586 7.638 8.103 6.356z"/><path d="m354.89 118.47c2.507-1.73.583-5.5-1.749-8.804.875 3.596-1.049 6.899 1.749 8.804z"/><path d="m355.99 122.96c-4.04.311-4.761-1.71-6.355-4.314 2.76 1.788 6.452.661 6.355 4.314z"/><path d="m356.99 123.08c-1.925-1.575.466-4.956-.35-8.337 1.516 2.137 3.848 7.249.35 8.337z"/><path d="m358.68 127.27c-4.04.952-5.344-1.185-6.355-4.78 3.284 3.01 5.111 1.593 6.355 4.78z"/><path d="m359.26 127.22c2.818-.039 1.555-5.616.116-8.162.389 3.071-2.079 6.607-.116 8.162z"/></g><path d="m347.66 109.02c.467 2.1.584 6.24 4.315 5.423.544-3.848-2.585-4.02-4.315-5.423"/><path d="m354.01 118.94c-.135-3.965-4.411-3.091-8.103-6.356 1.01 3.44 4.586 7.638 8.103 6.356"/><path d="m354.89 118.47c2.507-1.73.583-5.5-1.749-8.804.875 3.596-1.049 6.899 1.749 8.804"/><path d="m355.99 122.96c-4.04.311-4.761-1.71-6.355-4.314 2.76 1.788 6.452.661 6.355 4.314"/><path d="m356.99 123.08c-1.925-1.575.466-4.956-.35-8.337 1.516 2.137 3.848 7.249.35 8.337"/><path d="m358.68 127.27c-4.04.952-5.344-1.185-6.355-4.78 3.284 3.01 5.111 1.593 6.355 4.78"/><path d="m359.26 127.22c2.818-.039 1.555-5.616.116-8.162.389 3.071-2.079 6.607-.116 8.162"/><g stroke="#000" stroke-linejoin="round" stroke-width=".5"><path d="m348.2 108.2c.506 2.334-.471 6.943 3.26 6.907 1.56-2.637-1.765-5.117-3.26-6.907z" transform="translate(9.336-3.867)"/><path d="m354.3 119.33c2.351-1.612.232-6.906-.499-12.866-.57 5.315-1.83 11.12.499 12.866z" transform="translate(8.839-4.585)"/><path d="m353.7 119.13c.295-2.91-4.293-3.559-7.438-7.41.815 3.088 3.14 7.599 7.438 7.41z" transform="translate(8.176-3.978)"/><path d="m356.67 124.33c-2.472-2.239.465-8.667.587-13.65.383 4.598 2.403 12.835-.587 13.65z" transform="translate(8.342-4.64)"/><path d="m355.21 122.69c-3.613.232-4.566-2.414-4.988-3.924 1.94 1.398 5.01.739 4.988 3.924z" transform="translate(8.397-3.646)"/><path d="m358.95 128.11c2.778-.117 1.75-10.655 1.365-13.982-.275 3.54-3.172 12.701-1.365 13.982z" transform="translate(8.286-5.082)"/><path d="m358.28 127.04c-2.401.366-4.836-1.029-5.495-3.413 2.073.902 5.501.187 5.495 3.413z" transform="translate(7.734-4.198)"/><path d="m358.75 127.96c2.974 1.211 1.907-12.53 1.522-15.701-.275 4.048-3.797 13.99-1.522 15.701z" transform="translate(10.717-.552)"/><path d="m358.44 127.35c-2.988.444-5.188-1.38-6.04-3.881 3.05 1.137 5.424.733 6.04 3.881z" transform="translate(10.33.055)"/></g><path stroke="#000" stroke-width=".5" d="m366.62 143.7c.368-3.589-2.381-10.115-.43-13.594.266-.478-.584-1.747-1.133-.977-.858 1.229-1.74 4.731-2.109 3.438-.391-1.406-.451-3.893-1.719-4.376-.809-.283-1.953-.468-1.641.782.31 1.202 1 2.862.235 2.969-.446.065-1.731-1.636-2.813-2.422-.872-.701-2.173.396-.898 1.445 4.144 3.379 8.159 4.9 10.508 12.735z" id="R"/><path d="m366.62 143.7c.368-3.589-2.381-10.115-.43-13.594.266-.478-.584-1.747-1.133-.977-.858 1.229-1.74 4.731-2.109 3.438-.391-1.406-.451-3.893-1.719-4.376-.809-.283-1.953-.468-1.641.782.31 1.202 1 2.862.235 2.969-.446.065-1.731-1.636-2.813-2.422-.872-.701-2.173.396-.898 1.445 4.144 3.379 8.159 4.9 10.508 12.735"/><path d="m348.2 108.2c.506 2.334-.471 6.943 3.26 6.907 1.56-2.637-1.765-5.117-3.26-6.907" transform="translate(9.336-3.867)"/><path d="m354.3 119.33c2.351-1.612.232-6.906-.499-12.866-.57 5.315-1.83 11.12.499 12.866" transform="translate(8.839-4.585)"/><path d="m353.7 119.13c.295-2.91-4.293-3.559-7.438-7.41.815 3.088 3.14 7.599 7.438 7.41" transform="translate(8.176-3.978)"/><path d="m356.67 124.33c-2.472-2.239.465-8.667.587-13.65.383 4.598 2.403 12.835-.587 13.65" transform="translate(8.342-4.64)"/><path d="m355.21 122.69c-3.613.232-4.566-2.414-4.988-3.924 1.94 1.398 5.01.739 4.988 3.924" transform="translate(8.397-3.646)"/><path d="m358.95 128.11c2.778-.117 1.75-10.655 1.365-13.982-.275 3.54-3.172 12.701-1.365 13.982" transform="translate(8.286-5.082)"/><path d="m358.28 127.04c-2.401.366-4.836-1.029-5.495-3.413 2.073.902 5.501.187 5.495 3.413" transform="translate(7.734-4.198)"/><path d="m358.75 127.96c2.974 1.211 1.907-12.53 1.522-15.701-.275 4.048-3.797 13.99-1.522 15.701" transform="translate(10.717-.552)"/><path d="m358.44 127.35c-2.988.444-5.188-1.38-6.04-3.881 3.05 1.137 5.424.733 6.04 3.881" transform="translate(10.33.055)"/><g transform="matrix(-.99523 0 0 1 620.24.221)"><path stroke="#000" stroke-width=".501" d="m244.38 141.09c-1.017-1.062-.723-1.468.781-1.485 1.193-.075 3.557.731 4.454.078.822-.597.495-3.129.86-4.297.159-.651.615-1.673 1.64-.078 3.03 4.859 6.819 10.692 8.438 16.407.885 3.203.443 8.359-2.969 11.09l-2.422-7.03c-1.151-3.343-7.347-11.365-10.782-14.687z"/><path d="m244.38 141.09c-1.017-1.062-.723-1.468.781-1.485 1.193-.075 3.557.731 4.454.078.822-.597.495-3.129.86-4.297.159-.651.615-1.673 1.64-.078 3.03 4.859 6.819 10.692 8.438 16.407.885 3.203.443 8.359-2.969 11.09l-2.422-7.03c-1.151-3.343-7.347-11.365-10.782-14.687"/></g><g stroke="#000" stroke-linejoin="round" stroke-width=".5"><path d="m371.62 145.11c-1.36 4.373-2.177 7.957-.214 8.379 2.098-.364 1.186-4.589.214-8.379z" transform="translate(8.784-12.54)"/><path d="m368.78 157.36c2.237 1.188 4.648-4.514 4.147-9-1.127 3.849-4.921 6.226-4.147 9z" transform="translate(11.484-12.516)"/><path d="m370.43 156.77c.347-3.109-.93-3.03-2.603-5.998.177 3.356 1.013 6.17 2.603 5.998z" transform="translate(9-12.04)"/><path d="m369.11 156.76c2.611.741 5.603-5.475 5.491-10.07-1.087 5.085-6.754 7.117-5.491 10.07z" transform="translate(11.06-7.474)"/><path d="m372.09 156.03c1.047-2.409-1.089-2.115-2.506-6.432-.469 4.468.212 6.507 2.506 6.432z" transform="translate(7.231-6.86)"/><path d="m369.29 155.78c3.388.583 5.135-6.897 6.818-10.479-3.332 4.696-7.324 7.311-6.818 10.479z" transform="translate(10.788-1.923)"/><path d="m372.36 155.49c.99-2.758-1.809-2.604-3.283-6.726.234 5.228.913 7.114 3.283 6.726z" transform="translate(6.93-1.889)"/><path d="m369.7 156.6c2.142.155 5.994-5.827 6.077-9.522-1.83 4.069-7.574 6.765-6.077 9.522z" transform="translate(10.567 1.752)"/><path d="m372.16 155.96c.891-2.877-1.597-2.896-2.701-6.119-.078 4.859.68 6.507 2.701 6.119z" transform="translate(6.513 1.702)"/><path d="m368.74 155.82c3.778.661 4.745-4.319 6.974-9.385-2.199 4.03-7.167 6.295-6.974 9.385z" transform="translate(10.01 7.03)"/><path d="m372.44 155.37c1.225-2.602-1.613-2.604-3.127-6.492-.078 5.501.874 7.114 3.127 6.492z" transform="translate(6.05 6.784)"/></g><path d="m371.62 145.11c-1.36 4.373-2.177 7.957-.214 8.379 2.098-.364 1.186-4.589.214-8.379" transform="translate(8.784-12.54)"/><path d="m368.78 157.36c2.237 1.188 4.648-4.514 4.147-9-1.127 3.849-4.921 6.226-4.147 9" transform="translate(11.484-12.516)"/><path d="m370.43 156.77c.347-3.109-.93-3.03-2.603-5.998.177 3.356 1.013 6.17 2.603 5.998" transform="translate(9-12.04)"/><path d="m369.11 156.76c2.611.741 5.603-5.475 5.491-10.07-1.087 5.085-6.754 7.117-5.491 10.07" transform="translate(11.06-7.474)"/><path d="m372.09 156.03c1.047-2.409-1.089-2.115-2.506-6.432-.469 4.468.212 6.507 2.506 6.432" transform="translate(7.231-6.86)"/><path d="m369.29 155.78c3.388.583 5.135-6.897 6.818-10.479-3.332 4.696-7.324 7.311-6.818 10.479" transform="translate(10.788-1.923)"/><path d="m372.36 155.49c.99-2.758-1.809-2.604-3.283-6.726.234 5.228.913 7.114 3.283 6.726" transform="translate(6.93-1.889)"/><path d="m369.7 156.6c2.142.155 5.994-5.827 6.077-9.522-1.83 4.069-7.574 6.765-6.077 9.522" transform="translate(10.567 1.752)"/><path d="m372.16 155.96c.891-2.877-1.597-2.896-2.701-6.119-.078 4.859.68 6.507 2.701 6.119" transform="translate(6.513 1.702)"/><path d="m368.74 155.82c3.778.661 4.745-4.319 6.974-9.385-2.199 4.03-7.167 6.295-6.974 9.385" transform="translate(10.01 7.03)"/><path d="m372.44 155.37c1.225-2.602-1.613-2.604-3.127-6.492-.078 5.501.874 7.114 3.127 6.492" transform="translate(6.05 6.784)"/><g transform="matrix(-.99526 0 0 1 620.35.078)"><path stroke="#000" stroke-width=".501" d="m256.81 166.87c3.334.016 3.985-4.687 3.985-5.937-1.641.312-4.611 3.281-3.985 5.937z"/><path d="m256.81 166.87c3.334.016 3.985-4.687 3.985-5.937-1.641.312-4.611 3.281-3.985 5.937"/></g><g stroke="#000" stroke-linejoin="round" stroke-width=".5"><path d="m371.39 145.58c-1.36 4.373-1.904 6.472-.058 7.871 2.41-1.341 1.03-4.081.058-7.871z"/><path d="m370.63 157.01c1.01-3.226-1.477-4-2.798-7.638-.136 4.801.544 8.318 2.798 7.638z"/><path d="m369.64 157.24c1.769.68 3.945-3.42 2.741-7.521-1.244 3.693-4.296 4.586-2.741 7.521z" transform="translate(1.982.466)"/><path d="m371.97 156.31c1.711-2.643-1.01-2.779-2.389-6.471-.078 4.859.368 6.859 2.389 6.471z" transform="translate(-2.216 5.072)"/><path d="m372.44 155.61c1.303-2.992-1.535-2.604-3.205-6.296-.078 5.501.835 6.684 3.205 6.296z" transform="translate(-2.682 10.32)"/><path d="m369.7 156.6c1.478.038 4.353-2.546 3.499-5.772-1.244 2.702-4.762 2.429-3.499 5.772z" transform="translate(1.341 4.956)"/><path d="m369.29 155.78c2.411.505 4.237-3.186 3.966-5.713-1.886 2.352-4.472 2.545-3.966 5.713z" transform="translate(1.341 9.678)"/></g><path d="m371.39 145.58c-1.36 4.373-1.904 6.472-.058 7.871 2.41-1.341 1.03-4.081.058-7.871"/><path d="m370.63 157.01c1.01-3.226-1.477-4-2.798-7.638-.136 4.801.544 8.318 2.798 7.638"/><path d="m369.64 157.24c1.769.68 3.945-3.42 2.741-7.521-1.244 3.693-4.296 4.586-2.741 7.521" transform="translate(1.982.466)"/><path d="m371.97 156.31c1.711-2.643-1.01-2.779-2.389-6.471-.078 4.859.368 6.859 2.389 6.471" transform="translate(-2.216 5.072)"/><path d="m372.44 155.61c1.303-2.992-1.535-2.604-3.205-6.296-.078 5.501.835 6.684 3.205 6.296" transform="translate(-2.682 10.32)"/><path d="m369.7 156.6c1.478.038 4.353-2.546 3.499-5.772-1.244 2.702-4.762 2.429-3.499 5.772" transform="translate(1.341 4.956)"/><path d="m369.29 155.78c2.411.505 4.237-3.186 3.966-5.713-1.886 2.352-4.472 2.545-3.966 5.713" transform="translate(1.341 9.678)"/><path stroke="#000" stroke-width=".501" d="m235.63 159.06c-.297-.385-1.15.001-.937.938.198 1.256 2.05 7.704 5.233 9.922 2.27 1.636 14.201 4.271 19.61 5.39 2.977.599 5.47 2.084 7.423 4.454-.808-3.099-1.457-5.395-2.5-8.203-1.014-2.468-3.701-5.168-6.484-5.313-5.169-.186-11.859-.626-16.72-2.735-2.509-1.048-4.01-2.464-5.625-4.453z" transform="matrix(-.99523 0 0 1 620.24.221)"/><path d="m235.63 159.06c-.297-.385-1.15.001-.937.938.198 1.256 2.05 7.704 5.233 9.922 2.27 1.636 14.201 4.271 19.61 5.39 2.977.599 5.47 2.084 7.423 4.454-.808-3.099-1.457-5.395-2.5-8.203-1.014-2.468-3.701-5.168-6.484-5.313-5.169-.186-11.859-.626-16.72-2.735-2.509-1.048-4.01-2.464-5.625-4.453" transform="matrix(-.99523 0 0 1 620.24.221)" id="S"/><g stroke="#000" stroke-linejoin="round" stroke-width=".5"><path d="m370.55 157.24c.543-2.172-.149-2.871.444-6.272-3.26 4.372-2.034 6.444-.444 6.272z" transform="translate(7.911 17.254)"/><path d="m368.43 157.47c2.159.602 7.773-4.318 7.937-7.989-1.518 2.638-9.101 5.484-7.937 7.989z" transform="translate(10.39 17.563)"/><path d="m370.95 156.62c1.477-.807 1.06-4.224-.279-5.377-.274 3.335-2.288 5.296.279 5.377z" transform="translate(4.34 21.656)"/><path d="m369.11 156.76c2.611.819 5.564-3.912 7.718-5.967-2.455 2.116-9.879 3.132-7.718 5.967z" transform="translate(7.704 22.448)"/><path d="m371.46 157.09c1.828-1.198.122-3.561-.006-8.229-1.836 3.374-2.21 7.991.006 8.229z" transform="translate(1.762 24.468)"/><path d="m368.68 156.56c.932 1.249 7.83-3.053 9.554-6.241-5.892 4.382-11.09 3.797-9.554 6.241z" transform="translate(4.892 26.2)"/><path d="m371.89 155.65c1.693-1.234-1.457-4.479-2.111-8.835.039 5.306-.688 9.34 2.111 8.835z" transform="translate(.993 31)"/><path d="m369.17 155.47c.849 1.365 6.112-2.248 8.381-6.181-3.489 3.055-9.356 3.873-8.381 6.181z" transform="translate(5.553 29.718)"/><path d="m371.66 157.32c1.907-.338 1.645-5.161.19-9.09-1.641 4.742-2.367 9.554-.19 9.09z" transform="translate(-2.315 33.812)"/><path d="m369.34 155.97c.658.78 8.416-4.656 8.304-6.866-2.455 3.522-10.66 4.226-8.304 6.866z" transform="translate(4.785 32.533)"/><path d="m370.95 156.43c2.631-1.079 1.394-5.339 1.912-9.93-2.071 4.486-4.517 8.989-1.912 9.93z" transform="translate(-5.829 39.21)"/><path d="m368.39 155.47c.419 1.443 6.737-1.233 9.787-5.635-3.684 2.86-10.839 3.249-9.787 5.635z" transform="translate(1.655 36.48)"/><path d="m369.07 156.36c1.361 2.264 9.197-1.882 10.335-5.772-2.533 3.366-11.285 2.858-10.335 5.772z" transform="translate(-3.105 39.955)"/><path d="m361.57 154.61c1.439.155 4.783-2.585 5.725-4.01-2.689 1.334-6.324 3.171-5.725 4.01z" transform="translate(7.988 43.47)"/><path d="m369.98 156.85c1.712.248 3.951-2.895 2.456-6.08-.743 3.179-5.726 5.492-2.456 6.08z" transform="translate(-12.222 24.39)"/><path d="m369.11 156.76c1.322.741 4.666-2.818 4.241-5.147-1.869 2.976-5.621 3.835-4.241 5.147z" transform="translate(-7.686 22.604)"/><path d="m368.72 156.91c1.284 1.249 7.596-5.163 9.476-8.08-5.462 4.655-11.05 5.828-9.476 8.08z" transform="translate(-11.202 27.682)"/><path d="m369.05 155.59c1 1.521 5.213-3.068 7.873-6.884-3.372 3.328-9.08 4.85-7.873 6.884z" transform="translate(-13.04 32.843)"/><path d="m371.93 155.65c1.029-2.718-.676-3.151-1.447-6.53-1.523 1.868-1.352 7.03 1.447 6.53z" transform="translate(-15.492 29.13)"/><path d="m371.89 155.65c2.045-.57-1.262-4.049-1.955-6.53-.312 4.564-.258 6.84 1.955 6.53z" transform="translate(-17.13 32.877)"/><path d="m371.69 155.57c1.888-.687-1.067-2.409-1.369-6.218-.938 1.4-1.43 6.723 1.369 6.218z" transform="translate(-18.929 36.24)"/><path d="m371.38 156.97c1.203-.651.708-3.756-1.139-4.166-.43 2.436-.374 4.202 1.139 4.166z" transform="translate(-21.441 35.64)"/></g><path d="m369.98 156.85c1.712.248 3.951-2.895 2.456-6.08-.743 3.179-5.726 5.492-2.456 6.08" transform="translate(-12.222 24.39)"/><path d="m369.11 156.76c1.322.741 4.666-2.818 4.241-5.147-1.869 2.976-5.621 3.835-4.241 5.147" transform="translate(-7.686 22.604)"/><path d="m368.72 156.91c1.284 1.249 7.596-5.163 9.476-8.08-5.462 4.655-11.05 5.828-9.476 8.08" transform="translate(-11.202 27.682)"/><path d="m369.05 155.59c1 1.521 5.213-3.068 7.873-6.884-3.372 3.328-9.08 4.85-7.873 6.884" transform="translate(-13.04 32.843)"/><path d="m371.93 155.65c1.029-2.718-.676-3.151-1.447-6.53-1.523 1.868-1.352 7.03 1.447 6.53" transform="translate(-15.492 29.13)"/><path d="m371.89 155.65c2.045-.57-1.262-4.049-1.955-6.53-.312 4.564-.258 6.84 1.955 6.53" transform="translate(-17.13 32.877)"/><path d="m371.69 155.57c1.888-.687-1.067-2.409-1.369-6.218-.938 1.4-1.43 6.723 1.369 6.218" transform="translate(-18.929 36.24)"/><path d="m371.38 156.97c1.203-.651.708-3.756-1.139-4.166-.43 2.436-.374 4.202 1.139 4.166" transform="translate(-21.441 35.64)"/><path d="m370.55 157.24c.543-2.172-.149-2.871.444-6.272-3.26 4.372-2.034 6.444-.444 6.272" transform="translate(7.911 17.254)"/><path d="m368.43 157.47c2.159.602 7.773-4.318 7.937-7.989-1.518 2.638-9.101 5.484-7.937 7.989" transform="translate(10.39 17.563)"/><path d="m370.95 156.62c1.477-.807 1.06-4.224-.279-5.377-.274 3.335-2.288 5.296.279 5.377" transform="translate(4.34 21.656)"/><path d="m369.11 156.76c2.611.819 5.564-3.912 7.718-5.967-2.455 2.116-9.879 3.132-7.718 5.967" transform="translate(7.704 22.448)"/><path d="m371.46 157.09c1.828-1.198.122-3.561-.006-8.229-1.836 3.374-2.21 7.991.006 8.229" transform="translate(1.762 24.468)"/><path d="m368.68 156.56c.932 1.249 7.83-3.053 9.554-6.241-5.892 4.382-11.09 3.797-9.554 6.241" transform="translate(4.892 26.2)"/><path d="m371.89 155.65c1.693-1.234-1.457-4.479-2.111-8.835.039 5.306-.688 9.34 2.111 8.835" transform="translate(.993 31)"/><path d="m369.17 155.47c.849 1.365 6.112-2.248 8.381-6.181-3.489 3.055-9.356 3.873-8.381 6.181" transform="translate(5.553 29.718)"/><path d="m371.66 157.32c1.907-.338 1.645-5.161.19-9.09-1.641 4.742-2.367 9.554-.19 9.09" transform="translate(-2.315 33.812)"/><path d="m369.34 155.97c.658.78 8.416-4.656 8.304-6.866-2.455 3.522-10.66 4.226-8.304 6.866" transform="translate(4.785 32.533)"/><path d="m370.95 156.43c2.631-1.079 1.394-5.339 1.912-9.93-2.071 4.486-4.517 8.989-1.912 9.93" transform="translate(-5.829 39.21)"/><path d="m368.39 155.47c.419 1.443 6.737-1.233 9.787-5.635-3.684 2.86-10.839 3.249-9.787 5.635" transform="translate(1.655 36.48)"/><path d="m369.07 156.36c1.361 2.264 9.197-1.882 10.335-5.772-2.533 3.366-11.285 2.858-10.335 5.772" transform="translate(-3.105 39.955)"/><path d="m361.57 154.61c1.439.155 4.783-2.585 5.725-4.01-2.689 1.334-6.324 3.171-5.725 4.01" transform="translate(7.988 43.47)"/><path stroke="#000" stroke-width=".501" d="m235.83 159.52c-.377-.307-.876-.76-.704.176 1.409 7.41 1.855 9.483 8.349 12.04 6.602 2.508 8.968 1.631 14.589 1.533 3.034-.111 6.567 1.404 8.671 3.618.98 1.03 1.687 1.441 1.294.128-.394-1.312-.777-3.01-1.396-4.379-1.348-3-4.834-5.866-8.321-7.01-4.879-1.717-10.139-.854-15.16-2.164-2.621-.724-5.138-2.183-7.318-3.945z" transform="matrix(-.87627-.4741-.47184.88047 655.69 169.53)"/><path d="m235.83 159.52c-.377-.307-.876-.76-.704.176 1.409 7.41 1.855 9.483 8.349 12.04 6.602 2.508 8.968 1.631 14.589 1.533 3.034-.111 6.567 1.404 8.671 3.618.98 1.03 1.687 1.441 1.294.128-.394-1.312-.777-3.01-1.396-4.379-1.348-3-4.834-5.866-8.321-7.01-4.879-1.717-10.139-.854-15.16-2.164-2.621-.724-5.138-2.183-7.318-3.945" transform="matrix(-.87627-.4741-.47184.88047 655.69 169.53)" id="T"/><path stroke="#000" stroke-width=".503" d="m287.66 208.42c.884.11 1.444 1.822 1.879.663.738-1.877.221-3.37-.608-3.205-.979.261-2.635 2.456-1.271 2.542z" transform="matrix(-.9883 0 0 1 618.22.055)"/><path d="m287.66 208.42c.884.11 1.444 1.822 1.879.663.738-1.877.221-3.37-.608-3.205-.979.261-2.635 2.456-1.271 2.542" transform="matrix(-.9883 0 0 1 618.22.055)" id="U"/><g stroke="#000" stroke-linejoin="round" stroke-width=".5"><path d="m369.07 156.68c1.688 1.918 3.817-.083 5.178-1.663-2.116-.851-4.775-1.09-5.178 1.663z" transform="matrix(.82834-.56023.56023.82834-50 277.82)"/><path d="m369.88 155.77c.653 1.911 5.234-.649 5.86-3.498-3.194 2.378-6.81.584-5.86 3.498z" transform="matrix(.99375.11161-.11161.99375-7.687 7.293)"/><path d="m369.35 155.59c.743 2.113 3.186-.632 6.119-2.388-3.037.256-6.895.359-6.119 2.388z" transform="matrix(.48134-.87653.87653.48134 26.604 452.13)"/><path d="m369.72 156.65c1.037 2.192 4.134-1.586 6.415-3.811-2.863.884-7.437 1.73-6.415 3.811z" transform="matrix(.53651-.8439.8439.53651 7.42 434.51)"/><path d="m369.99 156.72c1.361 2.264 4.656-2.483 6.614-5.157-3.228 2.134-8.08 2.995-6.614 5.157z" transform="matrix(.90884.41716-.41716.90884 68.52-90.13)" id="Y"/><use transform="translate(-2.735 3.672)" xlink:href="#Y"/><path d="m370.24 156.74c1.172 1.967 4.482-2.131 6.763-4.356-2.863.884-7.938 2.326-6.763 4.356z" transform="matrix(.53651-.8439.8439.53651 4.49 438.57)"/><path d="m370.48 156.11c1.361 2.264 4.413-1.984 6.218-4.803-3.166 2.363-7.683 2.641-6.218 4.803z" transform="matrix(.90884.41716-.41716.90884 61.842-83.02)"/></g><path d="m369.07 156.68c1.688 1.918 3.817-.083 5.178-1.663-2.116-.851-4.775-1.09-5.178 1.663" transform="matrix(.82834-.56023.56023.82834-50 277.82)"/><path d="m369.88 155.77c.653 1.911 5.234-.649 5.86-3.498-3.194 2.378-6.81.584-5.86 3.498" transform="matrix(.99375.11161-.11161.99375-7.687 7.293)"/><path d="m369.35 155.59c.743 2.113 3.186-.632 6.119-2.388-3.037.256-6.895.359-6.119 2.388" transform="matrix(.48134-.87653.87653.48134 26.604 452.13)"/><path d="m369.72 156.65c1.037 2.192 4.134-1.586 6.415-3.811-2.863.884-7.437 1.73-6.415 3.811" transform="matrix(.53651-.8439.8439.53651 7.42 434.51)"/><path d="m369.99 156.72c1.361 2.264 4.656-2.483 6.614-5.157-3.228 2.134-8.08 2.995-6.614 5.157" transform="matrix(.90884.41716-.41716.90884 68.52-90.13)" id="V"/><use transform="translate(-2.735 3.672)" xlink:href="#V"/><path d="m370.24 156.74c1.172 1.967 4.482-2.131 6.763-4.356-2.863.884-7.938 2.326-6.763 4.356" transform="matrix(.53651-.8439.8439.53651 4.49 438.57)"/><path d="m370.48 156.11c1.361 2.264 4.413-1.984 6.218-4.803-3.166 2.363-7.683 2.641-6.218 4.803" transform="matrix(.90884.41716-.41716.90884 61.842-83.02)"/><g stroke="#000" stroke-linejoin="round" stroke-width=".5"><path d="m369.07 156.68c1.361 2.263 6.384-1.648 9.124-3.663-3.939 1.217-10.07.749-9.124 3.663z" transform="translate(-10.07 52.33)"/><path d="m369.28 156.37c1.361 2.264 8.564-2.689 9.03-4.913-3.08 2.902-10.243 2.972-9.03 4.913z" transform="matrix(.93771.34742-.34742.93771 61.925-63.56)"/><path d="m369.02 156.34c.734 1.246 6.626-1.513 9.316-3.687-3.171 1.645-10.727 1.777-9.316 3.687z" transform="matrix(.93771.34742-.34742.93771 58.17-61.47)"/><path d="m369.07 156.36c.474 1.218 7.802-.699 9.444-3.567-4.491 2.466-11.01.797-9.444 3.567z" transform="matrix(.93771.34742-.34742.93771 54.743-59.808)"/><path d="m369.61 155.58c.357 1.803 7.914-1.407 10.01-3.154-4.247 1.211-10.571.511-10.01 3.154z" transform="matrix(.93771.34742-.34742.93771 48-58.04)"/><path d="m369.84 156.21c.943 2.325 8.486-2.48 11.315-4.831-4.94 1.877-12.584 2.587-11.315 4.831z" transform="matrix(.90337-.42886.42886.90337-60.675 232.1)"/><path d="m370.05 156.48c1.361 2.264 5.479-1.701 8.171-4.767-3.344 2.159-9.121 1.853-8.171 4.767z" transform="matrix(.90337-.42886.42886.90337-55.59 230.66)"/><path d="m369.77 156.44c1.361 2.264 4.556-1.577 6.334-4.083-2.48 1.705-7.284 1.169-6.334 4.083z" transform="matrix(.90337-.42886.42886.90337-51.06 229.12)"/><path d="m369.35 155.59c1.361 2.264 5.597-.218 6.735-4.108-2.533 3.366-7.685 1.194-6.735 4.108z" transform="matrix(.90337-.42886.42886.90337-46.2 227.13)"/><path d="m369.18 156.24c1.084 2.76 12.483-2.413 14.394-5.864-3.662 3.095-15.455 2.674-14.394 5.864z" transform="translate(-23.348 64.44)"/></g><path d="m369.07 156.68c1.361 2.263 6.384-1.648 9.124-3.663-3.939 1.217-10.07.749-9.124 3.663" transform="translate(-10.07 52.33)"/><path d="m369.28 156.37c1.361 2.264 8.564-2.689 9.03-4.913-3.08 2.902-10.243 2.972-9.03 4.913" transform="matrix(.93771.34742-.34742.93771 61.925-63.56)"/><path d="m369.02 156.34c.734 1.246 6.626-1.513 9.316-3.687-3.171 1.645-10.727 1.777-9.316 3.687" transform="matrix(.93771.34742-.34742.93771 58.17-61.47)"/><path d="m369.07 156.36c.474 1.218 7.802-.699 9.444-3.567-4.491 2.466-11.01.797-9.444 3.567" transform="matrix(.93771.34742-.34742.93771 54.743-59.808)"/><path d="m369.61 155.58c.357 1.803 7.914-1.407 10.01-3.154-4.247 1.211-10.571.511-10.01 3.154" transform="matrix(.93771.34742-.34742.93771 48-58.04)"/><path d="m369.84 156.21c.943 2.325 8.486-2.48 11.315-4.831-4.94 1.877-12.584 2.587-11.315 4.831" transform="matrix(.90337-.42886.42886.90337-60.675 232.1)"/><path d="m370.05 156.48c1.361 2.264 5.479-1.701 8.171-4.767-3.344 2.159-9.121 1.853-8.171 4.767" transform="matrix(.90337-.42886.42886.90337-55.59 230.66)"/><path d="m369.77 156.44c1.361 2.264 4.556-1.577 6.334-4.083-2.48 1.705-7.284 1.169-6.334 4.083" transform="matrix(.90337-.42886.42886.90337-51.06 229.12)"/><path d="m369.35 155.59c1.361 2.264 5.597-.218 6.735-4.108-2.533 3.366-7.685 1.194-6.735 4.108" transform="matrix(.90337-.42886.42886.90337-46.2 227.13)"/><path d="m369.18 156.24c1.084 2.76 12.483-2.413 14.394-5.864-3.662 3.095-15.455 2.674-14.394 5.864" transform="translate(-23.348 64.44)"/><use transform="matrix(-.98188 0 0 1 614.94.234)" xlink:href="#R"/><path stroke-width="1.25" d="m366.62 143.7c.368-3.589-2.381-10.115-.43-13.594.266-.478-.584-1.747-1.133-.977-.858 1.229-1.74 4.731-2.109 3.438-.391-1.406-.451-3.893-1.719-4.376-.809-.283-1.953-.468-1.641.782.31 1.202 1 2.862.235 2.969-.446.065-1.731-1.636-2.813-2.422-.872-.701-2.173.396-.898 1.445 4.144 3.379 8.159 4.9 10.508 12.735" transform="matrix(-.98188 0 0 1 614.94.234)"/><path stroke="#000" stroke-width=".5" d="m235.83 159.52c-.377-.307-.876-.76-.704.176 1.409 7.41 1.855 9.483 8.349 12.04 6.602 2.508 8.968 1.631 14.589 1.533 3.034-.111 6.567 1.404 8.671 3.618.98 1.03 1.687 1.441 1.294.128-.394-1.312-.777-3.01-1.396-4.379-1.348-3-4.834-5.866-8.321-7.01-4.879-1.717-10.139-.854-15.16-2.164-2.621-.724-5.138-2.183-7.318-3.945z" transform="matrix(.88047-.4741.4741.88047-35.615 169.31)"/><use transform="matrix(-1.0048 0 0 1 623.22-.22)" xlink:href="#T"/><path stroke="#000" stroke-width=".5" d="m287.66 208.42c.884.11 1.444 1.822 1.879.663.738-1.877.221-3.37-.608-3.205-.979.261-2.635 2.456-1.271 2.542z"/><use xlink:href="#U" transform="matrix(-1.01184 0 0 1 625.54-.055)"/><g stroke="#000" stroke-width=".5"><path d="m249.9 157.09c1.728 1.711 4.718-3.155 3.941-6.49-1.033 3.678-5.223 5.02-3.941 6.49z" transform="matrix(.849-.52839.52839.849-9.48 208.69)"/><path d="m250.19 157.5c-2.085 1.745-3.69-5.558-3.041-8.224 1.03 4.254 4.665 6.769 3.041 8.224z" transform="matrix(.59662-.80252.80252.59662 9.104 316.78)"/><path d="m250.18 157.07c-2.02 1.7-3.633-4.676-2.984-7.342 1.233 4.066 4.608 5.887 2.984 7.342z" transform="matrix(.57031-.82143.82143.57031 10.08 322.01)"/><path d="m250.12 156.81c1.728 1.711 4.523-3.507 3.639-6.448-1.144 3.931-4.921 4.978-3.639 6.448z" transform="matrix(.849-.52839.52839.849-12.293 205.49)"/><path d="m250.52 157.06c1.728 1.711 3.26-3.326 2.841-5.979-1.717 3.299-4.068 4.865-2.841 5.979z" transform="matrix(.849-.52839.52839.849-15.262 201.89)"/><path d="m250.37 157.56c-2.085 1.745-3.109-3.375-2.065-6.363 1.21 4.03 3.689 4.908 2.065 6.363z" transform="matrix(.57031-.82143.82143.57031 6.954 318.65)"/><path d="m250.33 156.62c1.52 1.162 3.868-1.273 2.834-4.049-1.623.795-4.329 2.684-2.834 4.049z" transform="matrix(.29048-.95688.95688.29048 55.28 394.83)"/><path d="m250.98 156.86c-2.085 1.745-5.07-4.533-4.03-7.978 1.914 3.937 5.651 6.523 4.03 7.978z" transform="matrix(.59662-.80252.80252.59662 13.91 320.87)"/><path d="m244.38 141.09c-1.017-1.062-.723-1.468.781-1.485 1.193-.075 3.557.731 4.454.078.822-.597.495-3.129.86-4.297.159-.651.615-1.673 1.64-.078 3.03 4.859 6.819 10.692 8.438 16.407.885 3.203.052 8.203-2.891 11.563.104-2.865-.964-4.792-2.266-7.188-1.608-3.149-7.581-11.678-11.02-15z"/><path d="m256.88 166.64c3.334.016 3.907-4.453 3.907-5.703-1.641.312-4.532 3.047-3.907 5.703z"/></g><path d="m244.38 141.09c-1.017-1.062-.723-1.468.781-1.485 1.193-.075 3.557.731 4.454.078.822-.597.495-3.129.86-4.297.159-.651.615-1.673 1.64-.078 3.03 4.859 6.819 10.692 8.438 16.407.885 3.203.052 8.203-2.891 11.563.104-2.865-.964-4.792-2.266-7.188-1.608-3.149-7.581-11.678-11.02-15"/><path d="m256.88 166.64c3.334.016 3.907-4.453 3.907-5.703-1.641.312-4.532 3.047-3.907 5.703"/><path d="m249.9 157.09c1.728 1.711 4.718-3.155 3.941-6.49-1.033 3.678-5.223 5.02-3.941 6.49" transform="matrix(.849-.52839.52839.849-9.48 208.69)"/><path d="m250.19 157.5c-2.085 1.745-3.69-5.558-3.041-8.224 1.03 4.254 4.665 6.769 3.041 8.224" transform="matrix(.59662-.80252.80252.59662 9.104 316.78)"/><path d="m250.18 157.07c-2.02 1.7-3.633-4.676-2.984-7.342 1.233 4.066 4.608 5.887 2.984 7.342" transform="matrix(.57031-.82143.82143.57031 10.08 322.01)"/><path d="m250.12 156.81c1.728 1.711 4.523-3.507 3.639-6.448-1.144 3.931-4.921 4.978-3.639 6.448" transform="matrix(.849-.52839.52839.849-12.293 205.49)"/><path d="m250.52 157.06c1.728 1.711 3.26-3.326 2.841-5.979-1.717 3.299-4.068 4.865-2.841 5.979" transform="matrix(.849-.52839.52839.849-15.262 201.89)"/><path d="m250.37 157.56c-2.085 1.745-3.109-3.375-2.065-6.363 1.21 4.03 3.689 4.908 2.065 6.363" transform="matrix(.57031-.82143.82143.57031 6.954 318.65)"/><path d="m250.33 156.62c1.52 1.162 3.868-1.273 2.834-4.049-1.623.795-4.329 2.684-2.834 4.049" transform="matrix(.29048-.95688.95688.29048 55.28 394.83)"/><path d="m250.98 156.86c-2.085 1.745-5.07-4.533-4.03-7.978 1.914 3.937 5.651 6.523 4.03 7.978" transform="matrix(.59662-.80252.80252.59662 13.91 320.87)"/><g stroke="#000" stroke-linejoin="round" stroke-width=".5"><path d="m250.86 158.12c-2.085 1.745-3.885-6.069-2.841-9.06 1.21 4.03 4.465 7.602 2.841 9.06z" transform="matrix(.57031-.82143.82143.57031-10.503 324.07)"/><path d="m250.38 156.93c1.52 1.162 3.351-2.708 3.264-5.322-1.623.795-4.759 3.957-3.264 5.322z" transform="matrix(.29048-.95688.95688.29048 44.12 403.34)"/><path d="m250.88 157.68c-1.905 1.525-5.456-5.931-4.824-8.965 2.958 6.483 6.406 7.587 4.824 8.965z" transform="matrix(.57031-.82143.82143.57031-5.112 327.37)"/><path d="m250.19 157.5c-1.851 1.583-3.841-6-3.478-9.03 1.462 4.19 4.77 7.93 3.478 9.03z" transform="matrix(.32122-.947.947.32122 41.784 399.18)"/><path d="m250.38 157.68c-1.641 1.471-3.924-5.396-3.996-9.1 1.537 4.412 5.62 7.641 3.996 9.1z" transform="matrix(.32122-.947.947.32122 45.21 400.95)"/><path d="m250.19 157.5c-2.085 1.745-3.875-5.679-3.226-8.345 1.497 4.196 4.85 6.89 3.226 8.345z" transform="matrix(.20456-.97885.97885.20456 74.876 428.26)"/><path d="m249.96 156.68c-2.641 1.126-1.795-3.311-3.205-6.705 2.557 3.211 5.062 5.525 3.205 6.705z" transform="matrix(.98729-.15894.15894.98729-.405 96.51)"/><path d="m250.18 157.07c-2.298 1.458-2.921-4.918-4.199-8.645 2.433 3.744 6.293 7.464 4.199 8.645z" transform="matrix(.98729-.15894.15894.98729 3.627 97.78)"/><path d="m250.41 157.35c-2.02 1.7-5.694-6.867-6.833-11.206 2.219 3.592 8.457 9.751 6.833 11.206z" transform="matrix(.98729-.15894.15894.98729 9.04 99.28)"/></g><path d="m250.86 158.12c-2.085 1.745-3.885-6.069-2.841-9.06 1.21 4.03 4.465 7.602 2.841 9.06" transform="matrix(.57031-.82143.82143.57031-10.503 324.07)"/><path d="m250.38 156.93c1.52 1.162 3.351-2.708 3.264-5.322-1.623.795-4.759 3.957-3.264 5.322" transform="matrix(.29048-.95688.95688.29048 44.12 403.34)"/><path d="m250.88 157.68c-1.905 1.525-5.456-5.931-4.824-8.965 2.958 6.483 6.406 7.587 4.824 8.965" transform="matrix(.57031-.82143.82143.57031-5.112 327.37)"/><path d="m250.19 157.5c-1.851 1.583-3.841-6-3.478-9.03 1.462 4.19 4.77 7.93 3.478 9.03" transform="matrix(.32122-.947.947.32122 41.784 399.18)"/><path d="m250.38 157.68c-1.641 1.471-3.924-5.396-3.996-9.1 1.537 4.412 5.62 7.641 3.996 9.1" transform="matrix(.32122-.947.947.32122 45.21 400.95)"/><path d="m250.19 157.5c-2.085 1.745-3.875-5.679-3.226-8.345 1.497 4.196 4.85 6.89 3.226 8.345" transform="matrix(.20456-.97885.97885.20456 74.876 428.26)"/><path d="m249.96 156.68c-2.641 1.126-1.795-3.311-3.205-6.705 2.557 3.211 5.062 5.525 3.205 6.705" transform="matrix(.98729-.15894.15894.98729-.405 96.51)"/><path d="m250.18 157.07c-2.298 1.458-2.921-4.918-4.199-8.645 2.433 3.744 6.293 7.464 4.199 8.645" transform="matrix(.98729-.15894.15894.98729 3.627 97.78)"/><path d="m250.41 157.35c-2.02 1.7-5.694-6.867-6.833-11.206 2.219 3.592 8.457 9.751 6.833 11.206" transform="matrix(.98729-.15894.15894.98729 9.04 99.28)"/></g><path stroke-width="1.25" d="m276.43 420.33c-.861 3.04-13.554-2.866-14.971-5.925 7.263 3.849 15.14 3.044 14.971 5.925" transform="matrix(1.9463 0 0 1.9463-350-430.25)"/><g transform="matrix(1.9463 0 0 1.9463-350-41.963)"><path stroke="#000" stroke-width=".5" d="m235.63 159.06c-.297-.385-1.15.001-.937.938.198 1.256 2.05 7.704 5.233 9.922 2.27 1.636 14.201 4.271 19.61 5.39 2.977.599 5.47 2.084 7.423 4.454-.808-3.099-1.457-5.395-2.5-8.203-1.014-2.468-3.701-5.168-6.484-5.313-5.169-.186-11.859-.626-16.72-2.735-2.509-1.048-4.01-2.464-5.625-4.453z"/><use xlink:href="#S" transform="matrix(-1.0048 0 0 1 623.21-.221)"/><g stroke="#000" stroke-linejoin="round" stroke-width=".5"><path d="m250.53 156.52c1.172 1.65 4.227-1.871 3.541-6.402-1.294 3.717-4.678 3.992-3.541 6.402z" transform="matrix(.94971-.31314.31314.94971-21.681 114.37)"/><path d="m250.32 156.17c1.924 1.363 3.843-2.203 3.432-5.697-.838 3.332-5.085 4.105-3.432 5.697z" transform="matrix(.94971-.31314.31314.94971-19.806 118.59)"/><path d="m250.33 156.62c1.728 1.711 3.772-1.857 3.223-5.188-1.033 3.678-4.505 3.718-3.223 5.188z" transform="matrix(.94971-.31314.31314.94971-18.244 121.33)"/><path d="m250.32 157.35c-2.085 1.745-3.833-4.965-3.184-7.631 1.03 4.254 4.808 6.176 3.184 7.631z" transform="matrix(.85194-.52363.52363.85194-28.01 188.95)"/><path d="m250.2 157.55c-2.185 1.683-4.069-7.266-3.58-10.717 1.03 4.254 5.128 9.536 3.58 10.717z" transform="matrix(.85194-.52363.52363.85194-30.28 184.77)"/><path d="m250.32 157.35c-2.369 1.983-4.106-8.251-4.307-11.623 1.184 4.303 6.05 10.196 4.307 11.623z" transform="matrix(.85194-.52363.52363.85194-31.527 181.14)"/><path d="m250.82 156.4c1.377 2.03 2.221-1.098 4.058-5.093-3.21 1.222-5.195 2.683-4.058 5.093z" transform="matrix(.39304-.91952.91952.39304 21.518 350.38)"/><path d="m251.34 156.64c1.45.511 1.093-1.551 2.704-4.982-1.901.408-4.048 4.274-2.704 4.982z" transform="matrix(.39304-.91952.91952.39304 17.03 348.82)"/><path d="m251.93 155.26c1.01 1.145 2.712-1.137 1.918-3.973-1.185 2.394-2.754 2.65-1.918 3.973z" transform="matrix(.94971-.31314.31314.94971-16.369 123.44)"/></g><path d="m250.53 156.52c1.172 1.65 4.227-1.871 3.541-6.402-1.294 3.717-4.678 3.992-3.541 6.402" transform="matrix(.94971-.31314.31314.94971-21.681 114.37)"/><path d="m250.32 156.17c1.924 1.363 3.843-2.203 3.432-5.697-.838 3.332-5.085 4.105-3.432 5.697" transform="matrix(.94971-.31314.31314.94971-19.806 118.59)"/><path d="m250.33 156.62c1.728 1.711 3.772-1.857 3.223-5.188-1.033 3.678-4.505 3.718-3.223 5.188" transform="matrix(.94971-.31314.31314.94971-18.244 121.33)"/><path d="m250.32 157.35c-2.085 1.745-3.833-4.965-3.184-7.631 1.03 4.254 4.808 6.176 3.184 7.631" transform="matrix(.85194-.52363.52363.85194-28.01 188.95)"/><path d="m250.2 157.55c-2.185 1.683-4.069-7.266-3.58-10.717 1.03 4.254 5.128 9.536 3.58 10.717" transform="matrix(.85194-.52363.52363.85194-30.28 184.77)"/><path d="m250.32 157.35c-2.369 1.983-4.106-8.251-4.307-11.623 1.184 4.303 6.05 10.196 4.307 11.623" transform="matrix(.85194-.52363.52363.85194-31.527 181.14)"/><path d="m250.82 156.4c1.377 2.03 2.221-1.098 4.058-5.093-3.21 1.222-5.195 2.683-4.058 5.093" transform="matrix(.39304-.91952.91952.39304 21.518 350.38)"/><path d="m251.34 156.64c1.45.511 1.093-1.551 2.704-4.982-1.901.408-4.048 4.274-2.704 4.982" transform="matrix(.39304-.91952.91952.39304 17.03 348.82)"/><path d="m251.93 155.26c1.01 1.145 2.712-1.137 1.918-3.973-1.185 2.394-2.754 2.65-1.918 3.973" transform="matrix(.94971-.31314.31314.94971-16.369 123.44)"/><g stroke="#000" stroke-linejoin="round" stroke-width=".5"><path d="m250.84 158.3c-3.215.553-4.94-7.294-5.05-10.29 1.147 3.834 6.165 8.875 5.05 10.29z" transform="matrix(.93241-.36139.36139.93241-48.21 118.01)"/><path d="m250.7 157.48c-2.064 1.041-4.923-5.067-5.648-7.882 1.618 3.053 7.29 5.54 5.648 7.882z" transform="matrix(.93241-.36139.36139.93241-45.4 122.62)"/><path d="m250.66 157.78c-1.663 1.73-4.962-6.484-5.072-9.48 1.099 4.067 6.931 7.345 5.072 9.48z" transform="matrix(.85194-.52363.52363.85194-48.25 179.19)"/><path d="m250.35 157.83c-2.04 1.224-4.229-6.261-3.983-9.313 1.396 4.478 5.839 8 3.983 9.313z" transform="matrix(.85194-.52363.52363.85194-49.1 181.53)"/><path d="m251.31 157.15c2.336-1.256 1.88-2.356 1.566-5.653-1.666 2.73-3.097 3.567-1.566 5.653z" transform="matrix(.94971-.31314.31314.94971-44.02 104.06)"/><path d="m251.1 157.04c3.098 1.175 1.246-3.677 1.562-7.135-.934 3.752-2.965 6.283-1.562 7.135z" transform="matrix(.94971-.31314.31314.94971-41.37 107.73)"/><path d="m250.97 156.67c2.341.226 2.729-3.064 2.29-7.348-.983 4.148-3.943 5.756-2.29 7.348z" transform="matrix(.94971-.31314.31314.94971-39.02 111.25)"/><path d="m250.61 157.71c-2.085 1.745-4.517-6.761-4.218-9.23 1.36 4.09 5.727 7.888 4.218 9.23z" transform="matrix(.85194-.52363.52363.85194-48.48 184.74)"/><path d="m250.87 157.73c-2.185 1.685-5.272-6.352-5.564-9.873 1.813 4.919 7.334 7.959 5.564 9.873z" transform="matrix(.85194-.52363.52363.85194-44.808 188.88)"/><path d="m251.18 157.37c-2.816 2.488-5.904-6.145-6.25-9.653 2.057 5.343 8.09 7.779 6.25 9.653z" transform="matrix(.85194-.52363.52363.85194-40.902 193.41)"/><path d="m250.66 156.36c1.53 1.563 4-3.426 4.179-7.465-1.316 4.04-6.02 5.812-4.179 7.465z" transform="matrix(.94971-.31314.31314.94971-38.24 116.72)"/><path d="m250.88 157.58c1.999 1.389 3.157-4.485 2.47-8.769-1.441 3.545-4.212 6.449-2.47 8.769z" transform="matrix(.94971-.31314.31314.94971-35.509 120)"/><path d="m251.41 156.98c2.43.955 2.367-4.582 1.25-8.06-.86 3.777-3.185 6.952-1.25 8.06z" transform="matrix(.94971-.31314.31314.94971-31.681 124.84)"/><path d="m247.98 153.48c-1.363.721-1.71-2.375-3.453-5.55 2.024 2.113 4.394 4.684 3.453 5.55z" transform="matrix(.85194-.52363.52363.85194-39.964 196.53)"/></g><path d="m250.84 158.3c-3.215.553-4.94-7.294-5.05-10.29 1.147 3.834 6.165 8.875 5.05 10.29" transform="matrix(.93241-.36139.36139.93241-48.21 118.01)"/><path d="m250.7 157.48c-2.064 1.041-4.923-5.067-5.648-7.882 1.618 3.053 7.29 5.54 5.648 7.882" transform="matrix(.93241-.36139.36139.93241-45.4 122.62)"/><path d="m250.66 157.78c-1.663 1.73-4.962-6.484-5.072-9.48 1.099 4.067 6.931 7.345 5.072 9.48" transform="matrix(.85194-.52363.52363.85194-48.25 179.19)"/><path d="m250.35 157.83c-2.04 1.224-4.229-6.261-3.983-9.313 1.396 4.478 5.839 8 3.983 9.313" transform="matrix(.85194-.52363.52363.85194-49.1 181.53)"/><path d="m251.31 157.15c2.336-1.256 1.88-2.356 1.566-5.653-1.666 2.73-3.097 3.567-1.566 5.653" transform="matrix(.94971-.31314.31314.94971-44.02 104.06)"/><path d="m251.1 157.04c3.098 1.175 1.246-3.677 1.562-7.135-.934 3.752-2.965 6.283-1.562 7.135" transform="matrix(.94971-.31314.31314.94971-41.37 107.73)"/><path d="m250.97 156.67c2.341.226 2.729-3.064 2.29-7.348-.983 4.148-3.943 5.756-2.29 7.348" transform="matrix(.94971-.31314.31314.94971-39.02 111.25)"/><path d="m250.61 157.71c-2.085 1.745-4.517-6.761-4.218-9.23 1.36 4.09 5.727 7.888 4.218 9.23" transform="matrix(.85194-.52363.52363.85194-48.48 184.74)"/><path d="m250.87 157.73c-2.185 1.685-5.272-6.352-5.564-9.873 1.813 4.919 7.334 7.959 5.564 9.873" transform="matrix(.85194-.52363.52363.85194-44.808 188.88)"/><path d="m251.18 157.37c-2.816 2.488-5.904-6.145-6.25-9.653 2.057 5.343 8.09 7.779 6.25 9.653" transform="matrix(.85194-.52363.52363.85194-40.902 193.41)"/><path d="m250.66 156.36c1.53 1.563 4-3.426 4.179-7.465-1.316 4.04-6.02 5.812-4.179 7.465" transform="matrix(.94971-.31314.31314.94971-38.24 116.72)"/><path d="m250.88 157.58c1.999 1.389 3.157-4.485 2.47-8.769-1.441 3.545-4.212 6.449-2.47 8.769" transform="matrix(.94971-.31314.31314.94971-35.509 120)"/><path d="m251.41 156.98c2.43.955 2.367-4.582 1.25-8.06-.86 3.777-3.185 6.952-1.25 8.06" transform="matrix(.94971-.31314.31314.94971-31.681 124.84)"/><path d="m247.98 153.48c-1.363.721-1.71-2.375-3.453-5.55 2.024 2.113 4.394 4.684 3.453 5.55" transform="matrix(.85194-.52363.52363.85194-39.964 196.53)"/></g><g transform="matrix(1.9463 0 0 1.9463-350.22-41.963)"><g stroke="#000" stroke-linejoin="round" stroke-width=".5"><path d="m250.28 153.28c2.433-1.8.577-5.167 0-8.369-.783 3.037-2.844 7.02 0 8.369z"/><path d="m250.2 157.78c-3.655-.439-3.105-5.166-3.215-8.162 1.099 4.067 4.095 4.754 3.215 8.162z"/><path d="m250.78 157.16c3.092-.179 2.928-3.697 3.093-7.256-1.567 3.271-3.423 3.779-3.093 7.256z"/><path d="m250.66 161.53c-2.405.192-3.655-2.171-4.205-5.854 2.281 3.394 4.356 2.336 4.205 5.854z"/><path d="m251.52 161.24c3.092.398 2.598-3.202 2.474-5.855-.948 2.529-3.463 3.326-2.474 5.855z"/><path d="m246.7 159.72c.247 2.35 1.732 6.39 4.123 5.483.989-2.886-2.103-3.463-4.123-5.483z"/><path d="m251.56 165.45c-1.072-2.061 2.432-3.093 3.174-5.772.426 3.834.069 6.349-3.174 5.772z" id="Z"/></g><path d="m250.28 153.28c2.433-1.8.577-5.167 0-8.369-.783 3.037-2.844 7.02 0 8.369"/><path d="m250.2 157.78c-3.655-.439-3.105-5.166-3.215-8.162 1.099 4.067 4.095 4.754 3.215 8.162"/><path d="m250.78 157.16c3.092-.179 2.928-3.697 3.093-7.256-1.567 3.271-3.423 3.779-3.093 7.256"/><path d="m250.66 161.53c-2.405.192-3.655-2.171-4.205-5.854 2.281 3.394 4.356 2.336 4.205 5.854"/><path d="m251.52 161.24c3.092.398 2.598-3.202 2.474-5.855-.948 2.529-3.463 3.326-2.474 5.855"/><path d="m246.7 159.72c.247 2.35 1.732 6.39 4.123 5.483.989-2.886-2.103-3.463-4.123-5.483"/><path d="m251.56 165.45c-1.072-2.061 2.432-3.093 3.174-5.772.426 3.834.069 6.349-3.174 5.772" id="W"/></g><g stroke="#000" stroke-linejoin="round" stroke-width=".5" transform="matrix(1.9463 0 0 1.9463-350-42.18)"><path d="m250.28 153.28c1.925-2.073.225-5.362-.352-8.564-.783 3.037-2.14 7.06.352 8.564z" transform="translate(-8.805-12.153)"/><path d="m250.9 158.01c-3.381.343-4.199-6.533-4.543-9.49 1.099 4.067 4.993 5.926 4.543 9.49z" transform="translate(-9.487-13.02)"/><path d="m250.86 157.08c2.389-1.234 1.834-3.892 2.585-5.889-1.606 2.451-3.071 2.802-2.585 5.889z" transform="translate(-8.743-12.153)"/><path d="m251.06 158.17c-3.537.303-5.644-7.315-5.754-10.311 1.099 4.067 6.166 6.278 5.754 10.311z" transform="translate(-9.611-8.743)"/><path d="m250.74 157c3.326-.765 2.928-2.916 2.429-6.397-1.059 3.506-2.915 2.763-2.429 6.397z" transform="translate(-8.618-7.689)"/><path d="m250.89 161.45c-3.889.66-3.616-5.492-6.704-9.955 2.671 3.315 7.48 7.492 6.704 9.955z" transform="translate(-9.487-7.627)"/><path d="m251.52 161.24c2.936.085 3.223-4.335 3.06-6.128-.675 1.786-4.127 3.482-3.06 6.128z" transform="translate(-9.239-7.627)"/><path d="m244.63 155.97c1.458 4.733 3.529 9.476 6.076 9.116 1.223-2.691-2.416-3.034-6.076-9.116z" transform="translate(-9.301-6.882)"/><use transform="translate(-9.239-7.936)" xlink:href="#Z"/><path d="m245.14 156.79c2.082 4.264 3.02 9.164 5.88 8.452 1.067-3.316-3.157-4.01-5.88-8.452z" transform="translate(-8.805-2.294)"/><path d="m251.48 165.49c-1.228-2.256 2.276-3.054 3.135-6.163.465 4.069.03 6.974-3.135 6.163z" transform="translate(-8.681-3.348)"/></g><g transform="matrix(1.9463 0 0 1.9463-350-42.18)"><path d="m250.28 153.28c1.925-2.073.225-5.362-.352-8.564-.783 3.037-2.14 7.06.352 8.564" transform="translate(-8.805-12.153)"/><path d="m250.9 158.01c-3.381.343-4.199-6.533-4.543-9.49 1.099 4.067 4.993 5.926 4.543 9.49" transform="translate(-9.487-13.02)"/><path d="m250.86 157.08c2.389-1.234 1.834-3.892 2.585-5.889-1.606 2.451-3.071 2.802-2.585 5.889" transform="translate(-8.743-12.153)"/><path d="m251.06 158.17c-3.537.303-5.644-7.315-5.754-10.311 1.099 4.067 6.166 6.278 5.754 10.311" transform="translate(-9.611-8.743)"/><path d="m250.74 157c3.326-.765 2.928-2.916 2.429-6.397-1.059 3.506-2.915 2.763-2.429 6.397" transform="translate(-8.618-7.689)"/><path d="m250.89 161.45c-3.889.66-3.616-5.492-6.704-9.955 2.671 3.315 7.48 7.492 6.704 9.955" transform="translate(-9.487-7.627)"/><path d="m251.52 161.24c2.936.085 3.223-4.335 3.06-6.128-.675 1.786-4.127 3.482-3.06 6.128" transform="translate(-9.239-7.627)"/><path d="m244.63 155.97c1.458 4.733 3.529 9.476 6.076 9.116 1.223-2.691-2.416-3.034-6.076-9.116" transform="translate(-9.301-6.882)"/><use transform="translate(-9.239-7.936)" xlink:href="#W"/><path d="m245.14 156.79c2.082 4.264 3.02 9.164 5.88 8.452 1.067-3.316-3.157-4.01-5.88-8.452" transform="translate(-8.805-2.294)"/><path d="m251.48 165.49c-1.228-2.256 2.276-3.054 3.135-6.163.465 4.069.03 6.974-3.135 6.163" transform="translate(-8.681-3.348)"/></g><g transform="matrix(1.9463 0 0 1.9463-350-430.25)"><g stroke="#000" stroke-width=".5"><path d="m248.8 332.67c2.052.555 4.204-1.749 3.458-5.197-2.345.584-3.421 2.713-3.458 5.197z"/><path d="m242.23 330.94c.179.97 1.359 1.058 1.016-.312-.286-1.112-.335-1.948 0-2.852.459-1.133.306-3.062-.039-3.867-.348-.85-1.501-.352-1.016.313.534.771.562 2.375.195 3.124-.483 1.106-.352 2.574-.156 3.594z"/></g><g stroke-width="1.25"><path d="m248.8 332.67c2.052.555 4.204-1.749 3.458-5.197-2.345.584-3.421 2.713-3.458 5.197"/><path d="m242.23 330.94c.179.97 1.359 1.058 1.016-.312-.286-1.112-.335-1.948 0-2.852.459-1.133.306-3.062-.039-3.867-.348-.85-1.501-.352-1.016.313.534.771.562 2.375.195 3.124-.483 1.106-.352 2.574-.156 3.594"/></g><g stroke="#000" stroke-width=".5"><path d="m249.33 327.25c-.195 1.515-1.477 1.652-1.104-.487.311-1.737.364-3.042 0-4.454-.499-1.77-.333-4.782.042-6.04.378-1.328 1.631-.55 1.104.489-.58 1.204-.611 3.709-.212 4.879.525 1.727.382 4.02.169 5.613z"/><path d="m258.88 342.39c-.793 1.166-2.056.489-1.34-1.383.605-1.296.669-2.903 1.343-3.851.942-1.437 2.537-2.634 3.442-3.503.936-.926 1.712-.034.854.76-1.042 1.042-2.172 2.34-2.8 3.323-1.171 1.909-.656 3.432-1.499 4.655z"/></g></g><g transform="matrix(-2.45312-.97872-1.13798 2.52065 903.45 145.41)"><path stroke="#000" stroke-width=".36" d="m242.54 131.62c.179.97 1.484.926 1.141-.444-.286-1.112-.933-2.181-.598-3.085.459-1.133.571-3.079.226-3.884-.348-.85-1.47-.28-.985.385.534.771.114 2.925-.253 3.674-.483 1.106.273 2.334.469 3.354z"/><path stroke-width="1.25" d="m242.54 131.62c.179.97 1.484.926 1.141-.444-.286-1.112-.933-2.181-.598-3.085.459-1.133.571-3.079.226-3.884-.348-.85-1.47-.28-.985.385.534.771.114 2.925-.253 3.674-.483 1.106.273 2.334.469 3.354"/></g><path stroke-width="1.25" d="m258.88 342.39c-.793 1.166-2.056.489-1.34-1.383.605-1.296.669-2.903 1.343-3.851.942-1.437 2.537-2.634 3.442-3.503.936-.926 1.712-.034.854.76-1.042 1.042-2.172 2.34-2.8 3.323-1.171 1.909-.656 3.432-1.499 4.655" transform="matrix(1.9463 0 0 1.9463-350-430.25)"/><g transform="matrix(1.9463 0 0 1.9463-350-41.963)"><path stroke="#000" stroke-width=".345" d="m242.23 131.78c-.094.784 1.231.974 1.172-.163-.06-1.187-1.824-2.273-.742-4.08.569-.884.579-2.504.234-3.365-.303-.854-1.579-.296-1.094.369.534.771-.1 2.25-.508 2.994-1.225 2.166 1.01 3.221.938 4.245z" transform="matrix(1 0 0 2.0999 3.477-139.85)"/><path d="m242.23 131.78c-.094.784 1.231.974 1.172-.163-.06-1.187-1.824-2.273-.742-4.08.569-.884.579-2.504.234-3.365-.303-.854-1.579-.296-1.094.369.534.771-.1 2.25-.508 2.994-1.225 2.166 1.01 3.221.938 4.245" transform="matrix(1 0 0 2.0999 3.477-139.85)" id="X"/></g></g><g transform="matrix(1.9463 0 0 1.9463-350-430.25)"><g fill="#fff" stroke-width="1.25"><path d="m249.33 327.25c-.195 1.515-1.477 1.652-1.104-.487.311-1.737.364-3.042 0-4.454-.499-1.77-.333-4.782.042-6.04.378-1.328 1.631-.55 1.104.489-.58 1.204-.611 3.709-.212 4.879.525 1.727.382 4.02.169 5.613"/><path d="m236.3 358.23c.635.755 1.704.249.73-.773-.798-.826-.535-1.086-1.021-2.093-.481-1.124-.456-1.745-1.036-2.548-.513-.762-1.285.015-.768.657.649.758.47 1.318.867 2.051.733 1.256.555 1.915 1.229 2.705"/><path d="m253.37 378.84c2.042 1 3.592 3.512 3.694 5.555.173 2.351.512 4.336 1.568 6.01-1.681-.468-2.486-3.147-2.725-5.713-.242-2.656-1.673-3.808-2.537-5.849"/><path d="m257.63 383.76c1.413 2.608 3.389 3.603 3.49 5.539.171 2.227.34 2.341.944 4.532-1.663-.443-2.082-.588-2.531-3.921-.277-2.342-2.152-3.994-1.903-6.149"/></g><path stroke="#000" fill-opacity=".185" stroke-width=".5" d="m334.74 427.43c.039.989.157 1.784.743 2.578-3.412-1.367-8.229-.635-11.524.899-1.47.702-3.248-.802-1.524-2.227 2.452-1.987 8.125-.86 12.305-1.25zm-48.14-.052c.048.932-.06 1.786-.403 2.6 3.709-1.536 7.691-.26 11.438 1.251 2.576 1.065 2.784-.779 2.329-1.417-.782-1.132-2.295-2.375-4.209-2.402-1.274-.018-6.179-.062-9.155-.032zm3.131-18.12c-1.035-.446-2.237-.017-3.315 1.118-3.622 3.549-7.872 7.01-11.302 9.697-1.28 1.112-2.588 3.107 2.872 5.101.198.075 4.178 1.55 6.7 1.644 1.03-.029 1.027 1.509.836 1.919-.435.819-.12 1.132-.999 1.92-.916.773.098 1.774.818 1.094 3.074-2.669 8.06-.961 12.863.601 1.135.314 3.212.226 3.194-1.34.02-1.706 1.256-2.912 2.01-2.956 1.961.34 11.651.448 14.636.085 1.74-.226 1.845 2.384 2.776 3.413.642.682 3.113.863 4.807.115 3.349-1.556 8.452-1.556 10.532-.069.855.651 1.53.123 1.044-.538-.626-.904-.612-1.323-.923-2.037-.781-1.589-.158-1.978.661-2.093 9.253-1.193 12.206-4.35 9.377-6.924-3.653-3.204-7.72-6.425-11.224-10.211-.95-1-1.578-1.407-3.555-.585-6.05 2.753-13.718 4.76-21.23 4.907-6.987.06-16.594-3.172-20.583-4.861z"/><path fill="#fff" stroke-width="1.25" d="m334.74 427.43c.039.989.157 1.784.743 2.578-3.412-1.367-8.229-.635-11.524.899-1.47.702-3.248-.802-1.524-2.227 2.452-1.987 8.125-.86 12.305-1.25m-48.14-.052c.048.932-.06 1.786-.403 2.6 3.709-1.536 7.691-.26 11.438 1.251 2.576 1.065 2.784-.779 2.329-1.417-.782-1.132-2.295-2.375-4.209-2.402-1.274-.018-6.179-.062-9.155-.032m3.131-18.12c-1.035-.446-2.237-.017-3.315 1.118-3.622 3.549-7.872 7.01-11.302 9.697-1.28 1.112-2.588 3.107 2.872 5.101.198.075 4.178 1.55 6.7 1.644 1.03-.029 1.027 1.509.836 1.919-.435.819-.12 1.132-.999 1.92-.916.773.098 1.774.818 1.094 3.074-2.669 8.06-.961 12.863.601 1.135.314 3.212.226 3.194-1.34.02-1.706 1.256-2.912 2.01-2.956 1.961.34 11.651.448 14.636.085 1.74-.226 1.845 2.384 2.776 3.413.642.682 3.113.863 4.807.115 3.349-1.556 8.452-1.556 10.532-.069.855.651 1.53.123 1.044-.538-.626-.904-.612-1.323-.923-2.037-.781-1.589-.158-1.978.661-2.093 9.253-1.193 12.206-4.35 9.377-6.924-3.653-3.204-7.72-6.425-11.224-10.211-.95-1-1.578-1.407-3.555-.585-6.05 2.753-13.718 4.76-21.23 4.907-6.987.06-16.594-3.172-20.583-4.861"/></g><g fill="#fff" transform="matrix(1.9463 0 0 1.9463-350-41.963)"><g transform="translate(-14.439 36.636)"><path stroke="#000" stroke-width=".5" d="m368.23 155.51c.419 1.443 6.19-1.194 9.123-6.963-3.841 4.188-10.06 4.147-9.123 6.963z"/><path stroke-width="1.25" d="m368.23 155.51c.419 1.443 6.19-1.194 9.123-6.963-3.841 4.188-10.06 4.147-9.123 6.963"/></g><g transform="matrix(-1.0366 0 0 .94744 626.13 13.902)"><path stroke="#000" stroke-width=".505" d="m253.45 178.87c1.695 2.578 3.958 4.444 4.06 6.487.173 2.351.344 2.471.954 4.783-1.681-.468-2.104-.621-2.558-4.139-.28-2.472-2.708-4.857-2.456-7.131z"/><path stroke-width="1.25" d="m253.45 178.87c1.695 2.578 3.958 4.444 4.06 6.487.173 2.351.344 2.471.954 4.783-1.681-.468-2.104-.621-2.558-4.139-.28-2.472-2.708-4.857-2.456-7.131"/></g><g transform="matrix(-1.0476 0 0 1 632.74-.275)"><path stroke="#000" stroke-width=".489" d="m254.38 180.28c2.042 1 2.506 2.667 2.587 4.726.04 2.384.617 4.226 1.673 5.897-2.103.305-2.486-3.147-2.725-5.713-.242-2.656-.671-2.869-1.535-4.91z"/><path stroke-width="1.25" d="m254.38 180.28c2.042 1 2.506 2.667 2.587 4.726.04 2.384.617 4.226 1.673 5.897-2.103.305-2.486-3.147-2.725-5.713-.242-2.656-.671-2.869-1.535-4.91"/></g><path stroke="#000" stroke-width=".387" d="m242.23 131.44c.179.97 1.359 1.058 1.016-.312-.286-1.112-.335-1.948 0-2.852.459-1.133.306-3.062-.039-3.867-.348-.85-1.501-.352-1.016.313.534.771.562 2.375.195 3.124-.483 1.106-.352 2.574-.156 3.594z" transform="matrix(1.0696 0 0 1.5618 113.14-77.65)"/><path d="m242.23 131.44c.179.97 1.359 1.058 1.016-.312-.286-1.112-.335-1.948 0-2.852.459-1.133.306-3.062-.039-3.867-.348-.85-1.501-.352-1.016.313.534.771.562 2.375.195 3.124-.483 1.106-.352 2.574-.156 3.594" transform="matrix(1.0696 0 0 1.5618 113.14-77.65)" id="A"/><path stroke="#000" stroke-width=".348" d="m242.23 131.78c-.094.784 1.231.974 1.172-.163-.06-1.187-1.824-2.273-.742-4.08.569-.884.579-2.504.234-3.365-.303-.854-1.579-.296-1.094.369.534.771-.1 2.25-.508 2.994-1.225 2.166 1.01 3.221.938 4.245z" transform="matrix(-.98429 0 0 2.0999 614.23-139.96)"/><use transform="matrix(-.98429 0 0 1 617.65-.11)" xlink:href="#X"/><path stroke="#000" stroke-width=".504" d="m242.23 131.44c.179.97 1.359 1.058 1.016-.312-.286-1.112-.335-1.948 0-2.852.459-1.133.306-3.062-.039-3.867-.348-.85-1.501-.352-1.016.313.534.771.562 2.375.195 3.124-.483 1.106-.352 2.574-.156 3.594z" transform="matrix(-.98429 0 0 1 617.65-.11)"/><use transform="matrix(-.92024 0 0 .64029 721.77 49.605)" xlink:href="#A"/><g transform="matrix(.82827.56032-.56032.82827 146.81-172.24)"><path stroke="#000" stroke-width=".5" d="m357.77 126.77c-1.01 1.557-5.555-1.226-4.714-2.894.869-.972 5.751 1.078 4.714 2.894z"/><path d="m357.77 126.77c-1.01 1.557-5.555-1.226-4.714-2.894.869-.972 5.751 1.078 4.714 2.894"/></g><g transform="matrix(1.2161-.50286.56418 1.2951-6.37 94.03)"><path stroke="#000" stroke-width=".367" d="m242.22 131.74c.179.97 1.234.857 1.321-.555-.013-1.01.431-2.074.266-2.87-.197-1.186-.906-2.386-1.251-3.191-.348-.85-1.141-.469-.805.274.384.954.75 2.098.874 2.905.208 1.555-.601 2.417-.405 3.437z"/><path d="m242.22 131.74c.179.97 1.234.857 1.321-.555-.013-1.01.431-2.074.266-2.87-.197-1.186-.906-2.386-1.251-3.191-.348-.85-1.141-.469-.805.274.384.954.75 2.098.874 2.905.208 1.555-.601 2.417-.405 3.437"/></g><g transform="matrix(1.2161-.50286.56418 1.2951-8.792 95.59)"><path stroke="#000" stroke-width=".367" d="m242.54 131.62c.179.97 1.484.926 1.141-.444-.286-1.112-.933-2.181-.598-3.085.459-1.133.571-3.079.226-3.884-.348-.85-1.47-.28-.985.385.534.771.114 2.925-.253 3.674-.483 1.106.273 2.334.469 3.354z"/><path d="m242.54 131.62c.179.97 1.484.926 1.141-.444-.286-1.112-.933-2.181-.598-3.085.459-1.133.571-3.079.226-3.884-.348-.85-1.47-.28-.985.385.534.771.114 2.925-.253 3.674-.483 1.106.273 2.334.469 3.354"/></g></g></g><g transform="matrix(1.9463 0 0 1.9463-350-430.25)"><g fill="#fff" fill-rule="evenodd"><path stroke="#000" stroke-linejoin="round" stroke-width=".5" d="m293.29 397.78c2.318 1.85 4.503 3.95 5.157 6.563.682 2.434 1.094 4.297 2.657 6.719-2.448-1.563-3.42-3.924-4.141-6.486-.633-2.517-2.084-4.399-3.673-6.796z"/><g stroke-width="1.25"><path d="m293.29 397.78c2.318 1.85 4.503 3.95 5.157 6.563.682 2.434 1.094 4.297 2.657 6.719-2.448-1.563-3.42-3.924-4.141-6.486-.633-2.517-2.084-4.399-3.673-6.796"/><path d="m290.64 397.78c2.162 1.771 3.565 3.793 4.219 6.406.682 2.434 1.641 4.375 3.048 6.563-2.292-1.563-3.733-3.689-4.454-6.251-.633-2.518-1.38-4.4-2.813-6.718"/><path d="m331.11 397.78c-2.21 1.781-3.644 3.815-4.313 6.444-.697 2.448-1.677 4.401-3.116 6.602 2.343-1.572 3.816-3.711 4.553-6.288.647-2.533 1.411-4.426 2.875-6.757"/><path d="m328.39 397.78c-2.369 1.861-4.603 3.973-5.271 6.602-.697 2.448-1.118 4.322-2.716 6.759 2.502-1.572 3.496-3.947 4.233-6.524.647-2.532 2.13-4.425 3.755-6.836"/><path d="m320.54 403.95c.064-.457-.248-.856-.622-.976-.729-.274-1.454-.497-2.177-.703-.821-.195-1.281.394-1.284.781-.004.644-.034 1.191 0 1.679.045.608.16.653.544.743.615.104 1.403.21 2.02.625.49.302.961.063 1.205-.468.158-.406.245-1.2.312-1.681"/><path d="m311.69 403.95c-.057-.457.183-.895.517-1.015.651-.274 1.299-.341 1.983-.313.759-.012.951.16.953.547.004.644.03 1.269 0 1.757-.04.608-.027.653-.37.743-.55.104-1.487.132-2.039.547-.438.302-.936.063-.96-.507.011-.43-.025-1.278-.084-1.759"/><path d="m300.95 403.83c-.064-.457.249-.856.625-.976.732-.274 1.461-.497 2.187-.703.825-.195 1.287.394 1.29.781.004.644.034 1.191 0 1.679-.045.608-.161.653-.547.743-.618.104-1.41.21-2.031.625-.492.302-.965.063-1.211-.468-.159-.406-.246-1.2-.313-1.681"/><path d="m309.84 403.83c.057-.457-.184-.895-.52-1.015-.654-.274-1.305-.341-1.992-.313-.763-.012-.955.16-.958.547-.004.644-.03 1.269 0 1.757.04.608.027.653.372.743.552.104 1.494.132 2.048.547.44.302.941.063.965-.507-.011-.43.025-1.278.085-1.759"/><path d="m301.61 407.89c.794 1.497 1.706 3.776 3.359 3.359.026-1.146-1.784-1.94-3.359-3.359"/><path d="m304.08 408.4c3.21 1.316 5.983.991 6.328 3.01-3.01.325-4.113-.912-6.328-3.01"/><path d="m319.82 408.09c-.805 1.411-1.729 3.56-3.405 3.167-.026-1.08 1.808-1.829 3.405-3.167"/><path d="m317.57 408.52c-3.257 1.249-6.07.94-6.42 2.855 3.056.308 4.173-.865 6.42-2.855"/></g><path stroke="#000" fill-opacity=".534" stroke-width=".5" d="m327.18 376.52h6.993c.026 2.643 1.575 5.482 3.75 7.109h-13.4c2.097-1.901 2.67-4.154 2.657-7.11z"/><path stroke-width="1.25" d="m327.18 376.52h6.993c.026 2.643 1.575 5.482 3.75 7.109h-13.4c2.097-1.901 2.67-4.154 2.657-7.11"/></g><path fill="none" stroke="#000" stroke-width=".25" d="m277.29 419.26c-.385.294-.359 1.176.39 1.484 6.985 2.506 13.728 7.137 33.13 6.954 19.586-.185 26.469-4.704 32.737-6.797.835-.318 1.621-.965.547-1.875-3.522-2.879-7.329-5.193-9.845-8.751-.446-.64-1.665-.277-2.422 0-7.476 2.626-14.383 4.466-21.564 4.453-7.01-.013-14.321-1.944-20.9-4.648-.63-.269-1.662.034-2.149.507-3.053 3.041-6.373 5.992-9.922 8.673z"/><g fill-rule="evenodd"><g stroke-width="1.25"><path d="m286.7 414.45c-.841-.542-1.22.163-.625.899.772.847 2.02 1.357 3.32 1.719.758.211 2.323-.055 3.126.039.625.078.978 1.339 2.11 1.289 1.142-.049 1.875-3.086 1.914-4.61.052-1.01-1.344-.365-1.211.04.366 1-.304 3.244-1.016 3.242-.524-.032-1.086-1.118-1.875-1.25-.617-.102-1.553.072-2.188.078-1.857.018-2.657-.908-3.555-1.446"/><path d="m288.27 413.63c.991.495 1.857-.391 2.423.235 1.446 1.641 3.306-.786 1.133-.703-.879.034-1.016-.665-2.54-.509-.811.104-1.49.701-1.016.977"/><path d="m288.5 420.82c-.783-.342-1.046.402-.586.86.646.59 3.329.825 3.985.352 1.085-.823.292-2.985-.195-3.595-.304-.371-1.22-.399-.86.587.149.457.815 1.594.273 2.109-.496.474-1.868-.0001-2.617-.313"/><path d="m294.52 421.48c.172-.441-.292-1.201-1.095-.313-.663.7-.125 3.651 1.993 4.18 2.07.508 3.621-.236 3.906-1.367.197-.753-.937-1.407-.351-2.071.489-.519 1.433.006 1.836-.82.236-.463.255-1.412-1.016-2.032-.551-.277-1.505.355-1.485.821.03.641 1.023.223.664.781-.262.425-1.435.248-1.796 1.25-.216.637 1.328 1.813.508 2.11-.732.253-1.686.417-2.657-.117-.6-.318-.855-1.634-.507-2.422"/><path d="m287.06 417.42c-.492.072-1.171.43-1.21 1.016-.03.47.357 1.284 1.016.741.68-.528.158-.778.312-.586.339.339-.158.367-.781 1.212-.434.641-1.361.538-1.836.312-.82-.423-.513-.694-1.407-1.094-.893-.439-1.434.591-.586 1.055.937.537 2.472 1.61 3.985.821.899-.508 1.953-.971 1.914-2.11-.051-.74-.38-1.511-1.407-1.367"/><path d="m335.65 417.03c-.691-.494-.268-1.39.743-1.055.86.318 2.288 1.331 2.382 2.657.107 1.45-2.23 2.511-3.124 2.462-1.531-.124-1.258-1.338-.118-1.251.884.064 1.97-.251 2.032-1.172.052-.799-1.417-1.264-1.915-1.641"/><path d="m330.61 413.48c-.893-.901.976-1.875 1.523-.781.721 1.391 1.579 2.76 2.227 4.297.516 1.261-.161 1.432-.586.742-.711-1.2-1.788-2.806-3.164-4.258"/><path d="m326.24 416.17c.961-.418.937.781.586 1.016-.635.353-1.485-.586-.586-1.016"/><path d="m329.09 415.12c.961-.418.937.781.586 1.016-.635.353-1.485-.586-.586-1.016"/><path d="m299.28 416.8c-1.442-.921.293-2.295 1.289-1.25 1.427 1.457 2.791 4.65 3.868 5.86 1.024 1.189.199-3.224.508-4.532.211-.727.779-.625.781.078.005 1.798-.272 5.456.195 5.743.874.497.716 1.308 1.445 1.172.782-.186.665-.391 1.368-.43.697 0 .721.699 1.524.586.512-.067.666-.647 1.288-.665.567-.048.323 1.204-.038 1.407-.589.331-2.423-.36-2.969-.312-.65.017-1.82.62-2.54.351-.879-.314-.684-1.428-1.289-1.25-.685.158-.556 1.405-2.187 1.797-.764.174-1.021-.512-.625-.977.709-.758 2.137-1.363 1.914-2.07-.661-1.97-2.658-4.343-4.532-5.508"/><path d="m311.82 417.07c.693 2.28.659 5.312 1.055 7.384.195.815.975.089.899-.547-.307-2.225-.442-4.956-1.016-7.07-.238-.732-1.203-.59-.938.234"/><path d="m313.74 417.66c-.183-.951.727-1.04.86-.47.469 1.835.409 6.03 1.328 6.173 1.586.181 3.81-.147 5.782-.547.97-.193 1.169-.895 1.133-1.173-.186-1.128.867-1.039 1.133.157.143.624-.14 1.743-1.328 1.992-2.321.448-5.516 1.139-7.345.742-1.602-.339-1.08-4.475-1.563-6.874"/><path d="m316.32 419.3c.04-1.203.943-1.38.937-.352.025 2.461 2.906 1.822 3.517.899.451-.72.121-1.03-.313-1.836-.54-1.043.603-1.337 1.094-.43.367.649.622 2.718-.039 3.243-.915.725-3.388 1.081-4.454.273-.566-.39-.786-1.138-.742-1.797"/><path d="m315.07 416.09c.128.771 2.226.508 2.148-.078-.072-.504-2.265-.391-2.148.078"/><path d="m317.8 416.72c.082.777 1.44.548 1.367-.039-.072-.621-1.445-.743-1.367.039"/><path d="m321.9 415.78c-.689-.952.652-1.012 1.094-.312 1.144 1.71 1.898 4.467 3.01 6.328.472.858 1.063.091 1.133-.117.074-.221-.359-.56-.39-1.328-.055-.597 1.166-1.339 2.031-.781.809.545.147 1.028.547 1.328.381.286 1.343.106 1.485-.078.427-.671-.155-.278-.743-.665-.68-.487-.272-2.597 1.133-1.719.836.484 1.082 2.031.781 2.891-.266.797-1.665 1.068-2.422.899-.853-.26-1.542-1.286-1.367-1.016.422.693-.104 1.377-.508 1.641-.997.626-1.694.954-2.422-.078-1.29-1.932-2-5.191-3.36-6.993"/></g><g fill="#fff"><g stroke="#000" stroke-width=".5"><path d="m285.49 283.37c-.057-1.154 1.732-1.242 1.527.345-.262 1.977 3.732 6.983 4.063 10.07.222 2.07-1.216 3.882-2.64 5.01-1.746 1.353-4.431 1.166-5.687.391-.76-.612-1.453-2.707-.884-3.536.201-.279 1.111 3.075 3.115 3.062 2.727-.018 4.936-2.066 5.02-3.893.14-3.182-4.461-8.211-4.511-11.447z"/><path d="m293.48 291.23c.451-.322 1.171 1.085.663 1.436-.423.282-1.249-1.046-.663-1.436z"/><path d="m294.68 288.38c-.228.111-.681-.046-.546-.24.638-.911 1.998-2.284 2.984-2.762.303-.147.833.388.65.65-.59.843-2.026 1.837-3.088 2.353z"/><path d="m305.23 280.01c.253-.528 1.772-1.125 2.159-1.482.358-.366.529.31.376.63-.253.528-1.564 1.419-2.139 1.443-.309.013-.549-.271-.396-.59z"/><path d="m308.83 280.18c.329-.927 1.39-2.332 2.12-2.795.375-.237 1.048-.051.922.305-.279.786-1.577 2.161-2.45 2.808-.265.236-.668-.103-.592-.318z"/><path d="m305.74 282.5c-.22.11-.101.579.111.649.451.15 1.272.18 1.644-.026.54-.333.294-2.381-.429-1.287-.485.675-.839.458-1.326.663z"/><path d="m299.64 287.2c-1.103-.859.297-2.063 1.45-1.222 2.246 1.694-3.351 8.185-6.396 11.219-.557.594-1.046-.902-.332-1.547 2.183-1.852 4.227-4.064 5.648-6.35.274-.44.536-1.389-.37-2.1z"/><path d="m312.42 281.62c.137-.822-1.33.017-1.357-1.073-.014-.577 1.603-.981 2.279-.318 1.142 1.159.288 3.113-1.611 3.236-1.583.07-4.224 2.248-3.822 2.705.457.565 4.562.939 6.949.565 1.478-.207 1.168 1.115-.346 1.293-1.463.169-2.655.012-4.02.442-1.609.46-2.311 2.619-3.205 3.425-.199.14-.736-.708-.532-1.027.644-1.01 1.671-2.549 2.801-2.99.713-.289-1.966-.38-2.821-.624-.678-.204-.481-1.066-.221-1.547.345-.749 2.87-3.278 3.888-3.237.956.04 1.925-.238 2.02-.852z"/><path d="m316.68 281.84c.475-.419.718-1.12 1.216-1.547.273-.273.709.054.636.714-.061.52-.759.968-1.228 1.358-.382.286-.826-.332-.624-.526z"/><path d="m322.09 279.91c.707-.078.883 1.287.11 1.508-.469.156-.879-1.427-.11-1.508z"/><path d="m320.31 284.13c-.011 1.175.569 1.067 1.676 1.027 1.074-.04 2.02.028 2.01-1.034-.005-1.1-.609-2.062-.786-1.314-.156.703-.28 1.854-.689 1.353-.386-.431-.233-.526-.897.182-.368.39-.41-.189-.631-.553-.154-.215-.687.174-.688.338z"/><path d="m312.59 290.13c-.264 1.555-.022 3.732.774 3.757.984.032 3.02-3.4 3.984-5.18.578-.993 1.571-1.167 1.157-.131-.627 1.599-.571 5.02-.02 6.03.296.541 2.481-.497 2.834-1.268.642-1.402.12-3.986.345-5.564.109-1.036 1.057-1.252 1.01-.292-.094 1.718-.257 4.868-.136 6.298.072.822 2.423 2.036 2.801-.454.199-1.567 1.01-3.113-.039-4.849-.648-1.086.951-.95 1.813.534.603 1.01-.508 2.68-.469 3.971.1 1.986-1.445 3.115-2.566 3.139-1 .02-1.655-1.211-2.476-1.228-.911-.058-1.847 1.417-2.6 1.365-2.918-.199-1.373-4.465-2.262-4.517-.989-.058-2.155 4.18-3.373 4.03-1.201-.144-2.444-3.454-1.944-4.855.452-1.303 1.304-1.608 1.17-.78z"/><path d="m326.72 283.4c-1.424-.869.09-3.127.786-2.334 1.344 1.61 2.699 5.43 3.646 5.746.6.2.572-2.824.995-4.199.273-1.016 1.501-.684 1.266.617-.08.435-1.604 5.375-1.487 5.57 1.056 2.111 2.101 4.253 2.762 6.519.273.977-.9.319-1.04.116-.749-1.12-2.06-5.401-2.06-5.206-.603 3.01-.745 3.901-1.385 6.46-.195.82-1.402.671-1.13-.773.262-1.187 1.988-7.03 1.891-7.195-1.357-2.395-2.598-4.29-4.244-5.323z"/><path d="m329.29 297.29c-.397-.045-1.013.883.964 1.248 2.642.478 5.534-.412 6.42-3 1.015-3.086 1.686-6.01 2.216-7.11.662-1.285 1.509-1.181.884-3.056-.441-1.35-1.264-.942-1.437-.221-.462 1.967-2.215 8.331-2.762 9.503-1.032 2.139-3.112 2.985-6.285 2.639z"/><path d="m334.58 287.14c-.283-.607-.943-.137-.825.527.07.6.557.926 1.046.91.579-.02 1.804.019 1.807-.942.002-.675-.529-1.24-.923-.494-.377.675-.862.604-1.105 0z"/><path d="m335.24 284.6c-.203.141-.021.892.221.884.863-.029 2.086-.304 2.741-.76.192-.133.112-.587-.161-.578-.832.028-2.156.006-2.801.454z"/><path d="m342.57 286.49c.625-.977 2.349-1.076 1.729.318-.439.961-4.731 9.254-5.317 10.308-.639 1.186-1.162.599-.708-.325.611-1.188 4.1-10.01 4.296-10.302z"/><path d="m336.11 298.84c-.183-.66-1.207-1.636-1.092.13.204 3.205 4.607 2.192 5.94 1.053 1.21-1.072.16 3.618 1.768 4.12.886.284 2.554-.925 3.374-1.989 2.274-2.951 3.721-7.18 5.908-10.09.826-1.139-.452-1.952-.969-1.046-1.902 3.189-4.264 9.697-6.844 11.388-2.103 1.346-1.48-1.733-1.553-2.658-.092-.679-.919-1.677-2.02-.76-.771.602-1.969 1.092-3.054.994-.629-.035-1.16-.024-1.456-1.137z"/><path d="m343.97 292.89c.023-.181-.931-.263-.884.663.033.685.853.872.994.774 1.29-.938-.274-.47-.11-1.437z"/><path d="m342.09 296.64c-.254.059-.487.87.111.916.547.039 2.69-.191 3.282-.156.383-.014.529-.747-.292-.708-.996.05-2.305-.2-3.101-.052z"/><path d="m356.28 295.69c.879-3.294 3.01.508 1.133 2.383-2.895 2.836-3.767 8.248-8.36 9.06-1.238.266-3.417-.557-4.063-1.016-.252-.179.163-1.355.937-.781 1.119.874 3.43 1.071 4.65.078 2.61-2.562 4.735-5.955 5.703-9.728z"/><path d="m308.56 303.01c-.207.238-.84.199-.897.533-.249 1.239 0 1.867-.273 3.06-.261 1.142-1.054 1.185-1 .254.072-1.207 1.067-2.911.364-3.03-.468-.11-.829-.736-.345-1.045.914-.634 1.405-.537 2.033-.346.219.067.275.389.118.572z"/><path d="m307.92 301.39c-1.212 1.06-2.336 1.493-3.451 2.833-.456.549-.443 1.314-.715 2.01-.273.743-1.151.889-1.423.734-.455-.299-.389-1.677-.897-.935-.431.683-.709 1.624-1.346 1.612-.576-.012-1.663-1.19-1.112-1.247 1.885-.193 1.862-1.702 2.568-1.801.792-.106.844 1.246 1.333.975.384-.197.565-1.772.982-2.197 1.278-1.306 2.289-1.996 3.593-2.956.66-.526 1.131.423.468.968z"/><path d="m312.34 305.45c-.97.196-.805 1.443-.52 1.598.47.219 1.197.311 1.469-1.123.127-.589.242 2.928 1.533 1.573.743-.821 2.584.149 3.355-.884.552-.688.722-1.168.292-2.184-.125-.309-.881-.157-.838.593.038.632-.448 1.412-1.08 1.279-.307-.056.173-1.546-.135-1.95-.17-.222-.428-.198-.597.032-.237.322.238 1.75-.541 1.938-.983.227-.468-.955-.884-1.171-1.338-.675-1.467.175-2.054.299z"/><path d="m319.91 303.05c.711-.2.489-.201 1.608-1.117.436-.33.522.636.476 1.018-.081.649-.852.191-1.091.762-.35.742-.208 2.468-.325 3.171-.08.361-.659.33-.714.045-.166-.857.117-1.696.09-2.768-.009-.364-.53-.935-.044-1.111z"/><path d="m316.57 299.19c-.172.776-.159 1.415-.159 1.947.039.43.825.153.822.098-.039-.681.116-1.623-.085-1.886-.109-.142-.538-.305-.578-.159z"/></g><path d="m285.49 283.37c-.057-1.154 1.732-1.242 1.527.345-.262 1.977 3.732 6.983 4.063 10.07.222 2.07-1.216 3.882-2.64 5.01-1.746 1.353-4.431 1.166-5.687.391-.76-.612-1.453-2.707-.884-3.536.201-.279 1.111 3.075 3.115 3.062 2.727-.018 4.936-2.066 5.02-3.893.14-3.182-4.461-8.211-4.511-11.447"/><path stroke="#000" stroke-width=".5" d="m290.24 282.7c.34.016 1.272 1.224 1.211 1.602-.042.178-.997-.026-1.289-.273-.216-.183-.129-1.338.078-1.328zm-4.494 8.749c-.852.465.135 1.382.773.994 2.395-1.551 5.989-3.18 6.74-6.251.241-1.04 1.208-2.635 2.126-2.991.887-.344 2.175 1.605 3.02.071.493-.877 2.221.575 2.638-.363.508-1.133.266-1.757.287-2.842-.037-.711-.58-.923-.974.228-.205.521.036 1.047-.131 1.319-.127.207-.523.407-.753.234-.212-.159-.065-.603-.573-.799-.197-.099-.513-.181-.65.071-.603 1.075-.937 2.078-1.781.935-.752-.984-1.133-2.686-1.684-.357-.198.822-1.447 2.01-2.184 2.01-.92 0-.689-2.422-2.71-2.054-1.039.222-.967 2.21-.812 2.944.255 1.021 3.291.288 3.14.955-.519 2.32-3.739 4.525-6.468 5.889z"/></g></g></g><g fill="#fff" fill-rule="evenodd"><g transform="matrix(1.9463 0 0 1.9463-350-41.963)"><g stroke="#000" stroke-linejoin="round" stroke-width=".5"><path d="m266.74 103c-.129.388.387 1.442.922 1.52.525.039.793-1.138.624-1.52-.125-.281-1.454-.275-1.546 0z"/><path d="m269.52 107.09c-.337-.363-1.33.611-.527 1.3.451.365 2.103.895 2.555.124.612-.992-.603-4.594-.065-5.07.42-.372 2.367 2.406 3.328 2.606 2.258.313 1.716-3.866 4.149-3.582 1.658.221 1.84-1.851 1.609-3.145-.185-1.241-2.195-3.033-3.119-3.835-1.216-1.012-1.758.746-.995 1.326.982.786 2.709 2.375 2.984 3.426.13.496-1.2 1.482-1.69 1.215-1.131-.617-2.183-3.263-3.172-3.867-.337-.206-1.166.259-.767 1.085.449.885 2.432 2.254 2.548 3.198.105.861-.884 2.723-1.533 2.723-.714 0-2.534-2.25-3.102-3.309-.284-.507-1.268-.458-1.371.242-.163 1.051.152 3.275.403 4.653.199 1.305-.735 1.371-1.235.91z"/><path d="m266.11 99.92c-.284.321.663.949.851.786.365-.316 1.782-1.931 1.509-2.496-.243-.504-2.192-1.606-2.509-1.06-.588.945 1.837 1.368 1.457 1.645-.187.107-.854.568-1.308 1.125z"/><path d="m269.61 92.83s.609 2.084 1.105 1.216c.401-.602-1.105-1.216-1.105-1.216z"/><path d="m270.6 96.15c-.223.122-.851.619-.442.884.647.383 2.407.686 2.027-.566-.231-.737 2.654.02 1.951-1.975-.184-.552-1.054-1.35-1.482-1.462-.272-.072-1.196.435-.618.714.422.219 1.695.966 1.222 1.456-.537.513-.911-.23-1.579-.11-.336.064-.117 1.02-.306 1.28-.106.145-.591-.32-.773-.221z"/><path d="m275.18 88.23c-.364.182-1.016 1.169-1.04 1.625-.013.243.254.578.462.474.382-.191.972-1.125.994-1.554.014-.271-.19-.659-.416-.546z"/><path d="m277.56 87.974c-.703-.859.746-2.135 1.398-.415.394 1.079 4.594 6.606 5.453 8.481.608 1.269-.022 1.793-.774.884-2.127-2.714-3.872-6.097-6.077-8.95z"/><path d="m281.87 88.08c.749-.811 2.278-2.469 1.866-3.393-.316-.795-1.245-.716-1.404-.532-.909 1.085.646.813.422 1.183-.463.869-.924 1.348-1.163 2.183-.056.196.144.705.279.559z"/></g><path d="m266.74 103c-.129.388.387 1.442.922 1.52.525.039.793-1.138.624-1.52-.125-.281-1.454-.275-1.546 0"/><path d="m269.52 107.09c-.337-.363-1.33.611-.527 1.3.451.365 2.103.895 2.555.124.612-.992-.603-4.594-.065-5.07.42-.372 2.367 2.406 3.328 2.606 2.258.313 1.716-3.866 4.149-3.582 1.658.221 1.84-1.851 1.609-3.145-.185-1.241-2.195-3.033-3.119-3.835-1.216-1.012-1.758.746-.995 1.326.982.786 2.709 2.375 2.984 3.426.13.496-1.2 1.482-1.69 1.215-1.131-.617-2.183-3.263-3.172-3.867-.337-.206-1.166.259-.767 1.085.449.885 2.432 2.254 2.548 3.198.105.861-.884 2.723-1.533 2.723-.714 0-2.534-2.25-3.102-3.309-.284-.507-1.268-.458-1.371.242-.163 1.051.152 3.275.403 4.653.199 1.305-.735 1.371-1.235.91"/><path d="m266.11 99.92c-.284.321.663.949.851.786.365-.316 1.782-1.931 1.509-2.496-.243-.504-2.192-1.606-2.509-1.06-.588.945 1.837 1.368 1.457 1.645-.187.107-.854.568-1.308 1.125"/><path d="m269.61 92.83s.609 2.084 1.105 1.216c.401-.602-1.105-1.216-1.105-1.216"/><path d="m270.6 96.15c-.223.122-.851.619-.442.884.647.383 2.407.686 2.027-.566-.231-.737 2.654.02 1.951-1.975-.184-.552-1.054-1.35-1.482-1.462-.272-.072-1.196.435-.618.714.422.219 1.695.966 1.222 1.456-.537.513-.911-.23-1.579-.11-.336.064-.117 1.02-.306 1.28-.106.145-.591-.32-.773-.221"/><path d="m275.18 88.23c-.364.182-1.016 1.169-1.04 1.625-.013.243.254.578.462.474.382-.191.972-1.125.994-1.554.014-.271-.19-.659-.416-.546"/><path d="m277.56 87.974c-.703-.859.746-2.135 1.398-.415.394 1.079 4.594 6.606 5.453 8.481.608 1.269-.022 1.793-.774.884-2.127-2.714-3.872-6.097-6.077-8.95"/><path d="m281.87 88.08c.749-.811 2.278-2.469 1.866-3.393-.316-.795-1.245-.716-1.404-.532-.909 1.085.646.813.422 1.183-.463.869-.924 1.348-1.163 2.183-.056.196.144.705.279.559"/></g><g transform="matrix(1.9463 0 0 1.9463-350-430.25)"><path d="m336.11 298.84c-.183-.66-1.207-1.636-1.092.13.204 3.205 4.607 2.192 5.94 1.053 1.21-1.072.16 3.618 1.768 4.12.886.284 2.554-.925 3.374-1.989 2.274-2.951 3.721-7.18 5.908-10.09.826-1.139-.452-1.952-.969-1.046-1.902 3.189-4.264 9.697-6.844 11.388-2.103 1.346-1.48-1.733-1.553-2.658-.092-.679-.919-1.677-2.02-.76-.771.602-1.969 1.092-3.054.994-.629-.035-1.16-.024-1.456-1.137"/><path d="m293.48 291.23c.451-.322 1.171 1.085.663 1.436-.423.282-1.249-1.046-.663-1.436"/><path stroke="#000" stroke-width=".5" d="m346.98 290.3c-.538-.436.529-2.548 1.251-1.719 1.982 2.294 2.903 9.74 3.476 15.314 0 0-.891.743-.898.625 0-2.969-1.193-12.05-3.829-14.22z"/><path d="m294.68 288.38c-.228.111-.681-.046-.546-.24.638-.911 1.998-2.284 2.984-2.762.303-.147.833.388.65.65-.59.843-2.026 1.837-3.088 2.353"/><path d="m346.98 290.3c-.538-.436.529-2.548 1.251-1.719 1.982 2.294 2.903 9.74 3.476 15.314 0 0-.891.743-.898.625 0-2.969-1.193-12.05-3.829-14.22"/><path stroke="#000" stroke-width=".5" d="m348.2 303.31c.358-.997 5.118-8.986 5.743-10.744.32-.848 1.686 1.454.352 2.695-1.172 1.055-4.63 6.725-5.275 8.712-.297.897-1.198.47-.82-.664z" id="B"/><path d="m312.42 281.62c.137-.822-1.33.017-1.357-1.073-.014-.577 1.603-.981 2.279-.318 1.142 1.159.288 3.113-1.611 3.236-1.583.07-4.224 2.248-3.822 2.705.457.565 4.562.939 6.949.565 1.478-.207 1.168 1.115-.346 1.293-1.463.169-2.655.012-4.02.442-1.609.46-2.311 2.619-3.205 3.425-.199.14-.736-.708-.532-1.027.644-1.01 1.671-2.549 2.801-2.99.713-.289-1.966-.38-2.821-.624-.678-.204-.481-1.066-.221-1.547.345-.749 2.87-3.278 3.888-3.237.956.04 1.925-.238 2.02-.852"/><path d="m299.64 287.2c-1.103-.859.297-2.063 1.45-1.222 2.246 1.694-3.351 8.185-6.396 11.219-.557.594-1.046-.902-.332-1.547 2.183-1.852 4.227-4.064 5.648-6.35.274-.44.536-1.389-.37-2.1"/><path stroke="#000" stroke-width=".5" d="m302.54 283.05c-.641-1.474.962-2.02 1.202-.969 1.114 4.841 3.781 8.506 5.811 11.797.611 1.029.121 1.642-1.365.695-1.029-.705-2.074-3.278-2.58-3.38-.916-.171-3.108 4.179-7.592 2.938-1.16-.324-1.083-3.774-1.105-5.297-.049-.714.74-.903.767.071.041 1.405-.002 4.323 1.795 4.421 1.465.082 4.71-1.989 5.394-3.608.609-1.665-1.634-4.973-2.327-6.669z"/><path stroke-width="1.25" d="m290.24 282.7c.34.016 1.272 1.224 1.211 1.602-.042.178-.997-.026-1.289-.273-.216-.183-.129-1.338.078-1.328m-4.494 8.749c-.852.465.135 1.382.773.994 2.395-1.551 5.989-3.18 6.74-6.251.241-1.04 1.208-2.635 2.126-2.991.887-.344 2.175 1.605 3.02.071.493-.877 2.221.575 2.638-.363.508-1.133.266-1.757.287-2.842-.037-.711-.58-.923-.974.228-.205.521.036 1.047-.131 1.319-.127.207-.523.407-.753.234-.212-.159-.065-.603-.573-.799-.197-.099-.513-.181-.65.071-.603 1.075-.937 2.078-1.781.935-.752-.984-1.133-2.686-1.684-.357-.198.822-1.447 2.01-2.184 2.01-.92 0-.689-2.422-2.71-2.054-1.039.222-.967 2.21-.812 2.944.255 1.021 3.291.288 3.14.955-.519 2.32-3.739 4.525-6.468 5.889"/><path d="m302.54 283.05c-.641-1.474.962-2.02 1.202-.969 1.114 4.841 3.781 8.506 5.811 11.797.611 1.029.121 1.642-1.365.695-1.029-.705-2.074-3.278-2.58-3.38-.916-.171-3.108 4.179-7.592 2.938-1.16-.324-1.083-3.774-1.105-5.297-.049-.714.74-.903.767.071.041 1.405-.002 4.323 1.795 4.421 1.465.082 4.71-1.989 5.394-3.608.609-1.665-1.634-4.973-2.327-6.669"/><path d="m305.23 280.01c.253-.528 1.772-1.125 2.159-1.482.358-.366.529.31.376.63-.253.528-1.564 1.419-2.139 1.443-.309.013-.549-.271-.396-.59"/><path d="m308.83 280.18c.329-.927 1.39-2.332 2.12-2.795.375-.237 1.048-.051.922.305-.279.786-1.577 2.161-2.45 2.808-.265.236-.668-.103-.592-.318"/><path d="m305.74 282.5c-.22.11-.101.579.111.649.451.15 1.272.18 1.644-.026.54-.333.294-2.381-.429-1.287-.485.675-.839.458-1.326.663"/><path d="m316.68 281.84c.475-.419.718-1.12 1.216-1.547.273-.273.709.054.636.714-.061.52-.759.968-1.228 1.358-.382.286-.826-.332-.624-.526"/><path d="m322.09 279.91c.707-.078.883 1.287.11 1.508-.469.156-.879-1.427-.11-1.508"/><path d="m320.31 284.13c-.011 1.175.569 1.067 1.676 1.027 1.074-.04 2.02.028 2.01-1.034-.005-1.1-.609-2.062-.786-1.314-.156.703-.28 1.854-.689 1.353-.386-.431-.233-.526-.897.182-.368.39-.41-.189-.631-.553-.154-.215-.687.174-.688.338"/><path d="m312.59 290.13c-.264 1.555-.022 3.732.774 3.757.984.032 3.02-3.4 3.984-5.18.578-.993 1.571-1.167 1.157-.131-.627 1.599-.571 5.02-.02 6.03.296.541 2.481-.497 2.834-1.268.642-1.402.12-3.986.345-5.564.109-1.036 1.057-1.252 1.01-.292-.094 1.718-.257 4.868-.136 6.298.072.822 2.423 2.036 2.801-.454.199-1.567 1.01-3.113-.039-4.849-.648-1.086.951-.95 1.813.534.603 1.01-.508 2.68-.469 3.971.1 1.986-1.445 3.115-2.566 3.139-1 .02-1.655-1.211-2.476-1.228-.911-.058-1.847 1.417-2.6 1.365-2.918-.199-1.373-4.465-2.262-4.517-.989-.058-2.155 4.18-3.373 4.03-1.201-.144-2.444-3.454-1.944-4.855.452-1.303 1.304-1.608 1.17-.78"/><path d="m326.72 283.4c-1.424-.869.09-3.127.786-2.334 1.344 1.61 2.699 5.43 3.646 5.746.6.2.572-2.824.995-4.199.273-1.016 1.501-.684 1.266.617-.08.435-1.604 5.375-1.487 5.57 1.056 2.111 2.101 4.253 2.762 6.519.273.977-.9.319-1.04.116-.749-1.12-2.06-5.401-2.06-5.206-.603 3.01-.745 3.901-1.385 6.46-.195.82-1.402.671-1.13-.773.262-1.187 1.988-7.03 1.891-7.195-1.357-2.395-2.598-4.29-4.244-5.323"/><path d="m329.29 297.29c-.397-.045-1.013.883.964 1.248 2.642.478 5.534-.412 6.42-3 1.015-3.086 1.686-6.01 2.216-7.11.662-1.285 1.509-1.181.884-3.056-.441-1.35-1.264-.942-1.437-.221-.462 1.967-2.215 8.331-2.762 9.503-1.032 2.139-3.112 2.985-6.285 2.639"/><path d="m334.58 287.14c-.283-.607-.943-.137-.825.527.07.6.557.926 1.046.91.579-.02 1.804.019 1.807-.942.002-.675-.529-1.24-.923-.494-.377.675-.862.604-1.105 0"/><path d="m335.24 284.6c-.203.141-.021.892.221.884.863-.029 2.086-.304 2.741-.76.192-.133.112-.587-.161-.578-.832.028-2.156.006-2.801.454"/><path d="m342.57 286.49c.625-.977 2.349-1.076 1.729.318-.439.961-4.731 9.254-5.317 10.308-.639 1.186-1.162.599-.708-.325.611-1.188 4.1-10.01 4.296-10.302"/><path d="m343.97 292.89c.023-.181-.931-.263-.884.663.033.685.853.872.994.774 1.29-.938-.274-.47-.11-1.437"/><use xlink:href="#B"/><path d="m342.09 296.64c-.254.059-.487.87.111.916.547.039 2.69-.191 3.282-.156.383-.014.529-.747-.292-.708-.996.05-2.305-.2-3.101-.052"/><path d="m348.2 303.31c.358-.997 5.118-8.986 5.743-10.744.32-.848 1.686 1.454.352 2.695-1.172 1.055-4.63 6.725-5.275 8.712-.297.897-1.198.47-.82-.664"/><path stroke="#000" stroke-width=".5" d="m356.28 295.69c.879-3.294 3.01.508 1.133 2.383-2.895 2.836-3.767 8.248-8.36 9.06-1.238.266-3.417-.557-4.063-1.016-.252-.179.163-1.355.937-.781 1.119.874 3.43 1.071 4.65.078 2.61-2.562 4.735-5.955 5.703-9.728z"/><path d="m356.28 295.69c.879-3.294 3.01.508 1.133 2.383-2.895 2.836-3.767 8.248-8.36 9.06-1.238.266-3.417-.557-4.063-1.016-.252-.179.163-1.355.937-.781 1.119.874 3.43 1.071 4.65.078 2.61-2.562 4.735-5.955 5.703-9.728"/><path d="m312.34 305.45c-.97.196-.805 1.443-.52 1.598.47.219 1.197.311 1.469-1.123.127-.589.242 2.928 1.533 1.573.743-.821 2.584.149 3.355-.884.552-.688.722-1.168.292-2.184-.125-.309-.881-.157-.838.593.038.632-.448 1.412-1.08 1.279-.307-.056.173-1.546-.135-1.95-.17-.222-.428-.198-.597.032-.237.322.238 1.75-.541 1.938-.983.227-.468-.955-.884-1.171-1.338-.675-1.467.175-2.054.299"/><path d="m319.91 303.05c.711-.2.489-.201 1.608-1.117.436-.33.522.636.476 1.018-.081.649-.852.191-1.091.762-.35.742-.208 2.468-.325 3.171-.08.361-.659.33-.714.045-.166-.857.117-1.696.09-2.768-.009-.364-.53-.935-.044-1.111"/><path d="m316.57 299.19c-.172.776-.159 1.415-.159 1.947.039.43.825.153.822.098-.039-.681.116-1.623-.085-1.886-.109-.142-.538-.305-.578-.159"/><path d="m307.92 301.39c-1.212 1.06-2.336 1.493-3.451 2.833-.456.549-.443 1.314-.715 2.01-.273.743-1.151.889-1.423.734-.455-.299-.389-1.677-.897-.935-.431.683-.709 1.624-1.346 1.612-.576-.012-1.663-1.19-1.112-1.247 1.885-.193 1.862-1.702 2.568-1.801.792-.106.844 1.246 1.333.975.384-.197.565-1.772.982-2.197 1.278-1.306 2.289-1.996 3.593-2.956.66-.526 1.131.423.468.968"/><path d="m308.56 303.01c-.207.238-.84.199-.897.533-.249 1.239 0 1.867-.273 3.06-.261 1.142-1.054 1.185-1 .254.072-1.207 1.067-2.911.364-3.03-.468-.11-.829-.736-.345-1.045.914-.634 1.405-.537 2.033-.346.219.067.275.389.118.572"/></g><g transform="matrix(1.9463 0 0 1.9463-350-41.963)"><g stroke="#000" stroke-width=".5"><path d="m302.18 200.08c.419.931 1.031.89.939-.0001-.178-1.141-.523-2.718-.718-4.088-.111-1.16-1.31-.936-.994.276.4 1.308.316 2.743.773 3.813z"/><path d="m305.77 200.14c-.005.472.726.429.719.056-.076-1.187-.166-2.791.165-3.37.258-.452 1.299-.133 2.265-.221.385-.057.305-1.116-.497-1.049-.946.085-3.44-.222-3.591.662-.217 1.59.983-.095.939 3.922z"/><path d="m313.01 195.55c.605.436.521 1-.221.828-.884-.221-1.48-.15-1.468.335.013.477.386.57.929 1.099.52.545-.319.456-.962 1.572-.548.924.57 1.046 1.888.696.336-.096.777.482-.055.957-.586.313-2.219.696-2.625-.489-.771-2.05 1.291-2.334.422-2.88-.474-.286-.645-.717-.559-1.289.184-1.32 2.15-1.145 2.651-.829z"/><path d="m315.73 200.07c.795-1.451 1.343-2.538 1.565-3.77.193-1.112.992-1.219 1.16-.276.216 1.252.933 2.493 1.803 3.63.51.705-.516 1.326-.919.777-.739-.938-.77-2.245-1.206-2.236-.503.001-1.074 1.457-1.611 2.525-.156.31-1.109-.0001-.792-.65z"/></g><path d="m302.18 200.08c.419.931 1.031.89.939-.0001-.178-1.141-.523-2.718-.718-4.088-.111-1.16-1.31-.936-.994.276.4 1.308.316 2.743.773 3.813"/><path d="m305.77 200.14c-.005.472.726.429.719.056-.076-1.187-.166-2.791.165-3.37.258-.452 1.299-.133 2.265-.221.385-.057.305-1.116-.497-1.049-.946.085-3.44-.222-3.591.662-.217 1.59.983-.095.939 3.922"/><path d="m313.01 195.55c.605.436.521 1-.221.828-.884-.221-1.48-.15-1.468.335.013.477.386.57.929 1.099.52.545-.319.456-.962 1.572-.548.924.57 1.046 1.888.696.336-.096.777.482-.055.957-.586.313-2.219.696-2.625-.489-.771-2.05 1.291-2.334.422-2.88-.474-.286-.645-.717-.559-1.289.184-1.32 2.15-1.145 2.651-.829"/><path d="m315.73 200.07c.795-1.451 1.343-2.538 1.565-3.77.193-1.112.992-1.219 1.16-.276.216 1.252.933 2.493 1.803 3.63.51.705-.516 1.326-.919.777-.739-.938-.77-2.245-1.206-2.236-.503.001-1.074 1.457-1.611 2.525-.156.31-1.109-.0001-.792-.65"/></g><path stroke-width="1.25" d="m384.5 357.31c-.056.297.747.736.938.508.864-1.035 1.995-3.067 2.227-4.297.068-.358-1.083-.763-1.329-.469-.809.969-1.593 2.966-1.836 4.258" transform="matrix(1.9463 0 0 1.9463-350-430.25)"/></g></svg>