<svg xmlns="http://www.w3.org/2000/svg" viewBox="0 0 640 480"><defs><clipPath id="0"><path d="m-79.7 0h682.67v512h-682.67z"/></clipPath></defs><g fill-rule="evenodd" clip-path="url(#0)" transform="matrix(.9375 0 0 .9375 74.72 0)"><g stroke-width="1.25"><path fill="#fff" d="m-120 0h763.27v511.49h-763.27z"/><path d="m-118.31.618h760.88v216.09h-760.88z"/><path fill="#0061ff" d="m21.299 203.23h505.01v113.82h-505.01z"/></g><g fill="#e20000"><path d="m642.75 1.753v510.25h-380.72l380.72-510.25"/><path d="m-118.69 1.753v510.25h380.72l-380.72-510.25"/></g><path fill="#ffd600" d="m440.37 203.34l-76.31-19.363 64.921-48.976-79.73 11.39 41-69.48-70.62 41 12.528-80.87-47.836 63.782-19.363-74.03-21.64 76.31-47.837-64.921 13.667 83.14-70.61-43.28 41 69.48-77.45-12.528 63.782 47.837-79.73 20.501h354.22z"/></g></svg>