<svg xmlns="http://www.w3.org/2000/svg" viewBox="0 0 640 480" xmlns:xlink="http://www.w3.org/1999/xlink"><defs><path id="1" d="m271 87c1.543 3.629 6.49 7.637 7.85 9.601-1.731 1.964-2.077 1.75-1.85 5.399 3.01-3.149 3.064-3.478 5-3 4.241 4.232.759 13.321-2.746 15.297-3.504 2.108-2.868-.073-8.12 2.569 2.408 2.059 5.198-.302 7.478.329 1.239 1.47-.589 4.149.374 6.672 2.01-.194 1.773-4.262 2.242-5.737 1.472-5.404 10.322-9.173 10.772-14.13 1.866-.876 3.731-.274 6 1-1.13-4.644-4.868-4.594-5.87-6.04-2.385-3.645-4.499-7.802-9.593-8.881-3.867-.819-3.578.246-6.06-1.444-1.54-1.202-6.23-3.474-5.48-1.631z" fill="#f90"/><clipPath id="0"><path d="m0 0h640v480h-640z"/></clipPath></defs><g clip-path="url(#0)"><g transform="matrix(.9375 0 0 .9375 155.92 0)"><path fill="#fff" fill-rule="evenodd" stroke-width="1.25" d="m-165.86.449h429.52v256.07h-429.52z"/><path fill="#c00" d="m-165.86.45l-.018 19.219 102.5 63.22 38.565 1.341-141.05-83.78z"/><path fill="#006" d="m-121.97.45l124.26 77.916v-77.916h-124.26"/><path fill="#c00" d="m18.866.45v99.47h-184.73v56.839h184.73v99.47h56.839v-99.47h184.73v-56.839h-184.73v-99.47h-56.839"/><path fill="#006" d="m92.28.45v73.42l121.57-72.848-121.57-.569"/><path fill="#c00" d="m96.12 81.87l34.19-.33 132.82-80.52-35.24.689-131.77 80.16"/><g fill="#006"><path d="m261.78 22.495l-101.46 60.39 100.11.45v89.995h-85.26l84.47 54.942 1.239 27.948-45.12-.647-123.48-72.77v73.42h-89.995v-73.42l-115.83 73.22-52.31.197v255.78h852.58v-511.55l-424.04-.46m-428.54 28.869l-.45 53.12 89.76 1.35-89.31-54.47z"/><path d="m-165.86 173.33v54.47l85.26-53.902-85.26-.569"/></g><path fill="#c00" d="m162.45 175.58l-35.543-.331 133.97 80.07-.881-18.319-97.55-61.42zm-295.02 81.09l125.62-79.17-32.994.263-125.92 78.79"/></g><g transform="matrix(2.0302 0 0 2.0302-20.748-474.95)"><path fill="#49497d" d="m269 356l1 1-1-1"/><path fill="#0e0e6e" d="m270 356l1 1-1-1"/><path fill="#262678" d="m267 357l1 1-1-1"/><path fill="#808067" d="m268 357l1 1-1-1"/><path fill="#58587b" d="m271 357l1 1-1-1"/><path fill="#0e0e6e" d="m234 358l1 1-1-1"/><path fill="#1b1b74" d="m265 358l1 1-1-1"/><path fill="#6e6c70" d="m266 358l1 1-1-1"/><path fill="#cc3" d="m235.76 359.81c0 25.838-2.978 54.955 16.28 75.19 3.962 4.163 11.499 13.656 17.96 13.292 6.764-.381 15.462-10.39 19.331-15.292 16.764-22.05 14.1-48.36 14.669-73.95-7.57 3.4-11.34 4.52-17.96 4.5-4.903.504-12.467-2.792-16.99-4.947-2.956 1.974-7.244 4.328-14.95 4.592-8.9.392-11.72-1.117-18.34-3.385"/><path fill="#99994e" d="m272 358l1 1-1-1"/><path fill="#49497d" d="m273 358l1 1-1-1"/><path fill="#0e0e6e" d="m304 358l1 1-1-1"/><path fill="#a4a43d" d="m235 359l1 1-1-1"/><path fill="#6e6c70" d="m236 359l1 1-1-1"/><path fill="#3a3a7c" d="m237 359l1 1-1-1"/><path fill="#1b1b74" d="m263 359l1 1-1-1"/><path fill="#6e6c70" d="m264 359l1 1-1-1"/><path fill="#a4a43d" d="m265 359l1 1-1-1"/><path fill="#d0d045" d="m269 359l1 1-1-1"/><path fill="#a4a43d" d="m273 359l1 1-1-1"/><path fill="#8d8d5b" d="m274 359l1 1-1-1"/><path fill="#3a3a7c" d="m275 359l1 1-1-1"/><path fill="#262678" d="m301 359l1 1-1-1"/><path fill="#53527c" d="m302 359l1 1-1-1"/><path fill="#8d8d5b" d="m303 359l1 1-1-1"/><path fill="#737370" d="m239 360l1 1-1-1"/><path fill="#53527c" d="m240 360l1 1-1-1"/><path fill="#1b1b74" d="m241 360l1 1-1-1"/><path fill="#262678" d="m261 360l1 1-1-1"/><path fill="#6e6c70" d="m262 360l1 1-1-1"/><path fill="#a4a43d" d="m263 360l1 1-1-1"/><path fill="#e5e59d" d="m268 360l1 1-1-1"/><path fill="#fff" d="m237.81 362.62c-.538 13.573-.125 28.857 1.997 43.38 2.346 7.587 2.032 11.755 5.518 16.302l48.798-.38c2.94-4.784 5.121-12.04 5.402-14.922 2.725-14.667 2.79-30.853 2.855-45.33-4.907 2.608-11.333 4.457-17.57 3.646-5-.381-9.62-1.522-15-4.563-4.667 2.796-6.294 4.072-14 4.399-6 .296-10.86.782-18-2.532"/><path fill="#f2f1d7" d="m270 360l1 1-1-1"/><path fill="#d9d868" d="m271 360l1 1-1-1"/><path fill="#a4a43d" d="m275 360l1 1-1-1"/><path fill="#99994e" d="m276 360l1 1-1-1"/><path fill="#49497d" d="m277 360l1 1-1-1"/><path fill="#0e0e6e" d="m278 360l1 1-1-1"/><path fill="#3a3a7c" d="m298 360l1 1-1-1"/><path fill="#667" d="m299 360l1 1-1-1"/><path fill="#99994e" d="m300 360l1 1-1-1"/><path fill="#a4a43d" d="m301 360l1 1-1-1m-60 1l1 1-1-1z"/><path fill="#99994e" d="m242 361l1 1-1-1"/><path fill="#6e6c70" d="m243 361l1 1-1-1"/><path fill="#49497d" d="m244 361l1 1-1-1"/><path fill="#1b1b74" d="m245 361l1 1-1-1m13 0l1 1-1-1z"/><path fill="#53527c" d="m259 361l1 1-1-1"/><path fill="#8d8d5b" d="m260 361l1 1-1-1"/><path fill="#a4a43d" d="m261 361l1 1-1-1"/><path fill="#e5e59d" d="m266 361l1 1-1-1"/><path fill="#fbfaf2" d="m267 361l1 1-1-1"/><path fill="#f2f1d2" d="m272 361l1 1-1-1"/><path fill="#d9d868" d="m273 361l1 1-1-1"/><path fill="#a4a43d" d="m278 361l1 1-1-1"/><path fill="#6e6c70" d="m279 361l1 1-1-1"/><path fill="#3a3a7c" d="m280 361l1 1-1-1"/><path fill="#0e0e6e" d="m293 361l1 1-1-1"/><path fill="#32327b" d="m294 361l1 1-1-1"/><path fill="#58587b" d="m295 361l1 1-1-1"/><path fill="#808067" d="m296 361l1 1-1-1"/><path fill="#a4a43d" d="m297.67 361.33l.666.333-.666-.333"/><path fill="#dddc7a" d="m237 362l1 1-1-1"/><path fill="#d0d045" d="m238 362l1 1-1-1"/><path fill="#a4a43d" d="m245.67 362.33l.666.333-.666-.333"/><path fill="#808067" d="m247 362l1 1-1-1"/><path fill="#667" d="m248 362l1 1-1-1"/><path fill="#58587b" d="m249 362l1 1-1-1"/><path fill="#49497d" d="m250 362l1 1-1-1"/><path fill="#737370" d="m256 362l1 1-1-1"/><path fill="#99994e" d="m257 362l1 1-1-1"/><path fill="#a4a43d" d="m258 362l1 1-1-1"/><path fill="#e5e59d" d="m264 362l1 1-1-1"/><path fill="#fbfaf2" d="m265 362l1 1-1-1"/><path fill="#f2f1d2" d="m274 362l1 1-1-1"/><path fill="#d9d868" d="m275 362l1 1-1-1"/><path fill="#a4a43d" d="m280.67 362.33l.666.333-.666-.333"/><path fill="#808067" d="m282 362l1 1-1-1"/><path fill="#667" d="m283 362l1 1-1-1"/><path fill="#58587b" d="m284 362l1 1-1-1"/><path fill="#3a3a7c" d="m285 362l1 1-1-1"/><path fill="#58587b" d="m289.67 362.33l.666.333-.666-.333"/><path fill="#737370" d="m291 362l1 1-1-1"/><path fill="#99994e" d="m292 362l1 1-1-1"/><path fill="#a4a43d" d="m293 362l1 1-1-1"/><path fill="#dddc7a" d="m301 362l1 1-1-1"/><path fill="#d0d045" d="m302 362l1 1-1-1"/><path fill="#f2f1d7" d="m239 363l1 1-1-1"/><path fill="#e0dea1" d="m240 363l1 1-1-1"/><path fill="#dddc7a" d="m241 363l1 1-1-1"/><path fill="#d9d868" d="m261 363l1 1-1-1"/><path fill="#e5e3af" d="m262 363l1 1-1-1"/><path fill="#f6f6e4" d="m276 363l1 1-1-1"/><path fill="#e1e18c" d="m277 363l1 1-1-1"/><path fill="#d4d456" d="m297 363l1 1-1-1"/><path fill="#e1e18c" d="m298 363l1 1-1-1"/><path fill="#eeedc1" d="m299 363l1 1-1-1"/><path fill="#f2f1d2" d="m243 364l1 1-1-1"/><path fill="#e0dea1" d="m244 364l1 1-1-1"/><path fill="#dddc7a" d="m245 364l1 1-1-1"/><path fill="#d0d045" d="m246 364l1 1-1-1"/><path fill="#dddc7a" d="m258 364l1 1-1-1"/><path fill="#e5e3af" d="m259 364l1 1-1-1"/><path fill="#f6f6e4" d="m260 364l1 1-1-1"/><path fill="#eeedc1" d="m279 364l1 1-1-1"/><path fill="#e1e18c" d="m280 364l1 1-1-1"/><path fill="#d4d456" d="m281 364l1 1-1-1"/><path fill="#d9d868" d="m293 364l1 1-1-1"/><path fill="#e1e18c" d="m294 364l1 1-1-1"/><path fill="#eeedc1" d="m295 364l1 1-1-1"/><path fill="#f6f6e4" d="m296 364l1 1-1-1"/><path fill="#f2f1d7" d="m248 365l1 1-1-1"/><path fill="#f2f1d2" d="m249 365l1 1-1-1"/><path fill="#eeedc1" d="m250 365l1 1-1-1"/><path fill="#f2f1d2" d="m254.67 365.33l.666.333-.666-.333"/><path fill="#fbfaf2" d="m256 365l1 1-1-1"/><path fill="#fef8f1" d="m261 365l2 2v-2h-2"/><path fill="#f2f1d7" d="m283 365l1 1-1-1"/><path fill="#f2f1d2" d="m284 365l1 1-1-1"/><path fill="#e5e3af" d="m285 365l1 1-1-1"/><path fill="#e5e59d" d="m286.67 365.33l.666.333-.666-.333"/><path fill="#e0dea1" d="m288 365l1 1-1-1"/><path fill="#f2f1d2" d="m289.67 365.33l.666.333-.666-.333"/><path fill="#fbfaf2" d="m291 365l1 1-1-1"/><path fill="#fef8f1" d="m259 366l1 1-1-1"/><path fill="#fbbe66" d="m260 366l1 1-1-1"/><path fill="#fbc477" d="m259 367l1 1-1-1"/><path fill="#fcb144" d="m261 367l1 1-1-1"/><path fill="#fe9f11" d="m259 368l1 1-1-1"/><path fill="#fea522" d="m261 368l1 1-1-1"/><path fill="#fae3c9" d="m258 369l1 1-1-1m4 0l1 1-1-1z"/><path fill="#fbead6" d="m267 369l1 1-1-1"/><path fill="#f9d6aa" d="m268 369l1 1-1-1"/><path fill="#fae3c9" d="m272 369l1 1-1-1"/><path fill="#fef8f1" d="m273 369l1 1-1-1"/><path fill="#f9d099" d="m258 370l1 1-1-1"/><path fill="#fdab33" d="m262 370l1 1-1-1"/><path fill="#fcf1e4" d="m264 370l1 1-1-1"/><path fill="#fbc477" d="m265 370l1 1-1-1"/><path fill="#fea522" d="m266 370l1 1-1-1"/><path fill="#fcb755" d="m274 370l1 1-1-1"/><path fill="#f9d6aa" d="m275 370l1 1-1-1"/><path fill="#faca88" d="m258 371l1 1-1-1"/><path fill="#fea522" d="m263 371l1 1-1-1m13 0l1 1-1-1z"/><path fill="#f8dcbb" d="m277 371l1 1-1-1"/><path fill="#f6f6e4" d="m237 372l1 1-1-1"/><path fill="#fbc477" d="m258 372l1 1-1-1"/><path fill="#fbbe66" d="m278 372l1 1-1-1"/><path fill="#f8dcbb" d="m279 372l1 1-1-1"/><path fill="#faca88" d="m258 373l1 1-1-1"/><path fill="#fcb755" d="m281 373l1 1-1-1"/><path fill="#f8dcbb" d="m282 373l1 1-1-1"/><path fill="#fef8f1" d="m257 374l1 1-1-1"/><path fill="#fe9f11" d="m258 374l1 1-1-1"/><path fill="#fdab33" d="m286 374l1 1-1-1"/><path fill="#fcb144" d="m287 374l1 1-1-1"/><path fill="#fbc477" d="m288 374l1 1-1-1"/><path fill="#f9d6aa" d="m289 374l2 2-2-2"/><path fill="#fef8f1" d="m290 374l1 1-1-1"/><path fill="#fcb144" d="m257 375l1 1-1-1"/><path fill="#fdab33" d="m271 375l1 1-1-1"/><g fill="#fbc477"><path d="m272 375l1 1-1-1"/><path d="m276 375l1 1-1-1"/></g><path fill="#fea522" d="m277 375l1 1-1-1"/><path fill="#fae3c9" d="m256 376l1 1-1-1"/><path fill="#fcb144" d="m269 376l1 1-1-1"/><path fill="#fae3c9" d="m270 376l1 1-1-1"/><path fill="#f8dcbb" d="m278 376l1 1-1-1"/><path fill="#fdab33" d="m279 376l1 1-1-1"/><path fill="#fe9f11" d="m285 376l1 1-1-1"/><path fill="#fcb755" d="m286 376l1 1-1-1"/><path fill="#f9d099" d="m287 376l1 1-1-1"/><path fill="#fbead6" d="m288 376l1 1-1-1"/><path fill="#fcb144" d="m256 377l1 1-1-1"/><path fill="#fbbe66" d="m268 377l1 1-1-1"/><path fill="#f9d099" d="m280 377l1 1-1-1"/><path fill="#fbead6" d="m284 377l1 1-1-1"/><path fill="#fcf1e4" d="m255 378l1 1-1-1"/><path fill="#fbbe66" d="m267 378l1 1-1-1"/><path fill="#f9d099" d="m281 378l1 1-1-1"/><path fill="#fae3c9" d="m284 378l1 1-1-1"/><path fill="#fbc477" d="m255 379l1 1-1-1"/><path fill="#fcb144" d="m266 379l1 1-1-1m16 0l1 1-1-1z"/><path fill="#fbbe66" d="m284 379l1 1-1-1"/><path fill="#f6f6e4" d="m237 380l1 1-1-1"/><path fill="#fea522" d="m255 380l1 1-1-1"/><path fill="#fbead6" d="m266 380l1 1-1-1"/><path fill="#fcf1e4" d="m282 380l1 1-1-1"/><path fill="#fef8f1" d="m285 380l1 1-1-1"/><path fill="#fcf1e4" d="m254 381l1 1-1-1"/><path fill="#fbbe66" d="m265 381l1 1-1-1"/><path fill="#faca88" d="m283 381l1 1-1-1"/><path fill="#f9d099" d="m285 381l1 1-1-1"/><path fill="#f9d6aa" d="m254 382l1 1-1-1"/><path fill="#fcf1e4" d="m265 382l1 1-1-1"/><path fill="#fae3c9" d="m270 382l1 1-1-1"/><path fill="#fea522" d="m271 382l1 1-1-1"/><path fill="#fcb144" d="m272 382l1 1-1-1"/><path fill="#f9d6aa" d="m273 382l1 1-1-1"/><path fill="#fef8f1" d="m283 382l1 1-1-1"/><path fill="#fea522" d="m284 382l1 1-1-1"/><path fill="#fdab33" d="m285 382l1 1-1-1"/><path fill="#faca88" d="m254 383l-1 3 1-3"/><path fill="#fea522" d="m264 383l1 1-1-1"/><path fill="#fef8f1" d="m265 383l1 1-1-1"/><path fill="#f9d099" d="m270 383l1 1-1-1"/><path fill="#fdab33" d="m274 383l1 1-1-1"/><path fill="#fae3c9" d="m275 383l1 1-1-1"/><path fill="#f8dcbb" d="m284 383l1 1-1-1"/><path fill="#f90" d="m285 383l1 1-1-1"/><path fill="#fbead6" d="m286.33 383.67l.334.667-.334-.667"/><path fill="#fea522" d="m266 384l1 1-1-1"/><path fill="#fbbe66" d="m267 384l1 1-1-1"/><path fill="#faca88" d="m268 384l1 1-1-1"/><path fill="#fcb144" d="m269 384l1 1-1-1"/><path fill="#fae3c9" d="m270 384l1 1-1-1"/><path fill="#fe9f11" d="m271 384l1 1-1-1"/><path fill="#fdab33" d="m276 384l1 1-1-1"/><path fill="#fbc477" d="m277 384l1 1-1-1"/><path fill="#faca88" d="m278 384l1 1-1-1"/><path fill="#f9d6aa" d="m279 384l1 1-1-1"/><path fill="#fae3c9" d="m280.67 384.33l.666.333-.666-.333"/><path fill="#fef8f1" d="m282 384l1 1-1-1"/><path fill="#fbc477" d="m285 384l1 1-1-1"/><path fill="#fef8f1" d="m242 385l1 1-1-1"/><path fill="#fcf1e4" d="m243 385l1 1-1-1"/><path fill="#fcb755" d="m269 385l1 1-1-1"/><path fill="#fbead6" d="m271 385l1 1-1-1"/><path fill="#fea522" d="m272 385l1 1-1-1"/><path fill="#fe9f11" d="m280 385l1 1-1-1"/><path fill="#fcb144" d="m281 385l-1 2 1-2"/><path fill="#fe9f11" d="m283 385l1 1-1-1"/><path fill="#fbbe66" d="m284 385l1 1-1-1"/><path fill="#fcf1e4" d="m285 385l1 1-1-1"/><path fill="#fae3c9" d="m242 386l1 1-1-1"/><path fill="#fe9f11" d="m243 386l2 2-2-2"/><g fill="#fbead6"><path d="m244 386l1 1-1-1"/><path d="m253 386l1 1-1-1"/></g><path fill="#fae3c9" d="m254 386l1 1-1-1"/><path fill="#fe9f11" d="m263 386l1 1-1-1"/><path fill="#fbc477" d="m264 386l1 1-1-1"/><path fill="#fea522" d="m265 386l1 1-1-1"/><path fill="#fbc477" d="m268 386l1 1-1-1"/><path fill="#fef8f1" d="m269 386l1 1-1-1"/><path fill="#fbc477" d="m273 386l1 1-1-1"/><path fill="#fff" d="m281 386l1 1-1-1"/><path fill="#fdab33" d="m282 386l1 1-1-1"/><path fill="#fbc477" d="m286 386l1 1-1-1"/><path fill="#fef8f1" d="m242 387l1 1-1-1"/><path fill="#fbead6" d="m245 387l1 1-1-1"/><path fill="#f9d6aa" d="m250 387l1 1-1-1"/><path fill="#fe9f11" d="m255 387l1 1-1-1"/><path fill="#f9d6aa" d="m256.67 387.33l.666.333-.666-.333"/><path fill="#f8dcbb" d="m263 387l1 1-1-1"/><path fill="#fcf1e4" d="m266 387l1 1-1-1"/><path fill="#f9d6aa" d="m274 387l1 1-1-1"/><path fill="#fdab33" d="m281 387l1 1-1-1"/><path fill="#fcb755" d="m287 387l1 1-1-1"/><path fill="#fef8f1" d="m288 387l1 1-1-1"/><path fill="#53527c" d="m234 388l1 1-1-1"/><path fill="#fcb755" d="m243 388l1 1-1-1"/><path fill="#fea522" d="m245 388l1 1-1-1"/><path fill="#fbead6" d="m249 388l1 1-1-1"/><path fill="#fe9f11" d="m251 388l1 1-1-1"/><path fill="#fcf1e4" d="m252 388l1 1-1-1"/><path fill="#fbbe66" d="m255 388l1 1-1-1"/><path fill="#fbc477" d="m256 388l1 1-1-1"/><path fill="#fbbe66" d="m257 388l1 1-1-1"/><path fill="#fea522" d="m262 388l1 1-1-1"/><path fill="#f9d6aa" d="m275 388l1 1-1-1"/><path fill="#fcb144" d="m288 388l1 1-1-1"/><path fill="#8d8d5b" d="m304 388l1 1-1-1"/><path fill="#e5e3af" d="m237 389l1 1-1-1"/><path fill="#f8dcbb" d="m243 389l1 1-1-1"/><path fill="#fdab33" d="m246 389l1 1-1-1"/><path fill="#fe9f11" d="m249 389l1 1-1-1"/><path fill="#faca88" d="m251 389l1 1-1-1"/><path fill="#fcf1e4" d="m255 389l1 1-1-1"/><path fill="#f9d099" d="m262 389l1 1-1-1m14 0l1 1-1-1z"/><path fill="#fbbe66" d="m289 389l1 1-1-1"/><path fill="#fea522" d="m244 390l1 1-1-1"/><path fill="#fdab33" d="m247 390l1 1-1-1"/><path fill="#fea522" d="m248 390l1 1-1-1"/><path fill="#fe9f11" d="m250 390l1 1-1-1"/><path fill="#fef8f1" d="m251 390l1 1-1-1"/><path fill="#fbbe66" d="m256 390l1 1-1-1"/><path fill="#fef8f1" d="m262 390l1 1-1-1"/><path fill="#fbbe66" d="m277 390l1 1-1-1"/><path fill="#f9d099" d="m290 390l1 1-1-1"/><path fill="#f9d6aa" d="m244 391l1 1-1-1"/><path fill="#f9d099" d="m250 391l1 1-1-1"/><path fill="#fcf1e4" d="m256 391l1 1-1-1"/><path fill="#fdab33" d="m261 391l1 1-1-1m17 0l1 1-1-1z"/><path fill="#fbead6" d="m291 391l1 1-1-1"/><path fill="#fea522" d="m245 392l1 1-1-1"/><path fill="#fe9f11" d="m249 392l1 1-1-1"/><path fill="#fcb144" d="m257 392l1 1-1-1"/><path fill="#faca88" d="m261 392l1 1-1-1"/><path fill="#f8dcbb" d="m278 392l1 1-1-1"/><path fill="#fcb144" d="m291 392l1 1-1-1"/><path fill="#d3d079" d="m237 393l1 1-1-1"/><g fill="#faca88"><path d="m245 393l1 1-1-1"/><path d="m257 393l1 1-1-1"/></g><path fill="#fae3c9" d="m261 393l1 1-1-1m17 0l1 1-1-1z"/><path fill="#f8dcbb" d="m292 393l1 1-1-1"/><path fill="#f2f1d7" d="m301 393l1 1-1-1"/><path fill="#58587b" d="m304.33 393.67l.334.667-.334-.667"/><path fill="#d9d868" d="m237.33 394.67l.334.667-.334-.667"/><path fill="#f8dcbb" d="m245 394l1 1-1-1"/><path fill="#f9d6aa" d="m277 394l1 1-1-1"/><path fill="#fe9f11" d="m278 394l1 1-1-1"/><path fill="#fcb144" d="m292 394l1 1-1-1"/><path fill="#f2f1d2" d="m301.33 394.67l.334.667-.334-.667"/><path fill="#fcf1e4" d="m245 395l1 1-1-1"/><path fill="#fef8f1" d="m276 395l1 1-1-1"/><path fill="#fe9f11" d="m277 395l1 1-1-1"/><path fill="#fdab33" d="m280 395l-1 2 1-2"/><path fill="#fcb755" d="m281 395l1 1-1-1"/><path fill="#fea522" d="m293 395l1 1-1-1"/><path fill="#f9d099" d="m294 395l1 1-1-1"/><path fill="#53527c" d="m304 395l1 1-1-1"/><path fill="#808067" d="m235.33 396.67l.334.666-.334-.666"/><path fill="#fea522" d="m246 396l1 1-1-1m3 0l1 1-1-1z"/><path fill="#fe9f11" d="m260 396l1 1-1-1"/><path fill="#fae3c9" d="m276 396l1 1-1-1"/><path fill="#fef8f1" d="m280 396l1 1-1-1"/><path fill="#fcb144" d="m282 396l1 1-1-1"/><path fill="#fcb755" d="m295 396l1 1-1-1"/><path fill="#fef8f1" d="m296 396l2 2-2-2"/><path fill="#e5e59d" d="m301.33 396.67l.334.666-.334-.666"/><path fill="#32327b" d="m304.33 396.67l.334.666-.334-.666"/><path fill="#fcb755" d="m246.33 397.67l.334.666-.334-.666"/><path fill="#fef8f1" d="m250 397l1 1-1-1"/><path fill="#fbbe66" d="m260 397l1 1-1-1"/><path fill="#fbead6" d="m276 397l1 1-1-1"/><path fill="#fe9f11" d="m278 397l1 1-1-1"/><path fill="#fcf1e4" d="m279 397l1 1-1-1"/><path fill="#fbead6" d="m282 397l1 1-1-1"/><path fill="#fdab33" d="m296 397l1 1-1-1"/><path fill="#667" d="m235 398l1 1-1-1"/><path fill="#f6f6e4" d="m238 398l1 1-1-1"/><path fill="#f9d6aa" d="m250 398l1 1-1-1"/><path fill="#fdab33" d="m258 398l1 1-1-1"/><path fill="#fe9f11" d="m259 398l1 1-1-1"/><path fill="#fcf1e4" d="m260 398l1 1-1-1"/><path fill="#fea522" d="m277 398l1 1-1-1"/><path fill="#faca88" d="m278 398l1 1-1-1m5 0l1 1-1-1z"/><path fill="#fcb144" d="m297 398l1 1-1-1"/><path fill="#dddc7a" d="m301 398l1 1-1-1"/><path fill="#58587b" d="m235 399l1 1-1-1"/><path fill="#f2f1d2" d="m238 399l1 1-1-1"/><path fill="#fcb144" d="m246.33 399.67l.334.666-.334-.666"/><path fill="#fea522" d="m250 399l1 1-1-1"/><path fill="#fef8f1" d="m260 399l1 1-1-1"/><path fill="#fea522" d="m261 399l1 1-1-1"/><path fill="#fcb144" d="m263 399l1 1-1-1"/><path fill="#fbead6" d="m264 399l1 1-1-1"/><path fill="#f8dcbb" d="m277 399l1 1-1-1"/><path fill="#fcf1e4" d="m278 399l1 1-1-1"/><path fill="#fef8f1" d="m283 399l1 1-1-1"/><path fill="#fe9f11" d="m284 399l1 1-1-1"/><path fill="#fbead6" d="m298 399l1 1-1-1"/><path fill="#d9d868" d="m301 399l1 1-1-1"/><path fill="#3a3a7c" d="m235 400l1 1-1-1"/><path fill="#e5e3af" d="m238 400l1 1-1-1"/><path fill="#faca88" d="m251 400l1 1-1-1"/><path fill="#fbead6" d="m261 400l1 1-1-1"/><path fill="#fe9f11" d="m264 400l1 1-1-1"/><path fill="#fcf1e4" d="m265 400l1 1-1-1"/><path fill="#fbead6" d="m276 400l1 1-1-1"/><path fill="#fae3c9" d="m277 400l1 1-1-1"/><path fill="#fbead6" d="m278 400l1 1-1-1"/><path fill="#fbbe66" d="m284 400l1 1-1-1m8 0l1 1-1-1z"/><path fill="#fcf1e4" d="m293 400l1 1-1-1"/><path fill="#fef8f1" d="m294 400l1 1-1-1"/><path fill="#f8dcbb" d="m295 400l1 1-1-1"/><path fill="#fcb755" d="m296 400l1 1-1-1"/><path fill="#fae3c9" d="m298 400l1 1-1-1"/><path fill="#808067" d="m303 400l1 1-1-1"/><path fill="#32327b" d="m235 401l1 1-1-1"/><path fill="#a4a43d" d="m236.33 401.67l.334.666-.334-.666"/><path fill="#e5e59d" d="m238 401l1 1-1-1"/><path fill="#fbc477" d="m246 401l1 1-1-1"/><path fill="#f9d6aa" d="m252 401l1 1-1-1"/><path fill="#fbbe66" d="m262 401l1 1-1-1"/><path fill="#f9d099" d="m265 401l1 1-1-1"/><path fill="#fae3c9" d="m274 401l1 1-1-1"/><path fill="#fcb144" d="m275 401l1 1-1-1"/><path fill="#fae3c9" d="m279 401l1 1-1-1"/><path fill="#f8dcbb" d="m284 401l1 1-1-1"/><path fill="#f9d099" d="m292 401l1 1-1-1"/><path fill="#fbc477" d="m297 401l1 1-1-1"/><path fill="#fbead6" d="m298 401l1 1-1-1"/><path fill="#737370" d="m303 401l1 1-1-1"/><path fill="#d9d868" d="m238 402l1 1-1-1"/><path fill="#f9d099" d="m246 402l1 1-1-1"/><path fill="#f9d6aa" d="m253 402l1 1-1-1m9 0l1 1-1-1z"/><path fill="#fbc477" d="m265 402l1 1-1-1"/><path fill="#fef8f1" d="m270 402l1 1-1-1"/><path fill="#f8dcbb" d="m271 402l1 1-1-1"/><path fill="#fbc477" d="m272 402l1 1-1-1"/><path fill="#fea522" d="m273 402l1 1-1-1"/><path fill="#fbead6" d="m279 402l1 1-1-1"/><path fill="#f2f1d2" d="m300 402l1 1-1-1"/><path fill="#58587b" d="m303 402l1 1-1-1"/><path fill="#99994e" d="m236 403l1 1-1-1"/><path fill="#d0d045" d="m238 403l1 1-1-1"/><path fill="#fcb144" d="m254 403l1 1-1-1"/><path fill="#fae3c9" d="m255 403l1 1-1-1"/><path fill="#fef8f1" d="m262 403l1 1-1-1"/><path fill="#fcb755" d="m266 403l1 1-1-1"/><path fill="#fbc477" d="m267 403l1 1-1-1"/><path fill="#fcb144" d="m268 403l1 1-1-1"/><path fill="#fea522" d="m269 403l1 1-1-1"/><path fill="#fe9f11" d="m277 403l1 1-1-1"/><path fill="#f9d6aa" d="m278 403l1 1-1-1"/><path fill="#fef8f1" d="m292 403l1 1-1-1"/><path fill="#e0dea1" d="m300 403l1 1-1-1"/><path fill="#3a3a7c" d="m303 403l1 1-1-1"/><path fill="#737370" d="m236 404l1 1-1-1"/><path fill="#fbfaf2" d="m239 404l1 1-1-1"/><path fill="#fea522" d="m247 404l1 1-1-1"/><path fill="#fe9f11" d="m256 404l1 1-1-1"/><path fill="#fcb144" d="m257 404l1 1-1-1"/><path fill="#fbc477" d="m258 404l1 1-1-1"/><path fill="#faca88" d="m259 404l1 1-1-1"/><path fill="#fbc477" d="m260 404l1 1-1-1"/><path fill="#fcb144" d="m261 404l1 1-1-1"/><path fill="#fdab33" d="m262 404l1 1-1-1"/><path fill="#fbc477" d="m276 404l1 1-1-1"/><path fill="#fef8f1" d="m277 404l1 1-1-1"/><path fill="#fdab33" d="m291 404l1 1-1-1"/><path fill="#e1e18c" d="m300 404l1 1-1-1"/><path fill="#a4a43d" d="m302.33 404.67l.334.666-.334-.666"/><path fill="#262678" d="m303 404l1 1-1-1"/><path fill="#58587b" d="m236 405l1 1-1-1"/><path fill="#f2f1d2" d="m239 405l1 1-1-1"/><path fill="#faca88" d="m247 405l1 1-1-1"/><path fill="#fe9f11" d="m274 405l1 1-1-1"/><path fill="#fbead6" d="m275 405l1 1-1-1"/><path fill="#fbc477" d="m284 405l1 1-1-1"/><path fill="#faca88" d="m291 405l1 1-1-1"/><path fill="#d4d456" d="m300 405l1 1-1-1"/><path fill="#32327b" d="m236 406l1 1-1-1"/><path fill="#e5e59d" d="m239 406l1 1-1-1"/><path fill="#fef8f1" d="m247 406l1 1-1-1"/><path fill="#fe9f11" d="m248 406l1 1-1-1"/><path fill="#fbead6" d="m274 406l1 1-1-1"/><path fill="#fea522" d="m284 406l1 1-1-1"/><path fill="#fcf1e4" d="m291 406l1 1-1-1"/><path fill="#808067" d="m302 406l1 1-1-1"/><path fill="#0e0e6e" d="m236 407l1 1-1-1"/><path fill="#a4a43d" d="m237 407l1 1-1-1"/><path fill="#d9d868" d="m239 407l1 1-1-1"/><path fill="#f8dcbb" d="m248 407l1 1-1-1"/><path fill="#f9d6aa" d="m283 407l1 1-1-1"/><path fill="#faca88" d="m290 407l1 1-1-1"/><path fill="#f2f1d2" d="m299 407l1 1-1-1"/><path fill="#58587b" d="m302 407l1 1-1-1"/><path fill="#8d8d5b" d="m237 408l1 1-1-1"/><path fill="#f9d6aa" d="m249 408l1 1-1-1"/><path fill="#fdab33" d="m269 408l1 1-1-1"/><path fill="#fff" d="m270 408l1 1-1-1"/><path fill="#fcb144" d="m271.67 408.33l.666.334-.666-.334"/><path fill="#fef8f1" d="m282 408l-1 2 1-2"/><path fill="#fe9f11" d="m283 408l1 1-1-1"/><path fill="#fdab33" d="m289 408l-1 2 1-2"/><path fill="#e5e59d" d="m299 408l1 1-1-1"/><path fill="#3a3a7c" d="m302 408l1 1-1-1"/><path fill="#667" d="m237 409l1 1-1-1"/><path fill="#f2f1d2" d="m240 409l1 1-1-1"/><path fill="#f9d6aa" d="m250 409l1 1-1-1"/><path fill="#fe9f11" d="m269 409l1 1-1-1"/><path fill="#faca88" d="m270 409l1 1-1-1"/><path fill="#fea522" d="m271 409l1 1-1-1"/><path fill="#fcf1e4" d="m272 409l1 1-1-1"/><path fill="#fdab33" d="m282 409l1 1-1-1"/><path fill="#fef8f1" d="m289 409l1 1-1-1"/><path fill="#d9d868" d="m299 409l1 1-1-1"/><path fill="#a4a43d" d="m301 409l1 1-1-1"/><path fill="#0e0e6e" d="m302 409l1 1-1-1"/><path fill="#3a3a7c" d="m237 410l1 1-1-1"/><path fill="#e5e59d" d="m240 410l1 1-1-1"/><path fill="#fae3c9" d="m251 410l2 2-2-2"/><path fill="#fe9f11" d="m252 410l1 1-1-1"/><path fill="#f8dcbb" d="m271 410l1 1-1-1"/><path fill="#fcf1e4" d="m280 410l1 1-1-1"/><path fill="#fdab33" d="m281 410l1 1-1-1"/><path fill="#fcb144" d="m287 410l1 1-1-1"/><path fill="#fef8f1" d="m288 410l1 1-1-1"/><path fill="#fbfaf2" d="m298 410l1 1-1-1"/><path fill="#8d8d5b" d="m301 410l1 1-1-1"/><path fill="#0e0e6e" d="m237 411l1 1-1-1"/><path fill="#a4a43d" d="m238 411l1 1-1-1"/><path fill="#d4d456" d="m240 411l1 1-1-1"/><path fill="#f9d6aa" d="m270 411l1 1-1-1"/><path fill="#f9d099" d="m279 411l1 1-1-1"/><path fill="#fe9f11" d="m280 411l1 1-1-1"/><path fill="#faca88" d="m286 411l1 1-1-1"/><path fill="#eeedc1" d="m298 411l1 1-1-1"/><path fill="#58587b" d="m301 411l1 1-1-1"/><path fill="#737370" d="m238 412l1 1-1-1"/><path fill="#f6f6e4" d="m241 412l1 1-1-1"/><path fill="#fbbe66" d="m252 412l1 1-1-1"/><path fill="#fcb144" d="m268 412l1 1-1-1"/><path fill="#f8dcbb" d="m269.33 412.67l.334.666-.334-.666"/><path fill="#fbbe66" d="m277 412l1 1-1-1"/><path fill="#fe9f11" d="m278 412l1 1-1-1"/><path fill="#fbc477" d="m284 412l1 1-1-1"/><path fill="#fcf1e4" d="m285 412l1 1-1-1"/><path fill="#d3d079" d="m298 412l1 1-1-1"/><path fill="#a4a43d" d="m300 412l1 1-1-1"/><path fill="#262678" d="m301 412l1 1-1-1"/><path fill="#49497d" d="m238 413l1 1-1-1"/><path fill="#e0dea1" d="m241 413l1 1-1-1"/><path fill="#fae3c9" d="m251 413l1 1-1-1"/><path fill="#fdab33" d="m265 413l1 1-1-1"/><path fill="#fbc477" d="m266 413l1 1-1-1"/><path fill="#fbead6" d="m267 413l1 1-1-1"/><path fill="#fcb144" d="m270 413l1 1-1-1"/><path fill="#f9d6aa" d="m283 413l1 1-1-1"/><path fill="#99994e" d="m300 413l1 1-1-1"/><path fill="#0e0e6e" d="m238 414l1 1-1-1"/><path fill="#a4a43d" d="m239 414l1 1-1-1"/><path fill="#d4d456" d="m241 414l1 1-1-1"/><path fill="#f9d099" d="m250 414l1 1-1-1"/><path fill="#fe9f11" d="m251 414l1 1-1-1m5 0l1 1-1-1z"/><path fill="#f9d6aa" d="m257 414l1 1-1-1"/><path fill="#f9d099" d="m258 414l1 1-1-1"/><path fill="#f9d6aa" d="m262 414l1 1-1-1"/><path fill="#fae3c9" d="m263 414l1 1-1-1"/><path fill="#fef8f1" d="m264 414l1 1-1-1"/><path fill="#fbead6" d="m272 414l1 1-1-1"/><path fill="#fae3c9" d="m273 414l1 1-1-1"/><path fill="#faca88" d="m274 414l1 1-1-1"/><path fill="#fbc477" d="m275 414l1 1-1-1"/><path fill="#fdab33" d="m276 414l1 1-1-1"/><path fill="#fe9f11" d="m281 414l1 1-1-1"/><path fill="#f9d6aa" d="m282 414l1 1-1-1"/><path fill="#e5e3af" d="m297 414l1 1-1-1"/><path fill="#667" d="m300 414l1 1-1-1"/><path fill="#737370" d="m239 415l1 1-1-1"/><path fill="#f2f1d7" d="m242 415l1 1-1-1"/><path fill="#fea522" d="m249 415l1 1-1-1"/><path fill="#fe9f11" d="m254 415l1 1-1-1"/><path fill="#fbbe66" d="m255 415l1 1-1-1"/><path fill="#fcf1e4" d="m256 415l1 1-1-1"/><path fill="#fea522" d="m280 415l1 1-1-1"/><path fill="#fbead6" d="m281 415l1 1-1-1"/><path fill="#dddc7a" d="m297 415l1 1-1-1"/><path fill="#a4a43d" d="m299 415l1 1-1-1"/><path fill="#262678" d="m300 415l1 1-1-1"/><path fill="#49497d" d="m239 416l1 1-1-1"/><path fill="#a4a43d" d="m240.33 416.67l.334.666-.334-.666"/><path fill="#d3d079" d="m242 416l1 1-1-1"/><path fill="#f9d099" d="m250 416l1 1-1-1"/><path fill="#fcb144" d="m251 416l1 1-1-1"/><path fill="#faca88" d="m252 416l1 1-1-1"/><path fill="#f8dcbb" d="m253 416l1 1-1-1"/><path fill="#fef8f1" d="m254 416l1 1-1-1"/><path fill="#f8dcbb" d="m276 416l1 1-1-1"/><path fill="#fcf1e4" d="m280 416l1 1-1-1"/><path fill="#f6f6e4" d="m296 416l1 1-1-1"/><path fill="#8d8d5b" d="m299 416l1 1-1-1"/><path fill="#fbfaf2" d="m243 417l1 1-1-1"/><path fill="#fbbe66" d="m276 417l1 1-1-1"/><path fill="#faca88" d="m279 417l1 1-1-1"/><path fill="#e1e18c" d="m296 417l1 1-1-1"/><path fill="#49497d" d="m299 417l1 1-1-1"/><path fill="#58587b" d="m240 418l1 1-1-1"/><path fill="#e5e59d" d="m243 418l1 1-1-1"/><path fill="#fe9f11" d="m276 418l1 1-1-1"/><path fill="#fdab33" d="m278 418l1 1-1-1"/><path fill="#fbfaf2" d="m295 418l1 1-1-1"/><path fill="#a4a43d" d="m298 418l1 1-1-1"/><path fill="#0e0e6e" d="m299 418l1 1-1-1"/><path fill="#1b1b74" d="m240 419l1 1-1-1"/><path fill="#a4a43d" d="m241 419l1 1-1-1"/><path fill="#d0d045" d="m243 419l1 1-1-1"/><path fill="#fbead6" d="m275 419l1 1-1-1"/><path fill="#fe9f11" d="m277 419l1 1-1-1"/><path fill="#fbead6" d="m278 419l1 1-1-1"/><path fill="#e5e59d" d="m295 419l1 1-1-1"/><path fill="#667" d="m298 419l1 1-1-1"/><path fill="#6e6c70" d="m241 420l1 1-1-1"/><path fill="#e5e3af" d="m244 420l1 1-1-1"/><path fill="#faca88" d="m275.33 420.67l.334.666-.334-.666"/><path fill="#fae3c9" d="m277 420l1 1-1-1"/><path fill="#fbfaf2" d="m294 420l1 1-1-1"/><path fill="#a4a43d" d="m297 420l1 1-1-1"/><path fill="#1b1b74" d="m298 420l1 1-1-1m-57 1l1 1-1-1z"/><path fill="#a4a43d" d="m242 421l1 1-1-1"/><path fill="#d0d045" d="m244 421l1 1-1-1"/><path fill="#fbfaf2" d="m245 421l1 1-1-1"/><path fill="#f9d6aa" d="m276 421l1 1-1-1"/><path fill="#e5e59d" d="m294 421l1 1-1-1"/><path fill="#6e6c70" d="m297 421l1 1-1-1m-55 1l1 1-1-1z"/><path fill="#8cbf84" d="m245 422l1 1-1-1"/><path fill="#0cf" d="m245.43 422c3.473 7.309 15.757 24.553 25.14 24.22 9.113-.326 19.404-17.15 23.43-24.22h-48.57"/><path fill="#a4a43d" d="m296 422l1 1-1-1"/><path fill="#1b1b74" d="m297 422l1 1-1-1m-55 1l1 1-1-1z"/><path fill="#a4a43d" d="m243 423l1 1-1-1"/><path fill="#adb333" d="m245 423l1 1-1-1"/><path fill="#1ac5b5" d="m246 423l1 1-1-1"/><path fill="#68b070" d="m293 423l1 1-1-1"/><path fill="#667" d="m296 423l1 1-1-1"/><path fill="#58587b" d="m243 424l1 1-1-1"/><path fill="#7fb15c" d="m246 424l1 1-1-1"/><path fill="#27c2aa" d="m292 424l1 1-1-1"/><path fill="#a4a43d" d="m295 424l-1 2 1-2"/><path fill="#0e0e6e" d="m296 424l1 1-1-1m-53 1l1 1-1-1z"/><path fill="#a4a43d" d="m244 425l2 2-2-2"/><path fill="#34be9e" d="m247 425l1 1-1-1"/><path fill="#96b247" d="m292 425l1 1-1-1"/><path fill="#53527c" d="m295 425l1 1-1-1"/><path fill="#3a3a7c" d="m244 426l1 1-1-1"/><path fill="#a2b23d" d="m247 426l1 1-1-1"/><path fill="#0dc9c1" d="m248 426l1 1-1-1"/><path fill="#5bb47c" d="m291 426l1 1-1-1"/><path fill="#8d8d5b" d="m294 426l1 1-1-1"/><path fill="#737370" d="m245 427l1 1-1-1"/><path fill="#74b166" d="m248 427l1 1-1-1"/><path fill="#27c2aa" d="m290 427l1 1-1-1"/><path fill="#a4a43d" d="m293 427l-1 2 1-2"/><path fill="#262678" d="m294 427l1 1-1-1"/><path fill="#0e0e6e" d="m245 428l1 1-1-1"/><path fill="#a4a43d" d="m246 428l2 2-2-2"/><path fill="#42bb92" d="m249 428l1 1-1-1"/><path fill="#0dc9c1" d="m289 428l1 1-1-1"/><path fill="#96b247" d="m290 428l1 1-1-1"/><path fill="#58587b" d="m293 428l1 1-1-1"/><path fill="#3a3a7c" d="m246 429l1 1-1-1"/><path fill="#adb333" d="m249 429l1 1-1-1"/><path fill="#27c2aa" d="m250 429l1 1-1-1"/><path fill="#74b166" d="m289 429l1 1-1-1"/><path fill="#8d8d5b" d="m292 429l1 1-1-1"/><path fill="#6e6c70" d="m247 430l1 1-1-1"/><path fill="#96b247" d="m250 430l1 1-1-1"/><path fill="#0dc9c1" d="m251 430l1 1-1-1"/><path fill="#42bb92" d="m288 430l1 1-1-1"/><path fill="#a4a43d" d="m291 430l-2 3 2-3"/><path fill="#1b1b74" d="m292 430l1 1-1-1"/><path fill="#0e0e6e" d="m247 431l1 1-1-1"/><path fill="#8d8d5b" d="m248 431l1 1-1-1"/><path fill="#7fb15c" d="m251 431l1 1-1-1"/><path fill="#34be9e" d="m287 431l1 1-1-1"/><path fill="#3a3a7c" d="m291 431l1 1-1-1"/><path fill="#1b1b74" d="m248 432l1 1-1-1"/><path fill="#a4a43d" d="m249 432l11 11-11-11"/><path fill="#74b166" d="m252 432l1 1-1-1"/><path fill="#27c2aa" d="m286 432l1 1-1-1"/><path fill="#adb333" d="m287 432l1 1-1-1"/><path fill="#667" d="m290 432l1 1-1-1"/><path fill="#32327b" d="m249 433l1 1-1-1"/><path fill="#42bb92" d="m253 433l1 1-1-1"/><path fill="#0dc9c1" d="m285 433l-4 5 4-5"/><path fill="#adb333" d="m286 433l1 1-1-1"/><path fill="#737370" d="m289 433l1 1-1-1"/><path fill="#49497d" d="m250 434l1 1-1-1"/><path fill="#42bb92" d="m254 434l1 1-1-1"/><path fill="#96b247" d="m285 434l1 1-1-1"/><path fill="#8d8d5b" d="m288 434l-1 2 1-2"/><path fill="#0e0e6e" d="m289 434l1 1-1-1"/><path fill="#53527c" d="m251 435l1 1-1-1"/><path fill="#42bb92" d="m255 435l1 1-1-1"/><path fill="#96b247" d="m284 435l1 1-1-1"/><path fill="#0e0e6e" d="m288 435l1 1-1-1"/><path fill="#6e6c70" d="m252 436l1 1-1-1"/><path fill="#42bb92" d="m256 436l1 1-1-1"/><path fill="#96b247" d="m283 436l1 1-1-1"/><path fill="#a4a43d" d="m286 436l-2 3 2-3"/><path fill="#262678" d="m287 436l1 1-1-1"/><path fill="#6e6c70" d="m253 437l1 1-1-1"/><path fill="#42bb92" d="m257 437l1 1-1-1"/><path fill="#96b247" d="m282 437l1 1-1-1"/><path fill="#262678" d="m286 437l1 1-1-1"/><path fill="#6e6c70" d="m254 438l1 1-1-1"/><path fill="#68b070" d="m258 438l1 1-1-1"/><path fill="#27c2aa" d="m280 438l1 1-1-1"/><path fill="#adb333" d="m281 438l1 1-1-1"/><path fill="#262678" d="m285 438l1 1-1-1"/><path fill="#667" d="m255 439l1 1-1-1"/><path fill="#74b166" d="m259 439l1 1-1-1"/><path fill="#34be9e" d="m279 439l1 1-1-1"/><path fill="#adb333" d="m280 439l1 1-1-1"/><path fill="#8d8d5b" d="m283 439l-1 2 1-2"/><path fill="#262678" d="m284 439l1 1-1-1"/><path fill="#49497d" d="m256 440l1 1-1-1"/><path fill="#96b247" d="m260 440l1 1-1-1"/><path fill="#0dc9c1" d="m261 440l1 1-1-1"/><path fill="#42bb92" d="m278 440l1 1-1-1"/><path fill="#0e0e6e" d="m283 440l1 1-1-1"/><path fill="#49497d" d="m257 441l1 1-1-1"/><path fill="#a2b23d" d="m261 441l1 1-1-1"/><path fill="#27c2aa" d="m262 441l1 1-1-1"/><path fill="#74b166" d="m277 441l1 1-1-1"/><path fill="#a4a43d" d="m280 441l-3 4 3-4"/><path fill="#808067" d="m281 441l1 1-1-1"/><path fill="#0e0e6e" d="m282 441l1 1-1-1"/><path fill="#262678" d="m258 442l1 1-1-1"/><path fill="#adb333" d="m262 442l1 1-1-1"/><path fill="#42bb92" d="m263 442l1 1-1-1"/><path fill="#0dc9c1" d="m275 442l1 1-1-1"/><path fill="#96b247" d="m276 442l1 1-1-1"/><path fill="#6e6c70" d="m280 442l1 1-1-1"/><path fill="#1b1b74" d="m259 443l1 1-1-1"/><path fill="#8d8d5b" d="m260 443l1 1-1-1"/><path fill="#74b166" d="m264 443l1 1-1-1"/><path fill="#0dc9c1" d="m265 443l1 1-1-1"/><path fill="#34be9e" d="m274 443l1 1-1-1"/><path fill="#adb333" d="m275 443l1 1-1-1"/><path fill="#49497d" d="m279 443l1 1-1-1"/><path fill="#0e0e6e" d="m260 444l1 1-1-1"/><path fill="#6e6c70" d="m261 444l1 1-1-1"/><path fill="#a4a43d" d="m262 444l2 2-2-2"/><path fill="#96b247" d="m265 444l1 1-1-1"/><path fill="#27c2aa" d="m266 444l1 1-1-1"/><path fill="#68b070" d="m273 444l1 1-1-1"/><path fill="#32327b" d="m278 444l1 1-1-1"/><path fill="#49497d" d="m262 445l1 1-1-1"/><path fill="#5bb47c" d="m267 445l1 1-1-1"/><path fill="#27c2aa" d="m271 445l1 1-1-1"/><path fill="#96b247" d="m272 445l1 1-1-1"/><path fill="#a4a43d" d="m275 445l-1 2 1-2"/><path fill="#808067" d="m276 445l1 1-1-1"/><path fill="#0e0e6e" d="m277 445l1 1-1-1"/><path fill="#262678" d="m263 446l1 1-1-1"/><path fill="#8d8d5b" d="m264 446l1 1-1-1"/><path fill="#8bb252" d="m268 446l1 1-1-1"/><path fill="#1ac5b5" d="m269 446l1 1-1-1"/><path fill="#5bb47c" d="m270 446l1 1-1-1"/><path fill="#58587b" d="m275 446l1 1-1-1"/><path fill="#0e0e6e" d="m264 447l1 1-1-1"/><path fill="#667" d="m265 447l1 1-1-1"/><path fill="#a4a43d" d="m266 447l1 1-1-1"/><path fill="#99994e" d="m273 447l1 1-1-1"/><path fill="#32327b" d="m274 447l1 1-1-1m-8 1l1 1-1-1z"/><path fill="#99994e" d="m267 448l1 1-1-1"/><path fill="#a4a43d" d="m271 448l1 1-1-1"/><path fill="#667" d="m272 448l1 1-1-1"/><path fill="#0e0e6e" d="m273 448l1 1-1-1m-6 1l1 1-1-1z"/><path fill="#667" d="m268 449l1 1-1-1"/><path fill="#a4a43d" d="m269 449l1 1-1-1"/><path fill="#99994e" d="m270 449l1 1-1-1"/><path fill="#32327b" d="m271 449l1 1-1-1"/><path fill="#262678" d="m269 450l1 1-1-1"/><path fill="#0e0e6e" d="m270 450l1 1-1-1"/><g transform="translate(0 296)"><use xlink:href="#1"/><path fill="#fff" fill-rule="evenodd" d="m267.04 122.1c0 .445-.361.806-.806.806-.445 0-.806-.361-.806-.806 0-.445.361-.806.806-.806.445 0 .806.361.806.806" transform="translate(15.08-30.977)"/></g><g transform="matrix(-.46716-.88417.88417-.46716 308.31 678.65)"><use xlink:href="#1"/><path fill="#fff" fill-rule="evenodd" d="m267.04 122.1c0 .445-.361.806-.806.806-.445 0-.806-.361-.806-.806 0-.445.361-.806.806-.806.445 0 .806.361.806.806" transform="translate(15.08-30.977)" id="2"/></g><g transform="matrix(-.51504.85717-.85717-.51504 493 213.06)"><use xlink:href="#1"/><use xlink:href="#2"/></g></g></g></svg>