<svg xmlns="http://www.w3.org/2000/svg" viewBox="0 0 640 480"><g fill-rule="evenodd" stroke-width="1.25" transform="matrix(.86011 0 0 .95321 0 -15.191)"><path fill="#f00" d="m0,15.937h744.09v255.53h-744.09z"/><path d="M 0,263.97 H744.09 V519.5 H0 z"/></g><g transform="translate(-113.16 4.8627)"><g fill-rule="evenodd" stroke-width="1.25"><g fill="#ffec00"><path d="m341.83-135.75c165.22,43.304 58.989,255.64-71.216,167.26-2.939,4.5148-5.877,9.0297-8.817,13.545 76.628,54.658 152.57,10.66 173.9-46.358 22.297-58.788-7.521-141.48-92.511-150.03-.451,5.192-.904,10.384-1.355,15.576z" transform="translate(0 279.06)"/><path d="m276.34-77.07h23.972v23.949h-23.972z" transform="matrix(.90642 .42239 -.42345 .90592 0 279.06)"/><path d="m432.1-52.576h23.979v23.942h-23.979z" transform="translate(0 279.06)"/><path d="m424.9,67.214h23.974v23.947h-23.974z" transform="matrix(.93193 -.36263 .3636 .93156 0 279.06)"/><path d="m365.04,191.67h23.961v23.961h-23.961z" transform="matrix(.71094 -.70325 .70434 .70986 0 279.06)"/><path d="m287.71-280h23.974v23.947h-23.974z" transform="matrix(.93575 .35267 -.35362 .93539 0 279.06)"/><path d="m393.33-172.06h23.974v23.947h-23.974z" transform="matrix(.92874 .37073 -.37172 .92835 0 279.06)"/><path d="m308.48,192.4h23.973v23.948h-23.973z" transform="matrix(.92012 -.39163 .39265 .91969 0 279.06)"/><path d="m319.88,58.906h23.979v23.942h-23.979z" transform="translate(0 279.06)"/><path d="m361.17-57.03-20.351-15.006-20.244,14.469 8.034-22.918-20.347-14.957 24.447-.171 8.568-22.551 7.782,22.703 24.702-.2416-19.587,15.232 6.996,23.441z" transform="translate(0 279.06)"/></g><path fill="#fe0" d="m449.19,62.453c-1.211,.4184-6.229,12.389-9.675,18.248 1.797,.5092 2.559,.5965 3.625,1.0254 13.655,4.8007 20.384,9.1807 26.186,17.505 2.888,2.7911 7.032,2.9311 10.198,.6972 0,0 2.795-1.1156 6.429-5.0223 2.969-4.5195 2.195-8.1095-1.383-11.16-10.944-7.9507-22.9-13.901-35.38-21.294z" transform="translate(0 279.06)"/><path d="m199.62,154.99c0,1.0448-.847,1.8918-1.8918,1.8918s-1.8918-.847-1.8918-1.8918 .847-1.8918 1.8918-1.8918 1.8918,.847 1.8918,1.8918z" transform="matrix(2.2895 0 0 2.286 21.377 13.672)"/><path d="m199.62,154.99c0,1.0448-.847,1.8918-1.8918,1.8918s-1.8918-.847-1.8918-1.8918 .847-1.8918 1.8918-1.8918 1.8918,.847 1.8918,1.8918z" transform="scale(2.2895 2.286)"/><path d="m199.62,154.99c0,1.0448-.847,1.8918-1.8918,1.8918s-1.8918-.847-1.8918-1.8918 .847-1.8918 1.8918-1.8918 1.8918,.847 1.8918,1.8918z" transform="matrix(2.2895 0 0 2.286 10.898 6.9754)"/><path fill="#fe0" d="m437.63,79.744c-42.57-24.273-87.31-50.521-129.88-74.796-18.751-11.636-19.683-33.385-7.17-49.876 1.302-2.3363 2.836-1.7579 3.514-.5234 1.463,8.0284 5.969,16.324 11.37,21.495 44.693,28.383 87.732,55.804 131.71,85.613-3.448,5.7676-6.104,12.322-9.55,18.087z" transform="translate(0 279.06)"/><path fill="#ffec00" d="m319.65-257.7h23.963v23.959h-23.963z" transform="matrix(.74495 .66712 -.66826 .74393 0 279.06)"/></g><g fill="none" stroke="#000" stroke-width="2.86"><path d="m444.7,64.898-124.96-75.522" transform="translate(0 279.06)"/><path d="m429.27,47.47-42.24-27.279" transform="translate(0 279.06)"/><path d="m405.24,62.878-42.75-24.756" transform="translate(0 279.06)"/></g></g></svg>