<svg xmlns="http://www.w3.org/2000/svg" viewBox="0 0 640 480"><g stroke-width="1.25"><g><path fill="#006" d="m0,0h640v480h-640z"/></g><g transform="scale(5.7614 8.3333)"><g fill="#fff"><path d="m0,0v3.3541l53.292,26.646h6.708v-3.354l-53.292-26.646h-6.708zm60,0v3.354l-53.292,26.646h-6.708v-3.354l53.292-26.646h6.708z"/><path d="m25,0v30h10v-30h-10zm-25,10v10h60v-10h-60z"/></g><g fill="#c00"><path d="m0,12v6h60v-6h-60zm27-12v30h6v-30h-6z"/><path d="m0,30 20-10h4.472l-20,10h-4.472zm0-30 20,10h-4.472l-15.528-7.7639v-2.2361zm35.528,10 20-10h4.472l-20,10h-4.472zm24.472,20-20-10h4.472l15.528,7.764v2.236z"/></g></g><g fill="#fff" fill-rule="evenodd"><g transform="matrix(1.0075 0 0 1.0075 1.3538 -37.74)"><path d="m38.774,47.003-5.647,.491 .778,5.615-3.905-4.109-3.905,4.109 .778-5.615-5.647-.491 4.874-2.893-3.136-4.721 5.3,2.007 1.736-5.396 1.736,5.396 5.3-2.007-3.136,4.721z" transform="matrix(7.6727 0 0 7.6727 -1.3148 66.42)"/></g><g transform="matrix(7.0524 0 0 7.0524 -135.09193 82.89805)"><path d="m88.143,49.576-1.494-2.248 2.525,.956 .826-2.57 .826,2.57 2.525-.956-1.494,2.248 2.321,1.378-2.689,.234 .371,2.673-1.86-1.956-1.86,1.956 .371-2.673-2.689-.234z"/><path d="m88.143,9.5762-1.494-2.2483 2.525,.956 .826-2.5696 .826,2.5696 2.525-.956-1.494,2.2483 2.321,1.3778-2.689,.234 .371,2.673-1.86-1.956-1.86,1.956 .371-2.673-2.689-.234z"/><path d="m73.143,25.826-1.494-2.248 2.525,.956 .826-2.57 .826,2.57 2.525-.956-1.494,2.248 2.321,1.378-2.689,.234 .371,2.673-1.86-1.956-1.86,1.956 .371-2.673-2.689-.234z"/><path d="m101.48,21.826-1.497-2.248 2.527,.956 .82-2.57 .83,2.57 2.52-.956-1.49,2.248 2.32,1.378-2.69,.234 .37,2.673-1.86-1.956-1.86,1.956 .37-2.673-2.685-.234z"/><path d="m96,33.611-1.47,.911 .413-1.679-1.321-1.115 1.725-.127 .653-1.601 .653,1.601 1.725,.127-1.321,1.115 .413,1.679z"/></g></g></g></svg>