<svg xmlns="http://www.w3.org/2000/svg" viewBox="0 0 640 480"><g stroke-width="1.25"><path fill="#006" d="m0 0h640v480h-640z"/><g transform="scale(5.7614 8.3333)"><g fill="#fff"><path d="m0 0v3.354l53.29 26.646h6.708v-3.354l-53.29-26.646h-6.708m60 0v3.354l-53.29 26.646h-6.708v-3.354l53.29-26.646h6.708"/><path d="m25 0v30h10v-30h-10m-25 10v10h60v-10h-60"/></g><g fill="#c00"><path d="m0 12v6h60v-6h-60m27-12v30h6v-30h-6"/><path d="m0 30l20-10h4.472l-20 10h-4.472m0-30l20 10h-4.472l-15.528-7.764v-2.236m35.528 10l20-10h4.472l-20 10h-4.472m24.472 20l-20-10h4.472l15.528 7.764v2.236"/></g></g><g fill="#fff" fill-rule="evenodd"><path d="m38.774 47l-5.647.491.778 5.615-3.905-4.109-3.905 4.109.778-5.615-5.647-.491 4.874-2.893-3.136-4.721 5.3 2.01 1.736-5.396 1.736 5.396 5.3-2.01-3.136 4.721z" transform="matrix(7.73025 0 0 7.73025.029 29.18)"/><g transform="matrix(7.0524 0 0 7.0524-135.09 82.9)"><path d="m88.14 49.576l-1.494-2.248 2.525.956.826-2.57.826 2.57 2.525-.956-1.494 2.248 2.321 1.378-2.689.234.371 2.673-1.86-1.956-1.86 1.956.371-2.673-2.689-.234z"/><path d="m88.14 9.576l-1.494-2.248 2.525.956.826-2.57.826 2.57 2.525-.956-1.494 2.248 2.321 1.378-2.689.234.371 2.673-1.86-1.956-1.86 1.956.371-2.673-2.689-.234z"/><path d="m73.14 25.826l-1.494-2.248 2.525.956.826-2.57.826 2.57 2.525-.956-1.494 2.248 2.321 1.378-2.689.234.371 2.673-1.86-1.956-1.86 1.956.371-2.673-2.689-.234z"/><path d="m101.48 21.826l-1.497-2.248 2.527.956.82-2.57.83 2.57 2.52-.956-1.49 2.248 2.32 1.378-2.69.234.37 2.673-1.86-1.956-1.86 1.956.37-2.673-2.685-.234z"/><path d="m96 33.611l-1.47.911.413-1.679-1.321-1.115 1.725-.127.653-1.601.653 1.601 1.725.127-1.321 1.115.413 1.679z"/></g></g></g></svg>