<svg xmlns="http://www.w3.org/2000/svg" viewBox="0 0 640 480"><g stroke-width="1.25"><g fill-rule="evenodd" transform="scale(5.3333 8)"><path fill="#c33" d="m0,20h120v20h-120z"/><path fill="#09c" d="m0,0h120v20h-120z"/><path fill="#093" d="m0,40h120v20h-120z"/></g><g transform="matrix(14.068 0 0 14.068 -494.02 -182.71)"><path fill="#fff" d="m66,30c.004,4.968-4.0248,9-8.9928,9-4.968,.008-9.003-4.018-9.007-8.986-.012-4.968 4.01-9.006 8.978-9.014 4.968-.0158 9.0096,4.0033 9.0215,8.9713v.0287z"/><path fill="#c33" d="m66.5,30c.0033,4.0848-3.3093,7.4-7.3941,7.4-4.0848,.0065-7.4026-3.3034-7.4059-7.3882-.0098-4.0848 3.2975-7.4053 7.3823-7.4118 4.0848-.013 7.4079,3.2916 7.4177,7.3764v.0236z"/></g><g transform="matrix(14.068 0 0 14.068 -494.02 -182.71)"><path fill="#fff" fill-rule="evenodd" d="m67,25 .957,2.69 2.579-1.226-1.226,2.579 2.69,.957-2.69,.957 1.226,2.579-2.579-1.226-.957,2.69-.957-2.69-2.579,1.226 1.226-2.579-2.69-.957 2.69-.957-1.226-2.579 2.579,1.226z"/></g></g></svg>