<svg xmlns="http://www.w3.org/2000/svg" viewBox="0 0 640 480"><g stroke-width="1.25"><g fill-rule="evenodd" transform="scale(5.3333 8)"><path fill="#c33" d="m0 20h120v20h-120z"/><path fill="#09c" d="m0 0h120v20h-120z"/><path fill="#093" d="m0 40h120v20h-120z"/></g><g transform="matrix(14.068 0 0 14.068-494.02-182.71)"><path fill="#fff" d="m66 30c.004 4.968-4.02 9-8.993 9-4.968.008-9-4.02-9.01-8.986-.012-4.968 4.01-9.01 8.978-9.01 4.968-.016 9.01 4 9.02 8.971v.029"/><path fill="#c33" d="m66.5 30c.003 4.085-3.309 7.4-7.394 7.4-4.085.007-7.403-3.303-7.406-7.388-.001-4.085 3.297-7.405 7.382-7.412 4.085-.013 7.408 3.292 7.418 7.376v.024"/></g><path fill="#fff" fill-rule="evenodd" d="m67 25l.957 2.69 2.579-1.226-1.226 2.579 2.69.957-2.69.957 1.226 2.579-2.579-1.226-.957 2.69-.957-2.69-2.579 1.226 1.226-2.579-2.69-.957 2.69-.957-1.226-2.579 2.579 1.226z" transform="matrix(14.068 0 0 14.068-494.02-182.71)"/></g></svg>