<svg width="640" xmlns="http://www.w3.org/2000/svg" height="480" viewBox="0 0 512 512"><defs><clipPath id="clipPath3133" clipPathUnits="userSpaceOnUse"><path fill-opacity=".67" d="m-85.333,0h682.67v512h-682.67z"/></clipPath></defs><g fill-rule="evenodd" clip-path="url(#clipPath3133)"><path fill="#009" d="m-85.333,0h682.67v512h-682.67z"/><path fill="#fc0" d="m-85.333,0 682.67,512v-512h-682.67z"/><g fill="#fff"><path d="m381.84,62.857-55.84-40.57-55.84,40.57 21.33-65.6438-55.84-40.5702 69.02,0 21.33-65.643 21.33,65.643 69.02,0-55.84,40.5702z" transform="matrix(.43691 0 0 .43691 -188.29 47.624)"/><path d="m326,22.287-55.84,40.57 21.33-65.6438-55.84-40.5702 69.02,0 21.33-65.643 21.33,65.643 69.02,0-55.84,40.5702 21.33,65.6438z" transform="matrix(.43691 0 0 .43691 -112.34 102.24)"/><path d="m270.16,62.857 21.33-65.6438-55.84-40.5702 69.02,0 21.33-65.643 21.33,65.643 69.02,0-55.84,40.5702 21.33,65.6438-55.84-40.57z" transform="matrix(.43691 0 0 .43691 -36.397 156.85)"/><path d="m291.49-2.7868-55.84-40.5702 69.02,0 21.33-65.643 21.33,65.643 69.02,0-55.84,40.5702 21.33,65.6438-55.84-40.57-55.84,40.57z" transform="matrix(.43691 0 0 .43691 39.551 211.47)"/><path d="m235.65-43.357 69.02,0 21.33-65.643 21.33,65.643 69.02,0-55.84,40.5702 21.33,65.6438-55.84-40.57-55.84,40.57 21.33-65.6438z" transform="matrix(.43691 0 0 .43691 115.5 266.08)"/><path d="m304.67-43.357 21.33-65.643 21.33,65.643 69.02,0-55.84,40.5702 21.33,65.6438-55.84-40.57-55.84,40.57 21.33-65.6438-55.84-40.5702z" transform="matrix(.43691 0 0 .43691 191.45 320.69)"/><path d="m326-109 21.33,65.643 69.02,0-55.84,40.5702 21.33,65.6438-55.84-40.57-55.84,40.57 21.33-65.6438-55.84-40.5702 69.02,0z" transform="matrix(.43691 0 0 .43691 267.39 375.31)"/><path d="m326-109 21.33,65.643 69.02,0-55.84,40.5702 21.33,65.6438-55.84-40.57-55.84,40.57 21.33-65.6438-55.84-40.5702 69.02,0z" transform="matrix(.43691 0 0 .43691 343.34 429.92)"/><path d="m347.33-43.357 69.02,0-55.84,40.5702 21.33,65.6438-55.84-40.57-55.84,40.57 21.33-65.6438-55.84-40.5702 69.02,0 21.33-65.643z" transform="matrix(.43691 0 0 .43691 419.29 484.54)"/></g></g></svg>