<svg width="640" xmlns="http://www.w3.org/2000/svg" height="480" viewBox="0 0 512 512" xmlns:xlink="http://www.w3.org/1999/xlink"><defs><clipPath id="0"><path d="m-85.33 0h682.67v512h-682.67z"/></clipPath></defs><g fill-rule="evenodd" clip-path="url(#0)"><path fill="#009" d="m-85.33 0h682.67v512h-682.67z"/><path fill="#fc0" d="m-85.33 0l682.67 512v-512h-682.67"/><g fill="#fff"><path d="m381.84 62.857l-55.84-40.57-55.84 40.57 21.33-65.64-55.84-40.57h69.02l21.33-65.64 21.33 65.64h69.02l-55.84 40.57z" transform="matrix(.43691 0 0 .43691-188.29 47.624)"/><path d="m326 22.287l-55.84 40.57 21.33-65.64-55.84-40.57h69.02l21.33-65.64 21.33 65.64h69.02l-55.84 40.57 21.33 65.64z" transform="matrix(.43691 0 0 .43691-112.34 102.24)"/><path d="m270.16 62.857l21.33-65.64-55.84-40.57h69.02l21.33-65.64 21.33 65.64h69.02l-55.84 40.57 21.33 65.64-55.84-40.57z" transform="matrix(.43691 0 0 .43691-36.397 156.85)"/><path d="m291.49-2.787l-55.84-40.57h69.02l21.33-65.64 21.33 65.64h69.02l-55.84 40.57 21.33 65.64-55.84-40.57-55.84 40.57z" transform="matrix(.43691 0 0 .43691 39.551 211.47)"/><path d="m235.65-43.36h69.02l21.33-65.64 21.33 65.64h69.02l-55.84 40.57 21.33 65.64-55.84-40.57-55.84 40.57 21.33-65.64z" transform="matrix(.43691 0 0 .43691 115.5 266.08)"/><path d="m304.67-43.36l21.33-65.64 21.33 65.64h69.02l-55.84 40.57 21.33 65.64-55.84-40.57-55.84 40.57 21.33-65.64-55.84-40.57z" transform="matrix(.43691 0 0 .43691 191.45 320.69)"/><path d="m326-109l21.33 65.64h69.02l-55.84 40.57 21.33 65.64-55.84-40.57-55.84 40.57 21.33-65.64-55.84-40.57h69.02z" transform="matrix(.43691 0 0 .43691 267.39 375.31)" id="1"/><use transform="translate(75.95 54.61)" xlink:href="#1"/><path d="m347.33-43.36h69.02l-55.84 40.57 21.33 65.64-55.84-40.57-55.84 40.57 21.33-65.64-55.84-40.57h69.02l21.33-65.64z" transform="matrix(.43691 0 0 .43691 419.29 484.54)"/></g></g></svg>