<svg xmlns="http://www.w3.org/2000/svg" viewBox="0 0 640 480"><g fill-rule="evenodd"><g stroke-width="1.25" transform="scale(1.25.9375)"><g fill="#00009d"><path d="m0 0h170.67v512h-170.67z"/><path d="m341.33 0h170.67v512h-170.67z"/></g><path fill="#ffd400" d="m170.67 0h170.67v512h-170.67z"/></g><g transform="matrix(1.4589 0 0 1.4589-222.87-145.15)"><path d="m372.32 365.16c7.962.556 3.563-.361 11.525.195l.555-47.22h30.553c-.181-56.39 21.723-103.92 47.86-144.21 1.571-2.02.544-2.89-1.199-2.443-19.726 3.081-40.02 13.437-53.922 27.813-1.622 1.991.233 2.301 1.15 2.183 7.613-2.282 6.113 6.244 5.561 9.665-7.803 24.929-14.613 49.08-17.11 77.77-.003 1.995-.317 3.446-1.263 3.542-3.518.185-6.959.135-10.516.125-1.297.012-1.58-1.421-1.666-2.777.185-28.886-.072-57.771.113-86.66.089-1.906 6.991-9.644 8.114-9.674 3.535-.091 5.02-.004 8.978-.071 1.03-.008 1.251-3.18.073-3.334-2.407 0-6.873-.22-9.28-.22-1.14.044-17.29-12.273-17.327-14.804-.185-3.888-.076-7.703-.261-11.591.212-.957-4.509-1.177-4.444.073v10.809c-.809 5.15 2.324 175.08 2.509 190.82z"/><path d="m371.9 365.16c-7.962.556-3.563-.361-11.525.195l-.555-47.22h-30.553c.181-56.39-21.723-103.92-47.86-144.21-1.571-2.02-.544-2.89 1.199-2.443 19.726 3.081 40.02 13.437 53.922 27.813 1.622 1.991-.233 2.301-1.15 2.183-7.613-2.282-6.113 6.244-5.561 9.665 7.803 24.929 14.613 49.08 17.11 77.77.003 1.995.317 3.446 1.263 3.542 3.518.185 6.959.135 10.516.125 1.297.012 1.58-1.421 1.666-2.777-.185-28.886.072-57.771-.113-86.66-.089-1.906-6.991-9.644-8.114-9.674-3.535-.091-5.02-.004-8.978-.071-1.03-.008-1.251-3.18-.073-3.334 2.407 0 6.873-.22 9.28-.22 1.14.044 17.29-12.273 17.327-14.804.185-3.888.076-7.703.261-11.591-.212-.957 4.509-1.177 4.444.073v10.809c.809 5.15-2.324 175.08-2.509 190.82z"/></g></g></svg>