<svg xmlns="http://www.w3.org/2000/svg" viewBox="0 0 640 480" xmlns:xlink="http://www.w3.org/1999/xlink"><defs><path id="0" d="m134.28 105.87l-6.58.11-3.4 5.62-3.39-5.63-6.57-.14 3.18-5.75-3.16-5.768 6.57-.113 3.41-5.625 3.39 5.638 6.57.14-3.19 5.748z"/><clipPath id="1"><path d="m-90.53 0h682.67v512h-682.67z"/></clipPath></defs><g fill-rule="evenodd" clip-path="url(#1)" transform="matrix(.9375 0 0 .9375 84.88 0)"><g stroke-width="1.25"><g fill="#00cf00"><path d="m-178 0l428.8 256-428.8 256z"/><path d="m679.6,0-428.8,256 428.8,256z"/></g><g fill="#f00"><path d="m-178 0l428.8 256 428.8-256z"/><path d="m-178 512l428.8-256 428.8 256z"/></g><path fill="#fff" d="m679.6 0h-79.902l-777.7 464.3v47.703h79.902l777.7-464.3z"/></g><path fill="#fff" d="m196.84 88.14c0 27.948-22.656 50.604-50.604 50.604s-50.604-22.656-50.604-50.604 22.656-50.604 50.604-50.604 50.604 22.656 50.604 50.604" transform="matrix(2.9257 0 0 2.9257-177.04-1.86)"/><g stroke-width="1.25"><path fill="#fff" d="m-178 0v47.703l777.7 464.3h79.902v-47.703l-777.7-464.3z"/><g fill="#f00" stroke="#00de00"><use transform="matrix(2.9257 0 0 2.9257-112.92-109.58)" xlink:href="#0"/><use transform="matrix(2.9257 0 0 2.9257-177.42 2.04)" xlink:href="#0"/><use transform="matrix(2.9257 0 0 2.9257-46.85 2.04)" xlink:href="#0"/></g></g></g></svg>