<svg xmlns="http://www.w3.org/2000/svg" viewBox="0 0 640 480" xmlns:xlink="http://www.w3.org/1999/xlink"><defs><clipPath id="0"><path d="m0 0h640v480h-640z"/></clipPath></defs><g fill-rule="evenodd" clip-path="url(#0)"><g stroke-width="1.25" transform="matrix(.96762 0 0 .96762-160.1-15.421)"><path fill="#fff" nodetypes="ccccc" d="m-.122 50.19l.122 117.99 992.13 206.02v-117.14l-992.25-206.87z"/><g fill="#fdd114"><path nodetypes="ccccc" d="m0 270.84v241.16h992.13v-34.441l-992.13-206.72z"/><path nodetypes="ccccc" d="m992.13 257.09v-241.16h-992.13v34.441l992.13 206.72z"/></g><path nodetypes="ccccc" d="m0 167.56v103.35l992.45 206.65-.32-103.36-992.13-206.64"/></g><g transform="matrix(1.2107 0 0 1.2107-280.56-60.27)"><g fill="#cf1126" stroke="#000"><path stroke-width="1.562" d="m274.57 617.61h9.539v25.46h-9.539z" transform="matrix(.93978 0 0 .93988 233.07-374.06)"/><path nodetypes="cscccccsc" stroke-width="3.207" d="m415.12 645.68c-.241-33.566 1.125-65.845 3.766-75s6.556-11.06 11.416-15.608c-11.512-1.043-24.22 8.647-30.06 21.408-3.707-14.398-10.639-24.16-16.739-29.06-6.099 4.9-13.292 14.808-16.568 29.18-6.01-10.712-16.555-22.588-29.03-21.254 4.434 4.62 8.481 6.332 11.178 15.285s4.04 41.02 3.075 74.6" transform="matrix(.42824 0 0 .4894 331.28-46.42)"/><path nodetypes="cscccccsc" stroke-width="2.804" d="m414.44 641.96c-.241-33.565 1.37-62.22 3.677-71.33 2.309-9.106 5.993-10.806 11.258-14.746-11.512-1.043-22.481 1.756-28.902 17.355-3.592-14.5-10.639-21.623-16.739-26.523-6.099 4.9-13.292 12.274-16.568 26.649-7.05-15.474-16.903-18.94-29.376-17.606 5.186 4.316 9.262 5.927 11.8 14.855s2.859 37.31 1.89 70.899" transform="matrix(.46698 0 0 .58735 316.32-66.37)"/><g stroke-width="2.5"><path nodetypes="cscccccsc" d="m417.5 590.83c-.312-7.812.76-18.303 2.535-22.357 1.776-4.055 4.254-7.02 6.754-10.453-10.722-1.546-21.625-.757-27.414 14.968-3.75-14.375-9.375-21.875-15.475-26.775-6.099 4.9-11.396 12.4-15.15 26.775-5.789-15.725-16.745-16.678-27.796-14.968 2.5 3.437 5.074 6.398 6.945 10.453 1.871 4.054 3.039 14.545 2.726 22.357" transform="matrix(.5873 0 0 .58735 270.1-25.419)"/><path d="m378.95 610.77v32.21h11.369v-32.21h-11.369z" transform="matrix(.5873 0 0 .58735 269.69-198.82)"/><g stroke-linejoin="bevel" transform="matrix(.5873 0 0 .58735 269.69-293.16)"><path opacity=".99" d="m457.89 1168.7c2.813 1.88 14.04 3.85 34.376.31 35.513-6.22 35.22-41.25 90.53-25-2.5-5-11.25-20.31-32.813-20.93 2.188-7.19 3.75-17.81-.312-24.38-4.167 9.27-10.618 13.58-15.296 16.61-1.441-.78-9.8-7.61-10.706-17.9-1.256-20.4-11.211-24-12.268-23.46-6.39-.18-44.87 60.65-127.27 61.05-81.19.39-121.82-60.51-126.41-61.05-1.057-.54-11.01 3.06-12.268 23.46-.906 10.29-9.363 16.82-10.784 17.73-4.658-2.9-11.05-7.17-15.218-16.44-4.062 6.57-2.5 17.19-.312 24.38-21.563.62-30.31 15.93-32.813 20.93 55.31-16.25 55.42 18.78 90.94 25 20.341 3.54 30.886 1.88 33.699.001"/><path opacity=".99" d="m286.28 1151.2c-19.265-.77-56.848-30.07-51.51-36.1 1.693-1.71 9.973.05 24.308 10.08 21.275 14.5 39.529 60.22 124.88 59.87 86.98-.35 104.83-45.37 126.1-59.87 14.335-10.03 23.279-11.63 24.288-9.67 5.12 5.78-32.499 35.01-51.764 35.78"/></g><path nodetypes="cccccc" d="m259.2 399.54c-76.11 80.19-35.17 264.36 123.02 267.02 159.04 1.782 205.43-184.26 126.41-267.37m-234.02 3.103c-40.49 68.18 1.604 187.64 109.88 187.64 109.17 0 149.18-120.33 109.08-188.05" transform="matrix(.5873 0 0 .58735 270.1-25.419)"/></g></g><g fill="#fdd114"><g stroke-width=".22"><g stroke="#cf1126"><path nodetypes="ccccss" d="m512.19 379.9c3.25.722 6.215 4.078 5.02 7.527-1.326 4.112-6.221 5.111-8.07 4.811-1.99-1.194-.797-2.918 5.306-3.582 3.979-1.459.355-4.15-2.653-5.439-1.635-.701-1.129-3.656.397-3.317z"/><path nodetypes="cssss" d="m502.11 378.84c1.511-1.719 2.739 3.55 3.075 7.204.44 3.567.486 7.967-.952 8.185-.877.147-.141-4.096-1.047-7.989-1.183-4.507-1.693-6.644-1.076-7.4z"/></g><path nodetypes="ccss" stroke="#cb4f46" d="m498.64 385.34c3.794 3.677-2.633 14.328-16.694 9.685-.796-1.459 5.584-.016 10.08-.796 8.558-1.351 4.886-10.52 6.613-8.889z"/></g><g stroke="#cf1126"><g stroke-width=".22"><path nodetypes="cssss" d="m491.76 378.04c1.512-1.719.631 3.723.946 7.379.308 3.435-.076 7.616-1.706 7.07-.883-.426.564-4.284-.342-7.911-.971-4.558-.045-5.389 1.102-6.543z"/><path nodetypes="csscsssssssssssssssssssss" d="m482.11 376.58c2.683-.017 1.964.736 1.773 7.903-.21 8.03-6.993 8.931-8.605 6.727-1.355-1.729-.858-2.249-6.92-1.67-1.356-.683-1.304-2.136-5.733-1.764-1.145.211-1.107-1.961-3.173-3.259-3.602-2.152-4.801 1.587-11.669-2.37-.429-.24-3.216-2.01-2.707-5.497.531-4.411-3.492.539-7.913-1.386-.855-.382-3.446-1.46-5.732-3.466-3.227-2.775.152-3.336 4.512-.507 2.692 1.707 6.646-2.221 6.753-6.152.241-4.16-1.829-5.254 1.379-5.151 1.789.053 1.364 7.269-1.676 10.463-4.068 4.397-1.323 3.549.13 3.328 1.515-.379 8.407-8.919 9.556-8.186 1.79 1.216-5.373 6.676-3.769 11.844.766 2.304 5.04 4.511 8.551 4.868 4.133.688 4.145-4.924 5.82-3.861 2.318 1.521-4.43 4.385 2.655 6.474 1.565.469 2.469-3.516 3.395-3.343 2.223.363-1.453 4.654 2.522 5.336 2.771.461 2.01-4.01 3.73-3.735 1.988-.127.122 7.147 5.633 6.405 2.323-.304-1.311-12.985 1.488-13z"/><path nodetypes="cccccccc" d="m432.16 367.14c1.596-.341 4.331-1.823 4.445-4.217.228-2.621-3.419-3.533-7.75-2.849-2.279.342-6.153-1.14-8.433-3.078-2.279-2.849-2.279-6.04-5.01-4.672-2.051.911 2.849 6.154 5.242 7.408 2.394 1.254 6.269 1.14 6.496 2.963.228 1.824-.912 4.673 5.01 4.445z"/><path nodetypes="csscsss" d="m529.14 379.37c-.88.426-1.594 8.39 3.379 8.562 6.247.223 9.388-2.945 10.953-4.071 2.599-1.975 7.283-5.923 5.115-9.327-1.085-1.236-1.684 2.274-2.935 4.328-1.702 3.01-7.529 6.586-11.992 6.099-5.467-.336-3.407-5.876-4.52-5.591z"/><path nodetypes="csssss" d="m541.98 375.68c-1.271-.961 2.826-2.534 3.25-4.02.425-1.487-1.81-2.888-.567-4.517 1.303-2.145 1.374 4.04 3.03 4.221 4.586.478 1.312 3.44-.418 2.868-1.958-.584-4.528 2.172-5.295 1.449z"/><path nodetypes="ccc" d="m538.43 366.31c-.295 2.066.959 2.582 1.329 1.402.442-2.214-.813-3.247-1.329-1.402z"/><path nodetypes="cssss" d="m541.75 364.17c-.738.058-.841 2.621.12 2.692 1.037.082.558 1.831 1.429 1.808 1.036-.027 1.115-2.934-.057-2.961-1.09-.027-.833-1.527-1.492-1.539z"/><path nodetypes="ccsccscsssss" d="m550.05 363.68c-.877 1.11-2.542-4.277 3.06-5.05 2.663.235 4.934 4.621 4.699 8.85-.089 1.564-.156 5.091-1.017 6.814-.706 1.645-3.29 7.05-4.543 6.58-1.253-.471.328-2.734 2.428-5.875 1.698-2.572 2.35-9.712 1.488-10.965s-1.729 3.133-3.524 4.073c-1.494.783-3.054-1.482-3.289-2.578-.186-1.3.998-2.1 1.8-.555.64 1.161 2.607-1.143 2.561-2.789.052-2.662-1.713-.551-3.663 1.493z"/><path nodetypes="ccccccccccc" d="m562.12 351.66c-.705 1.019-3.132 3.29-3.602 4.23s-.549 2.584.234 4.151c.784 1.566 2.428 4.072 2.115 6.344-.314 2.271-1.88 6.97-1.018 6.579.861-.392 2.976-5.01 2.506-8.538-.47-3.524-2.115-5.482-1.802-6.657.313-1.174 2.271-3.367 2.663-4.855.392-1.489-.235-5.483-.783-5.796s-2.506.392-1.88 1.723c.627 1.332 1.958.548 1.567 2.819z"/></g><path nodetypes="css" stroke-width=".207" d="m565.34 353.48c-.88.801-.442 5.164.767 3.606 1.099-1.518-.063-4.319-.767-3.606z"/><path nodetypes="ccc" stroke-width=".25" d="m542.32 385.88c-.412 1.91 1.469 2.514 1.986 1.423.618-2.046-1.264-3.128-1.986-1.423z"/><path nodetypes="ccc" stroke-width=".276" d="m545.2 384.26c-.611 1.567 2.115 1.704 2.881.809.916-1.679-1.811-2.208-2.881-.809z"/></g></g><g fill="#cf1126"><path nodetypes="ccs" stroke="#cf1126" stroke-width=".22" d="m431.82 361.67c-1.458-.652-1.367 2.279-.683 3.077.683.798 4.659-1.248.683-3.077z"/><g transform="matrix(.5873 0 0 .58735 269.69-198.82)"><path nodetypes="cscc" stroke="#000" stroke-linecap="round" stroke-width="2.5" d="m385.65 680.28c-24.945 4.993-42.07 19.615-34.04 24.588 4.917 3.278 28.01-5.728 32.886-13.373 8.861 13.523 32.9 18.624 38.706 15.592"/><path stroke-width="1.25" d="m256.27 672.28c4.14 6.398 25.59 21.827 41.02 22.956 15.43 1.129 50.43 8.279 57.2 5.268 6.774-3.01 25.966-16.182 30.858-13.924 4.893 2.258 33.493 18.06 44.03 17.687 10.537-.376 78.65-19.568 80.909-23.331 2.258-3.764-13.548-13.548-23.708-13.548-10.161 0-230.31 5.269-230.31 4.892"/></g><g stroke="#000"><g stroke-width="2.5"><g stroke-linecap="round" transform="matrix(.5873 0 0 .58735 269.69-198.82)"><path d="m316.2 703.33c.124 3.846 3.081 6.627 10.173 6.7 11.91.248 32.06-5.385 44.09-18.907"/><path d="m280.47 697.62c-.62 3.226 4.715 7.444 15.14 7.568s46.772-4.342 58.43-16.5"/><path d="m255.86 687.85c-5.583 7.195 12.204 9.774 22.873 9.649 10.67-.124 38.21-.266 50.54-9.446"/><path d="m236.37 675.78c-5.335 7.07 12.591 13.283 34.426 12.787 20.1-.496 40.569-7.444 40.569-7.444"/><path d="m452.48 703.33c-.124 3.846-3.081 6.627-10.173 6.7-11.91.248-32.06-5.385-44.09-18.907"/><path d="m488.21 697.62c.62 3.226-4.715 7.444-15.14 7.568s-46.772-4.342-58.43-16.5"/><path d="m512.66 688c5.583 7.196-12.05 9.618-22.717 9.493-10.67-.124-38.21-.266-50.54-9.446"/><path d="m532.37 675.66c5.335 7.07-12.651 13.404-34.486 12.908-20.1-.496-40.569-7.444-40.569-7.444"/><path d="m279.21 675.12c-27.735 4-40.51 1.964-46.05-.682-6.915-3.043-18.757-12.309-1.265-12.646 11.59-.226 17.431.659 30.607.59 33.705-.422 82.36-27.04 97.11-27.14 13.701-.101 17.336 6.233 25.15 6.362 7.998.093 10.587-6.463 24.288-6.362 14.75.109 63.41 26.723 97.11 27.14 13.176.069 19.02-.816 30.607-.59 17.492.337 5.65 9.603-1.265 12.646-5.535 2.646-18.31 4.687-46.05.682"/></g><g transform="matrix(.5873 0 0 .58735 270.1-25.419)"><path nodetypes="ccccccccccccc" d="m383.55 280.29c-13.05.655-31.01-1.574-36.774 12.977-8.783 16.647-6.306 35.518-2.36 35.916 7.06.779 7.737-18.847 10.749-18.876 3.149-.036 3.146 17.04 9.307 16.91 4.588-.131 7.472-17.17 8.914-17.04s4.457 16.385 10.26 16.385c6.197 0 8.818-16.254 10.26-16.385s4.326 16.91 8.914 17.04c6.161.131 6.158-16.946 9.307-16.91 3.01.029 4.339 19.524 11.404 18.745 3.946-.398 5.899-19.14-2.884-35.785-5.767-14.551-24.12-12.322-37.1-12.977z"/><path nodetypes="ccc" d="m352.22 286.25c3.504 5.887 30.835 5.747 32.377 5.747s25.369.28 30.975-5.466"/><path nodetypes="ccccc" d="m378.62 224.86v58.03s.314 3.24 5.124 3.345 5.541-2.718 5.541-3.137l-.209-58.34"/><path nodetypes="cccccscc" d="m384.25 231.59c21.864-1.121 28.383 11.774 34.55 14.577s8.97 3.924 17.38 3.363c8.409-.56-14.577 14.02-14.577 14.577l8.41 15.14c-7.849 1.121-22.713-6.125-28.592-10.09-6.65-3.927-14.02-1.682-16.819-2.243l-.352-35.32z"/></g></g><path stroke-width="1.674" d="m313.4 264.67c0 4.333-3.893 7.849-8.689 7.849-4.797 0-8.69-3.516-8.69-7.849 0-4.332 3.893-7.848 8.69-7.848 4.796 0 8.689 3.516 8.689 7.848z" transform="matrix(.85253 0 0 .90201 235.71-138.5)"/></g></g><g fill="#fdd114" stroke="#cf1126" stroke-width=".375" transform="matrix(.5873 0 0 .58735 269.69-202.36)"><g transform="translate(0 295.17)"><path nodetypes="cssccccccccsccc" d="m249.32 508.25c-1.666 2.331-3.103-3.799-8.827.499-3.228 2.759-4.521 6.987-4.498 15.822.02 7.491 4.331 12.492 6.83 11.992 3.83-.5 1.831-9.66 5.995-11.325 5.996-2.832 14.49 1.498 15.989 6.994s-2.832 11.492-7.495 10.826c-2.665-.999 1.499-4.829 1.832-6.495.333-1.665.832-7.162-3.165-8.66-3.997-1.499-3.33 3.997-3.497 5.496-.166 1.499-2.998 6.162-6.162 5.995-3.164-.166-8.193-.149-13.158-5.495-2.632-2.743-5.829-10.16-2.997-19.487 2.831-9.326 7.661-10.159 10.326-10.326 2.664-.166 9.493 1.499 8.827 4.164z"/><path nodetypes="cscs" d="m242.49 547.06c-2.779-1.485 1.045-6.896-6.162-4.996-2.9.808 4.33 9.16 7.494 9.494 3.498-.334 2.523-2.604-1.332-4.498z"/><path nodetypes="csccssscssscccc" d="m250.15 551.56c1.498 6.828 2.917 6.249 3.164 9.659.124 4.356-7.329 2.498-8.328 4.496-.999 1.999-2.331 7.162 2.498 7.495 4.83.333 11.762-1.523 13.157 1.832 3.761 9.443 11.782 8.07 15.522 6.605 4.23-1.693 14.185-10.664 16.455-11.435 3.38-1.238-3.164-3.664-6.994-.333-.999 1-9.327 9.494-13.657 9.66-3.163.352-8.06-7.666-7.828-10.492.333-1.999 7.62-.35 8.661-4.497.775-2.963.832-6.163-1.499-6.329-2.332-.167-13.324 1.332-13.657-.333-1.999-4.83 1.999-6.828.5-8.161-1.666-.666-7.828-1.665-7.994 1.833z"/><path nodetypes="csssssccs" d="m287.18 578.04c-3.524 3.691-12.801 9.6-12.801 13.774 0 2.366 2.589 6.075 4.73 6.957 3.196 1.259 8.098.944 11.827-1.948 4.217-3.426 6.114-6.899 4.314-7.513-6.378-1.823-6.539 6.968-9.601 7.235-2.925.243-7.374-4.453-1.53-10.297 5.843-5.843 13.914-11.687 13.635-13.357-.278-1.669-8.05 2.6-10.574 5.149z"/></g><path nodetypes="ccs" d="m259.35 585.69c-.261 2.351 5.983 2.365 7.096.278.834-1.53-6.818-2.643-7.096-.278z" transform="translate(12.662 312)" id="1"/><path nodetypes="cssssssss" d="m273.84 583.06c-3.524 3.691.417 7.887 3.109 11.326 1.491 1.837 4.915 3.627 7.06 4.509 3.196 1.259 9.566.822 13.295-2.07 4.217-3.426 4.55-9.443 1.989-9.471-6.619-.074-2.01 8.804-5.073 9.07-2.925.243-11.126-1.606-15.12-10.05-2.279-4.979 4.202-5.931 3.232-8.094-.988-2.324-5.964 2.233-8.493 4.782z" transform="translate(19.2 316.18)"/><use nodetypes="ccs" transform="matrix(.74604-.6659.6659.74604-490.48 410.33)" xlink:href="#1"/><g transform="translate(0 295.17)"><path nodetypes="cccccccccssscs" d="m319.56 621.31c-.19 2.708.612 6.364-2.57 6.487-3.182.122-7.221-4.162-10.403-4.04-3.182.122-4.529 2.57-4.162 3.917.367 1.346 5.875 2.937 15.299 2.325s7.343 5.14 13.952 4.65c6.609-.489 7.588-2.692 7.099-4.16-.49-1.469-6.119-.49-8.2-.857-2.081-.368-5.752-3.672-6.242-6.487-.489-2.815-.489-7.667 1.958-7.71 4.529-.079 2.437 4.115 2.61 5.587.153 1.303 1.634 2.654 3.632.287 2.653-3.141 1.224-8.08-1.346-9.791s-11.148 3.2-11.627 9.791z"/><path nodetypes="cssssscccccccccscsccccsccccccsccsscscss" d="m342.93 621.8c-.482 4.853-3.955 5.206-3.549 6.976.502 2.034 1.759 2.672 2.57 7.71.459 2.484 3.549 3.537 7.466 3.305 3.201-.088 5.389-4.424 7.465-4.284 2.935.157.49 6.801 7.344 6.732 5.507-.052 6.854-4.774 8.812-4.896 1.958-.123 1.713 5.507 6.242 5.507 4.528 0 6.486-5.14 8.567-5.262 2.203.122 2.203 5.507 8.934 5.14 6.732-.368 11.75-1.346 13.341-2.692 1.591-1.347 2.325-5.753 4.528-5.998 2.203-.244 5.63 4.161 8.69 4.161s9.423-7.709 11.381-7.832c1.959-.122 3.55 4.773 7.956 4.773 6.854-.122 7.655-9.03 10.847-9.454 5.754-.56 5.981-2.907 6.287-3.519.612-1.714-.044-9.749-1.351-13.418-.635-1.936-7.95-18.281-11.254-18.648-3.305-.367-2.326 4.406-.368 7.221 1.959 2.815 11.994 15.91 10.648 19.704-1.346 3.795-8.445-1.591-14.07-1.591-7.833 0-12.592 15.836-18.11 16.4-2.425.26-5.02-2.08-4.16-3.794 1.591-2.447 3.426-8.322-2.693-7.465-6.119.856-12.361 3.671-11.382 6.976.979 3.304 4.651 6.609.612 7.955s-11.01 1.714-14.442.612c-3.427-1.101-1.347-8.812-3.427-8.812-2.325 0-2.447 9.06-5.752 9.302-3.304.244-6.242-1.102-6.976-3.672-.735-2.57 1.224-5.752-.979-6.119-2.203-.368-4.407 10.158-7.711 9.913s-3.427-.979-5.385-3.06c-1.958-2.08 1.713-9.179-1.591-9.791-3.305-.612-6.61 10.526-8.812 10.404-2.204-.123-5.508-.245-6.487-2.448-.49-1.102-.353-7.993-.243-10.787-.061-1.322-3.182-.741-2.939.751z"/><path nodetypes="cscs" d="m454.18 591.81c6.03 9.131 11.463 21.479 14.809 22.15 2.228.327-6.977-16.521-10.04-20.316-2.57-3.916-9.961-9.795-4.773-1.836z"/></g><path d="m342.16 613.74c-1.144 2.287-.735 4.493 1.225 4.166s4.492-4.166 3.839-4.901-3.512-1.388-5.064.735z" transform="matrix(.78722 0 0 .96873 73.02 314.67)"/><g transform="translate(0 295.17)"><path nodetypes="ccccsscs" d="m471.9 595.86c-.021 4.951 3.485 10.551 10.01 10.198 6.525-.352 13.679-7.568 14.208-14.974s-8.612-12.843-10.904-11.256c-2.293 1.587.86 7.11 6.716 7.451 2.508.152 1.689 5.056-3.116 8.936-5.04 3.98-12.489 3.904-14.312 1.158-1.41-3.88-2.694-3.907-2.601-1.513z"/><path nodetypes="css" d="m475.83 580.86c-.954 1.961 1.035 6.481 3.192 6.281 2.187-.214-2.492-7.579-3.192-6.281z"/><path nodetypes="cccscsssssscccccss" d="m494.98 577.35c1.27 2.937 2.78 7.414 5.457 7.414 2.678 0 4.84.721 4.84 2.986s-6.98 9.806-7.208 12.357c-.389 4.348 2.78 4.119 4.325 1.75 1.544-2.368 5.721-13.507 6.59-16.579.378-2.428 3.38-6.992 3.501-11.742-.192-5.352 4.736-1.026 7.105-.82 2.17.095 4.531-3.913 4.84-6.796.309-2.884-2.266-3.398-2.266-5.972 0-1.442 2.754-6.076 2.883-9.165.307-2.732-5.354-10.606-7.722-10.503-1.957.103-.309 2.986.824 4.222 1.132 1.236 4.01 3.81 2.986 6.075-1.854 4.428-10.916 5.561-11.327 10.298-.412 3.398.411 14.11-2.369 14.11s-5.056-6.69-9.37-6.694c-4.838-.129-4.092 6.825-3.089 9.06z"/><path nodetypes="cssss" d="m502.09 536.68c.133 1.907 4.119 10.194 6.487 10.194 3.398 0-1.545-3.912-1.236-5.354s5.177-3.614 3.192-4.119c-3.55-1.087-8.619-3.242-8.443-.721z"/><path nodetypes="ccccc" d="m501.78 525.97c.721 2.677 11.738 6.693 16.475 8.03s10.503 7 12.666 5.148c2.162-1.853-14.519-8.443-16.99-9.37s-12.666-6.487-12.151-3.81z"/><path nodetypes="cccc" d="m535.04 543.27c4.119.102 1.853-8.03.823-9.989-1.029-1.957-2.574 3.707-2.368 5.355.206 1.647.309 4.531 1.545 4.634z"/><path nodetypes="cscss" d="m511.05 502.8c-.035 1.843 11.379.535 16.682 1.956 2.288.641 10.09 4.839 11.532 3.81 1.648-2.163-10.606-6.796-17.608-6.796-2.267.034-10.566-1.143-10.606 1.03z"/><path nodetypes="csscsssss" d="m508.06 508.05c-2.043 2.187 6.884 4.633 14.828 4.942 7.913.309 13.04 5.063 12.357 8.547-1.133 5.87-11.02 2.059-9.782 5.252.72 2.471 5.067 1.564 5.56 4.222.341 2.678 3.131 3.149 2.982-.152-.016-2.627 6.131-6.954 5.977-8.189-.309-2.471-4.02-11.12-13.49-12.05-9.473-.926-15.824-5.491-18.432-2.574z"/></g></g><g fill="#cf1126"><g stroke="#cf1126" stroke-width=".073"><path nodetypes="css" d="m419.37 303.33c-.746-.431-3.405 1.959-2.451 2.492 1.81 1.025 3.585-1.858 2.451-2.492z"/><path nodetypes="css" d="m425.08 300.49c-1.291-.161-1.915 2.58-.835 2.743 2.744.379 3.285-2.447.835-2.743z"/><path nodetypes="csss" d="m564.26 308.18c-.611-.003-2.54.847-1.874 2.178.665 1.33 2.574 1.362 3.447.605.778-.737.602-2.77-1.573-2.783z"/><path nodetypes="csss" d="m571.82 302.37c.195 1.463 1.265 1.226 2.116.907.968-.423 1.25-1.703.303-2.177-.988-.494-2.619.226-2.419 1.27z"/><path nodetypes="cccs" d="m528.12 336.58c-1.303 2.878-.181 5.693 1.897 5.151s4.157-4.519 2.621-5.784-3.653-1.279-4.518.633z"/></g><g transform="matrix(.5873 0 0 .58735 269.69-198.82)"><path nodetypes="ccccccc" stroke-width="1.25" d="m140.72 708.26c-8.256-.75-27.02-4.503-27.769-.75-.75 3.752 10.132 47.657 15.761 53.28 5.628 5.629 31.896 17.637 34.523 16.14 2.626-1.501-5.254-28.894-8.256-33.772-3-4.879-12.01-22.515-11.257-23.266.75-.75-3.378-11.633-3-11.633" transform="translate(.75)" id="2"/><g stroke="#000" stroke-width="2.5"><path nodetypes="ccc" d="m124.24 411.54c2.01-10.563 14.294 2.08 13.08 15.841-.599 4.669 2.01 9.812 4.527 12.327" transform="translate(.708 295.23)" id="3"/><path nodetypes="ccc" d="m134.8 412.04l-.461.614c6.16-10.424 12.12 4.416 13.04 21.518" transform="translate(.708 295.23)" id="4"/><path nodetypes="cccc" d="m113.62 410.41c-.356-8.536 13.509-10.988 12.651 19.87 6.05 3.912 13.16 18.85 13.515 24.19 4.537 1.067 12.09 6.646 13.933 11.27" transform="translate(.708 295.23)" id="5"/><path nodetypes="cssscssccccsc" d="m147.62 581.4c.648-23.495 1.018-73.806-1.442-79.26-4.326-10.1-26.09-21.818-32.722-37.702-6.639-16.804-12.299-55.13-9.604-59.754 3.529-6.659 15.295 8.181 12.09 24.542 14.228 16.717 11.237 26.675 13.871 28.81 8.774 6.757 22.17 11.382 24.541 17.428 4.877 10.817-1.066-15.295-4.979-20.63-3.912-5.335-10.67-17.07-6.05-19.917 4.623-2.846 12.804 4.624 13.871 6.758s12.09 14.227 15.294 17.07c5.691 4.268 20.06 13.809 19.778 21.988-.015 13.222 1.159 100.21 1.159 100.21" transform="translate(.708 295.23)" id="6"/><path nodetypes="ccscc" d="m144.97 612.37s-.09 9.457-.089 9.635c4.104 4.996 21.234 5.552 25.07 5.531 3.752-.11 19.87.178 23.617-5.977.089-.178.232-8.03.232-10.192" transform="translate(.708 295.23)" id="7"/><path nodetypes="csccc" d="m144.2 585.22c-4.745 1.055-5.985 6.852-2.637 11.07 2.715 3.424 13.973 7.381 26.891 7.646 12.917.262 30.05-4.219 30.844-11.337.264-7.118-6.421-6.684-5.63-6.42" transform="translate(.708 308.41)" id="8"/><path nodetypes="csccc" d="m144.2 585.31c-4.745 1.055-5.632 7.03-2.284 11.251 2.715 3.424 14.15 8.172 27.06 8.436 12.917.263 29.26-5.01 30.05-12.13.264-7.118-4.652-6.505-5.01-6.327" transform="translate(.708 295.23)" id="9"/><path nodetypes="cccscsc" d="m171.09 592.6c17.13.264 28.21-8.172 28.21-12.653 0-4.482-5.536-4.746-8.964-3.428-3.427 1.318-8.699 4.665-19.771 4.745-11.334.345-21.354-7.908-24.781-7.645-3.427.264-6.112 3.98-5.01 7.909 1.357 3.897 13.445 11.599 30.32 11.07z" transform="translate(.708 295.23)" id="A"/></g></g><g transform="matrix(.5873 0 0 .58735 269.69-198.82)"><use nodetypes="ccccccc" transform="matrix(-1 0 0 1 770.83 0)" xlink:href="#2"/><g stroke="#000" stroke-width="2.5" transform="matrix(-1 0 0 1 770.84 0)"><use nodetypes="ccc" xlink:href="#3"/><use nodetypes="ccc" xlink:href="#4"/><use nodetypes="cccc" xlink:href="#5"/><use nodetypes="cssscssccccsc" xlink:href="#6"/><use nodetypes="ccscc" xlink:href="#7"/><use nodetypes="csccc" xlink:href="#8"/><use nodetypes="csccc" xlink:href="#9"/><use nodetypes="cccscsc" xlink:href="#A"/></g></g></g></g></g></svg>