<svg xmlns="http://www.w3.org/2000/svg" viewBox="0 0 640 480"><g stroke-width="1.25"><g><path fill="#229e45" fill-rule="evenodd" d="m0,0h640v480h-640z"/></g><g transform="matrix(.9811 0 0 .9811 64.633 -11.162)"><g fill-rule="evenodd"><path fill="#f8e509" d="m261.72,455.71 307.29-199.44-309.15-199.98-308.3,200.46 310.16,198.96z"/><path fill="#2b49a3" d="m293.25,149.98c0,41.878-34.418,75.827-76.874,75.827-42.457,0-76.874-33.949-76.874-75.827s34.418-75.827 76.874-75.827c42.457,0 76.874,33.949 76.874,75.827z" transform="matrix(1.6911 0 0 1.7117 -100.3 -.71516)"/><g fill="#ffffef"><path d="m228.54,107.68-2.58-1.46-2.68,1.3 .6-2.92-2.07-2.14 2.96-.34 1.39-2.619 1.24,2.709 2.92,.52-2.19,2.01z" transform="matrix(1.5567 0 0 1.5877 -132.89 162.78)"/><path d="m228.54,107.68-2.58-1.46-2.68,1.3 .6-2.92-2.07-2.14 2.96-.34 1.39-2.619 1.24,2.709 2.92,.52-2.19,2.01z" transform="matrix(1.5567 0 0 1.5877 -45.771 184.84)"/><path d="m228.54,107.68-2.58-1.46-2.68,1.3 .6-2.92-2.07-2.14 2.96-.34 1.39-2.619 1.24,2.709 2.92,.52-2.19,2.01z" transform="matrix(1.3448 0 0 1.3716 -34.894 172.87)"/><path d="m228.54,107.68-2.58-1.46-2.68,1.3 .6-2.92-2.07-2.14 2.96-.34 1.39-2.619 1.24,2.709 2.92,.52-2.19,2.01z" transform="matrix(1.3204 0 0 1.3467 58.669 162.88)"/><path d="m228.54,107.68-2.58-1.46-2.68,1.3 .6-2.92-2.07-2.14 2.96-.34 1.39-2.619 1.24,2.709 2.92,.52-2.19,2.01z" transform="matrix(1.5567 0 0 1.5877 -84.912 110.55)"/><path d="m228.54,107.68-2.58-1.46-2.68,1.3 .6-2.92-2.07-2.14 2.96-.34 1.39-2.619 1.24,2.709 2.92,.52-2.19,2.01z" transform="matrix(1.5567 0 0 1.5877 -192.18 70.278)"/><path d="m228.54,107.68-2.58-1.46-2.68,1.3 .6-2.92-2.07-2.14 2.96-.34 1.39-2.619 1.24,2.709 2.92,.52-2.19,2.01z" transform="matrix(1.5567 0 0 1.5877 -179.28 123.85)"/><path d="m228.54,107.68-2.58-1.46-2.68,1.3 .6-2.92-2.07-2.14 2.96-.34 1.39-2.619 1.24,2.709 2.92,.52-2.19,2.01z" transform="matrix(1.3751 0 0 1.4025 -3.9188 70.499)"/><path d="m228.54,107.68-2.58-1.46-2.68,1.3 .6-2.92-2.07-2.14 2.96-.34 1.39-2.619 1.24,2.709 2.92,.52-2.19,2.01z" transform="matrix(1.083 0 0 1.1046 55.481 137.43)"/><path d="m228.54,107.68-2.58-1.46-2.68,1.3 .6-2.92-2.07-2.14 2.96-.34 1.39-2.619 1.24,2.709 2.92,.52-2.19,2.01z" transform="matrix(1.0393 0 0 1.06 -79.913 190.38)"/><path d="m228.54,107.68-2.58-1.46-2.68,1.3 .6-2.92-2.07-2.14 2.96-.34 1.39-2.619 1.24,2.709 2.92,.52-2.19,2.01z" transform="matrix(.84693 0 0 .79301 167.62 231.47)"/><path d="m228.54,107.68-2.58-1.46-2.68,1.3 .6-2.92-2.07-2.14 2.96-.34 1.39-2.619 1.24,2.709 2.92,.52-2.19,2.01z" transform="matrix(1.0393 0 0 1.06 -79.913 190.38)"/><path d="m228.54,107.68-2.58-1.46-2.68,1.3 .6-2.92-2.07-2.14 2.96-.34 1.39-2.619 1.24,2.709 2.92,.52-2.19,2.01z" transform="matrix(1.0393 0 0 1.06 -79.913 190.38)"/><path d="m228.54,107.68-2.58-1.46-2.68,1.3 .6-2.92-2.07-2.14 2.96-.34 1.39-2.619 1.24,2.709 2.92,.52-2.19,2.01z" transform="matrix(1.0393 0 0 1.06 -37.226 190.37)"/><path d="m228.54,107.68-2.58-1.46-2.68,1.3 .6-2.92-2.07-2.14 2.96-.34 1.39-2.619 1.24,2.709 2.92,.52-2.19,2.01z" transform="matrix(1.0393 0 0 1.06 -42.53 204.57)"/><path d="m228.54,107.68-2.58-1.46-2.68,1.3 .6-2.92-2.07-2.14 2.96-.34 1.39-2.619 1.24,2.709 2.92,.52-2.19,2.01z" transform="matrix(1.0393 0 0 1.06 46.108 178.72)"/><path d="m228.54,107.68-2.58-1.46-2.68,1.3 .6-2.92-2.07-2.14 2.96-.34 1.39-2.619 1.24,2.709 2.92,.52-2.19,2.01z" transform="matrix(1.0393 0 0 1.06 20.098 178.71)"/><path d="m228.54,107.68-2.58-1.46-2.68,1.3 .6-2.92-2.07-2.14 2.96-.34 1.39-2.619 1.24,2.709 2.92,.52-2.19,2.01z" transform="matrix(.65125 0 0 .66422 38.233 212.26)"/><path d="m228.54,107.68-2.58-1.46-2.68,1.3 .6-2.92-2.07-2.14 2.96-.34 1.39-2.619 1.24,2.709 2.92,.52-2.19,2.01z" transform="matrix(1.0393 0 0 1.06 120.35 213.95)"/><path d="m228.54,107.68-2.58-1.46-2.68,1.3 .6-2.92-2.07-2.14 2.96-.34 1.39-2.619 1.24,2.709 2.92,.52-2.19,2.01z" transform="matrix(.86091 0 0 .88028 139.46 236.14)"/><path d="m228.54,107.68-2.58-1.46-2.68,1.3 .6-2.92-2.07-2.14 2.96-.34 1.39-2.619 1.24,2.709 2.92,.52-2.19,2.01z" transform="matrix(.80183 0 0 .81855 163.18 242.54)"/><path d="m228.54,107.68-2.58-1.46-2.68,1.3 .6-2.92-2.07-2.14 2.96-.34 1.39-2.619 1.24,2.709 2.92,.52-2.19,2.01z" transform="matrix(.7723 0 0 .78768 199.27 220.26)"/><path d="m228.54,107.68-2.58-1.46-2.68,1.3 .6-2.92-2.07-2.14 2.96-.34 1.39-2.619 1.24,2.709 2.92,.52-2.19,2.01z" transform="matrix(1.0086 0 0 .97287 105.45 240.62)"/><path d="m228.54,107.68-2.58-1.46-2.68,1.3 .6-2.92-2.07-2.14 2.96-.34 1.39-2.619 1.24,2.709 2.92,.52-2.19,2.01z" transform="matrix(.91998 0 0 .97287 125.85 252.28)"/><path d="m228.54,107.68-2.58-1.46-2.68,1.3 .6-2.92-2.07-2.14 2.96-.34 1.39-2.619 1.24,2.709 2.92,.52-2.19,2.01z" transform="matrix(.7723 0 0 .78768 139.93 245.86)"/><path d="m228.54,107.68-2.58-1.46-2.68,1.3 .6-2.92-2.07-2.14 2.96-.34 1.39-2.619 1.24,2.709 2.92,.52-2.19,2.01z" transform="matrix(.7723 0 0 .78768 121.49 245.86)"/><path d="m228.54,107.68-2.58-1.46-2.68,1.3 .6-2.92-2.07-2.14 2.96-.34 1.39-2.619 1.24,2.709 2.92,.52-2.19,2.01z" transform="matrix(.7723 0 0 .78768 90.179 218.48)"/><path d="m228.54,107.68-2.58-1.46-2.68,1.3 .6-2.92-2.07-2.14 2.96-.34 1.39-2.619 1.24,2.709 2.92,.52-2.19,2.01z" transform="matrix(.65415 0 0 .66718 120.67 287.26)"/><path d="m228.54,107.68-2.58-1.46-2.68,1.3 .6-2.92-2.07-2.14 2.96-.34 1.39-2.619 1.24,2.709 2.92,.52-2.19,2.01z" transform="matrix(1.5567 0 0 1.5877 -132.89 97.877)"/></g><path stroke-opacity=".503" fill="#fff" d="m387.05,302.7c1.9812-5.1813 4.537-12.995 5.8942-20.167-69.048-60.656-146.02-91.728-243.28-85.335-3.4867,6.6859-6.2778,13.683-8.6308,21.256 115.24-10.994 199.71,40.026 246.02,84.246z"/></g><g stroke-opacity=".502" fill="#309e3a"><path d="m356.01,268.6 2.4671,1.3471c-.387,.8747-.491,1.6398-.3154,2.292 .1824,.659 .636,1.2324 1.3589,1.722 .7673,.5238 1.4527,.7532 2.0562,.6915 .6104-.0616 1.0656-.3115 1.3606-.748 .1858-.279 .2626-.5734 .2285-.8798-.0273-.3064-.1961-.6727-.5047-1.0955-.2131-.2858-.7332-.8901-1.5584-1.811-1.0605-1.1828-1.6931-2.1807-1.8977-2.9938-.283-1.1434-.1108-2.1824 .52-3.1187 .4075-.6025 .9548-1.051 1.6436-1.3437 .699-.2944 1.4612-.3612 2.283-.202 .8269,.1609 1.6965,.5494 2.6001,1.1657 1.48,1.0048 2.3734,2.0866 2.6786,3.2437 .312,1.1605 .1211,2.2971-.5746,3.4097l-2.4501-1.5114c.3069-.6778 .3819-1.2632 .2217-1.7562-.1501-.4947-.5609-.9688-1.2327-1.4241-.6905-.469-1.3282-.695-1.9113-.6761-.3768,.012-.6667,.1712-.873,.4776-.1893,.2807-.2319,.6008-.1313,.9603 .1313,.457 .6803,1.2153 1.6556,2.2766 .9719,1.0595 1.6351,1.9256 1.988,2.5966 .3615,.6693 .5251,1.3659 .491,2.0883-.0239,.7206-.2899,1.4549-.7928,2.203-.4569,.6795-1.0724,1.1845-1.8465,1.5217-.7741,.3372-1.601,.4194-2.4842,.2431-.8781-.1797-1.8295-.6179-2.8525-1.3146-1.4902-1.0099-2.404-2.1328-2.7382-3.3635-.3291-1.2358-.1279-2.571 .6104-4.0002z"/><path d="m344.31,260.92 2.52,1.2444c-.3512,.8884-.4246,1.6586-.2234,2.3022 .2114,.6504 .6837,1.2067 1.4271,1.6672 .7894,.4913 1.4816,.6932 2.0818,.6076 .6104-.0873 1.0554-.3526 1.3299-.8011 .1773-.2858 .2404-.5837 .1944-.8884-.0392-.3064-.2234-.6658-.5507-1.0766-.2233-.2773-.7638-.8576-1.6283-1.7459-1.1066-1.14-1.7783-2.1122-2.0153-2.915-.3291-1.1314-.1978-2.1756 .3922-3.1375 .3853-.6179 .9139-1.0869 1.5891-1.407 .6888-.3218 1.4476-.4211 2.2745-.2961 .8338,.1301 1.7169,.4827 2.6445,1.0612 1.5209,.9431 2.4552,1.989 2.8064,3.1324 .358,1.1485 .2131,2.2902-.4348,3.4302l-2.5115-1.4122c.2796-.6881 .3325-1.2752 .1517-1.7613-.1705-.4895-.6002-.9466-1.2873-1.3745-.711-.4416-1.3572-.6402-1.9369-.5974-.3768,.0257-.6598,.1986-.8542,.5135-.1756,.2876-.208,.6059-.0921,.962 .1483,.4519 .728,1.1879 1.7442,2.2098 1.0128,1.0185 1.7118,1.8572 2.0903,2.5128 .3888,.6539 .5797,1.3437 .5746,2.066 .007,.7223-.2319,1.4652-.7025,2.2355-.4297,.6932-1.0281,1.2256-1.7851,1.5953-.7604,.368-1.5857,.4827-2.474,.3423-.8815-.1438-1.8499-.546-2.9019-1.1982-1.5277-.9517-2.4859-2.0352-2.8695-3.2522-.3819-1.2222-.2336-2.5624 .4467-4.0191z"/><path d="m329.83,257.04 7.4168-12.196 9.0076,5.5202-1.2549,2.0643-6.5523-4.0173-1.647,2.7028 6.0988,3.7383-1.2498,2.054-6.0988-3.7366-2.017,3.319 6.7859,4.1594-1.2515,2.0557-9.2377-5.664z"/><path d="m308.74,239.72 1.0997-2.1413 5.5055,2.85-2.595,5.058c-.8048,.2431-1.8158,.3013-3.04,.1729-1.2123-.1318-2.3393-.4656-3.381-1.0048-1.3231-.6847-2.3342-1.5559-3.0332-2.6206-.6957-1.0698-1.0281-2.2474-.9923-3.5381 .0392-1.2975 .37-2.5538 .9957-3.7726 .6769-1.3231 1.5601-2.3536 2.641-3.0982 1.0759-.7412 2.2915-1.1109 3.6368-1.1109 1.0281-.003 2.1449,.3115 3.3538,.9329 1.572,.8148 2.6274,1.7802 3.1645,2.8996 .549,1.1177 .6496,2.3245 .3035,3.6236l-2.7809-.837c.1415-.7155 .058-1.3813-.2541-1.9941-.3018-.6179-.8218-1.116-1.5567-1.4977-1.1185-.5786-2.1875-.683-3.2156-.3115-1.0196,.3697-1.8874,1.253-2.6036,2.6514-.7758,1.508-1.0247,2.8123-.7451,3.9146 .283,1.0938 .9633,1.9222 2.0477,2.4837 .5337,.2756 1.1219,.4485 1.763,.5169 .6513,.0668 1.2447,.0496 1.7868-.0514l.8269-1.6124-2.9275-1.5131z"/><path d="m216.76,216.91 2.0733-14.135 4.2523,.6299 1.1441,10.017 3.9352-9.2688 4.2676,.6299-2.0716,14.137-2.6411-.3903 1.6334-11.128-4.4279,10.715-2.7365-.4057-1.156-11.539-1.6317,11.126-2.6411-.3886z"/><path d="m202.38,215.24 1.3299-14.229 10.506,.9928-.2217,2.4066-7.647-.7206-.2967,3.1546 7.1133,.6693-.2234,2.3981-7.115-.671-.3598,3.8718 7.9129,.7446-.2217,2.3998-10.777-1.0168z"/></g></g><g stroke-opacity=".502"><g transform="matrix(1.3706 -.87733 .87391 1.37599 -130.65496 114.51691)"><path fill="#309e3a" d="m154.79,154.48c.49-.725 1.01-1.26 1.56-1.605 .406-.253 .847-.429 1.319-.529 .476-.098 .928-.103 1.356-.016 .57,.112 1.145,.364 1.724,.755 1.048,.71 1.666,1.602 1.853,2.676 .192,1.078-.105,2.196-.888,3.354-.777,1.148-1.698,1.837-2.763,2.064-1.062,.225-2.116-.016-3.16-.723-1.059-.716-1.681-1.607-1.87-2.673-.187-1.07 .103-2.171 .869-3.303z"/><path fill="#f7ffff" d="m156.31,155.43c-.545,.805-.773,1.543-.683,2.212 .091,.666 .424,1.193 .997,1.58 .572,.387 1.181,.499 1.824,.336 .649-.165 1.252-.66 1.811-1.485 .551-.815 .783-1.545 .696-2.189-.085-.642-.423-1.163-1.015-1.564-.592-.4-1.207-.519-1.846-.357-.636,.159-1.231,.648-1.784,1.467z"/></g><g transform="matrix(1.35686 -.89861 .8951 1.36216 -130.91985 120.07975)"><path fill="#309e3a" d="m160.44,163.42 4.814-7.115 3.023,2.046c.761,.515 1.269,.952 1.524,1.314 .261,.36 .384,.774 .37,1.241s-.163,.91-.448,1.331c-.361,.534-.817,.869-1.367,1.006-.548,.134-1.165,.035-1.851-.297 .188,.391 .31,.764 .363,1.116 .058,.354 .07,.924 .039,1.71l-.07,1.975-1.718-1.162 .009-2.251c.006-.802-.012-1.321-.051-1.555-.038-.238-.115-.434-.232-.589-.115-.157-.337-.348-.668-.571l-.29-.197-2.01,2.97-1.437-.972z"/><path fill="#fff" d="m164.66,160.29 1.063,.719c.689,.467 1.139,.729 1.35,.787 .211,.057 .413,.048 .606-.029s.362-.222 .507-.435c.162-.24 .228-.476 .196-.709-.025-.234-.141-.45-.348-.646-.106-.095-.45-.34-1.032-.734l-1.121-.758-1.221,1.805z"/></g><g transform="matrix(1.39071 -.84484 .84155 1.3962 -126.40679 105.84399)"><path fill="#309e3a" d="m172.42,161.16 2.626,1.776c.592,.401 1.012,.751 1.261,1.052 .334,.405 .544,.866 .629,1.381 .086,.515 .052,1.053-.101,1.615-.152,.558-.452,1.17-.903,1.836-.396,.586-.811,1.041-1.243,1.367-.529,.397-1.065,.644-1.613,.741-.412,.075-.877,.036-1.393-.115-.385-.114-.843-.351-1.374-.71l-2.702-1.828 4.813-7.115z"/><path fill="#fff" d="m173.05,163.33-3.188,4.713 1.073,.725c.4,.272 .706,.445 .914,.52 .272,.099 .532,.131 .778,.095 .25-.034 .53-.177 .841-.429 .314-.254 .657-.656 1.029-1.206s.609-1.006 .712-1.366c.102-.36 .121-.681 .058-.965-.063-.283-.209-.544-.438-.784-.17-.181-.548-.47-1.134-.866l-.645-.437z"/></g><g transform="matrix(1.52178 -.57353 .57128 1.52777 -96.80701 34.0255)"><path fill="#309e3a" d="m200.75,190.69 4.813-7.115 2.306,1.56c.873,.591 1.419,1.012 1.636,1.263 .335,.382 .519,.846 .551,1.391 .034,.542-.141,1.096-.524,1.662-.295,.437-.622,.751-.983,.941-.359,.191-.72,.288-1.082,.294-.357,.004-.68-.052-.97-.168-.388-.164-.908-.466-1.558-.906l-.936-.634-1.816,2.684-1.437-.972z"/><path fill="#fff" d="m206.19,185.75-1.366,2.019 .786,.532c.567,.383 .97,.602 1.211,.656 .242,.055 .469,.039 .683-.047 .217-.084 .397-.231 .539-.442 .175-.259 .244-.523 .206-.794-.039-.272-.16-.507-.364-.706-.15-.149-.483-.398-1.001-.748l-.694-.47z"/></g><g transform="matrix(1.57251 -.4132 .41159 1.57869 -75.85071 -8.32829)"><path fill="#309e3a" d="m207.39,195.18 4.813-7.114 3.024,2.046c.761,.514 1.269,.952 1.524,1.313 .261,.361 .384,.774 .37,1.241s-.163,.911-.448,1.331c-.361,.534-.817,.869-1.367,1.006-.548,.134-1.165,.035-1.851-.296 .188,.391 .31,.763 .363,1.115 .058,.355 .07,.925 .039,1.71l-.07,1.976-1.718-1.162 .009-2.251c.005-.803-.012-1.321-.051-1.556-.038-.237-.115-.433-.232-.588-.115-.158-.337-.348-.668-.572l-.29-.197-2.01,2.971-1.437-.973z"/><path fill="#fff" d="m211.6,192.05 1.063,.719c.689,.466 1.138,.728 1.349,.785 .211,.058 .413,.049 .607-.028 .193-.076 .362-.222 .506-.435 .162-.24 .228-.476 .197-.709-.025-.234-.142-.449-.348-.646-.106-.095-.45-.339-1.032-.733l-1.121-.759-1.221,1.806z"/></g><g transform="matrix(1.55642 -.4709 .46905 1.5625 -82.25729 8.86618)"><path fill="#309e3a" d="m216.64,196.32c.491-.725 1.011-1.26 1.559-1.605 .408-.253 .847-.43 1.321-.529 .476-.098 .928-.103 1.355-.017 .571,.112 1.145,.364 1.724,.756 1.049,.709 1.666,1.601 1.854,2.676 .191,1.077-.105,2.195-.889,3.353-.777,1.149-1.698,1.837-2.762,2.065-1.062,.225-2.116-.017-3.161-.724-1.058-.715-1.681-1.606-1.87-2.672-.187-1.07 .103-2.171 .869-3.303z"/><path fill="#fff" d="m218.16,197.28c-.545,.805-.773,1.542-.683,2.212 .092,.665 .424,1.192 .997,1.58 .573,.387 1.18,.499 1.824,.335 .649-.164 1.253-.659 1.811-1.484 .552-.816 .784-1.545 .696-2.19-.084-.641-.423-1.163-1.015-1.563-.592-.401-1.207-.52-1.845-.357-.636,.159-1.231,.648-1.785,1.467z"/></g><g transform="matrix(1.6143 -.19117 .19042 1.62068 -37.11688 -64.05899)"><path fill="#309e3a" d="m230.03,210.5 4.813-7.115 3.024,2.046c.76,.515 1.268,.952 1.524,1.314 .26,.36 .384,.774 .37,1.241s-.164,.91-.448,1.331c-.361,.534-.817,.869-1.368,1.006-.548,.134-1.164,.035-1.85-.297 .188,.391 .309,.764 .363,1.116 .057,.355 .07,.924 .039,1.71l-.071,1.975-1.717-1.162 .008-2.25c.005-.804-.011-1.322-.051-1.556-.037-.237-.115-.434-.232-.589-.114-.157-.337-.348-.667-.571l-.291-.197-2.009,2.97-1.437-.972z"/><path fill="#fff" d="m234.24,207.36 1.063,.719c.689,.467 1.139,.728 1.35,.786 .21,.058 .413,.048 .607-.028 .193-.077 .361-.222 .506-.436 .162-.239 .227-.475 .197-.708-.026-.234-.142-.45-.348-.646-.106-.095-.45-.34-1.033-.734l-1.12-.758-1.222,1.805z"/></g><g transform="matrix(1.62549 0 0 1.63186 4.83005 -108.6284)"><path fill="#309e3a" d="m259.17,225.1c.49-.725 1.01-1.26 1.56-1.605 .407-.253 .847-.429 1.32-.529 .477-.097 .928-.103 1.355-.017 .571,.113 1.146,.365 1.725,.757 1.048,.709 1.666,1.601 1.854,2.676 .191,1.077-.106,2.194-.89,3.353-.777,1.148-1.697,1.837-2.761,2.065-1.063,.224-2.116-.017-3.162-.724-1.057-.716-1.681-1.607-1.87-2.673-.187-1.07 .103-2.171 .869-3.303z"/><path fill="#fff" d="m260.69,226.05c-.545,.806-.773,1.543-.684,2.212 .093,.666 .425,1.192 .997,1.58 .573,.387 1.181,.499 1.825,.336 .649-.165 1.253-.659 1.811-1.485 .551-.815 .783-1.545 .695-2.189-.085-.642-.423-1.163-1.015-1.564s-1.207-.52-1.845-.357c-.636,.159-1.23,.649-1.784,1.467z"/></g></g><g transform="matrix(.9811 0 0 .9811 64.633 -11.162)"><path stroke-opacity=".502" fill="#309e3a" d="m241.76,219.84 2.2915-10.031 7.4083,1.7083-.3853,1.6946-5.3895-1.241-.5132,2.2235 5.0195,1.1571-.3887,1.6877-5.0127-1.1537-.6257,2.7284 5.5805,1.2855-.3853,1.6912-7.5992-1.7511z"/></g></g></svg>