<svg xmlns="http://www.w3.org/2000/svg" viewBox="0 0 640 480" xmlns:xlink="http://www.w3.org/1999/xlink"><defs><path id="1" d="m200.16 613.18l4.71-7.06-12.952-2.355 9.42-9.419-12.952-4.71 12.952-9.419-12.952-7.07 14.13-5.887-7.06-11.774 14.13 2.355-5.887-14.13 16.484 7.07v-18.839l11.774 12.952 9.419-16.484 7.06 15.306 14.13-16.484 4.71 12.952 21.19-10.597-5.887 16.484 22.371-9.419-4.71 18.839 21.19-9.42-8.242 17.662 21.19 1.177-17.662 10.597 17.662 7.06-16.484 9.42 14.13 11.774c-45.13 20.801-79.67 27.473-131.87 9.419z"/><path id="2" d="m371.33-24.981c0 3.219-4.1 5.828-9.158 5.828-5.058 0-9.158-2.609-9.158-5.828s4.1-5.828 9.158-5.828c5.058 0 9.158 2.609 9.158 5.828z"/><path id="3" d="m336.61 432.28c35.433 124.02-53.15 106.3-53.15 141.73 0-35.433-88.58-17.717-53.15-141.73" stroke="#000" fill="none"/><path id="4" d="m336.61 432.28c70.866 70.867-14.03 141.73-53.15 141.73-39.12 0-124.02-70.866-53.15-141.73-17.717 70.867 53.15 88.58 53.15 124.02-.0001-35.433 70.866-53.15 53.15-124.02" fill-rule="evenodd" fill="#006a00"/><clipPath id="0"><path d="m0 0h640v480h-640z"/></clipPath></defs><g clip-path="url(#0)"><g fill-rule="evenodd"><path fill="#c60000" d="m-40 0h720v480h-720z"/><path fill="#003bb2" d="m-40 68.57h720v342.86h-720z"/></g><g transform="matrix(.36443 0 0 .36443 185.28 33.681)"><path fill="#fff" fill-rule="evenodd" d="m762.63 606.1c0 207.84-168.49 376.32-376.32 376.32-207.84 0-376.32-168.49-376.32-376.32 0-207.84 168.49-376.32 376.32-376.32 207.84 0 376.32 168.49 376.32 376.32" transform="translate(-16.651-39.963)"/><g transform="matrix(1.27 0 0 1.2716-11.328-118.57)"><g stroke="#000"><g fill-rule="evenodd"><g transform="matrix(.43028 0 0 .36761 383.92 337.08)"><path fill="#030" stroke-width="3.75" d="m0 318.04c6.927 1.019 14.391 1.206 23.312 0 7.405 1.994 12.863 5.647 18.317 8.326 3.057 5.665 7.339 13.999 11.656 18.316 1.874 6.872 4.641 9.755 8.326 16.652.918 6.795 3.182 13.617 0 19.981-3.795 4.745-9.758 7.515-14.986 9.991-6.902 3.688-10.937 5.05-19.982 6.661-7.443 1.329-15.03 1.665-23.312 1.665-8.01-1.431-14.192-2.757-21.647-3.33-7.414-1.324-15.898-2.01-23.312-3.331-4.813-2.815-11.03-5.126-16.651-6.66-3.906-3.725-9.56-7.953-14.986-11.656-4.189-7.502-8-10.206-11.656-16.652-3.316-4.876-4.891-11.169-4.995-19.981 2.625-5.344 6.961-10.53 9.991-14.986 5.197-3.433 11.07-7.989 18.316-11.656 9.784-.346 13.604-3.214 23.312-3.331h24.977c5.652.566 8.442 5.584 13.321 9.991z" transform="translate(-68.27-29.972)"/><path fill="#520900" stroke-width="1.25" d="m273.08 659.39c-6.66-38.3-16.652-133.21-16.652-174.84 1.665-31.639 121.56-139.87 124.89-151.53 3.33-11.656 64.94-99.91 74.931-126.55-24.977 18.316-66.61 98.24-74.931 106.57-8.326 8.326 18.316-83.26 9.991-111.56-8.326 33.3-21.647 118.22-31.638 126.55-4.995 4.996-91.58 104.9-101.57 101.57-9.991-3.33-36.633-19.981-31.637-29.972 4.995-9.991 71.6-71.6 74.931-93.25s8.326-73.27 14.986-78.26c6.661-4.996 16.652-29.973 24.977-49.955-21.646 9.991-24.977 39.964-33.3 41.629-8.326 1.665-28.31-33.3-28.31-33.3s13.321 38.3 14.986 46.624c1.666 8.326-6.66 63.27-11.656 69.936-4.995 6.661-41.628 53.28-48.29 54.949-6.66 1.666-24.977-76.6-24.977-91.58s13.321-73.27 0-76.6c-8.326 0-9.991 68.27-14.986 68.27-4.996 0-16.652-68.27-16.652-68.27s-6.659 31.637-3.33 53.28c-9.991 1.666-36.633-39.962-36.633-39.962s49.954 86.59 59.946 89.92c9.99 4.995 19.981 68.27 18.316 71.6s-49.954-16.651-59.945-23.312c-9.991-6.66-29.973-79.927-29.973-79.927s9.991 71.6-1.665 61.61c-11.656-9.991-29.972-18.317-39.963-33.3-9.991-14.986-4.995-76.6-4.995-76.6s-16.651 54.95-23.312 54.95c-6.661 0-28.31-73.27-28.31-73.27s3.33 79.927 13.321 84.92c9.991 4.995 159.85 104.9 161.52 114.9 1.665 9.99 19.982 48.29 29.973 59.944-1.666 21.647 6.66 161.52 9.991 194.82l29.972 9.991z" transform="translate(-401.3-119.89)"/><g fill="#030" stroke-width="3.75"><path d="m-338.02 133.21c1.849 6.416 2.528 12.146 11.656 14.986 5.05 1.925 15.01 4.529 19.982 6.661 5.242 2.483 11.14 5.593 18.316 6.66 5.394 1.798 14.58 3.65 21.647 4.996 7.443 1.329 15.03 1.665 23.312 1.665 9.557-1.707 13.811-3.429 19.981-8.326 1.851-6.786 4.343-9.832 4.996-18.317.567-7.944 1.665-14.819 1.665-23.311-1.541-4.623-1.789-15.359-3.33-19.982-5.577-5.466-7.05-8.648-16.652-11.656-7.476-3.382-14.307-3.33-23.312-3.33-6.961 2.321-15.344 1.665-23.312 1.665h-23.311c-6.973 1.516-12.292 2.762-18.317 6.661-8.133 3.673-9.338 6.317-13.321 14.987-2.934 8.8-3.036 15.415 0 26.642z" transform="translate(-78.26-63.27)"/><path d="m-329.7 191.49c0-2.781-6.02 2.689-8.326 4.995-5.392 3.774-7.647 8.815-8.326 18.317-2.502 5.189 0 13.714 0 21.646 0 9.181.062 15.585 4.996 19.982 5.598 3.445 8.289 4.995 18.316 4.995h23.312 23.312c5.896-1.965 13.09-2.953 19.982-4.995 7.705-4.085 13.07-4.517 21.646-6.661 4.883-4.237 11.635-8.599 19.982-9.99 9.547-.455 15.257-3.788 21.647-8.326 8.216-2.054 15.635-6.365 21.647-9.991 4.837-3.289 8.309-7.415 11.656-13.321 3.396-7.925 4.482-12.895-1.665-21.647-12.143-4.415-6.108-9.191-14.987-13.321-4.062-2.453-13.524-5.673-18.316-8.326-8.293.615-14.192 2.679-23.312 3.331-4.71 2.355-14.368 1.665-21.647 1.665h-26.642c-7.968 0-16.35-.656-23.312 1.665-6.667 1.818-9.985 4.842-16.651 6.66-4.393 2.987-11.507 5.411-16.652 8.326l16.652-8.326c-4.393 2.987-11.507 5.411-23.312 13.322z" transform="translate(-83.26-53.28)"/><path d="m-186.5 49.949c3.314 0-5.2 3.98-8.326 6.66-4.01 7.06-4.474 13.423-6.661 19.982-2.565 5.771-5.726 13.07-6.66 19.982-3.139 7.493-4.878 10.225-4.996 19.981 0 7.678-.09 16.38 1.665 21.647 5.05 6.362 9.899 9.976 18.317 14.986 7.207 2.495 12.49 3.984 19.982 4.996h23.312c5.267 1.756 13.969 1.665 21.646 1.665 8.493-3.172 11.709-7.208 19.982-8.326 9.115-.828 10.687-4.642 14.986-11.656 3.998-5.168 5.674-11.01 6.66-18.316 0-8.399-.75-15.628-1.665-23.312-4.01-4.495-7.05-10.696-9.991-18.316-5.146-8.821-5.152-12.739-13.321-16.651-3.976-5.431-10.848-8.07-14.987-11.656-8.651-.618-15.218-1.694-21.646-4.995-7.678 0-16.38-.091-21.647 1.665-6.03 0-10.447.57-16.651 1.665z" transform="matrix(1 0 0 .85294-74.931-33.11)"/><path d="m-58.28 64.935c-.987 0-4.077 4.823-6.661 9.991-4.344 6.915-4.925 13.315-8.326 18.316-1.329 7.444-1.665 15.03-1.665 23.312.756 8.314 3.197 11.323 8.326 14.987 7.713 4.38 11.367 6.411 19.982 8.325 7.447.573 12.8 1.665 21.647 1.665 7.968 0 16.35.656 23.312-1.665 8.283 0 15.869-.336 23.312-1.665 3.822-3.24 12.04-6.141 16.651-8.325 5.482-6.642 8.106-13.245 11.656-18.317 0-9.822.078-15.564-4.995-23.312-3.621-6.388-7.961-9.321-13.322-14.986-6.718-2.337-12.379-7.196-19.982-8.326h-28.31-24.977-16.651z" transform="translate(-81.59-66.61)"/><path d="m76.6 76.59c-6.286 2.619-8.589 3.299-11.656 9.991-4.62 7.115-7.342 10.462-11.656 14.986-.99 6.664-3.643 13.879-6.66 18.317-.915 7.684-1.665 14.913-1.665 23.312 4.222 6.486 10.09 12.603 16.651 16.651 6.791 2.351 13.95 5.932 19.982 8.326 7.765 2.033 14.951 4.398 23.312 4.995 7.217 1.805 15.16 1.665 23.312 1.665 7.404-1.609 13.749-3.478 19.981-8.325 3.333-5.196 7.156-11.04 8.326-19.982 2.754-8.263.539-19.06-3.33-26.642-2.039-7.477-5.02-10.373-13.321-14.987-4.595-4.854-10.702-10.322-14.987-13.321-5.281-4.584-12.142-5.153-19.981-8.326-8.492-1.887-11.337-4.33-19.982-4.995l19.982 4.995c-8.488-1.886-11.333-4.33-28.3-6.66z" transform="translate(-91.58-28.31)"/><path d="m-51.619 146.53c-7.618 3.463-11.162 7.635-16.651 13.321 0 8.846 1.092 14.2 1.665 21.647 3.466 4.734 7.144 14.249 9.991 18.316 2.172 6.812 6.921 12.137 9.991 16.652 7.69 3.112 15.495 5.441 23.312 8.325 9.198 0 15.1 2.06 23.312 3.331 6.962 2.32 15.344 1.665 23.312 1.665 8.148 0 16.09-.139 23.312 1.665 7.703 1.369 13.396 4.361 21.647 4.995 4.739-.451 13.14-1.138 19.982-1.665 7.667-3.485 10.982-5.707 14.987-11.656 3.752-4.542 3.33-11.267 3.33-19.981 1.602-8.972 2.092-15.01-1.665-23.312-.108-8.961-1.817-13.172-3.331-21.647-3-6.01-5.646-8.651-11.656-11.656-5.463-3.808-12.863-5.998-18.316-9.991-7.433-.885-15.759-2.05-21.647-3.33-6.511-4.341-11.933-6.545-21.647-6.661-9.514-1.132-13.996-2.263-21.647 1.665-7.989.571-15.15 2.169-19.982 4.996-6.144.472-15.283.981-19.982 3.33-7.413 0-9.987 1.288-16.651 1.665l16.651-1.665c-7.413 0-9.987 1.288-18.316 9.991z" transform="matrix(1.2648 0 0 .77492-105.14 1.6)"/><path d="m-123.22 278.07c-4.299-.632-17.278-1.665-26.642-1.665-8.747 0-15.86.58-23.312 3.33-7.975 1.537-13.883 4.047-19.982 6.661-5.05 2.393-10.953 4.83-14.986 8.325-4.955 3.369-9.13 6.335-13.321 13.321-4.476 6.422-4.944 10.559-8.326 18.317v23.312c.587 7.633 1.64 14.23 4.995 21.647 5.02 4.02 11.977 5.282 18.317 6.66 6.03 1.311 13.875 2.775 21.647 3.33 9.239 0 14.16.466 21.646 3.331 9.747-.361 11.606-2.628 19.982-6.661 9.314-3.692 14.861-5.061 23.312-9.991 5.173-4.079 8.578-10.984 11.656-18.316 4.689-7.575 7.91-14.886 11.656-21.647 1.804-7.218 1.665-15.16 1.665-23.312-2.221-6.258-5.752-8.905-9.991-14.986-4.616-5.05-6.672-8.946-9.991-13.321l9.991 13.321c-4.616-5.05-6.672-8.946-18.316-11.656z" transform="translate(-73.27-46.624)"/><path d="m0 318.04c6.927 1.019 14.391 1.206 23.312 0 7.405 1.994 12.863 5.647 18.317 8.326 3.057 5.665 7.339 13.999 11.656 18.316 1.874 6.872 4.641 9.755 8.326 16.652.918 6.795 3.182 13.617 0 19.981-3.795 4.745-9.758 7.515-14.986 9.991-6.902 3.688-10.937 5.05-19.982 6.661-7.443 1.329-15.03 1.665-23.312 1.665-8.01-1.431-14.192-2.757-21.647-3.33-7.414-1.324-15.898-2.01-23.312-3.331-4.813-2.815-11.03-5.126-16.651-6.66-3.906-3.725-9.56-7.953-14.986-11.656-4.189-7.502-8-10.206-11.656-16.652-3.316-4.876-4.891-11.169-4.995-19.981 2.625-5.344 6.961-10.53 9.991-14.986 5.197-3.433 11.07-7.989 18.316-11.656 9.784-.346 13.604-3.214 23.312-3.331h24.977c5.652.566 8.442 5.584 13.321 9.991z" transform="matrix(1.2827 0 0 .83636-41.19-59.49)"/></g></g><g fill="#006a00" stroke-width="3.711" transform="matrix(.7822 0 0 .78095 70.22 148.13)"><use transform="matrix(.45499-.03411.02276.41945 222.62 373.34)" xlink:href="#1"/><use transform="matrix(.45499-.03411.02276.41945 114.79 370.21)" xlink:href="#1"/><use transform="matrix(.45499-.03411.02276.41945 282.53 371.77)" xlink:href="#1"/><use transform="matrix(.44256-.12882.08593.40798 208.07 423.59)" xlink:href="#1"/><use transform="matrix(.45499-.03411.02276.41945 322.47 396.81)" xlink:href="#1"/><use transform="matrix(.45499-.03411.02276.41945 277.21 401.51)" xlink:href="#1"/><use transform="matrix(.45499-.03411.02276.41945 69.53 370.21)" xlink:href="#1"/><use transform="matrix(.44256-.12882.08593.40798-4.941 422.03)" xlink:href="#1"/><use transform="matrix(.45499-.03411.02276.41945 109.47 395.25)" xlink:href="#1"/><use transform="matrix(.45499-.03411.02276.41945 64.2 399.94)" xlink:href="#1"/><use transform="matrix(-.92438-.03865.05242-.41921 514.23 887.2)" xlink:href="#1"/></g><g stroke-width="2.5"><path fill="#510800" d="m356.34 196.48c0 22.512-18.995 6.66-38.3 6.66-19.302 0-36.632 17.517-39.962.0001 0-9.192 25.655-23.313 44.957-23.313 14.308 1.666 36.634-4.196 33.3 16.652z" transform="matrix(.59009 0 0 .64904 210.46 475.84)"/><path fill="#ffc600" d="m356.34 196.48c0 22.512-18.995 6.66-38.3 6.66-19.302 0-36.632 17.517-39.962.0001 0-9.192 25.655-23.313 44.957-23.313 14.308 1.666 36.634-4.196 33.3 16.652z" transform="matrix(-.59009 0 0 .64904 407.4 472.89)"/><path fill="#520900" d="m349.68 188.16c0 13.794-7.082 24.977-15.819 24.977-8.736 0-15.819-11.183-15.819-24.977s7.082-24.977 15.819-24.977c8.736 0 15.819 11.183 15.819 24.977z" transform="matrix(.72776 0 0 .70907 208.88 463.57)"/></g><g stroke-width="1.25"><g transform="matrix(-1.3489-.25318-.80105 1.3458 740.2 222.67)"><path fill="#af8000" d="m273.75 383.58c-2.737 4.561 42.976 12.952 57.694 22.371 14.719 9.42 14.718 10.01 21.19 14.718l1.765-2.944c-3.532-3.532-38.494-26.356-62.4-34.14-6.805-2.273-10.3-13.248-12.951-8.83l-5.299 8.83z" transform="matrix(-.72328-.54505.52-.75812 322.39 677.92)" id="K"/><g fill="#808080"><path d="m319.08 369.45l-25.315-5.887s-5.887 2.354-6.475 11.185c-.589 8.831 4.709 14.13 4.709 14.13l27.08-9.419v-10.01z" transform="matrix(.84438-.2975.28383.88505-89.24-64.18)" id="d"/><path d="m179.242,534.62a3.5322,3.5323 0 0,1 3.533,3.532v12.364a3.5322,3.5323 0 0,1 -3.533,3.532 3.5322,3.5323 0 0,1 -3.532-3.532v-12.364a3.5322,3.5323 0 0,1 3.532-3.532" transform="matrix(.84438-.2975.28383.88505-19.21-255.61)" id="e"/></g></g><path fill="#923d09" d="m244.77 87.42c7.322-5.947 11.157-3.718 17.649 3.102 9.323 9.815 41.32 58.855 46.31 63.02s4.241-6.417 10.344-1.387c3.03 3.727-10.437 17.03-13.737 14.569-6.411-5.02 3.915-5.374-.354-9.643-4.925-5.133-51.22-40.497-60.28-50.571-5.92-6.578-6.314-13.969.067-19.09z" transform="matrix(1.5444.34619.71895 1.1414-105.28 167.64)" id="E"/></g></g><g transform="matrix(.98767 0 0 .88634 9.446 39.11)"><g fill-rule="evenodd"><path fill="#ffc600" stroke-width="4.702" d="m193.63 88.25c15.546 4.424 43.28 46.12 53.766 45.791 16.652-.481 83.23-77.56 72.56-88.25-7.399-8.246-67.939 41.19-71.852 44.13-.67-8.601-15.95-51.04-28.31-59.945-14.62-9.31-32.21-4.157-47.82-6.661-7.3-2.843-18.84-14.06-23.78-24.976 8.182-3.544 15.323-2.479 23.311-10.651 5.679-6.642 2.381-46.913.37-51.06-13.291-14.268 5.429-7.327-39.02-9.08-64.27-2.446-75.878 49.582-31.653 70.792-3.462 15.928-14.219 19.594-22.939 21.646-8.777.106-38.826-.763-55.55 12.489-33.403 24.552-8.925 30.904-15.352 35.8-7.173 5.645-17.868 19.827-21.888 28.31-10.472 4.996-99.48-4.995-116.5-1.664-16.42.965-56.47 15.818-73.15 26.641 3.565 14.14 241.51-7.603 249.27-2.497 5.946 3.345-2.705 51.24 2.01 54.949 1.659 9.06 116.54 5.829 125.6 5.829 7.557-18.859 15.389-81.56 20.925-91.58z" transform="matrix(-.28105 0 0 .49773 211.06 432.55)"/><path stroke-width="5.125" d="m174.9-96.57c1.543 25.457-7.118 3.304-38.37 3.304-60.56-5.03-39.29 99.2-39.29 67.03-26.23-13.71-44.834-100.29 29.616-96.93 23.538 0 44.958 7.858 48.04 26.603z" transform="matrix(-.33724 0 0 .34919 218.97 434.64)" id="F"/></g><g fill="none"><g stroke-width="3.75"><path d="m387.98 96.57c0 1.68-.172 7.957-.833 11.656-.445 3.74-1.539 8.08-2.498 10.823-.342 4.452-2.091 5.174-2.497 9.991-1.544 2.27-2.209 5.944-2.498 9.991 0 4.27.686 7.558.833 11.656.481 3.56 1.612 6.366 1.665 10.823 0 4.365-.005 7.549-1.665 9.991v5.828" transform="matrix(-.44189 0 0 .49773 366.83 417.01)" id="L"/><path d="m383.81 76.59c.58 0 1.029 20.13 5.828 24.978 1.039 3.212 4.574 7.343 5.828 9.99 1.672 2.459 3.981 5.368 8.326 6.661h11.656c4.634 0 7.473.055 10.823-1.665 1.485-.8 2.531-1.846 3.33-3.331" transform="matrix(-.44189 0 0 .49773 366.83 417.01)" id="M"/><path d="m442.09 115.72h.832c-2.327 0-1.092-.104 3.331 1.665 1.725 2.537 3.768 3.625 6.66 4.996 2.982 1.467 6.391 1.665 10.823 1.665 4.198-.354 6.74-1.686 9.159-3.331 4.04-1.308 4.815-2.935 5.828-7.493v-11.656c-.478-3.531-1.384-6.373-2.498-9.158-.419-1.258-.833-.705-.833-2.498" transform="matrix(-.44189 0 0 .49773 366.83 417.01)" id="N"/><path d="m510.36 121.55c-.425 0-2.65 2.575-4.163 4.995-2.568.918-3.233 3.716-4.162 5.828-.669 2.675-1.666 2.859-1.666 6.661-1.677 3.708-2.204 7.01-2.497 10.823l2.497-10.823c-1.677 3.708-2.204 7.01-2.497 10.823" transform="matrix(-.44189 0 0 .49773 366.83 417.01)" id="O"/><path d="m461.24 54.946h-.833c2.249 0 1.099-.053-3.33.833-1.817 2.271-4.807 4.306-7.493 5.828-2.977 1.824-5.367 4.01-8.326 4.995l8.326-4.995c-2.977 1.824-5.367 4.01-8.326 4.995" transform="matrix(-.44189 0 0 .49773 366.83 417.01)" id="P"/><path d="m402.13 51.615h.833c-2.248 0-1.105-.054 3.33.833 2.936 1.391 4.752 2.89 7.493 4.995 1.291 1.935 3.257 2.305 4.163 5.828 1.574.847 2.124 1.67 2.498 4.163" transform="matrix(-.44189 0 0 .49773 366.83 417.01)" id="Q"/><path d="m427.11 29.968h.833 3.33c4.529 0 6.733.681 10.824.833 3.538-.425 4.382-1.737 7.493-2.498" transform="matrix(-.44189 0 0 .49773 366.83 417.01)" id="R"/><path d="m442.93 133.21c.139.661 1.652 4.256 2.498 5.828 1.517 2.512 3.538 4.914 4.163 8.326.968 2.905 1.526 6.23 1.665 9.99.761 3.503 1.264 6.62-.833 9.159-.898 3.292-2.57 5.692-4.162 9.158-1.111 0-.833-.278-.833.833" transform="matrix(-.44189 0 0 .49773 366.83 417.01)" id="S"/><path d="m416.28 134.87v.833c0-2.248.055-1.105-.832 3.33-1.147 4.01-2.15 7.388-4.163 9.991-1.098 3.294-2.326 4.504-2.498 9.158.662 1.544.833 3.263.833 5.828" transform="matrix(-.44189 0 0 .49773 366.83 417.01)" id="T"/><path d="m412.12 169.01v.833 3.33c.908 1.211.55 1.294 1.665 1.665" transform="matrix(-.44189 0 0 .49773 366.83 417.01)" id="U"/><path d="m343.02 128.21v.832c0-2.327-.258-.936 4.163.833 3.572.638 7.937 1.037 10.823 1.665 2.672 1.312 5.265 3.48 7.493 4.995 1.994 1.728 4.819 3.48 7.494 4.996 3 1.502 4.325 2.823 5.828 5.828.907 1.21.549 1.293 1.665 1.665" transform="matrix(-.44189 0 0 .49773 366.83 417.01)" id="V"/></g><path stroke-width="3" d="m423.78-16.655c.123-.184 2.467-1.914 4.996-2.498 1.805-1.354 4.812-.739 6.66 0" transform="matrix(-.69026 0 0 .49773 476.25 418.77)" id="G"/><g stroke-width="3.402"><path d="m445.42-19.15h.833c-2.248 0-1.106.055 3.33-.832 3.481-1.16 7.672-.833 11.656-.833 1.174.391.832.242.832 1.665" transform="matrix(-.53687 0 0 .49773 411.25 418.77)" id="W"/><path d="m444.59-7.497v.833c0-2.327-.103-1.091 1.666 3.33.643 2.962 1.76 7.05.832 9.158-2.184 0-2.859-.274-4.163-.832" transform="matrix(-.53687 0 0 .49773 411.25 418.77)" id="X"/></g></g><g fill-rule="evenodd"><use stroke-width="4.501" transform="matrix(-.52891-.08539-.05263.2802 361.22 463.74)" xlink:href="#2"/><g stroke-width="6.528"><use transform="matrix(-.38279-.05608-.03809.18402 317.16 435.6)" xlink:href="#2"/><use transform="matrix(-.38279-.05608-.03809.18402 305.54 434.35)" xlink:href="#2"/></g></g><g stroke-width="3.75"><g fill-rule="evenodd"><path d="m412.95 113.64c0 2.069-1.864 3.747-4.163 3.747-2.299 0-4.163-1.677-4.163-3.747s1.864-3.747 4.163-3.747c2.299 0 4.163 1.677 4.163 3.747z" transform="matrix(-.44189 0 0 .49773 366.83 417.01)" id="Y"/><path d="m469.57 119.89c0 1.379-1.305 2.498-2.914 2.498-1.609 0-2.914-1.118-2.914-2.498s1.305-2.498 2.914-2.498c1.609 0 2.914 1.118 2.914 2.498z" transform="matrix(-.44189 0 0 .49773 366.83 417.01)" id="Z"/></g><g fill="none"><path d="m447.09 31.634v.833c0-2.795.197-1.029-4.163 3.33-3.724 1.786-5.164 3.667-6.66 6.66-1.742 3.851-2.342 6.613-2.498 10.824v6.66" transform="matrix(-.44189 0 0 .49773 366.83 417.01)" id="a"/><path d="m419.61 30.801c.577 0 1.477 2.273 2.498 4.995 1.856 2.189 3.037 5.351 3.33 9.158 0 4.519.78 6.454.833 10.824v3.33" transform="matrix(-.44189 0 0 .49773 366.83 417.01)" id="b"/><path d="m504.54 129.04c0 .481-2.6 1.455-4.163 3.33-3.161.428-5.964.833-9.99.833-.611-.916-1.836-1.217-3.331-1.665" transform="matrix(-.44189 0 0 .49773 366.83 417.01)" id="c"/></g></g></g><g fill="#fff" fill-rule="evenodd" stroke-width="3.75" transform="matrix(-.45148 0 0 .28623 377.8 437.15)"><path d="m276.41 36.63l88.25 1.665v11.656s8.325 14.986 13.321 48.29c4.995 33.3 9.991 158.19 9.991 158.19l21.646 141.54s-13.321 21.647-23.312 19.982c-9.99-1.666-39.963-13.321-39.963-14.987 0-1.665-1.665-79.926-4.995-133.21-3.331-53.28-9.991-81.59-24.977-104.9-19.982 48.29-21.647 98.24-19.982 98.24s1.665 39.963 3.33 69.936c1.666 29.972-1.665 71.6-1.665 71.6l-58.28-3.331s1.665-36.633 3.331-64.94c1.665-28.31 6.744-41.625 8.326-73.27 1.748-34.963 4.202-53.32 6.66-109.9 3.238-45.739 14.687-75.26 17.9-103.24.871-7.133-.416-12.488.416-13.321z" transform="translate(103.24 138.21)" id="5"/><path d="m316.38 166.51s-8.326-13.321-11.656-36.633-3.33-28.31-3.33-28.31" transform="translate(103.24 138.21)" id="6"/><path d="m298.06,233.12-9.99,39.963" transform="translate(103.24 138.21)" id="7"/><path d="m276.41 223.12l11.657 54.949" transform="translate(163.18 139.87)" id="8"/><path d="m387.98,417.95-11.66-81.6" transform="translate(103.24 138.21)" id="9"/><path d="m276.41 44.955l88.25 1.665" transform="translate(103.24 138.21)" id="A"/><path d="m318.04 164.84c0-1.665 4.995-29.972 4.995-29.972" transform="translate(103.24 138.21)" id="B"/><path d="m284.74 44.955l-8.326 84.92" transform="translate(103.24 138.21)" id="C"/></g></g><g><path fill="none" stroke="#006a00" stroke-width="6.25" d="m549.21 538.58c0 136.98-111.05 248.03-248.03 248.03s-248.03-111.05-248.03-248.03 111.05-248.03 248.03-248.03 248.03 111.05 248.03 248.03z"/><g stroke-width="1.25"><g transform="matrix(.44034 0 0 .375 424.39 323.33)"><path fill="#006a00" fill-rule="evenodd" d="m336.61 432.28c70.866 70.867-14.03 141.73-53.15 141.73-39.12 0-124.02-70.866-53.15-141.73-17.717 70.867 53.15 88.58 53.15 124.02-.0001-35.433 70.866-53.15 53.15-124.02"/><use xlink:href="#3"/></g><g transform="matrix(.04868-.43764.3727.04146 101.59 391.74)"><path fill="#006a00" fill-rule="evenodd" d="m336.61 432.28c70.866 70.867-14.03 141.73-53.15 141.73-39.12 0-124.02-70.866-53.15-141.73-17.717 70.867 53.15 88.58 53.15 124.02-.0001-35.433 70.866-53.15 53.15-124.02"/><use xlink:href="#3"/></g><g transform="matrix(.06563.43542-.37081.05589 496.64 630.62)"><use xlink:href="#4"/><use xlink:href="#3"/></g><g transform="matrix(-.43948-.02746.02339-.37427 165.81 724.76)"><use xlink:href="#4"/><use xlink:href="#3"/></g><g transform="matrix(.42862-.1009.08593.36502 368.06 294.31)"><use xlink:href="#4"/><use xlink:href="#3"/></g><g transform="matrix(-.0933-.43034.36648-.07945 77.14 459.54)"><use xlink:href="#4"/><use xlink:href="#3"/></g><g transform="matrix(.20956.38727-.32981.17846 510.01 563.07)"><use xlink:href="#4"/><use xlink:href="#3"/></g><g transform="matrix(-.42532.114-.09708-.36222 228.08 741.59)"><use xlink:href="#4"/><use xlink:href="#3"/></g><g transform="matrix(.37184-.23586.20086.31667 300.35 309.04)"><use xlink:href="#4"/><use xlink:href="#3"/></g><g transform="matrix(-.1933-.39564.33693-.16462 59.41 521.4)"><use xlink:href="#4"/><use xlink:href="#3"/></g><g transform="matrix(.3114.31132-.26513.2652 504.67 508.8)"><use xlink:href="#4"/><use xlink:href="#3"/></g><g transform="matrix(-.38583.21221-.18072-.32858 278.58 752.08)"><use xlink:href="#4"/><use xlink:href="#3"/></g><g transform="matrix(.29698-.32512.27688.25291 238.82 318.87)"><use xlink:href="#4"/><use xlink:href="#3"/></g><g transform="matrix(-.29029-.3311.28197-.24722 63.29 583.37)"><use xlink:href="#4"/><use xlink:href="#3"/></g><g transform="matrix(.37605.22908-.1951.32026 491.18 454.96)"><use xlink:href="#4"/><use xlink:href="#3"/></g><g transform="matrix(-.31668.30596-.26056-.26969 335.04 746.65)"><use xlink:href="#4"/><use xlink:href="#3"/></g><g transform="matrix(.22802-.3767.32081.19418 187.06 325.19)"><use xlink:href="#4"/><use xlink:href="#3"/></g><g transform="matrix(-.38467-.2143.18251-.32759 100.95 645.15)"><use xlink:href="#4"/><use xlink:href="#3"/></g><g transform="matrix(.39973.18469-.15729.34042 493.92 411.37)"><use xlink:href="#4"/><use xlink:href="#3"/></g><g transform="matrix(-.19546.39458-.33603-.16645 403.15 723.55)"><use xlink:href="#4"/><use xlink:href="#3"/></g><g transform="matrix(.42973.09606-.08181.36597 466.94 368.52)"><use xlink:href="#4"/><use xlink:href="#3"/></g><g transform="matrix(.14298-.41647.35468.12177 140.32 354.87)"><use xlink:href="#4"/><use xlink:href="#3"/></g><g transform="matrix(-.11117.42607-.36285-.09468 463.79 704.63)"><use xlink:href="#4"/><use xlink:href="#3"/></g><g transform="matrix(-.4229-.12268.10448-.36015 129.41 685.63)"><use xlink:href="#4"/><use xlink:href="#3"/></g></g></g><g stroke="#000"><g transform="matrix(.92152 0 0 1.1243 33.05-62.04)"><g fill-rule="evenodd"><path fill="#520900" stroke-width="4.702" d="m193.63 88.25c15.546 4.424 43.28 46.12 53.766 45.791 16.652-.481 83.23-77.56 72.56-88.25-7.399-8.246-67.939 41.19-71.852 44.13-.67-8.601-15.95-51.04-28.31-59.945-14.62-9.31-32.21-4.157-47.82-6.661-7.3-2.843-18.84-14.06-23.78-24.976 8.182-3.544 15.323-2.479 23.311-10.651 5.679-6.642 2.381-46.913.37-51.06-13.291-14.268 5.429-7.327-39.02-9.08-64.27-2.446-75.878 49.582-31.653 70.792-3.462 15.928-14.219 19.594-22.939 21.646-8.777.106-38.826-.763-55.55 12.489-33.403 24.552-8.925 30.904-15.352 35.8-7.173 5.645-17.868 19.827-21.888 28.31-10.472 4.996-99.48-4.995-116.5-1.664-16.42.965-56.47 15.818-73.15 26.641 3.565 14.14 241.51-7.603 249.27-2.497 5.946 3.345-2.705 51.24 2.01 54.949 1.659 9.06 116.54 5.829 125.6 5.829 7.557-18.859 15.389-81.56 20.925-91.58z" transform="matrix(.30122 0 0 .3924 391.9 433.3)"/><use transform="matrix(-1.07179 0 0 .7884 618.12 92.28)" xlink:href="#F"/></g><g fill="none"><g stroke-width="3.75" transform="matrix(-1.07178 0 0 .78838 618.11 92.29)"><use xlink:href="#L"/><use xlink:href="#M"/><use xlink:href="#N"/><use xlink:href="#O"/><use xlink:href="#P"/><use xlink:href="#Q"/><use xlink:href="#R"/><use xlink:href="#S"/><use xlink:href="#T"/><use xlink:href="#U"/><use xlink:href="#V"/></g><use transform="matrix(-1.07178 0 0 .78838 618.12 92.28)" xlink:href="#G"/><g stroke-width="3.402" transform="matrix(-1.07179 0 0 .78838 618.12 92.28)"><use xlink:href="#W"/><use xlink:href="#X"/></g></g><g fill-rule="evenodd"><use stroke-width="4.501" transform="matrix(.56688-.06732.05641.2209 230.97 457.89)" xlink:href="#2"/><g stroke-width="6.528"><use transform="matrix(.41026-.04421.04083.14507 278.19 435.7)" xlink:href="#2"/><use transform="matrix(.41026-.04421.04083.14507 290.65 434.72)" xlink:href="#2"/></g></g><g stroke-width="3.75" transform="matrix(-1.07178 0 0 .78838 618.11 92.29)"><g fill-rule="evenodd"><use xlink:href="#Y"/><use xlink:href="#Z"/></g><g fill="none"><use xlink:href="#a"/><use xlink:href="#b"/><use xlink:href="#c"/></g></g></g><g fill-rule="evenodd"><g fill="#fff" stroke-width="3.75" transform="matrix(.45148 0 0 .28623 234.3 439.76)"><use xlink:href="#5"/><use xlink:href="#6"/><use xlink:href="#7"/><use xlink:href="#8"/><use xlink:href="#9"/><use xlink:href="#A"/><use xlink:href="#B"/><use xlink:href="#C"/></g><path fill="#ffc600" stroke-width="2.5" d="m349.68 188.16c0 13.794-7.082 24.977-15.819 24.977-8.736 0-15.819-11.183-15.819-24.977s7.082-24.977 15.819-24.977c8.736 0 15.819 11.183 15.819 24.977z" transform="matrix(.72776 0 0 .70907-82.22 465.05)"/></g></g><g stroke-width="1.25" transform="matrix(.43987 0 0 .51992 142.76 215.7)"><g stroke="#000" fill-rule="evenodd"><g fill="#00cfe6"><path d="m212.6 892.91s53.15-17.716 70.867-17.716c17.716 0 17.716 17.716 19.13 18.212l-1.419 34.937h-88.58v-35.433z" transform="translate(-35.434-.22)" id="H"/><path d="m265.75 892.91s0-17.716 17.717-17.716c17.716 0 35.433-.496 53.15-.0001v53.15h-70.866v-35.433z" transform="matrix(1 0 0-1 0 1874.2)" id="I"/><use transform="matrix(-1 0 0 1 779.53.22)" xlink:href="#H"/><use transform="matrix(-1 0 0 1 779.53.2)" xlink:href="#I"/></g><path fill="#fff" d="m249.45 875.2s0-17.717-17.716-17.717h53.15l-35.434 17.717z" transform="matrix(-1 0 0-1 727.8 1856.7)"/><path fill="#00cfe6" d="m159.45 892.91l106.3 53.15s-36.04 33.3-70.866 35.433c-17.717 0-35.433-35.433-35.433-35.433v-53.15z" transform="matrix(-1.1667 0 0 1 841.54-.005)" id="D"/><g fill="#fff"><path d="m249.45 892.91c.71-8.858-2.214-35.434-19.931-35.434h55.36c17.717 0 35.434 17.717 35.434 35.434l-1.419 35.432h-69.45v-35.433z" transform="matrix(-1 0 0 1 763.23 17.717)" id="J"/><path d="m249.45 875.2s0-17.717-17.716-17.717h53.15l-35.434 17.717z" transform="matrix(1 0 0-1 51.73 1856.5)"/></g><use transform="matrix(-1 0 0 1 779.53-.221)" xlink:href="#D"/><g fill="#fff"><use transform="matrix(-1 0 0 1 779.53-.221)" xlink:href="#J"/><path d="m88.8 891.9c-.11 1.012 17.607-34.421 53.04-34.421s177.16 70.866 247.92 70.866c70.975 0 196.65-72.56 230.42-70.866 33.773 1.694 53.52 37.16 53.15 35.433-.373-1.728-17.716 53.15-17.716 53.15 0-17.716-17.717-35.433-35.433-35.433-17.717 0-106.3 70.866-230.42 70.866-123.91 0-212.49-70.866-230.21-70.866-17.717 0-35.433 17.716-35.433 35.433l-35.32-54.16z" transform="translate(-.11)"/></g></g><path d="m311.49 1033.9v-42.837h9.846v5.057h-8.05v13.12h7.533v5.02h-7.533v14.58h8.36v5.06h-10.161" transform="matrix(1.6105-.62438.36153.9325-309.42 157.31)"/><path d="m272.27 1033.9v-42.837h1.801v37.777h6.707v5.06h-8.508" transform="matrix(1.6105-.62438.36153.9325-312.75 158.98)"/><path d="m260.81 1033.9v-42.837h9.186v5.057h-7.383v13.26h6.39v5.06h-6.39v19.46h-1.803" transform="matrix(1.6105-.62438.36153.9325-314.42 159.81)"/><path d="m200.42 1033.9v-42.837h2.712l3.223 30.33c.298 2.82.515 4.94.651 6.34.154-1.56.397-3.85.725-6.86l3.259-29.807h2.425v42.837h-1.737v-35.856l-3.957 35.856h-1.626l-3.938-36.469v36.469h-1.737" transform="matrix(2.2021.54597-.23844.96174 106.42-142.17)"/><path d="m195.68 991.08h1.802v24.747c0 4.3-.155 7.72-.464 10.26-.309 2.53-.87 4.59-1.682 6.19-.804 1.58-1.863 2.36-3.177 2.36-1.274 0-2.317-.68-3.129-2.07-.811-1.38-1.39-3.38-1.737-5.99-.347-2.63-.52-6.21-.52-10.75v-24.747h1.802v24.717c0 3.72.108 6.47.325 8.24.222 1.75.601 3.1 1.134 4.06.539.95 1.195 1.43 1.968 1.43 1.326 0 2.269-.94 2.833-2.83.563-1.89.845-5.52.845-10.9v-24.717" transform="matrix(2.0955.86968-.37982.91517 265.88-160.76)"/><path d="m163.97 991.08h1.803v24.747c0 4.3-.156 7.72-.465 10.26-.309 2.53-.87 4.59-1.682 6.19-.803 1.58-1.862 2.36-3.175 2.36-1.276 0-2.319-.68-3.13-2.07-.812-1.38-1.39-3.38-1.737-5.99-.347-2.63-.52-6.21-.52-10.75v-24.747h1.801v24.717c0 3.72.109 6.47.326 8.24.222 1.75.6 3.1 1.133 4.06.539.95 1.195 1.43 1.969 1.43 1.325 0 2.27-.94 2.833-2.83.564-1.89.844-5.52.844-10.9v-24.717" transform="matrix(1.5677.72505-.41982.90775 382.54-129.43)"/><path d="m141.73 1020.2l1.7-.47c.081 2.15.266 3.91.557 5.3.297 1.36.756 2.47 1.375 3.33.619.83 1.316 1.25 2.09 1.25.687 0 1.294-.32 1.82-.96.527-.64.917-1.52 1.17-2.63.261-1.13.391-2.36.391-3.68 0-1.35-.124-2.52-.372-3.51-.248-1.01-.656-1.86-1.226-2.54-.365-.45-1.173-1.14-2.424-2.07-1.251-.96-2.127-1.85-2.629-2.69-.65-1.07-1.136-2.4-1.458-3.98-.316-1.59-.474-3.38-.474-5.34 0-2.166.195-4.181.586-6.05.39-1.89.959-3.321 1.709-4.294.749-.977 1.582-1.461 2.498-1.461 1.01 0 1.898.514 2.666 1.546.774 1.012 1.368 2.513 1.783 4.498.415 1.989.638 4.241.669 6.751l-1.728.41c-.093-2.71-.409-4.753-.947-6.134-.533-1.386-1.322-2.074-2.369-2.074-1.09 0-1.885.628-2.387 1.894-.495 1.247-.743 2.754-.743 4.534 0 1.53.177 2.8.53 3.79.346 1 1.251 2.02 2.712 3.08 1.467 1.03 2.474 1.93 3.02 2.71.793 1.15 1.378 2.61 1.756 4.38.378 1.76.566 3.78.566 6.08 0 2.28-.207 4.43-.622 6.46-.415 2-1.012 3.57-1.792 4.7-.774 1.11-1.648 1.66-2.62 1.66-1.232 0-2.266-.56-3.102-1.69-.83-1.13-1.483-2.82-1.96-5.08-.47-2.28-.718-4.85-.743-7.72" transform="matrix(1.5677.72505-.41982.90775 379.21-132.76)"/><path d="m323.59 1013c0-7.1.607-12.67 1.821-16.676 1.214-4.03 2.78-6.05 4.7-6.05 1.257 0 2.39.943 3.399 2.833s1.776 4.527 2.303 7.922c.532 3.37.799 7.19.799 11.48 0 4.34-.278 8.23-.836 11.66-.558 3.42-1.347 6.03-2.368 7.8-1.022 1.75-2.124 2.62-3.307 2.62-1.282 0-2.426-.97-3.436-2.92-1.01-1.94-1.774-4.6-2.294-7.97s-.781-6.94-.781-10.7m1.857.09c0 5.16.441 9.23 1.319 12.21.886 2.97 1.994 4.45 3.326 4.45 1.357 0 2.471-1.5 3.343-4.51.88-2.99 1.319-7.25 1.319-12.76 0-3.49-.189-6.53-.566-9.12-.371-2.61-.919-4.623-1.644-6.04-.718-1.441-1.526-2.164-2.424-2.164-1.276 0-2.374 1.386-3.297 4.149-.917 2.749-1.376 7.349-1.376 13.789" transform="matrix(1.6105-.62438.36153.9325-306.09 153.98)"/><path d="m297.74 1033.9v-42.837h6.04c1.214 0 2.137.389 2.77 1.167.63.763 1.134 2.114 1.513 4.064.378 1.95.566 4.096.566 6.456 0 3.04-.312 5.6-.938 7.69-.625 2.08-1.592 3.4-2.898 3.97.477.72.839 1.43 1.088 2.13.526 1.52 1.024 3.42 1.494 5.7l2.369 11.66h-2.267l-1.801-8.91c-.526-2.58-.961-4.54-1.301-5.91-.34-1.36-.647-2.32-.92-2.86-.266-.54-.537-.93-.816-1.14-.205-.14-.539-.21-1-.21h-2.09v19.03h-1.802m1.802-23.93h3.873c.823 0 1.468-.27 1.932-.79.465-.55.817-1.4 1.059-2.57.241-1.19.361-2.48.361-3.86 0-2.02-.234-3.689-.705-4.995-.464-1.306-1.202-1.96-2.211-1.96h-4.309v14.175" transform="matrix(1.6105-.62438.36153.9325-312.75 158.14)"/><path d="m282.37 1013c0-7.1.605-12.67 1.819-16.676 1.215-4.03 2.781-6.05 4.7-6.05 1.257 0 2.391.943 3.399 2.833 1.01 1.89 1.777 4.527 2.305 7.922.531 3.37.797 7.19.797 11.48 0 4.34-.277 8.23-.835 11.66-.557 3.42-1.348 6.03-2.368 7.8-1.023 1.75-2.125 2.62-3.307 2.62-1.282 0-2.427-.97-3.437-2.92-1.01-1.94-1.774-4.6-2.293-7.97-.52-3.37-.78-6.94-.78-10.7m1.856.09c0 5.16.441 9.23 1.319 12.21.886 2.97 1.994 4.45 3.325 4.45 1.357 0 2.472-1.5 3.345-4.51.878-2.99 1.319-7.25 1.319-12.76 0-3.49-.19-6.53-.568-9.12-.37-2.61-.919-4.623-1.643-6.04-.718-1.441-1.527-2.164-2.424-2.164-1.276 0-2.375 1.386-3.297 4.149-.916 2.749-1.376 7.349-1.376 13.789" transform="matrix(1.6105-.62438.36153.9325-313.59 158.14)"/><path d="m216.25 1033.9v-42.837h5.107c1.042 0 1.874.439 2.5 1.317.631.857 1.122 2.189 1.476 3.999.36 1.795.539 3.671.539 5.641 0 1.83-.159 3.55-.474 5.17-.316 1.62-.793 2.92-1.43 3.92.823.76 1.455 2.05 1.894 3.88.446 1.83.669 4 .669 6.49 0 2-.136 3.87-.409 5.61-.266 1.71-.597 3.04-.994 3.97-.396.94-.894 1.65-1.494 2.13-.595.47-1.326.71-2.193.71h-5.191m1.801-24.84h2.945c.799 0 1.371-.17 1.718-.49.458-.43.802-1.15 1.03-2.14.237-.99.354-2.24.354-3.74 0-1.42-.109-2.67-.325-3.738-.217-1.092-.526-1.83-.929-2.219-.403-.409-1.094-.613-2.072-.613h-2.721v12.94m0 19.78h3.39c.582 0 .991-.07 1.227-.2.414-.24.761-.63 1.04-1.17.279-.55.507-1.34.686-2.37.181-1.05.27-2.26.27-3.62 0-1.6-.13-2.98-.39-4.15-.26-1.19-.621-2.02-1.086-2.48-.458-.49-1.121-.73-1.988-.73h-3.149v14.72" transform="matrix(2.2473.3115-.13604.98148-2.967-111.48)"/><path d="m229.04 1033.9v-42.837h6.04c1.212 0 2.135.389 2.767 1.167.631.763 1.137 2.114 1.514 4.064.378 1.95.566 4.096.566 6.456 0 3.04-.312 5.6-.938 7.69-.625 2.08-1.59 3.4-2.898 3.97.477.72.84 1.43 1.088 2.13.526 1.52 1.024 3.42 1.494 5.7l2.369 11.66h-2.266l-1.802-8.91c-.526-2.58-.961-4.54-1.3-5.91-.341-1.36-.648-2.32-.919-2.86-.266-.54-.539-.93-.818-1.14-.205-.14-.539-.21-1-.21h-2.089v19.03h-1.802m1.802-23.93h3.873c.824 0 1.468-.27 1.932-.79.465-.55.816-1.4 1.059-2.57.241-1.19.361-2.48.361-3.86 0-2.02-.234-3.689-.705-4.995-.464-1.306-1.202-1.96-2.21-1.96h-4.31v14.175" transform="matrix(2.2688 0 0 .99086-141.3-48.685)"/><path d="m241.25 1033.9l5.229-42.837h1.942l5.572 42.837h-2.053l-1.588-12.98h-5.693l-1.496 12.98h-1.913m3.929-17.59h4.616l-1.422-11.86c-.432-3.61-.754-6.57-.965-8.889-.173 2.747-.419 5.479-.734 8.179l-1.495 12.57" transform="matrix(2.234-.39578.17286.97567-303.54 61.38)"/><path d="m168.7 1033.9v-42.837h5.107c1.042 0 1.874.439 2.5 1.317.631.857 1.122 2.189 1.476 3.999.36 1.795.539 3.671.539 5.641 0 1.83-.159 3.55-.474 5.17s-.793 2.92-1.43 3.92c.823.76 1.455 2.05 1.894 3.88.446 1.83.669 4 .669 6.49 0 2-.136 3.87-.409 5.61-.266 1.71-.597 3.04-.994 3.97-.396.94-.894 1.65-1.494 2.13-.595.47-1.326.71-2.193.71h-5.191m1.801-24.84h2.945c.799 0 1.371-.17 1.718-.49.458-.43.802-1.15 1.031-2.14.236-.99.353-2.24.353-3.74 0-1.42-.109-2.67-.325-3.738-.217-1.092-.526-1.83-.929-2.219-.402-.409-1.093-.613-2.072-.613h-2.721v12.94m0 19.78h3.39c.582 0 .991-.07 1.227-.2.414-.24.761-.63 1.04-1.17.279-.55.507-1.34.687-2.37.18-1.05.269-2.26.269-3.62 0-1.6-.13-2.98-.39-4.15-.26-1.19-.621-2.02-1.086-2.48-.458-.49-1.12-.73-1.988-.73h-3.149v14.72" transform="matrix(1.5677.72505-.41982.90775 390.87-127.76)"/></g><g transform="matrix(1.0891 0 0 1-26.351 3.33)"><g fill-rule="evenodd" stroke="#000"><g stroke-width="1.25"><g transform="matrix(.80784 0 0 .82759 63.772 114.72)"><path fill="#00daec" d="m212.6 432.28v106.3c0 70.866 88.58 106.3 88.58 106.3s88.58-35.433 88.58-106.3v-106.3h-177.17z"/><path fill="#fff" d="m212.6 432.28v106.3c0 8.858 1.384 17.16 3.806 24.914l84.78-42.631v-88.58h-88.58z"/></g><path fill="#fff300" d="m212.6 432.28v106.3c0 8.858 1.384 17.16 3.806 24.914l84.78-42.631v-88.58h-88.58z" transform="matrix(-.80784 0 0 .82759 550.39 114.72)"/><g transform="matrix(.80784 0 0 .82759 63.772 114.72)"><use transform="matrix(.44958.01842-.15851.60363 132.8 239.63)" xlink:href="#E"/><path fill="#af8000" d="m498.126 181.35a2.6061 1.2932 0 0 1 2.606 1.293v63.46a2.6061 1.2932 0 0 1 -2.606 1.293 2.6061 1.2932 0 0 1 -2.606 -1.293v-63.46a2.6061 1.2932 0 0 1 2.606 -1.293" transform="matrix(.75556.65508-.58585.81042 0 0)"/><path fill="#b0b0d4" d="m497.3 228.63h29.375v18.868h-29.375z" transform="matrix(.83117.55602-.64108.76747 0 0)"/></g></g><g transform="matrix(.80784 0 0 .82759 63.772 114.72)"><g stroke-width="1.25"><use transform="matrix(1.12258 0 0 1.07099 21.561 273.77)" xlink:href="#K"/><g fill="#808080"><use transform="matrix(1.12257 0 0 1.07099 21.56 273.76)" xlink:href="#d"/><use transform="matrix(1.12258.00001-.00001 1.071 21.558 273.76)" xlink:href="#e"/></g><g fill="#cf0000"><path d="m239.61 381.52c0 7.316-1.581 13.246-3.532 13.246-1.951 0-3.532-5.93-3.532-13.246 0-7.316 1.582-13.246 3.532-13.246s3.532 5.93 3.532 13.246z" transform="matrix(.74465-.71591.63468.39346-105.9 523.83)" id="f"/><use transform="matrix(-.48858.88732.85796.48857 94.31-57.18)" xlink:href="#f"/></g></g><path fill="#b0b0d4" stroke-width="1.081" d="m15.07 596.25h78.868v17.796h-78.868z" transform="matrix(.85897-.51203.49936.86639 0 0)"/></g></g><g fill="none" stroke="#0072ff" stroke-width="1.25"><path d="m231.36 591.4l8.83-7.07s1.767 8.831 7.06 8.831 8.831-7.653 8.831-7.653 0 7.653 5.887 7.653 10.597-7.653 10.597-7.06c0 .588.588 7.06 5.298 7.06s10.597-6.476 10.597-6.476.589 7.654 5.887 7.07c5.299-.589 7.06-8.242 7.653-7.653.589.588 4.121 7.653 8.242 7.06s10.01-6.476 10.01-6.476 1.177 7.07 5.887 7.07c4.709 0 6.476-6.476 6.476-6.476s2.354 5.298 6.475 5.298 10.597-5.887 10.597-5.887" transform="matrix(.77167 0 0 .82759 84.03 128.85)"/><path d="m231.95 591.4c3.139-1.374 5.69.196 9.418-7.654 0 4.121 2.945 9.42 8.243 9.42s8.831-7.653 8.831-7.653 0 7.653 5.887 7.653 10.597-7.653 10.597-7.06c0 .588.588 7.06 5.298 7.06s10.597-6.476 10.597-6.476.589 7.654 5.887 7.07c5.299-.589 7.06-8.242 7.653-7.653.589.588 4.121 7.653 8.242 7.06 2.943-.589 10.01-7.07 10.01-7.07" transform="matrix(.80784 0 0 .82759 85.65 137.62)"/></g><g fill-rule="evenodd" transform="matrix(.63809 0 0 .61718 131.64 357.23)"><path fill="#fff" stroke="#000" stroke-width="1.25" d="m305.54 350.62v18.839h14.717l-5.298-18.839h-9.419z" transform="translate(4.121 16.484)"/><path d="m329.68 377.11c-.589.589-23.549 12.952-53.57 12.952s-41.799-3.533-44.742-5.887c-2.944-2.355-6.476-7.06-10.01-7.06-3.533 0-6.476 2.944-6.476 2.944s5.887 2.943 10.01 6.475c4.121 3.533 5.298 10.01 5.298 10.01l97.14 1.177s-.589-6.476-.589-10.01 3.533-8.831 2.944-10.597"/><g stroke-width="1.25"><path d="m244.91 335.31h2.355v54.75h-2.355z"/><path d="m276.7 328.24h2.355v62.4h-2.355z"/><path d="m307.9 338.84h2.355v51.22h-2.355z"/></g><g fill="#fff" stroke="#000"><path stroke-width=".96" d="m299.07 342.37h18.839v8.831h-18.839z"/><path stroke-width="1.032" d="m297.89 350.61h21.782v8.831h-21.782z"/><path stroke-width="1.087" d="m296.71 358.86h24.14v8.831h-24.14z"/><path stroke-width="1.286" d="m266.17 334.72h23.837v12.527h-23.837z"/><path stroke-width="1.383" d="m264.68 346.41h27.561v12.527h-27.561z"/><path stroke-width="1.456" d="m263.19 358.1h30.541v12.527h-30.541z"/><path stroke-width="1.23" d="m260.21 368.28h36.5v15.307h-36.5z"/><path stroke-width=".954" d="m238.25 342.37h15.763v10.414h-15.763z"/><path stroke-width="1.025" d="m237.26 352.09h18.226v10.414h-18.226z"/><path stroke-width="1.079" d="m236.28 361.81h20.2v10.414h-20.2z"/><path stroke-width=".912" d="m234.31 370.27h24.14v12.725h-24.14z"/><path stroke-width=".954" d="m220 377.51h9.876l10.597-33.374-20.473 33.374z"/></g><path stroke-width="1.25" d="m391.01 193.78h2.426v52.648h-2.426z" transform="matrix(.89662.4428-.5426.83999 0 0)"/></g><path fill="none" stroke="#0072ff" stroke-width="1.25" d="m231.36 591.4l8.83-7.07s1.767 8.831 7.06 8.831 8.831-7.653 8.831-7.653 0 7.653 5.887 7.653 10.597-7.653 10.597-7.06c0 .588.588 7.06 5.298 7.06s10.597-6.476 10.597-6.476.589 7.654 5.887 7.07c5.299-.589 7.06-8.242 7.653-7.653.589.588 4.121 7.653 8.242 7.06s10.01-6.476 10.01-6.476 1.177 7.07 5.887 7.07c4.709 0 6.476-6.476 6.476-6.476s2.354 5.298 6.475 5.298 7.06-7.06 7.06-7.06 1.177 6.476 4.121 6.476c2.943 0 6.476-6.476 6.476-6.476s1.177 8.242 4.121 7.653c2.943-.589 4.121-8.242 4.71-7.653.588.589 4.709 7.06 4.12 7.06" transform="matrix(.76317 0 0 .82759 77.44 118.62)"/></g></g></g></g></svg>