<svg fill="#28ff09" xmlns="http://www.w3.org/2000/svg" viewBox="0 0 640 480" fill-opacity="14.118"><defs><clipPath id="0"><path d="m-79.06 0h682.67v512h-682.67z"/></clipPath></defs><g fill-opacity="1" clip-path="url(#0)" transform="matrix(.9375 0 0 .9375 74.12 0)"><g transform="matrix(.70757 0 0 1 79.78 0)"><path fill="#fff" d="m1.919 0h512v512h-512z"/><g fill="#bf0a30"><path d="m-254.08 0h256v512h-256z"/><path d="m513.92 0h256v512h-256z"/></g></g><path fill="#bf0a30" d="m135.31 247.41l-14.07 4.808 65.46 57.45c4.952 14.764-1.718 19.12-5.968 26.859l71.06-9.02-1.851 71.51 14.718-.423-3.21-70.918 71.13 8.432c-4.402-9.296-8.32-14.233-4.247-29.1l65.41-54.43-11.447-4.144c-9.359-7.222 4.04-34.784 6.07-52.18 0 0-38.19 13.13-40.698 6.262l-9.726-18.685-34.748 38.17c-3.796.909-5.414-.602-6.304-3.809l16.05-79.77-25.419 14.297c-2.128.91-4.256.125-5.659-2.355l-24.45-49.06-25.21 50.95c-1.901 1.826-3.803 2.037-5.381.796l-24.2-13.578 14.529 79.14c-1.155 3.142-3.924 4.03-7.18 2.325l-33.22-37.737c-4.345 6.962-7.29 18.336-13.03 20.885-5.744 2.387-24.98-4.823-37.873-7.638 4.405 15.895 18.18 42.3 9.461 50.957z"/></g></svg>