<svg xmlns="http://www.w3.org/2000/svg" viewBox="0 0 640 480" xmlns:xlink="http://www.w3.org/1999/xlink"><g stroke-width="1.25"><path fill="#006" d="m0,0h640v480h-640z"/><g transform="matrix(.81519 0 0 .81519 0 -.00002)"><g fill="#fff"><path d="m0,0v30.436l392.24,241.79h49.374v-30.436l-392.24-241.79-49.37,0zm441.62,0v30.436l-392.25,241.79h-49.37v-30.44l392.24-241.79h49.374z"/><path d="m184.01,0v272.23h73.603v-272.23h-73.603zm-184.01,90.743v90.743h441.62v-90.743h-441.62z"/></g><g fill="#c00"><path d="m0,108.89v54.446h441.62v-54.446h-441.62zm198.73-108.89v272.23h44.162v-272.23h-44.162z"/><path d="m0,272.23 147.21-90.743h32.916l-147.21,90.74h-32.92zm0-272.23 147.21,90.743h-32.916l-114.29-70.452v-20.291zm261.5,90.743 147.2-90.743h32.916l-147.21,90.743h-32.916zm180.12,181.49-147.21-90.743h32.916l114.29,70.452v20.291z"/></g></g></g><g fill="#fff" fill-rule="evenodd" transform="matrix(.85925 0 0 .85925 87.546 62.776)"><path d="m659.7,186.57 7.73-29.85-25.29-17.62 30.77-1.87 8.94-29.5 11.28,28.69 30.83-.62-23.8,19.6 10.11,29.13-25.99-16.58z" transform="matrix(.66592 .0315 -.03025 .65803 13.302 31.285)"/><path d="m659.7,186.57 7.73-29.85-25.29-17.62 30.77-1.87 8.94-29.5 11.28,28.69 30.83-.62-23.8,19.6 10.11,29.13-25.99-16.58z" transform="matrix(.61693 .25623 -.24608 .60962 134.3 -104.13)"/><path d="m659.7,186.57 7.73-29.85-25.29-17.62 30.77-1.87 8.94-29.5 11.28,28.69 30.83-.62-23.8,19.6 10.11,29.13-25.99-16.58z" transform="matrix(.63686 -.19987 .19195 .62931 -55.339 205.46)"/><path d="m659.7,186.57 7.73-29.85-25.29-17.62 30.77-1.87 8.94-29.5 11.28,28.69 30.83-.62-23.8,19.6 10.11,29.13-25.99-16.58z" transform="matrix(.51021 -.43522 .41799 .50416 -48.071 415)"/><path d="m659.7,186.57 7.73-29.85-25.29-17.62 30.77-1.87 8.94-29.5 11.28,28.69 30.83-.62-23.8,19.6 10.11,29.13-25.99-16.58z" transform="matrix(.27702 -.61506 .5907 .27374 57.965 621.23)"/><path d="m659.7,186.57 7.73-29.85-25.29-17.62 30.77-1.87 8.94-29.5 11.28,28.69 30.83-.62-23.8,19.6 10.11,29.13-25.99-16.58z" transform="matrix(.01289 -.67608 .64931 .01273 220.9 760.28)"/><path d="m659.7,186.57 7.73-29.85-25.29-17.62 30.77-1.87 8.94-29.5 11.28,28.69 30.83-.62-23.8,19.6 10.11,29.13-25.99-16.58z" transform="matrix(-.25789 -.62356 .59887 -.25484 431.53 817.88)"/><path d="m659.7,186.57 7.73-29.85-25.29-17.62 30.77-1.87 8.94-29.5 11.28,28.69 30.83-.62-23.8,19.6 10.11,29.13-25.99-16.58z" transform="matrix(-.45428 -.49489 .4753 -.44889 619.07 802.79)"/><path d="m659.7,186.57 7.73-29.85-25.29-17.62 30.77-1.87 8.94-29.5 11.28,28.69 30.83-.62-23.8,19.6 10.11,29.13-25.99-16.58z" transform="matrix(-.64713 -.16242 .15599 -.63946 848.5 625.64)"/><path d="m659.7,186.57 7.73-29.85-25.29-17.62 30.77-1.87 8.94-29.5 11.28,28.69 30.83-.62-23.8,19.6 10.11,29.13-25.99-16.58z" transform="matrix(-.64912 .15404 -.14794 -.64142 954.43 409.88)"/><path d="m659.7,186.57 7.73-29.85-25.29-17.62 30.77-1.87 8.94-29.5 11.28,28.69 30.83-.62-23.8,19.6 10.11,29.13-25.99-16.58z" transform="matrix(-.34579 .57812 -.55523 -.34169 880.42 -146.58)"/><path d="m659.7,186.57 7.73-29.85-25.29-17.62 30.77-1.87 8.94-29.5 11.28,28.69 30.83-.62-23.8,19.6 10.11,29.13-25.99-16.58z" transform="matrix(-.5577 .37046 -.35579 -.55109 1024.7 74.614)"/><path d="m659.7,186.57 7.73-29.85-25.29-17.62 30.77-1.87 8.94-29.5 11.28,28.69 30.83-.62-23.8,19.6 10.11,29.13-25.99-16.58z" transform="matrix(-.65982 .09648 -.09266 -.652 1058.6 332.2)"/><path d="m659.7,186.57 7.73-29.85-25.29-17.62 30.77-1.87 8.94-29.5 11.28,28.69 30.83-.62-23.8,19.6 10.11,29.13-25.99-16.58z" transform="matrix(-.65232 -.13943 .13391 -.64459 1000.3 547.27)"/><path d="m659.7,186.57 7.73-29.85-25.29-17.62 30.77-1.87 8.94-29.5 11.28,28.69 30.83-.62-23.8,19.6 10.11,29.13-25.99-16.58z" transform="matrix(-.48374 -.46529 .44686 -.47801 800.73 785.25)"/></g></svg>