<svg xmlns="http://www.w3.org/2000/svg" viewBox="0 0 640 480"><g fill-rule="evenodd" stroke-width="1.25"><path fill="#f30" d="m0,0h640v480h-640z"/><g fill="#ff0"><path d="m243.69,272.08-74.944-53.515-74.577,54.041 27.737-87.819-74.44-54.228 92.096-.7561 28.565-87.552 29.177,87.351 92.096,.1152-74.058,54.739 28.349,87.624z"/><path d="m422.65,82.658-14.894-20.764-24.425,7.5182 15.146-20.583-14.698-20.906 24.257,8.0453 15.34-20.439-.1558,25.554 24.179,8.2741-24.351,7.748-.3977,25.552z"/><path d="m361.65,461.38-16.99-19.087-23.501,10.04 12.903-22.058-16.81-19.249 24.967,5.4556 13.11-21.935 2.5266,25.43 24.913,5.6913-23.404,10.26 2.2857,25.453z"/><path d="m481.18,216.34-8.2748-24.177-25.556,.1569 20.437-15.342-8.046-24.256 20.907,14.697 20.581-15.148-7.5168,24.425 20.767,14.894-25.551,.3982-7.7478,24.353z"/><path d="m477.63,339.56-20.9-14.703-20.588,15.141 7.5245-24.422-20.762-14.901 25.553-.39 7.7548-24.35 8.2668,24.181 25.555-.1482-20.442,15.334 8.0376,24.258z"/></g></g></svg>