<svg xmlns="http://www.w3.org/2000/svg" viewBox="0 0 640 480"><g fill-rule="evenodd" stroke-width="1.25"><path fill="#f30" d="m0 0h640v480h-640z"/><g fill="#ff0"><path d="m243.69 272.08l-74.944-53.51-74.58 54.04 27.737-87.82-74.44-54.23 92.1-.756 28.565-87.55 29.18 87.35 92.1.115-74.06 54.739 28.349 87.62"/><path d="m422.65 82.66l-14.894-20.764-24.425 7.518 15.15-20.583-14.698-20.906 24.26 8.05 15.34-20.439-.156 25.554 24.18 8.274-24.351 7.748-.398 25.552"/><path d="m361.65 461.38l-16.99-19.09-23.501 10.04 12.903-22.06-16.81-19.249 24.967 5.456 13.11-21.935 2.527 25.43 24.913 5.691-23.404 10.26 2.286 25.453"/><path d="m481.18 216.34l-8.275-24.18-25.556.157 20.437-15.342-8.05-24.26 20.907 14.697 20.581-15.15-7.517 24.425 20.767 14.894-25.551.398-7.748 24.353z"/><path d="m477.63 339.56l-20.9-14.703-20.588 15.14 7.524-24.422-20.762-14.901 25.553-.39 7.755-24.35 8.267 24.18 25.555-.148-20.442 15.334 8.04 24.26"/></g></g></svg>