<svg xmlns="http://www.w3.org/2000/svg" viewBox="0 0 640 480" xmlns:xlink="http://www.w3.org/1999/xlink"><defs><path id="1" d="m0-4l.899 2.767h2.909l-2.353 1.71.899 2.767-2.353-1.71-2.353 1.71.899-2.767-2.353-1.71h2.909z"/><clipPath id="0"><path d="m-123.43 0h682.67v512h-682.67z"/></clipPath></defs><g fill-rule="evenodd" clip-path="url(#0)" transform="matrix(.9375 0 0 .9375 115.72 0)"><g stroke-width="1.25"><path fill="#fff" d="m-123.43 233.05h846.53v205.97h-846.53z"/><g fill="#081873"><path d="m-122.76 0h845.95v256.64h-845.95z"/><path d="m-122.52 385.87h852.12v126.13h-852.12z"/></g><path fill="#de3929" d="m-122.52 302.55h845.95v39.649h-845.95z"/></g><g fill="#ffce08" stroke-width=".125"><use transform="matrix(7.398 0 0 7.3981 130.92 428.79)" xlink:href="#1"/><use transform="matrix(7.398 0 0 7.3981 316.91 280.12)" xlink:href="#1"/><use transform="matrix(7.398 0 0 7.3981 88.27 365.07)" xlink:href="#1"/><use transform="matrix(7.398 0 0 7.3981 316.91 359.08)" xlink:href="#1"/><use transform="matrix(7.398 0 0 7.3981 269.82 217.8)" xlink:href="#1"/><use transform="matrix(7.398 0 0 7.3981 198.74 193.05)" xlink:href="#1"/><use transform="matrix(7.398 0 0 7.3981 127.65 216.41)" xlink:href="#1"/><use transform="matrix(7.398 0 0 7.3981 86.18 280.12)" xlink:href="#1"/><use transform="matrix(7.398 0 0 7.3981 198.74 450.03)" xlink:href="#1"/><use transform="matrix(7.398 0 0 7.3981 274.26 428.79)" xlink:href="#1"/></g></g></svg>