<svg xmlns="http://www.w3.org/2000/svg" viewBox="0 0 640 480"><defs><clipPath id="clipPath3679" clipPathUnits="userSpaceOnUse"><path fill-opacity=".67" d="m-123.43-0h682.67v512h-682.67z"/></clipPath></defs><g fill-rule="evenodd" clip-path="url(#clipPath3679)" transform="matrix(.9375 0 0 .9375 115.72 .00001)"><g stroke-width="1.25"><path fill="#fff" d="m-123.43,233.05h846.53v205.97h-846.53z"/><g fill="#081873"><path d="m-122.76-0h845.95v256.64h-845.95z"/><path d="m-122.52,385.87h852.12v126.13h-852.12z"/></g><path fill="#de3929" d="m-122.52,302.55h845.95v39.649h-845.95z"/></g><g fill="#ffce08" stroke-width=".125"><path d="m0-4.004 .899,2.7667 2.909,0-2.3535,1.7099 .899,2.7667-2.3535-1.7099-2.3535,1.7099 .899-2.7667-2.3535-1.7099 2.909,0z" transform="matrix(7.398 0 0 7.3981 130.92 428.79)"/><path d="m0-4.004 .899,2.7667 2.909,0-2.3535,1.7099 .899,2.7667-2.3535-1.7099-2.3535,1.7099 .899-2.7667-2.3535-1.7099 2.909,0z" transform="matrix(7.398 0 0 7.3981 316.91 280.12)"/><path d="m0-4.004 .899,2.7667 2.909,0-2.3535,1.7099 .899,2.7667-2.3535-1.7099-2.3535,1.7099 .899-2.7667-2.3535-1.7099 2.909,0z" transform="matrix(7.398 0 0 7.3981 88.271 365.07)"/><path d="m0-4.004 .899,2.7667 2.909,0-2.3535,1.7099 .899,2.7667-2.3535-1.7099-2.3535,1.7099 .899-2.7667-2.3535-1.7099 2.909,0z" transform="matrix(7.398 0 0 7.3981 316.91 359.08)"/><path d="m0-4.004 .899,2.7667 2.909,0-2.3535,1.7099 .899,2.7667-2.3535-1.7099-2.3535,1.7099 .899-2.7667-2.3535-1.7099 2.909,0z" transform="matrix(7.398 0 0 7.3981 269.82 217.8)"/><path d="m0-4.004 .899,2.7667 2.909,0-2.3535,1.7099 .899,2.7667-2.3535-1.7099-2.3535,1.7099 .899-2.7667-2.3535-1.7099 2.909,0z" transform="matrix(7.398 0 0 7.3981 198.74 193.05)"/><path d="m0-4.004 .899,2.7667 2.909,0-2.3535,1.7099 .899,2.7667-2.3535-1.7099-2.3535,1.7099 .899-2.7667-2.3535-1.7099 2.909,0z" transform="matrix(7.398 0 0 7.3981 127.65 216.41)"/><path d="m0-4.004 .899,2.7667 2.909,0-2.3535,1.7099 .899,2.7667-2.3535-1.7099-2.3535,1.7099 .899-2.7667-2.3535-1.7099 2.909,0z" transform="matrix(7.398 0 0 7.3981 86.184 280.12)"/><path d="m0-4.004 .899,2.7667 2.909,0-2.3535,1.7099 .899,2.7667-2.3535-1.7099-2.3535,1.7099 .899-2.7667-2.3535-1.7099 2.909,0z" transform="matrix(7.398 0 0 7.3981 198.74 450.03)"/><path d="m0-4.004 .899,2.7667 2.909,0-2.3535,1.7099 .899,2.7667-2.3535-1.7099-2.3535,1.7099 .899-2.7667-2.3535-1.7099 2.909,0z" transform="matrix(7.398 0 0 7.3981 274.26 428.79)"/></g></g></svg>