<svg xmlns="http://www.w3.org/2000/svg" viewBox="0 0 640 480" xmlns:xlink="http://www.w3.org/1999/xlink"><defs><clipPath id="0"><path d="m0 0h640v480h-640z"/></clipPath></defs><g fill-rule="evenodd" clip-path="url(#0)"><path fill="#0021ad" stroke-width="1.25" d="m0 0h640v480h-640z"/><path fill="#1c8a42" d="m0 0l640 480-.37-479.64-639.63-.36"/><path fill="#ffc639" d="m227.5 97.284a34.922 34.922 0 1 1 -69.844 0 34.922 34.922 0 1 1 69.844 0" transform="matrix(3.1467 0 0 3.1467-287.54-51.03)"/><path fill="#1c8a42" d="m250.12 206.06c7.517 10.323 18.903 27.606 28.07 23.1 7.143.023 10.838.53 11.807 5.28 16.864 2.874 45.21-4.242 62.832-27.2 0 0 1.49.192.971-8.537.098-3.808 5.201-3.039 5.323-1.811.714 1.891.585 3.31 1.541 3.356 2.18-.73 5.145-5.594 7.631-8.682.681-1.362.31-2.803.468-4.512 1.31-3.23 4.581-2.525 5.274-.838.619 1.089.629 1.929 1.248 3.02 3.321 2.212 9.321.147 9.789.147.589-2.705 2.33-2.451 2.33-2.451 2.212-.489 1.349-.292 2.797.466-1.281 14.605 2.873 15.249 2.53 22.747.148 8.357-2.53 10.734-2.53 13.934.85 3.888 13.185 4.02 8.843 7.322-3.815 2.039.021 5.856-5.728 7.333-16.693 8.478-19.894 15.75-19.894 15.75s-4.194 7.924-4.66 7.924c-2.803 5.286-6.347 2.397-8.313 4.978-.985 3.239-2.091 10.409-.123 14.14.982 5.123-.123 7.918-1.354 13.05-1.106 10.691-5.343 12.311-5.832 16.07-1.968 4.01.413 22.837-1.449 22.837-12.436.245-21.966-2.379-26.884-3.36 4.795-20.653 2.938-38.812 2.938-40.674-1.231-14.774-22.14-11.177-25.334-13.14-2.656-.564-4.324-2.725-5.258-3.658-2.953-.31-4.059-.991-7.01-1.299-1.476.736-.586 1.501-3.876 2.511-8.334 1.01-12.02-7.266-12.02-7.266.407-2.789-18.741.568-29.15-1.848-4.269 2.379-6.131 9.414-9.631 10.253-.099 2.18-5.746-1.792-6.886-3.938-.244-6.243 5.441-9.01 5.441-9.01 4.507-3.169 7.187-3.69 9.359-5.876 1.089-5.437.538-9.457 2.856-13.544 1.961-3.118 4.852-1.655 6.813-3.056 2.114-1.397 3-10.541 1.061-13.05 0 0-8.439-7.614-8.904-8.08-2.748-7.876 3.208-12.948 4.917-12.378"/><path fill="#ffc639" d="m579.51 72.57c-2.84-11.235-28.25-35.433-47.35-50.832-4.562-3.106-7.534-1.256-6.94 3.173 2.38 3.966 4.162 8.326 6.543 12.292.661 2.643 1.916 4.493 2.577 7.137 0 0 .197 4.56.596 4.956 5.946 6.545 6.739 12.09 6.739 12.09 3.436 6.609 6.476 11.433 12.491 16.852 6.741 4.229 1.782 17.381 1.981 24.388 0 4.428-3.171 3.899-5.947 3.369-21.874-20.09-43.552-20.16-62.65-25.971-7.466-.794-7.599 2.776-5.153 4.757 13.349 14.276 25.907 23.991 42.43 32.12 2.776 1.719 5.55 3.437 8.326 5.156 3.173 2.643 6.343 5.286 9.516 7.93 7.336 4.759 7.932 9.121 7.932 9.516.197 8.923-4.562 15.861-5.95 18.637-2.505 9.462-7.532 11.1-7.532 11.1-40.842 27.559-62.26 34.696-128.48 26.17-.991-.529-7.337.529 0 3.173 16.854 5.617 58.25 14.623 98.3-4.344 9.616-6.742 16.05-4.53 23.02-8.566 11.437-7.05 27.775-15.837 30.749-16.828 8.922-4.759 33.902-10.112 39.652-14.871 6.609-.529 13.455-1.396 13.918-7.079 2.173-1.401 5.343-.379 7.704-5 5.233-.911 4.352-2.787 4.352-2.787-1.321-3.699-6.213-5.22-9.713-7.929-5.156-1.72-8.723-2.248-12.492-.398-1.189.53-2.379 1.058-3.569 1.587 0 0-5.551-.792-5.551-1.189-12.337-.677-11.136-41.559-15.499-58.61"/><path fill="#1c8a42" d="m354.38 73.886a2.0703 1.3672 0 1 1 -4.1406 0 2.0703 1.3672 0 1 1 4.1406 0" transform="matrix(1.4308.44936-.4805 1.3381 117.1-185.57)"/><g fill="#fff" stroke-width="1.25"><path d="m73.826 356.02l-13.802-12.92-13.968 12.74 1.497-18.84-18.671-2.98 15.668-10.58-9.315-16.45 18.04 5.65 7.05-17.54 6.83 17.63 18.11-5.42-9.526 16.33 15.531 10.78-18.708 2.74z" transform="matrix(1.0128 0 0 1.0128 6.06 53.13)" id="1"/><use transform="matrix(.78759 0 0 .78759 111.71-23.521)" xlink:href="#1"/><path d="m240.51,428.32-23.61-11.9-9.44,24.7-8.27-25.11-24.14,10.79 11.9-23.6-24.69-9.44 25.11-8.28-10.8-24.13 23.61,11.9 9.44-24.7 8.27,25.11 24.14-10.79-11.9,23.61 24.69,9.43-25.11,8.28z" transform="matrix(.7796 0 0 .7796 2.272 204.54)"/><path d="m269.57 243.43l-13.75-.61-6.81 11.97-6.35-12.22-13.76.09 7.41-11.6-6.97-11.88 13.76.61 6.8-11.97 6.35 12.22 13.77-.09-7.41 11.6z" transform="matrix(1.0126-.01487.01487 1.0126-2.743 157.47)"/><path d="m159.76,320.14-12.93-8.86-12.59,9.33 4.43-15.03-12.77-9.09 15.67-.43 4.69-14.96 5.26,14.77 15.67-.15-12.42,9.56z" transform="matrix(.91834 0 0 .89434 38.974 151.64)"/></g></g></svg>