<svg xmlns="http://www.w3.org/2000/svg" viewBox="0 0 640 480"><defs><clipPath id="clipPath3489" clipPathUnits="userSpaceOnUse"><path fill-opacity=".67" d="m0,0h640v480h-640z"/></clipPath></defs><g fill-rule="evenodd" clip-path="url(#clipPath3489)"><path fill="#0021ad" stroke-width="1.25" d="m0,0h640v480h-640z"/><path fill="#1c8a42" d="m0-0 640,480-.37-479.64-639.63-.36z"/><path fill="#ffc639" d="m227.5,97.284a34.922,34.922 0 1,1 -69.844,0 34.922,34.922 0 1,1 69.844,0z" transform="matrix(3.1467 0 0 3.1467 -287.54 -51.027)"/><path fill="#1c8a42" d="m250.12,206.06c7.5171,10.323 18.903,27.606 28.068,23.098 7.1431,.0233 10.838,.5298 11.807,5.2803 16.864,2.8744 45.208-4.2417 62.832-27.202 0,0 1.4899,.1925 .9712-8.5373 .0981-3.8076 5.2006-3.0387 5.3233-1.8112 .7137,1.8909 .5849,3.3097 1.5414,3.3563 2.1803-.7296 5.1454-5.5943 7.6311-8.682 .6806-1.3624 .3102-2.8033 .4684-4.5115 1.3097-3.23 4.5814-2.5249 5.2742-.8375 .6193,1.0889 .6291,1.9289 1.2483,3.0178 3.3208,2.2122 9.3209,.1472 9.7894,.1472 .5886-2.7052 2.3299-2.4513 2.3299-2.4513 2.2122-.4893 1.3489-.2919 2.7971,.466-1.2814,14.605 2.8732,15.249 2.5298,22.747 .1484,8.3571-2.5298,10.734-2.5298,13.934 .8498,3.8885 13.185,4.0234 8.8427,7.3221-3.8149,2.0393 .0209,5.8555-5.7279,7.3331-16.693,8.4785-19.894,15.75-19.894,15.75s-4.1938,7.9242-4.6598,7.9242c-2.8033,5.2865-6.3472,2.3974-8.3129,4.9775-.9847,3.2386-2.0908,10.409-.1227,14.138 .9822,5.1234-.1227,7.918-1.3538,13.045-1.1061,10.691-5.3429,12.311-5.8322,16.07-1.9682,4.0075 .4133,22.837-1.4494,22.837-12.436,.2452-21.966-2.379-26.884-3.36 4.7948-20.653 2.9382-38.812 2.9382-40.674-1.2312-14.774-22.14-11.177-25.334-13.143-2.6561-.5641-4.3238-2.7248-5.2583-3.658-2.9529-.3102-4.059-.9908-7.0118-1.2986-1.4764,.7358-.5862,1.501-3.8763,2.5114-8.3338,1.0055-12.021-7.2657-12.021-7.2657 .4071-2.7886-18.741,.5678-29.151-1.848-4.2687,2.379-6.1314,9.4141-9.6312,10.253-.0994,2.1803-5.7463-1.7916-6.8855-3.9376-.244-6.243 5.441-9.0094 5.441-9.0094 4.5066-3.1687 7.1872-3.6899 9.3589-5.8763 1.0889-5.4373 .5383-9.457 2.856-13.544 1.9608-3.1184 4.8524-1.6555 6.8132-3.0559 2.1141-1.3967 3.0019-10.541 1.0607-13.048 0,0-8.4392-7.6139-8.904-8.0787-2.7481-7.8764 3.208-12.948 4.9174-12.378z"/><path fill="#ffc639" d="m579.51,72.574c-2.8399-11.235-28.252-35.433-47.35-50.832-4.5623-3.1062-7.5336-1.2561-6.94,3.1726 2.3798,3.9659 4.1616,8.3263 6.5428,12.292 .6608,2.6432 1.9161,4.4933 2.577,7.1366 0,0 .1972,4.5596 .5965,4.9561 5.9462,6.5448 6.7392,12.095 6.7392,12.095 3.4364,6.6092 6.4756,11.433 12.491,16.852 6.7406,4.2294 1.7818,17.381 1.9812,24.388 0,4.428-3.1707,3.8994-5.9469,3.3693-21.874-20.09-43.552-20.156-62.653-25.971-7.4658-.7937-7.5987,2.7756-5.1532,4.7567 13.349,14.276 25.907,23.991 42.429,32.119 2.7756,1.7189 5.5497,3.4371 8.326,5.156 3.1728,2.6427 6.3434,5.2861 9.5162,7.9295 7.3358,4.7588 7.9316,9.1211 7.9316,9.5155 .1965,8.9225-4.5616,15.861-5.9497,18.637-2.5049,9.4624-7.5323,11.103-7.5323,11.103-40.842,27.559-62.256,34.696-128.48,26.17-.9909-.5287-7.3365,.5287 0,3.1728 16.854,5.6169 58.252,14.623 98.303-4.3441 9.6162-6.742 16.05-4.5301 23.016-8.5658 11.437-7.0532 27.775-15.837 30.749-16.828 8.9218-4.7588 33.902-10.112 39.652-14.871 6.6085-.5294 13.455-1.3958 13.918-7.0791 2.1734-1.4014 5.3434-.379 7.7036-5.005 5.2329-.9112 4.3518-2.7867 4.3518-2.7867-1.321-3.6994-6.2127-5.2204-9.7134-7.9288-5.156-1.7196-8.7232-2.2476-12.492-.3979-1.1895,.5301-2.379,1.0581-3.5686,1.5867 0,0-5.5511-.7923-5.5511-1.1888-12.337-.6769-11.136-41.559-15.499-58.61z"/><path fill="#1c8a42" d="m354.38,73.886a2.0703,1.3672 0 1,1 -4.1406,0 2.0703,1.3672 0 1,1 4.1406,0z" transform="matrix(1.4308 .44936 -.4805 1.3381 117.1 -185.57)"/><g fill="#fff" stroke-width="1.25"><path d="m73.826,356.02-13.802-12.92-13.968,12.74 1.497-18.84-18.671-2.98 15.668-10.58-9.315-16.45 18.042,5.65 7.055-17.54 6.83,17.63 18.113-5.42-9.526,16.33 15.531,10.78-18.708,2.74z" transform="matrix(1.0128 0 0 1.0128 6.0636 53.133)"/><path d="m73.826,356.02-13.802-12.92-13.968,12.74 1.497-18.84-18.671-2.98 15.668-10.58-9.315-16.45 18.042,5.65 7.055-17.54 6.83,17.63 18.113-5.42-9.526,16.33 15.531,10.78-18.708,2.74z" transform="matrix(.79767 0 0 .79767 116.49 18.326)"/><path d="m240.51,428.32-23.61-11.9-9.44,24.7-8.27-25.11-24.14,10.79 11.9-23.6-24.69-9.44 25.11-8.28-10.8-24.13 23.61,11.9 9.44-24.7 8.27,25.11 24.14-10.79-11.9,23.61 24.69,9.43-25.11,8.28z" transform="matrix(.7796 0 0 .7796 2.2716 204.54)"/><path d="m269.57,243.43-13.75-.61-6.81,11.97-6.35-12.22-13.76,.09 7.41-11.6-6.97-11.88 13.76,.61 6.8-11.97 6.35,12.22 13.77-.09-7.41,11.6z" transform="matrix(1.0126 -.01487 .01487 1.0126 -2.7427 157.47)"/><path d="m159.76,320.14-12.93-8.86-12.59,9.33 4.43-15.03-12.77-9.09 15.67-.43 4.69-14.96 5.26,14.77 15.67-.15-12.42,9.56z" transform="matrix(.91834 0 0 .89434 38.974 151.64)"/></g></g></svg>