<svg xmlns="http://www.w3.org/2000/svg" viewBox="0 0 640 480"><path fill="#fff" d="m0,0h640v480h-640z"/><g fill-rule="evenodd"><path fill="#808080" stroke-width="1.25" d="m699.33,498.15 3.02-3.98-1.57-4.74 4.72,1.64 4.02-2.96-.1,4.99 4.05,2.92-4.77,1.44-1.52,4.76-2.85-4.1z" transform="matrix(.56176 0 0 .56176 -93.752 -60.109)"/><path fill="#ffce00" d="m164.84,244.11h.3083c-.8228,0-.3905-.0627 .9256,.942 1.076,.4378 2.0229,.6283 3.7016,.6283 1.4717,.1068 2.7452,.3138 4.3189,.3138 1.4474,.6216 2.2717,1.1893 3.3933,1.5696 .4947,.7628 1.5737,2.4713 2.1594,3.1399 1.0863,.8135 2.3972,1.3103 3.3933,2.1978 1.2412,.3444 2.031,.8815 3.3933,1.8833 1.0254,.4945 1.995,.9017 3.3933,1.5703 1.3425,.4721 2.8098,1.1042 4.0098,1.5696 1.057,.2533 2.4699,.6858 3.3933,1.2558 1.3109,.2899 2.4112,.6619 4.0106,.942 1.6332,.198 2.4574,.6372 4.0099,.942 1.3939,.7179 2.4802,1.2536 4.0106,1.8841 .621,.9293 1.1546,1.7653 2.4677,2.1971 .6745,.8315 1.7932,1.0526 2.4677,1.8841 .9938,.4789 2.0882,.7964 3.3933,1.2558 1.573,.1143 2.7077,.5693 4.3189,.6283h4.3189 4.3189c1.377,.1666 2.9191,.3862 4.0098,.6275 1.5098,0 2.9815,.0261 4.3189-.3138 1.7264-.0208 2.5316-.5125 4.0106-.6283 1.65,.2667 2.7694,.1195 3.3933,1.5703 1.0224,1.0406 1.6442,2.0596 1.8504,3.4536 .3252,.9928 .309,2.6341 .309,4.0812 0,1.3641 .007,2.85 .3083,3.7682 .9821,.9644 1.7476,1.2491 3.085,1.5696 .9916,.3362 2.8186,.6298 3.7016,1.2558 .7289,.7784 1.0856,2.0148 2.1594,2.8261 .9388,.7336 2.5088,.8868 4.0098,.9413h4.3189c1.3484,0 3.1379,.1307 4.0106-.3138 1.3359-.4946 1.6867-1.4142 3.3933-1.5696 1.6075,.2465 1.5744,1.0212 2.776,1.5696 .7648,1.1221 1.49,1.5853 2.4677,2.1978 .6342,.9226 1.4636,1.639 2.7767,1.8841 1.6074-.1658 3.0615-.6455 4.3188-.942 .4397-1.1206 .9784-1.8938 1.5421-2.8261 .4184-.7202 .6166-.9054 .6166-2.1978 .4617-.9383 .4044-2.847 0-4.0812-.058-1.5979-.425-2.4421-.6166-4.0819 0-1.5218 .0713-2.9703 .3083-4.0812 .6342-.7448 1.0467-1.9633 1.5429-2.8261 .8412-1.0272 1.6207-1.4134 2.776-1.8833 .9762-.3309 2.5881-.3145 4.0106-.3145 .7545-.2301 2.0075-.1539 1.5421-.6275-.4,.4071-1.9348,.5356-.3083,.6275 .8852-.6111 2.5-.892 3.3933-1.2558 1.3175-.2017 2.1073-.6574 3.3933-.9413 .9615-.573 2.0376-.8472 3.3933-1.2566 1.1172-.4325 2.3738-.8554 3.7016-1.2558 1.4203-.6791 2.296-1.0623 3.7016-1.2558 .9674-.5192 2.1822-.6275 3.7023-.6275 1.4254,.9301 2.1734,1.6592 3.3933,2.8254 .5828,.8733 1.1047,1.3985 1.5421,2.5116 .9872,.6836 1.515,1.1878 3.3933,1.2558 1.4856,0 2.075,.2585 2.4677-.9413 .8118-.7366 1.2324-2.0395 2.1594-2.8261 .9204-.9204 2.0574-1.388 3.085-1.8833 1.1582-.322 2.0941-.7478 3.7016-.942 1.0702-.3982 2.1763-.4826 3.3933,.3138 .9058,1.2872 1.9282,2.6012 3.085,4.0819 .7846,.517 1.7455,.6275 3.0843,.6275 .9417-.4789 2.8846-.3138 4.3188-.3138 1.2632,.3698 1.8152,1.217 3.085,1.5696 .7098,.0725 1.0922,.3138 1.8512,.3138 2.2563,.2981 3.1951,.0717 4.9354-.3138h4.3189c1.5157,.0575 2.3326,.3138 4.0098,.3138 .9373,.579 2.544,.8479 3.7023,1.2566 1.4599,.3496 1.7388,.9137 3.0843,1.5696 .8727,.4438 2.6622,.3138 4.0106,.3138 1.6104-.195 2.6806-.4736 4.0098-.942 1.1707-.2906 1.6662-.5917 2.1594-1.5696 .767-.5304 1.8255-1.3798 2.4684-2.1978 .847-.5864 1.5825-1.335 2.1587-2.1978 .8309-.5581 2.2277-1.9797 2.7767-2.8254 .7883-.6425 1.6309-1.9879 2.1594-2.8261 .6768-1.0235 1.5311-1.6166 2.1594-3.1391 .4808-1.468 .5439-2.6184 .9256-4.0819 .3178-1.1863 .9013-2.1904 1.2339-3.7674 .6268-1.3746 1.1289-2.7156 1.5421-3.7682 .7575-.8643 1.2595-1.9095 2.1594-2.8254 .516-.8121 1.2038-1.2252 1.8512-1.8841 .7347-.7127 1.8431-1.2401 3.0843-1.5696 1.2742-.3534 1.8254-.9219 2.4677-1.8841 1.1663-.3952 1.8541-.9069 3.3933-1.2558 1.3535-.4079 2.4618-.6671 3.7023-.942h4.3188c1.5554,0 2.8949,.1419 4.3181,.3145 1.4064,.4086 2.7261,.765 4.0106,.942 .883,.4251 2.3518,1.202 3.085,1.8833 .9212,.6193 1.9275,1.6189 2.4677,2.5116 .4029,1.2319 1.0584,1.7757 1.8504,2.8261 .8243,1.0914 1.5179,1.7817 3.085,2.5116 1.2485,.2944 2.271,.83 3.7016,.942 1.639,0 2.6307,.2062 4.0106,.3138 1.5091,0 2.9815,.0261 4.3189-.3138 1.3469-.7919 1.8298-1.0033 2.776-2.1978 1.2441-.623 2.1477-1.1176 3.7023-1.2558 1.0217-.2263 2.2879-.3138 3.7016-.3138 .8008,.5588 1.6508,.7695 2.1594,1.5696 .8125,.5857 .8661,.9032 2.1594,.942 .8823,.5252 2.1814,.7755 3.3933,.942h4.3181-4.3181 4.3181c1.1825-1.0108 1.5429-.8957 1.5429-2.1978 .9549-.7784 1.4284-1.8706 2.4677-3.1399 .5637-.9316 1.1025-1.7055 1.5421-2.8261 .3369-1.0287 .756-2.6065 .9256-3.7674 .3897-1.0414 .7575-2.6423 .9256-4.0812 .3736-1.4508 .6173-2.7477 .6173-4.3957v-4.3957c-.0184-1.5524-.2474-2.6379-.6173-3.7674-.4889-1.3873-1.3065-2.401-1.8512-3.4536-.9131-.7344-2.0405-1.7638-2.776-2.5116-1.4027-.8606-2.4655-1.4874-3.7016-2.1978-1.3513-.8516-2.649-1.5905-3.7023-2.1978-.6187-.7045-1.6243-1.6719-2.1587-2.1978-.4228-.8599-.4228-2.9083 0-3.7674 .036-1.3074 .1725-2.0604 .9248-2.8261 1.4056-.5132 2.343-1.1893 3.3933-1.8841 .6819-.9712 1.7506-1.158 3.085-2.1971 1.3352-.5961 2.0919-.9092 3.085-1.8841 1.443-.4901 2.7899-1.4881 4.0099-1.8841 .6606-.8128 1.8974-1.4852 3.3933-1.8834 1.0702-.7418 2.351-1.5307 3.3933-1.884 1.4526-.7837 2.5316-1.0593 4.0106-1.8841 1.5084-.3832 2.8553-1.0735 4.3189-1.5696 .3751-.4669 .8228-.8128 1.5421-.942 1.9201-.1158 3.521-.3257 4.6271-1.2558 1.2405-.4475 1.3689-1.3537 2.1594-2.1978 .5674-1.0384 1.1869-1.4986 1.5421-2.8254 .9814-1.0728 .4389-1.3873-1.2339-1.5703-.5263-.5357-1.0012,.005-1.2339-.9413-1.1069-.5058-1.396-1.3836-2.1594-2.1978-.4661-1.2976-.4551-1.8811 .9256-2.5123 .8603-.5947 2.0846-.7949 2.7767-1.5696 1.2852-.1972 2.2615-.762 3.3933-1.2558 1.6765-.1218 2.5683-.5072 4.0099-.942 1.2272-.6671 2.0244-1.0586 3.085-1.5696 1.2683-.5588 2.7804-1.3477 4.0098-1.8841 1.1061-.75 2.511-1.4836 4.0106-1.8833 1.1047-.5715 2.4633-1.0205 3.7016-1.5703 1.057-.2532 2.4699-.685 3.3933-1.2558 1.4218-.2757 2.961-.7979 4.0106-1.2558 1.032-.4744 2.2475-1.0713 3.0843-1.5696 1.2779-.5625 2.1902-1.2356 3.394-1.5703 .7289-.7075 1.711-1.2087 2.776-1.5696 .8683-.8203 2.7151-1.9536 3.7016-2.5116 .9358-.4512 2.0295-.9107 2.7767-1.5703 .7178-.0808 .5153-.2323 1.2338-.3138 2.2483-.6888 3.3962-.945 4.6272-2.1978 .9564-.4609 1.94-.9614 2.776-1.5696 1.029-.8315 1.8489-1.5845 2.4677-2.5116 1.123-.4057 1.7381-1.1975 2.7767-1.8841 1.076-.4378 2.0236-.6283 3.7016-.6283 1.3491,0 3.1378,.1307 4.0106-.3138 1.9355-.0233 2.4391-.496 3.7016-1.2558 .4176-1.1983 1.3094-1.7974 2.4677-2.5116 .6826-.6343 2.4083-1.5838 3.085-2.1978 1.3352-.6507 1.9121-1.4807 3.085-2.5116 .9058-.9921 2.0405-1.9095 3.0843-2.5116 1.297-.5752 2.2262-.8337 3.3933-1.2558 1.4607-.2652 2.9287-.5379 4.3159-.942 1.5781-.1233 2.1359-.5932 3.3984-.942 .8735-.8479 1.4019-1.2752 2.4662-2.5116 .5211-1.4426 1.2918-1.9707 2.7745-2.1978 1.49-.7926 2.6864-.8868 3.7067-1.8841 1.0423-1.0631 1.7616-2.2591 2.7745-3.4536 .5725-1.3529 1.1083-2.1665 1.2331-3.7674-.0219-1.9266-.4331-2.2038-1.2331-3.4536-.7707-1.1251-1.2552-1.8407-1.8497-2.8261-.9615-.5528-2.3268-1.1019-3.3984-1.5696-1.468,.115-2.3708,.4505-3.3911,.942-1.0496,.8636-1.7763,1.5733-2.4662,2.8254-.4698,1.0115-.7854,2.1254-1.2331,3.4536-.5872,.8539-1.9891,1.6644-3.0902,2.1978-1.2918,.5752-2.2167,.8337-3.3911,1.2558-1.4606,.514-2.1418,.9585-3.7008,1.5703-.9124,.4393-2.1748,1.1146-3.085,1.5696-1.3418,.8128-2.627,1.4463-3.7016,1.8841-1.3682,.7904-2.1499,1.2244-3.3933,1.5696-1.4027,.8494-2.7606,1.4934-4.0106,2.1978-1.0371,.5185-2.0493,1.1915-3.3933,1.8841-1.0907,.2413-2.6336,.4609-4.0098,.6275h-4.6279c-1.3183-.3093-2.8868-.579-4.3181-1.2558-1.5363-.8098-2.2879-1.3223-3.3933-2.1978-.676-1.3395-.9043-1.9797-.9256-3.7674-.9586-.4878-2.2849-.6103-3.7016-.6283-1.5649,0-3.016-.0591-4.0106,.6283-1.3432,.2032-2.4721,.756-3.3933,1.5696-1.4203,.6873-2.3481,1.5158-3.3933,2.1978-1.0871,.6671-2.4934,1.6659-3.7016,2.1978-1.1355,.4953-2.911,1.0376-4.3189,1.5696-1.8115,.5297-3.1217,1.1139-4.9354,1.2566-1.5487,.7127-2.7628,.9249-4.3189,1.5696-1.5796,.5977-2.6952,1.0384-4.3189,1.5696-1.0709,.5543-3.005,1.4807-4.0106,2.1978-1.8424,.9375-3.1907,1.7339-4.6272,2.5116-1.4438,.6171-2.4897,1.2028-4.0098,1.8841-.7472,.6776-2.2277,1.2087-3.085,1.8841-1.3762,.3503-2.9573,.9278-3.7016,1.5696-1.217,.1487-1.893,.4751-2.4677,1.2558-1.0995,1.3425-.6188,1.2558-1.8512,1.2558-1.054,.6514-2.693,.6283-4.3189,.6283-1.6456-.0448-2.9411-.3145-4.6271-.3145-1.4474-.263-2.7701-.5715-4.3189-.6275h-4.3189-4.3181-4.3189-4.9362-4.3181-4.3189c-1.639,0-2.6306,.2062-4.0106,.3138-1.5348,.1121-2.7312,.452-4.0099,.6283-1.3902,.2129-2.0258,.7448-3.085,1.2558-.974,.4699-1.9561,.9428-3.085,1.2558-1.5142,.815-3.2568,1.2424-4.9354,1.5696-1.2669,.5984-3.0659,.9181-4.0106,1.5703-1.446,.1128-2.3921,.5102-4.0098,.6275-1.374,.6328-2.5059,.9697-3.7023,1.2558-1.1091,.3765-2.1763,.6096-3.7016,.6283-1.4269,.1965-2.2137,.6051-3.7016,.942-.5292,.4535-1.374,.7762-2.1594,.9413-1.8122,.8741-2.406,.942-4.3189,.942h-4.3189c-2.0574-.2032-4.0994-.4647-6.1693-.942-2.1117-.1031-4.1258-.3743-6.17-.6275h-4.6271-4.6272-4.3188c-1.6302-.059-3.0777-.3765-4.6271-.6283-1.4504-.2637-2.983-.3915-4.3181-.9413-1.9187-.1031-3.8594-.3676-5.5527-.942-1.5429-.2801-3.0219-.8076-4.6271-.942-.8911-.5506-2.6387-.7336-3.3933-1.2558-1.4108-.1106-2.583-.5566-3.3933-1.2558-1.443-.2181-2.2791-.8658-3.7023-1.2558-1.2816-.7896-2.8288-1.0541-4.6271-1.8841-1.5319-.3339-3.0652-.8852-4.6271-1.2558-1.2302-.4333-2.7298-.8457-3.7016-1.5696-1.3638-.3787-2.1462-.7874-3.7016-1.2565-.7266-.6582-2.1565-1.3477-3.085-1.8833-.6746-.6118-2.4472-1.6629-3.3933-2.1978-1.0048-1.1841-2.0185-2.3518-3.3933-3.7674-.9542-1.0593-2.0434-1.911-3.085-2.5124-1.3373-.567-2.8523-1.3776-3.7016-1.8833-1.1685-.3242-2.1117-1.0474-2.7767-1.8841-1.0518-.6066-1.7381-1.1475-2.776-1.8833-1.6119,.6216-1.7814,.3138-3.3933,.3138-1.8387-.1539-3.1914-.2114-4.9354,0-1.5084,.1808-2.9837,.3138-4.6279,.3138h-4.3181c-1.9517,.0239-2.2673,.2809-2.7767,1.8841-.8977,1.0048-1.2728,2.1814-2.1594,2.8254-.7611,.9824-1.8592,1.651-3.085,2.1978-1.523,1.072-1.9825,1.4598-2.776,2.8261-1.01,.901-1.8519,2.1896-2.4677,3.1391-.56,.9749-.9358,1.8781-1.2338,3.4536 0,1.5023 .1211,3.0831-.3083,4.3957 0,1.5023 .1211,3.0831-.309,4.3957v4.3957 4.3957c.643,.9622 1.5091,1.3313 1.8512,2.8254 .4573,1.2409-.3897,.7964-1.2338,1.5696h-4.3189-4.3189c-1.573,0-2.8464-.2069-4.3188-.3138-1.2464-.2263-3.0711-.3093-4.0098-.6275h-4.3189c-1.5348-.1121-2.7312-.452-4.0106-.6283-1.7866-.3466-3.0226-.8725-4.6272-1.8841-1.6427-.3579-2.8971-.9876-4.3188-1.8833-1.5319-.4086-2.7459-1.2274-4.3181-1.5703-1.0584-.5095-1.8152-1.0033-3.085-1.5696-.7465-1.0399-1.4665-1.6196-3.085-1.8841-1.2412-.6484-2.293-.6275-4.0099-.6275-1.6074,.1942-2.5433,.62-3.7023,.942-1.2852,.5917-2.961,1.0952-4.0098,1.5696-1.0489,.4273-2.0016,1.001-3.085,1.5696-.8294,1.0862-1.3146,1.7354-1.8512,2.8261-.411,0-.3083-.1046-.3083,.3138-1.6618,.0605-3.4094,0-5.2437,0-.8705,.443-2.5639,.5386-3.7023,.6283-.9036,.7112-1.9722,1.3275-2.776,1.8833-.5322,1.0832-.9043,1.3716-.9256,3.1399 .066,1.8759 .7281,2.4212 1.2339,3.7674-.3714,1.7123-1.0313,1.8542-2.4677,2.1978-1.0915,.2413-2.5147,.3138-4.0106,.3138h-4.6271-4.6272c-1.777,0-2.6123,.0202-3.3933-.9413-.5366-1.0646-.5872-2.4212-.9256-3.4536-.9189-1.2723-1.3293-2.1261-2.776-3.1399-.3185-.9727-1.0826-2.4003-1.5421-3.4536-.4947-1.0616-.8764-1.9991-1.8511-2.8261-1.0254-.9689-2.1873-1.5979-3.085-2.5116-1.032-.6738-1.8607-1.2334-3.7016-1.2558-1.4952,0-2.9191,.0726-4.0106,.3138-.7516,.6641-2.0089,1.3731-3.0842,2.1978-.8529,1.1572-1.609,2.0014-2.7767,3.1399-1.3161,1.2282-2.6255,1.9737-3.7016,2.5116-.9858,.502-1.9914,1.1213-2.7767,2.1978-.916,.4064-1.3608,1.0885-1.8504,2.1978-.8052,.7306-1.2669,1.9476-1.5429,3.1399-.5028,1.5367-.5718,3.302-.6165,5.0232v4.3957c-.4881,.5902-.7516,1.2177-1.5421,1.8841-.7553,.6843-1.8908,1.4328-2.7767,1.8833-.8595,1.1251-1.3953,1.7855-1.5421,3.4536 0,1.3723-.1277,3.1936 .3083,4.0819 .6239,.889 1.8827,1.5031 3.085,2.1978 1.1553,.4169 1.755,1.3283 2.4677,2.5116 1.3212,.6036 1.1582,1.1624 2.776,1.2558 .9799,.7837 2.4831,1.0294 3.7023,1.5696 1.2346,.3429 1.8497,.9137 3.0843,1.2558 .7993,1.0593 1.6801,1.7466 2.1594,3.4536 .1299,1.0974 .5564,2.1971 0,3.1399-1.2566,.7612-2.9426,1.2461-3.7016,1.8841-.9983,.0531-.9241,.2891-1.5421,.6275-.0127,2.0985-.2877,3.1682-.6173,4.7094-.1057,1.4045-.3083,2.4137-.3083,4.0819v4.3957c.6562,1.3948 1.523,1.6547 2.4677,2.5116 .9403,.6835 1.2331,1.4889 1.5421,2.8254 .5292,1.2282 1.0929,2.2524 1.5429,3.4536 .5623,1.2028 .9256,2.2942 .9256,4.0819-.1541,1.719-.8603,2.0148-2.1594,2.8254-.69,.8502-.4632,2.3547-.9256,3.7681 0,1.4471-.0169,3.0884 .3083,4.0812 .5285,.7172 .4,1.0175 .6173,2.1978z"/><g fill="#009a00"><g transform="matrix(.734 0 0 .74706 -134.59 -163.25)"><path d="m460.16,634.92l-.683-.683c1.55,1.549 .802,.981-.683-2.731-.145-3.936-1.098-4.57-3.413-6.145-2.715-.904-3.875-2.064-4.779-4.779-1.736-1.433-3.042-3.351-4.097-5.462-1.876-1.275-3.503-2.903-4.779-4.779-1.876-1.276-3.503-2.903-4.779-4.779-2.594-.906-4.306-2.751-7.51-4.096-1.803-1.719-3.497-2.567-6.145-4.097-2.963-1.419-3.132-2.446-6.827-2.731-1.13,1.244-2.92,.755-3.414,2.731 .15,4.046 .955,4.894 2.731,8.193 .138,3.729 1.14,5.484 2.731,8.193 1.939,1.357 3.431,3.769 5.462,5.462 2.168,1.474 3.03,3.04 6.145,4.779 1.627,2.035 4.347,3.126 6.827,4.779 3.054,1.178 5.559,2.087 7.51,3.414 2.74,.644 4.611,1.681 6.827,2.731 3.277,.307 4.611,.673 8.876,0z"/><path d="m474.5,654.03l-.682-.682c1.621,1.621 .848,.958-1.366-2.731-2.524-2.39-3.07-4.221-6.827-4.78-2.006-.802-5.262-1.298-7.51-2.048-3.887,0-5.668-.415-8.876-1.365-2.293-.626-5.194-1.738-7.51-2.731-2.746-.408-5.589-1.482-8.193-2.048h-9.558c-3.067,.721-4.793,.753-5.462,4.096 1.4,1.695 3.248,3.173 4.779,4.779 .863,2.999 2.946,3.714 4.779,5.462 3.161,1.094 3.803,1.911 7.51,2.048 3.143,1.048 5.428,1.324 8.876,1.366 3.657,0 6.287,.742 9.558,1.365 2.724,.368 5.396,.683 8.876,.683 2.966,0 6.197-.017 8.193-.683 4.302-3.441 3.413-4.188 3.413,.683 .456,.455 .911,.91 1.366,1.365"/><path d="m497.71,664.27h-.682c1.843,0 .907,.045-2.731-.682-3.405-.973-5.339-1.918-8.876-2.049-2.101-1.228-4.68-1.365-8.193-1.365h-9.558c-3.38,.26-4.813,1.105-8.193,1.365-1.794,1.05-5.358,1.912-7.51,2.731-1.92,1.306-3.559,2.929-6.145,4.097 .596,3.391 2.479,4.668 4.78,6.144 2.31,.925 4.685,1.798 8.192,2.049 3.355,.124 5.163,.682 8.876,.682 3.479,0 6.152-.314 8.876-.682 2.266-1.074 4.194-2.199 7.51-2.731 1.653-1.433 4.073-2.433 6.144-3.414 1.834-.868 4.329-1.669 6.145-2.731l-6.145,2.731c1.834-.868 4.329-1.669 7.51-6.145z"/><path d="m529.8,679.98v-.682c0,1.908 .085,.894-1.365-2.731-2.527-1.332-5.559-2.273-7.511-3.414-2.984,0-6.944-.283-8.875,.683-3.448,.041-5.733,.318-8.876,1.365-2.996,.452-4.723,1.5-6.827,2.731-2.378,1.283-5.824,2.934-8.876,4.096-2.698,1.881-3.612,2.984-6.827,4.78-2.025,2.219-4.098,3.552-5.462,5.462-.606,2.304 .039,5.022 2.731,6.144 1.702,1.406 4.316,2.14 6.827,2.731 3.187-.118 6.001-.56 8.193-2.048 3.383-.448 5.393-1.44 8.193-2.048 2.396-.851 4.69-1.667 7.51-2.049 1.953-1.324 5.416-2.467 7.51-3.413 3.43-1.389 5.621-3.221 8.193-4.779 1.226-1.419 2.862-2.951 4.779-3.414l-4.779,3.414c1.226-1.419 2.862-2.951 5.462-6.828z" transform="matrix(1 0 0 .85157 1.1887 101.1)"/><path d="m557.11,693.63c-.127-.032-3.176-1.365-5.461-1.365-2.024-1.184-5.299-1.422-8.193-2.731-3.731,0-6.271,.418-8.193,2.048-2.838,.383-5.375,1.217-7.51,2.731-2.658,.625-5.07,1.21-7.51,2.731-3.294,1.382-4.744,2.679-6.828,4.096-1.405,1.701-4.441,2.652-6.144,4.097-1.529,1.851-1.526,4.299-.683,6.827 1.748,1.076 4.736,2.144 6.827,3.414 3.052,.545 6.162,.682 9.559,.682 3.031-.233 5.588-.741 7.51-2.048 3.434-1.654 4.348-2.876 6.827-4.779 1.434-1.736 3.833-3.133 6.145-4.096 1.742-1.51 3.856-2.614 6.827-3.414 1.663-1.585 3.194-3.117 4.779-4.779 1.909,0 .598,.211 2.048-3.414z" transform="matrix(1 0 0 .88839 0 76.96)"/><path d="m587.15,696.36c-.164-.025-3.855-.683-6.145-.683-1.931-.965-5.891-.683-8.875-.683-3.762,.14-4.925,.917-6.828,2.731-1.935,1.191-4.271,2.261-6.144,4.097-2.394,1.467-4.551,3.489-6.828,4.779-2.505,1.073-4.664,2.302-7.51,2.731-1.372,1.661-3.778,3.096-5.462,4.779-1.874,1.406-2.669,2.082-2.731,5.462-1.39,1.121-2.329,3.322-2.048,4.096 2.763,1.419 5.047,2.003 8.876,2.049 3.647,.043 6.208,.837 9.558,0 3.414-1.012 4.778-1.72 8.193-2.731 1.743-2.271 3.052-3.791 5.462-5.462 1.302-1.915 2.862-3.677 5.462-4.779 1.948-1.772 4.83-3.729 6.827-4.78 1.221-1.709 3.602-3.527 5.462-4.779 1.368-2.315 1.757-2.7 2.731-6.827z" transform="matrix(1 0 0 .86641 -.59437 95.81)"/><path d="m589.88,693.63v-10.924-9.558c-3.17-1.875-3.645-2.997-4.779-6.827-1.683-2.73-2.969-4.447-4.097-6.828-1.581-1.659-2.884-3.812-3.414-6.827-1.304-2.528-2.113-5.07-4.779-6.145-2.415-.525-5.565-.683-8.875-.683-4.522,.168-4.097,.965-4.097,5.462 .318,3.497 1.433,4.412 2.731,7.51 1.003,2.118 2.092,4.294 3.414,6.145 1.021,2.262 2.623,5.174 4.096,6.827 1.196,2.511 2.915,4.786 3.414,7.511 1.871,2.374 3.164,4.451 4.779,6.144 1.337,2.791 2.343,4.37 4.779,5.462 1.393,2.088 3.748,2.26 6.828,2.731z"/><path d="m557.11,682.71h.683c-1.908,0-.894,.085 2.731-1.365 .966-1.932 .683-5.891 .683-8.876 0-3.887-.643-5.542-1.366-8.193-1.242-2.965-2.255-4.355-2.731-7.51-1.021-2.156-2.049-4.329-2.731-6.827-1.227-1.806-2.104-4.529-2.73-6.827-2.305-1.306-4.433-2.616-6.828-3.414-2.171-1.028-4.193-2.561-6.827-3.414-3.425,.627-3.812,1.756-4.097,5.462-.787,2.754 .293,5.244 1.366,7.51 1.128,2.694 1.801,5.426 3.414,7.51 .984,3.063 1.986,4.131 2.048,7.51 1.175,2.01 1.666,4.969 2.731,7.51 1.371,3.171 2.647,4.538 4.779,6.828 2.915,1.982 3.916,2.814 8.875,4.096z"/><path d="m529.8,673.83c0-.327 2.168-1.67 3.414-3.414 1.02-2.041 .894-6.191 0-8.876-1.295-3.199-2.706-5.597-3.414-8.192-.72-2.16-.683-5.728-.683-8.876-.623-2.868-1.649-4.988-2.731-8.193-.882-2.206-2.602-4.966-3.413-7.51-1.065-1.006-2.269-3.071-3.414-4.096-1.335-1.092-1.382-1.366-4.096-1.366-3.629,.135-5.455,.47-7.511,2.731-.719,2.16-.682,5.728-.682,8.876 .045,3.762 .395,5.541 2.048,8.193 1.206,2.869 3.736,5.663 5.462,8.192 1.415,2.396 2.316,4.675 4.096,6.145 .464,3.076 1.621,4.484 2.731,6.827 .464,3.076 1.621,4.484 2.731,6.828 1.786,.198 .952,.634 2.048,1.365l-2.048-1.365c1.786,.198 .952,.634 5.462,2.731z"/><path d="m502.49,653.35c.417-.939 2.951-4.593 3.413-6.828-.046-3.872-.497-6.515-2.731-8.875-.554-2.389-1.894-5.998-2.731-8.193 0-3.148 .038-6.716-.682-8.876 0-3.587-.496-5.742-1.366-8.193-1.542-2.267-3.203-2.931-6.827-4.096-2.937-.979-4.967-.273-8.193,.683v9.558c.043,3.613 .688,6.193 2.048,8.193 1.11,2.342 2.182,4.016 3.414,6.827 .132,3.711 1.116,5.629 1.365,8.876 .269,3.491 .597,5.298 2.731,7.51 2.907,1.374 3.794,2.703 6.145,3.414l-6.145-3.414c2.907,1.374 3.794,2.703 9.559,3.414z"/><path d="m477.92,638.33v-.682c0,1.908-.084,.894 1.366-2.731 .739-2.96 .682-6.218 .682-9.559-.211-2.751-.61-5.928-1.365-8.192-.624-3.495-1.339-5.682-2.048-8.876-.488-2.773-2.366-5.834-3.414-8.193-.67-2.01-1.353-6.2-2.048-8.193-.489-2.552-1.715-3.355-4.097-4.096-1.869-.935-6.323-.935-8.193,0-2.009,.696-2.006,2.284-2.73,4.096-.253,3.533-.854,6.143 0,9.559 1.155,1.975 2.377,4.071 3.413,6.144 1.342,2.423 2.687,6.059 4.097,8.193 1.027,3.467 1.407,5.068 3.413,8.193 .738,2.213 1.902,4.873 3.414,6.827 .972,2.43 2.39,4.152 3.414,6.828 1.842,0 .461-.045 4.096,.682z"/><path d="m618.13,711.13h-.594-2.378-8.321c-1.735,1.648-2.339,2.595-5.349,2.972-1.52,1.317-2.96,2.534-5.349,2.971-2.103,.458-4.845,.595-7.727,.595-3.523-.043-4.733,.109-5.349-2.972 .056-3.063 .2-3.234 2.972-3.566 1.484-1.226 3.971-1.807 6.538-2.377 1.962-.697 4.365-1.311 6.538-1.784 2.107-.748 4.118-1.512 5.943-2.377-.454-1.815-1.921-1.417-3.566-.594-2.135,0-4.682,.162-5.944-.595-1.483-2.204-2.286-2.927-5.943-2.971-3.47-.042-4.062-.953-7.132-1.189-2.94-.036-4.995-.476-7.133-1.189-3.138-.224-5.246-.702-7.726-1.783-.797-.797 1.094-.962 2.377-1.189 1.758-1.195 3.617-1.675 6.538-1.783h8.321c3.049,0 5.395,.49 8.321,.595 2.385,.825 4.891,1.257 6.538,2.377 2.151,.717 3.505,1.978 4.755,3.566 2.091,.571 4.195,1.274 6.538,1.783 2.74,0 5.846-.032 7.726,.595 1.361,2.268 .285,5.986-.594,8.915z"/></g><g transform="matrix(-.734 0 0 .74706 774.59 -162.81)"><path d="m460.16,634.92l-.683-.683c1.55,1.549 .802,.981-.683-2.731-.145-3.936-1.098-4.57-3.413-6.145-2.715-.904-3.875-2.064-4.779-4.779-1.736-1.433-3.042-3.351-4.097-5.462-1.876-1.275-3.503-2.903-4.779-4.779-1.876-1.276-3.503-2.903-4.779-4.779-2.594-.906-4.306-2.751-7.51-4.096-1.803-1.719-3.497-2.567-6.145-4.097-2.963-1.419-3.132-2.446-6.827-2.731-1.13,1.244-2.92,.755-3.414,2.731 .15,4.046 .955,4.894 2.731,8.193 .138,3.729 1.14,5.484 2.731,8.193 1.939,1.357 3.431,3.769 5.462,5.462 2.168,1.474 3.03,3.04 6.145,4.779 1.627,2.035 4.347,3.126 6.827,4.779 3.054,1.178 5.559,2.087 7.51,3.414 2.74,.644 4.611,1.681 6.827,2.731 3.277,.307 4.611,.673 8.876,0z"/><path d="m474.5,654.03l-.682-.682c1.621,1.621 .848,.958-1.366-2.731-2.524-2.39-3.07-4.221-6.827-4.78-2.006-.802-5.262-1.298-7.51-2.048-3.887,0-5.668-.415-8.876-1.365-2.293-.626-5.194-1.738-7.51-2.731-2.746-.408-5.589-1.482-8.193-2.048h-9.558c-3.067,.721-4.793,.753-5.462,4.096 1.4,1.695 3.248,3.173 4.779,4.779 .863,2.999 2.946,3.714 4.779,5.462 3.161,1.094 3.803,1.911 7.51,2.048 3.143,1.048 5.428,1.324 8.876,1.366 3.657,0 6.287,.742 9.558,1.365 2.724,.368 5.396,.683 8.876,.683 2.966,0 6.197-.017 8.193-.683 4.302-3.441 3.413-4.188 3.413,.683 .456,.455 .911,.91 1.366,1.365"/><path d="m497.71,664.27h-.682c1.843,0 .907,.045-2.731-.682-3.405-.973-5.339-1.918-8.876-2.049-2.101-1.228-4.68-1.365-8.193-1.365h-9.558c-3.38,.26-4.813,1.105-8.193,1.365-1.794,1.05-5.358,1.912-7.51,2.731-1.92,1.306-3.559,2.929-6.145,4.097 .596,3.391 2.479,4.668 4.78,6.144 2.31,.925 4.685,1.798 8.192,2.049 3.355,.124 5.163,.682 8.876,.682 3.479,0 6.152-.314 8.876-.682 2.266-1.074 4.194-2.199 7.51-2.731 1.653-1.433 4.073-2.433 6.144-3.414 1.834-.868 4.329-1.669 6.145-2.731l-6.145,2.731c1.834-.868 4.329-1.669 7.51-6.145z"/><path d="m529.8,679.98v-.682c0,1.908 .085,.894-1.365-2.731-2.527-1.332-5.559-2.273-7.511-3.414-2.984,0-6.944-.283-8.875,.683-3.448,.041-5.733,.318-8.876,1.365-2.996,.452-4.723,1.5-6.827,2.731-2.378,1.283-5.824,2.934-8.876,4.096-2.698,1.881-3.612,2.984-6.827,4.78-2.025,2.219-4.098,3.552-5.462,5.462-.606,2.304 .039,5.022 2.731,6.144 1.702,1.406 4.316,2.14 6.827,2.731 3.187-.118 6.001-.56 8.193-2.048 3.383-.448 5.393-1.44 8.193-2.048 2.396-.851 4.69-1.667 7.51-2.049 1.953-1.324 5.416-2.467 7.51-3.413 3.43-1.389 5.621-3.221 8.193-4.779 1.226-1.419 2.862-2.951 4.779-3.414l-4.779,3.414c1.226-1.419 2.862-2.951 5.462-6.828z" transform="matrix(1 0 0 .85157 1.1887 101.1)"/><path d="m557.11,693.63c-.127-.032-3.176-1.365-5.461-1.365-2.024-1.184-5.299-1.422-8.193-2.731-3.731,0-6.271,.418-8.193,2.048-2.838,.383-5.375,1.217-7.51,2.731-2.658,.625-5.07,1.21-7.51,2.731-3.294,1.382-4.744,2.679-6.828,4.096-1.405,1.701-4.441,2.652-6.144,4.097-1.529,1.851-1.526,4.299-.683,6.827 1.748,1.076 4.736,2.144 6.827,3.414 3.052,.545 6.162,.682 9.559,.682 3.031-.233 5.588-.741 7.51-2.048 3.434-1.654 4.348-2.876 6.827-4.779 1.434-1.736 3.833-3.133 6.145-4.096 1.742-1.51 3.856-2.614 6.827-3.414 1.663-1.585 3.194-3.117 4.779-4.779 1.909,0 .598,.211 2.048-3.414z" transform="matrix(1 0 0 .88839 0 76.96)"/><path d="m587.15,696.36c-.164-.025-3.855-.683-6.145-.683-1.931-.965-5.891-.683-8.875-.683-3.762,.14-4.925,.917-6.828,2.731-1.935,1.191-4.271,2.261-6.144,4.097-2.394,1.467-4.551,3.489-6.828,4.779-2.505,1.073-4.664,2.302-7.51,2.731-1.372,1.661-3.778,3.096-5.462,4.779-1.874,1.406-2.669,2.082-2.731,5.462-1.39,1.121-2.329,3.322-2.048,4.096 2.763,1.419 5.047,2.003 8.876,2.049 3.647,.043 6.208,.837 9.558,0 3.414-1.012 4.778-1.72 8.193-2.731 1.743-2.271 3.052-3.791 5.462-5.462 1.302-1.915 2.862-3.677 5.462-4.779 1.948-1.772 4.83-3.729 6.827-4.78 1.221-1.709 3.602-3.527 5.462-4.779 1.368-2.315 1.757-2.7 2.731-6.827z" transform="matrix(1 0 0 .86641 -.59437 95.81)"/><path d="m589.88,693.63v-10.924-9.558c-3.17-1.875-3.645-2.997-4.779-6.827-1.683-2.73-2.969-4.447-4.097-6.828-1.581-1.659-2.884-3.812-3.414-6.827-1.304-2.528-2.113-5.07-4.779-6.145-2.415-.525-5.565-.683-8.875-.683-4.522,.168-4.097,.965-4.097,5.462 .318,3.497 1.433,4.412 2.731,7.51 1.003,2.118 2.092,4.294 3.414,6.145 1.021,2.262 2.623,5.174 4.096,6.827 1.196,2.511 2.915,4.786 3.414,7.511 1.871,2.374 3.164,4.451 4.779,6.144 1.337,2.791 2.343,4.37 4.779,5.462 1.393,2.088 3.748,2.26 6.828,2.731z"/><path d="m557.11,682.71h.683c-1.908,0-.894,.085 2.731-1.365 .966-1.932 .683-5.891 .683-8.876 0-3.887-.643-5.542-1.366-8.193-1.242-2.965-2.255-4.355-2.731-7.51-1.021-2.156-2.049-4.329-2.731-6.827-1.227-1.806-2.104-4.529-2.73-6.827-2.305-1.306-4.433-2.616-6.828-3.414-2.171-1.028-4.193-2.561-6.827-3.414-3.425,.627-3.812,1.756-4.097,5.462-.787,2.754 .293,5.244 1.366,7.51 1.128,2.694 1.801,5.426 3.414,7.51 .984,3.063 1.986,4.131 2.048,7.51 1.175,2.01 1.666,4.969 2.731,7.51 1.371,3.171 2.647,4.538 4.779,6.828 2.915,1.982 3.916,2.814 8.875,4.096z"/><path d="m529.8,673.83c0-.327 2.168-1.67 3.414-3.414 1.02-2.041 .894-6.191 0-8.876-1.295-3.199-2.706-5.597-3.414-8.192-.72-2.16-.683-5.728-.683-8.876-.623-2.868-1.649-4.988-2.731-8.193-.882-2.206-2.602-4.966-3.413-7.51-1.065-1.006-2.269-3.071-3.414-4.096-1.335-1.092-1.382-1.366-4.096-1.366-3.629,.135-5.455,.47-7.511,2.731-.719,2.16-.682,5.728-.682,8.876 .045,3.762 .395,5.541 2.048,8.193 1.206,2.869 3.736,5.663 5.462,8.192 1.415,2.396 2.316,4.675 4.096,6.145 .464,3.076 1.621,4.484 2.731,6.827 .464,3.076 1.621,4.484 2.731,6.828 1.786,.198 .952,.634 2.048,1.365l-2.048-1.365c1.786,.198 .952,.634 5.462,2.731z"/><path d="m502.49,653.35c.417-.939 2.951-4.593 3.413-6.828-.046-3.872-.497-6.515-2.731-8.875-.554-2.389-1.894-5.998-2.731-8.193 0-3.148 .038-6.716-.682-8.876 0-3.587-.496-5.742-1.366-8.193-1.542-2.267-3.203-2.931-6.827-4.096-2.937-.979-4.967-.273-8.193,.683v9.558c.043,3.613 .688,6.193 2.048,8.193 1.11,2.342 2.182,4.016 3.414,6.827 .132,3.711 1.116,5.629 1.365,8.876 .269,3.491 .597,5.298 2.731,7.51 2.907,1.374 3.794,2.703 6.145,3.414l-6.145-3.414c2.907,1.374 3.794,2.703 9.559,3.414z"/><path d="m477.92,638.33v-.682c0,1.908-.084,.894 1.366-2.731 .739-2.96 .682-6.218 .682-9.559-.211-2.751-.61-5.928-1.365-8.192-.624-3.495-1.339-5.682-2.048-8.876-.488-2.773-2.366-5.834-3.414-8.193-.67-2.01-1.353-6.2-2.048-8.193-.489-2.552-1.715-3.355-4.097-4.096-1.869-.935-6.323-.935-8.193,0-2.009,.696-2.006,2.284-2.73,4.096-.253,3.533-.854,6.143 0,9.559 1.155,1.975 2.377,4.071 3.413,6.144 1.342,2.423 2.687,6.059 4.097,8.193 1.027,3.467 1.407,5.068 3.413,8.193 .738,2.213 1.902,4.873 3.414,6.827 .972,2.43 2.39,4.152 3.414,6.828 1.842,0 .461-.045 4.096,.682z"/><path d="m618.13,711.13h-.594-2.378-8.321c-1.735,1.648-2.339,2.595-5.349,2.972-1.52,1.317-2.96,2.534-5.349,2.971-2.103,.458-4.845,.595-7.727,.595-3.523-.043-4.733,.109-5.349-2.972 .056-3.063 .2-3.234 2.972-3.566 1.484-1.226 3.971-1.807 6.538-2.377 1.962-.697 4.365-1.311 6.538-1.784 2.107-.748 4.118-1.512 5.943-2.377-.454-1.815-1.921-1.417-3.566-.594-2.135,0-4.682,.162-5.944-.595-1.483-2.204-2.286-2.927-5.943-2.971-3.47-.042-4.062-.953-7.132-1.189-2.94-.036-4.995-.476-7.133-1.189-3.138-.224-5.246-.702-7.726-1.783-.797-.797 1.094-.962 2.377-1.189 1.758-1.195 3.617-1.675 6.538-1.783h8.321c3.049,0 5.395,.49 8.321,.595 2.385,.825 4.891,1.257 6.538,2.377 2.151,.717 3.505,1.978 4.755,3.566 2.091,.571 4.195,1.274 6.538,1.783 2.74,0 5.846-.032 7.726,.595 1.361,2.268 .285,5.986-.594,8.915z"/></g></g></g></svg>