<svg xmlns="http://www.w3.org/2000/svg" viewBox="0 0 640 480" xmlns:xlink="http://www.w3.org/1999/xlink"><path fill="#fff" d="m0 0h640v480h-640z"/><g fill-rule="evenodd"><path fill="#808080" stroke-width="1.25" d="m699.33 498.15l3.02-3.98-1.57-4.74 4.72 1.64 4.02-2.96-.1 4.99 4.05 2.92-4.77 1.44-1.52 4.76-2.85-4.1z" transform="matrix(.56176 0 0 .56176-93.75-60.11)"/><path fill="#ffce00" d="m164.84 244.11h.308c-.823 0-.391-.063.926.942 1.076.438 2.023.628 3.702.628 1.472.107 2.745.314 4.319.314 1.447.622 2.272 1.189 3.393 1.57.495.763 1.574 2.471 2.159 3.14 1.086.814 2.397 1.31 3.393 2.198 1.241.344 2.031.881 3.393 1.883 1.025.494 1.995.902 3.393 1.57 1.343.472 2.81 1.104 4.01 1.57 1.057.253 2.47.686 3.393 1.256 1.311.29 2.411.662 4.01.942 1.633.198 2.457.637 4.01.942 1.394.718 2.48 1.254 4.01 1.884.621.929 1.155 1.765 2.468 2.197.674.832 1.793 1.053 2.468 1.884.994.479 2.088.796 3.393 1.256 1.573.114 2.708.569 4.319.628h4.319 4.319c1.377.167 2.919.386 4.01.627 1.51 0 2.982.026 4.319-.314 1.726-.021 2.532-.512 4.01-.628 1.65.267 2.769.12 3.393 1.57 1.022 1.041 1.644 2.06 1.85 3.454.325.993.309 2.634.309 4.081 0 1.364.007 2.85.308 3.768.982.964 1.748 1.249 3.085 1.57.992.336 2.819.63 3.702 1.256.729.778 1.086 2.01 2.159 2.826.939.734 2.509.887 4.01.941h4.319c1.348 0 3.138.131 4.01-.314 1.336-.495 1.687-1.414 3.393-1.57 1.608.247 1.574 1.021 2.776 1.57.765 1.122 1.49 1.585 2.468 2.198.634.923 1.464 1.639 2.777 1.884 1.607-.166 3.062-.646 4.319-.942.44-1.121.978-1.894 1.542-2.826.418-.72.617-.905.617-2.198.462-.938.404-2.847 0-4.081-.058-1.598-.425-2.442-.617-4.082 0-1.522.071-2.97.308-4.081.634-.745 1.047-1.963 1.543-2.826.841-1.027 1.621-1.413 2.776-1.883.976-.331 2.588-.315 4.01-.315.755-.23 2.01-.154 1.542-.627-.4.407-1.935.536-.308.627.885-.611 2.5-.892 3.393-1.256 1.317-.202 2.107-.657 3.393-.941.962-.573 2.038-.847 3.393-1.257 1.117-.433 2.374-.855 3.702-1.256 1.42-.679 2.296-1.062 3.702-1.256.967-.519 2.182-.627 3.702-.627 1.425.93 2.173 1.659 3.393 2.825.583.873 1.105 1.399 1.542 2.512.987.684 1.515 1.188 3.393 1.256 1.486 0 2.075.259 2.468-.941.812-.737 1.232-2.039 2.159-2.826.92-.92 2.057-1.388 3.085-1.883 1.158-.322 2.094-.748 3.702-.942 1.07-.398 2.176-.483 3.393.314.906 1.287 1.928 2.601 3.085 4.082.785.517 1.745.627 3.084.627.942-.479 2.885-.314 4.319-.314 1.263.37 1.815 1.217 3.085 1.57.71.072 1.092.314 1.851.314 2.256.298 3.195.072 4.935-.314h4.319c1.516.058 2.333.314 4.01.314.937.579 2.544.848 3.702 1.257 1.46.35 1.739.914 3.084 1.57.873.444 2.662.314 4.01.314 1.61-.195 2.681-.474 4.01-.942 1.171-.291 1.666-.592 2.159-1.57.767-.53 1.825-1.38 2.468-2.198.847-.586 1.582-1.335 2.159-2.198.831-.558 2.228-1.98 2.777-2.825.788-.642 1.631-1.988 2.159-2.826.677-1.024 1.531-1.617 2.159-3.139.481-1.468.544-2.618.926-4.082.318-1.186.901-2.19 1.234-3.767.627-1.375 1.129-2.716 1.542-3.768.757-.864 1.26-1.91 2.159-2.825.516-.812 1.204-1.225 1.851-1.884.735-.713 1.843-1.24 3.084-1.57 1.274-.353 1.825-.922 2.468-1.884 1.166-.395 1.854-.907 3.393-1.256 1.353-.408 2.462-.667 3.702-.942h4.319c1.555 0 2.895.142 4.318.315 1.406.409 2.726.765 4.01.942.883.425 2.352 1.202 3.085 1.883.921.619 1.928 1.619 2.468 2.512.403 1.232 1.058 1.776 1.85 2.826.824 1.091 1.518 1.782 3.085 2.512 1.248.294 2.271.83 3.702.942 1.639 0 2.631.206 4.01.314 1.509 0 2.981.026 4.319-.314 1.347-.792 1.83-1 2.776-2.198 1.244-.623 2.148-1.118 3.702-1.256 1.022-.226 2.288-.314 3.702-.314.801.559 1.651.769 2.159 1.57.813.586.866.903 2.159.942.882.525 2.181.775 3.393.942h4.318-4.318 4.318c1.183-1.01 1.543-.896 1.543-2.198.955-.778 1.428-1.871 2.468-3.14.564-.932 1.103-1.706 1.542-2.826.337-1.029.756-2.607.926-3.767.39-1.041.757-2.642.926-4.081.374-1.451.617-2.748.617-4.396v-4.396c-.018-1.552-.247-2.638-.617-3.767-.489-1.387-1.307-2.401-1.851-3.454-.913-.734-2.041-1.764-2.776-2.512-1.403-.861-2.466-1.487-3.702-2.198-1.351-.852-2.649-1.59-3.702-2.198-.619-.704-1.624-1.672-2.159-2.198-.423-.86-.423-2.908 0-3.767.036-1.307.173-2.06.925-2.826 1.406-.513 2.343-1.189 3.393-1.884.682-.971 1.751-1.158 3.085-2.197 1.335-.596 2.092-.909 3.085-1.884 1.443-.49 2.79-1.488 4.01-1.884.661-.813 1.897-1.485 3.393-1.883 1.07-.742 2.351-1.531 3.393-1.884 1.453-.784 2.532-1.059 4.01-1.884 1.508-.383 2.855-1.073 4.319-1.57.375-.467.823-.813 1.542-.942 1.92-.116 3.521-.326 4.627-1.256 1.24-.447 1.369-1.354 2.159-2.198.567-1.038 1.187-1.499 1.542-2.825.981-1.073.439-1.387-1.234-1.57-.526-.536-1 .005-1.234-.941-1.107-.506-1.396-1.384-2.159-2.198-.466-1.298-.455-1.881.926-2.512.86-.595 2.085-.795 2.777-1.57 1.285-.197 2.262-.762 3.393-1.256 1.677-.122 2.568-.507 4.01-.942 1.227-.667 2.024-1.059 3.085-1.57 1.268-.559 2.78-1.348 4.01-1.884 1.106-.75 2.511-1.484 4.01-1.883 1.105-.571 2.463-1.02 3.702-1.57 1.057-.253 2.47-.685 3.393-1.256 1.422-.276 2.961-.798 4.01-1.256 1.032-.474 2.247-1.071 3.084-1.57 1.278-.563 2.19-1.236 3.394-1.57.729-.708 1.711-1.209 2.776-1.57.868-.82 2.715-1.954 3.702-2.512.936-.451 2.029-.911 2.777-1.57.718-.081.515-.232 1.234-.314 2.248-.689 3.396-.945 4.627-2.198.956-.461 1.94-.961 2.776-1.57 1.029-.832 1.849-1.584 2.468-2.512 1.123-.406 1.738-1.197 2.777-1.884 1.076-.438 2.024-.628 3.702-.628 1.349 0 3.138.131 4.01-.314 1.936-.023 2.439-.496 3.702-1.256.418-1.198 1.309-1.797 2.468-2.512.683-.634 2.408-1.584 3.085-2.198 1.335-.651 1.912-1.481 3.085-2.512.906-.992 2.04-1.909 3.084-2.512 1.297-.575 2.226-.834 3.393-1.256 1.461-.265 2.929-.538 4.316-.942 1.578-.123 2.136-.593 3.398-.942.874-.848 1.402-1.275 2.466-2.512.521-1.443 1.292-1.971 2.774-2.198 1.49-.793 2.686-.887 3.707-1.884 1.042-1.063 1.762-2.259 2.774-3.454.572-1.353 1.108-2.166 1.233-3.767-.022-1.927-.433-2.204-1.233-3.454-.771-1.125-1.255-1.841-1.85-2.826-.962-.553-2.327-1.102-3.398-1.57-1.468.115-2.371.451-3.391.942-1.05.864-1.776 1.573-2.466 2.825-.47 1.011-.785 2.125-1.233 3.454-.587.854-1.989 1.664-3.09 2.198-1.292.575-2.217.834-3.391 1.256-1.461.514-2.142.959-3.701 1.57-.912.439-2.175 1.115-3.085 1.57-1.342.813-2.627 1.446-3.702 1.884-1.368.79-2.15 1.224-3.393 1.57-1.403.849-2.761 1.493-4.01 2.198-1.037.519-2.049 1.192-3.393 1.884-1.091.241-2.634.461-4.01.627h-4.628c-1.318-.309-2.887-.579-4.318-1.256-1.536-.81-2.288-1.322-3.393-2.198-.676-1.34-.904-1.98-.926-3.767-.959-.488-2.285-.61-3.702-.628-1.565 0-3.02-.059-4.01.628-1.343.203-2.472.756-3.393 1.57-1.42.687-2.348 1.516-3.393 2.198-1.087.667-2.493 1.666-3.702 2.198-1.135.495-2.911 1.038-4.319 1.57-1.812.53-3.122 1.114-4.935 1.257-1.549.713-2.763.925-4.319 1.57-1.58.598-2.695 1.038-4.319 1.57-1.071.554-3 1.481-4.01 2.198-1.842.938-3.191 1.734-4.627 2.512-1.444.617-2.49 1.203-4.01 1.884-.747.678-2.228 1.209-3.085 1.884-1.376.35-2.957.928-3.702 1.57-1.217.149-1.893.475-2.468 1.256-1.099 1.343-.619 1.256-1.851 1.256-1.054.651-2.693.628-4.319.628-1.646-.045-2.941-.315-4.627-.315-1.447-.263-2.77-.571-4.319-.627h-4.319-4.318-4.319-4.936-4.318-4.319c-1.639 0-2.631.206-4.01.314-1.535.112-2.731.452-4.01.628-1.39.213-2.026.745-3.085 1.256-.974.47-1.956.943-3.085 1.256-1.514.815-3.257 1.242-4.935 1.57-1.267.598-3.066.918-4.01 1.57-1.446.113-2.392.51-4.01.627-1.374.633-2.506.97-3.702 1.256-1.109.376-2.176.61-3.702.628-1.427.196-2.214.605-3.702.942-.529.453-1.374.776-2.159.941-1.812.874-2.406.942-4.319.942h-4.319c-2.057-.203-4.099-.465-6.169-.942-2.112-.103-4.126-.374-6.17-.627h-4.627-4.627-4.319c-1.63-.059-3.078-.376-4.627-.628-1.45-.264-2.983-.392-4.318-.941-1.919-.103-3.859-.368-5.553-.942-1.543-.28-3.02-.808-4.627-.942-.891-.551-2.639-.734-3.393-1.256-1.411-.111-2.583-.557-3.393-1.256-1.443-.218-2.279-.866-3.702-1.256-1.282-.79-2.829-1.054-4.627-1.884-1.532-.334-3.065-.885-4.627-1.256-1.23-.433-2.73-.846-3.702-1.57-1.364-.379-2.146-.787-3.702-1.256-.727-.658-2.156-1.348-3.085-1.883-.675-.612-2.447-1.663-3.393-2.198-1-1.184-2.02-2.352-3.393-3.767-.954-1.059-2.043-1.911-3.085-2.512-1.337-.567-2.852-1.378-3.702-1.883-1.168-.324-2.112-1.047-2.777-1.884-1.052-.607-1.738-1.147-2.776-1.883-1.612.622-1.781.314-3.393.314-1.839-.154-3.191-.211-4.935 0-1.508.181-2.984.314-4.628.314h-4.318c-1.952.024-2.267.281-2.777 1.884-.898 1-1.273 2.181-2.159 2.825-.761.982-1.859 1.651-3.085 2.198-1.523 1.072-1.983 1.46-2.776 2.826-1.01.901-1.852 2.19-2.468 3.139-.56.975-.936 1.878-1.234 3.454 0 1.502.121 3.083-.308 4.396 0 1.502.121 3.083-.309 4.396v4.396 4.396c.643.962 1.509 1.331 1.851 2.825.457 1.241-.39.796-1.234 1.57h-4.319-4.319c-1.573 0-2.846-.207-4.319-.314-1.246-.226-3.071-.309-4.01-.627h-4.319c-1.535-.112-2.731-.452-4.01-.628-1.787-.347-3.02-.873-4.627-1.884-1.643-.358-2.897-.988-4.319-1.883-1.532-.409-2.746-1.227-4.318-1.57-1.058-.51-1.815-1-3.085-1.57-.746-1.04-1.466-1.62-3.085-1.884-1.241-.648-2.293-.627-4.01-.627-1.607.194-2.543.62-3.702.942-1.285.592-2.961 1.095-4.01 1.57-1.049.427-2 1-3.085 1.57-.829 1.086-1.315 1.735-1.851 2.826-.411 0-.308-.105-.308.314-1.662.06-3.409 0-5.244 0-.87.443-2.564.539-3.702.628-.904.711-1.972 1.327-2.776 1.883-.532 1.083-.904 1.372-.926 3.14.066 1.876.728 2.421 1.234 3.767-.371 1.712-1.031 1.854-2.468 2.198-1.091.241-2.515.314-4.01.314h-4.627-4.627c-1.777 0-2.612.02-3.393-.941-.537-1.065-.587-2.421-.926-3.454-.919-1.272-1.329-2.126-2.776-3.14-.319-.973-1.083-2.4-1.542-3.454-.495-1.062-.876-1.999-1.851-2.826-1.025-.969-2.187-1.598-3.085-2.512-1.032-.674-1.861-1.233-3.702-1.256-1.495 0-2.919.073-4.01.314-.752.664-2.01 1.373-3.084 2.198-.853 1.157-1.609 2-2.777 3.14-1.316 1.228-2.625 1.974-3.702 2.512-.986.502-1.991 1.121-2.777 2.198-.916.406-1.361 1.089-1.85 2.198-.805.731-1.267 1.948-1.543 3.14-.503 1.537-.572 3.302-.617 5.02v4.396c-.488.59-.752 1.218-1.542 1.884-.755.684-1.891 1.433-2.777 1.883-.859 1.125-1.395 1.786-1.542 3.454 0 1.372-.128 3.194.308 4.082.624.889 1.883 1.503 3.085 2.198 1.155.417 1.755 1.328 2.468 2.512 1.321.604 1.158 1.162 2.776 1.256.98.784 2.483 1.029 3.702 1.57 1.235.343 1.85.914 3.084 1.256.799 1.059 1.68 1.747 2.159 3.454.13 1.097.556 2.197 0 3.14-1.257.761-2.943 1.246-3.702 1.884-.998.053-.924.289-1.542.627-.013 2.099-.288 3.168-.617 4.709-.106 1.405-.308 2.414-.308 4.082v4.396c.656 1.395 1.523 1.655 2.468 2.512.94.684 1.233 1.489 1.542 2.825.529 1.228 1.093 2.252 1.543 3.454.562 1.203.926 2.294.926 4.082-.154 1.719-.86 2.01-2.159 2.825-.69.85-.463 2.355-.926 3.768 0 1.447-.017 3.088.308 4.081.529.717.4 1.018.617 2.198"/><g fill="#009a00"><g transform="matrix(.734 0 0 .74706-134.59-163.25)"><path d="m460.16 634.92l-.683-.683c1.55 1.549.802.981-.683-2.731-.145-3.936-1.098-4.57-3.413-6.145-2.715-.904-3.875-2.064-4.779-4.779-1.736-1.433-3.042-3.351-4.097-5.462-1.876-1.275-3.503-2.903-4.779-4.779-1.876-1.276-3.503-2.903-4.779-4.779-2.594-.906-4.306-2.751-7.51-4.096-1.803-1.719-3.497-2.567-6.145-4.097-2.963-1.419-3.132-2.446-6.827-2.731-1.13 1.244-2.92.755-3.414 2.731.15 4.046.955 4.894 2.731 8.193.138 3.729 1.14 5.484 2.731 8.193 1.939 1.357 3.431 3.769 5.462 5.462 2.168 1.474 3.03 3.04 6.145 4.779 1.627 2.035 4.347 3.126 6.827 4.779 3.054 1.178 5.559 2.087 7.51 3.414 2.74.644 4.611 1.681 6.827 2.731 3.277.307 4.611.673 8.876 0" id="0"/><path d="m474.5 654.03l-.682-.682c1.621 1.621.848.958-1.366-2.731-2.524-2.39-3.07-4.221-6.827-4.78-2.01-.802-5.262-1.298-7.51-2.048-3.887 0-5.668-.415-8.876-1.365-2.293-.626-5.194-1.738-7.51-2.731-2.746-.408-5.589-1.482-8.193-2.048h-9.558c-3.067.721-4.793.753-5.462 4.096 1.4 1.695 3.248 3.173 4.779 4.779.863 2.999 2.946 3.714 4.779 5.462 3.161 1.094 3.803 1.911 7.51 2.048 3.143 1.048 5.428 1.324 8.876 1.366 3.657 0 6.287.742 9.558 1.365 2.724.368 5.396.683 8.876.683 2.966 0 6.197-.017 8.193-.683 4.302-3.441 3.413-4.188 3.413.683.456.455.911.91 1.366 1.365" id="1"/><path d="m497.71 664.27h-.682c1.843 0 .907.045-2.731-.682-3.405-.973-5.339-1.918-8.876-2.049-2.101-1.228-4.68-1.365-8.193-1.365h-9.558c-3.38.26-4.813 1.105-8.193 1.365-1.794 1.05-5.358 1.912-7.51 2.731-1.92 1.306-3.559 2.929-6.145 4.097.596 3.391 2.479 4.668 4.78 6.144 2.31.925 4.685 1.798 8.192 2.049 3.355.124 5.163.682 8.876.682 3.479 0 6.152-.314 8.876-.682 2.266-1.074 4.194-2.199 7.51-2.731 1.653-1.433 4.073-2.433 6.144-3.414 1.834-.868 4.329-1.669 6.145-2.731l-6.145 2.731c1.834-.868 4.329-1.669 7.51-6.145" id="2"/><path d="m529.8 679.98v-.682c0 1.908.085.894-1.365-2.731-2.527-1.332-5.559-2.273-7.511-3.414-2.984 0-6.944-.283-8.875.683-3.448.041-5.733.318-8.876 1.365-2.996.452-4.723 1.5-6.827 2.731-2.378 1.283-5.824 2.934-8.876 4.096-2.698 1.881-3.612 2.984-6.827 4.78-2.025 2.219-4.098 3.552-5.462 5.462-.606 2.304.039 5.02 2.731 6.144 1.702 1.406 4.316 2.14 6.827 2.731 3.187-.118 6-.56 8.193-2.048 3.383-.448 5.393-1.44 8.193-2.048 2.396-.851 4.69-1.667 7.51-2.049 1.953-1.324 5.416-2.467 7.51-3.413 3.43-1.389 5.621-3.221 8.193-4.779 1.226-1.419 2.862-2.951 4.779-3.414l-4.779 3.414c1.226-1.419 2.862-2.951 5.462-6.828" transform="matrix(1 0 0 .85157 1.189 101.1)" id="3"/><path d="m557.11 693.63c-.127-.032-3.176-1.365-5.461-1.365-2.024-1.184-5.299-1.422-8.193-2.731-3.731 0-6.271.418-8.193 2.048-2.838.383-5.375 1.217-7.51 2.731-2.658.625-5.07 1.21-7.51 2.731-3.294 1.382-4.744 2.679-6.828 4.096-1.405 1.701-4.441 2.652-6.144 4.097-1.529 1.851-1.526 4.299-.683 6.827 1.748 1.076 4.736 2.144 6.827 3.414 3.052.545 6.162.682 9.559.682 3.03-.233 5.588-.741 7.51-2.048 3.434-1.654 4.348-2.876 6.827-4.779 1.434-1.736 3.833-3.133 6.145-4.096 1.742-1.51 3.856-2.614 6.827-3.414 1.663-1.585 3.194-3.117 4.779-4.779 1.909 0 .598.211 2.048-3.414" transform="matrix(1 0 0 .88839 0 76.96)" id="4"/><path d="m587.15 696.36c-.164-.025-3.855-.683-6.145-.683-1.931-.965-5.891-.683-8.875-.683-3.762.14-4.925.917-6.828 2.731-1.935 1.191-4.271 2.261-6.144 4.097-2.394 1.467-4.551 3.489-6.828 4.779-2.505 1.073-4.664 2.302-7.51 2.731-1.372 1.661-3.778 3.096-5.462 4.779-1.874 1.406-2.669 2.082-2.731 5.462-1.39 1.121-2.329 3.322-2.048 4.096 2.763 1.419 5.05 2 8.876 2.049 3.647.043 6.208.837 9.558 0 3.414-1.012 4.778-1.72 8.193-2.731 1.743-2.271 3.052-3.791 5.462-5.462 1.302-1.915 2.862-3.677 5.462-4.779 1.948-1.772 4.83-3.729 6.827-4.78 1.221-1.709 3.602-3.527 5.462-4.779 1.368-2.315 1.757-2.7 2.731-6.827" transform="matrix(1 0 0 .86641-.594 95.81)" id="5"/><path d="m589.88 693.63v-10.924-9.558c-3.17-1.875-3.645-2.997-4.779-6.827-1.683-2.73-2.969-4.447-4.097-6.828-1.581-1.659-2.884-3.812-3.414-6.827-1.304-2.528-2.113-5.07-4.779-6.145-2.415-.525-5.565-.683-8.875-.683-4.522.168-4.097.965-4.097 5.462.318 3.497 1.433 4.412 2.731 7.51 1 2.118 2.092 4.294 3.414 6.145 1.021 2.262 2.623 5.174 4.096 6.827 1.196 2.511 2.915 4.786 3.414 7.511 1.871 2.374 3.164 4.451 4.779 6.144 1.337 2.791 2.343 4.37 4.779 5.462 1.393 2.088 3.748 2.26 6.828 2.731" id="6"/><path d="m557.11 682.71h.683c-1.908 0-.894.085 2.731-1.365.966-1.932.683-5.891.683-8.876 0-3.887-.643-5.542-1.366-8.193-1.242-2.965-2.255-4.355-2.731-7.51-1.021-2.156-2.049-4.329-2.731-6.827-1.227-1.806-2.104-4.529-2.73-6.827-2.305-1.306-4.433-2.616-6.828-3.414-2.171-1.028-4.193-2.561-6.827-3.414-3.425.627-3.812 1.756-4.097 5.462-.787 2.754.293 5.244 1.366 7.51 1.128 2.694 1.801 5.426 3.414 7.51.984 3.063 1.986 4.131 2.048 7.51 1.175 2.01 1.666 4.969 2.731 7.51 1.371 3.171 2.647 4.538 4.779 6.828 2.915 1.982 3.916 2.814 8.875 4.096" id="7"/><path d="m529.8 673.83c0-.327 2.168-1.67 3.414-3.414 1.02-2.041.894-6.191 0-8.876-1.295-3.199-2.706-5.597-3.414-8.192-.72-2.16-.683-5.728-.683-8.876-.623-2.868-1.649-4.988-2.731-8.193-.882-2.206-2.602-4.966-3.413-7.51-1.065-1.01-2.269-3.071-3.414-4.096-1.335-1.092-1.382-1.366-4.096-1.366-3.629.135-5.455.47-7.511 2.731-.719 2.16-.682 5.728-.682 8.876.045 3.762.395 5.541 2.048 8.193 1.206 2.869 3.736 5.663 5.462 8.192 1.415 2.396 2.316 4.675 4.096 6.145.464 3.076 1.621 4.484 2.731 6.827.464 3.076 1.621 4.484 2.731 6.828 1.786.198.952.634 2.048 1.365l-2.048-1.365c1.786.198.952.634 5.462 2.731" id="8"/><path d="m502.49 653.35c.417-.939 2.951-4.593 3.413-6.828-.046-3.872-.497-6.515-2.731-8.875-.554-2.389-1.894-5.998-2.731-8.193 0-3.148.038-6.716-.682-8.876 0-3.587-.496-5.742-1.366-8.193-1.542-2.267-3.203-2.931-6.827-4.096-2.937-.979-4.967-.273-8.193.683v9.558c.043 3.613.688 6.193 2.048 8.193 1.11 2.342 2.182 4.02 3.414 6.827.132 3.711 1.116 5.629 1.365 8.876.269 3.491.597 5.298 2.731 7.51 2.907 1.374 3.794 2.703 6.145 3.414l-6.145-3.414c2.907 1.374 3.794 2.703 9.559 3.414" id="9"/><path d="m477.92 638.33v-.682c0 1.908-.084.894 1.366-2.731.739-2.96.682-6.218.682-9.559-.211-2.751-.61-5.928-1.365-8.192-.624-3.495-1.339-5.682-2.048-8.876-.488-2.773-2.366-5.834-3.414-8.193-.67-2.01-1.353-6.2-2.048-8.193-.489-2.552-1.715-3.355-4.097-4.096-1.869-.935-6.323-.935-8.193 0-2.01.696-2.01 2.284-2.73 4.096-.253 3.533-.854 6.143 0 9.559 1.155 1.975 2.377 4.071 3.413 6.144 1.342 2.423 2.687 6.06 4.097 8.193 1.027 3.467 1.407 5.068 3.413 8.193.738 2.213 1.902 4.873 3.414 6.827.972 2.43 2.39 4.152 3.414 6.828 1.842 0 .461-.045 4.096.682" id="A"/><path d="m618.13 711.13h-.594-2.378-8.321c-1.735 1.648-2.339 2.595-5.349 2.972-1.52 1.317-2.96 2.534-5.349 2.971-2.103.458-4.845.595-7.727.595-3.523-.043-4.733.109-5.349-2.972.056-3.063.2-3.234 2.972-3.566 1.484-1.226 3.971-1.807 6.538-2.377 1.962-.697 4.365-1.311 6.538-1.784 2.107-.748 4.118-1.512 5.943-2.377-.454-1.815-1.921-1.417-3.566-.594-2.135 0-4.682.162-5.944-.595-1.483-2.204-2.286-2.927-5.943-2.971-3.47-.042-4.062-.953-7.132-1.189-2.94-.036-4.995-.476-7.133-1.189-3.138-.224-5.246-.702-7.726-1.783-.797-.797 1.094-.962 2.377-1.189 1.758-1.195 3.617-1.675 6.538-1.783h8.321c3.049 0 5.395.49 8.321.595 2.385.825 4.891 1.257 6.538 2.377 2.151.717 3.505 1.978 4.755 3.566 2.091.571 4.195 1.274 6.538 1.783 2.74 0 5.846-.032 7.726.595 1.361 2.268.285 5.986-.594 8.915" id="B"/></g><g transform="matrix(-.734 0 0 .74706 774.59-162.81)"><use xlink:href="#0"/><use xlink:href="#1"/><use xlink:href="#2"/><use xlink:href="#3"/><use xlink:href="#4"/><use xlink:href="#5"/><use xlink:href="#6"/><use xlink:href="#7"/><use xlink:href="#8"/><use xlink:href="#9"/><use xlink:href="#A"/><use xlink:href="#B"/></g></g></g></svg>