<svg xmlns="http://www.w3.org/2000/svg" viewBox="0 0 640 480" xmlns:xlink="http://www.w3.org/1999/xlink"><defs><path id="1" d="m130.3 124.25c0-.83 18.259-51.46 18.259-51.46l16.599 50.626s55.606 1.66 55.606.83-43.987 33.2-43.987 33.2 20.748 58.1 19.919 56.44c-.83-1.66-48.14-34.858-48.14-34.858s-48.14 33.2-47.31 33.2 18.258-54.776 18.258-54.776l-43.16-32.37 53.946-.83z"/><path id="2" d="m276.27 345.41c-12.278 9.174.409 25.14 12.02 30.679 13.06 7.672 86.6 58.19 136.32 11.999-40.795.833-118.66-63.18-148.34-42.678z"/><path id="3" d="m529.59 405.46c0 39.983 45.562 27.879 46.81 61.25-.724 35.408-76.71 3.467-78.63-61.25 1.929-64.716 75.11-97.93 76.71-61.01 1.246 30.686-44.88 21.03-44.88 61.01z"/><path id="4" d="m145.7 569.47c0 34.01-6.712 61.61-14.985 61.61-8.272 0-14.986-27.604-14.986-61.61"/><clipPath id="0"><path d="m-85.01 0h682.67v512h-682.67z"/></clipPath></defs><g fill-rule="evenodd" clip-path="url(#0)" transform="matrix(.9375 0 0 .9375 79.7 0)"><g stroke-width="1.25"><path fill="#108c00" d="m-258.27 0h1027.5v512h-1027.5z"/><g fill="#ffd600"><path d="m-260 178.16h1032.6v50.16h-1032.6z"/><path d="m181.08 0h48.43v512h-48.43z"/></g><path d="m227.78 0h48.43v512h-48.43z"/><path d="m-260 226.59h1032.6v50.16h-1032.6z"/><g fill="#fff"><path d="m-260 276.76h1032.6v50.16h-1032.6z"/><path d="m276.22 0h48.43v512h-48.43z"/></g><path fill="#e72910" d="m-257.685-393.87a136.875,137.51 0 0,1 136.875,137.51v.01a136.875,137.51 0 0,1 -136.875,137.51 136.875,137.51 0 0,1 -136.875-137.51v-.01a136.875,137.51 0 0,1 136.875-137.51" transform="scale(-1-1)"/><g transform="matrix(.35309 0 0 .35309 82.48 178.92)"><use transform="matrix(.86997 0 0 .88048 362.54-228.35)" xlink:href="#1"/><g transform="translate(27.96-31.866)"><use fill="#ffe700" transform="matrix(.75348 0 0 .76258 351.92-179.57)" xlink:href="#1"/><use fill="#108c00" transform="matrix(.43444 0 0 .43969 399.31-133.03)" xlink:href="#1"/></g></g><g transform="matrix(.35309 0 0 .35309 188.84 253.8)"><use transform="matrix(.86997 0 0 .88048 362.54-228.35)" xlink:href="#1"/><g transform="translate(27.96-31.866)"><use fill="#ffe700" transform="matrix(.75348 0 0 .76258 351.92-179.57)" xlink:href="#1"/><use fill="#108c00" transform="matrix(.43444 0 0 .43969 399.31-133.03)" xlink:href="#1"/></g></g><g transform="matrix(.35309 0 0 .35309 157.84 372.65)"><use transform="matrix(.86997 0 0 .88048 362.54-228.35)" xlink:href="#1"/><g transform="translate(27.96-31.866)"><use fill="#ffe700" transform="matrix(.75348 0 0 .76258 351.92-179.57)" xlink:href="#1"/><use fill="#108c00" transform="matrix(.43444 0 0 .43969 399.31-133.03)" xlink:href="#1"/></g></g><g transform="matrix(.35309 0 0 .35309 9.132 372.65)"><use transform="matrix(.86997 0 0 .88048 362.54-228.35)" xlink:href="#1"/><g transform="translate(27.96-31.866)"><use fill="#ffe700" transform="matrix(.75348 0 0 .76258 351.92-179.57)" xlink:href="#1"/><use fill="#108c00" transform="matrix(.43444 0 0 .43969 399.31-133.03)" xlink:href="#1"/></g></g><g transform="matrix(.35309 0 0 .35309-18.02 250.74)"><use transform="matrix(.86997 0 0 .88048 362.54-228.35)" xlink:href="#1"/><g transform="translate(27.96-31.866)"><use fill="#ffe700" transform="matrix(.75348 0 0 .76258 351.92-179.57)" xlink:href="#1"/><use fill="#108c00" transform="matrix(.43444 0 0 .43969 399.31-133.03)" xlink:href="#1"/></g></g><g transform="matrix(-.35309 0 0-.35309 492.65 132.14)"><use transform="matrix(.86997 0 0 .88048 362.54-228.35)" xlink:href="#1"/><g transform="translate(27.96-31.866)"><use fill="#ffe700" transform="matrix(.75348 0 0 .76258 351.92-179.57)" xlink:href="#1"/><use fill="#108c00" transform="matrix(.43444 0 0 .43969 399.31-133.03)" xlink:href="#1"/></g></g><g transform="matrix(-.35309 0 0-.35309 535.35 248.28)"><use transform="matrix(.86997 0 0 .88048 362.54-228.35)" xlink:href="#1"/><g transform="translate(27.96-31.866)"><use fill="#ffe700" transform="matrix(.75348 0 0 .76258 351.92-179.57)" xlink:href="#1"/><use fill="#108c00" transform="matrix(.43444 0 0 .43969 399.31-133.03)" xlink:href="#1"/></g></g><g transform="matrix(-.35309 0 0-.35309 429.46 333.25)"><use transform="matrix(.86997 0 0 .88048 362.54-228.35)" xlink:href="#1"/><g transform="translate(27.96-31.866)"><use fill="#ffe700" transform="matrix(.75348 0 0 .76258 351.92-179.57)" xlink:href="#1"/><use fill="#108c00" transform="matrix(.43444 0 0 .43969 399.31-133.03)" xlink:href="#1"/></g></g><g transform="matrix(-.35309 0 0-.35309 329.97 248.28)"><use transform="matrix(.86997 0 0 .88048 362.54-228.35)" xlink:href="#1"/><g transform="translate(27.96-31.866)"><use fill="#ffe700" transform="matrix(.75348 0 0 .76258 351.92-179.57)" xlink:href="#1"/><use fill="#108c00" transform="matrix(.43444 0 0 .43969 399.31-133.03)" xlink:href="#1"/></g></g><g transform="matrix(-.35309 0 0-.35309 366.69 133.85)"><use transform="matrix(.86997 0 0 .88048 362.54-228.35)" xlink:href="#1"/><g transform="translate(27.96-31.866)"><use fill="#ffe700" transform="matrix(.75348 0 0 .76258 351.92-179.57)" xlink:href="#1"/><use fill="#108c00" transform="matrix(.43444 0 0 .43969 399.31-133.03)" xlink:href="#1"/></g></g></g><g transform="matrix(1.0355 0 0 1.0355-250.6 359.43)"><g stroke="#000"><g fill="#009200" stroke-width="2.5" transform="matrix(.1635-.01628.01182.18436 429.84-215.63)"><ellipse cx="680.21" cy="586.13" rx="30.805" ry="189.82" transform="matrix(1.4051-.00581.00817.99998-534.29 263.72)"/><ellipse cx="680.21" cy="586.13" rx="30.805" ry="189.82" transform="matrix(1.4862-.00581.00864.99998-547.22 267.05)"/><ellipse cx="680.21" cy="586.13" rx="30.805" ry="189.82" transform="matrix(1.189-.00642.00691 1.1052-364.93 214.1)"/></g><g transform="translate(72.865-9.797)"><path fill="#a95600" stroke-width="2.505" d="m238.34 971.79c29.972-1.665 16.651-16.652 31.637-24.977 14.986-8.326 36.633-3.33 43.29 6.66 6.661 9.991 1.666 19.982 9.991 19.982 8.326 0 234.56-12.675 242.88-4.349 8.326 8.325 9.991 24.977 1.665 31.634-8.325 6.66-294.5 14.34-304.49 7.68-9.991-6.66-24.977-34.965-24.977-36.63z" transform="matrix(.20244.00349-.00394.21385 340.86-247.31)"/><g fill="#ff0" stroke-width="3.853"><use transform="matrix(.14799.00195-.00275.11459 340.42-81.69)" xlink:href="#3"/><use transform="matrix(.14799.00195-.00275.11459 344.42-81.64)" xlink:href="#3"/><use transform="matrix(.14799.00195-.00275.11459 348.71-81.8)" xlink:href="#3"/><use transform="matrix(.14799.00195-.00275.11459 352.71-81.75)" xlink:href="#3"/></g><ellipse fill="#a95600" cx="478.38" cy="-41.09" rx="3.534" ry="3.403" stroke-width=".399" transform="matrix(1.0945.01648-.02429 1.1537-75.57 4.678)"/></g><g stroke-width="2.5"><g fill="#009200" transform="matrix(.99488-.10102.10102.99488 66.68 66.34)"><ellipse cx="427.11" cy="905" rx="20.814" ry="24.14" transform="matrix(.16619-.00807.00169.3152 369.8-361.65)"/><ellipse cx="427.11" cy="905" rx="20.814" ry="24.14" transform="matrix(.16619-.00807.00169.3152 364.04-362.7)"/><ellipse cx="427.11" cy="905" rx="20.814" ry="24.14" transform="matrix(.16619-.00807.00169.3152 360.64-370.55)"/><ellipse cx="427.11" cy="905" rx="20.814" ry="24.14" transform="matrix(.1599-.00891.00162.34772 369.3-399.35)"/><ellipse cx="427.11" cy="905" rx="20.814" ry="24.14" transform="matrix(.1599-.00835.00162.32604 377.41-379.07)"/><ellipse cx="427.11" cy="905" rx="20.814" ry="24.14" transform="matrix(.1599-.00835.00162.32604 373.22-382.21)"/><ellipse cx="427.11" cy="905" rx="20.814" ry="24.14" transform="matrix(.1599-.00835.00162.32604 367.99-386.66)"/><ellipse cx="427.11" cy="905" rx="20.814" ry="24.14" transform="matrix(.1599-.00835.00162.32604 363.01-389.54)"/></g><path fill="#804bff" d="m173.17 346.35s-54.2 64.893-21.252 208.82c33.958 144.59 178.96 189.78 178.96 189.78s26.496-47.42 1.726-164.04c-39.96-169.85-116.14-234.56-116.14-234.56h-43.29z" transform="matrix(.17689.03219-.03142.18236 461.79-208.61)"/><g fill="#009200" transform="matrix(.99696.07791-.07791.99696 60.53-11.76)"><ellipse cx="427.11" cy="905" rx="20.814" ry="24.14" transform="matrix(.16619-.00807.00169.3152 369.8-361.65)"/><ellipse cx="427.11" cy="905" rx="20.814" ry="24.14" transform="matrix(.16619-.00807.00169.3152 364.04-362.7)"/><ellipse cx="427.11" cy="905" rx="20.814" ry="24.14" transform="matrix(.16619-.00807.00169.3152 360.64-370.55)"/><ellipse cx="427.11" cy="905" rx="20.814" ry="24.14" transform="matrix(.1599-.00891.00162.34772 369.3-399.35)"/><ellipse cx="427.11" cy="905" rx="20.814" ry="24.14" transform="matrix(.1599-.00835.00162.32604 377.41-379.07)"/><ellipse cx="427.11" cy="905" rx="20.814" ry="24.14" transform="matrix(.1599-.00835.00162.32604 373.22-382.21)"/><ellipse cx="427.11" cy="905" rx="20.814" ry="24.14" transform="matrix(.1599-.00835.00162.32604 367.99-386.66)"/><ellipse cx="427.11" cy="905" rx="20.814" ry="24.14" transform="matrix(.1599-.00835.00162.32604 363.01-389.54)"/></g></g><ellipse fill="#c90000" cx="624.42" cy="606.11" rx="58.28" ry="186.49" stroke-width="1.25" transform="matrix(.15695-.06063.06364.1484 369.61-145.05)"/><g fill="#009200"><g transform="matrix(.99984.0178-.0178.99984-34.814-4.628)"><ellipse cx="218.13" cy="356.75" rx="10.823" ry="12.905" stroke-width="1.464" transform="matrix(.3953 0 0 .2927 445.07-230.53)"/><g stroke-width="1.546"><ellipse cx="218.13" cy="356.75" rx="10.823" ry="12.905" transform="matrix(.35412 0 0 .2927 457.17-235.92)"/><ellipse cx="218.13" cy="356.75" rx="10.823" ry="12.905" transform="matrix(.35412 0 0 .2927 452-235.92)"/></g><g stroke-width="1.56"><ellipse cx="218.13" cy="356.75" rx="10.823" ry="12.905" transform="matrix(.37059 0 0 .27478 449.48-233.46)"/><ellipse cx="218.13" cy="356.75" rx="10.823" ry="12.905" transform="matrix(.37059 0 0 .27478 448.95-237.93)"/></g><ellipse cx="218.13" cy="356.75" rx="10.823" ry="12.905" stroke-width="1.546" transform="matrix(.35412 0 0 .2927 447.01-238.85)"/><ellipse cx="218.13" cy="356.75" rx="10.823" ry="12.905" stroke-width="1.562" transform="matrix(.35412 0 0 .28673 448.08-241.58)"/><ellipse cx="218.13" cy="356.75" rx="10.823" ry="12.905" stroke-width="1.464" transform="matrix(.3953 0 0 .2927 432.77-243.48)"/><ellipse cx="218.13" cy="356.75" rx="10.823" ry="12.905" stroke-width="1.56" transform="matrix(.37059 0 0 .27478 445.92-243.48)"/><ellipse cx="218.13" cy="356.75" rx="10.823" ry="12.905" stroke-width="1.562" transform="matrix(.35412 0 0 .28673 444.16-246.97)"/><ellipse cx="218.13" cy="356.75" rx="10.823" ry="12.905" stroke-width="1.546" transform="matrix(.35412 0 0 .2927 436.14-243.17)"/><g stroke-width="1.562"><ellipse cx="218.13" cy="356.75" rx="10.823" ry="12.905" transform="matrix(.35412 0 0 .28673 437.42-243.88)"/><ellipse cx="218.13" cy="356.75" rx="10.823" ry="12.905" transform="matrix(.35412 0 0 .28673 438.99-247.02)"/></g></g><g transform="matrix(.17961-.00452.00419.18512 420.99-216.8)"><ellipse cx="528.68" cy="564.48" rx="67.44" ry="205.64" stroke-width="2.545" transform="matrix(.97574-.30793.36304.87448-245.81 324.4)"/><ellipse cx="528.68" cy="646.07" rx="13.321" ry="40.796" stroke-width="2.5" transform="matrix(.91788-.39685.39685.91788-210.48 304.49)"/><g stroke-width="1.533"><path d="m139.87 643.99c0 57.677-18.755 86.17-34.551 110.32 7.517-32.47 12.905-52.637 12.905-110.31 0-57.677 29.579-85.34 40.38-101.99-4.186 16.652-18.733 44.31-18.733 101.99z" transform="matrix(1.8828-.45598.95342 1.1822-352.26-10.02)"/><path d="m139.87 643.99c0 57.677-18.755 86.17-34.551 110.32 7.517-32.47 12.905-52.637 12.905-110.31 0-57.677 29.579-85.34 40.38-101.99-4.186 16.652-18.733 44.31-18.733 101.99z" transform="matrix(1.8828-.45598.95342 1.1822-348.42 44.06)" id="5"/><use transform="matrix(.99979-.02061.02061.99979-14.483 54.55)" xlink:href="#5"/></g><ellipse cx="528.68" cy="646.07" rx="13.321" ry="40.796" stroke-width="1.389" transform="matrix(1.8105-.40052.69907 1.6353-915.63-221.01)"/><g stroke-width="1.64"><ellipse cx="528.68" cy="646.07" rx="13.321" ry="40.796" transform="matrix(1.6257-.23068.54158 1.3528-739.49-91.78)"/><ellipse cx="528.68" cy="646.07" rx="13.321" ry="40.796" transform="matrix(1.6304-.19719.51251 1.3635-750.62-91.83)"/></g><g stroke-width="2.097"><ellipse cx="528.68" cy="646.07" rx="13.321" ry="40.796" transform="matrix(1.3144-.2006.46889 1.0101-531.06 47.568)"/><ellipse cx="528.68" cy="646.07" rx="13.321" ry="40.796" transform="matrix(1.3258-.13044.40342 1.0327-517.87 12.211)"/></g><path stroke-width="2.086" d="m145.7 569.47c0 34.01-6.712 61.61-14.985 61.61-8.272 0-14.986-27.604-14.986-61.61" transform="matrix(1.0254-.49277.46438 1.1773 12.767-14.519)"/><g stroke-width="2.097"><ellipse cx="528.68" cy="646.07" rx="13.321" ry="40.796" transform="matrix(1.3258-.13044.40342 1.0327-519.53-34.412)"/><ellipse cx="528.68" cy="646.07" rx="13.321" ry="40.796" transform="matrix(1.3288-.10511.37955 1.04-533.98-40.12)"/></g><g stroke-width="2.88"><use transform="matrix(.6722-.47182.45894.7991 39.486 143.28)" xlink:href="#4"/><use transform="matrix(.6722-.47182.45894.7991 51.14 125.79)" xlink:href="#4"/></g><use stroke-width="2.086" transform="matrix(.9374-.64468.64 1.0919-40.2-10.744)" xlink:href="#4"/><use stroke-width="2.742" transform="matrix(.6722-.52022.45894.88108 68.63 71.18)" xlink:href="#4"/></g></g><g fill="#804bff" stroke-width="2.5" transform="matrix(1.1014.27587-.26559.97437-85.42-157.9)"><use transform="matrix(.13441-.03045.04851.21681 448.75-184.91)" xlink:href="#2"/><use transform="matrix(.13441-.03045.04851.21681 446.2-190.22)" xlink:href="#2"/><use transform="matrix(.13441-.03045.04851.21681 443.39-195.19)" xlink:href="#2"/><use transform="matrix(.13441-.03045.04851.21681 438.61-200.44)" xlink:href="#2"/></g></g><g transform="matrix(.99984.0178-.0178.99984 12.04 10.605)"><g stroke="#000" stroke-width="2.5"><path fill="#804bff" d="m211.17 247.3c21.773-12.06 56.618-9.749 79.73 11.165 19.36 16.943 45.31 75.19 70.32 92.83-20.227.019-31.3-5.769-42.24-15.18-28.767 15.442-38.13 16.724-63.89 15.632-35.881-1.334-62.46-17.654-68.18-40.604-6.166-21.804 4.925-52.5 24.25-63.847z" transform="matrix(.20883-.04091.0473.1806 407.8-213.64)"/><ellipse fill="#f00" cx="287.23" cy="323.04" rx="14.15" ry="14.986" transform="matrix(.24521 0 0 .13433 401.82-215.18)"/><ellipse fill="#ff0" cx="204.58" cy="348.26" rx="23.254" ry="15.895" transform="matrix(.19364-.07599.06759.17273 398.66-208.06)"/></g><ellipse cx="283.9" cy="333.86" rx="5.828" ry="5.828" stroke-width="1.25" transform="matrix(.21412 0 0 .18518 411.29-233.74)"/><path fill="#ff0" stroke="#000" stroke-width="6.56" d="m516.8 260.29c4.425 18.11-6.674 43.08-33.13 52.609-26.775 13.173-46.08 41.831-55.641 88.02-47.24-103.27-23.11-148.28 20.6-160.35 37.38-14.363 60.42-13.371 68.17 19.72z" transform="matrix(.09229.00089-.0034.08482 417.85-191.49)"/><ellipse cx="198.98" cy="362.39" rx="4.71" ry="4.71" stroke-width="1.25" transform="matrix(.18697-.01313.01399.19143 418.69-234.98)"/></g></g></g></svg>