<svg xmlns="http://www.w3.org/2000/svg" viewBox="0 0 640 480"><defs><clipPath id="clipPath4074" clipPathUnits="userSpaceOnUse"><path fill-opacity=".67" d="m-85.009-0h682.67v512h-682.67z"/></clipPath></defs><g fill-rule="evenodd" clip-path="url(#clipPath4074)" transform="matrix(.9375 0 0 .9375 79.696 .00001)"><g stroke-width="1.25"><path fill="#108c00" d="m-258.27,0h1027.5v512h-1027.5z"/><g fill="#ffd600"><path d="m-260,178.16h1032.6v50.162h-1032.6z"/><path d="m181.08,0h48.432v512h-48.432z"/></g><path d="m227.78,0h48.432v512h-48.432z"/><path d="m-260,226.59h1032.6v50.162h-1032.6z"/><g fill="#fff"><path d="m-260,276.76h1032.6v50.162h-1032.6z"/><path d="m276.22-0h48.432v512h-48.432z"/></g><path fill="#e72910" d="m-257.685-393.87a136.875,137.51 0 0,1 136.875,137.51v.01a136.875,137.51 0 0,1 -136.875,137.51 136.875,137.51 0 0,1 -136.875-137.51v-.01a136.875,137.51 0 0,1 136.875-137.51" transform="scale(-1)"/><g transform="matrix(.35309 0 0 .35309 82.476 178.92)"><path d="m130.3,124.25c0-.83 18.259-51.456 18.259-51.456l16.599,50.626s55.606,1.66 55.606,.83-43.987,33.198-43.987,33.198 20.748,58.096 19.919,56.436c-.83-1.66-48.137-34.858-48.137-34.858s-48.136,33.198-47.306,33.198 18.258-54.776 18.258-54.776l-43.156-32.37 53.946-.83z" transform="matrix(.86997 0 0 .88048 362.54 -228.35)"/><g transform="translate(27.96 -31.866)"><path fill="#ffe700" d="m130.3,124.25c0-.83 18.259-51.456 18.259-51.456l16.599,50.626s55.606,1.66 55.606,.83-43.987,33.198-43.987,33.198 20.748,58.096 19.919,56.436c-.83-1.66-48.137-34.858-48.137-34.858s-48.136,33.198-47.306,33.198 18.258-54.776 18.258-54.776l-43.156-32.37 53.946-.83z" transform="matrix(.75348 0 0 .76258 351.92 -179.57)"/><path fill="#108c00" d="m130.3,124.25c0-.83 18.259-51.456 18.259-51.456l16.599,50.626s55.606,1.66 55.606,.83-43.987,33.198-43.987,33.198 20.748,58.096 19.919,56.436c-.83-1.66-48.137-34.858-48.137-34.858s-48.136,33.198-47.306,33.198 18.258-54.776 18.258-54.776l-43.156-32.37 53.946-.83z" transform="matrix(.43444 0 0 .43969 399.31 -133.03)"/></g></g><g transform="matrix(.35309 0 0 .35309 188.84 253.8)"><path d="m130.3,124.25c0-.83 18.259-51.456 18.259-51.456l16.599,50.626s55.606,1.66 55.606,.83-43.987,33.198-43.987,33.198 20.748,58.096 19.919,56.436c-.83-1.66-48.137-34.858-48.137-34.858s-48.136,33.198-47.306,33.198 18.258-54.776 18.258-54.776l-43.156-32.37 53.946-.83z" transform="matrix(.86997 0 0 .88048 362.54 -228.35)"/><g transform="translate(27.96 -31.866)"><path fill="#ffe700" d="m130.3,124.25c0-.83 18.259-51.456 18.259-51.456l16.599,50.626s55.606,1.66 55.606,.83-43.987,33.198-43.987,33.198 20.748,58.096 19.919,56.436c-.83-1.66-48.137-34.858-48.137-34.858s-48.136,33.198-47.306,33.198 18.258-54.776 18.258-54.776l-43.156-32.37 53.946-.83z" transform="matrix(.75348 0 0 .76258 351.92 -179.57)"/><path fill="#108c00" d="m130.3,124.25c0-.83 18.259-51.456 18.259-51.456l16.599,50.626s55.606,1.66 55.606,.83-43.987,33.198-43.987,33.198 20.748,58.096 19.919,56.436c-.83-1.66-48.137-34.858-48.137-34.858s-48.136,33.198-47.306,33.198 18.258-54.776 18.258-54.776l-43.156-32.37 53.946-.83z" transform="matrix(.43444 0 0 .43969 399.31 -133.03)"/></g></g><g transform="matrix(.35309 0 0 .35309 157.84 372.65)"><path d="m130.3,124.25c0-.83 18.259-51.456 18.259-51.456l16.599,50.626s55.606,1.66 55.606,.83-43.987,33.198-43.987,33.198 20.748,58.096 19.919,56.436c-.83-1.66-48.137-34.858-48.137-34.858s-48.136,33.198-47.306,33.198 18.258-54.776 18.258-54.776l-43.156-32.37 53.946-.83z" transform="matrix(.86997 0 0 .88048 362.54 -228.35)"/><g transform="translate(27.96 -31.866)"><path fill="#ffe700" d="m130.3,124.25c0-.83 18.259-51.456 18.259-51.456l16.599,50.626s55.606,1.66 55.606,.83-43.987,33.198-43.987,33.198 20.748,58.096 19.919,56.436c-.83-1.66-48.137-34.858-48.137-34.858s-48.136,33.198-47.306,33.198 18.258-54.776 18.258-54.776l-43.156-32.37 53.946-.83z" transform="matrix(.75348 0 0 .76258 351.92 -179.57)"/><path fill="#108c00" d="m130.3,124.25c0-.83 18.259-51.456 18.259-51.456l16.599,50.626s55.606,1.66 55.606,.83-43.987,33.198-43.987,33.198 20.748,58.096 19.919,56.436c-.83-1.66-48.137-34.858-48.137-34.858s-48.136,33.198-47.306,33.198 18.258-54.776 18.258-54.776l-43.156-32.37 53.946-.83z" transform="matrix(.43444 0 0 .43969 399.31 -133.03)"/></g></g><g transform="matrix(.35309 0 0 .35309 9.132 372.65)"><path d="m130.3,124.25c0-.83 18.259-51.456 18.259-51.456l16.599,50.626s55.606,1.66 55.606,.83-43.987,33.198-43.987,33.198 20.748,58.096 19.919,56.436c-.83-1.66-48.137-34.858-48.137-34.858s-48.136,33.198-47.306,33.198 18.258-54.776 18.258-54.776l-43.156-32.37 53.946-.83z" transform="matrix(.86997 0 0 .88048 362.54 -228.35)"/><g transform="translate(27.96 -31.866)"><path fill="#ffe700" d="m130.3,124.25c0-.83 18.259-51.456 18.259-51.456l16.599,50.626s55.606,1.66 55.606,.83-43.987,33.198-43.987,33.198 20.748,58.096 19.919,56.436c-.83-1.66-48.137-34.858-48.137-34.858s-48.136,33.198-47.306,33.198 18.258-54.776 18.258-54.776l-43.156-32.37 53.946-.83z" transform="matrix(.75348 0 0 .76258 351.92 -179.57)"/><path fill="#108c00" d="m130.3,124.25c0-.83 18.259-51.456 18.259-51.456l16.599,50.626s55.606,1.66 55.606,.83-43.987,33.198-43.987,33.198 20.748,58.096 19.919,56.436c-.83-1.66-48.137-34.858-48.137-34.858s-48.136,33.198-47.306,33.198 18.258-54.776 18.258-54.776l-43.156-32.37 53.946-.83z" transform="matrix(.43444 0 0 .43969 399.31 -133.03)"/></g></g><g transform="matrix(.35309 0 0 .35309 -18.025 250.74)"><path d="m130.3,124.25c0-.83 18.259-51.456 18.259-51.456l16.599,50.626s55.606,1.66 55.606,.83-43.987,33.198-43.987,33.198 20.748,58.096 19.919,56.436c-.83-1.66-48.137-34.858-48.137-34.858s-48.136,33.198-47.306,33.198 18.258-54.776 18.258-54.776l-43.156-32.37 53.946-.83z" transform="matrix(.86997 0 0 .88048 362.54 -228.35)"/><g transform="translate(27.96 -31.866)"><path fill="#ffe700" d="m130.3,124.25c0-.83 18.259-51.456 18.259-51.456l16.599,50.626s55.606,1.66 55.606,.83-43.987,33.198-43.987,33.198 20.748,58.096 19.919,56.436c-.83-1.66-48.137-34.858-48.137-34.858s-48.136,33.198-47.306,33.198 18.258-54.776 18.258-54.776l-43.156-32.37 53.946-.83z" transform="matrix(.75348 0 0 .76258 351.92 -179.57)"/><path fill="#108c00" d="m130.3,124.25c0-.83 18.259-51.456 18.259-51.456l16.599,50.626s55.606,1.66 55.606,.83-43.987,33.198-43.987,33.198 20.748,58.096 19.919,56.436c-.83-1.66-48.137-34.858-48.137-34.858s-48.136,33.198-47.306,33.198 18.258-54.776 18.258-54.776l-43.156-32.37 53.946-.83z" transform="matrix(.43444 0 0 .43969 399.31 -133.03)"/></g></g><g transform="matrix(-.35309 0 0 -.35309 492.65 132.14)"><path d="m130.3,124.25c0-.83 18.259-51.456 18.259-51.456l16.599,50.626s55.606,1.66 55.606,.83-43.987,33.198-43.987,33.198 20.748,58.096 19.919,56.436c-.83-1.66-48.137-34.858-48.137-34.858s-48.136,33.198-47.306,33.198 18.258-54.776 18.258-54.776l-43.156-32.37 53.946-.83z" transform="matrix(.86997 0 0 .88048 362.54 -228.35)"/><g transform="translate(27.96 -31.866)"><path fill="#ffe700" d="m130.3,124.25c0-.83 18.259-51.456 18.259-51.456l16.599,50.626s55.606,1.66 55.606,.83-43.987,33.198-43.987,33.198 20.748,58.096 19.919,56.436c-.83-1.66-48.137-34.858-48.137-34.858s-48.136,33.198-47.306,33.198 18.258-54.776 18.258-54.776l-43.156-32.37 53.946-.83z" transform="matrix(.75348 0 0 .76258 351.92 -179.57)"/><path fill="#108c00" d="m130.3,124.25c0-.83 18.259-51.456 18.259-51.456l16.599,50.626s55.606,1.66 55.606,.83-43.987,33.198-43.987,33.198 20.748,58.096 19.919,56.436c-.83-1.66-48.137-34.858-48.137-34.858s-48.136,33.198-47.306,33.198 18.258-54.776 18.258-54.776l-43.156-32.37 53.946-.83z" transform="matrix(.43444 0 0 .43969 399.31 -133.03)"/></g></g><g transform="matrix(-.35309 0 0 -.35309 535.35 248.28)"><path d="m130.3,124.25c0-.83 18.259-51.456 18.259-51.456l16.599,50.626s55.606,1.66 55.606,.83-43.987,33.198-43.987,33.198 20.748,58.096 19.919,56.436c-.83-1.66-48.137-34.858-48.137-34.858s-48.136,33.198-47.306,33.198 18.258-54.776 18.258-54.776l-43.156-32.37 53.946-.83z" transform="matrix(.86997 0 0 .88048 362.54 -228.35)"/><g transform="translate(27.96 -31.866)"><path fill="#ffe700" d="m130.3,124.25c0-.83 18.259-51.456 18.259-51.456l16.599,50.626s55.606,1.66 55.606,.83-43.987,33.198-43.987,33.198 20.748,58.096 19.919,56.436c-.83-1.66-48.137-34.858-48.137-34.858s-48.136,33.198-47.306,33.198 18.258-54.776 18.258-54.776l-43.156-32.37 53.946-.83z" transform="matrix(.75348 0 0 .76258 351.92 -179.57)"/><path fill="#108c00" d="m130.3,124.25c0-.83 18.259-51.456 18.259-51.456l16.599,50.626s55.606,1.66 55.606,.83-43.987,33.198-43.987,33.198 20.748,58.096 19.919,56.436c-.83-1.66-48.137-34.858-48.137-34.858s-48.136,33.198-47.306,33.198 18.258-54.776 18.258-54.776l-43.156-32.37 53.946-.83z" transform="matrix(.43444 0 0 .43969 399.31 -133.03)"/></g></g><g transform="matrix(-.35309 0 0 -.35309 429.46 333.25)"><path d="m130.3,124.25c0-.83 18.259-51.456 18.259-51.456l16.599,50.626s55.606,1.66 55.606,.83-43.987,33.198-43.987,33.198 20.748,58.096 19.919,56.436c-.83-1.66-48.137-34.858-48.137-34.858s-48.136,33.198-47.306,33.198 18.258-54.776 18.258-54.776l-43.156-32.37 53.946-.83z" transform="matrix(.86997 0 0 .88048 362.54 -228.35)"/><g transform="translate(27.96 -31.866)"><path fill="#ffe700" d="m130.3,124.25c0-.83 18.259-51.456 18.259-51.456l16.599,50.626s55.606,1.66 55.606,.83-43.987,33.198-43.987,33.198 20.748,58.096 19.919,56.436c-.83-1.66-48.137-34.858-48.137-34.858s-48.136,33.198-47.306,33.198 18.258-54.776 18.258-54.776l-43.156-32.37 53.946-.83z" transform="matrix(.75348 0 0 .76258 351.92 -179.57)"/><path fill="#108c00" d="m130.3,124.25c0-.83 18.259-51.456 18.259-51.456l16.599,50.626s55.606,1.66 55.606,.83-43.987,33.198-43.987,33.198 20.748,58.096 19.919,56.436c-.83-1.66-48.137-34.858-48.137-34.858s-48.136,33.198-47.306,33.198 18.258-54.776 18.258-54.776l-43.156-32.37 53.946-.83z" transform="matrix(.43444 0 0 .43969 399.31 -133.03)"/></g></g><g transform="matrix(-.35309 0 0 -.35309 329.97 248.28)"><path d="m130.3,124.25c0-.83 18.259-51.456 18.259-51.456l16.599,50.626s55.606,1.66 55.606,.83-43.987,33.198-43.987,33.198 20.748,58.096 19.919,56.436c-.83-1.66-48.137-34.858-48.137-34.858s-48.136,33.198-47.306,33.198 18.258-54.776 18.258-54.776l-43.156-32.37 53.946-.83z" transform="matrix(.86997 0 0 .88048 362.54 -228.35)"/><g transform="translate(27.96 -31.866)"><path fill="#ffe700" d="m130.3,124.25c0-.83 18.259-51.456 18.259-51.456l16.599,50.626s55.606,1.66 55.606,.83-43.987,33.198-43.987,33.198 20.748,58.096 19.919,56.436c-.83-1.66-48.137-34.858-48.137-34.858s-48.136,33.198-47.306,33.198 18.258-54.776 18.258-54.776l-43.156-32.37 53.946-.83z" transform="matrix(.75348 0 0 .76258 351.92 -179.57)"/><path fill="#108c00" d="m130.3,124.25c0-.83 18.259-51.456 18.259-51.456l16.599,50.626s55.606,1.66 55.606,.83-43.987,33.198-43.987,33.198 20.748,58.096 19.919,56.436c-.83-1.66-48.137-34.858-48.137-34.858s-48.136,33.198-47.306,33.198 18.258-54.776 18.258-54.776l-43.156-32.37 53.946-.83z" transform="matrix(.43444 0 0 .43969 399.31 -133.03)"/></g></g><g transform="matrix(-.35309 0 0 -.35309 366.69 133.85)"><path d="m130.3,124.25c0-.83 18.259-51.456 18.259-51.456l16.599,50.626s55.606,1.66 55.606,.83-43.987,33.198-43.987,33.198 20.748,58.096 19.919,56.436c-.83-1.66-48.137-34.858-48.137-34.858s-48.136,33.198-47.306,33.198 18.258-54.776 18.258-54.776l-43.156-32.37 53.946-.83z" transform="matrix(.86997 0 0 .88048 362.54 -228.35)"/><g transform="translate(27.96 -31.866)"><path fill="#ffe700" d="m130.3,124.25c0-.83 18.259-51.456 18.259-51.456l16.599,50.626s55.606,1.66 55.606,.83-43.987,33.198-43.987,33.198 20.748,58.096 19.919,56.436c-.83-1.66-48.137-34.858-48.137-34.858s-48.136,33.198-47.306,33.198 18.258-54.776 18.258-54.776l-43.156-32.37 53.946-.83z" transform="matrix(.75348 0 0 .76258 351.92 -179.57)"/><path fill="#108c00" d="m130.3,124.25c0-.83 18.259-51.456 18.259-51.456l16.599,50.626s55.606,1.66 55.606,.83-43.987,33.198-43.987,33.198 20.748,58.096 19.919,56.436c-.83-1.66-48.137-34.858-48.137-34.858s-48.136,33.198-47.306,33.198 18.258-54.776 18.258-54.776l-43.156-32.37 53.946-.83z" transform="matrix(.43444 0 0 .43969 399.31 -133.03)"/></g></g></g><g transform="matrix(1.0355 0 0 1.0355 -250.6 359.43)"><g stroke="#000"><g fill="#009200" stroke-width="2.5" transform="matrix(.1635 -.01628 .01182 .18436 429.84 -215.63)"><ellipse cx="680.21" cy="586.13" rx="30.805" ry="189.82" d="m 711.01062,586.12573 c 0,104.83738 -13.79184,189.82486 -30.80493,189.82486 -17.0131,0 -30.80493,-84.98748 -30.80493,-189.82486 0,-104.83737 13.79183,-189.82486 30.80493,-189.82486 17.01309,0 30.80493,84.98749 30.80493,189.82486 z" transform="matrix(1.4051 -.00581 .00817 .99998 -534.29 263.72)"/><ellipse cx="680.21" cy="586.13" rx="30.805" ry="189.82" d="m 711.01062,586.12573 c 0,104.83738 -13.79184,189.82486 -30.80493,189.82486 -17.0131,0 -30.80493,-84.98748 -30.80493,-189.82486 0,-104.83737 13.79183,-189.82486 30.80493,-189.82486 17.01309,0 30.80493,84.98749 30.80493,189.82486 z" transform="matrix(1.4862 -.00581 .00864 .99998 -547.22 267.05)"/><ellipse cx="680.21" cy="586.13" rx="30.805" ry="189.82" d="m 711.01062,586.12573 c 0,104.83738 -13.79184,189.82486 -30.80493,189.82486 -17.0131,0 -30.80493,-84.98748 -30.80493,-189.82486 0,-104.83737 13.79183,-189.82486 30.80493,-189.82486 17.01309,0 30.80493,84.98749 30.80493,189.82486 z" transform="matrix(1.189 -.00642 .00691 1.1052 -364.93 214.1)"/></g><g transform="translate(72.865 -9.797)"><path fill="#a95600" stroke-width="2.505" d="m238.34,971.79c29.972-1.665 16.651-16.652 31.637-24.977 14.986-8.326 36.633-3.33 43.293,6.66 6.661,9.991 1.666,19.982 9.991,19.982 8.326,0 234.56-12.675 242.88-4.349 8.326,8.325 9.991,24.977 1.665,31.634-8.325,6.66-294.5,14.34-304.49,7.68-9.991-6.66-24.977-34.965-24.977-36.63z" transform="matrix(.20244 .00349 -.00394 .21385 340.86 -247.31)"/><g fill="#ff0" stroke-width="3.853"><path d="m529.59,405.46c0,39.983 45.562,27.879 46.81,61.249-.724,35.408-76.706,3.467-78.635-61.249 1.929-64.716 75.107-97.929 76.705-61.011 1.246,30.686-44.88,21.028-44.88,61.011z" transform="matrix(.14799 .00195 -.00275 .11459 340.42 -81.691)"/><path d="m529.59,405.46c0,39.983 45.562,27.879 46.81,61.249-.724,35.408-76.706,3.467-78.635-61.249 1.929-64.716 75.107-97.929 76.705-61.011 1.246,30.686-44.88,21.028-44.88,61.011z" transform="matrix(.14799 .00195 -.00275 .11459 344.42 -81.638)"/><path d="m529.59,405.46c0,39.983 45.562,27.879 46.81,61.249-.724,35.408-76.706,3.467-78.635-61.249 1.929-64.716 75.107-97.929 76.705-61.011 1.246,30.686-44.88,21.028-44.88,61.011z" transform="matrix(.14799 .00195 -.00275 .11459 348.71 -81.8)"/><path d="m529.59,405.46c0,39.983 45.562,27.879 46.81,61.249-.724,35.408-76.706,3.467-78.635-61.249 1.929-64.716 75.107-97.929 76.705-61.011 1.246,30.686-44.88,21.028-44.88,61.011z" transform="matrix(.14799 .00195 -.00275 .11459 352.71 -81.747)"/></g><ellipse fill="#a95600" cx="478.38" cy="-41.086" rx="3.534" ry="3.403" stroke-width=".399" d="m 481.91562,-41.085754 c 0,1.879412 -1.58217,3.402977 -3.53388,3.402977 -1.9517,0 -3.53387,-1.523565 -3.53387,-3.402977 0,-1.879413 1.58217,-3.402977 3.53387,-3.402977 1.95171,0 3.53388,1.523564 3.53388,3.402977 z" transform="matrix(1.0945 .01648 -.02429 1.1537 -75.571 4.6776)"/></g><g stroke-width="2.5"><g fill="#009200" transform="matrix(.99488 -.10102 .10102 .99488 66.684 66.338)"><ellipse cx="427.11" cy="905" rx="20.814" ry="24.144" d="m 447.92003,904.99817 c 0,13.33459 -9.31881,24.14441 -20.81413,24.14441 -11.49533,0 -20.81414,-10.80982 -20.81414,-24.14441 0,-13.33459 9.31881,-24.14441 20.81414,-24.14441 11.49532,0 20.81413,10.80982 20.81413,24.14441 z" transform="matrix(.16619 -.00807 .00169 .3152 369.8 -361.65)"/><ellipse cx="427.11" cy="905" rx="20.814" ry="24.144" d="m 447.92003,904.99817 c 0,13.33459 -9.31881,24.14441 -20.81413,24.14441 -11.49533,0 -20.81414,-10.80982 -20.81414,-24.14441 0,-13.33459 9.31881,-24.14441 20.81414,-24.14441 11.49532,0 20.81413,10.80982 20.81413,24.14441 z" transform="matrix(.16619 -.00807 .00169 .3152 364.04 -362.7)"/><ellipse cx="427.11" cy="905" rx="20.814" ry="24.144" d="m 447.92003,904.99817 c 0,13.33459 -9.31881,24.14441 -20.81413,24.14441 -11.49533,0 -20.81414,-10.80982 -20.81414,-24.14441 0,-13.33459 9.31881,-24.14441 20.81414,-24.14441 11.49532,0 20.81413,10.80982 20.81413,24.14441 z" transform="matrix(.16619 -.00807 .00169 .3152 360.64 -370.55)"/><ellipse cx="427.11" cy="905" rx="20.814" ry="24.144" d="m 447.92003,904.99817 c 0,13.33459 -9.31881,24.14441 -20.81413,24.14441 -11.49533,0 -20.81414,-10.80982 -20.81414,-24.14441 0,-13.33459 9.31881,-24.14441 20.81414,-24.14441 11.49532,0 20.81413,10.80982 20.81413,24.14441 z" transform="matrix(.1599 -.00891 .00162 .34772 369.3 -399.35)"/><ellipse cx="427.11" cy="905" rx="20.814" ry="24.144" d="m 447.92003,904.99817 c 0,13.33459 -9.31881,24.14441 -20.81413,24.14441 -11.49533,0 -20.81414,-10.80982 -20.81414,-24.14441 0,-13.33459 9.31881,-24.14441 20.81414,-24.14441 11.49532,0 20.81413,10.80982 20.81413,24.14441 z" transform="matrix(.1599 -.00835 .00162 .32604 377.41 -379.07)"/><ellipse cx="427.11" cy="905" rx="20.814" ry="24.144" d="m 447.92003,904.99817 c 0,13.33459 -9.31881,24.14441 -20.81413,24.14441 -11.49533,0 -20.81414,-10.80982 -20.81414,-24.14441 0,-13.33459 9.31881,-24.14441 20.81414,-24.14441 11.49532,0 20.81413,10.80982 20.81413,24.14441 z" transform="matrix(.1599 -.00835 .00162 .32604 373.22 -382.21)"/><ellipse cx="427.11" cy="905" rx="20.814" ry="24.144" d="m 447.92003,904.99817 c 0,13.33459 -9.31881,24.14441 -20.81413,24.14441 -11.49533,0 -20.81414,-10.80982 -20.81414,-24.14441 0,-13.33459 9.31881,-24.14441 20.81414,-24.14441 11.49532,0 20.81413,10.80982 20.81413,24.14441 z" transform="matrix(.1599 -.00835 .00162 .32604 367.99 -386.66)"/><ellipse cx="427.11" cy="905" rx="20.814" ry="24.144" d="m 447.92003,904.99817 c 0,13.33459 -9.31881,24.14441 -20.81413,24.14441 -11.49533,0 -20.81414,-10.80982 -20.81414,-24.14441 0,-13.33459 9.31881,-24.14441 20.81414,-24.14441 11.49532,0 20.81413,10.80982 20.81413,24.14441 z" transform="matrix(.1599 -.00835 .00162 .32604 363.01 -389.54)"/></g><path fill="#804bff" d="m173.17,346.35s-54.198,64.893-21.252,208.82c33.958,144.59 178.96,189.78 178.96,189.78s26.496-47.423 1.726-164.04c-39.96-169.85-116.14-234.56-116.14-234.56h-43.293z" transform="matrix(.17689 .03219 -.03142 .18236 461.79 -208.61)"/><g fill="#009200" transform="matrix(.99696 .07791 -.07791 .99696 60.532 -11.76)"><ellipse cx="427.11" cy="905" rx="20.814" ry="24.144" d="m 447.92003,904.99817 c 0,13.33459 -9.31881,24.14441 -20.81413,24.14441 -11.49533,0 -20.81414,-10.80982 -20.81414,-24.14441 0,-13.33459 9.31881,-24.14441 20.81414,-24.14441 11.49532,0 20.81413,10.80982 20.81413,24.14441 z" transform="matrix(.16619 -.00807 .00169 .3152 369.8 -361.65)"/><ellipse cx="427.11" cy="905" rx="20.814" ry="24.144" d="m 447.92003,904.99817 c 0,13.33459 -9.31881,24.14441 -20.81413,24.14441 -11.49533,0 -20.81414,-10.80982 -20.81414,-24.14441 0,-13.33459 9.31881,-24.14441 20.81414,-24.14441 11.49532,0 20.81413,10.80982 20.81413,24.14441 z" transform="matrix(.16619 -.00807 .00169 .3152 364.04 -362.7)"/><ellipse cx="427.11" cy="905" rx="20.814" ry="24.144" d="m 447.92003,904.99817 c 0,13.33459 -9.31881,24.14441 -20.81413,24.14441 -11.49533,0 -20.81414,-10.80982 -20.81414,-24.14441 0,-13.33459 9.31881,-24.14441 20.81414,-24.14441 11.49532,0 20.81413,10.80982 20.81413,24.14441 z" transform="matrix(.16619 -.00807 .00169 .3152 360.64 -370.55)"/><ellipse cx="427.11" cy="905" rx="20.814" ry="24.144" d="m 447.92003,904.99817 c 0,13.33459 -9.31881,24.14441 -20.81413,24.14441 -11.49533,0 -20.81414,-10.80982 -20.81414,-24.14441 0,-13.33459 9.31881,-24.14441 20.81414,-24.14441 11.49532,0 20.81413,10.80982 20.81413,24.14441 z" transform="matrix(.1599 -.00891 .00162 .34772 369.3 -399.35)"/><ellipse cx="427.11" cy="905" rx="20.814" ry="24.144" d="m 447.92003,904.99817 c 0,13.33459 -9.31881,24.14441 -20.81413,24.14441 -11.49533,0 -20.81414,-10.80982 -20.81414,-24.14441 0,-13.33459 9.31881,-24.14441 20.81414,-24.14441 11.49532,0 20.81413,10.80982 20.81413,24.14441 z" transform="matrix(.1599 -.00835 .00162 .32604 377.41 -379.07)"/><ellipse cx="427.11" cy="905" rx="20.814" ry="24.144" d="m 447.92003,904.99817 c 0,13.33459 -9.31881,24.14441 -20.81413,24.14441 -11.49533,0 -20.81414,-10.80982 -20.81414,-24.14441 0,-13.33459 9.31881,-24.14441 20.81414,-24.14441 11.49532,0 20.81413,10.80982 20.81413,24.14441 z" transform="matrix(.1599 -.00835 .00162 .32604 373.22 -382.21)"/><ellipse cx="427.11" cy="905" rx="20.814" ry="24.144" d="m 447.92003,904.99817 c 0,13.33459 -9.31881,24.14441 -20.81413,24.14441 -11.49533,0 -20.81414,-10.80982 -20.81414,-24.14441 0,-13.33459 9.31881,-24.14441 20.81414,-24.14441 11.49532,0 20.81413,10.80982 20.81413,24.14441 z" transform="matrix(.1599 -.00835 .00162 .32604 367.99 -386.66)"/><ellipse cx="427.11" cy="905" rx="20.814" ry="24.144" d="m 447.92003,904.99817 c 0,13.33459 -9.31881,24.14441 -20.81413,24.14441 -11.49533,0 -20.81414,-10.80982 -20.81414,-24.14441 0,-13.33459 9.31881,-24.14441 20.81414,-24.14441 11.49532,0 20.81413,10.80982 20.81413,24.14441 z" transform="matrix(.1599 -.00835 .00162 .32604 363.01 -389.54)"/></g></g><ellipse fill="#c90000" cx="624.42" cy="606.11" rx="58.28" ry="186.49" stroke-width="1.25" d="m 682.70337,606.1073 c 0,102.99811 -26.09264,186.49458 -58.27954,186.49458 -32.1869,0 -58.27954,-83.49647 -58.27954,-186.49458 0,-102.99811 26.09264,-186.49458 58.27954,-186.49458 32.1869,0 58.27954,83.49647 58.27954,186.49458 z" transform="matrix(.15695 -.06063 .06364 .1484 369.61 -145.05)"/><g fill="#009200"><g transform="matrix(.99984 .0178 -.0178 .99984 -34.814 -4.6285)"><ellipse cx="218.13" cy="356.75" rx="10.823" ry="12.905" stroke-width="1.464" d="m 228.95542,356.75403 c 0,7.12711 -4.84577,12.90477 -10.82334,12.90477 -5.97757,0 -10.82334,-5.77766 -10.82334,-12.90477 0,-7.12711 4.84577,-12.90477 10.82334,-12.90477 5.97757,0 10.82334,5.77766 10.82334,12.90477 z" transform="matrix(.3953 0 0 .2927 445.07 -230.53)"/><g stroke-width="1.546"><ellipse cx="218.13" cy="356.75" rx="10.823" ry="12.905" d="m 228.95542,356.75403 c 0,7.12711 -4.84577,12.90477 -10.82334,12.90477 -5.97757,0 -10.82334,-5.77766 -10.82334,-12.90477 0,-7.12711 4.84577,-12.90477 10.82334,-12.90477 5.97757,0 10.82334,5.77766 10.82334,12.90477 z" transform="matrix(.35412 0 0 .2927 457.17 -235.92)"/><ellipse cx="218.13" cy="356.75" rx="10.823" ry="12.905" d="m 228.95542,356.75403 c 0,7.12711 -4.84577,12.90477 -10.82334,12.90477 -5.97757,0 -10.82334,-5.77766 -10.82334,-12.90477 0,-7.12711 4.84577,-12.90477 10.82334,-12.90477 5.97757,0 10.82334,5.77766 10.82334,12.90477 z" transform="matrix(.35412 0 0 .2927 452 -235.92)"/></g><g stroke-width="1.56"><ellipse cx="218.13" cy="356.75" rx="10.823" ry="12.905" d="m 228.95542,356.75403 c 0,7.12711 -4.84577,12.90477 -10.82334,12.90477 -5.97757,0 -10.82334,-5.77766 -10.82334,-12.90477 0,-7.12711 4.84577,-12.90477 10.82334,-12.90477 5.97757,0 10.82334,5.77766 10.82334,12.90477 z" transform="matrix(.37059 0 0 .27478 449.48 -233.46)"/><ellipse cx="218.13" cy="356.75" rx="10.823" ry="12.905" d="m 228.95542,356.75403 c 0,7.12711 -4.84577,12.90477 -10.82334,12.90477 -5.97757,0 -10.82334,-5.77766 -10.82334,-12.90477 0,-7.12711 4.84577,-12.90477 10.82334,-12.90477 5.97757,0 10.82334,5.77766 10.82334,12.90477 z" transform="matrix(.37059 0 0 .27478 448.95 -237.93)"/></g><ellipse cx="218.13" cy="356.75" rx="10.823" ry="12.905" stroke-width="1.546" d="m 228.95542,356.75403 c 0,7.12711 -4.84577,12.90477 -10.82334,12.90477 -5.97757,0 -10.82334,-5.77766 -10.82334,-12.90477 0,-7.12711 4.84577,-12.90477 10.82334,-12.90477 5.97757,0 10.82334,5.77766 10.82334,12.90477 z" transform="matrix(.35412 0 0 .2927 447.01 -238.85)"/><ellipse cx="218.13" cy="356.75" rx="10.823" ry="12.905" stroke-width="1.562" d="m 228.95542,356.75403 c 0,7.12711 -4.84577,12.90477 -10.82334,12.90477 -5.97757,0 -10.82334,-5.77766 -10.82334,-12.90477 0,-7.12711 4.84577,-12.90477 10.82334,-12.90477 5.97757,0 10.82334,5.77766 10.82334,12.90477 z" transform="matrix(.35412 0 0 .28673 448.08 -241.58)"/><ellipse cx="218.13" cy="356.75" rx="10.823" ry="12.905" stroke-width="1.464" d="m 228.95542,356.75403 c 0,7.12711 -4.84577,12.90477 -10.82334,12.90477 -5.97757,0 -10.82334,-5.77766 -10.82334,-12.90477 0,-7.12711 4.84577,-12.90477 10.82334,-12.90477 5.97757,0 10.82334,5.77766 10.82334,12.90477 z" transform="matrix(.3953 0 0 .2927 432.77 -243.48)"/><ellipse cx="218.13" cy="356.75" rx="10.823" ry="12.905" stroke-width="1.56" d="m 228.95542,356.75403 c 0,7.12711 -4.84577,12.90477 -10.82334,12.90477 -5.97757,0 -10.82334,-5.77766 -10.82334,-12.90477 0,-7.12711 4.84577,-12.90477 10.82334,-12.90477 5.97757,0 10.82334,5.77766 10.82334,12.90477 z" transform="matrix(.37059 0 0 .27478 445.92 -243.48)"/><ellipse cx="218.13" cy="356.75" rx="10.823" ry="12.905" stroke-width="1.562" d="m 228.95542,356.75403 c 0,7.12711 -4.84577,12.90477 -10.82334,12.90477 -5.97757,0 -10.82334,-5.77766 -10.82334,-12.90477 0,-7.12711 4.84577,-12.90477 10.82334,-12.90477 5.97757,0 10.82334,5.77766 10.82334,12.90477 z" transform="matrix(.35412 0 0 .28673 444.16 -246.97)"/><ellipse cx="218.13" cy="356.75" rx="10.823" ry="12.905" stroke-width="1.546" d="m 228.95542,356.75403 c 0,7.12711 -4.84577,12.90477 -10.82334,12.90477 -5.97757,0 -10.82334,-5.77766 -10.82334,-12.90477 0,-7.12711 4.84577,-12.90477 10.82334,-12.90477 5.97757,0 10.82334,5.77766 10.82334,12.90477 z" transform="matrix(.35412 0 0 .2927 436.14 -243.17)"/><g stroke-width="1.562"><ellipse cx="218.13" cy="356.75" rx="10.823" ry="12.905" d="m 228.95542,356.75403 c 0,7.12711 -4.84577,12.90477 -10.82334,12.90477 -5.97757,0 -10.82334,-5.77766 -10.82334,-12.90477 0,-7.12711 4.84577,-12.90477 10.82334,-12.90477 5.97757,0 10.82334,5.77766 10.82334,12.90477 z" transform="matrix(.35412 0 0 .28673 437.42 -243.88)"/><ellipse cx="218.13" cy="356.75" rx="10.823" ry="12.905" d="m 228.95542,356.75403 c 0,7.12711 -4.84577,12.90477 -10.82334,12.90477 -5.97757,0 -10.82334,-5.77766 -10.82334,-12.90477 0,-7.12711 4.84577,-12.90477 10.82334,-12.90477 5.97757,0 10.82334,5.77766 10.82334,12.90477 z" transform="matrix(.35412 0 0 .28673 438.99 -247.02)"/></g></g><g transform="matrix(.17961 -.00452 .00419 .18512 420.99 -216.8)"><ellipse cx="528.68" cy="564.48" rx="67.438" ry="205.64" stroke-width="2.545" d="m 596.11665,564.479 c 0,113.57383 -30.19291,205.6436 -67.43776,205.6436 -37.24484,0 -67.43776,-92.06977 -67.43776,-205.6436 0,-113.57382 30.19292,-205.6436 67.43776,-205.6436 37.24485,0 67.43776,92.06978 67.43776,205.6436 z" transform="matrix(.97574 -.30793 .36304 .87448 -245.81 324.4)"/><ellipse cx="528.68" cy="646.07" rx="13.321" ry="40.796" stroke-width="2.5" d="m 541.99991,646.07043 c 0,22.53084 -5.96405,40.79569 -13.32108,40.79569 -7.35702,0 -13.32107,-18.26485 -13.32107,-40.79569 0,-22.53083 5.96405,-40.79568 13.32107,-40.79568 7.35703,0 13.32108,18.26485 13.32108,40.79568 z" transform="matrix(.91788 -.39685 .39685 .91788 -210.48 304.49)"/><g stroke-width="1.533"><path d="m139.87,643.99c0,57.677-18.755,86.171-34.551,110.32 7.517-32.47 12.905-52.637 12.905-110.31 0-57.677 29.579-85.337 40.379-101.99-4.186,16.652-18.733,44.312-18.733,101.99z" transform="matrix(1.8828 -.45598 .95342 1.1822 -352.26 -10.02)"/><path d="m139.87,643.99c0,57.677-18.755,86.171-34.551,110.32 7.517-32.47 12.905-52.637 12.905-110.31 0-57.677 29.579-85.337 40.379-101.99-4.186,16.652-18.733,44.312-18.733,101.99z" transform="matrix(1.8828 -.45598 .95342 1.1822 -348.42 44.058)"/><path d="m139.87,643.99c0,57.677-18.755,86.171-34.551,110.32 7.517-32.47 12.905-52.637 12.905-110.31 0-57.677 29.579-85.337 40.379-101.99-4.186,16.652-18.733,44.312-18.733,101.99z" transform="matrix(1.873 -.49468 .97758 1.1623 -361.92 105.78)"/></g><ellipse cx="528.68" cy="646.07" rx="13.321" ry="40.796" stroke-width="1.389" d="m 541.99991,646.07043 c 0,22.53084 -5.96405,40.79569 -13.32108,40.79569 -7.35702,0 -13.32107,-18.26485 -13.32107,-40.79569 0,-22.53083 5.96405,-40.79568 13.32107,-40.79568 7.35703,0 13.32108,18.26485 13.32108,40.79568 z" transform="matrix(1.8105 -.40052 .69907 1.6353 -915.63 -221.01)"/><g stroke-width="1.64"><ellipse cx="528.68" cy="646.07" rx="13.321" ry="40.796" d="m 541.99991,646.07043 c 0,22.53084 -5.96405,40.79569 -13.32108,40.79569 -7.35702,0 -13.32107,-18.26485 -13.32107,-40.79569 0,-22.53083 5.96405,-40.79568 13.32107,-40.79568 7.35703,0 13.32108,18.26485 13.32108,40.79568 z" transform="matrix(1.6257 -.23068 .54158 1.3528 -739.49 -91.775)"/><ellipse cx="528.68" cy="646.07" rx="13.321" ry="40.796" d="m 541.99991,646.07043 c 0,22.53084 -5.96405,40.79569 -13.32108,40.79569 -7.35702,0 -13.32107,-18.26485 -13.32107,-40.79569 0,-22.53083 5.96405,-40.79568 13.32107,-40.79568 7.35703,0 13.32108,18.26485 13.32108,40.79568 z" transform="matrix(1.6304 -.19719 .51251 1.3635 -750.62 -91.826)"/></g><g stroke-width="2.097"><ellipse cx="528.68" cy="646.07" rx="13.321" ry="40.796" d="m 541.99991,646.07043 c 0,22.53084 -5.96405,40.79569 -13.32108,40.79569 -7.35702,0 -13.32107,-18.26485 -13.32107,-40.79569 0,-22.53083 5.96405,-40.79568 13.32107,-40.79568 7.35703,0 13.32108,18.26485 13.32108,40.79568 z" transform="matrix(1.3144 -.2006 .46889 1.0101 -531.06 47.568)"/><ellipse cx="528.68" cy="646.07" rx="13.321" ry="40.796" d="m 541.99991,646.07043 c 0,22.53084 -5.96405,40.79569 -13.32108,40.79569 -7.35702,0 -13.32107,-18.26485 -13.32107,-40.79569 0,-22.53083 5.96405,-40.79568 13.32107,-40.79568 7.35703,0 13.32108,18.26485 13.32108,40.79568 z" transform="matrix(1.3258 -.13044 .40342 1.0327 -517.87 12.211)"/></g><path stroke-width="2.086" d="m145.7,569.47c0,34.006-6.712,61.61-14.985,61.61-8.272,0-14.986-27.604-14.986-61.61" transform="matrix(1.0254 -.49277 .46438 1.1773 12.767 -14.519)"/><g stroke-width="2.097"><ellipse cx="528.68" cy="646.07" rx="13.321" ry="40.796" d="m 541.99991,646.07043 c 0,22.53084 -5.96405,40.79569 -13.32108,40.79569 -7.35702,0 -13.32107,-18.26485 -13.32107,-40.79569 0,-22.53083 5.96405,-40.79568 13.32107,-40.79568 7.35703,0 13.32108,18.26485 13.32108,40.79568 z" transform="matrix(1.3258 -.13044 .40342 1.0327 -519.53 -34.412)"/><ellipse cx="528.68" cy="646.07" rx="13.321" ry="40.796" d="m 541.99991,646.07043 c 0,22.53084 -5.96405,40.79569 -13.32108,40.79569 -7.35702,0 -13.32107,-18.26485 -13.32107,-40.79569 0,-22.53083 5.96405,-40.79568 13.32107,-40.79568 7.35703,0 13.32108,18.26485 13.32108,40.79568 z" transform="matrix(1.3288 -.10511 .37955 1.04 -533.98 -40.121)"/></g><g stroke-width="2.88"><path d="m145.7,569.47c0,34.006-6.712,61.61-14.985,61.61-8.272,0-14.986-27.604-14.986-61.61" transform="matrix(.6722 -.47182 .45894 .7991 39.486 143.28)"/><path d="m145.7,569.47c0,34.006-6.712,61.61-14.985,61.61-8.272,0-14.986-27.604-14.986-61.61" transform="matrix(.6722 -.47182 .45894 .7991 51.142 125.79)"/></g><path stroke-width="2.086" d="m145.7,569.47c0,34.006-6.712,61.61-14.985,61.61-8.272,0-14.986-27.604-14.986-61.61" transform="matrix(.9374 -.64468 .64 1.0919 -40.198 -10.744)"/><path stroke-width="2.742" d="m145.7,569.47c0,34.006-6.712,61.61-14.985,61.61-8.272,0-14.986-27.604-14.986-61.61" transform="matrix(.6722 -.52022 .45894 .88108 68.626 71.179)"/></g></g><g fill="#804bff" stroke-width="2.5" transform="matrix(1.1014 .27587 -.26559 .97437 -85.415 -157.9)"><path d="m276.27,345.41c-12.278,9.174 .409,25.144 12.022,30.679 13.06,7.672 86.603,58.185 136.32,11.999-40.795,.833-118.66-63.183-148.34-42.678z" transform="matrix(.13441 -.03045 .04851 .21681 448.75 -184.91)"/><path d="m276.27,345.41c-12.278,9.174 .409,25.144 12.022,30.679 13.06,7.672 86.603,58.185 136.32,11.999-40.795,.833-118.66-63.183-148.34-42.678z" transform="matrix(.13441 -.03045 .04851 .21681 446.2 -190.22)"/><path d="m276.27,345.41c-12.278,9.174 .409,25.144 12.022,30.679 13.06,7.672 86.603,58.185 136.32,11.999-40.795,.833-118.66-63.183-148.34-42.678z" transform="matrix(.13441 -.03045 .04851 .21681 443.39 -195.19)"/><path d="m276.27,345.41c-12.278,9.174 .409,25.144 12.022,30.679 13.06,7.672 86.603,58.185 136.32,11.999-40.795,.833-118.66-63.183-148.34-42.678z" transform="matrix(.13441 -.03045 .04851 .21681 438.61 -200.44)"/></g></g><g transform="matrix(.99984 .0178 -.0178 .99984 12.04 10.605)"><g stroke="#000" stroke-width="2.5"><path fill="#804bff" d="m211.17,247.3c21.773-12.065 56.618-9.749 79.734,11.165 19.36,16.943 45.307,75.194 70.322,92.834-20.227,.019-31.298-5.769-42.241-15.18-28.767,15.442-38.127,16.724-63.89,15.632-35.881-1.334-62.459-17.654-68.178-40.604-6.166-21.804 4.925-52.498 24.253-63.847z" transform="matrix(.20883 -.04091 .0473 .1806 407.8 -213.64)"/><ellipse fill="#f00" cx="287.23" cy="323.04" rx="14.154" ry="14.986" d="m 301.3886,323.03516 c 0,8.27662 -6.33679,14.98616 -14.15361,14.98616 -7.81683,0 -14.15361,-6.70954 -14.15361,-14.98616 0,-8.27663 6.33678,-14.98616 14.15361,-14.98616 7.81682,0 14.15361,6.70953 14.15361,14.98616 z" transform="matrix(.24521 0 0 .13433 401.82 -215.18)"/><ellipse fill="#ff0" cx="204.58" cy="348.26" rx="23.254" ry="15.895" d="m 227.83175,348.26199 c 0,8.7787 -10.41124,15.89524 -23.25414,15.89524 -12.84291,0 -23.25415,-7.11654 -23.25415,-15.89524 0,-8.77869 10.41124,-15.89523 23.25415,-15.89523 12.8429,0 23.25414,7.11654 23.25414,15.89523 z" transform="matrix(.19364 -.07599 .06759 .17273 398.66 -208.06)"/></g><ellipse cx="283.9" cy="333.86" rx="5.828" ry="5.828" stroke-width="1.25" d="m 289.73268,333.85846 c 0,3.21868 -2.60926,5.82794 -5.82796,5.82794 -3.21869,0 -5.82795,-2.60926 -5.82795,-5.82794 0,-3.21868 2.60926,-5.82794 5.82795,-5.82794 3.2187,0 5.82796,2.60926 5.82796,5.82794 z" transform="matrix(.21412 0 0 .18518 411.29 -233.74)"/><path fill="#ff0" stroke="#000" stroke-width="6.56" d="m516.8,260.29c4.425,18.107-6.674,43.083-33.133,52.609-26.775,13.173-46.079,41.831-55.641,88.017-47.244-103.27-23.107-148.28 20.6-160.35 37.377-14.363 60.42-13.371 68.174,19.72z" transform="matrix(.09229 .00089 -.0034 .08482 417.85 -191.49)"/><ellipse cx="198.98" cy="362.39" rx="4.71" ry="4.71" stroke-width="1.25" d="m 203.69458,362.39093 c 0,2.6011 -2.1086,4.7097 -4.7097,4.7097 -2.6011,0 -4.7097,-2.1086 -4.7097,-4.7097 0,-2.6011 2.1086,-4.7097 4.7097,-4.7097 2.6011,0 4.7097,2.1086 4.7097,4.7097 z" transform="matrix(.18697 -.01313 .01399 .19143 418.69 -234.98)"/></g></g></g></svg>