<svg xmlns="http://www.w3.org/2000/svg" viewBox="0 0 640 480" xmlns:xlink="http://www.w3.org/1999/xlink"><defs><path id="0" d="m4.799 403.83l23.793 196.9h3.821l-23.793-196.9h-3.821"/><path id="1" d="m421.37-20.327c0 18.13-4.567 31.716-11.328 45.31-5.627-18.12-9.06-27.18-9.06-45.31s6.832-35.11 12.459-48.707c2.23 12.46 7.93 30.574 7.93 48.707z"/><path id="2" d="m454.22-169.28c0 4.066-3.803 7.363-8.495 7.363s-8.495-3.296-8.495-7.363 3.803-7.363 8.495-7.363 8.495 3.296 8.495 7.363z"/><path id="3" d="m4.799 403.83l-7.337 229.84h3.821l7.337-229.84h-3.821"/><path id="4" d="m478.35 60.24v88.58l17.717 88.58 17.717-88.58v-88.58h-35.434z"/><path id="5" d="m422.53 136.96c0 2.068-1.958 3.746-4.371 3.746-2.412 0-4.371-1.678-4.371-3.746s1.959-3.747 4.371-3.747c2.413 0 4.371 1.679 4.371 3.747zm-6.244 7.909c0 35.801 20.917 187.81 22.582 191.56.139 4.44-4.718 6.383-7.08.833-6.551-17.342-20.744-159.91-21.333-193.22-.244-13.734 3.761-14.801 8.326-14.57 3.759.209 8.325 3.725 8.325 7.909 0 4.996-5.828 8.742-10.823 7.493z" fill="#e10000"/><path id="6" d="m422.53 136.96c0 2.068-1.958 3.746-4.371 3.746-2.412 0-4.371-1.678-4.371-3.746s1.959-3.747 4.371-3.747c2.413 0 4.371 1.679 4.371 3.747zm-6.244 7.909c31.488 61.41 48.722 166.77 50.39 170.52.139 4.44-4.718 6.383-7.08.833-2.479-3.315-12.667-100.18-49.14-172.18-.244-13.734 3.761-14.801 8.326-14.57 3.759.209 8.325 3.725 8.325 7.909 0 4.996-5.828 8.742-10.823 7.493z" fill="#0000c4"/><path id="7" d="m428.17-16.928s81.56 90.62 111.01 154.05c29.451 63.43 54.37 156.32 54.37 156.32s2.265-86.09-36.25-163.11c-52.1-97.42-131.4-142.73-129.13-147.26z"/><path id="8" d="m425.2 60.24v124.02h17.716v-124.02h-17.716z"/><path id="9" d="m423.23 60.24l137.8 124.02h19.686l-137.8-124.02h-19.686z"/></defs><g fill-rule="evenodd"><g stroke-width="1.25" transform="scale(1.25.9375)"><path fill="#ffe800" d="m0 0h512v512h-512z"/><path fill="#00148e" d="m0 256h512v256h-512z"/><path fill="#da0010" d="m0 384h512v128h-512z"/></g><g transform="matrix(-.58397 0 0 .61671 609.69 13.317)"><g stroke-width="1.25"><use transform="matrix(.57212-.69718.56072.71411 353.28 164.96)" xlink:href="#0"/><use transform="matrix(.74475-.66734.72991.68354 197.73 197.43)" xlink:href="#3"/></g><g fill="#808080" stroke="#000" stroke-width="4.104"><path d="m478.35 60.24v88.58l17.717 88.58 17.717-88.58v-88.58h-35.434z" transform="matrix(.11739-.11008.15205.14618 590.2 674.92)"/><use transform="matrix(.11739-.11008.15205.14618 632.05 611.64)" xlink:href="#4"/></g></g><g stroke-width="1.25" transform="matrix(.58397 0 0 .61671 9.631-10.178)"><g stroke="#000"><path fill="#ffdf00" d="m301.18 272.84s-17.716 336.61 53.15 336.61 106.3-35.433 106.3-35.433l-.86-185.03-158.59-116.15z" transform="matrix(.76821 0 0 1.0447 107.43-80.4)"/><path fill="#0000c4" d="m344.46 304.2c-.0001 17.717-7.846 269.82 27.587 269.82s88.58-17.717 88.58-17.717l-.86-167.31-115.31-84.79z" transform="matrix(.76821 0 0 1.0447 107.43-80.4)" id="B"/><path fill="#e10000" d="m367.52 321.16c-.0001 17.717 4.525 217.42 39.958 217.42h53.15l-.859-149.59-92.25-67.833z" transform="matrix(.76821 0 0 1.0447 107.43-80.4)" id="C"/></g><use transform="matrix(.57212-.69718.56072.71411 107.43-80.4)" xlink:href="#0"/><path fill="#ffdf00" stroke="#000" d="m301.18 272.84s-35.433 336.61 70.866 336.61c88.58 0 88.58-53.15 106.3-53.15l-17.72-124.02-159.45-159.44z"/></g></g><g stroke="#000" transform="matrix(.30143-.16765.12757.25241 127.83 224.29)"><path fill="none" stroke-width="2.305" d="m269.59 155.24c1.133 0 28.318-94.02 118.94-147.25" transform="matrix(1.0328.5788-.58895.99892 119.61-225.32)"/><g fill-rule="evenodd" stroke-width="1.25"><use fill="#005b00" transform="matrix(.64661-.44175.57085.93288 81.14 184.9)" xlink:href="#1"/><path fill="#f00" d="m454.22-169.28c0 4.066-3.803 7.363-8.495 7.363s-8.495-3.296-8.495-7.363 3.803-7.363 8.495-7.363 8.495 3.296 8.495 7.363z" transform="matrix(.6 0 0 .6923 86.54 185.79)"/><g fill="#005b00"><use transform="matrix(.30183.67129-.76402.80884 305.07-304.02)" xlink:href="#1"/><use transform="matrix(.49226.20511-.50577.95183 218.44-112.53)" xlink:href="#1"/><use transform="matrix(-.16649.88938-.69968.30034 493.42-380.78)" xlink:href="#1"/><use transform="matrix(.77794-.21907.17683 1.0498 36.13 90.53)" xlink:href="#1"/><use transform="matrix(.85513-.32081.38526 1.0592-55.632 192.12)" xlink:href="#1"/><use transform="matrix(.5396.73688-.91599.65671 107.95-231.91)" xlink:href="#1"/><use transform="matrix(.11804.90567-1.119.13442 289.51-286.85)" xlink:href="#1"/><use transform="matrix(.09502.40764-.5638.27251 477.35-164.9)" xlink:href="#1"/><use transform="matrix(.26965.20212-.4269.39695 400.57-82.11)" xlink:href="#1"/><use transform="matrix(-.21477.43025-.45956.02053 600.54-168.3)" xlink:href="#1"/><use transform="matrix(.0231.46942-.84882.04069 382.72-176.4)" xlink:href="#1"/><use transform="matrix(.04541.9122-1.1262.04472 406.9-340.56)" xlink:href="#1"/></g></g><path fill="none" stroke-width="2.37" d="m269.59 155.24c1.133 0 28.318-94.02 118.94-147.25" transform="matrix(1.1714 0 0 1.1077-46.22-16.719)"/><g fill="#f00" fill-rule="evenodd" stroke-width="1.25"><use transform="matrix(.6 0 0 .69231 187.35 125.75)" xlink:href="#2"/><use transform="matrix(.6 0 0 .69231 223.6 124.62)" xlink:href="#2"/><use transform="matrix(.62069 0 0 .52 89.95 93.05)" xlink:href="#2"/><use transform="matrix(.62069 0 0 .52 99.8 94.23)" xlink:href="#2"/><use transform="matrix(.62069 0 0 .52 91.36 100.12)" xlink:href="#2"/><use transform="matrix(.66667 0 0 .76923 102.7 156.33)" xlink:href="#2"/><use transform="matrix(.66667 0 0 .76923 111.76 152.93)" xlink:href="#2"/><use transform="matrix(.66667 0 0 .76923 111.76 157.46)" xlink:href="#2"/></g></g><g fill-rule="evenodd"><g stroke-width="1.25" transform="matrix(.58397 0 0 .61671 9.631-10.178)"><g stroke="#000"><path fill="#0000c4" d="m336.61 308.27c-.0001 17.717-35.433 212.6 53.15 265.75 35.433 17.716 88.58-17.717 88.58 0l-17.71-141.74-124.02-124.01z" id="D"/><path fill="#e10000" d="m372.05,343.7c-.001,17.717-17.716,159.45 35.433,194.88 35.433,35.433 124.02,25.822 124.02,25.822l-70.87-132.12-88.58-88.58z" id="E"/></g><path d="m4.799 403.83l-7.337 229.84h3.821l7.337-229.84h-3.821" transform="matrix(.74475-.66734.72991.68354 0 0)"/><g stroke="#000"><g fill="#cececc"><path d="m460.63 184.25l17.716 35.433v17.717c-.865-1.305 0 17.716-17.716 17.716-17.717 0-17.717-35.433-17.717-35.433s-17.716 35.433-17.716 70.866 17.716 53.15 17.716 53.15-2.611-36.703 17.717-35.433c20.328 1.271 17.716 17.716 17.716 17.716v35.433h17.717v-141.73l17.717-35.433-27.14-53.15-26.01 53.15z" transform="matrix(.23199-.22936.17842.17687 131.38 328.08)" id="G"/><path d="m557.82 95.67l-26.323 70.866 17.717 53.15-35.433-17.716 35.433 53.15v35.433h17.716v-35.433l35.433-53.15-35.433 17.716 17.717-53.15-26.827-70.866z" transform="matrix(.17862-.25938.23884.15008 178.7 314.58)" id="H"/></g><use transform="matrix(.68641 0 0 .50303 58.43 129.68)" xlink:href="#5"/><path fill="#0000c4" d="m422.53 136.96c0 2.068-1.958 3.746-4.371 3.746-2.412 0-4.371-1.678-4.371-3.746s1.959-3.747 4.371-3.747c2.413 0 4.371 1.679 4.371 3.747zm-6.244 7.909c31.488 61.41 48.722 166.77 50.39 170.52.139 4.44-4.718 6.383-7.08.833-2.479-3.315-12.667-100.18-49.14-172.18-.244-13.734 3.761-14.801 8.326-14.57 3.759.209 8.325 3.725 8.325 7.909 0 4.996-5.828 8.742-10.823 7.493z" transform="matrix(.64753.14728-.2581.47453 113.74 78.38)"/><use transform="matrix(.87712 0 0 .81837-58.63 151.18)" xlink:href="#5"/><use transform="matrix(.82744.23961-.3298.77201 12.05 67.7)" xlink:href="#6"/></g></g><g transform="matrix(.58397 0 0 .61671 30.32 13.317)"><g stroke-width="1.25"><use transform="matrix(.57212-.69718.56072.71411 353.28 164.96)" xlink:href="#0"/><use transform="matrix(.74475-.66734.72991.68354 197.73 197.43)" xlink:href="#3"/></g><g fill="#808080" stroke="#000" stroke-width="4.104"><use transform="matrix(.11739-.11008.15205.14618 590.2 674.92)" xlink:href="#4"/><use transform="matrix(.11739-.11008.15205.14618 632.05 611.64)" xlink:href="#4"/></g></g><g stroke-width="1.25"><g transform="matrix(.58397 0 0 .61671 9.631-10.178)"><g stroke="#000"><path fill="#ffdf00" d="m301.18 272.84s-17.716 336.61 53.15 336.61 106.3-35.433 106.3-35.433l-.86-185.03-158.59-116.15z" transform="matrix(-.76821 0 0 1.0447 955.56-80.4)"/><g transform="matrix(-1 0 0 1 1062.99 0)"><use xlink:href="#B"/><use xlink:href="#C"/></g></g><use transform="matrix(-.57212-.69718-.56072.71411 955.56-80.4)" xlink:href="#0"/></g><g fill="#005b00" stroke="#000" transform="matrix(.30617-.13788.09866.42789 221.47 250.77)"><path d="m428.17-16.928s81.56 90.62 111.01 154.05c29.451 63.43 54.37 156.32 54.37 156.32s2.265-86.09-36.25-163.11c-52.1-97.42-131.4-142.73-129.13-147.26z" transform="matrix(.53445 0 0 .82343 287.66-.293)"/><use transform="matrix(.61528.07875-.06176.89037 253.7-77.63)" xlink:href="#7"/><use transform="matrix(.58869.51998-.35619.81397 345.67-312.47)" xlink:href="#7"/><use transform="matrix(.7072.29774-.25186.94875 249.31-237.18)" xlink:href="#7"/><use transform="matrix(.42062.52704-.35125.71621 446.49-285.66)" xlink:href="#7"/><use transform="matrix(.66899.21888-.17326.88554 249.21-174.23)" xlink:href="#7"/><use transform="matrix(.63368.03827-.06552.87865 239.97-48.721)" xlink:href="#7"/><use transform="matrix(.60862.11977-.12124.88424 268.02-109.93)" xlink:href="#7"/><use transform="matrix(.55418.53394-.40735.75026 373.79-312.51)" xlink:href="#7"/><use transform="matrix(.68567.34443-.31483.92976 274.32-269.42)" xlink:href="#7"/><use transform="matrix(.38774.52048-.39386.64347 470.97-270.71)" xlink:href="#7"/><use transform="matrix(.70076.26126-.25554.87905 246.36-207.5)" xlink:href="#7"/></g><g transform="matrix(.58397 0 0 .61671 9.631-10.178)"><g stroke="#000"><path fill="#ffdf00" d="m301.18 272.84s-35.433 336.61 70.866 336.61c88.58 0 88.58-53.15 106.3-53.15l-17.72-124.02-159.45-159.44z" transform="matrix(-1 0 0 1 1063 0)"/><g transform="matrix(-1 0 0 1 1063 0)"><use xlink:href="#D"/><use xlink:href="#E"/></g></g><use transform="matrix(-.74475-.66734-.72991.68354 1063 0)" xlink:href="#3"/><g stroke="#000"><g fill="#cececc"><use transform="matrix(-1 0 0 1 1062.99 0)" xlink:href="#G"/><use transform="matrix(-1 0 0 1 1063 0)" xlink:href="#H"/></g><use transform="matrix(-.68641 0 0 .50303 1004.6 129.68)" xlink:href="#5"/><use transform="matrix(-.64753.14728.2581.47453 949.25 78.38)" xlink:href="#6"/><use transform="matrix(-.87712 0 0 .81837 1121.6 151.18)" xlink:href="#5"/><use transform="matrix(-.82744.23961.3298.77201 1050.9 67.7)" xlink:href="#6"/></g><g stroke="#000"><path fill="#e10000" d="m478.35 698.03c17.717 10.652 37.09 8.268 53.15 0v-141.73h-35.433c17.717 53.15 17.717 106.3-17.717 141.73z"/><g fill="#0000c4"><path d="m513.78 609.45c0 88.58-42.466 108.27-42.466 125.98 17.716 0 29.465-8.248 42.466-19.685 17.716-17.717 19.426-107.68 17.716-106.3h-17.716z" transform="matrix(.60127 0 0 1.125 194.96-129.32)" id="I"/><path d="m478.35 609.45c-.81 51.77-44.794 99.64-36.497 110.24 9.474 9.475 36.497-21.654 71.931-3.937 17.716-17.717 19.426-107.68 17.716-106.3h-53.15z" transform="matrix(.60127 0 0 1.125 194.96-129.32)" id="J"/></g><g fill="#ffdf00"><path d="m513.78 609.45c0 88.58-40.696 94.47-40.696 118.09 17.717 0 40.603-12.912 40.696-11.791 17.716-17.717 19.426-107.68 17.716-106.3h-17.716z" transform="matrix(.60127 0 0 .75003 176.18 99.21)" id="K"/><path d="m478.35 609.45c-.81 51.77-43.73 95.7-35.433 106.3 9.474 9.475 35.433-17.717 70.867 0 17.716-17.717 19.426-107.68 17.716-106.3h-53.15z" transform="matrix(.60127 0 0 .75003 176.18 99.21)" id="L"/></g><path fill="#e10000" d="m478.35 698.03c17.717 10.652 37.09 8.252 53.15-.015v-141.72h-35.433c17.717 53.15 17.717 106.3-17.717 141.73z" transform="matrix(-1 0 0 1 1063 .016)"/><g fill="#0000c4" transform="matrix(-1 0 0 1 1062.99.0001)"><use xlink:href="#I"/><use xlink:href="#J"/></g><g fill="#ffdf00"><use transform="matrix(-1 0 0 1 1063 .016)" xlink:href="#K"/><use transform="matrix(-1 0 0 1 1063 0)" xlink:href="#L"/></g></g></g></g><g stroke="#000" transform="matrix(.58397 0 0 .61671 9.631-10.178)"><path fill="#908f8a" stroke-width="4.467" d="m198.56 77.952l-89.68 35.434 89.68 35.434 44.837-17.717 22.419 17.717 22.419 35.433 22.419-35.433 22.419-17.717 1201.9-.002v-35.434l-1201.9.002-22.419-17.717c0-17.716 4.703-35.433 22.419-35.433 17.717 0 54.24-.002 89.68-.002 0-17.716-44.838-53.15-134.51-53.15-89.68 0-134.51 35.434-134.51 53.15 35.433 0 71.958.002 89.68.002 17.716 0 22.419 17.717 22.419 35.433l-22.44 17.717-44.84-17.716z" transform="matrix(.20636 0 0 .36363 356.48 542.45)"/><g fill="#b74d00" stroke-width="1.723" transform="matrix(.47619 0 0 .44444 353.49 559.05)"><path d="m204.35 95.67h336.61v17.717h-336.61z"/><path d="m204.35 77.955h336.61v17.717h-336.61z"/><path d="m204.35 60.24h336.61v17.717h-336.61z"/><path d="m204.35 42.522h336.61v17.717h-336.61z"/><path d="m204.35 24.805h336.61v17.717h-336.61z"/><path d="m204.35 7.089h336.61v17.717h-336.61z"/><path d="m204.35-10.628h336.61v17.717h-336.61z"/></g><g fill="#908f8a"><g stroke-width="3.255"><use transform="matrix(.42856 0 0 .44444 277.86 527.56)" xlink:href="#9"/><use transform="matrix(.42856 0 0-.44444 277.86 636.22)" xlink:href="#9"/></g><use stroke-width="3.087" transform="matrix(.47621 0 0 .44444 256.75 527.56)" xlink:href="#8"/><g stroke-width="3.255"><use transform="matrix(.42856 0 0 .44444 353.79 527.56)" xlink:href="#9"/><use transform="matrix(.42856 0 0-.44444 353.79 636.22)" xlink:href="#9"/></g><g stroke-width="3.087"><use transform="matrix(.4762 0 0 .44444 391.74 527.56)" xlink:href="#8"/><use transform="matrix(.4762 0 0 .44444 332.68 527.56)" xlink:href="#8"/><use transform="matrix(.47621 0 0 .44444 315.81 527.56)" xlink:href="#8"/></g></g><g fill="#ffdf00" stroke-width="1.25"><path d="m655.51 396.85c0 88.02-55.56 159.45-124.02 159.45-68.46 0-124.02-71.43-124.02-159.45 0-88.01 55.56-159.45 124.02-159.45 68.46 0 124.02 71.43 124.02 159.45zm-17.717.0001c0 78.24-47.622 141.73-106.3 141.73-58.677 0-106.3-63.5-106.3-141.73 0-78.24 47.622-141.73 106.3-141.73 58.677 0 106.3 63.5 106.3 141.73z"/><path d="m579.75 249.94c-14.836-8.07-31.14-12.537-48.26-12.537s-33.422 4.465-48.26 12.537l6.893 16.323c12.716-7.175 26.695-11.144 41.36-11.144s28.648 3.969 41.36 11.144l6.894-16.323z" id="F"/><use transform="matrix(1 0 0-1 .205 793.7)" xlink:href="#F"/></g></g></g><g transform="matrix(.58397 0 0 .61671 9.631-10.178)"><g fill-rule="evenodd"><path fill="#a7cfff" d="m637.8 396.85c0 78.28-47.592 141.73-106.3 141.73-58.707 0-106.3-63.46-106.3-141.73 0-78.28 47.592-141.73 106.3-141.73 58.707 0 106.3 63.46 106.3 141.73"/><g stroke="#000" stroke-width="1.25"><path fill="#afff7b" d="m637.8 396.85c1.133 26.658-4.634 39.635-11.89 67.36-1.912 2.979-10.966-6.537-16.447-11.236s-7.812 4.239-14.537-3.046c-6.725-7.284-11.05 2.058-15.983-4.095s-51.3-7.06-51.37-7.585c4.591-2.276 28.27.152 24.474-11.193-4.3-11.722-31.09-.352-34.692-15.365-2.44-14.907-53.57-15.543-57.22-19.225 1.444 5.664 39.728 8.05 38.814 22.57-.833 5.915-37.693 7.644-41.25 12.651-3.045 6.295 28.927-1.707 30.11 6.03-.078 3.185-4.705.068-21.358 4.99-8.326 2.46 15.454 10.329 6.41 14.637-9.05 4.307-28.26 6.187-27.433 7.997 2.94 8.908 44.693 19.536 40.535 21.06-14.754 6.559-22.552 10.872-29.627 14.652-19.24-25.653-31.15-61.09-31.15-100.2 31.716-11.405 24.968-13.735 83.64-13.735s77.981 2.33 128.95 13.735z"/><path fill="#fff" d="m637.8 396.85c-8.07 0-16.454 3.399-25.07 3.399-8.617 0-17.465-3.398-26.466-3.398s-19.287 4.531-28.512 4.531c-9.224 0-17.388-4.531-26.676-4.531-9.287 0-18.566 3.398-27.755 3.398s-18.289-3.398-27.22-3.398-17.691 3.398-26.2 3.398-16.77-3.399-24.699-3.399c0-19.559 2.976-38.2 8.358-55.15 27.07 2 11.04-15.715 27.07-15.715 8.655 0 17.434 1.859 25.24 9.788 2.447 0 14.479-11.373 27.912-9.788 13.432 1.586 8.492 27.27 26.371 28.637 9.06 6.796 14.392 11.133 26.778 13.871 17.717 1.606 68.35-2.5 68.71-.194 1.417 9.223 2.161 18.772 2.161 28.552z"/><path d="m549.85 473.94c0-5.664 13.512-9.462 13.512-18.524s-11.914-9.349-12.379-17.86c-.2-3.461 10.319-7.05 14.914-7.335s8.493 7.42 8.493 9.119-4.662-4.192-8.578-4.378-12.313.631-12.313 2.33c0 3.399 14.851 7.598 13.718 18.925-1.132 11.327-12.71 14.657-12.71 18.06s5.056 12.86 5.056 12.86-9.713-7.529-9.713-13.192z" transform="matrix(.35108 0 0 .78038 355.49 112.99)"/><path d="m549.85 473.94c0-5.664 13.512-9.462 13.512-18.524s-11.949-9.348-12.379-17.86c-.947-3.962 11.813-6.544 16.408-6.833s9.986 7.921 9.986 9.62-5.409-5.195-9.325-5.381-14.553.631-14.553 2.33c0 3.399 14.851 7.598 13.718 18.925-1.132 11.327-12.71 14.657-12.71 18.06s5.056 12.86 5.056 12.86-9.713-7.529-9.713-13.192z" transform="matrix(-.35108 0 0 .78038 746.95 112.36)"/></g><path d="m555.86 443.24c0 2.212-1.703 4-3.804 4-2.101 0-3.804-1.793-3.804-4s1.703-4 3.804-4c2.101 0 3.804 1.793 3.804 4" transform="matrix(.65465 0 0 .97703 189.79 12.892)"/><g stroke-width="1.25"><path d="m586.7 458.05h.801v31.638h-.801z"/><path d="m593.91 455.65h.801v31.638h-.801z"/><path d="m-376.42 597.92h.8v6.9h-.8z" transform="matrix(.00756-.99997.987.16074 0 0)"/><path fill="#b74d00" stroke="#000" d="m497.26 478.07s26.05 11.328 31.716 18.12c5.664 6.797 3.398 6.796 3.398 6.796l57.769 2.266c0-3.398 10.194-3.399 12.46-11.328 2.265-7.929 2.265-10.194 2.265-10.194l-18.12 5.664 1.132-10.194h-15.858l-2.265 10.195-33.982-1.133 2.266-27.19-6.796 1.133-1.133 26.05c-1.133 0-31.717-7.929-32.849-10.195z" transform="translate(-4.531 1.133)"/><path fill="#fede00" stroke="#fede00" d="m440.53 316.28s37.645-11.214 92.11-10.413 92.11 12.815 91.31 12.815-10.413-18.422-10.413-18.422-38.446-10.412-81.7-11.213c-43.25-.801-80.897 8.01-80.1 8.811l-11.213 18.422z"/><g fill="#38a9f9"><path d="m502.2 301.17h23.23v12.815h-23.23z" transform="matrix(.99983-.01831.01831.99983 0 0)"/><path d="m395.32 373.11l-10.255 11.01 27.822 1.622v-12.815l-17.567.183" transform="matrix(.98485-.17343.17343.98485 0 0)"/><path d="m451.6 332.64h23.23v12.815h-23.23z" transform="matrix(.99655-.08294.08294.99655 0 0)"/><path d="m-578.71 256.52h23.23v12.815h-23.23z" transform="matrix(-.99798-.06347-.06347.99798 0 0)"/><path d="m-662.06 160.45l-11.642 13.5 25.748-.258v-12.815l-14.11-.427" transform="matrix(-.976-.21775-.21775.976 0 0)"/><path d="m-624.16 218.17h23.23v12.815h-23.23z" transform="matrix(-.99179-.12788-.12788.99179 0 0)"/></g><g fill="#ffdf00" stroke="#000"><path d="m532.64,323.49-2.58-13.47-7.54,11.46 2.77-13.43-11.34,7.7 7.7-11.35-13.43,2.78 11.45-7.54-13.47-2.58 13.47-2.58-11.45-7.53 13.43,2.77-7.7-11.35 11.34,7.7-2.77-13.43 7.54,11.46 2.58-13.47 2.57,13.47 7.54-11.46-2.77,13.43 11.35-7.7-7.71,11.35 13.44-2.77-11.46,7.53 13.47,2.58-13.47,2.58 11.46,7.54-13.44-2.78 7.71,11.35-11.35-7.7 2.77,13.43-7.54-11.46z"/><path d="m547.05 293.86c0 9.289-6.634 16.82-14.818 16.82-8.184 0-14.818-7.531-14.818-16.82 0-9.289 6.634-16.82 14.818-16.82 8.184 0 14.818 7.531 14.818 16.82z" transform="matrix(.97297 0 0 .83333 14.786 51.779)"/></g></g><path d="m533.44 291.85c0 1.106-2.152 2-4.806 2s-4.806-.897-4.806-2 2.152-2 4.806-2 4.806.897 4.806 2" transform="matrix(1 0 0 .80001-.801 59.57)"/><path d="m543.85 291.45c0 .885-1.614 1.602-3.604 1.602s-3.604-.717-3.604-1.602c0-.885 1.614-1.602 3.604-1.602s3.604.717 3.604 1.602" transform="translate(-.801 1.602)"/></g><g fill="none" stroke="#000" stroke-width="1.25"><path d="m529.43 297.86l.801.801c-1.902-1.902-.996-1.126 1.602 3.203 2.393-.495 3.091-1.39 4.806-2.403" transform="matrix(.95881-.28405.28405.95881-62.24 163.46)"/><path d="m527.83 304.27l.801.801c-1.902-1.902-1.124-.995 3.204 1.602 4.03.544 8.092-1.196 10.412-4" transform="translate(-1.602)"/></g><g fill="#b7e1ff" fill-rule="evenodd"><path d="m468.56 330.7s1.602 12.815-8.81 28.834c-10.413 16.02-8.811 10.413-8.811 10.413s4.806 8.81 4 8.81-8.01-8.01-8.01-8.01l-8.811 8.81s8.01-13.616 7.209-13.616-2.403-4.806-2.403-4.806l6.407-2.403s9.612-16.82 9.612-16.02-28.835 18.422-28.835 18.422l38.446-30.436"/><path d="m474.97 335.51c-.801 0 4 12.816 8.01 19.223 4 6.408 4 14.418 4 14.418l13.617 6.407-17.621-24.829 11.213 4-19.223-19.223"/><path d="m474.97 369.15s9.611 9.611 10.412 12.815.801 10.412.801 10.412l-4-8.01-5.607 7.208s4-11.213 3.204-12.01-6.408 4-6.408 4 2.403-6.408 2.403-7.209 0-4.806-.801-7.208"/><path d="m426.91 391.57c3.203-2.402 9.611-4 9.611-4s-4 6.407-4.806 6.407-3.203 0-4.805-2.403"/><path d="m537.44 356.33s20.824 12.01 20.824 12.816-13.616-5.607-13.616-5.607l-7.208-7.209"/><path d="m499.8 331.5c1.602.801 30.436 23.23 29.635 23.23s-12.815-6.407-12.815-5.606v5.606l-6.408-12.815-1.602 4.806-8.81-15.218"/><path d="m507 367.54l8.01 15.218 8.01-1.602s-15.218-13.616-16.02-13.616"/><path d="m531.84 357.93c0 2.403.801 14.417.801 14.417s4.806 4 4.806 3.204-4.806-16.82-5.607-17.621"/></g></g><g transform="matrix(.5239 0 0 .6071 36.06-7.733)"><g fill-rule="evenodd"><path fill="#984000" d="m-66.61 93.25s69.1-39.13 147.78-68.27c78.68-29.14 166.93-48.29 178.59-48.29 23.312 0 63.27 59.945 69.936 59.945 6.66 0 33.3-16.651 66.61-16.651s53.28 26.642 59.945 26.642h59.944c6.661 0-19.981-66.61 0-63.27 9.991 1.665 94.91 14.986 174.01 41.21 79.09 26.23 191.37 72.52 191.37 72.52s-183.5 25.08-232.16 17.663c-6.661 3.33-.33 44.05-9.662 26.14-15.332-3.583-71.62-12.563-81.61-12.563s-28.621 11.551-55.26 18.211c-26.642 6.661-59.944 16.652-59.944 16.652l43.29 69.935-53.28 26.642s-33.3-79.926-46.624-79.926-19.981 56.61-36.633 53.28c-16.651-3.33-23.311-53.28-36.633-66.61-13.321-13.321-83.55-18.17-110.2-24.829-26.642-6.661-69.64-11.804-92.95-18.464-23.312-6.661-46.624 16.651-56.62 16.651-9.991 0 13.321-19.982 3.33-23.312s-16.651 9.991-23.312 9.991c-6.66 0-76.6-13.321-83.26-16.651-6.66-3.331 16.651-16.652 9.991-16.652h-26.642z" transform="matrix(.57953 0 0 .48866 318.34 114.63)"/><g stroke="#772600"><path fill="#808080" stroke-width="3.706" d="m462.91-64.94c0 21.15-20.501 38.3-45.791 38.3s-45.791-17.15-45.791-38.3 20.501-38.3 45.791-38.3 45.791 17.15 45.791 38.3z" transform="matrix(.41772 0 0 .43433 373.3 171.72)"/><path fill="#984000" stroke-width="5.25" d="m284.74-59.945c6.661-6.661 14.987-16.651 36.633-16.651 4.996-1.665 4.996-11.656 16.651-11.656 11.656 0 8.326 9.991 16.652 13.321 8.325 3.33 76.6-3.33 76.6-3.33s6.66 4.995 6.66 11.656c0 6.66-4.995 11.656-6.66 11.656s-68.27-4.995-73.27-3.33c-4.995 1.665-8.326 3.33-19.982 3.33-11.655 0-14.986-11.656-23.311-11.656-8.326 0-16.652-1.665-29.973 6.66z" transform="matrix(.52215 0 0 .52577 323.22 178.53)"/></g></g><g fill="none" transform="matrix(.52215 0 0 .52577 323.22 185.53)"><g stroke="#772600" stroke-width="3.5"><path d="m487.88-76.6h26.642c9.572.114 12.873 3.01 21.647 3.33h23.312c8.475-.314 12.951-2.295 21.647-3.33 14.504-.175 9.555-1.305 6.66-9.991-2.625-6.564-2.949-9.61-6.66-13.321-1.396-7.945-4.655-10.772-4.996-19.982-1.527-7.03-4.342-11.752-1.665-19.982 3.84 5.647 5.387 7.97 14.986 8.326 10.04 0 13.937-.206 19.982 3.33 4.663 4.891 10.886 3.331 19.982 3.331 7.677 1.405 8.96 5.312 14.986 8.325 7.103 3.936 11.694 4.996 21.646 4.996 7.968 1.422 14.88 2.578 19.982 4.995 4.25 5.08 10.951 6.338 19.982 6.66 5.05 0 8.949-.525 13.321-1.665 7.677.369 15.473 0 24.977 0 6.162 7.209 7.586 9.862 18.316 9.991 7.338 5.154 13.527 6.04 19.982 8.326h24.977c8.928.687 11.789 4.35 19.981 6.661 8.114 3.767 15.721 6.35 21.647 8.326 5.891 1.281 13.574 1.665 21.646 1.665 6.183 3.175 13.609 3.459 18.317 6.661 6.89 1.477 16.302 3.214 21.647 4.995 8.816 1.168 12.187 3.942 19.981 4.995 6.703 1.915-2.224 3.56-6.66 4.995-9.827-.364-10.537-3.946-19.982-4.995-5.02-2.938-12.639-2.548-19.981-4.995h-1.666c6.6 3.904 12.948 6.422 9.991 13.321-8.492 0-15.367-1.098-23.312-1.665-8.384-1.616-12.226-3.33-21.646-3.33 9.395-2.264 11.855.27 18.316 3.33 2.396 8.06-2.725 4.995-11.656 4.995-7.608-2.731-12.173-5.984-21.647-6.66h-19.981c9.89.366 11.977 4.099 18.316 8.326.518 2.59-.132 2.472-4.995 3.33-5.16-4.478-11.889-6.01-19.982-8.326-7.879-.282-16.217-.965-23.311-3.33-4.867-.304-4.116-6.178 6.66 3.33 6.533 3.843 8.833 6.946 8.326 9.991-8.576-2.144-12.825-5.58-18.317-8.326-7.736-2.855-14.13-3.33-23.312-3.33-8.609-2.266.894-3.573 6.661 4.995 12.379 8.768-1.633 5.01-6.661 3.33-7.507-2.145-15.284-5.185-21.646-6.66-5.05-1.442-9.441-2.855-14.986-3.33 8.631.785 11.571 3.823 14.986 9.991 8.755 6.03-.384 3.101-8.326 1.665-5.071-4.401-11.487-6.658-14.986-11.656-8.351-4.175-8.563-8.982-3.33 1.665 1.363 3.407 1.111 10.795 1.665 11.656-6.136-6.626-4.825-8.326-11.656-8.326-4.634-3.244-11.496-5.766-14.986-9.991-6.436-.603-6.842-2.899-13.321-4.995 5.341 6.274 12.389 12.479 16.651 18.316 7.597 4.242 9.7 8.06 14.986 11.656 2.14 3.638 7.904 6.656 1.665 1.665-7.144-7.04-12.46-8.67-23.312-13.321-6.149-4.959-8.37-7.04-14.986-11.656-9-2.904-5.508-4.543 0 4.995 6.318 5.769 11.169 12.23 16.652 16.651 3.767 4.907 10.136 10.118 14.986 13.321 1.501 2.252 5.991 2.665 0 3.33-5.091-4.598-12.398-7.531-18.317-11.656-8.302-2.342-12.191-6.653-18.316-11.656-3.9-5.85-10.382-10.381-14.986-14.986-9.631-3.769 1.899 3.637 4.995 8.326 2.153 6.069 4.788 11.04 6.661 16.651 2.78 5.561-8.47-1.327-11.656-3.33-7.321-4.157-12.674-6.937-21.647-8.326-5.98-1.3-13.602-2.468-19.982-3.33-7.614-2.05 4.04 4.801 8.326 11.656 8.418 7.908-8.332 1.425-13.321 0-8.223-1.645-16.287-1.665-24.977-1.665-10.67.628-3.05 1.946 0 6.66 3.287 2.528 5.637 7.854 4.995 9.991-7.03-.95-13.02-3.02-21.646-3.33-6.962 2.321-15.345 1.665-23.312 1.665-.381 4.191 1.444.655 4.995 4.995 5.763 2.341 9.585 5.178 8.326 8.326h-23.312-24.977c-5.29 1.448 1.14.704 5 6.664-2.161 5.402-4.95 3.33-11.656 3.33-4.545-1.818-13.598-2.636-18.317-4.995-4.689 0-4.336-1.222-8.325-1.665 14.04 9.928 7.07 7.45 14.986 14.986 1.367.456 4.524 1.665 1.665 1.665"/><path d="m371.32 73.27c-.997 0-3.199-5.375-6.66-9.991-2.327-6.05-5.392-2.588-8.326-11.656.348-9.402.684-11.09 0-19.982-6.863-4.783-9.714-6.271-14.986-14.986-8.46-7.079 1.236-19.06 2.845-27.849-7.375-1.639-11 11.476-22.341 16.193-8.155 5.492-.911-11.354-4.891-21.19-2.775-13.872-10.826 6.956-13.911 12.862-5.467 3.717-7.128 8.541-14.986 1.665 0-5.145 4.937-19.489 2.845-22.279-7.814 3.814-18.09 15.49-26.16 17.283-8.131-1.768 1.769-14.828 1.769-24.518-2.937-.979-14.695 25.756-19.519 26-4.824.247-2.713-25.993-4.972-25.428-3.542 4.959-10.649 15.429-15.576 18.948-9.454-1.22 1.398-17.435 2.845-23.427 1.629-7.168-8.904 13.751-14.501 15.1-4.101 3.554-12.237 6.072-14.986 6.661 3.239-6.132 19.08-18.713 17.935-22.279-9.21.341-23.311 12.557-31.26 13.953-5.192 0-12.388 1.758-13.321 1.665.448-7.926 19.418-14.65 22.445-19.465-9.306 1.494-27.19 9.706-32.436 16.14-6.145 1.336-13.943 3.02-19.982 0 .897-7.475 14.856-21.998 17.936-26.758-8.396 3.698-12.642 6.59-21.647 8.326-1.652 1.652-6.524 5.231-4.995 1.665 2.655-6.945 6.675-10.11 9.99-14.986-7.45 1.364-10.28 5.634-18.316 9.991-5.094.222-19.646 14.854-24.596 15.1-11.449 8.382-16.01 9.807-28.31 13.321-7.587 1.355-11.259 2.934-14.986 6.661 3.796-6.688 9.597-13.09 14.986-16.651 3.677-5.567 7.121-10.195 14.986-13.321 1.897-2.318 7.188-2.905 1.665-3.33-4.746 4.237-12.696 8.966-16.651 11.656-5.102 3.207-11.01 6.481-13.321 4.996 2.617-7.198 7.436-8.902 11.656-14.986 8.809-5.606.042-1.915-6.66 0-4.337 3.866-12.12 6.726-18.316 9.991-7.114 1.856-11.704 6.132-19.982 8.326 0 2.375 2.365-4.248 3.33-6.66 6.831-7.409 8.657-9.476 16.651-11.656 1.912-2.867 4.419-1.665-1.665-1.665-4.514 4.02-10.811 6.212-16.651 9.991-5.891 1.281-13.574 1.665-21.647 1.665-10.355 1.243-9.46 2.025 0-3.33 5.357-5.04 9.769-3.775 9.991-9.991-6.255 4.532-13.869 7.86-21.647 11.656-6.434.189-8.134 1.665-14.986 1.665 3.298-3.416 5.277-7.634 9.991-9.991 6.896-7.662-4.377-1.477-6.66 0h-24.977c-4.465 5.582-.229.051 3.33-3.33 4.306-2.239 8.756-5.154 8.326-6.661-4.972 4.315-10.726 6.298-14.986 9.991-4.639 1.392-9.991 2.084-9.991 3.33 3.627-5.346 9.525-8.576 13.321-13.321 5.612-1.22 10.396-2.935 11.656-4.995h-23.312 16.651c8.399 0 15.628-.751 23.312-1.665 13.263-2.211-1.159-3.33-8.326-3.33-1.39-2.548 4.112-3.988 9.991-4.996 5.02-2.38 11.233-4.493 16.651-6.66 5.256-1.433 12.706-5.809 13.321-6.66-5.02.264-4.975 1.401-9.991 1.665 7.447-.573 12.8-1.665 21.647-1.665 8.03-2.58 14.906-5.411 21.647-8.326 2.936-3.589 4.239-3.33-3.33-3.33 6.713-2.158 16.238-3.193 21.647-4.995 7.872-1.687 14.899-4.253 19.982-6.661 4.876-3.315 7.689-7.175 13.321-9.99 6.527 4.438 6.601 4.995 18.317 4.995 9.409-.112 15.171-2.373 19.981-6.661 7.207-1.965 8.482-5.429 16.651-6.66 7.444 1.329 15.03 1.665 23.312 1.665 8.096-2.12 15.677-6.01 21.647-9.991 5.093-2.502 11.139-6.121 16.651-8.326 6.07 3.133 10.843 5.651 18.317 6.661 7.727-1.149 11.746-4.869 18.316-6.661 3.577-4.329 8.777-6.632 14.986-8.325 9.671-4.748 8.913 1.574 13.321 6.66 4.895 5.133 11.373 2.681 18.317 4.996 3.83 5.893 6.646 9.914 11.656 13.321 3.889 4.708 8.508 6.03 16.651 6.66 2.967 3.957.601 6.811 6.661 8.326 2.388 2.529 6.518 3.606 9.99 4.995"/></g><path stroke="#782600" stroke-width="3.125" d="m468.74 30.803v.833c0-2.327-.103-1.091 1.665 3.33.595 3.641-.809 3.219-2.498 5.828-.286 3.723-.832 6.4-.832 10.823-.537 3.612-2.571 7.04-4.163 9.991-1.604 3.132-8.555 4.869-8.326 9.158-3.99 1.14-4.084-1.444-4.162-5.828-2.386-2.727-3.212-6.467-4.996-9.991-1.108-3.476-3.469-6.03-4.995-9.991-2.459-3.786-4.546-4.875-6.661-9.158-.826-2.066-.682-4.618-2.497-5.828-2.72-3.438-4.489-3.99-9.159-4.163-3.592.845-4.971 2.416-8.325 3.33-2.57.857-7.57.581-10.824 1.665-.808 1.314 1.6 1.941 2.498 4.995-2.135 1.764-2.926 4.883-4.163 7.493-1.965 2.486-3.283 3.705-4.163 7.493 1.363 2.316.201 5.386-1.665 7.493-.574 3.864-2.434 5.873-3.33 9.158-2.686 1.826-3.652 3.538-5.828 6.66-1.914 2.679-3.636 2.498-8.326 2.498-3.667-1-4.181-2.988-7.493-4.163-.352-1.056-.608-1.313-1.665-1.665"/></g><g fill="#812e00" fill-rule="evenodd"><path d="m369.66 93.25s-1.665 22.48-13.321 37.466-35.801 32.47-35.801 32.47 32.47-19.15 35.8-14.986c3.331 4.163-20.814 37.465-20.814 37.465s31.638-34.968 35.801-34.968 13.321 34.13 16.651 33.3c3.33-.833-7.493-43.29-5.828-49.954 1.665-6.661 0-42.46 0-42.46l-12.488 1.665" transform="matrix(.52215 0 0 .36307 325.39 185.66)" id="A"/><use transform="matrix(1 0 0 1.06894 39.12-16.239)" xlink:href="#A"/><path d="m502.76 139.27c0 1.626-1.845 2.944-4.121 2.944s-4.121-1.318-4.121-2.944 1.845-2.944 4.121-2.944 4.121 1.318 4.121 2.944"/></g></g></svg>