<svg xmlns="http://www.w3.org/2000/svg" viewBox="0 0 640 480"><defs><clipPath id="0"><path d="m-158.67 0h682.67v512h-682.67z"/></clipPath></defs><g fill-rule="evenodd" clip-path="url(#0)" transform="matrix(.9375 0 0 .9375 148.75 0)"><g stroke-width="1.25"><path d="m-180 0h1024v256h-1024z"/><path fill="#107b00" d="m-180 256h1024v256h-1024z"/><path fill="#fff" d="m-180 169.31h1024v176.13h-1024z"/></g><path fill="#f0f" d="m309.98 195.55c-45.2-19.423-84.11 20.644-84.06 58.09.046 39.16 38.02 80.919 86.17 62.43-34.09-10.04-48.16-35.22-48.15-60.68-.246-25.22 15.886-54.54 46.04-59.836"/><path fill="#ff1800" stroke-width="1.25" d="m331.88,176.56-15.91-11.32-15.72,11.73 5.85-18.63-16.01-11.32 19.52-.2 5.83-18.72 6.22,18.5 19.6-.24-15.68,11.63z" transform="matrix(1.6383.0203-.0203 1.6383-176.99-1.781)"/><g fill="#f00"><path d="m314.34 315.65c-50.52 17.536-88.55-20.48-89.22-59.46-.66-38.976 37.59-79.17 89.47-60.865-29.355 4.353-50.912 30.08-51.17 59.17-.197 21.994 12.811 53.35 50.912 61.15"/><path d="m-179.98 0l348.61 256.62-348.63 255.38.002-509.38.015-2.622z"/></g></g></svg>