<svg xmlns="http://www.w3.org/2000/svg" viewBox="0 0 640 480"><defs><clipPath id="clipPath8609" clipPathUnits="userSpaceOnUse"><path fill-opacity=".67" d="m-158.67-0h682.67v512h-682.67z"/></clipPath></defs><g fill-rule="evenodd" clip-path="url(#clipPath8609)" transform="matrix(.9375 0 0 .9375 148.75 .00003)"><g stroke-width="1.25"><path d="m-180-0h1024v256h-1024z"/><path fill="#107b00" d="m-180,256h1024v256h-1024z"/><path fill="#fff" d="m-180,169.31h1024v176.13h-1024z"/></g><path fill="#f0f" d="m309.98,195.55c-45.202-19.423-84.107,20.644-84.063,58.085 .0459,39.158 38.021,80.919 86.168,62.431-34.087-10.038-48.156-35.216-48.149-60.68-.2458-25.217 15.886-54.541 46.044-59.836z"/><path fill="#ff1800" stroke-width="1.25" d="m331.88,176.56-15.91-11.32-15.72,11.73 5.85-18.63-16.01-11.32 19.52-.2 5.83-18.72 6.22,18.5 19.6-.24-15.68,11.63z" transform="matrix(1.6383 .0203 -.0203 1.6383 -176.99 -1.7807)"/><g fill="#f00"><path d="m314.34,315.65c-50.517,17.536-88.554-20.48-89.216-59.456-.6603-38.976 37.59-79.167 89.473-60.865-29.355,4.3532-50.912,30.081-51.169,59.169-.1966,21.994 12.811,53.345 50.912,61.152z"/><path d="m-179.98,0 348.61,256.62l-348.63,255.38 .002-509.38 .0148-2.6217z"/></g></g></svg>