<svg xmlns="http://www.w3.org/2000/svg" viewBox="0 0 640 480"><g fill-rule="evenodd"><g transform="matrix(1.0821 0 0 .9375 97.39 0)"><path fill="#be0027" stroke-width="1.25" d="m-90 0h591.45v512h-591.45z"/><path fill="#b4d7f4" d="m-90 512l591.45-.32-.03-255.68-591.42 256"/><path fill="#239e46" d="m-90 0l591.45.321-.03 255.68-591.42-256"/></g><path fill="#f3e295" d="m186.23 360.4c-10.713 2.958-16.854 11.269-16.697 19.11l52.731-.212c.474-8.426-6.458-16.219-17.01-19.288 51.628-1.067 96.48-20.405 104.63-32.814-8.07-3.5-17.391 2.133-24.04.837 15.784-7.295 63.07-37.903 55.38-70.72-5.976 18.226-24.08 33.31-31.791 37.35 17.665-26.823 41.786-54.749 20.859-76.37 1.057 12.533-7.964 26.327-11.949 27.364 10.247-28.341 20.02-63.926-2.178-87.38 2.916 8.479 1.738 32.396-2.276 33.471-1.236-19.272-4.525-59.808-24.821-59.23 6.446 5.738 9.267 21.401 9.41 37.22-4.625-10.838-9.882-18.998-21.12-27-9.1-17.443-25.279-31.896-41.464-42.25 1.817 12.697 3.321 22.714 21.05 35.883-9.243-.575-18.484-18.1-28.362-18.582-7.858-.379-14.02 7.12-26.864 2.805 1.422 4.238 7.412 6.115 8.676 9.251-2.75 1.899-9.279-.296-14.707-3.123 7.466 10.17 19.04 16.15 28.858 14.13 11.681-2.246 24.2-1.059 36.15 5.738-3.051 1.567-14.925 1.557-22.545.603 6.926 7.01 11.572 11.66 23.615 11.584 10.757-.071 16.397-5.738 19.16-2.228 6.747 7.995 11.287 15.985 16.931 25.398-12.467 1.377-8.709-14.1-22.593-22.02-7.801 16.15 8.973 35.29 20.391 43.24.153 12.136 1.928 22.29 7.08 31.531 3.47 6.515 7.956 13.183 6.265 27.886-6.835-4.978-13.515-21.768-11.06-35.1-8.555 2.333-11.9 17.377-7.868 24.95 3.01 5.765 5.02 16.798 1.548 21.73-3.385 4.595-3.74 4.081-3.696 13.943.121 5.902-3.176 12.88-8.545 17.746 1.121-4.158 2.399-11.312 1.157-15.784-4.244 7.2-14.893 14.651-18.246 22.391-3.293 7.759-4.127 21.2-20.06 24.297-20.5 4.069-27.575 7.622-40.766 13.02-1.464-10.02 2.918-30.912 11.295-29.721 8.18 1.456 32.981-8.545 24.11-29.438-1.752 6.585-7.597 13.01-13.917 13.296 6.827-8.858 19.01-18.03 13.08-32.872-3.299 6.309-8.487 13.88-16.354 18.14 8.434-16.16.98-20.998-9.04-7.686-3.783 5.136-6.067 15.427-8.471 28.497-3.934-10.63-3.674-24.623-8.335-35.985-4.869-12.287 6.462-15.532 11.796-14.546 13.06 3.486 34.88 3.484 33.26-18.09-5.64 7.297-15.53 9.551-26.21 6.924 11.995-8.759 21.466-25.23 8.1-33.836-.446 9.122-7.505 19.349-16.929 24.06-2.206-7.696-2.206-15.864-.315-24.819-5.263 5.539-9.106 17.06-12.162 30.17-.23-12.951 2.22-22.282 4.04-29.25 2.754-10.176 9.6-3.555 20.08-2.805 10.09.573 23.986-5 21.331-18.689-3.446 5.414-10.519 7.521-17.746 6.948 8.7-5.271 23.859-14.637 15.546-29.04-3.492 5.456-4.623 10.124-14.731 11.798 2.647-6.089 3.087-14.699 10.933-18.11-13.995-2.787-22.01 6.398-26.08 20.782-1.651-9.973-3.617-13.644-4.01-20.94 7.565-8.402 8.358-24.839-8.02-28.515-.972 8.479-.684 10.499 1.18 17.403-7.688-4.567-18.524-7.087-25.738-.629 4.888 5.275 12.453 9.918 24.11 4.166-2.754 9.01-9.918 7.469-19.762 4.03 6.02 11.302 13.61 13.31 21.99 12.01 4.387 11.568 4.581 20.357-8.241 37.2.593-10.469-.151-18.268-8.469-26.732-7.128-6.981-12.921.298-1.782 15.818-6.757-4.976-14.405-15.08-16.707-25.17-2.228 12.475-.222 27.18 6.684 35.421-3.266 3.49-6.981-.371-12.475-8.91 2.079 27.327 13.737 32.6 29.406 26.509.446 14.999.446 28.888 1.337 47.01-9.136-13.14-20.718-22.946-27.18-25.396-2 7.351 5.571 16.929 9.803 22.276-6.46-1.337-20.496-12.03-20.496-12.03-1.411 12.179 14.334 23.466 24.506 28.515-11.955-.52-17.23-5.05-24.952-12.475.149 33.788 36.608 27.92 43.44 22.722.891 16.635 2.161 35.864 3.053 52.5-10.307-1.799-9.497-4.898-18.316-5.714-24.478-.954-43.895-29.384-50.33-50.3-1.845 3.442-.381 7.04-2.069 11.271-3.974-10.265-9.05-23.522-15.86-29.692 1.734 5.984 1.918 12.07 1.315 23.25-2.337-7.247-4.511-9.469-4.668-17.976.149-6.531 6.301-11.35 5.96-20.536-.252-6.706-6.37-21.242-7.269-32.495-2.962 11.582-4.821 23.791-9.358 30.961 2.254-12.368 1.532-20.903 5.345-29.23 4.406-8.763 8.152-16.586 5.218-25.43-2.813 3.416-1.845 6.519-8.912 14.818-1.535-9.03 9.138-23.47 19.496-29.28 7.305-3.849 16.514-17.617 10.515-27.05-6.87 4.934-9.955 11.6-19.659 22.99 6.922-27.06 24.908-34.14 46.44-34.23 4.765-.022 14.37-1.742 17.07-8.05-6.069 2.343-13.245 2.641-19.631 1.363 4.648-6.823 14.435-5.936 23.555-5.976 7.154-.034 18.322-1 22.837-11.193-8.727 3.781-22.337 4.567-30.906 1.889 13.628-7.06 34.975-7.821 45.924-17.09-12.479-9.313-43.706 2.17-63.43 15.697 5.513-5.04 14.225-13.983 19.03-21.2-10.787-5.172-38.07 25.05-47.47 43.01-8.926 5.04-12.497 12.943-15.963 18.457 4.757-16.07 5.261-27.735 9.229-40.97-30.599 10.533-17.88 67.07-24.536 80.59.783-14.933.149-34.12-5.999-44.01-9.425 7.19-10.185 49.51-1.337 84.74-3.195-9.428-9.226-18.23-11.161-29.705-13.949 25.44 8.177 55.45 26.678 79.16-13.928-7.255-27.7-22.859-36.746-35.941 2.497 45.533 50.05 54.993 57.43 66.18-10.02-4.664-29.17-13.892-37.3-4.222 13.232 3.055 23.786 6.585 32.29 12.16 12.34 15.407 35.707 22.14 76.4 23.847z"/></g></svg>