<svg xmlns="http://www.w3.org/2000/svg" viewBox="0 0 640 480"><defs><clipPath id="clipPath4680" clipPathUnits="userSpaceOnUse"><path fill-opacity=".67" d="m-61.312,0h682.67v512h-682.67z"/></clipPath></defs><g fill-rule="evenodd" stroke-width="1.25" clip-path="url(#clipPath4680)" transform="matrix(.9375 0 0 .9375 57.48 -.00001)"><path fill="#ffc621" d="m-237.99,3.4988h1037.9v498.0002h-1037.9z"/><path fill="#ef2118" d="M -240,342.5 H799.3 V512 H-240 z"/><path fill="#298c08" d="m-237.99,0h1038v180h-1038z"/><ellipse fill="#006bc6" cx="534.22" cy="352.97" rx="199.65" ry="199.65" d="m 733.8736,352.9678 c 0,110.26463 -89.38716,199.65177 -199.6518,199.65177 -110.26464,0 -199.65179,-89.38714 -199.65179,-199.65177 0,-110.26462 89.38715,-199.65176 199.65179,-199.65176 110.26464,0 199.6518,89.38714 199.6518,199.65176 z" transform="matrix(.5392 0 0 .5392 -25.807 73.951)"/><path fill="#ffc621" d="m214.25,188.2-6.4322,4.5218 23.494,33.021 6.2666-3.996-23.329-33.546zm29.41,77.942-9.6609-6.7363 3.9923-12.676-48.122,.6719-13.929-10.664 65.691-.708 12.183-36.908 6.5443,14.924-16.699,52.098zm76.522-70.679-6.2542-4.7649-24.378,32.374 5.7032,4.766 24.929-32.375zm-65.412,51.587 3.5027-11.245 13.29-.0243-15.182-45.67 5.9577-16.5 20.524,62.407 38.864,.4605-12.248,10.748-54.709-.1758zm90.672,51.165 2.6146-7.4151-38.295-13.262-2.785,6.8905 38.465,13.786zm-69.179-46.416 11.777-.1192 4.1039,12.641 38.803-28.469 17.532,.6039-53.092,38.693 11.493,37.128-13.989-8.3571-16.629-52.12zm-19.749,102.08 7.8616,.1148 .3634-40.524-7.4189-.4432-.8061,40.853zm21.944-80.365 3.8666,11.125-10.673,7.9182 39.353,27.705 5.0162,16.81-53.597-37.989-31.528,22.728 3.4622-15.923 44.101-32.375zm-103.27,12.986 2.325,7.5111 38.646-12.203-1.8764-7.1919-39.094,11.884zm83.21-4.0198-9.3805,7.1212-10.835-7.696-14.157,45.997-14.431,9.9747 19.525-62.727-31.375-22.94 16.213-1.6386 44.44,31.908z"/></g></svg>