<svg xmlns="http://www.w3.org/2000/svg" viewBox="0 0 640 480"><defs><clipPath id="0"><path d="m-61.31 0h682.67v512h-682.67z"/></clipPath></defs><g fill-rule="evenodd" stroke-width="1.25" clip-path="url(#0)" transform="matrix(.9375 0 0 .9375 57.48 0)"><path fill="#ffc621" d="m-237.99 3.499h1037.9v498h-1037.9z"/><path fill="#ef2118" d="M -240,342.5 H799.3 V512 H-240 z"/><path fill="#298c08" d="m-237.99 0h1038v180h-1038z"/><ellipse fill="#006bc6" cx="534.22" cy="352.97" rx="199.65" ry="199.65" transform="matrix(.5392 0 0 .5392-25.807 73.951)"/><path fill="#ffc621" d="m214.25 188.2l-6.432 4.522 23.494 33.02 6.267-3.996-23.329-33.546m29.411 77.941l-9.661-6.736 3.992-12.676-48.12.672-13.929-10.664 65.69-.708 12.183-36.908 6.544 14.924-16.699 52.1zm76.52-70.68l-6.254-4.765-24.378 32.374 5.703 4.766 24.929-32.375m-65.41 51.587l3.503-11.245 13.29-.024-15.182-45.67 5.958-16.5 20.524 62.41 38.864.46-12.248 10.748-54.709-.176m90.67 51.16l2.615-7.415-38.3-13.262-2.785 6.89 38.465 13.786m-69.18-46.42l11.777-.119 4.104 12.641 38.803-28.469 17.532.604-53.09 38.693 11.493 37.13-13.989-8.357-16.629-52.12zm-19.749 102.08l7.862.115.363-40.524-7.419-.443-.806 40.853m21.944-80.37l3.867 11.125-10.673 7.918 39.35 27.705 5.02 16.81-53.597-37.989-31.528 22.728 3.462-15.923 44.1-32.375zm-103.27 12.986l2.325 7.511 38.646-12.203-1.876-7.192-39.09 11.884m83.21-4.02l-9.381 7.121-10.835-7.696-14.157 45.997-14.431 9.975 19.525-62.727-31.375-22.94 16.213-1.639 44.44 31.908"/></g></svg>