<svg xmlns="http://www.w3.org/2000/svg" viewBox="0 0 640 480"><defs><clipPath id="clipPath3605" clipPathUnits="userSpaceOnUse"><path fill-opacity=".67" d="m-19.451-0h682.67v512h-682.67z"/></clipPath></defs><g fill-rule="evenodd" stroke-width="1.25" clip-path="url(#clipPath3605)" transform="matrix(.9375 0 0 .9375 18.235 0)"><path fill="#fff" d="m-105.62,325.66h249.35v186.34h-249.35z"/><g fill="#0062da"><path d="m143.57-0h149.94v512h-149.94z"/><path d="m-105.62,186.18h897.67v139.64h-897.67z"/></g><g fill="#fff"><path d="m-105.62,.003h249.35v186.34h-249.35z"/><path d="m293.35,325.66h498.7v186.34h-498.7z"/><path d="m293.35,.0015h498.7v186.3405h-498.7z"/><path d="m-105.62,325.66h249.35v186.34h-249.35z"/></g><path fill="#0062da" d="m143.57-0h149.94v512h-149.94z"/><g fill="#fff"><path d="m-105.62,.003h249.35v186.34h-249.35z"/><path d="m293.35,325.66h498.7v186.34h-498.7z"/><path d="m293.35,.0015h498.7v186.3405h-498.7z"/></g></g></svg>