<svg xmlns="http://www.w3.org/2000/svg" viewBox="0 0 640 480" xmlns:xlink="http://www.w3.org/1999/xlink"><defs><path id="0" d="m-3819.3-4447.1v5.78l6.63 1.34-1.82-3.84-4.81-3.28"/><path id="1" d="m692.68 226.06c.3-4.898 4.144-6.405 10.399-4.219.528.301.98-.603.829-.679-10.02-5.274-10.194-16.401 5.857-13.838 2.411.753-2.095 2.164-5.432 2.781-4.52.571-6.077 3.748 2.891 9.55 1.959 1.508 6.329 4.597 6.329 4.597s-1.582 2.788-1.733 2.788c-.15 0-12.207-4.371-15.07-.603-1.809 3.01-1.733 3.165-2.336 7.687-1.055 3.918-1.582 3.466-1.809-.075.075-.603.075-6.03.076-7.989"/></defs><g stroke-width="1.25"><g fill-rule="evenodd"><path fill="#67b1ff" d="m0 0v480h640v-480h-640"/><path fill="#0000b4" d="m0 0h313.47v207.6h-313.47z" transform="scale(1.3763 1.3351)"/></g><g transform="scale(7.19048 9.23903)"><g fill="#fff"><path d="m0 0v3.354l53.29 26.646h6.708v-3.354l-53.29-26.646h-6.708m60 0v3.354l-53.29 26.646h-6.708v-3.354l53.29-26.646h6.708"/><path d="m25 0v30h10v-30h-10m-25 10v10h60v-10h-60"/></g><g fill="#c00"><path d="m0 12v6h60v-6h-60m27-12v30h6v-30h-6"/><path d="m0 30l20-10h4.472l-20 10h-4.472m0-30l20 10h-4.472l-15.528-7.764v-2.236m35.528 10l20-10h4.472l-20 10h-4.472m24.472 20l-20-10h4.472l15.528 7.764v2.236"/></g></g></g><g fill-rule="evenodd"><g stroke-width="1.25" transform="matrix(1.0951 0 0 1.2741-361.45-17.196)"><path fill="#fff" d="m687.5 121.06v125c18.75 87.5 51.562 100 93.75 125 42.19-25 75-37.5 93.75-125v-125h-187.5"/><g fill="#da0000"><path d="m768.75 121.06l.196 242.91 12.5 7.05 12.5-7.249-.196-242.71h-25z"/><path d="m687.5 247.38l9.377 34.05 169.24-.095 8.885-33.952h-187.5z"/><path d="m687.5 121.06h187.5v87.5h-187.5z"/></g></g><g transform="matrix(.28209 0 0 .38777 309.75 297.89)"><g stroke="#000"><path fill="#f6efec" stroke-width=".75" d="m329.315-281.68a23.225,27.989 0 0,1 23.225,27.989 23.225,27.989 0 0,1 -23.225,27.989 23.225,27.989 0 0,1 -23.225-27.989 23.225,27.989 0 0,1 23.225-27.989"/><g fill="#ff0"><path stroke-width=".875" d="m850.4-296.57s47.641-3.573 64.31-22.63c16.675-19.06-11.314-53.596 6.551-57.17 7.146-.596 17.27 1.787 25.01 11.314-1.191-7.145-5.955-11.314-7.741-15.481-6.551-5.957-13.1-5.361-22.63-5.361-6.551 1.192-7.742-1.192-18.46-13.697-5.36-5.955-5.36-20.842-1.192-30.966-12.505 9.528-10.123 22.628-8.932 25.606 2.977 13.1 5.955 16.675 5.955 22.631-3.573-1.787-10.124-17.271-44.07-19.653-33.945-2.382-119.7 23.821-158.41 23.821-38.709 0-94.69-16.08-94.69-16.08s14.292-11.315-2.978-16.08c-17.269-4.764-55.38 16.675-66.1 4.764-7.741-11.315-4.764-8.933-5.955-14.292-2.977 1.786-4.764 8.933-.595 18.461 4.168 9.528 6.55 6.55 5.955 6.55-.596 0-13.697 0-14.888 4.765-1.191 3.572-2.978 7.741 3.573 20.842 2.382-13.1-6.55-14.887 13.1-16.08 19.653-1.191 33.35 7.742 50.02 10.719 16.675 2.978 16.675-7.146 17.27-6.551.596.596 51.21 14.293 97.66 11.315 46.45-2.977 121.49-28.585 156.02-23.23 34.54 5.359 57.17 30.371 57.765 53.596-.595 14.292-15.483 21.438-27.393 23.82-14.292 2.382-47.641 5.956-47.641 5.956l18.461 13.1z" transform="matrix(.87977 0 0 .69778 113.77-89.63)"/><path stroke-width=".5" d="m683.06-248.92c-.596 0-32.754.596-42.28 14.292-9.528 13.697-13.697 26.799-13.1 26.799.595 0 21.438-11.315 21.438-11.315s-15.483 22.629-7.146 42.877c8.337 20.247-22.01 19.06-39.507 19.651-7.742-5.955-32.473-16.08-41.29-17.865-5.507-2.084-16.321-2.353-27.616 10.347-6.653 7.831 9.888-7.37 26.295-6.178 1.774 1.786 2.916 3.574 3.232 7.741-8.742-.595-17.84-10.719-28.559 10.124 10.719-7.146 12.06-6.997 17.493-7.444 7.239-.536 6.309 3.276 6.01 3.276-1.191 0-4.145.595-8.617 4.764-2.382 2.977-8.337 9.528-7.146 9.528s4.752-3.573 10.327-6.551c3.484-2.382 6.793-2.382 17.322.596 57.765 13.696 88.73 3.573 92.3-1.787 1.787-2.381-33.35-69.68 60.15-87.54-1.191-.596-39.3-10.719-39.3-11.315z" transform="matrix(.85464 0 0 1 231.25-38.11)"/><path stroke-width=".625" d="m472.84-212.6c32.753 27.394 253.69-29.18 281.68-48.832 16.08-11.315 44.07-19.652 44.07 19.06 7.146-26.2 7.147-32.753 7.147-32.16.595.596 11.314 10.125 20.843 42.28 2.382-28.586-4.169-45.26-.596-42.878 2.382-2.382 2.382 14.292 21.438 37.517-4.168-18.46-5.359-26.798-5.359-26.798s35.731 34.54 55.978 39.3c20.248 4.764 49.43-9.528 58.36-1.191 8.932 8.338 24.418 23.22 23.818 35.14-.59 11.91-33.35 1.786-36.92 11.314-3.573 9.529 2.382 9.529 2.382 9.529s2.977 7.146 5.36 13.1c1.786-4.169-1.787-13.1 4.764-13.697 4.764.595 4.764 8.337 5.955 12.506 1.389-4.764-.199-14.292 4.169-14.292 4.764-.993 5.359 7.543 8.932 13.1v-13.1c13.698-4.169 25.604-4.764 27.394-13.697 1.78-8.933-20.846-29.18-26.21-42.28-5.356-13.1 4.17-18.461-5.952-25.607-10.123-7.146-48.832 11.315-66.7 4.169-17.866-7.146-10.72-58.36-78.01-69.68-67.29-11.315-249.52 59.55-281.68 62.53-32.16 2.977-71.46-10.124-71.46-10.124l.595 54.787z"/><g stroke-width=".5"><path d="m420.43-263.22s-28.585-37.518-51.81-41.09c-23.23-2.977-45.855 14.293-50.619 11.911-4.764-2.383-6.55.596-9.528 5.955-2.978 5.36.596 8.932.595 8.337 1.191 0 4.169-8.933 5.361-9.528 1.191-.596-5.956 10.72 1.191 11.91 2.382.596 3.573-8.337 6.551-11.911.595.596-4.765 12.507-1.787 13.1 2.977.596 6.551-11.91 11.91-14.888 7.742-5.359 19.06-7.147 33.35-7.146 14.292 4.169 43.47 38.708 46.45 38.11l8.337-4.763z" transform="matrix(.98384.22683.17906-1.2464 64.17-655.73)" id="U"/><use transform="matrix(.98384.20213.14134-.87669 40.863-545.6)" xlink:href="#U"/><path d="m417.46-267.98l-31.562 15.483 23.23 5.956-16.675 19.06 23.821-7.742-1.786 25.607 13.697-16.674 8.932 23.22 9.528-17.27 11.315 19.06 4.764-18.461 13.697 18.461 4.764-25.01 16.675 15.483-2.382-26.2 20.247 6.551-12.506-20.248s22.03-1.191 20.843-1.191-16.674-13.1-30.371-16.674l-76.23.595z"/></g><path stroke-width=".808" d="m417.46-267.98l-31.562 15.483 23.23 5.956-16.675 19.06 23.821-7.742-1.786 25.607 13.697-16.674 8.932 23.22 9.528-17.27 11.315 19.06 4.764-18.461 13.697 18.461 4.764-25.01 16.675 15.483-2.382-26.2 20.247 6.551-12.506-20.248s22.03-1.191 20.843-1.191-16.674-13.1-30.371-16.674l-76.23.595z" transform="matrix(.54756 0 0 .56637 205.56-123.01)"/><path stroke-width=".5" d="m441.87-316.81s-8.932-7.146-12.505 0c-3.574 7.147 7.741 4.169 7.741 5.36s-7.741 9.528-7.741 19.06c0 9.528 5.955 25.607 5.955 27.989s2.382 8.932 10.719 11.314 11.315-7.741 13.1-8.932c1.787-1.191 13.1 1.786 17.27-8.337 4.169-10.124 4.169-28.585 4.169-28.585s7.146 5.359 7.146-5.36-7.742 0-7.742 0 1.191-11.314-17.27-16.674-20.247 5.36-20.843 4.168z" transform="translate(1.191)"/><path stroke-width=".54" d="m441.48-317.31c-2.38-4.827-9.14-23.321-9.14-23.321l16.205 6.943c-5.53-1.374-10.25-2.179-9.654-2.179.595 0 7.146 8.933 7.146 8.933 6.451-.374 12.903 1.774 20.843 3.503 0 0 6.55-7.286 5.955-7.286-.596 0-3.573-1.192-3.573-1.192l14.888-6.83-4.764 9.213h-2.978l-5.955 6.69c6.699 1.261 9.975 2.242 16.525 6.445 5.807-.84 10.72-3.851 13.846-6.129-5.21-1.437-7.592-2.558-6.997-2.558.596 0 21.885 1.121 21.885 1.121s-20.889 12.916-33.09 17.65c-11.289-3.246-39.948-9.216-41.14-11z" transform="matrix(.94169-.01596.03328 1.4162 35.5 137.73)"/></g></g><g stroke-width="1.25"><g transform="matrix(.90427.42695-.99418-.10777 0 0)"><path d="m-1058.93-1416.1a6.8653,3.0767 0 0,1 6.86,3.08 6.8653,3.0767 0 0,1 -6.86,3.07 6.8653,3.0767 0 0,1 -6.87-3.07 6.8653,3.0767 0 0,1 6.87-3.08"/><path d="m-1043.13-1419.6a6.8653,3.0767 0 0,1 6.86,3.08 6.8653,3.0767 0 0,1 -6.86,3.07 6.8653,3.0767 0 0,1 -6.87-3.07 6.8653,3.0767 0 0,1 6.87-3.08"/></g><path d="m-1241.14-1636.5a12.761,5.9698 0 0,1 12.76,5.97 12.761,5.9698 0 0,1 -12.76,5.97 12.761,5.9698 0 0,1 -12.76-5.97 12.761,5.9698 0 0,1 12.76-5.97" transform="matrix(.94659.32243-.99696-.07797 0 0)"/><path d="m-1180.62-1565.8a5.7808,2.6743 0 0,1 5.78,2.67 5.7808,2.6743 0 0,1 -5.78,2.68 5.7808,2.6743 0 0,1 -5.78-2.68 5.7808,2.6743 0 0,1 5.78-2.67" transform="matrix(.93542.35353-.99626-.08645 0 0)"/><path d="m1066.63,734.39a4.9307,2.0464 0 0,1 4.93,2.046 4.9307,2.0464 0 0,1 -4.93,2.047 4.9307,2.0464 0 0,1 -4.93-2.047 4.9307,2.0464 0 0,1 4.93-2.046" transform="matrix(.32908-.9443.13645.99065 0 0)"/></g></g><g stroke="#000"><g transform="matrix(1.0951 0 0 1.2741-361.45-17.196)"><path fill="#ff7300" stroke-width=".375" d="m737.05 319.5c1.663 4.742.814 0-.957 7.344 1.094-2.188 2.656-3.438 3.281-3.437.938 0 1.406 0 3.281 1.406-1.718-2.5-4.687-1.875-4.531-5.625-.156-.859-.999.081-1.074.312z" transform="matrix(1.0471 0 0 1.3894-30.434-120.97)"/><path fill="#b2802e" stroke-width=".103" d="m709.484 717.59a.6845 .5057 0 0 1 .685 .506v17.03a.6845 .5057 0 0 1 -.685 .506 .6845 .5057 0 0 1 -.684 -.506v-17.03a.6845 .5057 0 0 1 .684 -.506" transform="matrix(.81841-.57463.19718.98037 0 0)"/><path fill="#fff" stroke-width=".375" d="m734.06 312.16c.781-.469 6.562-11.09 34.06-9.532-15.625 5.313-25.313 16.563-27.656 17.03-1.719.469-5.469-5.781-6.406-7.499z" transform="matrix(.79486 0 0 .97816 152.8 3.901)"/></g><g fill="#007500" stroke-width=".333" transform="matrix(.08493-.1912.54424.47664 237.72 410.47)"><path d="m-3819.3-4447.1-7.42-2.76 15.13,11.39-2.9-5.35-4.81-3.28z" transform="matrix(3.178-1.5262-3.4237 1.1639-2258.1-426.8)" id="2"/><path d="m-3819.3-4447.1l-5.31.27 12.7 7.59-2.58-4.58-4.81-3.28z" transform="matrix(3.5127-.40025-3.6221-.0218-1862.5-1401.1)" id="3"/><path d="m-3819.9-4447.6l4.64 7.4 4.42 1.26-3.58-4.96-5.48-3.7z" transform="matrix(-2.6372-2.3184 2.3892 2.6793 1392 3285)" id="4"/><path d="m-3821.8-4448.7l17.53 22.4-6.67-12.48-3.47-5.09-7.39-4.83z" transform="matrix(-3.4904-.55765 3.4788.99308 2977.8 2508.4)" id="5"/><path d="m-3822.2-4449.9-12.5-6.51 24.05,18.66-3.81-6.13-7.74-6.02z" transform="matrix(3.2054 1.4696-3.074-1.8856-598.79-2550.3)" id="6"/><path d="m-3823.5-4450.2-5.23-1.22 17.81,13.32-3.56-5.79-9.02-6.31z" transform="matrix(2.2844 2.6564-1.988-2.9799 713.89-2886)" id="7"/><path d="m-3824.7-4451.7-13.4-9.74 24.35,20.96-.74-3.33-10.21-7.89z" transform="matrix(.37924 3.46.05045-3.5644 2504.7-2418.4)" id="8"/><path d="m-3822.2-4449.3l10.6 14.41 1.71-2.6-4.55-6.35-7.76-5.46z" transform="matrix(-1.7431 3.0279 2.1539-2.866 3756.5-963.26)" id="9"/><path d="m-3820.2-4447l15.6 19.25-3.35-7.74-6.53-8.32-5.72-3.19z" transform="matrix(-2.682 2.2681 3.0128-1.9788 3991.9 81.02)" id="A"/><path d="m-3821-4448.7l12.21 17.13-.11-5.25-5.57-6.99-6.53-4.89z" transform="matrix(-3.4114.91629 3.5841-.51526 3749.2 1428)" id="B"/><path d="m-3818.9-4446.9l1.97 4.26 4.24 2.13-1.8-3.38-4.41-3.01z" transform="matrix(2.2975-2.6455-2.6694 2.4095-2265 838.98)" id="C"/><use transform="matrix(1.6877-1.2717-1.8182.96978-807.24-319.88)" xlink:href="#0"/><use transform="matrix(-1.7023-1.4301 1.3594 1.5963 381.49 1860.1)" xlink:href="#0"/><use transform="matrix(1.8936 1.1287-1.795-1.3772 80.7-1592.5)" xlink:href="#0"/><path d="m-3819.3-4447.1l15.68 18.95-10.18-13.71-.69-1.96-4.81-3.28z" transform="matrix(-2.0834.8264 2.2338-.61096 2813.4 659.36)" id="D"/><path d="m-3819.3-4447.1l10.95 13.18-4.32-6.06-1.82-3.84-4.81-3.28z" transform="matrix(-.67839 3.4155 1.1202-3.39 3224-1814.7)" id="E"/><path d="m-3819.3-4447.1l-14.43-12.59 18.26 16.79.98-.92-4.81-3.28z" transform="matrix(2.394 2.5613-2.1114-2.8965 583.34-2880.2)" id="F"/><use transform="matrix(2.2059-1.0764-2.3765.82088-1312.4-235.44)" xlink:href="#0"/></g><path fill="#fff" stroke-width=".375" d="m759.39 305.01c-3.239 1.066-4.827 1.573-6.465 1.782.835.357 2.69.14 4.807.711-1.886.041-5.374 1.48-6.825 1.515 1 .602 4.58.022 5.238.179-1.913.119-4.991 1.601-6.908 1.601-.878.671 4.46-.459 6.602.807-2.215-.114-6.518 1.16-8.85.853 1.778 1.042 4.953-.112 7.601 1.017-.767.084-6.911.772-9.09.445 1.3.651 5.218.543 6.181 1.121-1.622-.212-5.928.689-7.426.331 1.349.972 5.414.424 6.161 1.01-2.657.926-6.683.187-8.535.438 1.242.581 2.267 1.168 3.366 1.712 1.604 1.126 6.61 4.293 9.6 5.244-3.31-.433-4.465-.49-6.604-.665l4.867 5.159c-2.031-1.094-5.611-3.161-7.988-4.228-5.264-2.578-9.06-2.132-12.704-4.314-5.122-4.966-7.966-10.885-8.222-12.464-.257-1.578-.481-4.407-5.153-2.933 4.511-.581 6.405-5.792 6.758-5.583.161.089.578 3.483 1.638 4.853.706.983 6.711 4.348 7.706 4.527 8.944-5.314 16.198-5.967 24.24-3.117z" transform="matrix(1.14668 0 0 1.77023-393.88-169.65)"/><g stroke-width=".25"><g transform="matrix(1.0951 0 0 1.2741-358.42-17.196)"><path fill="#e4cc00" d="m803.761-352.62a1.3908 5.5633 0 0 1 1.391 5.563 1.3908 5.5633 0 0 1 -1.391 5.564 1.3908 5.5633 0 0 1 -1.391 -5.563 1.3908 5.5633 0 0 1 1.391 -5.564" transform="matrix(.71096.70323-.70323.71096 0 0)"/><path fill="#006000" d="m801.33 335.45c-.21-1.173-.347-1.765.245-3.303.864-1.083 1.317-2.043 2.893-3.164 1.709-.563 2.286-.055 4.528-2.134.721-1.37 1.819-2.405 2.445-3.882 1.461-2.177 1.951-3.252 3.119-4.927 1.552-1.741 2.801-3.302 3.709-4.636.969-1.71 1.839-2.767 3.245-4.173.569-1.604 1.789-2.794 3.245-4.172 1.113-2.033 3.247-4.361 4.173-6.03 1.641-1.88 2.283-2.697 3.708-4.636 1.255-.828 3.372-2.644 5.1-3.245 2.359-.989 3.621-1.969 5.173-.464 1.027 1.027 2.873 2.68 1.59 3.9-.675.748-1.78.841-3.054.273-1.309-.848-1.946-3.315-3.709-1.391-1.274 1.455-1.927 2.616-3.709 4.172-.886 1.304-1.525 2.279-2.318 4.173-1.048 1.209-1.914 2.568-2.781 4.636-1.124.928-2.093 2.77-2.782 4.172-1.112 1.166-1.915 2.364-2.782 4.173-1.751 1.677-2.405 3.095-3.709 4.172-.861 1.82-2.217 3.558-3.245 4.636-.812 1.32-1.618 2.695-2.318 4.173-1.475 1.505-1.54 1.83-3.709 4.172-1.806 2.355-1.198 2.071-4.03 4.801-1.548.51-3.103.684-5.03-1.299z" transform="translate(-6.311-1.115)"/><g fill="#e4cc00"><path d="m863.681-20.84a1.3908 5.5633 0 0 1 1.391 5.5633 1.3908 5.5633 0 0 1 -1.391 5.5637 1.3908 5.5633 0 0 1 -1.391 -5.5633 1.3908 5.5633 0 0 1 1.391 -5.5637" transform="matrix(.92608.37732-.37732.92608 0 0)"/><path d="m864.831-48.488a1.3908 5.5633 0 0 1 1.391 5.5633 1.3908 5.5633 0 0 1 -1.391 5.5637 1.3908 5.5633 0 0 1 -1.391 -5.5633 1.3908 5.5633 0 0 1 1.391 -5.5637" transform="matrix(.91331.40726-.40726.91331 0 0)"/><path d="m841.871-224.52a1.3908,5.5633 0 0,1 1.391,5.563v.001a1.3908,5.5633 0 0,1 -1.391,5.563 1.3908,5.5633 0 0,1 -1.391-5.563v-.001a1.3908,5.5633 0 0,1 1.391-5.563" transform="matrix(.81058.58563-.58563.81058 0 0)"/><path d="m774.991-420.33a1.3908 5.5633 0 0 1 1.391 5.563 1.3908 5.5633 0 0 1 -1.391 5.564 1.3908 5.5633 0 0 1 -1.391 -5.563 1.3908 5.5633 0 0 1 1.391 -5.564" transform="matrix(.6491.7607-.7607.6491 0 0)"/><path d="m801.081-363.86a1.3908 5.5633 0 0 1 1.391 5.563 1.3908 5.5633 0 0 1 -1.391 5.564 1.3908 5.5633 0 0 1 -1.391 -5.563 1.3908 5.5633 0 0 1 1.391 -5.564" transform="matrix(.70142.71275-.71275.70142 0 0)"/><g transform="matrix(.81058.58563-.58563.81058 0 0)"><path d="m845.551-224.23a1.3908,5.5633 0 0,1 1.391,5.563v.001a1.3908,5.5633 0 0,1 -1.391,5.563 1.3908,5.5633 0 0,1 -1.391-5.563v-.001a1.3908,5.5633 0 0,1 1.391-5.563"/><path d="m843.681-224.62a1.3908,5.5633 0 0,1 1.391,5.563v.001a1.3908,5.5633 0 0,1 -1.391,5.563 1.3908,5.5633 0 0,1 -1.391-5.563v-.001a1.3908,5.5633 0 0,1 1.391-5.563"/></g></g></g><g fill="#e4cc00" transform="matrix(1.0951 0 0 1.2741-365.33-18.617)"><path d="m840.181-244.57a1.3908,5.5633 0 0,1 1.391,5.563v.001a1.3908,5.5633 0 0,1 -1.391,5.563 1.3908,5.5633 0 0,1 -1.391-5.563v-.001a1.3908,5.5633 0 0,1 1.391-5.563" transform="matrix(.81057.58564-.58564.81057 0 0)" id="G"/><path d="m842.241-244.68a1.3908,5.5633 0 0,1 1.391,5.563v.001a1.3908,5.5633 0 0,1 -1.391,5.563 1.3908,5.5633 0 0,1 -1.391-5.563v-.001a1.3908,5.5633 0 0,1 1.391-5.563" transform="matrix(.81057.58564-.58564.81057 0 0)" id="H"/><path d="m844.391-244.66a1.3908,5.5633 0 0,1 1.391,5.563v.001a1.3908,5.5633 0 0,1 -1.391,5.563 1.3908,5.5633 0 0,1 -1.391-5.563v-.001a1.3908,5.5633 0 0,1 1.391-5.563" transform="matrix(.81057.58564-.58564.81057 0 0)" id="I"/><path d="m846.691-244.7a1.3908,5.5633 0 0,1 1.391,5.563v.001a1.3908,5.5633 0 0,1 -1.391,5.563 1.3908,5.5633 0 0,1 -1.391-5.563v-.001a1.3908,5.5633 0 0,1 1.391-5.563" transform="matrix(.81057.58564-.58564.81057 0 0)" id="J"/><path d="m848.541-244.54a1.3908,5.5633 0 0,1 1.391,5.563v.001a1.3908,5.5633 0 0,1 -1.391,5.563 1.3908,5.5633 0 0,1 -1.391-5.563v-.001a1.3908,5.5633 0 0,1 1.391-5.563" transform="matrix(.81057.58564-.58564.81057 0 0)" id="K"/><path d="m859.231-245.75a1.3908,5.5633 0 0,1 1.391,5.563v.001a1.3908,5.5633 0 0,1 -1.391,5.563 1.3908,5.5633 0 0,1 -1.391-5.563v-.001a1.3908,5.5633 0 0,1 1.391-5.563" transform="matrix(.81057.58564-.58564.81057 0 0)" id="L"/><path d="m857.761-245.32a1.3908,5.5633 0 0,1 1.391,5.563v.001a1.3908,5.5633 0 0,1 -1.391,5.563 1.3908,5.5633 0 0,1 -1.391-5.563v-.001a1.3908,5.5633 0 0,1 1.391-5.563" transform="matrix(.81057.58564-.58564.81057 0 0)" id="M"/><path d="m856.331-245.1a1.3908,5.5633 0 0,1 1.391,5.563v.001a1.3908,5.5633 0 0,1 -1.391,5.563 1.3908,5.5633 0 0,1 -1.391-5.563v-.001a1.3908,5.5633 0 0,1 1.391-5.563" transform="matrix(.81057.58564-.58564.81057 0 0)" id="N"/><path d="m854.221-245.02a1.3908,5.5633 0 0,1 1.391,5.563v.001a1.3908,5.5633 0 0,1 -1.391,5.563 1.3908,5.5633 0 0,1 -1.391-5.563v-.001a1.3908,5.5633 0 0,1 1.391-5.563" transform="matrix(.81057.58564-.58564.81057 0 0)" id="O"/><path d="m852.151-244.68a1.3908,5.5633 0 0,1 1.391,5.563v.001a1.3908,5.5633 0 0,1 -1.391,5.563 1.3908,5.5633 0 0,1 -1.391-5.563v-.001a1.3908,5.5633 0 0,1 1.391-5.563" transform="matrix(.81057.58564-.58564.81057 0 0)" id="P"/><path d="m850.351-244.64a1.3908,5.5633 0 0,1 1.391,5.563v.001a1.3908,5.5633 0 0,1 -1.391,5.563 1.3908,5.5633 0 0,1 -1.391-5.563v-.001a1.3908,5.5633 0 0,1 1.391-5.563" transform="matrix(.81057.58564-.58564.81057 0 0)" id="Q"/></g><g fill="#e4cc00"><path d="m861.201-115.05a1.3908,5.5633 0 0,1 1.391,5.563v.001a1.3908,5.5633 0 0,1 -1.391,5.563 1.3908,5.5633 0 0,1 -1.391-5.563v-.001a1.3908,5.5633 0 0,1 1.391-5.563" transform="matrix(.96264.60744-.5221 1.11998-358.84-17.196)"/><g transform="matrix(1.0951 0 0 1.2741-371.5-9.851)"><use xlink:href="#G"/><use xlink:href="#H"/><use xlink:href="#I"/><use xlink:href="#J"/><use xlink:href="#K"/><use xlink:href="#L"/><use xlink:href="#M"/><use xlink:href="#N"/><use xlink:href="#O"/><use xlink:href="#P"/><use xlink:href="#Q"/></g></g></g><g fill="#b2802e" stroke-width=".172" transform="matrix(1.05824 0 0 1.15175-335.89 12.297)"><path d="m776.322-28.09a1.4318 .6782 0 0 1 1.432 .6782v22.834a1.4318 .6782 0 0 1 -1.432 .6782 1.4318 .6782 0 0 1 -1.432 -.6782v-22.834a1.4318 .6782 0 0 1 1.432 -.6782" transform="matrix(.94656.32251-.32251.94656 0 0)"/><path d="m728.872,221.74a1.4318,.6782 0 0,1 1.432,.678v22.834a1.4318,.6782 0 0,1 -1.432,.678 1.4318,.6782 0 0,1 -1.432-.678v-22.834a1.4318,.6782 0 0,1 1.432-.678"/><path d="m709.402,221.28a1.4318,.6782 0 0,1 1.432,.678v22.834a1.4318,.6782 0 0,1 -1.432,.678 1.4318,.6782 0 0,1 -1.432-.678v-22.834a1.4318,.6782 0 0,1 1.432-.678"/></g><g fill="#004500" stroke-width=".25"><g transform="matrix(.99581-.38972.35808 1.08381-380.03 315.41)"><path d="m692.68 226.06c.3-4.898 4.144-6.405 10.399-4.219.528.301.98-.603.829-.679-10.02-5.274-14.492-19.462 1.559-16.899 2.411.753-2.171 2.143-5.508 2.76-4.52.571-1.703 6.83 7.265 12.632 1.959 1.508 6.329 4.597 6.329 4.597s-1.582 2.788-1.733 2.788c-.15 0-12.207-4.371-15.07-.603-1.809 3.01.688 3.448.085 7.97-1.055 3.918-1.582 3.466-1.809-.075.784-2.466-2.346-6.312-2.345-8.272z" transform="matrix(.19503.7064-.72637-.01711 764.19-278.28)" id="R"/><path d="m692.68 226.06c.3-4.898 4.144-6.405 10.399-4.219.528.301.98-.603.829-.679-10.02-5.274-6.197-19.17 9.854-16.61 2.411.753 1.945 1.61-1.392 2.227-4.52.571-14.11 7.07-5.146 12.876 1.959 1.508 6.329 4.597 6.329 4.597s-1.582 2.788-1.733 2.788c-.15 0-12.207-4.371-15.07-.603-1.809 3.01 1.096 5.817.493 10.339-1.055 3.918-1.582 3.466-1.809-.075.075-.603-2.754-8.681-2.753-10.641z" transform="matrix(.15123.71705-.72395-.06174 793.24-271.41)" id="S"/><path d="m692.68 226.06c.3-4.898 4.144-6.405 10.399-4.219.528.301.98-.603.829-.679-10.02-5.274-2.639-11.925 11.989-9.101 1.587.2-2.095 2.164-5.432 2.781-4.52.571-12.209-.989-3.241 4.813 1.959 1.508 6.329 4.597 6.329 4.597s-1.582 2.788-1.733 2.788c-.15 0-12.207-4.371-15.07-.603-1.809 3.01 7.07 9.439 6.468 13.961-1.055 3.918-1.582 3.466-1.809-.075.075-.603-8.729-12.303-8.728-14.263z" transform="matrix(.09306.72689-.71664-.11977 831.05-260.09)" id="T"/></g><g transform="matrix(1.05824 0 0 1.15175-345.88-4.597)"><use transform="matrix(.42734.59533-.68745.2352 569.63-241.84)" xlink:href="#1"/><use transform="matrix(.38992.62048-.70061.19249 599.26-245.44)" xlink:href="#1"/><use transform="matrix(.33876.64983-.71383.13552 638.65-247.9)" xlink:href="#1"/></g><g transform="matrix(1.05824 0 0 1.15175-329.53 11.463)"><use xlink:href="#R"/><use xlink:href="#S"/><use xlink:href="#T"/></g></g><path fill="#b2802e" stroke-width=".172" d="m827.482,222.49a1.4318,.6782 0 0,1 1.432,.678v22.834a1.4318,.6782 0 0,1 -1.432,.678 1.4318,.6782 0 0,1 -1.432-.678v-22.834a1.4318,.6782 0 0,1 1.432-.678" transform="matrix(1.0951 0 0 1.2741-361.45-17.196)"/><g fill="#007500" stroke-width=".333" transform="matrix(.97496 0 0 1.03807-268.64 38.1)"><use xlink:href="#2"/><use xlink:href="#3"/><use xlink:href="#4"/><use xlink:href="#5"/><use xlink:href="#6"/><use xlink:href="#7"/><use xlink:href="#8"/><use xlink:href="#9"/><use xlink:href="#A"/><use xlink:href="#B"/><use xlink:href="#C"/><use transform="matrix(1.6877-1.2717-1.8182.96978-807.24-319.88)" xlink:href="#0"/><use transform="matrix(-1.7023-1.4301 1.3594 1.5963 381.49 1860.1)" xlink:href="#0"/><use transform="matrix(1.8936 1.1287-1.795-1.3772 80.7-1592.5)" xlink:href="#0"/><use xlink:href="#D"/><use xlink:href="#E"/><use xlink:href="#F"/><use transform="matrix(2.2059-1.0764-2.3765.82088-1312.4-235.44)" xlink:href="#0"/></g></g></g></svg>