<svg xmlns="http://www.w3.org/2000/svg" viewBox="0 0 640 480" xmlns:xlink="http://www.w3.org/1999/xlink"><defs><path id="1" d="m533.77 391.48l-57.27 41.67 21.95-67.34-57.33-41.6 70.83.07 21.83-67.38 21.83 67.38 70.83-.05-57.34 41.58 21.94 67.35z"/><clipPath id="0"><path d="m-81.33 0h682.67v512h-682.67z"/></clipPath></defs><g fill-rule="evenodd" stroke-width="1.25" clip-path="url(#0)" transform="matrix(.9375 0 0 .9375 76.25 0)"><path fill="#6797d6" d="m-252 0h1024v512h-1024z"/><g fill="#fff"><use transform="matrix(.56646 0 0 .5331-42.572-85.71)" xlink:href="#1"/><use transform="matrix(.56646 0 0-.5331-42.572 598.75)" xlink:href="#1"/><use transform="matrix(.54171-.16562.15586.50981-246.32 164.19)" xlink:href="#1"/><use transform="matrix(-.54171-.16562-.15586.50981 765.81 164.19)" xlink:href="#1"/></g></g></svg>