<svg xmlns="http://www.w3.org/2000/svg" viewBox="0 0 640 480"><g fill-rule="evenodd"><g><path fill="#f00" stroke-width="1.25" d="m0,0h640v480h-640z"/></g><g transform="translate(83.911 -.15476)"><path fill="#009a00" stroke-width="1.25" d="m62.085,83.609h360.91v314.41h-360.91z"/><path fill="#ffca00" stroke-width="1.25" d="m62.085,398.02h360.91l-180.46-157.19-180.46,157.19z"/><path fill="#ffca00" stroke-width="1.25" d="m62.085,83.683 180.46,157.19 180.45-157.19h-360.91z"/><path fill="#ffce00" stroke-width="1.25" d="m256.44,57.228-17.17-12.243-17.19,12.213 6.34-20.109-16.92-12.573 21.08-.185 6.73-19.9831 6.69,19.9951 21.08,.222-16.95,12.543z" transform="matrix(.95788 0 0 .95788 -151.84 6.7037)"/><path fill="#ffce00" stroke-width="1.25" d="m256.44,57.228-17.17-12.243-17.19,12.213 6.34-20.109-16.92-12.573 21.08-.185 6.73-19.9831 6.69,19.9951 21.08,.222-16.95,12.543z" transform="matrix(.95788 0 0 .95788 13.047 7.193)"/><path fill="#ffce00" stroke-width="1.25" d="m256.44,57.228-17.17-12.243-17.19,12.213 6.34-20.109-16.92-12.573 21.08-.185 6.73-19.9831 6.69,19.9951 21.08,.222-16.95,12.543z" transform="matrix(.95788 0 0 .95788 178.04 6.9277)"/><path fill="#ffce00" stroke-width="1.25" d="m256.44,57.228-17.17-12.243-17.19,12.213 6.34-20.109-16.92-12.573 21.08-.185 6.73-19.9831 6.69,19.9951 21.08,.222-16.95,12.543z" transform="matrix(.95788 0 0 .95788 -151.84 414.13)"/><path fill="#ffce00" stroke-width="1.25" d="m256.44,57.228-17.17-12.243-17.19,12.213 6.34-20.109-16.92-12.573 21.08-.185 6.73-19.9831 6.69,19.9951 21.08,.222-16.95,12.543z" transform="matrix(.95788 0 0 .95788 13.047 414.62)"/><path fill="#ffce00" stroke-width="1.25" d="m256.44,57.228-17.17-12.243-17.19,12.213 6.34-20.109-16.92-12.573 21.08-.185 6.73-19.9831 6.69,19.9951 21.08,.222-16.95,12.543z" transform="matrix(.95788 0 0 .95788 178.04 414.36)"/><path fill="#f00" d="m455.81,246.95c0,25.234-20.456,45.689-45.689,45.689-25.234,0-45.689-20.456-45.689-45.689 0-25.234 20.456-45.689 45.689-45.689 25.234,0 45.689,20.456 45.689,45.689z" transform="matrix(.95788 0 0 .95788 -150.8 6.7037)"/><path fill="#ffce00" stroke-width="1.25" d="m256.44,57.228-17.17-12.243-17.19,12.213 6.34-20.109-16.92-12.573 21.08-.185 6.73-19.9831 6.69,19.9951 21.08,.222-16.95,12.543z" transform="matrix(1.1378 0 0 1.1378 -29.933 205.08)"/></g><g transform="matrix(.93812 0 0 .93812 172.588 -6.98726)"><path fill="#f00" d="m-2.7888,298.95s2.3668-19.607 1.0149-32.791c-1.3529-13.184-35.158-16.903-35.158-16.903l-.338,30.763s27.045,21.974 34.481,18.931z"/><path fill="#ffce00" d="m-52.145,221.2s3.2582,17.276-1.3519,51.723c-2.4628,18.703 17.917,31.439 42.933,37.186-5.0706-8.7893-18.592-22.988-15.212-49.018 18.255,2.3658 35.495,37.862 35.495,37.862s13.658-50.331-13.86-58.145c-26.744-7.514-48.004-19.269-48.004-19.607z"/></g></g></svg>