<svg width="640" xmlns="http://www.w3.org/2000/svg" height="480" viewBox="0 0 213.33333 160" xmlns:xlink="http://www.w3.org/1999/xlink"><defs><g id="smallcross"><clipPath id="vclip"><path d="m-109,104a104,104 0 0,0 0-208h218a104,104 0 0,0 0,208z"/></clipPath><path id="varm" d="m-55,74a55,55 0 0,1 110,0v-148a55,55 0 0,1 -110,0z" clip-path="url(#vclip)"/><use width="300" height="200" xlink:href="#varm" transform="rotate(90)"/></g></defs><g fill="#fff"><path d="m-0,0h213.33v160h-213.33z"/><path d="m6.3846,13.192h200.5604v133.71h-200.5604z"/></g><path fill="#f00" d="m93.296,13.192v53.484h-86.911v26.742h86.911v53.484h26.742v-53.484h86.911v-26.742h-86.911v-53.484h-26.742z"/><use width="300" fill="#f00" height="200" xlink:href="#smallcross" transform="matrix(.66855 0 0 .66855 49.472 39.566)"/><use width="300" fill="#f00" height="200" xlink:href="#smallcross" transform="matrix(.66855 0 0 .66855 163.86 120.53)"/><use width="300" fill="#f00" height="200" xlink:href="#smallcross" transform="matrix(.66855 0 0 .66855 163.86 39.566)"/><use width="300" fill="#f00" height="200" xlink:href="#smallcross" transform="matrix(.66855 0 0 .66855 49.472 120.53)"/></svg>