<svg width="640" xmlns="http://www.w3.org/2000/svg" height="480" viewBox="0 0 213.33333 160" xmlns:xlink="http://www.w3.org/1999/xlink"><defs><g id="0"><path id="2" d="m-55 74a55 55 0 0 1 110 0v-148a55 55 0 0 1 -110 0z" clip-path="url(#1)"/><use width="300" height="200" xlink:href="#2" transform="matrix(0 1-1 0 0 0)"/></g><clipPath id="1"><path d="m-109,104a104,104 0 0,0 0-208h218a104,104 0 0,0 0,208z"/></clipPath></defs><g fill="#fff"><path d="m0 0h213.33v160h-213.33z"/><path d="m6.385 13.192h200.56v133.71h-200.56z"/></g><g fill="#f00"><path d="m93.3 13.192v53.48h-86.91v26.742h86.91v53.48h26.742v-53.48h86.91v-26.742h-86.91v-53.48h-26.742"/><use width="300" height="200" xlink:href="#0" transform="matrix(.66855 0 0 .66855 49.47 39.566)"/><use width="300" height="200" xlink:href="#0" transform="matrix(.66855 0 0 .66855 163.86 120.53)"/><use width="300" height="200" xlink:href="#0" transform="matrix(.66855 0 0 .66855 163.86 39.566)"/><use width="300" height="200" xlink:href="#0" transform="matrix(.66855 0 0 .66855 49.47 120.53)"/></g></svg>