<svg xmlns="http://www.w3.org/2000/svg" viewBox="0 0 640 480" xmlns:xlink="http://www.w3.org/1999/xlink"><defs><path id="1" d="m129 115v8h11v-7.829l-11-.17"/><path id="2" d="m477.98 275.98h34.57v44.3h-34.57z"/><path id="3" d="m495.286,258.3a17.1555,18.298 0 0,1 17.155,18.298 17.1555,18.298 0 0,1 -17.155,18.298 17.1555,18.298 0 0,1 -17.156-18.298 17.1555,18.298 0 0,1 17.156-18.298"/><clipPath id="0"><path d="m-85.24 0h682.67v512h-682.67z"/></clipPath></defs><g clip-path="url(#0)" transform="matrix(.9375 0 0 .9375 79.914 0)"><path fill="#fff" fill-rule="evenodd" stroke-width="1.25" d="m-254.55 0h1021.8v510.88h-1021.8z"/><g fill="#a11011"><path d="m333.29 112.3l-12.743 64.988 88.979-.909-9.558-64.07"/><g fill-rule="evenodd" stroke-width="1.25"><path d="m276.15 77.58h27.309v6.827h-27.309z"/><path d="m243.38 77.58h26.398v6.827h-26.398z"/><path d="m209.7 77.13h26.398v6.372h-26.398z"/></g><path d="m209.94 83.17v16.749h93.54v-16.391l-93.54-.358"/><path d="m221.33 106.84l-10.926 69.08 94.44.458-12.743-69.08m2.962 66.43z"/></g><path fill="#d61517" fill-rule="evenodd" d="M -256,384.54 H768.2 V512 H-256 z"/><g fill="#a11011"><path fill-rule="evenodd" stroke-width="1.25" d="m82.67 175.2h347.88v26.356h-347.88z"/><path d="m95.91 198.65l-7.361 131.63-37.822.455v21.16h413.49v-21.16l-37.822.455-7.357-131.92-323.12-.628z"/></g><g fill="#d61517"><path d="m204.56 234.3v21.755h5.338v-21.755h-5.338m8.01 0v21.755h42.707v-21.755h-42.707m45.38 0v21.755h40.04v-21.755h-40.04m42.707 0v21.755h8.01v-21.755h-8.01z"/><path d="m328.65 234.27v22.21h38.997v-21.736l-38.997-.475"/><path d="m316.67 306.19v23.548h29.361v-23.548h-29.361m32.03 0v14.718h5.338v-14.718h-5.338m37.37 0v14.718h5.338v-14.718h-5.338m8.01 0v23.548h29.361v-23.548h-29.361z"/><path d="m319.33 282.23v21.3h5.338v-21.3h-5.338m8.01 0v21.3h18.684v-21.3h-18.684z"/><path d="m394.07 282.23v21.3h19.13v-21.3h-19.13m21.869 0v21.3h5.467v-21.3h-5.467z"/><path d="m317.91 201.89v5.78h102.92v-5.78h-102.92"/><path d="m101.56 282.68v21.3h18.04v-21.3h-18.04"/><path d="m167.19 282.23v22.21h18.684v-22.21h-18.684m21.354 0v22.21h5.338v-22.21h-5.338z"/><path d="m203.21 202.35v5.325h106.1v-5.325h-106.1"/><path d="m95.34 202.81v5.325h97v-5.325h-97"/></g><path fill="#fff" d="m313.08 200.53c-10.186.754 1.348 96.04 1.367 125.75 0 0 12.182-119.51-1.367-125.75"/><path fill="#d61517" d="m84.44 184.62v14.61h344.33v-14.61h-344.33"/><path fill="#fff" d="m196.57 200.98c-10.186.767 1.348 97.78 1.367 128.03 0 0 12.182-121.67-1.367-128.03"/><g fill="#d61517"><path d="m90.9 282.68v21.3h8.216v-21.3h-8.216"/><path d="m90.69 305.73v24.03h29.361l-.16-24-29.2-.03m28.849 23.517z"/><path d="m51.55 331.68v18.569h410.32v-18.17l-410.32-.397"/><path d="m167.16 306.19v23.23h28.451v-23.2l-28.451-.023m27.954 22.73z"/><path d="m201.75 305.73v23.548h29.361l-.16-23.519-29.2-.029m28.849 23.05z"/><path d="m279.58 306.19v23.548h32.547l-.16-23.519-32.388-.029m31.979 23.05z"/><path d="m101.27 233.82v23.12h38.887v-22.626l-38.887-.494"/><path d="m93.88 234.28v22.665h3.873v-22.18l-3.873-.484"/><path d="m143.03 234.27v23.12h41.19v-22.626l-41.19-.494"/><path d="m186.27 234.73v22.665h4.784v-22.18l-4.784-.484"/><path d="m319.17 258.86v21.3h27.541v-20.845l-27.541-.455"/><path d="m393.36 259.31v20.39h27.996v-19.954l-27.996-.436"/><path d="m350.23 259.31v20.845h40.629v-20.399l-40.629-.446"/></g><path fill="#fff" d="m310.53 174.66v9.466h4.784v-9.264l-4.784-.202"/><g fill="#d61517"><path d="m320.08 234.28v21.755h5.239v-21.29l-5.239-.465"/><path d="m371.44 234.73v21.755h37.71v-21.29l-37.71-.465"/><path d="m412.48 234.73v21.755h7.514v-21.29l-7.514-.465"/><path d="m319.63 210.15v22.21h23.9v-21.736l-23.9-.475"/><path d="m347.32 210.61v21.755h42.639v-21.29l-42.639-.465"/><path d="m392.45 210.15v22.21h25.72v-21.736l-25.72-.475"/><path d="m201.75 281.15v21.755h12.07v-21.611l-12.07-.144m11.855 21.29z"/><path d="m216.31 281.61v21.755h14.93v-21.611l-14.93-.144m14.669 21.29z"/><path d="m279.58 282.07v21.755h19.348v-21.774l-19.348.019m19.01 21.29z"/><path d="m301.42 282.07v21.755h9.79v-21.29l-9.79-.465"/><path d="m92.61 201.44v4.415h102.92v-4.415h-102.92"/><path d="m198.2 201.44v4.415h113.84v-4.415h-113.84"/><path d="m314.64 200.98v4.415h108.91v-4.415h-108.91"/><path d="m92.06 258.85v21.755h27.541v-21.29l-27.541-.465"/><path d="m167.62 258.85v21.755h25.26v-21.29l-25.26-.465"/><path d="m122.93 259.31v21.755h42.18l.161-21.611-42.34-.144m41.45 21.29z"/><path d="m203.57 257.94v21.755h27.996l.16-21.611-28.16-.144m27.507 21.29z"/><path d="m233.61 257.94v21.755h43.926l-.16-21.451-43.766-.305"/><path d="m280.03 258.4v21.755h28.451l.16-21.774-28.611.019m27.954 21.29z"/><path d="m204.02 209.7v21.755h28.906v-21.29l-28.906-.465"/><path d="m234.97 209.69v22.21h43.549v-21.736l-43.549-.475"/><path d="m281.4 209.69v22.21h25.72v-21.736l-25.72-.475"/></g><path fill="#a11011" d="m113 119.58l-10.926 64.988 88.979-.909-10.01-65.44"/><g fill="#d61517"><path d="m220.62 123.84l-2.718 10.65h38.05v-10.65h-35.33m38.05 0v10.65h35.33v-10.65h-35.33z"/><path d="m217.9 137.15v10.65h13.503v-10.65h-13.503m16.204 0v10.65h43.21v-10.65h-43.21m45.91 0v10.65h16.204v-10.65h-16.204z"/><path d="m223.3 110.53l-2.722 10.65h10.887v-10.65h-8.165m10.887 0v10.65h43.548v-10.65h-43.548m46.27 0v10.65h10.887v-10.65h-10.887z"/><path d="m209.9 86.56v5.325h45.832v-5.325h-45.832m48.53 0v5.325h43.14v-5.325h-43.14z"/><path d="m209.9 94.55v5.325h21.354v-5.325h-21.354m24.02 0v5.325h42.707v-5.325h-42.707m45.38 0v5.325h21.354v-5.325h-21.354z"/><path d="m244.6 78.58v5.325h24.02v-5.325h-24.02"/><path d="m84.44 177.09v5.325h21.354v-5.325h-21.354"/><path d="m407.42 177.09v5.325h21.354v-5.325h-21.354"/><path d="m107.08 178.3v4.46h20.714v-4.364l-20.714-.095"/><path d="m155.32 179.4v3.816h17.983v-3.734l-17.983-.082"/></g><path fill="#fff" d="m198.1 173.74v10.832h5.239v-10.6l-5.239-.232"/><g fill="#d61517"><path d="m106.62 163v13.374h17.983v-13.09l-17.983-.286"/><path d="m125.74 163.46v12.919h9.335v-12.643l-9.335-.276"/><path d="m171.25 162.55v15.195h16.16v-14.87l-16.16-.325"/><path d="m155.78 163.2v13.264h12.599v-12.98l-12.599-.284"/></g><g fill="#a11011"><path d="m173.07 175.11v6.736h20.258v-6.591l-20.258-.144"/><path d="m220.87 107.3l-11.383-7.384h93.53l-10.47 8.293"/></g><g fill="#d61517"><path d="m210.92 78.58v5.325h24.02v-5.325h-24.02"/><path d="m276.91 79.03v5.325h25.388v-5.325h-25.388"/><g transform="matrix(1.0299 0 0 1.0299-145.31-9.103)"><use transform="matrix(6.0068 0 0 .20985-418.88 88)" xlink:href="#1"/><use transform="matrix(6.6496 0 0 .20985-505.34 87.12)" xlink:href="#1"/><g transform="matrix(6.971 0 0 .20985-547.25 85.79)"><use xlink:href="#1"/><use xlink:href="#1"/></g><use transform="matrix(7.2523 0 0 .20985-584.41 84.02)" xlink:href="#1"/></g><path d="m227.24 179.21v3.549h16.16v-3.474l-16.16-.076"/><path d="m269.57 179.21v3.549h13.887v-3.474l-13.887-.076"/><path d="m95.7 209.7v22.665h22.08v-22.18l-22.08-.484"/><path d="m212.67 163.73v14.02h30.727v-13.718l-30.727-.3"/><path d="m276.96 163.73v14.02h26.06v-13.718l-26.06-.3"/><path d="m265.93 163.73v14.02h7.514v-13.718l-7.514-.3"/></g><path fill="#a11011" d="m209.94 175.1v7.191h17.07v-7.04l-17.07-.154"/><path fill="#d61517" d="m175.2 177.09v5.78h21.354v-5.78h-21.354m29.361 0v5.78h21.354v-5.78h-21.354z"/><path fill="#a11011" d="m283.67 175.56v6.736h20.714v-6.591l-20.714-.144"/><g fill="#d61517"><path d="m120.65 210.15v22.21h45.37v-21.736l-45.37-.475"/><path d="m168.06 210.15v22.21h23.444v-21.736l-23.444-.475"/><path d="m214.95 149.62v12.197h40.74v-11.936l-40.74-.261"/><path d="m258.18 150.07v12.197h40.74v-11.936l-40.74-.261"/></g><g fill="#a11011"><g fill-rule="evenodd" stroke-width="1.25"><path d="m168.74 88.96h23.667v6.827h-23.667z"/><path d="m134.15 88.51h26.398v7.737h-26.398z"/><path d="m105.02 88.96h20.937v6.827h-20.937z"/></g><path d="m112.95 120.04l-8.147-11.473 87.62.455-10.497 9.576"/></g><g fill="#d61517"><path d="m105.8 102.54v5.325h18.684v-5.325h-18.684m21.354 0v5.325h42.707v-5.325h-42.707m45.38 0v5.325h18.684v-5.325h-18.684z"/><path d="m105.8 90.14v4.681h18.684v-4.681h-18.684m29.361 0v4.681h24.02v-4.681h-24.02z"/><path d="m169.86 90.59v4.04h21.354v-4.04h-21.354"/></g><path fill="#a11011" fill-rule="evenodd" stroke-width="1.25" d="m105.02 95.79h87.39v13.654h-87.39z"/><g fill="#d61517"><path d="m108.44 149.8v10.643h34.446v-10.416l-34.446-.227"/><path d="m145.1 149.8v10.643h40.495v-10.416l-40.495-.227"/><path d="m106.16 97.28v4h41.19v-3.919l-41.19-.086"/><path d="m110.26 135.96v11.287h14.797v-11.05l-14.797-.241"/><path d="m127.93 137.25v10h39.986v-9.786l-39.986-.214"/><path d="m170.8 136.42v11.287h12.976v-11.05l-12.976-.241"/><path d="m112.08 124.96v10h33.536v-9.786l-33.536-.214"/><path d="m148.5 124.96v10h33.913v-9.786l-33.913-.214"/><path d="m122.56 118.67v4h49.843v-3.919l-49.843-.086"/><path d="m173.52 118.67v4h7.06v-3.919l-7.06-.086"/><path d="m112.99 118.67v4h7.97v-3.919l-7.97-.086"/><path d="m150.24 97.28v4h41.27v-3.919l-41.27-.086"/><path d="m106.63 104.22v5.715h20.258v-5.593l-20.258-.122"/><path d="m131.5 104.02v5.26h35.89v-5.147l-35.89-.112"/><path d="m170.9 104.22v5.071h20.15v-4.963l-20.15-.108"/><g transform="matrix(1.0299 0 0 .91607-254.55 12.308)"><use transform="matrix(6.0068 0 0 .20985-418.88 88)" xlink:href="#1"/><use transform="matrix(6.6496 0 0 .20985-505.34 87.12)" xlink:href="#1"/><g transform="matrix(6.971 0 0 .20985-547.25 85.79)"><use xlink:href="#1"/><use xlink:href="#1"/></g><use transform="matrix(7.2523 0 0 .20985-584.41 84.02)" xlink:href="#1"/></g><path d="m339.2 178.75v4h15.252v-3.919l-15.252-.086"/><path d="m381.98 178.29v4h22.99v-3.919l-22.99-.086"/><path d="m386.72 164.26v12.574h20.525v-12.305l-20.525-.269"/><path d="m375.65 163.81v13.03h8.389v-12.751l-8.389-.279"/><path d="m323.73 163.35v13.94h17.07v-13.642l-17.07-.298"/><path d="m343.67 163.16v14.13h10.779v-13.826l-10.779-.302"/></g><path fill="#a11011" d="m320.99 175.1v8.101h17.983v-7.928l-17.983-.173"/><g fill="#d61517"><path d="m285.54 177.09v5.78h23.613v-5.78h-23.613m31.484 0v5.78h20.99v-5.78h-20.99z"/><path d="m260.12 150.07v12.197h38.809v-11.936l-38.809-.261"/></g><g fill="#a11011"><g fill-rule="evenodd" stroke-width="1.25"><path d="m387.66 88.85h23.667v6.827h-23.667z"/><path d="m353.07 88.4h26.398v7.737h-26.398z"/><path d="m323.94 88.85h20.937v6.827h-20.937z"/></g><path d="m331.87 119.93l-8.147-11.473 87.62.455-10.497 9.576"/></g><g fill="#d61517"><path d="m324.72 102.43v5.325h18.684v-5.325h-18.684m21.354 0v5.325h42.707v-5.325h-42.707m45.38 0v5.325h18.684v-5.325h-18.684z"/><path d="m324.72 90.03v4.04h18.684v-4.04h-18.684m29.361 0v4.04h24.02v-4.04h-24.02z"/><path d="m388.78 90.48v3.394h21.354v-3.394h-21.354"/></g><path fill="#a11011" fill-rule="evenodd" stroke-width="1.25" d="m323.94 95.68h87.39v13.654h-87.39z"/><g fill="#d61517"><path d="m326.46 149.05v11.287h36v-11.05l-36-.241"/><path d="m365.78 149.05v11.287h38.731v-11.05l-38.731-.241"/><path d="m325.09 97.17v4h38.62v-3.919l-38.62-.086"/><path d="m329.19 135.85v11.287h14.797v-11.05l-14.797-.241"/><path d="m347.5 135.85v11.287h39.34v-11.05l-39.34-.241"/><path d="m389.72 136.3v11.287h12.976v-11.05l-12.976-.241"/><path d="m331.01 125.49v8.07h34.18v-7.896l-34.18-.172"/><path d="m368.06 125.49v8.07h33.27v-7.896l-33.27-.172"/><path d="m341.48 118.56v4h49.843v-3.919l-49.843-.086"/><path d="m392.45 118.56v4h7.06v-3.919l-7.06-.086"/><path d="m331.92 118.56v4h7.97v-3.919l-7.97-.086"/><path d="m367.87 97.17v4h42.56v-3.919l-42.56-.086"/><path d="m325.55 102.18v6.359h18.971v-6.223l-18.971-.136"/><path d="m347.85 102.63v5.903h37.18v-5.777l-37.18-.126"/><path d="m387.9 102.82v5.715h22.08v-5.593l-22.08-.122"/><g transform="matrix(1.0299 0 0 .91607-35.622 12.197)"><use transform="matrix(6.0068 0 0 .20985-418.88 88)" xlink:href="#1"/><use transform="matrix(6.6496 0 0 .20985-505.34 87.12)" xlink:href="#1"/><g transform="matrix(6.971 0 0 .20985-547.25 85.79)"><use xlink:href="#1"/><use xlink:href="#1"/></g><use transform="matrix(7.2523 0 0 .20985-584.41 84.02)" xlink:href="#1"/></g><g transform="matrix(1.0299 0 0 .23327-35.622 88.62)"><use transform="matrix(6.0068 0 0 .20985-418.88 88)" xlink:href="#1"/><use transform="matrix(6.6496 0 0 .20985-505.34 87.12)" xlink:href="#1"/><g transform="matrix(6.971 0 0 .20985-547.25 85.79)"><use xlink:href="#1"/><use xlink:href="#1"/></g><use transform="matrix(7.2523 0 0 .20985-584.41 84.02)" xlink:href="#1"/></g></g><g fill-rule="evenodd" stroke-width="1.25"><path fill="#808080" d="m232.07 462.6h19.954v28.965h-19.954z"/><path fill="#ffc500" d="m234.64 464.54h17.379v25.1h-17.379z"/><path fill="#808080" d="m237.86 469.68h11.586v17.379h-11.586z"/><path fill="#d61517" d="m240.44 471.62h7.08v13.517h-7.08z"/><g transform="matrix(1.0299 0 0 1.0299-257.76-50.21)"><path fill="#808080" d="m475 509.19h7.5v8.75h-7.5z"/><path fill="#d61517" d="m475 511.06h8.125v5h-8.125z"/></g><g transform="matrix(-1.0299 0 0-1.0299 764.75 1004.24)"><path fill="#808080" d="m488.75 486.69h9.375v73.13h-9.375z"/><path fill="#ffc500" d="m490.63 488.56h5.625v69.37h-5.625z"/></g><g fill="#808080"><path d="m101.42-491.28h6.46v34.697h-6.46z" transform="matrix(-.72619.68749-.72619-.68749 0 0)"/><path d="m-486.13-99.08h6.574v32.527h-6.574z" transform="matrix(-.67437-.73839.67437-.73839 0 0)"/></g><g fill="#ffc500"><path d="m-104.4 456.76h5.312v33.05h-5.312z" transform="matrix(.72178-.69212.72178.69212 0 0)"/><path d="m-484.94-97.62h5.295v32.948h-5.295z" transform="matrix(-.6705-.74191.6705-.74191 0 0)"/></g><g fill="#808080"><path d="m-131.02 454.71h6.216v30.755h-6.216z" transform="matrix(.71324-.70092.71324.70092 0 0)"/><path d="m453.17 98.05h6.686v35.909h-6.686z" transform="matrix(.71771.69634-.71771.69634 0 0)"/></g><path fill="#ffc500" d="m-457.36-124.58h5.288v32.906h-5.288z" transform="matrix(-.70711-.70711.70711-.70711 0 0)"/><path fill="#808080" d="m254.14 336.22h5.149v62.16h-5.149z"/><g fill="#ffc500"><path d="m255.01 337.05h3.54v60.11h-3.54z"/><path d="m-126.24 452.12h5.645v35.13h-5.645z" transform="matrix(.70711-.70711.70711.70711 0 0)"/></g><g fill="#a11011" transform="matrix(1.3111 0 0 1.0558-279.63-7.672)"><use xlink:href="#2"/><path d="m495.286,258.3a17.1555,18.298 0 0,1 17.155,18.298 17.1555,18.298 0 0,1 -17.155,18.298 17.1555,18.298 0 0,1 -17.156-18.298 17.1555,18.298 0 0,1 17.156-18.298"/></g><g fill="#d61517" transform="matrix(1.2413 0 0 1.0195-244.64 3.969)"><use xlink:href="#2"/><use xlink:href="#3"/></g><g fill="#a11011" transform="matrix(.92478 0 0 .95717-87.88 23.926)"><use xlink:href="#2"/><use xlink:href="#3"/></g><g fill="#d61517"><path d="m355.98 289.23h28.04v40.449h-28.04z"/><path d="m370.024,273.09a13.9145,16.707 0 0,1 13.915,16.707 13.9145,16.707 0 0,1 -13.915,16.707 13.9145,16.707 0 0,1 -13.914-16.707 13.9145,16.707 0 0,1 13.914-16.707"/></g><g fill="#a11011" transform="matrix(1.3484 0 0 1.0558-412.97-8.717)"><use xlink:href="#2"/><use xlink:href="#3"/></g><g fill="#d61517" transform="matrix(1.2766 0 0 1.0195-376.99 2.924)"><use xlink:href="#2"/><use xlink:href="#3"/></g><g fill="#a11011" transform="matrix(.95104 0 0 .95717-215.77 22.881)"><use xlink:href="#2"/><use xlink:href="#3"/></g><g fill="#d61517" transform="matrix(.83413 0 0 .91304-158 36.21)"><use xlink:href="#2"/><use xlink:href="#3"/></g><g fill="#a11011" transform="matrix(1.3298 0 0 1.0558-515.42-8.556)"><use xlink:href="#2"/><use xlink:href="#3"/></g><g fill="#d61517" transform="matrix(1.2589 0 0 1.0195-479.94 3.085)"><use xlink:href="#2"/><use xlink:href="#3"/></g><g fill="#a11011" transform="matrix(.93791 0 0 .95717-320.95 23.04)"><use xlink:href="#2"/><use xlink:href="#3"/></g><g fill="#d61517" transform="matrix(.82261 0 0 .91304-263.97 36.37)"><use xlink:href="#2"/><use xlink:href="#3"/></g></g><g fill="#a11011"><path d="m233.03 322.27v2.312h6.294v-2.312h-6.294"/><path d="m121.19 320.66v2.312h6.294v-2.312h-6.294"/><path d="m121.19 303.44v2.312h6.294v-2.312h-6.294"/><path d="m121.35 287.19v2.312h6.294v-2.312h-6.294"/><path d="m159.65 321.3v2.312h6.294v-2.312h-6.294"/><path d="m159.49 303.92v2.312h6.294v-2.312h-6.294"/><path d="m159.01 287.51v2.312h6.294v-2.312h-6.294"/><path d="m242.09 278.03l1.635-1.635-4.45-4.45-1.635 1.635 4.45 4.45"/><path d="m271.16 322.11v2.312h6.294v-2.312h-6.294"/><path d="m233.19 303.6v2.312h6.294v-2.312h-6.294"/><path d="m232.71 287.03v2.312h6.294v-2.312h-6.294"/><path d="m271.16 303.92v2.312h6.294v-2.312h-6.294"/><path d="m271.49 286.22v2.312h6.294v-2.312h-6.294"/><path d="m348.24 322.91v2.312h6.294v-2.312h-6.294"/><path d="m348.24 303.6v2.312h6.294v-2.312h-6.294"/><path d="m348.4 285.26v2.312h6.294v-2.312h-6.294"/><path d="m385.58 323.07v2.312h6.294v-2.312h-6.294"/><path d="m385.42 303.76v2.312h6.294v-2.312h-6.294"/><path d="m385.58 285.9v2.312h6.294v-2.312h-6.294"/><g fill-rule="evenodd" stroke-width="1.25" transform="matrix(.55913 0 0 .46281 88.21 34.398)"><use xlink:href="#2"/><use xlink:href="#3"/></g></g><g fill-rule="evenodd" stroke-width="1.25"><g fill="#d61517" transform="matrix(.52936 0 0 .44688 103.13 39.501)"><use xlink:href="#2"/><use xlink:href="#3"/></g><g fill="#a11011" transform="matrix(.39437 0 0 .41957 169.98 48.25)"><use xlink:href="#2"/><use xlink:href="#3"/></g><g fill="#d61517" transform="matrix(.34589 0 0 .40022 193.94 54.09)"><use xlink:href="#2"/><use xlink:href="#3"/></g></g><g fill="#a11011"><path d="m371.21 265.24h-2.312v6.294h2.312v-6.294"/><path d="m273.33 274.06l-1.635-1.635-4.45 4.45 1.635 1.635 4.45-4.45"/><path d="m386.46 273.9l-1.635-1.635-4.45 4.45 1.635 1.635 4.45-4.45"/><path d="m358.27 278.19l1.635-1.635-4.45-4.45-1.635 1.635 4.45 4.45"/><path d="m129.37 270.66l-1.635 1.635 4.45 4.45 1.635-1.635-4.45-4.45"/><path d="m256.48 264.76h-2.312v6.294h2.312v-6.294"/><path d="m142.33 272.02h2.312v-6.294h-2.312v6.294"/><path d="m154.77 276.23l1.635 1.635 4.45-4.45-1.635-1.635-4.45 4.45"/><path d="m358.63 175.86v7.01h22.902v-7.01h-22.902"/></g><path fill="#d61517" d="m359.37 177.09v5.325h21.354v-5.325h-21.354"/><g fill-rule="evenodd" stroke-width="1.25" transform="matrix(1.0299 0 0 1.0299-357.65-111.23)"><g fill="#a11011" transform="matrix(.61374 0 0 .46256 290.81 137.49)"><use xlink:href="#2"/><use xlink:href="#3"/></g><g fill="#d61517" transform="matrix(.58106 0 0 .44663 307.18 142.59)"><use xlink:href="#2"/><use xlink:href="#3"/></g><g fill="#a11011" transform="matrix(.43289 0 0 .41934 380.56 151.34)"><use xlink:href="#2"/><use xlink:href="#3"/></g><g fill="#d61517" transform="matrix(.37967 0 0 .4 406.86 157.18)"><use xlink:href="#2"/><use xlink:href="#3"/></g></g><path fill="#a11011" d="m244.32 176.14v7.01h25.424v-7.01h-25.424"/><path fill="#d61517" d="m244.6 177.55v5.325h24.02v-5.325h-24.02"/><g fill-rule="evenodd" stroke-width="1.25" transform="matrix(1.0299 0 0 1.0299-469.44-111.23)"><g fill="#a11011" transform="matrix(.61374 0 0 .46256 290.81 137.49)"><use xlink:href="#2"/><use xlink:href="#3"/></g><g fill="#d61517" transform="matrix(.58106 0 0 .44663 307.18 142.59)"><use xlink:href="#2"/><use xlink:href="#3"/></g><g fill="#a11011" transform="matrix(.43289 0 0 .41934 380.56 151.34)"><use xlink:href="#2"/><use xlink:href="#3"/></g><g fill="#d61517" transform="matrix(.37967 0 0 .4 406.86 157.18)"><use xlink:href="#2"/><use xlink:href="#3"/></g></g><path fill="#a11011" d="m128.32 173.9v8.407h22.342v-8.407h-22.342"/><path fill="#d61517" d="m129.83 175.11v7.646h19.803v-7.482l-19.803-.163"/></g></svg>