<svg xmlns="http://www.w3.org/2000/svg" viewBox="0 0 640 480"><defs><clipPath id="clipPath6337" clipPathUnits="userSpaceOnUse"><path fill-opacity=".67" d="m-62.883,0h682.67v512h-682.67z"/></clipPath></defs><g fill-rule="evenodd" clip-path="url(#clipPath6337)" transform="matrix(.9375 0 0 .9375 58.952 0)"><path fill="#fff" d="m-661.1-512h766.65v512h-766.65z" transform="scale(-1)"/><g stroke-width="1.25"><g fill="#df0000"><path d="m-661.1-512h766.65v255.55h-766.65z" transform="scale(-1)"/><path d="m628.27,506.38c0,120.04-97.314,217.36-217.36,217.36-120.04,0-217.36-97.314-217.36-217.36v-.0001" transform="matrix(.72122 0 0 -.72122 -105.55 621.06)"/></g><path fill="#fff" d="m628.27,506.38c0,120.04-97.314,217.36-217.36,217.36-120.04,0-217.36-97.314-217.36-217.36v-.0001" transform="matrix(.72122 0 0 .72122 -105.55 -109.46)"/></g></g></svg>