<svg xmlns="http://www.w3.org/2000/svg" viewBox="0 0 640 480"><defs><clipPath id="0"><path d="m0 0h120v90h-120z"/></clipPath></defs><g fill-rule="evenodd" stroke-width="1.25" clip-path="url(#0)" transform="scale(5.3333)"><g><path fill="#0061f3" d="m0 0h135v10h-135z"/><path fill="#fff" d="m0 10h135v10h-135z"/><path fill="#0061f3" d="m0 20h135v10h-135z"/><path fill="#fff" d="m0 30h135v10h-135z"/><path fill="#0061f3" d="m0 40h135v10h-135z"/><path fill="#fff" d="m0 50h135v10h-135z"/><path fill="#0061f3" d="m0 60h135v10h-135z"/><path fill="#fff" d="m0 70h135v10h-135z"/><path fill="#0061f3" d="m0 80h135v10h-135z"/></g><g><path fill="#0061f3" d="m0 0h50v50h-50z"/><g fill="#fff"><path d="m20 0h10v50h-10z"/><path d="m0 20h50v10h-50z"/></g></g></g></svg>