<svg xmlns="http://www.w3.org/2000/svg" viewBox="0 0 640 480" xmlns:xlink="http://www.w3.org/1999/xlink"><g fill-rule="evenodd" stroke-width="1.25" transform="scale(.80632.96758)"><path fill="#06f" d="M 0,0 H793.73 V496.07 H0 z"/><path fill="#fff" d="m264.58 0h264.58v496.08h-264.58z"/></g><g transform="matrix(2.0498 0 0 2.0497-438.53-266.93)"><path fill="none" stroke="#000" stroke-width=".5" d="m401.82 305.02c-1.76-1.831-11.128-4.69-17.788-5.264-5.755-.454-9.467-4.238-12.877-4.612-9.856-9.91-22.741-13.697-31.17-32.99-1.602-5.79-2.741-12.841-2.912-19.585 3.18-22.53 5.238-21.922 9.985-36.818" transform="matrix(-1 0 0 1 768.25 1.217)"/><g fill="#0c5c1d" fill-rule="evenodd"><g stroke-width=".375"><path d="m378.4 303.29c-.172 1.662-5.25 7.793-14.02 6.715.784-1.692 2.689-2.906 5.422-5.453 1.251-1.289 8.661-2.048 8.598-1.262" transform="matrix(-1 0 0 1 762.47-.135)"/><path d="m379.5 303c1.02.089 1.927.696.184 2.227-2.94 2.471-13.486 4.744-15.07 1.607 4.668-.63 7.78-1.619 8.26-1.601 2.168-.71 4.963-2.39 6.631-2.233" transform="matrix(-1 0 0 1 774.01-1.588)"/></g><g stroke-width=".25"><path d="m379 299.44c-2.127-1.463-3.775-1.342-5.151-1.631-3.524-.244-5.934.24-7.409.85-2.183.94-5.363 3.293-5.766 5 3.241-.061 5.389-2.507 9.562-3.434 2.129-.184 6.06-.458 8.764-.787" transform="matrix(-1 0 0 1 768.25 1.217)"/><path d="m380.79 299.84c-6.462-3.216-12.889-9.6-14.13-16.765 8.185 5.294 14.15 13.466 14.13 16.765" transform="matrix(-.99596.08979.08979.99596 735.95-32.8)"/><path d="m381.16 298.73c-5.198-2.255-12.24-7.306-13.1-17.811 7.132 4.489 9.413 11.127 13.1 17.811" transform="matrix(-1 0 0 1 768.25 1.217)"/><path d="m370.68 297.11c.401-2.965-6.719-18.458-10.873-22.446-.454 5.964 5.346 22.714 10.873 22.446" transform="matrix(-1 0 0 1 768.74-2.226)"/><path d="m365.73 295.86c-1.081 4.595-12.833 5.788-16.627.401 4.724-.788 10.564-1.247 16.627-.401" transform="matrix(-1 0 0 1 763.57-.381)"/><path d="m367.18 296.3c-4.065 3.969-15.966 4.352-23.778.491 9.328-5.144 22.903-2.062 23.778-.491" transform="matrix(-.97776.20972.20972.97776 699.88-74.39)"/><path d="m357.57 287.68c-.763-3.339-10.65-9.933-17.03-9.568 4.051 5.498 5.44 4.557 7.55 6.996 1.442 1.809 6.474 3.138 9.477 2.572" transform="matrix(-1 0 0 1 769.84-1.98)"/><path d="m351.73 280.55c3.41-1.526 1.996-11.444-.599-15.364-2.02 5.636-2.104 14.229.599 15.364" transform="matrix(-.99803.0628.06352 1.0094 748.74-27.16)"/><path d="m346.42 275.01c4.658-2.591 2.979-15.262.497-18.815-1.946 3.784-2.967 16.974-.497 18.815" transform="matrix(-1 0 0 1 766.77-.627)"/><path d="m347.21 274.08c3.454-3.657 1.325-12.808-1.279-16.402-3.151 5.422-1.67 12.166 1.279 16.402" transform="matrix(-.24558-.96938-.96938.24558 773.09 543.54)"/><path d="m343.09 271.8c3.881-6.068 1.471-9.284-.898-16.797-1.146 6.38-.222 13.11.898 16.797" transform="matrix(-1 0 0 1 768-.258)" id="0"/><path d="m343.21 270.95c3.746-4.249 2.327-9.818-.095-15.424-2.284 3.658-3.957 8.51.095 15.424" transform="matrix(-.66694-.74512-.74512.66694 860.62 333.11)"/><path d="m343.63 269.73c4.331-4.369 1.2-9.241-2.192-13.771.404 3.541-.639 9.217 2.192 13.771" transform="matrix(-.8138.58114.58114.8138 551.34-158.05)" id="1"/><path d="m344.37 272.34c2.171-3.115 1.796-12.942-3.477-17.716-1.18 5.7 1.1 13.626 3.477 17.716" transform="matrix(.97567-.21925.21925.97567 31.2 61.14)"/><path d="m343.45 273.4c-.291-2.258-.558-3.439-1.13-6.371-.926-5.323.08-3.346-1.356-9.875-3.405 5.89-2.251 14.376 2.486 16.246" transform="matrix(-.96316-.26892-.26892.96316 834.66 78.33)"/><path d="m343 271.09c2.741-3.924 1.716-8.316-2.295-14.611-.95 4.732.882 9.269 2.295 14.611" transform="matrix(-.10784.99417.99417.10784 198.23-138.58)"/><path d="m345.65 276.29c-2.752-8.259-2.364-10.27-5.894-18.852-1.807 6.377 1.235 15.289 5.894 18.852" transform="matrix(.81728.57624-.57624.81728 306.31-195.67)" id="2"/><path d="m345.27 271.56c-2.02-6.688-.254-11.202-4.404-16.492-1.301 1.938.258 15.343 4.404 16.492" transform="matrix(.79608-.60519.60519.79608-10.56 221.53)" id="3"/><path d="m343.67 271.11c-.155-5.759.478-9.883-1.813-15.702-2.635 4.879-2.689 14.838 1.813 15.702" transform="matrix(.79608-.60519.60519.79608-10.474 215.21)" id="4"/><path d="m343.67 271.11c3.708-5.181-1.54-12.25-2.605-16.304-2.635 4.879-1.029 12.838 2.605 16.304" transform="matrix(.90462-.42622.42622.90462-6.098 114.26)" id="5"/><path d="m343.46 269.86c3.472-4.803-.141-10.02-1.636-13.538-1.336 5.36-2.317 11.02 1.636 13.538" transform="matrix(.9501-.31196.31196.9501 9.791 56.57)" id="6"/><path d="m343.46 270.52c1.942-3.799.037-12.02-1.67-15.419-1.646 2.059-1.512 15 1.67 15.419" transform="matrix(.99705.07678-.07678.99705 105.95-79.06)" id="7"/><path d="m343.71 268.92c1.978-4.73.006-9.295-1.881-12.605-1 5.368-1.585 10.487 1.881 12.605" transform="matrix(.99294.11865-.11865.99294 114.8-98.17)" id="8"/><path d="m343.93 270.68c2.95-2.357 1.155-10.408-4.679-15.03 1.181 6.558 2.723 9.08 4.679 15.03" transform="matrix(.8543.51979-.51979.8543 276.2-165.03)"/><path d="m343 271.09c3.068-3.517 1.716-8.316-2.295-14.611-.434 4.54 3.519 10.05 2.295 14.611" transform="matrix(.61801.78617-.78617.61801 429.51-206.04)" id="9"/><path d="m343.93 270.68c4.064-1.641 1.503-13.524-4.834-16.736 1.236 7.973 2.324 10.91 4.834 16.736" transform="matrix(-.81459.58004.58004.81459 554.67-173.09)"/><path d="m347.21 274.08c3.767-2.08 1.488-11-1.038-14.952-1.433 4.49-.448 12.12 1.038 14.952" transform="matrix(-.35978-.93304-.93304.35978 807.62 488.62)" id="A"/><path d="m347.73 275.84c-.228-3.294 3.665-5.04-1.917-17.473-1.114 9.701 1.239 15.694 1.917 17.473" transform="matrix(.68077.90917-.83566.62572 418.59-218.71)" id="B"/></g></g><path fill="none" stroke="#000" stroke-width=".5" d="m399.56 306.24c-1.412-2-8.867-4.168-15.527-4.742-5.755.242-11.03-1.107-15.833-3.568-9.857-9.91-20.828-16.48-29.25-35.773-1.602-5.79-2.568-11.1-2.739-17.846 3.18-22.53 3.499-24.704 12.246-39.6" transform="translate(-26.78)"/><g fill-rule="evenodd"><g fill="#0c5c1d" stroke-width=".375"><path d="m378.4 303.29c-.172 1.662-5.988 6.809-14.02 6.715.784-1.692 8.683-3.504 10.833-6.56.636-.92 3.25-.941 3.187-.155" transform="translate(-26.78)"/><path d="m379.5 303c1.01-.17 1.558.327-.185 1.858-2.94 2.471-7.952 3.637-15.321 4.927 2.455-2.474 8.395-4.57 8.875-4.552 2.168-.71 4.717-1.898 6.631-2.233" transform="translate(-33.778-2.067)"/></g><g stroke-width=".25"><g fill="#0c5c1d"><path d="m376.78 300.67c-.774-1.709-1.561-2.572-2.937-2.861-3.524-.244-6.303.363-7.409.85-1.199.694-4.994 3.17-5.397 4.879 2.872-.799 4.774-2.999 8.947-3.557 2.01-.676 4.834-.581 6.796.689" transform="translate(-26.78)"/><path d="m380.79 299.84c-6.462-3.216-10.742-7.695-11.988-14.86 8.185 5.294 12 11.561 11.988 14.86" transform="matrix(.99596.08979-.08979.99596 5.518-34.02)"/><g transform="translate(-26.78)"><path d="m380.79 299.84c-5.813-2.501-7.936-7.183-11.988-14.86 7.255 3.628 10.274 7.438 11.988 14.86"/><path d="m367.73 297.23c1.261-5.179-.94-12.801-4.725-16.543-.331 5.841.796 15.581 4.725 16.543"/></g><path d="m365.73 295.86c-1.081 4.595-13.08 4.681-16.627.401 3.617.811 11.548.967 16.627-.401" transform="translate(-26.78)"/><path d="m367.18 296.3c-3.034 3.496-18.577 2.145-19.303-.343 1.865-.651 18.428-1.228 19.303.343" transform="matrix(.97776.20972-.20972.97776 38.885-74.5)"/><path d="m361.46 291.25c2.162-4.27-3.784-17.784-6.162-17.676 1.405 10.11 3.946 14.703 6.162 17.676" transform="translate(-26.78)"/><g transform="translate(-26.78)"><path d="m357.57 287.68c-1.378-3.216-11.757-8.703-17.03-9.568 4.297 4.514 7.06 3.88 8.534 6.75 1.073 1.932 5.736 2.277 8.493 2.818"/><path d="m355.62 285.25c1.081-4.054.54-5.676-2.109-8.595-.27 4.27.271 5.946 2.109 8.595"/></g><path d="m351.73 280.55c2.918-1.891 1.135-11.566-1.46-14.27-.54 6.974-1.243 13.13 1.46 14.27" transform="matrix(1 0 0 1.0114-26.78-3.03)"/><path d="m346.54 273.41c5.03-1.73 1.134-11.08-.487-14.756-1.946 3.783 1.46 5.783.487 14.756" transform="translate(-26.78)"/><path d="m347.21 274.08c2.853-5.03 1.327-12.301-1.277-15.895-.408 5.234.42 12.905 1.277 15.895" transform="matrix(.24558-.96938.96938.24558-32.12 543.3)"/><use transform="matrix(-.99282.11963.11963.99282 706.88-47.34)" xlink:href="#A"/><use transform="matrix(-1 0 0 1 742.17 1.61)" xlink:href="#B"/><use transform="matrix(-1 0 0 1 741.22.258)" xlink:href="#0"/><path d="m343.21 270.95c3.326-4.534 1.917-10.276-1.093-14.695-1.112 2.939.765 6.594 1.093 14.695" transform="matrix(.66694-.74512.74512.66694-120.39 333)"/><use transform="matrix(-.99689-.07888-.07888.99689 759.02 34.23)" xlink:href="#1"/><path d="m343.56 270.9c3.128-1.766 2.297-10.687-2.604-14.873 1.604 7.334 2.791 9.468 2.604 14.873" transform="matrix(.81728.57624-.57624.81728 186.57-165.83)"/><path d="m343.93 270.68c2.95-2.357 1.155-10.408-4.679-15.03 2.382 6.403 4.701 8.312 4.679 15.03" transform="matrix(.81728.57624-.57624.81728 184.62-172.47)"/><path d="m342.84 273.75c-.528-2.324.474-3.896-.524-6.712-1.769-5.05.039-7.316-2.626-10.357-.948 9.895.251 14.564 3.15 17.07" transform="matrix(-.81728.57624.57624.81728 431.52-170.94)"/><path d="m348.31 277.66c-7.07-12.851-5.858-6.117-8.617-20.988-2.832 12.305 6.855 21.534 8.617 20.988" transform="matrix(-.81728.57624.57624.81728 434.06-182.93)"/><use transform="matrix(-.0162-.99987-.99987.0162 547.89 663.1)" xlink:href="#9"/><use transform="matrix(-1 0 0 1 741.09-1.46)" xlink:href="#2"/><use transform="matrix(-1 0 0 1 742.45-1.22)" xlink:href="#3"/><use transform="matrix(-1 0 0 1 740.61.63)" xlink:href="#4"/><use transform="matrix(-.97809-.20816-.20816.97809 777.13 88.72)" xlink:href="#5"/><use transform="matrix(-.99307-.11742-.11742.99307 762.52 50.17)" xlink:href="#6"/><use transform="matrix(-1 0 0 1 741.1-2.448)" xlink:href="#7"/><use transform="matrix(-.98963-.1436-.1436.98963 767.24 62.89)" xlink:href="#8"/></g><path fill="#6f8593" d="m374.1 288.35c16.942-16.572 31.673-30.935 55.24-45.741-38.15 29.721-36.976 32.04-53.03 46.957-.663-.553-1.547-.663-2.21-1.216" transform="translate(-26.78)"/><g fill="#6a0d06"><path d="m343.95 292.26l6.312 6.936 19.13-29.04 8.05-8.554-1.949-2.836-12.363 12.09-1.422 2.833-17.759 18.578" transform="translate(-26.78)"/><path d="m343.29 292.26l8.08 7.157 18.02-29.26 10.482-11.427-2.833-1.952-13.91 14.07-1.422 2.833-18.422 18.578" transform="matrix(-1 0 0 1 764.88.442)"/></g><path fill="#bbcdcd" d="m369.46 274.6c-.166-1.05-1.545-3.093 1.548-5.856-.074-1.473-1.583-3-2.763-3.756-.994 0-3.866 2.01-5.137 4.253-.719 1.566-1.087 3.996-.166 5.856.682 1.031 1.473 2.228 2.32 2.707.405.294 1.308.202 2.044-.111 1.16-.589 2.044-2.283 2.154-3.093" transform="matrix(-1 0 0 1 764.93.391)" id="C"/><path d="m409.48 224.97l14.11-14.237.845.034.293.94.453 1.307 1.671 1.571 22.03-20.663-20.72 22.601-.978.011-3.02-3.146-1.273.296-10.389 12.167-3.02-.881" transform="matrix(-1 0 0 1 766.29-1.675)"/><path d="m402 310.36c25.814-41.923 48.3-70.815 7.108-107.86-1.541-1.551-6.862-6.463-10.195-7.521-.464-3 1.81-7.74-4-8.132-2.471.131-3.691 1.014-3.641 3.245.005 1.734.921 2.493.449 4.04-.174.775-2.099 2.543-1.981 4.798.748 4.804 2.603 5.98 3.166 6.664 1.01 1 1.611 1.708 4.571 2.93.328.394 1.202 1.129 1.651 1.623 5.439 1.164 10.397.57 13.911 2.322 1.532.472 3.989 3.072 4.788 4.374 9.925 10.882 14.22 28.345-.956 46.782 3.04.249 10.316-12.207 11.978-22.785-2.325 15.777-7.471 21.287-10.02 26 5.098-3.396 9.201-15.355 10.156-17.812-4.04 21.768-24.973 48.646-38.14 54.29 11.92-2.764 19.917-14.643 24.16-18.899-4.13 8.518-12.625 20.572-12.999 25.941z" transform="translate(-26.78-2.212)"/><path fill="#6f8593" d="m374.1 288.35c16.5-16.682 42.832-41.873 55.907-44.636-20.367 13.148-38.3 30.826-53.697 45.852-.663-.553-1.547-.663-2.21-1.216" transform="matrix(-1 0 0 1 767.06 1.105)"/><path d="m408.07 226.08l15.517-15.345.845.034.293.94.453 1.307 1.671 1.571 22.03-20.663-20.72 22.601-.978.011-3.02-3.146-1.273.296-13.21 14.636-1.608-2.242" transform="translate(-25.442-1.675)"/><path fill="#e3cf6e" d="m368.36 218.74c.811-4.42 2.173-7.624 6.74-8.397 11.969-.516 23.06-.59 35.576-.332 3.572 2.836-.147 8.655-3.867 8.95 5.709 9.869 13.517 17.419 14.585 29.06.368 6.114-1.785 10.08-3.948 12.278-16.454.401-24.426 2.449-38.18 3.515-3.842.462-6.731-4.01-6.694-7.727.022-3.845 1.603-6.852 5.875-7.384 1.326-.144 3.172-.056 4.829-.019-3.204-9.575-15.578-20.918-14.916-29.941" transform="translate(-26.78)"/><path fill="#336446" d="m390.2 196.44c-1.42 4.56 2.148 8.476 2.711 9.16 1.01 1 1.666 1.819 4.626 3.041.328.394 4.564 2.809 5.17 3.381 4.505 1.181 6.898-.843 12.03.416-1.32-3.26-15.02-16.63-24.535-15.998" transform="translate(-27.02-1.251)"/><path fill="#402e08" d="m390.08 197.26c-1.38 2.255 2.265 7.655 2.828 8.339 1.01 1 1.666 1.819 4.626 3.041.328.394 1.795 1.136 2.01 1.395l3.88.71c-1.32-3.26-8.817-14.538-13.344-13.485" transform="translate(-26.78)"/></g><path d="m391.7 190.53l-.922.671 1.342.671-.42-1.342" transform="translate(-26.937-.978)"/><g stroke-width=".25"><path fill="#8c361d" d="m389.73 198.84c.748 4.804 2.537 6.111 3.14 6.758.968 1.039 1.705 1.702 4.665 3.041 1.188.98 1.639 1.254 2.558 1.747l3.134.466c-1.32-3.26-9.136-10.687-13.497-12.01" transform="translate(-26.78)"/><use transform="matrix(-1 0 0 1 738.15-.391)" xlink:href="#C"/><path fill="#d4be72" d="m371.67 289.9c-1.4 1.621-6.886 4.788-7.955 5.857-.884 1.178 1.215 2.799 2.541 2.983 2.357-1.768 4.714-4.199 6.849-5.634 2.979-2.752 2.782-2.978 7.625-1.548-.7-2.578-5.598-4.603-8.397-5.192-4.715.515-6.888 2.467-7.845 5.192 3.13-2.357 5.267-3.499 7.182-1.658" transform="translate(-26.78)"/><g fill="#fff"><path d="m368.79 274.59c-.088-.504-.371-.776-.379-1.766-1.033 1.486-1.526 2.242-2.869 4.129.484.646 1.182.341 1.84.028.613-.393 1.493-1.659 1.408-2.391" transform="matrix(-1 0 0 1 765.07.332)" id="D"/><use transform="matrix(-1 0 0 1 738.29-.332)" xlink:href="#D"/></g><path fill="#d4be72" d="m371.67 289.9c-1.4 1.621-6.886 4.788-7.955 5.857-.884 1.178 1.215 2.799 2.541 2.983 2.357-1.768 4.714-4.199 6.849-5.634 2.441-2.932 3.5-2.799 7.625-1.548-.7-2.578-5.598-4.603-8.397-5.192-4.715.515-6.888 2.467-7.845 5.192 3.13-2.357 5.267-3.499 7.182-1.658" transform="matrix(-1 0 0 1 766.07 1.105)"/><g transform="translate(-26.78)"><path d="m383.2 248.72c1.172 1.68 2.148 5.39 2.305 7.773.208 4.609-4.467 6.953-6.06 6.758-3.02-.365-5.495-2.643-5.742-6.172.481-4.114 2.213-6.394 5.078-6.563 1.876.326 3.985 2.566 3.985 5.274-.052 2.24-.69 4.479-2.071 4.531-3.359-.26-3.164-2.2-3.711-3.242-.143-.768-.263-2.847.118-3.359.501-.622 2.812-1.445 3.944.156 1.224 1.249-1.809-.664-3.01.194-.612.873-.208 2.292-.039 2.852.209.56.183 2.409 2.5 2.305.847-.129 1.146-1.863 1.211-3.555.131-1.158-1.497-3.489-3.125-3.984-1.133-.182-3.906 2.135-3.789 5.391.222 3.698 3.255 4.974 4.883 4.726 1.653-.442 5.104-1.744 4.961-5.429-.365-4.063-1.121-5.743-2.423-7.696.508 0 .47 0 .978.04"/><path d="m407.42 220.01l-.704-1.133h-15.16c-4.297.391-10.841 1.042-13.09 2.02-5.768 2.839-7.339-2.174-7.652-3.424-.335-1.146.381-3.216 1.501-3.945.443-.847 2.919-1.774 4.416-1.214 1.693.716 2.429 2.853 2.159 4.299-.508 2.149-4.574 3.476-3.128 1.289.182-.961.914-3.633-.375-5.547l-1.18.234c1.64 3.415.135 5.109.057 6.085-.077 1.641 1.325 1.498 2.411 1.456.742-.039 1.994-.978 2.502-1.486.611-.533.705-1.567.78-2.772.192-3.18-2.721-5.443-4.687-5.157-5.976 1.485-6.12 6.471-4.766 9.06.755 1.302 1.628 2.097 3.086 2.852 1.224.365 3.075.156 4.531-.391 2.883-1.035 7.555-1.953 13.376-2.096l15.922-.13"/></g></g></g></g><g fill="#8c361d" stroke-width="1.25"><g transform="matrix(.97231 0 .49155.87501-318.76-243.6)"><g transform="translate(-8.839 144.07)"><path d="m400.5 402.91l.239 2.137-.21.023c-.179-.479-.357-.817-.532-1.013-.175-.201-.402-.351-.681-.449-.154-.053-.417-.059-.785-.018l-.589.066.681 6.091c.045.403.094.653.148.749.058.096.155.176.292.239.14.059.322.076.548.05l.262-.029.024.216-4.134.462-.024-.216.261-.029c.23-.026.409-.087.54-.184.095-.066.165-.168.208-.306.032-.098.026-.345-.018-.741l-.68-6.091-.571.064c-.532.059-.905.215-1.122.466-.302.353-.465.825-.489 1.417l-.222.025-.239-2.137 7.093-.792"/><path d="m379.71 405.7l.359 3.214.157-.017c.5-.056.847-.254 1.036-.594.191-.339.282-.819.276-1.44l.221-.024.461 4.134-.22.025c-.097-.445-.238-.803-.421-1.073-.18-.271-.374-.445-.583-.519-.209-.079-.502-.098-.879-.056l.249 2.226c.048.434.096.698.142.791.049.093.128.165.236.216.107.05.274.063.499.038l.472-.053c.738-.082 1.309-.318 1.713-.71.408-.391.67-.947.787-1.667l.215-.024-.075 2.549-6.825.762-.024-.216.263-.029c.228-.025.409-.087.539-.184.095-.066.162-.167.202-.305.032-.098.026-.345-.018-.741l-.581-5.194c-.039-.357-.074-.576-.102-.655-.054-.132-.138-.228-.251-.291-.16-.092-.368-.124-.623-.095l-.262.029-.024-.215 6.608-.738.261 2.334-.22.025c-.177-.558-.382-.949-.616-1.175-.229-.226-.537-.377-.922-.451-.226-.045-.637-.035-1.235.032l-.815.091"/><path d="m369.04 414.2l.024.216-4.128.461-.024-.216.262-.029c.229-.026.409-.087.539-.184.095-.066.162-.167.202-.305.033-.099.026-.345-.018-.741l-.58-5.195c-.045-.403-.094-.653-.148-.75-.054-.095-.152-.173-.292-.232-.137-.064-.316-.083-.537-.059l-.262.03-.024-.215 4.128-.461.024.215-.261.029c-.23.025-.409.087-.54.184-.095.066-.164.168-.207.307-.033.097-.027.345.017.74l.58 5.195c.045.404.095.654.149.749.058.096.156.176.292.239.14.059.321.076.543.051l.261-.029"/><path d="m363.96 412.18l.013 2.805-7.01.783-.024-.215.262-.03c.229-.025.409-.086.54-.184.094-.066.162-.167.201-.305.032-.098.027-.345-.017-.741l-.581-5.194c-.045-.404-.095-.654-.149-.75s-.151-.174-.29-.232c-.137-.065-.317-.084-.538-.059l-.262.029-.024-.215 4.21-.47.024.215-.344.038c-.228.026-.408.087-.539.184-.095.066-.164.168-.208.307-.032.097-.026.345.019.741l.561 5.03c.046.405.097.66.157.768.058.103.159.174.301.214.101.024.338.015.711-.026l.658-.074c.419-.047.76-.16 1.022-.338.264-.179.479-.439.645-.78.17-.341.311-.832.425-1.474l.238-.027"/></g><path d="m401.74 553.85l-.024-.215.261-.03c.23-.025.401-.08.513-.163.116-.088.196-.196.24-.327.026-.086.017-.332-.029-.74l-.58-5.194c-.045-.404-.095-.654-.149-.75s-.15-.174-.291-.232c-.137-.065-.316-.084-.538-.059l-.261.029-.024-.215 3.534-.394c.944-.106 1.717-.062 2.32.129.738.237 1.323.652 1.755 1.249.436.595.699 1.295.789 2.099.062.555.03 1.078-.096 1.568-.127.485-.315.897-.564 1.236-.249.334-.55.615-.902.843-.349.223-.785.416-1.31.577-.231.072-.601.138-1.11.195l-3.534.394m2.178-7.784l.688 6.161c.037.326.075.524.114.595.039.07.098.12.176.151.112.046.266.058.464.036.648-.072 1.118-.348 1.411-.829.399-.65.528-1.604.387-2.861-.113-1.014-.362-1.805-.748-2.376-.305-.445-.665-.731-1.081-.857-.293-.09-.763-.096-1.411-.02"/><path d="m397.68 552.03l-2.79.311-.246.807c-.08.267-.111.485-.092.652.024.221.132.374.322.459.112.051.376.069.79.053l.025.216-2.627.293-.024-.215c.278-.075.499-.217.66-.427.161-.215.341-.638.542-1.27l2.121-6.615.11-.013 3.57 6.157c.341.583.607.944.8 1.084.145.105.34.155.583.147l.024.216-3.82.427-.025-.216.157-.018c.308-.034.518-.101.633-.2.078-.071.11-.165.097-.282-.007-.07-.026-.141-.058-.211-.012-.034-.086-.174-.223-.418l-.529-.937m-.247-.408l-1.48-2.589-.907 2.855 2.387-.266"/><path d="m379.17 552.73l.247 2.212c.048.427.103.695.166.802.067.102.17.179.309.231.139.051.389.056.751.015l.024.216-4.04.452-.024-.216c.365-.041.608-.101.728-.181.125-.085.206-.185.245-.299.041-.114.039-.386-.009-.813l-.572-5.124c-.048-.428-.105-.692-.171-.794-.063-.108-.165-.187-.304-.238s-.39-.057-.751-.017l-.024-.214 3.669-.41c.955-.107 1.661-.119 2.118-.036.457.082.847.286 1.166.612.318.323.505.722.558 1.199.065.583-.091 1.087-.468 1.515-.241.27-.596.493-1.063.667l2.197 2.461c.287.317.488.513.602.587.173.102.364.147.575.136l.024.216-2.486.277-2.946-3.314-.519.058m-.433-3.873l.387 3.459.332-.037c.539-.06.937-.154 1.195-.281.256-.13.446-.333.569-.606.126-.277.166-.623.119-1.039-.067-.602-.259-1.03-.574-1.286-.311-.256-.779-.35-1.405-.28l-.623.07"/><path d="m365.33 553.68c.769.091 1.318.244 1.649.458.474.305.742.739.805 1.302.067.593-.117 1.111-.552 1.553-.534.536-1.359.865-2.477.99l-4.01.448-.024-.215c.365-.041.607-.102.728-.181.124-.086.205-.185.244-.299.042-.115.039-.386-.009-.813l-.572-5.125c-.048-.427-.105-.691-.171-.793-.064-.108-.164-.187-.304-.238-.139-.051-.389-.057-.75-.017l-.024-.215 3.784-.422c.905-.101 1.555-.092 1.95.029.394.117.718.325.971.622.253.295.399.622.44.984.042.379-.057.735-.3 1.065-.242.325-.701.614-1.376.867m-2.138.079c.551-.061.95-.169 1.196-.322.25-.154.433-.35.548-.592.114-.241.152-.536.113-.885-.039-.35-.141-.627-.305-.833-.161-.209-.376-.359-.646-.446-.269-.088-.687-.098-1.253-.031l.347 3.109m.051.455l.283 2.533.027.292c.023.209.094.363.21.459.121.093.286.127.496.104.31-.035.587-.134.832-.299.249-.169.429-.392.539-.667.11-.28.147-.581.111-.903-.041-.369-.163-.689-.367-.962-.203-.276-.461-.455-.773-.538-.311-.083-.765-.09-1.358-.019"/></g><g transform="matrix(.97231 0 .45806.87501-294.02-255.34)"><g transform="translate(-8.839 144.07)"><path d="m384.01 417.29l.359 3.214.158-.017c.501-.056.846-.254 1.036-.594.19-.339.281-.819.276-1.44l.221-.024.462 4.134-.222.025c-.097-.445-.237-.803-.42-1.073-.18-.271-.374-.444-.583-.519-.21-.079-.502-.098-.879-.055l.248 2.225c.049.434.097.698.142.791.05.093.129.165.237.216.108.05.274.063.499.038l.472-.053c.737-.082 1.309-.318 1.713-.709.408-.392.671-.948.786-1.668l.216-.024-.075 2.549-6.825.762-.024-.215.262-.03c.229-.025.409-.087.539-.184.096-.066.163-.167.203-.305.032-.098.025-.345-.019-.741l-.58-5.194c-.04-.357-.073-.576-.102-.655-.054-.132-.137-.228-.251-.291-.159-.092-.367-.124-.624-.095l-.262.029-.024-.215 6.61-.738.261 2.335-.222.024c-.176-.558-.382-.949-.615-1.175-.23-.226-.537-.376-.923-.451-.225-.045-.637-.035-1.234.032l-.816.091"/><path d="m364.97 418.96l3.698-.413-.421 1.567-3.11.348-.209.819c1.345-.099 2.413.12 3.205.656.65.443 1.018 1.043 1.102 1.799.054.486-.031.977-.254 1.473-.224.493-.572.893-1.045 1.202-.473.304-1.01.49-1.606.557-.645.072-1.154.007-1.525-.195-.26-.144-.403-.325-.427-.542-.019-.167.027-.322.137-.464.114-.142.254-.223.421-.242.152-.017.309-.003.471.042s.446.178.852.4c.255.137.471.226.649.27.126.033.264.041.415.024.319-.036.576-.182.771-.439.199-.259.281-.551.245-.877-.077-.684-.481-1.2-1.212-1.551-.73-.351-1.616-.468-2.656-.351-.106.011-.263.031-.472.057l.971-4.14"/><path d="m361.06 419.23l.721 6.458c.054.485.11.793.168.924.058.127.158.226.304.296s.368.089.666.056l.181-.021.024.216-4.158.464-.024-.215.21-.024c.338-.037.574-.103.709-.197.135-.093.22-.211.256-.352.035-.142.025-.461-.031-.958l-.457-4.094c-.041-.365-.084-.59-.129-.675-.045-.09-.119-.16-.223-.211-.101-.056-.213-.076-.337-.063-.198.023-.432.111-.702.267l-.128-.198 2.758-1.651.192-.022"/></g><path d="m364.3 570.11l-.024-.215.262-.03c.229-.025.4-.08.512-.163.116-.088.197-.197.242-.327.025-.086.015-.332-.031-.74l-.58-5.194c-.045-.404-.094-.654-.148-.75s-.151-.174-.292-.232c-.137-.065-.316-.084-.536-.059l-.263.029-.024-.215 3.535-.394c.943-.106 1.717-.062 2.32.129.738.236 1.322.652 1.754 1.249.436.595.7 1.295.789 2.099.062.555.03 1.078-.096 1.568-.126.485-.315.897-.564 1.236-.249.334-.55.615-.902.843-.348.223-.784.416-1.309.577-.232.072-.602.138-1.11.194l-3.535.395m2.179-7.784l.688 6.161c.036.326.074.524.113.595.04.07.098.12.176.151.112.046.266.058.465.036.648-.072 1.118-.348 1.411-.83.398-.649.528-1.603.388-2.86-.114-1.014-.363-1.805-.75-2.376-.305-.445-.665-.731-1.08-.857-.292-.09-.763-.096-1.411-.02"/></g><g transform="matrix(.97231 0 .5011.87501-347.09-263.59)"><g transform="translate(-8.839 144.07)"><path d="m432.07 424l.359 3.214.157-.017c.501-.056.846-.254 1.036-.594.191-.339.282-.819.276-1.44l.221-.024.461 4.134-.22.025c-.097-.445-.238-.803-.421-1.073-.18-.271-.374-.444-.583-.519-.209-.079-.502-.098-.879-.056l.249 2.226c.048.434.096.698.142.791.049.093.128.165.236.216.107.05.274.063.499.038l.472-.053c.738-.082 1.308-.318 1.713-.71.408-.391.67-.947.787-1.667l.215-.024-.075 2.549-6.824.762-.025-.216.262-.029c.229-.025.409-.087.54-.184.095-.066.162-.167.201-.305.032-.098.027-.345-.017-.741l-.58-5.194c-.04-.357-.075-.576-.103-.655-.054-.132-.138-.228-.251-.291-.16-.092-.368-.124-.624-.095l-.261.029-.024-.215 6.609-.738.26 2.334-.22.025c-.177-.558-.382-.949-.616-1.175-.229-.226-.537-.377-.922-.451-.226-.045-.637-.035-1.235.032l-.815.091"/><path d="m407.21 431.58l1.561-5.445 3.215-.359.024.215-.256.029c-.233.026-.415.087-.545.184-.091.066-.158.166-.203.301-.032.098-.026.343.018.734l.581 5.207c.046.403.095.653.149.749.054.097.151.176.292.239.14.059.32.076.542.051l.256-.028.024.215-4.123.461-.024-.216.256-.028c.234-.027.415-.088.546-.185.091-.066.158-.167.202-.305.032-.099.026-.346-.018-.741l-.653-5.853-2.224 7.542-.14.015-3.874-6.807.621 5.561c.044.388.08.626.11.713.072.188.199.335.379.441.185.102.457.132.818.091l.024.216-2.701.302-.025-.216.082-.009c.174-.015.335-.061.48-.136.144-.079.249-.173.316-.283s.11-.258.133-.445c.003-.044-.015-.242-.055-.595l-.558-4.997c-.044-.4-.094-.646-.147-.738-.054-.096-.151-.174-.291-.232-.141-.064-.322-.083-.543-.058l-.25.028-.024-.215 3.226-.36 2.799 4.957"/><path d="m396.29 427.99l.359 3.214.157-.017c.501-.056.846-.254 1.037-.594.19-.339.281-.819.276-1.439l.22-.025.462 4.134-.221.025c-.097-.445-.237-.803-.42-1.073-.181-.271-.375-.444-.584-.519-.209-.079-.502-.097-.878-.055l.248 2.225c.049.434.097.698.142.791.05.093.128.165.237.216.107.05.273.063.499.038l.472-.053c.737-.082 1.308-.318 1.713-.709.408-.392.67-.948.786-1.668l.215-.024-.074 2.549-6.825.762-.024-.215.261-.03c.23-.025.409-.087.54-.184.095-.066.163-.167.202-.305.032-.098.026-.345-.018-.741l-.58-5.194c-.04-.357-.074-.576-.102-.655-.054-.132-.138-.228-.251-.291-.16-.092-.368-.124-.625-.095l-.261.029-.024-.215 6.609-.738.261 2.335-.221.024c-.177-.558-.382-.949-.615-1.175-.23-.226-.537-.376-.923-.451-.225-.045-.637-.035-1.235.032l-.815.091"/><path d="m393.57 435.61l.024.216-4.128.461-.024-.216.262-.029c.229-.026.409-.087.539-.184.095-.066.163-.167.202-.306.033-.098.026-.345-.018-.74l-.58-5.195c-.045-.403-.094-.653-.148-.75-.054-.096-.151-.173-.292-.232-.137-.064-.316-.084-.537-.059l-.262.029-.024-.214 4.128-.461.024.214-.262.03c-.229.025-.409.087-.539.184-.095.066-.164.168-.207.306-.033.098-.027.346.017.741l.58 5.195c.045.403.095.653.149.749.057.096.155.176.292.239.14.059.321.076.542.051l.262-.029"/><path d="m387.92 428.47l.239 2.136-.21.024c-.179-.479-.357-.818-.532-1.014-.175-.2-.402-.35-.681-.449-.155-.053-.417-.059-.786-.018l-.588.066.68 6.091c.045.404.096.654.149.749.058.097.155.176.292.239.14.059.323.076.548.051l.262-.029.024.215-4.134.462-.024-.216.261-.029c.23-.025.409-.087.54-.184.095-.066.165-.167.208-.306.032-.098.026-.345-.018-.74l-.68-6.092-.571.064c-.532.06-.905.215-1.122.467-.301.352-.465.824-.489 1.417l-.222.024-.239-2.136 7.093-.792"/><path d="m368.45 431.1l.359 3.214.157-.017c.501-.056.847-.254 1.037-.594.19-.339.282-.819.276-1.439l.22-.025.462 4.134-.221.025c-.097-.445-.237-.803-.42-1.073-.18-.271-.374-.444-.583-.519-.21-.079-.502-.097-.879-.055l.248 2.225c.049.434.097.698.142.791.05.093.128.165.237.216.107.05.274.063.499.038l.472-.053c.737-.082 1.309-.318 1.713-.709.408-.392.67-.948.787-1.668l.215-.024-.075 2.549-6.825.762-.024-.215.262-.03c.229-.025.409-.087.539-.184.096-.066.163-.167.203-.305.032-.098.026-.345-.019-.741l-.58-5.194c-.04-.357-.074-.576-.102-.655-.054-.132-.138-.228-.251-.291-.159-.092-.368-.124-.623-.095l-.263.029-.024-.215 6.609-.738.261 2.335-.221.024c-.177-.558-.382-.949-.615-1.175-.23-.226-.537-.376-.923-.451-.225-.045-.637-.035-1.234.032l-.816.091"/><path d="m364.1 430.94l.357 2.625-.238.026c-.186-.647-.524-1.146-1.01-1.496-.484-.354-.982-.504-1.495-.447-.396.045-.698.187-.908.427-.205.235-.293.49-.262.766.019.175.077.325.175.452.133.169.333.33.601.481.197.108.644.288 1.34.54.975.351 1.647.711 2.01 1.078.363.368.573.812.631 1.333.074.66-.121 1.257-.583 1.793-.46.53-1.086.84-1.878.928-.248.028-.485.029-.713.003-.226-.026-.515-.089-.864-.192-.195-.057-.352-.078-.474-.065-.1.011-.203.062-.307.152-.103.09-.181.219-.233.387l-.216.024-.333-2.982.216-.024c.264.819.664 1.423 1.198 1.811.538.385 1.089.545 1.652.482.434-.049.767-.205.997-.471.234-.265.332-.556.297-.87-.021-.187-.091-.361-.211-.525-.117-.164-.285-.312-.504-.445-.219-.136-.6-.302-1.14-.497-.758-.274-1.308-.516-1.65-.729-.342-.214-.616-.465-.821-.752-.201-.288-.322-.617-.364-.986-.07-.629.101-1.19.514-1.684.412-.494.97-.781 1.673-.859.256-.029.508-.026.755.001.189.026.419.088.694.187.278.095.469.137.574.125.1-.011.176-.051.228-.12.051-.068.089-.224.113-.466l.175-.02"/></g><path d="m367.97 578.16l.244 2.189c.048.428.103.695.166.802.067.102.169.179.309.231.143.05.393.056.75.016l.024.216-4.01.448-.024-.216c.366-.041.609-.101.729-.181.124-.085.205-.185.244-.299.042-.114.039-.386-.008-.813l-.573-5.124c-.047-.428-.104-.692-.171-.794-.063-.108-.165-.187-.304-.238s-.389-.057-.751-.017l-.024-.214 3.442-.385c1.134-.126 1.969-.015 2.507.333.538.349.841.826.909 1.431.057.513-.053.969-.33 1.37-.277.4-.689.698-1.233.892-.366.135-.998.253-1.894.353m-.432-3.866l.381 3.412c.129-.007.226-.013.293-.021.473-.053.823-.234 1.047-.541.225-.312.304-.764.238-1.353-.065-.587-.241-1-.528-1.244-.286-.244-.684-.336-1.193-.28l-.238.027"/><path d="m409.08 572.94c.768.091 1.319.244 1.649.459.474.304.743.738.806 1.301.066.593-.118 1.111-.552 1.553-.534.536-1.359.865-2.477.99l-4.01.448-.025-.215c.365-.041.608-.102.729-.181.124-.086.205-.185.243-.299.043-.115.04-.386-.008-.813l-.572-5.125c-.048-.427-.105-.691-.172-.793-.063-.108-.163-.187-.303-.238-.139-.051-.39-.057-.75-.017l-.024-.215 3.784-.422c.904-.101 1.555-.092 1.949.029.395.117.718.325.971.622.254.295.4.622.44.984.043.379-.056.735-.299 1.065-.243.325-.701.614-1.377.867m-2.137.079c.551-.061.95-.169 1.196-.322.25-.154.432-.351.547-.592.114-.241.153-.536.114-.885-.039-.35-.142-.627-.306-.833-.161-.209-.376-.359-.645-.446-.269-.088-.687-.098-1.253-.031l.347 3.109m.051.455l.283 2.533.026.292c.024.209.094.363.211.459.12.093.285.127.495.104.31-.035.588-.134.833-.299.248-.169.428-.392.538-.667.111-.28.148-.581.112-.903-.041-.369-.164-.689-.367-.962-.204-.276-.462-.455-.774-.538-.311-.083-.764-.09-1.357-.019"/><path d="m414.96 572.88l.247 2.213c.048.427.103.694.166.801.067.102.17.179.309.231.139.051.389.056.751.016l.024.216-4.04.451-.024-.216c.365-.04.608-.101.729-.181.124-.085.205-.185.244-.299.041-.114.039-.385-.008-.813l-.573-5.124c-.048-.427-.105-.691-.171-.794-.063-.107-.165-.187-.304-.237-.139-.051-.39-.057-.751-.017l-.024-.215 3.669-.41c.956-.106 1.662-.119 2.119-.036s.846.287 1.165.612c.319.323.505.723.558 1.2.065.582-.091 1.087-.467 1.514-.242.271-.596.493-1.064.667l2.197 2.462c.287.317.488.513.602.586.173.103.364.148.575.136l.024.216-2.486.278-2.946-3.315-.519.058m-.433-3.873l.387 3.46.332-.037c.539-.06.937-.154 1.195-.282.256-.13.446-.332.569-.606.126-.276.166-.623.12-1.038-.068-.602-.259-1.031-.575-1.286-.311-.256-.779-.35-1.405-.28l-.623.069"/></g><g transform="matrix(.97231 0 .30367.87501-221.41-275.64)"><g transform="translate(-8.839 144.07)"><path d="m401.16 438.9l.721 6.458c.054.485.111.793.168.924.057.128.159.226.304.296.146.071.368.089.667.056l.181-.021.024.216-4.158.465-.025-.216.21-.024c.338-.037.574-.103.71-.196.134-.094.22-.212.255-.353.036-.142.025-.461-.03-.958l-.458-4.094c-.04-.365-.084-.589-.128-.675-.046-.09-.12-.16-.224-.21-.101-.057-.213-.077-.337-.063-.198.022-.433.11-.702.266l-.128-.198 2.758-1.651.192-.022"/><path d="m397.15 447.5l-4.647.52-.014-.129c1.235-1.855 1.972-3.093 2.209-3.713.241-.62.33-1.21.268-1.769-.046-.408-.21-.732-.492-.971-.283-.244-.606-.346-.971-.305-.598.067-1.029.418-1.292 1.053l-.224-.052c.126-.768.384-1.355.77-1.76.388-.405.861-.638 1.42-.701.4-.044.775.007 1.126.157.35.149.637.377.86.682.222.301.35.594.381.877.058.517-.028 1.057-.255 1.62-.312.763-1.056 1.86-2.233 3.293l1.707-.191c.419-.047.688-.095.809-.144.124-.049.223-.119.295-.21.072-.094.159-.282.261-.565l.21-.024-.188 2.332"/><path d="m383.27 440.9l.721 6.458c.055.485.111.793.168.924.057.128.159.226.305.296.145.071.367.089.666.056l.181-.02.024.215-4.158.465-.024-.216.209-.023c.338-.038.574-.104.71-.197.134-.094.22-.212.255-.353.036-.142.025-.461-.03-.957l-.457-4.095c-.041-.365-.084-.589-.129-.675-.045-.089-.12-.16-.224-.21-.101-.057-.213-.077-.337-.063-.198.022-.432.11-.702.266l-.127-.198 2.757-1.651.192-.022"/><path d="m371.76 442.81l.359 3.214.158-.018c.501-.056.846-.253 1.035-.593.191-.339.282-.82.276-1.44l.222-.025.462 4.135-.222.025c-.097-.445-.237-.803-.421-1.073-.179-.271-.373-.445-.582-.519-.21-.079-.503-.098-.879-.056l.248 2.225c.049.435.096.699.142.792.05.093.129.164.236.216.109.05.275.063.5.038l.472-.053c.737-.083 1.308-.318 1.713-.71.408-.391.671-.947.786-1.667l.216-.024-.076 2.549-6.824.762-.024-.216.262-.029c.229-.026.409-.087.539-.184.095-.066.163-.167.202-.305.033-.099.026-.345-.018-.741l-.58-5.195c-.04-.356-.073-.575-.102-.654-.054-.132-.138-.228-.251-.291-.159-.092-.367-.124-.624-.096l-.262.03-.024-.215 6.61-.738.261 2.334-.222.025c-.176-.558-.382-.949-.615-1.175-.23-.226-.537-.377-.923-.451-.225-.046-.637-.035-1.234.032l-.816.091"/></g><path d="m352.05 595.63l-.024-.216.262-.029c.229-.025.4-.08.512-.163.116-.088.197-.197.241-.328.026-.085.016-.331-.03-.739l-.58-5.194c-.045-.404-.094-.654-.148-.751-.054-.095-.151-.173-.292-.232-.137-.064-.316-.083-.537-.059l-.262.03-.024-.215 3.535-.395c.943-.105 1.717-.062 2.32.13.738.236 1.322.652 1.754 1.249.436.595.699 1.295.789 2.099.062.554.03 1.077-.097 1.567-.125.485-.314.898-.563 1.237-.249.333-.55.614-.902.843-.348.223-.784.416-1.309.577-.232.072-.602.137-1.11.194l-3.535.395m2.178-7.784l.688 6.161c.037.326.075.524.114.595.04.07.098.12.176.15.112.047.266.059.465.037.648-.073 1.118-.348 1.411-.83.398-.649.528-1.603.387-2.861-.113-1.013-.362-1.804-.749-2.375-.305-.445-.665-.732-1.08-.858-.293-.09-.763-.095-1.412-.019"/><path d="m380.97 587.88c.6.345 1.027.683 1.28 1.012.257.325.41.715.461 1.169.071.637-.109 1.204-.542 1.7-.428.491-1.054.783-1.877.875-.781.088-1.405-.037-1.876-.374-.469-.337-.735-.782-.797-1.337-.047-.424.034-.808.243-1.153.212-.347.591-.683 1.136-1.012-.678-.408-1.123-.753-1.336-1.036-.209-.284-.335-.625-.38-1.024-.059-.529.113-1.017.514-1.467.405-.454.999-.725 1.779-.812.754-.084 1.352.03 1.795.342.447.307.698.71.754 1.207.042.373-.032.715-.221 1.027-.186.307-.497.602-.933.883m-.477-.248c.123-.211.205-.439.249-.688.042-.249.048-.516.015-.803-.056-.505-.207-.88-.455-1.123-.186-.187-.423-.265-.71-.233-.26.029-.471.149-.632.359-.161.207-.227.45-.196.729.032.284.165.567.402.852.24.28.682.582 1.327.907m-1.027 1.359c-.108.122-.183.23-.222.325-.063.145-.111.351-.144.618-.033.266-.034.542-.002.825.041.365.122.667.243.905.12.234.271.396.455.486.187.088.372.123.553.103.284-.032.511-.162.682-.389.171-.232.236-.528.196-.889-.084-.753-.671-1.414-1.761-1.984"/></g></g></svg>