<svg xmlns="http://www.w3.org/2000/svg" viewBox="0 0 640 480"><defs><clipPath id="clipPath3395" clipPathUnits="userSpaceOnUse"><path fill-opacity=".67" d="m-89.048,0h682.67v512h-682.67z"/></clipPath></defs><g clip-path="url(#clipPath3395)" transform="matrix(.9375 0 0 .9375 83.483 0)"><path fill="#ba0000" fill-rule="evenodd" stroke-width="1.25" d="m-618-512h731.43v512h-731.43z" transform="scale(-1)"/><g transform="matrix(.68808 0 0 .68808 -123.29 4.5459)"><g transform="translate(6.25 -3.75)"><g fill-rule="evenodd"><path fill="#fff" d="m524.45,357.28s-75.02-32.301-64.255-116c10.421-40.29 28.828-67.727 62.17-82.661 15.629-4.863 31.607-6.947 47.93-8.336-4.284,4.052-7.872,8.104-9.724,13.198-3.59,9.146-.927,17.945 3.819,26.743 6.02,10.188 9.607,20.723 10.766,34.384 2.199,19.218-6.02,37.743-21.186,48.973-9.61,7.409-20.954,9.956-30.217,18.407-7.177,7.063-11.576,14.126-13.197,26.396-.232,23.386 6.137,26.629 13.894,38.9z"/><path fill="#ba0000" stroke="#000" stroke-width="2.931" d="m510.21,236.18v-.347"/></g><path fill="none" stroke="#ba0000" stroke-width="2.931" d="m514.95,348.59c-29.18-25.82-26.63-90.76-4.4-112.41"/><path fill="#ba0000" fill-rule="evenodd" d="m569.1,365.81 21.94,67.35-57.27-41.68-57.27,41.67 21.95-67.34-57.33-41.6 70.83,.07 21.83-67.38 21.83,67.38 70.83-.05z" transform="matrix(.13567 -.03068 .02698 .12909 441.38 191.89)"/></g><g transform="matrix(.29302 .95611 -.95611 .29302 725 -258.13)"><g fill-rule="evenodd"><path fill="#fff" d="m524.45,357.28s-75.02-32.301-64.255-116c10.421-40.29 28.828-67.727 62.17-82.661 15.629-4.863 31.607-6.947 47.93-8.336-4.284,4.052-7.872,8.104-9.724,13.198-3.59,9.146-.927,17.945 3.819,26.743 6.02,10.188 9.607,20.723 10.766,34.384 2.199,19.218-6.02,37.743-21.186,48.973-9.61,7.409-20.954,9.956-30.217,18.407-7.177,7.063-11.576,14.126-13.197,26.396-.232,23.386 6.137,26.629 13.894,38.9z"/><path fill="#ba0000" stroke="#000" stroke-width="2.931" d="m510.21,236.18v-.347"/></g><path fill="none" stroke="#ba0000" stroke-width="2.931" d="m514.95,348.59c-29.18-25.82-26.63-90.76-4.4-112.41"/><path fill="#ba0000" fill-rule="evenodd" d="m569.1,365.81 21.94,67.35-57.27-41.68-57.27,41.67 21.95-67.34-57.33-41.6 70.83,.07 21.83-67.38 21.83,67.38 70.83-.05z" transform="matrix(.13567 -.03068 .02698 .12909 441.38 191.89)"/></g><g transform="matrix(-.81354 .5815 -.5815 -.81354 1177.1 339.55)"><g fill-rule="evenodd"><path fill="#fff" d="m524.45,357.28s-75.02-32.301-64.255-116c10.421-40.29 28.828-67.727 62.17-82.661 15.629-4.863 31.607-6.947 47.93-8.336-4.284,4.052-7.872,8.104-9.724,13.198-3.59,9.146-.927,17.945 3.819,26.743 6.02,10.188 9.607,20.723 10.766,34.384 2.199,19.218-6.02,37.743-21.186,48.973-9.61,7.409-20.954,9.956-30.217,18.407-7.177,7.063-11.576,14.126-13.197,26.396-.232,23.386 6.137,26.629 13.894,38.9z"/><path fill="#ba0000" stroke="#000" stroke-width="2.931" d="m510.21,236.18v-.347"/></g><path fill="none" stroke="#ba0000" stroke-width="2.931" d="m514.95,348.59c-29.18-25.82-26.63-90.76-4.4-112.41"/><path fill="#ba0000" fill-rule="evenodd" d="m569.1,365.81 21.94,67.35-57.27-41.68-57.27,41.67 21.95-67.34-57.33-41.6 70.83,.07 21.83-67.38 21.83,67.38 70.83-.05z" transform="matrix(.13567 -.03068 .02698 .12909 441.38 191.89)"/></g><g transform="matrix(-.78657 -.6175 .6175 -.78657 732.78 966.96)"><g fill-rule="evenodd"><path fill="#fff" d="m524.45,357.28s-75.02-32.301-64.255-116c10.421-40.29 28.828-67.727 62.17-82.661 15.629-4.863 31.607-6.947 47.93-8.336-4.284,4.052-7.872,8.104-9.724,13.198-3.59,9.146-.927,17.945 3.819,26.743 6.02,10.188 9.607,20.723 10.766,34.384 2.199,19.218-6.02,37.743-21.186,48.973-9.61,7.409-20.954,9.956-30.217,18.407-7.177,7.063-11.576,14.126-13.197,26.396-.232,23.386 6.137,26.629 13.894,38.9z"/><path fill="#ba0000" stroke="#000" stroke-width="2.931" d="m510.21,236.18v-.347"/></g><path fill="none" stroke="#ba0000" stroke-width="2.931" d="m514.95,348.59c-29.18-25.82-26.63-90.76-4.4-112.41"/><path fill="#ba0000" fill-rule="evenodd" d="m569.1,365.81 21.94,67.35-57.27-41.68-57.27,41.67 21.95-67.34-57.33-41.6 70.83,.07 21.83-67.38 21.83,67.38 70.83-.05z" transform="matrix(.13567 -.03068 .02698 .12909 441.38 191.89)"/></g><g transform="matrix(.32107 -.94705 .94705 .32107 25.287 742.5)"><g fill-rule="evenodd"><path fill="#fff" d="m524.45,357.28s-75.02-32.301-64.255-116c10.421-40.29 28.828-67.727 62.17-82.661 15.629-4.863 31.607-6.947 47.93-8.336-4.284,4.052-7.872,8.104-9.724,13.198-3.59,9.146-.927,17.945 3.819,26.743 6.02,10.188 9.607,20.723 10.766,34.384 2.199,19.218-6.02,37.743-21.186,48.973-9.61,7.409-20.954,9.956-30.217,18.407-7.177,7.063-11.576,14.126-13.197,26.396-.232,23.386 6.137,26.629 13.894,38.9z"/><path fill="#ba0000" stroke="#000" stroke-width="2.931" d="m510.21,236.18v-.347"/></g><path fill="none" stroke="#ba0000" stroke-width="2.931" d="m514.95,348.59c-29.18-25.82-26.63-90.76-4.4-112.41"/><path fill="#ba0000" fill-rule="evenodd" d="m569.1,365.81 21.94,67.35-57.27-41.68-57.27,41.67 21.95-67.34-57.33-41.6 70.83,.07 21.83-67.38 21.83,67.38 70.83-.05z" transform="matrix(.13567 -.03068 .02698 .12909 441.38 191.89)"/></g></g></g></svg>