<svg xmlns="http://www.w3.org/2000/svg" viewBox="0 0 640 480" xmlns:xlink="http://www.w3.org/1999/xlink"><defs><path id="0" d="m514.95 348.59c-29.18-25.82-26.63-90.76-4.4-112.41" stroke="#ba0000" stroke-width="2.931" fill="none"/><path id="1" d="m569.1 365.81l21.94 67.35-57.27-41.68-57.27 41.67 21.95-67.34-57.33-41.6 70.83.07 21.83-67.38 21.83 67.38 70.83-.05z" fill="#ba0000" fill-rule="evenodd"/><path id="2" d="m510.21 236.18v-.347" fill="#ba0000" stroke="#000" stroke-width="2.931"/><use id="3" xlink:href="#5"/><path id="5" d="m524.45 357.28s-75.02-32.3-64.25-116c10.421-40.29 28.828-67.73 62.17-82.66 15.629-4.863 31.607-6.947 47.93-8.336-4.284 4.052-7.872 8.104-9.724 13.198-3.59 9.146-.927 17.945 3.819 26.743 6.02 10.188 9.607 20.723 10.766 34.384 2.199 19.218-6.02 37.743-21.19 48.973-9.61 7.409-20.954 9.956-30.22 18.407-7.177 7.06-11.576 14.13-13.197 26.396-.232 23.386 6.137 26.629 13.894 38.9z" fill="#fff"/><clipPath id="4"><path d="m-89.05 0h682.67v512h-682.67z"/></clipPath></defs><g clip-path="url(#4)" transform="matrix(.9375 0 0 .9375 83.48 0)"><path fill="#ba0000" fill-rule="evenodd" stroke-width="1.25" d="m-618-512h731.43v512h-731.43z" transform="scale(-1-1)"/><g transform="matrix(.68808 0 0 .68808-123.29 4.546)"><g transform="translate(6.25-3.75)"><g fill-rule="evenodd"><use xlink:href="#5"/><use xlink:href="#2"/></g><use xlink:href="#0"/><use transform="matrix(.13567-.03068.02698.12909 441.38 191.89)" xlink:href="#1"/></g><g transform="matrix(.29302.95611-.95611.29302 725-258.13)"><g fill-rule="evenodd"><use xlink:href="#5"/><use xlink:href="#2"/></g><use xlink:href="#0"/><use transform="matrix(.13567-.03068.02698.12909 441.38 191.89)" xlink:href="#1"/></g><g transform="matrix(-.81354.5815-.5815-.81354 1177.1 339.55)"><g fill-rule="evenodd"><use xlink:href="#3"/><use xlink:href="#2"/></g><use xlink:href="#0"/><use transform="matrix(.13567-.03068.02698.12909 441.38 191.89)" xlink:href="#1"/></g><g transform="matrix(-.78657-.6175.6175-.78657 732.78 966.96)"><g fill-rule="evenodd"><use xlink:href="#3"/><use xlink:href="#2"/></g><use xlink:href="#0"/><use transform="matrix(.13567-.03068.02698.12909 441.38 191.89)" xlink:href="#1"/></g><g transform="matrix(.32107-.94705.94705.32107 25.287 742.5)"><g fill-rule="evenodd"><use xlink:href="#3"/><use xlink:href="#2"/></g><use xlink:href="#0"/><use transform="matrix(.13567-.03068.02698.12909 441.38 191.89)" xlink:href="#1"/></g></g></g></svg>