<svg xmlns="http://www.w3.org/2000/svg" viewBox="0 0 640 480"><g stroke-width="1.25"><g><path fill="#006" d="m0,0h640v480h-640z"/></g><g transform="matrix(6.9913 0 0 9.1204 0 -.00002)"><path fill="#fff" d="m0,0v3.3541l53.292,26.646h6.708v-3.354l-53.292-26.646h-6.708zm60,0v3.354l-53.292,26.646h-6.708v-3.354l53.292-26.646h6.708z"/><path fill="#fff" d="m25,0v30h10v-30h-10zm-25,10v10h60v-10h-60z"/><path fill="#c00" d="m0,12v6h60v-6h-60zm27-12v30h6v-30h-6z"/><path fill="#c00" d="m0,30 20-10h4.472l-20,10h-4.472zm0-30 20,10h-4.472l-15.528-7.7639v-2.2361zm35.528,10 20-10h4.472l-20,10h-4.472zm24.472,20-20-10h4.472l15.528,7.764v2.236z"/></g><g><path fill="#fff" fill-rule="evenodd" d="m26.873,47.494-5.647-.491 4.874-2.893-3.136-4.721 5.3,2.007 1.736-5.396 1.736,5.396 5.3-2.007-3.136,4.721 4.874,2.893-5.647,.491 .778,5.615-3.905-4.109-3.905,4.109z" transform="matrix(4.8659 0 0 4.8659 -5.2492 185.38)"/></g><g fill="#fff" fill-rule="evenodd" transform="matrix(7.1944 0 0 7.1944 -144.62 77.43)"><path d="m88.511,51.188-2.689-.234 2.321-1.378-1.494-2.248 2.525,.956 .826-2.57 .826,2.57 2.525-.956-1.494,2.248 2.321,1.378-2.689,.234 .371,2.673-1.86-1.956-1.86,1.956z"/><path d="m88.511,11.188-2.689-.234 2.321-1.3778-1.494-2.2483 2.525,.956 .826-2.5696 .826,2.5696 2.525-.956-1.494,2.2483 2.321,1.3778-2.689,.234 .371,2.673-1.86-1.956-1.86,1.956z"/><path d="m73.511,27.438-2.689-.234 2.321-1.378-1.494-2.248 2.525,.956 .826-2.57 .826,2.57 2.525-.956-1.494,2.248 2.321,1.378-2.689,.234 .371,2.673-1.86-1.956-1.86,1.956z"/><path d="m101.84,23.438-2.685-.234 2.325-1.378-1.497-2.248 2.527,.956 .82-2.57 .83,2.57 2.52-.956-1.49,2.248 2.32,1.378-2.69,.234 .37,2.673-1.86-1.956-1.86,1.956z"/><path d="m98.378,31.728-1.321,1.115 .413,1.679-1.47-.911-1.47,.911 .413-1.679-1.321-1.115 1.725-.127 .653-1.601 .653,1.601z"/></g></g></svg>