<svg width="640" xmlns="http://www.w3.org/2000/svg" viewBox="0 0 512 512" height="480" xmlns:xlink="http://www.w3.org/1999/xlink"><defs><path id="0" d="m498.45 365.81l-57.33-41.6 70.83.07 21.83-67.38 21.83 67.38 70.83-.05-57.34 41.58 21.94 67.35-57.27-41.68-57.27 41.67z"/><clipPath id="1"><path d="m-85.33 0h682.67v512h-682.67z"/></clipPath></defs><g fill-rule="evenodd" stroke-width="1.25" clip-path="url(#1)"><path fill="#fff" d="m-226.62 139.08h993.54v216.28h-993.54z"/><g fill="#087bce"><g transform="scale(-1-1)"><path d="m-765.11-512h989.67v172.87h-989.67z"/><path d="m-767.53-168.1h994.15v168.1h-994.15z"/></g><use transform="matrix(.3451-.00168-.00376.32718 88.67 141.87)" xlink:href="#0"/><use transform="matrix(.3451-.00168-.00376.32718 231.61 178.67)" xlink:href="#0"/><use transform="matrix(.3451-.00168-.00376.32718 231.61 102.24)" xlink:href="#0"/><use transform="matrix(.3451-.00168-.00376.32718-84 178.67)" xlink:href="#0"/><use transform="matrix(.3451-.00168-.00376.32718-84 102.24)" xlink:href="#0"/></g></g></svg>