<svg width="640" xmlns="http://www.w3.org/2000/svg" viewBox="0 0 512 512" height="480"><defs><clipPath id="clipPath4393" clipPathUnits="userSpaceOnUse"><path fill-opacity=".67" d="m-85.333,0h682.67v512h-682.67z"/></clipPath></defs><g fill-rule="evenodd" stroke-width="1.25" clip-path="url(#clipPath4393)"><path fill="#fff" d="m-226.62,139.08h993.54v216.28h-993.54z"/><g fill="#087bce"><path d="m-765.11-512h989.67v172.87h-989.67z" transform="scale(-1)"/><path d="m-767.53-168.1h994.15v168.1h-994.15z" transform="scale(-1)"/><path d="m498.45,365.81-57.33-41.6 70.83,.07 21.83-67.38 21.83,67.38 70.83-.05-57.34,41.58 21.94,67.35-57.27-41.68-57.27,41.67z" transform="matrix(.3451 -.00168 -.00376 .32718 88.666 141.87)"/><path d="m498.45,365.81-57.33-41.6 70.83,.07 21.83-67.38 21.83,67.38 70.83-.05-57.34,41.58 21.94,67.35-57.27-41.68-57.27,41.67z" transform="matrix(.3451 -.00168 -.00376 .32718 231.61 178.67)"/><path d="m498.45,365.81-57.33-41.6 70.83,.07 21.83-67.38 21.83,67.38 70.83-.05-57.34,41.58 21.94,67.35-57.27-41.68-57.27,41.67z" transform="matrix(.3451 -.00168 -.00376 .32718 231.61 102.24)"/><path d="m498.45,365.81-57.33-41.6 70.83,.07 21.83-67.38 21.83,67.38 70.83-.05-57.34,41.58 21.94,67.35-57.27-41.68-57.27,41.67z" transform="matrix(.3451 -.00168 -.00376 .32718 -84.003 178.67)"/><path d="m498.45,365.81-57.33-41.6 70.83,.07 21.83-67.38 21.83,67.38 70.83-.05-57.34,41.58 21.94,67.35-57.27-41.68-57.27,41.67z" transform="matrix(.3451 -.00168 -.00376 .32718 -84.003 102.24)"/></g></g></svg>