<svg xmlns="http://www.w3.org/2000/svg" viewBox="0 0 640 480" xmlns:xlink="http://www.w3.org/1999/xlink"><defs><clipPath id="clipPath3868" clipPathUnits="userSpaceOnUse"><path fill-opacity=".67" d="m0,0h640v480h-640z"/></clipPath></defs><g clip-path="url(#clipPath3868)"><g fill-rule="evenodd" stroke-width="1.25"><path fill="#fff" d="m-148.86,135.66h936.34v170.15h-936.34z"/><path fill="#003e9f" d="m-148.01,289.76h938.16v190.24h-938.16z"/><path fill="#d61517" d="m-150.15-0h939.68v159.51h-939.68z"/></g><g transform="matrix(1.2446 0 0 1.2446 -78.769 -50.054)"><g fill-rule="evenodd"><path fill="#fff" stroke="#e5141d" stroke-linecap="round" stroke-width="1.066" d="m242.64,155.17c24.536-8.728 51.74-13.437 78.329-13.504 26.589-.0671 53.705,4.1048 80.499,13.706l19.944-40.235-14.018-24.419s-25.011,10.273-25.216,10.273c-.2053,0-17.635-19.182-17.635-19.182l-22.39,13.523-21.01-16.073-19.78,15.825-23.08-13.34-16.83,20.008-25.24-10.792-13.51,24.195 19.932,40.015z"/><path fill="#00a7bd" stroke="#0084fd" stroke-width=".333" d="m370.5,144.01 11.42-40.371 24.457-9.9251 12.885,21.634-18.5,37.839c-10.634-4.2488-16.331-6.0691-30.263-9.1767z"/></g><path stroke-opacity=".996" fill="none" stroke-width="1.25" d="m273.69,144.11-10.675-39.69 16.061-19.712 22.854,13.194 3.8571,41.721c-11.167,.8286-19.238,1.8891-32.098,4.4869z"/><g fill-rule="evenodd" stroke-width=".333"><g fill="#00a7bd" stroke="#0084fd"><path d="m306.1,139.64-3.8565-41.811 19.436-15.45 20.307,15.412-3.5884,41.886c-11.189-.5917-19.18-.5739-32.298-.0376z"/><path stroke-opacity=".996" d="m243.61,153.16-18.117-38.322 12.108-21.155 25.099,10.924 10.605,39.535c-11.46,2.3697-17.528,4.306-29.695,9.0166z"/></g><path fill="#fff" stroke="#fff" d="m237.97,131.93c5.7045,1.155 9.7695,1.1965 14.885-.2062 6.1113-2.5025 8.2699-5.8715 10.26-8.5802 .9252,5.7202-.042,10.904-7.022,14.562-6.2655,2.8877-14.717,1.0727-18.123-5.7751z"/></g><g stroke-width="1.25"><g transform="matrix(.26911 0 0 .26401 215.86 72.486)"><g stroke="#544b20"><path stroke-opacity=".996" fill="#faf703" fill-rule="evenodd" fill-opacity=".996" d="m410.94,120.56-4.063,1.016 .156,7.5-5,1.094-3.497,6.614 2.159,2.044c.111,.221-1.703,4.892-1.625,4.892s1.323,1.762 1.323,1.762l1.328,4.063 3.359,.468 .86,4.766 5.312,.859 4.922,3.516 .312,2.188 5.625,.156 3.829,1.25 13.359-1.563 1.797-2.812 .156-3.828 7.188-.235 .657-6.105h3.809l-.474-6.875 3.177,.286-.82-3.295-1.975-2.683-.39-4.218-5.625-5.625-1.25-7.344s-3.594-1.641-3.594-1.719-.234-4.922-.234-4.922l4.062-5.703-.39-2.265-3.75-.079-2.813,2.344s-3.75,.391-3.75,.469v1.719s.938,3.203 .938,3.281-4.297,0-4.297,0l-.157-5.078-6.093-3.047s-5.703,3.906-5.703,3.984-.313,4.532-.313,4.532l-2.734,.781-2.813-4.219-4.922-1.875-2.656-.156-.078,3.281 5.156,6.797-.468,3.984z"/><g fill="none"><path d="m449.23,148.04-1.105-4.088"/><path d="m452.33,141.3-1.878-2.762"/></g></g><g fill-rule="evenodd"><g fill="#544b20"><path stroke-opacity="1" stroke="#544b21" d="m400.84,138.21 5.856-.332 1.105,5.303 1.988,1.768 .332,9.723 1.878,.773 .553-3.867 4.53-.331 .883,7.844-1.104,.995 .442,1.215 5.413-.11s1.216-2.1 1.326-2.1c.111,0 3.094-.331 3.094-.221 0,.111 1.215,2.321 1.215,2.321l.884-2.984s2.873-1.215 2.873-1.104c0,.11 2.32,3.756 2.32,3.756l3.977-.552-2.43-2.32-.995-5.083 5.524-2.983 2.21,3.757s2.099,.11 1.989,0c-.111-.111-2.431-4.309-2.431-4.309v-8.839l4.199-5.745 5.855-.663v-2.431l-5.855-5.414-1.547-7.513-3.315-1.657-.884,.994-3.646,.332 3.646,5.414v3.535l1.658,.884-.332,9.723s-4.088,.552-4.088,.663c0,.11-.331,5.413-.331,5.413l-2.541,2.542s-1.437,5.082-1.547,5.082c-.111,0-2.431,3.093-2.431,3.093l-4.53,.111s-2.651-2.541-2.651-2.652c0-.11-.442-3.756-.442-3.756s-1.768-.553-1.879-.553c-.11,0-.994-4.088-.994-4.088l-3.094-1.767-.22-2.431-2.984-1.326s-.331-2.21-.442-2.32c-.11-.111-1.436-.994-1.546-.994-.111,0-.111-6.077-.111-6.077l2.652-.442-1.485-1.94-.504-1.706v-1.768l2.21-2.21s-3.978-.552-3.978-.442c0,.111-3.866,1.768-3.866,1.658 .11,0-.111,7.181-.111,7.181l-4.53,1.437-3.646,5.855 1.878,1.658z"/><g stroke="#544b20"><path d="m423.71,148.04 2.983-1.768-.111-3.425-2.872-.663-1.106-1.105 3.205,.553 3.977-.332 1.326-.663c-.552,1.437-.994,1.326-1.105,1.326-.11,0-2.209,1.105-2.209,1.105l.11,3.315s6.85,.883 6.74,.883c-.111,0 0,1.326-.221,1.326s-7.071-1.547-7.071-1.547l-4.309,2.652 .663-1.657z"/><path d="m440.95,127.49-3.977,3.093-2.541,4.53-1.326,.221-3.867-5.193-4.419,.111s-2.431,6.076-2.431,6.187c0,.11-1.768-.221-1.768-.221l-4.64-5.082s-1.437-2.542-1.216-2.542 11.601,.111 11.601,.111l-.11-5.524s-1.768-.553-2.652-1.105c.663-.221 6.298-.221 6.298-.221l-2.431,1.657v4.751l10.054,.11 3.425-.883z"/></g></g><path fill="#796a3a" fill-opacity=".996" d="m420.836,130.14a1.3258,1.3258 0 0,1 1.326,1.326 1.3258,1.3258 0 0,1 -1.326,1.326 1.3258,1.3258 0 0,1 -1.326-1.326 1.3258,1.3258 0 0,1 1.326-1.326"/><path fill="#7a6b3a" d="m433.436,129.59a1.3258,1.3258 0 0,1 1.326,1.326 1.3258,1.3258 0 0,1 -1.326,1.326 1.3258,1.3258 0 0,1 -1.326-1.326 1.3258,1.3258 0 0,1 1.326-1.326"/></g><g stroke="#544b20"><path fill="none" d="m413.55,121.3c4.198-1.694 7.181-3.056 12.374-3.535 4.898-.516 8.692,.184 13.037,.994"/><g fill="#544b20" fill-rule="evenodd"><path d="m415.87,112.35h-3.425l-4.862-5.193 2.763,.332 3.204,1.436 2.32,3.425z"/><path d="m436.53,110.36 7.734-5.965-2.541-.332-2.873,2.651-3.425,.553 1.105,3.093z"/><path d="m431.97,111.46-12.123,.451 .11-1.326 4.42-.442 .552-1.767s1.326-.11 1.326,0c0,.111 .994,1.657 .994,1.657l4.309,.773 .412,.654z"/><path d="m431.34,106.83-4.198,.11-.332-2.32 4.53,2.21z"/><path d="m424.26,104.73-.332,2.319-4.087,.663 4.419-2.982z"/><path d="m401.06,147.04 2.099-5.303-1.878-3.646-1.878,5.414 1.657,3.535z"/><path d="m405.37,149.81 2.541-6.298-4.861,5.082 2.32,1.216z" transform="translate(-.11047 .11044)"/></g></g></g><g transform="matrix(.26911 0 0 .26401 197.81 73.069)"><g stroke="#544b20"><path stroke-opacity=".996" fill="#faf703" fill-rule="evenodd" fill-opacity=".996" d="m410.94,120.56-4.063,1.016 .156,7.5-5,1.094-3.497,6.614 2.159,2.044c.111,.221-1.703,4.892-1.625,4.892s1.323,1.762 1.323,1.762l1.328,4.063 3.359,.468 .86,4.766 5.312,.859 4.922,3.516 .312,2.188 5.625,.156 3.829,1.25 13.359-1.563 1.797-2.812 .156-3.828 7.188-.235 .657-6.105h3.809l-.474-6.875 3.177,.286-.82-3.295-1.975-2.683-.39-4.218-5.625-5.625-1.25-7.344s-3.594-1.641-3.594-1.719-.234-4.922-.234-4.922l4.062-5.703-.39-2.265-3.75-.079-2.813,2.344s-3.75,.391-3.75,.469v1.719s.938,3.203 .938,3.281-4.297,0-4.297,0l-.157-5.078-6.093-3.047s-5.703,3.906-5.703,3.984-.313,4.532-.313,4.532l-2.734,.781-2.813-4.219-4.922-1.875-2.656-.156-.078,3.281 5.156,6.797-.468,3.984z"/><g fill="none"><path d="m449.23,148.04-1.105-4.088"/><path d="m452.33,141.3-1.878-2.762"/></g></g><g fill-rule="evenodd"><g fill="#544b20"><path stroke-opacity="1" stroke="#544b21" d="m400.84,138.21 5.856-.332 1.105,5.303 1.988,1.768 .332,9.723 1.878,.773 .553-3.867 4.53-.331 .883,7.844-1.104,.995 .442,1.215 5.413-.11s1.216-2.1 1.326-2.1c.111,0 3.094-.331 3.094-.221 0,.111 1.215,2.321 1.215,2.321l.884-2.984s2.873-1.215 2.873-1.104c0,.11 2.32,3.756 2.32,3.756l3.977-.552-2.43-2.32-.995-5.083 5.524-2.983 2.21,3.757s2.099,.11 1.989,0c-.111-.111-2.431-4.309-2.431-4.309v-8.839l4.199-5.745 5.855-.663v-2.431l-5.855-5.414-1.547-7.513-3.315-1.657-.884,.994-3.646,.332 3.646,5.414v3.535l1.658,.884-.332,9.723s-4.088,.552-4.088,.663c0,.11-.331,5.413-.331,5.413l-2.541,2.542s-1.437,5.082-1.547,5.082c-.111,0-2.431,3.093-2.431,3.093l-4.53,.111s-2.651-2.541-2.651-2.652c0-.11-.442-3.756-.442-3.756s-1.768-.553-1.879-.553c-.11,0-.994-4.088-.994-4.088l-3.094-1.767-.22-2.431-2.984-1.326s-.331-2.21-.442-2.32c-.11-.111-1.436-.994-1.546-.994-.111,0-.111-6.077-.111-6.077l2.652-.442-1.485-1.94-.504-1.706v-1.768l2.21-2.21s-3.978-.552-3.978-.442c0,.111-3.866,1.768-3.866,1.658 .11,0-.111,7.181-.111,7.181l-4.53,1.437-3.646,5.855 1.878,1.658z"/><g stroke="#544b20"><path d="m423.71,148.04 2.983-1.768-.111-3.425-2.872-.663-1.106-1.105 3.205,.553 3.977-.332 1.326-.663c-.552,1.437-.994,1.326-1.105,1.326-.11,0-2.209,1.105-2.209,1.105l.11,3.315s6.85,.883 6.74,.883c-.111,0 0,1.326-.221,1.326s-7.071-1.547-7.071-1.547l-4.309,2.652 .663-1.657z"/><path d="m440.95,127.49-3.977,3.093-2.541,4.53-1.326,.221-3.867-5.193-4.419,.111s-2.431,6.076-2.431,6.187c0,.11-1.768-.221-1.768-.221l-4.64-5.082s-1.437-2.542-1.216-2.542 11.601,.111 11.601,.111l-.11-5.524s-1.768-.553-2.652-1.105c.663-.221 6.298-.221 6.298-.221l-2.431,1.657v4.751l10.054,.11 3.425-.883z"/></g></g><path fill="#796a3a" fill-opacity=".996" d="m420.836,130.14a1.3258,1.3258 0 0,1 1.326,1.326 1.3258,1.3258 0 0,1 -1.326,1.326 1.3258,1.3258 0 0,1 -1.326-1.326 1.3258,1.3258 0 0,1 1.326-1.326"/><path fill="#7a6b3a" d="m433.436,129.59a1.3258,1.3258 0 0,1 1.326,1.326 1.3258,1.3258 0 0,1 -1.326,1.326 1.3258,1.3258 0 0,1 -1.326-1.326 1.3258,1.3258 0 0,1 1.326-1.326"/></g><g stroke="#544b20"><path fill="none" d="m413.55,121.3c4.198-1.694 7.181-3.056 12.374-3.535 4.898-.516 8.692,.184 13.037,.994"/><g fill="#544b20" fill-rule="evenodd"><path d="m415.87,112.35h-3.425l-4.862-5.193 2.763,.332 3.204,1.436 2.32,3.425z"/><path d="m436.53,110.36 7.734-5.965-2.541-.332-2.873,2.651-3.425,.553 1.105,3.093z"/><path d="m431.97,111.46-12.123,.451 .11-1.326 4.42-.442 .552-1.767s1.326-.11 1.326,0c0,.111 .994,1.657 .994,1.657l4.309,.773 .412,.654z"/><path d="m431.34,106.83-4.198,.11-.332-2.32 4.53,2.21z"/><path d="m424.26,104.73-.332,2.319-4.087,.663 4.419-2.982z"/><path d="m401.06,147.04 2.099-5.303-1.878-3.646-1.878,5.414 1.657,3.535z"/><path d="m405.37,149.81 2.541-6.298-4.861,5.082 2.32,1.216z" transform="translate(-.11047 .11044)"/></g></g></g></g><path stroke-opacity=".996" fill="#001070" stroke="#001071" fill-rule="evenodd" stroke-width=".333" d="m338.69,139.62 3.6134-41.935 22.207-12.777 17.166,18.605-11.44,40.401c-11.089-2.2645-17.416-3.2348-31.546-4.2944z"/><g stroke-width="1.25" transform="matrix(.26911 0 0 .26401 207.16 88.736)"><g stroke="#544b20"><path stroke-opacity=".996" fill="#faf703" fill-rule="evenodd" fill-opacity=".996" d="m410.94,120.56-4.063,1.016 .156,7.5-5,1.094-3.497,6.614 2.159,2.044c.111,.221-1.703,4.892-1.625,4.892s1.323,1.762 1.323,1.762l1.328,4.063 3.359,.468 .86,4.766 5.312,.859 4.922,3.516 .312,2.188 5.625,.156 3.829,1.25 13.359-1.563 1.797-2.812 .156-3.828 7.188-.235 .657-6.105h3.809l-.474-6.875 3.177,.286-.82-3.295-1.975-2.683-.39-4.218-5.625-5.625-1.25-7.344s-3.594-1.641-3.594-1.719-.234-4.922-.234-4.922l4.062-5.703-.39-2.265-3.75-.079-2.813,2.344s-3.75,.391-3.75,.469v1.719s.938,3.203 .938,3.281-4.297,0-4.297,0l-.157-5.078-6.093-3.047s-5.703,3.906-5.703,3.984-.313,4.532-.313,4.532l-2.734,.781-2.813-4.219-4.922-1.875-2.656-.156-.078,3.281 5.156,6.797-.468,3.984z"/><g fill="none"><path d="m449.23,148.04-1.105-4.088"/><path d="m452.33,141.3-1.878-2.762"/></g></g><g fill-rule="evenodd"><g fill="#544b20"><path stroke-opacity="1" stroke="#544b21" d="m400.84,138.21 5.856-.332 1.105,5.303 1.988,1.768 .332,9.723 1.878,.773 .553-3.867 4.53-.331 .883,7.844-1.104,.995 .442,1.215 5.413-.11s1.216-2.1 1.326-2.1c.111,0 3.094-.331 3.094-.221 0,.111 1.215,2.321 1.215,2.321l.884-2.984s2.873-1.215 2.873-1.104c0,.11 2.32,3.756 2.32,3.756l3.977-.552-2.43-2.32-.995-5.083 5.524-2.983 2.21,3.757s2.099,.11 1.989,0c-.111-.111-2.431-4.309-2.431-4.309v-8.839l4.199-5.745 5.855-.663v-2.431l-5.855-5.414-1.547-7.513-3.315-1.657-.884,.994-3.646,.332 3.646,5.414v3.535l1.658,.884-.332,9.723s-4.088,.552-4.088,.663c0,.11-.331,5.413-.331,5.413l-2.541,2.542s-1.437,5.082-1.547,5.082c-.111,0-2.431,3.093-2.431,3.093l-4.53,.111s-2.651-2.541-2.651-2.652c0-.11-.442-3.756-.442-3.756s-1.768-.553-1.879-.553c-.11,0-.994-4.088-.994-4.088l-3.094-1.767-.22-2.431-2.984-1.326s-.331-2.21-.442-2.32c-.11-.111-1.436-.994-1.546-.994-.111,0-.111-6.077-.111-6.077l2.652-.442-1.485-1.94-.504-1.706v-1.768l2.21-2.21s-3.978-.552-3.978-.442c0,.111-3.866,1.768-3.866,1.658 .11,0-.111,7.181-.111,7.181l-4.53,1.437-3.646,5.855 1.878,1.658z"/><g stroke="#544b20"><path d="m423.71,148.04 2.983-1.768-.111-3.425-2.872-.663-1.106-1.105 3.205,.553 3.977-.332 1.326-.663c-.552,1.437-.994,1.326-1.105,1.326-.11,0-2.209,1.105-2.209,1.105l.11,3.315s6.85,.883 6.74,.883c-.111,0 0,1.326-.221,1.326s-7.071-1.547-7.071-1.547l-4.309,2.652 .663-1.657z"/><path d="m440.95,127.49-3.977,3.093-2.541,4.53-1.326,.221-3.867-5.193-4.419,.111s-2.431,6.076-2.431,6.187c0,.11-1.768-.221-1.768-.221l-4.64-5.082s-1.437-2.542-1.216-2.542 11.601,.111 11.601,.111l-.11-5.524s-1.768-.553-2.652-1.105c.663-.221 6.298-.221 6.298-.221l-2.431,1.657v4.751l10.054,.11 3.425-.883z"/></g></g><path fill="#796a3a" fill-opacity=".996" d="m420.836,130.14a1.3258,1.3258 0 0,1 1.326,1.326 1.3258,1.3258 0 0,1 -1.326,1.326 1.3258,1.3258 0 0,1 -1.326-1.326 1.3258,1.3258 0 0,1 1.326-1.326"/><path fill="#7a6b3a" d="m433.436,129.59a1.3258,1.3258 0 0,1 1.326,1.326 1.3258,1.3258 0 0,1 -1.326,1.326 1.3258,1.3258 0 0,1 -1.326-1.326 1.3258,1.3258 0 0,1 1.326-1.326"/></g><g stroke="#544b20"><path fill="none" d="m413.55,121.3c4.198-1.694 7.181-3.056 12.374-3.535 4.898-.516 8.692,.184 13.037,.994"/><g fill="#544b20" fill-rule="evenodd"><path d="m415.87,112.35h-3.425l-4.862-5.193 2.763,.332 3.204,1.436 2.32,3.425z"/><path d="m436.53,110.36 7.734-5.965-2.541-.332-2.873,2.651-3.425,.553 1.105,3.093z"/><path d="m431.97,111.46-12.123,.451 .11-1.326 4.42-.442 .552-1.767s1.326-.11 1.326,0c0,.111 .994,1.657 .994,1.657l4.309,.773 .412,.654z"/><path d="m431.34,106.83-4.198,.11-.332-2.32 4.53,2.21z"/><path d="m424.26,104.73-.332,2.319-4.087,.663 4.419-2.982z"/><path d="m401.06,147.04 2.099-5.303-1.878-3.646-1.878,5.414 1.657,3.535z"/><path d="m405.37,149.81 2.541-6.298-4.861,5.082 2.32,1.216z" transform="translate(-.11047 .11044)"/></g></g></g><g fill-rule="evenodd" stroke-width=".333"><g stroke-opacity=".997" fill="#a0210c" stroke="#a0210c"><path d="m344.2,132.11-1.1131,1.3018 .0856,1.0919 2.3117-.042c.7419-.175 .9274-.434 1.0703-.735 .2282-.3709 .0713-.5739 .1284-1.0708l-2.4828-.546z"/><path d="m349.76,135.38-.9419,.8818v1.008l2.055-.042c.7419-.175 .8415-.3081 .9844-.6088 .2282-.3712 .1572-.3641 .2142-.8609l-2.3117-.3781z"/><path d="m358.79,132.57-1.0703,1.0919 .0428,.8398 2.1833,.084c.7419-.175 .6276-.1399 .856-.5248 .2282-.3709 .1572-.448 .2142-.9449l-2.2261-.546z"/><path d="m365.17,134.54-1.2414,1.0497v1.05l2.3117,.2101c.7419-.175 .799-.3921 .9847-.651 .2282-.3709 .1141-.406 .1712-.9029l-2.2261-.7559z"/></g><g stroke="#000"><path fill="#a0210c" d="m349.63,107.08 4.3664,2.8977c.8208-.6809 2.5283-.2682 3.1971-.0795 1.2008,.3134 2.0472,1.0244 3.0959,1.2134 1.9182,.4821 4.2165,.815 5.9571,.626 1.7409-.1888 3.203-1.0985 4.488-1.7599v-.4198h-.856c-1.3897,.5-3.337,.5275-4.8282,.3316s-1.893-.8644-4.1188-1.5075l-.1712-.42c2.7019,.1283 3.2506,.0584 4.3817-.4348 1.1058-.2936 1.6039-.9354 2.2283-1.3786l-.0175-.4963-.8135-.042c-1.0479,.698-1.7159,.8242-3.3214,.6772-1.461-.1479-2.777-.9795-3.7571-.9969-1.0396,.008-.9906-.4887-1.996-.5375-1.5983-.1399-3.3257,.0731-4.8381,.4372-1.8122,.546-2.0835,1.0077-2.9966,1.8898z"/><path d="m350.48,106.43c.4179,.0951 .8867,.2154 1.2285,.41 .342,.1946 .2535,.1906 .6209,.4596-.0589-.3477-.0422-.3229-.2785-.5961-.2366-.2735-.6252-.5219-.9373-.7458l-.6335,.4723z"/><path d="m354.13,109.56c.008-.3767-.1857-.7041-.3294-1.0312-.1434-.3271-.2618-.6048-.532-.9319 .3377,.095 .5237,.24 .8108,.5837 .2869,.344 .2702,.6877 .3291,1.1804l-.2785,.1991z"/><path d="m354.96,104.97c.1015,.2611 .3003,.4404 .4688,.9974 .1456,.5061 .215,1.2144 .215,1.2144-.0549-.377 .0423-.8036-.0127-1.1806-.0549-.3767-.2618-.7041-.3167-1.0811l-.3544,.0499z"/><path d="m358.51,105.19 .1773,2.0878 .2029-1.9634-.3803-.1243z"/><path d="m357.65,109.51c.0845-.3395 .0676-.6793 .0253-1.0191-.0423-.3395-.1607-.6294-.2788-1.0188 .3377,.2899 .4731,.6545 .6588,1.0439 0,.3892-.1012,.7287-.4053,.994z"/><path d="m361.32,108.6c.0127,0 .1079,.7083-.0536,1.2179-.1615,.5095-.2756,.5468-.5797,.8203 .4053-.2981 .76-.3976 .8867-.7207 .1268-.4971-.2029-1.2427-.2535-1.3174z"/><path d="m361.96,107.92c-.2532,.0414-.3038-1.0109-.4559-1.5162 .1098-.0581 .2196-.0414 .3294,.1988 .1181,.141 .0842,.8783 .1265,1.3174z"/><path d="m364.46,107.5 .1014-.8699 .2785-.0248v.7456c0,.0251-.3544,.174-.38,.1492z"/><path d="m364.26,109.84c.1607,.2651 .4475,.58 .4814,.8699 .0339,.2899-.0592,.4309-.2785,.8699l.4053,.0248c.2193-.3519 .2871-.6046 .2535-.882-.0339-.2777-.1693-.5552-.4561-.7831l-.4056-.0995z"/><path d="m367.28,110.06 .1012,1.2176 .3294-.174-.0759-1.0436h-.3547z"/></g><path fill="#dc9103" stroke="#544b20" d="m349.36,107.29c-.9882,.2859-1.3456,.8319-1.8292,1.3037l-2.7842-1.4101c-.4516,.3746-.6254,.9098-.4083,1.4576 .2172,.5476 1.0907,1.4048 1.7118,1.8285-.1556,.7564-.3848,1.3272-.6564,1.9906-.3028,.7458-.9527,1.688-.9715,1.9906-.0371,.3464-.1502,1.0885 .3679,1.2862 .5183,.1977 2.1847-.137 2.7406-.1003-.0904,.2975-.3068,.8179-.233,1.0412 .0737,.2233 .2231,.2978 .6755,.3107-.1303,.2764-.4115,.6268-.2767,.7917 .3493,.2643 .7495,.2186 1.0861,.198-.531,.6157-1.8574,1.8005-2.2877,2.3298-.4553,.6157-.4944,1.2807 .3881,1.2155-.3283,.3638-.644,.7152-.5937,1.0294 .0759,.3762 .2651,.6286 .8959,.4105-.3733,.844-.1281,1.6015 .004,2.4824-.3186,.6666-.1833,1.2839-.2624,2.0495-.6491,.3675-.7298,.8464-1.1518,1.5854-.3805,.7999-1.0888,1.0183-1.4817,2.7346l2.5472,.6352c.0936-.353 .4268-.5821 .5205-.9348 .0934-.353 .0861-.7926 .0406-1.1828 .5054-.7318 1.528-2.2435 1.8566-3.0495 .5563-.297 .9607-.4829 1.3781-.4829 .4174,0 .683,.2476 1.1257,.4829-.1959,.6793-.7452,1.4201-.7769,2.3718v2.6261c-.1109,.6524-.8528,.6611-1.1658,2.6258l2.2883,.593c.3886-.6608 1.0041-.7519 1.1655-1.0164l.1652-2.7282c.2912-1.2878 2.0969-2.3526 2.123-3.7518 .648-.009 .8927,.0573 1.1496-.0752 .3453-.1201 .4637-.3144 .7333-.5584 .1039,.4211 .4352,.4581 .7158,.4581 .2804,0 .8386-.396 1.0689-.5571 .162,.2284 .2479,.4443 .5864,.5241 .3385,.0797 1.2952-.0634 1.6844-.1571l-1.8803,3.0762c-.0702,.2965 .0237,.4815-.1222,.8277-.1367,.3107-.4123,.4604-.5364,.7466l2.1317,.5093 .3402-.8976c.4518-.1903 .8157-.2941 1.053-.5834 .2374-.2894 .2352-.839 .3716-1.1532 .7282-.5285 1.8728-1.6762 2.6766-2.6258 .5458,.0921 1.3187,.5433 1.612,1.2176 .0412,.7234 .0945,2.0537-.2304,2.9754l-1.3816,2.1601-.1566,.3543 2.175,.7748 1.3816-1.0589 .0538-1.5104c.6941-1.2255 1.6871-1.8953 2.6336-2.668 0-.0425 .1009-1.6221 .063-1.6838-.2339-.1779-.3918-.071-.4744-.3976-.0824-.3263-.0261-1.2224 .0178-1.5735 .1367-.1695 .4249-.3641 .4101-.5087-.3765-.4132-.2613-1.4827-.1459-2.3166-.0283-.9496 1.2689-2.0724 1.4678-2.6258l.081-.9969c-.1327-.245-.3281-.391-.3345-.599-.006-.2078 .2522-.552 .4101-.7725l.275-.4691-.0431-2.4566c-.077-.2653-.3055-.679-.5213-.7215-.2161-.0422-.5328,.2004-.774,.4673l-1.25,.9227c-.5993,.1832-1.123,.2553-2.1766-.007l-1.6072,.0319c-.8439,.2358-1.2842,.2738-2.0778-.0723l-.9516,.0153c-.2966,.1616-.707,.4216-1.0288,.4839-.3216,.062-.757,.0747-1.0789-.024-2.4565,.1653-1.8464,.3427-2.5485,.4955-.5638-.1069-.3829-.387-2.5744-.4076l-.8687-.2542c-1.0961-.7263-1.94-1.8858-2.6702-3.2188 2.2832-.6539 3.2412-1.333 3.9339-2.8906l-3.2286,.1206-4.5655-3.0337z"/><g stroke="#000"><path d="m348.22,111.27 .9142,.3873c.1117,.1328 .3281,.2859 .4712,.2949 .1429,.009 .2648-.137 .387-.2416l.8415-.4406c-.4987-.0721-.6507-.3815-1.1809-.3815-.5302,0-.9029,.2783-1.433,.3815z"/><path d="m352.23,111.5c.2971,.1753 .8361,.5259 1.2804,.5259 .4863-.0412 .4785-.3815 1.175-.6083l1.0216-.8258c-.6163,.007-1.9476,.1275-2.6793,.3511-.6163,.1616-.7594,.4058-.7977,.5571z"/><path d="m349.9,122.06c-.0003,.0755-.1268,.1307-.1903,.0412-.0783-1.0713-.3143-1.823-.6448-2.6572 .373,.6347 .6827,1.6614 .8351,2.616z"/><path d="m352.51,126.45c-.4155,.0422-.5791-.019-.9946,.0232-.0457-1.0779-.0498-2.3106-.043-3.0791 .1585,.0195 .6219,.5032 .8961,1.2654 .0716,.5623 .1749,1.197 .1416,1.7905z"/><path d="m355.27,122.17c.1873,.0515 .4484,.0517 .5094-.0721 .0794-.2297-.1569-.48-.2454-.7611-.3081-.6038-.479-1.2588-.6079-1.5426-.1356-.0855-.2818-.0779-.2495,.0636 .1768,.537 .4798,2.1052 .5934,2.3122z"/><path d="m358.21,121.85c.0202,.1302-.4222-.0591-.4968-.2072-.006-.2875-.602-2.3903-.5035-2.4716 .1251-.0613 .5132,.7028 .6383,1.0544 .0293,.208 .2904,.9729 .362,1.6244z"/><path d="m357.79,126.18c-.0105,.147 .3364,.0261 .4731-.0845 .3964-.6196 .8875-1.2701 1.0318-1.5183 .0869-.2653 .5207-1.9536 .387-1.9402-.0474-.0489-.4247,.8374-.9117,1.7121-.5068,.8907-.9855,1.7456-.9801,1.8309z"/><path d="m360.75,125.27c-.1442,.0694 .2896-1.4597 .324-1.7306 .0794-.4282 .19-1.1967 .3638-2.192 .2123,1.39-.0382,2.8832-.6879,3.9226z"/><path d="m362.52,120.59c-.0947,.0826-1.3633-2.0144-1.2468-2.0247 .0326-.0929 1.0633,1.3124 1.2105,1.5598 .0614,.1172 .1222,.2962 .0363,.4649z"/><path d="m365.49,122.15c-.0947-.0715-.0568-.7411-.2446-1.4763-.1876-.7353-.5067-1.4438-.4435-1.645 .0592-.1059 .2656-.057 .43,.0845 .0783,.4 .2616,1.9346 .4766,2.9328-.003,.0966-.1106,.1624-.2185,.104z"/><path d="m367.56,120.29c-.1014-.108 .2756,.7199 .5501,1.7036 .2745,.9839 .415,2.7219 .4817,2.5984 .1886-.1251 .1566-.2812 .4505-.3445 .2936-.0631 1.3865,.0385 1.323-.0349-.676-.6022-1.2996-1.1014-1.7654-1.7551-.4656-.6537-.7737-1.5138-1.0399-2.1675z"/><path d="m370.12,129.26c-.2121,.1529-.6133,.2746-.7307,.2109-.6445-1.3404-1.0054-2.2166-1.9024-3.6499-.2312-.3403-.8065-.2878-.774-.4219 .0215-.1547 .3232-.0927 .5183-.3171 .1951-.2241 .2207-.5079 .3415-.6109-.2637,.6186 .429,1.5671 .817,2.3198 .2581,.0702 .4634,.0686 .5848,.2212 .0288,.0723-.2791,.1235-.2398,.3815l.6545,1.3179c.2131,.16 .5417,.2482 .8598,.2952 .0832,.0739-.0651,.179-.1292,.2532z"/></g></g><path stroke-opacity=".996" fill="none" stroke-width="1.25" d="m370.48,144 11.513-40.577 24.437-9.8439 12.96,21.913-18.55,37.669c-10.493-3.9653-16.493-6.0837-30.36-9.1602z"/><g fill-rule="evenodd"><g stroke-width=".333"><path stroke="#000" d="m371.46,117.54c.4045,.0224 .7699,.0578 .89-.1479 .2473-.5093 .3908-.929 .2242-1.2601-.634,.051-1.1131,.343-1.3719,.9018 .008,.194 .0552,.3374 .2578,.5061z"/><path fill="#fdfcfc" stroke="#fdfcfc" d="m378.12,117.16c6.2685,1.3243 12.071,2.8312 17.874,4.7033 5.8026,1.8721 11.326,4.1095 16.943,6.5297l-9.4026,18.996c-5.2483-1.9972-10.43-3.6071-15.613-5.2812-5.1821-1.6743-10.233-3.1551-15.481-4.7648l5.6786-20.183z"/><path fill="#e6151e" stroke="#e6151e" d="m376.87,121.65s8.7548,1.9534 17.238,4.6819c8.4836,2.7282 16.761,6.2314 16.728,6.2314-.0659,0-5.3322,10.849-5.3322,10.849-5.1124-2.0342-10.488-3.9395-15.798-5.6508-5.3102-1.7113-10.62-3.3579-16.062-4.6172l3.2256-11.495z"/><path stroke-opacity=".996" stroke="#010001" d="m377.6,126.95c.8612-.481 1.4443-.6109 1.908-1.4037l3.1002,.0003 .0401,1.1305c.7619,.3641 1.2056,.7672 1.9675,1.131 .7619,.3641 1.8418,.6888 2.6037,1.0529l6.6778,.585c.8943,.1428 2.1863,.5198 2.9613,.9747 .7751,.4551 1.2721,1.027 1.6895,1.7548 1.3711,.481 2.7428,.7669 4.1538,.975 1.4112,.2078 3.1799,.2989 4.5513,.3509 .6757,.2342 .6757,.585 .3576,.9359 0,0-.7554,1.0236-2.8174,1.0333-2.062,.01-4.3973-1.1503-5.4108-.9942 .0398,.6239 1.1131,1.9109 2.3453,2.4178l-.0396,2.9632-.5568,.5072-.5961-.3899c.4771-.7017 .3178-1.5209 .1192-2.2227-.4572-.6629-.5167-.9359-1.3711-.9747-1.0138-.1954-1.7492-.4683-3.041-1.3652l-.4771,.0781c-.2783,.494-.5565,.8319-1.1924,1.1307l-1.3117-.0779s-3.0211-.6629-3.0211-.702c0-.0388-.0398-.4678 .0398-.5069 .0794-.0391 1.0334-.0388 1.1128-.0388 .6362,.1948 1.9877,.1948 1.9877,.1948l-.0398-1.131 2.0272-.117c-.4107-1.4037-.5433-2.3008-2.4247-2.6126l-5.8831,.156 .0797,.819c-1.4707-.1951-4.1339-.23-5.4942,.2207-.795,.0781-1.939,.481-2.4557,.481l-.5964-.1558c-.3975-.117-.3975-.2339-.2384-.585 2.5439-.1951 2.9417-.3899 3.6968-.7408 .0398-.2339-.2783-.7411-.3975-.7801-1.5899-.0779-2.862,.0391-3.2991-.0388-.6757-.1951-1.5902-.546-1.5902-.585 0-.0391-.1192-.6239-.0794-.6239 .0395,0 1.0337,.273 1.073,.273 1.0735,.1948 2.9417,.117 3.379-.117l.0398-.858c-.0398-.3899-.3181-.7408-.3977-.7799-.0794-.0391-1.749-.2339-2.3453-.2339-.9672-.169-.8213-.65-.8345-1.131z"/><g fill-opacity=".996"><path stroke-opacity=".996" fill="#fdfdfd" stroke="#010001" d="m390.44,133.89c.901,.2859 1.5636,.3767 2.9018,.4678l2.0272-.117c-.4107-1.4037-.5433-2.3008-2.4247-2.6126l-5.8831,.156 .0797,.819c1.7888,.6627 2.6632,1.0267 3.2991,1.2868z"/><path fill="#011171" stroke="#011171" d="m273.6,143.99-10.632-39.621 16.223-19.652 22.748,12.986 3.856,41.985c-11.608,.8602-19.128,1.9772-32.196,4.3025z"/><path stroke-opacity=".996" fill="#fbfd10" stroke="#fdc605" d="m236.92,112.42 3.7003,3.2589-1.0512,5.2389 5.1301-1.7739 3.7843,3.2589 .841-4.8263 4.2049-1.3615-3.1957-3.4651 1.0512-4.7848s-5.0459,1.4848-5.0459,1.4436-3.3637-3.2174-3.4059-3.1763c-.042,.0412-1.0933,4.5375-1.0933,4.5375l-4.9197,1.65z"/></g></g><g fill="#ffc500" stroke-width="1.25"><path d="m237.01,112.46 16.483,3.713-4.2472,1.4436-3.8263-3.0939s3.1115,7.7552 3.0695,7.714-3.6161-3.0115-3.7423-3.1351l.6308-4.5789s-5.7188,6.3528-5.7188,6.3116c0-.0415 1.0933-5.1978 1.0933-5.1978l-3.7424-3.1765z"/><path d="m241.8,110.77 3.6583,3.5065-2.5229-8.1264-1.1353,4.6198z"/><path d="m246.3,109.45c.042,.0412-.8832,4.7437-.8413,4.7437 .4204-.495 5.9288-6.229 5.8871-6.229-.0422,0-4.9619,1.5265-5.0459,1.4853z"/></g><path stroke-opacity=".996" fill="#fbfd10" stroke="#fdc605" fill-opacity=".996" stroke-width=".333" d="m396.21,104.41 .7824,4.8175-4.1796,3.4202 5.1238,1.7914 .8476,4.8694 3.7514-3.2295 4.1403,1.5402-.2581-4.666 3.8881-3.0675s-4.8728-1.964-4.8463-1.996c.0264-.032-.5475-4.5774-.6068-4.5715-.0591,.006-3.762,2.8493-3.762,2.8493l-4.8808-1.7576z"/><g stroke-width="1.25"><path fill="#ffc500" d="m396.25,104.49 10.421,13.068-4.2259-1.5025-.9862-4.7672s-2.5613,7.9465-2.5674,7.8886c-.006-.0579-.8758-4.5734-.8945-4.7473l3.4294-3.1672s-8.5204,1.4018-8.494,1.3698c.0266-.0322 4.1858-3.3622 4.1858-3.3622l-.868-4.7795z"/><g fill="#fdc605"><path d="m401.06,106.14 .5908,4.9839 3.2567-7.8712-3.8475,2.8873z"/><path d="m405.4,107.9c.006,.0579-3.7312,3.1392-3.6986,3.1652 .6443-.1248 8.6041-1.1758 8.5717-1.2016-.0328-.0261-4.8343-1.8797-4.8731-1.9636z"/></g></g><g fill="#e6141d" stroke="#e6141d" stroke-width=".333"><path d="m263.05,104.52c5.7741-2.7599 12.255-4.9132 19.09-5.8521 6.5691-.9394 13.144-1.0208 19.89-1.0063 0,0 .8838,10.331 .8838,10.418-5.3026,.0433-9.2543-.0552-18.608,1.1548-9.3016,1.2899-13.133,2.3953-18.79,4.5628l-2.4651-9.2772z"/><path fill-opacity=".996" d="m267.99,122.81c-.0885,0 2.9212,10.929 2.9212,10.929 5.5532-1.4016 11.195-2.4566 16.836-3.2512 5.6414-.7947 11.641-1.2474 17.106-1.6086l-.96-10.66c-5.7593-.3469-12.323-.3469-18.259,.4332-5.9361,.7804-11.7,2.163-17.636,4.157z"/></g><g stroke="#e5141d"><path fill="#fff" stroke-width="1.066" d="m241.49,156.56h161.16v103.34c-4.0965,40.244-42.778,70.327-78.125,70.097-38.155,1.6646-80.349-29.566-83.391-70.442l.3511-102.99z"/><path fill="#d61517" stroke-width="1.022" d="m244.84,160.17h154.45v99.03c-3.9257,38.567-40.995,67.395-74.868,67.176-36.565,1.5952-77-28.334-79.916-67.506l.3365-98.7z"/></g><g fill="#fff"><g stroke-width="1.25"><path d="m337.68,160.67h29.763v32.302h-29.763z"/><path d="m276.27,160.67h29.763v32.302h-29.763z"/><path d="m245.22,194.04h30.162v31.526h-30.162z"/><path d="m307.22,194.04h29.467v31.526h-29.467z"/><path d="m368.33,194.04h30.364v31.526h-30.364z"/><path d="m337.68,226.54h29.763v32.011h-29.763z"/><path d="m276.27,226.54h29.763v32.011h-29.763z"/><path d="m307.22,259.52h29.467v32.011h-29.467z"/></g><g stroke="#fff" stroke-width=".333"><path d="m368.52,259.8 .008,31.447 18.122,.0235c8.2675-12.078 11.099-23.843 11.876-31.464-.134,0-29.888-.0143-30.006-.007z"/><path d="m337.86,292.78 .005,31.559c12.891-2.6789 23.39-8.7867 29.4-13.27l.002-18.302-29.407,.0127z"/><path d="m276.5,292.72-.0425,17.832c10.125,7.3853 21.688,11.707 29.389,13.369l.005-31.19-29.352-.0116z"/><path d="m245.28,259.76c.9613,12.356 6.2249,23.816 11.88,31.567l18.046-.0304 .003-31.55-29.929,.0135z"/></g></g></g></g></g></svg>