<svg xmlns="http://www.w3.org/2000/svg" viewBox="0 0 640 480"><defs><clipPath id="0"><path d="m-87.62 0h682.67v512h-682.67z"/></clipPath></defs><g fill-rule="evenodd" clip-path="url(#0)" transform="matrix(.9375 0 0 .9375 82.14 0)"><path fill="#fff" d="m-619.43-512h731.43v512h-731.43z" transform="scale(-1-1)"/><g fill="#00c" transform="scale(-1-1)"><path d="m-619.43-115.23h731.43v67.23h-731.43z"/><path d="m-619.43-465.68h731.43v67.23h-731.43z"/></g><g stroke-width="1.212"><path fill="#00c" d="m136.43 190.78l110.12 191.54 112.49-190.75-222.61-.79"/><path fill="#fff" d="m225.75 317.81l20.95 35.506 21.4-35.36-42.35-.145z"/><path fill="#00c" d="m136.02 320.58l110.13-191.54 112.48 190.75-222.61.79"/><g fill="#fff"><path d="m225.75 191.61l20.95-35.506 21.4 35.36-42.35.145z"/><path d="m181.97 271.11l-21.64 35.982 40.899-.127-19.258-35.855"/><path d="m160.7 204.61l41.22.289-19.834 36.26-21.391-36.551"/><path d="m311.94 271.52l20.829 35.576-41.71-.533 20.881-35.04"/><path d="m332.39 204.61l-41.23.289 19.834 36.26 21.391-36.551"/></g></g><path fill="#fff" stroke-width="1.25" d="m218.12 204.57l-28.394 51.51 28.799 50.3 52.731 1.217 32.04-51.51-29.611-51.92-55.57.405z"/></g></svg>