<svg xmlns="http://www.w3.org/2000/svg" viewBox="0 0 640 480"><defs><clipPath id="clipPath8702" clipPathUnits="userSpaceOnUse"><path fill-opacity=".67" d="m-87.62,0h682.67v512h-682.67z"/></clipPath></defs><g fill-rule="evenodd" clip-path="url(#clipPath8702)" transform="matrix(.9375 0 0 .9375 82.144 0)"><path fill="#fff" d="m-619.43-512h731.43v512h-731.43z" transform="scale(-1)"/><g fill="#00c"><path d="m-619.43-115.23h731.43v67.227h-731.43z" transform="scale(-1)"/><path d="m-619.43-465.68h731.43v67.227h-731.43z" transform="scale(-1)"/></g><g stroke-width="1.212"><path fill="#00c" d="m136.43,190.78 110.12,191.54 112.49-190.75-222.61-.79z"/><path fill="#fff" d="m225.75,317.81 20.95,35.506 21.4-35.36-42.351-.1454z"/><path fill="#00c" d="m136.02,320.58 110.13-191.54 112.48,190.75-222.61,.79z"/><g fill="#fff"><path d="m225.75,191.61 20.95-35.506 21.4,35.36-42.351,.1453z"/><path d="m181.97,271.11-21.64,35.982 40.899-.1273-19.258-35.855z"/><path d="m160.7,204.61 41.225,.2893-19.834,36.262-21.391-36.551z"/><path d="m311.94,271.52 20.829,35.576-41.71-.5329 20.881-35.043z"/><path d="m332.39,204.61-41.225,.2893 19.834,36.262 21.391-36.551z"/></g></g><path fill="#fff" stroke-width="1.25" d="m218.12,204.57-28.394,51.515 28.799,50.297 52.731,1.217 32.044-51.514-29.611-51.92-55.571,.405z"/></g></svg>