<svg xmlns="http://www.w3.org/2000/svg" viewBox="0 0 640 480"><defs><clipPath id="clipPath8588" clipPathUnits="userSpaceOnUse"><path fill-opacity=".67" d="m-77.62,0h682.67v512h-682.67z"/></clipPath></defs><g clip-path="url(#clipPath8588)" transform="matrix(.9375 0 0 .9375 72.769 0)"><g fill-rule="evenodd"><path fill="#ba0000" stroke-width="1.25" d="m-629.43-512h731.43v512h-731.43z" transform="scale(-1)"/><g stroke="#000"><path fill="#ffef00" fill-opacity=".988" stroke-width="2.066" d="m281.02,376.01c.2-.605 .6034-6.8438 .4017-6.8438s-9.459-10.867-9.2573-10.867c.2017,0 11.874,2.6168 11.874,2.2135 0-.4017 4.6286-11.471 4.6286-11.672 0-.2 5.6354,13.484 5.6354,13.484l11.471,5.032-8.0506,6.6405s1.8118,12.881 1.8118,13.083c0,.2-8.0506-7.6488-8.0506-7.6488l-8.8556,1.0067s-1.2068-4.0253-1.6085-4.427z"/><path fill="#fff" stroke-width="2.636" d="m218.66,206.89c-7.6472,3.9377-36.996,37.486-41.021,42.718-3.3723,7.596-9.9682,17.205-16.762,23.391-7.2521,5.4866-11.282,12.982-10.284,20.078-.081,8.8308 4.87,14.843 8.8143,21.057 2.3342,2.8384 5.475,4.6733 8.8143,4.8965 6.8504,.9042 7.4588,3.0136 10.887,4.3195 13.506,18.389 33.654,31.949 48.164,42.691 9.249,4.875 15.681,9.7499 17.885,12.411 4.2484,8.1117 3.4665,16.022 2.8846,19.908-3.5905,13.549-7.1827,27.097-10.773,40.646-1.8118,11.069 7.8076,8.5796 8.325,6.3661 4.341-5.6354 10.819-1.6779 20.077-34.28 4.2435-5.7131 8.4886-11.426 12.732-17.139 0,0 4.8981-1.9589 4.8981-2.4482 7.4472-8.9416 1.7771-14.06-2.4499-15.67-3.1012-1.1423-6.2024-2.2862-9.3036-3.4285 0,0-10.773-10.773-11.263-10.773-5.1196-14.893-30.248-46.687-36.085-51.114-4.0402-4.2104-5.9627-6.004-9.7979-8.3465-5.8966-2.8202-7.7993-3.7376-11.411-5.1791-3.007-1.2068-.8662-4.508 1.0464-6.0173 19.903-10.834 35.68-22.875 54.778-35.118 .9786-.653 1.9589-1.3059 2.9375-1.9589-2.2846-13.058-4.5708-26.117-6.8554-39.175-10.61-3.7542-21.221-7.51-31.83-11.264-1.6696,1.1423-2.9375,2.2862-4.4071,3.4285z"/></g><path fill="#ffec00" stroke-width="1.25" d="m245.29,413.15c.1008-.4017 19.923-4.0253 19.923-4.0253s-2.3143,7.3463-2.4152,7.3463l-19.721,5.9362 2.2135-9.2573z"/></g><g stroke="#000"><g fill="none"><path stroke-width="2.066" d="m193.64,338.51c3.8236-10.163 14.438-18.21 21.568-20.431"/><path stroke-width="2.285" d="m244.58,413.32c1.2795-.3604 6.9612-2.0184 8.6159-2.2763 1.7655-.4133 3.5227-.8761 5.2205-1.4233 1.9589-.4001 3.1855-.7687 5.2205-1.139 1.5936-.6083 3.169-1.0249 4.8733-1.4233m-27.519,18.518c.1653-.2215 1.5159-1.415 2.4862-1.992 1.1423-.3604 5.0486-2.0184 6.5264-2.2763 1.577-.4133 3.1458-.8761 4.6617-1.4233 1.7506-.4001 2.845-.7687 4.6634-1.139 1.4233-.6083 2.8301-1.0249 4.3509-1.4233"/></g><g stroke-width="2.066"><g fill="none"><path d="m249.04,341.38h-.2843c.891,0 .3438-.0744-.8546,1.4233-.4265,1.1506-4.0798,3.6996-6.8306,3.6996-1.3274,.1422-3.3674,.2843-4.6964,.2843-.3786,0-.9009-.2843-1.2812-.2843"/><path d="m248.76,400.02h.2843 1.1373c1.4762,0 2.9574,.2629 4.2699,.2843 1.4233,0 2.8466,.4033 4.2699,.4033 1.4365,.2033 3.1673,.1372 4.6534,.3488 1.6663,.0562 3.0037,.3852 4.7378,.3852 1.3985,.0529 2.1523,.286 3.7013,.286l-3.7013-.286c1.3985,.0529 2.1523,.286 3.7013,.286"/><path d="m239.08,434.74c.1521-.2215 1.3886-1.415 2.2763-1.992 1.0464-.3604 4.6237-2.0184 5.9776-2.2763 1.4432-.4133 2.8797-.8761 4.2683-1.4233 1.6035-.4001 2.6053-.7687 4.2699-1.139 1.3043-.6083 2.592-1.0249 3.984-1.4233"/><path d="m265.73,385.27c-.805,2.3375 .238,2.9243 .6695,3.9327 .7505,.977 2.6664,2.4664 5.6932,3.4153 1.1671,.3141 2.0647,.6216 3.4153,1.139 .8943,.0827 1.334,.3058 1.992,.5687"/><path d="m153.13,299.55h.2843c-.8927,0-.3571,.0579 1.139-1.139 .9241-1.0332 1.6961-1.501 2.5606-2.5606"/><path d="m171.55,319.82c.1901,0 16.557-8.2489 18.305-10.011 1.2382-.8976 2.1755-1.8448 3.6814-2.8648 .9654-.5042 1.658-1.1506 2.5623-1.7076 .7522-1.0894 1.7341-1.7473 2.2763-2.7441 1.0051-.8712 .5736-1.8151 1.3886-2.8648 .3852-1.0745 1.1059-2.8846 1.3407-3.8682"/><path d="m221.95,308c.0893,.5885-.2612,2.402-.2364,3.7823-.0562,1.6002-2.1143,6.5429-4.6022,8.0192"/><path d="m192.55,307.82c.0959,0 2.5871,.81 6.7512,2.0912 5.0122,1.8019 15.437,8.3713 16.471,9.2755 1.0563,.8315 2.9458,1.5737 3.6699,2.5606 1.1324,.9786 1.9622,2.1077 2.8466,3.131 1.0398,1.2679 1.9258,2.3408 2.5606,3.4153 3.1657,2.5672 11.681,20.343 11.954,21.346 .4777,.939 1.0696,2.2466 1.4233,3.131 .6315,.7274 1.0596,1.7556 1.7076,2.8466 .5951,1.415 1.2613,2.0598 1.9936,3.131 .9423,.6546 2.2118,1.8978 3.4153,2.5606 1.2828,1.0976 2.4862,1.544 3.4153,2.278 1.3423,.5703 16.342,10.052 17.038,10.527 1.3704,1.101 5.5544,5.437 2.6168,8.5911-1.2464,1.0662-2.3689,2.478-3.4335,3.0814-1.0844,1.0861-2.5937,1.5721-3.8401,2.1341-6.7578,1.9969-10.2,1.2812-11.529,1.2812h-1.4233"/><path d="m159.42,274.29c1.9209,.7521 1.1456,.1967 2.8747,.9836 1.1621,.5091 1.9275,.5224 3.0698,.9389 1.2117,.3885 4.5972,.9985 6.2239,2.6317 1.1935,1.0778 2.1044,1.9887 3.4153,2.7755 1.5506,1.0696 2.6697,1.5456 4.5923,2.3474 1.6217,.6067 3.4351,1.2795 5.075,1.3374 1.7043,.0992 2.1126,.0149 3.7476,.0149h3.9856-3.9856 3.9856"/></g><g fill-rule="evenodd"><path fill="#ffe606" d="m158.96,293.28c4.2683-.2843 11.383,.9968 11.525,.9968 .002,0 9.3929-.1422 9.3929-.1422 4.9345-.4761 6.0239-2.3722 6.8306-3.7013 1.8498-2.845 3.131-3.8418 4.5543-5.9759 2.2763-1.7076 5.4089,2.2763 5.5511,2.2763 7.9679,7.543 1.5638,16.792 1.1373,17.076-3.984,3.6533-4.8386,3.8897-7.2571,1.5655-2.4201-2.8466-3.131-4.1261-5.1229-5.1229-3.8418-1.8498-11.811-.4265-11.955-.4265-.1422,0-4.1261,1.5655-4.1261,1.5655-1.9457,.7108-3.1789,2.4201-6.5462,2.9871-3.4153,.238-4.5543-.0942-6.2619-2.845-2.2763-3.5575-1.139-7.8274 2.278-8.2539z"/><path fill="#ffef00" fill-opacity=".988" d="m381.8,120.66c-.6254,.1222-6.2613,2.8281-6.1624,3.0039 .0988,.1758-4.8371,13.571-4.936,13.395-.0988-.1758-3.5383-11.633-3.8899-11.435-.3501,.1969-12.267,1.587-12.443,1.6858-.1744,.098 8.9921-11.521 8.9921-11.521l-1.2354-12.465 9.7338,3.7631s10.34-7.892 10.516-7.9909c.1744-.098-2.7218,10.766-2.7218,10.766l5.2176,7.2258s-2.9173,3.0246-3.0706,3.5717z"/></g></g><path fill="#fff" fill-rule="evenodd" stroke-width="2.636" d="m264.93,257.9c7.1801,4.7361 50.806,13.878 57.34,14.822 8.2739-.7831 19.883,.2569 28.605,3.1476 8.3367,3.6326 16.845,3.4724 22.542-.876 7.7373-4.2572 10.552-11.519 14.035-18.003 1.3302-3.4257 1.3904-7.0628-.0516-10.083-2.5691-6.4145-1.0286-7.9785-1.5705-11.607 9.4102-20.785 11.356-44.993 13.608-62.906-.2834-10.451 .8136-18.447 2.0536-21.672 4.9887-7.6787 12.267-10.874 15.94-12.271 13.57-3.5103 27.14-7.0191 40.71-10.529 10.537-3.8455 3.6522-11.01 1.4692-10.377-7.0397-1.0221-6.765-8.6088-39.72-.7002-7.0596-.899-14.12-1.7995-21.18-2.6986 0,0-4.108-3.3095-4.5346-3.0697-11.444-2.1094-13.126,5.3414-12.458,9.815 .5242,3.2631 1.0469,6.5269 1.571,9.79 0,0-4.1109,14.671-3.8711,15.097-10.473,11.761-26.062,49.529-27.06,56.786-.4725,6.8198-3.0481,5.5882-2.3575,12.217 .0259,5.1798-.5768,1.9458 1.1525,12.618 .4218,3.2125-3.505,2.9644-5.7579,2.0368-19.198-12.039-37.426-19.891-57.458-30.538-1.0488-.533-2.0984-1.0675-3.1472-1.6006-10.262,8.3908-20.526,16.784-30.788,25.175 1.9272,11.088 3.8537,22.178 5.7809,33.266 1.814,.8955 3.4325,1.4401 5.1484,2.1613z"/></g><path fill="#ffec00" fill-rule="evenodd" stroke-width="1.25" d="m431.67,133.6c-.3996,.109-13.273-15.394-13.273-15.394s7.5378-1.583 7.5873-1.4951l14.84,14.281-9.1542,2.6074z"/><g stroke="#000"><g fill="none"><path stroke-width="2.066" d="m391.93,215.21c-10.733,1.6479-22.949-3.6606-28.379-8.7874"/><path stroke-width="2.285" d="m432.18,134.14c-.9412-.9387-5.171-5.0787-6.2067-6.3947-1.2255-1.3364-2.4902-2.6413-3.7991-3.853-1.3088-1.5115-2.2312-2.4-3.5513-3.9924-1.3113-1.0909-2.4465-2.26-3.629-3.5504m29.628,14.912c-.2741-.0355-1.9764-.6279-2.9548-1.191-.8739-.8191-4.2336-3.4115-5.1827-4.5733-1.1331-1.1721-2.3054-2.3128-3.5253-3.366-1.2067-1.3299-2.0643-2.1032-3.2783-3.5068-1.2278-.9425-2.2804-1.9646-3.373-3.095"/><g stroke-width="2.066"><path d="m367.28,165.51c.047,.0836 .0932,.1657 .1393,.2478-.4367-.7767-.2333-.2633 1.6595,.0474 1.2119-.1921 5.2243,1.7432 6.5724,4.1409 .7745,1.0874 1.8981,2.7959 2.5495,3.9544 .1855,.33 .1937,.9247 .38,1.2561"/><path d="m418.53,137.02c-.0462-.0821-.0924-.1643-.1393-.2478 .1863,.3314-.3719-.6614-.5574-.9914-.7235-1.2868-1.2203-2.7067-1.8448-3.8613-.6975-1.2407-1.0435-2.679-1.741-3.9197-.5268-1.3518-1.4327-2.8281-1.9766-4.2272-.7677-1.48-1.1363-2.807-1.9862-4.3186-.6393-1.245-.8055-2.0163-1.5647-3.3665l1.5647,3.3665c-.6393-1.245-.8055-2.0163-1.5647-3.3665"/><path d="m453.54,128.44c-.2676-.024-1.914-.5169-2.8519-1.008-.827-.7355-4.0254-3.0412-4.9137-4.0949-1.0675-1.0554-2.175-2.0808-3.3325-3.023-1.1346-1.2017-1.9469-1.8942-3.0855-3.1638-1.1695-.8388-2.1637-1.7571-3.1931-2.7752"/><path d="m397.35,129.45c2.4321-.4438 2.4324-1.6407 3.0999-2.511 .4838-1.133 .8431-3.533 .1868-6.6364-.2982-1.1712-.4701-2.1044-.681-3.5352-.3662-.8201-.3872-1.3127-.4805-2.015"/><path d="m377.82,269.62c-.0462-.0821-.0932-.1657-.1393-.2479 .4375,.7781 .2254,.2829-1.551-.4346-1.3535-.2991-2.1396-.7428-3.487-.9771"/><path d="m386.46,243.62c-.0932-.1657-15.305-10.39-17.697-11.049-1.3892-.6394-2.6743-.9922-4.3014-1.805-.9126-.5944-1.8155-.8814-2.7442-1.3966-1.3182-.1217-2.3729-.6552-3.5076-.6393-1.252-.4492-1.8633,.3895-3.1777,.1936-1.1254,.1909-3.0565,.4497-4.0289,.7271"/><path d="m351.46,205.48c.4692-.3662 2.2217-.9495 3.4128-1.6476 1.4224-.7352 6.7395-1.3636 9.2456,.0815"/><path d="m365.71,231.2c-.047-.0836-.5618-2.6521-1.4859-6.9097-.8857-5.2521-.2682-17.558 .0128-18.904 .2071-1.3283-.0719-3.3391 .4335-4.4539 .2981-1.4667 .8756-2.7434 1.3341-4.0158 .5956-1.5278 1.0966-2.8259 1.7221-3.9058 .6864-4.0176 12.008-20.152 12.749-20.881 .5843-.8766 1.4341-2.0333 2.0316-2.7751 .3245-.9069 1.011-1.784 1.6444-2.8836 .9418-1.2122 1.1773-2.1089 1.7521-3.2722 .1088-1.1422 .5702-2.8581 .5583-4.232 .3281-1.6561 .1274-2.9239 .3119-4.0934-.1607-1.4496 .7532-19.172 .8257-20.011 .288-1.7341 2.0172-7.5062 6.2062-6.4914 1.5403,.5639 3.321,.8505 4.3686,1.4827 1.4782,.413 2.6415,1.4904 3.7423,2.3014 5.0526,4.912 6.1154,8.2628 6.7668,9.4214 .2325,.4135 .465,.8271 .6975,1.2407"/><path d="m352.64,275.94c-.0462-.0821-.0932-.1657-.1393-.2478 .3767,.67 .168,.336-.3104-1.1322-.1257-1.2625-.5151-2.9704-.7118-4.1703-.2552-1.2466-.8394-2.6667-.681-3.5352-.4464-1.2662-.1656-2.3116-.0459-3.5661 .3546-1.5686 .5148-2.7036 .5583-4.232 .1724-1.8758 .0338-3.205 .1408-4.9777-.4943-1.4593-.595-2.6808-1.3483-4.1386-.6702-1.3945-1.1829-2.6841-1.9841-4.1092l-1.9533-3.4742 1.9533,3.4742-1.9533-3.4742"/></g></g><path fill="#ffe606" fill-rule="evenodd" stroke-width="2.066" d="m369.5,267.6c-2.3397-3.5812-4.7098-10.411-4.7795-10.535-.0008-.001-4.7272-8.1178-4.7272-8.1178-2.8333-4.0679-5.02-4.0883-6.5739-4.1401-3.3864-.2182-4.8832-.8464-7.441-1.0411-2.6041-1.1473-.6666-5.8304-.7363-5.9543 2.6701-10.642 13.871-9.5927 14.328-9.3603 5.137,1.6823 5.7619,2.3114 4.9212,5.5586-1.2953,3.5046-2.0622,4.7513-1.9548,6.9762 .2704,4.2554 5.4168,10.505 5.4873,10.63 .0697,.1239 3.3867,2.8294 3.3867,2.8294 1.5732,1.3476 3.6675,1.5849 5.812,4.2422 1.8813,2.8604 2.1498,4.016 .589,6.8526-1.9854,3.7276-6.2647,4.8289-8.3111,2.0595z"/></g><g transform="matrix(-.76172 1.4671 -1.4671 -.76172 616.55 -10.755)"><g fill-rule="evenodd"><g stroke="#000"><path fill="#ffef00" fill-opacity=".988" stroke-width="1.25" d="m238.86,224.5c.121-.366 .365-4.14 .243-4.14s-5.722-6.574-5.6-6.574 7.183,1.583 7.183,1.339c0-.243 2.8-6.939 2.8-7.061 0-.121 3.409,8.157 3.409,8.157l6.939,3.044-4.87,4.017s1.096,7.792 1.096,7.914c0,.121-4.87-4.627-4.87-4.627l-5.357,.609s-.73-2.435-.973-2.678z"/><path fill="#fff" stroke-width="1.595" d="m201.14,122.2c-4.626,2.382-22.38,22.676-24.815,25.841-2.04,4.595-6.03,10.408-10.14,14.15-4.387,3.319-6.825,7.853-6.221,12.146-.049,5.342 2.946,8.979 5.332,12.738 1.412,1.717 3.312,2.827 5.332,2.962 4.144,.547 4.512,1.823 6.586,2.613 8.17,11.124 20.358,19.327 29.136,25.825 5.595,2.949 9.486,5.898 10.819,7.508 2.57,4.907 2.097,9.692 1.745,12.043-2.172,8.196-4.345,16.392-6.517,24.588-1.096,6.696 4.723,5.19 5.036,3.851 2.626-3.409 6.545-1.015 12.145-20.737 2.567-3.456 5.135-6.912 7.702-10.368 0,0 2.963-1.185 2.963-1.481 4.505-5.409 1.075-8.505-1.482-9.479-1.876-.691-3.752-1.383-5.628-2.074 0,0-6.517-6.517-6.813-6.517-3.097-9.009-18.39-28.426-21.921-31.104-3.456-2.271-2.043-3.264-5.743-4.865-2.739-1.522-.855-.881-6.995-3.133-1.819-.73-.524-2.727 .633-3.64 12.04-6.554 21.584-13.838 33.137-21.244 .592-.395 1.185-.79 1.777-1.185-1.382-7.899-2.765-15.799-4.147-23.698-6.418-2.271-12.837-4.543-19.255-6.814-1.01,.691-1.777,1.383-2.666,2.074z"/></g><path fill="#ffec00" stroke-width="1.25" d="m217.25,246.97c.061-.243 12.052-2.435 12.052-2.435s-1.4,4.444-1.461,4.444l-11.93,3.591 1.339-5.6z"/></g><g stroke="#000"><g fill="none"><path stroke-width="1.25" d="m186,201.82c2.313-6.148 8.734-11.016 13.047-12.359"/><path stroke-width="1.382" d="m216.82,247.07c.774-.218 4.211-1.221 5.212-1.377 1.068-.25 2.131-.53 3.158-.861 1.185-.242 1.927-.465 3.158-.689 .964-.368 1.917-.62 2.948-.861m-16.647,11.202c.1-.134 .917-.856 1.504-1.205 .691-.218 3.054-1.221 3.948-1.377 .954-.25 1.903-.53 2.82-.861 1.059-.242 1.721-.465 2.821-.689 .861-.368 1.712-.62 2.632-.861"/><g stroke-width="1.25"><path d="m219.52,203.56h-.172c.539,0 .208-.045-.517,.861-.258,.696-2.468,2.238-4.132,2.238-.803,.086-2.037,.172-2.841,.172-.229,0-.545-.172-.775-.172"/><path d="m219.35,239.02h.172 .688c.893,0 1.789,.159 2.583,.172 .861,0 1.722,.244 2.583,.244 .869,.123 1.916,.083 2.815,.211 1.008,.034 1.817,.233 2.866,.233 .846,.032 1.302,.173 2.239,.173l-2.239-.173c.846,.032 1.302,.173 2.239,.173"/><path d="m213.49,260.03c.092-.134 .84-.856 1.377-1.205 .633-.218 2.797-1.221 3.616-1.377 .873-.25 1.742-.53 2.582-.861 .97-.242 1.576-.465 2.583-.689 .789-.368 1.568-.62 2.41-.861"/><path d="m229.62,230.1c-.487,1.414 .144,1.769 .405,2.379 .454,.591 1.613,1.492 3.444,2.066 .706,.19 1.249,.376 2.066,.689 .541,.05 .807,.185 1.205,.344"/><path d="m161.5,178.25h.172c-.54,0-.216,.035 .689-.689 .559-.625 1.026-.908 1.549-1.549"/><path d="m172.64,190.51c.115,0 10.016-4.99 11.073-6.056 .749-.543 1.316-1.116 2.227-1.733 .584-.305 1.003-.696 1.55-1.033 .455-.659 1.049-1.057 1.377-1.66 .608-.527 .347-1.098 .84-1.733 .233-.65 .669-1.745 .811-2.34"/><path d="m203.13,183.36c.054,.356-.158,1.453-.143,2.288-.034,.968-1.279,3.958-2.784,4.851"/><path d="m185.34,183.25c.058,0 1.565,.49 4.084,1.265 3.032,1.09 9.338,5.064 9.964,5.611 .639,.503 1.782,.952 2.22,1.549 .685,.592 1.187,1.275 1.722,1.894 .629,.767 1.165,1.416 1.549,2.066 1.915,1.553 7.066,12.306 7.231,12.913 .289,.568 .647,1.359 .861,1.894 .382,.44 .641,1.062 1.033,1.722 .36,.856 .763,1.246 1.206,1.894 .57,.396 1.338,1.148 2.066,1.549 .776,.664 1.504,.934 2.066,1.378 .812,.345 9.886,6.081 10.307,6.368 .829,.666 3.36,3.289 1.583,5.197-.754,.645-1.433,1.499-2.077,1.864-.656,.657-1.569,.951-2.323,1.291-4.088,1.208-6.17,.775-6.974,.775h-.861"/><path d="m165.63,163.1h.172c-.465,0-.227-.011 .689,.172 .703,.308 1.719,.609 2.41,.861 .733,.235 1.655,.348 2.066,.689 .8,.14 1.268,.598 1.894,1.033 .722,.652 1.273,1.073 2.066,1.549 .938,.647 1.68,.968 2.583,1.55 .916,.172 1.59,.481 2.582,.516 .934,.06 1.766,.172 2.755,.172h2.411-2.411 2.411"/><path d="m221.24,142.95h-.345c.637,0 .458-.023-.516,.172-1.017,.525-2.371,.922-3.272,1.377-1.028,.34-2.133,.717-3.099,1.206-1.094,.641-2.102,1.162-3.099,1.893-.991,.531-1.965,1.185-2.927,1.722-.959,.521-1.751,1.024-2.582,1.722-.694,.385-1.637,.93-2.411,1.549-.727,.261-1.252,.779-1.721,1.206-.911,.807-1.469,1.226-2.411,2.066-.495,.468-1.153,1.018-1.894,1.721-.778,.519-1.62,1.517-2.238,2.066-.396,.517-.976,1.132-1.549,1.55-.441,.555-.952,1.285-1.55,1.722-.355,.528-.976,1.216-1.55,1.894-.465,.569-1.105,1.142-1.549,1.721-.598,.662-1.056,1.329-1.722,1.894-.119,.398-.369,.604-.516,.861"/></g></g><path fill="#ffe606" fill-rule="evenodd" stroke-width="1.25" d="m165.03,174.46c2.582-.172 6.886,.603 6.972,.603 .001,0 5.682-.086 5.682-.086 2.985-.288 3.644-1.435 4.132-2.239 1.119-1.721 1.894-2.324 2.755-3.615 1.377-1.033 3.272,1.377 3.358,1.377 4.82,4.563 .946,10.158 .688,10.33-2.41,2.21-2.927,2.353-4.39,.947-1.464-1.722-1.894-2.496-3.099-3.099-2.324-1.119-7.145-.258-7.232-.258-.086,0-2.496,.947-2.496,.947-1.177,.43-1.923,1.464-3.96,1.807-2.066,.144-2.755-.057-3.788-1.721-1.377-2.152-.689-4.735 1.378-4.993z"/></g></g><g stroke="#000" stroke-width="2.066"><path fill="#ffef00" fill-rule="evenodd" fill-opacity=".987" d="m221.29,199.65c-1.5661-1.4223 29.458,11.241 33.726,11.385 5.8356-2.1344 29.886-22.484 29.886-22.484 .2374,1.992 1.0899,7.1623 3.4136,8.2543-9.296,7.5428-17.74,14.799-27.037,22.341 .6647,11.954-1.5172,24.62 4.5538,37.997 0,0-7.2565,.1411-7.2565,0-6.404-6.404-8.6822-37.284-8.6822-37.284-10.198-4.5544-20.398-8.9651-30.596-13.519 1.4711-.9496 2.6567-3.8891 1.9927-6.6896z"/><g fill="none"><path d="m250.81,231.3c.4961-.3599-5.5962,2.8301-7.1609,3.631-28.185,15.035-42.689,36.905-43.593,37.731-.4872,.9317-1.3837,2.1744-2.2046,3.3916-.6606,1.0204-1.6088,2.0766-2.2335,3.1088-.8635,1.1959-2.6787,3.5574-3.6702,4.606-.1239,.6757 .47-.2312 .2759,.2181"/><path d="m270.07,213.43c-.547-.2766 5.0767,3.6819 6.5045,4.7065 26.261,18.187 52.344,21.082 53.492,21.507 1.0514,.007 2.5666,.236 4.0239,.4094 1.2103,.1204 2.5824,.4803 3.7865,.5642 1.458,.2202 4.3886,.7541 5.7751,1.1567 .6564-.1995-.4204-.3117 .0674-.3454"/></g></g></g></svg>