<svg xmlns="http://www.w3.org/2000/svg" viewBox="0 0 640 480"><defs><clipPath id="0"><path d="m0 0h640v480h-640z"/></clipPath></defs><g fill-rule="evenodd" stroke-width="1.25" clip-path="url(#0)"><path fill="#fff" d="m-39.999 0h720v480h-720z"/><path fill="#329203" d="m-39.999 320h720v160h-720z"/><path fill="#e77300" d="m-39.999 0h720v160h-720z"/><ellipse fill="#08399c" cx="362.9" cy="367.47" rx="305" ry="305" transform="matrix(.40323 0 0 .40323 173.67 91.82)"/><g fill="#fff"><path d="m426.58 212.4c.673 2.456.815 3.768 1.304 6.118-4.822 1.492-7.332 4.706-6.75 7.922.481 2.897 2.624 7.02 8.66 6.141.156 2.395.226 3.772.233 6.319-18.228.044-37.441-1.01-55.37-2.597-13.226-1.145-16.373 2.527-23.25 3.109-7.979.653-14.263.178-30.744.827 16.15-3.33 22.503-5.347 29.982-6.556 7.199-1.117 9.971 1.489 23.369-3.721 16.921-6.726 34.985-12.745 52.56-17.563"/><path d="m293.62 134.15c2.461-.657 3.773-.79 6.126-1.264 1.461 4.832 4.658 7.362 7.878 6.801 2.9-.462 7.04-2.579 6.197-8.62 2.396-.14 3.773-.202 6.32-.192-.074 18.228-1.25 37.433-2.956 55.35-1.231 13.218 2.42 16.389 2.959 23.27.601 7.983.086 14.264.627 30.749-3.226-16.18-5.201-22.537-6.361-30.02-1.07-7.206 1.554-9.962-3.569-23.393-6.616-16.965-12.518-35.07-17.222-52.678"/><path d="m321.63 130.75c2.547-.006 3.85.2 6.246.344.177 5.04 2.621 8.308 5.877 8.589 2.922.294 7.461-.695 8.195-6.749 2.352.477 3.699.769 6.159 1.431-4.732 17.603-10.779 35.87-17.01 52.755-4.569 12.464-1.85 16.464-3.089 23.25-1.46 7.871-3.564 13.812-7.255 29.888 1.017-16.464.733-23.12 1.526-30.653.807-7.24 4.049-9.233 2.53-23.528-2.059-18.09-3.137-37.1-3.182-55.33"/><path d="m349.87 134.7c2.462.652 3.667 1.188 5.945 1.946-1.132 4.919.386 8.703 3.459 9.816 2.747 1.039 7.387 1.256 9.66-4.403 2.149 1.069 3.375 1.699 5.581 2.973-9.118 15.784-19.678 31.868-30.06 46.571-7.634 10.861-6.04 15.427-8.99 21.666-3.443 7.227-7.01 12.423-14.729 26.999 5.236-15.642 6.68-22.14 9.392-29.22 2.65-6.786 6.297-7.874 8.522-22.08 2.684-18.01 6.554-36.653 11.218-54.27"/><path d="m376.13 145.81c2.21 1.266 3.236 2.095 5.241 3.415-2.364 4.46-1.875 8.508.806 10.376 2.385 1.713 6.812 3.122 10.47-1.758 1.8 1.588 2.822 2.513 4.623 4.314-12.886 12.893-27.24 25.703-41.07 37.23-10.18 8.521-9.82 13.343-14.282 18.608-5.193 6.092-9.982 10.19-21.2 22.279 9.1-13.759 12.173-19.667 16.621-25.801 4.313-5.871 8.117-5.98 13.935-19.12 7.245-16.706 15.799-33.716 24.857-49.53"/><path d="m398.51 163.2c1.811 1.791 2.589 2.856 4.188 4.646-3.43 3.703-3.997 7.741-1.885 10.236 1.865 2.268 5.782 4.766 10.57.989 1.332 1.997 2.082 3.153 3.361 5.356-15.764 9.151-32.929 17.846-49.25 25.432-12.03 5.621-12.917 10.374-18.581 14.317-6.584 4.554-12.264 7.285-26.21 16.09 12.326-10.961 16.815-15.881 22.689-20.667 5.676-4.566 9.38-3.696 18.379-14.906 11.292-14.285 23.927-28.528 36.743-41.49z"/><path d="m416.01 186.35c1.277 2.204 1.748 3.436 2.82 5.584-4.283 2.672-5.891 6.418-4.509 9.38 1.203 2.679 4.326 6.118 9.938 3.733.761 2.277 1.18 3.589 1.835 6.05-17.615 4.687-36.462 8.565-54.2 11.595-13.08 2.262-15.189 6.615-21.691 8.93-7.549 2.664-13.747 3.806-29.519 8.632 14.774-7.336 20.398-10.904 27.323-13.978 6.676-2.914 10.02-1.1 21.65-9.552 14.649-10.815 30.583-21.237 46.36-30.376"/><path d="m214.69 267.32c-.658-2.461-.792-3.773-1.266-6.126 4.831-1.463 7.361-4.66 6.799-7.88-.463-2.9-2.581-7.03-8.622-6.195-.141-2.396-.203-3.773-.194-6.32 18.228.068 37.434 1.238 55.35 2.938 13.219 1.226 16.389-2.426 23.269-2.966 7.983-.604 14.264-.09 30.749-.638-16.18 3.231-22.535 5.209-30.02 6.371-7.205 1.073-9.962-1.55-23.392 3.577-16.962 6.622-35.06 12.529-52.672 17.239"/><path d="m430.16 240.36c.024 2.547-.174 3.851-.301 6.248-5.04.212-8.29 2.677-8.549 5.936-.275 2.924.745 7.456 6.804 8.149-.461 2.356-.744 3.704-1.389 6.169-17.635-4.612-35.942-10.535-52.869-16.649-12.495-4.484-16.476-1.738-23.273-2.931-7.881-1.406-13.836-3.47-29.936-7.05 16.47.905 23.12.576 30.662 1.318 7.245.758 9.261 3.986 23.545 2.37 18.08-2.182 37.08-3.389 55.31-3.558"/><path d="m426.4 268.65c-.636 2.466-1.164 3.675-1.907 5.958-4.926-1.1-8.701.442-9.793 3.523-1.021 2.753-1.208 7.395 4.466 9.632-1.055 2.156-1.677 3.386-2.937 5.6-15.843-9.02-31.995-19.471-46.766-29.755-10.91-7.563-15.466-5.94-21.724-8.849-7.249-3.396-12.468-6.93-27.09-14.553 15.676 5.134 22.19 6.536 29.28 9.202 6.803 2.606 7.915 6.245 22.13 8.378 18.03 2.567 36.695 6.315 54.35 10.865"/><path d="m415.43 295.03c-1.252 2.218-2.076 3.248-3.384 5.261-4.474-2.337-8.519-1.825-10.371.868-1.699 2.395-3.081 6.83 1.821 10.459-1.577 1.81-2.496 2.837-4.286 4.649-12.97-12.808-25.866-27.09-37.472-40.844-8.581-10.129-13.402-9.74-18.693-14.17-6.123-5.157-10.25-9.921-22.405-21.07 13.813 9.02 19.739 12.06 25.9 16.466 5.897 4.278 6.03 8.08 19.21 13.82 16.749 7.145 33.81 15.597 49.682 24.56"/><path d="m398 317.69c-1.784 1.818-2.846 2.6-4.631 4.205-3.716-3.416-7.756-3.968-10.243-1.847-2.261 1.873-4.745 5.8-.95 10.574-1.992 1.34-3.145 2.093-5.344 3.38-9.21-15.73-17.968-32.862-25.615-49.15-5.665-12.01-10.422-12.878-14.386-18.528-4.579-6.567-7.331-12.237-16.184-26.15 11.01 12.285 15.944 16.756 20.752 22.612 4.588 5.659 3.731 9.366 14.974 18.323 14.327 11.239 28.617 23.821 41.627 36.589"/><path d="m375.1 335.17c-2.197 1.289-3.426 1.767-5.568 2.851-2.696-4.267-6.452-5.855-9.406-4.456-2.672 1.218-6.094 4.361-3.676 9.959-2.272.774-3.583 1.2-6.04 1.869-4.787-17.588-8.772-36.412-11.902-54.14-2.337-13.07-6.701-15.15-9.05-21.64-2.707-7.534-3.884-13.725-8.8-29.47 7.42 14.732 11.02 20.335 14.13 27.24 2.952 6.66 1.157 10.01 9.674 21.596 10.898 14.588 21.411 30.462 30.638 46.18"/><path d="m348.59 346.03c-2.456.675-3.767.818-6.117 1.309-1.496-4.821-4.711-7.328-7.927-6.744-2.897.483-7.02 2.63-6.135 8.664-2.395.157-3.771.229-6.319.238-.058-18.228.978-37.441 2.554-55.37 1.135-13.227-2.539-16.371-3.127-23.25-.659-7.978-.189-14.263-.851-30.744 3.343 16.15 5.365 22.498 6.579 29.977 1.123 7.198-1.481 9.973 3.739 23.366 6.739 16.916 12.772 34.975 17.604 52.55z"/><path d="m320.04 349.63c-2.547.012-3.85-.192-6.247-.331-.188-5.04-2.638-8.303-5.896-8.577-2.922-.288-7.459.71-8.181 6.766-2.353-.472-3.701-.762-6.162-1.418 4.694-17.613 10.703-35.892 16.897-52.791 4.543-12.474 1.815-16.467 3.04-23.259 1.443-7.874 3.535-13.819 7.192-29.903-.983 16.466-.684 23.12-1.461 30.656-.792 7.242-4.03 9.242-2.481 23.533 2.098 18.09 3.215 37.09 3.299 55.32"/><path d="m291.8 345.74c-2.464-.646-3.67-1.18-5.949-1.933 1.121-4.922-.405-8.702-3.481-9.808-2.749-1.033-7.39-1.24-9.651 4.424-2.152-1.064-3.379-1.691-5.587-2.961 9.08-15.804 19.608-31.911 29.956-46.637 7.61-10.878 6.01-15.44 8.943-21.685 3.428-7.235 6.984-12.438 14.67-27.03-5.201 15.653-6.631 22.16-9.328 29.24-2.635 6.791-6.279 7.888-8.474 22.09-2.644 18.02-6.473 36.667-11.1 54.3"/><path d="m265.43 334.64c-2.212-1.263-3.239-2.091-5.245-3.409 2.358-4.463 1.865-8.51-.82-10.375-2.387-1.71-6.816-3.113-10.468 1.771-1.802-1.585-2.825-2.509-4.629-4.308 12.869-12.909 27.21-25.738 41.02-37.28 10.169-8.533 9.803-13.356 14.258-18.626 5.186-6.099 9.969-10.203 21.18-22.305-9.08 13.77-12.148 19.682-16.588 25.822-4.305 5.876-8.109 5.991-13.911 19.14-7.224 16.715-15.756 33.736-24.794 49.566z"/><path d="m242.8 317.05c-1.808-1.794-2.585-2.86-4.18-4.653 3.436-3.698 4.01-7.734 1.902-10.232-1.861-2.271-5.774-4.776-10.568-1.01-1.329-1.999-2.076-3.157-3.352-5.362 15.78-9.125 32.959-17.791 49.29-25.35 12.04-5.601 12.934-10.352 18.605-14.286 6.591-4.543 12.276-7.265 26.24-16.04-12.345 10.94-16.841 15.853-22.723 20.63-5.683 4.557-9.387 3.68-18.404 14.875-11.316 14.266-23.974 28.488-36.812 41.43"/><path d="m225.41 293.99c-1.276-2.204-1.747-3.437-2.818-5.585 4.284-2.67 5.893-6.416 4.512-9.379-1.202-2.679-4.324-6.12-9.937-3.736-.76-2.277-1.178-3.59-1.833-6.05 17.617-4.68 36.465-8.551 54.21-11.575 13.08-2.257 15.192-6.609 21.694-8.922 7.55-2.661 13.749-3.801 29.522-8.621-14.776 7.331-20.402 10.896-27.328 13.968-6.678 2.912-10.02 1.097-21.654 9.543-14.653 10.81-30.591 21.23-46.37 30.358"/><path d="m267.34 144.64c2.21-1.266 3.444-1.731 5.597-2.793 2.651 4.296 6.39 5.922 9.359 4.554 2.685-1.19 6.139-4.297 3.78-9.921 2.28-.75 3.595-1.162 6.06-1.806 4.602 17.638 8.39 36.502 11.335 54.26 2.2 13.09 6.542 15.221 8.826 21.733 2.628 7.562 3.74 13.765 8.491 29.56-7.265-14.809-10.806-20.45-13.847-27.389-2.882-6.69-1.052-10.03-9.448-21.696-10.745-14.701-21.09-30.685-30.15-46.5"/><path d="m211.28 238.77c.006-2.547.218-3.849.373-6.244 5.05-.154 8.321-2.582 8.617-5.837.308-2.92-.66-7.464-6.71-8.227.488-2.35.787-3.696 1.459-6.152 17.581 4.814 35.819 10.946 52.675 17.255 12.443 4.627 16.455 1.927 23.24 3.197 7.864 1.496 13.795 3.629 29.853 7.394-16.459-1.094-23.11-.841-30.645-1.669-7.236-.841-9.214-4.092-23.516-2.64-18.1 1.975-37.12 2.963-55.34 2.923"/><path d="m215.3 210.76c.658-2.46 1.198-3.664 1.961-5.94 4.916 1.145 8.704-.363 9.825-3.434 1.046-2.744 1.276-7.384-4.377-9.672 1.074-2.146 1.708-3.37 2.988-5.573 15.76 9.16 31.816 19.762 46.49 30.18 10.841 7.662 15.411 6.081 21.642 9.05 7.218 3.462 12.404 7.04 26.961 14.8-15.628-5.277-22.13-6.738-29.19-9.469-6.779-2.668-7.858-6.317-22.05-8.58-18-2.731-36.635-6.65-54.24-11.361z"/><path d="m226.53 184.44c1.274-2.206 2.107-3.228 3.434-5.229 4.452 2.38 8.501 1.906 10.379-.769 1.722-2.379 3.146-6.801-1.721-10.476 1.594-1.795 2.523-2.813 4.33-4.608 12.847 12.932 25.606 27.334 37.08 41.2 8.484 10.21 13.308 9.867 18.557 14.348 6.074 5.215 10.154 10.02 22.2 21.282-13.726-9.147-19.623-12.243-25.741-16.712-5.856-4.334-5.952-8.138-19.08-14-16.68-7.304-33.66-15.919-49.45-25.03z"/><path d="m244.6 161.55c1.811-1.791 2.884-2.558 4.693-4.136 3.665 3.471 7.696 4.083 10.214 1.999 2.289-1.84 4.83-5.728 1.107-10.558 2.01-1.31 3.176-2.046 5.393-3.301 8.976 15.865 17.479 33.13 24.883 49.53 5.487 12.09 10.23 13.03 14.11 18.739 4.481 6.634 7.148 12.344 15.794 26.39-10.823-12.447-15.693-16.991-20.414-22.917-4.503-5.726-3.591-9.421-14.7-18.543-14.159-11.45-28.26-24.24-41.08-37.2z"/></g></g></svg>