<svg xmlns="http://www.w3.org/2000/svg" viewBox="0 0 640 480"><defs><clipPath id="clipPath6904" clipPathUnits="userSpaceOnUse"><path fill-opacity=".67" d="m-0,64h512v384h-512z"/></clipPath></defs><g fill-rule="evenodd" clip-path="url(#clipPath6904)" transform="matrix(1.25 0 0 1.25 0 -80)"><path fill="#fff" stroke-width="1.25" d="m-0,0h512v512h-512z"/><path d="m-0,341.33h512v170.67h-512z"/><path fill="#f30000" d="m-0,0h512v170.67h-512z"/><g fill="#005623"><path stroke-width="1.25" d="m566.56,405.84-35.32-25.55-35.15,25.9 13.38-41.5-35.49-25.42 43.6-.1 13.22-41.6 13.56,41.43 43.65-.29-35.21,25.7z" transform="matrix(.5978 0 0 .5978 148.9 41.417)"/><path d="m193.24,233.17c.217,24.34 0,39.988 0,44.986-2.6082,3.0422-5.2158,6.302-7.1718,8.9096-.8692-.6516-1.0868-.6516-1.0868-1.956 0-1.3038-.217-33.25 0-44.986 3.912-1.956 6.5202-7.3894 8.2586-6.9542zm-8.9102-.4346c1.956-3.2598 4.129-6.5202 5.6504-8.041 1.5214,.8692 1.3038,3.2598 1.5214,3.9114-1.5214,2.1736-5.2158,5.6504-6.3026,6.7372-.4346-.6516 0-.4346-.8692-2.6076zm10.866-27.818c-13.257,8.6932-28.253,19.125-33.686,23.689-5.4334,4.5642-7.3888,7.3894-7.3888,15.213 0,7.824 .217,16.734-.4346,20.863-.6522,4.129-2.6082,8.4756-7.3894,4.5636-4.7812-3.9114-8.258-7.8234-10.432-9.5618-2.173-1.739-6.085-4.1296-11.301,.4346-5.2158,4.5636-29.556,30.208-34.12,33.033-4.5636,2.8252-5.4328,3.4774-8.6926,5.2158 6.7366,.4346 14.343,.8692 20.428-.4346 8.041-5.868 17.386-19.125 20.429-22.385 3.0428-3.2598 6.085-10.214 12.822-2.6076 6.7372,7.6064 6.5196,7.8234 9.7794,10.214 3.2604,2.3906 7.3894,1.956 10.215-2.8252 2.8252-4.7812 3.0422-6.9542 4.129-14.778 1.0868-7.8234 1.7384-17.603 3.4774-21.95 1.7384-4.3466 5.2158-8.6932 11.083-12.171 5.868-3.4768 6.9548-3.6944 8.2586-4.346 2.6076-4.9988 8.9102-16.734 11.518-19.56 1.0868-1.3038 1.3044-1.956 1.3044-2.6082zm-58.895,79.107c-3.2598-2.173-4.3466-3.912-6.085-3.6944s-5.4328,5.2158-7.6064,6.5196c2.8252,2.3906 5.4334,4.5642 7.6064,4.1296 2.1736-.4352 3.6944-5.2158 6.085-6.9548z"/><path d="m411.65,222.96c-4.5636,1.0868-6.9542,7.1718-10.866,11.301-.4346,12.171-.4346,49.985-.4346,54.983 3.912-4.5636 6.3026-7.1718 9.1278-8.9102 .6516-20.211 3.0422-48.463 2.173-57.374zm-21.516-.217c-5.4328,3.4768-6.7366,6.9542-11.301,10.866-.217,14.561 .4346,35.206-.6516,38.032-1.0868,2.8252-3.4774,8.6932-9.3448,8.041-5.868-.6516-7.6064-1.7384-7.6064-7.8234s1.3038-44.986 1.3038-51.289c-4.5642,2.1736-8.4756,8.9108-11.735,11.736 0,15.212 .6516,34.554 .217,38.684-.4346,4.129-2.173,10.866-9.5624,10.649-7.3888-.217-11.301-3.912-11.301-8.258 0-4.3466-.217-32.816 .2176-37.815-6.5196,4.5636-21.733,13.691-24.775,25.427-3.0422,11.735 1.739,15.213 6.085,13.039 4.3466-2.173 6.3026-4.129 8.6932-5.8674 .6522,7.3888 .8692,15.43 8.258,20.211 7.3894,4.7812 16.734,3.0428 20.212,.4346 3.4768-2.6076 4.7812-4.3466 5.6504-5.6504 6.5196,4.9982 16.082,7.6064 22.385,2.173 6.302-5.4328 9.7795-10.866 10.431-16.951 .6522-6.085 3.695-37.38 2.8252-45.638zm-68.24,29.556c-6.5196,3.0428-9.3448,7.6064-7.6064,10.432 1.7384,2.8252 5.2158-.4346 7.6064-1.5214-.4346-4.346 0-6.7366 0-8.9102zm41.944-46.073c-1.5214,4.9982-2.6076,4.129-4.5636,4.3466-1.956,.217-3.2598-1.739-4.7812-3.4774-1.5214,.217-1.7384,.6522-2.8252,1.0868 3.4768,4.9982 6.085,7.1712 10.214,6.085 4.129-1.0868 4.3466-4.7812 4.3466-6.7372-.6522-.4346-.8692-.6522-2.3906-1.3038zm-3.6944-6.3026c-1.956,.6522-2.3906,1.0868-3.0428,2.8252 1.0868,2.3906 2.6082,3.6944 4.1296,3.0428 1.5208-.6522 1.7384-3.2598 .8692-3.912-.8692-.6522-.4346-1.0868-1.956-1.956z"/><g stroke-width="1.25"><path d="m566.56,405.84-35.32-25.55-35.15,25.9 13.38-41.5-35.49-25.42 43.6-.1 13.22-41.6 13.56,41.43 43.65-.29-35.21,25.7z" transform="matrix(.5978 0 0 .5978 -276.18 41.417)"/><path d="m566.56,405.84-35.32-25.55-35.15,25.9 13.38-41.5-35.49-25.42 43.6-.1 13.22-41.6 13.56,41.43 43.65-.29-35.21,25.7z" transform="matrix(.5978 0 0 .5978 -64.075 41.417)"/></g></g></g></svg>