<svg xmlns="http://www.w3.org/2000/svg" viewBox="0 0 640 480"><defs><clipPath id="clipPath6805" clipPathUnits="userSpaceOnUse"><path fill-opacity=".67" d="m-85.311,0h682.67v512h-682.67z"/></clipPath></defs><g fill-rule="evenodd" clip-path="url(#clipPath6805)" transform="matrix(.9375 0 0 .9375 79.98 -.00001)"><g stroke-width="1.25"><path fill="#fff" d="m-191.96,0h896v512h-896z"/><path fill="#da0000" d="m-191.96,343.84h896v168.16h-896z"/><g fill="#fff"><g transform="matrix(1.5197 0 0 1.5197 -70.36 36.806)"><path d="m32.067,206.72h32.289v2.222h-32.289z"/><path d="m36.881,217.83h2.2217v2.158h-2.2217z"/><path d="m217.76-64.44h2.222v6.453h-2.222z" transform="rotate(90)"/><path d="m67.911,206.72h2.2217v13.266h-2.2217z"/><path d="m217.76-80.765h2.222v12.229h-2.222z" transform="rotate(90)"/><path d="m57.987,212.57h2.2217v7.416h-2.2217z"/><path d="m67.911,206.72h2.2217v13.266h-2.2217z" transform="translate(11.035 -.00002)"/><path d="m73.391,206.72h2.2217v13.266h-2.2217z"/><path d="m212-43.903h2.222v11.785h-2.222z" transform="matrix(0 1 -1 0 .00922 -.00002)"/><path d="m212-69.772h2.222v11.785h-2.222z" transform="rotate(90)"/><path d="m57.987,212.57h2.2217v7.416h-2.2217z"/><path d="m57.987,212.57h2.2217v7.416h-2.2217z"/><path d="m57.987,212.57h2.2217v7.416h-2.2217z"/><path d="m32.299,212.57h2.2217v7.416h-2.2217z" transform="translate(-.17213 -.00002)"/><path d="m51.082,212.57h2.2217v7.416h-2.2217z"/><path d="m41.691,212.57h2.2217v7.416h-2.2217z" transform="translate(0 -.00002)"/><path d="m217.76-52.641h2.222v9.9621h-2.222z" transform="rotate(90)"/><path d="m212-53.304h2.222v6.3161h-2.222z" transform="rotate(90)"/></g><g transform="matrix(1.5197 0 0 1.5197 -150.96 36.806)"><path d="m32.067,206.72h32.289v2.222h-32.289z"/><path d="m36.881,217.83h2.2217v2.158h-2.2217z"/><path d="m217.76-64.44h2.222v6.453h-2.222z" transform="rotate(90)"/><path d="m67.911,206.72h2.2217v13.266h-2.2217z"/><path d="m217.76-80.765h2.222v12.229h-2.222z" transform="rotate(90)"/><path d="m57.987,212.57h2.2217v7.416h-2.2217z"/><path d="m67.911,206.72h2.2217v13.266h-2.2217z" transform="translate(11.035 -.00002)"/><path d="m73.391,206.72h2.2217v13.266h-2.2217z"/><path d="m212-43.903h2.222v11.785h-2.222z" transform="matrix(0 1 -1 0 .00922 -.00002)"/><path d="m212-69.772h2.222v11.785h-2.222z" transform="rotate(90)"/><path d="m57.987,212.57h2.2217v7.416h-2.2217z"/><path d="m57.987,212.57h2.2217v7.416h-2.2217z"/><path d="m57.987,212.57h2.2217v7.416h-2.2217z"/><path d="m32.299,212.57h2.2217v7.416h-2.2217z" transform="translate(-.17213 -.00002)"/><path d="m51.082,212.57h2.2217v7.416h-2.2217z"/><path d="m41.691,212.57h2.2217v7.416h-2.2217z" transform="translate(0 -.00002)"/><path d="m217.76-52.641h2.222v9.9621h-2.222z" transform="rotate(90)"/><path d="m212-53.304h2.222v6.3161h-2.222z" transform="rotate(90)"/></g><g transform="matrix(1.5197 0 0 1.5197 9.5646 36.806)"><path d="m32.067,206.72h32.289v2.222h-32.289z"/><path d="m36.881,217.83h2.2217v2.158h-2.2217z"/><path d="m217.76-64.44h2.222v6.453h-2.222z" transform="rotate(90)"/><path d="m67.911,206.72h2.2217v13.266h-2.2217z"/><path d="m217.76-80.765h2.222v12.229h-2.222z" transform="rotate(90)"/><path d="m57.987,212.57h2.2217v7.416h-2.2217z"/><path d="m67.911,206.72h2.2217v13.266h-2.2217z" transform="translate(11.035 -.00002)"/><path d="m73.391,206.72h2.2217v13.266h-2.2217z"/><path d="m212-43.903h2.222v11.785h-2.222z" transform="matrix(0 1 -1 0 .00922 -.00002)"/><path d="m212-69.772h2.222v11.785h-2.222z" transform="rotate(90)"/><path d="m57.987,212.57h2.2217v7.416h-2.2217z"/><path d="m57.987,212.57h2.2217v7.416h-2.2217z"/><path d="m57.987,212.57h2.2217v7.416h-2.2217z"/><path d="m32.299,212.57h2.2217v7.416h-2.2217z" transform="translate(-.17213 -.00002)"/><path d="m51.082,212.57h2.2217v7.416h-2.2217z"/><path d="m41.691,212.57h2.2217v7.416h-2.2217z" transform="translate(0 -.00002)"/><path d="m217.76-52.641h2.222v9.9621h-2.222z" transform="rotate(90)"/><path d="m212-53.304h2.222v6.3161h-2.222z" transform="rotate(90)"/></g><g transform="matrix(1.5197 0 0 1.5197 573.95 36.806)"><path d="m32.067,206.72h32.289v2.222h-32.289z"/><path d="m36.881,217.83h2.2217v2.158h-2.2217z"/><path d="m217.76-64.44h2.222v6.453h-2.222z" transform="rotate(90)"/><path d="m67.911,206.72h2.2217v13.266h-2.2217z"/><path d="m217.76-80.765h2.222v12.229h-2.222z" transform="rotate(90)"/><path d="m57.987,212.57h2.2217v7.416h-2.2217z"/><path d="m67.911,206.72h2.2217v13.266h-2.2217z" transform="translate(11.035 -.00002)"/><path d="m73.391,206.72h2.2217v13.266h-2.2217z"/><path d="m212-43.903h2.222v11.785h-2.222z" transform="matrix(0 1 -1 0 .00922 -.00002)"/><path d="m212-69.772h2.222v11.785h-2.222z" transform="rotate(90)"/><path d="m57.987,212.57h2.2217v7.416h-2.2217z"/><path d="m57.987,212.57h2.2217v7.416h-2.2217z"/><path d="m57.987,212.57h2.2217v7.416h-2.2217z"/><path d="m32.299,212.57h2.2217v7.416h-2.2217z" transform="translate(-.17213 -.00002)"/><path d="m51.082,212.57h2.2217v7.416h-2.2217z"/><path d="m41.691,212.57h2.2217v7.416h-2.2217z" transform="translate(0 -.00002)"/><path d="m217.76-52.641h2.222v9.9621h-2.222z" transform="rotate(90)"/><path d="m212-53.304h2.222v6.3161h-2.222z" transform="rotate(90)"/></g><g transform="matrix(1.5197 0 0 1.5197 90.01 36.806)"><path d="m32.067,206.72h32.289v2.222h-32.289z"/><path d="m36.881,217.83h2.2217v2.158h-2.2217z"/><path d="m217.76-64.44h2.222v6.453h-2.222z" transform="rotate(90)"/><path d="m67.911,206.72h2.2217v13.266h-2.2217z"/><path d="m217.76-80.765h2.222v12.229h-2.222z" transform="rotate(90)"/><path d="m57.987,212.57h2.2217v7.416h-2.2217z"/><path d="m67.911,206.72h2.2217v13.266h-2.2217z" transform="translate(11.035 -.00002)"/><path d="m73.391,206.72h2.2217v13.266h-2.2217z"/><path d="m212-43.903h2.222v11.785h-2.222z" transform="matrix(0 1 -1 0 .00922 -.00002)"/><path d="m212-69.772h2.222v11.785h-2.222z" transform="rotate(90)"/><path d="m57.987,212.57h2.2217v7.416h-2.2217z"/><path d="m57.987,212.57h2.2217v7.416h-2.2217z"/><path d="m57.987,212.57h2.2217v7.416h-2.2217z"/><path d="m32.299,212.57h2.2217v7.416h-2.2217z" transform="translate(-.17213 -.00002)"/><path d="m51.082,212.57h2.2217v7.416h-2.2217z"/><path d="m41.691,212.57h2.2217v7.416h-2.2217z" transform="translate(0 -.00002)"/><path d="m217.76-52.641h2.222v9.9621h-2.222z" transform="rotate(90)"/><path d="m212-53.304h2.222v6.3161h-2.222z" transform="rotate(90)"/></g><g transform="matrix(1.5197 0 0 1.5197 170.75 36.806)"><path d="m32.067,206.72h32.289v2.222h-32.289z"/><path d="m36.881,217.83h2.2217v2.158h-2.2217z"/><path d="m217.76-64.44h2.222v6.453h-2.222z" transform="rotate(90)"/><path d="m67.911,206.72h2.2217v13.266h-2.2217z"/><path d="m217.76-80.765h2.222v12.229h-2.222z" transform="rotate(90)"/><path d="m57.987,212.57h2.2217v7.416h-2.2217z"/><path d="m67.911,206.72h2.2217v13.266h-2.2217z" transform="translate(11.035 -.00002)"/><path d="m73.391,206.72h2.2217v13.266h-2.2217z"/><path d="m212-43.903h2.222v11.785h-2.222z" transform="matrix(0 1 -1 0 .00922 -.00002)"/><path d="m212-69.772h2.222v11.785h-2.222z" transform="rotate(90)"/><path d="m57.987,212.57h2.2217v7.416h-2.2217z"/><path d="m57.987,212.57h2.2217v7.416h-2.2217z"/><path d="m57.987,212.57h2.2217v7.416h-2.2217z"/><path d="m32.299,212.57h2.2217v7.416h-2.2217z" transform="translate(-.17213 -.00002)"/><path d="m51.082,212.57h2.2217v7.416h-2.2217z"/><path d="m41.691,212.57h2.2217v7.416h-2.2217z" transform="translate(0 -.00002)"/><path d="m217.76-52.641h2.222v9.9621h-2.222z" transform="rotate(90)"/><path d="m212-53.304h2.222v6.3161h-2.222z" transform="rotate(90)"/></g></g><path fill="#239f40" d="m-191.96,0h896v168.16h-896z"/><g fill="#fff"><g transform="matrix(1.5197 0 0 1.5197 251.96 36.806)"><path d="m32.067,206.72h32.289v2.222h-32.289z"/><path d="m36.881,217.83h2.2217v2.158h-2.2217z"/><path d="m217.76-64.44h2.222v6.453h-2.222z" transform="rotate(90)"/><path d="m67.911,206.72h2.2217v13.266h-2.2217z"/><path d="m217.76-80.765h2.222v12.229h-2.222z" transform="rotate(90)"/><path d="m57.987,212.57h2.2217v7.416h-2.2217z"/><path d="m67.911,206.72h2.2217v13.266h-2.2217z" transform="translate(11.035 -.00002)"/><path d="m73.391,206.72h2.2217v13.266h-2.2217z"/><path d="m212-43.903h2.222v11.785h-2.222z" transform="matrix(0 1 -1 0 .00922 -.00002)"/><path d="m212-69.772h2.222v11.785h-2.222z" transform="rotate(90)"/><path d="m57.987,212.57h2.2217v7.416h-2.2217z"/><path d="m57.987,212.57h2.2217v7.416h-2.2217z"/><path d="m57.987,212.57h2.2217v7.416h-2.2217z"/><path d="m32.299,212.57h2.2217v7.416h-2.2217z" transform="translate(-.17213 -.00002)"/><path d="m51.082,212.57h2.2217v7.416h-2.2217z"/><path d="m41.691,212.57h2.2217v7.416h-2.2217z" transform="translate(0 -.00002)"/><path d="m217.76-52.641h2.222v9.9621h-2.222z" transform="rotate(90)"/><path d="m212-53.304h2.222v6.3161h-2.222z" transform="rotate(90)"/></g><g transform="matrix(1.5197 0 0 1.5197 332.69 36.806)"><path d="m32.067,206.72h32.289v2.222h-32.289z"/><path d="m36.881,217.83h2.2217v2.158h-2.2217z"/><path d="m217.76-64.44h2.222v6.453h-2.222z" transform="rotate(90)"/><path d="m67.911,206.72h2.2217v13.266h-2.2217z"/><path d="m217.76-80.765h2.222v12.229h-2.222z" transform="rotate(90)"/><path d="m57.987,212.57h2.2217v7.416h-2.2217z"/><path d="m67.911,206.72h2.2217v13.266h-2.2217z" transform="translate(11.035 -.00002)"/><path d="m73.391,206.72h2.2217v13.266h-2.2217z"/><path d="m212-43.903h2.222v11.785h-2.222z" transform="matrix(0 1 -1 0 .00922 -.00002)"/><path d="m212-69.772h2.222v11.785h-2.222z" transform="rotate(90)"/><path d="m57.987,212.57h2.2217v7.416h-2.2217z"/><path d="m57.987,212.57h2.2217v7.416h-2.2217z"/><path d="m57.987,212.57h2.2217v7.416h-2.2217z"/><path d="m32.299,212.57h2.2217v7.416h-2.2217z" transform="translate(-.17213 -.00002)"/><path d="m51.082,212.57h2.2217v7.416h-2.2217z"/><path d="m41.691,212.57h2.2217v7.416h-2.2217z" transform="translate(0 -.00002)"/><path d="m217.76-52.641h2.222v9.9621h-2.222z" transform="rotate(90)"/><path d="m212-53.304h2.222v6.3161h-2.222z" transform="rotate(90)"/></g><g transform="matrix(1.5197 0 0 1.5197 413.43 36.806)"><path d="m32.067,206.72h32.289v2.222h-32.289z"/><path d="m36.881,217.83h2.2217v2.158h-2.2217z"/><path d="m217.76-64.44h2.222v6.453h-2.222z" transform="rotate(90)"/><path d="m67.911,206.72h2.2217v13.266h-2.2217z"/><path d="m217.76-80.765h2.222v12.229h-2.222z" transform="rotate(90)"/><path d="m57.987,212.57h2.2217v7.416h-2.2217z"/><path d="m67.911,206.72h2.2217v13.266h-2.2217z" transform="translate(11.035 -.00002)"/><path d="m73.391,206.72h2.2217v13.266h-2.2217z"/><path d="m212-43.903h2.222v11.785h-2.222z" transform="matrix(0 1 -1 0 .00922 -.00002)"/><path d="m212-69.772h2.222v11.785h-2.222z" transform="rotate(90)"/><path d="m57.987,212.57h2.2217v7.416h-2.2217z"/><path d="m57.987,212.57h2.2217v7.416h-2.2217z"/><path d="m57.987,212.57h2.2217v7.416h-2.2217z"/><path d="m32.299,212.57h2.2217v7.416h-2.2217z" transform="translate(-.17213 -.00002)"/><path d="m51.082,212.57h2.2217v7.416h-2.2217z"/><path d="m41.691,212.57h2.2217v7.416h-2.2217z" transform="translate(0 -.00002)"/><path d="m217.76-52.641h2.222v9.9621h-2.222z" transform="rotate(90)"/><path d="m212-53.304h2.222v6.3161h-2.222z" transform="rotate(90)"/></g><g transform="matrix(1.5197 0 0 1.5197 494.64 36.806)"><path d="m32.067,206.72h32.289v2.222h-32.289z"/><path d="m36.881,217.83h2.2217v2.158h-2.2217z"/><path d="m217.76-64.44h2.222v6.453h-2.222z" transform="rotate(90)"/><path d="m67.911,206.72h2.2217v13.266h-2.2217z"/><path d="m217.76-80.765h2.222v12.229h-2.222z" transform="rotate(90)"/><path d="m57.987,212.57h2.2217v7.416h-2.2217z"/><path d="m67.911,206.72h2.2217v13.266h-2.2217z" transform="translate(11.035 -.00002)"/><path d="m73.391,206.72h2.2217v13.266h-2.2217z"/><path d="m212-43.903h2.222v11.785h-2.222z" transform="matrix(0 1 -1 0 .00922 -.00002)"/><path d="m212-69.772h2.222v11.785h-2.222z" transform="rotate(90)"/><path d="m57.987,212.57h2.2217v7.416h-2.2217z"/><path d="m57.987,212.57h2.2217v7.416h-2.2217z"/><path d="m57.987,212.57h2.2217v7.416h-2.2217z"/><path d="m32.299,212.57h2.2217v7.416h-2.2217z" transform="translate(-.17213 -.00002)"/><path d="m51.082,212.57h2.2217v7.416h-2.2217z"/><path d="m41.691,212.57h2.2217v7.416h-2.2217z" transform="translate(0 -.00002)"/><path d="m217.76-52.641h2.222v9.9621h-2.222z" transform="rotate(90)"/><path d="m212-53.304h2.222v6.3161h-2.222z" transform="rotate(90)"/></g><g transform="matrix(1.5197 0 0 1.5197 -232.52 36.806)"><path d="m32.067,206.72h32.289v2.222h-32.289z"/><path d="m36.881,217.83h2.2217v2.158h-2.2217z"/><path d="m217.76-64.44h2.222v6.453h-2.222z" transform="rotate(90)"/><path d="m67.911,206.72h2.2217v13.266h-2.2217z"/><path d="m217.76-80.765h2.222v12.229h-2.222z" transform="rotate(90)"/><path d="m57.987,212.57h2.2217v7.416h-2.2217z"/><path d="m67.911,206.72h2.2217v13.266h-2.2217z" transform="translate(11.035 -.00002)"/><path d="m73.391,206.72h2.2217v13.266h-2.2217z"/><path d="m212-43.903h2.222v11.785h-2.222z" transform="matrix(0 1 -1 0 .00922 -.00002)"/><path d="m212-69.772h2.222v11.785h-2.222z" transform="rotate(90)"/><path d="m57.987,212.57h2.2217v7.416h-2.2217z"/><path d="m57.987,212.57h2.2217v7.416h-2.2217z"/><path d="m57.987,212.57h2.2217v7.416h-2.2217z"/><path d="m32.299,212.57h2.2217v7.416h-2.2217z" transform="translate(-.17213 -.00002)"/><path d="m51.082,212.57h2.2217v7.416h-2.2217z"/><path d="m41.691,212.57h2.2217v7.416h-2.2217z" transform="translate(0 -.00002)"/><path d="m217.76-52.641h2.222v9.9621h-2.222z" transform="rotate(90)"/><path d="m212-53.304h2.222v6.3161h-2.222z" transform="rotate(90)"/></g><g transform="matrix(1.5197 0 0 1.5197 -70.36 -170.71)"><path d="m32.067,206.72h32.289v2.222h-32.289z"/><path d="m36.881,217.83h2.2217v2.158h-2.2217z"/><path d="m217.76-64.44h2.222v6.453h-2.222z" transform="rotate(90)"/><path d="m67.911,206.72h2.2217v13.266h-2.2217z"/><path d="m217.76-80.765h2.222v12.229h-2.222z" transform="rotate(90)"/><path d="m57.987,212.57h2.2217v7.416h-2.2217z"/><path d="m67.911,206.72h2.2217v13.266h-2.2217z" transform="translate(11.035 -.00002)"/><path d="m73.391,206.72h2.2217v13.266h-2.2217z"/><path d="m212-43.903h2.222v11.785h-2.222z" transform="matrix(0 1 -1 0 .00922 -.00002)"/><path d="m212-69.772h2.222v11.785h-2.222z" transform="rotate(90)"/><path d="m57.987,212.57h2.2217v7.416h-2.2217z"/><path d="m57.987,212.57h2.2217v7.416h-2.2217z"/><path d="m57.987,212.57h2.2217v7.416h-2.2217z"/><path d="m32.299,212.57h2.2217v7.416h-2.2217z" transform="translate(-.17213 -.00002)"/><path d="m51.082,212.57h2.2217v7.416h-2.2217z"/><path d="m41.691,212.57h2.2217v7.416h-2.2217z" transform="translate(0 -.00002)"/><path d="m217.76-52.641h2.222v9.9621h-2.222z" transform="rotate(90)"/><path d="m212-53.304h2.222v6.3161h-2.222z" transform="rotate(90)"/></g><g transform="matrix(1.5197 0 0 1.5197 -150.96 -170.71)"><path d="m32.067,206.72h32.289v2.222h-32.289z"/><path d="m36.881,217.83h2.2217v2.158h-2.2217z"/><path d="m217.76-64.44h2.222v6.453h-2.222z" transform="rotate(90)"/><path d="m67.911,206.72h2.2217v13.266h-2.2217z"/><path d="m217.76-80.765h2.222v12.229h-2.222z" transform="rotate(90)"/><path d="m57.987,212.57h2.2217v7.416h-2.2217z"/><path d="m67.911,206.72h2.2217v13.266h-2.2217z" transform="translate(11.035 -.00002)"/><path d="m73.391,206.72h2.2217v13.266h-2.2217z"/><path d="m212-43.903h2.222v11.785h-2.222z" transform="matrix(0 1 -1 0 .00922 -.00002)"/><path d="m212-69.772h2.222v11.785h-2.222z" transform="rotate(90)"/><path d="m57.987,212.57h2.2217v7.416h-2.2217z"/><path d="m57.987,212.57h2.2217v7.416h-2.2217z"/><path d="m57.987,212.57h2.2217v7.416h-2.2217z"/><path d="m32.299,212.57h2.2217v7.416h-2.2217z" transform="translate(-.17213 -.00002)"/><path d="m51.082,212.57h2.2217v7.416h-2.2217z"/><path d="m41.691,212.57h2.2217v7.416h-2.2217z" transform="translate(0 -.00002)"/><path d="m217.76-52.641h2.222v9.9621h-2.222z" transform="rotate(90)"/><path d="m212-53.304h2.222v6.3161h-2.222z" transform="rotate(90)"/></g><g transform="matrix(1.5197 0 0 1.5197 9.5646 -170.71)"><path d="m32.067,206.72h32.289v2.222h-32.289z"/><path d="m36.881,217.83h2.2217v2.158h-2.2217z"/><path d="m217.76-64.44h2.222v6.453h-2.222z" transform="rotate(90)"/><path d="m67.911,206.72h2.2217v13.266h-2.2217z"/><path d="m217.76-80.765h2.222v12.229h-2.222z" transform="rotate(90)"/><path d="m57.987,212.57h2.2217v7.416h-2.2217z"/><path d="m67.911,206.72h2.2217v13.266h-2.2217z" transform="translate(11.035 -.00002)"/><path d="m73.391,206.72h2.2217v13.266h-2.2217z"/><path d="m212-43.903h2.222v11.785h-2.222z" transform="matrix(0 1 -1 0 .00922 -.00002)"/><path d="m212-69.772h2.222v11.785h-2.222z" transform="rotate(90)"/><path d="m57.987,212.57h2.2217v7.416h-2.2217z"/><path d="m57.987,212.57h2.2217v7.416h-2.2217z"/><path d="m57.987,212.57h2.2217v7.416h-2.2217z"/><path d="m32.299,212.57h2.2217v7.416h-2.2217z" transform="translate(-.17213 -.00002)"/><path d="m51.082,212.57h2.2217v7.416h-2.2217z"/><path d="m41.691,212.57h2.2217v7.416h-2.2217z" transform="translate(0 -.00002)"/><path d="m217.76-52.641h2.222v9.9621h-2.222z" transform="rotate(90)"/><path d="m212-53.304h2.222v6.3161h-2.222z" transform="rotate(90)"/></g><g transform="matrix(1.5197 0 0 1.5197 573.95 -170.71)"><path d="m32.067,206.72h32.289v2.222h-32.289z"/><path d="m36.881,217.83h2.2217v2.158h-2.2217z"/><path d="m217.76-64.44h2.222v6.453h-2.222z" transform="rotate(90)"/><path d="m67.911,206.72h2.2217v13.266h-2.2217z"/><path d="m217.76-80.765h2.222v12.229h-2.222z" transform="rotate(90)"/><path d="m57.987,212.57h2.2217v7.416h-2.2217z"/><path d="m67.911,206.72h2.2217v13.266h-2.2217z" transform="translate(11.035 -.00002)"/><path d="m73.391,206.72h2.2217v13.266h-2.2217z"/><path d="m212-43.903h2.222v11.785h-2.222z" transform="matrix(0 1 -1 0 .00922 -.00002)"/><path d="m212-69.772h2.222v11.785h-2.222z" transform="rotate(90)"/><path d="m57.987,212.57h2.2217v7.416h-2.2217z"/><path d="m57.987,212.57h2.2217v7.416h-2.2217z"/><path d="m57.987,212.57h2.2217v7.416h-2.2217z"/><path d="m32.299,212.57h2.2217v7.416h-2.2217z" transform="translate(-.17213 -.00002)"/><path d="m51.082,212.57h2.2217v7.416h-2.2217z"/><path d="m41.691,212.57h2.2217v7.416h-2.2217z" transform="translate(0 -.00002)"/><path d="m217.76-52.641h2.222v9.9621h-2.222z" transform="rotate(90)"/><path d="m212-53.304h2.222v6.3161h-2.222z" transform="rotate(90)"/></g><g transform="matrix(1.5197 0 0 1.5197 90.01 -170.71)"><path d="m32.067,206.72h32.289v2.222h-32.289z"/><path d="m36.881,217.83h2.2217v2.158h-2.2217z"/><path d="m217.76-64.44h2.222v6.453h-2.222z" transform="rotate(90)"/><path d="m67.911,206.72h2.2217v13.266h-2.2217z"/><path d="m217.76-80.765h2.222v12.229h-2.222z" transform="rotate(90)"/><path d="m57.987,212.57h2.2217v7.416h-2.2217z"/><path d="m67.911,206.72h2.2217v13.266h-2.2217z" transform="translate(11.035 -.00002)"/><path d="m73.391,206.72h2.2217v13.266h-2.2217z"/><path d="m212-43.903h2.222v11.785h-2.222z" transform="matrix(0 1 -1 0 .00922 -.00002)"/><path d="m212-69.772h2.222v11.785h-2.222z" transform="rotate(90)"/><path d="m57.987,212.57h2.2217v7.416h-2.2217z"/><path d="m57.987,212.57h2.2217v7.416h-2.2217z"/><path d="m57.987,212.57h2.2217v7.416h-2.2217z"/><path d="m32.299,212.57h2.2217v7.416h-2.2217z" transform="translate(-.17213 -.00002)"/><path d="m51.082,212.57h2.2217v7.416h-2.2217z"/><path d="m41.691,212.57h2.2217v7.416h-2.2217z" transform="translate(0 -.00002)"/><path d="m217.76-52.641h2.222v9.9621h-2.222z" transform="rotate(90)"/><path d="m212-53.304h2.222v6.3161h-2.222z" transform="rotate(90)"/></g><g transform="matrix(1.5197 0 0 1.5197 170.75 -170.71)"><path d="m32.067,206.72h32.289v2.222h-32.289z"/><path d="m36.881,217.83h2.2217v2.158h-2.2217z"/><path d="m217.76-64.44h2.222v6.453h-2.222z" transform="rotate(90)"/><path d="m67.911,206.72h2.2217v13.266h-2.2217z"/><path d="m217.76-80.765h2.222v12.229h-2.222z" transform="rotate(90)"/><path d="m57.987,212.57h2.2217v7.416h-2.2217z"/><path d="m67.911,206.72h2.2217v13.266h-2.2217z" transform="translate(11.035 -.00002)"/><path d="m73.391,206.72h2.2217v13.266h-2.2217z"/><path d="m212-43.903h2.222v11.785h-2.222z" transform="matrix(0 1 -1 0 .00922 -.00002)"/><path d="m212-69.772h2.222v11.785h-2.222z" transform="rotate(90)"/><path d="m57.987,212.57h2.2217v7.416h-2.2217z"/><path d="m57.987,212.57h2.2217v7.416h-2.2217z"/><path d="m57.987,212.57h2.2217v7.416h-2.2217z"/><path d="m32.299,212.57h2.2217v7.416h-2.2217z" transform="translate(-.17213 -.00002)"/><path d="m51.082,212.57h2.2217v7.416h-2.2217z"/><path d="m41.691,212.57h2.2217v7.416h-2.2217z" transform="translate(0 -.00002)"/><path d="m217.76-52.641h2.222v9.9621h-2.222z" transform="rotate(90)"/><path d="m212-53.304h2.222v6.3161h-2.222z" transform="rotate(90)"/></g><g transform="matrix(1.5197 0 0 1.5197 251.96 -170.71)"><path d="m32.067,206.72h32.289v2.222h-32.289z"/><path d="m36.881,217.83h2.2217v2.158h-2.2217z"/><path d="m217.76-64.44h2.222v6.453h-2.222z" transform="rotate(90)"/><path d="m67.911,206.72h2.2217v13.266h-2.2217z"/><path d="m217.76-80.765h2.222v12.229h-2.222z" transform="rotate(90)"/><path d="m57.987,212.57h2.2217v7.416h-2.2217z"/><path d="m67.911,206.72h2.2217v13.266h-2.2217z" transform="translate(11.035 -.00002)"/><path d="m73.391,206.72h2.2217v13.266h-2.2217z"/><path d="m212-43.903h2.222v11.785h-2.222z" transform="matrix(0 1 -1 0 .00922 -.00002)"/><path d="m212-69.772h2.222v11.785h-2.222z" transform="rotate(90)"/><path d="m57.987,212.57h2.2217v7.416h-2.2217z"/><path d="m57.987,212.57h2.2217v7.416h-2.2217z"/><path d="m57.987,212.57h2.2217v7.416h-2.2217z"/><path d="m32.299,212.57h2.2217v7.416h-2.2217z" transform="translate(-.17213 -.00002)"/><path d="m51.082,212.57h2.2217v7.416h-2.2217z"/><path d="m41.691,212.57h2.2217v7.416h-2.2217z" transform="translate(0 -.00002)"/><path d="m217.76-52.641h2.222v9.9621h-2.222z" transform="rotate(90)"/><path d="m212-53.304h2.222v6.3161h-2.222z" transform="rotate(90)"/></g><g transform="matrix(1.5197 0 0 1.5197 332.69 -170.71)"><path d="m32.067,206.72h32.289v2.222h-32.289z"/><path d="m36.881,217.83h2.2217v2.158h-2.2217z"/><path d="m217.76-64.44h2.222v6.453h-2.222z" transform="rotate(90)"/><path d="m67.911,206.72h2.2217v13.266h-2.2217z"/><path d="m217.76-80.765h2.222v12.229h-2.222z" transform="rotate(90)"/><path d="m57.987,212.57h2.2217v7.416h-2.2217z"/><path d="m67.911,206.72h2.2217v13.266h-2.2217z" transform="translate(11.035 -.00002)"/><path d="m73.391,206.72h2.2217v13.266h-2.2217z"/><path d="m212-43.903h2.222v11.785h-2.222z" transform="matrix(0 1 -1 0 .00922 -.00002)"/><path d="m212-69.772h2.222v11.785h-2.222z" transform="rotate(90)"/><path d="m57.987,212.57h2.2217v7.416h-2.2217z"/><path d="m57.987,212.57h2.2217v7.416h-2.2217z"/><path d="m57.987,212.57h2.2217v7.416h-2.2217z"/><path d="m32.299,212.57h2.2217v7.416h-2.2217z" transform="translate(-.17213 -.00002)"/><path d="m51.082,212.57h2.2217v7.416h-2.2217z"/><path d="m41.691,212.57h2.2217v7.416h-2.2217z" transform="translate(0 -.00002)"/><path d="m217.76-52.641h2.222v9.9621h-2.222z" transform="rotate(90)"/><path d="m212-53.304h2.222v6.3161h-2.222z" transform="rotate(90)"/></g><g transform="matrix(1.5197 0 0 1.5197 413.43 -170.71)"><path d="m32.067,206.72h32.289v2.222h-32.289z"/><path d="m36.881,217.83h2.2217v2.158h-2.2217z"/><path d="m217.76-64.44h2.222v6.453h-2.222z" transform="rotate(90)"/><path d="m67.911,206.72h2.2217v13.266h-2.2217z"/><path d="m217.76-80.765h2.222v12.229h-2.222z" transform="rotate(90)"/><path d="m57.987,212.57h2.2217v7.416h-2.2217z"/><path d="m67.911,206.72h2.2217v13.266h-2.2217z" transform="translate(11.035 -.00002)"/><path d="m73.391,206.72h2.2217v13.266h-2.2217z"/><path d="m212-43.903h2.222v11.785h-2.222z" transform="matrix(0 1 -1 0 .00922 -.00002)"/><path d="m212-69.772h2.222v11.785h-2.222z" transform="rotate(90)"/><path d="m57.987,212.57h2.2217v7.416h-2.2217z"/><path d="m57.987,212.57h2.2217v7.416h-2.2217z"/><path d="m57.987,212.57h2.2217v7.416h-2.2217z"/><path d="m32.299,212.57h2.2217v7.416h-2.2217z" transform="translate(-.17213 -.00002)"/><path d="m51.082,212.57h2.2217v7.416h-2.2217z"/><path d="m41.691,212.57h2.2217v7.416h-2.2217z" transform="translate(0 -.00002)"/><path d="m217.76-52.641h2.222v9.9621h-2.222z" transform="rotate(90)"/><path d="m212-53.304h2.222v6.3161h-2.222z" transform="rotate(90)"/></g><g transform="matrix(1.5197 0 0 1.5197 494.64 -170.71)"><path d="m32.067,206.72h32.289v2.222h-32.289z"/><path d="m36.881,217.83h2.2217v2.158h-2.2217z"/><path d="m217.76-64.44h2.222v6.453h-2.222z" transform="rotate(90)"/><path d="m67.911,206.72h2.2217v13.266h-2.2217z"/><path d="m217.76-80.765h2.222v12.229h-2.222z" transform="rotate(90)"/><path d="m57.987,212.57h2.2217v7.416h-2.2217z"/><path d="m67.911,206.72h2.2217v13.266h-2.2217z" transform="translate(11.035 -.00002)"/><path d="m73.391,206.72h2.2217v13.266h-2.2217z"/><path d="m212-43.903h2.222v11.785h-2.222z" transform="matrix(0 1 -1 0 .00922 -.00002)"/><path d="m212-69.772h2.222v11.785h-2.222z" transform="rotate(90)"/><path d="m57.987,212.57h2.2217v7.416h-2.2217z"/><path d="m57.987,212.57h2.2217v7.416h-2.2217z"/><path d="m57.987,212.57h2.2217v7.416h-2.2217z"/><path d="m32.299,212.57h2.2217v7.416h-2.2217z" transform="translate(-.17213 -.00002)"/><path d="m51.082,212.57h2.2217v7.416h-2.2217z"/><path d="m41.691,212.57h2.2217v7.416h-2.2217z" transform="translate(0 -.00002)"/><path d="m217.76-52.641h2.222v9.9621h-2.222z" transform="rotate(90)"/><path d="m212-53.304h2.222v6.3161h-2.222z" transform="rotate(90)"/></g><g transform="matrix(1.5197 0 0 1.5197 -232.52 -170.71)"><path d="m32.067,206.72h32.289v2.222h-32.289z"/><path d="m36.881,217.83h2.2217v2.158h-2.2217z"/><path d="m217.76-64.44h2.222v6.453h-2.222z" transform="rotate(90)"/><path d="m67.911,206.72h2.2217v13.266h-2.2217z"/><path d="m217.76-80.765h2.222v12.229h-2.222z" transform="rotate(90)"/><path d="m57.987,212.57h2.2217v7.416h-2.2217z"/><path d="m67.911,206.72h2.2217v13.266h-2.2217z" transform="translate(11.035 -.00002)"/><path d="m73.391,206.72h2.2217v13.266h-2.2217z"/><path d="m212-43.903h2.222v11.785h-2.222z" transform="matrix(0 1 -1 0 .00922 -.00002)"/><path d="m212-69.772h2.222v11.785h-2.222z" transform="rotate(90)"/><path d="m57.987,212.57h2.2217v7.416h-2.2217z"/><path d="m57.987,212.57h2.2217v7.416h-2.2217z"/><path d="m57.987,212.57h2.2217v7.416h-2.2217z"/><path d="m32.299,212.57h2.2217v7.416h-2.2217z" transform="translate(-.17213 -.00002)"/><path d="m51.082,212.57h2.2217v7.416h-2.2217z"/><path d="m41.691,212.57h2.2217v7.416h-2.2217z" transform="translate(0 -.00002)"/><path d="m217.76-52.641h2.222v9.9621h-2.222z" transform="rotate(90)"/><path d="m212-53.304h2.222v6.3161h-2.222z" transform="rotate(90)"/></g></g><g fill="#d90000" transform="matrix(1.0321 0 0 1.0321 -191.96 176.9)"><path d="m119.3,157.55h5.86v10.178h-5.86z"/><path d="m274.84,157.55h5.86v10.178h-5.86z"/><path d="m-.0424,157.55h5.8601v10.178h-5.8601z"/><path d="m39.308,157.55h5.8601v10.178h-5.8601z" transform="translate(39.591 -.00002)"/><path d="m39.308,157.55h5.8601v10.178h-5.8601z" transform="translate(117.97 -.00002)"/><path d="m39.308,157.55h5.8601v10.178h-5.8601z" transform="translate(156.75 -.00002)"/><path d="m39.308,157.55h5.8601v10.178h-5.8601z" transform="translate(196.34 -.00002)"/><path d="m313.62,157.55h5.86v10.178h-5.86z"/><path d="m510.36,157.55h5.86v10.178h-5.86z"/><path d="m39.308,157.55h5.8601v10.178h-5.8601z" transform="translate(313.9 -.00002)"/><path d="m39.308,157.55h5.8601v10.178h-5.8601z" transform="translate(352.69 -.00002)"/><path d="m39.308,157.55h5.8601v10.178h-5.8601z" transform="translate(391.87 -.00002)"/><path d="m39.308,157.55h5.8601v10.178h-5.8601z" transform="translate(431.06 -.00002)"/><path d="m783.46,157.55h5.86v10.178h-5.86z"/><path d="m39.308,157.55h5.8601v10.178h-5.8601z" transform="translate(509.03 -.00002)"/><path d="m39.308,157.55h5.8601v10.178h-5.8601z" transform="translate(548.62 -.00002)"/><path d="m39.308,157.55h5.8601v10.178h-5.8601z" transform="translate(588.62 -.00002)"/><path d="m39.308,157.55h5.8601v10.178h-5.8601z" transform="translate(626.19 -.00002)"/><path d="m39.308,157.55h5.8601v10.178h-5.8601z" transform="translate(666.18 -.00002)"/><path d="m39.308,157.55h5.8601v10.178h-5.8601z" transform="translate(705.37 -.00002)"/><path d="m860.63,157.55h5.86v10.178h-5.86z"/><path d="m39.308,157.55h5.8601v10.178h-5.8601z" transform="translate(783.75 -.00002)"/><path d="m39.308,157.55h5.8601v10.178h-5.8601z"/></g><g fill="#239e3f" transform="matrix(1.0321 0 0 1.0321 -191.96 0)"><path d="m119.3,157.55h5.86v10.178h-5.86z"/><path d="m274.84,157.55h5.86v10.178h-5.86z"/><path d="m-.0424,157.55h5.8601v10.178h-5.8601z"/><path d="m39.308,157.55h5.8601v10.178h-5.8601z" transform="translate(39.591 -.00002)"/><path d="m39.308,157.55h5.8601v10.178h-5.8601z" transform="translate(117.97 -.00002)"/><path d="m39.308,157.55h5.8601v10.178h-5.8601z" transform="translate(156.75 -.00002)"/><path d="m39.308,157.55h5.8601v10.178h-5.8601z" transform="translate(196.34 -.00002)"/><path d="m313.62,157.55h5.86v10.178h-5.86z"/><path d="m510.36,157.55h5.86v10.178h-5.86z"/><path d="m39.308,157.55h5.8601v10.178h-5.8601z" transform="translate(313.9 -.00002)"/><path d="m39.308,157.55h5.8601v10.178h-5.8601z" transform="translate(352.69 -.00002)"/><path d="m39.308,157.55h5.8601v10.178h-5.8601z" transform="translate(391.87 -.00002)"/><path d="m39.308,157.55h5.8601v10.178h-5.8601z" transform="translate(431.06 -.00002)"/><path d="m783.46,157.55h5.86v10.178h-5.86z"/><path d="m39.308,157.55h5.8601v10.178h-5.8601z" transform="translate(509.03 -.00002)"/><path d="m39.308,157.55h5.8601v10.178h-5.8601z" transform="translate(548.62 -.00002)"/><path d="m39.308,157.55h5.8601v10.178h-5.8601z" transform="translate(588.62 -.00002)"/><path d="m39.308,157.55h5.8601v10.178h-5.8601z" transform="translate(626.19 -.00002)"/><path d="m39.308,157.55h5.8601v10.178h-5.8601z" transform="translate(666.18 -.00002)"/><path d="m39.308,157.55h5.8601v10.178h-5.8601z" transform="translate(705.37 -.00002)"/><path d="m860.63,157.55h5.86v10.178h-5.86z"/><path d="m39.308,157.55h5.8601v10.178h-5.8601z" transform="translate(783.75 -.00002)"/><path d="m39.308,157.55h5.8601v10.178h-5.8601z"/></g></g><g fill="#da0000" transform="matrix(1.0321 0 0 1.0321 -179.65 -532.01)"><path d="m445.16,706.81c8.19,10.039 33.438,65.548-15.241,101.91-22.884,17.223-8.714,18.093-8.037,20.988 36.785-19.539 48.799-46.013 48.52-69.727-.28-23.715-12.853-44.669-25.242-53.167z"/><path d="m450.03,704.23c18.166,9.301 57.701,56.079 15.149,108.85 26.439-5.868 60.053-83.729-15.149-108.85z"/><path d="m394.24,704.23c-18.166,9.301-57.701,56.079-15.149,108.85-26.439-5.868-60.053-83.729 15.149-108.85z"/><path d="m399.04,706.81c-8.19,10.039-33.438,65.548 15.241,101.91 22.884,17.223 8.714,18.093 8.037,20.988-36.785-19.539-48.799-46.013-48.52-69.727 .28-23.715 12.853-44.669 25.242-53.167z"/><path d="m468.8,824.65c-14.398,.228-32.549-1.984-46.01-8.979 2.217,4.311 4.059,7.026 6.276,11.337 12.838,1.184 30.554,2.649 39.734-2.358z"/><path d="m376.78,824.65c14.398,.228 32.549-1.984 46.01-8.979-2.217,4.311-4.059,7.026-6.276,11.337-12.838,1.184-30.554,2.649-39.734-2.358z"/><path d="m403.19,690.25c2.917,7.753 10.57,8.88 18.762,4.315 5.97,3.582 15.202,3.809 18.386-3.94 2.421,19.169-17.736,14.634-18.487,10.882-7.504,7.254-21.475,3.064-18.661-11.257z"/><path d="m422.49,836.72 7.57-8.652 1.082-116.44-9.012-7.931-9.012,7.57 1.802,117.16 7.57,8.291z"/></g></g></svg>