<svg xmlns="http://www.w3.org/2000/svg" viewBox="0 0 640 480" xmlns:xlink="http://www.w3.org/1999/xlink"><defs><path id="0" d="m39.31 157.55h5.86v10.178h-5.86z"/><path id="1" d="m32.07 206.72h32.29v2.222h-32.29z"/><path id="2" d="m217.76-64.44h2.222v6.453h-2.222z"/><path id="3" d="m217.76-80.77h2.222v12.229h-2.222z"/><path id="4" d="m67.911 206.72h2.222v13.266h-2.222z"/><path id="5" d="m212-43.903h2.222v11.785h-2.222z"/><path id="6" d="m57.987 212.57h2.222v7.416h-2.222z"/><path id="7" d="m51.08 212.57h2.222v7.416h-2.222z"/><path id="8" d="m217.76-52.641h2.222v9.962h-2.222z"/><path id="9" d="m36.881 217.83h2.222v2.158h-2.222z"/><path id="A" d="m212-69.772h2.222v11.785h-2.222z"/><path id="B" d="m41.691 212.57h2.222v7.416h-2.222z"/><use id="C" xlink:href="#G"/><path id="D" d="m212-53.3h2.222v6.316h-2.222z"/><use id="E" xlink:href="#H"/><path id="G" d="m73.39 206.72h2.222v13.266h-2.222z"/><path id="H" d="m32.3 212.57h2.222v7.416h-2.222z"/><clipPath id="F"><path d="m-85.31 0h682.67v512h-682.67z"/></clipPath></defs><g fill-rule="evenodd" clip-path="url(#F)" transform="matrix(.9375 0 0 .9375 79.98 0)"><g stroke-width="1.25"><path fill="#fff" d="m-191.96 0h896v512h-896z"/><path fill="#da0000" d="m-191.96 343.84h896v168.16h-896z"/><g fill="#fff"><g transform="matrix(1.5197 0 0 1.5197-70.36 36.806)"><use xlink:href="#1"/><use xlink:href="#9"/><use transform="matrix(0 1-1 0 0 0)" xlink:href="#2"/><use xlink:href="#4"/><use transform="matrix(0 1-1 0 0 0)" xlink:href="#3"/><use xlink:href="#6"/><use transform="translate(11.04)" xlink:href="#4"/><use xlink:href="#G"/><use transform="matrix(0 1-1 0 .009 0)" xlink:href="#5"/><use transform="matrix(0 1-1 0 0 0)" xlink:href="#A"/><use xlink:href="#6"/><use xlink:href="#6"/><use xlink:href="#6"/><use transform="translate(-.172)" xlink:href="#H"/><use xlink:href="#7"/><use xlink:href="#B"/><g transform="matrix(0 1-1 0 0 0)"><use xlink:href="#8"/><path d="m212-53.3h2.222v6.316h-2.222z" id="P"/></g></g><g transform="matrix(1.5197 0 0 1.5197-150.96 36.806)"><use xlink:href="#1"/><use xlink:href="#9"/><use transform="matrix(0 1-1 0 0 0)" xlink:href="#2"/><use xlink:href="#4"/><use transform="matrix(0 1-1 0 0 0)" xlink:href="#3"/><use xlink:href="#6"/><use transform="translate(11.04)" xlink:href="#4"/><use xlink:href="#G"/><use transform="matrix(0 1-1 0 .009 0)" xlink:href="#5"/><use transform="matrix(0 1-1 0 0 0)" xlink:href="#A"/><use xlink:href="#6"/><use xlink:href="#6"/><use xlink:href="#6"/><use xlink:href="#7"/><use xlink:href="#B"/><g transform="matrix(0 1-1 0 0 0)"><use xlink:href="#8"/><use xlink:href="#P"/></g></g><g transform="matrix(1.5197 0 0 1.5197 9.565 36.806)"><use xlink:href="#1"/><use xlink:href="#9"/><use transform="matrix(0 1-1 0 0 0)" xlink:href="#2"/><use xlink:href="#4"/><use transform="matrix(0 1-1 0 0 0)" xlink:href="#3"/><use xlink:href="#6"/><use transform="translate(11.04)" xlink:href="#4"/><use xlink:href="#C"/><use transform="matrix(0 1-1 0 .009 0)" xlink:href="#5"/><use transform="matrix(0 1-1 0 0 0)" xlink:href="#A"/><use xlink:href="#6"/><use xlink:href="#6"/><use xlink:href="#6"/><use transform="translate(-.172)" xlink:href="#H"/><use xlink:href="#7"/><use xlink:href="#B"/><g transform="matrix(0 1-1 0 0 0)"><use xlink:href="#8"/><use xlink:href="#D"/></g></g><g transform="matrix(1.5197 0 0 1.5197 573.95 36.806)"><use xlink:href="#1"/><use xlink:href="#9"/><use transform="matrix(0 1-1 0 0 0)" xlink:href="#2"/><use xlink:href="#4"/><use transform="matrix(0 1-1 0 0 0)" xlink:href="#3"/><use xlink:href="#6"/><use transform="translate(11.04)" xlink:href="#4"/><use xlink:href="#C"/><use transform="matrix(0 1-1 0 .009 0)" xlink:href="#5"/><use transform="matrix(0 1-1 0 0 0)" xlink:href="#A"/><use xlink:href="#6"/><use xlink:href="#6"/><use xlink:href="#6"/><use xlink:href="#7"/><use xlink:href="#B"/><g transform="matrix(0 1-1 0 0 0)"><use xlink:href="#8"/><use xlink:href="#D"/></g></g><g transform="matrix(1.5197 0 0 1.5197 90.01 36.806)"><use xlink:href="#1"/><use xlink:href="#9"/><use transform="matrix(0 1-1 0 0 0)" xlink:href="#2"/><use xlink:href="#4"/><use transform="matrix(0 1-1 0 0 0)" xlink:href="#3"/><use xlink:href="#6"/><use transform="translate(11.04)" xlink:href="#4"/><use xlink:href="#C"/><use transform="matrix(0 1-1 0 .009 0)" xlink:href="#5"/><use transform="matrix(0 1-1 0 0 0)" xlink:href="#A"/><use xlink:href="#6"/><use xlink:href="#6"/><use xlink:href="#6"/><use transform="translate(-.172)" xlink:href="#E"/><use xlink:href="#7"/><use xlink:href="#B"/><g transform="matrix(0 1-1 0 0 0)"><use xlink:href="#8"/><use xlink:href="#D"/></g></g><g transform="matrix(1.5197 0 0 1.5197 170.75 36.806)"><use xlink:href="#1"/><use xlink:href="#9"/><use transform="matrix(0 1-1 0 0 0)" xlink:href="#2"/><use xlink:href="#4"/><use transform="matrix(0 1-1 0 0 0)" xlink:href="#3"/><use xlink:href="#6"/><use transform="translate(11.04)" xlink:href="#4"/><use xlink:href="#C"/><use transform="matrix(0 1-1 0 .009 0)" xlink:href="#5"/><use transform="matrix(0 1-1 0 0 0)" xlink:href="#A"/><use xlink:href="#6"/><use xlink:href="#6"/><use xlink:href="#6"/><use transform="translate(-.172)" xlink:href="#E"/><use xlink:href="#7"/><use xlink:href="#B"/><g transform="matrix(0 1-1 0 0 0)"><use xlink:href="#8"/><use xlink:href="#D"/></g></g></g><path fill="#239f40" d="m-191.96 0h896v168.16h-896z"/><g fill="#fff"><g transform="matrix(1.5197 0 0 1.5197 251.96 36.806)"><use xlink:href="#1"/><use xlink:href="#9"/><use transform="matrix(0 1-1 0 0 0)" xlink:href="#2"/><use xlink:href="#4"/><use transform="matrix(0 1-1 0 0 0)" xlink:href="#3"/><use xlink:href="#6"/><use transform="translate(11.04)" xlink:href="#4"/><use xlink:href="#C"/><use transform="matrix(0 1-1 0 .009 0)" xlink:href="#5"/><use transform="matrix(0 1-1 0 0 0)" xlink:href="#A"/><use xlink:href="#6"/><use xlink:href="#6"/><use xlink:href="#6"/><use transform="translate(-.172)" xlink:href="#E"/><use xlink:href="#7"/><use xlink:href="#B"/><g transform="matrix(0 1-1 0 0 0)"><use xlink:href="#8"/><use xlink:href="#D"/></g></g><g transform="matrix(1.5197 0 0 1.5197 332.69 36.806)"><use xlink:href="#1"/><use xlink:href="#9"/><use transform="matrix(0 1-1 0 0 0)" xlink:href="#2"/><use xlink:href="#4"/><use transform="matrix(0 1-1 0 0 0)" xlink:href="#3"/><use xlink:href="#6"/><use transform="translate(11.04)" xlink:href="#4"/><use xlink:href="#C"/><use transform="matrix(0 1-1 0 .009 0)" xlink:href="#5"/><use transform="matrix(0 1-1 0 0 0)" xlink:href="#A"/><use xlink:href="#6"/><use xlink:href="#6"/><use xlink:href="#6"/><use transform="translate(-.172)" xlink:href="#E"/><use xlink:href="#7"/><use xlink:href="#B"/><g transform="matrix(0 1-1 0 0 0)"><use xlink:href="#8"/><use xlink:href="#D"/></g></g><g transform="matrix(1.5197 0 0 1.5197 413.43 36.806)"><use xlink:href="#1"/><use xlink:href="#9"/><use transform="matrix(0 1-1 0 0 0)" xlink:href="#2"/><use xlink:href="#4"/><use transform="matrix(0 1-1 0 0 0)" xlink:href="#3"/><use xlink:href="#6"/><use transform="translate(11.04)" xlink:href="#4"/><use xlink:href="#C"/><use transform="matrix(0 1-1 0 .009 0)" xlink:href="#5"/><use transform="matrix(0 1-1 0 0 0)" xlink:href="#A"/><use xlink:href="#6"/><use xlink:href="#6"/><use xlink:href="#6"/><use transform="translate(-.172)" xlink:href="#E"/><use xlink:href="#7"/><use xlink:href="#B"/><g transform="matrix(0 1-1 0 0 0)"><use xlink:href="#8"/><use xlink:href="#D"/></g></g><g transform="matrix(1.5197 0 0 1.5197 494.64 36.806)"><use xlink:href="#1"/><use xlink:href="#9"/><use transform="matrix(0 1-1 0 0 0)" xlink:href="#2"/><use xlink:href="#4"/><use transform="matrix(0 1-1 0 0 0)" xlink:href="#3"/><use xlink:href="#6"/><use transform="translate(11.04)" xlink:href="#4"/><use xlink:href="#C"/><use transform="matrix(0 1-1 0 .009 0)" xlink:href="#5"/><use transform="matrix(0 1-1 0 0 0)" xlink:href="#A"/><use xlink:href="#6"/><use xlink:href="#6"/><use xlink:href="#6"/><use transform="translate(-.172)" xlink:href="#E"/><use xlink:href="#7"/><use xlink:href="#B"/><g transform="matrix(0 1-1 0 0 0)"><use xlink:href="#8"/><use xlink:href="#D"/></g></g><g transform="matrix(1.5197 0 0 1.5197-232.52 36.806)"><use xlink:href="#1"/><use xlink:href="#9"/><use transform="matrix(0 1-1 0 0 0)" xlink:href="#2"/><use xlink:href="#4"/><use transform="matrix(0 1-1 0 0 0)" xlink:href="#3"/><use xlink:href="#6"/><use transform="translate(11.04)" xlink:href="#4"/><use xlink:href="#C"/><use transform="matrix(0 1-1 0 .009 0)" xlink:href="#5"/><use transform="matrix(0 1-1 0 0 0)" xlink:href="#A"/><use xlink:href="#6"/><use xlink:href="#6"/><use xlink:href="#6"/><use transform="translate(-.172)" xlink:href="#E"/><use xlink:href="#7"/><use xlink:href="#B"/><g transform="matrix(0 1-1 0 0 0)"><use xlink:href="#8"/><use xlink:href="#D"/></g></g><g transform="matrix(1.5197 0 0 1.5197-70.36-170.71)"><use xlink:href="#1"/><use xlink:href="#9"/><use transform="matrix(0 1-1 0 0 0)" xlink:href="#2"/><use xlink:href="#4"/><use transform="matrix(0 1-1 0 0 0)" xlink:href="#3"/><use xlink:href="#6"/><use transform="translate(11.04)" xlink:href="#4"/><use xlink:href="#C"/><use transform="matrix(0 1-1 0 .009 0)" xlink:href="#5"/><use transform="matrix(0 1-1 0 0 0)" xlink:href="#A"/><use xlink:href="#6"/><use xlink:href="#6"/><use xlink:href="#6"/><use transform="translate(-.172)" xlink:href="#E"/><use xlink:href="#7"/><use xlink:href="#B"/><g transform="matrix(0 1-1 0 0 0)"><use xlink:href="#8"/><use xlink:href="#D"/></g></g><g transform="matrix(1.5197 0 0 1.5197-150.96-170.71)"><use xlink:href="#1"/><use xlink:href="#9"/><use transform="matrix(0 1-1 0 0 0)" xlink:href="#2"/><use xlink:href="#4"/><use transform="matrix(0 1-1 0 0 0)" xlink:href="#3"/><use xlink:href="#6"/><use transform="translate(11.04)" xlink:href="#4"/><use xlink:href="#C"/><use transform="matrix(0 1-1 0 .009 0)" xlink:href="#5"/><use transform="matrix(0 1-1 0 0 0)" xlink:href="#A"/><use xlink:href="#6"/><use xlink:href="#6"/><use xlink:href="#6"/><use transform="translate(-.172)" xlink:href="#E"/><use xlink:href="#7"/><use xlink:href="#B"/><g transform="matrix(0 1-1 0 0 0)"><use xlink:href="#8"/><use xlink:href="#D"/></g></g><g transform="matrix(1.5197 0 0 1.5197 9.565-170.71)"><use xlink:href="#1"/><use xlink:href="#9"/><use transform="matrix(0 1-1 0 0 0)" xlink:href="#2"/><use xlink:href="#4"/><use transform="matrix(0 1-1 0 0 0)" xlink:href="#3"/><use xlink:href="#6"/><use transform="translate(11.04)" xlink:href="#4"/><use xlink:href="#C"/><use transform="matrix(0 1-1 0 .009 0)" xlink:href="#5"/><use transform="matrix(0 1-1 0 0 0)" xlink:href="#A"/><use xlink:href="#6"/><use xlink:href="#6"/><use xlink:href="#6"/><use transform="translate(-.172)" xlink:href="#E"/><use xlink:href="#7"/><use xlink:href="#B"/><g transform="matrix(0 1-1 0 0 0)"><use xlink:href="#8"/><use xlink:href="#D"/></g></g><g transform="matrix(1.5197 0 0 1.5197 573.95-170.71)"><use xlink:href="#1"/><use xlink:href="#9"/><use transform="matrix(0 1-1 0 0 0)" xlink:href="#2"/><use xlink:href="#4"/><use transform="matrix(0 1-1 0 0 0)" xlink:href="#3"/><use xlink:href="#6"/><use transform="translate(11.04)" xlink:href="#4"/><use xlink:href="#C"/><use transform="matrix(0 1-1 0 .009 0)" xlink:href="#5"/><use transform="matrix(0 1-1 0 0 0)" xlink:href="#A"/><use xlink:href="#6"/><use xlink:href="#6"/><use xlink:href="#6"/><use transform="translate(-.172)" xlink:href="#E"/><use xlink:href="#7"/><use xlink:href="#B"/><g transform="matrix(0 1-1 0 0 0)"><use xlink:href="#8"/><use xlink:href="#D"/></g></g><g transform="matrix(1.5197 0 0 1.5197 90.01-170.71)"><use xlink:href="#1"/><use xlink:href="#9"/><use transform="matrix(0 1-1 0 0 0)" xlink:href="#2"/><use xlink:href="#4"/><use transform="matrix(0 1-1 0 0 0)" xlink:href="#3"/><use xlink:href="#6"/><use transform="translate(11.04)" xlink:href="#4"/><use xlink:href="#C"/><use transform="matrix(0 1-1 0 .009 0)" xlink:href="#5"/><use transform="matrix(0 1-1 0 0 0)" xlink:href="#A"/><use xlink:href="#6"/><use xlink:href="#6"/><use xlink:href="#6"/><use transform="translate(-.172)" xlink:href="#E"/><use xlink:href="#7"/><use xlink:href="#B"/><g transform="matrix(0 1-1 0 0 0)"><use xlink:href="#8"/><use xlink:href="#D"/></g></g><g transform="matrix(1.5197 0 0 1.5197 170.75-170.71)"><use xlink:href="#1"/><use xlink:href="#9"/><use transform="matrix(0 1-1 0 0 0)" xlink:href="#2"/><use xlink:href="#4"/><use transform="matrix(0 1-1 0 0 0)" xlink:href="#3"/><use xlink:href="#6"/><use transform="translate(11.04)" xlink:href="#4"/><use xlink:href="#C"/><use transform="matrix(0 1-1 0 .009 0)" xlink:href="#5"/><use transform="matrix(0 1-1 0 0 0)" xlink:href="#A"/><use xlink:href="#6"/><use xlink:href="#6"/><use xlink:href="#6"/><use transform="translate(-.172)" xlink:href="#E"/><use xlink:href="#7"/><use xlink:href="#B"/><g transform="matrix(0 1-1 0 0 0)"><use xlink:href="#8"/><use xlink:href="#D"/></g></g><g transform="matrix(1.5197 0 0 1.5197 251.96-170.71)"><use xlink:href="#1"/><use xlink:href="#9"/><use transform="matrix(0 1-1 0 0 0)" xlink:href="#2"/><use xlink:href="#4"/><use transform="matrix(0 1-1 0 0 0)" xlink:href="#3"/><use xlink:href="#6"/><use transform="translate(11.04)" xlink:href="#4"/><use xlink:href="#C"/><use transform="matrix(0 1-1 0 .009 0)" xlink:href="#5"/><use transform="matrix(0 1-1 0 0 0)" xlink:href="#A"/><use xlink:href="#6"/><use xlink:href="#6"/><use xlink:href="#6"/><use transform="translate(-.172)" xlink:href="#E"/><use xlink:href="#7"/><use xlink:href="#B"/><g transform="matrix(0 1-1 0 0 0)"><use xlink:href="#8"/><use xlink:href="#D"/></g></g><g transform="matrix(1.5197 0 0 1.5197 332.69-170.71)"><use xlink:href="#1"/><use xlink:href="#9"/><use transform="matrix(0 1-1 0 0 0)" xlink:href="#2"/><use xlink:href="#4"/><use transform="matrix(0 1-1 0 0 0)" xlink:href="#3"/><use xlink:href="#6"/><use transform="translate(11.04)" xlink:href="#4"/><use xlink:href="#C"/><use transform="matrix(0 1-1 0 .009 0)" xlink:href="#5"/><use transform="matrix(0 1-1 0 0 0)" xlink:href="#A"/><use xlink:href="#6"/><use xlink:href="#6"/><use xlink:href="#6"/><use transform="translate(-.172)" xlink:href="#E"/><use xlink:href="#7"/><use xlink:href="#B"/><g transform="matrix(0 1-1 0 0 0)"><use xlink:href="#8"/><use xlink:href="#D"/></g></g><g transform="matrix(1.5197 0 0 1.5197 413.43-170.71)"><use xlink:href="#1"/><use xlink:href="#9"/><use transform="matrix(0 1-1 0 0 0)" xlink:href="#2"/><use xlink:href="#4"/><use transform="matrix(0 1-1 0 0 0)" xlink:href="#3"/><use xlink:href="#6"/><use transform="translate(11.04)" xlink:href="#4"/><use xlink:href="#C"/><use transform="matrix(0 1-1 0 .009 0)" xlink:href="#5"/><use transform="matrix(0 1-1 0 0 0)" xlink:href="#A"/><use xlink:href="#6"/><use xlink:href="#6"/><use xlink:href="#6"/><use transform="translate(-.172)" xlink:href="#E"/><use xlink:href="#7"/><use xlink:href="#B"/><g transform="matrix(0 1-1 0 0 0)"><use xlink:href="#8"/><use xlink:href="#D"/></g></g><g transform="matrix(1.5197 0 0 1.5197 494.64-170.71)"><use xlink:href="#1"/><use xlink:href="#9"/><use transform="matrix(0 1-1 0 0 0)" xlink:href="#2"/><use xlink:href="#4"/><use transform="matrix(0 1-1 0 0 0)" xlink:href="#3"/><use xlink:href="#6"/><use transform="translate(11.04)" xlink:href="#4"/><use xlink:href="#C"/><use transform="matrix(0 1-1 0 .009 0)" xlink:href="#5"/><use transform="matrix(0 1-1 0 0 0)" xlink:href="#A"/><use xlink:href="#6"/><use xlink:href="#6"/><use xlink:href="#6"/><use transform="translate(-.172)" xlink:href="#E"/><use xlink:href="#7"/><use xlink:href="#B"/><g transform="matrix(0 1-1 0 0 0)"><use xlink:href="#8"/><use xlink:href="#D"/></g></g><g transform="matrix(1.5197 0 0 1.5197-232.52-170.71)"><use xlink:href="#1"/><use xlink:href="#9"/><use transform="matrix(0 1-1 0 0 0)" xlink:href="#2"/><use xlink:href="#4"/><use transform="matrix(0 1-1 0 0 0)" xlink:href="#3"/><use xlink:href="#6"/><use transform="translate(11.04)" xlink:href="#4"/><use xlink:href="#C"/><use transform="matrix(0 1-1 0 .009 0)" xlink:href="#5"/><use transform="matrix(0 1-1 0 0 0)" xlink:href="#A"/><use xlink:href="#6"/><use xlink:href="#6"/><use xlink:href="#6"/><use transform="translate(-.172)" xlink:href="#E"/><use xlink:href="#7"/><use xlink:href="#B"/><g transform="matrix(0 1-1 0 0 0)"><use xlink:href="#8"/><use xlink:href="#D"/></g></g></g><g fill="#d90000" transform="matrix(1.0321 0 0 1.0321-191.96 176.9)"><path d="m119.3 157.55h5.86v10.178h-5.86z" id="I"/><path d="m274.84 157.55h5.86v10.178h-5.86z" id="J"/><path d="m-.042 157.55h5.86v10.178h-5.86z" id="K"/><use transform="translate(39.591)" xlink:href="#0"/><use transform="translate(117.97)" xlink:href="#0"/><use transform="translate(156.75)" xlink:href="#0"/><use transform="translate(196.34)" xlink:href="#0"/><path d="m313.62 157.55h5.86v10.178h-5.86z" id="L"/><path d="m510.36 157.55h5.86v10.178h-5.86z" id="M"/><use transform="translate(313.9)" xlink:href="#0"/><use transform="translate(352.69)" xlink:href="#0"/><use transform="translate(391.87)" xlink:href="#0"/><use transform="translate(431.06)" xlink:href="#0"/><path d="m783.46 157.55h5.86v10.178h-5.86z" id="N"/><use transform="translate(509.03)" xlink:href="#0"/><use transform="translate(548.62)" xlink:href="#0"/><use transform="translate(588.62)" xlink:href="#0"/><use transform="translate(626.19)" xlink:href="#0"/><use transform="translate(666.18)" xlink:href="#0"/><use transform="translate(705.37)" xlink:href="#0"/><path d="m860.63 157.55h5.86v10.178h-5.86z" id="O"/><use transform="translate(783.75)" xlink:href="#0"/><use xlink:href="#0"/></g><g fill="#239e3f" transform="matrix(1.0321 0 0 1.0321-191.96 0)"><use xlink:href="#I"/><use xlink:href="#J"/><use xlink:href="#K"/><use transform="translate(39.591)" xlink:href="#0"/><use transform="translate(117.97)" xlink:href="#0"/><use transform="translate(156.75)" xlink:href="#0"/><use transform="translate(196.34)" xlink:href="#0"/><use xlink:href="#L"/><use xlink:href="#M"/><use transform="translate(313.9)" xlink:href="#0"/><use transform="translate(352.69)" xlink:href="#0"/><use transform="translate(391.87)" xlink:href="#0"/><use transform="translate(431.06)" xlink:href="#0"/><use xlink:href="#N"/><use transform="translate(509.03)" xlink:href="#0"/><use transform="translate(548.62)" xlink:href="#0"/><use transform="translate(588.62)" xlink:href="#0"/><use transform="translate(626.19)" xlink:href="#0"/><use transform="translate(666.18)" xlink:href="#0"/><use transform="translate(705.37)" xlink:href="#0"/><use xlink:href="#O"/><use transform="translate(783.75)" xlink:href="#0"/><use xlink:href="#0"/></g></g><g fill="#da0000" transform="matrix(1.0321 0 0 1.0321-179.65-532.01)"><path d="m445.16 706.81c8.19 10.04 33.438 65.55-15.241 101.91-22.884 17.223-8.714 18.09-8.04 20.988 36.785-19.539 48.799-46.01 48.52-69.73-.28-23.715-12.853-44.669-25.24-53.17z"/><path d="m450.03 704.23c18.17 9.301 57.701 56.08 15.15 108.85 26.439-5.868 60.05-83.73-15.15-108.85"/><path d="m394.24 704.23c-18.17 9.301-57.701 56.08-15.15 108.85-26.439-5.868-60.05-83.73 15.15-108.85"/><path d="m399.04 706.81c-8.19 10.04-33.438 65.55 15.241 101.91 22.884 17.223 8.714 18.09 8.04 20.988-36.785-19.539-48.799-46.01-48.52-69.73.28-23.715 12.853-44.669 25.24-53.17z"/><path d="m468.8 824.65c-14.398.228-32.549-1.984-46.01-8.979 2.217 4.311 4.059 7.03 6.276 11.337 12.838 1.184 30.554 2.649 39.734-2.358"/><path d="m376.78 824.65c14.398.228 32.549-1.984 46.01-8.979-2.217 4.311-4.059 7.03-6.276 11.337-12.838 1.184-30.554 2.649-39.734-2.358"/><path d="m403.19 690.25c2.917 7.753 10.57 8.88 18.762 4.315 5.97 3.582 15.202 3.809 18.386-3.94 2.421 19.17-17.736 14.634-18.487 10.882-7.504 7.254-21.475 3.064-18.661-11.257"/><path d="m422.49 836.72l7.57-8.652 1.082-116.44-9.01-7.931-9.01 7.57 1.802 117.16 7.57 8.291z"/></g></g></svg>