<svg xmlns="http://www.w3.org/2000/svg" viewBox="0 0 640 480"><defs><clipPath id="0"><path d="m-117.82 0h682.67v512h-682.67z"/></clipPath></defs><g clip-path="url(#0)" transform="matrix(.9375 0 0 .9375 110.46 0)"><g fill-rule="evenodd" stroke-width="1.25" transform="matrix(24.381 0 0 24.381-117.82 0)"><path d="m0 0h42v7h-42z"/><path fill="#fff" d="m0 7h42v7h-42z"/><path fill="#090" d="m0 14h42v7h-42z"/><path fill="#f00" d="m0 21l21-10.5-21-10.5v21"/><path fill="#fff" d="m5.838 11.852l.232-1.018h-1.044l.94-.453-.651-.816.941.453.232-1.018.232 1.018.941-.453-.651.816.941.453h-1.044l.232 1.018-.651-.817z"/></g></g></svg>