<svg xmlns="http://www.w3.org/2000/svg" viewBox="0 0 640 480"><defs><clipPath id="0"><path d="m-84.33-2.11h685.48v514.11h-685.48z"/></clipPath></defs><g fill-rule="evenodd" clip-path="url(#0)" transform="matrix(.93365 0 0 .93365 78.73 1.97)"><path fill="#fff" d="m-116.04 1.136h750.87v509.73h-750.87z"/><g stroke-width="1.25"><path fill="#008900" d="m-116.04 364.96h750.87v147.04h-750.87z"/><path fill="#c23743" d="m-118 185.42h750.87v147.04h-750.87z"/><path d="m-116.04-2.11h750.87v160.08h-750.87z"/></g><g stroke="#000"><g fill="#fff" stroke-width="1.081"><path d="m158.63 436.28c37.957-70.65 165.2-304.64 163.95-305.32-20.81-12.213 16.82-30.975 44.45-74.966-19.688 47.28-17.599 91.4-37.812 78.7-33.616 63.45-137.53 257.39-163.36 305.3-2.736-1.47-3.54-2.069-7.228-3.712z"/><path d="m349.01 439.05c-37.96-70.64-165.21-304.64-163.95-305.32 20.81-12.213-16.82-30.975-44.45-74.966 19.688 47.28 17.599 91.4 37.812 78.7 33.616 63.45 137.53 257.39 163.36 305.3 2.736-1.47 3.54-2.069 7.228-3.712z"/></g><path fill="#c23743" stroke-width="1.136" d="m252.53 85.44c119.59 84.3 117.63 288.19 0 358.77-109.79-74.5-125.47-276.43 0-358.77z"/></g><path fill="#fffffb" d="m359.93 494.67c0 4.111-2.174 7.445-4.855 7.445-2.681 0-4.855-3.333-4.855-7.445s2.174-7.445 4.855-7.445c2.681 0 4.855 3.333 4.855 7.445" transform="matrix(3.0285 0 0 3.0285-821.82-1237.2)"/><g fill="#fff" stroke="#000" stroke-width=".374"><path d="m251.78 93.28c33.627 32.534 33.08 111.22 0 138.46-30.87-28.751-35.28-106.68 0-138.46z"/><path d="m251.78 297.17c33.627 32.534 33.08 111.22 0 138.46-30.87-28.751-35.28-106.68 0-138.46z"/></g><g fill="#c23743" stroke-width="1.25"><path d="m244.69 93.28h13.723v141.16h-13.723z"/><path d="m246.65 295.21h13.723v141.16h-13.723z"/></g><g stroke="#000" stroke-width=".315"><path d="m179.28 181.5c20.401 37.985 20.07 129.85 0 161.66-18.729-33.568-21.405-124.55 0-161.66z"/><path d="m328.28 183.46c20.401 37.985 20.07 129.85 0 161.66-18.729-33.568-21.405-124.55 0-161.66z"/></g></g></svg>