<svg xmlns="http://www.w3.org/2000/svg" viewBox="0 0 640 480" xmlns:xlink="http://www.w3.org/1999/xlink"><defs><path id="1" d="m380.22 199.25c0 38.559-31.26 69.816-69.816 69.816-38.559 0-69.816-31.26-69.816-69.816 0-38.559 31.26-69.816 69.816-69.816 38.559 0 69.816 31.26 69.816 69.816"/><clipPath id="0"><path d="m-84.949 0h682.67v512h-682.67z"/></clipPath></defs><g fill-rule="evenodd" clip-path="url(#0)" transform="matrix(.9375 0 0 .9375 79.64 0)"><path fill="#be0027" stroke-width="1.25" d="m-128 0h768.77v512h-768.77z"/><g fill="#ff0"><path d="m105.45 261.14c13.658-16.61 41.95-.399 65.05-12.359-27.358 1.504-42.27-13.13-63.884-11.08 22.395-13.757 41.461 4.499 66.5-2.839-33.16-2.79-31.727-17.615-61.884-19.721 26.788-11.425 40.04 11.75 66.28 6.48-30.927-7.139-35.05-25.356-58.04-29.21 33.608-5.073 31.417 14.794 64.36 17.22-33.441-14.345-24.676-26.797-52.645-37.723 31.3-.739 29.22 20.951 60.93 26.64-27.14-17.22-23.791-32.935-46.15-45.23 26.524.48 29.11 27.629 56.18 36.04-24.15-19.16-17.797-35.31-38.664-52.42 26.383 6.188 22.542 29.611 50.02 44.552-20.363-22.615-12.55-38.805-30.31-57.32 25.374 8.172 15.735 30.432 42.06 51.595-15.09-24.855-5.775-40.707-20.629-61.677 23.559 12.166 12.151 34.872 34.02 57.56-10.295-25.508.015-41.35-10.507-63.941 20.15 15.06 8.166 39.32 24.422 62.47-5.926-31.919 7.841-37.17 3.557-65.12 15.306 18.79-1.802 37.581 9.949 65.26-1.43-31.476 15.294-38.795 12.394-64.07 15.169 22.645-8.507 42.35 1.395 66.61 2.561-29.864 22.19-37.597 22.49-60.836 11.933 21.332-14.11 36.672-9.883 64.955 8.57-31.2 29.476-35.05 31.943-56.03 7.235 24.678-21.265 36.15-19.598 63.5 8.488-27.736 34.62-30.989 39.962-51.48 3.296 26.11-22.401 30.742-29.635 59.59 13.512-23.54 37.14-25.471 47.783-44.09-.835 25.815-29.844 29.2-38.748 53.37 16.725-20.51 37.691-16.95 54.42-35.13-1.765 23.299-31.29 21.982-47.01 46.1 18.14-16.732 45.44-11.718 59.33-26.12-.674 20.608-36.908 19.06-53.996 37.479 21.07-11.545 47.757-4.764 63.23-15.487-2.827 18.07-41.08 13.845-59.36 27.946 25.21-6.985 44.677 3.809 65.1-3.995-9.94 17.587-44.634 6.455-63.05 17.888 21.879-3.705 45.13 9.55 65.09 5.298-6.562 15.201-44.58-.919-65.09 8.538 24.51-.215 40.4 15.434 63.13 14.399-12.363 13.763-45.788-5.162-65.26-1.93 23.759 4.915 41.911 24.602 59.926 25.55-14.784 11.352-42.42-14.497-64.864-11.215 23.11 6.185 42.516 32.472 55.774 33.05-14.284 9.762-42.517-22.464-61.861-21.319 23.496 10.62 34.27 37.515 49.698 41.3-19.1 6.128-37.868-29.22-58.39-30.442 23.772 14.993 25.12 37.918 43.42 48.12-19.257 4.707-32.964-35.17-53.26-38.532 19.489 14.327 22.428 44.931 35.35 54.608-19.607 1.036-26.692-40.714-46.787-46.678 17.216 14.379 13.09 45.579 26.479 58.863-20.425-4.19-17.792-40.538-39.12-52.778 15.32 19.32 7.527 46.846 17.512 62.34-19.871-8.04-11.24-40.568-30.21-58.991 10.349 20.583-.774 44.587 7.388 64.49-18.15-8.854-5.944-47.38-19.856-62.67 6.395 23.786-5.4 43.47-.646 64.794-18.559-21.526 2.817-43.19-13.281-65.12 4.273 25.18-13.336 42.697-10.567 63.771-14.716-17.19 7.905-44.774-3.528-66.48 2.461 24.754-20.276 46.44-18.715 62.03-11.978-19.967 13.298-43.582 6.53-66.29-1.426 23.572-24.371 36.38-28.692 57.856-7.712-23.689 19.564-40.812 17.209-64.09-7.811 22.14-29.982 31.02-37.793 52.49-6.395-23.623 25.914-36.17 26.768-61.02-9.987 23.309-36.522 28.427-45.28 46.26-3.269-23.5 33.807-34.01 35.19-56.27-11.936 21.382-40.969 22.249-50.991 39.25-1.519-23.416 37.582-26.316 43.721-50.825-11.883 18.278-43.735 15.907-56.987 30.767 2.09-21.722 44.39-23.07 51.13-42.6-15.723 15.168-44.963 8.882-61.43 20.913 9.164-21.335 48.838-16.812 57.808-32.27-17.564 9.164-48.68.28-63.997 9.444 13.921-20.21 44.803-8.135 62.28-22.05-28.428 4.143-45.506-7.17-65.18-1.934z"/><use transform="matrix(1.4212 0 0 1.4212-184.43-27.06)" xlink:href="#1"/></g><use fill="#be0027" transform="matrix(1.2356 0 0 1.2356-126.63 10.114)" xlink:href="#1"/><use fill="#ff0" transform="matrix(1.061 0 0 1.061-72.26 45.08)" xlink:href="#1"/><path fill="#be0027" d="m194.04 207.95c20.501-.451 46.03 1.418 62.859 14.893 17.859-11.154 39-16.311 60.54-14.313 3.675 6.705 7.349 13.41 11.02 20.12-15.989-1.613-31.591.646-50.09 8.124 23.597 18.696 35.395 42.809 34.622 72.14-2.707 3.352-6.963 7.091-9.671 10.443 3.932-28.496-11.09-60.28-32.881-76.978 17.73 25.596 28.3 48.676 25.339 80.46-3.159 1.87-6.899 4.513-10.06 6.383 4.641-28.05-1.932-60.926-22.629-80.07 11.926 17.537 23.854 48.999 16.439 81.04-3.224.967-8.187 3.675-11.411 4.642 8.317-26.24 3.094-59.06-10.832-78.72-13.796 19.794-18.31 50.03-10.445 77.946-3.868-.967-6.769-2.128-10.637-3.095-5.673-30.04 2.193-63.957 15.861-81.62-13.926 8.06-27.08 42.614-23.405 77.946-3.352-1.547-5.931-2.709-9.283-4.256-4.513-26.369 7.413-60.666 24.564-80.46-19.471 12.25-35.27 42.3-32.494 74.66-2.966-2.643-5.738-3.932-8.704-6.576-3.417-28.24 12.894-56.67 32.11-73.69-16.182-7.221-30.04-8.64-50.09-8.317 3.159-6.512 6.126-14.183 9.284-20.695z"/></g></svg>