<svg xmlns="http://www.w3.org/2000/svg" viewBox="0 0 640 480"><defs><clipPath id="clipPath5675" clipPathUnits="userSpaceOnUse"><path fill-opacity=".67" d="m-85.333-0h682.67v512h-682.67z"/></clipPath></defs><g fill-rule="evenodd" clip-path="url(#clipPath5675)" transform="matrix(.9375 0 0 .9375 80 0)"><g stroke-width="1.25"><path fill="#1b0073" d="m-128-0h768v512h-768z"/><path fill="#e60006" d="m-128,128h768v256h-768z"/></g><g fill="#fff" stroke="#e60000" transform="matrix(1.0321 0 0 1.0321 -128 .00023)"><path stroke-width="1.17" d="m214.37-113.98h315.35v50.992h-315.35z" transform="translate(0 354.33)"/><path stroke-width="1.25" d="m220,280-5,15h320l-5-15h-310z" transform="matrix(1.0187 0 0 .79988 -9.9654 67.378)"/><path stroke-width="1.123" d="m245,280-5,15h60l-5-15h-50z" transform="matrix(1.2359 0 0 .79988 160.47 67.379)"/><path stroke-width="1.52" d="m245,280-5,15h60l-5-15h-50z" transform="matrix(.62245 0 0 .79988 328.64 67.379)"/><path stroke-width="2.024" d="m245,280-5,15h60l-5-15h-50z" transform="matrix(.40229 0 0 .79988 388.1 67.379)"/><path stroke-width="1.098" d="m245,280-5,15h60l-5-15h-50z" transform="matrix(1.2992 0 0 .79988 21.26 67.378)"/><path stroke-width="1.186" d="m212.6,239.58h318.9v11.998h-318.9z"/><g><path stroke-width="1.117" d="m462.79-113.87h62.5v50.792h-62.5z" transform="translate(0 354.33)"/><path stroke-width=".805" d="m507.5-90.068h6.25v26.986h-6.25z" transform="translate(0 354.33)"/><path stroke-width=".805" d="m480-90.068h6.25v26.986h-6.25z" transform="translate(0 354.33)"/></g><g><path stroke-width="1.554" d="m245,280-5,15h60l-5-15h-50z" transform="matrix(.65261 0 0 .79988 195.63 67.378)"/><path stroke-width="1.956" d="m245,280-5,15h60l-5-15h-50z" transform="matrix(.40931 0 0 .79988 261.53 67.378)"/><path stroke-width="1.149" d="m338.8-113.98h65.854v50.992h-65.854z" transform="translate(0 354.33)"/><path stroke-width="1.04" d="m391.27-90.072h6.25v26.986h-6.25z" transform="translate(0 354.33)"/><path stroke-width="1.04" d="m347.78-90.075h6.254v26.986h-6.254z" transform="translate(0 354.33)"/><path stroke-width=".891" d="m356.1-126.32h31.89v63.32h-31.89z" transform="translate(0 354.33)"/><path stroke-width="1.04" d="m380.02-90.074h6.25v26.986h-6.25z" transform="translate(0 354.33)"/><path stroke-width="1.04" d="m359.03-90.073h6.254v26.986h-6.254z" transform="translate(0 354.33)"/><path stroke-width="1.25" d="m358.18,217.13 13.471,22.98 14.264-22.98h-27.735z" transform="matrix(1 0 0 .84654 0 54.377)"/></g><path stroke-width="1.179" d="m487.59-113.98h17.717v62.99h-17.717z" transform="translate(0 354.33)"/><path stroke-width="1.178" d="m490.54-113.98h11.799v62.99h-11.799z" transform="translate(0 354.33)"/><g><path stroke-width="1.123" d="m245,280-5,15h60l-5-15h-50z" transform="matrix(1.236 0 0 .79988 -84.448 67.379)"/><path stroke-width="1.637" d="m245,280-5,15h60l-5-15h-50z" transform="matrix(.5811 0 0 .79988 90.856 67.379)"/><path stroke-width="2.049" d="m245,280-5,15h60l-5-15h-50z" transform="matrix(.37077 0 0 .79988 147.56 67.379)"/><path stroke-width="1.115" d="m217.91-113.98h62.008v50.992h-62.008z" transform="translate(0 354.33)"/><path stroke-width=".805" d="m230-90.066h6.25v26.986h-6.25z" transform="translate(0 354.33)"/><path stroke-width=".805" d="m258.75-90.065h6.25v26.986h-6.25z" transform="translate(0 354.33)"/><path stroke-width="1.179" d="m239.17-113.98h17.717v62.99h-17.717z" transform="translate(0 354.33)"/><path stroke-width="1.178" d="m242.11-113.98h11.799v62.99h-11.799z" transform="translate(0 354.33)"/></g><path stroke-width="1.199" d="m209.06,228.35h325.98v11.998h-325.98z"/><g transform="matrix(1 0 0 .84654 0 54.377)"><g transform="matrix(1.0466 0 0 1.0413 -36.796 -6.024)"><path stroke-width="1.25" d="m187.5,328.56h406.25v17.5h-406.25z"/><path stroke-width="1.122" d="m226.25,284.81h327.5v17.5h-327.5z"/><path stroke-width="1.139" d="m221.25,288.56h337.5v17.5h-337.5z"/><path stroke-width="1.25" d="m187.5,328.56h406.25v17.5h-406.25z"/><path stroke-width="1.171" d="m212.5,298.56h356.25v17.5h-356.25z"/><path stroke-width="1.211" d="m200,311.06h381.25v17.5h-381.25z"/></g><g transform="matrix(.94488 0 0 1.0205 -32.48 1.1828)"><path stroke-width="1.287" d="m287.5,283.56h18.75v62.5h-18.75z"/><path stroke-width="1.051" d="m290.62,283.56h12.5v62.5h-12.5z"/></g><g transform="matrix(.94488 0 0 1.0205 215.55 1.1831)"><path stroke-width="1.287" d="m287.5,283.56h18.75v62.5h-18.75z"/><path stroke-width="1.051" d="m290.62,283.56h12.5v62.5h-12.5z"/></g></g><path stroke-width="1.201" d="m365.5,240.35h14.239v113.98h-14.239z"/><g><path stroke-width="1.25" d="m217.92,220.3 .184-36.915s3.362,7.236 29.512,8.821c24.749-.937 28.848-5.362 29.969-9.284l-1.025,37.515-58.64-.137z" transform="matrix(.94365 0 0 .84654 261.19 54.377)"/><g transform="translate(246.55 2.2413)"><path stroke-width="3.528" d="m330.92,208.56-18.42-20.45c6.141-5.303 17.543,3.789 17.543,3.789s6.14-23.485 32.457-33.334c26.316,9.849 32.456,33.334 32.456,33.334s11.403-9.092 17.544-3.789l-18.422,20.455h-63.157z" transform="matrix(.41468 0 0 .29996 99.014 139.48)"/><path stroke-width="2.615" d="m330.92,208.56-18.42-20.45c6.141-5.303 17.543,3.789 17.543,3.789s6.14-23.485 32.457-33.334c26.316,9.849 32.456,33.334 32.456,33.334s11.403-9.092 17.544-3.789l-18.422,20.455h-63.157z" transform="matrix(.53908 0 0 .41994 53.919 130.35)"/></g><g transform="matrix(1.0205 0 0 1.1198 221.61 77.956)"><path stroke-width="3.383" d="m0,280.52c.7924,0 30.112,52.301 0,53.093-30.112,.793 0-51.508 0-53.093z" transform="matrix(.3866 0 0 .35309 268.92 -29.035)"/><path stroke-width="5.963" d="m330.92,208.56-18.42-20.45c6.141-5.303 17.543,3.789 17.543,3.789s6.14-23.485 32.457-33.334c26.316,9.849 32.456,33.334 32.456,33.334s11.403-9.092 17.544-3.789l-18.422,20.455h-63.157z" transform="matrix(.3125 0 0 .14062 155.67 64.124)"/><path stroke-width="8.321" d="m330.92,208.56l-.878-16.666s6.14-23.485 32.457-33.334c26.316,9.849 32.456,33.334 32.456,33.334l-.878,16.666h-63.157z" transform="matrix(.16047 0 0 .14062 210.78 66.467)"/><path stroke-width="5.096" d="m330.92,208.56l-.878-16.666s6.14-23.485 32.457-33.334c26.316,9.849 32.456,33.334 32.456,33.334l-.878,16.666h-63.157z" transform="matrix(.32094 0 0 .1875 152.61 63.722)"/><path stroke-width="5.096" d="m330.92,208.56l-.878-16.666s6.14-23.485 32.457-33.334c26.316,9.849 32.456,33.334 32.456,33.334l-.878,16.666h-63.157z" transform="matrix(.32094 0 0 .1875 152.61 68.41)"/><path stroke-width="3.651" d="m330.92,208.56-18.42-20.45c6.141-5.303 17.543,3.789 17.543,3.789s6.14-23.485 32.457-33.334c26.316,9.849 32.456,33.334 32.456,33.334s11.403-9.092 17.544-3.789l-18.422,20.455h-63.157z" transform="matrix(.3125 0 0 .375 155.67 43.367)"/><path stroke-width="3.651" d="m330.92,208.56-18.42-20.45c6.141-5.303 17.543,3.789 17.543,3.789s6.14-23.485 32.457-33.334c26.316,9.849 32.456,33.334 32.456,33.334s11.403-9.092 17.544-3.789l-18.422,20.455h-63.157z" transform="matrix(.3125 0 0 .375 155.67 52.742)"/><path stroke-width="3.223" d="m330.92,208.56l-.878-16.666s6.14-23.485 32.457-33.334c26.316,9.849 32.456,33.334 32.456,33.334l-.878,16.666h-63.157z" transform="matrix(.32094 0 0 .46875 152.61 47.251)"/><path stroke-width="4.216" d="m330.92,208.56-18.42-20.45c6.141-5.303 17.543,3.789 17.543,3.789s6.14-23.485 32.457-33.334c26.316,9.849 32.456,33.334 32.456,33.334s11.403-9.092 17.544-3.789l-18.422,20.455h-63.157z" transform="matrix(.3125 0 0 .28125 155.67 86.357)"/></g></g><g><g transform="translate(-1.1207 -.00002)"><path stroke-width="3.528" d="m330.92,208.56-18.42-20.45c6.141-5.303 17.543,3.789 17.543,3.789s6.14-23.485 32.457-33.334c26.316,9.849 32.456,33.334 32.456,33.334s11.403-9.092 17.544-3.789l-18.422,20.455h-63.157z" transform="matrix(.41468 0 0 .29996 99.014 139.48)"/><path stroke-width="2.615" d="m330.92,208.56-18.42-20.45c6.141-5.303 17.543,3.789 17.543,3.789s6.14-23.485 32.457-33.334c26.316,9.849 32.456,33.334 32.456,33.334s11.403-9.092 17.544-3.789l-18.422,20.455h-63.157z" transform="matrix(.53908 0 0 .41994 53.919 130.35)"/></g><path stroke-width="1.25" d="m217.92,220.3 .184-36.915s3.362,7.236 29.512,8.821c24.749-.937 28.848-5.362 29.969-9.284l-1.025,37.515-58.64-.137z" transform="matrix(.94365 0 0 .84654 15.641 54.377)"/><g transform="matrix(1.0205 0 0 1.1198 -26.424 77.956)"><path stroke-width="3.383" d="m0,280.52c.7924,0 30.112,52.301 0,53.093-30.112,.793 0-51.508 0-53.093z" transform="matrix(.3866 0 0 .35309 268.92 -29.035)"/><path stroke-width="5.963" d="m330.92,208.56-18.42-20.45c6.141-5.303 17.543,3.789 17.543,3.789s6.14-23.485 32.457-33.334c26.316,9.849 32.456,33.334 32.456,33.334s11.403-9.092 17.544-3.789l-18.422,20.455h-63.157z" transform="matrix(.3125 0 0 .14062 155.67 64.124)"/><path stroke-width="8.321" d="m330.92,208.56l-.878-16.666s6.14-23.485 32.457-33.334c26.316,9.849 32.456,33.334 32.456,33.334l-.878,16.666h-63.157z" transform="matrix(.16047 0 0 .14062 210.78 66.467)"/><path stroke-width="5.096" d="m330.92,208.56l-.878-16.666s6.14-23.485 32.457-33.334c26.316,9.849 32.456,33.334 32.456,33.334l-.878,16.666h-63.157z" transform="matrix(.32094 0 0 .1875 152.61 63.722)"/><path stroke-width="5.096" d="m330.92,208.56l-.878-16.666s6.14-23.485 32.457-33.334c26.316,9.849 32.456,33.334 32.456,33.334l-.878,16.666h-63.157z" transform="matrix(.32094 0 0 .1875 152.61 68.41)"/><path stroke-width="3.651" d="m330.92,208.56-18.42-20.45c6.141-5.303 17.543,3.789 17.543,3.789s6.14-23.485 32.457-33.334c26.316,9.849 32.456,33.334 32.456,33.334s11.403-9.092 17.544-3.789l-18.422,20.455h-63.157z" transform="matrix(.3125 0 0 .375 155.67 43.367)"/><path stroke-width="3.651" d="m330.92,208.56-18.42-20.45c6.141-5.303 17.543,3.789 17.543,3.789s6.14-23.485 32.457-33.334c26.316,9.849 32.456,33.334 32.456,33.334s11.403-9.092 17.544-3.789l-18.422,20.455h-63.157z" transform="matrix(.3125 0 0 .375 155.67 52.742)"/><path stroke-width="3.223" d="m330.92,208.56l-.878-16.666s6.14-23.485 32.457-33.334c26.316,9.849 32.456,33.334 32.456,33.334l-.878,16.666h-63.157z" transform="matrix(.32094 0 0 .46875 152.61 47.251)"/><path stroke-width="4.216" d="m330.92,208.56-18.42-20.45c6.141-5.303 17.543,3.789 17.543,3.789s6.14-23.485 32.457-33.334c26.316,9.849 32.456,33.334 32.456,33.334s11.403-9.092 17.544-3.789l-18.422,20.455h-63.157z" transform="matrix(.3125 0 0 .28125 155.67 86.357)"/></g></g><g><path stroke-width="1.226" d="m335.979,226.28h72.141a6.4488,6.4488 0 0,1 6.449,6.449 6.4488,6.4488 0 0,1 -6.449,6.449h-72.141a6.4488,6.4488 0 0,1 -6.449-6.449 6.4488,6.4488 0 0,1 6.449-6.449"/><path stroke-width="1.579" d="m353.24-212.6 1.093-56.693s-3.28,13.906-13.123,13.906h-150.92c-9.843,0-13.124-13.906-13.124-13.906l1.093,56.693h174.98z" transform="matrix(.5 0 0 .75 239.17 393.31)"/><g transform="translate(-.00004 -7.7902)"><path stroke-width="2.4" d="m510.49,70.219 .41-25.609s23.557-2.9984 20.288-9.3319c-3.27-6.3334-31.604,7.9858-31.604,7.9858h-113.34s-28.335-14.319-31.604-7.9858c-3.269,6.3335 20.288,9.3319 20.288,9.3319l.408,25.609h135.15z" transform="matrix(.4 0 0 .57434 194.88 182.02)"/><path stroke-width="2.19" d="m510.49,70.219 .41-25.609s23.557-2.9984 20.288-9.3319c-3.27-6.3334-31.604,7.9858-31.604,7.9858h-113.34s-28.335-14.319-31.604-7.9858c-3.269,6.3335 20.288,9.3319 20.288,9.3319l.408,25.609h135.15z" transform="matrix(.48 0 0 .57434 159.45 194.02)"/><path stroke-width="6.247" d="m510.49,70.219 .41-25.609s23.557-2.9985 20.288-9.3319c-3.27-6.333-27.29-18.36-61.81-31.08-24.29-5.9047 31.26-26.346-21.07-27.709-48.02,.757-5.42,23.318-21.07,28.618-38.84,11.81-69.33,23.838-72.6,30.171-3.27,6.334 20.29,9.332 20.29,9.332l.408,25.609h135.15z" transform="matrix(.12985 0 0 .26106 314.17 141.87)"/><path stroke-width="3.152" d="m510.49,70.219 .41-25.609s23.557-2.9984 20.288-9.3319c-3.27-6.3334-31.604,7.9858-31.604,7.9858h-113.34s-28.335-14.319-31.604-7.9858c-3.269,6.3335 20.288,9.3319 20.288,9.3319l.408,25.609h135.15z" transform="matrix(.28332 0 0 .46992 246.55 164.54)"/><path stroke-width="2.877" d="m510.49,70.219 .41-25.609s23.557-2.9984 20.288-9.3319c-3.27-6.3334-31.604,7.9858-31.604,7.9858h-113.34s-28.335-14.319-31.604-7.9858c-3.269,6.3335 20.288,9.3319 20.288,9.3319l.408,25.609h135.15z" transform="matrix(.34 0 0 .46992 221.46 174.36)"/><path stroke-width="4.755" d="m510.49,70.219 .41-25.609s23.557-2.9984 20.288-9.3319c-3.27-6.3334-31.604,7.9858-31.604,7.9858h-113.34s-28.335-14.319-31.604-7.9858c-3.269,6.3335 20.288,9.3319 20.288,9.3319l.408,25.609h135.15z" transform="matrix(.18333 0 0 .31908 290.85 157.28)"/><path stroke-width="4.341" d="m510.49,70.219 .41-25.609s23.557-2.9984 20.288-9.3319c-3.27-6.3334-31.604,7.9858-31.604,7.9858h-113.34s-28.335-14.319-31.604-7.9858c-3.269,6.3335 20.288,9.3319 20.288,9.3319l.408,25.609h135.15z" transform="matrix(.22 0 0 .31908 274.61 163.95)"/><path stroke-width="6.247" d="m510.49,70.219 .41-25.609s23.557-2.9984 20.288-9.3319c-3.27-6.3334-31.604,7.9858-31.604,7.9858h-113.34s-28.335-14.319-31.604-7.9858c-3.269,6.3335 20.288,9.3319 20.288,9.3319l.408,25.609h135.15z" transform="matrix(.12985 0 0 .26106 314.53 147.57)"/><path stroke-width="5.702" d="m510.49,70.219 .41-25.609s23.557-2.9984 20.288-9.3319c-3.27-6.3334-31.604,7.9858-31.604,7.9858h-113.34s-28.335-14.319-31.604-7.9858c-3.269,6.3335 20.288,9.3319 20.288,9.3319l.408,25.609h135.15z" transform="matrix(.15583 0 0 .26106 303.03 153.03)"/></g><g transform="matrix(1 0 0 .84654 -.00004 54.377)"><path stroke-width="5.444" d="m330.92,208.56-18.42-20.45c6.141-5.303 17.543,3.789 17.543,3.789s6.14-23.485 32.457-33.334c26.316,9.849 32.456,33.334 32.456,33.334s11.403-9.092 17.544-3.789l-18.422,20.455h-63.157z" transform="matrix(.17717 0 0 .2126 307.82 85.004)"/><path stroke-width="5.444" d="m330.92,208.56-18.42-20.45c6.141-5.303 17.543,3.789 17.543,3.789s6.14-23.485 32.457-33.334c26.316,9.849 32.456,33.334 32.456,33.334s11.403-9.092 17.544-3.789l-18.422,20.455h-63.157z" transform="matrix(.24803 0 0 .2126 282.14 92.09)"/><path stroke-width="4.41" d="m330.92,208.56-18.42-20.45c6.141-5.303 17.543,3.789 17.543,3.789s6.14-23.485 32.457-33.334c26.316,9.849 32.456,33.334 32.456,33.334s11.403-9.092 17.544-3.789l-18.422,20.455h-63.157z" transform="matrix(.28346 0 0 .28346 269.29 89.705)"/><path stroke-width="3.528" d="m330.92,208.56-18.42-20.45c6.141-5.303 17.543,3.789 17.543,3.789s6.14-23.485 32.457-33.334c26.316,9.849 32.456,33.334 32.456,33.334s11.403-9.092 17.544-3.789l-18.422,20.455h-63.157z" transform="matrix(.35433 0 0 .35433 243.6 90.155)"/><path stroke-width="1.458" d="m358.18,217.13 13.471,22.98 14.264-22.98h-27.735z" transform="matrix(.92308 0 0 .79602 28.619 3.7524)"/><path stroke-width="3.051" d="m330.92,208.56-18.42-20.45c6.141-5.303 17.543,3.789 17.543,3.789s6.14-23.485 32.457-33.334c26.316,9.849 32.456,33.334 32.456,33.334s11.403-9.092 17.544-3.789l-18.422,20.455h-63.157z" transform="matrix(.4252 0 0 .39487 217.91 96.262)"/><path stroke-width="1.25" d="m358.18,217.13 13.471,22.98 14.264-22.98h-27.735z" transform="translate(-.00012 -20.422)"/><path stroke-width="2.615" d="m330.92,208.56-18.42-20.45c6.141-5.303 17.543,3.789 17.543,3.789s6.14-23.485 32.457-33.334c26.316,9.849 32.456,33.334 32.456,33.334s11.403-9.092 17.544-3.789l-18.422,20.455h-63.157z" transform="matrix(.46063 0 0 .49606 205.07 95.815)"/><path stroke-width="2.615" d="m330.92,208.56-18.42-20.45c6.141-5.303 17.543,3.789 17.543,3.789s6.14-23.485 32.457-33.334c26.316,9.849 32.456,33.334 32.456,33.334s11.403-9.092 17.544-3.789l-18.422,20.455h-63.157z" transform="matrix(.46063 0 0 .49606 205.07 116.22)"/></g></g><g stroke-width="1.04"><path d="m285.34-90.07h6.25v26.986h-6.25z" transform="translate(0 354.33)"/><path d="m306.59-90.072h6.25v26.986h-6.25z" transform="translate(0 354.33)"/><path d="m296.59-90.073h6.25v26.986h-6.25z" transform="translate(0 354.33)"/><path d="m410.14-90.071h6.25v26.986h-6.25z" transform="translate(0 354.33)"/><path d="m452.64-90.073h6.25v26.986h-6.25z" transform="translate(0 354.33)"/><path d="m431.39-90.074h6.25v26.986h-6.25z" transform="translate(0 354.33)"/><path d="m421.39-90.075h6.25v26.986h-6.25z" transform="translate(0 354.33)"/><path d="m441.39-90.075h6.25v26.986h-6.25z" transform="translate(0 354.33)"/><path d="m327.84-90.071h6.25v26.986h-6.25z" transform="translate(0 354.33)"/><path d="m316.59-90.073h6.25v26.986h-6.25z" transform="translate(0 354.33)"/></g></g></g></svg>