<svg xmlns="http://www.w3.org/2000/svg" viewBox="0 0 640 480"><defs><clipPath id="0"><path d="m-86.33 0h682.67v512h-682.67z"/></clipPath></defs><g clip-path="url(#0)" transform="matrix(.9375 0 0 .9375 80.93 0)"><g fill-rule="evenodd"><path fill="#e73e2d" stroke-width="1.25" d="m-164.28 0h835.79v306.49h-835.79z"/><g fill="#fec74a" stroke="#d8aa3f"><g stroke-width="1.665"><path d="m204.3 282.11c-19.435-15.174-55.633-10.04-61.6-51.29 27.717 21.469 22.686-1.227 64.08 19.229l-2.486 32.06z"/><path d="m209.47 263.35c-13.852-20.398-49.882-26.602-42.922-67.69 19.807 28.928 21.971 5.782 55.11 37.936l-12.187 29.754z"/><path d="m215.77 250.01c-5-24.15-35.922-43.653-13.782-78.958 7.242 34.3 18.09 13.743 36.418 56.12l-22.637 22.834z"/><path d="m230.32 237.61c2.653-24.514-20.786-52.57 11.123-79.38-3.638 34.87 12.998 18.633 17.431 64.59l-28.553 14.782z"/><path d="m243.26 227.67c12.457-21.279 2.56-56.47 42.646-67.864-17.596 30.32 4.23 22.321-10.543 66.07l-32.1 1.796z"/><path d="m262.07 230.29c18.559-16.234 20.327-52.751 61.957-50.849-26.3 23.18-3.062 22.511-30.94 59.32l-31.02-8.471z"/><path d="m278.57 239.87c22.506-10.07 34.914-44.46 74.15-30.426-31.946 14.444-9.534 20.621-46.987 47.628l-27.17-17.202z"/><path d="m292.49 254.93c24.431-3.33 46.02-32.837 79.72-8.323-34.72 4.868-14.953 17.1-58.49 32.476l-21.22-24.15z"/><path d="m379.46 259.6l-112.06 2.461 4.705 30.19 107.36-32.654z"/><path d="m363 218.41l-103.84 39.859 17.386 33.373 86.46-73.23z"/><path d="m280.58 280.67l53.722-97.54-82.41 76.7 28.684 20.835z"/><path d="m279.46 272.63l17.268-109.47-53.811 97.28 36.543 12.187z"/><path d="m273.01 263.74l-18.03-110.25-19.989 110.73 38.02-.482z"/><path d="m263.68 254.29l-52.29-92.07 20.09 111.92 32.2-19.845z"/><path d="m255.56 253.6l-81.1-68.48 57.667 98 23.435-29.524z"/><path d="m145.95 218.89l87.07 71.891 13.387-37.606-100.46-34.28z"/><path d="m232.1 260.85l-102.31-1.438 101.88 34.01.429-32.572z"/></g><path stroke-width="1.187" d="m429.77 602.07c0 24.16-19.588 43.751-43.751 43.751s-43.751-19.588-43.751-43.751 19.588-43.751 43.751-43.751 43.751 19.588 43.751 43.751z" transform="matrix(1.4028 0 0 1.4028-287.76-565.36)"/></g><path fill="#005989" stroke-width="1.25" d="m-165.12 303.4h839.9v208.6h-839.9z"/><g fill="#fff"><path d="m-165.6 454c15.618 7.228 37.991 25.319 61.922 25.303 40.04-.26 41.11-27.425 81.67-26.13 40.667 1.035 33.31 29.634 88.22 29.491 45.37-.119 60.03-34.665 99.13-30.526 28.963-1.491 40.817 32.714 85.33 33.15 46.17.987 63.13-37.28 92.09-34.11 30.856 0 40.964 30.821 84.25 31.04 55.14.278 64.829-32.08 99.32-30.01 24.55-.518 43.91 23.714 79.887 24.317 28.707.489 52.74-21.21 68.975-28.974l.803-36.827c-17.01 6.327-42.39 27.07-67.756 27.301-36.509 1.336-59.09-23.946-84.46-23.718-30.397.273-42.51 31.28-94.08 31.28-47.11 0-57.918-31.28-88.32-31.28-29.712.228-38.815 34.03-90.25 33.4-41.96-.505-58.31-32.26-88.02-32.03-31.499 0-64.07 30.881-98.95 29.39-48.14-2.034-58.54-29.39-90.04-29.39-23.542 0-48.948 25.635-77.31 26.06-28.21.434-59.892-25.508-62.827-26.06l.402 38.33"/><path d="m-165.6 381.07c15.618 7.228 37.991 25.319 61.922 25.303 40.04-.26 41.11-27.425 81.67-26.13 40.667 1.035 33.31 29.634 88.22 29.491 45.37-.119 60.03-34.665 99.13-30.526 28.963-1.491 40.817 32.714 85.33 33.15 46.17.987 63.13-37.28 92.09-34.11 30.856 0 40.964 30.821 84.25 31.04 55.14.278 64.829-32.08 99.32-30.01 24.55-.518 43.91 23.714 79.887 24.317 28.707.489 52.74-21.21 68.975-28.974l.803-36.827c-17.01 6.327-42.39 27.07-67.756 27.301-36.509 1.336-59.09-23.946-84.46-23.718-30.397.273-42.51 31.28-94.08 31.28-47.11 0-57.918-31.28-88.32-31.28-29.712.228-38.815 34.03-90.25 33.4-41.96-.505-58.31-32.26-88.02-32.03-31.499 0-64.07 30.881-98.95 29.39-48.14-2.034-58.54-29.39-90.04-29.39-23.542 0-48.948 25.635-77.31 26.06-28.21.434-59.892-25.508-62.827-26.06l.402 38.33"/><path d="m-165.6 308.92c15.603 7.228 37.955 25.319 61.865 25.303 40-.26 41.07-27.425 81.59-26.13 40.629 1.035 33.28 29.634 88.14 29.491 45.33-.119 59.97-34.665 99.04-30.526 28.936-1.491 40.779 32.714 85.25 33.15 46.13.987 63.07-37.28 92-34.11 30.827 0 40.926 30.821 84.17 31.04 55.08.278 64.769-32.08 99.23-30.01 24.528-.518 43.869 23.714 79.81 24.317 28.68.489 52.691-21.21 68.911-28.974l.802-36.827c-17 6.327-42.35 27.07-67.69 27.301-36.475 1.336-59.04-23.946-84.38-23.718-30.369.273-42.471 31.28-93.99 31.28-47.06 0-57.864-31.28-88.23-31.28-29.684.228-38.779 34.03-90.17 33.4-41.921-.505-58.25-32.26-87.94-32.03-31.47 0-64.01 30.881-98.86 29.39-48.09-2.034-58.49-29.39-89.96-29.39-23.52 0-48.903 25.635-77.24 26.06-28.15.44-59.81-25.5-62.74-26.06l.401 38.33z"/></g><g fill="#ffc84b" stroke="#d8aa3f"><g stroke-width="1.665"><path d="m136.81 75.956c61.05-4.18 49.921-9.394 74.49-13.316 30.964 4.257 34.505 23 51.758 34.505 0 0-6.485 21.926-27.706 18.822-2.853-8.796 10.273-11.515-27.497-34.54-21.958-1.307-61.25 3.854-71.05-5.472z"/><path d="m326.07 109.89l-43.979 1.81v10.866c29.664.948 35.01-3.02 43.979-12.676z"/><path stroke-linejoin="round" d="m174.84 108.07c7.665-3.92 11.477-2.32 18.12-2.579 4.57 8.278 8.882 9.05 18.885 10.09 15.263 21.472 36.735 21.73 39.839 21.73 29.923-.777 39.41-21.73 59.5-24.06h21.21c-3.535-6.04-6.296-9.486-13.97-9.831-15.781-.862-36.22-.43-54.07 3.622l-25.09 6.209c-7.331-3.535-25.27-22.334-36.735-21.989-6.726 1.81-6.726 4.139-10.09 6.726-6.467 2.76-12.936 1.437-17.601 10.08z"/></g><path stroke-width="1.63" d="m330.54 451.11c0 1.716-1.391 3.107-3.107 3.107-1.716 0-3.107-1.391-3.107-3.107s1.391-3.107 3.107-3.107c1.716 0 3.107 1.391 3.107 3.107z" transform="matrix(1.0214 0 0 1.0214-132.51-361.85)"/><path stroke-width="1.665" d="m225.56 107.82c44.927-54.15 84.16-47.51 135.3-51.22 1.725 6.295 1.122 15.695-23.282 24.06-33.372 4.915-93.13 40.1-93.39 40.1-11.126-.517-18.886-12.158-18.627-12.935z"/></g></g><g fill="none" stroke="#d9a43e" stroke-linecap="round" stroke-width="1.665"><path d="m317.87 72.54l33.13 1.436"/><path d="m314.26 77.942l24.15 1.97"/></g></g></svg>