<svg xmlns="http://www.w3.org/2000/svg" viewBox="0 0 640 480"><defs><clipPath id="clipPath4687" clipPathUnits="userSpaceOnUse"><path fill-opacity=".67" d="M 0,0 H682.67 V512 H0 z"/></clipPath></defs><g fill-rule="evenodd" clip-path="url(#clipPath4687)" transform="scale(.9375)"><g stroke-width="1.25"><path fill="#ff0" d="m0-0h768.77v128h-768.77z"/><path fill="#fff" d="M 0,128 H768.77 V256 H0 z"/><path fill="#be0027" d="M 0,256 H768.77 V384 H0 z"/><path fill="#3b5aa3" d="M 0,384 H768.77 V512 H0 z"/></g><path fill="#239e46" d="m0,0v512l381.86-255.28-381.86-256.72z"/><g fill="#fff"><path d="m157.21,141.43c-85.097-4.31-123.87,63.47-123.78,115.87-.194,61.97 58.529,113.08 112.81,109.99-29.27-13.84-65.008-52.66-65.337-110.25-.3-52.18 29.497-97.55 76.307-115.61z"/><g stroke-width="1.25"><path d="m126.77,160.21-9.75-7.63-11.82,3.72 4.24-11.64-7.18-10.09 12.38,.43 7.37-9.95 3.41,11.91 11.75,3.94-10.28,6.93z" transform="matrix(1.23 0 0 1.23 0 .00002)"/><path d="m126.77,160.21-9.75-7.63-11.82,3.72 4.24-11.64-7.18-10.09 12.38,.43 7.37-9.95 3.41,11.91 11.75,3.94-10.28,6.93z" transform="matrix(1.23 0 0 1.23 -.25522 52.063)"/><path d="m126.77,160.21-9.75-7.63-11.82,3.72 4.24-11.64-7.18-10.09 12.38,.43 7.37-9.95 3.41,11.91 11.75,3.94-10.28,6.93z" transform="matrix(1.23 0 0 1.23 -.00001 104.64)"/><path d="m126.77,160.21-9.75-7.63-11.82,3.72 4.24-11.64-7.18-10.09 12.38,.43 7.37-9.95 3.41,11.91 11.75,3.94-10.28,6.93z" transform="matrix(1.23 0 0 1.23 -.25522 157.72)"/></g></g></g></svg>