<svg xmlns="http://www.w3.org/2000/svg" viewBox="0 0 640 480" xmlns:xlink="http://www.w3.org/1999/xlink"><defs><path id="0" d="m126.77 160.21l-9.75-7.63-11.82 3.72 4.24-11.64-7.18-10.09 12.38.43 7.37-9.95 3.41 11.91 11.75 3.94-10.28 6.93z"/><clipPath id="1"><path d="M 0,0 H682.67 V512 H0 z"/></clipPath></defs><g fill-rule="evenodd" clip-path="url(#1)" transform="scale(.9375)"><g stroke-width="1.25"><path fill="#ff0" d="m0 0h768.77v128h-768.77z"/><path fill="#fff" d="M 0,128 H768.77 V256 H0 z"/><path fill="#be0027" d="M 0,256 H768.77 V384 H0 z"/><path fill="#3b5aa3" d="M 0,384 H768.77 V512 H0 z"/></g><path fill="#239e46" d="m0 0v512l381.86-255.28-381.86-256.72"/><g fill="#fff"><path d="m157.21 141.43c-85.1-4.31-123.87 63.47-123.78 115.87-.194 61.97 58.53 113.08 112.81 109.99-29.27-13.84-65.01-52.66-65.34-110.25-.3-52.18 29.497-97.55 76.31-115.61"/><g stroke-width="1.25"><use transform="scale(1.23)" xlink:href="#0"/><use transform="matrix(1.23 0 0 1.23-.255 52.06)" xlink:href="#0"/><use transform="matrix(1.23 0 0 1.23 0 104.64)" xlink:href="#0"/><use transform="matrix(1.23 0 0 1.23-.255 157.72)" xlink:href="#0"/></g></g></g></svg>