<svg xmlns="http://www.w3.org/2000/svg" viewBox="0 0 640 480"><defs><clipPath id="clipPath4591" clipPathUnits="userSpaceOnUse"><path fill-opacity=".67" d="m-80.109,0h682.67v512h-682.67z"/></clipPath></defs><g fill-rule="evenodd" clip-path="url(#clipPath4591)" transform="matrix(.9375 0 0 .9375 75.102 -0)"><path fill="#ffe900" d="m-107.85,.2386h737.65v511.2904h-737.65z"/><path fill="#35a100" d="m-108.24,.2386 .86,368.58 573.98-368.82-574.84,.2386z"/><path fill="#c70000" d="m630.69,511.53-1.3468-383.25-578.98,383.54 580.33-.2831z"/><path d="m-107.87,396.61 .49,115.39 125.25-.16 611.76-410.14-.69-100.32-123.76-1.1414-613.05,396.37z"/><g fill="#fff"><path d="m511.95,324.28 21.83-67.38 21.83,67.38 70.83-.05-57.34,41.58 21.94,67.35-57.27-41.68-57.27,41.67 21.95-67.34-57.33-41.6z" transform="matrix(.53692 -.34745 .32106 .51439 1.465 167.69)"/><path d="m511.95,324.28 21.83-67.38 21.83,67.38 70.83-.05-57.34,41.58 21.94,67.35-57.27-41.68-57.27,41.67 21.95-67.34-57.33-41.6z" transform="matrix(.53692 -.34745 .32106 .51439 -273.78 346.6)"/></g></g></svg>