<svg xmlns="http://www.w3.org/2000/svg" viewBox="0 0 640 480"><defs><clipPath id="0"><path d="m5.077.1h682.53v511.9h-682.53z"/></clipPath></defs><g fill-rule="evenodd" clip-path="url(#0)" transform="matrix(.93768 0 0 .93768-4.761-.094)"><path fill="#fff" stroke="#000" stroke-width=".95" d="m-775.94-511.52h851.86v510.95h-851.86z" transform="scale(-1-1)"/><g stroke-width="1.25"><path fill="#3e5698" d="m-775.94 419.07h851.86v92.46h-851.86z" transform="scale(-1 1)"/><path fill="#c60000" d="m-775.94-397.65h851.86v283.21h-851.86z" transform="scale(-1-1)"/><path fill="#3e5698" d="m-775.94.576h851.86v92.46h-851.86z" transform="scale(-1 1)"/></g><path fill="#fff" d="m495.86 1148c0 90.46-73.33 163.79-163.79 163.79-90.46 0-163.79-73.33-163.79-163.79 0-90.46 73.33-163.79 163.79-163.79 90.46 0 163.79 73.33 163.79 163.79" transform="matrix(.72421 0 0 .70142-30.589-549.16)"/><path fill="#c40000" d="m498.45 365.81l-57.33-41.6 70.83.07 21.83-67.38 21.83 67.38 70.83-.05-57.34 41.58 21.94 67.35-57.27-41.68-57.27 41.67z" transform="matrix(1.0032-.00505-.01092.98334-320.22-86.63)"/></g></svg>