<svg xmlns="http://www.w3.org/2000/svg" viewBox="0 0 640 480"><defs><clipPath id="clipPath4409" clipPathUnits="userSpaceOnUse"><path fill-opacity=".67" d="m-95.808-.4399h682.67v511.9999h-682.67z"/></clipPath></defs><g fill-rule="evenodd" clip-path="url(#clipPath4409)" transform="matrix(.9375 0 0 .9375 89.82 .41242)"><g fill="#fff"><path d="m-610.61-511.56h730.17v512h-730.17z" transform="scale(-1)"/><path d="m495.86,1148c0,90.46-73.332,163.79-163.79,163.79-90.46,0-163.79-73.332-163.79-163.79 0-90.46 73.332-163.79 163.79-163.79 90.46,0 163.79,73.332 163.79,163.79z" transform="matrix(.6869 0 0 .6869 -88.735 -532.54)"/></g><path fill="#c70000" d="m733.7,381.73c0,125.78-101.96,227.74-227.74,227.74s-227.74-101.96-227.74-227.74 101.96-227.74 227.74-227.74 227.74,101.96 227.74,227.74z" transform="matrix(.63784 0 0 .64461 -74.972 16.483)"/><g stroke-width="1.25"><path d="m-127.97,45.309h127.92v26.201h-127.92z" transform="matrix(.654 -.75649 .75649 .654 0 0)"/><path d="m-127.97,81.527h127.92v26.201h-127.92z" transform="matrix(.654 -.75649 .75649 .654 0 0)"/><path d="m-127.97,45.309h127.92v26.201h-127.92z" transform="matrix(.654 -.75649 .75649 .654 0 0)"/><path d="m-127.97,45.309h127.92v26.201h-127.92z" transform="matrix(.654 -.75649 .75649 .654 0 0)"/><path d="m-127.97,118.52h127.92v26.201h-127.92z" transform="matrix(.654 -.75649 .75649 .654 0 0)"/><path d="m-127.97,45.309h127.92v26.201h-127.92z" transform="matrix(.654 -.75649 .75649 .654 0 0)"/><path d="m-127.97,45.309h127.92v26.201h-127.92z" transform="matrix(.654 -.75649 .75649 .654 0 0)"/><path d="m320.65-330.34h127.92v26.201h-127.92z" transform="rotate(49.54429)"/><path d="m320.65-257.13h127.92v26.201h-127.92z" transform="rotate(49.54429)"/></g><path fill="#fff" d="m417.55,133.19 78.602-67.814 14.641,16.953-83.996,75.519-9.2471-24.659z"/><g stroke-width="1.25"><path d="m-42.832-633.05h125.1v25.644h-125.1z" transform="matrix(-.64282 .76602 -.76881 -.63948 0 0)"/><path d="m320.65-294.12h127.92v26.201h-127.92z" transform="rotate(49.54429)"/><path d="m-42.832-668.49h125.1v25.644h-125.1z" transform="matrix(-.64282 .76602 -.76881 -.63948 0 0)"/><path d="m-42.832-596.84h125.1v25.644h-125.1z" transform="matrix(-.64282 .76602 -.76881 -.63948 0 0)"/></g><path fill="#3d5897" d="m104.6,236.68c4.5919,36.974 11.297,78.175 68.199,82.455 21.328,1.2776 62.817-5.0735 77.061-63.19 18.688-55.829 74.975-71.88 113.28-41.613 21.718,14.166 27.727,36.666 29.283,53.557-1.7386,54.243-32.874,101.2-72.823,122.14-45.93,27.3-109.56,27.87-165.3-13.49-25.12-23.57-60.219-67.02-49.7-139.86z"/><path fill="#fff" d="m435.91,370.59 78.734,67.661-14.591,16.997-87.156-71.851 23.013-12.807z"/><g stroke-width="1.25"><path d="m270.57,233.21h127.92v26.201h-127.92z" transform="rotate(49.54429)"/><path fill="#fff" d="m-16.188,437.25 78.602-67.814 14.641,16.953-83.996,75.519-9.2471-24.659z"/><path d="m270.57,196.99h127.92v26.201h-127.92z" transform="rotate(49.54429)"/><path d="m270.57,270.2h127.92v26.201h-127.92z" transform="rotate(49.54429)"/></g></g></svg>