<svg xmlns="http://www.w3.org/2000/svg" viewBox="0 0 640 480" xmlns:xlink="http://www.w3.org/1999/xlink"><defs><path id="1" d="m-127.97 45.31h127.92v26.2h-127.92z"/><clipPath id="0"><path d="m-95.81-.44h682.67v512h-682.67z"/></clipPath></defs><g fill-rule="evenodd" clip-path="url(#0)" transform="matrix(.9375 0 0 .9375 89.82.412)"><g fill="#fff"><path d="m-610.61-511.56h730.17v512h-730.17z" transform="scale(-1-1)"/><path d="m495.86 1148c0 90.46-73.33 163.79-163.79 163.79-90.46 0-163.79-73.33-163.79-163.79 0-90.46 73.33-163.79 163.79-163.79 90.46 0 163.79 73.33 163.79 163.79" transform="matrix(.6869 0 0 .6869-88.73-532.54)"/></g><path fill="#c70000" d="m733.7 381.73c0 125.78-101.96 227.74-227.74 227.74s-227.74-101.96-227.74-227.74 101.96-227.74 227.74-227.74 227.74 101.96 227.74 227.74" transform="matrix(.63784 0 0 .64461-74.972 16.483)"/><g stroke-width="1.25"><g transform="matrix(.654-.75649.75649.654 0 0)"><use xlink:href="#1"/><path d="m-127.97 81.53h127.92v26.2h-127.92z"/><use xlink:href="#1"/><use xlink:href="#1"/><path d="m-127.97 118.52h127.92v26.2h-127.92z"/><use xlink:href="#1"/><use xlink:href="#1"/></g><g transform="matrix(.64886.76091-.76091.64886 0 0)"><path d="m320.65-330.34h127.92v26.2h-127.92z"/><path d="m320.65-257.13h127.92v26.2h-127.92z"/></g></g><path fill="#fff" d="m417.55 133.19l78.6-67.814 14.641 16.953-83.996 75.52-9.247-24.659"/><g stroke-width="1.25"><path d="m-42.832-633.05h125.1v25.644h-125.1z" transform="matrix(-.64282.76602-.76881-.63948 0 0)"/><path d="m320.65-294.12h127.92v26.2h-127.92z" transform="matrix(.64886.76091-.76091.64886 0 0)"/><g transform="matrix(-.64282.76602-.76881-.63948 0 0)"><path d="m-42.832-668.49h125.1v25.644h-125.1z"/><path d="m-42.832-596.84h125.1v25.644h-125.1z"/></g></g><path fill="#3d5897" d="m104.6 236.68c4.592 36.974 11.297 78.18 68.2 82.45 21.328 1.278 62.817-5.074 77.06-63.19 18.688-55.829 74.975-71.88 113.28-41.613 21.718 14.166 27.727 36.666 29.28 53.56-1.739 54.24-32.874 101.2-72.823 122.14-45.93 27.3-109.56 27.87-165.3-13.49-25.12-23.57-60.22-67.02-49.7-139.86z"/><path fill="#fff" d="m435.91 370.59l78.73 67.66-14.591 16.997-87.16-71.851 23.01-12.807"/><g stroke-width="1.25"><path d="m270.57 233.21h127.92v26.2h-127.92z" transform="matrix(.64886.76091-.76091.64886 0 0)"/><path fill="#fff" d="m-16.188 437.25l78.6-67.814 14.641 16.953-83.996 75.52-9.247-24.659"/><g transform="matrix(.64886.76091-.76091.64886 0 0)"><path d="m270.57 196.99h127.92v26.2h-127.92z"/><path d="m270.57 270.2h127.92v26.2h-127.92z"/></g></g></g></svg>