<svg xmlns="http://www.w3.org/2000/svg" viewBox="0 0 640 480"><path fill="#006" stroke-width="1.25" d="m0,0h640v480h-640z"/><g transform="matrix(.78125 0 0 .78125 0 -.00001)"><path fill="#006" fill-rule="evenodd" d="m0,0h512v256h-512z"/></g><g stroke-width="1.25" transform="matrix(6.27508 0 0 8.07656 0 .00001)"><g fill="#fff"><path d="m0,0v3.3541l53.292,26.646h6.708v-3.354l-53.292-26.646h-6.708zm60,0v3.354l-53.292,26.646h-6.708v-3.354l53.292-26.646h6.708z"/><path d="m25,0v30h10v-30h-10zm-25,10v10h60v-10h-60z"/></g><g fill="#c00"><path d="m0,12v6h60v-6h-60zm27-12v30h6v-30h-6z"/><path d="m0,30 20-10h4.472l-20,10h-4.472zm0-30 20,10h-4.472l-15.528-7.7639v-2.2361zm35.528,10 20-10h4.472l-20,10h-4.472zm24.472,20-20-10h4.472l15.528,7.764v2.236z"/></g></g><g transform="matrix(1.024 0 0 1.024 -283.01 45.714)"><path fill="#fff" fill-rule="evenodd" stroke-width="1.25" d="m714.2,130.3c-.9861,.5958-2.9579,2.3834-4.9301,1.7876-1.9718-.5958-6.4087-8.3424-11.339-7.1506-4.9301,1.1915-7.888,2.9795-9.8598,2.9795-1.9721,0-7.3951,1.7876-7.3951,6.5544 0,4.7672 .4932,8.3428 1.479,8.3428 .9861,0 2.465-2.9795 2.465-2.9795s.4929,5.9587 3.944,5.9587 10.846,.5961 11.339,2.3838c.4932,1.7876-3.4508,5.9587-2.4647,9.5343 .9858,3.5753 5.4229,9.534 5.4229,9.534s-6.409,4.7672-6.409,7.7467 .9861,5.959 .9861,5.959l-28.594,1.1915s-1.9721,84.617-.9861,91.173c.9861,6.5519 3.4508,22.642 3.4508,22.642s-6.409-2.0837-11.832,3.2796c-5.4229,5.3633-24.403,14.597-24.896,18.768-.493,4.171-2.2185,7.7478-.2465,10.727 1.972,2.9788 8.9107,11.074 6.902,10.727-6.6187-1.1415-9.0813-10.545-13.557-14.003-4.3978-3.3955-13.064-2.6816-14.05,.8915-.986,3.5767-.493,9.5343 0,10.727 .493,1.1922 5.9159,20.261 7.3949,24.432s17.008,10.426 23.91,9.8315c13.064,.2971 18.98-5.6604 19.473-5.0625 .4932,.5943 28.106,29.07 84.795,29.197 44.129,.0978 77.4-28.603 77.4-28.005 0,.5943 18.241,5.9576 24.65,4.171 6.409-1.7902 15.776-5.9612 17.748-10.132 1.9721-4.171 7.3951-25.624 7.888-29.197 .4932-3.5767 0-7.7478-4.4369-8.94s-6.9019-.8951-9.3669,.2971-3.2047,4.4718-6.9019,10.429c-1.9718,1.7902-7.1484,6.5555-5.6694,5.3633s4.6833-10.129 5.1765-13.111c.4929-2.9788 1.9718-8.3421-1.479-11.321-3.4511-2.9788-8.737-4.1964-14.79-8.6392-5.7482-3.9391-10.352-10.429-13.804-10.429-3.4511,0-7.3951-1.7866-6.9019-1.7866 .4929,0 4.445-8.6574 3.4589-17.594-.9858-8.94 .4848-94.434-.008-94.434-.4929,0-24.65,1.788-24.65,.5961s1.9718-9.5343 0-14.897c-1.9718-5.3629-10.353-8.9386-7.888-10.13 2.465-1.1919 13.311-4.1714 12.818-8.9386-.4932-4.7672-7.3951-4.171-10.353-5.9587-2.9579-1.788-11.832-10.13-12.818-10.13-.9861,0 25.635-16.089 23.664-16.089-1.9718,0-12.325-2.9792-15.776-1.1915 0-2.9795 14.297-11.918 11.832-13.11-2.465-1.1919-13.804-2.3838-10.846-2.9795 2.9579-.5958 3.944-7.7467 3.4511-7.7467-.4932,0-12.818,1.788-12.818,1.788s-2.9579-4.1714-3.944-4.1714c-.9858,0-5.423,2.3834-5.423,2.3834l-2.4647-6.5548-5.4229,3.5756-2.465-2.9795s-4.4369,1.1919-4.4369,0c.1865-.0428-.5109-2.9922-1.2079-2.9922-.6974,0-5.5776,3.7923-5.7521,3.5814-.1742-.2105-5.5774-7.7949-5.5774-7.5843 0,.2109-3.8348,14.326-4.009,14.326-.1742,0-3.8346,.4214-4.0088,.632-.1745,.2109-19.522-11.166-19.347-10.955 .1742,.2109 5.0545,10.955 5.0545,10.955s-4.1832,2.3178-4.1832,2.5284c0,.2105 .6974,4.8454 .6974,4.8454l-12.9-4.425s4.8806,9.9018 4.5319,9.9018c-.3487,0-9.5864,.4214-9.4122,.4214 .1742,0 4.3574,8.2163 4.3574,8.2163l-1.5686,4.8458s13.884,9.7978 12.898,10.394zm82.33,207.37c1.2325,1.7866 7.8877,10.129 6.9019,10.129-.9861,0-17.501,11.024-24.157,13.111-6.6555,2.0837-28.347,5.9576-27.115,5.6604 1.2325-.2972 19.479-10.288 26.874-15.053 7.3951-4.7654 17.495-13.252 17.495-13.847zm-103.04-.3008c-.9861,1.1922-5.6694,10.429-5.6694,10.429s13.557,9.5343 23.664,13.111c10.106,3.5731 27.361,4.7654 26.375,4.4682-.9858-.2971-21.692-9.5343-27.608-14.3-5.9158-4.769-16.515-13.709-16.762-13.709z"/></g><g fill-rule="evenodd"><g fill="#fec500" stroke="#6d6666" stroke-width="1.403" transform="matrix(.30701 0 0 .37108 317.054 244.25736)"><path d="m394.65-212.97s28.777,17.265 35.354,21.376 27.954,22.199 29.598,21.377c1.645-.822 13.155-9.866 13.155-9.866s-23.843-18.91-38.642-23.021-39.465-8.222-39.465-9.866z"/><path d="m390.54-231.88c2.467,0 47.687,23.022 61.664,34.532s19.732,26.31 21.377,26.31c1.644,0 23.021-3.289 22.198-3.289-.822,0-9.866-29.598-30.42-38.642-20.555-9.044-73.996-18.911-74.819-18.911z"/><path d="m603.48-296.01c-.822,0-9.044,24.666-11.511,32.065-2.466,7.4-6.577,23.021-6.577,23.021s-36.176,3.289-34.532-.822c1.645-4.111 55.086-54.264 52.62-54.264z" transform="translate(0 4.6509)"/><path d="m398.76-261.48s42.754,28.776 57.553,45.22c14.799,16.443 29.598,45.22 30.42,45.22 .823,0 40.287-8.222 40.287-7.4s-46.042-46.042-68.241-60.019-59.197-21.377-60.019-23.021z"/><path d="m443.16-273.81s21.377,32.887 25.487,44.398c4.111,11.51 16.444,41.109 16.444,41.109h33.709s-16.443-36.998-34.531-55.086-40.287-28.776-41.109-30.421z" transform="translate(0 4.6509)"/><path d="m454.66-291.9c.823,2.467 31.243,31.243 38.643,50.153 7.399,18.91 13.155,42.754 13.155,42.754l29.598-7.4s-26.31-48.509-42.753-61.664c-16.444-13.154-36.998-22.198-38.643-23.843z" transform="translate(0 4.6509)"/><path d="m700.5-209.68s-61.663,6.578-83.862,12.333-34.532,27.132-34.532,27.132 28.777,10.688 30.421,9.044 18.91-18.91 37.82-25.488c18.91-6.577 51.797-22.199 50.153-23.021z"/><path d="m698.03-249.97c-1.645,.823-50.975,41.11-66.597,54.264-15.621,13.155-30.421,27.132-32.065,27.954-1.644,.823-32.065-4.11-30.421-5.755 1.645-1.644 45.22-36.998 73.997-52.619 28.776-15.622 52.619-22.199 55.086-23.844z"/><path d="m685.7-278.75c-4.933,5.755-53.442,45.22-66.597,59.197s-34.531,38.643-34.531,38.643-25.488-11.511-23.843-16.444c1.644-4.933 36.175-33.709 60.841-50.153 24.665-16.444 66.596-29.599 64.13-31.243z"/><path d="m636.37-282.04c-.822,.823-29.598,31.243-35.354,39.465-5.755,8.222-23.021,44.398-23.021,44.398s-25.487-22.199-25.487-23.021 32.065-34.532 50.975-47.687 33.709-10.688 32.887-13.155z"/><path d="m565.09-241.77c0,5.7794-4.6852,10.465-10.465,10.465-5.7795,0-10.465-4.6852-10.465-10.465 0-5.7795 4.6852-10.465 10.465-10.465 5.7795,0 10.465,4.6852 10.465,10.465z" transform="translate(0 4.6509)"/><path d="m586.02-227.81c0,5.1373-4.6852,9.3019-10.465,9.3019-5.7795,0-10.465-4.1646-10.465-9.3019s4.6852-9.3019 10.465-9.3019c5.7795,0 10.465,4.1646 10.465,9.3019z" transform="translate(0 4.6509)"/><path d="m539.51-238.28c0,5.1373-5.7263,9.3019-12.79,9.3019-7.0638,0-12.79-4.1646-12.79-9.3019s5.7263-9.3019 12.79-9.3019c7.0638,0 12.79,4.1646 12.79,9.3019z" transform="translate(0 4.6509)"/><path d="m573.23-219.09c0,9.9535-6.5072,18.022-14.534,18.022-8.027,0-14.534-8.0689-14.534-18.022 0-9.9535 6.5072-18.022 14.534-18.022 8.027,0 14.534,8.0689 14.534,18.022z" transform="translate(0 4.6509)"/><path d="m533.7-218.51c0,7.706-6.5072,13.953-14.534,13.953-8.027,0-14.534-6.2469-14.534-13.953 0-7.706 6.5072-13.953 14.534-13.953 8.027,0 14.534,6.2469 14.534,13.953z" transform="translate(0 4.6509)"/><path d="m513.93-207.46c0,6.7427-4.9455,12.209-11.046,12.209-6.1006,0-11.046-5.466-11.046-12.209 0-6.7427 4.9455-12.209 11.046-12.209 6.1006,0 11.046,5.466 11.046,12.209z" transform="translate(0 4.6509)"/><path d="m595.32-208.63c0,8.027-7.5483,14.534-16.86,14.534-9.3113,0-16.86-6.5072-16.86-14.534 0-8.027 7.5483-14.534 16.86-14.534 9.3114,0 16.86,6.5072 16.86,14.534z" transform="translate(0 4.6509)"/><path d="m554.63-229.56c0,4.8162-5.9866,8.7205-13.372,8.7205-7.3849,0-13.372-3.9043-13.372-8.7205s5.9866-8.7205 13.372-8.7205c7.3849,0 13.372,3.9043 13.372,8.7205z" transform="translate(0 4.6509)"/><path d="m556.95-210.37c0,7.0638-8.3292,12.79-18.604,12.79s-18.604-5.7263-18.604-12.79c0-7.0638 8.3292-12.79 18.604-12.79s18.604,5.7263 18.604,12.79z" transform="translate(0 4.6509)"/><path d="m604.62-187.7c0,8.6692-7.8086,15.697-17.441,15.697s-17.441-7.0278-17.441-15.697 7.8086-15.697 17.441-15.697c9.6325,0 17.441,7.0278 17.441,15.697z" transform="translate(0 4.6509)"/><path d="m509.28-191.77c0,5.7795-4.4249,10.465-9.8833,10.465s-9.8833-4.6852-9.8833-10.465c0-5.7794 4.4249-10.465 9.8833-10.465s9.8833,4.6852 9.8833,10.465z" transform="translate(0 4.6509)"/><path d="m579.04-193.51c0,7.3849-6.7675,13.372-15.116,13.372-8.3481,0-15.116-5.9866-15.116-13.372 0-7.3849 6.7675-13.372 15.116-13.372 8.3481,0 15.116,5.9866 15.116,13.372z" transform="translate(0 4.6509)"/><path d="m531.37-194.09c0,6.4216-5.9866,11.627-13.371,11.627-7.3849,0-13.371-5.2058-13.371-11.627 0-6.4216 5.9866-11.627 13.371-11.627 7.3849,0 13.371,5.2058 13.371,11.627z" transform="translate(0 4.6509)"/><path d="m554.63-190.61c0,7.0638-6.2469,12.79-13.953,12.79-7.706,0-13.953-5.7263-13.953-12.79 0-7.0638 6.2469-12.79 13.953-12.79 7.706,0 13.953,5.7263 13.953,12.79z" transform="translate(0 4.6509)"/><path d="m494.16-267.35c3.488,0 27.906,8.139 27.906,8.139s-30.232,11.628-25.581,10.465 33.72-4.651 31.394-4.651c-2.325,0-25.58,22.092-18.604,20.929 6.977-1.162 20.93-15.115 22.092-15.115 1.163,0 15.116,22.092 16.279,20.929 1.162-1.163 0-22.092 1.162-22.092 1.163,0 29.069,13.953 26.743,12.79-2.325-1.163-18.603-17.441-17.441-17.441 1.163,0 38.371,3.488 36.045,2.325-2.325-1.162-24.417-11.627-24.417-11.627s16.278-15.115 12.79-15.115-30.231,15.115-27.906,13.952c2.326-1.162 29.069-31.393 29.069-31.393l-26.743,12.79s4.651-18.604 2.325-17.442c-2.325,1.163-20.929,24.418-22.092,24.418s-5.814-23.255-5.814-23.255 1.163,25.58-5.813,26.743c-6.977,1.163-31.394,5.814-31.394,4.651z" transform="translate(0 4.6509)"/></g><g transform="matrix(.30701 0 0 .37108 350.73336 188.67464)"><g fill="#00389b"><path d="m308.71,75.082c.581,2.3255 19.185,44.184 47.672,43.021s40.114-8.139 38.952-8.72c-1.163-.582-13.372-7.558-20.348-22.674-6.977-15.116-8.14-21.511-8.14-21.511l-58.136,9.8833z"/><path d="m410.45,58.804s20.929,41.277 30.231,47.09c9.302,5.814 30.813,10.465 40.115,9.884 9.302-.582 20.348,0 20.348,0s-9.302-4.07-16.86-26.743-9.883-30.231-9.883-30.231h-63.951z"/><path d="m538.35,73.919s-4.069,30.231 0,37.789c4.07,7.558 24.418,21.511 24.418,21.511s24.417-2.907 24.998-21.511c.582-18.604-8.139-36.045-8.139-36.045l-41.277-1.7441z"/></g><g stroke-width="1.403"><g stroke="#000"><g fill="#005120"><path d="m288.94,21.015s1.163,4.6509 0,8.1391-11.046,12.79-11.046,20.348c0,7.5578 11.627,30.812 47.091,31.394 35.463,.5813 80.229-19.185 79.647-19.767-.58-.581-84.88-56.974-86.04-56.393-1.16,.5817-29.65,17.441-29.65,16.279z"/><path d="m523.23,61.129s7.557,20.348 10.464,22.674c2.907,2.3254 4.07,6.9764 4.651,6.9764s48.835,10.464 48.835,10.464 4.651-13.371-2.325-23.836c-6.977-10.465-33.138-37.789-33.138-37.789l-28.49,21.511z"/><path d="m556.37,36.13c1.162,0 12.79,9.8832 22.092,4.6509 9.301-5.2323 24.417-19.185 24.417-19.185s-12.79,4.0697-22.092,3.4883c-9.302-.5815-23.836,11.627-24.417,11.046z"/><path d="m287.2,23.34s-3.488-9.8833-12.79-10.465c-9.302-.5814-26.162,1.1626-31.975-3.4882-5.814-4.6509-7.558-15.697-10.465-15.116-2.907,.5814-10.465,0-11.046,0s-3.488-9.3019 4.651-13.953c8.139-4.651 15.116-.5814 19.766-4.0696 4.651-3.4883 11.628-5.8137 20.93-6.3951 9.302-.5813 24.417,11.628 31.394,14.534 6.976,2.9068 22.092,6.3949 27.905,3.4881 5.814-2.9068 38.371-15.697 49.998-16.278 11.627-.5813 36.045-1.1627 45.347-.5813 9.302,.5813 45.928,5.2323 56.974,10.465 11.046,5.2323 69.764,25.58 77.903,30.231 8.139,4.6509 26.162,11.627 26.162,11.627s-31.976,31.394-47.672,36.626c-15.697,5.2323-65.695,13.372-95.345,11.627-29.65-1.7441-52.904-4.651-75.578-16.278-22.68-11.626-47.1-22.672-48.26-28.486-1.16-5.813-.58-13.371-.58-13.371l-27.324,9.8833z"/><path d="m251.15-14.449c-1.163,.5814-6.976,2.9069-5.814,4.0696 1.163,1.1627 3.489,4.6509 10.465,4.0695 6.977-.5814 14.534-4.6509 14.534-4.6509s-8.72-4.0696-19.185-3.4882z"/></g><path d="m250.57-13.286v6.395s8.139,2.3254 8.139,.5814c0-1.7441 .581-5.8137-1.163-5.8137s-6.395-.5813-6.976-1.1627z"/></g><g fill="#001707" stroke="#000007"><path d="m331.95-8.4527c2.056-3.6998 0-8.6327 11.922-14.388 11.921-5.7553 32.681-4.1109 32.681-4.1109s-5.96,4.5219-6.166,9.2495c-.205,4.7275 .411,6.783 .411,6.783s-11.305-3.6998-19.938-1.4388c-8.633,2.2609-18.704,4.522-18.91,3.9053z"/><path d="m385.4-28.596c-1.233,.6167-10.277,10.688-9.25,13.772 1.028,3.0832 13.155,10.483 17.061,9.8662 3.905-.6166 21.787-9.2494 22.815-13.566 1.028-4.3164 1.85-10.072 .411-11.305-1.439-1.2333-30.832,1.6444-31.037,1.2332z"/><path d="m424.66-30.24c-2.261,2.261-1.439,13.155-.617,14.388 .822,1.2333 15.005,15.416 18.088,16.238 3.083,.8222 25.899-1.4388 27.749-3.9053s7.399-12.949 5.755-15.416c-1.645-2.4666-6.578-5.7553-21.788-9.044s-24.254-2.8776-29.187-2.261z"/><path d="m482.82-16.469c3.7,1.8499 25.282,12.333 38.026,20.76 12.743,8.4274 17.882,18.088 21.582,18.91 3.7,.8221 18.704-8.2218 19.321-10.688 .617-2.4666-18.293-15.621-31.037-21.582-12.744-5.9608-47.892-6.783-47.892-7.3996z"/><path d="m478.3-7.6305c-1.85,1.6444 23.021,45.014 27.748,46.453 4.728,1.4389 33.093-8.4273 32.682-11.716-.41-3.288-7.81-9.866-25.28-19.526-17.47-9.6608-31.65-16.033-35.15-15.21z"/><path d="m447.47,8.1964c-3.905,2.261-10.071,41.109-6.166,42.959 3.905,1.8499 52.003-4.7275 53.853-9.0439 1.849-4.3165-19.733-38.642-26.105-38.642-6.371,0-17.882,1.6444-21.582,4.7275z"/><path d="m397.73-.0254c-5.14,4.7276-4.11,40.903-1.85,43.164 2.261,2.261 30.831,9.6605 33.914,6.9885 3.084-2.6721 7.195-43.37 4.317-46.453-2.878-3.0832-10.894-10.483-17.06-11.099-6.167-.6166-16.444,5.9607-19.321,7.3996z"/><path d="m333.19-.642c-4.728,3.6998-4.933,13.36 .205,15.005 5.139,1.6443 17.882,7.1941 29.804,12.333 11.922,5.1386 18.705,11.305 22.199,11.099 3.494-.2056 6.783-36.381 3.083-38.437-3.7-2.0554-14.594-3.6998-24.871-3.2887-10.277,.4111-25.282,1.4388-30.42,3.2887z"/></g></g></g><g fill-opacity=".996" stroke-width="1.25" transform="matrix(1.024 0 0 1.024 -283.01 45.714)"><g fill="#d40f0f"><path d="m655.26,306.14c2.5282-2.4618 6.4611-8.4792 11.798-8.752 5.3373-.2741 10.956,4.6495 10.956,4.6495s5.6181,22.976 5.3373,22.976c-.2808,0-9.27,6.5644-9.551,6.5644-.2808,0-3.9327-9.0261-7.3036-8.2064-3.3709,.821-3.09,13.129-3.6519,12.309-.5618-.8211-14.888-17.779-14.326-18.326 .5618-.5469 7.0228-10.393 6.7418-11.214z"/><path d="m803.59,303.13c1.6851-.2728 9.2702-6.0174 14.607-5.7433 5.3382,.2728 8.4283,2.7346 11.237,5.1964 2.8085,2.4618 6.1801,8.752 6.1801,8.752s-6.7418,18.599-7.3035,18.599-3.3716,1.6421-3.9333,.2741-2.2468-5.7446-5.6184-6.2916c-3.3702-.5469-4.2135,6.0174-4.2135,6.0174l-10.955-26.804z"/></g><g fill="#fddc59"><path d="m807.24,308.88c0,1.6421 10.394,27.353 27.249,32.275 16.854,4.9236 22.192-4.6495 24.157-7.931 1.9666-3.2828 8.99-3.0087 8.99-3.0087s-1.6851,24.07-4.495,27.078c-2.8085,3.0087-5.0567,9.5731-20.787,9.8458-15.73,.2741-30.057-14.769-34.832-19.146-4.7765-4.3767-10.957-15.863-13.485-21.061-2.527-5.1964 13.484-17.504 13.203-18.052z"/><path d="m624.08,360.02c.281,0 7.5846,7.9323 18.259,7.1113 10.675-.8197 28.934-7.1113 37.361-18.052 8.4273-10.94 12.641-22.702 12.641-22.702s-12.36-21.881-12.641-21.881c-.2808,0-1.4045,7.1113-3.6518,11.761-2.2474,4.6495-8.4273,17.778-18.821,21.882-10.394,4.1026-10.394,5.7433-14.607,5.1964-4.2137-.5469-15.169-7.1113-15.169-7.3854 0-.2728-5.3373,12.856-5.3373,12.856s-1.1237,8.4792 1.9664,11.214z"/><path d="m655.07,305.38c-.7946,0-20.658,10.831-19.863,15.473 .7944,4.6415 34.165,70.399 105.67,71.172 71.507,.7745 115.21-59.569 112.03-69.626-3.1775-10.056-25.424-21.661-25.424-21.661s5.561,4.6415 4.767,10.831c-.7954,6.1891-25.426,59.569-87.399,58.023-61.974-1.5476-91.372-48.738-91.372-54.154 0-5.4146 3.1782-8.5098 1.5892-10.057z"/></g><g fill="#d40f0f"><path d="m848.81,353.19c1.6865-1.368 12.08-29.814 17.979-28.993 5.8999,.821 3.9333,9.2989 3.3716,11.488-.5617,2.1877-6.4616,21.881-6.4616,21.881s.2815-4.6495-3.6518-5.7433c-3.9319-1.0938-10.394,1.9149-11.237,1.368z"/><path d="m624.08,360.31c0-1.5463-4.7672-6.9622 .7944-8.5098 5.5618-1.5463 12.713,1.5476 12.713,1.5476s-3.9728-11.605-8.7399-20.888c-4.7672-9.283-6.3564-7.7354-10.329-6.1891-3.9726,1.5476-3.8762,5.6422-1.4925,11.831 2.3836,6.1891 7.0544,23.756 7.0544,22.208z"/></g></g><g transform="matrix(1.024 0 0 1.024 -283.01 45.714)"><g stroke-width="1.25"><path fill="#fdc400" d="m249.94,680.32 18-59.99-49.99-37.71 62.61-1.42 20.42-59.2 20.7,59.1 62.61,1.14-49.82,37.94 18.27,59.9-51.48-35.65z" transform="matrix(.38319 0 0 .38944 593.86 42.315)"/><path fill="#fff" d="m673.23,325.98-.001,256.89c.59,125.55-148.82,235.49-248.03,256.89-99.22-21.4-248.62-131.34-248.03-256.88v-256.89h496.06z" transform="matrix(.29981 0 0 .34989 617.15 71.606)"/></g><g fill-opacity=".996"><path fill="#d40f0f" stroke="#000" stroke-width="1.403" d="m177.16,325.98 .421,160.73s2.386-3.288 35.012-1.284c32.627,2.004 35.433,35.433 70.867,35.433 35.433,0 35.433-35.433 70.866-35.433s35.433,35.433 70.866,35.433 35.433-35.433 70.866-35.433 35.433,35.433 72.87,37.459c33.429-2.026 33.429-37.459 69.062-39.463l35.233,2.004v-159.45h-496.06z" transform="matrix(.29981 0 0 .34989 617.15 71.606)"/><g fill="#0062bb" stroke-width="1.25"><path d="m177.16,432.28v53.15h35.433c32.627,2.004 35.432,35.433 70.866,35.433 35.433,0 35.433-35.433 70.866-35.433s35.433,35.433 70.866,35.433 35.434-35.433 70.867-35.433 33.429,33.407 70.866,35.433c33.429-2.026 35.233-33.429 70.866-35.433h35.433v-53.15h-35.433c-35.433,0-35.433,35.433-70.866,35.434-35.433-.001-35.433-35.434-70.866-35.434s-35.433,35.433-70.867,35.433c-35.433,0-35.433-35.433-70.866-35.433s-35.433,35.433-70.866,35.433-35.433-35.433-70.866-35.433h-35.433z" transform="matrix(.29981 0 0 .34989 617.15 108.8)"/><path d="m187.85,432.28 24.745,53.15c32.627,2.004 35.432,35.433 70.866,35.433 35.433,0 35.433-35.433 70.866-35.433s35.433,35.433 70.866,35.433 35.434-35.433 70.867-35.433 33.429,33.407 70.866,35.433c33.429-2.026 34.411-33.429 70.044-35.433l25.567-53.972-24.745,.822c-35.433,0-35.433,35.433-70.866,35.434-35.433-.001-35.433-35.434-70.866-35.434s-35.433,35.433-70.867,35.433c-35.433,0-35.433-35.433-70.866-35.433s-35.433,35.433-70.866,35.433-35.433-35.433-70.866-35.433h-24.745z" transform="matrix(.29981 0 0 .34989 617.15 145.99)"/><path d="m425.2,520.87c35.434,0 116.62-53.15 115.79-53.15 .823,0-9.494-35.433-44.927-35.433s-35.433,35.433-70.867,35.433c-35.433,0-35.433-35.433-70.866-35.433s-44.477,35.433-44.556,35.433c-1.645,0 79.989,53.15 115.42,53.15z" transform="matrix(.29981 0 0 .34989 617.15 183.18)"/></g></g></g></g><g transform="matrix(1.50047 0 0 1.3054 287.14296 77.22658)"><g fill-rule="evenodd" fill-opacity=".996"><g fill="#fdc400" stroke="#000" stroke-width=".701"><path d="m90.849,117.57c.8221,0 8.2215,1.233 13.565,.822 5.344-.411 7.4-2.467 7.4-2.878v-1.233h6.988s1.233,5.755 .411,6.166-2.878,2.056-3.289,2.056 0-2.878-.822-2.056-1.233,2.056-1.233,2.056-.822-1.234-1.233-1.234-1.233,1.234-1.233,1.234 0-1.234-.412-1.234c-.411,0-2.466,2.056-2.466,2.056l-2.055-1.645s-1.234,2.056-1.645,2.056-2.877-1.644-2.877-1.644l-4.1111,2.466s0-3.7-.8222-3.289c-.8221,.411-5.344,.411-5.344,.411s-1.2332,2.467-1.6443,2.467-2.0554-2.055-1.6443-2.055 1.2332-1.234 .8221-1.645c-.411-.411-2.4664,0-2.4664-.411s-.8222-2.878-.4111-2.878 2.0554,.412 2.0554,.412v-2.467h2.0554l.4111,2.467z" transform="translate(-.13899 37.594)"/><path d="m98.248,94.136c-.4111,0-3.2886,3.2887-2.8776,6.9879 .4111,3.7 7.3996,9.044 7.3996,9.044s3.7-1.644 4.933,0 1.233,6.577 .822,6.577-5.344,1.234-5.344,.411c0-.822 0-1.644-.411-1.644s-4.9331,.411-4.9331,.411l.4111-1.644-4.1108-.822 1.6443-1.645s-6.5773-2.877-6.1662-2.877 2.8776-1.644 2.8776-1.644l-4.933-3.289h2.8776s-4.1108-3.289-3.6997-3.289c.411,0 2.4664,.411 2.4664,.411l-1.2332-3.2882h1.2332l-1.2332-2.4665 2.0554-.8221 1.2332,2.0553-.411-4.9329 2.8775,.4111v4.1108s1.2332-2.4665 1.2332-2.8776c0-.411 3.6998,1.6443 3.2887,.8222z" transform="translate(-.13899 37.594)"/></g><path d="m161.97,119.62c-.514,.514-2.056,1.644-2.056,1.644s3.495-.308 3.392-.308-1.233-1.028-1.336-1.336z" transform="translate(-.13899 37.594)"/><path d="m164.95,121.57c-.205,.308-.822,3.494-.411,3.288 .411-.205 2.055-2.569 2.055-2.569l-1.644-.719z" transform="translate(-.13899 37.594)"/><path d="m169.67,121.98c.513,.514 2.877,2.877 2.569,2.363-.308-.513-.617-2.672-.822-2.774-.206-.103-1.542,.616-1.747,.411z" transform="translate(-.13899 37.594)"/><path d="m128.26,118.59c-.308,.103-2.877,2.056-2.877,2.056s4.316-.823 4.11-.823c-.205,0-1.336-.924-1.233-1.233z" transform="translate(-.13899 37.594)"/><path d="m130.93,121.06c-.411,.411-1.747,3.288-1.233,3.186 .514-.103 2.775-1.953 2.775-1.953l-1.542-1.233z" transform="translate(-.13899 37.594)"/><path d="m129.28,117.05c-.308-.103-2.467-1.131-2.364-1.131s2.878-.719 2.878-.719l-.514,1.85z" transform="translate(-.13899 37.594)"/><path d="m88.588,115.72-3.0831-2.467 3.9053,1.233-.8222,1.234z" transform="translate(-.13899 37.594)"/><path d="m85.916,117.36c-.4111,0-4.3164,2.466-4.2136,2.466s5.4468,.103 5.344,0c-.1027-.102-.9249-2.26-1.1304-2.466z" transform="translate(-.13899 37.594)"/><path d="m88.382,120.96c-.4111,.206-3.4942,2.569-3.2887,2.569 .2056,0 4.6247,.103 4.6247,0s-1.2333-2.466-1.336-2.569z" transform="translate(-.13899 37.594)"/><path d="m87.971,95.366s-1.1305-2.8776-1.0277-2.8776c.1027,0 2.8775,2.261 2.8775,2.261l-1.8498,.6166z" transform="translate(-.13899 37.594)"/><path d="m91.054,91.769c0-.1027 .3083-1.8498 .3083-1.8498s2.7748,2.1581 2.672,2.1581c-.1027,0-2.7748,0-2.9803-.3083z" transform="translate(-.13899 37.594)"/><path d="m95.371,93.105c0-.1028 .3083-2.672 .3083-2.672s2.5693,3.4942 2.3638,3.597c-.2056,.1028-2.4665-.5138-2.6721-.925z" transform="translate(-.13899 37.594)"/><g fill="#fdc400" stroke="#000" stroke-width=".701"><path d="m137.26,110.86c0,.206 4.316,3.7 4.419,4.522 .102,.822-7.811,1.028-7.811,1.028s-2.261-1.747-2.98-1.645c-.72,.103-1.028,1.85-1.028,1.85l1.85,1.028-3.494,.205 1.028,1.953 2.672-.206-.617,1.85s1.644,1.234 1.953,1.028c.308-.205 1.336-2.055 2.158-2.364 .822-.308 2.569-.308 2.569-.308s-1.336,2.261-.719,2.261c.616,0 3.391-2.364 3.391-2.364s.617,2.158 .719,2.158c.103,0 2.056-2.466 2.056-2.466s0,1.953 .308,1.953 3.186-2.467 3.186-2.467 2.261,2.878 2.569,2.672c.309-.205 .617-3.083 .925-3.083s2.261-.308 2.261-.411-1.233-1.131-1.439-2.569c-.205-1.439 .206-4.83 .103-4.83s-13.874,.513-14.079,.205z" transform="translate(-.82217 37.82)"/><path d="m115.37,104.6h40.286c4.111,0 7.81-1.644 7.81-4.111 0-2.4659-6.577-2.877-9.043-2.0548-2.467,.8221-13.155,5.7548-17.677,5.3438s-8.632-3.289-9.043-6.166c-.412-2.8776 2.055-5.3441 6.577-5.3441s10.277,1.6444 11.51,1.2333 4.111-3.6997 5.344-4.1108c1.233-.411 4.933-.8221 4.933-.8221l-1.644,1.2332 5.344-1.2332s-4.111,4.5218-8.222,5.7551c-4.111,1.2332-12.743,.8221-16.032,.8221s-4.933-.411-4.522,2.0554c.411,2.4665 2.878,4.1111 4.933,3.6991 2.056-.411 8.222-2.4658 8.222-2.4658l-1.645-1.2333 7.4-.411s-.411-1.2333 0-1.2333 4.111,.4111 4.111,.4111-2.467-1.2333-2.056-1.2333 2.056,0 5.344,.4111c3.289,.4111 10.277,1.6443 9.866,4.9325-.411,3.289-2.877,6.166-5.755,6.166s-5.344-.822-5.344,.412c0,1.233 3.289,2.055 5.344,2.055s4.522-1.644 4.933-1.644 1.233,2.466 1.644,2.466 2.878-.822 2.878-.822l-1.644,4.522 2.877,.822s-1.644,1.644-1.233,1.644 2.877,0 2.877,.411-3.288,2.878-3.288,3.289 2.466,1.644 2.466,1.644-1.644,2.467-2.055,2.056-2.056-2.467-2.056-2.467-.411,1.645-1.233,1.645-2.466-.411-2.466-.411 1.233-2.467 .822-2.467-2.467,1.644-2.467,1.233l-1.232-1.236s3.288-1.336 3.288-3.289c0-1.952-1.336-3.905-7.296-4.213-5.961-.309-6.064,1.438-10.483,1.233-4.419-.206-4.419-1.953-7.708-1.953-3.288,0-13.463,4.111-18.19,4.008-4.727-.102-10.688-.411-10.483-.616 .206-.206 3.906-9.661 4.008-9.966z" transform="translate(-.82217 37.82)"/><path d="m106.88,102.46c-.411,.206-4.008,.72-4.214,4.522-.205,3.803 .309,3.803 .72,3.597 .411-.205 1.233-3.494 1.233-3.494s-1.233,4.522 .103,5.55c1.336,1.027 2.775,1.438 2.775,1.438l.513-3.597s-1.027,3.495 1.439,4.728c2.467,1.233 3.392,.308 3.186-.617-.205-.925-.925-3.288-.925-3.288s1.953,2.158 2.056,2.363c.102,.206 1.027,1.85 3.494,1.131 2.466-.72 .719-2.364 .719-2.364l-2.98-2.46s3.083,3.185 4.419,2.055-1.028-3.597-.925-3.494 1.953,3.494 2.672,1.336-1.13-2.775-1.747-4.83c-.617-2.056-1.131-2.261-.514-3.495 .617-1.233 .72-3.5965 .72-3.5965s2.569,.6165 2.363-1.5416c-.205-2.1582-2.775-2.672-3.288-2.7748-.514-.1027-.412-2.2609-.617-2.1582-.206,.1028-1.85,1.336-1.85,1.336s-1.439-3.3915-1.747-3.1859-1.953,1.9527-3.186,2.0555c-1.233,.1027-1.953,1.8499-1.953,1.8499s-4.316-2.0555-4.213,1.3359c.103,3.3915 2.569,2.5693 2.569,2.6721s-.411,4.7276-.822,4.9326z" transform="translate(-.13899 37.594)"/></g><path d="m109.25,96.386c.514-.1027 1.336-.7193 2.158-.5138s2.055,1.1305 1.336,1.4388c-.72,.3083-1.233,.411-1.953,.1027-.719-.3083-1.233-.8221-1.541-1.0277z" transform="matrix(.9901 -.14036 .14036 .9901 -12.577 54.751)"/><path d="m109.25,96.386c.514-.1027 1.336-.7193 2.158-.5138s2.055,1.1305 1.336,1.4388c-.72,.3083-1.233,.411-1.953,.1027-.719-.3083-1.233-.8221-1.541-1.0277z" transform="matrix(-.9901 -.14036 -.14036 .9901 239.2 54.648)"/><path fill="#000039" stroke="#000" stroke-width=".421" d="m110.99,103.17c.103,.514 .411,4.831 .616,4.522 .206-.308 1.748-4.419 1.645-4.419s-2.158,.103-2.261-.103z" transform="translate(-0 37.643)"/></g><g fill="none" stroke="#000"><path stroke-width=".842" d="m109.96,103.17c.049-1.215 .822-1.13 2.467-.925 1.644,.206 2.466,1.028 2.363,1.234-.102,.205-1.438,.719-2.569,.616-1.336-.411-2.298,.089-2.261-.925z" transform="translate(-0 37.789)"/><g stroke-width="1.403"><path d="m112.43,100.08-.206,1.953" transform="translate(-0 37.789)"/><path d="m119.32,94.844s1.336,.6167 1.131,1.2333c-.206,.6166-1.131,.925-1.131,.925" transform="translate(-0 37.789)"/><path d="m108.12,94.33c-.308,.1028-.719,.3084-.925,1.1305-.205,.8222 .925,1.336 .925,1.336" transform="translate(-0 37.789)"/><path d="m111.19,136.13s-1.454,1.454 1.017,1.454 .727-1.308 .727-1.308" transform="translate(.14534 .29065)"/></g></g></g><g fill-rule="evenodd" stroke-width="1.25" transform="matrix(1.024 0 0 1.024 -283.01 45.714)"><path fill="#fdc400" d="m249.94,680.32 18-59.99-49.99-37.71 62.61-1.42 20.42-59.2 20.7,59.1 62.61,1.14-49.82,37.94 18.27,59.9-51.48-35.65z" transform="matrix(.34772 0 0 .34286 640.98 116.4)"/><path fill="#003017" fill-opacity=".996" d="m249.94,680.32 18-59.99-49.99-37.71 62.61-1.42 20.42-59.2 20.7,59.1 62.61,1.14-49.82,37.94 18.27,59.9-51.48-35.65z" transform="matrix(.28976 0 0 .27236 658.43 158.85)"/><path fill="#fdc400" d="m249.94,680.32 18-59.99-49.99-37.71 62.61-1.42 20.42-59.2 20.7,59.1 62.61,1.14-49.82,37.94 18.27,59.9-51.48-35.65z" transform="matrix(.34397 0 0 .32423 606.09 87.419)"/><path fill="#003017" fill-opacity=".996" d="m249.94,680.32 18-59.99-49.99-37.71 62.61-1.42 20.42-59.2 20.7,59.1 62.61,1.14-49.82,37.94 18.27,59.9-51.48-35.65z" transform="matrix(.28664 0 0 .25756 623.36 127.56)"/><path fill="#fdc400" d="m249.94,680.32 18-59.99-49.99-37.71 62.61-1.42 20.42-59.2 20.7,59.1 62.61,1.14-49.82,37.94 18.27,59.9-51.48-35.65z" transform="matrix(.3484 0 0 .32423 677.16 87.419)"/><path fill="#003017" fill-opacity=".996" d="m249.94,680.32 18-59.99-49.99-37.71 62.61-1.42 20.42-59.2 20.7,59.1 62.61,1.14-49.82,37.94 18.27,59.9-51.48-35.65z" transform="matrix(.29033 0 0 .25756 694.65 127.56)"/></g><g transform="matrix(1.024 0 0 1.024 -283.01 45.714)"><path fill="none" d="m640.9,319.18c7.8383,33.733 40.92,58.77 85.477,64.69 57.231,7.6042 111.83-21.392 121.87-64.724"/><path d="m644.94,331.5 10.359-5.2672 .9748,1.917-4.0628,2.0658 1.3442,2.6435 4.0628-2.0658 .9748,1.917-10.359,5.2672-.9748-1.917 4.695-2.3873-1.3442-2.6435-4.695,2.3873-.9748-1.917m4.3364,8.1568 9.6712-6.4431 3.3094,4.9675-1.6077,1.071-2.117-3.1777-2.2357,1.4894 1.9706,2.9579-1.5323,1.0208-1.9706-2.9579-2.6627,1.7739 2.1672,3.253-1.6328,1.0878-3.3596-5.0428m6.739,9.3562 8.5313-7.8906 1.4603,1.5788-3.346,3.0948 2.0136,2.1772 3.346-3.0948 1.4603,1.5788-8.5313,7.8906-1.4603-1.5788 3.8668-3.5764-2.0136-2.1772-3.8668,3.5764-1.4603-1.5788m11.141,4.6726 1.3843,1.214 2.5163-4.277-3.9006,3.063m-5.4123,1.4564 9.6308-7.0107 2.1843,1.9155-5.6764,10.479-1.7531-1.5374 1.4943-2.5738-1.8722-1.6419-2.3453,1.8275-1.6623-1.4578m8.4034,7.0262 5.739-7.8253-2.0081-1.4727 1.1335-1.5456 5.7625,4.2262-1.1335,1.5456-2.0081-1.4727-5.739,7.8253-1.7464-1.2808m4.713,3.3909 6.0539-9.9194 1.8357,1.1204-2.3744,3.8905 2.5314,1.5449 2.3744-3.8905 1.8357,1.1204-6.0539,9.9194-1.8357-1.1204 2.7439-4.496-2.5314-1.5449-2.7439,4.496-1.8357-1.1204m11.38,6.481 4.8847-10.544 5.5119,2.5534-.7993,1.7254-3.5468-1.643-1.1546,2.4923 3.3482,1.551-.7803,1.6844-3.3482-1.551-2.1505,4.6423-1.9651-.9103m10.779-1.6014c-.6784,1.7873-1.0024,2.953-.9722,3.4972 .0367,.5413 .3373,.919 .9017,1.1332 .555,.2106 1.0193,.1286 1.3929-.2462 .3801-.3777 .9129-1.4695 1.5984-3.2756s1.0122-2.9788 .9802-3.5183c-.032-.5395-.3279-.9154-.8875-1.1279-.5597-.2124-1.0305-.1275-1.4124,.2549-.3819,.3824-.9156,1.4766-1.6011,3.2827m-2.0671-.7846c.4374-1.1523 .8405-2.0513 1.2093-2.6969 .3706-.6503 .7372-1.1058 1.0997-1.3663 .5026-.3742 1.0127-.5842 1.5304-.6298 .5177-.0456 1.134,.0672 1.849,.3386 .7149,.2714 1.2509,.5959 1.608,.9735 .3571,.3777 .6018,.8741 .7342,1.4894 .0948,.4449 .0636,1.0304-.0936,1.7563-.1525,.7278-.4465,1.6654-.8821,2.813-.4338,1.1429-.836,2.0395-1.2066,2.6898-.3688,.6456-.7339,1.1043-1.0954,1.3761-.5073,.3725-1.0198,.5815-1.5375,.6271-.5177,.0456-1.1341-.0672-1.849-.3386-.7149-.2713-1.2509-.5958-1.608-.9735-.3571-.3777-.5995-.8732-.7271-1.4867-.0984-.4355-.0713-1.0172 .0811-1.7449 .1542-.7324 .45-1.6748 .8874-2.8271m9.9954-2.4684 2.0756,.6181-2.2353,7.507c-.2555,.8582-.3256,1.4725-.2102,1.8428 .1217,.3669 .4501,.6301 .9853,.7894 .5304,.1579 .9427,.1128 1.2371-.1355 .2992-.2468 .5787-.8066 .8386-1.6793l2.2267-7.4781 2.0467,.6094-2.2892,7.6879c-.2225,.7473-.4289,1.2816-.619,1.603-.1839,.3179-.4135,.5776-.6887,.7791-.4152,.3015-.8982,.4779-1.4488,.5292-.5492,.0464-1.1613-.0309-1.8363-.2319-1.2729-.379-2.0902-.9216-2.4521-1.6277-.3556-.7095-.3288-1.7513 .0803-3.1255l2.2892-7.6879m5.5582,13.703 2.5377-11.34 2.1724,.4861 1.1782,8.5917 1.7159-7.9441 1.9956,.4466-2.5377,11.34-2.1576-.4828-1.197-8.6114-1.7192,7.9588-1.9883-.4449m11.36,.578 .9468,.1483c.4821,.0755 .8255,.0936 1.0302,.0544 .2047-.0392 .3775-.1344 .5183-.2855 .2455-.2671 .451-.6524 .6164-1.1561 .1662-.5086 .3388-1.3345 .5179-2.4776 .1744-1.1133 .2515-1.9312 .2315-2.4537-.02-.5225-.1291-.9317-.3271-1.2275-.104-.1487-.2515-.2634-.4426-.3443-.1853-.085-.4867-.1602-.9041-.2256l-.917-.1436-1.2703,8.1112m-2.3599,1.3642 1.798-11.481 3.4368,.5382c.7008,.1098 1.2481,.2566 1.6419,.4405 .3988,.1847 .7114,.4322 .9378,.7426 .3411,.4557 .5465,.9971 .6164,1.6241 .0756,.6229 .0145,1.5655-.1832,2.8279-.2553,1.6302-.4931,2.7743-.7132,3.4323-.2194,.6531-.5027,1.1943-.85,1.6236-.3374,.4309-.7569,.7038-1.2586,.8187-.496,.1107-1.323,.0754-2.481-.1059l-2.9448-.4612m8.9886,1.33 1.1172-11.567 5.9413,.5738-.1857,1.9228-3.8006-.3671-.2583,2.674 3.5377,.3417-.177,1.8327-3.5377-.3417-.3076,3.1847 3.8907,.3758-.1886,1.9529-6.0314-.5825m9.8168-.9363 .9577,.0345c.4877,.0176 .8308-.005 1.0294-.0687 .1986-.0633 .3588-.1784 .4806-.3451 .212-.2944 .3701-.7015 .4744-1.2213 .1045-.5248 .1775-1.3654 .2192-2.5217 .0406-1.1261 .0198-1.9474-.0623-2.4638-.0821-.5164-.2391-.9097-.471-1.1798-.121-.1352-.2811-.2316-.4804-.2891-.1941-.0623-.5023-.1011-.9246-.1164l-.9276-.0334-.2954,8.2048m-2.1807,1.6355 .4182-11.613 3.4765,.1252c.7089,.0255 1.2698,.1061 1.6827,.2418 .418,.1359 .7578,.3444 1.0195,.6257 .3929,.4118 .6614,.9249 .8054,1.5392 .1492,.6094 .2008,1.5527 .1548,2.8296-.0594,1.649-.1592,2.8133-.2994,3.4928-.1401,.6745-.357,1.2456-.6507,1.7133-.2837,.468-.6677,.7889-1.1522,.9628-.4793,.169-1.3046,.2324-2.476,.1902l-2.9788-.1073m12.945,.1519-.4613-11.612 2.164-.086 .4613,11.612-2.164,.086m5.7797-.3059-.7941-9.6717-2.4818,.2038-.1568-1.9103 7.1221-.5848 .1568,1.9103-2.4818,.2038 .7941,9.6717-2.1584,.1772m7.624-12.46 2.1337-.3709 1.3414,7.7171c.1534,.8822 .3641,1.4634 .6324,1.7436 .2723,.2744 .6836,.3637 1.2338,.2681 .5452-.0948 .8943-.3188 1.0474-.6722 .158-.3542 .159-.9799 .003-1.877l-1.3362-7.6873 2.104-.3657 1.3737,7.9029c.1335,.7682 .1867,1.3385 .1595,1.7109-.0231,.3666-.113,.7013-.2697,1.0043-.2375,.4549-.5914,.8279-1.0616,1.119-.4711,.2861-1.0536,.4895-1.7475,.6101-1.3085,.2274-2.282,.1056-2.9204-.3655-.6344-.4769-1.0743-1.4217-1.3199-2.8343l-1.3737-7.9029m11.562,2.9468 .8798-.2143c.655-.1595 1.0835-.3985 1.2855-.717 .2008-.3233 .2257-.7954 .0745-1.4161-.1524-.6256-.3799-1.0284-.6827-1.2084-.299-.186-.7882-.1963-1.4676-.0309l-.9091,.2214 .8196,3.3653m-.4845,6.8439-2.75-11.291 3.6512-.8893c1.1144-.2714 1.9767-.2174 2.5869,.1621 .6102,.3795 1.0534,1.1363 1.3296,2.2702 .2714,1.1144 .2123,2.009-.1774,2.6838-.386,.6687-1.1142,1.1335-2.1846,1.3942l-1.5323,.3732 1.1661,4.7876-2.0895,.5089m8.2989-8.1816c.5779,1.8222 1.0477,2.9372 1.4093,3.345 .3648,.4015 .835,.511 1.4104,.3285 .5658-.1795 .8789-.5321 .939-1.0578 .0635-.5321-.1968-1.7188-.7808-3.5602s-1.0561-2.9636-1.4161-3.3666c-.36-.403-.8254-.514-1.396-.333-.5706,.181-.8869,.5399-.9489,1.0768-.062,.5369 .1991,1.726 .7831,3.5674m-2.1075,.6684c-.3726-1.1748-.6148-2.1298-.7266-2.8649-.1133-.7399-.1087-1.3245 .0137-1.7539 .1616-.6054 .4312-1.0867 .8087-1.444 .3775-.3572 .9307-.6514 1.6596-.8826 .7289-.2312 1.3505-.3096 1.8649-.2353 .5144,.0744 1.0145,.3116 1.5003,.7116 .3506,.2899 .6896,.7682 1.0172,1.4348 .3323,.6651 .6841,1.5827 1.0552,2.7528 .3696,1.1653 .611,2.1178 .7243,2.8577 .1118,.7351 .1104,1.3214-.004,1.7588-.1664,.6069-.4383,1.089-.8159,1.4462-.3775,.3572-.9307,.6514-1.6596,.8826-.7289,.2312-1.3505,.3096-1.8649,.2353-.5144-.0743-1.0121-.3123-1.4931-.7139-.3475-.2803-.6875-.753-1.0198-1.4182-.3339-.6699-.6871-1.5923-1.0597-2.7672m10.622,2.6563-4.3239-10.787 2.0662-.8283 5.8326,6.4177-3.0799-7.5211 1.8982-.7609 4.3239,10.787-2.0522,.8227-5.8592-6.4233 3.0856,7.5351-1.8911,.7581m13.459-5.95-4.5338-8.58-2.2017,1.1634-.8955-1.6946 6.3182-3.3386 .8955,1.6947-2.2017,1.1634 4.5338,8.58-1.9148,1.0118m5.1156-2.7449-6.2055-9.8254 1.8183-1.1484 2.4338,3.8536 2.5074-1.5836-2.4338-3.8536 1.8183-1.1484 6.2055,9.8254-1.8183,1.1484-2.8126-4.4533-2.5074,1.5836 2.8126,4.4533-1.8183,1.1484m7.7517-5.0247-7.0036-9.2733 4.7631-3.5973 1.1642,1.5415-3.047,2.3012 1.619,2.1437 2.8362-2.142 1.1097,1.4693-2.8362,2.142 1.9283,2.5532 3.1192-2.3558 1.1824,1.5656-4.8354,3.6519m5.978-9.9715 1.5448-1.5179 .5236,.5329c.5007,.5095 .9055,.7959 1.2144,.8591 .309,.0561 .6196-.0693 .9318-.376 .3265-.3209 .493-.6467 .4995-.9775 .01-.3343-.1436-.6629-.4609-.9859-.2433-.2476-.5105-.4011-.8017-.4606-.2947-.0631-.7769-.0406-1.4467,.0674l-1.3413,.2177c-1.1472,.1963-1.9657,.2318-2.4555,.1066-.4862-.1288-.9585-.4264-1.4169-.8929-.684-.6961-1.0136-1.4443-.9888-2.2445 .0248-.8002 .3996-1.5564 1.1244-2.2686 .7679-.7545 1.5626-1.1229 2.3842-1.105s1.6185,.4197 2.3907,1.2056c.0776,.0789 .1357,.1417 .1744,.1883 .0423,.0431 .0775,.0825 .1057,.1183l-1.464,1.4386-.2169-.2207c-.4407-.4485-.8299-.6974-1.1674-.7466-.3375-.0492-.6749,.0919-1.0122,.4234-.2476,.2433-.3709,.509-.3698,.7972 .001,.281 .1286,.5507 .3824,.8091 .342,.3481 1.0386,.4218 2.0898,.2211 .0107-.003 .0196-.005 .0267-.005l1.4163-.2597c1.0013-.194 1.7859-.2174 2.3538-.0701 .5644,.1437 1.118,.4918 1.661,1.0444 .7404,.7535 1.0964,1.5464 1.0677,2.3786-.0286,.8322-.443,1.6414-1.2432,2.4277-.8325,.818-1.6648,1.2127-2.497,1.1841-.8286-.0322-1.6766-.4896-2.544-1.3723-.0917-.0933-.2361-.2546-.4333-.484l-.0317-.0323m8.9927-3.2638-8.9072-7.4638 3.8337-4.575 1.4807,1.2407-2.4524,2.9266 2.0591,1.7254 2.2827-2.7242 1.4113,1.1826-2.2828,2.7242 2.4524,2.055 2.5105-2.996 1.5038,1.2601-3.8918,4.6444m2.2617-10.404 1.0287-1.5271-4.5615-1.9537 3.5328,3.4808m2.1308,5.184-8.1751-8.6643 1.6231-2.4095 11.114,4.3021-1.3027,1.9339-2.7424-1.1559-1.3913,2.0653 2.11,2.0947-1.2353,1.8337m1.3794-9.4497 .9892-1.9266 .6646,.3412c.6355,.3263 1.1098,.4709 1.4229,.4337 .311-.0439 .5664-.2606 .7663-.6499 .2091-.4072 .2647-.7689 .1669-1.0849-.0956-.3205-.3447-.5842-.7475-.791-.3088-.1585-.6108-.2203-.9059-.1852-.2996,.0328-.7503,.2057-1.3521,.5188l-1.2048,.6283c-1.0273,.547-1.7932,.838-2.2975,.8731-.5021,.0306-1.044-.1034-1.6258-.4021-.8682-.4458-1.4163-1.0524-1.6443-1.8198-.228-.7674-.11-1.6031 .3542-2.5071 .4917-.9577 1.1304-1.5572 1.9159-1.7986 .7856-.2413 1.6684-.1104 2.6484,.3928 .0985,.0506 .1734,.0919 .2248,.1239 .0537,.0276 .0995,.0539 .1375,.0791l-.9375,1.8259-.2752-.1413c-.5594-.2872-1.007-.4011-1.3429-.3417-.3359,.0594-.6118,.2994-.8278,.7201-.1585,.3088-.192,.5998-.1005,.873 .0894,.2665 .2952,.4824 .6174,.6478 .4341,.2229 1.1186,.0739 2.0534-.4471 .009-.007 .017-.0111 .0238-.0132l1.2629-.6918c.8896-.4989 1.627-.7678 2.2124-.8065 .5809-.041 1.216,.1154 1.9052,.4693 .9398,.4826 1.5269,1.1233 1.7614,1.9223 .2344,.799 .0955,1.6975-.417,2.6954-.5331,1.0383-1.1991,1.6746-1.9981,1.909-.7967,.23-1.7455,.0623-2.8464-.5029-.1164-.0597-.3042-.1675-.5635-.3233l-.0403-.0207" transform="matrix(1.0376 0 0 1.1529 -28.43 -57.787)"/></g></svg>