<svg xmlns="http://www.w3.org/2000/svg" viewBox="0 0 640 480" xmlns:xlink="http://www.w3.org/1999/xlink"><defs><clipPath id="clipPath4748" clipPathUnits="userSpaceOnUse"><path fill-opacity=".67" d="m0,0h640v480h-640z"/></clipPath></defs><g clip-path="url(#clipPath4748)"><g><g><g><g><g><g><g><g><g><g><g><g fill-rule="evenodd" stroke-width="1.25" transform="matrix(.96831 0 0 .96831 0 -.34305)"><path fill="#e4104d" d="M 0,248.03 H744.09 V496.06 H0 z"/><path fill="#8a85ff" d="m0,.3543h744.09v247.6797h-744.09z"/></g></g></g></g></g></g></g></g></g></g></g></g><g fill-rule="evenodd" transform="matrix(1.6953 0 0 1.6953 -124.21 288.5)"><g transform="matrix(.3339 0 0 .3551 103.07 -209.73)"><path fill="#f3ef7d" d="m175.25,443.36 145.49-.447s53.728-52.248 25.283-86.48c-28.444-34.232-139.96-1.082-140.41-1.082-.451,0-.903-18.376-28.444-18.737-27.541,.361-27.992,18.737-28.443,18.737-.452,0-111.97-33.15-140.41,1.082-28.444,34.232 25.284,86.48 25.284,86.48l141.66,.447z" transform="matrix(1 0 0 1.1618 -.00004 -125.32)"/><path d="m175.25,443.36 145.49-.447s53.728-52.248 25.283-86.48c-28.444-34.232-139.96-1.082-140.41-1.082-.451,0-.903-18.376-28.444-18.737-27.541,.361-27.992,18.737-28.443,18.737-.452,0-111.97-33.15-140.41,1.082-28.444,34.232 25.284,86.48 25.284,86.48l141.66,.447z" transform="matrix(.96 0 0 1.1286 7.0866 -110.61)"/></g><g stroke-width="1.25"><g fill="#f3ef7d"><g transform="matrix(-1 0 0 1 455.54 -20.882)"><path d="m239.71-79.738h.553v6.6302h-.553z"/><path d="m241.72-83.336h.553v13.634h-.553z"/><path d="m243.64-85.201h.649v17.935h-.649z"/><path d="m246.1-86.512h.703v21.451h-.703z"/><path d="m248.89-87.28h.703v24.041h-.703z"/><path d="m251.74-88.211h.697v26.196h-.697z"/><path d="m254.16-88.414h.703v27.301h-.703z"/><path d="m256.59-88.414h.703v28.069h-.703z"/><path d="m259.63-88.354h.649v29.277h-.649z"/><path d="m262.48-88.072h.799v29.293h-.799z"/><path d="m265.6-87.353h.799v28.861h-.799z"/><path d="m268.65-86.233h.751v27.946h-.751z"/><path d="m271.84-84.952h.703v26.46h-.703z"/><path d="m274.48-84.089h.703v24.686h-.703z"/><path d="m277.29-82.42h.601v22.263h-.601z"/><path d="m279.75-80.26h.505v19.025h-.505z"/><path d="m281.96-78.149h.601v15.475h-.601z"/><path d="m284.12-74.915h.54v9.8789h-.54z"/></g><g transform="translate(-131.37 -21.545)"><path d="m239.71-79.738h.553v6.6302h-.553z"/><path d="m241.72-83.336h.553v13.634h-.553z"/><path d="m243.64-85.201h.649v17.935h-.649z"/><path d="m246.1-86.512h.703v21.451h-.703z"/><path d="m248.89-87.28h.703v24.041h-.703z"/><path d="m251.74-88.211h.697v26.196h-.697z"/><path d="m254.16-88.414h.703v27.301h-.703z"/><path d="m256.59-88.414h.703v28.069h-.703z"/><path d="m259.63-88.354h.649v29.277h-.649z"/><path d="m262.48-88.072h.799v29.293h-.799z"/><path d="m265.6-87.353h.799v28.861h-.799z"/><path d="m268.65-86.233h.751v27.946h-.751z"/><path d="m271.84-84.952h.703v26.46h-.703z"/><path d="m274.48-84.089h.703v24.686h-.703z"/><path d="m277.29-82.42h.601v22.263h-.601z"/><path d="m279.75-80.26h.505v19.025h-.505z"/><path d="m281.96-78.149h.601v15.475h-.601z"/><path d="m284.12-74.915h.54v9.8789h-.54z"/></g><path d="m205.64,168.03-.833-12.489c0-2.498-18.317-16.652-18.316-52.452 0-35.8 15.818-49.954 24.144-49.954s26.642,11.656 27.475,49.121c.832,37.466-18.317,51.62-18.317,51.62l-1.665,14.986s13.321,.832 14.154,.832c.832,0 18.316-14.986 63.275-13.321s47.456,19.982 48.289,25.81c.832,5.828-6.661,23.311-51.619,23.311-44.959,0-58.28-20.813-59.113-20.813-.832,0-14.153-.833-14.153-.833v10.823s17.483,13.321 16.651,57.447c-.833,44.126-18.317,46.624-23.312,46.624-6.66,0-20.814-2.497-21.647-45.791 1.666-44.126 13.322-56.615 13.322-57.447v-10.823h-12.489s-13.321,10.823-59.112,11.656c-45.791,.832-48.289-12.489-49.122-19.982-.8326-7.493 8.3257-20.814 48.288-21.647 39.963-.832 59.112,13.321 59.112,13.321l14.987,.001z" transform="matrix(.07692 0 0 .0803 145.58 -144.87)"/><g transform="matrix(.3339 0 0 .3551 86.116 -150.31)"><path d="m194.818,105.59a5.828,5.828 0 0,1 5.828,5.828 5.828,5.828 0 0,1 -5.828,5.828 5.828,5.828 0 0,1 -5.828-5.828 5.828,5.828 0 0,1 5.828-5.828"/><path d="m183.048,103.23a5.828,5.828 0 0,1 5.828,5.828 5.828,5.828 0 0,1 -5.828,5.828 5.828,5.828 0 0,1 -5.828-5.828 5.828,5.828 0 0,1 5.828-5.828"/><path d="m170.688,99.703a5.828,5.828 0 0,1 5.828,5.828 5.828,5.828 0 0,1 -5.828,5.828 5.828,5.828 0 0,1 -5.828-5.828 5.828,5.828 0 0,1 5.828-5.828"/><path d="m158.318,96.759a5.828,5.828 0 0,1 5.828,5.828 5.828,5.828 0 0,1 -5.828,5.828 5.828,5.828 0 0,1 -5.828-5.828 5.828,5.828 0 0,1 5.828-5.828"/><path d="m145.368,94.404a5.828,5.828 0 0,1 5.828,5.828 5.828,5.828 0 0,1 -5.828,5.828 5.828,5.828 0 0,1 -5.828-5.828 5.828,5.828 0 0,1 5.828-5.828"/><path d="m132.418,92.638a5.828,5.828 0 0,1 5.828,5.828 5.828,5.828 0 0,1 -5.828,5.828 5.828,5.828 0 0,1 -5.828-5.828 5.828,5.828 0 0,1 5.828-5.828"/><path d="m120.058,91.461a5.828,5.828 0 0,1 5.828,5.828 5.828,5.828 0 0,1 -5.828,5.828 5.828,5.828 0 0,1 -5.828-5.828 5.828,5.828 0 0,1 5.828-5.828"/><path d="m107.098,90.872a5.828,5.828 0 0,1 5.828,5.828 5.828,5.828 0 0,1 -5.828,5.828 5.828,5.828 0 0,1 -5.828-5.828 5.828,5.828 0 0,1 5.828-5.828"/><path d="m94.739,92.638a5.828,5.828 0 0,1 5.828,5.828 5.828,5.828 0 0,1 -5.828,5.828 5.828,5.828 0 0,1 -5.828-5.828 5.828,5.828 0 0,1 5.828-5.828"/><path d="m81.788,94.404a5.828,5.828 0 0,1 5.828,5.828 5.828,5.828 0 0,1 -5.828,5.828 5.828,5.828 0 0,1 -5.828-5.828 5.828,5.828 0 0,1 5.828-5.828"/><path d="m70.013,98.525a5.828,5.828 0 0,1 5.828,5.828 5.828,5.828 0 0,1 -5.828,5.828 5.828,5.828 0 0,1 -5.828-5.828 5.828,5.828 0 0,1 5.828-5.828"/><path d="m58.828,106.18a5.828,5.828 0 0,1 5.828,5.828 5.828,5.828 0 0,1 -5.828,5.828 5.828,5.828 0 0,1 -5.828-5.828 5.828,5.828 0 0,1 5.828-5.828"/><path d="m51.174,116.78a5.828,5.828 0 0,1 5.828,5.828 5.828,5.828 0 0,1 -5.828,5.828 5.828,5.828 0 0,1 -5.828-5.828 5.828,5.828 0 0,1 5.828-5.828"/><path d="m46.465,127.96a5.828,5.828 0 0,1 5.828,5.828 5.828,5.828 0 0,1 -5.828,5.828 5.828,5.828 0 0,1 -5.828-5.828 5.828,5.828 0 0,1 5.828-5.828"/><path d="m44.699,140.32a5.828,5.828 0 0,1 5.828,5.828 5.828,5.828 0 0,1 -5.828,5.828 5.828,5.828 0 0,1 -5.828-5.828 5.828,5.828 0 0,1 5.828-5.828"/><path d="m45.287,153.28a5.828,5.828 0 0,1 5.828,5.828 5.828,5.828 0 0,1 -5.828,5.828 5.828,5.828 0 0,1 -5.828-5.828 5.828,5.828 0 0,1 5.828-5.828"/><path d="m48.231,165.64a5.828,5.828 0 0,1 5.828,5.828 5.828,5.828 0 0,1 -5.828,5.828 5.828,5.828 0 0,1 -5.828-5.828 5.828,5.828 0 0,1 5.828-5.828"/><path d="m52.941,178a5.828,5.828 0 0,1 5.828,5.828 5.828,5.828 0 0,1 -5.828,5.828 5.828,5.828 0 0,1 -5.828-5.828 5.828,5.828 0 0,1 5.828-5.828"/><path d="m58.239,188.6a5.828,5.828 0 0,1 5.828,5.828 5.828,5.828 0 0,1 -5.828,5.828 5.828,5.828 0 0,1 -5.828-5.828 5.828,5.828 0 0,1 5.828-5.828"/></g><g transform="matrix(-.3339 0 0 .3551 238.43 -150.31)"><path d="m194.818,105.59a5.828,5.828 0 0,1 5.828,5.828 5.828,5.828 0 0,1 -5.828,5.828 5.828,5.828 0 0,1 -5.828-5.828 5.828,5.828 0 0,1 5.828-5.828"/><path d="m183.048,103.23a5.828,5.828 0 0,1 5.828,5.828 5.828,5.828 0 0,1 -5.828,5.828 5.828,5.828 0 0,1 -5.828-5.828 5.828,5.828 0 0,1 5.828-5.828"/><path d="m170.688,99.703a5.828,5.828 0 0,1 5.828,5.828 5.828,5.828 0 0,1 -5.828,5.828 5.828,5.828 0 0,1 -5.828-5.828 5.828,5.828 0 0,1 5.828-5.828"/><path d="m158.318,96.759a5.828,5.828 0 0,1 5.828,5.828 5.828,5.828 0 0,1 -5.828,5.828 5.828,5.828 0 0,1 -5.828-5.828 5.828,5.828 0 0,1 5.828-5.828"/><path d="m145.368,94.404a5.828,5.828 0 0,1 5.828,5.828 5.828,5.828 0 0,1 -5.828,5.828 5.828,5.828 0 0,1 -5.828-5.828 5.828,5.828 0 0,1 5.828-5.828"/><path d="m132.418,92.638a5.828,5.828 0 0,1 5.828,5.828 5.828,5.828 0 0,1 -5.828,5.828 5.828,5.828 0 0,1 -5.828-5.828 5.828,5.828 0 0,1 5.828-5.828"/><path d="m120.058,91.461a5.828,5.828 0 0,1 5.828,5.828 5.828,5.828 0 0,1 -5.828,5.828 5.828,5.828 0 0,1 -5.828-5.828 5.828,5.828 0 0,1 5.828-5.828"/><path d="m107.098,90.872a5.828,5.828 0 0,1 5.828,5.828 5.828,5.828 0 0,1 -5.828,5.828 5.828,5.828 0 0,1 -5.828-5.828 5.828,5.828 0 0,1 5.828-5.828"/><path d="m94.739,92.638a5.828,5.828 0 0,1 5.828,5.828 5.828,5.828 0 0,1 -5.828,5.828 5.828,5.828 0 0,1 -5.828-5.828 5.828,5.828 0 0,1 5.828-5.828"/><path d="m81.788,94.404a5.828,5.828 0 0,1 5.828,5.828 5.828,5.828 0 0,1 -5.828,5.828 5.828,5.828 0 0,1 -5.828-5.828 5.828,5.828 0 0,1 5.828-5.828"/><path d="m70.013,98.525a5.828,5.828 0 0,1 5.828,5.828 5.828,5.828 0 0,1 -5.828,5.828 5.828,5.828 0 0,1 -5.828-5.828 5.828,5.828 0 0,1 5.828-5.828"/><path d="m58.828,106.18a5.828,5.828 0 0,1 5.828,5.828 5.828,5.828 0 0,1 -5.828,5.828 5.828,5.828 0 0,1 -5.828-5.828 5.828,5.828 0 0,1 5.828-5.828"/><path d="m51.174,116.78a5.828,5.828 0 0,1 5.828,5.828 5.828,5.828 0 0,1 -5.828,5.828 5.828,5.828 0 0,1 -5.828-5.828 5.828,5.828 0 0,1 5.828-5.828"/><path d="m46.465,127.96a5.828,5.828 0 0,1 5.828,5.828 5.828,5.828 0 0,1 -5.828,5.828 5.828,5.828 0 0,1 -5.828-5.828 5.828,5.828 0 0,1 5.828-5.828"/><path d="m44.699,140.32a5.828,5.828 0 0,1 5.828,5.828 5.828,5.828 0 0,1 -5.828,5.828 5.828,5.828 0 0,1 -5.828-5.828 5.828,5.828 0 0,1 5.828-5.828"/><path d="m45.287,153.28a5.828,5.828 0 0,1 5.828,5.828 5.828,5.828 0 0,1 -5.828,5.828 5.828,5.828 0 0,1 -5.828-5.828 5.828,5.828 0 0,1 5.828-5.828"/><path d="m48.231,165.64a5.828,5.828 0 0,1 5.828,5.828 5.828,5.828 0 0,1 -5.828,5.828 5.828,5.828 0 0,1 -5.828-5.828 5.828,5.828 0 0,1 5.828-5.828"/><path d="m52.941,178a5.828,5.828 0 0,1 5.828,5.828 5.828,5.828 0 0,1 -5.828,5.828 5.828,5.828 0 0,1 -5.828-5.828 5.828,5.828 0 0,1 5.828-5.828"/><path d="m58.239,188.6a5.828,5.828 0 0,1 5.828,5.828 5.828,5.828 0 0,1 -5.828,5.828 5.828,5.828 0 0,1 -5.828-5.828 5.828,5.828 0 0,1 5.828-5.828"/></g></g><g><path fill="#f3ef7d" d="m318.9,338.4-24.17,56.927s-39.963-13.321-114.89-13.321c-74.931,0-109.07,11.655-109.07,11.655l-35.153-55.94c31.27-4.635 40.802,16.61 40.802,16.61s2.1286-24.81 26.689-29.213c20.747-2.866 39.079,18.591 39.079,18.591s4.321-24.147 34.979-24.81c30.659,.663 34.98,24.81 34.98,24.81s18.332-21.456 39.079-18.59c24.56,4.402 26.688,29.213 26.688,29.213s9.532-21.246 40.986-15.935z" transform="matrix(.45941 0 0 .57623 80.534 -274.38)"/><path d="m151.529,162.27h.002a51.429,8.1303 0 0,1 51.429,8.13v.001a51.429,8.1303 0 0,1 -51.429,8.13h-.002a51.429,8.1303 0 0,1 -51.429-8.13v-.001a51.429,8.1303 0 0,1 51.429-8.13" transform="translate(13.258 -218.32)"/><g transform="matrix(.3339 0 0 .3551 86.116 -150.31)"><path d="m231.894,175.06a3.4339,4.6505 0 0,1 3.434,4.65v.001a3.4339,4.6505 0 0,1 -3.434,4.65 3.4339,4.6505 0 0,1 -3.434-4.65v-.001a3.4339,4.6505 0 0,1 3.434-4.65"/><path d="m241.254,177.41a3.4339,4.6505 0 0,1 3.434,4.65v.001a3.4339,4.6505 0 0,1 -3.434,4.65 3.4339,4.6505 0 0,1 -3.434-4.65v-.001a3.4339,4.6505 0 0,1 3.434-4.65"/><path d="m223.304,175.06a3.4339,4.6505 0 0,1 3.434,4.65v.001a3.4339,4.6505 0 0,1 -3.434,4.65 3.4339,4.6505 0 0,1 -3.434-4.65v-.001a3.4339,4.6505 0 0,1 3.434-4.65"/><path d="m206.914,182.12a3.4339,4.6505 0 0,1 3.434,4.65v.001a3.4339,4.6505 0 0,1 -3.434,4.65 3.4339,4.6505 0 0,1 -3.434-4.65v-.001a3.4339,4.6505 0 0,1 3.434-4.65"/><path d="m214.714,177.41a3.4339,4.6505 0 0,1 3.434,4.65v.001a3.4339,4.6505 0 0,1 -3.434,4.65 3.4339,4.6505 0 0,1 -3.434-4.65v-.001a3.4339,4.6505 0 0,1 3.434-4.65"/><path d="m200.664,189.19a3.4339,4.6505 0 0,1 3.434,4.65v.001a3.4339,4.6505 0 0,1 -3.434,4.65 3.4339,4.6505 0 0,1 -3.434-4.65v-.001a3.4339,4.6505 0 0,1 3.434-4.65"/><path d="m249.064,182.71a3.4339,4.6505 0 0,1 3.434,4.651 3.4339,4.6505 0 0,1 -3.434,4.65 3.4339,4.6505 0 0,1 -3.434-4.65 3.4339,4.6505 0 0,1 3.434-4.651"/><path d="m256.084,189.19a3.4339,4.6505 0 0,1 3.434,4.65v.001a3.4339,4.6505 0 0,1 -3.434,4.65 3.4339,4.6505 0 0,1 -3.434-4.65v-.001a3.4339,4.6505 0 0,1 3.434-4.65"/></g><g transform="matrix(.32984 .05521 -.05191 .35078 129.39 -157.7)"><path d="m231.894,175.06a3.4339,4.6505 0 0,1 3.434,4.65v.001a3.4339,4.6505 0 0,1 -3.434,4.65 3.4339,4.6505 0 0,1 -3.434-4.65v-.001a3.4339,4.6505 0 0,1 3.434-4.65"/><path d="m241.254,177.41a3.4339,4.6505 0 0,1 3.434,4.65v.001a3.4339,4.6505 0 0,1 -3.434,4.65 3.4339,4.6505 0 0,1 -3.434-4.65v-.001a3.4339,4.6505 0 0,1 3.434-4.65"/><path d="m223.304,175.06a3.4339,4.6505 0 0,1 3.434,4.65v.001a3.4339,4.6505 0 0,1 -3.434,4.65 3.4339,4.6505 0 0,1 -3.434-4.65v-.001a3.4339,4.6505 0 0,1 3.434-4.65"/><path d="m206.914,182.12a3.4339,4.6505 0 0,1 3.434,4.65v.001a3.4339,4.6505 0 0,1 -3.434,4.65 3.4339,4.6505 0 0,1 -3.434-4.65v-.001a3.4339,4.6505 0 0,1 3.434-4.65"/><path d="m214.714,177.41a3.4339,4.6505 0 0,1 3.434,4.65v.001a3.4339,4.6505 0 0,1 -3.434,4.65 3.4339,4.6505 0 0,1 -3.434-4.65v-.001a3.4339,4.6505 0 0,1 3.434-4.65"/><path d="m200.664,189.19a3.4339,4.6505 0 0,1 3.434,4.65v.001a3.4339,4.6505 0 0,1 -3.434,4.65 3.4339,4.6505 0 0,1 -3.434-4.65v-.001a3.4339,4.6505 0 0,1 3.434-4.65"/><path d="m249.064,182.71a3.4339,4.6505 0 0,1 3.434,4.651 3.4339,4.6505 0 0,1 -3.434,4.65 3.4339,4.6505 0 0,1 -3.434-4.65 3.4339,4.6505 0 0,1 3.434-4.651"/><path d="m256.084,189.19a3.4339,4.6505 0 0,1 3.434,4.65v.001a3.4339,4.6505 0 0,1 -3.434,4.65 3.4339,4.6505 0 0,1 -3.434-4.65v-.001a3.4339,4.6505 0 0,1 3.434-4.65"/></g><g transform="matrix(.32842 -.06406 .06024 .34928 42.896 -131.04)"><path d="m231.894,175.06a3.4339,4.6505 0 0,1 3.434,4.65v.001a3.4339,4.6505 0 0,1 -3.434,4.65 3.4339,4.6505 0 0,1 -3.434-4.65v-.001a3.4339,4.6505 0 0,1 3.434-4.65"/><path d="m241.254,177.41a3.4339,4.6505 0 0,1 3.434,4.65v.001a3.4339,4.6505 0 0,1 -3.434,4.65 3.4339,4.6505 0 0,1 -3.434-4.65v-.001a3.4339,4.6505 0 0,1 3.434-4.65"/><path d="m223.304,175.06a3.4339,4.6505 0 0,1 3.434,4.65v.001a3.4339,4.6505 0 0,1 -3.434,4.65 3.4339,4.6505 0 0,1 -3.434-4.65v-.001a3.4339,4.6505 0 0,1 3.434-4.65"/><path d="m206.914,182.12a3.4339,4.6505 0 0,1 3.434,4.65v.001a3.4339,4.6505 0 0,1 -3.434,4.65 3.4339,4.6505 0 0,1 -3.434-4.65v-.001a3.4339,4.6505 0 0,1 3.434-4.65"/><path d="m214.714,177.41a3.4339,4.6505 0 0,1 3.434,4.65v.001a3.4339,4.6505 0 0,1 -3.434,4.65 3.4339,4.6505 0 0,1 -3.434-4.65v-.001a3.4339,4.6505 0 0,1 3.434-4.65"/><path d="m200.664,189.19a3.4339,4.6505 0 0,1 3.434,4.65v.001a3.4339,4.6505 0 0,1 -3.434,4.65 3.4339,4.6505 0 0,1 -3.434-4.65v-.001a3.4339,4.6505 0 0,1 3.434-4.65"/><path d="m249.064,182.71a3.4339,4.6505 0 0,1 3.434,4.651 3.4339,4.6505 0 0,1 -3.434,4.65 3.4339,4.6505 0 0,1 -3.434-4.65 3.4339,4.6505 0 0,1 3.434-4.651"/><path d="m256.084,189.19a3.4339,4.6505 0 0,1 3.434,4.65v.001a3.4339,4.6505 0 0,1 -3.434,4.65 3.4339,4.6505 0 0,1 -3.434-4.65v-.001a3.4339,4.6505 0 0,1 3.434-4.65"/></g><path d="m58.1927,155.25a1.1497,1.6475 0 0,1 1.1497,1.648v-.001a1.1497,1.6475 0 0,1 -1.1497,1.648 1.1497,1.6475 0 0,1 -1.1497-1.648v.001a1.1497,1.6475 0 0,1 1.1497-1.648" transform="matrix(.97649 -.21555 .19155 .98148 13.258 -218.32)"/><path d="m61.3287,156.09a1.1497,1.6475 0 0,1 1.1497,1.648v-.001a1.1497,1.6475 0 0,1 -1.1497,1.648 1.1497,1.6475 0 0,1 -1.1497-1.648v.001a1.1497,1.6475 0 0,1 1.1497-1.648" transform="matrix(.97649 -.21555 .19155 .98148 13.258 -218.32)"/><path d="m63.9417,157.96a1.1497,1.6475 0 0,1 1.1497,1.648v-.001a1.1497,1.6475 0 0,1 -1.1497,1.648 1.1497,1.6475 0 0,1 -1.1497-1.648v.001a1.1497,1.6475 0 0,1 1.1497-1.648" transform="matrix(.97649 -.21555 .19155 .98148 13.258 -218.32)"/><path d="m66.2937,160.26a1.1497,1.6475 0 0,1 1.1497,1.647 1.1497,1.6475 0 0,1 -1.1497,1.648 1.1497,1.6475 0 0,1 -1.1497-1.648 1.1497,1.6475 0 0,1 1.1497-1.647" transform="matrix(.97649 -.21555 .19155 .98148 13.258 -218.32)"/><g transform="matrix(.27699 .1983 -.18646 .29458 148.87 -220.32)"><path d="m362.514,285.4a3.4339,4.6505 0 0,1 3.434,4.65v.001a3.4339,4.6505 0 0,1 -3.434,4.65 3.4339,4.6505 0 0,1 -3.434-4.65v-.001a3.4339,4.6505 0 0,1 3.434-4.65" transform="matrix(.97913 -.20323 .20323 .97913 0 0)"/><path d="m346.124,292.46a3.4339,4.6505 0 0,1 3.434,4.651 3.4339,4.6505 0 0,1 -3.434,4.65 3.4339,4.6505 0 0,1 -3.434-4.65 3.4339,4.6505 0 0,1 3.434-4.651" transform="matrix(.97913 -.20323 .20323 .97913 0 0)"/><path d="m353.924,287.75a3.4339,4.6505 0 0,1 3.434,4.651 3.4339,4.6505 0 0,1 -3.434,4.65 3.4339,4.6505 0 0,1 -3.434-4.65 3.4339,4.6505 0 0,1 3.434-4.651" transform="matrix(.97913 -.20323 .20323 .97913 0 0)"/><path d="m339.874,299.53a3.4339,4.6505 0 0,1 3.434,4.65v.001a3.4339,4.6505 0 0,1 -3.434,4.65 3.4339,4.6505 0 0,1 -3.434-4.65v-.001a3.4339,4.6505 0 0,1 3.434-4.65" transform="matrix(.97913 -.20323 .20323 .97913 0 0)"/></g><path d="m299.66,8.6089c32.967,24.137 33.556,69.468 33.556,69.468s-5.299-47.686 30.025-67.113c-18.25,5.2986-17.662,4.1211-27.67,3.5325l-2.355-15.307s-1.766,7.6533-5.298,14.718c-7.654,2.3548-9.42,2.3548-28.258-5.2984z" transform="matrix(.24424 0 0 .265 80.941 -78.676)"/><path d="m299.66,8.6089c32.967,24.137 33.556,69.468 33.556,69.468s-5.299-47.686 30.025-67.113c-18.25,5.2986-17.662,4.1211-27.67,3.5325l-2.355-15.307s-1.766,7.6533-5.298,14.718c-7.654,2.3548-9.42,2.3548-28.258-5.2984z" transform="matrix(.23738 -.06113 .05865 .25756 50.678 -55.618)"/><path d="m299.66,8.6089c32.967,24.137 33.556,69.468 33.556,69.468s-5.299-47.686 30.025-67.113c-18.25,5.2986-17.662,4.1211-27.67,3.5325l-2.355-15.307s-1.766,7.6533-5.298,14.718c-7.654,2.3548-9.42,2.3548-28.258-5.2984z" transform="matrix(.23657 .06458 -.06195 .25668 117.33 -97.042)"/><path d="m299.66,8.6089c32.967,24.137 33.556,69.468 33.556,69.468s-5.299-47.686 30.025-67.113c-18.25,5.2986-17.662,4.1211-27.67,3.5325l-2.355-15.307s-1.766,7.6533-5.298,14.718c-7.654,2.3548-9.42,2.3548-28.258-5.2984z" transform="matrix(.15393 -.06069 .07756 .22478 58.125 -49.509)"/><path d="m299.66,8.6089c32.967,24.137 33.556,69.468 33.556,69.468s-5.299-47.686 30.025-67.113c-18.25,5.2986-17.662,4.1211-27.67,3.5325l-2.355-15.307s-1.766,7.6533-5.298,14.718c-7.654,2.3548-9.42,2.3548-28.258-5.2984z" transform="matrix(.13481 .09965 -.12911 .19615 172.37 -101.78)"/></g><g><path fill="#f3ef7d" d="m148.622,97.304a3.362,3.5099 0 0,1 3.362,3.51 3.362,3.5099 0 0,1 -3.362,3.51 3.362,3.5099 0 0,1 -3.362-3.51 3.362,3.5099 0 0,1 3.362-3.51" transform="translate(13.258 -218.32)"/><path d="m148.4,97.304h.704v7.02h-.704z" transform="translate(13.258 -218.32)"/><g fill="#f3ef7d"><path d="m148.913,119.51a1.5528,1.7559 0 0,1 1.553,1.756 1.5528,1.7559 0 0,1 -1.553,1.756 1.5528,1.7559 0 0,1 -1.553-1.756 1.5528,1.7559 0 0,1 1.553-1.756" transform="translate(13.258 -218.32)"/><path d="m148.815,115.96a1.4545,1.6514 0 0,1 1.454,1.651 1.4545,1.6514 0 0,1 -1.454,1.652 1.4545,1.6514 0 0,1 -1.455-1.652 1.4545,1.6514 0 0,1 1.455-1.651" transform="translate(13.258 -218.32)"/><path d="m148.815,112.61a1.4545,1.5469 0 0,1 1.454,1.547 1.4545,1.5469 0 0,1 -1.454,1.547 1.4545,1.5469 0 0,1 -1.455-1.547 1.4545,1.5469 0 0,1 1.455-1.547" transform="translate(13.258 -218.32)"/><path d="m148.818,109.9a1.2579,1.2333 0 0,1 1.258,1.233 1.2579,1.2333 0 0,1 -1.258,1.234 1.2579,1.2333 0 0,1 -1.258-1.234 1.2579,1.2333 0 0,1 1.258-1.233" transform="translate(13.258 -218.32)"/><path d="m148.818,106.76a1.2579,1.4424 0 0,1 1.258,1.442 1.2579,1.4424 0 0,1 -1.258,1.443 1.2579,1.4424 0 0,1 -1.258-1.443 1.2579,1.4424 0 0,1 1.258-1.442" transform="translate(13.258 -218.32)"/><path d="m148.821,104.46a1.0614,1.0243 0 0,1 1.062,1.024 1.0614,1.0243 0 0,1 -1.062,1.024 1.0614,1.0243 0 0,1 -1.061-1.024 1.0614,1.0243 0 0,1 1.061-1.024" transform="translate(13.258 -218.32)"/></g><path d="m101.34-151.55h.735v6.724h-.735z" transform="matrix(.00556 .99998 -.99998 .00606 13.258 -218.32)"/><path fill="#f3ef7d" d="m148.916,123.07a1.9459,2.0695 0 0,1 1.946,2.069 1.9459,2.0695 0 0,1 -1.946,2.07 1.9459,2.0695 0 0,1 -1.946-2.07 1.9459,2.0695 0 0,1 1.946-2.069" transform="translate(13.258 -218.32)"/></g></g></g></g></svg>