<svg xmlns="http://www.w3.org/2000/svg" viewBox="0 0 640 480"><defs><clipPath id="0"><path d="m0 0h682.67v512h-682.67z"/></clipPath></defs><g fill-rule="evenodd" clip-path="url(#0)" transform="scale(.9375)"><g stroke-width="1.25"><path fill="#fff" d="m0 .084h767.87v511.92h-767.87z"/><path fill="#006" d="m0 0h232.74v232.75h-232.74z"/><g fill="#c00"><path d="m0 464.87h767.89v47.13h-767.89z"/><path d="m0 465.43h767.89v46.574h-767.89z"/><path d="m0 372.52h767.89v46.21h-767.89z"/><path d="m0 279.26h765.96v46.7h-765.96z"/><path d="m232.67.055h535.17v46.49h-535.17z"/><path d="m232.67 186.06h535.17v46.796h-535.17z"/><path d="m232.67 93.36h535.17v46.49h-535.17z"/></g></g><path fill="#fff" stroke-width=".113" d="m166.35 177.47l-50.71-30.98-50.47 31.29 18.769-50.85-50.37-31.394 62.32-.438 19.328-50.691 19.744 50.574 62.32.067-50.12 31.693 19.18 50.732z"/></g></svg>