<svg width="640" xmlns="http://www.w3.org/2000/svg" height="480" viewBox="0 0 320 240"><defs><clipPath id="clipPath3033" clipPathUnits="userSpaceOnUse"><path d="m25-60h400v300h-400z"/></clipPath></defs><g clip-path="url(#clipPath3033)" transform="matrix(.8 0 0 .8 -20 48)"><path fill="#fff" d="m0-60h450v300h-450z"/><path fill="#009543" d="m0,150h450v90h-450z"/><path fill="#00209f" d="m0-60h450v90h-450z"/><g transform="matrix(1.13695 0 0 1.13695 -30.56399 -88.2596)"><path stroke="#000" stroke-width=".88" d="m224.5728,108.9129c-1.5039,.0324-2.9712,1.6982-2.9712,1.6982l.1296,17.7958-5.6184,5.8859h4.5482l-.0384,10.205-26.9065,36.2307-3.9775-1.3748-6.952,14.8301c0,0 17.1949,10.767 42.1524,10.4726 27.3922-.3257 42.2745-10.9692 42.2745-10.9692l-7.1839-14.6394-3.5178,1.5298-27.2509-36.0428-.0384-10.5096h4.5482l-6.1901-5.8127 .0366-17.731c0,0-1.5405-1.6011-3.0443-1.5687z"/><path fill="none" stroke="#000" stroke-width="4.398" d="m233.9532,151.5181-18.6046,0c0,0-6.7528-14.2279-5.6582-24.1747 1.1146-10.1282 6.9029-14.9194 14.5987-15.0042 9.0988-.1014 13.8677,4.4585 15.3083,14.5987 1.4276,10.0482-5.6442,24.5802-5.6442,24.5802z"/><path fill="#fff" d="m192.0503,185.4339c-.3041,.4055-2.5345,4.8662-2.5345,4.8662l3.8524-.811-1.3179-4.0552z"/><path fill="#fff" d="m194.2807,191.2125-4.0552,1.3179 4.8662,1.9262-.811-3.2441z"/><path fill="#fff" d="m196.1055,185.5353 2.0276,5.9814 4.9676-1.4193-1.3179-2.8386-5.6773-1.7235z"/><path fill="#fff" d="m199.2483,193.6457 .7097,2.4331 6.5897,1.6221-2.6359-5.5759-4.6635,1.5207z"/><path fill="#fff" d="m206.5476,188.5767 2.3317,5.5759 4.9676-1.9262-1.6221-2.4331-5.6773-1.2166z"/><path fill="#fff" d="m209.7918,196.1801 .811,2.129 7.7049,1.1152-3.2441-5.069-5.2717,1.8248z"/><path fill="#fff" d="m217.1925,190.1987 2.8386,4.9676 7.1979-2.6359-.811-1.9262-9.2255-.4055z"/><path fill="#fff" d="m221.3491,196.9912 1.5207,2.6359 8.9214-.3041-3.3455-4.9676-7.0966,2.6359z"/><path fill="#fff" d="m230.7774,190.4015 2.4331,4.1566 5.6773-2.7372-1.5207-2.2304-6.5897,.811z"/><path fill="#fff" d="m240.1043,193.5443-5.6773,2.8386 1.5207,2.4331 7.6035-1.2166-3.4469-4.0552z"/><path fill="#fff" d="m241.9291,189.185 2.94,3.6497 4.7648-3.751-1.6221-1.7235-6.0828,1.8248z"/><path fill="#fff" d="m250.6478,191.1112-4.5621,3.4469 1.2166,2.129 6.2855-1.6221-2.94-3.9538z"/><path fill="#fff" d="m256.9333,183.9132 1.1152,1.6221-3.1428,4.6635-3.2441-4.1566 5.2717-2.129z"/><path fill="#fff" d="m259.0623,187.9684 1.9262,3.8524-3.8524,1.3179-.3041-1.8248 2.2303-3.3455z"/></g></g></svg>