<svg xmlns="http://www.w3.org/2000/svg" viewBox="0 0 640 480"><defs><clipPath id="clipPath11737" clipPathUnits="userSpaceOnUse"><path fill-opacity=".67" d="m0-48h640v480h-640z"/></clipPath></defs><g fill-rule="evenodd" stroke-width="1.25" clip-path="url(#clipPath11737)" transform="translate(0 48)"><path fill="#eb0013" d="m0-128h640v640h-640z"/><path fill="#0b5035" d="m371.01,263.71-166.75,116.61 42.967-131.57 22.318,16.163-16.012,48.063 108.75-78.369 8.7298,29.105zm17.105-76.157 58.208,195.62-109.3-81.567 22.482-15.934 38.898,29.187-40.653-128.4 30.368,1.093zm-68.999-38.843 204.88,.241-111.65,80.529-8.933-26.067 41.515-27.793-135.44,1.9117 9.6297-28.821zm-57.93,52.3 64.88-195.91 44.65,134.69-27.56,.35-16.44-51.593-41.16,130.61-24.37-18.15zm33.248,70.407-165.29-121.32 139.53-1.0785-8.139,26.324-51.786-.209 110.45,78.669-24.761,17.615z"/></g></svg>