<svg xmlns="http://www.w3.org/2000/svg" viewBox="0 0 640 480" xmlns:xlink="http://www.w3.org/1999/xlink"><defs><path id="1" d="m386.22 651.97c0 3.914-3.173 7.087-7.087 7.087s-7.087-3.173-7.087-7.087 3.173-7.087 7.087-7.087 7.087 3.173 7.087 7.087"/><path id="2" d="m106.3 825.59c61.1-21.17 49.646-102.47 42.618-103.04-7.03-.572-33.42 18.668-36.963 36.38-7.086-28.346-23.1-54.58-32.34-51.55-13.861 3.03 2.466 47.49-4.62 54.58-7.087 3.543-39.12-21.736-46.2-18.19-7.087 3.544 18.481 100.06 77.51 81.81z"/><path id="3" d="m283.46 574.02c.417 0 17.716-17.717 17.716-17.717l17.717 17.717s17.716-17.717 17.716-17.717l17.717 17.717"/><path id="4" d="m301.39,539.27-.208,176.48"/></defs><g fill-rule="evenodd" stroke-width="1.25" transform="scale(1.25.9375)"><path fill="#00319c" d="m0 0h170.67v512h-170.67z"/><path fill="#ffde00" d="m170.67 0h170.67v512h-170.67z"/><path fill="#de2110" d="m341.33 0h170.67v512h-170.67z"/></g><g stroke="#000"><g fill-rule="evenodd" transform="matrix(1.2303 0 0 1.2303 4.069-75.14)"><path fill="#ff1900" stroke-width=".556" d="m289.61 321.48s18.628 26.877 19.724 28.458c1.096 1.581 2.192 3.162.537 4.209-1.655 1.047-1.118 5.257-.022 6.837 2.192 3.162 4.942 3.696 6.597 2.649 1.654-1.047 13.236-8.377 14.89-9.424 1.655-1.047 2.214-3.675.022-6.837-1.258-1.594-4.942-3.696-6.597-2.649-1.654 1.047-2.75-.534-3.846-2.115-1.096-1.581-17.533-25.296-19.724-28.458"/><path fill="#a77b3b" stroke-width="2.54" d="m177.17 696.26c0 24.461-9.518 44.29-21.26 44.29-11.741 0-21.26-19.83-21.26-44.29s9.518-44.29 21.26-44.29c11.741 0 21.26 19.83 21.26 44.29z" transform="matrix(.42858-.34452.36055.40954-29.658 77.26)"/><path fill="#ff1900" stroke-width=".556" d="m209.61 309.91l-17.413 29.803c-.968 1.656-1.935 3.312-3.667 2.387-1.733-.925-5.401 1.463-6.368 3.118-1.935 3.312-1.17 5.892.563 6.816 1.733.924 13.862 7.395 15.594 8.32 1.733.925 4.433.193 6.368-3.118.905-1.799 1.17-5.892-.563-6.816-1.733-.924-.765-2.58.202-4.236.967-1.656 15.478-26.492 17.413-29.803"/><g fill="#a77b3b" stroke-width="1.391"><path d="m265.87 289.13h-15.876c-.525.502-5.04 28.935-9.922 39.822-5.953 13.274-23.783 24.987-23.783 24.987s10.682 3.235 13.861 5.353c.79-.222 17.83-3.792 19.814-24.652 1.985 20.86-11.876 30.341-11.876 30.341s19.845 5.689 19.845 18.963c0-13.274 19.845-18.963 19.845-18.963s-9.954-9.481-11.938-30.341c3.969 20.86 19.08 24.43 19.876 24.652 3.178-2.118 13.861-5.353 13.861-5.353s-17.83-11.713-23.783-24.987c-4.883-10.887-9.397-39.32-9.922-39.822z"/><path d="m198.37 194.3l29.768 9.481c9.922 0 19.845-9.471 19.845-18.953.33-21.09-7.938-28.454-9.923-28.454l3.969-3.793-5.953-5.689s1.99-9.838 21.829-9.472c19.838.367 19.845 9.482 19.845 18.963 0 9.482-9.922 9.482-9.922 28.445 0 9.482 9.922 18.963 19.845 18.963l29.768-9.481v94.81h-119.07v-94.82z"/></g></g><g fill="none" transform="matrix(.68905 0 0 .65843 16.18-144.03)"><path stroke-width=".49" d="m302.16 292.24l14.645 14.964 14.644-14.964 14.645 14.964 29.29-14.964 14.261 15.809 15.03-15.809 21.605 15.809 22.329-15.809 14.645 14.964 14.645-14.964" transform="matrix(.24195 0 0 .71037 345 267.2)"/><g stroke-width=".203"><path d="m432.28,435.83-7.086,38.976"/><path d="m435.83 435.83v38.976"/><path d="m442.91 435.83v38.976"/><path d="m450 435.83l3.543 38.976"/><path d="m457.09 435.83l3.543 38.976"/></g></g><g stroke-width="2.54" transform="matrix(.68905 0 0 .65843 16.18-144.03)"><path fill="#a77b3b" fill-rule="evenodd" d="m318.9 361.42c35.433 17.717 35.433 53.15 35.433 70.866-1.251 16.12 0 354.33 0 354.33s-2.306-20.02-17.717-35.433l-17.716-17.716-17.717-17.717c-12.951-11.774-17.716-35.433-17.716-53.15v-248.03s0-17.717 35.433-53.15z" transform="matrix(-1 0 0 1 620.08 0)" id="5"/><g fill="none"><use transform="matrix(-1 0 0 1 620.08-141.73)" xlink:href="#3"/><use transform="matrix(-1 0 0-1 620.08 1024)" xlink:href="#3"/><use transform="matrix(-1 0 0 1 620.08-70.866)" xlink:href="#3"/><path d="m301.39,556.99-.208,158.76" transform="matrix(-1 0 0 1.8971 620.08-642.07)" id="6"/><use transform="matrix(-1 0 0 1.7027 602.57-485.94)" xlink:href="#4"/><use transform="matrix(-1 0 0 1.9074 584.85-614.03)" xlink:href="#4"/></g><use transform="matrix(-1 0 0 1 885.83 0)" xlink:href="#5"/><g fill="none"><use transform="translate(265.75-141.73)" xlink:href="#3"/><use transform="matrix(1 0 0-1 265.75 1024)" xlink:href="#3"/><use transform="translate(265.75-70.866)" xlink:href="#3"/><use transform="matrix(-1 0 0 1 885.83 0)" xlink:href="#6"/><use transform="matrix(1 0 0 1.7027 283.26-485.94)" xlink:href="#4"/><use transform="matrix(1 0 0 1.9074 300.97-614.03)" xlink:href="#4"/></g></g></g><path fill="#a77b3b" stroke="#000" fill-rule="evenodd" stroke-width="2.54" d="m177.17 696.26c0 24.461-9.518 44.29-21.26 44.29-11.741 0-21.26-19.83-21.26-44.29s9.518-44.29 21.26-44.29c11.741 0 21.26 19.83 21.26 44.29z" transform="matrix(.63605.25323-.26502.60778 361.15-165.21)"/><g transform="matrix(.68905 0 0 .65843 16.18-144.03)"><g fill-rule="evenodd"><path fill="#f00" stroke-width="1.25" d="m336.61 485.43h212.6v106.3h-212.6z"/><path fill="#564dff" stroke-width="2.5" d="m336.61 591.73h212.6v53.15c0 35.433-53.15 35.433-106.3 70.866-53.15-35.433-106.3-35.433-106.3-70.866v-53.15"/></g><path fill="none" stroke="#ff0" stroke-width="2.032" d="m336.61 485.43h212.6v159.45c0 35.433-53.15 35.433-106.3 70.866-53.15-35.433-106.3-35.433-106.3-70.866v-159.45z" transform="translate(.002)"/><g fill-rule="evenodd"><g fill="#ff0" stroke="#000" stroke-width="2.448"><path d="m385.59 129.9s-50.618 55.45-50.618 108.6c0 53.15 53.15 70.866 53.15 70.866s-17.717 0-17.717 70.866c0 35.433 53.15 17.717 53.15 35.433 0 17.717-.751 60.58 0 88.58 0 17.716-35.433 0-35.433 17.716 0 8.859 26.575 53.15 53.15 53.15 26.574 0 53.15-44.29 53.15-53.15 0-17.716-35.433 0-35.433-17.716v-88.58c0-17.716 53.15 0 53.15-35.433 0-70.866-17.717-70.866-17.717-70.866s53.15-17.717 53.15-70.866-50.619-108.6-50.619-108.6c0 0 28.473 73.16 28.473 108.6 0 17.717-13.287 53.15-48.72 53.15 0 0-8.961-17.716-17.717 0 0 0-10.189-17.716-17.716 0-2.598 6.115-7.207-17.716-17.717 0-4.465 4.697-7.984-17.716-17.717 0-17.716 0-53.15-17.716-53.15-53.15 0-35.433 32.902-108.6 32.902-108.6z" transform="matrix(.7 0 0 .46956 134.02 431.52)"/><path d="m382.68 248.03c-3.543 3.543 4.581 61.27 7.087 63.779 3.543 3.543 24.803 3.543 28.346 0 2.525-2.525 0-56.693-3.543-60.24-3.543-3.544-29.384-6.05-31.89-3.543z" transform="matrix(.7 0 0 .46956 136.69 524.92)" id="7"/><use transform="matrix(-1 0 0 1 885.83 0)" xlink:href="#7"/><path d="m414.57 228.54c0 8.806-7.139 15.945-15.945 15.945-8.806 0-15.945-7.139-15.945-15.945 0-8.806 7.139-15.945 15.945-15.945 8.806 0 15.945 7.139 15.945 15.945z" transform="matrix(.80459 0 0 .58536 96.53 497.79)" id="8"/><use transform="translate(51.31-.009)" xlink:href="#8"/></g><g stroke-width="1.25"><path d="m414.57 228.54c0 8.806-7.139 15.945-15.945 15.945-8.806 0-15.945-7.139-15.945-15.945 0-8.806 7.139-15.945 15.945-15.945 8.806 0 15.945 7.139 15.945 15.945" transform="matrix(.38889 0 0 .26087 304.02 626.15)" id="9"/><use transform="translate(-32.25)" xlink:href="#9"/></g><g fill="#ff0" stroke="#000" stroke-width="1.016"><path d="m439.37,549.92-7.78-10.26-12.77,1.75 1.76-12.76-10.26-7.78 10.26-7.79-1.76-12.76 12.77,1.76 7.78-10.27 7.78,10.27 12.77-1.76-1.76,12.76 10.26,7.79-10.26,7.78 1.76,12.76-12.77-1.75z" transform="matrix(.97561 0 0 .97561 14.26 16.248)"/><path d="m496.06 591.73l21.26 10.63 21.26-10.63-21.26-10.63-21.26 10.63z" id="A"/><use transform="translate(-152.36)" xlink:href="#A"/><path d="m535.04 659.06c-3.543-7.086-14.173-10.63-21.259-10.63-7.087 0-14.174 0-21.26 10.63 0-14.173 10.502-21.26 21.26-21.26 10.756 0 21.259 10.503 21.259 21.26z" transform="matrix(.86717-.49801.49801.86717-263.15 350.11)"/><use transform="translate(-3.543-17.717)" xlink:href="#1"/><use transform="translate(-10.63 7.086)" xlink:href="#1"/><use transform="translate(-14.173-7.087)" xlink:href="#1"/><use transform="translate(3.543 7.086)" xlink:href="#1"/><use transform="translate(7.087-7.087)" xlink:href="#1"/><use transform="translate(-3.543-3.543)" xlink:href="#1"/></g></g></g><g fill-rule="evenodd" transform="matrix(.68905 0 0 .65843 16.18-144.03)"><path fill="#da4500" stroke-width="1.25" d="m389.76 386.22c-15.647 0-17.716 1.772-24.803 3.544 0-4.89 17.424-10.63 33.07-10.63 0 3.543-4.134 7.087-8.268 7.086" transform="matrix(1.1429 0 0 1.6667-36.784-242.13)"/><path fill="#cac9c7" d="m428.74 386.22c0 3.914-3.173 7.087-7.087 7.087s-7.087-3.173-7.087-7.087 3.173-7.087 7.087-7.087 7.087 3.173 7.087 7.087" transform="translate(7.087-3.543)"/><path fill="#ff0" stroke="#000" stroke-width="1.016" d="m361.42 357.87v10.63h17.717v53.15h10.63v-53.15h17.716v-10.63h-17.716v-14.173h-10.63v14.173h-17.717z"/><path fill="#da4500" stroke-width="1.25" d="m396.85 387.11c-15.647 0-24.803.885-31.89 2.657 0-4.89 9.156-10.63 24.803-10.63 3.543 0 7.087 5.315 7.087 7.973" transform="matrix(1.3333 0 0 2.2222-111.03-470.46)"/><path fill="#008500" stroke="#000" stroke-width=".711" d="m67.32 612.99c-14.173-14.17-16.634-21.36 3.543-10.1l283.75 247.5-3.366 6.968-283.93-244.37z" transform="matrix(.5634.45036-.20424.35982 321.13 327.02)"/><g fill="#008f00"><use transform="matrix(.13171-.18019.3274.2393 23.692 542.15)" xlink:href="#2"/><use transform="matrix(.13171-.18019.3274.2393-4.41 495.32)" xlink:href="#2"/><use transform="matrix(.13171-.18019.3274.2393-25.914 452.8)" xlink:href="#2"/><use transform="matrix(.13171-.18019.3274.2393-47.17 406.73)" xlink:href="#2"/><use transform="matrix(.2232-.00074.00134.40553 219.6 248.33)" xlink:href="#2"/><use transform="matrix(.21063.07382-.13413.38271 352.49 299.69)" xlink:href="#2"/><use transform="matrix(.22236.01926-.035.40402 292.95 329.27)" xlink:href="#2"/><use transform="matrix(.21927.04166-.07569.39841 352.36 385.54)" xlink:href="#2"/></g></g><path fill="#ff1900" stroke="#000" fill-rule="evenodd" stroke-width="1.016" d="m209.06 775.98c0 7.828-10.312 14.173-23.03 14.173-12.72 0-23.03-6.346-23.03-14.173 0-7.828 10.312-14.173 23.03-14.173 12.72 0 23.03 6.346 23.03 14.173z" transform="matrix(.60164.32097-.3359.57489 389.58-146.81)" id="0"/><g fill="#ff0" stroke="#000" fill-rule="evenodd" transform="matrix(.49887.1571-.1826.47129 451.44-3.726)"><path stroke-width=".508" d="m155.91 414.57v-7.087h7.086v-7.086h7.087v7.086h7.086v7.087h-7.086v17.716h-7.087v-17.716h-7.086z"/><path stroke-width=".512" d="m162.99 474.8h7.087v205.51h-7.087z"/><g stroke-width=".508"><path d="m159.45 676.77h14.173v56.693h-14.173z"/><path d="m155.91 439.37h21.259c14.174 0-3.543 38.976-3.543 38.976h-14.173s-17.717-38.976-3.543-38.976z"/><path d="m173.62 434.06c0 2.935-3.173 5.315-7.087 5.315s-7.087-2.38-7.087-5.315 3.173-5.315 7.087-5.315 7.087 2.38 7.087 5.315z"/></g></g><use transform="matrix(.45878-.84906.92989.45879-44.47 402.34)" xlink:href="#0"/></svg>