<svg xmlns="http://www.w3.org/2000/svg" viewBox="0 0 640 480"><defs><clipPath id="clipPath9823" clipPathUnits="userSpaceOnUse"><path fill-opacity=".67" d="m0-0h682.67v512h-682.67z"/></clipPath></defs><g clip-path="url(#clipPath9823)" transform="matrix(.9375 0 0 .9375 0 .00001)"><g fill-rule="evenodd"><path fill="#ed2939" d="m0-0h768v256h-426.67l-341.33-256z"/><path fill="#002395" d="m0,512h768v-256h-426.67l-341.33,256z"/><path fill="#fff" d="m0-0 341.33,256l-341.33,256v-512z"/></g><g transform="matrix(1.1464 0 0 1.1461 -260.07 -773.12)"><path fill="#ff0" d="m377.17,843.11 .0913-3.4582s-1.8566-2.9578 .2983-6.136c0,0-4.5777-2.4222-3.5124-6.2152 0,0-4.1394-1.0586-3.835-5.6125 0,0-4.4681-.3098-4.9308-4.1144 0,0-4.4681,.736-6.4343-2.9712 0,0-4.3585,.8522-5.5882-2.2036 0,0-4.2368,1.4677-6.7509-2.1245 0,0-4.4742,1.8079-6.3491-1.5827-1.8506,3.3791-6.3248,1.5827-6.3248,1.5827-2.4836,3.5794-6.7509,2.094-6.7509,2.094-1.187,3.068-5.5334,2.1975-5.5334,2.1975-1.9601,3.7078-6.4221,2.9706-6.4221,2.9706-.4383,3.793-4.9003,4.1029-4.9003,4.1029 .3531,4.5655-3.7802,5.601-3.7802,5.601 1.0896,3.7924-3.482,6.2085-3.482,6.2085 2.2097,3.1965 .3713,6.1306 .3713,6.1306l-.1035,3.1892 73.949,.3415"/><path fill="none" stroke="#000" stroke-width=".271" d="m377.17,843.11 .0913-3.4582s-1.8566-2.9578 .2983-6.136c0,0-4.5777-2.4222-3.5124-6.2152 0,0-4.1394-1.0586-3.835-5.6125 0,0-4.4681-.3098-4.9308-4.1144 0,0-4.4681,.736-6.4343-2.9712 0,0-4.3585,.8522-5.5882-2.2036 0,0-4.2368,1.4677-6.7509-2.1245 0,0-4.4742,1.8079-6.3491-1.5827-1.8506,3.3791-6.3248,1.5827-6.3248,1.5827-2.4836,3.5794-6.7509,2.094-6.7509,2.094-1.187,3.068-5.5334,2.1975-5.5334,2.1975-1.9601,3.7078-6.4221,2.9706-6.4221,2.9706-.4383,3.793-4.9003,4.1029-4.9003,4.1029 .3531,4.5655-3.7802,5.601-3.7802,5.601 1.0896,3.7924-3.482,6.2085-3.482,6.2085 2.2097,3.1965 .3713,6.1306 .3713,6.1306l-.1035,3.1892 73.949,.3415h-.0122z"/><path fill="#f00" d="m375.45,838.79c-11.615-1.1627-24.989-3.9202-35.313,1.8938-6.9213-4.0791-16.558-3.8296-24.763-3.0315-4.4559,.7974-9.6971,.7974-14.354,1.5584l-.7305,.1029c-8.4492,.5607-16.113-1.9358-23.455-5.2168 2.3315,13.234 4.9186,26.797 6.1908,40.652 2.7698,20.52-9.7093,37.748-4.5899,58.019 3.0558,9.727 13.751,15.382 23.54,16.503 9.478,.5594 19.285,2.1123 28.057,4.017 1.6679,.347 3.6463,1.1207 4.7968,1.6192 2.4167,1.0105 4.1881,2.4964 5.7404,4.0852 5.296-5.5157 13.057-7.0498 20.715-7.8594 13.8-1.6132 30.814-.736 39.263-13.239v-.7068c4.5899-6.9152 3.9811-17.464 1.9906-25.299-.1339-2.7332-.8644-5.1438-1.2601-7.7486-8.431-22.268-1.2114-47.311 2.4167-69.756-4.4316,2.4228-9.3745,3.5672-14.305,4.7792-3.9324,.5235-8.3153,.2861-12.296,.0724l-1.6497-.4444"/><path fill="#80cfe1" d="m392.79,902.7c-.0548,1.4664 .7366,2.6176 1.0227,3.9744 1.6132,9.7337 3.1715,22.627-6.8483,28.666-11.085,7.0485-25.622,4.0298-38.448,7.7608-2.5628,.7122-6.0934,3.0686-7.8953,4.736-1.1566-.7609-2.3193-1.9297-3.8107-2.617-10.555-5.6125-24.276-3.7322-36.189-6.7637-5.9839-1.8926-12.223-6.5555-13.739-12.68-3.8959-16.07 5.436-29.767 4.3342-45.709-.7122-12.175-2.7576-23.862-5.5699-35.276 9.3136,4.3397 20.094,5.0641 30.565,2.9828 7.7553-1.0842 16.783-1.1079 24.051,2.1732 4.0055-1.7233 8.6927-2.4964 13.009-2.9712 8.2058,.798 17.026,2.2828 25.476,2.2225 5.643-.2928 10.769-1.9242 15.675-4.0974-2.9098,18.865-8.4979,38.625-1.6375,57.599"/><path fill="#fff" d="m376.04,906.46-.0913-17.739h2.1854l-27.113-17.513-.0487-9.1006h2.6176l-13.557-9.7087-13.49,9.7032h2.6115l.0487,9.0939-26.967,17.49 2.1549,.0116 .0913,17.727 71.551,.0487"/><path fill="none" stroke="#000" stroke-width="1.164" d="m376.04,906.46-.0913-17.739h2.1854l-27.113-17.513-.0487-9.1006h2.6176l-13.557-9.7087-13.49,9.7032h2.6115l.0487,9.0939-26.967,17.49 2.1549,.0116 .0913,17.727 71.551,.0487 .006-.0128z"/><path fill="#fff" d="m384.38,929.76 .006,5.551-87.347-.0974-.0365-5.5273 87.384,.0737"/><path fill="none" stroke="#000" stroke-width="1.164" d="m384.38,929.76 .006,5.551-87.347-.0974-.0365-5.5273 87.384,.0737h-.006z"/><path fill="#fff" d="m302.84,929.43-.0731-18.786 3.5365-.007-.1946,19.005 .213-18.852-5.095-.146v-4.0304l78.064,.0858 .0365,3.9933h-4.8151l.0913,19.023-.1704-19.023h3.5854l.0791,18.809"/><g fill="none" stroke="#000" stroke-width="1.164"><path d="m302.84,929.43-.0731-18.786 3.5365-.007-.1946,19.005 .213-18.852-5.095-.146v-4.0304l78.064,.0858 .0365,3.9933h-4.8151l.0913,19.023-.1704-19.023h3.5854l.0791,18.809"/><path d="m319.62,924.8-.0548-13.1h-10.482l.0609,13.087 10.476,.0128"/><path d="m311.94,914.43 .0304,7.6092h4.7968l-.0243-7.6092h-4.8029"/><path d="m370.86,924.84-.0609-13.087-10.446-.0122 .0487,13.099h10.458"/><path d="m363.18,914.48 .0548,7.5848h4.7907l-.0426-7.5848h-4.8029"/><path d="m370.78,903.51-.0609-13.101h-10.458l.0365,13.101h10.488-.006z"/><path d="m363.1,893.16 .0304,7.597h4.7907l-.006-7.597h-4.8151"/><path d="m319.53,903.46-.073-13.076-10.464-.0128 .0487,13.082h10.488v.007z"/><path d="m311.85,893.11 .0243,7.5854 4.8029,.0116-.0365-7.597h-4.7907"/><path d="m338.5,903.48-.0487-13.076-10.47-.0116 .0426,13.087h10.476"/><path d="m330.83,893.13 .0243,7.5848 4.7968,.0244-.0304-7.6092h-4.7908"/><path d="m353.12,903.51-.0731-13.101-10.464-.0116 .0487,13.087 10.488,.025"/><path d="m345.44,893.14 .0365,7.6092h4.7968l-.0243-7.6092h-4.809"/></g><path fill="#fff" d="m355.72,899.49 .1157,30.199-30.333-.0487-.1096-30.174 30.321,.0237"/><g fill="none" stroke="#000" stroke-width="1.164"><path d="m355.72,899.49 .1157,30.199-30.333-.0487-.1096-30.174 30.321,.0237h.006z"/><path d="m325.21,908.11 30.54,.0244"/><path d="m329.02,929.68-.1035-21.342"/><path d="m352.14,929.69-.1035-21.329"/><path d="m366.79,886.63-17.081-12.474-19.193-.0243-16.947,12.449 53.222,.0487"/><path d="m331.99,863.8 .0304,7.6092 16.144,.0122-.0304-7.6092-16.144-.0122"/><path d="m336.37,865.69 .0244,3.7918h7.4144l-.0243-3.7918h-7.4144"/><path d="m340.04,855.14 8.9788,6.3485-17.891-.0237 8.9119-6.3248"/></g><path fill="#fff" d="m376.34,850.84c2.5506-.0609 3.208,10.507 3.2141,15.742 2.1914,.6148 7.0491,3.6713 9.198,6.4343l-24.642-.0365c2.1184-2.7265 6.9396-5.7952 9.1128-6.4094 0-5.2418 .5357-15.803 3.1167-15.742"/><g fill="none" stroke="#000" stroke-width="1.164"><path d="m376.34,850.84c2.5506-.0609 3.208,10.507 3.2141,15.742 2.1914,.6148 7.0491,3.6713 9.198,6.4343l-24.642-.0365c2.1184-2.7265 6.9396-5.7952 9.1128-6.4094 0-5.2418 .5357-15.803 3.1167-15.742"/><path d="m326.81,900.33h2.2097l-.6453,1.1864s1.0653,1.3703 .0183,2.9402l.5783,1.0902h-2.1306l.5783-1.0355s-1.0896-1.8195 .0487-2.995l-.6574-1.1864"/><path d="m331.31,900.33h2.2097l-.6392,1.1864s1.0653,1.3337 .006,2.9402l.5722,1.0902h-2.1245l.5722-1.0355s-1.0653-1.8195 .0548-2.995l-.6513-1.1864"/><path d="m336.23,900.33h2.2036l-.6574,1.1864s1.0775,1.3703 .0183,2.9402l.5783,1.114-2.1123-.0237 .5661-1.0355s-1.0775-1.8079 .0426-2.995l-.6453-1.1864h.006z"/><path d="m341.77,900.35h2.2219l-.6513,1.1992s1.0653,1.3459 .006,2.9219l.5966,1.1079h-2.1428l.5722-1.0348s-1.0653-1.8323 .0731-2.995l-.6696-1.1992h-.006z"/><path d="m346.7,900.35h2.2036l-.6513,1.1992s1.0714,1.3459 .0122,2.9158l.5844,1.114h-2.1245l.5539-1.0348s-1.0714-1.8201 .0852-2.995l-.6635-1.1992"/><path d="m351.6,900.36 2.2036-.0122-.6513,1.1992s1.0896,1.3459 .0304,2.9219l.5539,1.1079h-2.1306l.5722-1.0348s-1.0653-1.8201 .073-2.995l-.6513-1.187"/></g><path fill="#ff0" d="m340.7,968.4c11.359,.0365 25.329-2.2828 31.873-5.6667l14.372-1.2729 .2861,17.538c-12.175,6.7137-40.286,8.1564-46.471,8.1077-6.1908,.0487-34.649-1.4177-46.879-8.1564l.1583-17.55 14.403,1.2966c6.5439,3.3669 20.94,5.7038 32.287,5.7038h-.0304"/><path fill="none" stroke="#000" stroke-width=".271" d="m340.7,968.4c11.359,.0365 25.329-2.2828 31.873-5.6667l14.372-1.2729 .2861,17.538c-12.175,6.7137-40.286,8.1564-46.471,8.1077-6.1908,.0487-34.649-1.4177-46.879-8.1564l.1583-17.55 14.403,1.2966c6.5439,3.3669 20.94,5.7038 32.287,5.7038h-.0304"/><path fill="#ff0" d="m256.88,893.59 12.662,4.0298-3.829,20.503-11.986,1.8621s-2.021-10.781 3.1532-26.407"/><path fill="none" stroke="#000" stroke-width=".271" d="m256.88,893.59 12.662,4.0298-3.829,20.503-11.986,1.8621s-2.021-10.781 3.1532-26.407v.0122z"/><path fill="#7e7e7e" d="m265.71,917.9-11.98,2.088 7.5788-10.781 4.4012,8.6927"/><path fill="none" stroke="#000" stroke-width=".271" d="m265.71,917.9-11.98,2.088 7.5788-10.781 4.4012,8.6927"/><path fill="#ff0" d="m249.31,908.36 12.205,.8821c.2739,10.343 1.5279,49.813 48.656,51.956l-1.467,14.36c-57.367,.596-61.726-48.413-59.394-67.198"/><g fill="none" stroke="#000" stroke-width=".271"><path d="m249.31,908.36 12.205,.8821c.2739,10.343 1.5279,49.813 48.656,51.956l-1.467,14.36c-57.367,.596-61.726-48.413-59.394-67.198z"/><path d="m294.11,978.5 14.384-3.1411"/></g><path fill="#ff0" d="m423.52,893.74-12.613,3.9933 3.9994,20.472 12.01,1.9291s1.9297-10.774-3.3967-26.406"/><path fill="none" stroke="#000" stroke-width=".271" d="m423.52,893.74-12.613,3.9933 3.9994,20.472 12.01,1.9291s1.9297-10.774-3.3967-26.406v.0116z"/><path fill="#7e7e7e" d="m414.9,917.99 12.01,2.1549-7.6822-10.786-4.3281,8.6312"/><path fill="none" stroke="#000" stroke-width=".271" d="m414.9,917.99 12.01,2.1549-7.6822-10.786-4.3281,8.6312"/><path fill="#ff0" d="m431.23,908.52-12.223,.8346c-.1765,10.33-1.0775,49.818-48.206,51.912l1.601,14.348c57.355,.6629 61.3-48.322 58.828-67.101"/><g fill="none" stroke="#000" stroke-width=".271"><path d="m431.23,908.52-12.223,.8346c-.1765,10.33-1.0775,49.818-48.206,51.912l1.601,14.348c57.355,.6629 61.3-48.322 58.828-67.101v.005z"/><path d="m387.04,978.57-14.42-3.15"/></g><g fill="#009fc5"><path d="m333.07,977.04c-.3226,.207-.7609,.2624-1.2662,.2374l-2.2767-.1157 .1948-2.8422 2.2584,.1211c.4444,.0304 .7974,.1163 1.0166,.2496 .4565,.2374 .6574,.6763 .6148,1.2844-.0304,.5235-.2131,.865-.5479,1.0653m-3.8229,4.4748 .2252-3.4643 2.6541,.1832c.8583,.067 1.4975-.1583 1.9297-.5972 .4505-.4261 .6818-.9855 .7122-1.6186 .0548-.7372-.1339-1.3398-.5722-1.7842-.42-.4261-1.0166-.6513-1.7653-.7238l-3.7924-.2374-.5235,8.1564 1.1262,.0737"/><path d="m337.5,974.69 2.7758,.0304c.4018,.0365 .7183,.0852 .9496,.1948 .4261,.2009 .627,.6027 .627,1.187 0,.5485-.1583,.9137-.4687,1.1329-.2983,.2003-.7305,.2916-1.2479,.2916l-2.6663-.0304 .0243-2.8063m-.0426,7.2257 .0243-3.482 2.6054,.0371c.4626,0 .8035,.0359 1.0409,.1516 .3835,.1765 .5722,.5485 .5905,1.0592l.067,1.3696c.0183,.3287 .0244,.5302 .0426,.6635 .0365,.0974 .0548,.2009 .1035,.2745h1.4001l-.0243-.1771c-.1583-.0852-.2861-.249-.3409-.4992-.0487-.1583-.0731-.3957-.0852-.694l-.0243-1.0896c-.0183-.4931-.1035-.8334-.2922-1.0227-.1644-.2191-.3896-.4079-.7366-.5235 .3896-.2064 .6818-.4438 .8948-.7366 .2009-.3226 .3044-.7305 .3044-1.229 0-.9375-.3835-1.5772-1.1627-1.9236-.42-.1887-.9557-.2867-1.5888-.2983l-3.9142-.0371-.0304,8.1814h1.1262"/><path d="m346.14,980.21c-.4992-.6081-.767-1.369-.8279-2.27-.0548-1.1328 .1644-1.9966 .6818-2.5816 .5235-.6331 1.1992-.9369 2.0819-.9855 .8888-.0487 1.6192,.2374 2.161,.7968 .5539,.5485 .8705,1.3094 .9253,2.259 .0304,.9125-.1278,1.7221-.5479,2.4343-.4139,.725-1.1018,1.1329-2.1184,1.1566-1.0592,.0554-1.8506-.1942-2.3558-.8096m-1.3392-5.1499c-.5235,.8096-.7366,1.7471-.6818,2.8799 .0791,1.223 .4566,2.2341 1.1688,2.995 .7914,.7609 1.8384,1.1438 3.1289,1.0708 1.3818-.0609 2.4228-.5844 3.1289-1.5456 .5722-.8705 .8461-1.8816 .7853-3.1295-.0791-1.114-.4018-2.021-1.0044-2.6967-.7609-.907-1.8749-1.3082-3.3846-1.2473-1.4244,.0907-2.4715,.6142-3.1472,1.6734"/><path d="m383.24,963.29c.7853-.1339 1.467-.0968 2.088,.1157 .9131,.2861 1.5279,.9624 1.9114,1.9966l-1.1262,.1583c-.2435-.5594-.5905-.9429-1.0592-1.1566-.4565-.2003-1.0288-.2496-1.6862-.1516-.767,.1157-1.3818,.4986-1.814,1.114-.4261,.6568-.5539,1.534-.3653,2.6535 .1583,.9259 .4992,1.7106 1.0592,2.2341 .5174,.5357 1.2784,.7244 2.2706,.5844 .7427-.1217 1.3392-.4194 1.7592-.9314 .4383-.4864 .5661-1.2236 .42-2.1732l-2.6236,.4024-.1339-.9009 3.6524-.5606 .7122,4.3281-.7244,.1096-.4505-.9983c-.3044,.4511-.6087,.798-.8766,.9983-.4505,.3537-1.0592,.5789-1.8201,.6885-.9862,.1516-1.8871-.025-2.7028-.5485-.8948-.6635-1.4731-1.6497-1.6923-3.0187-.2374-1.3453-.0244-2.4964 .5966-3.4034 .5905-.876 1.4488-1.3873 2.6054-1.5523"/><path d="m391.5,962.66 2.6176-.9496c.3591-.1333 .6696-.1765 .9375-.1455 .4809,.0359 .834,.322 1.0348,.8942 .1887,.487 .1887,.9131-.0243,1.212-.2252,.3098-.5783,.5357-1.0896,.7238l-2.4593,.8827-1.0166-2.6176m2.6176,6.7636-1.2783-3.2811 2.4349-.8772c.4565-.1461 .7731-.2252 1.0105-.2003 .4322,.0542 .7609,.3165 .9801,.8151l.5539,1.2485c.1218,.3098 .2191,.4986 .2983,.5844 .0365,.1096 .1157,.1765 .1765,.249l1.321-.4864-.0731-.1765c-.1948,0-.3835-.1096-.5235-.3232-.1035-.1516-.2009-.3707-.3409-.6264l-.4322-1.0233c-.1948-.4444-.3957-.7177-.627-.8827-.2313-.1278-.5235-.2131-.8705-.2368 .2678-.3111 .4626-.6215 .5357-.9868 .0791-.3707 .0426-.7847-.1339-1.2473-.3348-.8705-.9496-1.3453-1.814-1.4062-.4565-.0365-.9801,.0609-1.5827,.2733l-3.6768,1.3094 2.9706,7.6938 1.0775-.3957"/><path d="m403.69,965.37-4.669-6.8124 5.1256-3.2689 .5661,.8224-4.2003,2.6839 1.4366,2.0819 3.8776-2.4958 .5296,.7975-3.8776,2.4964 1.5827,2.2949 4.2733-2.7338 .5661,.8041-5.2169,3.3298"/><path d="m407.78,953.32 1.3392-1.4731c.6209-.6574 1.2783-.9557 1.9966-.8705 .7183,.0609 1.4488,.4383 2.228,1.1201 .2131,.1644 .4018,.3774 .5966,.6148 .3409,.4444 .5418,.8346 .6696,1.2236 .1096,.4876 .0852,.932-.0852,1.3581-.1035,.2124-.2861,.462-.56,.7609l-1.3453,1.461-4.8394-4.2064m7.0735,3.2074c.9496-1.0464 1.1566-2.1726 .6026-3.4448-.3226-.6885-.8157-1.3581-1.4975-1.9425-.8583-.7609-1.7532-1.1505-2.6967-1.223-1.047-.0797-1.9358,.2983-2.7089,1.1438l-2.2828,2.4471 6.2943,5.4914 2.2828-2.4593"/><path d="m419.73,950.17-7.2439-4.2551 .5905-.9368 7.2561,4.2307-.5966,.9734"/><path d="m422.57,945.23-7.8222-3.1295 2.3071-5.503 .9496,.3652-1.881,4.5351 2.3558,.9259 1.7592-4.1765 .9009,.3719-1.741,4.1698 2.6358,1.0708 1.9297-4.5892 .9496,.3585-2.3497,5.601"/><path d="m426.16,935.62-8.2301-1.8201 .2739-1.2723 7.6031-2.5689-6.6778-1.4731 .2435-.9983 8.2301,1.7708-.2618,1.2357-7.6153,2.6243 6.6778,1.4427-.2374,1.0592"/><path d="m425.51,925.17 .1035-1.0348c.4748,.0128 .8766-.0609 1.181-.2246 .5966-.3232 .9435-.9375 1.0348-1.8451 .0365-.4255 .0183-.7974-.0791-1.1505-.1765-.6812-.56-1.0592-1.1749-1.1201-.4565-.0487-.7853,.0609-1.0227,.3111-.2131,.2861-.4383,.6994-.6087,1.2844l-.3774,1.0775c-.2435,.7055-.4687,1.1925-.7122,1.4664-.3896,.5119-.9375,.6885-1.6375,.6398-.7487-.0791-1.3575-.3774-1.7897-.9496-.4444-.5235-.627-1.2722-.5174-2.1981 .073-.8455 .3531-1.5578 .8522-2.13 .4626-.5235 1.181-.7737 2.1001-.6763l-.0852,1.0348c-.4505,0-.8096,.0791-1.0714,.2618-.4748,.2618-.7366,.8157-.8157,1.6253-.067,.6702 .0243,1.1201 .28,1.4616 .2557,.2861 .5783,.4681 .9557,.4986 .4018,.0365 .7183-.0913 .9375-.4012 .1583-.2137 .347-.6763 .6026-1.425l.3713-1.1322c.1826-.5235 .4018-.9253 .6574-1.2114 .4565-.4748 1.0531-.6757 1.8019-.6203 .9131,.0968 1.5644,.4748 1.8992,1.1688 .3287,.7001 .4565,1.4731 .3774,2.3497-.1035,.9916-.4261,1.7714-1.0227,2.2949-.5966,.5351-1.3392,.7177-2.2401,.6446"/><path d="m254.9,924.67 .1887,1.0221c-.4565,.0913-.8218,.2745-1.0896,.5119-.4809,.4498-.6453,1.1262-.4809,2.0454 .073,.389 .2131,.7725 .3896,1.0775 .3653,.6209 .8401,.8699 1.4427,.7725 .4444-.0791 .7366-.249 .8766-.5655 .1339-.3111 .2313-.7859 .2618-1.394l.0548-1.1511c.0365-.7122 .1157-1.2716 .2739-1.5827 .2496-.56 .7183-.907 1.4184-1.0221 .7487-.1345 1.4062,.0359 1.9723,.462 .5722,.3957 .9496,1.0836 1.0896,1.9966 .1765,.8346 .0974,1.5833-.2313,2.2584-.3165,.658-.9253,1.0592-1.8566,1.2296l-.1826-1.0342c.4322-.1583 .7548-.3111 .9679-.5235 .3652-.4085 .4748-.9983 .3348-1.8079-.1096-.6581-.3348-1.0842-.6757-1.2966-.3348-.2502-.6696-.3476-1.0348-.2861-.4079,.0609-.6757,.2861-.8035,.6513-.0791,.2429-.14,.7481-.1948,1.5218l-.0548,1.1925c-.0304,.56-.1157,1.0233-.3044,1.3398-.2983,.5838-.8035,.9429-1.5401,1.0586-.9314,.1583-1.6497-.0548-2.161-.6513-.5235-.5844-.8461-1.2844-1.0105-2.1549-.1826-1.0348-.0487-1.8384 .3652-2.483 .42-.6635 1.0836-1.047 1.9845-1.1749"/><path d="m254.38,935.46 8.0475-2.4228 1.8749,5.6667-.9801,.3105-1.534-4.6568-2.4471,.7372 1.4184,4.3032-.9375,.2983-1.4062-4.3153-2.7271,.8151 1.5584,4.7603-.9618,.2745-1.9053-5.7708"/><path d="m257.95,945.29 7.4022-3.9257 .7914,1.3812-5.089,5.3812 7.4326-1.2723 .767,1.3703-7.384,3.902-.5235-.9076 4.3585-2.2943c.1583-.0919 .4018-.2258 .7548-.4139 .347-.1583 .7366-.3719 1.1262-.5728l-7.4022,1.2601-.5418-.9618 5.0525-5.363-.2435,.1223c-.1583,.0907-.4322,.2252-.8035,.4377-.3652,.2258-.6392,.3652-.8157,.4383l-4.3464,2.3315-.5357-.9247"/><path d="m271.74,956.19c-.3713-.0846-.7366-.2983-1.0957-.6696l-1.5644-1.6132 2.1062-1.9297 1.5766,1.6077c.3044,.2983 .4992,.5899 .6026,.8401 .1461,.4803 0,.9192-.4444,1.3325-.4018,.3713-.8035,.5235-1.1809,.4322m-5.9473,.7487 2.581-2.368 1.8323,1.8566c.5905,.6027 1.1931,.8766 1.8262,.865 .6453-.0371 1.1992-.2745 1.6862-.7372 .5479-.487 .8096-1.0592 .8096-1.6734-.006-.5972-.28-1.1566-.7853-1.6801l-2.6297-2.6851-6.1239,5.6247 .7914,.7974"/><path d="m273.18,963.51 4.4377-6.9578 5.2473,3.1898-.5479,.8285-4.3098-2.581-1.3331,2.1062 3.9629,2.4039-.5113,.798-3.969-2.3923-1.5097,2.3552 4.3646,2.6243-.5235,.8218-5.3082-3.1965"/><path d="m286.31,962.17 2.6663,.8468c.3774,.115 .6513,.2612 .834,.4261 .3409,.3226 .4322,.7847 .2313,1.3447-.1644,.487-.4139,.8035-.8035,.9381-.347,.0603-.7853,.0603-1.2966-.098l-2.5141-.8029 .8827-2.6547m-2.301,6.8361 1.1079-3.3176 2.4836,.8096c.4444,.1163 .767,.2745 .9253,.4383 .3044,.2739 .3957,.6818 .2435,1.1876l-.3713,1.3203c-.0852,.3226-.1278,.5357-.1644,.6331 0,.1041 0,.2137 .0183,.2861l1.3088,.4261 .0791-.1887c-.14-.1096-.2191-.3098-.2131-.5594 .0304-.1528 .073-.3957 .1583-.6763l.3166-1.0592c.1278-.4626 .1765-.8096 .0609-1.0586-.0974-.2624-.2618-.4998-.5357-.7244 .4139-.0737 .7731-.2015 1.0775-.4267 .2861-.2496 .5296-.5966 .6757-1.0829 .2983-.8833 .1339-1.6198-.5235-2.1799-.3287-.2916-.7975-.5418-1.4123-.7731l-3.7255-1.1499-2.6054,7.7608 1.0896,.3348"/></g><path fill="#bc715f" d="m295.32,827.76c.9618-2.3199 9.8737-8.6446 39.117-5.8749 0,0 4.9429,3.0193 7.8466,2.6303 1.6558-.2137-.974,.1029-3.135-1.6929-2.2036-1.7952-2.6724-5.478 2.3619-5.3806 5.0099,.1278 23.765,1.187 24.118,2.8726 .3287,1.7045-9.9163,2.4167-13.727,2.3193-3.8289-.1029-3.3846,1.8329 .4261,1.6868 11.907-.4261 24.903-4.6209 38.63,5.089 1.6375,1.1803-4.1394,1.369-8.6075-.5302 0,0-12.108,.6276-17.343-.2307 0,0-4.0237,3.2744-9.2649,2.9524 .6818,1.6978-1.9358,8.0353-18.414,3.2683-2.721,.8346-12.637,2.4958-11.554-.4499-2.6115,0-7.1892,.8401-7.8709-.6459-.6574-1.4604 8.0596-3.6707 9.5876-5.2528 0,0-18.439,.1765-21.933-1.0963 0,0-10.878,2.441-10.239,.3232"/><path fill="#008737" d="m301.23,853.58c.3957-.5351 .5539-1.4975 1.394-1.4725 1.8262,.4864 3.068,3.8283 5.3142,1.6612 .7974-.1765 1.1018,.9076 1.7592,1.0354 .42,1.8566 1.9114-.3774 3.0254-.2502 2.3802-1.0592 5.3264-1.3088 8.1449-.7853 .0852,1.8201-1.3392,3.8289-3.1289,4.8638 .0365,1.8329 1.6984,3.0078 1.6679,4.8516-.2861,.6885-.0487,1.7714-1.0896,1.9966-1.321-.2374-2.6236-.3774-3.7194-1.114-.1339-.1339-.2435-.3957-.5235-.3105-.1339,.6148 .8279,1.2242 1.2053,1.8506-.6635,1.1322-1.7653,.0974-2.6906,.1096-.2739,.6513-.0122,1.4731-.6818,1.8932-1.1688-.0365-1.4062-1.3082-2.1245-1.9419-.7366,.7974 .5174,1.2723 .6939,1.9053-.4505,2.3984-.3896,4.742-2.788,6.3126l-1.6071,.798c-.4383-1.2053-.1644-3.0321-.4565-4.2922-.9496,1.5462-1.6923,2.8982-3.0863,4.2064-1.6314-.5357-2.581-2.4593-2.9402-4.0542-.6818-1.8566-.2922-4.0785 1.1749-5.4238-.4992-.974-2.2097-.7487-2.4532-2.136-2.5628-1.6685-3.9811,2.9219-5.6369,.5351-.5357-2.2274 .1035-4.9977 1.7166-6.6596-.3592-.9125-1.5523-.6751-2.2584-1.1986-1.6131-1.3703-3.9385-2.8184-3.8228-5.2905 4.4133-1.6673 9.6911-.4438 12.899,2.9098"/><g fill="#ff0"><path d="m303.52,853.33c-.1035,2.0204 1.3636,.5473 2.4532,1.7708-.8522-.3348-1.4731,1.4731-2.3071,.4383l-.5235,.4998c.3044,.6934 .8948,.7847 .28,1.5456-.9131,.347-1.0957-.7968-1.5218-1.2479-.0731-.2003 .14-.5783-.1948-.7122-.5174,.4383-1.0592,.5966-1.7714,.5241-.1948-.3902-.5722-.9009-.1887-1.1992 .7-.9442 1.7836,.3403 2.3132-.3226 .0852-.5844-.4261-1.2966 .2374-1.699 .4565,.0791 1.0409-.1698 1.2296,.4024"/><path d="m308.98,854.99c.0548,.3902-.2009,.9375 .3105,1.212 .6635-.3598 1.3696-.0858 1.7532,.5722-.006,.3524 .1035,.8151-.3592,.9855l-1.0348-.1942c.073-.2015-.2557-.3287-.3835-.5235-.4565-.14-.7244,.2307-1.0653,.4559 .2557,.3896 .8461,.6027 .7061,1.1024-.6087,.6081-.907-.5235-1.5766-.238-.4566-.1759 .1644-1.1256-.5539-1.4117-.8522,0-.2861,1.3995-1.3757,.8522-.3896-.4389-.7731-1.0288-.3531-1.5218 .4565-.305 1.2296-.2258 1.6192,.1698 .6635-.736 .7305-3.5788 2.3193-1.461"/><path d="m302.18,857.92c.4444,.6398-.0974,1.5097 .4687,2.2219 .8888-1.6612 1.7471,.3591 2.8063,.2009 .3226,.3957 .1096,.9442 .1705,1.394-1.3088,.347-2.8854,.7609-4.042-.2861l-.3226,.3713c.6879,.6398 1.3392,1.3636 .7914,2.4349-.9801,.213-2.4958,.2374-2.9889-.7731-.2557-.8334 .5966-1.436-.3044-2.1062-.6513,.8096-.6209,1.8938-1.9784,1.1566-.8401-.4626-1.0896-1.4178-.6696-2.2219 .8766-1.3818 2.4106,.0432 3.3602-.6331 .1339-1.187-.3044-2.2219 .7853-2.8787 .9314-.165 1.3636,.5351 1.9297,1.1195"/></g><g fill="#fff"><path d="m305.89,858.65c-.4383,2.021-1.9601-.1035-2.6723-.1887 .9496-1.6856 1.5462,.5485 2.6723,.1887"/><path d="m310.63,860.85c-1.0592,.2977-.8948-1.0233-1.4184-1.5407l.4079-.3713c.3835,.4626 .6757,1.2972 1.0105,1.912"/></g><path fill="#ff0" d="m309.2,860.44c.3044,.7-.6879,1.2607 .1583,1.7714 .2679-.2246 .5966-.5357 .7366-.6635 .7244,.2137 1.5644,.3415 2.0697,1.0592 .5418,1.4859-.9618,1.4488-1.814,1.8627l-.8461-.0365c.2009-.4139-.3652-.5905-.5052-.876-.3896-.0974-.7122,.0237-.9314,.3525 .1887,.9441 1.3392,1.6801 .1522,2.5202-1.0044-.0663-2.5628,.3226-2.4715-1.0653-.3774-.7853 1.0227-1.9966-.4748-2.0447-.4931,1.0592-1.0348,2.0813-2.3193,1.0775l.1583-1.5097c1.2296,.0359 2.6845,.249 3.2385-1.1262 .3531-.9983-.6148-1.9175 .2496-2.7089 1.254-.2861 1.9601,.5539 2.5993,1.3873"/><path d="m308.3,862.71c.3166,.7494-.5357,.798-.9375,1.1688-.5418,.0432-.9192-.1704-1.2479-.5357-.2435-.907 .4322-.9983 .9496-1.3569 .6026-.2502 .8522,.4499 1.2357,.7238"/><path fill="#fff" d="m307.56,863.2c-.1339,.1765-.3226,.1223-.5235,.1704l-.1887-.9064c.4018,.0359 .9253,.1638 .7122,.736"/></g></g></svg>