<svg xmlns="http://www.w3.org/2000/svg" viewBox="0 0 640 480"><defs><clipPath id="0"><path d="m0 0h682.67v512h-682.67z"/></clipPath></defs><g clip-path="url(#0)" transform="scale(.9375)"><g fill-rule="evenodd"><path fill="#ed2939" d="m0 0h768v256h-426.67l-341.33-256"/><path fill="#002395" d="m0 512h768v-256h-426.67l-341.33 256"/><path fill="#fff" d="m0 0l341.33 256-341.33 256v-512"/></g><g transform="matrix(1.1464 0 0 1.1461-260.07-773.12)"><path fill="#ff0" d="m377.17 843.11l.091-3.458s-1.857-2.958.298-6.136c0 0-4.578-2.422-3.512-6.215 0 0-4.139-1.059-3.835-5.612 0 0-4.468-.31-4.931-4.114 0 0-4.468.736-6.434-2.971 0 0-4.358.852-5.588-2.204 0 0-4.237 1.468-6.751-2.125 0 0-4.474 1.808-6.349-1.583-1.851 3.379-6.325 1.583-6.325 1.583-2.484 3.579-6.751 2.094-6.751 2.094-1.187 3.068-5.533 2.197-5.533 2.197-1.96 3.708-6.422 2.971-6.422 2.971-.438 3.793-4.9 4.103-4.9 4.103.353 4.566-3.78 5.601-3.78 5.601 1.09 3.792-3.482 6.208-3.482 6.208 2.21 3.197.371 6.131.371 6.131l-.103 3.189 73.949.341"/><path fill="none" stroke="#000" stroke-width=".271" d="m377.17 843.11l.091-3.458s-1.857-2.958.298-6.136c0 0-4.578-2.422-3.512-6.215 0 0-4.139-1.059-3.835-5.612 0 0-4.468-.31-4.931-4.114 0 0-4.468.736-6.434-2.971 0 0-4.358.852-5.588-2.204 0 0-4.237 1.468-6.751-2.125 0 0-4.474 1.808-6.349-1.583-1.851 3.379-6.325 1.583-6.325 1.583-2.484 3.579-6.751 2.094-6.751 2.094-1.187 3.068-5.533 2.197-5.533 2.197-1.96 3.708-6.422 2.971-6.422 2.971-.438 3.793-4.9 4.103-4.9 4.103.353 4.566-3.78 5.601-3.78 5.601 1.09 3.792-3.482 6.208-3.482 6.208 2.21 3.197.371 6.131.371 6.131l-.103 3.189 73.949.341h-.012z"/><path fill="#f00" d="m375.45 838.79c-11.615-1.163-24.989-3.92-35.31 1.894-6.921-4.079-16.558-3.83-24.763-3.03-4.456.797-9.697.797-14.354 1.558l-.731.103c-8.449.561-16.11-1.936-23.455-5.217 2.332 13.234 4.919 26.797 6.191 40.652 2.77 20.52-9.709 37.748-4.59 58.02 3.056 9.727 13.751 15.382 23.54 16.503 9.478.559 19.285 2.112 28.06 4.02 1.668.347 3.646 1.121 4.797 1.619 2.417 1.01 4.188 2.496 5.74 4.085 5.296-5.516 13.06-7.05 20.715-7.859 13.8-1.613 30.814-.736 39.26-13.239v-.707c4.59-6.915 3.981-17.464 1.991-25.299-.134-2.733-.864-5.144-1.26-7.749-8.431-22.268-1.211-47.31 2.417-69.76-4.432 2.423-9.375 3.567-14.305 4.779-3.932.524-8.315.286-12.296.072l-1.65-.444"/><path fill="#80cfe1" d="m392.79 902.7c-.055 1.466.737 2.618 1.023 3.974 1.613 9.734 3.171 22.627-6.848 28.666-11.08 7.05-25.622 4.03-38.448 7.761-2.563.712-6.093 3.069-7.895 4.736-1.157-.761-2.319-1.93-3.811-2.617-10.555-5.612-24.276-3.732-36.19-6.764-5.984-1.893-12.223-6.556-13.739-12.68-3.896-16.07 5.436-29.767 4.334-45.709-.712-12.175-2.758-23.862-5.57-35.28 9.314 4.34 20.09 5.064 30.565 2.983 7.755-1.084 16.783-1.108 24.05 2.173 4.01-1.723 8.693-2.496 13.01-2.971 8.206.798 17.03 2.283 25.476 2.222 5.643-.293 10.769-1.924 15.675-4.097-2.91 18.865-8.498 38.625-1.637 57.6"/><path fill="#fff" d="m376.04 906.46l-.091-17.739h2.185l-27.11-17.513-.049-9.101h2.618l-13.557-9.709-13.49 9.703h2.611l.049 9.09-26.967 17.49 2.155.012.091 17.727 71.55.049"/><path fill="none" stroke="#000" stroke-width="1.164" d="m376.04 906.46l-.091-17.739h2.185l-27.11-17.513-.049-9.101h2.618l-13.557-9.709-13.49 9.703h2.611l.049 9.09-26.967 17.49 2.155.012.091 17.727 71.55.049.006-.013z"/><path fill="#fff" d="m384.38 929.76l.006 5.551-87.35-.097-.036-5.527 87.38.074"/><path fill="none" stroke="#000" stroke-width="1.164" d="m384.38 929.76l.006 5.551-87.35-.097-.036-5.527 87.38.074h-.006z"/><path fill="#fff" d="m302.84 929.43l-.073-18.786 3.536-.007-.195 19 .213-18.852-5.095-.146v-4.03l78.06.086.036 3.993h-4.815l.091 19.02-.17-19.02h3.585l.079 18.809"/><g fill="none" stroke="#000" stroke-width="1.164"><path d="m302.84 929.43l-.073-18.786 3.536-.007-.195 19 .213-18.852-5.095-.146v-4.03l78.06.086.036 3.993h-4.815l.091 19.02-.17-19.02h3.585l.079 18.809"/><path d="m319.62 924.8l-.055-13.1h-10.482l.061 13.09 10.476.013"/><path d="m311.94 914.43l.03 7.609h4.797l-.024-7.609h-4.803"/><path d="m370.86 924.84l-.061-13.09-10.446-.012.049 13.1h10.458"/><path d="m363.18 914.48l.055 7.585h4.791l-.043-7.585h-4.803"/><path d="m370.78 903.51l-.061-13.1h-10.458l.036 13.1h10.488-.006z"/><path d="m363.1 893.16l.03 7.597h4.791l-.006-7.597h-4.815"/><path d="m319.53 903.46l-.073-13.08-10.464-.013.049 13.08h10.488v.007z"/><path d="m311.85 893.11l.024 7.585 4.803.012-.036-7.597h-4.791"/><path d="m338.5 903.48l-.049-13.08-10.47-.012.043 13.09h10.476"/><path d="m330.83 893.13l.024 7.585 4.797.024-.03-7.609h-4.791"/><path d="m353.12 903.51l-.073-13.1-10.464-.012.049 13.09 10.488.025"/><path d="m345.44 893.14l.036 7.609h4.797l-.024-7.609h-4.809"/></g><path fill="#fff" d="m355.72 899.49l.116 30.2-30.333-.049-.11-30.17 30.32.024"/><g fill="none" stroke="#000" stroke-width="1.164"><path d="m355.72 899.49l.116 30.2-30.333-.049-.11-30.17 30.32.024h.006z"/><path d="m325.21 908.11l30.54.024"/><path d="m329.02 929.68l-.103-21.342"/><path d="m352.14 929.69l-.103-21.329"/><path d="m366.79 886.63l-17.08-12.474-19.19-.024-16.947 12.449 53.22.049"/><path d="m331.99 863.8l.03 7.609 16.14.012-.03-7.609-16.14-.012"/><path d="m336.37 865.69l.024 3.792h7.414l-.024-3.792h-7.414"/><path d="m340.04 855.14l8.979 6.348-17.891-.024 8.912-6.325"/></g><path fill="#fff" d="m376.34 850.84c2.551-.061 3.208 10.507 3.214 15.742 2.191.615 7.05 3.671 9.198 6.434l-24.642-.037c2.118-2.726 6.94-5.795 9.113-6.409 0-5.242.536-15.803 3.117-15.742"/><g fill="none" stroke="#000" stroke-width="1.164"><path d="m376.34 850.84c2.551-.061 3.208 10.507 3.214 15.742 2.191.615 7.05 3.671 9.198 6.434l-24.642-.037c2.118-2.726 6.94-5.795 9.113-6.409 0-5.242.536-15.803 3.117-15.742"/><path d="m326.81 900.33h2.21l-.645 1.186s1.065 1.37.018 2.94l.578 1.09h-2.131l.578-1.035s-1.09-1.819.049-2.995l-.657-1.186"/><path d="m331.31 900.33h2.21l-.639 1.186s1.065 1.334.006 2.94l.572 1.09h-2.125l.572-1.035s-1.065-1.819.055-2.995l-.651-1.186"/><path d="m336.23 900.33h2.204l-.657 1.186s1.077 1.37.018 2.94l.578 1.114-2.112-.024.566-1.035s-1.077-1.808.043-2.995l-.645-1.186h.006z"/><path d="m341.77 900.35h2.222l-.651 1.199s1.065 1.346.006 2.922l.597 1.108h-2.143l.572-1.035s-1.065-1.832.073-2.995l-.67-1.199h-.006z"/><path d="m346.7 900.35h2.204l-.651 1.199s1.071 1.346.012 2.916l.584 1.114h-2.125l.554-1.035s-1.071-1.82.085-2.995l-.663-1.199"/><path d="m351.6 900.36l2.204-.012-.651 1.199s1.09 1.346.03 2.922l.554 1.108h-2.131l.572-1.035s-1.065-1.82.073-2.995l-.651-1.187"/></g><path fill="#ff0" d="m340.7 968.4c11.359.037 25.329-2.283 31.873-5.667l14.372-1.273.286 17.538c-12.175 6.714-40.29 8.156-46.47 8.108-6.191.049-34.649-1.418-46.879-8.156l.158-17.55 14.403 1.297c6.544 3.367 20.94 5.704 32.29 5.704h-.03"/><path fill="none" stroke="#000" stroke-width=".271" d="m340.7 968.4c11.359.037 25.329-2.283 31.873-5.667l14.372-1.273.286 17.538c-12.175 6.714-40.29 8.156-46.47 8.108-6.191.049-34.649-1.418-46.879-8.156l.158-17.55 14.403 1.297c6.544 3.367 20.94 5.704 32.29 5.704h-.03"/><path fill="#ff0" d="m256.88 893.59l12.662 4.03-3.829 20.503-11.986 1.862s-2.02-10.781 3.153-26.407"/><path fill="none" stroke="#000" stroke-width=".271" d="m256.88 893.59l12.662 4.03-3.829 20.503-11.986 1.862s-2.02-10.781 3.153-26.407v.012z"/><path fill="#7e7e7e" d="m265.71 917.9l-11.98 2.088 7.579-10.781 4.401 8.693"/><path fill="none" stroke="#000" stroke-width=".271" d="m265.71 917.9l-11.98 2.088 7.579-10.781 4.401 8.693"/><path fill="#ff0" d="m249.31 908.36l12.205.882c.274 10.343 1.528 49.813 48.656 51.956l-1.467 14.36c-57.37.596-61.726-48.41-59.39-67.2"/><g fill="none" stroke="#000" stroke-width=".271"><path d="m249.31 908.36l12.205.882c.274 10.343 1.528 49.813 48.656 51.956l-1.467 14.36c-57.37.596-61.726-48.41-59.39-67.2z"/><path d="m294.11 978.5l14.384-3.141"/></g><path fill="#ff0" d="m423.52 893.74l-12.613 3.993 3.999 20.472 12.01 1.929s1.93-10.774-3.397-26.406"/><path fill="none" stroke="#000" stroke-width=".271" d="m423.52 893.74l-12.613 3.993 3.999 20.472 12.01 1.929s1.93-10.774-3.397-26.406v.012z"/><path fill="#7e7e7e" d="m414.9 917.99l12.01 2.155-7.682-10.786-4.328 8.631"/><path fill="none" stroke="#000" stroke-width=".271" d="m414.9 917.99l12.01 2.155-7.682-10.786-4.328 8.631"/><path fill="#ff0" d="m431.23 908.52l-12.223.835c-.176 10.33-1.077 49.818-48.21 51.912l1.601 14.348c57.36.663 61.3-48.32 58.828-67.1"/><g fill="none" stroke="#000" stroke-width=".271"><path d="m431.23 908.52l-12.223.835c-.176 10.33-1.077 49.818-48.21 51.912l1.601 14.348c57.36.663 61.3-48.32 58.828-67.1v.005z"/><path d="m387.04,978.57-14.42-3.15"/></g><g fill="#009fc5"><path d="m333.07 977.04c-.323.207-.761.262-1.266.237l-2.277-.116.195-2.842 2.258.121c.444.03.797.116 1.017.25.457.237.657.676.615 1.284-.03.524-.213.865-.548 1.065m-3.823 4.475l.225-3.464 2.654.183c.858.067 1.498-.158 1.93-.597.45-.426.682-.986.712-1.619.055-.737-.134-1.34-.572-1.784-.42-.426-1.017-.651-1.765-.724l-3.792-.237-.524 8.156 1.126.074"/><path d="m337.5 974.69l2.776.03c.402.037.718.085.95.195.426.201.627.603.627 1.187 0 .548-.158.914-.469 1.133-.298.2-.731.292-1.248.292l-2.666-.03.024-2.806m-.043 7.226l.024-3.482 2.605.037c.463 0 .803.036 1.041.152.384.177.572.548.591 1.059l.067 1.37c.018.329.024.53.043.663.036.097.055.201.103.274h1.4l-.024-.177c-.158-.085-.286-.249-.341-.499-.049-.158-.073-.396-.085-.694l-.024-1.09c-.018-.493-.103-.833-.292-1.023-.164-.219-.39-.408-.737-.524.39-.206.682-.444.895-.737.201-.323.304-.731.304-1.229 0-.938-.384-1.577-1.163-1.924-.42-.189-.956-.287-1.589-.298l-3.914-.037-.03 8.181h1.126"/><path d="m346.14 980.21c-.499-.608-.767-1.369-.828-2.27-.055-1.133.164-1.997.682-2.582.524-.633 1.199-.937 2.082-.986.889-.049 1.619.237 2.161.797.554.548.87 1.309.925 2.259.03.913-.128 1.722-.548 2.434-.414.725-1.102 1.133-2.118 1.157-1.059.055-1.851-.194-2.356-.81m-1.339-5.15c-.524.81-.737 1.747-.682 2.88.079 1.223.457 2.234 1.169 2.995.791.761 1.838 1.144 3.129 1.071 1.382-.061 2.423-.584 3.129-1.546.572-.87.846-1.882.785-3.13-.079-1.114-.402-2.02-1-2.697-.761-.907-1.875-1.308-3.385-1.247-1.424.091-2.471.614-3.147 1.673"/><path d="m383.24 963.29c.785-.134 1.467-.097 2.088.116.913.286 1.528.962 1.911 1.997l-1.126.158c-.243-.559-.591-.943-1.059-1.157-.457-.2-1.029-.25-1.686-.152-.767.116-1.382.499-1.814 1.114-.426.657-.554 1.534-.365 2.654.158.926.499 1.711 1.059 2.234.517.536 1.278.724 2.271.584.743-.122 1.339-.419 1.759-.931.438-.486.566-1.224.42-2.173l-2.624.402-.134-.901 3.652-.561.712 4.328-.724.11-.45-.998c-.304.451-.609.798-.877.998-.45.354-1.059.579-1.82.688-.986.152-1.887-.025-2.703-.548-.895-.663-1.473-1.65-1.692-3.02-.237-1.345-.024-2.496.597-3.403.591-.876 1.449-1.387 2.605-1.552"/><path d="m391.5 962.66l2.618-.95c.359-.133.67-.177.938-.145.481.036.834.322 1.035.894.189.487.189.913-.024 1.212-.225.31-.578.536-1.09.724l-2.459.883-1.017-2.618m2.618 6.764l-1.278-3.281 2.435-.877c.457-.146.773-.225 1.01-.2.432.054.761.317.98.815l.554 1.249c.122.31.219.499.298.584.036.11.116.177.176.249l1.321-.486-.073-.177c-.195 0-.384-.11-.524-.323-.103-.152-.201-.371-.341-.626l-.432-1.023c-.195-.444-.396-.718-.627-.883-.231-.128-.524-.213-.87-.237.268-.311.463-.621.536-.987.079-.371.043-.785-.134-1.247-.335-.87-.95-1.345-1.814-1.406-.457-.037-.98.061-1.583.273l-3.677 1.309 2.971 7.694 1.077-.396"/><path d="m403.69 965.37l-4.669-6.812 5.126-3.269.566.822-4.2 2.684 1.437 2.082 3.878-2.496.53.798-3.878 2.496 1.583 2.295 4.273-2.734.566.804-5.217 3.33"/><path d="m407.78 953.32l1.339-1.473c.621-.657 1.278-.956 1.997-.87.718.061 1.449.438 2.228 1.12.213.164.402.377.597.615.341.444.542.835.67 1.224.11.488.085.932-.085 1.358-.103.212-.286.462-.56.761l-1.345 1.461-4.839-4.206m7.07 3.207c.95-1.046 1.157-2.173.603-3.445-.323-.688-.816-1.358-1.498-1.942-.858-.761-1.753-1.15-2.697-1.223-1.047-.08-1.936.298-2.709 1.144l-2.283 2.447 6.294 5.491 2.283-2.459"/><path d="m419.73 950.17l-7.244-4.255.591-.937 7.256 4.231-.597.973"/><path d="m422.57 945.23l-7.822-3.13 2.307-5.503.95.365-1.881 4.535 2.356.926 1.759-4.177.901.372-1.741 4.17 2.636 1.071 1.93-4.589.95.359-2.35 5.601"/><path d="m426.16 935.62l-8.23-1.82.274-1.272 7.603-2.569-6.678-1.473.243-.998 8.23 1.771-.262 1.236-7.615 2.624 6.678 1.443-.237 1.059"/><path d="m425.51 925.17l.103-1.035c.475.013.877-.061 1.181-.225.597-.323.943-.938 1.035-1.845.036-.426.018-.797-.079-1.15-.176-.681-.56-1.059-1.175-1.12-.457-.049-.785.061-1.023.311-.213.286-.438.699-.609 1.284l-.377 1.077c-.243.706-.469 1.192-.712 1.466-.39.512-.938.688-1.637.64-.749-.079-1.358-.377-1.79-.95-.444-.524-.627-1.272-.517-2.198.073-.846.353-1.558.852-2.13.463-.524 1.181-.774 2.1-.676l-.085 1.035c-.45 0-.81.079-1.071.262-.475.262-.737.816-.816 1.625-.067.67.024 1.12.28 1.462.256.286.578.468.956.499.402.037.718-.091.938-.401.158-.214.347-.676.603-1.425l.371-1.132c.183-.524.402-.925.657-1.211.457-.475 1.053-.676 1.802-.62.913.097 1.564.475 1.899 1.169.329.7.457 1.473.377 2.35-.103.992-.426 1.771-1.023 2.295-.597.535-1.339.718-2.24.645"/><path d="m254.9 924.67l.189 1.022c-.457.091-.822.274-1.09.512-.481.45-.645 1.126-.481 2.045.073.389.213.773.39 1.077.365.621.84.87 1.443.773.444-.079.737-.249.877-.566.134-.311.231-.786.262-1.394l.055-1.151c.036-.712.116-1.272.274-1.583.25-.56.718-.907 1.418-1.022.749-.135 1.406.036 1.972.462.572.396.95 1.084 1.09 1.997.176.835.097 1.583-.231 2.258-.317.658-.925 1.059-1.857 1.23l-.183-1.034c.432-.158.755-.311.968-.524.365-.409.475-.998.335-1.808-.11-.658-.335-1.084-.676-1.297-.335-.25-.67-.348-1.035-.286-.408.061-.676.286-.803.651-.079.243-.14.748-.195 1.522l-.055 1.192c-.03.56-.116 1.023-.304 1.34-.298.584-.803.943-1.54 1.059-.931.158-1.65-.055-2.161-.651-.524-.584-.846-1.284-1.01-2.155-.183-1.035-.049-1.838.365-2.483.42-.663 1.084-1.047 1.984-1.175"/><path d="m254.38 935.46l8.05-2.423 1.875 5.667-.98.311-1.534-4.657-2.447.737 1.418 4.303-.938.298-1.406-4.315-2.727.815 1.558 4.76-.962.274-1.905-5.771"/><path d="m257.95 945.29l7.402-3.926.791 1.381-5.089 5.381 7.433-1.272.767 1.37-7.384 3.902-.524-.908 4.358-2.294c.158-.092.402-.226.755-.414.347-.158.737-.372 1.126-.573l-7.402 1.26-.542-.962 5.05-5.363-.243.122c-.158.091-.432.225-.803.438-.365.226-.639.365-.816.438l-4.346 2.332-.536-.925"/><path d="m271.74 956.19c-.371-.085-.737-.298-1.096-.67l-1.564-1.613 2.106-1.93 1.577 1.608c.304.298.499.59.603.84.146.48 0 .919-.444 1.332-.402.371-.803.524-1.181.432m-5.947.749l2.581-2.368 1.832 1.857c.591.603 1.193.877 1.826.865.645-.037 1.199-.274 1.686-.737.548-.487.81-1.059.81-1.673-.006-.597-.28-1.157-.785-1.68l-2.63-2.685-6.124 5.625.791.797"/><path d="m273.18 963.51l4.438-6.958 5.247 3.19-.548.828-4.31-2.581-1.333 2.106 3.963 2.404-.511.798-3.969-2.392-1.51 2.355 4.365 2.624-.524.822-5.308-3.197"/><path d="m286.31 962.17l2.666.847c.377.115.651.261.834.426.341.323.432.785.231 1.345-.164.487-.414.803-.803.938-.347.06-.785.06-1.297-.098l-2.514-.803.883-2.655m-2.301 6.836l1.108-3.318 2.484.81c.444.116.767.274.925.438.304.274.396.682.243 1.188l-.371 1.32c-.085.323-.128.536-.164.633 0 .104 0 .214.018.286l1.309.426.079-.189c-.14-.11-.219-.31-.213-.559.03-.153.073-.396.158-.676l.317-1.059c.128-.463.176-.81.061-1.059-.097-.262-.262-.5-.536-.724.414-.074.773-.202 1.077-.427.286-.25.53-.597.676-1.083.298-.883.134-1.62-.524-2.18-.329-.292-.798-.542-1.412-.773l-3.726-1.15-2.605 7.761 1.09.335"/></g><path fill="#bc715f" d="m295.32 827.76c.962-2.32 9.874-8.645 39.12-5.875 0 0 4.943 3.02 7.847 2.63 1.656-.214-.974.103-3.135-1.693-2.204-1.795-2.672-5.478 2.362-5.381 5.01.128 23.765 1.187 24.12 2.873.329 1.705-9.916 2.417-13.727 2.319-3.829-.103-3.385 1.833.426 1.687 11.907-.426 24.903-4.621 38.63 5.089 1.637 1.18-4.139 1.369-8.608-.53 0 0-12.11.628-17.343-.231 0 0-4.02 3.274-9.265 2.952.682 1.698-1.936 8.04-18.414 3.268-2.721.835-12.637 2.496-11.554-.45-2.611 0-7.189.84-7.871-.646-.657-1.46 8.06-3.671 9.588-5.253 0 0-18.439.177-21.933-1.096 0 0-10.878 2.441-10.239.323"/><path fill="#008737" d="m301.23 853.58c.396-.535.554-1.497 1.394-1.472 1.826.486 3.068 3.828 5.314 1.661.797-.177 1.102.908 1.759 1.035.42 1.857 1.911-.377 3.03-.25 2.38-1.059 5.326-1.309 8.145-.785.085 1.82-1.339 3.829-3.129 4.864.036 1.833 1.698 3.01 1.668 4.852-.286.688-.049 1.771-1.09 1.997-1.321-.237-2.624-.377-3.719-1.114-.134-.134-.243-.396-.524-.311-.134.615.828 1.224 1.205 1.851-.663 1.132-1.765.097-2.691.11-.274.651-.012 1.473-.682 1.893-1.169-.037-1.406-1.308-2.125-1.942-.737.797.517 1.272.694 1.905-.45 2.398-.39 4.742-2.788 6.313l-1.607.798c-.438-1.205-.164-3.03-.457-4.292-.95 1.546-1.692 2.898-3.086 4.206-1.631-.536-2.581-2.459-2.94-4.054-.682-1.857-.292-4.078 1.175-5.424-.499-.974-2.21-.749-2.453-2.136-2.563-1.668-3.981 2.922-5.637.535-.536-2.227.103-4.998 1.717-6.66-.359-.913-1.552-.675-2.258-1.199-1.613-1.37-3.938-2.818-3.823-5.29 4.413-1.667 9.691-.444 12.899 2.91"/><g fill="#ff0"><path d="m303.52 853.33c-.103 2.02 1.364.547 2.453 1.771-.852-.335-1.473 1.473-2.307.438l-.524.5c.304.693.895.785.28 1.546-.913.347-1.096-.797-1.522-1.248-.073-.2.14-.578-.195-.712-.517.438-1.059.597-1.771.524-.195-.39-.572-.901-.189-1.199.7-.944 1.784.34 2.313-.323.085-.584-.426-1.297.237-1.699.457.079 1.041-.17 1.23.402"/><path d="m308.98 854.99c.055.39-.201.938.31 1.212.663-.36 1.37-.086 1.753.572-.006.352.103.815-.359.986l-1.035-.194c.073-.202-.256-.329-.384-.524-.457-.14-.724.231-1.065.456.256.39.846.603.706 1.102-.609.608-.907-.524-1.577-.238-.457-.176.164-1.126-.554-1.412-.852 0-.286 1.399-1.376.852-.39-.439-.773-1.029-.353-1.522.457-.305 1.23-.226 1.619.17.663-.736.731-3.579 2.319-1.461"/><path d="m302.18 857.92c.444.64-.097 1.51.469 2.222.889-1.661 1.747.359 2.806.201.323.396.11.944.171 1.394-1.309.347-2.885.761-4.04-.286l-.323.371c.688.64 1.339 1.364.791 2.435-.98.213-2.496.237-2.989-.773-.256-.833.597-1.436-.304-2.106-.651.81-.621 1.894-1.978 1.157-.84-.463-1.09-1.418-.67-2.222.877-1.382 2.411.043 3.36-.633.134-1.187-.304-2.222.785-2.879.931-.165 1.364.535 1.93 1.12"/></g><g fill="#fff"><path d="m305.89 858.65c-.438 2.02-1.96-.104-2.672-.189.95-1.686 1.546.548 2.672.189"/><path d="m310.63 860.85c-1.059.298-.895-1.023-1.418-1.541l.408-.371c.384.463.676 1.297 1.01 1.912"/></g><path fill="#ff0" d="m309.2 860.44c.304.7-.688 1.261.158 1.771.268-.225.597-.536.737-.663.724.214 1.564.341 2.07 1.059.542 1.486-.962 1.449-1.814 1.863l-.846-.037c.201-.414-.365-.591-.505-.876-.39-.097-.712.024-.931.352.189.944 1.339 1.68.152 2.52-1-.066-2.563.323-2.471-1.065-.377-.785 1.023-1.997-.475-2.045-.493 1.059-1.035 2.081-2.319 1.077l.158-1.51c1.23.036 2.685.249 3.238-1.126.353-.998-.615-1.918.25-2.709 1.254-.286 1.96.554 2.599 1.387"/><path d="m308.3 862.71c.317.749-.536.798-.938 1.169-.542.043-.919-.17-1.248-.536-.243-.907.432-.998.95-1.357.603-.25.852.45 1.236.724"/><path fill="#fff" d="m307.56 863.2c-.134.177-.323.122-.524.17l-.189-.906c.402.036.925.164.712.736"/></g></g></svg>