<svg xmlns="http://www.w3.org/2000/svg" viewBox="0 0 640 480"><g fill-rule="evenodd"><g transform="scale(1.3333 1)"><path fill="#3b5aa3" stroke-width="1.25" d="M 0,0 H479.91 V480 H0 z"/><path fill="#e2ae57" d="m0 467.08l479.94-467.08-.02 86.92-479.92 393.08v-12.92"/><path fill="#fff" d="m16.798 479.98l463.2-300.76-.1-95.48-479.9 396.26 16.798-.02z"/></g><path fill="#fff" d="m175.32 15.16l-6.315 102.79-27.01-65.55 10.361 69.775-41.83-56.38 27.42 64.34-54.935-42.616 42.765 53.55-62.1-27.52 54.39 41.19-67.65-8.95 63.931 25.34-100.35 9.18 100.59 6.723-63.742 26.21 66.972-9.06-54.2 40.02 62.891-27.595-42.896 53.99 54.57-41.32-27.04 62.889 43.684-54.69-11.824 68.17 27.478-63.7 6.211 100.63 9.69-100.38 23.692 64.09-9.03-69.06 43.47 54.738-28.561-63.93 54.55 43.996-43.37-54.929 64.834 26.994-57.38-41.902 69.878 11.78-66.896-25.694 104.05-6.461-104.05-9.69 68.49-22.828-70.972 8.914 58.64-40.996-66.09 26.586 45.644-55.33-55.58 43.41 26.746-66.41-43.15 56.47 9.267-70.43-25.665 66.45-9.587-102.79z"/></g></svg>