<svg xmlns="http://www.w3.org/2000/svg" viewBox="0 0 640 480"><defs><clipPath id="0"><path d="m-85.69-1.46h684.61v513.46h-684.61z"/></clipPath></defs><g fill-rule="evenodd" clip-path="url(#0)" transform="matrix(.93483 0 0 .93483 80.1 1.365)"><path fill="#ed3d00" d="m-126.62-.364h767.07v512h-767.07z"/><g fill="#ffd100"><path d="m-126.59 200.87l.156 109.9 385.87-54.964-386.03-54.936z"/><path d="m-128 512l159.3-.3 228.68-257.41-387.98 257.71"/><path d="m311.72 511.64l-109.9-.103 54.964-253.87 54.936 253.97z"/><path d="m641.24-1.46l-159.3.305-228.69 259.45 387.99-259.75z"/><path d="m201.52 0l109.9.103-54.97 253.87-54.93-253.97z"/><path d="m640.5 511.64l-159.3-.31-228.69-257.41 387.99 257.72"/><path d="m640.5 200.87l-.16 109.9-385.87-54.97 386.03-54.93"/><path d="m-126.96 0l159.3.302 228.69 257.41-387.99-257.71z"/></g><path fill="#ed3d00" d="m517.42 231.14c0 54.866-43.551 99.35-97.27 99.35-53.723 0-97.27-44.48-97.27-99.34 0-54.866 43.551-99.34 97.27-99.34 53.723 0 97.27 44.48 97.27 99.34" transform="matrix(.92167 0 0 .88098-130.46 52.18)"/><path fill="#ffd100" d="m517.42 231.14c0 54.866-43.551 99.35-97.27 99.35-53.723 0-97.27-44.48-97.27-99.34 0-54.866 43.551-99.34 97.27-99.34 53.723 0 97.27 44.48 97.27 99.34" transform="matrix(.85052 0 0 .8276-100.57 64.52)"/></g></svg>