<svg xmlns="http://www.w3.org/2000/svg" viewBox="0 0 640 480"><defs><clipPath id="clipPath9181" clipPathUnits="userSpaceOnUse"><path fill-opacity=".67" d="m-85.687-1.4601h684.61v513.4601h-684.61z"/></clipPath></defs><g fill-rule="evenodd" clip-path="url(#clipPath9181)" transform="matrix(.93483 0 0 .93483 80.104 1.3649)"><path fill="#ed3d00" d="m-126.62-.3642h767.07v512.0002h-767.07z"/><g fill="#ffd100"><path d="m-126.59,200.87 .1561,109.9 385.87-54.964-386.03-54.936z"/><path d="m-128,512 159.3-.3 228.68-257.41-387.98,257.71z"/><path d="m311.72,511.64-109.9-.1027 54.964-253.87 54.936,253.97z"/><path d="m641.24-1.4601-159.3,.3046-228.69,259.45 387.99-259.75z"/><path d="m201.52-0 109.9,.1027-54.97,253.87-54.93-253.97z"/><path d="m640.5,511.64-159.3-.31-228.69-257.41 387.99,257.72z"/><path d="m640.5,200.87-.16,109.9-385.87-54.97 386.03-54.93z"/><path d="m-126.96,0 159.3,.3022 228.69,257.41-387.99-257.71z"/></g><path fill="#ed3d00" d="m517.42,231.14c0,54.866-43.551,99.345-97.275,99.345-53.723,0-97.275-44.478-97.275-99.345 0-54.866 43.551-99.345 97.275-99.345 53.723,0 97.275,44.478 97.275,99.345z" transform="matrix(.92167 0 0 .88098 -130.46 52.184)"/><path fill="#ffd100" d="m517.42,231.14c0,54.866-43.551,99.345-97.275,99.345-53.723,0-97.275-44.478-97.275-99.345 0-54.866 43.551-99.345 97.275-99.345 53.723,0 97.275,44.478 97.275,99.345z" transform="matrix(.85052 0 0 .8276 -100.57 64.523)"/></g></svg>