<svg width="640" xmlns="http://www.w3.org/2000/svg" height="480" viewBox="0 0 6.4 4.8" xmlns:xlink="http://www.w3.org/1999/xlink"><defs><g id="1"><use width="18" height="12" xlink:href="#2" transform="matrix(-.80902-.58779.58779-.80902 0 0)"/><use width="18" height="12" xlink:href="#2" transform="matrix(.30902-.95106.95106.30902 0 0)"/><use width="18" height="12" xlink:href="#2"/><use width="18" height="12" xlink:href="#2" transform="matrix(.30902.95106-.95106.30902 0 0)"/><use width="18" height="12" xlink:href="#2" transform="matrix(-.80902.58779-.58779-.80902 0 0)"/></g><path fill="#fff" id="2" d="m0-.5l.163.5h-.325z" transform="scale(8.844)"/><clipPath id="0"><path d="m1-7.2h16v12h-16z"/></clipPath></defs><g clip-path="url(#0)" transform="matrix(.4 0 0 .4-.4 2.88)"><path fill="#fecb00" d="m0-7.2h18v6h-18z"/><path fill="#ea2839" d="m0-1.2h18v6h-18z"/><path fill="#34b233" d="m0-3.2h18v4h-18z"/><use width="18" x="9" y="6.422" height="12" xlink:href="#1" transform="translate(0-7.2)"/></g></svg>