<svg width="640" xmlns="http://www.w3.org/2000/svg" height="480" viewBox="0 0 6.4 4.8" xmlns:xlink="http://www.w3.org/1999/xlink"><defs><clipPath id="clipPath3013" clipPathUnits="userSpaceOnUse"><path d="m1-7.2h16v12h-16z"/></clipPath><g id="star"><use width="18" height="12" xlink:href="#pt" transform="matrix(-.80902 -.58779 .58779 -.80902 0 0)"/><use width="18" height="12" xlink:href="#pt" transform="matrix(.30902 -.95106 .95106 .30902 0 0)"/><use width="18" height="12" xlink:href="#pt"/><use width="18" height="12" xlink:href="#pt" transform="rotate(72)"/><use width="18" height="12" xlink:href="#pt" transform="rotate(144)"/></g><path fill="#fff" id="pt" d="m0-.5 .1625,.5-.325,0z" transform="scale(8.844)"/></defs><g clip-path="url(#clipPath3013)" transform="matrix(.4 0 0 .4 -.4 2.88)"><path fill="#fecb00" d="m0-7.2h18v6h-18z"/><path fill="#ea2839" d="m0-1.2h18v6h-18z"/><path fill="#34b233" d="m0-3.2h18v4h-18z"/><use width="18" x="9" y="6.422" height="12" xlink:href="#star" transform="translate(0 -7.2)"/></g></svg>