<svg xmlns="http://www.w3.org/2000/svg" viewBox="0 0 640 480"><defs><clipPath id="clipPath8657" clipPathUnits="userSpaceOnUse"><path fill-opacity=".67" d="m-88,32h640v480h-640z"/></clipPath></defs><g fill-rule="evenodd" clip-path="url(#clipPath8657)" transform="translate(88 -32)"><path fill="#199d00" d="m-128,32h720v480h-720z"/><g stroke-width="1.25"><path fill="#feffff" stroke-linejoin="round" d="m230.79,300.78c-11.285,7.8571-23.091,14.804-34.377,22.661-14.142,1.0005-27.856,1.1428-42.426,.4287 0,0-30.427-5.1419-38.141-18.427-.4287-1.286 9.8562-6.0002 9.8562-6.0002 15.571,11 32.856,20.714 65.14,19.286-39.855-3.5715-66.854-25.57-74.996-45.855 21.57-15.142 57.283-14.857 86.567,5.9992-9.1421-11.428-39.712-24.141-62.568-20.57-3.286-3.4292-6.1424-7.7148-9.4285-11.143 26.284-5.857 62.855,11 76.282,24.856-14.142-22.713-24.428-48.426-7.7139-79.711 3.2851,3.1428 6.9998,6.2856 10.285,9.4285-12.57,22.998-7.9993,49.855 2.1433,68.567-17.571-36.284-3.4292-72.139 19.712-89.567 26.999,16.285 34.713,59.569 18.857,90.425 8.9989-5.1429 16.285-43.713 3.8569-69.426 2.8574-3.4283 5.7138-6.8566 8.5712-10.285 18.714,25.284 7.4284,65.996-8.1425,81.424 11.856-10.286 42.568-30.427 78.425-25.713-2.8574,3.4283-7.4284,6.4279-10.286,9.8562-29.427-1.1428-53.282,11.428-63.853,22.284 25.856-17.141 61.568-25.714 87.852-6.4279-12.142,32.427-46.57,42.141-74.996,44.997 24.141,1.8568 46.57-5.2851 64.711-17.999 3.4283,1.8569 6.8566,3.7147 10.285,5.5716-7.7139,7.2852-18.856,14.57-34.712,16.713-15.285,2.0001-29.713,1.4292-44.997,1.7146-11.856-7.7139-24.05-15.376-35.906-23.089z"/><path fill="#fff" d="m230.79,308.36-29.394,22.121-78.787-.3029c.9676,3.1748 3.9798,7.232 5.7573,9.0908l78.182,.3038 24.243-18.788 23.333,18.484h79.091c2.2729-2.4239 4.6968-5.7573 6.8178-8.636l-80.152,.1519-29.09-22.425z"/></g><g fill="#fff" stroke-linejoin="round"><path stroke-width="1.19" d="m185.64,384.34c22.627,11.168 70.708,10.252 92.425-.2738l-92.425,.2738z"/><g stroke-width="1.25"><path d="m133.6,346.85c.9096,0 194.31-.1519 194.31-.1519-3.3838,3.8386-7.3742,7.98-11.516,11.515l-172.84-.7567c-3.2444-2.2497-7.56-7.499-9.9471-10.606z"/><path d="m146.95,360.79 166.87,.4558c-3.1312,2.4239-5.6557,5.3026-9.2417,7.1207l-148.33-.1258c-3.4244-1.8404-6.9369-4.9668-9.2901-7.4507z"/></g><path stroke-width="1.312" d="m162.15,373.21 136.36-.3329c-3.6363,2.3349-7.7274,4.8216-12.272,7.0056h-111.82c-3.7882-1.315-8.1822-4.1453-12.272-6.6727z"/></g><g fill="#feb700" stroke-width="1.25"><path d="m205.58,128.74-10.01-6.85-9.91,7.01 3.42-11.64-9.72-7.25 12.12-.35 3.89-11.495 4.08,11.425 12.13,.15-9.6,7.41z" transform="matrix(.67029 .26243 -.26243 .67029 199.1 40.067)"/><path d="m205.58,128.74-10.01-6.85-9.91,7.01 3.42-11.64-9.72-7.25 12.12-.35 3.89-11.495 4.08,11.425 12.13,.15-9.6,7.41z" transform="matrix(.97279 0 0 .97279 41.481 44.793)"/><path d="m205.58,128.74-10.01-6.85-9.91,7.01 3.42-11.64-9.72-7.25 12.12-.35 3.89-11.495 4.08,11.425 12.13,.15-9.6,7.41z" transform="matrix(.70551 -.14287 .14287 .70551 180.56 166.7)"/><path d="m205.58,128.74-10.01-6.85-9.91,7.01 3.42-11.64-9.72-7.25 12.12-.35 3.89-11.495 4.08,11.425 12.13,.15-9.6,7.41z" transform="matrix(-.67029 .26243 .26243 .67029 262.73 39.932)"/><path d="m205.58,128.74-10.01-6.85-9.91,7.01 3.42-11.64-9.72-7.25 12.12-.35 3.89-11.495 4.08,11.425 12.13,.15-9.6,7.41z" transform="matrix(-.70551 -.14287 -.14287 .70551 279.36 166.39)"/></g></g></svg>