<svg xmlns="http://www.w3.org/2000/svg" viewBox="0 0 640 480" xmlns:xlink="http://www.w3.org/1999/xlink"><defs><path id="1" d="m205.58 128.74l-10.01-6.85-9.91 7.01 3.42-11.64-9.72-7.25 12.12-.35 3.89-11.495 4.08 11.425 12.13.15-9.6 7.41z"/><clipPath id="0"><path d="m-88 32h640v480h-640z"/></clipPath></defs><g fill-rule="evenodd" clip-path="url(#0)" transform="translate(88-32)"><path fill="#199d00" d="m-128 32h720v480h-720z"/><g stroke-width="1.25"><path fill="#feffff" stroke-linejoin="round" d="m230.79 300.78c-11.285 7.857-23.09 14.804-34.377 22.661-14.14 1-27.856 1.143-42.43.429 0 0-30.427-5.142-38.14-18.427-.429-1.286 9.856-6 9.856-6 15.571 11 32.856 20.714 65.14 19.286-39.855-3.572-66.854-25.57-74.996-45.855 21.57-15.14 57.28-14.857 86.57 5.999-9.142-11.428-39.712-24.14-62.57-20.57-3.286-3.429-6.142-7.715-9.428-11.143 26.28-5.857 62.855 11 76.28 24.856-14.14-22.713-24.428-48.43-7.714-79.71 3.285 3.143 7 6.286 10.285 9.428-12.57 22.998-7.999 49.855 2.143 68.57-17.571-36.28-3.429-72.14 19.712-89.57 26.999 16.285 34.713 59.57 18.857 90.43 8.999-5.143 16.285-43.713 3.857-69.43 2.857-3.428 5.714-6.857 8.571-10.285 18.714 25.284 7.428 65.996-8.143 81.42 11.856-10.286 42.568-30.427 78.42-25.713-2.857 3.428-7.428 6.428-10.286 9.856-29.427-1.143-53.28 11.428-63.853 22.284 25.856-17.14 61.57-25.714 87.85-6.428-12.142 32.427-46.57 42.14-74.996 44.997 24.14 1.857 46.57-5.285 64.711-17.999 3.428 1.857 6.857 3.715 10.285 5.572-7.714 7.285-18.856 14.57-34.712 16.713-15.285 2-29.713 1.429-44.997 1.715-11.856-7.714-24.05-15.376-35.906-23.09z"/><path fill="#fff" d="m230.79 308.36l-29.394 22.12-78.79-.303c.968 3.175 3.98 7.232 5.757 9.09l78.18.304 24.24-18.788 23.333 18.484h79.09c2.273-2.424 4.697-5.757 6.818-8.636l-80.15.152-29.09-22.425z"/></g><g fill="#fff" stroke-linejoin="round"><path stroke-width="1.19" d="m185.64 384.34c22.627 11.168 70.71 10.252 92.43-.274l-92.43.274"/><g stroke-width="1.25"><path d="m133.6 346.85c.91 0 194.31-.152 194.31-.152-3.384 3.839-7.374 7.98-11.516 11.515l-172.84-.757c-3.244-2.25-7.56-7.499-9.947-10.606z"/><path d="m146.95 360.79l166.87.456c-3.131 2.424-5.656 5.303-9.242 7.121l-148.33-.126c-3.424-1.84-6.937-4.967-9.29-7.451z"/></g><path stroke-width="1.312" d="m162.15 373.21l136.36-.333c-3.636 2.335-7.727 4.822-12.272 7.01h-111.82c-3.788-1.315-8.182-4.145-12.272-6.673z"/></g><g fill="#feb700" stroke-width="1.25"><use transform="matrix(.67029.26243-.26243.67029 199.1 40.07)" xlink:href="#1"/><use transform="matrix(.97279 0 0 .97279 41.481 44.793)" xlink:href="#1"/><use transform="matrix(.70551-.14287.14287.70551 180.56 166.7)" xlink:href="#1"/><use transform="matrix(-.67029.26243.26243.67029 262.73 39.932)" xlink:href="#1"/><use transform="matrix(-.70551-.14287-.14287.70551 279.36 166.39)" xlink:href="#1"/></g></g></svg>