<svg xmlns="http://www.w3.org/2000/svg" viewBox="0 0 640 480" xmlns:xlink="http://www.w3.org/1999/xlink"><defs><path id="0" d="m232.84 119.03c.002-2.109-.794-4.058-2.087-5.114-1.293-1.055-2.887-1.055-4.18 0s-2.089 3-2.087 5.114c-.002 2.109.794 4.058 2.087 5.114 1.293 1.055 2.887 1.055 4.18 0s2.089-3 2.087-5.114"/><clipPath id="1"><path d="m0 0h640v480h-640z"/></clipPath></defs><g clip-path="url(#1)"><path fill="#0071bc" fill-rule="evenodd" d="m-160 0h960v480h-960z"/><g transform="matrix(.87024 0 0 .87024-111.69 24.15)"><g fill-rule="evenodd"><g stroke="#000" stroke-width="2.134"><path fill="#fff" d="m553.43 392.43s17.493-18.502 34.31-14.97c5.05-19.511 24.05-21.02 24.05-21.02s-1.85-21.53 22.539-26.24c.673-14.634 15.475-26.744 15.475-26.744s-3.03-22.707 12.447-27.921c-9.419-17.998 3.196-31.12 3.03-31.454-.168-.336-15.979-28.426-1.85-36.5-14.97-12.615-10.09-26.912-10.09-26.912s-16.316-4.205-10.429-23.717c-13.456-2.355-16.15-24.05-16.15-24.05s-20.689 4.205-23.21-13.793c-13.624 2.187-15.14-11.269-15.306-11.269-.168 0-27.08 7.233-32.463-13.12-10.428 5.383-14.97-4.205-14.97-4.205s-14.97 7.401-23.885-6.896c-17.829 11.1-27.753-.505-27.753-.505s-23.38 15.475-31.12 3.532c-13.793 13.961-26.07 7.906-26.07 7.906s-10.429 18.502-27.25 13.792c-3.869 17.16-23.21 17.493-23.21 17.493s2.02 15.14-21.19 19.18c-3.03 17.829-15.14 20.857-15.14 20.857s1.177 17.325-9.756 22.875c3.869 9.756-6.224 21.698-6.224 21.698s10.765 13.456-3.869 28.594c14.13 3.7 3.869 28.09 3.869 28.09s19.511 8.747 7.233 24.894c13.961 4.541 9.587 15.643 9.756 22.2 8.915 4.04 16.82 2.02 12.952 20.02 27.417 3.03 14.465 18.17 14.465 18.17s12.783.505 7.737 10.597c23.38-.505 26.744 17.493 26.744 17.493s21.698-5.719 24.558 2.691c2.859 8.41-9.419 65.09-9.419 65.09s-18.334 0-31.958-14.633c-31.958-.841-24.894-21.866-25.399-21.866-.505 0-10.597 3.869-15.811-13.624-21.362 4.373-20.689-13.624-20.857-13.792-.168-.168-9.587-4.373-6.06-13.288-22.03 2.02-20.352-19.511-20.352-19.511-4.822-1.962-6.616-6.448-5.887-10.933-2.859-1.01-22.371-1.346-12.279-27.08-18.67-11.27-7.06-24.22-7.06-24.22s-25.735-13.288-5.887-28.594c-14.802-21.866 1.177-32.799 1.177-32.799s-20.521-20.857.336-35.659c-3.364-31.622 15.475-39.19 15.475-39.19s-9.924-25.735 16.988-36.5c1.682-26.07 20.521-26.744 20.521-26.744s.505-20.689 30.11-18.67c5.719-18.502 25.903-14.802 25.903-14.802s6.224-22.371 33.64-11.606c13.961-27.25 34.65-13.288 34.65-13.288s13.12-8.578 19.68-5.887c8.33-14.315 26.06-.555 37.529 2.215 4.156-1.616 18.987-12.812 30.425 1.317 15.14-9.924 28.09 7.905 28.09 7.905s20.857-10.596 30.613 13.624c44.24-4.04 37.845 24.894 37.845 24.894s34.818-7.906 27.25 26.744c31.622 2.187 28.426 23.04 28.426 23.04s20.02 15.14 11.269 28.762c17.829.841 11.269 17.998 11.269 17.998s13.624 5.214 2.355 26.408c26.07 20.857 5.05 41.546 4.878 41.38-.168-.168 13.961 16.82 1.177 36.33 3.869 30.949-11.774 38.855-11.774 38.855s4.04 20.02-13.456 25.735c-.336 23.548-22.539 26.408-22.539 26.408s5.887 10.229-16.15 20.994c-.869 15.757-23.885 17.02-23.885 17.02s-2.187 28.931-31.454 21.19c-7.103 23.21-41.38 16.316-42.05 15.979-.673-.337-6.56-49.788-6.56-49.956z"/><g fill="#217900" stroke-linejoin="round"><path d="m340.86 114.83c.086 0 7.418 6.359 6.05 15.944-1.369 9.584-6.904 22.908-5.792 32.834.68 3.979.423 11.11.423 11.11s-6.647-9.445-6.733-19.543 7.198-19.686 7.198-27.13-1.316-13.385-1.144-13.214z"/><path d="m337.22 117.69s-9.622 9.185-10.861 18.11c-.915 4.601-1.27 26.04-1.378 35.556-.216 2.919-1.426 14.444-1.683 18.637-.257 4.193 7.078-7.158 7.497-16.4-.229-9.567-.23-29.717.743-32.745.865-3.893.677-8.194 2.01-12.1 1.771-5.418 3.753-10.976 3.667-11.06z"/></g></g><g fill="#ffd200" stroke="#ef8a10" transform="matrix(1.9196 0 0 1.9196 249.65 5.172)"><path stroke-width="1.112" d="m155.88 42.98s6.499-2.998 8.356-8.581-5.624-5.637-6.613-3.862c-.988 1.775.843 6.193.371 7.361-.472 1.168-3.116 3.988-2.115 5.082z"/><g stroke-width="1.39"><path d="m98.28 45.02s4.219-5.781 3.125-11.563c-1.094-5.781-7.656-2.188-7.656-.156 0 2.031 3.75 5 3.906 6.25.156 1.25-.781 5 .625 5.469z"/><path d="m86.88 48.45s4.219-5.781 3.125-11.563c-1.094-5.781-7.656-2.188-7.656-.156 0 2.031 3.75 5 3.906 6.25.156 1.25-.781 5 .625 5.469z"/><path d="m74.22 52.36s4.219-5.781 3.125-11.563c-1.094-5.781-7.656-2.188-7.656-.156 0 2.031 3.75 5 3.906 6.25.156 1.25-.781 5 .625 5.469z"/><path d="m65.31 61.27s4.219-5.781 3.125-11.563c-1.094-5.781-7.656-2.188-7.656-.156 0 2.031 3.75 5 3.906 6.25.156 1.25-.781 5 .625 5.469z"/><path d="m55.938 69.861s4.219-5.781 3.125-11.563c-1.094-5.781-7.656-2.188-7.656-.156 0 2.031 3.75 5 3.906 6.25.156 1.25-.781 5 .625 5.469z"/></g><g stroke-width="1.112"><path d="m77.49 19.798s-5.618 4.434-6.119 10.296c-.501 5.862 6.786 4.166 7.332 2.21.546-1.956-2.267-5.824-2.082-7.07.186-1.246 2.097-4.606.869-5.435z"/><path d="m96.24 14.02s-5.618 4.434-6.119 10.296c-.501 5.862 6.786 4.166 7.332 2.209.546-1.956-2.267-5.824-2.082-7.07.186-1.246 2.097-4.606.869-5.435z"/><path d="m26.37 64.63s1.187 7.06 6.086 10.316c4.9 3.258 6.915-3.947 5.462-5.367s-6.197-.812-7.2-1.574c-1-.762-3.03-4.053-4.348-3.375z"/><path d="m17.01 88.6s.058 7.157 4.382 11.147c4.324 3.99 7.452-2.807 6.241-4.438s-5.991-1.78-6.862-2.691c-.87-.911-2.353-4.481-3.761-4.02z"/><path d="m38.61 115.37s-2.554-6.686-8-8.914c-5.445-2.228-6 5.233-4.298 6.338 1.704 1.105 6.236-.425 7.369.124 1.134.549 3.77 3.376 4.928 2.452z"/><path d="m34.12 103.8s4.331-5.698 3.35-11.5c-.981-5.801-7.612-2.336-7.652-.305-.04 2.031 3.652 5.072 3.784 6.325.132 1.253-.878 4.984.518 5.48z"/><path d="m169.16 48.761s6.499-2.998 8.356-8.581-5.624-5.637-6.613-3.862c-.988 1.775.843 6.193.371 7.361-.472 1.168-3.116 3.988-2.115 5.082z"/><path d="m188.81 58.56s3.823-6.05 2.345-11.746c-1.478-5.695-7.785-1.671-7.65.356.136 2.027 4.076 4.738 4.316 5.975.239 1.237-.445 5.04.989 5.415z"/><path d="m242.45 114.25s-2.564-6.682-8.01-8.903c-5.449-2.221-5.995 5.241-4.289 6.344 1.706 1.103 6.235-.434 7.37.114 1.135.548 3.774 3.371 4.931 2.445z"/><path d="m216.22 118.4s.149-7.155 4.523-11.09c4.374-3.935 7.416 2.9 6.184 4.516-1.231 1.616-6.01 1.704-6.895 2.603-.882.9-2.409 4.451-3.812 3.971z"/><path d="m212 42.52s-6.69-2.541-11.977.041c-5.287 2.583-.087 7.962 1.872 7.425 1.959-.537 3.832-4.938 4.996-5.419 1.164-.481 5.03-.567 5.109-2.048z"/><path d="m196.69 29.707s-6.69-2.541-11.977.041c-5.287 2.582-.087 7.962 1.872 7.426 1.959-.537 3.832-4.938 4.996-5.419 1.164-.481 5.03-.567 5.109-2.048z"/><path d="m173.86 17.489s-5.672 4.364-6.245 10.22c-.573 5.856 6.734 4.249 7.304 2.299.57-1.95-2.196-5.852-1.995-7.095.201-1.244 2.154-4.58.935-5.424z"/><path d="m158.99 13.912s-2.587 6.673-.04 11.977c2.547 5.304 7.961.141 7.438-1.822-.523-1.963-4.912-3.865-5.385-5.03-.473-1.168-.533-5.03-2.01-5.123z"/><path d="m116.82 39.627s4.626-5.46 3.954-11.306c-.672-5.846-7.478-2.737-7.625-.71-.147 2.026 3.378 5.258 3.443 6.517.065 1.258-1.141 4.93.227 5.5z"/></g></g><path fill="#8c8a8c" stroke="#000" stroke-width="2.134" d="m522.23 103.74s21.288 1.34 22.33 13.547-5.062 19.651-5.062 19.651 2.68 26.35-18.16 34.09c-22.33 2.68-57.31.595-57.31.595s-10.272 2.531-14.44-18.757c-4.168-21.288-5.359-36.32-5.359-36.32s2.084-11.91 17.12-12.654c15.04-.744 60.738.149 60.887-.149z"/></g><g stroke="#000"><g stroke-width="2.134"><path fill="none" stroke-linecap="round" d="m539.35 136.79s-11.463 14.291-10.272 20.1"/><path fill="#8c8a8c" fill-rule="evenodd" d="m524.02 170.28c2.829 2.382 5.508 5.061 6.104 13.845.596 8.783 1.191 17.567 1.191 17.567l14.887 133.98 13.1 96.91.893 15.04s-3.126 11.02-11.909 11.909c-6.401 13.398-41.09 17.269-44.512 17.12-3.126-.149-14.14-4.764-20.842-4.168-6.699.595-18.311 5.061-23.521 4.317-5.21-.744-16.971-4.764-19.06-13.249-14.589-4.615-16.971-15.78-16.971-15.78l15.78-112.1 15.333-141.72s1.786-18.906 9.379-21.735c7.89-.744 48.68.744 60.14-1.935z"/></g><g fill="none"><g stroke-width="2.134"><path d="m443.63 364.26l-3.126 99.15"/><path d="m539.95 377.36l8.783 81.73"/></g><g stroke-width="1.112"><path d="m285.28 312.74l-.327 1.144"/><path d="m697.12 309.15l.327 1.144"/></g></g></g><g fill="none"><g stroke="#6b18b5" stroke-linejoin="round"><path stroke-width="2.134" d="m274.24 178.89s6.522 9.03 7.693 14.215c1.171 5.184 3.345 15.386 6.188 19.566 2.843 4.181 19.06 27.427 19.901 37.13.167 6.355-6.689 17.225-16.891 17.392-6.355-.167-22.744-4.348-23.413-18.396-.669-14.05 5.02-14.382 5.686-22.911.669-8.529.836-46.826.836-46.993z"/><g stroke-width="1.112"><path d="m386.28 55.917s-6.753.481-11.951 3.3c-4.03 2.484-10.851 6.06-15.619 12.668-12.13 9.454-30.371 13.865-36.12 21.719-3.444 5.343-3.233 18.19 5.397 23.636 5.517 3.159 21.693 8.101 29.562-3.555 7.87-11.656 3.185-14.896 7.04-22.531 6.368-17.502 21.605-35.09 21.692-35.24z"/><path d="m550.08 38.857s-5.04-4.516-10.684-6.29c-4.586-1.166-12.224-.659-20.13-1.434-15.227-2.136-30.926-13.148-40.57-11.818-6.234 1.242-15.319 10.334-13.226 20.319 1.568 6.161 8.458 18.62 22.306 16.17 13.848-2.455 13.728-5.475 21.898-8.01 19.926-11.173 40.24-8.891 40.4-8.928z"/><path d="m712.52 196.74c1.137-2.598-.957-7.482-2.444-13.206-1.444-4.507-3.599-11.501-8.871-17.718-6.265-14.04-5.191-33.3-11.433-40.771-4.36-4.627-16.885-7.507-24.24-.437-4.391 4.597-13.07 19.11-3.649 29.551 9.425 10.438 13.532 6.506 20.02 12.09 15.461 10.385 23.03 28.589 30.62 30.494z"/><path d="m706.98 319.41c2.111-2.923 5.892-8.557 5.442-13.249-.356-3.716 1.703-14.982 1.928-19.897 1.397-15.313 10.982-27.742 8.376-41.05-1.542-6.167-10.575-14.964-20.447-12.391-6.078 1.864-19.61 9.31-16.489 23.02 3.121 13.713 7.552 13.486 10.482 21.523 8.413 16.616 3.03 36.35 10.708 42.04z"/></g></g><g stroke="#000" stroke-width="2.134"><path d="m594.29 416.76s-2.596 4.992 7.787 9.385"/><path d="m615.06 404.98s11.581-2.795 19.368 0"/><path d="m649.6 375.82c0 .2-1.597 5.192 7.588 12.38"/><path d="m656.19 362.85s6.789 4.992 18.17 4.792"/><path d="m587.7 377.42s.399 13.178-6.389 19.368"/><path d="m610.46 357.05s11.182 2.795 20.367-1.797"/><path d="m682.15 337.69s2.396 3.394 14.776 2.796"/><path d="m633.83 329.9c.399.2 14.576 4.792 23.562.599"/><path d="m662.18 275.59s.599-.799 4.992 14.576"/><path d="m673.16 232.26s-.599 8.186-7.188 11.781"/><path d="m715.29 198.71s-9.584 7.787-7.787 10.982"/><path d="m667.57 193.12s4.992 8.386-3.195 14.177"/><path d="m643.41 157.18s8.586-.399 12.38 6.988"/><path d="m627.24 132.82h6.589"/><path d="m661.38 102.87c0 .2 1.797 1.797-1.597 5.192"/><path d="m600.08 103.67s4.593 7.188 3.794 15.974"/><path d="m626.64 79.31c1.997-.2 8.786-3.195 8.786-3.195"/><path d="m597.09 50.754c-.2 0-2.596 8.985 1.797 12.18"/><path d="m586.1 91.69c0 9.584 7.588 7.188 2.396 16.373"/><path d="m567.53 83.7c-.2 0-11.98 9.185-11.98 10.782"/><path d="m536.78 78.71s4.992 4.992 3.794 11.781"/><path d="m522.21 74.72s-2.596 7.588-5.99 9.584"/><path d="m495.65 72.72c-.2.399-4.193 8.985-6.989 10.583"/><path d="m459.31 72.918c.2 0 3.993 7.987-.998 13.778"/><path d="m450.92 31.585c.2.2.799 6.19-2.995 11.381"/><path d="m414.98 45.16c0 .2 1.597 6.789-8.985 8.985"/><path d="m394.62 106.06c.2.399 10.183 1.997 10.183 1.997"/><path d="m369.66 129.23c.2-.2 12.18-3.794 12.18-3.794"/><path d="m350.29 144.2c.399 0 8.386 1.398 10.383.399"/><path d="m344.7 151.59s2.596 1.398.399 14.776"/><path d="m305.76 116.45l4.792 7.188"/><path d="m289.39 153.39c0-.2 4.792 7.188 11.182 8.586"/><path d="m327.13 190.93c.2 0 7.787-1.598 8.985-2.396"/><path d="m323.73 218.08c.2 0-.2-4.992 5.99-8.386"/><path d="m315.54 230.46c0 .2 5.791 7.388 9.784 8.386"/><path d="m312.15 244.24c.599-.2 6.789-5.591 13.977-5.192"/><path d="m310.15 262.81s.2 6.19 18.57 4.593"/><path d="m311.95 284.57c0-.2 5.391-12.38 16.373-16.972"/><path d="m326.73 300.15s1.597-5.192 10.782-8.786"/><path d="m336.91 320.71s6.589-5.391 8.985-6.19"/><path d="m345.1 336.69s3.993 4.193 13.977-2.995"/><path d="m296.97 340.08c1.198-.2 15.774-3.594 20.766 3.994"/><path d="m302.77 352.06s15.375-1.997 17.372-.399"/><path d="m357.68 355.26s-1.997 4.193 16.972-2.795"/><path d="m381.24 362.85c-3.394 5.79.799 10.383-3.594 12.979"/><path d="m323.53 370.83c.599-.399 6.989-2.596 5.99-11.781"/><path d="m329.32 384.61c.799-.2 11.381-4.792 13.578-2.396"/><path d="m350.09 397.99s1.398-9.385 4.393-10.383"/><path d="m366.06 412.16s8.786-.2 12.58-2.995"/><path d="m383.03 380.42c.2.2 8.187 4.393 25.16.2"/><path d="m389.42 418.55s2.396 12.18 2.196 14.976"/></g></g><g fill-rule="evenodd"><g fill="#de2010" stroke="#000" stroke-width="1.39" transform="matrix(1.9196 0 0 1.9196 249.65 3.738)"><use transform="matrix(.96309-.12038.12403.99228-6.447 28.447)" xlink:href="#0"/><use transform="matrix(.96309-.12038.12403.99228-7.308 17.88)" xlink:href="#0"/><use transform="matrix(.94879-.20455.21075.97754-16.448 27.945)" xlink:href="#0"/><use transform="matrix(.8653-.43966.45298.89152-29.753 81.13)" xlink:href="#0"/><use transform="matrix(.8653-.43966.45298.89152-33.93 71.67)" xlink:href="#0"/><use transform="matrix(.82496-.51136.52685.84996-39.27 83.8)" xlink:href="#0"/><use transform="matrix(.77166-.58872.60656.79504-42.963 99.18)" xlink:href="#0"/><use transform="matrix(.67817-.69436.7154.69872-42.03 126.69)" xlink:href="#0"/><use transform="matrix(.61142-.75379.77664.62995-42.664 140.85)" xlink:href="#0"/><use transform="matrix(.4778-.84484.87044.49228-32.12 172.16)" xlink:href="#0"/><use transform="matrix(.39893-.88482.91163.41101-29.19 185.56)" xlink:href="#0"/><use transform="matrix(.33871-.90957.93714.34897-28.529 194.55)" xlink:href="#0"/><use transform="matrix(.2683-.93277.96104.27643-25.473 205.3)" xlink:href="#0"/><use transform="matrix(.12145-.96296.99214.12513-6.53 228.37)" xlink:href="#0"/><use transform="matrix(.03895-.96981.9992.04012.437 239.44)" xlink:href="#0"/><use transform="matrix(.03895-.96981.9992.04012-10.01 239.81)" xlink:href="#0"/><use transform="matrix(-.21629-.94618.97486-.22284 40.07 267.06)" xlink:href="#0"/><use transform="matrix(-.29359-.92512.95316-.30249 49.52 274.42)" xlink:href="#0"/><use transform="matrix(-.40169-.88356.91034-.41387 69.63 282.36)" xlink:href="#0"/><use transform="matrix(-.4756-.84607.87171-.49002 81.3 287.89)" xlink:href="#0"/><use transform="matrix(-.56473-.78938.8133-.58184 99.41 292.12)" xlink:href="#0"/><use transform="matrix(-.6295-.73876.76115-.64857 111.83 295)" xlink:href="#0"/><use transform="matrix(-.68085-.69172.71269-.70148 121.72 298.53)" xlink:href="#0"/><use transform="matrix(-.73636-.63231.65147-.75868 135.19 300.6)" xlink:href="#0"/><use transform="matrix(-.79959-.55018.56685-.82382 153.82 298.54)" xlink:href="#0"/><use transform="matrix(-.88221-.40465.41691-.90895 185.77 285.35)" xlink:href="#0"/><use transform="matrix(-.91526-.323.33279-.943 199.41 281.42)" xlink:href="#0"/><use transform="matrix(-.96644-.07186.09236-.79822 236.41 226.61)" xlink:href="#0"/><use transform="matrix(-.94631-.21571.22224-.97499 217.21 271.39)" xlink:href="#0"/></g><g fill="#ffe300"><path d="m679.93 195.92c2.466-2.64 4.76-3.386 7.663-2.423-1.024-6.964-3.227-9.327-5.912-8.488-2.684.839-3.899 4.418-1.751 10.912"/><path d="m683.7 216.93c2.658-2.446 5-3.02 7.824-1.839-.496-7.02-2.515-9.543-5.255-8.91-2.74.634-4.221 4.112-2.569 10.748"/><path d="m674.78 176.73c1.715-3.179 3.744-4.484 6.796-4.29-2.759-6.476-5.49-8.201-7.874-6.708-2.383 1.493-2.649 5.264 1.077 10.999"/><path d="m665.43 157.61c1.715-3.179 3.744-4.484 6.796-4.29-2.759-6.476-5.49-8.201-7.874-6.708-2.383 1.493-2.649 5.264 1.077 10.999"/><path d="m643 122.57c1.181-3.414 2.975-5.03 6.02-5.327-3.764-5.948-6.737-7.212-8.849-5.356s-1.769 5.621 2.831 10.682"/><path d="m628.34 107.3c1.052-3.456 2.783-5.136 5.813-5.55-3.986-5.802-7-6.952-9.05-5.02-2.041 1.935-1.555 5.684 3.232 10.568"/><path d="m597.51 81.29c-.064-3.612 1.066-5.744 3.821-7.07-5.579-4.292-8.805-4.457-10.151-1.988-1.346 2.469.271 5.887 6.33 9.06"/><path d="m613.55 93.32c.563-3.568 2.044-5.472 4.987-6.302-4.751-5.193-7.9-5.915-9.653-3.715-1.753 2.199-.753 5.845 4.666 10.02"/><path d="m579.21 71.19c-.436-3.586.467-5.823 3.071-7.427-5.992-3.693-9.218-3.525-10.302-.93-1.084 2.595.877 5.827 7.231 8.357"/><path d="m560.51 63.03c-.945-3.487-.371-5.83 1.976-7.79-6.459-2.798-9.628-2.169-10.329.554-.701 2.724 1.702 5.642 8.352 7.236"/><path d="m540.36 56.784c-1.237-3.394-.863-5.778 1.31-7.93-6.672-2.241-9.777-1.346-10.245 1.426-.468 2.773 2.173 5.478 8.935 6.503"/><path d="m520.57 52.952c-1.479-3.296-1.279-5.7.733-8-6.817-1.753-9.849-.636-10.115 2.164-.267 2.8 2.564 5.306 9.382 5.84"/><path d="m499.61 51.35c-1.813-3.125-1.863-5.537-.101-8.04-6.962-1.036-9.861.389-9.836 3.201.025 2.812 3.1 5.01 9.937 4.836"/><path d="m458.57 54.44c-2.512-2.595-3.142-4.924-2.036-7.775-7.01.673-9.477 2.755-8.774 5.478.702 2.723 4.217 4.117 10.81 2.297"/><path d="m478.77 51.778c-2.138-2.912-2.447-5.304-.965-7.979-7.03-.282-9.762 1.447-9.435 4.24.327 2.793 3.621 4.649 10.399 3.739"/><path d="m438.75 58.719c-2.859-2.208-3.816-4.423-3.129-7.403-6.838 1.67-8.984 4.085-7.898 6.679 1.086 2.595 4.764 3.469 11.03.724"/><path d="m400.8 76.17c-3.226-1.624-4.588-3.616-4.48-6.672-6.395 2.94-8.04 5.719-6.483 8.06 1.559 2.341 5.337 2.5 10.964-1.387"/><path d="m419.1 66.82c-3.01-2-4.115-4.147-3.637-7.167-6.705 2.142-8.678 4.7-7.414 7.212 1.264 2.513 4.993 3.129 11.05-.045"/><path d="m366.76 99.87c-3.494-.916-5.241-2.581-5.772-5.592-5.642 4.209-6.674 7.27-4.661 9.234 2.01 1.964 5.74 1.333 10.434-3.641"/><path d="m383 86.58c-3.412-1.187-5.02-2.983-5.317-6.03-5.954 3.754-7.223 6.725-5.37 8.84 1.853 2.116 5.618 1.778 10.687-2.813"/><path d="m352.33 114.08c-3.563-.595-5.454-2.094-6.257-5.04-5.236 4.704-5.986 7.847-3.803 9.619 2.183 1.773 5.838.805 10.06-4.575"/><path d="m339.4 130.86c-3.602-.269-5.621-1.59-6.689-4.456-4.787 5.16-5.249 8.357-2.914 9.924 2.335 1.568 5.887.272 9.603-5.469"/><path d="m328.58 148.02c-3.601.286-5.798-.71-7.292-3.379-3.941 5.832-3.907 9.06-1.36 10.254 2.548 1.192 5.859-.632 8.652-6.875"/><path d="m319.08 166.35c-3.533.751-5.841.048-7.669-2.404-3.151 6.294-2.698 9.493-.018 10.343 2.681.851 5.727-1.387 7.687-7.94"/><path d="m311.48 185.16c-3.37 1.301-5.76.973-7.953-1.158-2.114 6.714-1.16 9.801 1.621 10.216 2.782.416 5.435-2.277 6.332-9.06"/><path d="m306.39 206.11c-3.275 1.524-5.682 1.356-8.01-.623-1.659 6.84-.501 9.856 2.302 10.08 2.803.228 5.271-2.636 5.711-9.461"/><path d="m304.32 223.56c-3.083 1.633-5.486 1.826-8.01.591-.917 5.575.551 7.778 3.353 7.579 2.802-.199 4.942-2.772 4.653-8.17"/><path d="m657.08 140.57c1.233-3.395 3.051-4.982 6.098-5.235-3.673-6-6.626-7.314-8.767-5.489-2.14 1.824-1.854 5.594 2.668 10.724"/><path d="m686 238.23c2.658-2.446 5-3.02 7.824-1.839-.496-7.02-2.515-9.543-5.255-8.91-2.74.634-4.221 4.112-2.569 10.748"/></g><g fill="#217900" stroke="#000" stroke-linejoin="round" stroke-width="2.134"><path d="m658.45 123.94c-.086 0-7.958 7.873-6.589 17.457 1.369 9.584 7.445 21.394 6.332 31.32-1.113 9.927-2.91 16.516-2.91 16.516s9.242-10.526 9.328-20.624c.086-10.1-6.333-23.362-6.333-30.807s.342-14.03.171-13.863z"/><path d="m673.08 156.11s-6.162 4.536-5.562 14.976c.599 10.44 11.381 29.609 11.381 29.609s7.873 16.17 7.616 20.367c-.257 4.193 1.455-4.02.685-13.264-.77-9.242-12.665-29.609-12.665-29.609s-2.567-4.193-2.311-11.125c.257-6.932.941-10.868.856-10.954z"/></g><g fill="#6b18b5"><path d="m487.93 26.748c0-2.161-2.43-3.913-5.428-3.913s-5.429 1.752-5.428 3.913c0 2.161 2.43 3.913 5.428 3.913s5.429-1.752 5.428-3.913"/><path d="m490.25 35.848c0-2.072-2.502-3.752-5.588-3.752-3.086 0-5.588 1.68-5.588 3.752s2.502 3.752 5.588 3.752c3.086 0 5.588-1.68 5.588-3.752"/><path d="m497.19 25.07s-6.386 4.79-3.752 6.705c2.634 1.916 9.898-4.151 9.898-4.151l-6.147-2.555"/><path d="m684.88 134.73c.002-1.362-.636-2.62-1.674-3.302-1.037-.681-2.316-.681-3.353 0-1.037.681-1.676 1.94-1.674 3.302-.002 1.362.636 2.62 1.674 3.302 1.037.681 2.316.681 3.353 0 1.037-.681 1.676-1.94 1.674-3.302"/><path d="m682.44 125.6c0-2.271-1.568-4.112-3.503-4.112s-3.503 1.841-3.503 4.112 1.568 4.112 3.503 4.112 3.503-1.841 3.503-4.112"/><path d="m684.12 144.17c0-1.178-.614-2.132-1.371-2.132-.757 0-1.371.954-1.371 2.132s.614 2.132 1.371 2.132c.757 0 1.371-.954 1.371-2.132"/><path d="m689.75 127.57c0-1.346-.614-2.437-1.371-2.437-.757 0-1.371 1.091-1.371 2.437s.614 2.437 1.371 2.437c.757 0 1.371-1.091 1.371-2.437"/><path d="m674.37 129.25c0-1.093-.614-1.98-1.371-1.98-.757 0-1.371.886-1.371 1.98 0 1.093.614 1.98 1.371 1.98.757 0 1.371-.886 1.371-1.98"/><path d="m676.81 142.35c0-1.767-1.295-3.199-2.893-3.199s-2.894 1.433-2.893 3.199c0 1.767 1.295 3.199 2.893 3.199s2.894-1.433 2.893-3.199"/><path d="m669.19 136.56c0-1.514-1.091-2.741-2.437-2.741-1.346 0-2.437 1.227-2.437 2.741s1.091 2.741 2.437 2.741c1.346 0 2.437-1.227 2.437-2.741"/><path d="m667.98 128.79c0-.817-.405-1.572-1.065-1.981-.66-.409-1.474-.409-2.134 0-.66.409-1.066 1.164-1.065 1.981 0 .817.405 1.572 1.065 1.981.66.409 1.474.409 2.134 0 .66-.409 1.066-1.164 1.065-1.981"/><path d="m702.69 168.28c-3.145-4.151-8.181-5.901-11.248-3.907-3.066 1.994-3 6.975.143 11.126 3.145 4.151 8.181 5.901 11.248 3.907 3.066-1.994 3-6.975-.143-11.126"/><path d="m711.63 244.87c.61-5.094-1.875-9.58-5.549-10.02-3.674-.44-7.147 3.333-7.757 8.428-.61 5.094 1.875 9.58 5.549 10.02 3.674.44 7.147-3.333 7.757-8.428"/><path d="m713.52 289.45c1.047-5.02-1.041-9.706-4.663-10.461-3.623-.755-7.408 2.704-8.456 7.726-1.047 5.02 1.041 9.706 4.663 10.461 3.623.755 7.408-2.704 8.456-7.726"/><path d="m722.11 247.72c0-2.02-1.364-3.655-3.046-3.655s-3.046 1.636-3.046 3.655c0 2.02 1.364 3.655 3.046 3.655s3.046-1.636 3.046-3.655"/><path d="m714.65 256.1l-6.244 7.081s-5.863.152-5.558 2.056c.305 1.904 8.07 7.614 7.995 9.899-.076 2.284 5.178-.533 5.178-.533s4.188-12.716 4.188-12.792c0-.076-.228-8.833-2.513-8.68-2.284.152-2.903 2.808-3.046 2.97"/><path d="m303.97 253.3c0-1.641-1.33-2.971-2.972-2.971-1.641 0-2.972 1.33-2.972 2.971s1.33 2.971 2.972 2.971 2.972-1.33 2.972-2.971"/><path d="m306.77 244.22c0-1.732-1.33-3.137-2.972-3.137s-2.972 1.404-2.972 3.137c0 1.732 1.33 3.137 2.972 3.137 1.641 0 2.972-1.404 2.972-3.137"/><path d="m282.37 201.04c-1.115-2.498-3.435-3.89-5.184-3.11-1.748.78-2.262 3.438-1.148 5.935 1.115 2.498 3.435 3.89 5.184 3.11 1.748-.78 2.262-3.438 1.148-5.935"/><path d="m289.74 227.94c-1.531-3.238-4.719-5.04-7.121-4.03s-3.108 4.455-1.577 7.693 4.719 5.04 7.121 4.03 3.108-4.455 1.577-7.693"/><path d="m297.63 247.67c.496-4.04-1.18-7.758-3.743-8.297-2.563-.538-5.04 2.303-5.539 6.347-.496 4.04 1.18 7.758 3.743 8.297 2.563.538 5.04-2.303 5.539-6.347"/><path d="m284.97 250.55c1.585-3.753.992-7.785-1.326-9s-5.481.833-7.07 4.586-.992 7.785 1.326 9 5.481-.833 7.07-4.586"/><path d="m279.2 242.07c0-1.915-1.478-3.467-3.302-3.467s-3.302 1.552-3.302 3.467 1.478 3.467 3.302 3.467 3.302-1.552 3.302-3.467"/><path d="m276.56 233.49c0-1.732-1.33-3.137-2.972-3.137-1.641 0-2.972 1.404-2.972 3.137 0 1.732 1.33 3.137 2.972 3.137s2.972-1.404 2.972-3.137"/><path d="m279.37 216.98c0-2.918-1.293-5.283-2.889-5.283-1.596 0-2.889 2.365-2.889 5.283 0 2.918 1.293 5.283 2.889 5.283s2.889-2.365 2.889-5.283"/><path d="m288.26 215.71c.385-2.892-.585-5.407-2.167-5.618-1.582-.21-3.176 1.963-3.561 4.856-.385 2.892.585 5.407 2.167 5.618 1.582.21 3.176-1.963 3.561-4.856"/><path d="m351.6 89.33c1.178-4.096-.037-8.212-2.712-9.194-2.675-.982-5.799 1.542-6.976 5.638-1.178 4.096.037 8.212 2.712 9.194 2.675.982 5.799-1.542 6.976-5.638"/><path d="m339.57 107.56c3.529-3 5.04-7.156 3.367-9.275-1.669-2.119-5.883-1.403-9.411 1.6s-5.04 7.156-3.367 9.275c1.669 2.119 5.883 1.403 9.411-1.6"/><path d="m332.55 97.44c3.489-2.578 4.98-6.143 3.329-7.962s-5.817-1.204-9.307 1.374c-3.489 2.578-4.98 6.143-3.329 7.962s5.817 1.204 9.307-1.374"/><path d="m359.61 79.65c2.353-1.799 3.358-4.286 2.245-5.556-1.113-1.269-3.923-.84-6.276.959s-3.358 4.286-2.245 5.556c1.113 1.269 3.923.84 6.276-.959"/><path d="m345.5 96.89c1.609-2.487 1.717-5.167.241-5.987-1.476-.82-3.977.531-5.586 3.02s-1.717 5.167-.241 5.987c1.476.82 3.977-.531 5.586-3.02"/><path d="m365.86 86.23c2.531-2.133 3.517-4.958 2.202-6.31-1.314-1.352-4.431-.719-6.962 1.413s-3.517 4.958-2.202 6.31c1.314 1.352 4.431.719 6.962-1.413"/><path d="m329.07 111.09c2.366-.118 4.151-1.296 3.988-2.632-.163-1.335-2.212-2.323-4.578-2.204-2.365.118-4.151 1.296-3.988 2.632.163 1.335 2.212 2.323 4.578 2.204"/><path d="m373.61 73.03c1.609-2.487 1.717-5.167.241-5.987-1.476-.82-3.977.531-5.586 3.02s-1.717 5.167-.241 5.987c1.476.82 3.977-.531 5.586-3.02"/></g><path fill="#ffd200" stroke="#ef8a10" stroke-width="1.112" d="m641.8 148.49s7.338-11.615 4.501-22.547c-2.837-10.933-14.945-3.207-14.685.684.261 3.891 7.824 9.1 8.284 11.47.46 2.374-.855 9.677 1.899 10.394z"/><g fill="#217900" stroke="#000" stroke-linejoin="round" stroke-width="2.668"><path d="m501.67 51.882s26.443 1.027 26.614 18.14c-.086 2.653 0 5.819-.941 13.435 5.22-2.824 8.729-10.697 8.04-15.746.086-17.372-23.619-29.27-33.717-15.832z"/><path d="m484.9 51.11s21.308-4.45 21.479 12.665c.171 17.11-6.76 19.853-6.76 19.853s16.345-3.509 16.43-20.88c.086-17.372-21.05-25.07-31.15-11.638z"/></g></g><g transform="matrix(1.9196 0 0 1.9196 249.65 5.767)"><g fill-rule="evenodd"><path fill="#f7df73" stroke="#000" stroke-linejoin="round" stroke-width="1.39" d="m160.26 215.97s51.958-14.677 67.65-78.44c-9.11 65.45-65.96 86.2-65.96 86.2l-1.687-7.76z" id="2"/><g fill="#8c1800"><path d="m165.59 219.94c1.606 0 5.579-4.395 7.861-4.903 2.282-.507 2.536-2.79-.084-2.874-2.62-.084-4.903 2.958-4.903 2.958s-2.282 1.944-4.649 2.198c-2.367.254-.845 3.212 1.775 2.62" id="7"/><path stroke="#8c1800" stroke-width="1.39" d="m195.51 197.62s-5.41 3.127-4.649 3.888c.761.761 5.579-2.958 5.663-3.043.084-.085 2.029-2.451-1.014-.845z" id="8"/><path d="m176.66 211.83s-1.606-.592 2.536-2.198c4.142-1.606 3.888-3.466 5.241-4.226 1.352-.761 4.226-2.789 4.818-1.606s-3.043 3.55-3.888 3.804c-.845.254-4.987 4.057-6.171 4.395-1.183.338-2.029.169-2.536-.169" id="9"/></g></g><g fill="none" stroke="#8c1800" stroke-linecap="round"><path stroke-width="1.807" d="m203.54 189.68c-3.55 3.973-3.55 3.888-3.55 3.888" id="3"/><path stroke-width="1.668" d="m208.87 183.17l-3.381 4.142" id="4"/><path stroke-width="1.529" d="m214.19 174.72l-3.804 6.086" id="5"/><g stroke-width="1.39"><path d="m218.67 166.1l-3.127 6.255" id="A"/><path d="m220.7 161.53l-1.014 2.198" id="B"/></g><path stroke-width=".834" d="m222.98 155.53l-.845 2.62" id="6"/></g></g><g transform="matrix(-1.9021 0 0 1.9542 731.39-4.333)"><g fill-rule="evenodd"><use xlink:href="#2"/><g fill="#8c1800"><use xlink:href="#7"/><use xlink:href="#8"/><use xlink:href="#9"/></g></g><g fill="none" stroke="#8c1800" stroke-linecap="round"><use xlink:href="#3"/><use xlink:href="#4"/><use xlink:href="#5"/><g stroke-width="1.39"><use xlink:href="#A"/><use xlink:href="#B"/></g><use xlink:href="#6"/></g></g><g stroke="#000" stroke-linejoin="round"><g fill="#217900" fill-rule="evenodd" stroke-width="2.668"><path d="m691.89 247.23c.49 7.678 8.01 15.03 5.065 28.426-3.758 15.193-16.99 51.3-14.703 57.669-3.921-5.391-3.267-10.456-3.594-17.971-.327-7.515 10.946-35.451 11.926-44.926 0-8.495.817-20.09 1.307-23.2z"/><path d="m691.89 247.39s12.253 15.52 11.599 27.773c-.653 12.253-7.515 26.629-5.228 33-3.921-5.391-4.901-8.822-5.228-16.337-.327-7.515 6.04-15.847 4.738-24.01-1.307-8.168-6.04-20.421-5.881-20.421z"/><path d="m290.51 250.82c-.49 7.678-6.208 14.539-3.268 27.936 3.757 15.193 17.15 34.471 15.03 56.53 3.921-5.392 5.065-11.436 5.391-18.951.327-7.515-14.867-32.837-15.847-42.31 0-8.495-.817-20.09-1.307-23.2z"/><path d="m290.51 250.99s-11.926 15.03-11.273 27.28c.163 8.168 15.193 42.31 12.906 48.684 3.921-5.391 5.064-4.738 4.901-12.906-4.411-20.911-12.253-34.31-10.946-42.476 1.307-8.168 4.575-20.584 4.411-20.584z"/></g><path fill="#fff" stroke-linecap="square" stroke-width="1.661" d="m99.96 125.78l22.17 68.23 71.74.003-58.04 42.17 22.17 68.23-58.04-42.15-58.04 42.16 22.17-68.23-58.04-42.17h71.74z" stroke-dashoffset="1" transform="matrix(1.3389 0 0 1.3391 360.43-54.894)"/></g></g></g></svg>