<svg xmlns="http://www.w3.org/2000/svg" viewBox="0 0 640 480"><path fill="#006" stroke-width="1.25" d="m0 0h640v480h-640z"/><g fill-rule="evenodd" transform="matrix(1.2096 0 0 1.2172 359.74 169.23)"><path fill="#fff" d="m40.15 18.913h177.16l-.211 126.06c1.474 50.675-30.11 82.12-88.23 96.3-41.28-10.25-88.86-31.45-88.93-94.86l.211-127.5z"/><path fill="#00a2bd" stroke="#000" stroke-width="1.25" d="m44.07 22.713h169.3l-.201 120.79c1.408 48.558-28.777 78.69-84.32 92.28-39.437-9.82-84.92-30.13-84.982-90.9l.201-122.17z"/><path fill="#a53d08" d="m212.06 157.82c-6.159 46.35-41.856 66.6-83.21 77.35-36.604-9.819-75.984-25.495-83.62-77.12l166.83-.233z"/><g stroke="#000" stroke-width="1.25"><path fill="#ffc6b5" stroke-linejoin="round" d="m155.77 197.17c.094.094.658 9.295-4.319 14.929 4.413 1.409 7.418-.282 8.826-2.066 1.409-1.784 1.879-4.04 1.879-4.04s1.22-.751 1.408-2.441c.094-2.348-.939-2.348-1.784-2.817l.187-5.258s-5.07-3.099-6.197 1.69z"/><path fill="#ff9a08" stroke-linecap="round" d="m155.49,210.32-1.503-1.221"/></g></g><g transform="matrix(1.2096 0 0 1.2172 359.74 169.23)"><g fill-rule="evenodd"><g stroke="#000" stroke-width="1.25"><path fill="#ffc6b5" d="m141.64 69.39s.117 5.625-.235 6.211c-.351.586-3.554 2.07-3.554 2.07l2.734 5.82s7.695-1.094 7.734-1.094 3.321-8.711 3.321-8.711-1.719-2.891-1.289-5.898c-2.578-8.164-8.594 1.641-8.711 1.602z"/><path fill="#005121" stroke-linejoin="round" d="m131.45 203.09s4.319 4.319 9.295 3.756c11.268-1.22 14.554-11.267 18.03-11.361s5.634 6.103 8.92 5.352c-2.817-5.164-5.821-16.619-5.352-24.694.47-8.07.47-42.06.47-42.06s-5.634-17.558-8.263-20.469c2.629-2.817 4.413-7.793 4.319-13.239-.094-5.446 0-11.455 0-11.455s1.314-1.502 1.221-5.728c-.094-4.225-7.136-10.328-8.07-10.05-.939.282-9.765 7.887-10.516 9.671-.752 1.784-1.784-6.479-.094-7.23 1.69-.751-3.944-1.221-7.512 3-3.568 4.225-2.535 124.69-2.441 124.5z"/></g><path d="m89.1 45.1l33.04.118-.236-15.224 12.04.118.118 15.11h32.926l.118 11.802-33.04.118-.264 139.18-11.742.074-.15-139.37-32.815.118.007-12.04z"/></g><g stroke="#000"><path fill="#ffc6b5" fill-rule="evenodd" stroke-width="1.25" d="m122.03 81.959s-2.258-.398-3.984.133 2.656-19.586 2.656-21.246c1.527-.73 9.162-2.125 8.963-7.502-.531-3.253-11.818.199-11.619 4.316-.73 2.058-8.099 23.04-6.639 29.943 2.589 2.058 7.37 1.66 10.623 1.129v-6.772z"/><g fill="none"><path stroke-linecap="round" stroke-width=".625" d="m124.22 53.21s-.664 3.718 2.722 4.249"/><g stroke-width=".375"><path d="m129.2 53.14c-.133.066-4.382 2.722-4.382 2.722"/><path d="m128.94,54.804-2.988,2.191"/><path d="m127.81 52.35l-3.32 1.992"/></g></g><g stroke-width="1.25"><path fill="#ff9a08" fill-rule="evenodd" d="m95.49 163.56l30.14 31.27c10.422-11.455 3.193-54.27-10.515-62.16-1.643 5.07-4.437 11.149-7.407 13.11-6.534 4.453-22.546 9.659-17.194 12.993 1.221-1.69 4.413-3.286 5.915.47 1.784 5.915-6.666 6.291-6.666 6.291s-5.352-.658-6.291-6.104c-.939-5.445 7.972-10.417 8.732-10.797.751-.282 12.394-3.38 14.366-13.709 2.441-10.141 4.976-8.638 5.446-8.826 15.21 1.502 25.16 28.732 25.727 47.886.563 19.15-7.793 31.83-9.296 32.675-1.502.845-36.24-41.22-36.24-41.22l3.286-1.878z"/><g fill="none"><path d="m117.46 134.45l.187 56.43"/><path d="m114.08 135.48c0 .094.187 51.27.187 51.27"/><path d="m110.42 142.9l.187 40.75"/><path d="m107.42 145.81l.188 33.709"/><path d="m104.22 147.32v28.45"/><path d="m100.75 149.57v22.534"/><path d="m97.74 151.35v17.276"/></g></g></g><g fill="none" stroke="#ffdf00" stroke-linecap="round" stroke-width="1.25"><path d="m95.02 167.13l31.08 35.58"/><path d="m127.6 144.69s14.09 30.798 1.033 56.15"/><path d="m91.36 160.65s1.033-2.723 2.347-1.596"/><path d="m88.92 152.76s-5.634 4.976-2.535 8.169"/></g><g stroke="#000"><g stroke-width="1.25"><g fill="none"><path d="m141.03 82.999s.47 4.319-.469 7.605 3.568 12.394 1.877 14.272"/><path d="m142.91 113.7l11.831-.094"/><g stroke-linecap="round"><path d="m138.59 118.49c.094.187 1.408 6.197 1.032 10.328"/><path d="m142.44 120.65c-.375 1.221-5.258 15.12-5.07 15.68"/><path d="m145.35 114.36c.094.282-.375 8.826-1.69 10.05"/><path d="m151.36 113.7s7.7 17.84 7.606 24.882 2.629 21.314.845 27.605"/><path d="m153.8 138.4s-.564 13.239-6.103 18.403c-5.54 5.165 13.239 19.906 13.239 19.906"/><path d="m153.61 175.86s2.066 18.215 5.54 19.53"/><path d="m136.62 145.34c.094.188-1.878 12.3-.282 14.272 1.597 1.972 14.836 20.469 14.272 39.624"/><path d="m146.85 193.51s-.376 11.549-11.08 12.488"/><path d="m143.66 185.91s3.193 12.02-7.699 19.624"/><path d="m147.88 156.89s12.3 12.77 12.864 18.404"/><path d="m151.45 113.98s2.16 9.107 1.315 10.704"/></g></g><path fill="#ffc6b5" fill-rule="evenodd" d="m113.51 132.69s-1.317-2.305-1.152-4.857-.412-6.502 7.82-9.713c5.02-5.103 10.618-8.149 13.663-9.712 4.445-2.881 7.327-2.223 9.96-3.211 1.729-1.975 1.646-6.338 3.457-10.206 1.811-3.869 5.02-11.853 8.478-10.618 3.458 1.235.741 11.606-.576 15.228-1.317 3.622-2.469 7.408-4.774 9.631-2.305 2.222-12.758 6.255-14.816 6.996s-11.441 2.881-13.828 6.174c-2.388 3.292-2.223 8.149-8.232 10.289z"/><path fill="none" d="m112.85 125.78c.247-.082 4.115-1.317 5.926 2.141"/><path fill="#ffc6b5" fill-rule="evenodd" stroke-linejoin="round" d="m141.91 55.2s-1.74 2.837-2.222 4.561c-.374 1.289-1.58-.087-2.218 2.708l1.035.181c-.412.823-.546 2.214-.628 2.543-.083.329-.662 1.833-.576 2.963.046.583 1.152 3.128 10.124-.741 8.972-3.869-2.881-14.85-5.515-12.216z"/></g><g stroke-linecap="round"><path fill="#c59200" fill-rule="evenodd" stroke-linejoin="round" stroke-width="1.261" d="m140.9 55.56c.921-.494 7.457-1.07 6.368 11.688 1.257-.165 2.01-.329 2.764.905.754 1.235.671 2.716 2.01 2.716 1.341 0 1.509-.247 1.844-1.235.334-.988 5.53 1.152 6.869-3.457-.232-.897-3.183-2.305-3.519-3.951.755-2.305-.335-9.795-9.885-10.207-4.944-.082-5.948 1.975-6.452 3.539z"/><path fill="none" stroke-width="1.25" d="m140.42 58.12c.083.082 2.964.905 3.293 2.305"/></g></g><path fill-rule="evenodd" d="m142.19 61.5c0 .431-.332.781-.742.781s-.742-.35-.742-.781.332-.781.742-.781.742.35.742.781"/><g fill="none" stroke="#000" stroke-linecap="round" stroke-width="1.25"><g stroke-linejoin="round"><path d="m154.38 61.54s-1.055 5.078 3.594 7.07"/><path d="m150.94 62.17s1.722.078 1.722 1.68c0 1.602-1.414 1.797-1.296 3.086.117 1.289 2.425 1.719 2.503 2.813"/><path d="m143.4 52.792c.078 0 8.243.938 7.774 2.969-.469 2.031-1.758 1.211-1.719 2.969s3.281.703 3.281.703.196-1.484 1.563-1.367.742 1.68 2.617 1.641"/></g><path d="m138.41 65.46l1.936-.064"/><path d="m143.45 73.7s.72 3.359-2 3.039"/></g></g><g stroke-width="1.25" transform="matrix(6.4484 0 0 8.479 0 .063)"><g fill="#fff"><path d="m0 0v3.354l53.29 26.646h6.708v-3.354l-53.29-26.646h-6.708m60 0v3.354l-53.29 26.646h-6.708v-3.354l53.29-26.646h6.708"/><path d="m25 0v30h10v-30h-10m-25 10v10h60v-10h-60"/></g><g fill="#c00"><path d="m0 12v6h60v-6h-60m27-12v30h6v-30h-6"/><path d="m0 30l20-10h4.472l-20 10h-4.472m0-30l20 10h-4.472l-15.528-7.764v-2.236m35.528 10l20-10h4.472l-20 10h-4.472m24.472 20l-20-10h4.472l15.528 7.764v2.236"/></g></g></svg>