<svg xmlns="http://www.w3.org/2000/svg" viewBox="0 0 640 480" xmlns:xlink="http://www.w3.org/1999/xlink"><defs><path id="0" d="m333.07 295.87c0 8.806-11.11 15.945-24.803 15.945s-24.803-7.139-24.803-15.945c0-8.806 11.11-15.945 24.803-15.945s24.803 7.139 24.803 15.945"/><path id="1" d="m281.34 223.23h4.96l4.961 14.174 4.96-14.174h4.961l-9.921 28.347-9.921-28.347"/><path id="2" d="m322.44 290.55h3.543v21.26h-3.543z" stroke-width="1.25"/><path id="3" d="m279.92 58.47c0 6.849-.793 12.402-1.772 12.402-.978 0-1.772-5.552-1.772-12.402 0-6.849.793-12.402 1.772-12.402.978 0 1.772 5.552 1.772 12.402"/></defs><g fill-rule="evenodd"><g stroke-width="1.25" transform="scale(1.25.9375)"><path fill="#ce0000" d="m256 0h256v512h-256z"/><path fill="#fff" d="m0 0h256v512h-256z"/></g><g transform="matrix(1.5986 0 0 1.5986-12.38-30.751)"><path fill="#f1eeee" d="m209.06 63.779c0 7.828-7.932 14.173-17.717 14.173-9.785 0-17.717-6.346-17.717-14.173 0-7.828 7.932-14.173 17.717-14.173 9.785 0 17.717 6.346 17.717 14.173" transform="matrix(.11563 0 0 .10345 80.65 101.47)"/><g stroke-width="1.25"><path fill="#c00" d="m40.727 100.98v37.21h37.21c0 6.2 6.202 12.402 12.404 12.402v37.21h37.21v-37.21c6.202 0 12.404-6.202 12.404-12.402h37.21v-37.21h-37.21c0-6.2-6.202-12.402-12.404-12.402v-37.21h-37.21v37.21c-6.202 0-12.404 6.202-12.404 12.402h-37.21"/><path fill="#ffe600" d="m41.969 102.22v34.727h37.21c0 6.2 6.2 12.404 12.402 12.404v37.21h34.73v-37.21c6.202 0 12.402-6.204 12.402-12.404h37.21v-34.727h-37.21c0-6.2-6.2-12.404-12.402-12.404v-37.21h-34.73v37.21c-6.202 0-12.402 6.204-12.402 12.404h-37.21"/><path fill="#707070" d="m43.21 103.46v32.25h37.21c0 6.2 6.202 12.402 12.404 12.402v37.21h32.25v-37.21c6.202 0 12.404-6.202 12.404-12.402h37.21v-32.25h-37.21c0-6.2-6.202-12.402-12.404-12.402v-37.21h-32.25v37.21c-6.202 0-12.404 6.202-12.404 12.402h-37.21"/><path fill="#a0a0a0" d="m44.45 104.7v29.766h37.21c0 6.2 6.202 12.404 12.404 12.404v37.21h29.767v-37.21c6.202 0 12.404-6.204 12.404-12.404h37.21v-29.766h-37.21c0-6.2-6.202-12.402-12.404-12.402v-37.21h-29.767v37.21c-6.202 0-12.404 6.202-12.404 12.402h-37.21"/></g></g><g transform="matrix(.39569-.39567.39569.39567-117.39 130.8)"><use fill="#d0d0d0" transform="matrix(1.2857 0 0 1-80.99 3.543)" xlink:href="#0"/><use fill="#808080" transform="matrix(.85715 0 0 1 51.12 3.543)" xlink:href="#0"/><g fill="#d0d0d0"><use transform="matrix(.71429 0 0 .74998 100.22 123.13)" xlink:href="#1"/><use xlink:href="#2"/></g></g><g transform="matrix(.39569.39567-.39569.39567 191.39-118.74)"><use fill="#d0d0d0" transform="matrix(1.2857 0 0 1-80.99 3.543)" xlink:href="#0"/><use fill="#808080" transform="matrix(.85715 0 0 1 51.12 3.543)" xlink:href="#0"/><g fill="#d0d0d0"><use transform="matrix(.71429 0 0 .74998 100.22 123.13)" xlink:href="#1"/><use xlink:href="#2"/></g></g><g transform="matrix(-.39569.39567-.39569-.39567 440.95 190.03)"><use fill="#d0d0d0" transform="matrix(1.2857 0 0 1-80.99 3.543)" xlink:href="#0"/><use fill="#808080" transform="matrix(.85715 0 0 1 51.12 3.543)" xlink:href="#0"/><g fill="#d0d0d0"><use transform="matrix(.71429 0 0 .74998 100.22 123.13)" xlink:href="#1"/><use xlink:href="#2"/></g></g><g transform="matrix(-.39569-.39567.39569-.39567 132.17 439.57)"><use fill="#d0d0d0" transform="matrix(1.2857 0 0 1-80.99 3.543)" xlink:href="#0"/><use fill="#808080" transform="matrix(.85715 0 0 1 51.12 3.543)" xlink:href="#0"/><g fill="#d0d0d0"><use transform="matrix(.71429 0 0 .74998 100.22 123.13)" xlink:href="#1"/><use xlink:href="#2"/></g></g></g><g transform="matrix(1.5986 0 0 1.5986-12.38-30.751)"><g fill="none" stroke="#707070" stroke-width="1.25"><path d="m269.29 414.57c0 41.09-34.11 74.41-76.18 74.41s-76.18-33.31-76.18-74.41 34.11-74.41 76.18-74.41 76.18 33.31 76.18 74.41z" transform="matrix(.34191 0 0 .35003 42.921-25.527)" id="4"/><use transform="matrix(.7619 0 0 .76191 25.94 28.469)" xlink:href="#4"/></g><g fill-rule="evenodd"><g fill="#d0d0d0"><path d="m170.08 474.8c0 1.957-1.586 3.543-3.543 3.543s-3.543-1.586-3.543-3.543 1.586-3.543 3.543-3.543 3.543 1.586 3.543 3.543" transform="matrix(.35005 0 0 .35003 40.728-25.527)" id="5"/><use transform="translate(19.842)" xlink:href="#5"/><path d="m108.12 140.67v1.293h-1.654c-1.654 0-1.654 1.293 0 1.293h1.654v1.293c.006 1.341 1.443 1.502 1.549.105l.105-1.398h1.654c1.654 0 1.654-1.293 0-1.293h-1.654v-1.293c0-1.293-1.654-1.293-1.654 0"/><g stroke="#707070" stroke-width=".137"><path d="m102.77 122.35v.733s-.389.561-2.868.733c-2.479.172-2.868 0-2.868 0 .065.639.547 1.851.41 3.299.097 1.685-.474 3.211-.474 3.211.065.088-.233.132-.755.088.41-.367.362-1.427.41-2.933.047-1.506-1.564-3.772-1.229-4.399.335-.627 7.375-.733 7.375-.733z"/><path d="m112.61 119.69c2.412-.111 6.459-.087 6.459-.087s.954 1.914.915 2.972c-.04 1.057-.368 1.957-.818 1.507-.451-.45.209-.365.289-1.507.08-1.142-.77-2.326-.77-2.326s-1.73.755-4.332.603c-2.602-.153-1.45-1.116-1.742-1.162z"/><path d="m113.43 121.58c2.412-.111 3.995.258 3.995.258s.954 1.914.915 2.972c-.04 1.057-.368 1.957-.818 1.507-.451-.45.209-.365.289-1.507.08-1.142-.77-2.326-.77-2.326s-1.73.755-4.332.603c-2.602-.153-1.86-.308-2.151-.353-.292-.045-.362.72-4.299.827-3.936.107-5.944-.827-5.944-.827s-.389.561-2.868.733c-2.479.172-2.868 0-2.868 0 .065.639.547 1.851.41 3.299.097 1.685-.474 3.211-.474 3.211.065.088-.233.132-.755.088.41-.367.362-1.427.41-2.933.047-1.506-1.564-3.772-1.229-4.399.335-.627 2.12-.041 2.458-.367.338-.326-1.59-2.621-1.229-4.765.361-2.145 2.404-1.54 4.917-1.466 2.512.074 8.08.725 9.423 0 1.345-.725.763-3.407 2.049-5.132.819-1.1 2.049-1.466 3.278-1.466.82 0 2.049 2.933 2.049 3.666l-.41.367h-.41v.367c-.935.094-1.066-.8-1.639-1.466-.246 1.033.819 4.399.819 6.598 0 1.833-.766 2.641-.814 2.511z"/><path d="m105.54 118.4c.034.731-3.166 2.369-3.427 3.02-.26.649.814 1.01.481 1.378-.332.37-.606.233-.674.302-.068.069-1.203-2.541-1.203-2.541s3-1.354 2.888-1.938c-.114-.584-2.217-.94-2.599-2.412-.383-1.472-.17-4.315-.481-4.91-.311-.594-3.995-1.162-3.998-2.061-.003-.899 3.787-3.367 4.197-3.733.41-.367.82.367.41.733-.41.367-3.377 2.633-3.377 3 0 .367 2.458.733 3.278.733.819 0 1.229-.367 1.229-.733.005-.317-.82-.367-.82-1.1s.41-1.1 1.229-1.1c.41 0 1.197.469 1.229 1.1s-.729.684-.82 1.1c-.09.416.82.733 1.639.733.82 0 3.617 2.132 4.03 2.499.41.367.82.367.41.733-.41.367-.17.8-.579.434-.349-.354-.41-.733-.41-.733-.035-.333-3.038-1.833-3.447-1.466-.41.367 0 4.766 0 5.132 0 .733.853.731.82 1.833z"/></g></g><g stroke-width="1.25"><path fill="#a7a7a7" d="m100.32 109.9h4.916v5.132h-4.916z"/><path fill="#808080" d="m139.04-25.672h29.757a.4445 .1994 0 0 1 .445 .1994 .4445 .1994 0 0 1 -.445 .1995h-29.757a.4445 .1994 0 0 1 -.445 -.1994 .4445 .1994 0 0 1 .445 -.1995" transform="matrix(.55442.83223-.88237.47055 0 0)"/><path fill="#d0d0d0" stroke="#707070" d="m180.71 42.52c0 3.914-3.173 7.087-7.087 7.087s-7.087-3.173-7.087-7.087 3.173-7.087 7.087-7.087 7.087 3.173 7.087 7.087z" transform="matrix(.11563 0 0 .10345 80.65 101.47)"/><path fill="#808080" d="m115.88 112.54c0 .304-1.902.66-4.097.66-2.195 0-4.097-.356-4.097-.66 0-.304 1.902.44 4.097.44 2.195 0 4.097-.744 4.097-.44"/><path fill="#a7a7a7" d="m100.73 115.03h4.097v1.466h-4.097z"/></g><g fill="#808080"><use transform="matrix(.06919.09106-.058.10863 98.07 79.58)" xlink:href="#3"/><use transform="matrix(.01299.08171-.06605.05794 115.31 87.08)" xlink:href="#3"/><use transform="matrix(.06377-.02721.0487.08859 93.87 114.85)" xlink:href="#3"/><path d="m290.55 136.42c0 .978-10.312 1.772-23.03 1.772s-23.03-.793-23.03-1.772c0-.978 10.312-1.772 23.03-1.772 12.72 0 23.03.793 23.03 1.772" transform="matrix(.12452 0 0 .10345 78.06 101.47)"/><path d="m209.06 132.87c0 .978-7.932 1.772-17.717 1.772-9.785 0-17.717-.793-17.717-1.772 0-.978 7.932-1.772 17.717-1.772 9.785 0 17.717.793 17.717 1.772" transform="matrix(.11563 0 0 .10345 80.65 101.47)"/></g><path fill="#d0d0d0" stroke="#808080" stroke-width=".073" d="m95.81 127.96s.676 1.643 3.556 1.666c2.881.023 3.872-.493 2.707-1.363-1.165-.87-3.333-.599-3.053.151.28.751-.813 1-1.07.473-.257-.528-1.289-2.091.567-2.195 1.855-.105 5.784-.674 6.766.416.982 1.09-1.109 2.078.472 2.309 1.582.231 1.806-.264 4.528-.413 2.722-.149 3.761.505 4.693.413.933-.091.801-1.694.063-2.101-.738-.407-2.155-.481-2.518-.927-.363-.446-1.351-.083-1.259-.587.092-.504 1.401.347 1.416.089 0-.008.216-.179.26-.222-.165-.038-.259.023-.382.089.134-.107.126-.157.171-.245-.023-.033-.186.124-.214.091-.028-.033.189-.256.091-.175-.034.023-.293.151-.296.063.004-.036.135-.128.089-.178-.037-.042-.234.048-.259.059.112-.15.105-.149-.004-.26-.094-.112-.163-.109-.317.017.064-.181.082-.219-.073-.288-.127-.069-.133-.134-.291.189.06-.346-.102-.362-.034-.526.04-.151.251-.214.599-.181.676.006 1.038.816 1.259.814.221-.002.468-.859 1.416-.511.948.347 1.065.418 1.542.625.477.206-.335.521-.063.927.272.406 2.134 1.764 1.605 3.18-.529 1.415-1.892 1.639-2.01 2.252-.122.613 4.314.362 5.445.568 1.13.206 1.843 1.051 1.888 1.192.046.142-1.983.132-1.983.132s-1.041-.538-3.525-.587c-2.483-.049-3.429-1.051-4.359-1.176-.93-.126-2.911.21-4.02.161-1.108-.049-2.229-.225-2.947-.322-.717-.097-4.286 1.611-4.274 2.01-.744-.028-2.496-.123-2.423-.076.072.047.314-.775 1.679-.919 1.365-.144 2.695-.799 2.651-1.229-.044-.43.264-1.904.378-2.536.114-.632.625-.937.504-1.268-.122-.331-1.682-.672-3.179-.662-1.497.0001-3.158.094-3.399.454-.241.361-.059 1.408.252 1.287.311-.121-.075-.805.252-.946.327-.141 1.165-.266 1.951-.284.787-.018 2.154.67 2.14.889-.014.22.44.952-.189 1.23-.629.278-1.915.403-3.147.341-1.232-.062-2.479-.485-2.927-.757-.448-.272-.724-1.098-.724-1.155z"/><path d="m205.51 434.06c0 .978-.793 1.772-1.772 1.772-.978 0-1.772-.793-1.772-1.772 0-.978.793-1.772 1.772-1.772.978 0 1.772.793 1.772 1.772" transform="matrix(.18555 0 0 .18554 75.921 44.995)"/></g><g fill="#d0d0d0" stroke-width="1.25"><path d="m129.51 120.77l1.595.344 2.665-1.824-.206.957-1.388.927c-.259.17-.515.326-.767.467.158.221.334.485.525.793l.859 1.391-.198.917-1.659-2.841-1.595-.344.17-.787"/><path d="m126.79 109.04l3.086-1.421-.839-1.82.413-.19 2.02 4.379-.413.19-.842-1.828-3.086 1.421-.337-.731"/><path d="m122.01 103.23l2.841-2.602.558.609-.073 4.399 2.231-2.043.521.569-2.841 2.602-.558-.609.075-4.401-2.233 2.044-.521-.569"/><path d="m109.59 98.21l.466-3.824.799.097-.411 3.373 2.975.362-.055.451-3.773-.46"/><path d="m103.48 98.76l-.689-3.79.792-.144.608 3.343 2.948-.536.081.447-3.74.68"/><path d="m92.2 104.33l-.283-.353 2.01-1.613.894 1.116c-.184.403-.409.776-.673 1.118-.266.341-.572.65-.918.927-.466.373-.941.65-1.424.83-.482.177-.916.224-1.302.14-.385-.084-.697-.273-.934-.569-.234-.293-.356-.642-.367-1.049-.009-.41.119-.822.383-1.235.264-.413.633-.809 1.106-1.188.343-.275.681-.487 1.015-.638.335-.153.631-.23.889-.231.258 0 .51.068.754.205l-.488.552c-.194-.096-.379-.145-.555-.148-.176-.003-.383.048-.621.154-.239.104-.479.252-.719.444-.287.23-.513.457-.677.681-.166.222-.278.431-.335.625-.055.193-.075.371-.06.536.028.283.129.533.303.751.215.268.466.435.755.499.291.063.612.026.96-.109.349-.136.68-.329.993-.58.272-.218.512-.464.718-.736.206-.275.345-.504.419-.686l-.448-.56-1.397 1.118"/><path d="m92.07 132.03l-3.141 2.231-2.376-3.346.371-.263 1.91 2.69.973-.691-1.653-2.328.371-.263 1.653 2.328 1.427-1.013.466.656"/><path d="m87.44 127.02c.447-.126.746-.414.897-.865.149-.453.143-.966-.019-1.538-.165-.583-.43-1.025-.795-1.328-.367-.305-.788-.39-1.266-.255-.302.085-.542.241-.72.466-.181.224-.289.508-.324.855-.037.345-.002.709.107 1.096.155.548.408.987.759 1.316.349.327.803.412 1.361.254m.218.801c-.615.174-1.171.049-1.665-.375-.496-.423-.861-1.048-1.094-1.873-.153-.54-.209-1.051-.168-1.531s.176-.874.406-1.184c.227-.311.526-.519.897-.624.376-.106.746-.081 1.111.074.364.156.686.432.963.828.276.397.486.849.629 1.358.156.551.21 1.068.164 1.549-.046.482-.183.876-.412 1.182-.229.306-.506.505-.831.596"/><path d="m87.981 120l-3.852-.087.061-2.697c.012-.542.056-.954.133-1.234.075-.281.201-.504.38-.668.179-.165.374-.245.586-.24.273.006.5.151.681.435.181.284.291.718.328 1.302.069-.211.137-.371.203-.481.142-.232.317-.451.527-.657l1.072-1.034-.023 1.012-.82.787c-.237.23-.418.419-.544.569-.126.149-.215.284-.267.405-.052.118-.088.239-.111.363-.015.091-.024.24-.028.447l-.021.934 1.71.039-.018.805m-2.133-.853l.039-1.731c.008-.368-.009-.656-.051-.864-.044-.209-.118-.368-.221-.478-.104-.111-.219-.167-.343-.17-.182-.004-.334.098-.457.306-.122.205-.188.532-.198.983l-.043 1.925 1.274.029"/><path d="m96.55 102.2l.026-4.505.745-.446 4.115 2.027-.787.471-1.208-.636-2.183 1.306.026 1.344-.734.439m.694-2.259l1.77-1.059-1.092-.59c-.333-.178-.593-.333-.781-.463.061.251.093.518.096.8l.007 1.313"/><path d="m115.85 98.73l4.157-1.738.701.51-.256 4.58-.741-.54.113-1.361-2.056-1.498-1.227.549-.691-.503m2.351-.245l1.667 1.214.115-1.236c.035-.376.075-.676.122-.9-.208.153-.441.287-.698.401l-1.205.52"/><path d="m128.5 112.83l3.747-.897.628 2.623c.126.527.188.936.185 1.227 0 .29-.066.537-.198.743-.131.205-.3.332-.506.381-.266.064-.522-.019-.77-.247-.247-.228-.464-.62-.649-1.176-.013.222-.038.395-.073.517-.078.26-.192.516-.343.769l-.774 1.273-.236-.984.592-.97c.17-.282.297-.512.381-.688.084-.177.135-.33.155-.46.02-.126.025-.253.015-.379-.009-.092-.038-.239-.087-.44l-.217-.908-1.664.398-.187-.783m2.28.282l.403 1.683c.086.358.175.632.27.823.096.19.208.325.335.406.129.08.254.105.375.076.177-.042.298-.179.364-.411.066-.229.046-.563-.059-1l-.448-1.872-1.24.297"/></g></g></svg>