<svg xmlns="http://www.w3.org/2000/svg" viewBox="0 0 640 480"><g fill-rule="evenodd"><g stroke-width="1.25" transform="matrix(1.25 0 0 .9375 0 -.00001)"><path fill="#ce0000" d="m256,0h256v512h-256z"/><path fill="#fff" d="m0,0h256v512h-256z"/></g><g transform="matrix(1.5986 0 0 1.5986 -12.38 -30.751)"><path fill="#f1eeee" d="m209.06,63.779c0,7.8276-7.932,14.173-17.717,14.173-9.7846,0-17.717-6.3456-17.717-14.173 0-7.8276 7.932-14.173 17.717-14.173 9.7846,0 17.717,6.3456 17.717,14.173z" transform="matrix(.11563 0 0 .10345 80.65 101.47)"/><g stroke-width="1.25"><path fill="#c00" d="m40.727,100.98v37.209h37.211c0,6.1998 6.2021,12.402 12.404,12.402v37.207h37.208v-37.207c6.2021,0 12.404-6.2019 12.404-12.402h37.211v-37.209h-37.211c0-6.1998-6.2021-12.402-12.404-12.402v-37.207h-37.208v37.207c-6.2021,0-12.404,6.2019-12.404,12.402h-37.211z"/><path fill="#ffe600" d="m41.969,102.22v34.727h37.211c0,6.1998 6.2,12.404 12.402,12.404v37.207h34.73v-37.207c6.2021,0 12.402-6.204 12.402-12.404h37.211v-34.727h-37.211c0-6.1998-6.2-12.404-12.402-12.404v-37.207h-34.73v37.207c-6.2021,0-12.402,6.204-12.402,12.404h-37.211z"/><path fill="#707070" d="m43.209,103.46v32.249h37.208c0,6.1998 6.2021,12.402 12.404,12.402v37.207h32.248v-37.207c6.2021,0 12.404-6.2019 12.404-12.402h37.208v-32.249h-37.208c0-6.1998-6.2021-12.402-12.404-12.402v-37.207h-32.248v37.207c-6.2021,0-12.404,6.2019-12.404,12.402h-37.208z"/><path fill="#a0a0a0" d="m44.45,104.7v29.766h37.208c0,6.1998 6.2021,12.404 12.404,12.404v37.207h29.767v-37.207c6.2021,0 12.404-6.204 12.404-12.404h37.208v-29.766h-37.208c0-6.1998-6.2021-12.402-12.404-12.402v-37.207h-29.767v37.207c-6.2021,0-12.404,6.2019-12.404,12.402h-37.208z"/></g></g><g transform="matrix(.39569 -.39567 .39569 .39567 -117.39203 130.80352)"><path fill="#d0d0d0" d="m333.07,295.87c0,8.8061-11.105,15.945-24.803,15.945s-24.803-7.1388-24.803-15.945c0-8.8061 11.105-15.945 24.803-15.945s24.803,7.1388 24.803,15.945z" transform="matrix(1.2857 0 0 1 -80.99 3.5432)"/><path fill="#808080" d="m333.07,295.87c0,8.8061-11.105,15.945-24.803,15.945s-24.803-7.1388-24.803-15.945c0-8.8061 11.105-15.945 24.803-15.945s24.803,7.1388 24.803,15.945z" transform="matrix(.85715 0 0 1 51.124 3.5432)"/><g fill="#d0d0d0"><path d="m281.34,223.23h4.96l4.961,14.174 4.96-14.174h4.961l-9.921,28.347-9.921-28.347z" transform="matrix(.71429 0 0 .74998 100.22 123.13)"/><path stroke-width="1.25" d="m322.44,290.55h3.543v21.26h-3.543z"/></g></g><g transform="matrix(.39569 .39567 -.39569 .39567 191.39354 -118.74434)"><path fill="#d0d0d0" d="m333.07,295.87c0,8.8061-11.105,15.945-24.803,15.945s-24.803-7.1388-24.803-15.945c0-8.8061 11.105-15.945 24.803-15.945s24.803,7.1388 24.803,15.945z" transform="matrix(1.2857 0 0 1 -80.99 3.5432)"/><path fill="#808080" d="m333.07,295.87c0,8.8061-11.105,15.945-24.803,15.945s-24.803-7.1388-24.803-15.945c0-8.8061 11.105-15.945 24.803-15.945s24.803,7.1388 24.803,15.945z" transform="matrix(.85715 0 0 1 51.124 3.5432)"/><g fill="#d0d0d0"><path d="m281.34,223.23h4.96l4.961,14.174 4.96-14.174h4.961l-9.921,28.347-9.921-28.347z" transform="matrix(.71429 0 0 .74998 100.22 123.13)"/><path stroke-width="1.25" d="m322.44,290.55h3.543v21.26h-3.543z"/></g></g><g transform="matrix(-.39569 .39567 -.39569 -.39567 440.95099 190.03165)"><path fill="#d0d0d0" d="m333.07,295.87c0,8.8061-11.105,15.945-24.803,15.945s-24.803-7.1388-24.803-15.945c0-8.8061 11.105-15.945 24.803-15.945s24.803,7.1388 24.803,15.945z" transform="matrix(1.2857 0 0 1 -80.99 3.5432)"/><path fill="#808080" d="m333.07,295.87c0,8.8061-11.105,15.945-24.803,15.945s-24.803-7.1388-24.803-15.945c0-8.8061 11.105-15.945 24.803-15.945s24.803,7.1388 24.803,15.945z" transform="matrix(.85715 0 0 1 51.124 3.5432)"/><g fill="#d0d0d0"><path d="m281.34,223.23h4.96l4.961,14.174 4.96-14.174h4.961l-9.921,28.347-9.921-28.347z" transform="matrix(.71429 0 0 .74998 100.22 123.13)"/><path stroke-width="1.25" d="m322.44,290.55h3.543v21.26h-3.543z"/></g></g><g transform="matrix(-.39569 -.39567 .39569 -.39567 132.17021 439.57311)"><path fill="#d0d0d0" d="m333.07,295.87c0,8.8061-11.105,15.945-24.803,15.945s-24.803-7.1388-24.803-15.945c0-8.8061 11.105-15.945 24.803-15.945s24.803,7.1388 24.803,15.945z" transform="matrix(1.2857 0 0 1 -80.99 3.5432)"/><path fill="#808080" d="m333.07,295.87c0,8.8061-11.105,15.945-24.803,15.945s-24.803-7.1388-24.803-15.945c0-8.8061 11.105-15.945 24.803-15.945s24.803,7.1388 24.803,15.945z" transform="matrix(.85715 0 0 1 51.124 3.5432)"/><g fill="#d0d0d0"><path d="m281.34,223.23h4.96l4.961,14.174 4.96-14.174h4.961l-9.921,28.347-9.921-28.347z" transform="matrix(.71429 0 0 .74998 100.22 123.13)"/><path stroke-width="1.25" d="m322.44,290.55h3.543v21.26h-3.543z"/></g></g></g><g transform="matrix(1.5986 0 0 1.5986 -12.38 -30.751)"><g fill="none" stroke="#707070" stroke-width="1.25"><path d="m269.29,414.57c0,41.095-34.107,74.409-76.181,74.409s-76.181-33.314-76.181-74.409 34.107-74.409 76.181-74.409 76.181,33.314 76.181,74.409z" transform="matrix(.34191 0 0 .35003 42.921 -25.527)"/><path d="m269.29,414.57c0,41.095-34.107,74.409-76.181,74.409s-76.181-33.314-76.181-74.409 34.107-74.409 76.181-74.409 76.181,33.314 76.181,74.409z" transform="matrix(.2605 0 0 .26669 58.641 9.0234)"/></g><g fill-rule="evenodd"><g fill="#d0d0d0"><path d="m170.08,474.8c0,1.9569-1.5864,3.5433-3.5433,3.5433s-3.5433-1.5864-3.5433-3.5433 1.5864-3.5433 3.5433-3.5433 3.5433,1.5864 3.5433,3.5433z" transform="matrix(.35005 0 0 .35003 40.728 -25.527)"/><path d="m170.08,474.8c0,1.9569-1.5864,3.5433-3.5433,3.5433s-3.5433-1.5864-3.5433-3.5433 1.5864-3.5433 3.5433-3.5433 3.5433,1.5864 3.5433,3.5433z" transform="matrix(.35005 0 0 .35003 60.574 -25.527)"/><path d="m108.12,140.67v1.2932h-1.6539c-1.6539,0-1.6539,1.2932 0,1.2932h1.6539v1.2931c.006,1.3407 1.4434,1.5022 1.5486,.1046l.105-1.3976h1.6539c1.6536,0 1.6536-1.2932 0-1.2932h-1.6539v-1.2932c0-1.2931-1.6536-1.2931-1.6536,0z"/><g stroke="#707070" stroke-width=".137"><path d="m102.77,122.35v.7332s-.3887,.561-2.868,.7331c-2.4792,.172-2.868,0-2.868,0 .0646,.6394 .5472,1.8514 .4097,3.2992 .0965,1.6854-.4744,3.2114-.4744,3.2114 .0648,.0877-.2333,.1323-.7547,.0877 .4097-.3666 .3624-1.4272 .4097-2.9326 .0473-1.5056-1.5641-3.7715-1.2291-4.3988 .335-.6272 7.3748-.7332 7.3748-.7332z"/><path d="m112.61,119.69c2.4118-.1114 6.4589-.0872 6.4589-.0872s.9543,1.9141 .9146,2.9715c-.0397,1.0574-.3678,1.9572-.8183,1.5073-.4505-.4499 .2087-.3653 .2888-1.5073 .08-1.142-.7702-2.3256-.7702-2.3256s-1.73,.7554-4.3322,.6029c-2.602-.1525-1.4501-1.1164-1.7417-1.1617z"/><path d="m113.43,121.58c2.4118-.1114 3.9951,.2584 3.9951,.2584s.9543,1.9141 .9146,2.9715c-.0397,1.0574-.3678,1.9572-.8183,1.5073-.4505-.4499 .2087-.3653 .2888-1.5073 .08-1.142-.7702-2.3256-.7702-2.3256s-1.73,.7554-4.3322,.6029c-2.602-.1525-1.8598-.3078-2.1514-.3531-.2916-.0453-.362,.7198-4.2986,.8268-3.9365,.1069-5.9442-.8268-5.9442-.8268s-.3887,.561-2.8679,.7331c-2.4792,.172-2.868,0-2.868,0 .0646,.6394 .5472,1.8514 .4097,3.2992 .0965,1.6854-.4744,3.2114-.4744,3.2114 .0648,.0877-.2333,.1323-.7547,.0877 .4097-.3666 .3624-1.4272 .4097-2.9326 .0473-1.5056-1.5641-3.7715-1.2291-4.3988 .335-.6272 2.1198-.0409 2.4583-.3666 .3383-.3258-1.5898-2.6208-1.2291-4.7654 .3608-2.1447 2.4042-1.54 4.9166-1.4662 2.5123,.0737 8.0784,.7245 9.4233,0 1.345-.7245 .7629-3.4066 2.0486-5.132 .8194-1.0997 2.0485-1.4662 3.2776-1.4662 .8195,0 2.0486,2.9325 2.0486,3.6657l-.4098,.3665h-.4097v.3665c-.9352,.0938-1.0656-.7999-1.6388-1.4663-.2463,1.0329 .8194,4.3989 .8194,6.5983 0,1.8328-.7657,2.6407-.8138,2.5114z"/><path d="m105.54,118.4c.034,.7306-3.1664,2.3686-3.4269,3.0171-.2605,.6486 .8136,1.0081 .4814,1.3781-.3321,.3702-.6059,.2329-.6739,.3015-.068,.0687-1.2034-2.5408-1.2034-2.5408s3.0018-1.3536 2.8881-1.938c-.1138-.5844-2.2167-.9399-2.5992-2.4117-.3826-1.4718-.1704-4.315-.4814-4.9096-.3109-.5945-3.9952-1.1618-3.9983-2.0608-.0031-.8991 3.7869-3.3665 4.1965-3.7331 .4097-.3666 .8195,.3666 .4097,.7331-.4097,.3666-3.3771,2.6334-3.3771,3 0,.3666 2.4583,.7331 3.2777,.7331 .8194,0 1.2291-.3666 1.2291-.7331 .005-.3171-.8195-.3666-.8195-1.0997s.4097-1.0997 1.2291-1.0997c.4097,0 1.1974,.4694 1.2291,1.0997s-.7291,.6837-.8195,1.0997c-.0903,.416 .8195,.7331 1.6388,.7331 .8195,0 3.6171,2.132 4.0268,2.4986 .4098,.3666 .8195,.3666 .4098,.7331-.4097,.3666-.1697,.8005-.5795,.434-.3488-.3541-.4097-.7331-.4097-.7331-.0354-.3331-3.0376-1.8328-3.4474-1.4663-.4097,.3666 0,4.7655 0,5.132 0,.7331 .8535,.7306 .8195,1.8328z"/></g></g><g stroke-width="1.25"><path fill="#a7a7a7" d="m100.32,109.9h4.916v5.132h-4.916z"/><path fill="#808080" d="m139.045-25.672h29.757a.4445,.1994 0 0,1 .445,.1994v.0001a.4445,.1994 0 0,1 -.445,.1994h-29.757a.4445,.1994 0 0,1 -.445-.1994v-.0001a.4445,.1994 0 0,1 .445-.1994" transform="matrix(.55442 .83223 -.88237 .47055 0 0)"/><path fill="#d0d0d0" stroke="#707070" d="m180.71,42.52c0,3.9138-3.1728,7.0866-7.0866,7.0866s-7.0866-3.1728-7.0866-7.0866 3.1728-7.0866 7.0866-7.0866 7.0866,3.1728 7.0866,7.0866z" transform="matrix(.11563 0 0 .10345 80.65 101.47)"/><path fill="#808080" d="m115.88,112.54c0,.3037-1.9021,.6603-4.0972,.6603-2.195,0-4.0971-.3565-4.0971-.6603 0-.3037 1.902,.4402 4.0971,.4402 2.195,0 4.0972-.7439 4.0972-.4402z"/><path fill="#a7a7a7" d="m100.73,115.03h4.097v1.466h-4.097z"/></g><g fill="#808080"><path d="m279.92,58.465c0,6.8492-.7932,12.402-1.7717,12.402-.9785,0-1.7717-5.5524-1.7717-12.402 0-6.8492 .7932-12.402 1.7717-12.402 .9785,0 1.7717,5.5524 1.7717,12.402z" transform="matrix(.06919 .09106 -.058 .10863 98.071 79.578)"/><path d="m279.92,58.465c0,6.8492-.7932,12.402-1.7717,12.402-.9785,0-1.7717-5.5524-1.7717-12.402 0-6.8492 .7932-12.402 1.7717-12.402 .9785,0 1.7717,5.5524 1.7717,12.402z" transform="matrix(.01299 .08171 -.06605 .05794 115.31 87.084)"/><path d="m279.92,58.465c0,6.8492-.7932,12.402-1.7717,12.402-.9785,0-1.7717-5.5524-1.7717-12.402 0-6.8492 .7932-12.402 1.7717-12.402 .9785,0 1.7717,5.5524 1.7717,12.402z" transform="matrix(.06377 -.02721 .0487 .08859 93.866 114.85)"/><path d="m290.55,136.42c0,.9785-10.312,1.7717-23.032,1.7717s-23.031-.7932-23.031-1.7717c0-.9785 10.312-1.7717 23.031-1.7717 12.72,0 23.032,.7932 23.032,1.7717z" transform="matrix(.12452 0 0 .10345 78.065 101.47)"/><path d="m209.06,132.87c0,.9785-7.932,1.7717-17.717,1.7717-9.7846,0-17.717-.7932-17.717-1.7717 0-.9785 7.932-1.7717 17.717-1.7717 9.7846,0 17.717,.7932 17.717,1.7717z" transform="matrix(.11563 0 0 .10345 80.65 101.47)"/></g><path fill="#d0d0d0" stroke="#808080" stroke-width=".073" d="m95.813,127.96s.6757,1.6428 3.5564,1.6656c2.8806,.0227 3.872-.4928 2.7066-1.3627-1.1654-.87-3.3329-.5993-3.0528,.1514 .2801,.7507-.8129,1.0011-1.0701,.4732-.2571-.5279-1.2887-2.091 .5665-2.1955 1.8552-.1045 5.7845-.6737 6.7665,.4164 .9822,1.09-1.1095,2.0781 .4721,2.309 1.5816,.2309 1.8064-.2641 4.5283-.4135 2.722-.1494 3.7606,.5048 4.6931,.4135 .9325-.0913 .8006-1.694 .0629-2.1008-.7377-.4069-2.1547-.4813-2.5178-.9274-.3631-.4461-1.351-.083-1.2589-.5867 .0922-.5038 1.4009,.3467 1.4163,.0894 .0005-.008 .2161-.1787 .2596-.2218-.1647-.0376-.2586,.0233-.3822,.0886 .1342-.1073 .1259-.1568 .1709-.2445-.0234-.0331-.1861,.1243-.2136,.0914-.0275-.0329 .1894-.2561 .0912-.1751-.034,.0233-.2927,.1514-.2956,.0632 .004-.0358 .1352-.1279 .089-.1779-.0373-.0416-.2338,.0484-.2592,.0587 .1124-.1505 .1045-.1486-.004-.2601-.0944-.1115-.1633-.1089-.3175,.017 .0642-.1809 .0816-.2192-.0733-.2878-.1274-.0692-.1331-.1344-.2915,.1892 .0603-.3464-.1015-.3615-.0343-.5257 .04-.1506 .2512-.2141 .5993-.1809 .6763,.006 1.0379,.8163 1.2589,.8139 .2211-.002 .4684-.8585 1.4163-.511 .9478,.3475 1.0649,.4184 1.5422,.6246 .4773,.2062-.3353,.5209-.063,.9274 .2723,.4065 2.1342,1.7643 1.6051,3.1797-.5292,1.4154-1.892,1.6393-2.0142,2.2523-.1222,.613 4.3144,.3615 5.4447,.5678 1.1302,.2063 1.8428,1.0507 1.8883,1.1923 .0455,.1416-1.9828,.1325-1.9828,.1325s-1.0415-.5382-3.5249-.5867c-2.4833-.0486-3.429-1.0507-4.3586-1.1763-.9296-.1256-2.9108,.2105-4.0182,.1611-1.1075-.0494-2.2294-.2247-2.9467-.3222-.7174-.0974-4.2862,1.611-4.2738,2.0089-.7439-.0282-2.4956-.1232-2.4234-.0757 .0722,.0474 .3139-.7747 1.6794-.9191 1.3655-.1445 2.6949-.799 2.6508-1.2287-.0441-.4297 .2636-1.9039 .3776-2.5362 .114-.6322 .6252-.9373 .5036-1.2681-.1217-.3307-1.6817-.6719-3.1787-.6625-1.497,.01-3.1579,.0935-3.399,.4543-.241,.3607-.059,1.4078 .2518,1.287 .3108-.1208-.0751-.8053 .2518-.9464 .3269-.141 1.1647-.2656 1.9512-.2839 .7866-.0182 2.1542,.6697 2.1402,.8895-.0141,.2199 .4401,.9518-.1889,1.2303-.6289,.2784-1.9152,.4029-3.1472,.3407-1.2321-.0622-2.4787-.4853-2.927-.7571-.4482-.2717-.7238-1.0978-.7238-1.1546z"/><path d="m205.51,434.06c0,.9785-.7932,1.7717-1.7716,1.7717-.9785,0-1.7716-.7932-1.7716-1.7717 0-.9785 .7932-1.7717 1.7716-1.7717 .9785,0 1.7716,.7932 1.7716,1.7717z" transform="matrix(.18555 0 0 .18554 75.921 44.995)"/></g><g fill="#d0d0d0" stroke-width="1.25"><path d="m129.51,120.77 1.5954,.344 2.6647-1.8236-.2064,.9575-1.3882,.9273c-.2588,.1702-.5148,.3259-.7673,.4671 .1583,.2211 .3336,.4849 .5251,.7928l.8591,1.3908-.1976,.9166-1.6589-2.8412-1.5954-.344 .1697-.7872z"/><path d="m126.79,109.04 3.0862-1.4214-.8385-1.8205 .4131-.1902 2.0172,4.3794-.4131,.1902-.8418-1.8276-3.0862,1.4214-.3369-.7314z"/><path d="m122.01,103.23 2.8413-2.6017 .5577,.609-.073,4.3988 2.2307-2.0426 .5214,.5693-2.8413,2.6017-.5577-.609 .0746-4.4011-2.2327,2.0444-.5209-.5688z"/><path d="m109.59,98.214 .4659-3.8241 .7987,.0973-.4109,3.3727 2.9747,.3623-.055,.4514-3.7734-.4596z"/><path d="m103.48,98.762-.6895-3.7902 .7923-.1441 .6081,3.3428 2.9476-.5362 .0814,.4474-3.7399,.6803z"/><path d="m92.198,104.33-.2826-.3529 2.0102-1.613 .8937,1.1161c-.1843,.4032-.4086,.7758-.6728,1.1178-.2662,.3407-.572,.6499-.9176,.9266-.4661,.3732-.9411,.6501-1.4238,.8303-.4824,.1771-.916,.2238-1.3023,.1401-.3855-.0837-.697-.2733-.9336-.5688-.2344-.2927-.3565-.6424-.3674-1.0491-.0089-.41 .1187-.8218 .3827-1.2354 .2643-.4133 .6329-.8095 1.1062-1.1884 .3433-.2749 .6813-.4874 1.0146-.6377 .3347-.1531 .6313-.2303 .8895-.2307 .2585-.0001 .5096,.0677 .7538,.2048l-.4879,.5521c-.1941-.0962-.3787-.1455-.5549-.148-.1757-.003-.3832,.0483-.621,.1536-.2389,.1039-.4788,.2518-.7188,.4439-.2869,.2297-.5125,.4569-.6772,.6806-.1658,.2224-.2775,.4307-.3346,.6247-.0554,.1926-.075,.3709-.06,.5358 .028,.2832 .1293,.5331 .3033,.7505 .2147,.2682 .466,.4347 .7555,.4993 .2914,.0625 .6116,.0262 .9598-.1089 .3487-.1356 .6801-.3291 .993-.5796 .272-.2178 .5116-.4636 .7179-.7362 .2058-.2745 .3454-.5035 .4192-.6855l-.4485-.5601-1.3966,1.1182z"/><path d="m92.068,132.03-3.1412,2.2305-2.3763-3.3462 .3708-.2633 1.9102,2.6899 .9727-.6907-1.6531-2.3278 .3708-.2633 1.6531,2.3278 1.4269-1.0132 .4661,.6564z"/><path d="m87.441,127.02c.4467-.1261 .7461-.4143 .897-.8655 .1489-.4532 .1426-.9659-.019-1.5385-.1645-.5827-.4296-1.0251-.7951-1.3275-.3666-.3049-.7881-.3899-1.2655-.2552-.3017,.0852-.5421,.2406-.7203,.4661-.181,.2238-.2889,.5085-.324,.8546-.0374,.3446-.0021,.7092 .1071,1.0957 .1547,.548 .4082,.9872 .7593,1.3163 .349,.3269 .8026,.4115 1.3607,.254zm.2181,.8006c-.6155,.1737-1.1708,.049-1.6652-.3752-.4964-.423-.8611-1.0479-1.0938-1.8726-.1526-.5405-.2086-1.051-.1676-1.5313s.1763-.8745 .4059-1.1839c.2272-.3112 .5263-.5194 .897-.6241 .376-.1061 .7461-.0809 1.1106,.0744 .3643,.1563 .6855,.4322 .9625,.8277 .2761,.397 .4858,.8492 .6293,1.3576 .1556,.5514 .2102,1.0682 .1641,1.549-.0461,.482-.1833,.8762-.412,1.1819-.2286,.306-.5058,.5046-.8308,.5964z"/><path d="m87.981,120-3.8516-.0869 .0609-2.6969c.0122-.5424 .0565-.9536 .1333-1.2338 .0745-.2811 .2011-.5036 .3802-.6679 .1791-.1646 .3743-.2452 .5864-.2404 .273,.006 .5004,.1514 .6815,.4347 .1811,.2839 .2907,.7179 .3282,1.3023 .0693-.2109 .1371-.3715 .2028-.4806 .1416-.2319 .3175-.4512 .5272-.6569l1.0722-1.0341-.0229,1.0124-.8195,.787c-.2367,.2298-.4177,.4191-.544,.5686-.1259,.1494-.2146,.2842-.2667,.4046-.0516,.118-.0884,.2391-.1105,.3632-.0146,.0912-.0238,.2403-.0285,.447l-.0211,.9341 1.7101,.0386-.0182,.8048zm-2.1336-.8534 .0391-1.7306c.0083-.3676-.0086-.6555-.0514-.8639-.0443-.2087-.1178-.3683-.2207-.4782-.1043-.1108-.2188-.1671-.343-.1699-.1821-.004-.3342,.098-.4565,.3056-.1221,.2047-.1882,.5319-.1984,.9828l-.0435,1.9254 1.2743,.0288z"/><path d="m96.55,102.2 .0263-4.5055 .7445-.4456 4.1151,2.0268-.7869,.471-1.2081-.6364-2.1828,1.3064 .0259,1.344-.734,.4393zm.694-2.2588 1.7697-1.0592-1.0923-.5897c-.3332-.1785-.5933-.3333-.781-.4635 .0605,.2513 .0927,.5179 .0963,.7996l.0073,1.3128z"/><path d="m115.85,98.734 4.1571-1.7378 .7005,.5104-.2559,4.58-.7412-.54 .1133-1.3607-2.0561-1.4979-1.2268,.5494-.6909-.5033zm2.3506-.2445 1.6669,1.2144 .1149-1.2364c.0347-.376 .0752-.676 .1217-.8996-.2084,.1534-.441,.2875-.6983,.4013l-1.2052,.5203z"/><path d="m128.5,112.83 3.7468-.8965 .6278,2.6235c.1261,.5271 .188,.936 .1853,1.2273-.0006,.29-.0664,.5373-.1976,.7427-.1313,.2048-.2997,.3318-.506,.3812-.2656,.0636-.5223-.0187-.7698-.2472-.2472-.2276-.4638-.62-.6489-1.1758-.0132,.2222-.0378,.395-.0735,.5173-.0779,.2604-.1924,.5163-.3427,.7686l-.7735,1.2732-.2355-.9843 .5921-.9697c.1704-.2825 .2971-.5122 .3813-.6883 .0837-.1766 .135-.3301 .1546-.4601 .02-.1264 .0248-.2528 .0146-.3785-.009-.0919-.0382-.2387-.0865-.4404l-.2172-.9078-1.6636,.398-.1874-.7832zm2.2806,.2824 .4026,1.6826c.0857,.3581 .1753,.6323 .2699,.8232 .0959,.1903 .2075,.3253 .3352,.4063 .1289,.0798 .254,.1053 .3748,.0764 .1771-.0424 .2983-.1792 .3637-.4112 .0659-.2293 .0464-.5631-.0586-1.0018l-.448-1.8722-1.2396,.2966z"/></g></g></svg>