<svg xmlns="http://www.w3.org/2000/svg" viewBox="0 0 640 480" xmlns:xlink="http://www.w3.org/1999/xlink"><g fill-rule="evenodd" stroke-width="1.25" transform="matrix(1.3333 0 0 1 0 -32)"><path fill="#fff" d="m0,32h480v480h-480z"/><path fill="#0b7226" d="M 0,32 H160.73 V512 H0 z"/><path fill="#bc0000" d="m320.19,32h159.81v480h-159.81z"/></g><g transform="matrix(.9375 0 0 .9375 78.8 -2.9842)"><g fill-rule="evenodd"><g fill="#9c4314"><path d="m143.28,279.14c.0819-.1064 3.6992-6.4398 3.2703-5.4192 1.6664,1.2767 4.7091,.0667 2.5015-2.8052 .537-1.1614 1.2151-2.0468 1.7529-3.209 1.2138-2.2735-1.386-3.2534-2.4145-1.6812-.6286,1.2041-1.2358,1.9201-1.8648,3.1246-3.2753-1.5549-3.4907,2.1021-1.9235,2.7408-.6953,.9846-1.8796,2.6068-2.5745,3.5913 .4171,1.2193 .8351,2.4386 1.2526,3.6578z"/><path d="m142.85,277.73c-.1077-.0798-6.4916-3.6072-5.4652-3.193 1.2535-1.6843 0-4.7093-2.8396-2.4611-1.1695-.5214-2.0649-1.1872-3.234-1.7078-2.2904-1.1809-3.2331,1.4321-1.647,2.4377 1.2134,.6123 1.9374,1.2085 3.1512,1.8206-1.5085,3.2969 2.1515,3.4607 2.7674,1.8846 .9947,.6814 4.8467,2.9144 5.841,3.5958 1.2134-.4344 .2128-1.9425 1.4262-2.3769z"/><path d="m165.94,316.43c.0211-.1326 .1853-7.4242 .2943-6.3227 2.0734,.3289 4.1725-2.1844 .8634-3.6578-.0806-1.2771 .0937-2.3786 .0131-3.6566-.0156-2.577-2.7683-2.2004-2.9236-.3285 .0207,1.3586-.1723,2.2773-.1516,3.6359-3.6207,.1929-2.0683,3.5109-.3859,3.326-.1427,1.1969-.4112,3.1871-.5535,4.384 .9474,.8731 1.896,1.7466 2.8439,2.6197z"/><path d="m164.89,315.39c-.1326-.019-7.4259-.0798-6.3261-.2048 .2998-2.078-2.2431-4.1408-3.6692-.811-1.2763,.0984-2.3807-.0604-3.657,.0384-2.5762,.0523-2.1608,2.7991-.2871,2.9279 1.3586-.0397 2.2794,.1397 3.638,.1001 .244,3.6173 3.5401,2.0181 3.3311,.3386 1.199,.1258 4.9409,.5168 6.1399,.6426 .86-.9601-.0291-2.0717 .8305-3.0317z"/></g><path fill="#42b2f3" stroke="#000" stroke-width="1.056" d="m240.35,340.38s2.5015,3.3767 3.627,3.5016c3.5016,.2499 31.266,0 31.266,0 0-.0418 1.0006-.5835 1.0006-.6253 .917-1.1674 .8338-1.8344 1.7508-3.0018 1.4591-1.4591 3.5434-1.9176 5.0025-3.3767 6.2535-1.5009 11.881-3.0013 18.135-4.0019-.5003-3.7102-4.2519-2.9182-6.253-4.3772-.6253-.5839-.5007-1.1674-.1254-1.7512 4.6276-2.1262 9.2548-4.2519 13.882-6.378v-1.5009c-9.8387,1.1673-18.927,3.0845-29.516,3.5016-12.048,4.9611-24.096,9.9219-36.144,14.883-.8752,1.0424-1.7508,2.0844-2.626,3.1267z"/></g><path fill="none" stroke="#000" stroke-width=".528" d="m140.42,273.97h-.1254c.6274,0 .1288,.0418 0-1.501"/><g fill-rule="evenodd"><g fill="#008d00" stroke="#286726" stroke-width="1.953"><path d="m140.96,275.64c-1.8758-6.6285-4.9075-12.437-11.982-14.154-1.3265-.3019-2.2688-4.0906-.0583-3.9137 1.251,.5003 .0253-.2377 1.2758,.2626 1.2383,.4425 3.166-.5341 2.3702-2.6416 0-.2499-2.3613-4.4414-2.3613-4.5664-.442-.4788 .3791-3.166 2.5015-1.7508 1.0006,.6565 2.0012,2.1979 3.4438,2.501 .5307-.0887 .8815-1.7356 .7933-3.0106 0-.125 .125-4.3228 .125-4.3228-.5028-2.5293 1.7356-3.8204 3.532-1.9277 .1254,.6253-.0148,.6316 .1102,1.2573 .4116,.8372 .9119,.9676 1.5005,.125l2.3765-2.3765c1.411-.5244 2.2916-1.0487 2.3761,1.8762 0,0-1.9467,2.4402-2.8675,3.3247-.4788,.7072-1.5186,1.6689 .2867,2.1996 .125,0 2.5808,.3538 2.5808,.3538 1.6803,.6983 1.8572,2.5466 .6194,2.7147 0,0-1.3101,1.5283-3.6093,2.8029-.7076,.5678-1.2898,1.2509-.6709,2.0316 1.3265,.5155 .9043,.0215 3.1668,.0215 1.9091-.442 1.7322,4.2329-1.7166,3.9162-1.0322,.2466-2.3942,.1444-2.9536,1.7939-.2499,1.2847-.3116,3.7511-.3116,4.3768-.214,2.9768 .2233,7.1056 .2233,7.2306 .2499,2.1261-.5003,1.3755-.7507,1.8758z"/><path d="m161.43,313.78c-.244-.3112-6.5114-7.1789-13.751-6.4072-1.3506,.1638-3.5164-3.0845-1.3759-3.6646 1.3464,.049 .2981-.1435 1.644-.0946 1.1378-.7984-.92-3.2542-1.8492-2.4014-.084-.2352-2.4816,.5134-3.4982,.3069-3.1457-.3014-4.52-3.8166-2.2216-5.1494 1.4291,.5459 4.1311,.5965 5.5915,.3947 1.4439-.4395 .7751-1.7538-.6236-1.9501-1.9906-.2947-10.021-2.2515-9.3118-3.2255-1.3274-2.2114-.01-3.9166 2.3199-2.7417 1.9231,1.1661 2.1472,.5113 1.679-.3589-.57-1.6533-1.1175-1.2569-1.2016-2.6919-.1419-.9246 .1587-1.7605 1.5228-1.1792 .5754-.4847 1.5224,2.9777 5.0975,1.6651 .6616,.5527 1.2244-3.7461 3.706-3.0921 1.8597,.5754 .589,2.5095 .9525,5.2398 .2976,1.7985 2.0945,1.3856 2.3414,.4517-.3893-4.132 3.6498-4.2042 4.1117-2.8084 .3838,1.0204 .7287,3.8001 .2402,6.413-.266,1.3282-.0553,3.9644 .7912,4.49 1.4224,.0376 .5041-.285 1.4827-1.7572 1.6478-1.0605 4.2105,2.7801 1.2113,4.7087-3.163,.6818 1.7926,12.734 2.2102,13.407-.4581,.4931-1.0023-.1098-1.0694,.4454z"/></g><g fill="#9c4314"><path d="m200.28,346.01c0-.1343-.9799-7.3613-.6996-6.2906 2.0991,0 3.7786-2.8109 .2795-3.7478-.2795-1.2488-.2799-2.3643-.5598-3.6135-.4192-2.5428-3.079-1.7398-2.9388,.1334 .233,1.3388 .1866,2.276 .4196,3.6148-3.5455,.7578-1.4929,3.7917 .1402,3.3454 .0464,1.2045 .0929,3.212 .1397,4.4165 1.0728,.7139 2.1464,1.4278 3.2192,2.1418z"/><path d="m200.15,345.16c-.1338,.002-7.3465,1.0842-6.2801,.7887-.0296-2.0991-2.8641-3.7385-3.7512-.2263-1.245,.2972-2.3604,.3133-3.6055,.6109-2.5365,.4551-1.6959,3.1031 .1748,2.9368 1.3358-.252 2.2735-.2191 3.6089-.4712 .8076,3.5346 3.8124,1.4388 3.3429-.1875 1.2041-.0633 4.9611-.2634 6.1648-.3272 .6991-1.0829-.3534-2.0413 .3453-3.1242z"/></g><g stroke="#000"><path fill="#33b1e9" stroke-width="1.108" d="m197.69,305.64c17.653,10.42 22.189,8.9074 21.452,4.2907 .8461,0 1.0289,.7367 3.535-1.1099-.3492,6.8268 7.0843,10.751 11.616,9.9278 4.0893,.2639 3.5616,5.6721 3.5616,5.6721 .2487,5.5336-1.6128,7.77-1.3641,13.304-.0621,0-.1245-.6595-.1866-.6595-5.0308-1.1965-14.942-1.3375-18.654-2.1384 17.015-11.608-13.086-11.926-15.778-12.321-2.0333-.2639-.5822-2.2422 .6046-2.77 9.3654-1.8466-8.8031-10.716-8.3302-11.771-1.1095-.6595 .0777-1.1872 .0777-1.1872 1.2433-.8085 2.2232-.4294 3.4666-1.2379z"/><path fill="#983d25" stroke-width="1.583" d="m241.77,314.47c-3.0693,0-5.54,2.4706-5.54,5.54-.9233,4.221-.7916,10.157 0,15.828 0,3.0689 2.4706,5.54 5.54,5.54 12.223,1.3189 25.369,.9233 36.669,0 3.0693,0 5.54-2.4711 5.54-5.54 1.4511-5.0122 1.055-10.288 0-15.828 0-3.0693-2.4706-5.54-5.54-5.54-12.223-.5277-24.71-1.1872-36.669,0z"/></g><path fill="#268728" stroke="#000003" stroke-linejoin="round" stroke-linecap="round" stroke-width="1.056" d="m200.49,163.79c-2.789,2.4154-5.5775,4.8307-8.3665,7.246-3.4362,1.519-7.1717,3.4113-4.4824,11.504-1.5688,10.384 6.7981,12.027 14.119,9.8606 1.2201-2.6893 1.6077-4.5457 2.8278-7.235-3.2373-.4978-4.9692,.6362-7.9076,.437-2.0172-.3234-2.1662-1.8424-1.4194-2.8384 3.1622-1.5689 6.0259-3.0626 9.1881-4.6314-.0747-.4733-.1495-.1245-.2242-.5978-2.6146,1.3447-4.4815,1.793-7.2456,2.9135-2.1916,.7722-2.8139-2.0421-1.9425-3.2872 0,0 5.6772-8.1423 5.6772-8.2171 .4754-1.7124 .1461-4.5955-.2238-5.1545z"/><g stroke="#000"><g fill="#fff"><path stroke-width="2.5" d="m275.88,473.6c0,5.7342-4.6485,10.383-10.383,10.383-5.7342,0-10.383-4.6485-10.383-10.383 0-5.7342 4.6485-10.383 10.383-10.383 5.7342,0 10.383,4.6485 10.383,10.383z" transform="matrix(.42219 0 0 .42219 107.4 106.2)"/><path stroke-width="2.651" d="m275.88,473.6c0,5.7342-4.6485,10.383-10.383,10.383-5.7342,0-10.383-4.6485-10.383-10.383 0-5.7342 4.6485-10.383 10.383-10.383 5.7342,0 10.383,4.6485 10.383,10.383z" transform="matrix(.39806 0 0 .39806 93.268 134.16)"/><path stroke-width="2.625" d="m275.88,473.6c0,5.7342-4.6485,10.383-10.383,10.383-5.7342,0-10.383-4.6485-10.383-10.383 0-5.7342 4.6485-10.383 10.383-10.383 5.7342,0 10.383,4.6485 10.383,10.383z" transform="matrix(.39806 0 0 .39806 195.97 143.42)"/></g><path fill="#ba4600" stroke-linejoin="round" stroke-width=".528" d="m200.88,169.32c.0992,2.485 .1663,5.6058 .1663,6.5566-.1055-2.3242-.9195-4.1852-1.221-5.1 .3622-.5966 .9491-1.4566 1.0546-1.4566z"/><g fill="#973100" stroke-width="3.818"><path d="m275.88,473.6c0,5.7342-4.6485,10.383-10.383,10.383-5.7342,0-10.383-4.6485-10.383-10.383 0-5.7342 4.6485-10.383 10.383-10.383 5.7342,0 10.383,4.6485 10.383,10.383z" transform="matrix(.39806 0 0 .39806 131.59 148.43)"/><path d="m275.88,473.6c0,5.7342-4.6485,10.383-10.383,10.383-5.7342,0-10.383-4.6485-10.383-10.383 0-5.7342 4.6485-10.383 10.383-10.383 5.7342,0 10.383,4.6485 10.383,10.383z" transform="matrix(.39806 0 0 .39806 175.18 148.43)"/><path d="m275.88,473.6c0,5.7342-4.6485,10.383-10.383,10.383-5.7342,0-10.383-4.6485-10.383-10.383 0-5.7342 4.6485-10.383 10.383-10.383 5.7342,0 10.383,4.6485 10.383,10.383z" transform="matrix(.39806 0 0 .39806 175.18 128.39)"/><path d="m275.88,473.6c0,5.7342-4.6485,10.383-10.383,10.383-5.7342,0-10.383-4.6485-10.383-10.383 0-5.7342 4.6485-10.383 10.383-10.383 5.7342,0 10.383,4.6485 10.383,10.383z" transform="matrix(.39806 0 0 .39806 131.84 128.39)"/></g></g><path fill="#008d00" stroke="#286726" stroke-width="1.953" d="m200.9,348.26c-.244-.3112-2.1-5.5725-12.591-5.8013-1.4756-.0865-2.4115,.3378-5.4006,.1309-1.7318,.1423-1.0534-1.9218-.3669-2.6644 1.1378-.7984-4.0534-.4091-5.8376-.1976-1.7994-.1034-3.0098-.4099-4.026-.6164-3.1462-.3014-4.9869-2.5108-2.6885-3.8436 .963-.9466 4.8776,.13 6.3379-.0718 1.4439-.4395 1.2417-2.873-.1575-3.0693-1.9906-.2947-10.673-.9457-9.9645-1.9197-1.3274-2.2114-.9423-3.3568 2.5065-2.9283 1.9231,1.1661 1.8673-.328 1.3991-1.1982-.57-1.6533-3.7292-1.9096-3.8132-3.3446-.5146-3.4429 1.7445-3.9061 3.1086-3.3247 .5754-.4847-2.5817-3.1778 .9934-4.4904 .8883-.2786 2.7164-.0616 3.3328,3.2036 1.8597,.5754 .5746-2.1426 3.0976-3.2475 2.1629-.9064-.144,9.6867 2.4348,9.5921 2.2224,.9043 1.7846-5.7899 3.6452-4.4874 4.0214-1.0314 2.0751,12.848 3.825,12.01 2.9051,2.5407 3.2091-2.2849 4.0556-1.7593 1.4224,.0376 2.3693,.0882 1.576,3.2796-.5906,2.4837 .293,3.0596 .7447,4.0555 2.7172,5.9879 6.7947,5.9322 8.1558,8.6878 .4382,4.0745-.3002,1.4494-.3673,2.0046z"/><g stroke="#000"><g stroke-width="1.056"><g fill="#009400"><path d="m251.14,357.47c-5.016,4.1208-10.227,6.7895-12.135,11.079 2.2862-.3078 3.1694-.6894 4.875-.4745 1.8471-4.1328 7.656-6.34 11.085-9.6816-1.275-.3078-2.5504-.6155-3.8255-.9232z"/><path d="m264.55,357.91c4.5356,4.1898 10.158,6.584 12.135,11.011-2.2862-.3078-3.2394-.6202-4.6023-.2685-1.8471-4.1328-7.9287-6.546-11.358-9.8877 1.275-.3078 2.5504-.5472 3.8254-.8549z"/></g><path fill="#fff" d="m261.13,358.76c5.496,3.2977 7.6893,5.6713 11.075,9.8923-1.6267,.098-3.9086,.8355-4.7437,1.3193-4.0893-5.32-7.2549-7.2106-10.684-10.552 1.275-.3078 3.0782-.3517 4.3532-.6595z"/><path stroke-opacity=".772" fill="#ffba00" d="m209.24,180.19c-2.2013,.6054-3.1516,2.4618-3.3518,4.1932-8.1111,5.6814-2.2156,16.865 5.3061,14.542-5.5653-8.3344 0-13.042 6.1906-10.121 1.8758,1.3759 3.1837,4.2451 3.3606,4.0682 1.1775-2.553 5.8368-4.7758 5.8368-4.7758s3.7532,.5041 4.4304-1.9239c.4272-1.5528 3.8824-7.9806 3.8824-7.9806-4.0091-.8254-8.0182-1.6508-12.027-2.4761-2.7708-.0591-5.5416-.1178-8.3129-.1769-1.4739,.6485-2.9477,1.297-4.4216,1.9454-.5894,.9432-.3036,1.7618-.8933,2.705z"/><path fill="#d40000" d="m256.64,359.03c5.496,3.2977 8.0165,6.3852 11.402,10.606-1.4899,.4395-1.9932,2.8916-2.8282,3.3754-2.6387-5.32-7.0016-9.8539-11.618-14.383 1.275-.3078 1.7694,.7088 3.0444,.4011z"/><path fill="#fff" d="m254.57,358.39c-5.496,3.2977-7.4145,5.3973-10.8,9.6183 1.6267,.0984 3.6338,1.1095 4.4689,1.5933 4.0893-5.32 7.2549-7.2106 10.684-10.552-1.275-.3078-3.0782-.3517-4.3532-.6595z"/><path fill="#d40000" d="m259.05,358.65c-5.496,3.2977-7.8101,6.5895-11.196,10.811 2.7244,1.9509 2.0611,2.07 2.6218,3.1711 2.6387-5.32 8.4421-9.7167 13.059-14.245-1.275-.3078-3.2099,.5716-4.4849,.2639z"/></g><path fill="#973000" stroke-width="2.243" d="m203.69,472.45c0,5.0024-7.2204,9.0577-16.127,9.0577-8.9068,0-16.127-4.0553-16.127-9.0577s7.2203-9.0577 16.127-9.0577c8.9068,0 16.127,4.0553 16.127,9.0577z" transform="matrix(.43855 .14328 -.13174 .47697 170.31 53.137)"/></g><path fill="#008d2b" stroke="#005e00" stroke-width="1.056" d="m250.12,351.73c-3.9618,2.8468-9.5643,6.6502-13.526,9.497-.8136,.6945 2.7463,1.4232 4.0513,.7849 4.1822-2.8713 6.3818-4.7516 10.564-7.6229 .7971-.445 1.5946-.8904 2.3917-1.3354-1.7069-.1224-1.774-1.2011-3.481-1.3236z"/><g stroke="#000"><path fill="#973000" stroke-width="2.549" d="m203.69,472.45c0,5.0024-7.2204,9.0577-16.127,9.0577-8.9068,0-16.127-4.0553-16.127-9.0577s7.2203-9.0577 16.127-9.0577c8.9068,0 16.127,4.0553 16.127,9.0577z" transform="matrix(.37238 -.14619 .17511 .39171 62.95 178.21)"/><path fill="#008d00" stroke-width="1.109" d="m290.53,307.86c.2069-10.871 9.7386-1.3531 13.481-5.8317 8.7946-10.365 9.5482-11.154 17.318-10.03 20.824,8.1829-.9119,27.106-22.195,18.489-2.3356-1.2847-6.2682-1.3434-8.6042-2.6281z"/></g></g></g><g fill="#6d390b" fill-rule="evenodd" transform="matrix(.3958 0 0 .3958 180.19063 97.79705)"><path d="m619.32,390.34c0,3.9954-3.239,7.2344-7.2344,7.2344s-7.2344-3.239-7.2344-7.2344 3.239-7.2344 7.2344-7.2344 7.2344,3.239 7.2344,7.2344z" transform="matrix(.874 .2484 -.1647 .72013 140.99 -45.21)"/><path stroke-width="1.25" d="m720.08-110.5h15.887v4.823h-15.887z" transform="rotate(40.94404)"/></g><g transform="matrix(.9375 0 0 .9375 78.8 -2.9842)"><path fill="#6d390b" fill-rule="evenodd" stroke-width="1.25" d="m337.62,287.58 1.1061,1.5499 3.8221-3.3302-1.1057-1.5494-3.8225,3.3298z"/><g fill="none" stroke="#000" stroke-linecap="round" stroke-width="1.583"><path d="m241.77,314.33c6.4633,1.9788 11.212,25.458 17.543,27.568"/><path d="m247.97,314.2c6.4633,1.9788 11.08,25.458 17.411,27.568"/><path d="m254.04,313.94c6.4633,1.9788 11.212,25.589 17.543,27.699"/></g><g fill-rule="evenodd"><g stroke="#000"><path fill="#973000" stroke-width="2.243" d="m203.69,472.45c0,5.0024-7.2204,9.0577-16.127,9.0577-8.9068,0-16.127-4.0553-16.127-9.0577s7.2203-9.0577 16.127-9.0577c8.9068,0 16.127,4.0553 16.127,9.0577z" transform="matrix(.37238 -.14619 .17511 .39171 157.39 161.86)"/><path fill="#dc0000" stroke-width="1.008" d="m340.66,292.97c.3238,1.2535-.2377,2.8793-2.4432,3.4489-2.2055,.57-4.2759-.2892-4.5998-1.5431-.3238-1.2539 .9533-3.0562 3.1592-3.6262 2.2051-.5695 3.5595,.4665 3.8837,1.7204z"/></g><path fill="#008d00" stroke="#286026" stroke-width="1.953" d="m243.6,353.06c-3.2703,.6633-10.724,2.2786-13.974,8.7932-.5894,1.226-5.4935,2.1764-4.829,.0604 .7663-1.1078 1.0398-1.2041 1.8065-2.3115-.06-1.3886-3.2373-.9782-3.0191,.2639-.2436-.0553-1.7804,.2415-2.5019,.9867-1.9488,2.488-5.2752,2.3773-5.16-.277 1.2298-.9098 1.8526-1.7833 2.4694-3.1219 .4074-1.4532-2.4356-1.9737-3.3547-.9005-1.9459,1.0177-3.1673,2.4764-5.4825,3.6057-2.5783,.9275-5.0557-.7257-2.8109-2.0556 2.0185-.9916 .3365-3.284-.6489-3.3584-1.6997-.4108-8.6646,.7646-9.9185,.0625-.9808-.1288-2.7738-2.7083-.6734-3.169 1.9028-.621 5.0798,.6966 5.9001-3.0224 .822-6.2628 10.76,3.2036 9.1463,.5898-3.641-5.3842 2.5564-6.6486 4.4275-2.9824 .7625,1.6554 4.5466,4.1096 5.6438,3.6486 2.0628,.228-3.8271-5.2149 .8494-6.1027 1.0664,.2267 2.9688,.3078 4.2818,2.127 .9757,.9398 1.1838,4.8083 4.8341,5.1288 .7979-1.1779 .0317-.578-.6814-2.1958-.006-1.9594 3.2348-1.7994 4.6196,1.5165 1.3717,2.5319 8.6122,.8123 15.237,.9647 2.1232-.347 5.5383,1.519-6.1618,1.7496z"/><g stroke="#000"><g fill="#dc0000"><path stroke-width="1.056" d="m333.32,292.73c1.1657,1.7905 1.1412,4.628-2.0088,6.6786s-6.8386,1.7947-8.0043,.004c-1.1657-1.7909-.1153-5.2812 3.0347-7.3317 3.1495-2.0502 5.8123-1.142 6.9784,.6489z"/><g stroke-width="1.008"><path d="m335.58,285.31c1.0914,.6962 1.7888,2.2684 .5632,4.1885-1.2252,1.9205-3.3256,2.7033-4.4174,2.0067-1.0914-.6966-1.3856-2.8861-.1604-4.8066 1.2252-1.9197 2.9224-2.0852 4.0146-1.3886z"/><path d="m338.9,288.57c.7063,1.085 .6915,2.805-1.2176,4.0475-1.9091,1.2429-4.145,1.088-4.8514,.003-.7063-1.0854-.0701-3.2006 1.8395-4.4435 1.9087-1.2425 3.5228-.692 4.2295,.3935z"/></g></g><path fill="#d90000" stroke-width=".758" d="m346,282.14c.5315,.8161 .5201,2.1105-.9162,3.0452-1.4363,.9352-3.1187,.8186-3.6502,.002-.5315-.8165-.0528-2.4082 1.3839-3.3433 1.4363-.9347 2.6505-.5206 3.1825,.2964z"/><path fill="#fff" stroke-width="1.056" d="m255.24,348.07c-2.8097,.3293-4.4093,.5028-4.9493,2.5357-.2997,1.3806-.0599,3.1842 .1798,4.7336 0,1.7791 2.2452,2.9577 4.8598,3.4652h4.4993c1.8944,0 5.3994-1.8549 5.3994-3.634 .2799-1.0056 .2698-2.629 .2698-3.7284 0-2.992-2.1122-3.1765-4.753-3.4565l-5.5058,.0844z"/></g><g stroke="#286326" stroke-width="1.742"><path fill="#008f00" d="m355.13,312.72c-.3107-10.384-3.0465-25.432 9.7002-30.593 1.6444-.4289 2.2384,.4978 1.6786,1.8656-3.7929,9.5757-7.5859,19.151-11.379,28.727z"/><path fill="#008c00" d="m371.6,291.58c2.2693-4.2683 7.8768-5.3432 9.8556-5.2111-3.9133,4.0011-7.8265,13.806-10.025,17.015-3.1656,5.4522-12.399,9.3211-17.938,12.531 6.1994-8.4421 11.908-15.894 18.108-24.335z"/></g><path fill="#009400" stroke="#000" stroke-width=".528" d="m255.48,348.01s-2.8143,.5003-2.8768,.5003-2.1886,1.3755-2.1886,1.3755-.4378,2.6889-.4378,2.7514 .5003,3.0642 .5003,3.0642l1.3134,1.8133 3.4392,1.1879 .2504-10.693z"/><path fill="#008d00" stroke="#286326" stroke-width="1.742" d="m353.45,315.9c.3728-.3732 7.2958-33.014 18.841-36.88 1.8652,2.425 .9656,7.6961 .2195,10.494-3.5443,12.187-12.158,20.541-19.06,26.386z"/></g></g><g fill-rule="evenodd"><g fill="#6d390b"><g transform="matrix(-.31836 -.23518 -.23518 .31836 722.45 276.78455)"><path d="m619.32,390.34c0,3.9954-3.239,7.2344-7.2344,7.2344s-7.2344-3.239-7.2344-7.2344 3.239-7.2344 7.2344-7.2344 7.2344,3.239 7.2344,7.2344z" transform="matrix(.874 .2484 -.1647 .72013 140.99 -45.21)"/><path stroke-width="1.25" d="m720.08-110.5h15.887v4.823h-15.887z" transform="rotate(40.94404)"/></g><g transform="matrix(.39728 .14726 -.14285 .40957 217.80312 36.21361)"><path d="m619.32,390.34c0,3.9954-3.239,7.2344-7.2344,7.2344s-7.2344-3.239-7.2344-7.2344 3.239-7.2344 7.2344-7.2344 7.2344,3.239 7.2344,7.2344z" transform="matrix(.874 .2484 -.1647 .72013 140.99 -45.21)"/><path stroke-width="1.25" d="m720.08-110.5h15.887v4.823h-15.887z" transform="rotate(40.94404)"/></g><g transform="matrix(-.3302 .26549 -.27831 -.33271 727.93437 260.87518)"><path d="m619.32,390.34c0,3.9954-3.239,7.2344-7.2344,7.2344s-7.2344-3.239-7.2344-7.2344 3.239-7.2344 7.2344-7.2344 7.2344,3.239 7.2344,7.2344z" transform="matrix(.874 .2484 -.1647 .72013 140.99 -45.21)"/><path stroke-width="1.25" d="m720.08-110.5h15.887v4.823h-15.887z" transform="rotate(40.94404)"/></g></g><g transform="matrix(.9375 0 0 .9375 78.8 -2.9842)"><g fill="#008c00" stroke="#286326"><g stroke-width="1.417"><path d="m348.43,325.62c7.0932-3.8436 2.6488,1.549 2.2076,4.5014-2.0958,7.2857-4.0547,7.3322-6.5194,8.5738-3.6756,3.3526-15.453,1.7263-20.925,3.1082 6.8593-4.981 18.378-11.203 25.237-16.183z"/><path d="m337.81,323.93c2.9616-2.3503 3.448-7.5398 3.2504-9.338-2.6843,3.8339-9.5546,8.0465-11.756,10.263-3.7697,3.2454-6.0842,11.928-8.1136,17.195 5.7696-6.2108 10.85-11.909 16.619-18.12z"/></g><path stroke-width="1.742" d="m300.93,353.74c4.639-1.3611 12.545,2.0666 13.835,3.5738-5.597-.001-14.666,3.8852-18.498,4.5569-6.1116,1.5477-23.062-8.0151-29.13-9.3809 10.13-.5104 23.423,2.7185 33.793,1.2501z"/></g><path fill="#00602b" stroke="#004500" stroke-width="1.056" d="m265.62,352.76c3.9618,2.8468 9.5643,6.6502 13.526,9.497 .8136,.6945-2.7463,1.4232-4.0513,.7849-4.1822-2.8713-6.3818-4.7517-10.564-7.6229-.7971-.445-1.5946-.8904-2.3917-1.3354 1.7069-.1224 1.774-1.2011 3.4809-1.3236z"/><path fill="#008c00" stroke="#286326" stroke-width="1.663" d="m320.61,341.81c.4758-.1799 19.363-25.678 31.104-24.624 .7055,2.7983-2.151,6.999-3.9052,9.1269-7.9021,9.1556-18.799,13.082-27.199,15.497z"/></g><g fill="#6d390b"><g transform="matrix(.28101 .3171 -.31899 .29392 327.85625 3.43842)"><path d="m619.32,390.34c0,3.9954-3.239,7.2344-7.2344,7.2344s-7.2344-3.239-7.2344-7.2344 3.239-7.2344 7.2344-7.2344 7.2344,3.239 7.2344,7.2344z" transform="matrix(.874 .2484 -.1647 .72013 140.99 -45.21)"/><path stroke-width="1.25" d="m720.08-110.5h15.887v4.823h-15.887z" transform="rotate(40.94404)"/></g><g transform="matrix(-.41936 .06047 -.07022 -.42804 668.34688 453.21267)"><path d="m619.32,390.34c0,3.9954-3.239,7.2344-7.2344,7.2344s-7.2344-3.239-7.2344-7.2344 3.239-7.2344 7.2344-7.2344 7.2344,3.239 7.2344,7.2344z" transform="matrix(.874 .2484 -.1647 .72013 140.99 -45.21)"/><path stroke-width="1.25" d="m720.08-110.5h15.887v4.823h-15.887z" transform="rotate(40.94404)"/></g></g></g><g transform="matrix(.9375 0 0 .9375 78.8 -2.9842)"><g fill-rule="evenodd"><path fill="#dc0000" stroke="#000" stroke-width=".788" d="m163,255.92c.5531-.8254 1.8285-1.3683 3.4172-.4779 1.5887,.8895 2.2608,2.4491 1.7073,3.2753-.5535,.8258-2.3398,1.0753-3.9289,.1853-1.5887-.8895-1.7491-2.1565-1.1956-2.9828z"/><g fill="#008c00" stroke="#286326"><path stroke-width="1.417" d="m297.7,350.34c7.7995-2.0624 7.3351-5.8182 10.979-9.1028-8.4358-1.2345-15.165,1.7512-18.769,3.7338-5.6928,3.6709-7.1654,7.6564-12.098,10.401 8.4087-1.0736 12.197-2.2811 19.887-5.0321z"/><path stroke-width="1.663" d="m272.26,352.62c22.308,1.6828 18.753-7.3735 43.201-7.1502-.361,2.8633-5.0291,6.4553-7.4373,7.7995-10.691,5.6534-28.259,8.3018-35.764-.6493z"/></g><path fill="#d40000" stroke="#000" stroke-width=".528" d="m260.92,347.95 .0625,10.505 2.8764-1.1254s1.188-1.8762 1.188-2.0012c0-.125 .5003-2.564 .5003-2.6264 0-.0625-.2499-3.0013-.2499-3.0013l-2.1886-1.4384-2.1886-.3124z"/><path fill="#6d390b" stroke-width="1.25" d="m-299.88-44.279h5.304v1.5913h-5.304z" transform="matrix(-.67306 -.73958 .76307 -.64632 0 0)"/></g><g stroke="#000"><g fill-rule="evenodd"><g fill="#dc0000"><path stroke-width=".932" d="m163.56,252.82c.6054-1.0534 2.0016-1.7466 3.7406-.6101 1.7394,1.1357 2.4749,3.1263 1.869,4.1805-.6058,1.0542-2.5614,1.373-4.3008,.2369-1.739-1.1357-1.9146-2.7527-1.3088-3.8073z"/><path stroke-width=".847" d="m173.39,248.42c1.0166,.0418 2.1198,.9411 2.0624,2.9866-.057,2.0447-1.1623,3.6076-2.1802,3.5658s-2.0957-1.6022-2.0388-3.6477c.057-2.0447 1.1382-2.9456 2.1565-2.9047z"/><path stroke-width=".928" d="m168.38,249.24c1.1526-.3027 2.6547,.209 3.1956,2.2376 .5417,2.0282-.2343,3.9373-1.3873,4.2396-1.153,.3023-2.8232-.8667-3.3648-2.8958-.5412-2.0282 .4036-3.2791 1.5566-3.5814z"/></g><path fill="#008d00" stroke-linejoin="round" stroke-linecap="round" stroke-width="1.056" d="m197.12,281.77c-3.4784-8.8433-12.97-23.524-22.639-16.449-10.73,9.2562 4.8936,23.818 18.218,22.993 1.4739-2.1814 2.9477-4.3629 4.4216-6.5444z"/><g fill="#dc0000"><path stroke-width="1.105" d="m169.51,255.85c1.858-1.2497 4.8383-1.2784 7.0522,1.9678 2.2135,3.2466 2.0151,7.0983 .1575,8.3479-1.8585,1.2501-5.5438,.2208-7.7577-3.0254-2.2135-3.2458-1.3105-6.0398 .548-7.2904z"/><path stroke-width=".794" d="m162.64,241.08c.8469-.57 2.2064-.5826 3.2158,.8976 1.009,1.4802 .9191,3.2373 .0713,3.8073-.8469,.5695-2.5276,.1005-3.5375-1.3801-1.009-1.4798-.5974-2.7544 .2504-3.3247z"/></g><g fill="#008d00" stroke-width="1.109"><path d="m226.66,292.29c-4.3701-7.775-16.296-17.498-28.445-11.278-14.366,10.083 5.795,25.186 26.427,17.739 1.8513-1.918 .1659-4.5432 2.0176-6.4612z"/><path d="m267.16,296.89c-4.3701-7.775-27.793-16.614-37.996-9.1556-12.774,14.328 5.9719,24.301 31.203,17.208 1.8513-1.918 4.9413-6.1348 6.793-8.0528z"/></g></g><g fill="none"><g stroke-width="1.056"><g stroke-linejoin="round" stroke-linecap="round"><path d="m176.19,267.85c.125,0 2.6264,3.1263 2.6264,3.1263l-.1254-4.3773"/><path d="m180.57,273.97 2.6264,2.6264"/><path d="m189.82,272.22 .2504,3.0015 1.6254-.125"/><path d="m189.82,282.23c-.6253-.3749-2.7514-2.1261-2.7514-2.1261"/><path d="m183.69,282.48-3.502-1.1256"/></g><path d="m177.06,275.85-3.3767-1.1256"/><path stroke-linejoin="round" stroke-linecap="round" d="m170.69,273.85h-2.8768"/></g><path stroke-linejoin="round" stroke-linecap="round" stroke-width=".528" d="m184.19,264.34v-3.752"/><g stroke-width="1.056"><g stroke-linejoin="round" stroke-linecap="round"><path d="m179.19,284.61c-.3749,0-5.2524-.2504-5.2524-.2504"/><path d="m187.95,287.98-3.752,1.2505"/><path d="m193.57,274.6c.125-.125 3.1267-1.626 3.1267-1.626"/><path d="m185.07,270.35c0-.125-1.0006-4.1269-1.0006-4.1269"/></g><path d="m255.18,348c-2.8097,.3293-4.4093,.5028-4.9493,2.5357-.2998,1.3806-.0599,3.1842 .1798,4.7336 .5003,2.5921 2.2452,2.9577 4.8598,3.4652h4.4993c1.8944,0 4.9616-1.2297 5.4619-3.5716 .3424-1.1931 .2073-2.6914 .2073-3.7908-.2499-2.7421-2.1122-3.1766-4.753-3.4565l-5.5058,.0844z"/><path d="m255.49,348.01-.0887,10.435"/><path d="m260.97,348.01-.0887,10.435"/></g></g></g><g fill="#008c00" fill-rule="evenodd" stroke="#286326"><path stroke-width=".948" d="m373.82,258.77c1.6495-5.4247-4.0615-6.7073-5.3327-9.7534-2.6079,5.1034-1.6942,10.3-1.2324,13.033 1.069,4.4372 5.0025,7.5044 5.6548,11.253 1.1526-5.5954 .9672-9.0257 .9102-14.533z"/><path stroke-width="1.26" d="m381.38,253.73c.111-2.9684 3.9829-5.0941 5.5433-5.5628-.9672,5.7726 .7705,8.4839 .3111,10.851-.3453,3.8647-7.4246,9.7699-10.434,13.051 1.5258-6.3396 3.0528-12 4.5791-18.339z"/><path stroke-width="1.349" d="m373.22,276.87c.1891-.3551-2.946-27.591 4.9079-33.242 2.0578,1.2087 2.7316,5.1068 2.8836,7.2448 .4344,9.3878 .7422,14.158-7.7915,25.998z"/></g><g stroke="#000"><g fill="#dc0000" fill-rule="evenodd"><path stroke-width="1.167" d="m215.69,276.22c2.2469,.7131 4.2265,3.1639 3.0115,7.1472-1.2155,3.9834-3.0968,6.5452-6.05,5.6556-3.8394-.8895-4.5276-4.4482-3.3133-8.4315 1.2151-3.9829 4.1041-5.0836 6.3518-4.3713z"/><g stroke-width="1.337"><path d="m219.49,272.15c.7139,.5007 1.1408,1.553 .2698,2.7427-.8706,1.1897-2.2988,1.6009-3.0123,1.0998-.7143-.5016-.8549-1.9345 .0152-3.1252 .8706-1.1893 2.013-1.2193 2.7273-.7173z"/><path d="m213.58,270.93c.8528-.1811 1.9138,.2233 2.1907,1.6714 .2778,1.4478-.3947,2.7735-1.2476,2.9542-.8537,.1811-1.9982-.6924-2.2769-2.1405-.277-1.4479 .4796-2.3045 1.3337-2.4852z"/><path d="m216.07,274.09c.8355,.2508 1.5718,1.115 1.1196,2.5184-.4517,1.4034-1.6778,2.2431-2.5129,1.9923-.8359-.2512-1.4207-1.5672-.9693-2.9709 .4517-1.4029 1.5266-1.7909 2.3626-1.5397z"/></g><path stroke-width="1.063" d="m217.28,269.07c.697,.1896 1.3117,.8435 .9343,1.9053-.377,1.0622-1.4,1.6976-2.097,1.5076-.6975-.19-1.1851-1.1859-.8085-2.2482 .3766-1.0614 1.2737-1.3548 1.9712-1.1648z"/><path stroke-width="1.339" d="m220.94,275.46c.7629,.5244 1.1897,1.5228 .1887,2.523-1.001,1.0006-2.5821,1.2391-3.3446,.7148-.7633-.5248-.8613-1.8433 .1393-2.8443 .9997-1.0002 2.2532-.9183 3.0165-.3935z"/><path stroke-width="1.215" d="m211.34,273.27c.7764-.0933 1.6896,.3677 1.8167,1.7183 .1279,1.351-.5818,2.5078-1.3582,2.6011-.7773,.0933-1.7259-.8047-1.8543-2.1553-.1275-1.3502 .6185-2.0708 1.3958-2.1641z"/></g><path fill="none" stroke-width=".528" d="m199.7,343.51v-.125 .125z"/><g fill-rule="evenodd"><path fill="#fff" stroke-width="1.056" d="m300.57,291.21c4.3772,2.3347 2.8764,7.7957-.2504,9.2548-.1668-3.5852-2.4592-4.669-5.8777-5.5024 1.7926-1.0006 3.7102-4.2527 6.1281-3.7524z"/><path fill="#008d00" stroke-width="1.109" d="m258.77,313.05c1.6102-23.735 19.644-26.614 31.597-22.505 17.503,12.701-.2474,23.253-26.447,23.937-2.3356-1.2847-2.8135-.1473-5.1494-1.4321z"/><path fill="#fff" stroke-width="1.122" d="m264.01,286.38c-5.5982-.2259-7.2878,5.2364-5.0916,8.087 2.2287-2.9984 5.0802-2.7607 8.8816-1.7327-1.1644-1.7753-1.1526-5.5509-3.79-6.3544z"/></g><g stroke-width="1.056"><g fill-rule="evenodd"><path fill="#fff" d="m266.93,293.48c-4.3773,2.3347-3.4451,7.7957-.3183,9.2548 .1668-3.5852 2.4592-4.669 5.8777-5.5024-1.7926-1.0006-3.1415-4.2527-5.5594-3.7524z"/><path fill="#f6aa00" stroke-linejoin="round" stroke-linecap="round" d="m301.15,291.66c.0507-1.953-1.4903-3.6414-3.2973-3.9141-2.1776-.2651-4.2675,1.2383-6.4456-.3534-.2651-.1769-5.3234-4.5428-6.7749-6.5768-1.4515-.7958-4.4934-2.2878-4.4934-2.2878-1.7926,2.3347-3.0545,5.0228-5.643,6.5616-1.2872,.5155-1.7787,1.1192-4.1273,.9275-2.428-1.1348-5.1-1.7179-6.4882-.4855 1.1813,2.3393 .8591,5.2985 .3601,7.5496 .8756,.5003 1.8395-.0988 2.8916,.1364 3.2432,.0861 2.4183,3.57 3.627,5.0709 3.4159,.9288 5.152-.7072 5.6493-3.4928 .9035-1.4211 3.6638-1.6052 5.6278-2.1418 2.1262-.4104 4.783-1.0863 6.7322,.007 1.6094,.8549 2.6885,1.8872 3.5016,3.6266 0,0 2.5631,.2288 5.1279-.2499 .0882-1.5397-.2276-4.3409 3.752-4.3772z"/></g><g fill="none"><path d="m278.49,280.98c.0418,1.8762 .0832,3.752 .125,5.6282 .6671,2.0426 5.2111,1.834 5.7527,.4999-.0418-2.1262-.0832-4.2519-.125-6.378"/><g stroke-linecap="round"><path d="m279.99,292.98c.9812-.3323 1.3447-3.0604 1.3447-3.0604"/><path d="m284,292.23 .2499-2.2511"/><path d="m288.12,292.23-.37-2.37"/><path d="m277.24,290.48c-.1516,.0844-2.1257-2.3761-1.5005-2.1261"/><path d="m273.62,294.11c.2504,0-3.2669-3.6422-2.6416-3.3923"/><path d="m270.36,287.36c-.0912-.2791-.2499-1.6258 .3753-1.3759"/><path d="m278.2,286.52c-5.3428,4.612-10.374,2.6712-11.1,6.5494"/><path d="m291.43,289.13c.187-.2259 .83-1.4198 .1571-1.4173"/><g stroke-linejoin="round"><path d="m205.62,291.41c.0697-.1034 4.0602-.4332 4.0602-.4332l-3.7013-2.3402"/><path d="m229.94,295.39c.0697-.1034 4.0602-.4332 4.0602-.4332l-3.1698-3.6688"/><path d="m239.77,296.06c-.1959-.635 4.1932,.0984 4.0602-.4332l-2.7712-3.0043"/><path d="m234.52,282.06c.125,0 2.6264,3.1263 2.6264,3.1263l-.1254-4.3772"/><path d="m309.84,302.93c.095,.0811-.0236,4.4592-.0236,4.4592l2.8726-3.1153"/><path d="m277.78,301.81c.0853,.0912-.483,4.0547-.483,4.0547l4.2831-2.2722"/><path d="m202.71,281.49 2.6264,2.6264"/><path d="m197.93,285.87 2.6264,2.6264"/><path d="m215.84,292.68 3.6996-.3302"/><path d="m209.96,296.33 3.7047-.263"/><path d="m236.75,287.92 2.6264,2.6264"/><path d="m247.68,289.28 2.6264,2.6264"/><path d="m227.31,284.5 2.6264,2.6264"/><path d="m199.7,276.16 2.6264,2.6264"/><path d="m229.05,308.13 2.4297-2.8097"/><path d="m241.36,310.46 2.4297-2.8097"/><path d="m194.11,296.09 3.6996-.3302"/></g></g></g></g><g stroke-linejoin="round"><path fill="none" stroke-linecap="round" stroke-width="1.124" d="m201.11,293.46c-.6042,.0334 1.8732-.1596 2.5568,.114l-3.6532-2.6138"/><g stroke-width="1.056"><g fill="none" stroke-linecap="round"><path d="m205.73,301.29 3.6996-.3302"/><path d="m249.6,297.7 3.7047-.263"/><path d="m243.32,302.89 3.7047-.263"/><path d="m247.78,283.84c.125,0 2.6264,3.1263 2.6264,3.1263l-.1254-4.3773"/><path d="m283.83,295.03-2.6264,2.6264"/><path d="m292.44,297.9-2.6264,2.6264"/><path d="m288.61,305.28-2.6264,2.6264"/><path d="m319.5,305.96-2.6264,2.6264"/><path d="m303.24,304.05-2.6264,2.6264"/><path d="m319.23,288.33-2.6264,2.6264"/><path d="m331.66,306.08-3.698-.3525"/><path d="m300.6,314.32 .1794-3.7106"/><path d="m312.32,297.53 1.8901-3.1981"/><path d="m318.2,301.08 1.8901-3.1981"/><path d="m323.1,311.25c-.0815,.095-4.0834-.0312-4.0834-.0312l2.8688,2.0915"/><path d="m267.53,310.14c.0853,.0912-.483,4.0547-.483,4.0547l4.2831-2.2722"/><path d="m234.58,302.89c.4876-.3618 2.9629-1.1319 2.8299-1.6634l-2.6345-.9542"/></g><path stroke-opacity=".772" fill="#9c4314" fill-rule="evenodd" d="m346.11,277.88c1.7352,1.3468 4.6618-13.979 4.2134-18.775 0-.3166-.5446-10.487 1.5849-17.752 1.3447-2.4462 1.3932-20.773-.624-25.591 1.6068-.1355 3.554-.6557 3.7938-2.6197-7.4221,2.7476-9.1847-15.687-16.326-26.274-6.9733-10.617-15.628-16.806-24.619-23.249 .7013-1.8023 1.7386-3.4928 3.1124-5.1832-11.04,5.5298-28.243-14.492-53.627-12.996-5.7219,.57-8.4176,.9157-9.8809,4.3992-4.7192,.4002-9.5512,1.4726-9.5634,7.7003 .009,1.492 1.3637,4.2168 4.3988,4.2519 4.1594,1.1973 7.534,.2656 10.349,6.058 .2111,1.5849 .5345,4.4026 .7456,5.9875 0,0-3.7233-4.7163-5.7595-5.5007 .5404-.7844-.3204-1.3227 1.2484-2.5357-1.9049-1.1019-5.3149-.2052-5.3149-.2052s-7.3735-3.4708-13.313-2.5361c0-.6337-1.1365-4.8087-1.1365-4.8087-1.0504,2.941-3.3708,2.7822-3.711,5.5742-.6337-2.0075-1.492-4.4634-2.1257-6.4709-2.0844,2.8464-1.4794,5.917-2.219,8.8753-.8262,.6725-2.474,.7101-2.8895-1.1952-.2111-2.3246-.4973-2.5572-.4843-5.3297-1.5047,2.6222-3.3083,3.8993-3.9166,8.4269-.6341-1.6904-.9689-3.3066-1.603-4.9966 .0802,5.8883-4.9983,9.4216-9.8083,13.555-1.351,2.5006 .2115,2.5357 .3171,3.8035 .8452,.4226 1.6904,.8456 2.5357,1.2682 1.4794-.1055 3.0706-.2115 4.5495-.3171 .7397,.9508 .1347,1.0078 2.1072,1.6225 5.2828,1.4794 11.895-4.8729 17.082,5.1076-2.3888,1.9881-4.7775,6.6664-4.0281,7.534 .9508,0-1.9087,1.3447 1.956,.1119-4.0344,3.9226-6.7681,9.0804-6.7681,9.3975-.4484,1.1011 1.6258-.149 1.1923,1.8521 .567-1.5009 .9592-.125 .9592-.125-9.2075,9.9599-.3078,20.64-1.2999,26.394 1.5309,2.4656 1.7217-.0464 3.6355-.3196 1.6199,7.0569 6.2526,11.337 9.1053,16.938-1.473-.4517-4.4-.6122-5.9849,.0591 .1347,2.6556 2.5357,5.1803 4.4376,7.5023-1.3734,.4222-2.6416,.8444-4.015,1.2708-2.8527,1.4777-4.7488,3.0313-6.7567,5.2478-1.3388,3.234 6.3902,4.0192 10.095,4.5639-.3361,1.161-.8093,2.6218-.1368,3.8968 5.8275,.5615 12.561-1.161 12.561-1.4777 0-.3209 1.4599-1.1395 1.4599-1.1395 .7844,1.5705 2.5103,2.0345 3.2753,1.8108 1.1015,0 2.8114-4.3865 2.0269-7.7472 2.1131,2.5331 4.1016,6.5693 6.2146,9.1066 .64,.6714 1.4667,.1775 1.9948-.2744 1.7964,2.8542 4.2759,5.7082 6.0724,8.5579 .9508,1.0892 .746,.6882 2.0328,.7684 1.175-.38 2.1755-.5362 2.7902-2.816 0,0 .3897,.3538 .944,1.6106 1.4186,1.009 2.4204-1.4169 3.2048-2.2021 .4484-1.0808 2.1975,.2115 2.1975-.4218 .6341,.4222 1.05,2.2798 1.6841,2.702 .9702-.3589 1.9336-2.4909 2.0075-4.7538 .9639,1.9843 1.2615,1.8196 2.0012,2.3516 .6341-.532 .833-2.6007 1.4671-3.1284-.1368-1.0935 7.6133,7.4727 7.9304,7.4727 .765,.5573 5.1452,1.8998 6.0415,.3335 2.1869,1.4608 8.0718,2.3643 9.026,.0169 4.8442,2.0687 10.545-.2491 10.304-2.5627 4.4178,1.7648 11.305,.5868 11.305,.2702 .7844-.0929 2.914-2.1616 .8967-3.7279-14.687-10.251-36.546-27.223-44.957-31.309 0-3.0258-2.2891-13.941-4.7547-16.947-.4484-1.5498 .5611-3.4653 2.0181-3.3534 5.7152,5.3441 7.7928,4.8349 10.818,5.6962 3.2753,2.5838 4.4511,6.5283 7.7265,10.121 1.5435,.4931 3.3678,2.0565 2.8937,.5324-2.0442-5.13-4.5153-10.096-10.635-16.766 3.1698,1.5849 8.3619,5.7831 11.868,8.825 2.3372,3.8516 2.9937,6.9192 5.1068,11.779 1.5317,.9715 3.0963,4.5529 2.8722,1.5849-.3361-5.5834-4.2519-14.449-4.2519-15.084 6.2248,4.9662 6.1602,12.663 8.0364,17.372 1.6254,2.3896 2.4432,5.5644 3.1158,4.8214 .7844-1.085-1.8479-14.528-1.8479-14.528-.4226-1.6904-.6341-3.6055-1.0567-5.2959 4.6331,2.6665 6.253,12.843 8.421,25.034 .006,1.9421 .7971,4.0699 .6916,5.3365 .9943,1.2286 2.1392,4.6188 2.0877,2.5965 0,0 .003-19.833-1.3417-24.389-.3361-2.4272 .5957-6.3974 .5957-6.3974 1.6904,8.2416 3.4932,17.154 5.1836,25.395v6.0246c.8452,.8444 1.6904,1.6888 2.5357,2.5374 .5282-4.9692 1.0567-9.9341 1.5849-14.899 0,0-1.902-17.435-1.902-17.751v-5.0718c-.0384-1.7867 1.6039-1.4443 2.6864,.5797 .2115,4.3321 .1984,7.7674 .4099,12.1 .7397,4.9637 1.2548,8.586 1.6584,14.898 .1984,5.1718 .3973,17.403 1.4924,17.192z"/><g fill="none" stroke-linecap="round"><path d="m264,306.55c-.2381-.5586-.4095-3.1453-.9575-3.1398l-1.5423,2.3393"/><path d="m310.35,292.43-.3154,2.6163"/><path d="m287.3,311.73c-.6029,.0739-3.1352-.48-3.2821,.0477l1.8188,2.1316"/></g></g></g><g fill="none" stroke-width=".528"><path d="m248.54,253.1v.2736-.2736 .2736-.2736 2.7341 2.0502c.1397,.678 .1368,1.4333 .1368,2.1869 .0857,.5792 .2884,1.275 .5467,1.9138 .0376,.8106 .2635,1.3426 .5467,2.0506 .0583,.6987 .2968,1.2966 .5467,1.9138 .0591,.7017 .2862,1.0698 .41,1.6402 .198,.6565 .4382,1.0842 .6835,1.5034 .1782,.1782 .2461,.3555 .4099,.4099"/><path d="m237.87,269.91c0-.2217-.0346-.8929 .2736-1.367 .4838-.6877 .8722-1.1142 1.5034-1.777 .7464-.475 1.2792-1.0382 1.9138-1.6402 .6806-.4344 1.0225-.8182 1.6402-1.2303 .3791-.3867 .8169-.5784 1.2303-.8203 .4703-.2309 .8127-.5725 1.5034-.6831 .4171-.2086 1.2818-.1368 1.9138-.1368 .6523,0 .8803-.1254 1.5038-.1368"/></g><g stroke-width="1.056"><g stroke-opacity=".772"><g stroke-linecap="round"><g fill="none"><path d="m337.24,222.43c2.1126,1.5317 4.438,4.8611 5.3888,10.883"/><path d="m325.36,224.48c3.0638,2.7472 4.7931,5.7346 7.0793,12.468"/></g><g fill="#00c600" fill-rule="evenodd"><path d="m317.96,227.76c1.8665,2.1308 2.9937,4.3671 4.0154,7.0261"/><path d="m305.28,220.79c2.4301,2.8 6.3392,7.0793 8.3471,11.411"/></g></g><g fill="none"><path d="m253.67,149.29c.1773,12.179 18.004,9.2088 19.505,20.652 3.4117,12.488 1.9894,20.556-3.0009,24.521-2.8337,2.9173-.6666,7.4529 .1769,9.7821 4.6331,11.743 11.63,13.633 14.638,23.77"/><path stroke-linecap="round" d="m247,157.6c0-.2339 .4184-.6421 .8321-.8317 1.7745-.5784 2.8654-.6122 4.6804-.7278 1.56,0 3.0157,.0688 4.5757,.312"/><path d="m270.09,269.4 6.1977,10.082"/><path d="m289.84,254.4 33.183,25.412"/><path d="m288.95,261.37 24.249,21.287"/><path d="m243.33,234.96c3.1934,6.3404 12.218,14.762 17.633,16.105 .1849-4.0724-.046-5.6455-.6941-8.4687"/><path d="m253.6,231.35c3.1934,6.3404 6.1091,13.097 14.579,16.939 .8794-6.1555-1.0179-14.532-5.6924-23.048"/><path d="m255.1,222.85c2.9156,1.7588 5.5535,2.545 7.4976,2.7767 .8794-6.1555 1.6495-12.669-3.3724-21.482"/><path d="m243.88,226.49c4.3042,4.6745 7.775,4.9054 9.7192,5.1372 1.4346-4.2118 2.0366-13.144 .2778-22.771"/><path d="m232.73,230.24c4.2852,5.5463 14.165,16.073 19.481,19.899 .1849-.8824 .4594-1.2927 .3888-4.1151"/><path d="m305.92,169.33c4.5909,5.2926 22.306,23.103 25.813,31.439 6.0538,13.625 17.217,16.216 19.999,14.69"/><path d="m275.57,242.96c1.5942,6.519 4.4891,18.378 8.6604,20.253 .7181-.7008 1.3252-1.997 1.2547-4.8214"/><path d="m251.49,206.01c1.8732,1.9074 2.2976,3.6443 4.2417,3.8761 2.368-1.937 6.5389-12.734 5.0405-20.704"/><path d="m241.67,205.71c.8807,4.2894 1.7018,7.9122 4.7378,7.9456 5.0481-4.2198 6.5389-13.666 5.0405-21.635"/><path d="m239.71,228.41-2.2731-4.9953"/><path d="m288.76,268.83 15.217,13.823"/><path d="m281.51,263.27 4.6956,13.219"/><path d="m260.82,251.17c3.1934,6.3413 9.9966,15.494 15.412,16.837 .1849-.8782 .0819-1.6423 .0114-4.4625"/><path d="m252.58,249.9c3.1934,6.337 12.577,16.668 17.992,19.695 .1849-.8782 .9748-1.047 .9043-3.8672"/><path d="m275.95,267.74 6.7799,11.243"/><path d="m267.84,239.52c2.9156,1.7588 5.9761,3.2327 7.9203,3.4645 .2972-6.8542-2.0924-17.909-6.9982-26.373"/><path d="m234.1,203.58c-.8663,3.2416-.746,6.785 2.29,6.8183 8.4252-3.6372 3.3948-7.2608 10.63-19.539"/><path d="m245.22,181.28c3.1934,6.3404 4.1294,10.651 9.1054,12.28 .9959-.4492 3.4733-11.656-4.9274-20.754"/><path d="m255.45,186.56c1.6406,1.9074 4.0446,2.3634 5.9888,2.246 1.902-3.8001-2.165-14.565-7.5196-20.132"/><path d="m302.51,177.78c4.0087,5.6417 21.597,25.336 29.135,31.622 1.6942-.2162 4.2004,1.8876 1.8551-5.2305"/><path d="m300.53,190.24c4.0087,5.6417 11.349,15.193 18.887,21.48 1.8948,.7072 3.7284,.48 4.3308-.0127 .6459-.6227 .0578-5.0941 .2246-9.6428"/><path d="m295.76,197.35c4.5909,5.0595 10.651,10.884 18.072,17.637 1.8948,.7072 3.5325,.735 3.7486-.0127 .1803-.7392 .5239-.5526 .1081-5.1013"/><path d="m289.35,206.43c4.5909,5.0595 8.7874,8.7883 12.949,9.7179 2.0113,.2415 3.0668,.2694 3.2829-.4783 .1803-.7392 .0578-4.2789-.008-8.3619"/><path d="m282.83,213.18c4.5909,5.0595 4.5951,7.1578 8.7562,8.0874 2.0113,.2415 3.5008-.0232 3.8651-.711 .6464-1.438 .8731-2.998 .8068-7.081"/><g stroke-linecap="round"><path d="m280.97,180.11c4.6242,.8414 5.0072-3.1563 4.6322-6.0166-.4551-3.5856-2.9908-5.1549-5.9938-4.4013"/><path d="m278.4,195.95c2.1789,.8414 4.9168,.7878 5.9132-1.7078 .8047-1.8986 .5028-6.5524-2.4998-5.7988"/><path d="m281.67,188.38c4.1586,.2592 4.5474-1.6394 4.3992-4.037-.1647-2.7945-2.059-4.9219-5.062-4.1683"/></g><path d="m285.71,177.52c6.0723-3.6553 23.566,11.003 10.261,15.67"/><path d="m284.42,187.9c6.0724-3.6553 19.446,8.3032 5.8862,12.961"/><path d="m282.15,196.15c6.7799,.2356 14.582,11.118 1.289,12.448"/><path stroke-linecap="round" d="m274.16,201.96c2.1789,.8414 3.4379,1.3869 5.3825-.2926 .7671-.7042 1.78-3.9335-1.0846-5.7253"/><path d="m217.39,188.81c2.2929-2.9595 7.8979-4.8463 9.8155-.9275"/><path d="m278.25,202.49c3.95,1.2974 10.234,12.285-.3196,13.406"/><path stroke-linecap="round" d="m273.21,152.79c4.555,.8613 6.8546,8.2209 10.485,8.7883 6.6389,.99-.8575-7.6834-2.2946-8.6591"/><path d="m206.05,184.25c2.043,.0832 3.9606-.2922 5.2529-2.71"/><path d="m226.3,205.34c1.1348,2.116 4.0517,1.2704 6.4624-.1972 3.2977-1.8859 .5185-8.5113 8.3792-14.161"/><path d="m230.48,233.24c4.2852,5.5459 12.414,13.821 17.48,18.269 .1849-.8782 1.0069-1.3257 .9364-4.1501"/><path d="m247.8,251.14 9.7454,13.54"/><path d="m268.12,247.87c1.5942,6.5169 7.9329,16.839 12.104,18.714 .7181-.705 1.2003-3.4999 1.1298-6.3244"/><path d="m265.85,266.54-.5953,6.0415"/><path d="m280.44,236.33c1.5942,6.5182 3.9888,22.381 7.6598,25.256 .7181-.7008 2.2009-13.879 2.1304-16.702"/><path d="m275.52,235.88c2.1654,.2584 3.4273,.2512 5.1216,.2326 .2972-6.8542-2.672-14.911-7.5779-23.375"/></g><path fill="#00c600" fill-rule="evenodd" stroke-linecap="round" d="m287.59,218.95-.3382,6.9306"/><g fill="none"><path d="m263.12,215.99c2.2904,.8836 3.9276,1.1695 5.7468,1.0259 1.88-9.2822-2.8527-9.292-8.7503-15.854"/><path stroke-linecap="round" d="m289.47,154.29c4.555,.8613 1.6668,7.6741 7.859,9.7889 5.198,1.7327 2.2693-5.4319 .8321-6.4076"/><path d="m282.7,169.59c3.2863-2.3904 15.035,.9187 19.011,4.2582 1.1386,1.0618 2.8772,5.3006-2.5243,9.1978"/><path d="m220.45,175.2c9.4317-9.2037 13.806-8.1558 24.604-1.367 1.5494,.3644 3.2352,.0456 4.2375-.5467 .5467-1.3214 .0257-2.6678-.6835-3.6904-4.8298-3.4628-8.429-4.4655-12.986-3.8276"/><path d="m234.03,209.36c-2.1206,3.1259-3.855,9.9244-.2731,17.496 .1423,.8714 1.0572,1.7428 .1364,2.3237-1.7647,.8891-2.5627,2.3583-3.554,3.8276"/><path d="m288.99,257.7c.0646-11.469-1.6111-20.618-6.1859-28.899"/><path d="m269.18,213.04c1.5144-.1609 3.4151,.258 4.3494-.1929 .4513-1.6752-.8376-3.7376-1.3531-5.3162 .8697-.0967 1.9332-.0967 2.6096-.29 .3867-1.4498 0-3.4797 0-5.2195"/></g><path fill="#fff" fill-rule="evenodd" d="m212.53,180.4c.3644-2.5517 2.6425-5.3766 5.1942-6.8344 1.2302-.6835 2.0506,.1368 2.5973,.4095 .6835,1.0939 .2732,3.144 0,3.9644-.6835,1.367-2.0502,2.4605-4.5107,3.4172-1.2759-.5467-2.005-.4099-3.2808-.9567z"/><g fill="none"><path d="m234.4,229.06c.5467,.2731 6.0141,6.2876 6.0141,6.2876h3.2808l.2732-9.1581"/><path stroke-linejoin="round" stroke-linecap="round" d="m243.28,211.43c-1.0935,3.5996-.6835,7.1992 0,10.799"/><path d="m236.16,228.41 1.2809-4.9953"/><path d="m238.5,209.51c-1.6406,3.0072-2.1071,7.9477-1.2539,11.535"/><path d="m283.18,229.5-3.093,.0621"/></g></g><path fill="#9f3000" fill-rule="evenodd" d="m172.37,217.88c.4344,1.3392-1.0268,.6202-1.3404,.9968-1.5355,.5421-3.9707-1.3396-5.5083-5.8895 .7502-1.2737 5.1613-4.0125 6.5769-3.4231 0,0 2.7755,1.0576 3.1082,2.2169-.5324,1.6913-2.9304,6.2872-2.8363,6.0989z"/><g stroke-opacity=".772" fill="none"><path d="m283.18,229.5 .0511-6.0892"/><path d="m288.21,261.49 .8684,14.857"/></g><path fill="#238700" fill-rule="evenodd" d="m172.27,218.4c2.9971,2.8185 7.7062,.928 8.4556,7.8139 .3213,3.8533-5.1376,11.56 0,18.517 1.8196,2.6763 6.5296,5.5661 6.5296,5.5661 2.4622,2.7472 3.2107,7.6353 4.8163,11.453 3.3893,5.0667 8.0634,6.1724 11.774,4.924 0,0 12.202-5.4589 12.202-5.5661 0-.1068-6.2079-8.3488-6.2079-8.2415 0,.1068-6.9577,5.887-7.0645,5.887-.7494-.1072-4.8163,.3209-6.3151-4.8168-.1068-6.565-3.353-10.2-8.5628-12.844-2.64-1.9986-4.745-5.1731-2.4618-9.6331 1.3198-4.0678 2.6404-10.918-2.0337-15.52-2.9971-1.9982-5.138-3.5679-8.3492-4.1746-4.2455,1.6056-4.2096,1.1775-2.7826,6.6364z"/><g stroke-opacity=".772" fill="none"><path d="m232.61,161.1c-1.6406,3.0068-1.4908,4.8096-1.2176,7.8168"/><path d="m224.28,175.89h.1368 .5467 3.1436c1.0179-.027 1.4532-.4133 2.1874-.9567 .4931-.2786 1.0166-.6983 1.5034-1.0935 .4049-.2901 .8921-.6303 1.367-.8203 .7751,0 1.3814,.057 2.0501,.2736 .6185,.2596 1.1272,.6308 1.6402,.9567 .5117,.2048 .9744,.2736 1.777,.2736 .8342,0 1.709-.0388 2.4605,.1368 .7228,.0481 1.5313,.2069 2.0506,.41 .6616,.4171 1.0601,.9149 1.5034,1.367 .0262,.7258 .2647,1.1699 .2736,1.9134 0,.6354 .0718,1.4967-.1368,1.9138 0,.7865-.1254,1.3455-.2736,1.9138-.5024,.472-.6839,.8368-1.3666,.9567-.537,.4218-1.3417,.4099-2.1874,.4099h-2.1869c-.475-.3956-1.0504-.8072-1.6402-1.3666-.3175-.735-.5269-.9744-1.2303-1.2303-.5911-.0925-1.294-.1368-2.0502-.1368-.6679,0-1.2239,.0464-1.6406-.2732-.3779-.3597-.9212-.5484-1.5034-.6835-.6198-.1756-1.3502-.1368-2.0506-.1368h-1.0935"/><path d="m227.83,177.12c.0456,.0456 .0912,.0912 .1368,.1368-.3103-.3099-.1967-.1609 .5467,.1368 .9052,.209 1.8783,.3812 2.8705,.41 .9406,0 1.796,.1153 2.7337,.1368 .654,0 1.3421,.0536 1.9138-.1368"/><path d="m236.58,174.93h-.1368c.4285,0 .1651-.0355-.4099,.6835-.0557,.7806-.2229,1.2113 .1368,1.9138 .4454,.1482 1.1994,.4792 1.5034,.8199 .4399,.3145 .41,.597 .41,1.367-.263,.4273-.499,.7709-.8199,1.367-.1718,.4294-.3956,1.0061-.5467,1.5034-.1562,.6244-.2651,1.2184-.2736,1.9138v1.3666"/><path d="m286.07,159.01c.1524,.2917 2.7725,5.5243 6.0284,2.2055 .4826-.5657 .651-.9765 .651-1.9412 0-.5033-.0688-1.0884-.1934-1.5034"/></g></g><path fill="#fff" fill-rule="evenodd" stroke-width=".573" d="m207.18,264.25c1.5765,2.1971 4.4418,1.0656 5.0164-.6928-1.9619,.1275-2.7117-1.0314-3.4041-2.8067-.4192,1.0175-2.0539,2.2384-1.6123,3.4995z"/><g stroke-opacity=".772" fill="none" stroke-width="1.056"><path d="m299.9,163.9c0,.1013 2.7763,2.6547 6.9767,2.6547 1.0132,0 5.8292-1.2163 7.3638-3.356"/><path d="m305.71,166.36c.0621,.41 .1934,1.9058 .1934,2.8996-.0127,1.0534 .2398,1.934-.1575,2.8122-.4315,1.1192-.9115,1.5667-1.9691,1.9509-.8609,.3897-1.0437,.0165-2.0024,.0519"/><path d="m282.6,161.07c0,.0646 2.9621,7.1004 3.9356,7.8143"/></g><g fill="#fff" fill-rule="evenodd" stroke-width=".573"><path d="m209.11,262.97c1.5764,2.1971 4.4418,1.0656 5.0164-.6928-1.9619,.1275-2.7117-1.0314-3.4041-2.8067-.4192,1.0175-2.054,2.2384-1.6123,3.4995z"/><path d="m212.1,261.69c1.5764,2.1971 4.4418,1.0656 5.0164-.6928-1.9619,.1275-2.7117-1.0314-3.4041-2.8067-.4192,1.0175-2.0539,2.2384-1.6123,3.4995z"/></g><g fill="none"><g stroke-opacity=".772" stroke-width="1.056"><path d="m265.7,157.47h.1934 .773c3.0714-.518 13.391,1.3856 15.184,3.2851"/><path d="m267.63,207.34c-.0646-.0646 .144,1.183 .0798,1.1184 .3808,.3812-.0578-1.0297-.2732-1.8918-.3221-.7688-.3867-1.2754-.3867-2.3195v-.7734"/><path d="m248.34,252.84v.2744-.2744 .2744-1.1188 3.5802 2.0476c.1397,.6797 .1368,1.4354 .1368,2.1869 .0857,.5826 .2884,1.275 .5467,1.9167 .0376,.8106 .2635,1.3426 .5467,2.0476 .0583,.7008 .2968,1.3003 .5467,1.9167 .0591,.7008 .2862,1.0681 .4099,1.6381 .198,.6586 .4382,1.085 .6835,1.503 .1782,.1815 .3517,1.0977 .5155,1.1484"/><path d="m240,244.78v.1368 .5467 3.0072c.1782,.9064 .2094,1.8648 .4099,2.7345 .0743,.781 .2626,1.4481 .4104,2.1869 .065,.7304 .9402,3.3226 1.2303,3.9644 .3234,.6037 .8013,1.2328 1.0935,1.6381 .5463,.1689 .9917,.3631 1.6402,.4095h1.9138c.7675-.1478 1.031-.228 1.3666-.8191 .1845-.3673 .1735-.6248 .4104-.819"/><path d="m237.68,269.66c0-.2238-.0346-.895 .2736-1.3679 .4838-.6882 .8722-1.1146 1.5034-1.7774 .7464-.4771 2.6041-3.0313 8.2014-4.509 .6523,0 .8803-.1266 1.5038-.1393"/><path d="m238.34,257.26c.0456,.0464 3.0592,1.6212 4.6225,1.6888"/></g><path stroke-width=".528" d="m246.95,262.55h-.1495 .1495c-.0498,0-.0996,0 0,0z"/></g><g stroke-width="1.056"><g fill-rule="evenodd"><path fill="#ffbc00" d="m245.6,262.4c-.4479-.2985-14.94-4.482-14.642-4.482 .2989,0-5.304,3.8098-5.304,3.8098l13.82,4.7061 5.5281-4.034h.5974z"/><path fill="#f7b200" d="m231.76,257.8c.9157-2.3242 .6692-5.388-2.3242-7.2895-6.8314-4.1906-18.312-3.8385-20.495,1.0563-2.3596-.3171-3.5569,1.5849-3.909,3.4864-6.0922,1.655-.4564,8.6941 1.0563,8.9783 2.0468,.7 2.6062,.1862 2.9583-.483 1.1395,.2808 2.702-.9381 3.0946-1.7778 1.4468,.2668 2.5462,.2402 2.5737-1.2108 4.1459,3.8854 9.8602,6.5756 10.495,1.5714 2.1831-1.4439 4.3667-2.8874 6.5498-4.3312z"/></g><g fill="none"><path d="m205.04,254.95c-.3876,2.7117 1.4338,5.6345 4.3215,8.4518"/><path d="m208.83,251.57c-.3876,2.7117 .3871,7.3246 3.2749,10.142"/><path d="m213.12,248.66c-2.6518,2.227-1.2066,9.1176 1.6812,11.935"/></g></g></g><path fill="#288800" stroke="#000100" fill-rule="evenodd" stroke-linejoin="round" stroke-width="1.056" d="m220.21,192.33c6.1192,8.1039-2.4373,17.058-9.9147,22.217-8.8149,6.9328-13.575,20.447 1.9708,21.277 5.613-.1034 11.709-.6003 15.14,3.7955 3.4303,4.3958 3.5561,12.516-5.0844,17.721-.8465-.7473-2.105-2.976-3.0423-3.6553-.9377-.6793-1.5545,.1917-2.401-.5556-.2989-2.789 4.259-6.9391-.0511-7.9426-5.578,.9461-25.104,1.0276-24.855-17.598 .4285-4.151 2.6475-8.8102 6.2083-13.551 3.5612-4.7408 13.323-10.619 14.26-13.193 1.5034-2.2224-1.2454-6.5477-3.4366-7.1456-1.7926-4.7813 6.1255-9.886 11.205-1.3704z"/><g stroke="#000"><g fill="none" stroke-width="1.056"><path d="m206.61,206.67 .2111,10.881"/><path d="m200.91,211 11.621,1.6904"/><path d="m209.47,204.24 9.8248,2.0071"/><g stroke-opacity=".642"><path d="m199.12,212.9 8.1816,4.8455"/><path d="m193.29,223.13 6.3886,6.7875"/><path d="m199.2,213.35 1.0846,16.05"/><path d="m194.79,220.07 10.497,.2136"/></g><path d="m183.81,247.19c1.625-1.5397 3.3218-3.7499 4.3718-5.9119"/><path d="m187.09,249.95c2.1958-1.359 5.0139-2.4301 7.8084-2.9988"/><path d="m191.13,259.29c1.9036-1.5866 3.9513-3.2686 5.3517-5.4779"/><path d="m191.2,259.65c3.3496-.0815 6.7474-.426 10.049-1.0339"/><path d="m197.18,266.24c2.4918-.9381 4.7682-2.3794 6.6132-3.8204"/><path d="m179.85,243.82c1.9315-1.5596 3.8634-3.3344 5.4357-5.1815"/><path d="m178.43,238.82c2.1-.5636 4.1518-1.6305 5.9406-2.6252"/><path d="m179.16,233.61c1.6985-.6586 3.6844-.9335 5.5265-1.0411"/><path d="m180.74,228.81c2.0548-.2022 3.4392-.0773 5.4944,.5657"/><path d="m181.09,225.76c1.7002-.9124 3.6114-1.5072 5.5231-1.2573"/><path d="m180.24,223.5 5.9204-4.0425"/><path d="m179.2,221.83 5.0422-4.9983"/><path d="m177.77,221.14 3.6946-6.31"/><path d="m192.5,183.84-.046,8.9926"/><path d="m201.6,185.27c-1.3261,2.5906-3.182,5.6552-5.5678,7.9431"/><path d="m194.89,183.54c-2.6412-.2111-5.1368,1.2193-7.1443,2.9097"/></g><path fill="#9d4600" fill-rule="evenodd" stroke-linejoin="round" fill-opacity=".994" stroke-linecap="round" stroke-width=".528" d="m208.97,190.4c4.3899,1.6149 10.218,3.8352 9.612,16.727 3.6329-3.9356 5.298-9.4604 .681-16.424-3.1031-3.3556-7.6442-4.0623-10.293-.3031z"/><g fill="none" stroke-width="1.056"><path d="m210.95,194.7c.1765-2.4977 3.6705-5.5877 5.5121-6.2687"/><path d="m212.29,196.96c.9204-3.1918 4.8999-5.7266 6.7415-6.4076"/><path d="m212.38,201.48c1.6997,.0262 8.133-3.5413 9.6048-5.6658"/><path d="m212.9,199.1c2.0683-1.438 5.9537-4.6926 7.7953-5.3736"/><path d="m218.58,201.71c1.5486-.8819 2.078-.6654 3.7013-2.3356"/><path d="m208.97,190.47c4.4148,1.438 9.8134,4.6926 9.4604,16.651"/><g stroke-opacity=".642"><path d="m194.27,236.68 6.0082-7.2836"/><path d="m195.02,238.18 5.366-.005"/><path d="m192.02,230.9 7.5069,4.2764"/></g></g><path fill="#9d4600" fill-rule="evenodd" stroke-width=".528" d="m202.13,230.17c-1.4371-.133-2.2621-.407-3.5109-.8693 .5885,9.6744 1.5532,10.171 3.0828,13.82 4.5744,2.9 12.49,2.2228 15.841,1.4988 .3601,.5062 2.3406,2.9642 1.1226,3.6785-1.313,.8237-1.8462,2.42-1.8935,5.0008 .7756,.8735 1.5841,.1148 2.3731,.6768 .7891,.5619 1.7187,2.5509 2.4495,4.2624 0,0 9.7281-6.6862 8.1504-12.976-1.0356-5.909-5.0308-7.9207-5.0308-7.9207-5.648-2.824-13.587-.9512-16.484-2.0337-3.603-.8-5.8701-3.9141-6.101-5.1376z"/><g fill="none" stroke-width="1.056"><path d="m218.16,247.24c4.8725-2.2241 10.024-2.406 11.423-2.2013"/><path d="m199.1,234.32c1.0576-.6193 2.6142-1.9408 4.4072-1.9129"/><path d="m208.06,244.98c.8655-5.1254 3.0621-8.5865 4.1936-9.452"/><path d="m210.99,245.38c.8655-5.1254 3.2614-8.7862 4.3929-9.6517"/><path d="m214.25,245.04c.8655-5.1254 3.0621-8.4531 4.1936-9.3186"/><path d="m216.72,244.64c.8655-5.1254 3.7275-7.6543 4.859-8.5198"/><path d="m218.35,246.1c.8655-5.1254 5.2187-7.973 6.3501-8.8385"/><path d="m218.49,246.89c2.9671-4.2675 7.8438-6.3408 9.2362-6.6414"/><path d="m205,244.31c.8655-5.1254 3.1284-7.9207 4.2599-8.7862"/><path d="m202.07,243.38c.8655-5.1254 3.5282-7.721 4.6597-8.5865"/><path d="m217.28,253.91c2.2997-1.8095 3.8634,4.0344 3.9774,4.7429 .114,.7084 .5438,1.43 1.6888,2.0915"/><path d="m200.28,239.85c.9322-2.596 2.9958-5.4576 4.1273-6.3231"/></g><path fill="#fff" fill-rule="evenodd" stroke-width="1.122" d="m212.89,248.89c-2.9853,4.7416 .4602,8.928 4.3253,7.249-.4437-3.277-1.2818-5.3584 1.7069-8.5105-2.1194,.1254-4.0218-.6248-6.0322,1.2615z"/><g fill="none"><g stroke-width="1.056"><path d="m201.63,214.03 1.4122,6.9657"/><path d="m203.04,220.43-2.5416,8.5658"/><path d="m218.05,247.69c5.2571-1.0251 10.309,.0004 11.621,.526"/></g><path stroke-width="1.135" d="m217.43,248.53c5.3884-.0781 10.088,2.1228 11.246,2.9878"/><g stroke-width="1.127"><path d="m217.49,249.53c5.1841,1.1792 7.5074,3.8077 8.4138,4.9181"/><path d="m217.13,250.72c4.6508,2.5754 5.6974,4.6884 6.259,6.0073"/></g></g></g><g fill="#296526" fill-rule="evenodd" stroke-width="1.25"><path d="m73.552,300.37h2.5653v11.864h-2.5653z" transform="matrix(.97359 -.2283 .2283 .97359 0 0)"/><path d="m160.95,314.67 5.2436,5.972 1.9585-1.6567-4.9227-6.1858-2.2794,1.8705z"/><path d="m321.02,340.19-6.4966,4.5774 1.4384,2.1236 6.6752-4.2354-1.617-2.4656z"/><path d="m355.29,311.61-5.7954,5.4382 1.72,1.9024 6.02-5.1241-1.9446-2.2165z"/><path d="m373.67,273.25-2.108,5.2035 1.1522,1.492 2.268-4.951-1.3122-1.7445z"/></g><g fill="none" stroke="#000" stroke-width="1.056"><path d="m202,243.66c-2.8147-4.6318-3.1711-9.4773-3.3133-14.216 1.4962,.7127 2.672,1.1044 3.527,.8549"/><path d="m192.2,183.57c-2.3178-5.7945 .358-8.9339 3.2483-11.685"/></g><path fill-rule="evenodd" d="m209.1,154.93c0,1.6808-2.0038,3.0433-4.4755,3.0433-2.4718,0-4.4755-1.3626-4.4755-3.0433 0-1.6808 2.0038-3.0433 4.4755-3.0433 2.4718,0 4.4755,1.3626 4.4755,3.0433z" transform="matrix(.3454 -.30875 .29017 .36751 78.794 177.89)"/><g fill="none" stroke="#000" stroke-width="1.372"><path d="m180.97,214.38c-.4847,0-8.8799-1.1302-8.8799-1.1302"/><path d="m177.42,220.52c0-.323-5.4893-7.1038-5.4893-7.1038"/></g></g></svg>