<svg xmlns="http://www.w3.org/2000/svg" viewBox="0 0 640 480" xmlns:xlink="http://www.w3.org/1999/xlink"><defs><path id="0" d="m619.32 390.34c0 3.995-3.239 7.234-7.234 7.234s-7.234-3.239-7.234-7.234 3.239-7.234 7.234-7.234 7.234 3.239 7.234 7.234"/><path id="1" d="m203.69 472.45c0 5-7.22 9.06-16.13 9.06-8.907 0-16.13-4.055-16.13-9.06s7.22-9.06 16.13-9.06c8.907 0 16.13 4.055 16.13 9.06" fill="#973000"/><path id="2" d="m720.08-110.5h15.887v4.823h-15.887z" stroke-width="1.25"/><path id="3" d="m275.88 473.6c0 5.734-4.649 10.383-10.383 10.383-5.734 0-10.383-4.649-10.383-10.383 0-5.734 4.648-10.383 10.383-10.383 5.734 0 10.383 4.649 10.383 10.383"/></defs><g fill-rule="evenodd" stroke-width="1.25" transform="matrix(1.3333 0 0 1 0-32)"><path fill="#fff" d="m0 32h480v480h-480z"/><path fill="#0b7226" d="M 0,32 H160.73 V512 H0 z"/><path fill="#bc0000" d="m320.19 32h159.81v480h-159.81z"/></g><g transform="matrix(.9375 0 0 .9375 78.8-2.984)"><g fill-rule="evenodd"><g fill="#9c4314"><path d="m143.28 279.14c.082-.106 3.699-6.44 3.27-5.419 1.666 1.277 4.709.067 2.501-2.805.537-1.161 1.215-2.047 1.753-3.209 1.214-2.274-1.386-3.253-2.415-1.681-.629 1.204-1.236 1.92-1.865 3.125-3.275-1.555-3.491 2.102-1.923 2.741-.695.985-1.88 2.607-2.575 3.591.417 1.219.835 2.439 1.253 3.658"/><path d="m142.85 277.73c-.108-.08-6.492-3.607-5.465-3.193 1.254-1.684 0-4.709-2.84-2.461-1.169-.521-2.065-1.187-3.234-1.708-2.29-1.181-3.233 1.432-1.647 2.438 1.213.612 1.937 1.209 3.151 1.821-1.508 3.297 2.151 3.461 2.767 1.885.995.681 4.847 2.914 5.841 3.596 1.213-.434.213-1.942 1.426-2.377"/><path d="m165.94 316.43c.021-.133.185-7.424.294-6.323 2.073.329 4.173-2.184.863-3.658-.081-1.277.094-2.379.013-3.657-.016-2.577-2.768-2.2-2.924-.329.021 1.359-.172 2.277-.152 3.636-3.621.193-2.068 3.511-.386 3.326-.143 1.197-.411 3.187-.554 4.384.947.873 1.896 1.747 2.844 2.62"/><path d="m164.89 315.39c-.133-.019-7.426-.08-6.326-.205.3-2.078-2.243-4.141-3.669-.811-1.276.098-2.381-.06-3.657.038-2.576.052-2.161 2.799-.287 2.928 1.359-.04 2.279.14 3.638.1.244 3.617 3.54 2.02 3.331.339 1.199.126 4.941.517 6.14.643.86-.96-.029-2.072.831-3.03"/></g><path fill="#42b2f3" stroke="#000" stroke-width="1.056" d="m240.35 340.38s2.501 3.377 3.627 3.502c3.502.25 31.27 0 31.27 0 0-.042 1-.584 1-.625.917-1.167.834-1.834 1.751-3 1.459-1.459 3.543-1.918 5-3.377 6.253-1.501 11.881-3 18.13-4-.5-3.71-4.252-2.918-6.253-4.377-.625-.584-.501-1.167-.125-1.751 4.628-2.126 9.255-4.252 13.882-6.378v-1.501c-9.839 1.167-18.927 3.084-29.516 3.502-12.05 4.961-24.1 9.922-36.14 14.883-.875 1.042-1.751 2.084-2.626 3.127z"/></g><path fill="none" stroke="#000" stroke-width=".528" d="m140.42 273.97h-.125c.627 0 .129.042 0-1.501"/><g fill-rule="evenodd"><g fill="#008d00" stroke="#286726" stroke-width="1.953"><path d="m140.96 275.64c-1.876-6.628-4.907-12.437-11.982-14.15-1.326-.302-2.269-4.091-.058-3.914 1.251.5.025-.238 1.276.263 1.238.442 3.166-.534 2.37-2.642 0-.25-2.361-4.441-2.361-4.566-.442-.479.379-3.166 2.501-1.751 1 .656 2 2.198 3.444 2.501.531-.089.881-1.736.793-3.01 0-.125.125-4.323.125-4.323-.503-2.529 1.736-3.82 3.532-1.928.125.625-.015.632.11 1.257.412.837.912.968 1.5.125l2.376-2.376c1.411-.524 2.292-1.049 2.376 1.876 0 0-1.947 2.44-2.868 3.325-.479.707-1.519 1.669.287 2.2.125 0 2.581.354 2.581.354 1.68.698 1.857 2.547.619 2.715 0 0-1.31 1.528-3.609 2.803-.708.568-1.29 1.251-.671 2.032 1.327.515.904.022 3.167.022 1.909-.442 1.732 4.233-1.717 3.916-1.032.247-2.394.144-2.954 1.794-.25 1.285-.312 3.751-.312 4.377-.214 2.977.223 7.106.223 7.231.25 2.126-.5 1.375-.751 1.876z"/><path d="m161.43 313.78c-.244-.311-6.511-7.179-13.751-6.407-1.351.164-3.516-3.084-1.376-3.665 1.346.049.298-.144 1.644-.095 1.138-.798-.92-3.254-1.849-2.401-.084-.235-2.482.513-3.498.307-3.146-.301-4.52-3.817-2.222-5.149 1.429.546 4.131.596 5.591.395 1.444-.44.775-1.754-.624-1.95-1.991-.295-10.02-2.252-9.312-3.226-1.327-2.211-.001-3.917 2.32-2.742 1.923 1.166 2.147.511 1.679-.359-.57-1.653-1.118-1.257-1.202-2.692-.142-.925.159-1.76 1.523-1.179.575-.485 1.522 2.978 5.097 1.665.662.553 1.224-3.746 3.706-3.092 1.86.575.589 2.51.952 5.24.298 1.798 2.095 1.386 2.341.452-.389-4.132 3.65-4.204 4.112-2.808.384 1.02.729 3.8.24 6.413-.266 1.328-.055 3.964.791 4.49 1.422.038.504-.285 1.483-1.757 1.648-1.06 4.21 2.78 1.211 4.709-3.163.682 1.793 12.734 2.21 13.407-.458.493-1-.11-1.069.445z"/></g><g fill="#9c4314"><path d="m200.28 346.01c0-.134-.98-7.361-.7-6.291 2.099 0 3.779-2.811.28-3.748-.28-1.249-.28-2.364-.56-3.613-.419-2.543-3.079-1.74-2.939.133.233 1.339.187 2.276.42 3.615-3.546.758-1.493 3.792.14 3.345.046 1.204.093 3.212.14 4.416 1.073.714 2.146 1.428 3.219 2.142"/><path d="m200.15 345.16c-.134.002-7.346 1.084-6.28.789-.03-2.099-2.864-3.738-3.751-.226-1.245.297-2.36.313-3.606.611-2.536.455-1.696 3.103.175 2.937 1.336-.252 2.274-.219 3.609-.471.808 3.535 3.812 1.439 3.343-.188 1.204-.063 4.961-.263 6.165-.327.699-1.083-.353-2.041.345-3.124"/></g><g stroke="#000"><path fill="#33b1e9" stroke-width="1.108" d="m197.69 305.64c17.653 10.42 22.19 8.907 21.452 4.291.846 0 1.029.737 3.535-1.11-.349 6.827 7.084 10.751 11.616 9.928 4.089.264 3.562 5.672 3.562 5.672.249 5.534-1.613 7.77-1.364 13.304-.062 0-.125-.659-.187-.659-5.03-1.197-14.942-1.337-18.654-2.138 17.01-11.608-13.09-11.926-15.778-12.321-2.033-.264-.582-2.242.605-2.77 9.365-1.847-8.803-10.716-8.33-11.771-1.109-.659.078-1.187.078-1.187 1.243-.808 2.223-.429 3.467-1.238z"/><path fill="#983d25" stroke-width="1.583" d="m241.77 314.47c-3.069 0-5.54 2.471-5.54 5.54-.923 4.221-.792 10.157 0 15.828 0 3.069 2.471 5.54 5.54 5.54 12.223 1.319 25.369.923 36.669 0 3.069 0 5.54-2.471 5.54-5.54 1.451-5.01 1.055-10.288 0-15.828 0-3.069-2.471-5.54-5.54-5.54-12.223-.528-24.71-1.187-36.669 0z"/></g><path fill="#268728" stroke="#000003" stroke-linejoin="round" stroke-linecap="round" stroke-width="1.056" d="m200.49 163.79c-2.789 2.415-5.577 4.831-8.367 7.246-3.436 1.519-7.172 3.411-4.482 11.504-1.569 10.384 6.798 12.03 14.12 9.861 1.22-2.689 1.608-4.546 2.828-7.235-3.237-.498-4.969.636-7.908.437-2.02-.323-2.166-1.842-1.419-2.838 3.162-1.569 6.03-3.063 9.188-4.631-.075-.473-.149-.125-.224-.598-2.615 1.345-4.482 1.793-7.246 2.913-2.192.772-2.814-2.042-1.942-3.287 0 0 5.677-8.142 5.677-8.217.475-1.712.146-4.595-.224-5.155z"/><g stroke="#000"><g fill="#fff"><use stroke-width="2.5" transform="matrix(.42219 0 0 .42219 107.4 106.2)" xlink:href="#3"/><use stroke-width="2.651" transform="matrix(.39806 0 0 .39806 93.27 134.16)" xlink:href="#3"/><use stroke-width="2.625" transform="matrix(.39806 0 0 .39806 195.97 143.42)" xlink:href="#3"/></g><path fill="#ba4600" stroke-linejoin="round" stroke-width=".528" d="m200.88 169.32c.099 2.485.166 5.606.166 6.557-.106-2.324-.919-4.185-1.221-5.1.362-.597.949-1.457 1.055-1.457z"/><g fill="#973100" stroke-width="3.818"><use transform="matrix(.39806 0 0 .39806 131.59 148.43)" xlink:href="#3"/><use transform="matrix(.39806 0 0 .39806 175.18 148.43)" xlink:href="#3"/><use transform="matrix(.39806 0 0 .39806 175.18 128.39)" xlink:href="#3"/><use transform="matrix(.39806 0 0 .39806 131.84 128.39)" xlink:href="#3"/></g></g><path fill="#008d00" stroke="#286726" stroke-width="1.953" d="m200.9 348.26c-.244-.311-2.1-5.572-12.591-5.801-1.476-.087-2.411.338-5.401.131-1.732.142-1.053-1.922-.367-2.664 1.138-.798-4.053-.409-5.838-.198-1.799-.103-3.01-.41-4.03-.616-3.146-.301-4.987-2.511-2.689-3.844.963-.947 4.878.13 6.338-.072 1.444-.44 1.242-2.873-.157-3.069-1.991-.295-10.673-.946-9.964-1.92-1.327-2.211-.942-3.357 2.506-2.928 1.923 1.166 1.867-.328 1.399-1.198-.57-1.653-3.729-1.91-3.813-3.345-.515-3.443 1.744-3.906 3.109-3.325.575-.485-2.582-3.178.993-4.49.888-.279 2.716-.062 3.333 3.204 1.86.575.575-2.143 3.098-3.248 2.163-.906-.144 9.687 2.435 9.592 2.222.904 1.785-5.79 3.645-4.487 4.02-1.031 2.075 12.848 3.825 12.01 2.905 2.541 3.209-2.285 4.056-1.759 1.422.038 2.369.088 1.576 3.28-.591 2.484.293 3.06.745 4.055 2.717 5.988 6.795 5.932 8.156 8.688.438 4.075-.3 1.449-.367 2z"/><g stroke="#000"><g stroke-width="1.056"><g fill="#009400"><path d="m251.14 357.47c-5.02 4.121-10.227 6.789-12.135 11.08 2.286-.308 3.169-.689 4.875-.474 1.847-4.133 7.656-6.34 11.09-9.682-1.275-.308-2.55-.615-3.826-.923z"/><path d="m264.55 357.91c4.536 4.19 10.158 6.584 12.135 11.01-2.286-.308-3.239-.62-4.602-.269-1.847-4.133-7.929-6.546-11.358-9.888 1.275-.308 2.55-.547 3.825-.855z"/></g><path fill="#fff" d="m261.13 358.76c5.496 3.298 7.689 5.671 11.07 9.892-1.627.098-3.909.836-4.744 1.319-4.089-5.32-7.255-7.211-10.684-10.552 1.275-.308 3.078-.352 4.353-.659z"/><path stroke-opacity=".772" fill="#ffba00" d="m209.24 180.19c-2.201.605-3.152 2.462-3.352 4.193-8.111 5.681-2.216 16.865 5.306 14.542-5.565-8.334 0-13.04 6.191-10.121 1.876 1.376 3.184 4.245 3.361 4.068 1.178-2.553 5.837-4.776 5.837-4.776s3.753.504 4.43-1.924c.427-1.553 3.882-7.981 3.882-7.981-4.01-.825-8.02-1.651-12.03-2.476-2.771-.059-5.542-.118-8.313-.177-1.474.649-2.948 1.297-4.422 1.945-.589.943-.304 1.762-.893 2.705z"/><path fill="#d40000" d="m256.64 359.03c5.496 3.298 8.02 6.385 11.402 10.606-1.49.44-1.993 2.892-2.828 3.375-2.639-5.32-7-9.854-11.618-14.383 1.275-.308 1.769.709 3.044.401z"/><path fill="#fff" d="m254.57 358.39c-5.496 3.298-7.415 5.397-10.8 9.618 1.627.098 3.634 1.11 4.469 1.593 4.089-5.32 7.255-7.211 10.684-10.552-1.275-.308-3.078-.352-4.353-.659z"/><path fill="#d40000" d="m259.05 358.65c-5.496 3.298-7.81 6.589-11.196 10.811 2.724 1.951 2.061 2.07 2.622 3.171 2.639-5.32 8.442-9.717 13.06-14.245-1.275-.308-3.21.572-4.485.264z"/></g><use stroke-width="2.243" transform="matrix(.43855.14328-.13174.47697 170.31 53.14)" xlink:href="#1"/></g><path fill="#008d2b" stroke="#005e00" stroke-width="1.056" d="m250.12 351.73c-3.962 2.847-9.564 6.65-13.526 9.497-.814.695 2.746 1.423 4.051.785 4.182-2.871 6.382-4.752 10.564-7.623.797-.445 1.595-.89 2.392-1.335-1.707-.122-1.774-1.201-3.481-1.324z"/><g stroke="#000"><use stroke-width="2.549" transform="matrix(.37238-.14619.17511.39171 62.95 178.21)" xlink:href="#1"/><path fill="#008d00" stroke-width="1.109" d="m290.53 307.86c.207-10.871 9.739-1.353 13.481-5.832 8.795-10.365 9.548-11.154 17.318-10.03 20.824 8.183-.912 27.11-22.19 18.489-2.336-1.285-6.268-1.343-8.604-2.628z"/></g></g></g><g fill="#6d390b" fill-rule="evenodd" transform="matrix(.3958 0 0 .3958 180.19 97.8)"><use transform="matrix(.874.2484-.1647.72013 140.99-45.21)" xlink:href="#0"/><use transform="matrix(.75535.65532-.65532.75535 0 0)" xlink:href="#2"/></g><g transform="matrix(.9375 0 0 .9375 78.8-2.984)"><path fill="#6d390b" fill-rule="evenodd" stroke-width="1.25" d="m337.62 287.58l1.106 1.55 3.822-3.33-1.106-1.549-3.822 3.33"/><g fill="none" stroke="#000" stroke-linecap="round" stroke-width="1.583"><path d="m241.77 314.33c6.463 1.979 11.212 25.458 17.543 27.568"/><path d="m247.97 314.2c6.463 1.979 11.08 25.458 17.411 27.568"/><path d="m254.04 313.94c6.463 1.979 11.212 25.589 17.543 27.699"/></g><g fill-rule="evenodd"><g stroke="#000"><use stroke-width="2.243" transform="matrix(.37238-.14619.17511.39171 157.39 161.86)" xlink:href="#1"/><path fill="#dc0000" stroke-width="1.01" d="m340.66 292.97c.324 1.253-.238 2.879-2.443 3.449-2.205.57-4.276-.289-4.6-1.543-.324-1.254.953-3.056 3.159-3.626 2.205-.57 3.56.466 3.884 1.72z"/></g><path fill="#008d00" stroke="#286026" stroke-width="1.953" d="m243.6 353.06c-3.27.663-10.724 2.279-13.974 8.793-.589 1.226-5.494 2.176-4.829.06.766-1.108 1.04-1.204 1.806-2.312-.06-1.389-3.237-.978-3.02.264-.244-.055-1.78.241-2.502.987-1.949 2.488-5.275 2.377-5.16-.277 1.23-.91 1.853-1.783 2.469-3.122.407-1.453-2.436-1.974-3.355-.901-1.946 1.018-3.167 2.476-5.482 3.606-2.578.928-5.056-.726-2.811-2.056 2.02-.992.337-3.284-.649-3.358-1.7-.411-8.665.765-9.918.063-.981-.129-2.774-2.708-.673-3.169 1.903-.621 5.08.697 5.9-3.02.822-6.263 10.76 3.204 9.146.59-3.641-5.384 2.556-6.649 4.428-2.982.762 1.655 4.547 4.11 5.644 3.649 2.063.228-3.827-5.215.849-6.103 1.066.227 2.969.308 4.282 2.127.976.94 1.184 4.808 4.834 5.129.798-1.178.032-.578-.681-2.196-.006-1.959 3.235-1.799 4.62 1.517 1.372 2.532 8.612.812 15.237.965 2.123-.347 5.538 1.519-6.162 1.75z"/><g stroke="#000"><g fill="#dc0000"><path stroke-width="1.056" d="m333.32 292.73c1.166 1.791 1.141 4.628-2.01 6.679s-6.839 1.795-8 .004c-1.166-1.791-.115-5.281 3.035-7.332 3.149-2.05 5.812-1.142 6.978.649z"/><g stroke-width="1.01"><path d="m335.58 285.31c1.091.696 1.789 2.268.563 4.188-1.225 1.921-3.326 2.703-4.417 2.01-1.091-.697-1.386-2.886-.16-4.807 1.225-1.92 2.922-2.085 4.01-1.389z"/><path d="m338.9 288.57c.706 1.085.692 2.805-1.218 4.048-1.909 1.243-4.145 1.088-4.851.003-.706-1.085-.07-3.201 1.839-4.443 1.909-1.243 3.523-.692 4.229.394z"/></g></g><path fill="#d90000" stroke-width=".758" d="m346 282.14c.531.816.52 2.111-.916 3.045-1.436.935-3.119.819-3.65.002-.531-.817-.053-2.408 1.384-3.343 1.436-.935 2.651-.521 3.183.296z"/><path fill="#fff" stroke-width="1.056" d="m255.24 348.07c-2.81.329-4.409.503-4.949 2.536-.3 1.381-.06 3.184.18 4.734 0 1.779 2.245 2.958 4.86 3.465h4.499c1.894 0 5.399-1.855 5.399-3.634.28-1.01.27-2.629.27-3.728 0-2.992-2.112-3.176-4.753-3.457l-5.506.084z"/></g><g stroke="#286326" stroke-width="1.742"><path fill="#008f00" d="m355.13 312.72c-.311-10.384-3.046-25.432 9.7-30.593 1.644-.429 2.238.498 1.679 1.866-3.793 9.576-7.586 19.15-11.379 28.727z"/><path fill="#008c00" d="m371.6 291.58c2.269-4.268 7.877-5.343 9.856-5.211-3.913 4-7.827 13.806-10.02 17.01-3.166 5.452-12.399 9.321-17.938 12.531 6.199-8.442 11.908-15.894 18.11-24.335z"/></g><path fill="#009400" stroke="#000" stroke-width=".528" d="m255.48 348.01s-2.814.5-2.877.5-2.189 1.375-2.189 1.375-.438 2.689-.438 2.751.5 3.064.5 3.064l1.313 1.813 3.439 1.188.25-10.693z"/><path fill="#008d00" stroke="#286326" stroke-width="1.742" d="m353.45 315.9c.373-.373 7.296-33.01 18.841-36.88 1.865 2.425.966 7.696.219 10.494-3.544 12.187-12.158 20.541-19.06 26.386z"/></g></g><g fill-rule="evenodd"><g fill="#6d390b"><g transform="matrix(-.31836-.23518-.23518.31836 722.45 276.78)"><use transform="matrix(.874.2484-.1647.72013 140.99-45.21)" xlink:href="#0"/><use transform="matrix(.75535.65532-.65532.75535 0 0)" xlink:href="#2"/></g><g transform="matrix(.39728.14726-.14285.40957 217.8 36.21)"><use transform="matrix(.874.2484-.1647.72013 140.99-45.21)" xlink:href="#0"/><use transform="matrix(.75535.65532-.65532.75535 0 0)" xlink:href="#2"/></g><g transform="matrix(-.3302.26549-.27831-.33271 727.93 260.88)"><use transform="matrix(.874.2484-.1647.72013 140.99-45.21)" xlink:href="#0"/><use transform="matrix(.75535.65532-.65532.75535 0 0)" xlink:href="#2"/></g></g><g transform="matrix(.9375 0 0 .9375 78.8-2.984)"><g fill="#008c00" stroke="#286326"><g stroke-width="1.417"><path d="m348.43 325.62c7.093-3.844 2.649 1.549 2.208 4.501-2.096 7.286-4.055 7.332-6.519 8.574-3.676 3.353-15.453 1.726-20.925 3.108 6.859-4.981 18.378-11.203 25.24-16.183z"/><path d="m337.81 323.93c2.962-2.35 3.448-7.54 3.25-9.338-2.684 3.834-9.555 8.05-11.756 10.263-3.77 3.245-6.084 11.928-8.114 17.195 5.77-6.211 10.85-11.909 16.619-18.12z"/></g><path stroke-width="1.742" d="m300.93 353.74c4.639-1.361 12.545 2.067 13.835 3.574-5.597 0-14.666 3.885-18.498 4.557-6.112 1.548-23.06-8.02-29.13-9.381 10.13-.51 23.423 2.719 33.793 1.25z"/></g><path fill="#00602b" stroke="#004500" stroke-width="1.056" d="m265.62 352.76c3.962 2.847 9.564 6.65 13.526 9.497.814.695-2.746 1.423-4.051.785-4.182-2.871-6.382-4.752-10.564-7.623-.797-.445-1.595-.89-2.392-1.335 1.707-.122 1.774-1.201 3.481-1.324z"/><path fill="#008c00" stroke="#286326" stroke-width="1.663" d="m320.61 341.81c.476-.18 19.363-25.678 31.1-24.624.705 2.798-2.151 6.999-3.905 9.127-7.902 9.156-18.799 13.08-27.2 15.497z"/></g><g fill="#6d390b"><g transform="matrix(.28101.3171-.31899.29392 327.86 3.438)"><use transform="matrix(.874.2484-.1647.72013 140.99-45.21)" xlink:href="#0"/><use transform="matrix(.75535.65532-.65532.75535 0 0)" xlink:href="#2"/></g><g transform="matrix(-.41936.06047-.07022-.42804 668.35 453.21)"><use transform="matrix(.874.2484-.1647.72013 140.99-45.21)" xlink:href="#0"/><use transform="matrix(.75535.65532-.65532.75535 0 0)" xlink:href="#2"/></g></g></g><g transform="matrix(.9375 0 0 .9375 78.8-2.984)"><g fill-rule="evenodd"><path fill="#dc0000" stroke="#000" stroke-width=".788" d="m163 255.92c.553-.825 1.828-1.368 3.417-.478 1.589.889 2.261 2.449 1.707 3.275-.554.826-2.34 1.075-3.929.185-1.589-.889-1.749-2.156-1.196-2.983z"/><g fill="#008c00" stroke="#286326"><path stroke-width="1.417" d="m297.7 350.34c7.8-2.062 7.335-5.818 10.979-9.103-8.436-1.235-15.17 1.751-18.769 3.734-5.693 3.671-7.165 7.656-12.1 10.401 8.409-1.074 12.197-2.281 19.887-5.03z"/><path stroke-width="1.663" d="m272.26 352.62c22.308 1.683 18.753-7.373 43.2-7.15-.361 2.863-5.03 6.455-7.437 7.8-10.691 5.653-28.26 8.302-35.764-.649z"/></g><path fill="#d40000" stroke="#000" stroke-width=".528" d="m260.92 347.95l.063 10.505 2.876-1.125s1.188-1.876 1.188-2c0-.125.5-2.564.5-2.626 0-.063-.25-3-.25-3l-2.189-1.438-2.189-.312z"/><path fill="#6d390b" stroke-width="1.25" d="m-299.88-44.28h5.304v1.591h-5.304z" transform="matrix(-.67306-.73958.76307-.64632 0 0)"/></g><g stroke="#000"><g fill-rule="evenodd"><g fill="#dc0000"><path stroke-width=".932" d="m163.56 252.82c.605-1.053 2-1.747 3.741-.61 1.739 1.136 2.475 3.126 1.869 4.18-.606 1.054-2.561 1.373-4.301.237-1.739-1.136-1.915-2.753-1.309-3.807z"/><path stroke-width=".847" d="m173.39 248.42c1.017.042 2.12.941 2.062 2.987-.057 2.045-1.162 3.608-2.18 3.566s-2.096-1.602-2.039-3.648c.057-2.045 1.138-2.946 2.156-2.905z"/><path stroke-width=".928" d="m168.38 249.24c1.153-.303 2.655.209 3.196 2.238.542 2.028-.234 3.937-1.387 4.24-1.153.302-2.823-.867-3.365-2.896-.541-2.028.404-3.279 1.557-3.581z"/></g><path fill="#008d00" stroke-linejoin="round" stroke-linecap="round" stroke-width="1.056" d="m197.12 281.77c-3.478-8.843-12.97-23.524-22.639-16.449-10.73 9.256 4.894 23.818 18.218 22.993 1.474-2.181 2.948-4.363 4.422-6.544z"/><g fill="#dc0000"><path stroke-width="1.105" d="m169.51 255.85c1.858-1.25 4.838-1.278 7.05 1.968 2.214 3.247 2.02 7.098.157 8.348-1.858 1.25-5.544.221-7.758-3.03-2.214-3.246-1.31-6.04.548-7.29z"/><path stroke-width=".794" d="m162.64 241.08c.847-.57 2.206-.583 3.216.898 1.01 1.48.919 3.237.071 3.807-.847.57-2.528.101-3.537-1.38-1.01-1.48-.597-2.754.25-3.325z"/></g><g fill="#008d00" stroke-width="1.109"><path d="m226.66 292.29c-4.37-7.775-16.296-17.498-28.445-11.278-14.366 10.08 5.795 25.19 26.427 17.739 1.851-1.918.166-4.543 2.02-6.461z"/><path d="m267.16 296.89c-4.37-7.775-27.793-16.614-37.996-9.156-12.774 14.328 5.972 24.301 31.2 17.208 1.851-1.918 4.941-6.135 6.793-8.05z"/></g></g><g fill="none"><g stroke-width="1.056"><g stroke-linejoin="round" stroke-linecap="round"><path d="m176.19 267.85c.125 0 2.626 3.126 2.626 3.126l-.125-4.377"/><path d="m180.57 273.97l2.626 2.626"/><path d="m189.82 272.22l.25 3 1.625-.125"/><path d="m189.82 282.23c-.625-.375-2.751-2.126-2.751-2.126"/><path d="m183.69 282.48l-3.502-1.126"/></g><path d="m177.06 275.85l-3.377-1.126"/><path stroke-linejoin="round" stroke-linecap="round" d="m170.69 273.85h-2.877"/></g><path stroke-linejoin="round" stroke-linecap="round" stroke-width=".528" d="m184.19 264.34v-3.752"/><g stroke-width="1.056"><g stroke-linejoin="round" stroke-linecap="round"><path d="m179.19 284.61c-.375 0-5.252-.25-5.252-.25"/><path d="m187.95 287.98l-3.752 1.25"/><path d="m193.57 274.6c.125-.125 3.127-1.626 3.127-1.626"/><path d="m185.07 270.35c0-.125-1-4.127-1-4.127"/></g><path d="m255.18 348c-2.81.329-4.409.503-4.949 2.536-.3 1.381-.06 3.184.18 4.734.5 2.592 2.245 2.958 4.86 3.465h4.499c1.894 0 4.962-1.23 5.462-3.572.342-1.193.207-2.691.207-3.791-.25-2.742-2.112-3.177-4.753-3.457l-5.506.084z"/><path d="m255.49 348.01l-.089 10.435"/><path d="m260.97 348.01l-.089 10.435"/></g></g></g><g fill="#008c00" fill-rule="evenodd" stroke="#286326"><path stroke-width=".948" d="m373.82 258.77c1.649-5.425-4.062-6.707-5.333-9.753-2.608 5.103-1.694 10.3-1.232 13.03 1.069 4.437 5 7.504 5.655 11.253 1.153-5.595.967-9.03.91-14.533z"/><path stroke-width="1.26" d="m381.38 253.73c.111-2.968 3.983-5.094 5.543-5.563-.967 5.773.771 8.484.311 10.851-.345 3.865-7.425 9.77-10.434 13.05 1.526-6.34 3.053-12 4.579-18.339z"/><path stroke-width="1.349" d="m373.22 276.87c.189-.355-2.946-27.591 4.908-33.24 2.058 1.209 2.732 5.107 2.884 7.245.434 9.388.742 14.158-7.791 25.998z"/></g><g stroke="#000"><g fill="#dc0000" fill-rule="evenodd"><path stroke-width="1.167" d="m215.69 276.22c2.247.713 4.226 3.164 3.01 7.147-1.215 3.983-3.097 6.545-6.05 5.656-3.839-.889-4.528-4.448-3.313-8.431 1.215-3.983 4.104-5.084 6.352-4.371z"/><g stroke-width="1.337"><path d="m219.49 272.15c.714.501 1.141 1.553.27 2.743-.871 1.19-2.299 1.601-3.01 1.1-.714-.502-.855-1.935.015-3.125.871-1.189 2.01-1.219 2.727-.717z"/><path d="m213.58 270.93c.853-.181 1.914.223 2.191 1.671.278 1.448-.395 2.774-1.248 2.954-.854.181-1.998-.692-2.277-2.14-.277-1.448.48-2.305 1.334-2.485z"/><path d="m216.07 274.09c.835.251 1.572 1.115 1.12 2.518-.452 1.403-1.678 2.243-2.513 1.992-.836-.251-1.421-1.567-.969-2.971.452-1.403 1.527-1.791 2.363-1.54z"/></g><path stroke-width="1.063" d="m217.28 269.07c.697.19 1.312.844.934 1.905-.377 1.062-1.4 1.698-2.097 1.508-.697-.19-1.185-1.186-.809-2.248.377-1.061 1.274-1.355 1.971-1.165z"/><path stroke-width="1.339" d="m220.94 275.46c.763.524 1.19 1.523.189 2.523-1 1-2.582 1.239-3.345.715-.763-.525-.861-1.843.139-2.844 1-1 2.253-.918 3.02-.394z"/><path stroke-width="1.215" d="m211.34 273.27c.776-.093 1.69.368 1.817 1.718.128 1.351-.582 2.508-1.358 2.601-.777.093-1.726-.805-1.854-2.155-.127-1.35.619-2.071 1.396-2.164z"/></g><path fill="none" stroke-width=".528" d="m199.7 343.51v-.125.125z"/><g fill-rule="evenodd"><path fill="#fff" stroke-width="1.056" d="m300.57 291.21c4.377 2.335 2.876 7.796-.25 9.255-.167-3.585-2.459-4.669-5.878-5.502 1.793-1 3.71-4.253 6.128-3.752z"/><path fill="#008d00" stroke-width="1.109" d="m258.77 313.05c1.61-23.735 19.644-26.614 31.597-22.505 17.503 12.701-.247 23.25-26.447 23.937-2.336-1.285-2.813-.147-5.149-1.432z"/><path fill="#fff" stroke-width="1.122" d="m264.01 286.38c-5.598-.226-7.288 5.236-5.092 8.09 2.229-2.998 5.08-2.761 8.882-1.733-1.164-1.775-1.153-5.551-3.79-6.354z"/></g><g stroke-width="1.056"><g fill-rule="evenodd"><path fill="#fff" d="m266.93 293.48c-4.377 2.335-3.445 7.796-.318 9.255.167-3.585 2.459-4.669 5.878-5.502-1.793-1-3.142-4.253-5.559-3.752z"/><path fill="#f6aa00" stroke-linejoin="round" stroke-linecap="round" d="m301.15 291.66c.051-1.953-1.49-3.641-3.297-3.914-2.178-.265-4.267 1.238-6.446-.353-.265-.177-5.323-4.543-6.775-6.577-1.452-.796-4.493-2.288-4.493-2.288-1.793 2.335-3.055 5.02-5.643 6.562-1.287.515-1.779 1.119-4.127.928-2.428-1.135-5.1-1.718-6.488-.486 1.181 2.339.859 5.298.36 7.55.876.5 1.839-.099 2.892.136 3.243.086 2.418 3.57 3.627 5.071 3.416.929 5.152-.707 5.649-3.493.904-1.421 3.664-1.605 5.628-2.142 2.126-.41 4.783-1.086 6.732.007 1.609.855 2.688 1.887 3.502 3.627 0 0 2.563.229 5.128-.25.088-1.54-.228-4.341 3.752-4.377z"/></g><g fill="none"><path d="m278.49 280.98c.042 1.876.083 3.752.125 5.628.667 2.043 5.211 1.834 5.753.5-.042-2.126-.083-4.252-.125-6.378"/><g stroke-linecap="round"><path d="m279.99 292.98c.981-.332 1.345-3.06 1.345-3.06"/><path d="m284 292.23l.25-2.251"/><path d="m288.12,292.23-.37-2.37"/><path d="m277.24 290.48c-.152.084-2.126-2.376-1.5-2.126"/><path d="m273.62 294.11c.25 0-3.267-3.642-2.642-3.392"/><path d="m270.36 287.36c-.091-.279-.25-1.626.375-1.376"/><path d="m278.2 286.52c-5.343 4.612-10.374 2.671-11.1 6.549"/><path d="m291.43 289.13c.187-.226.83-1.42.157-1.417"/><g stroke-linejoin="round"><path d="m205.62 291.41c.07-.103 4.06-.433 4.06-.433l-3.701-2.34"/><path d="m229.94 295.39c.07-.103 4.06-.433 4.06-.433l-3.17-3.669"/><path d="m239.77 296.06c-.196-.635 4.193.098 4.06-.433l-2.771-3"/><path d="m234.52 282.06c.125 0 2.626 3.126 2.626 3.126l-.125-4.377"/><path d="m309.84 302.93c.095.081-.024 4.459-.024 4.459l2.873-3.115"/><path d="m277.78 301.81c.085.091-.483 4.055-.483 4.055l4.283-2.272"/><path d="m202.71 281.49l2.626 2.626"/><path d="m197.93 285.87l2.626 2.626"/><path d="m215.84 292.68l3.7-.33"/><path d="m209.96 296.33l3.705-.263"/><path d="m236.75 287.92l2.626 2.626"/><path d="m247.68 289.28l2.626 2.626"/><path d="m227.31 284.5l2.626 2.626"/><path d="m199.7 276.16l2.626 2.626"/><path d="m229.05 308.13l2.43-2.81"/><path d="m241.36 310.46l2.43-2.81"/><path d="m194.11 296.09l3.7-.33"/></g></g></g></g><g stroke-linejoin="round"><path fill="none" stroke-linecap="round" stroke-width="1.124" d="m201.11 293.46c-.604.033 1.873-.16 2.557.114l-3.653-2.614"/><g stroke-width="1.056"><g fill="none" stroke-linecap="round"><path d="m205.73 301.29l3.7-.33"/><path d="m249.6 297.7l3.705-.263"/><path d="m243.32 302.89l3.705-.263"/><path d="m247.78 283.84c.125 0 2.626 3.126 2.626 3.126l-.125-4.377"/><path d="m283.83 295.03l-2.626 2.626"/><path d="m292.44 297.9l-2.626 2.626"/><path d="m288.61 305.28l-2.626 2.626"/><path d="m319.5 305.96l-2.626 2.626"/><path d="m303.24 304.05l-2.626 2.626"/><path d="m319.23 288.33l-2.626 2.626"/><path d="m331.66 306.08l-3.698-.353"/><path d="m300.6 314.32l.179-3.711"/><path d="m312.32 297.53l1.89-3.198"/><path d="m318.2 301.08l1.89-3.198"/><path d="m323.1 311.25c-.082.095-4.083-.031-4.083-.031l2.869 2.091"/><path d="m267.53 310.14c.085.091-.483 4.055-.483 4.055l4.283-2.272"/><path d="m234.58 302.89c.488-.362 2.963-1.132 2.83-1.663l-2.635-.954"/></g><path stroke-opacity=".772" fill="#9c4314" fill-rule="evenodd" d="m346.11 277.88c1.735 1.347 4.662-13.979 4.213-18.775 0-.317-.545-10.487 1.585-17.752 1.345-2.446 1.393-20.773-.624-25.591 1.607-.136 3.554-.656 3.794-2.62-7.422 2.748-9.185-15.687-16.326-26.27-6.973-10.617-15.628-16.806-24.619-23.25.701-1.802 1.739-3.493 3.112-5.183-11.04 5.53-28.24-14.492-53.627-12.996-5.722.57-8.418.916-9.881 4.399-4.719.4-9.551 1.473-9.563 7.7.009 1.492 1.364 4.217 4.399 4.252 4.159 1.197 7.534.266 10.349 6.06.211 1.585.534 4.403.746 5.988 0 0-3.723-4.716-5.76-5.501.54-.784-.32-1.323 1.248-2.536-1.905-1.102-5.315-.205-5.315-.205s-7.374-3.471-13.313-2.536c0-.634-1.137-4.809-1.137-4.809-1.05 2.941-3.371 2.782-3.711 5.574-.634-2.01-1.492-4.463-2.126-6.471-2.084 2.846-1.479 5.917-2.219 8.875-.826.673-2.474.71-2.889-1.195-.211-2.325-.497-2.557-.484-5.33-1.505 2.622-3.308 3.899-3.917 8.427-.634-1.69-.969-3.307-1.603-4.997.08 5.888-4.998 9.422-9.808 13.555-1.351 2.501.212 2.536.317 3.804.845.423 1.69.846 2.536 1.268 1.479-.106 3.071-.212 4.549-.317.74.951.135 1.01 2.107 1.623 5.283 1.479 11.895-4.873 17.08 5.108-2.389 1.988-4.778 6.666-4.03 7.534.951 0-1.909 1.345 1.956.112-4.03 3.923-6.768 9.08-6.768 9.398-.448 1.101 1.626-.149 1.192 1.852.567-1.501.959-.125.959-.125-9.208 9.96-.308 20.64-1.3 26.394 1.531 2.466 1.722-.046 3.636-.32 1.62 7.06 6.253 11.337 9.105 16.938-1.473-.452-4.4-.612-5.985.059.135 2.656 2.536 5.18 4.438 7.502-1.373.422-2.642.844-4.01 1.271-2.853 1.478-4.749 3.03-6.757 5.248-1.339 3.234 6.39 4.02 10.09 4.564-.336 1.161-.809 2.622-.137 3.897 5.827.562 12.561-1.161 12.561-1.478 0-.321 1.46-1.139 1.46-1.139.784 1.57 2.51 2.034 3.275 1.811 1.102 0 2.811-4.387 2.027-7.747 2.113 2.533 4.102 6.569 6.215 9.107.64.671 1.467.178 1.995-.274 1.796 2.854 4.276 5.708 6.072 8.558.951 1.089.746.688 2.033.768 1.175-.38 2.175-.536 2.79-2.816 0 0 .39.354.944 1.611 1.419 1.01 2.42-1.417 3.205-2.202.448-1.081 2.197.212 2.197-.422.634.422 1.05 2.28 1.684 2.702.97-.359 1.934-2.491 2.01-4.754.964 1.984 1.262 1.82 2 2.352.634-.532.833-2.601 1.467-3.128-.137-1.094 7.613 7.473 7.93 7.473.765.557 5.145 1.9 6.04.334 2.187 1.461 8.07 2.364 9.03.017 4.844 2.069 10.545-.249 10.304-2.563 4.418 1.765 11.305.587 11.305.27.784-.093 2.914-2.162.897-3.728-14.687-10.251-36.546-27.22-44.957-31.31 0-3.03-2.289-13.941-4.755-16.947-.448-1.55.561-3.465 2.02-3.353 5.715 5.344 7.793 4.835 10.818 5.696 3.275 2.584 4.451 6.528 7.726 10.121 1.543.493 3.368 2.056 2.894.532-2.044-5.13-4.515-10.1-10.635-16.766 3.17 1.585 8.362 5.783 11.868 8.825 2.337 3.852 2.994 6.919 5.107 11.779 1.532.971 3.096 4.553 2.872 1.585-.336-5.583-4.252-14.449-4.252-15.08 6.225 4.966 6.16 12.663 8.04 17.372 1.625 2.39 2.443 5.564 3.116 4.821.784-1.085-1.848-14.528-1.848-14.528-.423-1.69-.634-3.606-1.057-5.296 4.633 2.667 6.253 12.843 8.421 25.03.006 1.942.797 4.07.692 5.337.994 1.229 2.139 4.619 2.088 2.596 0 0 .003-19.833-1.342-24.389-.336-2.427.596-6.397.596-6.397 1.69 8.242 3.493 17.15 5.184 25.395v6.02c.845.844 1.69 1.689 2.536 2.537.528-4.969 1.057-9.934 1.585-14.899 0 0-1.902-17.435-1.902-17.751v-5.072c-.038-1.787 1.604-1.444 2.686.58.212 4.332.198 7.767.41 12.1.74 4.964 1.255 8.586 1.658 14.898.198 5.172.397 17.403 1.492 17.192z"/><g fill="none" stroke-linecap="round"><path d="m264 306.55c-.238-.559-.409-3.145-.957-3.14l-1.542 2.339"/><path d="m310.35 292.43l-.315 2.616"/><path d="m287.3 311.73c-.603.074-3.135-.48-3.282.048l1.819 2.132"/></g></g></g><g fill="none" stroke-width=".528"><path d="m248.54 253.1v.274-.274.274-.274 2.734 2.05c.14.678.137 1.433.137 2.187.086.579.288 1.275.547 1.914.038.811.263 1.343.547 2.051.058.699.297 1.297.547 1.914.059.702.286 1.07.41 1.64.198.656.438 1.084.684 1.503.178.178.246.356.41.41"/><path d="m237.87 269.91c0-.222-.035-.893.274-1.367.484-.688.872-1.114 1.503-1.777.746-.475 1.279-1.038 1.914-1.64.681-.434 1.023-.818 1.64-1.23.379-.387.817-.578 1.23-.82.47-.231.813-.572 1.503-.683.417-.209 1.282-.137 1.914-.137.652 0 .88-.125 1.504-.137"/></g><g stroke-width="1.056"><g stroke-opacity=".772"><g stroke-linecap="round"><g fill="none"><path d="m337.24 222.43c2.113 1.532 4.438 4.861 5.389 10.883"/><path d="m325.36 224.48c3.064 2.747 4.793 5.735 7.079 12.468"/></g><g fill="#00c600" fill-rule="evenodd"><path d="m317.96 227.76c1.866 2.131 2.994 4.367 4.02 7.03"/><path d="m305.28 220.79c2.43 2.8 6.339 7.079 8.347 11.411"/></g></g><g fill="none"><path d="m253.67 149.29c.177 12.179 18 9.209 19.505 20.652 3.412 12.488 1.989 20.556-3 24.521-2.834 2.917-.667 7.453.177 9.782 4.633 11.743 11.63 13.633 14.638 23.77"/><path stroke-linecap="round" d="m247 157.6c0-.234.418-.642.832-.832 1.774-.578 2.865-.612 4.68-.728 1.56 0 3.02.069 4.576.312"/><path d="m270.09 269.4l6.198 10.08"/><path d="m289.84 254.4l33.18 25.412"/><path d="m288.95 261.37l24.25 21.287"/><path d="m243.33 234.96c3.193 6.34 12.218 14.762 17.633 16.1.185-4.072-.046-5.645-.694-8.469"/><path d="m253.6 231.35c3.193 6.34 6.109 13.1 14.579 16.939.879-6.155-1.018-14.532-5.692-23.05"/><path d="m255.1 222.85c2.916 1.759 5.554 2.545 7.498 2.777.879-6.155 1.649-12.669-3.372-21.482"/><path d="m243.88 226.49c4.304 4.674 7.775 4.905 9.719 5.137 1.435-4.212 2.037-13.144.278-22.771"/><path d="m232.73 230.24c4.285 5.546 14.165 16.07 19.481 19.899.185-.882.459-1.293.389-4.115"/><path d="m305.92 169.33c4.591 5.293 22.306 23.1 25.813 31.439 6.05 13.625 17.217 16.216 19.999 14.69"/><path d="m275.57 242.96c1.594 6.519 4.489 18.378 8.66 20.253.718-.701 1.325-1.997 1.255-4.821"/><path d="m251.49 206.01c1.873 1.907 2.298 3.644 4.242 3.876 2.368-1.937 6.539-12.734 5.04-20.704"/><path d="m241.67 205.71c.881 4.289 1.702 7.912 4.738 7.946 5.05-4.22 6.539-13.666 5.04-21.635"/><path d="m239.71 228.41l-2.273-4.995"/><path d="m288.76 268.83l15.217 13.823"/><path d="m281.51 263.27l4.696 13.219"/><path d="m260.82 251.17c3.193 6.341 9.997 15.494 15.412 16.837.185-.878.082-1.642.011-4.462"/><path d="m252.58 249.9c3.193 6.337 12.577 16.668 17.992 19.695.185-.878.975-1.047.904-3.867"/><path d="m275.95 267.74l6.78 11.243"/><path d="m267.84 239.52c2.916 1.759 5.976 3.233 7.92 3.464.297-6.854-2.092-17.909-6.998-26.373"/><path d="m234.1 203.58c-.866 3.242-.746 6.785 2.29 6.818 8.425-3.637 3.395-7.261 10.63-19.539"/><path d="m245.22 181.28c3.193 6.34 4.129 10.651 9.105 12.28.996-.449 3.473-11.656-4.927-20.754"/><path d="m255.45 186.56c1.641 1.907 4.045 2.363 5.989 2.246 1.902-3.8-2.165-14.565-7.52-20.13"/><path d="m302.51 177.78c4.01 5.642 21.597 25.336 29.13 31.622 1.694-.216 4.2 1.888 1.855-5.231"/><path d="m300.53 190.24c4.01 5.642 11.349 15.193 18.887 21.48 1.895.707 3.728.48 4.331-.013.646-.623.058-5.094.225-9.643"/><path d="m295.76 197.35c4.591 5.059 10.651 10.884 18.07 17.637 1.895.707 3.533.735 3.749-.013.18-.739.524-.553.108-5.101"/><path d="m289.35 206.43c4.591 5.06 8.787 8.788 12.949 9.718 2.01.242 3.067.269 3.283-.478.18-.739.058-4.279-.008-8.362"/><path d="m282.83 213.18c4.591 5.06 4.595 7.158 8.756 8.09 2.01.242 3.501-.023 3.865-.711.646-1.438.873-2.998.807-7.081"/><g stroke-linecap="round"><path d="m280.97 180.11c4.624.841 5.01-3.156 4.632-6.02-.455-3.586-2.991-5.155-5.994-4.401"/><path d="m278.4 195.95c2.179.841 4.917.788 5.913-1.708.805-1.899.503-6.552-2.5-5.799"/><path d="m281.67 188.38c4.159.259 4.547-1.639 4.399-4.04-.165-2.794-2.059-4.922-5.062-4.168"/></g><path d="m285.71 177.52c6.072-3.655 23.566 11 10.261 15.67"/><path d="m284.42 187.9c6.072-3.655 19.446 8.303 5.886 12.961"/><path d="m282.15 196.15c6.78.236 14.582 11.12 1.289 12.448"/><path stroke-linecap="round" d="m274.16 201.96c2.179.841 3.438 1.387 5.382-.293.767-.704 1.78-3.934-1.085-5.725"/><path d="m217.39 188.81c2.293-2.959 7.898-4.846 9.815-.928"/><path d="m278.25 202.49c3.95 1.297 10.234 12.285-.32 13.406"/><path stroke-linecap="round" d="m273.21 152.79c4.555.861 6.855 8.221 10.485 8.788 6.639.99-.858-7.683-2.295-8.659"/><path d="m206.05 184.25c2.043.083 3.961-.292 5.253-2.71"/><path d="m226.3 205.34c1.135 2.116 4.052 1.27 6.462-.197 3.298-1.886.518-8.511 8.379-14.161"/><path d="m230.48 233.24c4.285 5.546 12.414 13.821 17.48 18.269.185-.878 1.01-1.326.936-4.15"/><path d="m247.8 251.14l9.745 13.54"/><path d="m268.12 247.87c1.594 6.517 7.933 16.839 12.1 18.714.718-.705 1.2-3.5 1.13-6.324"/><path d="m265.85 266.54l-.595 6.04"/><path d="m280.44 236.33c1.594 6.518 3.989 22.381 7.66 25.26.718-.701 2.201-13.879 2.13-16.702"/><path d="m275.52 235.88c2.165.258 3.427.251 5.122.233.297-6.854-2.672-14.911-7.578-23.375"/></g><path fill="#00c600" fill-rule="evenodd" stroke-linecap="round" d="m287.59 218.95l-.338 6.931"/><g fill="none"><path d="m263.12 215.99c2.29.884 3.928 1.169 5.747 1.026 1.88-9.282-2.853-9.292-8.75-15.854"/><path stroke-linecap="round" d="m289.47 154.29c4.555.861 1.667 7.674 7.859 9.789 5.198 1.733 2.269-5.432.832-6.408"/><path d="m282.7 169.59c3.286-2.39 15.04.919 19.01 4.258 1.139 1.062 2.877 5.301-2.524 9.198"/><path d="m220.45 175.2c9.432-9.204 13.806-8.156 24.604-1.367 1.549.364 3.235.046 4.238-.547.547-1.321.026-2.668-.684-3.69-4.83-3.463-8.429-4.465-12.986-3.828"/><path d="m234.03 209.36c-2.121 3.126-3.855 9.924-.273 17.496.142.871 1.057 1.743.136 2.324-1.765.889-2.563 2.358-3.554 3.828"/><path d="m288.99 257.7c.065-11.469-1.611-20.618-6.186-28.899"/><path d="m269.18 213.04c1.514-.161 3.415.258 4.349-.193.451-1.675-.838-3.738-1.353-5.316.87-.097 1.933-.097 2.61-.29.387-1.45 0-3.48 0-5.22"/></g><path fill="#fff" fill-rule="evenodd" d="m212.53 180.4c.364-2.552 2.643-5.377 5.194-6.834 1.23-.684 2.051.137 2.597.41.684 1.094.273 3.144 0 3.964-.684 1.367-2.05 2.46-4.511 3.417-1.276-.547-2-.41-3.281-.957z"/><g fill="none"><path d="m234.4 229.06c.547.273 6.01 6.288 6.01 6.288h3.281l.273-9.158"/><path stroke-linejoin="round" stroke-linecap="round" d="m243.28 211.43c-1.094 3.6-.684 7.199 0 10.799"/><path d="m236.16 228.41l1.281-4.995"/><path d="m238.5 209.51c-1.641 3.01-2.107 7.948-1.254 11.535"/><path d="m283.18 229.5l-3.093.062"/></g></g><path fill="#9f3000" fill-rule="evenodd" d="m172.37 217.88c.434 1.339-1.027.62-1.34.997-1.536.542-3.971-1.34-5.508-5.889.75-1.274 5.161-4.01 6.577-3.423 0 0 2.775 1.058 3.108 2.217-.532 1.691-2.93 6.287-2.836 6.099z"/><g stroke-opacity=".772" fill="none"><path d="m283.18 229.5l.051-6.089"/><path d="m288.21 261.49l.868 14.857"/></g><path fill="#238700" fill-rule="evenodd" d="m172.27 218.4c2.997 2.819 7.706.928 8.456 7.814.321 3.853-5.138 11.56 0 18.517 1.82 2.676 6.53 5.566 6.53 5.566 2.462 2.747 3.211 7.635 4.816 11.453 3.389 5.067 8.06 6.172 11.774 4.924 0 0 12.202-5.459 12.202-5.566 0-.107-6.208-8.349-6.208-8.242 0 .107-6.958 5.887-7.06 5.887-.749-.107-4.816.321-6.315-4.817-.107-6.565-3.353-10.2-8.563-12.844-2.64-1.999-4.745-5.173-2.462-9.633 1.32-4.068 2.64-10.918-2.034-15.52-2.997-1.998-5.138-3.568-8.349-4.175-4.245 1.606-4.21 1.178-2.783 6.636z"/><g stroke-opacity=".772" fill="none"><path d="m232.61 161.1c-1.641 3.01-1.491 4.81-1.218 7.817"/><path d="m224.28 175.89h.137.547 3.144c1.018-.027 1.453-.413 2.187-.957.493-.279 1.017-.698 1.503-1.094.405-.29.892-.63 1.367-.82.775 0 1.381.057 2.05.274.619.26 1.127.631 1.64.957.512.205.974.274 1.777.274.834 0 1.709-.039 2.46.137.723.048 1.531.207 2.051.41.662.417 1.06.915 1.503 1.367.026.726.265 1.17.274 1.913 0 .635.072 1.497-.137 1.914 0 .786-.125 1.345-.274 1.914-.502.472-.684.837-1.367.957-.537.422-1.342.41-2.187.41h-2.187c-.475-.396-1.05-.807-1.64-1.367-.317-.735-.527-.974-1.23-1.23-.591-.093-1.294-.137-2.05-.137-.668 0-1.224.046-1.641-.273-.378-.36-.921-.548-1.503-.684-.62-.176-1.35-.137-2.051-.137h-1.094"/><path d="m227.83 177.12c.046.046.091.091.137.137-.31-.31-.197-.161.547.137.905.209 1.878.381 2.87.41.941 0 1.796.115 2.734.137.654 0 1.342.054 1.914-.137"/><path d="m236.58 174.93h-.137c.429 0 .165-.036-.41.684-.056.781-.223 1.211.137 1.914.445.148 1.199.479 1.503.82.44.315.41.597.41 1.367-.263.427-.499.771-.82 1.367-.172.429-.396 1.01-.547 1.503-.156.624-.265 1.218-.274 1.914v1.367"/><path d="m286.07 159.01c.152.292 2.772 5.524 6.03 2.206.483-.566.651-.976.651-1.941 0-.503-.069-1.088-.193-1.503"/></g></g><path fill="#fff" fill-rule="evenodd" stroke-width=".573" d="m207.18 264.25c1.577 2.197 4.442 1.066 5.02-.693-1.962.127-2.712-1.031-3.404-2.807-.419 1.017-2.054 2.238-1.612 3.5z"/><g stroke-opacity=".772" fill="none" stroke-width="1.056"><path d="m299.9 163.9c0 .101 2.776 2.655 6.977 2.655 1.013 0 5.829-1.216 7.364-3.356"/><path d="m305.71 166.36c.062.41.193 1.906.193 2.9-.013 1.053.24 1.934-.158 2.812-.432 1.119-.911 1.567-1.969 1.951-.861.39-1.044.017-2 .052"/><path d="m282.6 161.07c0 .065 2.962 7.1 3.936 7.814"/></g><g fill="#fff" fill-rule="evenodd" stroke-width=".573"><path d="m209.11 262.97c1.576 2.197 4.442 1.066 5.02-.693-1.962.127-2.712-1.031-3.404-2.807-.419 1.017-2.054 2.238-1.612 3.5z"/><path d="m212.1 261.69c1.576 2.197 4.442 1.066 5.02-.693-1.962.127-2.712-1.031-3.404-2.807-.419 1.017-2.054 2.238-1.612 3.5z"/></g><g fill="none"><g stroke-opacity=".772" stroke-width="1.056"><path d="m265.7 157.47h.193.773c3.071-.518 13.391 1.386 15.184 3.285"/><path d="m267.63 207.34c-.065-.065.144 1.183.08 1.118.381.381-.058-1.03-.273-1.892-.322-.769-.387-1.275-.387-2.32v-.773"/><path d="m248.34 252.84v.274-.274.274-1.119 3.58 2.048c.14.68.137 1.435.137 2.187.086.583.288 1.275.547 1.917.038.811.263 1.343.547 2.048.058.701.297 1.3.547 1.917.059.701.286 1.068.41 1.638.198.659.438 1.085.684 1.503.178.182.352 1.098.516 1.148"/><path d="m240 244.78v.137.547 3.01c.178.906.209 1.865.41 2.734.074.781.263 1.448.41 2.187.065.73.94 3.323 1.23 3.964.323.604.801 1.233 1.094 1.638.546.169.992.363 1.64.409h1.914c.768-.148 1.031-.228 1.367-.819.185-.367.173-.625.41-.819"/><path d="m237.68 269.66c0-.224-.035-.895.274-1.368.484-.688.872-1.115 1.503-1.777.746-.477 2.604-3.03 8.201-4.509.652 0 .88-.127 1.504-.139"/><path d="m238.34 257.26c.046.046 3.059 1.621 4.623 1.689"/></g><path stroke-width=".528" d="m246.95 262.55h-.149.149c-.05 0-.1 0 0 0z"/></g><g stroke-width="1.056"><g fill-rule="evenodd"><path fill="#ffbc00" d="m245.6 262.4c-.448-.298-14.94-4.482-14.642-4.482.299 0-5.304 3.81-5.304 3.81l13.82 4.706 5.528-4.03h.597z"/><path fill="#f7b200" d="m231.76 257.8c.916-2.324.669-5.388-2.324-7.29-6.831-4.191-18.312-3.839-20.495 1.056-2.36-.317-3.557 1.585-3.909 3.486-6.092 1.655-.456 8.694 1.056 8.978 2.047.7 2.606.186 2.958-.483 1.139.281 2.702-.938 3.095-1.778 1.447.267 2.546.24 2.574-1.211 4.146 3.885 9.86 6.576 10.495 1.571 2.183-1.444 4.367-2.887 6.55-4.331z"/></g><g fill="none"><path d="m205.04 254.95c-.388 2.712 1.434 5.635 4.321 8.452"/><path d="m208.83 251.57c-.388 2.712.387 7.325 3.275 10.142"/><path d="m213.12 248.66c-2.652 2.227-1.207 9.118 1.681 11.935"/></g></g></g><path fill="#288800" stroke="#000100" fill-rule="evenodd" stroke-linejoin="round" stroke-width="1.056" d="m220.21 192.33c6.119 8.104-2.437 17.06-9.915 22.22-8.815 6.933-13.575 20.447 1.971 21.277 5.613-.103 11.709-.6 15.14 3.796 3.43 4.396 3.556 12.516-5.084 17.721-.846-.747-2.105-2.976-3.042-3.655-.938-.679-1.554.192-2.401-.556-.299-2.789 4.259-6.939-.051-7.943-5.578.946-25.1 1.028-24.855-17.598.429-4.151 2.648-8.81 6.208-13.551 3.561-4.741 13.323-10.619 14.26-13.193 1.503-2.222-1.245-6.548-3.437-7.146-1.793-4.781 6.125-9.886 11.205-1.37z"/><g stroke="#000"><g fill="none" stroke-width="1.056"><path d="m206.61 206.67l.211 10.881"/><path d="m200.91 211l11.621 1.69"/><path d="m209.47 204.24l9.825 2.01"/><g stroke-opacity=".642"><path d="m199.12 212.9l8.182 4.845"/><path d="m193.29 223.13l6.389 6.787"/><path d="m199.2 213.35l1.085 16.05"/><path d="m194.79 220.07l10.497.214"/></g><path d="m183.81 247.19c1.625-1.54 3.322-3.75 4.372-5.912"/><path d="m187.09 249.95c2.196-1.359 5.01-2.43 7.808-2.999"/><path d="m191.13 259.29c1.904-1.587 3.951-3.269 5.352-5.478"/><path d="m191.2 259.65c3.35-.082 6.747-.426 10.05-1.034"/><path d="m197.18 266.24c2.492-.938 4.768-2.379 6.613-3.82"/><path d="m179.85 243.82c1.931-1.56 3.863-3.334 5.436-5.181"/><path d="m178.43 238.82c2.1-.564 4.152-1.631 5.941-2.625"/><path d="m179.16 233.61c1.698-.659 3.684-.934 5.526-1.041"/><path d="m180.74 228.81c2.055-.202 3.439-.077 5.494.566"/><path d="m181.09 225.76c1.7-.912 3.611-1.507 5.523-1.257"/><path d="m180.24 223.5l5.92-4.04"/><path d="m179.2 221.83l5.04-4.998"/><path d="m177.77 221.14l3.695-6.31"/><path d="m192.5 183.84l-.046 8.993"/><path d="m201.6 185.27c-1.326 2.591-3.182 5.655-5.568 7.943"/><path d="m194.89 183.54c-2.641-.211-5.137 1.219-7.144 2.91"/></g><path fill="#9d4600" fill-rule="evenodd" stroke-linejoin="round" fill-opacity=".994" stroke-linecap="round" stroke-width=".528" d="m208.97 190.4c4.39 1.615 10.218 3.835 9.612 16.727 3.633-3.936 5.298-9.46.681-16.424-3.103-3.356-7.644-4.062-10.293-.303z"/><g fill="none" stroke-width="1.056"><path d="m210.95 194.7c.177-2.498 3.671-5.588 5.512-6.269"/><path d="m212.29 196.96c.92-3.192 4.9-5.727 6.742-6.408"/><path d="m212.38 201.48c1.7.026 8.133-3.541 9.605-5.666"/><path d="m212.9 199.1c2.068-1.438 5.954-4.693 7.795-5.374"/><path d="m218.58 201.71c1.549-.882 2.078-.665 3.701-2.336"/><path d="m208.97 190.47c4.415 1.438 9.813 4.693 9.46 16.651"/><g stroke-opacity=".642"><path d="m194.27 236.68l6.01-7.284"/><path d="m195.02 238.18l5.366-.005"/><path d="m192.02 230.9l7.507 4.276"/></g></g><path fill="#9d4600" fill-rule="evenodd" stroke-width=".528" d="m202.13 230.17c-1.437-.133-2.262-.407-3.511-.869.589 9.674 1.553 10.171 3.083 13.82 4.574 2.9 12.49 2.223 15.841 1.499.36.506 2.341 2.964 1.123 3.679-1.313.824-1.846 2.42-1.893 5 .776.874 1.584.115 2.373.677.789.562 1.719 2.551 2.45 4.262 0 0 9.728-6.686 8.15-12.976-1.036-5.909-5.03-7.921-5.03-7.921-5.648-2.824-13.587-.951-16.484-2.034-3.603-.8-5.87-3.914-6.101-5.138z"/><g fill="none" stroke-width="1.056"><path d="m218.16 247.24c4.873-2.224 10.02-2.406 11.423-2.201"/><path d="m199.1 234.32c1.058-.619 2.614-1.941 4.407-1.913"/><path d="m208.06 244.98c.865-5.125 3.062-8.587 4.194-9.452"/><path d="m210.99 245.38c.865-5.125 3.261-8.786 4.393-9.652"/><path d="m214.25 245.04c.865-5.125 3.062-8.453 4.194-9.319"/><path d="m216.72 244.64c.865-5.125 3.727-7.654 4.859-8.52"/><path d="m218.35 246.1c.865-5.125 5.219-7.973 6.35-8.839"/><path d="m218.49 246.89c2.967-4.268 7.844-6.341 9.236-6.641"/><path d="m205 244.31c.865-5.125 3.128-7.921 4.26-8.786"/><path d="m202.07 243.38c.865-5.125 3.528-7.721 4.66-8.587"/><path d="m217.28 253.91c2.3-1.81 3.863 4.03 3.977 4.743.114.708.544 1.43 1.689 2.091"/><path d="m200.28 239.85c.932-2.596 2.996-5.458 4.127-6.323"/></g><path fill="#fff" fill-rule="evenodd" stroke-width="1.122" d="m212.89 248.89c-2.985 4.742.46 8.928 4.325 7.249-.444-3.277-1.282-5.358 1.707-8.511-2.119.125-4.02-.625-6.03 1.262z"/><g fill="none"><g stroke-width="1.056"><path d="m201.63 214.03l1.412 6.966"/><path d="m203.04 220.43l-2.542 8.566"/><path d="m218.05 247.69c5.257-1.025 10.309 0 11.621.526"/></g><path stroke-width="1.135" d="m217.43 248.53c5.388-.078 10.09 2.123 11.246 2.988"/><g stroke-width="1.127"><path d="m217.49 249.53c5.184 1.179 7.507 3.808 8.414 4.918"/><path d="m217.13 250.72c4.651 2.575 5.697 4.688 6.259 6.01"/></g></g></g><g fill="#296526" fill-rule="evenodd" stroke-width="1.25"><path d="m73.55 300.37h2.565v11.864h-2.565z" transform="matrix(.97359-.2283.2283.97359 0 0)"/><path d="m160.95 314.67l5.244 5.972 1.958-1.657-4.923-6.186-2.279 1.87"/><path d="m321.02 340.19l-6.497 4.577 1.438 2.124 6.675-4.235-1.617-2.466"/><path d="m355.29 311.61l-5.795 5.438 1.72 1.902 6.02-5.124-1.945-2.216"/><path d="m373.67 273.25l-2.108 5.204 1.152 1.492 2.268-4.951-1.312-1.745"/></g><g fill="none" stroke="#000" stroke-width="1.056"><path d="m202 243.66c-2.815-4.632-3.171-9.477-3.313-14.216 1.496.713 2.672 1.104 3.527.855"/><path d="m192.2 183.57c-2.318-5.794.358-8.934 3.248-11.685"/></g><path fill-rule="evenodd" d="m209.1 154.93c0 1.681-2 3.043-4.476 3.043-2.472 0-4.476-1.363-4.476-3.043 0-1.681 2-3.043 4.476-3.043 2.472 0 4.476 1.363 4.476 3.043" transform="matrix(.3454-.30875.29017.36751 78.79 177.89)"/><g fill="none" stroke="#000" stroke-width="1.372"><path d="m180.97 214.38c-.485 0-8.88-1.13-8.88-1.13"/><path d="m177.42 220.52c0-.323-5.489-7.104-5.489-7.104"/></g></g></svg>