<svg xmlns="http://www.w3.org/2000/svg" viewBox="0 0 640 480"><g fill-rule="evenodd" stroke-width="1.25"><g><path fill="#e80008" d="m.9006-0h640.0004v480h-640.0004z"/><path fill="#fff" d="m.9006,34.286h640.0004v34.286h-640.0004z"/><path fill="#fff" d="m.9006,102.86h640.0004v34.286h-640.0004z"/><path fill="#fff" d="m.9006,171.43h640.0004v34.286h-640.0004z"/><path fill="#fff" d="m.9006,240h640.0004v34.286h-640.0004z"/><path fill="#fff" d="m.9006,308.57h640.0004v34.286h-640.0004z"/><path fill="#fff" d="m.9006,377.14h640.0004v34.286h-640.0004z"/><path fill="#fff" d="m.9006,445.71h640.0004v34.286h-640.0004z"/><path fill="#000689" d="M 0,0 H245.17 V141.39 H0 z"/></g><g fill="#fe0" transform="matrix(.48288 0 0 .48288 0 7.6956)"><path d="m257.76,232.94c-54.627,30.397-122.92,9.8571-152.44-45.2-29.517-55.058-9.1377-123.89 45.49-153.64 33.777-18.395 70.875-18.76 104.58-.6666-19.02-4.578-36.004-4.3319-54.459,1.1505-53.759,15.97-84.662,73.362-68.979,128.11 15.683,54.745 72.042,86.214 125.8,70.244z"/><path d="m370.61,162.91 67.87-38.56-53.92,56.44 77.88-5.29-73.07,27.46 72.46,29.02-77.74-6.96 52.69,57.58-67.02-40 22.48,74.74-43.02-65.12-12.18,77.09-10.5-77.34-44.42,64.19 24.09-74.25-67.87,38.56 53.92-56.44-77.88,5.29 73.07-27.46-72.46-29.02 77.74,6.96-52.69-57.58 67.02,40-22.48-74.738 43.02,65.118 12.18-77.093 10.5,77.343 44.42-64.184z" transform="matrix(.84992 0 0 .84992 34.931 -42.019)"/></g></g></svg>