<svg xmlns="http://www.w3.org/2000/svg" viewBox="0 0 640 480"><defs><clipPath id="0"><path d="m0 0h682.67v512h-682.67z"/></clipPath></defs><g clip-path="url(#0)" transform="scale(.9375)"><g stroke-width="1.25"><g fill-rule="evenodd"><path fill="#009a00" d="m0 0h768v160h-768z"/><path fill="#fff" d="m0 159.96h768v16.02h-768z"/><path d="m0 175.98h768v160h-768z"/><path fill="#fff" d="m0 335.98h768v16.02h-768z"/><path fill="#ffca00" d="m0 352h768v160h-768z"/><path fill="#f00" d="m0 0v512l336.02-256-336.02-256"/></g><g transform="matrix(.88217 0 0 .88217 34.811 142.78)"><path fill="#ffca00" fill-rule="evenodd" d="m189.55 214.57l-60.76-42.57-58.86 45.07 21.713-70.94-61.05-42.05 74.18-1.27 21.12-71.06 24.13 70.16 74.11-1.88-59.27 44.63z" transform="matrix(.96989.02019-.02019.96989 6.077 3.654)"/><g stroke="#000"><g stroke-linejoin="round" stroke-linecap="round"><path fill="#fff" fill-rule="evenodd" d="m77.11 167.91h41.834c3.366 3.776 10.876 5.316 18.03-.045 13.11-7.18 38.479.045 38.479.045l4.995-5.307-12.176-39.961-4.371-4.683s-9.365-5.619-27.16-3.746c-17.795 1.873-24.04-.624-24.04-.624s-15.609 1.873-19.98 4.058c-.481.389-4.995 4.995-4.995 4.995l-10.615 45.27z"/><path fill="none" d="m85.54 157.61s39.96-4.995 51.51 10.302c-6.524 4.464-12.268 4.832-18.42.313.98-1.633 14.361-15.61 48.39-10.927"/></g><g fill="none"><path d="m128.31,117.65-.31,44.02"/><path d="m163.9 118.27l7.493 34.966"/></g><g stroke-linejoin="round" stroke-linecap="round"><path fill="none" d="m93.13 117.72l-4.158 18.03"/><path fill-rule="evenodd" d="m49.942 172.71l9.838 11.535c1.155.689 2.181.645 3.208 0l14.58-17.496 6.124-7.582c.948-1.123 1.251-2.376 1.166-3.499l11.707-10.403c.958.066 1.528.174 2.486.239-1.132-.293-1.962-.844-1.071-2.084l2.624-2.041 2.041 2.624s-2.916 3.791-3.207 3.791h-3.208l-6.124 5.541 2.677 2.366 4.03 11.05 4.958-3.5-3.208-11.372 6.999-7.582-2.625-4.083 1.75-2.333s24.22 15.25 33.554 11.168c.252.091.564-10.876.564-10.876s-25.08-2.624-25.662-7.582c-.583-4.957 5.541-5.54 5.541-5.54l-2.625-3.791.584-2.042 4.374 5.541 9.915-8.457 58.32 66.49c3.184-1.291 3.864-2.07 4.083-5.249-.082-.08-57.16-65.61-57.16-65.61l4.374-4.665c.862-.972 1.165-1.385 1.166-2.917l6.707-5.832c2.02.693 3.303 1.902 4.374 3.499l18.439-15.627c.486.486 1.962.972 2.964.425l30.48-29.26-33.22 23.468-1.17-.875c0-.972 1.205-1.213 0-2.916-1.291-1.549-3.208 1.458-3.499 1.458-.292 0-4.809-1.596-5.799-3.619l-.325 5.368-8.457 7.873-6.415-.292-9.332 9.04-1.166 3.499 1.458 2.917s-4.958 4.374-4.958 4.082c0-.291-1-1.289-1.045-1.418l4.253-3.831.583-2.624-1.419-2.216c-.43.313-5.871 6.01-6.163 5.423-.49-.54-15.75-17.786-15.75-17.786l.874-3.208-9.914-10.79c-3.615-1.248-9.332-1.458-10.498 6.415-.908 1.849-8.457.292-8.457.292l-4.082.875-23.04 32.66 12.831 15.455 26.25-33.24.779-9.418 5.507 6.157c1.836.236 3.585.257 5.249-.583l15.549 17.356-2.589 2.526c.875.972 1.477 1.593 2.352 2.565.875-.583 1.71-1.283 2.585-1.867.292.39.778 1.129 1.07 1.518-1.303.709-2.217 1.653-3.52 2.362-2.085-1.359-4.098-3.051-3.945-5.744l-8.748 7.29-.292 1.458-25.953 21.579-2.333.292-.583 6.707 16.913-13.997v-2.042l1.75 1.458 13.12-10.497s.875 1.166.584 1.166c-.292 0-11.665 10.498-11.665 10.498l-.291 1.166-2.042 1.75-1.166-.875-15.747 13.997h-2.333l-8.748 8.749c-2.256.196-4.212.435-6.124 1.749l-15.67 13.835z"/></g></g></g></g></g></svg>