<svg xmlns="http://www.w3.org/2000/svg" viewBox="0 0 640 480"><defs><clipPath id="clipPath3052" clipPathUnits="userSpaceOnUse"><path fill-opacity=".67" d="m0,0h640v480h-640z"/></clipPath></defs><g fill-rule="evenodd" clip-path="url(#clipPath3052)"><path fill="#fff" d="m0,0h640v480h-640z"/><g transform="matrix(.9375 0 0 .9375 -20.901 0)"><path fill="#3662a2" d="m-5.8379,.2386 .8561,368.58 573.98-368.82-574.84,.2386z"/><path fill="#38a100" d="m733.09,511.53-1.3468-383.25-578.98,383.54 580.33-.2831z"/><path fill="#c70000" d="m-5.4684,396.61 .4866,115.39 125.25-.16 611.76-410.14-.69-100.32-123.76-1.1414-613.05,396.37z"/></g><g transform="matrix(.9375 0 0 .9375 75.102 0)"><path fill="#ffe700" stroke-width="1.25" d="m223.81,249.35-37.97-20.97-19.94,38.52-22.39-37.15-36.53,23.4-.82-43.37-43.336,1.99 20.975-37.97-38.524-19.94 37.149-22.39-23.393-36.533 43.369-.82-1.99-43.332 37.97,20.974 19.94-38.524 22.39,37.15 36.53-23.394 .82,43.371 43.33-1.995-20.97,37.973 38.52,19.94-37.15,22.39 23.4,36.53-43.37,.82z" transform="matrix(.62436 .0238 -.025 .6244 20.58 22.369)"/><path fill="#3662a2" d="m239.52,185.41c0,31.289-25.365,56.654-56.654,56.654s-56.654-25.365-56.654-56.654 25.365-56.654 56.654-56.654 56.654,25.365 56.654,56.654z" transform="matrix(.87763 0 0 .87083 -42.442 -41.528)"/><path fill="#ffe700" d="m239.52,185.41c0,31.289-25.365,56.654-56.654,56.654s-56.654-25.365-56.654-56.654 25.365-56.654 56.654-56.654 56.654,25.365 56.654,56.654z" transform="matrix(.68714 0 0 .68714 -7.608 -7.4702)"/></g></g></svg>