<svg xmlns="http://www.w3.org/2000/svg" viewBox="0 0 640 480"><g fill-rule="evenodd"><g stroke-width="1.25"><path fill="#fff" d="m194.79,.0001h250.45v479.9999h-250.45z"/><g fill="#198200"><path d="m0,.0001h194.79v479.9999h-194.79z"/><path d="m445.23,0h194.77v480h-194.77z"/></g></g><g stroke="#000" stroke-linejoin="round" stroke-width=".742"><path fill="#198200" stroke-linecap="round" d="m313.5,351.29v52.63c7.0905,.0731 14.181,.1462 21.271,.2194 0,0-6.798-45.832-3.0703-51.972 3.7284-6.1399 7.2367-5.2632 7.2367-5.2632s13.815,4.1671 15.35,3.509c1.5355-.6581-.2194-5.2632 7.2367-4.6051 2.4122-.8775 1.0968-5.0438 3.2897-5.2632 2.1929-.2194 44.516,11.842 53.726,.4387-2.4122-6.3592-10.745-.4387-12.938-.2194-1.9735,0-10.306-3.947-15.132,0-4.3858-3.2889-24.341-5.4826-24.341-5.4826-2.6316-2.6316 47.586,1.3162 50.437-.6573 5.9205-5.9213-10.964-5.2632-13.596-3.2897-4.6782-2.851-10.545-2.6308-14.127-.6573-1.7176-4.1085-18.036-2.3391-27.1-3.5091-2.9012-1.7016-2.4046-2.6689-.4387-3.7276 18.932,.8043 37.772,3.2607 56.796,2.4122 5.1421-6.7035-6.4781-9.2178-13.596-3.5091-4.1786-6.8718-12.719-.2194-18.42-.8767-5.7012-.6581-3.0696-7.6754 4.1664-6.5794 7.2367,1.0968 20.175-.438 22.588-3.7277 2.4115-3.2889-1.4403-6.6304-13.377-3.5083-4.0399-3.9485-12.938,0-17.104,1.3154-5.5435-3.0924-18.42-.4387-22.806,.6581-4.2936-2.6689 22.587-7.0173 22.587-7.0173 10.376-.1836 16.228-1.9735 19.516-2.851 15.686-8.4074-.2247-9.3032-8.4562-3.1922-5.1094-3.9889-9.9635,.3412-14.569,1.8768-4.6051,1.5348-13.377,2.6316-13.377,1.9735 0-.6581 12.5-8.3335 12.5-8.3335s15.35-1.096 18.42-1.5348c3.0703-.4387 18.782-8.5026-2.6316-3.0703-7.4561,.6581-11.842,.2194-14.693,.4387-16.532-1.7092 1.5356-3.2889 1.5356-3.2889s23.407-2.1517 23.683-3.2897c.4593-9.1264-19.078-4.8245-19.297-4.8245 .0564-6.52-18.201,.2194-18.201,0-3.4892-2.0558 1.9735-4.1664 1.9735-4.1664 4.8245-1.1692 12.036-1.5127 13.923-3.049 0,0 13.626-.1318 15.243-3.749-3.3415-9.2186-28.824,1.6368-32.236,3.2897-4.6051,0 3.0703-7.4561 3.2897-7.6754 .2194-.2194 21.052-1.096 30.92-14.473 .6855-8.1424-11.622,4.6051-11.622,4.6051-.9186-10.56-13.377,.6581-20.613,1.5356-7.2359,.8767-7.4553-3.2897-2.4115-3.9478 5.0431-.6573 10.745-.2186 13.596-7.894 2.8502-7.6754 11.403,.4387 12.938-2.4122 1.5348-2.851-3.0703-5.2632-3.0703-5.2632s6.3593-6.5786-3.947-6.3592c-10.307,.2194-23.684-1.3154-23.684-1.3154s10.746-4.1672 20.833-3.9478c10.088,.2194 4.6051-7.2359-5.0438-7.2359-9.6482,0-14.692-3.2897-14.692-3.2897 5.4826-2.0466 10.964-4.0933 16.447-6.1399-.3656-1.5348-.7312-3.0703-1.0968-4.6051 0,0 9.6489-7.6754-3.947-5.9213-13.596,1.7549-15.131,1.9735-15.131,1.9735s-27.192,4.1671-27.411,4.1671c-.2194,0-7.4561-2.1929-.4387-3.9478 7.0174-1.7541 31.797-6.798 35.525-5.4818 3.7284,1.3154-.4387-9.2102-13.596-10.526-13.157-1.3154-21.271,3.2897-21.271,3.2897s-8.5521-3.0703-.6573-5.7019c7.894-2.6308 20.394,.8775 20.394,.8775s14.035-4.1664 2.4122-5.9205c-11.622-1.7549-15.288,1.5706-20.613,1.7541-2.1258-2.6537 18.245-3.2882 19.516-5.4826-2.1487-3.9485-14.765,0-22.148,0-3.1404-1.3322-3.343-3.4923 .2194-4.8245 7.5292-.2925 14.598,.15 22.128-.1424-.2194-4.0201 .0206-8.7753-.1988-12.795-9.5499-1.745-20.755,1.259-26.116,1.0046 1.4342-4.3865 22.067-5.5123 24.362-6.7058 4.775-5.9685-20.175,0-20.394,0-4.3515-.6429-4.0704-3.391-1.3154-5.0438 6.3592-.7312 20.616,.9254 19.537-3.3864-.8264-4.0405-9.8889-1.8768-13.617-.9993-3.7276,.8767-9.2102,.2194-9.2102,.2194-2.3871-3.2139 21.49-1.9067 21.271-4.386-.3115-2.8466-15.132-.8772-20.175-.6579-3.9409-2.7191 18.931-4.5132 19.298-4.8244 .8264-7.2899-15.35,0-18.42,0-3.0703,0-1.5348-4.6051-1.5348-4.6051s6.3592-2.8507 6.1399-3.2893c-.2194-.4386-4.8245-1.9736-5.2632-1.9736-.438,0 0-5.0438 0-5.0438s5.2632-3.9472 4.8245-5.0436c-.4387-1.0965-6.1399,.8772-6.1399,.8772v-4.3858s4.1664-.4386 4.6051-2.4122c.4387-1.9737-5.0438-2.1929-5.0438-2.1929-.7312-7.6751-1.4617-15.35-2.1929-23.025-.6581,7.1634-1.3154,14.327-1.9735,21.49-2.4122,.3655-4.8245,.731-7.2367,1.0964 0,0 5.0438,2.8508 5.9213,5.7015 .8767,2.8508-6.1406,1.9736-6.1406,1.9736s5.7019,4.8244 6.1406,6.5788c.438,1.7543-7.8948,2.1929-7.8948,2.1929s7.0173,5.0437 7.4561,7.8944c.4387,2.8508 0,4.3858 0,4.3858s-11.622-10.087-19.079-7.2366c-3.8747,2.0243 8.8766,2.9606 17.324,10.307-.0198,1.6359-20.517-4.9924-21.271-.8772 .4753,1.1453 21.887,4.2192 23.464,7.0174-7.8217,.2925-23.999-1.7114-23.464,.8767-1.6346,2.9881 15.279,1.2918 22.367,3.7284 2.0779,2.3612 1.8608,4.356-1.7541,4.6051-6.8323-3.2668-22.112-5.7065-22.148-1.5355 .0929,1.1136 15.796,.3907 21.49,4.1671-7.6008,1.729-33.383-3.519-33.546-.9635 .7343,1.1936 4.8191,6.4453 11.836,6.226 7.0173-.2194 23.244,2.851 24.341,5.0438 1.096,2.1929-21.052-4.6051-29.385-.6581-8.3328,3.9478 23.902,1.5356 29.165,6.36 5.2632,4.8245-10.526-.4387-10.526-.4387s-21.929-3.0703-25.218-1.5355c-3.2897,1.5355-7.0174,5.0438-7.0174,5.0438s2.1929,4.3857 4.3858,3.5091c2.1929-.8775-.6581,2.6316-.6581,2.6316s30.701,7.4553 37.499,14.034c6.798,6.5794-39.034-10.306-39.034-10.306s-18.42,6.798 1.0961,7.2367c-2.2454,3.2851 1.0968,5.2624 1.0968,5.2624s32.455,6.798 35.744,12.061c3.2897,5.2632-22.148-5.0438-27.85-7.894-5.7012-2.851-21.929,1.7541-21.709,2.8502 .2194,1.0968 7.8948,2.6316 8.1134,4.6051 .2194,1.9735-9.4288,2.6316-9.4288,4.3857 0,1.7549 41.007,10.307 51.972,19.517 10.964,9.2102-32.236-10.964-32.236-10.964s2.4122,3.2889 0,4.1664c-2.4122,.8767-10.964-12.281-24.999-4.1664-2.5562,3.3384 12.243,5.9921 16.008,6.3592-1.2857,3.3057-2.4122,4.3858 2.851,7.6747 5.2624,3.2897-10.307-4.8237-10.307-4.3857 0,.4387 1.0968,5.7019 1.0968,5.7019-4.8587-3.947-10.726-5.139-16.228-1.0968 0,0-.2194,3.9478 5.4818,6.36-3.113,6.3608 3.509,4.3858 14.035,10.306-15.644-4.0887-16.885,3.5091-5.7012,5.2632s41.884,2.851 49.121,12.28c7.2367,9.4296-10.281-3.6157-12.28-3.947-.4387,.2194-.8775,4.8245-.8775,4.8245-4.6782-2.7078-8.9893-5.1406-14.585-6.2876-.4387,.8767-.326,2.1213-.7647,2.998-5.0781-3.6622-9.5118-6.2222-16.886-6.5786-.2925,1.1699-.585,2.3391-.8775,3.509 0,0-6.1399-7.6754-18.201,0-6.7348,4.8283 25.438,1.7541 30.701,7.4561 5.2632,5.7012 1.0961,6.5786 1.0961,6.5786-4.3857-1.6079-8.7715-3.2166-13.157-4.8245 0,0-15.569-2.851-19.955,.6573-4.3857,3.509 64.033,12.061 66.006,21.491 1.3306,5.1139-16.08-5.3691-31.139-9.8683-.585,1.681-1.1699,3.3628-1.7549,5.0438 0,0-5.9799-6.0074-12.719-7.0173-.2194,0 1.3154,5.9213 1.3154,5.9213s-16.885-7.8948-25.437-3.7284c-8.5529,4.1664 29.824,6.3592 33.332,10.307 3.5083,3.947-11.622-2.6316-12.938,0-1.3162,2.6316-19.956-4.8245-19.737-1.3162 .2194,3.509 2.6316,5.4826 2.6316,5.4826s38.814,3.7277 40.131,8.3328c1.3154,4.6051-21.491-2.6316-21.491-2.6316s-2.1929,3.2897-.4387,4.8245c1.7542,1.5356-13.157-8.7715-11.842-1.9735-4.8359-1.9255-17.324-7.894-15.569-3.2889 1.7541,4.6051 35.306,11.184 35.306,11.184s-14.693,1.0961-14.035,4.8245c-18.901-11.515-18.42-4.1672-17.982-3.9478 .4387,.2194-24.341-6.1399-5.7019,3.9478 18.64,10.087 10.088,8.3328 10.307,8.5521 .2194,.2194 1.9735,5.0438 1.5348,5.0438-.4387,0-12.719-6.5794-16.885-7.0174-4.1671-.4387-23.903,5.4818-2.851,14.692s33.99-2.1929 45.612-.8767c11.622,1.3154 17.104,3.2889 16.008,7.0173-1.0968,3.7276-11.873-12.217-23.215,1.5759-12.902-2.5532-21.658-4.0346-14.998,5.4468-21.07-7.8742-33.934,2.4062-7.3989,6.5733 26.075,.7685 42.103-6.36 42.103-6.36s4.3857,8.1142 10.746,2.4122c6.3592-5.7012 6.5786,2.1929 6.798,2.1929 .2186,0 6.1399-2.6316 6.1399-2.6316h1.5348z"/><g fill="#fff"><g stroke-linecap="round"><path d="m316.07,320.16v-3.6728s-8.2825-1.4693-12.322-.6429c-2.3924-1.371-4.6531-3.1762-7.5117-1.6528-.5515,1.1936 5.2342,4.3157 7.1621,4.3157 2.2584,1.4289 12.672,1.8364 12.672,1.6528z"/><path d="m315.97,326.13s-8.2833-3.0284-11.589,.4608c.5408,3.7094 9.7525,5.5077 11.681,4.4977 1.9286-1.01 0-4.775-.0922-4.9585z"/><path d="m329.93,327.6v2.5714s9.9171,1.9278 11.662-.1836c1.7442-2.1121-7.8971-3.4892-11.662-2.3879z"/><path d="m329.48,317.35 .3656,2.9012s8.5392,1.9278 11.845-2.755c3.3057-4.6828-7.504,.0373-12.21-.1463z"/><path d="m329.93,307.4v1.9278s6.4278,1.0107 7.8971-1.7442c1.4693-2.755-7.7135,0-7.8971-.1836z"/><path d="m316.51,301.46c-.9887-1.4106-4.4794-4.9044-13.846-5.9144-6.5093-.0213 11.758,9.5781 13.846,5.9144z"/><path d="m329.75,291.69s-.3671,2.6628-.2757,2.6628c.0922,0 22.038-6.52 27.18-6.0607 4.5929-1.2987 5.51-4.4992 5.3256-4.4992-3.9196-2.8571-22.864,2.2957-32.23,7.8971z"/><path d="m330.21,283.89c-.0922,.4593-.2757,2.5714-.2757,2.5714s15.518-3.0307 19.651-5.9685c4.1321-2.9386-19.191,3.4892-19.375,3.3971z"/><path d="m329.57,276.27 .001,2.589s10.358-.3161 12.487-2.4054c1.3588-2.0893-9.1287-.2971-12.488-.1836z"/><path d="m351.18,298.01s5.3805,.7518 6.3905-.8089c-.1988-2.7702-6.3905,.9003-6.3905,.8089z"/><path d="m330.02,266.63c-.0922,.4585 .0914,5.6928 .0914,5.6928s24.885-7.8971 26.446-9.3664c1.5607-1.4693 5.0248-5.8916-26.538,3.6736z"/><path d="m329.29,258.73v4.1321s10.009-.735 14.601-4.5c4.5914-3.7642-14.601,.4593-14.601,.3679z"/><path d="m317.26,249.36 .6429,3.765s-32.965-10.652-32.873-10.652c.0914,0-1.6605-5.4262 32.23,6.8871z"/><path d="m317.81,236.14c-.0922,.3671-.0922,3.5806-.1843,3.4892-.0914-.0922-22.864-9.5499-23.69-8.7235-3.0239-7.0859 23.875,5.4178 23.875,5.2342z"/><path d="m328.92,242.02c0,.0922 .3671,3.2143 .3671,3.2143s13.958-2.9386 14.784-4.3157c.8264-1.3779-15.151,1.1936-15.151,1.1014z"/><path d="m329.25,249.45c.1295,.7891 .4044,3.3064 .4044,3.3064s5.6014-.4593 6.4278-1.745c.8264-1.2857-6.8323-1.4693-6.8323-1.5614z"/><path d="m328.37,232.47c0,.2757 .0914,3.1221 .0914,3.1221s15.335-3.03 16.988-4.4992c1.6528-1.4693-17.355,1.3771-17.079,1.3771z"/><path d="m328.46,224.02c0,.1836-.5507,3.1221-.1836,3.1221s18.641-3.1221 21.487-5.6928c2.8472-2.5714-21.028,2.8464-21.303,2.5707z"/><path d="m328.19,209.14v3.2143s11.846-2.4793 14.05-4.9593c2.2035-2.4793-14.05,1.9286-14.05,1.745z"/><path d="m326.17,187.47 .2757,4.8664s15.886-2.2035 18.181-4.8664c2.2957-2.6628-18.548,0-18.457,0z"/><path d="m318.82,151.02v3.03s-7.53-.3671-5.6936-1.6528 5.6936-1.1021 5.6936-1.3771z"/><path d="m325.8,155.06 .1836,4.1321s9.7335-.9178 10.468-2.4793c.7343-1.5607-10.468-1.6528-10.652-1.6528z"/><path d="m325.25,161.03s.1836,2.5714 .3671,2.5714c.1836,0 3.8564-.2757 4.6828-1.2857 .8264-1.01-4.6828-1.1021-5.0499-1.2857z"/><path d="m316.99,172.78c0,.275 .275,3.9486 .0914,3.8564s-21.303-6.1521-23.232-6.0607c-1.9278,.0922-2.4793-4.8664 23.141,2.2043z"/><path d="m318.73,179.67c0,.735 .4593,4.5914-.2757,4.4078-.7343-.1836-14.324-4.4992-12.947-5.7849 1.3771-1.2857 13.223,1.6528 13.223,1.3771z"/><path d="m317.54,208.68 .0914,3.4892s-23.69-7.1621-24.517-8.3556c-.8264-1.1936-3.1221-6.7949 24.426,4.8664z"/><path d="m318.45,217.22c0,.0922 .1843,3.3057 .0922,3.3057-.0922,0-32.23-11.294-32.23-11.294s-2.5714-8.4485 32.138,7.9885z"/></g><path d="m280.26,328.68c0,.1097-.1097,3.5167-.1097,3.5167s-6.264-1.7587-8.2421-5.2746c3.6263-.9887 8.4615,1.8676 8.3518,1.758z"/></g></g></g></svg>