<svg xmlns="http://www.w3.org/2000/svg" viewBox="0 0 640 480" xmlns:xlink="http://www.w3.org/1999/xlink"><defs><path id="0" d="m334.69 674.38s28.31-4.996 46.624-19.982c18.316-14.986 18.317-39.964 26.642-39.964 8.326 0 9.991 28.31 29.973 38.3 19.981 9.991 51.62 23.312 51.62 23.312l-154.86-1.665z" stroke="#000" fill="#6da700" stroke-width=".688"/><path id="1" d="m447.92 662.72c-44.959-19.982-18.317-9.991-31.638-18.317-6.661-16.651-16.651-29.973-8.326-29.973 8.326 0 9.991 28.31 29.973 38.3 19.981 9.991 28.31 12.489 28.31 12.489l-18.317-2.498" stroke-width="1.25" fill="#ffbd00"/><clipPath id="2"><path d="m0 0h640v480h-640z"/></clipPath></defs><g clip-path="url(#2)"><g fill-rule="evenodd" stroke-width="1.25"><g fill="#5387f4"><path d="m-79.43 318.86h798.86v161.14h-798.86z"/><path d="m-79.43 0h798.86v161.14h-798.86z"/></g><path fill="#fff" d="m-79.43 161.14h798.86v157.71h-798.86z"/></g><g transform="matrix(.45385 0 0 .45413 121.08-34.817)"><g transform="translate(-23.549)"><g fill-rule="evenodd" stroke-width="1.25"><path fill="#ffd200" d="m496.06 627.16l17.717-17.716 17.716 17.716h-35.433" transform="matrix(11.097 0 0 19.115-5241.2-11263)"/><path fill="#0ff" d="m496.06 627.16l17.717-17.716 17.716 17.716h-35.433" transform="matrix(10 0 0 17.321-4677.2-10147)"/></g><g fill="none" stroke="#ffd200" stroke-width=".688"><path d="m462.73,556.66-1.18-108.32"/><path d="m468.62 563.73l38.855-54.16"/><path d="m474.51 569.61l62.4-25.9"/><path d="m479.22 577.86l73 2.355"/><path d="m474.51 587.28l42.39 37.677"/><path d="m462.73 583.74v34.15"/><path d="m449.78 575.5l-55.34 48.27"/><path d="m455.67,579.03-24.726,45.92"/><path d="m446.25,569.61-91.84,31.791"/><path d="m445.07,564.9-64.76-2.355"/><path d="m393.26 537.82l56.52 18.839"/><path d="m420.34 489.55l34.15 65.936"/></g><g fill-rule="evenodd"><g stroke-width="1.25"><g transform="translate(0 318.54)"><path fill="#c453d7" d="m460.63 219.69c-35.433 0-61.25 6.505-83.04 14.15l5.54-9.579 5.53-9.595 5.54-9.596 5.54-9.578 5.53-9.595 5.54-9.579 6.13-9.769c8.26-7.257 25.98-10.652 43.69-10.652 17.72 0 35.44 3.586 44.3 10.826l5.54 9.595 5.53 9.579 5.54 9.595 5.54 9.578 5.53 9.596 5.54 9.595 5.53 9.579c-22.972-7.64-47.613-14.15-83.05-14.15" transform="translate(0-.004)"/><path fill="#5000c1" d="m460.63 212.93c-35.548-.05-75.28 10.597-77.5 11.329l5.53-9.595 5.54-9.596 5.54-9.578 5.53-9.595 5.54-9.579 6.13-9.769c8.26-7.257 25.98-10.652 43.69-10.652 17.72 0 35.44 3.586 44.3 10.826l5.54 9.595 5.53 9.579 5.54 9.595 5.54 9.578 5.53 9.596 5.54 9.595s-42.08-11.329-77.52-11.329" transform="translate(.013)"/><path fill="#0053d7" d="m460.63 205.27c-26.25-.109-68.69 7.141-71.68 8.504l5.246-8.713 5.54-9.578 5.53-9.595 5.54-9.579 6.13-9.769c8.26-7.257 25.98-10.652 43.69-10.652 17.72 0 35.44 3.586 44.3 10.826l5.54 9.595 5.53 9.579 5.54 9.595 5.54 9.578 5.53 9.596s-36.543-9.387-71.976-9.387" transform="translate(0-.007)"/><path fill="#009f9f" d="m460.63 197.32c-34.802-.07-63.717 6.631-66.43 7.739l5.54-9.578 5.53-9.595 5.54-9.579 6.13-9.769c8.26-7.257 25.98-10.652 43.69-10.652 17.72 0 35.44 3.586 44.3 10.826l5.54 9.595 5.53 9.579 5.54 9.595 5.54 9.578s-31.01-7.739-66.45-7.739" transform="translate(-.015-.008)"/><path fill="#ff0" d="m460.63 190.56c-35.605-.123-57.963 4.465-60.894 4.931l5.53-9.595 5.54-9.579 6.13-9.769c8.26-7.257 25.98-10.652 43.69-10.652 17.72 0 35.44 3.586 44.3 10.826l5.54 9.595 5.53 9.579 5.54 9.595s-25.473-4.931-60.906-4.931" transform="translate(0-.013)"/><path fill="#f50" d="m460.34 181.72c-31.01-.671-53.786 4.25-55.07 4.167l5.54-9.579 6.13-9.769c8.26-7.257 25.98-10.652 43.69-10.652 17.72 0 35.44 3.586 44.3 10.826l5.54 9.595 5.53 9.579s-20.227-4.167-55.66-4.167" transform="translate(-.015-.013)"/><path fill="#ff0b00" d="m461.51 171.42c-31.13.257-47.25 4.34-50.707 4.891l6.13-9.769c8.26-7.257 25.98-10.652 43.69-10.652 17.72 0 35.44 3.586 44.3 10.826l5.54 9.595s-13.52-4.891-48.953-4.891" transform="translate(-.029.003)"/></g><path fill="#4363ff" d="m496.06 627.16l4.983-4.983h25.467l4.983 4.983h-35.433" transform="matrix(10 0 0 17.321-4677.2-10147)"/></g><g transform="matrix(.96712 0 0 1-10.643-6.661)"><g transform="translate(149.03.833)"><use xlink:href="#0"/><use xlink:href="#1"/></g><g transform="translate(111.56.833)"><use xlink:href="#0"/><use xlink:href="#1"/></g><g transform="translate(74.1.832)"><use xlink:href="#0"/><use xlink:href="#1"/></g><g transform="translate(31.638)"><use xlink:href="#0"/><use xlink:href="#1"/></g><use xlink:href="#0"/><use xlink:href="#1"/></g><path fill="#f00" stroke="#000" stroke-width=".688" d="m438.01 565.49c.409 0 .727-1.87 1.766-3.532 2.222-1.61 4.568-2.871 7.653-3.533 1.665-.832 5.08-.588 7.653-.588 3.611.324 3.837 1.865 5.888 4.121.902 1.837 3.038 4.389 4.121 7.06 1.172 1.42 2.107 3.626 2.943 5.299.855 1.804 1.765 4.526 2.944 7.06.605 2.824 1.177 5.03 1.177 8.242 0 3.352-.554 4.78-1.177 7.07-1.794.598-5.29.888-7.06 0-1.9-1.7-5.162-.617-6.475-2.355-3.386-.474-4.208-4.459-5.888-6.475-1.175-1.729-1.156-3.03-2.355-4.71-1.857-1.327-2.108-2.945-2.943-5.299.736-2.517 2.01-3.068 4.121-4.121 1.127-1.644 1.766-2.304 1.766-5.298-.424-3.334-1.625-2.982-4.71-3.533-3.814 0-5.77.393-9.419.589z" transform="matrix(.67241 0 0 .52247 155.85 268.72)"/></g><g fill="none" stroke="#0ff" stroke-width=".688" transform="matrix(1.0073 0 0 1.4304-11.671-306.49)"><path d="m314.38 690.89h1.177c-3.178 0-1.561-.077 4.71 1.177 5.434.647 10.545 1.178 16.484 1.178"/><path d="m308.49 708.55v-1.177c0 3.69-.307 1.422 5.887-3.532 5.262-.916 7.744.94 14.13 1.177 3.388 1.694 9.526 1.142 12.952 0 1.753-.751 1.78-1.604 3.532-2.355"/><path d="m321.44 710.91v-1.177c.784.313 5.255 0 8.242 0 6.162 0 10.917-.299 14.13 2.355h2.355"/><path d="m366.18 686.18h1.178 4.709c3.749-1.25 9.204-1.249 12.952 0 1.484 4.877 3.389 5.78 9.42 5.887 1.974-1.481 6.05-2.526 8.242-3.532"/><path d="m369.71 694.42h1.178 4.71 10.597"/><path d="m380.31 705.02v-1.177c0 3.69-.306 1.422 5.888-3.533 4.69-2.304 7.16-3.599 14.13-2.355 5.01 2.679 6.789 4.236 12.952 4.71 5.601 0 8.06-.901 12.951-1.177"/><path d="m395.62 710.91h1.177c-3.291 0-1.541.146 4.71-2.355 5.854 1.464 9.805 3.453 16.484 3.533 3.824-.192 6.575-1.178 10.597-1.178"/><path d="m438.01 686.18h1.177 4.71c5.761 0 11.38-.098 16.484 1.177h16.484c1.57 0 1.177.393 1.177-1.177"/><path d="m433.3 695.6h1.177c-3.291 0-1.541.146 4.71-2.354 4.946.38 10.524 1.085 14.13 3.532 5.172 2.267 7.214 4.216 14.13 4.71 3.945-.208 4.215-1.751 8.242-2.355"/><path d="m450.96 707.37c1.847-.923 8.04-3.283 12.952-1.178 5.104 1.276 10.723 1.178 16.484 1.178 3.665-1.571 9.865-2.905 12.952-4.71h3.532"/><path d="m500.41 692.07c2.368 0 12.454-.558 17.661 1.178 6.371-.768 8.617-3.877 12.952-7.07 4.347 0 8.01.103 11.774 1.177"/><path d="m522.78 706.2c.095-.012 4.706-.924 8.242-1.177 5.307-3.98 6.228.084 11.774 1.177 6.151-1.391 9.251-4.42 11.775-8.242"/><path d="m535.73 697.95h1.177c-3.466 0-1.513.202 4.71-3.532 4.142-2.071 4.632-4.167 10.597-4.71 3.294-2.47 5.733-.305 8.242 1.178"/><path d="m560.46 707.37c.197-.935 2.335-6.02 3.532-8.242 5.249-2.1 7.759-3.058 11.775 2.355 4.27 1.164 8.279 3.491 12.951 4.709 1.733 0 .9.278 2.355-1.177"/><path d="m576.94 690.89v-1.178c0 3.691-.245 1.485 4.71-4.709 5.457.999 6.892 4.302 9.419 8.242 5.85 0 9.697-.142 12.952-2.355"/><path d="m605.2 703.84c.715-1.044 5.415-8.715 9.42-4.71 5.226 1.425 6.04 3.803 11.774 5.887 1-1.753 2.103-2.094 4.71-2.355"/><path d="m501.59 708.55h1.178c-3.291 0-1.542.146 4.709-2.355 4.895-2.826 7.322-3.976 10.597-8.242 5.468.196 9.662 1.178 15.307 1.178 0-1.57-.393-1.178 1.177-1.178"/><path d="m350.88 694.42c0-.815 3.214-2.088 7.06-3.532 2.806-2.105 5.133-.126 9.42 0"/><path d="m356.76 705.02h1.177c-3.291 0-1.541.146 4.71-2.355 4.516.632 6.547 2.879 11.774 3.532"/></g></g><g fill="#ffd200" stroke="#000" stroke-width=".688"><path d="m749.42 355.13c0 11.712 4.736 17.09 16.384 17.09 2.688 0 6.144-.704 8.192-1.664 7.232-3.456 7.872-9.09 7.872-16.32v-20.16c0-1.856.96-3.904 6.02-3.904v-1.216h-14.848v1.216c5.056 0 6.02 2.048 6.02 3.904v20.16c0 6.08-.064 15.1-12.03 15.1-8 0-11.07-3.776-11.07-13.76v-21.504c0-1.856.96-3.904 5.632-3.904v-1.216h-17.792v1.216c4.672 0 5.632 2.048 5.632 3.904v21.06z" transform="matrix(-.01565.99988-.99988-.01565 1071.5-162.39)"/><path d="m735.98 328.05h-1.344c-1.6 4.736-6.592 0-14.4 0-12.736 0-21.952 9.472-21.952 22.21 0 15.04 11.84 21.952 22.72 21.952 5.248 0 12.416-2.432 16.13-4.544v-12.16c0-3.648.32-5.696 4.48-5.76v-1.216h-16.32v1.216c5.312 0 5.632 2.112 5.632 5.76v9.536c0 1.856 0 2.24-1.856 3.136-2.176 1.024-4.864 1.408-7.232 1.408-10.752 0-16.192-8.96-16.192-18.816 0-11.2 4.608-20.16 15.232-20.16 7.552 0 11.776 4.224 14.208 11.01h1.472l-.576-13.568z" transform="matrix(.15771.98748-.98748.15771 935.34-214.65)"/><path d="m558.19 328.12h-1.344c-2.112 5.184-5.312-.064-14.08-.064-12.864 0-21.888 9.408-21.888 22.14 0 14.02 9.536 22.02 22.02 22.02 6.144 0 12.736-3.2 16.64-8l-1.088-1.28c-4.416 4.352-8.704 6.4-14.976 6.4-10.496 0-15.168-9.664-15.168-18.624 0-11.52 4.544-20.03 15.1-20.03 7.296 0 11.968 4.8 13.824 11.84h1.536l-.576-14.4z" transform="matrix(.76764.64088-.64088.76764 411.98-224.79)"/><path d="m511.41 334.07c0-1.856.96-3.904 6.272-3.904v-1.216h-19.07v1.216c5.312 0 6.272 2.048 6.272 3.904v32.13c0 1.856-.96 3.904-6.272 3.904v1.216h19.07v-1.216c-5.312 0-6.272-2.048-6.272-3.904v-32.13z" transform="matrix(.87269.5324-.48758.84843 302.18-196.24)"/><path d="m490.42 334.07c0-1.856.96-3.904 6.208-3.904v-1.216h-15.232v1.216c5.248 0 6.208 2.048 6.208 3.904v25.664l-24.64-30.784h-10.944v1.216c3.136.064 3.712.64 5.696 2.88l.512.64v32.512c0 1.856-.96 3.904-6.208 3.904v1.216h15.232v-1.216c-5.248 0-6.208-2.048-6.208-3.904v-29.25l28.416 35.26h.96v-38.14z" transform="matrix(.92166.38801-.38801.92166 242.32-151.83)"/><path d="m431.47 371.32l2.88-10.816h-1.792c-3.392 8.128-8.256 8.192-13.376 8.192h-8.448c-1.28 0-1.664-1.344-1.664-2.496v-15.744h9.02c4.288 0 7.936 1.216 7.936 6.208h1.344v-14.976h-1.344c0 4.992-3.648 6.144-7.936 6.144h-9.02v-13.76c0-1.6 1.216-2.496 2.816-2.496h10.304c4.48 0 6.592 3.072 7.296 6.528h1.408v-9.152h-33.984v1.216c4.672 0 5.632 2.048 5.632 3.904v32.13c0 1.856-.96 3.904-5.632 3.904v1.216h34.56z" transform="matrix(.99769.06795-.06795.99769 69.59-42.496)"/><path d="m284.46 328.12h-1.344c-2.112 5.184-5.312-.064-14.08-.064-12.864 0-21.888 9.408-21.888 22.14 0 14.02 9.536 22.02 22.02 22.02 6.144 0 12.736-3.2 16.64-8l-1.088-1.28c-4.416 4.352-8.704 6.4-14.976 6.4-10.496 0-15.168-9.664-15.168-18.624 0-11.52 4.544-20.03 15.1-20.03 7.296 0 11.968 4.8 13.824 11.84h1.536l-.576-14.4z" transform="matrix(.85522-.51827.51827.85522-113.64 211.06)"/><path d="m237.68 334.07c0-1.856.96-3.904 6.272-3.904v-1.216h-19.07v1.216c5.312 0 6.272 2.048 6.272 3.904v32.13c0 1.856-.96 3.904-6.272 3.904v1.216h19.07v-1.216c-5.312 0-6.272-2.048-6.272-3.904v-32.13z" transform="matrix(.77259-.63491.63491.77259-134.85 270.84)"/><path d="m219.82 371.32l3.072-11.136h-1.6c-3.52 8.768-9.216 8.512-17.344 8.512-3.968 0-6.4-.704-6.4-2.496v-32.13c0-1.856.96-3.904 5.632-3.904v-1.216h-17.792v1.216c4.672 0 5.632 2.048 5.632 3.904v32.13c0 1.856-.96 3.904-5.632 3.904v1.216h34.432z" transform="matrix(.68725-.72642.72642.68725-149.29 322.56)"/><path d="m102.38 355.13c0 11.712 4.736 17.09 16.384 17.09 2.688 0 6.144-.704 8.192-1.664 7.232-3.456 7.872-9.09 7.872-16.32v-20.16c0-1.856.96-3.904 6.02-3.904v-1.216h-14.848v1.216c5.056 0 6.02 2.048 6.02 3.904v20.16c0 6.08-.064 15.1-12.03 15.1-8 0-11.07-3.776-11.07-13.76v-21.504c0-1.856.96-3.904 5.632-3.904v-1.216h-17.792v1.216c4.672 0 5.632 2.048 5.632 3.904v21.06z" transform="matrix(.47347-.88081.88081.47347-169.71 425.81)"/><path d="m56.37 371.32l2.88-10.816h-1.792c-3.392 8.128-8.256 8.192-13.376 8.192h-8.448c-1.28 0-1.664-1.344-1.664-2.496v-15.744h9.02c4.288 0 7.936 1.216 7.936 6.208h1.344v-14.976h-1.344c0 4.992-3.648 6.144-7.936 6.144h-9.02v-13.76c0-1.6 1.216-2.496 2.816-2.496h10.304c4.48 0 6.592 3.072 7.296 6.528h1.408v-9.152h-33.984v1.216c4.672 0 5.632 2.048 5.632 3.904v32.13c0 1.856-.96 3.904-5.632 3.904v1.216h34.56z" transform="matrix(.19479-.98084.98084.19479-181.27 537.16)"/><path d="m-15.439 366.2c0 1.856-.96 3.904-5.44 3.904v1.216h17.6v-1.216c-4.672 0-5.632-2.048-5.632-3.904v-14.464l3.584-.128 15.232 19.712h10.304v-1.216c-2.88-.192-4.352-1.472-6.08-3.584l-12.672-15.62c6.02-.832 11.584-3.968 11.584-10.752 0-7.488-6.4-11.2-17.02-11.2h-16.896v1.216c4.48 0 5.44 2.048 5.44 3.904v32.13zm6.528-31.808c0-3.01.576-3.01 4.736-3.01 5.76 0 10.24 2.496 10.24 8.832 0 6.912-5.696 8.832-14.976 9.152v-14.976z" transform="matrix(.01062-.99994.99994.01062-182.07 608.65)"/><path d="m66.48 366.2c0 1.856-.96 3.904-5.632 3.904v1.216h17.792v-1.216c-4.672 0-5.632-2.048-5.632-3.904v-13.696c1.856.192 3.712.32 5.568.32 8.192 0 16.256-3.264 16.256-12.736 0-7.552-7.68-11.136-17.536-11.136h-16.13v1.216c4.352 0 5.312 2.048 5.312 3.904v32.13zm6.528-31.936c0-2.624.128-2.944 2.816-2.944 6.144 0 12.03 2.048 12.03 9.28 0 7.424-4.8 9.728-11.712 9.728-1.024 0-2.112-.128-3.136-.192v-15.872z" transform="matrix(.24519-.96948.96948.24519-179.51 515.06)"/><path d="m149.36 366.2c0 1.856-.96 3.904-6.144 3.904v1.216h20.16c10.05 0 16.704-3.968 16.704-11.648 0-6.144-5.184-9.536-10.688-10.624 4.928-1.152 8.512-3.904 8.512-9.28 0-8.192-7.68-10.816-17.536-10.816h-17.15v1.216c5.184 0 6.144 2.048 6.144 3.904v32.13zm6.528-15.744h3.2c6.02 0 13.632 1.408 13.632 9.02 0 7.488-4.928 9.472-11.584 9.472-4.672 0-5.248-1.152-5.248-3.392v-15.1zm0-2.56v-14.528c0-2.24 2.048-2.112 7.936-1.728 4.48.832 7.552 3.456 7.552 8.32 0 5.184-3.776 7.936-10.24 7.936h-5.248z" transform="matrix(.57567-.81768.81768.57567-162.29 378.54)"/><path d="m368.24 371.32c17.15 0 25.792-8.06 25.792-21.06 0-14.4-9.92-21.312-26.304-21.312h-16.512v1.216c4.672 0 5.632 2.048 5.632 3.904v32.13c0 1.856-.96 3.904-5.632 3.904v1.216h17.02zm-4.864-36.736c0-3.072.576-3.264 3.648-3.264 11.84 0 20.03 6.464 20.03 19.01 0 11.904-7.552 18.944-20.608 18.368-1.408-.064-3.072-.768-3.072-3.136v-30.976z" transform="matrix(.99696-.07792.07792.99696 22.21 13.662)"/><path d="m613.87 366.2c0 1.856-.96 3.904-5.44 3.904v1.216h17.6v-1.216c-4.672 0-5.632-2.048-5.632-3.904v-14.464l3.584-.128 15.232 19.712h10.304v-1.216c-2.88-.192-4.352-1.472-6.08-3.584l-12.672-15.616c6.02-.832 11.584-3.968 11.584-10.752 0-7.488-6.4-11.2-17.02-11.2h-16.896v1.216c4.48 0 5.44 2.048 5.44 3.904v32.13zm6.528-31.808c0-3.01.576-3.01 4.736-3.01 5.76 0 10.24 2.496 10.24 8.832 0 6.912-5.696 8.832-14.976 9.152v-14.976z" transform="matrix(.5091.86071-.86071.5091 646.29-258.77)"/><path d="m584.94 328.05h-1.28l-12.992 30.848c-2.624 6.208-4.288 10.88-8.256 11.2v1.216h12.672v-1.216c-2.176 0-4.352-.576-4.352-2.688 0-2.368 2.624-7.488 3.456-9.92h16.768l2.304 5.44c2.432 5.696 2.496 6.912-2.944 7.168v1.216h16.32v-1.216c-3.584.192-4.928-3.648-6.08-6.272l-15.616-35.776zm-2.304 9.216l7.424 17.6h-14.784l7.36-17.6z" transform="matrix(.67256.74004-.74004.67256 502.4-247.73)"/><path d="m673.84 328.05h-1.28l-12.992 30.848c-2.624 6.208-4.288 10.88-8.256 11.2v1.216h12.672v-1.216c-2.176 0-4.352-.576-4.352-2.688 0-2.368 2.624-7.488 3.456-9.92h16.768l2.304 5.44c2.432 5.696 2.496 6.912-2.944 7.168v1.216h16.32v-1.216c-3.584.192-4.928-3.648-6.08-6.272l-15.616-35.776zm-2.304 9.216l7.424 17.6h-14.784l7.36-17.6z" transform="matrix(.40179.91573-.91573.40179 739.21-252.03)"/><path d="m812.46 328.05h-1.28l-12.992 30.848c-2.624 6.208-4.288 10.88-8.256 11.2v1.216h12.672v-1.216c-2.176 0-4.352-.576-4.352-2.688 0-2.368 2.624-7.488 3.456-9.92h16.768l2.304 5.44c2.432 5.696 2.496 6.912-2.944 7.168v1.216h16.32v-1.216c-3.584.192-4.928-3.648-6.08-6.272l-15.616-35.776zm-2.304 9.216l7.424 17.6h-14.784l7.36-17.6z" transform="matrix(-.11764.99306-.99306-.11764 1148.5-122.34)"/><path d="m311.22 328.05h-1.28l-12.992 30.848c-2.624 6.208-4.288 10.88-8.256 11.2v1.216h12.672v-1.216c-2.176 0-4.352-.576-4.352-2.688 0-2.368 2.624-7.488 3.456-9.92h16.768l2.304 5.44c2.432 5.696 2.496 6.912-2.944 7.168v1.216h16.32v-1.216c-3.584.192-4.928-3.648-6.08-6.272l-15.616-35.776zm-2.304 9.216l7.424 17.6h-14.784l7.36-17.6z" transform="matrix(.9294-.36908.36908.9294-77.68 140.58)"/><path d="m728.93 940.02l4.372-10.693-1.589-.19c-4.535 8.288-10.161 7.359-18.231 6.395-3.94-.471-6.272-1.458-6.06-3.238l3.81-31.901c.22-1.843 1.416-3.762 6.06-3.208l.144-1.208-17.667-2.11-.144 1.207c4.639.555 5.349 2.702 5.129 4.545l-3.81 31.901c-.22 1.843-1.416 3.763-6.05 3.209l-.145 1.207 34.19 4.084z" transform="matrix(.41659-.9091.9091.41659-458.69 1006.7)"/><path d="m594.21 883.96l4.575.546c4.448.531 7.649.72 8.05 9.212l1.525.182.91-10.849-35.842-4.281-1.671 10.758 1.525.182c.68-1.917 1.256-4.04 2.788-5.532 2.161-2.449 7.08-1.539 11.656-.993l-4.099 34.32c-.22 1.843-1.416 3.763-6.05 3.209l-.145 1.207 17.667 2.11.144-1.207c-4.639-.554-5.349-2.702-5.129-4.544l4.099-34.32z" transform="matrix(.73379-.67937.67937.73379-457.69 566.21)"/><path d="m564.31 882.84c.22-1.843 1.416-3.762 6.627-3.14l.144-1.207-15.12-1.807-.145 1.208c5.211.622 5.922 2.769 5.701 4.612l-3.043 25.483-20.815-33.489-10.867-1.298-.144 1.208c3.106.435 3.61 1.075 5.314 3.535l.432.696-3.856 32.28c-.22 1.842-1.416 3.762-6.627 3.14l-.144 1.207 15.13 1.807.144-1.208c-5.211-.622-5.922-2.77-5.701-4.612l3.468-29.04 24.03 38.38.953.114 4.524-37.875z" transform="matrix(.86944-.49404.49404.86944-371.79 341.97)"/><path d="m517.25 914.73l4.143-10.398-1.78-.212c-4.332 7.668-9.169 7.155-14.253 6.547l-8.388-1c-1.271-.151-1.493-1.531-1.357-2.675l1.868-15.633 8.96 1.07c4.258.509 7.736 2.149 7.144 7.105l1.334.16 1.776-14.87-1.334-.16c-.592 4.957-4.351 5.668-8.609 5.16l-8.96-1.071 1.632-13.662c.19-1.589 1.503-2.335 3.092-2.145l10.231 1.222c4.449.531 6.181 3.832 6.471 7.347l1.398.167 1.085-9.09-33.744-4.03-.144 1.208c4.639.554 5.349 2.701 5.129 4.544l-3.81 31.902c-.221 1.842-1.417 3.762-6.06 3.208l-.144 1.207 34.32 4.099z" transform="matrix(.93823-.34602.34602.93823-276.66 203.91)"/><path d="m484.06 867.26l-1.335-.159c-2.711 4.897-5.266-.694-13.973-1.734-12.773-1.525-22.849 6.746-24.359 19.392-1.663 13.917 6.857 22.992 19.249 24.472 6.101.729 13.03-1.667 17.472-5.97l-.929-1.4c-4.901 3.797-9.402 5.322-15.629 4.578-10.422-1.244-13.915-11.394-12.852-20.291 1.366-11.439 6.887-19.352 17.373-18.1 7.244.865 11.314 6.185 12.322 13.396l1.525.182 1.136-14.367z" transform="matrix(.98636-.16458.16458.98636-142.32 76.8)"/><path d="m379.9 854.82l-1.334-.16c-2.712 4.897-5.267-.693-13.973-1.733-12.773-1.526-22.849 6.745-24.36 19.392-1.662 13.917 6.858 22.991 19.25 24.471 6.1.729 13.02-1.667 17.471-5.97l-.929-1.4c-4.901 3.798-9.401 5.323-15.629 4.579-10.422-1.245-13.915-11.395-12.852-20.292 1.366-11.438 6.888-19.351 17.373-18.1 7.245.865 11.314 6.186 12.322 13.396l1.525.182 1.136-14.366z" transform="matrix(.98504.17233-.17233.98504 161.14-58.1)"/><path d="m332.74 855.18c.22-1.843 1.416-3.763 6.69-3.133l.145-1.207-18.938-2.262-.144 1.208c5.275.63 5.985 2.777 5.765 4.62l-3.811 31.901c-.22 1.843-1.416 3.763-6.69 3.133l-.145 1.207 18.938 2.262.144-1.207c-5.274-.63-5.985-2.778-5.765-4.621l3.811-31.901z" transform="matrix(.9602.27931-.27931.9602 264.57-72.66)"/><path d="m268.33 885l4.143-10.398-1.779-.213c-4.332 7.669-9.17 7.155-14.254 6.548l-8.388-1c-1.271-.152-1.493-1.532-1.356-2.676l1.867-15.632 8.96 1.07c4.258.508 7.736 2.148 7.144 7.105l1.335.16 1.776-14.871-1.335-.159c-.592 4.957-4.351 5.668-8.608 5.159l-8.961-1.07 1.632-13.663c.19-1.589 1.504-2.334 3.092-2.144l10.232 1.222c4.448.531 6.181 3.832 6.47 7.347l1.398.167 1.085-9.09-33.744-4.03-.144 1.208c4.639.554 5.349 2.701 5.129 4.544l-3.81 31.901c-.22 1.843-1.416 3.763-6.06 3.209l-.145 1.207 34.32 4.099z" transform="matrix(.84216.53922-.53922.84216 521.41-47.22)"/><path d="m230.87 843.01c.22-1.843 1.416-3.763 6.06-3.209l.144-1.207-12.646-1.511-17.877 30.415-10.847-33.845-12.582-1.503-.144 1.207c5.083.607 5.794 2.755 5.574 4.598l-3.811 31.901c-.22 1.843-1.416 3.762-6.627 3.14l-.144 1.207 15.12 1.807.145-1.207c-5.211-.623-5.922-2.77-5.702-4.613l3.537-29.614 11.807 36.603.889.106 20.588-34.22-3.712 31.08c-.22 1.843-1.416 3.763-6.06 3.209l-.144 1.207 17.666 2.11.144-1.207c-4.639-.554-5.349-2.702-5.129-4.544l3.747-31.909z" transform="matrix(.75139.65985-.65985.75139 643.34-.62)"/><path d="m278.85 881.1c-.22 1.843-1.416 3.763-5.864 3.231l-.145 1.208 17.476 2.087.144-1.207c-4.639-.554-5.349-2.702-5.129-4.545l1.716-14.362 3.573.298 12.787 21.38 10.231 1.222.145-1.208c-2.837-.532-4.147-1.977-5.612-4.279l-10.731-17.01c6.072-.113 11.973-2.566 12.778-9.302.888-7.435-5.03-11.88-15.576-13.14l-16.777-2-.144 1.207c4.448.532 5.159 2.679 4.939 4.522l-3.811 31.901zm10.255-30.809c.356-2.987.928-2.919 5.059-2.425 5.719.683 9.872 3.693 9.12 9.984-.82 6.863-6.703 8.094-15.956 7.311l1.777-14.87z" transform="matrix(.93272.3606-.3606.93272 344.85-74.04)"/><path d="m406.47 857.93l-1.271-.152-16.559 29.09c-3.341 5.853-5.548 10.295-9.526 10.142l-.144 1.208 12.583 1.503.144-1.208c-2.161-.258-4.253-1.088-4-3.185.281-2.351 3.494-7.124 4.608-9.44l16.65 1.989 1.643 5.674c1.739 5.945 1.658 7.16-3.774 6.769l-.144 1.207 16.205 1.936.144-1.208c-3.581-.234-4.46-4.207-5.293-6.949l-11.26-37.36zm-3.381 8.878l5.285 18.356-14.68-1.754 9.395-16.602z" transform="translate(0-5.828)"/><path d="m159.33 828.41l-1.271-.152-16.559 29.09c-3.342 5.853-5.548 10.294-9.526 10.141l-.144 1.208 12.582 1.503.145-1.208c-2.161-.258-4.253-1.088-4-3.185.281-2.351 3.494-7.124 4.608-9.44l16.65 1.989 1.642 5.675c1.74 5.944 1.659 7.159-3.773 6.768l-.144 1.207 16.205 1.936.144-1.208c-3.582-.234-4.461-4.206-5.293-6.948l-11.26-37.36zm-3.381 8.878l5.284 18.356-14.679-1.753 9.395-16.603z" transform="matrix(.56328.82627-.82627.56328 819.55 133)"/><path d="m612.48 920.95c-.22 1.843-1.416 3.763-5.865 3.232l-.144 1.207 17.476 2.087.144-1.207c-4.639-.554-5.349-2.702-5.129-4.544l1.715-14.362 3.574.298 12.787 21.379 10.231 1.222.144-1.207c-2.837-.533-4.147-1.978-5.612-4.28l-10.73-17.01c6.072-.112 11.972-2.566 12.777-9.302.888-7.435-5.03-11.88-15.576-13.14l-16.776-2-.144 1.208c4.448.531 5.158 2.678 4.938 4.521l-3.81 31.901zm10.254-30.809c.357-2.987.929-2.918 5.059-2.425 5.72.683 9.872 3.693 9.121 9.984-.82 6.863-6.704 8.094-15.956 7.311l1.776-14.87z" transform="matrix(.6625-.74906.74906.6625-474.31 673.26)"/><path d="m676.55 890.19l-1.271-.152-16.558 29.09c-3.342 5.853-5.549 10.295-9.527 10.142l-.144 1.208 12.583 1.502.144-1.207c-2.161-.258-4.253-1.088-4-3.185.28-2.351 3.493-7.124 4.608-9.44l16.649 1.988 1.643 5.675c1.739 5.945 1.659 7.16-3.773 6.769l-.145 1.207 16.205 1.936.144-1.208c-3.581-.234-4.46-4.207-5.293-6.949l-11.26-37.36zm-3.38 8.877l5.284 18.357-14.68-1.754 9.396-16.603z" transform="matrix(.48593-.874.874.48593-475.12 919.05)"/><g fill-rule="evenodd"><ellipse cx="176.92" cy="676.04" rx="9.575" ry="9.158" transform="translate(2.498 8.326)"/><ellipse cx="176.92" cy="676.04" rx="9.575" ry="9.158" transform="translate(514.53 19.982)"/></g></g></g></g></svg>