<svg xmlns="http://www.w3.org/2000/svg" viewBox="0 0 640 480"><defs><clipPath id="0"><path d="m0-15.957h512v512h-512z"/></clipPath></defs><path fill="#fff" d="m0 0h640v480h-640z"/><g clip-path="url(#0)" transform="matrix(.9375 0 0 .9375 0 14.96)"><g fill-rule="evenodd" transform="matrix(1.0432 0 0 1.0432-.002-21.45)"><path fill="#ce0000" stroke="#000063" stroke-width="13.26" d="m6.271 489.83l363.1-.001-237.66-241.01 246.61.29-372.03-237.62-.019 478.35z"/><g fill="#fff" stroke-width="1.25"><path d="m296.98 523.24l-21.03 7.14 16.45 15.87-22.16-1.46 9.13 20.96-19.91-9.82.41 22.85-14.64-16.7-8.37 21.28-7.13-21.03-15.87 16.45 1.45-22.16-20.95 9.13 9.82-19.91-22.86.41 16.7-14.64-21.27-8.37 21.03-7.13-16.46-15.87 22.16 1.45-9.12-20.95 19.91 9.82-.41-22.86 14.64 16.7 8.36-21.27 7.14 21.03 15.87-16.46-1.46 22.16 20.96-9.12-9.82 19.91 22.85-.41-16.7 14.64z" transform="matrix(1.2301 0 0 1.1997-192.06-266.1)"/><path d="m142.18 184.6l-10.861 8.04 5.353 4.423c13-10.05 22.25-19.231 29.48-34.471 1.695 20.342-16.951 66-65.884 66.51-52.37-.044-70.54-48.49-68.52-67.37 9.621 17.455 15.492 25.966 30.594 35.05l4.621-4.241-10.229-8.523 13.168-3.424-7.085-11.924 13.796 1-1.734-13.885 12.09 7.08 3.784-12.926 8.689 10.411 8.14-9.87 4.432 13.411 11.301-7.864-1.449 13.639 13.548-1.59-6.351 12.608 13.12 3.908z"/></g></g></g></svg>