<svg xmlns="http://www.w3.org/2000/svg" viewBox="0 0 640 480"><defs><clipPath id="0"><path d="m-54.667 0h682.67v512h-682.67z"/></clipPath></defs><g fill-rule="evenodd" stroke-width="1.25" clip-path="url(#0)" transform="matrix(.9375 0 0 .9375 51.25 0)"><path fill="#002170" d="m-140 0h1024v512h-1024z"/><path fill="#ffb20d" d="m-140 234.11h1024v43.783h-1024z"/><path fill="#fff" d="m467.72,433.18-33.52-40.55-16.72,49.88-8.74-51.88-39.43,34.83 18.37-49.3-51.56,10.46 40.55-33.51-49.88-16.73 51.88-8.74-34.84-39.43 49.3,18.37-10.45-51.56 33.51,40.55 16.73-49.88 8.74,51.88 39.42-34.83-18.36,49.3 51.56-10.46-40.56,33.51 49.88,16.73-51.88,8.74 34.84,39.43-49.3-18.37z" transform="matrix(.88165-.08293.08293.88165-286.48 94.86)"/></g></svg>