<svg xmlns="http://www.w3.org/2000/svg" viewBox="0 0 640 480" xmlns:xlink="http://www.w3.org/1999/xlink"><defs><path id="0" d="m511.95 324.28l21.83-67.38 21.83 67.38 70.83-.05-57.34 41.58 21.94 67.35-57.27-41.68-57.27 41.67 21.95-67.34-57.33-41.6z"/><clipPath id="1"><path d="m0 0h496.06v372.05h-496.06z"/></clipPath></defs><g clip-path="url(#1)" transform="scale(1.2902)"><path fill="#fff" fill-rule="evenodd" stroke-width="1.25" d="m.013 0h499.55v248.1h-499.55z"/><path fill="#c00" d="m.013 0l-.021 18.621 119.21 61.25 44.86 1.3-164.05-81.17"/><path fill="#006" d="m51.05 0l144.53 75.49v-75.49h-144.52z"/><path fill="#c00" d="m214.86 0v96.37h-214.84v55.07h214.84v96.37h66.11v-96.37h214.84v-55.07h-214.84v-96.37h-66.11"/><path fill="#006" d="m300.24 0v71.13l141.39-70.58-141.39-.551"/><path fill="#c00" d="m304.71 78.887l39.76-.32 154.48-78.02-40.99.668-153.25 77.67"/><path fill="#006" d="m.013 167.5v52.775l99.16-52.22-99.16-.56z"/><path fill="#c00" d="m381.85 169.68l-41.34-.321 155.82 77.58-1.025-17.749-113.46-59.51m-343.12 78.57l146.11-76.71-38.38.26-146.45 76.34"/><path fill="#006" d="m497.9 21.795l-118 58.52 116.43.436v87.19h-99.16l98.24 53.23 1.442 27.08-52.47-.627-143.62-70.5v71.13h-104.67v-71.13l-134.72 70.941-60.844.191v247.81h991.59v-495.63l-493.17-.43m-498.41 27.971l-.523 51.47 104.39 1.308-103.86-52.775z"/><g fill-rule="evenodd"><path d="M 0,248.03 H523.49 V496.06 H0 z" fill="#ffd900" stroke-width="1.25"/><g transform="translate(7.636-229.39)"><path fill="#000067" d="m284.27 354.68c0 23.619-19.15 42.767-42.767 42.767-23.619 0-42.767-19.15-42.767-42.767s19.15-42.767 42.767-42.767c23.619 0 42.767 19.15 42.767 42.767" transform="translate(-1.01)"/><g fill="#fff40d" stroke-width="1.25"><use transform="matrix(.37676 0 0 .36496 39.671 225.36)" xlink:href="#0"/><use transform="matrix(.18672 0 0 .17086 285.51 292.33)" xlink:href="#0"/><use transform="matrix(.18672 0 0 .17086 140.83 377.87)" xlink:href="#0"/><use transform="matrix(.18672 0 0 .17086 140.83 210.82)" xlink:href="#0"/><use transform="matrix(.18672 0 0 .17086-4.297 292.33)" xlink:href="#0"/></g></g></g></g></svg>