<svg xmlns="http://www.w3.org/2000/svg" viewBox="0 0 640 480"><defs><clipPath id="clipPath3533" clipPathUnits="userSpaceOnUse"><path fill-opacity=".67" d="m-.0002-.0004h496.0602v372.0504h-496.0602z"/></clipPath></defs><g clip-path="url(#clipPath3533)" transform="matrix(1.2902 0 0 1.2902 .0003 .00047)"><path fill="#fff" fill-rule="evenodd" stroke-width="1.25" d="m.0133-.0004h499.5497v248.1004h-499.5497z"/><path fill="#c00" d="m.0133,.0003-.0208,18.621 119.21,61.253 44.86,1.3-164.05-81.174z"/><path fill="#006" d="m51.054,.0003 144.53,75.491v-75.491h-144.52z"/><path fill="#c00" d="m214.86,.0003v96.372h-214.84v55.07h214.84v96.372h66.106v-96.372h214.84v-55.07h-214.84v-96.372h-66.106z"/><path fill="#006" d="m300.24,.0003v71.132l141.39-70.581-141.39-.5507z"/><path fill="#c00" d="m304.71,78.887 39.76-.32 154.48-78.016-40.99,.6682-153.25,77.668z"/><path fill="#006" d="m.0133,167.5v52.775l99.159-52.22-99.159-.56z"/><path fill="#c00" d="m381.85,169.68-41.336-.321 155.82,77.58-1.025-17.749-113.46-59.51zm-343.12,78.57 146.11-76.71-38.38,.26-146.45,76.34"/><path fill="#006" d="m497.9,21.795-118,58.515 116.43,.4357v87.194h-99.159l98.242,53.231 1.442,27.079-52.474-.627-143.62-70.505v71.132h-104.67v-71.132l-134.72,70.941-60.844,.191v247.81h991.59v-495.63l-493.17-.4297m-498.41,27.971-.5233,51.467 104.39,1.308-103.86-52.775z"/><g fill-rule="evenodd"><g fill="#ffd900" stroke-width="1.25"><path d="m496.06-0h496.06v496.06h-496.06z"/><path d="M 0,248.03 H523.49 V496.06 H0 z"/></g><g transform="translate(7.6357 -229.39)"><path fill="#000067" d="m284.27,354.68c0,23.619-19.147,42.767-42.767,42.767-23.619,0-42.767-19.147-42.767-42.767s19.147-42.767 42.767-42.767c23.619,0 42.767,19.147 42.767,42.767z" transform="translate(-1.0063 -.00002)"/><g fill="#fff40d" stroke-width="1.25"><path d="m511.95,324.28 21.83-67.38 21.83,67.38 70.83-.05-57.34,41.58 21.94,67.35-57.27-41.68-57.27,41.67 21.95-67.34-57.33-41.6z" transform="matrix(.37676 0 0 .36496 39.671 225.36)"/><path d="m511.95,324.28 21.83-67.38 21.83,67.38 70.83-.05-57.34,41.58 21.94,67.35-57.27-41.68-57.27,41.67 21.95-67.34-57.33-41.6z" transform="matrix(.18672 0 0 .17086 285.51 292.33)"/><path d="m511.95,324.28 21.83-67.38 21.83,67.38 70.83-.05-57.34,41.58 21.94,67.35-57.27-41.68-57.27,41.67 21.95-67.34-57.33-41.6z" transform="matrix(.18672 0 0 .17086 140.83 377.87)"/><path d="m511.95,324.28 21.83-67.38 21.83,67.38 70.83-.05-57.34,41.58 21.94,67.35-57.27-41.68-57.27,41.67 21.95-67.34-57.33-41.6z" transform="matrix(.18672 0 0 .17086 140.83 210.82)"/><path d="m511.95,324.28 21.83-67.38 21.83,67.38 70.83-.05-57.34,41.58 21.94,67.35-57.27-41.68-57.27,41.67 21.95-67.34-57.33-41.6z" transform="matrix(.18672 0 0 .17086 -4.2973 292.33)"/></g></g></g></g></svg>