<svg xmlns="http://www.w3.org/2000/svg" viewBox="0 0 640 480" xmlns:xlink="http://www.w3.org/1999/xlink"><defs><path id="1" d="m38.976,474.8-10.63,10.63"/><path id="2" d="m265.75 396.85v17.717c35.433 5.906 70.866 5.906 106.3 0v-17.717c-35.433 5.906-70.866 5.906-106.3 0z"/><path id="3" d="m265.75 485.43l116.93 106.3"/><path id="4" d="m478.35 237.4c-5.888 0-10.63 6.608-10.63 14.816v16.432c0 8.208 4.742 14.816 10.63 14.816 5.889 0 10.63-6.608 10.63-14.816v-16.432c0-8.208-4.741-14.816-10.63-14.816zm0-7.087c-9.814 0-17.716 8.259-17.716 18.519v23.2c0 10.26 7.902 18.52 17.716 18.52 9.815 0 17.717-8.26 17.717-18.52v-23.2c0-10.26-7.902-18.519-17.717-18.519z"/><clipPath id="0"><path d="m0 0h640v480h-640z"/></clipPath></defs><g clip-path="url(#0)"><g fill-rule="evenodd" stroke-width="1.25"><path fill="#ef2d29" d="m-3.299-21.609h702.27v553.02h-702.27z"/><path fill="#009025" d="m174.57 317.33h535.76v207.56h-535.76z"/><path fill="#fff" d="m174.57-35.415h564.88v190.08h-564.88z"/></g><g stroke="#ef2d28" stroke-width=".983" transform="matrix(.19848 0 0 .17744 19.13-14.07)"><g fill="#fff" fill-rule="evenodd"><g transform="translate(464.17 3.543)"><path stroke-width="1.318" d="m29.02 467.72h115.59a11.298 11.851 0 0 1 11.298 11.851v61.34a11.298 11.851 0 0 1 -11.298 11.851h-115.59a11.298 11.851 0 0 1 -11.298 -11.851v-61.34a11.298 11.851 0 0 1 11.298 -11.851" id="5"/><g stroke-width="1.229"><path d="m31.979 471.26h109.66a10.719 10.864 0 0 1 10.719 10.864v56.22a10.719 10.864 0 0 1 -10.719 10.864h-109.66a10.719 10.864 0 0 1 -10.719 -10.864v-56.23a10.719 10.864 0 0 1 10.719 -10.864" id="I"/><path d="m64.966 396.07l9.723.443.442 5.745 7.955 5.303 6.187-6.629 7.513 5.303-7.07 5.746 1.768 7.955 8.838-.442v10.607l-7.07-.442-3.536 6.629 7.955 7.513-6.187 6.187-6.629-6.629-9.723 2.652.442 9.723-10.607.884-1.326-9.281-8.839-4.862-4.861 6.629-7.513-4.861 4.419-7.513-5.303-4.862h-7.513l-.442-13.7 7.513.884 5.303-7.955-6.187-6.187 7.955-7.07 5.745 5.745 9.723-1.768 1.326-5.746z" transform="matrix(.68108 0 0 .5852 37.972 260.74)" id="J"/><ellipse cx="68.944" cy="426.78" rx="11.05" ry="9.944" transform="matrix(.65819 0 0 .70224 38.845 209.62)"/><g><use xlink:href="#1"/><use transform="translate(7.087)" xlink:href="#1"/><use transform="translate(14.173)" xlink:href="#1"/><use transform="translate(21.26)" xlink:href="#1"/><use transform="translate(28.346)" xlink:href="#1"/><use transform="translate(35.433)" xlink:href="#1"/><use transform="translate(42.52)" xlink:href="#1"/><use transform="translate(49.606)" xlink:href="#1"/><use transform="translate(56.693)" xlink:href="#1"/><use transform="translate(63.779)" xlink:href="#1"/><use transform="translate(70.866)" xlink:href="#1"/><use transform="translate(77.953)" xlink:href="#1"/><use transform="translate(49.606)" xlink:href="#1"/><use transform="translate(85.04)" xlink:href="#1"/><use transform="translate(92.13)" xlink:href="#1"/><use transform="translate(99.21)" xlink:href="#1"/><use transform="translate(106.3)" xlink:href="#1"/><use transform="matrix(-1 0 0 1 173.62 0)" xlink:href="#1"/><use transform="matrix(-1 0 0 1 166.54 0)" xlink:href="#1"/><use transform="matrix(-1 0 0 1 159.45 0)" xlink:href="#1"/><use transform="matrix(-1 0 0 1 152.36 0)" xlink:href="#1"/><use transform="matrix(-1 0 0 1 145.28 0)" xlink:href="#1"/><use transform="matrix(-1 0 0 1 138.19 0)" xlink:href="#1"/><use transform="matrix(-1 0 0 1 131.1 0)" xlink:href="#1"/><use transform="matrix(-1 0 0 1 124.02 0)" xlink:href="#1"/><use transform="matrix(-1 0 0 1 116.93 0)" xlink:href="#1"/><use transform="matrix(-1 0 0 1 109.84 0)" xlink:href="#1"/><use transform="matrix(-1 0 0 1 102.76 0)" xlink:href="#1"/><use transform="matrix(-1 0 0 1 95.67 0)" xlink:href="#1"/><use transform="matrix(-1 0 0 1 124.02 0)" xlink:href="#1"/><use transform="matrix(-1 0 0 1 88.58 0)" xlink:href="#1"/><use transform="matrix(-1 0 0 1 81.5 0)" xlink:href="#1"/><use transform="matrix(-1 0 0 1 74.41 0)" xlink:href="#1"/><use transform="matrix(-1 0 0 1 67.32 0)" xlink:href="#1"/></g><g transform="translate(0 60.24)"><use xlink:href="#1"/><use transform="translate(7.087)" xlink:href="#1"/><use transform="translate(14.173)" xlink:href="#1"/><use transform="translate(21.26)" xlink:href="#1"/><use transform="translate(28.346)" xlink:href="#1"/><use transform="translate(35.433)" xlink:href="#1"/><use transform="translate(42.52)" xlink:href="#1"/><use transform="translate(49.606)" xlink:href="#1"/><use transform="translate(56.693)" xlink:href="#1"/><use transform="translate(63.779)" xlink:href="#1"/><use transform="translate(70.866)" xlink:href="#1"/><use transform="translate(77.953)" xlink:href="#1"/><use transform="translate(49.606)" xlink:href="#1"/><use transform="translate(85.04)" xlink:href="#1"/><use transform="translate(92.13)" xlink:href="#1"/><use transform="translate(99.21)" xlink:href="#1"/><use transform="translate(106.3)" xlink:href="#1"/><use transform="matrix(-1 0 0 1 173.62 0)" xlink:href="#1"/><use transform="matrix(-1 0 0 1 166.54 0)" xlink:href="#1"/><use transform="matrix(-1 0 0 1 159.45 0)" xlink:href="#1"/><use transform="matrix(-1 0 0 1 152.36 0)" xlink:href="#1"/><use transform="matrix(-1 0 0 1 145.28 0)" xlink:href="#1"/><use transform="matrix(-1 0 0 1 138.19 0)" xlink:href="#1"/><use transform="matrix(-1 0 0 1 131.1 0)" xlink:href="#1"/><use transform="matrix(-1 0 0 1 124.02 0)" xlink:href="#1"/><use transform="matrix(-1 0 0 1 116.93 0)" xlink:href="#1"/><use transform="matrix(-1 0 0 1 109.84 0)" xlink:href="#1"/><use transform="matrix(-1 0 0 1 102.76 0)" xlink:href="#1"/><use transform="matrix(-1 0 0 1 95.67 0)" xlink:href="#1"/><use transform="matrix(-1 0 0 1 124.02 0)" xlink:href="#1"/><use transform="matrix(-1 0 0 1 88.58 0)" xlink:href="#1"/><use transform="matrix(-1 0 0 1 81.5 0)" xlink:href="#1"/><use transform="matrix(-1 0 0 1 74.41 0)" xlink:href="#1"/><use transform="matrix(-1 0 0 1 67.32 0)" xlink:href="#1"/></g></g></g><g><use xlink:href="#5"/><g stroke-width="1.229"><use xlink:href="#I"/><use xlink:href="#J"/><ellipse cx="68.944" cy="426.78" rx="11.05" ry="9.944" transform="matrix(.65819 0 0 .70224 38.845 209.62)"/><g><use xlink:href="#1"/><use transform="translate(7.087)" xlink:href="#1"/><use transform="translate(14.173)" xlink:href="#1"/><use transform="translate(21.26)" xlink:href="#1"/><use transform="translate(28.346)" xlink:href="#1"/><use transform="translate(35.433)" xlink:href="#1"/><use transform="translate(42.52)" xlink:href="#1"/><use transform="translate(49.606)" xlink:href="#1"/><use transform="translate(56.693)" xlink:href="#1"/><use transform="translate(63.779)" xlink:href="#1"/><use transform="translate(70.866)" xlink:href="#1"/><use transform="translate(77.953)" xlink:href="#1"/><use transform="translate(49.606)" xlink:href="#1"/><use transform="translate(85.04)" xlink:href="#1"/><use transform="translate(92.13)" xlink:href="#1"/><use transform="translate(99.21)" xlink:href="#1"/><use transform="translate(106.3)" xlink:href="#1"/><use transform="matrix(-1 0 0 1 173.62 0)" xlink:href="#1"/><use transform="matrix(-1 0 0 1 166.54 0)" xlink:href="#1"/><use transform="matrix(-1 0 0 1 159.45 0)" xlink:href="#1"/><use transform="matrix(-1 0 0 1 152.36 0)" xlink:href="#1"/><use transform="matrix(-1 0 0 1 145.28 0)" xlink:href="#1"/><use transform="matrix(-1 0 0 1 138.19 0)" xlink:href="#1"/><use transform="matrix(-1 0 0 1 131.1 0)" xlink:href="#1"/><use transform="matrix(-1 0 0 1 124.02 0)" xlink:href="#1"/><use transform="matrix(-1 0 0 1 116.93 0)" xlink:href="#1"/><use transform="matrix(-1 0 0 1 109.84 0)" xlink:href="#1"/><use transform="matrix(-1 0 0 1 102.76 0)" xlink:href="#1"/><use transform="matrix(-1 0 0 1 95.67 0)" xlink:href="#1"/><use transform="matrix(-1 0 0 1 124.02 0)" xlink:href="#1"/><use transform="matrix(-1 0 0 1 88.58 0)" xlink:href="#1"/><use transform="matrix(-1 0 0 1 81.5 0)" xlink:href="#1"/><use transform="matrix(-1 0 0 1 74.41 0)" xlink:href="#1"/><use transform="matrix(-1 0 0 1 67.32 0)" xlink:href="#1"/></g><g transform="translate(0 60.24)"><use xlink:href="#1"/><use transform="translate(7.087)" xlink:href="#1"/><use transform="translate(14.173)" xlink:href="#1"/><use transform="translate(21.26)" xlink:href="#1"/><use transform="translate(28.346)" xlink:href="#1"/><use transform="translate(35.433)" xlink:href="#1"/><use transform="translate(42.52)" xlink:href="#1"/><use transform="translate(49.606)" xlink:href="#1"/><use transform="translate(56.693)" xlink:href="#1"/><use transform="translate(63.779)" xlink:href="#1"/><use transform="translate(70.866)" xlink:href="#1"/><use transform="translate(77.953)" xlink:href="#1"/><use transform="translate(49.606)" xlink:href="#1"/><use transform="translate(85.04)" xlink:href="#1"/><use transform="translate(92.13)" xlink:href="#1"/><use transform="translate(99.21)" xlink:href="#1"/><use transform="translate(106.3)" xlink:href="#1"/><use transform="matrix(-1 0 0 1 173.62 0)" xlink:href="#1"/><use transform="matrix(-1 0 0 1 166.54 0)" xlink:href="#1"/><use transform="matrix(-1 0 0 1 159.45 0)" xlink:href="#1"/><use transform="matrix(-1 0 0 1 152.36 0)" xlink:href="#1"/><use transform="matrix(-1 0 0 1 145.28 0)" xlink:href="#1"/><use transform="matrix(-1 0 0 1 138.19 0)" xlink:href="#1"/><use transform="matrix(-1 0 0 1 131.1 0)" xlink:href="#1"/><use transform="matrix(-1 0 0 1 124.02 0)" xlink:href="#1"/><use transform="matrix(-1 0 0 1 116.93 0)" xlink:href="#1"/><use transform="matrix(-1 0 0 1 109.84 0)" xlink:href="#1"/><use transform="matrix(-1 0 0 1 102.76 0)" xlink:href="#1"/><use transform="matrix(-1 0 0 1 95.67 0)" xlink:href="#1"/><use transform="matrix(-1 0 0 1 124.02 0)" xlink:href="#1"/><use transform="matrix(-1 0 0 1 88.58 0)" xlink:href="#1"/><use transform="matrix(-1 0 0 1 81.5 0)" xlink:href="#1"/><use transform="matrix(-1 0 0 1 74.41 0)" xlink:href="#1"/><use transform="matrix(-1 0 0 1 67.32 0)" xlink:href="#1"/></g></g></g></g><g transform="matrix(-1 0 0 1 635.41 3.536)"><g fill="#fff" fill-rule="evenodd"><g stroke-width="1.229"><path d="m538.58 531.5c1.717 166.56 24.803 201.97 3.543 201.97s-31.89-92.07-31.89-205.51 14.173-205.51 35.433-205.51-8.913 31.909-7.086 209.06z" transform="matrix(1.6191-.71484 1.0156 1.1396-1010.9 421.76)" id="K"/><path d="m545.67 779.53l-60.24 17.716c56.693 60.24 120.47 85.04 138.19 74.41 17.717-10.629-31.89-35.433-77.953-92.12z" id="L"/></g><path stroke-width="1.27" d="m547.27 786.9l-50.926 14.74c56.693 60.24 112.77 77.38 127.28 70.01 14.591-7.37-30.29-28.06-76.35-84.75z" transform="matrix(.97408 0 0 .96154 12.584 29.978)" id="6"/></g><g fill="none"><g stroke-width="1.751"><path d="m353.13 634.23c.187 1.273.748 7.07 1.25 9.375 0 3.186.288 5.632.625 8.125.796 2.177.661 4.198 3.125 5 1.694 2.631 2.76 3.313 5 4.375 1.527 1.323 3.84 2.642 6.25 3.75 2.499 1.071 4.771 1.218 7.5.625 2.19-1.526 3.804-3.1 5.625-4.375.429-1.973.822-4.903 1.25-6.875-.674 2.024-1.147 5.265-1.25 8.125.24 3.12 1.265 4.481 2.5 6.875" transform="matrix(.70423 0 0 .69959 111.95 190.53)" id="M"/><path d="m389.38 681.73c.208-.208.416-.417.625-.625-1.484 1.484-.878.776 2.5-1.25 2.426-1.246 5.01-1.908 8.125-2.5h8.75c3.405 0 5.696.511 8.125 1.25 1.762 1.762 4.393 2.763 6.25 4.375 1.905 1.295 2.722 2.829 3.75 5 1.701 1.701 2.803 4.326 4.375 5.625.704 2.871 2.141 2.773 3.125 5-2.948.227-5.311.631-6.875 2.5-2.597 1.344 2.179-1.317 3.125-2.5 2.046-.618 2.576-1.25 5.625-1.25 2.85-.904 4.579.737 7.5 1.25 1.705.987 2.178 1.25 4.376 1.25" transform="matrix(.70423 0 0 .69959 102.7 186.59)" id="N"/><path d="m438.13 724.86c1.273.075 7.083 1.146 9.376 0 2.552-.696 4.068-2.04 5.625-4.375.767-1.689 0 2.998 0 5 .283 3.68 1.366 3.714 3.125 6.25 1.814 1.163 3.725 2.8 5.625 3.75 1.576 1.366 3.513 2.28 5.625 3.125 1.896.898 4.111 1.813 5.625 3.125 2.09 1.493 1.888 3.278 3.125 5.625-.235 3.057-.733 4.79-2.5 6.25-.738 2.113-2.395 4.205-3.75 5.625-1.545 2.87-3.256 4.224.625 5 2.132.914 3.327.197 5.625 0" transform="matrix(.70423 0 0 .69959 92.14 178.29)" id="O"/><path d="m480.63 771.73c1.536-.391 6.983-2.213 9.375-3.125h8.75c3.391.261 4.04 1.256 6.876 2.5 1.832 1.871 3.089 3.162 5.625 4.376 1.341 1.733 3.953 4.677 5 6.875.745 2.133 1.25 5.02 1.25 8.125-.044 3.648-1 4.271-1.25 7.5-.701 2.684-1.839 5.143-3.75 7.5-.265.793-.457.986-1.25 1.25" transform="matrix(.70423 0 0 .69959 89.94 176.1)" id="P"/></g><path stroke-width="2.339" d="m538.13 817.98c.374 0 1.201 2.02 2.5 3.75 2.828 2.906 3.192 3.125 7.5 3.125 3.884-.143 3.522-1.532 6.25-2.5 1.289-2.01 2.896-3.6 4.375-6.25 1.01-1.634 1.89-4.129 3.125-5.625 1.141-1.854 2.563-3.254 3.75-5 1.172-.502 1.618-.984 3.126-1.25-3.6.578-3.915 1.867-6.251 3.75-1.094 1.779-2.181 3.633-3.125 5.625-.361 2.673-1.21 4.779-1.25 8.125 0 3.457.017 5.872 1.25 8.75 1.473 1.545 2.563 3.143 4.375 4.376 1.439 1.405 3.244 3.336 4.376 5 1.96 1.206 3.385 2.189 5.625 3.75 1.884 1.102 3.915 2.234 6.875 2.5 3.67-.262 4.755-1.297 7.5-2.5 2.329-1.713 4.163-2.838 6.25-4.375 1.629-1.141 3.288-3.403 4.375-5 3.382-.846 5.529-.508 7.5 1.25 1.718 1.167 3.207 2.657 4.375 4.375 1.02.51 2.73 1.99 3.75 2.5" transform="matrix(.5 0 0 .55224 180.32 294.48)" id="7"/><path stroke-width="1.878" d="m503.76 836.11c-.802.334-3.717 2.367-5 3.125-.8 2.631-2.077 4.069-2.5 6.875-.677 2.709-.625 5.692-.625 8.75.685 3.194 2.01 5.557 3.125 8.125 1.974 1.342 2.967 2.33 5.625 3.75 2.494.337 4.94.625 8.126.625 1.904.635 5.615.942 7.5 0 2.783-.376 4.854-1.507 6.875-2.5 2.306-1.307 3.728-2.542 6.25-3.75 1.225-1.801 3.13-3.46 5-5.625 1.556-2.105 2.7-3.286 3.75-5.625-.924 2.669-2.327 4.999-3.125 7.5-1.422 2.661-2.248 3.604-2.5 6.875-.871 2.613-.625 5.76-.625 8.75.274 2.031.418 5.837 1.25 7.5v1.875" transform="matrix(.62163 0 0 .68918 170.66 184.25)" id="8"/><path stroke-width="1.229" d="m541.26 799.23v.625c0-1.687.041-.83-.625 2.5-1.179 1.462-3.944 1.868-6.25 1.25-2.02-1.67-1.96-2.935-5.625-3.75-3.542.253-4.892 1.279-6.875 2.5-2.354 1.177-3.438 1.771-5 4.375-.776 2.12-1.209 3.555 1.25 4.375 1.954 1.386 4.277 2.149 6.875 2.5 2.887 0 4.968-.339 6.25 1.25 1.983 2.055 1.875 3.277 1.875 6.875.667 1.112.799 4.394 1.25 5.625 1.736.823 2.755 1.25 5.625 1.25.674-1.931 1.423-5.419 1.875-7.5.489-2.248.64-5.379 1.875-6.875 1.168-1.717 2.658-3.207 4.375-4.375.766-1.073 2.223-1.965 3.75-2.5-2.452 1.251-2.801 2.603-3.125 5.625 2.155 1.078 2.731 1.833 6.25 1.875 3.459-.291 4.295-1.169 5.625-3.125.242 3.136 1.243 4.186 1.875 6.875 1.286 1.891 1.832 3.828 3.125 6.25-.551 3.01-1.737 3.163-1.875 6.875-.811 2.435-.723 4.783-2.5 6.251-.792.968-1.384 1.158-3.125 1.25 3.618 0 5.727-.391 8.125-1.875 1.854-1.141 3.255-2.563 5-3.75 2.212-1.603 4.947-3.085 7.5-3.751 2.887 0 4.968-.339 6.25 1.25 1.77 1.265 2.959 3.447 3.75 6.251.579 3.244.8 5.404-.625 7.5-1.057 2.408-1.297 3.346 0 6.25 1.452 2.033 3.617 2.272 6.875 3.125 2.379-.128 4.668-.671 6.25-1.25" id="9"/></g></g><g fill-rule="evenodd" stroke-width="1.229" transform="matrix(-1 0 0 1 635.41 3.536)"><g fill="#fff"><path d="m531.5 359.64c0-165.27 7.937-299.41 17.717-299.41 9.779 0 17.716 134.13 17.716 299.41h-35.433z" transform="matrix(1.4216-.73423.46161.89375-716.84 541.07)" id="A"/><path d="m531.5 359.64c0-165.27 7.937-299.41 17.717-299.41 9.779 0 17.716 134.13 17.716 299.41" transform="matrix(1.1373-.58739.44532.86221-554.83 471.77)" id="B"/><path d="m563.39 301.18c.189 18.908 0 40.19 0 60.24h-28.347c0-20.05-.189-41.33 0-60.24h28.347z" transform="matrix(1.4216-.73423.45889.88849-716.67 541.39)" id="C"/><path d="m559.84 304.72c.189 18.908 0 33.1 0 53.15h-21.26c0-20.05-.189-34.24 0-53.15h21.26z" transform="matrix(1.4216-.73423.45889.88849-716.67 541.39)" id="D"/><path d="m542.13 311.81h14.173v38.976h-14.173z" transform="matrix(1.4216-.73423.45889.88849-716.67 541.39)" id="E"/><path d="m542.13 311.81l14.173 38.976" transform="matrix(1.4216-.73423.45889.88849-716.67 541.39)" id="F"/><path d="m542.13 350.79l14.173-38.976" transform="matrix(1.4216-.73423.45889.88849-716.67 541.39)" id="G"/><path d="m542.13 113.39h14.173" transform="matrix(1.4216-.73423.45889.88849-716.67 541.39)" id="H"/></g><ellipse fill="#ef0000" cx="545.67" cy="92.13" rx="3.543" ry="3.543" transform="matrix(1.6046.45375-.36215 1.5787-734.9-170.85)"/></g><g><g fill="#fff" fill-rule="evenodd"><g stroke-width="1.229"><use xlink:href="#K"/><use xlink:href="#L"/></g><use xlink:href="#6"/></g><g fill="none"><g stroke-width="1.751"><use xlink:href="#M"/><use xlink:href="#N"/><use xlink:href="#O"/><use xlink:href="#P"/></g><use xlink:href="#7"/><use xlink:href="#8"/><use xlink:href="#9"/></g></g><g fill-rule="evenodd"><g stroke-width="1.229"><g fill="#fff"><use xlink:href="#A"/><use xlink:href="#B"/><use xlink:href="#C"/><use xlink:href="#D"/><use xlink:href="#E"/><use xlink:href="#F"/><use xlink:href="#G"/><use xlink:href="#H"/></g><ellipse fill="#ef0000" cx="545.67" cy="92.13" rx="3.543" ry="3.543" transform="matrix(1.6046.45375-.36215 1.5787-734.9-170.85)"/></g><g fill="#fff"><g><g stroke-width="1.229"><path d="m305.61 396.85c0 124.02.491 170.76-5.62 177.17-5.79 6.857-167.12 0-167.12 35.433s132.87 70.867 172.74 70.866c53.15 0 79.72-35.433 79.72-106.3v-177.17h-79.72z" transform="matrix(1.3333 0 0 1-141.74 0)"/><use transform="matrix(1 0 0 .99999 0 35.437)" xlink:href="#2"/><use transform="matrix(1 0 0 .99999 0 .004)" xlink:href="#2"/><use transform="matrix(1 0 0 .99999 0 17.721)" xlink:href="#2"/><use transform="matrix(1 0 0 .99999 0 53.15)" xlink:href="#2"/></g><g stroke-width="4.388"><ellipse cx="256.89" cy="210.83" rx="8.858" ry="26.575" transform="matrix(.54545 0 0 .14383 130.46 394.32)"/><ellipse cx="292.32" cy="246.26" rx="8.858" ry="26.575" transform="matrix(.54545 0 0 .14383 130.46 391.13)"/><g transform="matrix(.54545 0 0 .14383 130.46 390.49)"><ellipse cx="327.76" cy="263.98" rx="8.858" ry="26.575"/><ellipse cx="363.19" cy="263.98" rx="8.858" ry="26.575"/></g><ellipse cx="398.62" cy="246.26" rx="8.858" ry="26.575" transform="matrix(.54545 0 0 .14383 130.46 391.13)"/><ellipse cx="434.06" cy="210.83" rx="8.858" ry="26.575" transform="matrix(.54545 0 0 .14383 130.46 394.32)"/></g><g stroke-width="1.229"><path d="m265.75 485.43l106.3 95.67"/><path d="m276.38 485.43l95.67 85.04"/><path d="m290.55 488.98l81.5 70.866" id="Q"/><path d="m301.18 488.98l70.866 60.24" id="R"/><path d="m311.81 488.98l60.24 49.607" id="S"/><path d="m322.44 488.98l49.606 38.977" id="T"/><path d="m333.07 488.98l38.976 28.347" id="U"/><path d="m343.7 488.98l28.346 21.26" id="V"/><path d="m354.33 488.98l17.716 14.174" id="W"/><path d="m364.96 488.98l7.086 7.087" id="X"/><path d="m265.75 485.43l106.3 95.67" transform="translate(0 10.63)"/><g transform="matrix(-1 0 0 1 637.8 0)"><use xlink:href="#3"/><path d="m276.38 485.43l102.76 92.13"/></g><g transform="matrix(-1 0 0 1 637.8 0)"><use xlink:href="#Q"/><use xlink:href="#R"/><use xlink:href="#S"/><use xlink:href="#T"/><use xlink:href="#U"/><use xlink:href="#V"/><use xlink:href="#W"/><use xlink:href="#X"/></g><use transform="matrix(-1 0 0 1 637.8 10.63)" xlink:href="#3"/><use transform="matrix(-1 0 0 1 637.8 21.26)" xlink:href="#3"/><use transform="matrix(-1 0 0 1 637.8 31.89)" xlink:href="#3"/><use transform="matrix(-1 0 0 1 637.8 42.52)" xlink:href="#3"/><use transform="matrix(-1 0 0 1 637.8 53.15)" xlink:href="#3"/><use transform="matrix(-1 0 0 1 637.8 63.78)" xlink:href="#3"/><use transform="matrix(-1 0 0 1 637.8 74.41)" xlink:href="#3"/><use transform="matrix(-1 0 0 1 637.8 85.04)" xlink:href="#3"/><path d="m265.75 485.43l109.84 99.21" transform="matrix(-1 0 0 1 637.8 95.67)"/><path d="m265.75 485.43l99.21 88.58" transform="matrix(-1 0 0 1 637.8 106.3)"/><path d="m265.75 485.43l77.953 70.866" transform="matrix(-1 0 0 1 634.25 120.47)"/><path d="m265.75 485.43l63.779 56.693" transform="matrix(-1 0 0 1 630.71 134.65)"/><path d="m265.75 485.43l31.89 28.346" transform="matrix(-1 0 0 1 623.62 152.36)"/><path d="m265.75 485.43l102.76 92.13" transform="translate(0 21.26)"/><path d="m269.29 488.98l102.76 92.13" transform="translate(-3.543 28.347)"/><path d="m269.29 488.98l99.21 88.58" transform="translate(-3.543 38.977)" id="Y"/><use transform="translate(0 10.63)" xlink:href="#Y"/><path d="m272.84 492.52l95.67 85.04" transform="translate(-7.087 56.693)"/><path d="m269.29 488.98l95.67 85.04" transform="translate(-7.086 67.32)"/><path d="m269.29 488.98l88.58 77.953" transform="translate(-7.086 77.953)"/><path d="m265.75 485.43l88.58 77.953" transform="translate(-7.087 88.58)"/><path d="m262.2 481.89l85.04 74.41" transform="translate(-7.086 99.21)"/><path d="m262.2 481.89l81.5 70.865" transform="translate(-7.087 109.84)"/><path d="m262.2 481.89l70.866 63.779" transform="translate(-7.087 120.47)"/><use transform="matrix(1 0 0 .99999 0 70.87)" xlink:href="#2"/><path d="m262.2 481.89l63.78 56.692" transform="translate(-7.086 131.1)"/><path d="m262.2 481.89l56.693 49.606" transform="translate(-7.086 141.73)"/><path d="m262.2 481.89l49.606 42.519" transform="translate(-7.087 152.36)"/><path d="m262.2 481.89l35.434 31.889" transform="translate(-7.086 162.99)"/><path d="m262.2 481.89l28.347 24.804" transform="translate(-7.086 173.62)"/><path d="m262.2 481.89l17.716 14.173" transform="translate(-7.087 184.25)"/></g><g stroke-width="4.388"><ellipse cx="256.89" cy="210.83" rx="8.858" ry="26.575" transform="matrix(.54545 0 0 .14383 130.46 447.47)"/><ellipse cx="292.32" cy="246.26" rx="8.858" ry="26.575" transform="matrix(.54545 0 0 .14383 130.46 444.28)"/><g transform="matrix(.54545 0 0 .14383 130.46 443.64)"><ellipse cx="327.76" cy="263.98" rx="8.858" ry="26.575"/><ellipse cx="363.19" cy="263.98" rx="8.858" ry="26.575"/></g><ellipse cx="398.62" cy="246.26" rx="8.858" ry="26.575" transform="matrix(.54545 0 0 .14383 130.46 444.28)"/><ellipse cx="434.06" cy="210.83" rx="8.858" ry="26.575" transform="matrix(.54545 0 0 .14383 130.46 447.47)"/></g><g stroke-width="1.229"><path d="m113.39 651.97l127.55-74.41"/><path d="m113.39 651.97l120.47-70.87" transform="translate(-7.087-3.543)"/><path d="m113.39 651.97l109.84-63.78" transform="translate(-10.63-10.629)"/><path d="m113.39 651.97l95.67-56.693" transform="translate(-14.173-17.716)"/><path d="m116.93 648.42l88.58-49.606" transform="translate(-24.803-21.26)"/><path d="m131.1 641.34l60.24-35.433" transform="translate(-35.433-24.803)"/><path d="m138.19 637.8l46.06-28.346" transform="translate(-46.06-28.346)"/><path d="m141.73 634.25l31.89-17.717" transform="translate(-49.606-35.433)"/><path d="m120.47 648.42l120.47-70.86" transform="translate(3.543 7.087)"/><path d="m127.56 644.88l113.38-67.32" transform="translate(7.087 14.174)"/><path d="m134.65 641.34l106.3-63.78" transform="translate(10.63 21.26)"/><path d="m134.65 641.34l88.58-53.15" transform="translate(21.26 24.804)"/><path d="m155.91 627.16l77.952-46.06" transform="translate(14.173 38.976)"/><path d="m155.91 627.16l67.32-38.976" transform="translate(24.803 42.52)"/><path d="m162.99 623.62l53.15-31.89" transform="translate(28.346 49.607)"/><path d="m173.62 616.54l42.52-24.803" transform="translate(31.89 56.693)"/><path d="m177.16 616.54l28.347-17.717" transform="translate(42.52 60.24)"/><path d="m187.8 609.45l17.717-10.63" transform="translate(46.06 67.32)"/><use transform="matrix(0 1-.99999 0 655.51 308.27)" xlink:href="#2"/><path d="m166.54 630.71l42.52-35.433" transform="translate(-116.93-7.086)"/><path d="m166.54 637.8l42.52-42.52" transform="matrix(1 0 0-1-116.93 1236.6)"/><path d="m260.15 387.99l5.595 26.575c35.433 5.906 65.27 5.906 100.7 0l11.19-26.575c-35.433 5.906-82.06 5.906-117.49 0z" transform="matrix(0 .63333-.8 0 423.78 416.34)"/><path d="m258.66 350.79v-17.865c-10.63.149-17.716-10.481-17.717-21.26l-35.432.149c0 10.63-7.087 21.26-17.717 21.26v17.716h70.866z" transform="matrix(1.4983 0 0 1-15.633 53.15)"/></g><g stroke-width="1.272"><path d="m296.09 343.7h45.506v21.26h-45.506z"/><path d="m299.88 322.44h37.922v21.26h-37.922z"/><path d="m299.88 301.18h37.922v21.26h-37.922z"/><path d="m303.67 272.83h30.337v28.346h-30.337z"/></g><path stroke-width="1.325" d="m302.36 248.03h32.953v24.803h-32.953z"/><g stroke-width="1.229"><g transform="matrix(1.0333 0 0 1 75.35 63.779)"><ellipse cx="237.4" cy="161.22" rx="42.52" ry="33.661"/><path d="m258.66 159.45c0 9.291 10.63 24.803 10.63 24.803-7.696 6.093-20.15 10.63-31.889 10.63s-26.349-2.528-31.89-10.63c0 0 10.63-15.512 10.63-24.803s-10.63-21.26-10.63-21.26c7.696-6.093 20.15-10.63 31.89-10.63 11.735 0 24.19 4.537 31.889 10.63 0 0-10.63 11.969-10.63 21.26z"/><path d="m251.58 159.45c0 9.291 10.63 28.346 10.63 28.346-7.696 6.093-13.07 7.087-24.803 7.087s-19.262 1.015-24.803-7.087c0 0 10.63-19.06 10.63-28.346s-10.63-24.803-10.63-24.803c7.696-6.093 13.07-7.087 24.803-7.087 11.735 0 17.11.994 24.803 7.087 0 0-10.63 15.512-10.63 24.803z"/></g><ellipse cx="194.88" cy="166.54" rx="10.63" ry="10.63" transform="matrix(1.0333 0 0 1 75.35 60.24)"/><ellipse cx="194.88" cy="166.54" rx="10.63" ry="10.63" transform="matrix(1.0333 0 0 1 163.23 60.24)"/><ellipse cx="194.88" cy="166.54" rx="10.63" ry="10.63" transform="matrix(1.0333 0 0 1 119.29 60.24)"/><ellipse cx="194.88" cy="166.54" rx="10.63" ry="10.63" transform="matrix(1.0333 0 0 1 119.29 24.803)"/><ellipse cx="194.88" cy="166.54" rx="10.63" ry="10.63" transform="matrix(1.0702 0 0 1 79.931 226.77)"/><ellipse cx="194.88" cy="166.54" rx="10.63" ry="10.63" transform="matrix(1.0702 0 0 1 140.61 226.77)"/><path d="m212.6 311.81h49.607l-24.803 31.89-24.804-31.89z" transform="matrix(1.0702 0 0 1 64.762 53.15)"/><ellipse cx="194.88" cy="166.54" rx="10.63" ry="10.63" transform="matrix(1.427 0 0 1.3333 40.745 167.72)"/></g></g><g transform="translate(-1.768-28.3)"><g stroke-width="1.229"><path d="m266.549,524.41h72.798a4.3492,3.6873 0 0,1 4.349,3.687v13.886a4.3492,3.6873 0 0,1 -4.349,3.687h-72.798a4.3492,3.6873 0 0,1 -4.349-3.687v-13.886a4.3492,3.6873 0 0,1 4.349-3.687"/><path d="m478.35 237.4c-9.814 0-17.716 8.259-17.716 18.519v16.11c0 10.26 7.902 18.52 17.716 18.52 9.815 0 17.717-8.26 17.717-18.52v-16.11c0-10.26-7.902-18.519-17.717-18.519zm0 7.087c-5.888 0-10.63 6.608-10.63 14.816v9.345c0 8.208 4.742 14.816 10.63 14.816 5.889 0 10.63-6.608 10.63-14.816v-9.345c0-8.208-4.741-14.816-10.63-14.816z" transform="translate(-109.84 269.29)"/><use transform="translate(-201.97 272.84)" xlink:href="#4"/><path d="m478.35 247.23c-5.888 0-10.63 6.608-10.63 14.816v3.864c0 8.208 4.742 14.816 10.63 14.816 5.889 0 10.63-6.608 10.63-14.816v-3.864c0-8.208-4.741-14.816-10.63-14.816zm0-7.087c-9.814 0-17.716 8.259-17.716 18.519v10.63c0 10.26 7.902 18.52 17.716 18.52 9.815 0 17.717-8.26 17.717-18.52v-10.63c0-10.26-7.902-18.519-17.717-18.519z" transform="translate(-230.32 270.09)"/></g><g stroke-width=".867"><use transform="matrix(1.8 0 0 1.1176-655.51 242.2)" xlink:href="#4"/><use transform="matrix(1.8 0 0 1.1176-425.2 245.74)" xlink:href="#4"/></g><g stroke-width="1.229"><path d="m377.859,524.41h37.982a2.2691,3.6873 0 0,1 2.269,3.687v13.886a2.2691,3.6873 0 0,1 -2.269,3.687h-37.982a2.2691,3.6873 0 0,1 -2.269-3.687v-13.886a2.2691,3.6873 0 0,1 2.269-3.687"/><path d="m337.93 520.87h22.16a1.3237 4.9163 0 0 1 1.324 4.916v18.514a1.3237 4.9163 0 0 1 -1.324 4.916h-22.15a1.3237 4.9163 0 0 1 -1.324 -4.916v-18.514a1.3237 4.9163 0 0 1 1.324 -4.916"/><path d="m221.01 520.87h22.16a1.3237 4.9163 0 0 1 1.324 4.916v18.514a1.3237 4.9163 0 0 1 -1.324 4.916h-22.16a1.3237 4.9163 0 0 1 -1.324 -4.916v-18.514a1.3237 4.9163 0 0 1 1.324 -4.916"/><path d="m144.38 517.32h44.31a2.6473 6.1454 0 0 1 2.647 6.145v23.14a2.6473 6.1454 0 0 1 -2.647 6.145h-44.31a2.6473 6.1454 0 0 1 -2.647 -6.145v-23.14a2.6473 6.1454 0 0 1 2.647 -6.145"/><path d="m452.46 520.87h41.15a2.4582 6.1454 0 0 1 2.458 6.145v23.14a2.4582 6.1454 0 0 1 -2.458 6.145h-41.15a2.4582 6.1454 0 0 1 -2.458 -6.145v-23.14a2.4582 6.1454 0 0 1 2.458 -6.145"/></g></g></g></g></g></g></svg>