<svg xmlns="http://www.w3.org/2000/svg" viewBox="0 0 640 480"><defs><clipPath id="clipPath3037" clipPathUnits="userSpaceOnUse"><path fill-opacity=".67" d="m0,0h640v480h-640z"/></clipPath></defs><g clip-path="url(#clipPath3037)"><path fill="#fff" d="m0,0h640v480h-640z"/><g fill-rule="evenodd"><g stroke-width="1.25"><path fill="#fff" d="m92.462,0h477.19v480h-477.19z"/><path fill="#db0000" d="m323.07,3.6546h358v221.6804h-358z"/><path fill="#0000ab" d="m3.2267,225.33h319.8703v254.66h-319.8703z"/></g><g stroke-width=".113"><path fill="#0000ab" d="m214.8,177.65-41.959-29.326-41.754,29.614 15.529-48.124-41.677-29.716 51.562-.4143 15.993-47.978 16.335,47.867 51.562,.0632-41.463,29.996 15.872,48.017z"/><path fill="#d80000" d="m516.85,413.89-42.354-27.744-42.146,28.017 15.675-45.529-42.069-28.114 52.047-.392 16.143-45.391 16.489,45.286 52.047,.0598-41.853,28.379 16.021,45.428z"/></g></g></g></svg>