<svg xmlns="http://www.w3.org/2000/svg" viewBox="0 0 640 480"><defs><clipPath id="0"><path d="m0 0h640v480h-640z"/></clipPath></defs><g clip-path="url(#0)"><path fill="#fff" d="m0 0h640v480h-640z"/><g fill-rule="evenodd"><g stroke-width="1.25"><path fill="#fff" d="m92.46 0h477.19v480h-477.19z"/><path fill="#db0000" d="m323.07 3.655h358v221.68h-358z"/><path fill="#0000ab" d="m3.227 225.33h319.87v254.66h-319.87z"/></g><g stroke-width=".113"><path fill="#0000ab" d="m214.8 177.65l-41.959-29.326-41.754 29.614 15.529-48.12-41.677-29.716 51.562-.414 15.993-47.978 16.335 47.867 51.562.063-41.463 29.996 15.872 48.02z"/><path fill="#d80000" d="m516.85 413.89l-42.35-27.744-42.15 28.02 15.675-45.529-42.07-28.11 52.05-.392 16.14-45.39 16.489 45.29 52.05.06-41.853 28.379 16.02 45.43"/></g></g></g></svg>