<svg xmlns="http://www.w3.org/2000/svg" viewBox="0 0 640 480" xmlns:xlink="http://www.w3.org/1999/xlink"><defs><path id="1" d="m171.25 126.89l5.469 7.344"/><path id="2" d="m174.38,126.42-.156,4.531"/><path id="3" d="m171.25 134.24l5.938-7.187"/><clipPath id="0"><path d="m0 0h640v480h-640z"/></clipPath></defs><g clip-path="url(#0)"><g fill="#fff"><path d="m0 0h640v480h-640z"/><path d="m80 0h480v480h-480z"/></g><g fill-rule="evenodd"><g stroke-width="2.5"><g fill="#083d9c" stroke="#083d9c"><path d="m277.28 340.75s10.839-8.788 21.386-8.788 13.477 7.323 20.801 7.908c7.324.586 13.475-7.324 22.558-7.616 9.08-.292 20.508 6.444 20.508 6.444l-39.843 12.01-45.41-9.962z"/><path d="m254.43 327.86l135.35.586s-11.718-12.597-25.488-12.89c-13.769-.295-9.96 5.859-20.507 6.737-10.546.88-13.185-6.444-22.852-6.152-9.666.292-15.234 6.152-22.557 6.446-7.324.292-16.699-7.326-22.266-7.03-5.567.292-25.488 8.788-25.488 8.788l3.809 3.515z"/><path d="m237.15 311.75l166.99.587c2.636-3.809-8.204-12.891-18.16-13.77-8.205.292-14.06 8.496-20.801 8.79-6.738.292-14.355-8.498-21.973-8.202-7.616.292-15.526 8.202-23.14 8.202-7.616 0-13.183-8.498-22.85-8.498-9.668 0-14.06 9.375-21.386 8.79-7.326-.586-13.77-9.374-20.801-9.374-7.03 0-18.75 10.546-21.09 9.96-2.344-.585 2.928 4.395 3.223 3.515z"/></g><path fill="#f00" stroke="#000" stroke-linejoin="round" d="m301.3 218.88l38.38 10.255v-54.786c-17.579.88-32.23-33.397-1.172-35.741-30.468-4.395-33.985 3.515-37.5 12.01l.292 68.26z"/></g><path fill="#083d9c" stroke="#083d9c" stroke-linecap="round" stroke-width="5" d="m276.99 258.72l86.72.292"/></g><g fill="none" stroke="#000" stroke-linecap="round" stroke-width="2.133"><g transform="matrix(1.875 0 0 1.875-40 0)"><use xlink:href="#1"/><path d="m171.25 134.24l5.938-7.187"/><use xlink:href="#2"/></g><g transform="matrix(1.875 0 0 1.875-23.594 0)"><use xlink:href="#1"/><path d="m171.25 134.24l5.938-7.187"/><use xlink:href="#2"/></g><g transform="matrix(1.875 0 0 1.875-6.895 0)"><use xlink:href="#1"/><use xlink:href="#3"/><use xlink:href="#2"/></g><g transform="matrix(1.875 0 0 1.875 10.39 0)"><use xlink:href="#1"/><use xlink:href="#3"/><use xlink:href="#2"/></g><g transform="matrix(1.875 0 0 1.875 27.09 0)"><use xlink:href="#1"/><use xlink:href="#3"/><use xlink:href="#2"/></g></g><g fill-rule="evenodd"><g fill="#ef7d08"><path d="m218.69 259.6l36.913.293v-23.14l-42.19-2.049 5.274 24.901"/><path d="m216.93 227.67l39.26 3.809-.292-16.406-38.38-15.234-.587 27.832"/><path d="m224.84 194.86l30.18 14.648 4.309-4.499s-2.775-1.912-2.638-3.671c.052-1.78 2.792-2.049 2.844-3.981.05-1.779-3.103-1.993-3.137-3.774-.206-1.929 2.431-3.998 2.431-3.998l-27.25-23.73-6.739 29"/><path d="m422.88 259.89h-38.964l-.292-22.558 42.772-3.223-3.515 25.781"/><path d="m384.21 232.06l46.29-5.565-9.962-26.66-36.621 15.526.292 16.698"/><path d="m417.9 192.51l-33.398 17.578c-.488-1.905-.902-3.737-3.221-5.274 0 0 2.049-1.172 2.049-3.223 0-2.049-2.637-2.344-2.637-3.515s2.417-2.196 2.563-4.833c-.292-1.831-2.563-4.393-2.124-4.907l25.928-19.849 10.839 24.02"/><path d="m345.54 231.62l16.698-.732.292-6.74-16.99 7.472"/><path d="m294.57 231.11l-17.578-.512v-7.03l17.578 7.544"/><path d="m294.49 229.06l-17.505-9.01v-11.718s-2.051.292-1.758-2.051c.097-4.883 12.865 8.912 19.409 13.403l-.146 9.375"/><path d="m345.54 227.96l-.072-7.616s15.818-14.281 19.19-16.919c0 2.93-1.83 5.199-1.83 5.199v11.133l-17.286 8.202"/><path d="m243 163.8c.292.293 17.75 19.696 17.75 19.696.49-1.839 4.515-2.118 8.616-1.825 4.103.292 7.372-.275 7.372 2.655 0 2.929-2.081 2.513-2.081 4.564s3.119 1.879 3.119 4.513c0 2.637-2.261 2.099-2.273 4.14-.007 1.688 2.359 1.778 2.359 1.778l16.626 16.11.073-17.213-34.28-53.758-17.284 19.336"/><path d="m270.43 143.45c.26.782 23.22 47.48 23.22 47.48s.26-43.825 4.173-46.17l-6.521-12-20.869 10.696"/><path d="m371.38 145.27l-25.923 46.25.034-19.491s2.15-3.277-1.241-3.02c-3.39.26-7.564-.261-7.564-.261l10.434-36.521 24.26 13.04"/><path d="m397.99 165.1c-.261.522-17.488 18.04-17.488 18.04-.782-2.086-5.99-1.085-10.947-1.085-4.957 0-5.647 1.589-5.385 2.893.522 3.392 2.195.892 2.195 4.02 0 3.129-2.411 1.988-2.627 4.279.24 2.632 3.786 1.982 1.709 3.976l-19.948 19.15.056-18.15 37.04-57.652 15.392 24.521z"/></g><g stroke-width="2.5"><g fill="#f00" stroke="#000" stroke-linejoin="round"><path d="m309.82 268.4c-8.348 13.826-30.664 9.726-35.882.074-1.564-.443-.639-59.55-.639-59.55s-2.494-1.136-2.609-2.953c-.114-1.836 3.39-2 3.39-4.351 0-2.347-3.579-1.427-3.651-3.79.015-2.259 3.821-1.948 3.651-4.04-.201-2.353-4.262-2-4.435-4.174-.132-1.723 2.905-3.226 3.749-4-.546.027-2.821-.034-2.835-.042-2.131.043-4.262.087-6.392.131-4.541.005.078.99.012 3.61-.042 1.712-2.303 2.851-2.505 4.339-.072 1.528 3.236 2.601 3.277 4.435.038 1.636-3.249 1.748-3.131 3.268.204 2.573 2.912 3.139 2.871 4.697-.042 1.556-3.643 2.149-3.653 3.391.126 2.402.522 60.781.522 60.781 5.739 29.739 38.868 37.3 48.26-1.825z"/><path d="m331.66 268.4c8.348 13.826 30.663 9.726 35.881.074 1.564-.443.64-59.55.64-59.55s2.494-1.136 2.608-2.953c.114-1.836-3.171-2-3.171-4.351 0-2.347 3.361-1.427 3.431-3.79-.014-2.259-3.528-2.094-3.358-4.183.2-2.352 2.959-2.077 3.116-4.247.132-1.869-1.732-3.01-2.576-3.781.546.027 2.673-.034 2.689-.042 2.13.043 4.261.087 6.391.131 4.542.005-.078.99-.011 3.61.041 1.712 2.302 2.851 2.505 4.339.071 1.528-3.237 2.601-3.278 4.435-.037 1.636 3.25 1.748 3.131 3.268-.204 2.573-2.912 3.139-2.87 4.697.041 1.556 3.643 2.149 3.652 3.391-.125 2.402-.521 60.781-.521 60.781-5.74 29.739-38.868 37.3-48.26-1.825z"/></g><g fill="#083d9c" stroke="#083d9c"><path d="m301.71 295.59l37.28-.022c.29-.293-8.346-12.874-18.632-11.987-11.46.3-19.244 12.01-18.644 12.01z"/><path d="m420.57 294.68h-51.01s6.602-3.901 8.402-7.502c3.3 1.801 2.4 3.601 9 3.901 6.6.3 12.901-7.5 19.2-7.2 6.3.3 14.401 11.1 14.401 10.802z"/><path d="m219.57 294.68h51.01s-6.602-3.901-8.402-7.502c-3.3 1.801-2.4 3.601-9 3.901-6.599.3-12.901-7.5-19.2-7.2-6.3.3-14.401 11.1-14.401 10.802z"/><path d="m223.38 278.64l36.33.292s-2.344-4.979-2.636-11.131c-9.377-3.221-16.993 7.03-23.732 7.324-6.737.292-13.767-7.324-13.767-7.324l3.808 10.839z"/><path d="m417.32 278.64l-36.33.292s2.344-4.979 2.637-11.131c9.376-3.221 16.992 7.03 23.731 7.324 6.738.292 13.768-7.324 13.768-7.324l-3.808 10.839z"/><path d="m310.97 278.94l18.455-.584s.294-5.567-9.374-5.567c-9.668 0-8.788 6.445-9.08 6.151z"/><path d="m299.84 271.03c3.223-1.759 6.152-3.515 8.204-7.618l-12.598.292s-5.857 3.517-8.788 7.326h13.183z"/><path d="m340.56 271.03c-3.223-1.759-6.151-3.515-8.202-7.618l12.597.292s5.858 3.517 8.788 7.326h-13.183z"/></g></g><g fill="#de2010" stroke-width="1.25"><path d="m-40 360h720v120h-720z"/><path d="m-40 0h720v120h-720z"/></g></g></g></svg>