<svg xmlns="http://www.w3.org/2000/svg" viewBox="0 0 640 480"><defs><clipPath id="clipPath3278" clipPathUnits="userSpaceOnUse"><path fill-opacity=".67" d="m0,0h640v480h-640z"/></clipPath></defs><g clip-path="url(#clipPath3278)"><g fill="#fff"><path d="m0,0h640v480h-640z"/><path d="m80,0h480v480h-480z"/></g><g fill-rule="evenodd"><g stroke-width="2.5"><g fill="#083d9c" stroke="#083d9c"><path d="m277.28,340.75s10.839-8.7879 21.386-8.7879 13.477,7.3229 20.801,7.9084c7.3239,.5864 13.475-7.3239 22.558-7.6161 9.0821-.2922 20.508,6.4443 20.508,6.4443l-39.843,12.013-45.41-9.9616z"/><path d="m254.43,327.86 135.35,.5864s-11.718-12.597-25.488-12.89c-13.769-.2951-9.9597,5.859-20.507,6.7366-10.546,.8796-13.185-6.4444-22.852-6.1521-9.6665,.2922-15.234,6.1521-22.557,6.4463-7.3239,.2922-16.699-7.3258-22.266-7.0307-5.5667,.2922-25.488,8.7879-25.488,8.7879l3.8086,3.5154z"/><path d="m237.15,311.75 166.99,.5874c2.6358-3.8086-8.2035-12.891-18.163-13.77-8.2054,.2922-14.062,8.4957-20.801,8.7898-6.7385,.2922-14.355-8.4976-21.973-8.2025-7.6161,.2922-15.526,8.2025-23.144,8.2025-7.6161,0-13.183-8.4976-22.85-8.4976-9.6675,0-14.062,9.3753-21.386,8.7899-7.3258-.5864-13.77-9.3743-20.801-9.3743-7.0307,0-18.75,10.546-21.093,9.9597-2.3436-.5854 2.928,4.3949 3.2232,3.5154z"/></g><path fill="#f00" stroke="#000" stroke-linejoin="round" d="m301.3,218.88 38.38,10.255v-54.786c-17.579,.8796-32.226-33.397-1.1718-35.741-30.468-4.3949-33.985,3.5154-37.5,12.011l.2922,68.261z"/></g><path fill="#083d9c" stroke="#083d9c" stroke-linecap="round" stroke-width="5" d="m276.99,258.72 86.718,.2922"/></g><g fill="none" stroke="#000" stroke-linecap="round" stroke-width="2.133"><g transform="matrix(1.875 0 0 1.875 -40 -.00003)"><path d="m171.25,126.89 5.469,7.344"/><path d="m171.25,134.24 5.938-7.187"/><path d="m174.38,126.42-.156,4.531"/></g><g transform="matrix(1.875 0 0 1.875 -23.594 -.00003)"><path d="m171.25,126.89 5.469,7.344"/><path d="m171.25,134.24 5.938-7.187"/><path d="m174.38,126.42-.156,4.531"/></g><g transform="matrix(1.875 0 0 1.875 -6.8953 -.00003)"><path d="m171.25,126.89 5.469,7.344"/><path d="m171.25,134.24 5.938-7.187"/><path d="m174.38,126.42-.156,4.531"/></g><g transform="matrix(1.875 0 0 1.875 10.39 -.00003)"><path d="m171.25,126.89 5.469,7.344"/><path d="m171.25,134.24 5.938-7.187"/><path d="m174.38,126.42-.156,4.531"/></g><g transform="matrix(1.875 0 0 1.875 27.089 -.00003)"><path d="m171.25,126.89 5.469,7.344"/><path d="m171.25,134.24 5.938-7.187"/><path d="m174.38,126.42-.156,4.531"/></g></g><g fill-rule="evenodd"><g fill="#ef7d08"><path d="m218.69,259.6 36.913,.2932v-23.144l-42.187-2.0494 5.2745,24.901z"/><path d="m216.93,227.67 39.258,3.8086-.2922-16.406-38.379-15.234-.5873,27.832z"/><path d="m224.84,194.86 30.176,14.648 4.3088-4.4985s-2.7751-1.912-2.6377-3.6712c.0522-1.7795 2.7916-2.0494 2.8438-3.9808 .0503-1.7794-3.1032-1.9933-3.137-3.7737-.2061-1.9294 2.4306-3.9982 2.4306-3.9982l-27.245-23.73-6.7395,29.004z"/><path d="m422.88,259.89h-38.964l-.2922-22.558 42.772-3.2231-3.5154,25.781z"/><path d="m384.21,232.06 46.29-5.5648-9.9616-26.66-36.621,15.526 .2922,16.698z"/><path d="m417.9,192.51-33.398,17.578c-.4877-1.9052-.9018-3.737-3.2212-5.2745 0,0 2.0494-1.1718 2.0494-3.2231 0-2.0494-2.6368-2.3436-2.6368-3.5154s2.4171-2.1955 2.5632-4.8333c-.2922-1.8307-2.5632-4.393-2.1239-4.9068l25.928-19.849 10.839,24.024z"/><path d="m345.54,231.62 16.698-.7315 .2922-6.7404-16.99,7.472z"/><path d="m294.57,231.11-17.578-.5119v-7.0317l17.578,7.5436z"/><path d="m294.49,229.06-17.505-9.0095v-11.718s-2.0514,.2922-1.7582-2.0514c.0968-4.8826 12.865,8.9118 19.409,13.403l-.1461,9.3753z"/><path d="m345.54,227.96-.0716-7.6161s15.818-14.281 19.187-16.919c0,2.93-1.8298,5.199-1.8298,5.199v11.133l-17.286,8.2025z"/><path d="m243,163.8c.2922,.2932 17.75,19.696 17.75,19.696 .4896-1.8385 4.5149-2.1181 8.6157-1.8249 4.1027,.2922 7.3723-.2748 7.3723,2.6552 0,2.929-2.0814,2.5129-2.0814,4.5643s3.1186,1.8791 3.1186,4.513c0,2.6368-2.2613,2.0988-2.2729,4.1404-.007,1.6875 2.3591,1.7775 2.3591,1.7775l16.626,16.114 .0726-17.213-34.276-53.758-17.284,19.336z"/><path d="m270.43,143.45c.2603,.7818 23.216,47.477 23.216,47.477s.2603-43.825 4.1734-46.173l-6.5208-12-20.869,10.696z"/><path d="m371.38,145.27-25.923,46.245 .0338-19.491s2.15-3.2773-1.2415-3.0161c-3.3905,.2603-7.5639-.2613-7.5639-.2613l10.434-36.521 24.26,13.044z"/><path d="m397.99,165.1c-.2613,.5215-17.488,18.04-17.488,18.04-.7818-2.0862-5.9905-1.0847-10.947-1.0847-4.9571,0-5.647,1.5888-5.3848,2.8932 .5215,3.3915 2.1955,.8921 2.1955,4.0234 0,3.1293-2.4113,1.9875-2.6271,4.2788 .24,2.6319 3.7863,1.9817 1.7088,3.9759l-19.948,19.149 .0562-18.146 37.042-57.652 15.392,24.521z"/></g><g stroke-width="2.5"><g fill="#f00" stroke="#000" stroke-linejoin="round"><path d="m309.82,268.4c-8.3477,13.826-30.664,9.7255-35.882,.0735-1.5637-.4432-.6386-59.551-.6386-59.551s-2.4936-1.136-2.6087-2.9532c-.1142-1.8356 3.3905-2.002 3.3905-4.3514 0-2.3474-3.5792-1.4272-3.6508-3.7902 .0155-2.2594 3.8211-1.9478 3.6508-4.0359-.2013-2.3532-4.2624-2.0049-4.4346-4.1743-.1316-1.7233 2.9048-3.226 3.7486-4.0011-.5457,.0271-2.8206-.0338-2.8351-.0416-2.1307,.0435-4.2624,.0871-6.3921,.1306-4.541,.005 .0784,.9899 .0116,3.6102-.0416,1.7117-2.3029,2.8506-2.5052,4.3388-.0716,1.5279 3.2357,2.601 3.2773,4.4346 .0378,1.6362-3.2493,1.7475-3.1312,3.2676 .2042,2.5729 2.9116,3.139 2.8709,4.6968-.0416,1.5559-3.6431,2.1491-3.6528,3.3906 .1258,2.4016 .5215,60.781 .5215,60.781 5.739,29.739 38.868,37.304 48.26-1.8249z"/><path d="m331.66,268.4c8.3477,13.826 30.663,9.7255 35.881,.0735 1.5637-.4432 .6396-59.551 .6396-59.551s2.4936-1.136 2.6077-2.9532c.1142-1.8356-3.1709-2.002-3.1709-4.3514 0-2.3474 3.3605-1.4272 3.4312-3.7902-.0145-2.2594-3.5279-2.0939-3.3576-4.183 .2003-2.3523 2.959-2.0775 3.1157-4.2469 .1316-1.8685-1.732-3.0064-2.5758-3.7815 .5457,.0271 2.6735-.0338 2.689-.0416 2.1297,.0435 4.2614,.0871 6.3911,.1306 4.542,.005-.0784,.9899-.0107,3.6102 .0406,1.7117 2.302,2.8506 2.5052,4.3388 .0707,1.5279-3.2367,2.601-3.2783,4.4346-.0367,1.6362 3.2502,1.7475 3.1312,3.2676-.2042,2.5729-2.9116,3.139-2.87,4.6968 .0406,1.5559 3.6431,2.1491 3.6518,3.3906-.1248,2.4016-.5206,60.781-.5206,60.781-5.7399,29.739-38.868,37.304-48.26-1.8249z"/></g><g fill="#083d9c" stroke="#083d9c"><path d="m301.71,295.59 37.277-.0222c.2903-.2932-8.3457-12.874-18.632-11.987-11.46,.3-19.244,12.009-18.644,12.009z"/><path d="m420.57,294.68h-51.008s6.6021-3.9014 8.4018-7.502c3.2996,1.8007 2.3997,3.6005 9.0018,3.9005 6.6001,.3 12.901-7.5 19.203-7.2001 6.3002,.3 14.401,11.102 14.401,10.802z"/><path d="m219.57,294.68h51.008s-6.6021-3.9014-8.4018-7.502c-3.2996,1.8007-2.3997,3.6005-9.0018,3.9005-6.5992,.3-12.901-7.5-19.203-7.2001-6.3002,.3-14.401,11.102-14.401,10.802z"/><path d="m223.38,278.64 36.327,.2922s-2.3436-4.9794-2.6358-11.131c-9.3772-3.2212-16.993,7.0307-23.732,7.3239-6.7366,.2922-13.767-7.3239-13.767-7.3239l3.8076,10.839z"/><path d="m417.32,278.64-36.328,.2922s2.3445-4.9794 2.6368-11.131c9.3762-3.2212 16.992,7.0307 23.731,7.3239 6.7375,.2922 13.768-7.3239 13.768-7.3239l-3.8076,10.839z"/><path d="m310.97,278.94 18.455-.5844s.2942-5.5667-9.3743-5.5667c-9.6675,0-8.7879,6.4453-9.0811,6.1512z"/><path d="m299.84,271.03c3.2231-1.7591 6.1521-3.5154 8.2035-7.6181l-12.598,.2922s-5.857,3.5173-8.7879,7.3258h13.183z"/><path d="m340.56,271.03c-3.2231-1.7591-6.1512-3.5154-8.2025-7.6181l12.597,.2922s5.858,3.5173 8.7879,7.3258h-13.183z"/></g></g><g fill="#de2010" stroke-width="1.25"><path d="m-40,360h720v120h-720z"/><path d="m-40,0h720v120h-720z"/></g></g></g></svg>