<svg xmlns="http://www.w3.org/2000/svg" viewBox="0 0 640 480"><defs><clipPath id="0"><path d="m0 0h640v480h-640z"/></clipPath></defs><g clip-path="url(#0)"><g fill-rule="evenodd" transform="translate(39.999)"><g stroke-width="1.25"><path fill="#f50013" d="m-39.999 0h720v480h-720z"/><path fill="#00189a" d="m-39.999 0h720v240h-720z"/><path fill="#feffff" d="m-39.999 0l413.15 239.69-413.15 239.39v-479.08"/></g><g fill="#eca300"><path stroke-width=".113" d="m-20.421 437.1l4.211-18.49-16.605-9.175 19.301-2.41 4.391-18.458 7.718 17 19.317-2.233-14.532 12.917 7.549 17.08-16.698-9.02-14.653 12.787z"/><g stroke-width="1.25"><path d="m67.45 198.5l-14.826-25.459-8.526-.966 20.301 28.83 3.052-2.405m-11.508 11.665l-31.17-23.986-1.117-13.964 12.606-.426 25.771 31.518-6.087 6.858m-4.734 5.485l-25.656-14.482-1.081-8.512 29.1 19.91-2.364 3.084"/><path d="m104.14 193.27l7.738-28.427-5.294-6.753-6.299 34.693 3.855.487m-16.386-.016l-4.78-39.04 9.167-10.593 9.148 8.684-4.377 40.477-9.157.474m-7.23.476l-7.682-28.442 5.308-6.742 6.23 34.705-3.856.479"/><path d="m133.87 216.19l25.839-14.15 1.189-8.498-29.352 19.538 2.324 3.114m-11.359-11.811l24.795-30.533 13.989-.75.095 12.613-32.18 24.935-6.695-6.265m-5.359-4.876l15.15-25.27 8.538-.857-20.667 28.568-3.02-2.444"/><path d="m138.47 251.81l28.423 7.753 6.756-5.291-34.69-6.317-.489 3.855m.025-16.386l39.04-4.76 10.588 9.172-8.689 9.144-40.475-4.399-.469-9.158m-.471-7.23l28.446-7.667 6.739 5.311-34.709 6.212-.477-3.856"/><path d="m116.83 280.78l14.939 25.393 8.53.928-20.428-28.74-3.041 2.419m11.457-11.715l31.28 23.848 1.178 13.959-12.604.482-25.91-31.404 6.06-6.884m4.709-5.506l25.72 14.368 1.118 8.508-29.19-19.782 2.35-3.094"/><path d="m80.27 286.2l-7.543 28.479 5.34 6.716 6.06-34.735-3.858-.46m16.386-.096l5.05 39.01-9.09 10.656-9.208-8.621 4.099-40.506 9.154-.537m7.226-.525l7.877 28.389-5.261 6.779-6.469-34.662 3.853-.506"/><path d="m50.609 263.87l-25.608 14.567-1.052 8.516 29.03-20.01-2.374-3.076m11.547 11.626l-24.301 30.928-13.975.975-.298-12.61 31.779-25.449 6.795 6.157m5.436 4.789l-14.742 25.508-8.523.994 20.2-28.897 3.059 2.395"/><path d="m45.543 227.9l-28.477-7.551-6.718 5.338 34.734 6.071.461-3.858m.091 16.386l-39.01 5.04-10.653-9.1 8.623-9.205 40.505 4.111.534 9.154m.522 7.226l-28.391 7.868-6.777-5.263 34.664-6.458.504 3.853"/></g><g stroke-width=".113"><path d="m301.72 264.76l-10.991-15.454-17.902 6.279 11.05-16-10.847-15.566 17.824 5.564 11.197-15.899-.039 19.443 17.768 5.74-17.847 6.452-.217 19.446"/><path d="m-9.852 92.12l-3.408-18.655-18.876-1.897 16.794-9.814-3.231-18.696 13.788 12.592 16.879-9.658-8.273 17.595 13.662 12.727-18.9-1.718-8.435 17.524"/></g><ellipse cx="190.68" cy="353.88" rx="73.03" ry="73.03" stroke-width="1.25" transform="matrix(.67733 0 0 .67733-37.11 0)"/></g></g></g></svg>