<svg width="640" xmlns="http://www.w3.org/2000/svg" height="480" viewBox="-15 -7.5 30 15"><defs><clipPath id="0"><path d="m-15-7.5h30v15h-30z"/></clipPath></defs><path fill="#00247d" d="m-15-11.25h30v22.5h-30z"/><g transform="translate(0-3.75)"><g clip-path="url(#0)"><circle fill="#00247d" r="20"/><path stroke="#fff" stroke-width="3" d="m-20-10l40 20m-40 0l40-20"/><path stroke="#cf142b" stroke-width="2" d="m-20-10l40 20m-40 0l40-20"/><path fill="#fff" d="m0,0 20,10h-3l-20-10m3,0 20-10h3l-20,10m-3,0-20,10h-3l20-10m3,0-20-10h3l20,10"/><path stroke="#fff" stroke-width="5" d="m-20 0h40m-20-10v20"/><path stroke="#cf142b" stroke-width="3" d="m-20 0h40m-20-10v20"/></g></g><g transform="matrix(.15883 0 0 .15883-27.21-8.973)"><g stroke="#000" stroke-width=".186"><g fill="#f7e017"><path d="m197.84 77.27c-2.706 2.296-5.284 5.64-5.917 8.663-1.782 8.513-4.149 10.406-7.805 8.578 0 4.57 4.01 4.922 5.766 2.25 0 4.289 1.555 8.01 5.062 11.179 1.477 1.336 1.758.422 1.055-1.054-.703-1.477-.703-6.258-2.109-9 2.25 1.617 5.554.703 5.273-3.727-2.883 1.688-5.748 1.621-6.05-2.391-.351-4.711 1.487-11.546 4.722-14.499z"/><path d="m194.42 43.4c.191-1.689-.17-3.424-1.404-4.511-2.384-2.099-4.72-1.404-6.458.287-2.602-1.406-3.984 3.581-6.937 2.737.492 1.617 1.266 2.32 2.742 1.758-1.547 1.406 0 3.094-1.828 4.781 3.305 1.055 5.063-.773 4.922-3.938 1.266 1.125 3.234 1.055 4.289-.211-1.758-.563-1.766-2.093-1.055-3.516 1.055-2.109 6.01-2.028 5.729 2.613z"/></g><path fill="#337321" d="m202.05 67.858c-3.727 1.969-10.547 1.125-11.18-3.727-.633-4.852 4.078-7.03 5.344-7.664 1.973-.987 3.515.773 2.883 2.813 2.179-.773 2.672-3.305 1.617-4.781 2.883.211 5.555-1.969 6.68-5.063-1.01.963-3.768.312-6.04.166.703-.773.694-2.275.483-3.048-2.391 2.461-5.836 1.336-10.406 8.438.703-2.461 2.039-7.383 2.812-10.617.077-.323.137-.642.174-.973.281-4.641-4.668-4.724-5.723-2.614 1.156 1.305.549 2.827.135 5.134-.492 2.742-1.547 9.07-2.461 11.18-.281-3.305-2.461-3.516-2.883-5.133-.633.422-.984 1.547-.843 2.32-.774-.844-3.446.211-4.43-1.055-1.055 2.109.633 4.219 2.39 5.133-1.019.07-1.265 1.301-2.39 1.301 1.512 1.758 3.058 2.461 4.851 2.602s3.129.808 4.219 2.988c1.758 3.516 8.455 5.801 14.766 2.602z"/><path fill="#f7e017" d="m211.33 63.57c-2.109 5.836-7.875 9.984-10.477 10.617-4.427 1.077-13.457 5.46-15.881 7.716-.383-.085-.738-.224-.994-.404-1.195-.844-2.179-3.586-.07-5.906 6.61-6.188 13.711-3.516 18.14-7.734-3.727 1.969-10.547 1.125-11.18-3.727 4.01 1.055 11.25 1.125 17.02-5.063.773.844 3.02 3.516 3.445 4.5z"/><path fill="#337321" d="m197.84 77.27c-3.34 2.834-5.073 9.788-4.722 14.499.098 1.311.466 2.199 1.023 2.744.246-2.672 2.104-9.576 6.852-12.658 4.01-2.602 10.266-8.438 12.586-15.12-.422-1.195-1.125-2.039-2.461-2.883-2.296 6.304-8.462 9.328-13.278 13.415z"/><path fill="#316d3a" d="m209.19 60.862c-1.196 1.793-3.903 4.254-6.504 5.238.562-.633.738-1.442.773-2.109-3.305 1.266-9.914 1.125-12.586.141 4.01 1.055 11.25 1.125 17.02-5.063.562.633 1.054 1.195 1.301 1.793z"/><path fill="#337321" d="m183.91 75.59c-5.374 5.03-1.828 9.422.281 10.406-.562 3.516 2.743 3.094 2.672 6.05 1.336-.773 1.688-2.813 1.477-4.43 1.687 1.828 5.976-.211 6.89 3.164.563-3.727-2.32-7.453-5.906-7.102 1.477-1.336.633-3.516-.773-4.078-.281 2.742-3.375 2.742-4.571 1.898-1.195-.844-2.179-3.586-.07-5.906z"/><g fill="#f7e017"><path d="m195.55 107.58c-.587.335-.544 1.091-.176 1.582.738.984-.52 3.215 1.863 3.691.704.141 1.245-.289 1.512-1.09.738-2.215-1.617-2.461-1.828-3.515-.211-1.055-.879-.95-1.371-.668z"/><path d="m197.55 111.73c-.789.364-1.477.879-1.16 3.41.13 1.047.07 3.586-.844 3.621.562.282 1.758.58 2.25-.07.474.791 1.547.563 1.969-.422.562.457 1.336-.316 1.336-.984.492.316 1.476-.141 1.23-1.652.598.21 1.371-.211 1.652-.598-.879-.176-3.093-1.371-3.621-2.32-.527-.95-1.898-1.407-2.812-.985z"/></g><g fill="none"><path d="m185.37 40.621c.354-.525.75-1.018 1.189-1.445"/><path d="m198.75 49.928c.621-.355 1.564-.394 2.611-.327"/><path d="m197.8 118.69c-.246-.351-.334-1.828-.158-2.725"/><path d="m199.77 118.27c-.387-.299-1.125-1.318-1.248-2.215"/><path d="m201.1 117.29c-.493-.229-1.688-1.776-1.952-2.777"/><path d="m202.33 115.64c-.58-.124-2.355-1.284-3.094-2.514"/></g><path fill="#f7e017" d="m234.75 75.66c8.649 7.242 9.211 13.01 7.875 16.383-.703-3.164-4.289-8.09-8.02-9.352l.141-7.03z"/><path fill="#337321" d="m219.28 71.58h16.03v18.984c0 16.17-9 25.734-18.14 30.797-9.141-5.063-18.14-14.625-18.14-30.797v-18.984h11.25c.018.984.106 2.461 1.266 3.938 2.654-.264 5.66-2.25 7.734-3.938z"/><path fill="#006ec7" d="m235.31 71.58v18.984c0 4.882-.821 9.162-2.217 12.897l-15.92-29.21-15.92 29.21c-1.397-3.735-2.217-8.01-2.217-12.897v-18.984h36.28z"/></g><path fill="#f7e017" d="m233.58 102.06c-.281.861-.791 2.259-1.186 3.12l-15.22-28.28-15.22 28.28c-.395-.861-.905-2.259-1.186-3.12l16.41-30.421 16.41 30.421z"/><g stroke="#000" stroke-width=".186"><g fill="#f7e017"><path d="m224.41 112.47c.422.211 1.199.601 1.551.742.844-1.688.984-4.078.703-6.188-.914 2.321-4.01 2.25-4.851 3.656.519.26 1 .6 1.415.9-1.055 1.054-3.525 2.827-4.931 3.249v-15.08c0-1.055-.352-1.934-.352-2.813v-3.118c0-.703-.14-1.723-.773-1.723s-.773 1.019-.773 1.723v3.118c0 .879-.352 1.898-.352 2.813v15.08c-.773-2.25-3.802-1.48-5.208-3.73.55-.134 1.129-.175 1.692-.067-1.054-3.586-3.937-3.867-4.5-4.922 0 1.477-.632 4.922.352 6.399.221-.265.553-.537.952-.781 1.195 2.602 6.571 2.609 7.837 6.898 1.016-1.575 4.676-3.405 7.238-6.156z"/><path d="m217.17 99.92c1.195 0 4.992-.389 6.363-.389.357 0 .647-.534.647-1.193s-.29-1.193-.647-1.193c-1.371 0-5.168-.389-6.363-.389s-4.992.389-6.363.389c-.357 0-.647.534-.647 1.193s.29 1.193.647 1.193c1.371 0 5.168.389 6.363.389z"/><path d="m216.4 93.74c-.254-.204-.587-.328-.952-.328-.797 0-1.442.589-1.442 1.316 0 .727.645 1.316 1.442 1.316.796 0 1.441-.589 1.441-1.316 0-.563.818-.563.818 0 0 1.139-1.01 2.063-2.259 2.063s-2.26-.924-2.26-2.063c0-1.139 1.012-2.063 2.26-2.063.374 0 .727.083 1.038.23-.028.189-.086.541-.086.844z"/><path d="m210.81 99.53c.357 0 .646-.534.646-1.193s-.289-1.193-.646-1.193"/><path d="m211.34 99.53c.357 0 .646-.534.646-1.193s-.289-1.193-.646-1.193"/><path d="m214.81 99.78c.43 0 .779-.644.779-1.438 0-.794-.349-1.438-.779-1.438"/><path d="m215.62 99.84c.45 0 .815-.673.815-1.504 0-.831-.365-1.504-.815-1.504"/><path d="m218.32 99.86c.455 0 .824-.681.824-1.521 0-.84-.369-1.521-.824-1.521"/><path d="m219.17 99.81c.45 0 .814-.659.814-1.472 0-.813-.364-1.472-.814-1.472"/><path d="m222.94 99.56c.364 0 .66-.545.66-1.217s-.296-1.217-.66-1.217"/><path d="m209.33 111.73c.435-.266.953-.495 1.504-.629"/><path d="m223.64 111.87c-.129-.092-.267-.19-.413-.296"/><path d="m224.41 112.47c.985-1.057 1.805-2.252 2.254-3.618"/></g><path fill="#fff" d="m213.95 85.01c0-.343.282-.49.61-.738.396-.299.554-.439.914-.439h4.615c.342 0 .421.088.421.404v6.275c0 .316-.079.404-.421.404h-6.139v-5.968"/><path fill="#e5e5e5" d="m218.95 91.46c.606 0 .497-.013.923-.439.444-.444.402-.404.402-.813v-5.738c0-.296-.073-.378-.391-.378h-4.27c-.334 0-.48.132-.846.411-.304.232-.561.37-.561.691v6.267h4.743z"/><path fill="#fff" d="m219.4 91.33c0 .316-.079.404-.422.404h-4.614c-.343 0-.417-.088-.417-.404v-6.275c0-.316.074-.404.417-.404h4.614c.343 0 .422.088.422.404v6.275z"/></g><path fill="#96877d" stroke="#000" stroke-width=".186" d="m228.35 67.908c.899 1 1.195 2.353.705 3.671h-1.336c.562-1.688.211-3.299-2.18-3.509-3.575-.316-7.734 6.609-13.992 7.453-1.828-2.18-1.73-6.332.59-8.3-1.199-3.458-3.733-7.261-5.486-8.907-1.148-.187-2.474-.28-3.331-.23.914-1.969 3.519-4.04 5.629-4.885.341-.499.708-.979 1.051-1.408.211-2.707 13.08-1.441 15.82.246 0 3.02 1.194 13.13 2.53 15.87z"/><path d="m212.75 69.75c-.306-4.687-2.2-8.547-4.863-11.176 1.265.352 3.867.352 5.625-.914 2.32-1.547 8.367-4.254 10.582-3.094.176.387.281 1.266.14 1.828-.527-1.406-6.363.773-8.01 1.441-1.582.738-2.285 1.723-1.723 3.938-.914-.773-.598-1.512-1.547-2.074.387.914.703 2.566.809 3.902-.352-.949-.985-2.988-2.356-4.184 1.196 2.32 2.233 7.892 1.741 10.846.949 0 3.041-.932 3.884-1.6-.738 1.055-2.865 1.793-4.236 2.074-.615.738-1.037 2.637-1 3.691-.105-1.301.305-4.471.961-4.679"/><path d="m228.35 67.908c-1.164-1.296-3.336-1.997-6.116-1.245.422-.211 1.336-.563 2.145-.703-.105-.738-.773-3.902-.879-4.676l.774-.316c.386 1.898.878 4.078 1.195 4.957.246.07.808.176 1.301.422-.211-.738-1.407-6.05-1.371-6.609l1.054-.563c.422 2.883 1.09 7.07 1.897 8.733"/><g stroke="#000" stroke-width=".186"><g fill="#96877d"><path d="m227.72 71.58c.562-1.688.211-3.299-2.18-3.509-1.853-.164-3.863 1.637-6.242 3.509h8.422z"/><path d="m212.18 56.43c-1.055.141-3.41-.07-4.606-.457.069-.317.192-.646.35-.994-.739.492-2.143 1.451-2.67 2.119 1.688.352 5.171.527 6.926-.668z"/></g><g fill="none"><path d="m212.14 67.22c.388 1.121.641 2.204.676 3.168"/><path d="m208.95 53.2c-.638.931-1.192 1.928-1.375 2.775 1.196.387 3.551.598 4.606.457"/><path d="m206.65 58.31c.455.074.881.163 1.24.262 1.265.352 3.867.352 5.625-.914s6.539-5.203 11.953-5.625"/><path d="m205.25 57.1c1.688.352 5.171.527 6.926-.668 4.078-2.777 8.01-4.395 11.953-4.605"/></g><g fill="#337321"><path d="m234.75 75.66c5.906 4.078 10.266 8.02 11.531 14.344 1.266 6.328 3.657 8.02 6.61 6.328-.703 3.656-4.36 4.078-7.453 1.266.281 4.219-1.407 9.282-5.766 11.11-.281-2.532 1.392-4.536.914-6.61-.211-.914-.281-3.02.914-4.01-2.32.773-5.976-.703-6.328-4.148 2.672 1.266 6.117 1.477 7.453-1.898s.774-9.141-7.875-16.383z"/><path d="m242.2 42.757c1.828-4.781 6.61-4.289 8.227-2.25 4.711-2.672 5.344 3.375 9.351 2.18-.07 1.125-1.406 2.18-2.882 2.109 1.546 1.406-.633 3.516 2.671 4.781-2.812 1.406-6.75-.07-7.804-3.938-.914 1.828-4.219 1.828-5.555.352 2.883-.773 2.672-3.445 1.055-4.5-1.629-1.062-4.5-.633-5.063 1.266z"/><path d="m227.94 53.29c1.312 4.232 4.03 8.165 6.951 10.846 3.375 3.094 8.472 2.32 11.32-.633.07 5.889-6.03 6.346-9.422 4.5-1.495-.813-2.705-.386-1.265.914 2.179 1.969 6.948 3.433 12.585 4.641 9.844 2.109 6.329 9.914 3.446 9.844.826-.018 1.504-.883.316-1.951-8.543-7.682-25.91-4.658-25.629-21.814-1.828 4.5-9.351 2.742-5.836-2.602 1.125.914 3.094.984 3.657-.422.437-1.094.151-2.997-1.819-4.633.324-.026 1.019 0 .948-.808.088.474.519 1.178 1.626.94.317.501.649.83 1.099.65.088-.035.352-.167.246-.668.088.932 1.195 1.266 1.777 1.195z"/></g><g fill="#f7e017"><path d="m236.79 67.999c4.078 2.672 8.689 2.67 12.938-2.25 1.336-1.547 3.445-2.883 4.922-3.02 1.476-.141 1.406-1.547 2.531-1.828-.703-.211-.985-1.055-2.039-.949 2.636-.914 1.863-3.02 3.164-4.04-1.055.387-2.707-1.195-4.219.809.387-.914-.141-2-.527-2.426.14 1.055-2.075 1.266-2.496 3.938-.237 1.499-1.055 1.406-1.196-.914-.103-1.697-.914-6.398-1.898-8.789-.985-2.391-1.21-5.672.126-6.165-.201-.34-.483-.64-.829-.867-1.629-1.062-4.5-.633-5.063 1.266-1.828 4.781 3.305 7.523 2.883 12.726-.773-3.867-7.03-4.852-6.961-8.648-2.039.914-1.758 2.602-.984 3.938-1.266-1.969-4.149 1.266-6.61-1.406-.281 3.516 2.813 4.852 5.344 4.992-1.266 2.25.422 4.148 2.109 4.781.071-3.938 8.145-2.321 8.227 4.43.07 5.766-6.117 6.258-9.422 4.43z"/><path d="m248.11 73.55c9.844 2.109 6.329 9.914 3.446 9.844-1.836-.045-3.586-1.582-3.692-2.918-2.109 1.125-1.546 3.34.071 4.219-4.43-.527-6.293 2.391-6.399 5.59.809-1.477 3.27-1.582 4.184-1.266.914.316 3.269.492 4.219-.563-.774.668.492 2.215-.598 3.41 3.691-.141 5.309-3.586 4.676-5.098 4.781-4.359 3.867-11.461-5.907-13.219z"/><path d="m240.61 106.96c.641.4.56 1.241.127 1.773-.867 1.067.44 3.612-2.241 4.04-.791.126-1.377-.378-1.64-1.283-.727-2.504 1.913-2.676 2.194-3.844.282-1.168 1.023-1.022 1.56-.686z"/><path d="m238.2 111.5c.865.441 1.61 1.045 1.147 3.857-.192 1.163-.235 3.999.784 4.079-.641.289-1.988.57-2.509-.177-.564.862-1.751.561-2.179-.557-.648.486-1.477-.411-1.448-1.157-.563.332-1.642-.221-1.302-1.898-.676.21-1.521-.295-1.818-.739.989-.158 3.513-1.395 4.143-2.432.63-1.036 2.18-1.487 3.182-.976z"/></g><g fill="none"><path d="m237.62 119.26c.29-.382.453-2.026.296-3.034"/><path d="m235.44 118.71c.445-.316 1.313-1.422 1.49-2.417"/><path d="m233.99 117.55c.559-.233 1.961-1.908 2.299-3.02"/><path d="m232.69 115.65c.653-.112 2.685-1.329 3.563-2.67"/></g><g fill="#f7e017"><path d="m226.24 59.63c-.118 7.207 2.878 10.853 7.03 13.227-1.542-.923-.874-4.087-2.949-5.106.493-.035 1.266.668 2.497.387-.598-1.336-1.583-3.375-3.868-3.656.598-.07 1.899.141 2.743-.176-1.196-1.828-4.36-.949-5.45-4.676z"/><path d="m225.49 52.778c-.253-.083-.468-.338-.678-.67-1.107.237-1.538-.466-1.626-.94.071.809-.628.778-.953.804 1.979 1.637 2.262 3.541 1.824 4.637-.563 1.406-2.532 1.336-3.657.422-.14 2.988 3.727 3.973 5.133.211 0 .633.809.563 1.02 1.406 1-1.617.246-3.937-1.063-5.869z"/></g><path fill="#337321" d="m219.32 38.503c-1.758-1.617-2.567-4.324-2.497-5.871.071-1.547.704-3.234 2.954-2.531-.704 0-.211 1.406-.95 1.547.598.211 1.407-.281 1.512-.598.141.492 1.055.352 1.125.914.352-.281-.035-1.652-.562-1.934.386-.211.597-1.301.421-1.828-.351.07-.878.563-.984 1.266.176-.563-.035-1.969-1.019-2.18-.282.387-.352 1.336.035 1.863-.914-.211-2.25.387-2.567 1.16.071-.932.199-2.258.774-3.094.193-.281-.282-.773-.651-.105-.685-1.336-2.513-2.039-3.322-1.371s-1.898-.316-2.566.738c-.668 1.055-2.931 1.166-2.813 2.285.07.668-.091 1.7-.422 2.074-.808.914.387 1.582.598 2.391-.141-2.672 4.113-7.875 8.367-5.836-.387.668-.725 2-.844 3.621-.175 2.391.176 5.766 2.496 7.734l.915-.246z"/><path fill="#cf142b" d="m220.58 30.14c-.023-.633 1.072-1.456 2.549-1.441 1.775.017 3.146 1.635 4.57 1.477s.721.633.422.844c-.299.211-.474.527-.369.914s-.077.64-.65.281c-1.266-.791-2.532.316-4.202-.299-1.448-.534-2.285-.826-2.32-1.775z"/><path fill="#96877d" d="m213.34 46.729c-.703-2.215-3.375-4.641-4.676-5.203l-.07-1.195c.703-.281 2.39-1.617 3.164-2.355 5.273 2.531 12.445-1.055 15.75-4.781l1.266.773-.633.844-.668-.352c-.809.984-3.828 3.825-4.742 4.423 1.229.311 2.909.525 3.371.499 2.953-2.109 5.273-4.01 6.398-4.148l.949 1.266-.843.598-.668-.387c-3.164 2.602-6.75 8.297-8.157 12.09-1.968-.422-9-.141-10.441-2.074z"/><g fill="none"><path d="m222.73 38.882c-.455-.115-.847-.247-1.094-.38-.563.527-1.969.984-3.762 1.055"/><path d="m213.62 45.956c-.474-2.619.281-5.52 1.617-6.398 2.918 1.934 7.911 1.934 10.864-.176"/><path d="m213.62 44.585c2.25-.07 7.137.316 8.332.492 1.196.176 3.199.668 2.918 1.266"/><path d="m214.66 44.21l.647-.646-.647-.646-.646.646.646.646z"/></g><path fill="#337321" d="m216.19 31.12c-.809-1.125-3.037-1.481-3.516.035-.211.668-.527 1.371-1.055 1.688-.527.316-.403 1.275-.175 1.688.562 1.02.07 2 1.16 2.672 0-.809 1.195-1.652 2.215-1.863 1.019-.211 2.566-1.125 2.777-2.145.211-1.02.562-1.863-1.406-2.074z"/><g fill="#96877d"><path d="m211.12 41.24h.281l.005 1.923c.057.02.121.047.167.089l1.657-.956.141.244-1.663.965c.011.06.02.129.007.19l1.656.957-.141.244-1.667-.958c-.046.04-.101.081-.161.101v1.913h-.281l-.004-1.923c-.058-.02-.122-.047-.168-.089l-1.657.956-.14-.244 1.662-.965c-.011-.06-.02-.128-.007-.189l-1.655-.957.14-.244 1.668.958c.046-.04.101-.081.16-.101v-1.913z"/><path d="m213.63 45.947c-.604.608-1.44.984-2.364.984-1.84 0-3.332-1.491-3.332-3.331 0-1.84 1.492-3.331 3.332-3.331 1.081 0 2.041.515 2.65 1.313-.172.419-.371 1.36-.386 1.786-.116-1.148-1.086-2.044-2.264-2.044-1.258 0-2.277 1.019-2.277 2.276 0 1.257 1.019 2.276 2.277 2.276 1.052 0 1.962-.736 2.223-1.705 0 .417.009 1.424.141 1.775z"/></g><path fill="#337321" d="m209.86 49.12c-.21-.246-.597-.914-.562-1.406.316-.035.914.176 1.195.457-.035-.352-.175-1.125-.105-1.477.387.141 1.195.598 1.476 1.125-.07-.352-.211-1.266-.07-1.828.422.246 1.125.914 1.266 1.371.035-.703.281-1.863.492-2.145.316.316.808.598 1.125 1.02.07-.563.351-1.23.773-1.406.317.352.809 1.16.914 2.074.317-.105.739-.633.914-.914.176.281.352.773.247 1.371.386-.352.843-.844.949-1.266.281.211.808.738.949 1.301-.07-.457-.035-1.266-.176-1.723.528.281.949.773 1.055 1.301.141-.492.457-1.371.738-1.582.281.563.563 1.23.528 1.793.175-.352.457-.984.738-1.125.246.387.211 1.23.14 1.688.247-.352.704-.773.985-.914.035.211.07.633 0 .949.316-.176.844-1.125 1.019-1.617.493.246.985 1.09 1.02 1.512.351-.141 1.055-.773 1.265-1.125 0 .246.106.914-.035 1.441.211-.211.422-.633.528-.809.14.352.035 1.195-.106 1.652.317-.281.774-.457 1.055-.457.035.598-.387 1.652-.774 2.426-3.375-.949-10.441-1.301-17.543-1.688z"/></g><path fill="#f7e017" d="m221.63 30.495c-.017-.259.562-.846 1.597-.84 1.242.007 2.389.919 3.386.854s.505.259.296.345c-.21.086-.333.216-.259.374s-.054.262-.455.115c-.886-.324-1.772.129-2.941-.122-1.014-.218-1.6-.338-1.624-.726"/><g stroke="#000" stroke-width=".186"><g fill="#f7e017"><path d="m210.95 51.23c-1.054 1.266-2.109 1.055-2.32.246-.211-.809.563-1.195.281-1.898-.281-.703.457-1.02.809-.703.351.316 1.476-.703 1.969.352.492 1.055.879 1.793.597 2.215-.281.422-1.125.211-1.336-.211z"/><path d="m215.48 49.33c-.198-.463.897-1.353 1.459-.721.563.633 1.442-.685 1.934.316.492 1 .65 1.529.897 2.092.246.563-1.336.861-1.829.369.071.334-1.366.596-1.757-.352-.211-.51-.44-1.09-.704-1.705z"/><path d="m222.8 49.911c-.264-.492 1.02-1.195 1.687-.299.176-.369 1.442-.44 1.53.633.088 1.072.123 1.705.158 2.127s-.773.809-1.354-.264c-1.037.211-1.511-.369-1.634-.984s-.246-.914-.387-1.213z"/></g><g fill="#337321"><path d="m211.63 49.21c-.158-.352.896-1.055 1.617-.527.721.527 1.719-.455 2.145.492.861 1.916.914 2.057.65 2.426-.264.369-1.389.228-1.67-.281-.053.352-1.023.294-1.529.018-.58-.316-.985-1.494-1.213-2.127z"/><path d="m219.03 49.3c-.246-.545 1.407-1.02 2.127-.07.369-.334 1.178-.352 1.635.685.457 1.037.527 1.617.193 1.881-.235.185-1.09.334-1.371-.141-.387.246-1.582.035-1.845-.633-.264-.668-.493-1.248-.739-1.723z"/><path d="m226.03 50.33c-.035-.492.862-.721 1.196 0s1.402.072 1.494 1.266c.017.228-.123 1.107-.457 1.529s-1.969 0-2.074-.896c-.106-.897-.141-1.406-.159-1.898z"/></g><g fill="none"><path d="m210.95 51.23c-.386-.527-.914-1.371-1.582-.457"/><path d="m214.38 51.32c-.228-.299-.527-.791-.633-1.178"/><path d="m217.94 51.39c-.246-.176-.615-.527-.808-.897"/><path d="m217.63 49.542c.615.07 1.037.65 1.23.914.194.264.598.738.915.791"/><path d="m221.62 51.651c-.211-.334-.422-.633-.474-.879"/><path d="m221.16 49.23c.211.299.369.545.492.826"/><path d="m224.82 52.11c-.281-.527-.72-1.037-1.089-1.213"/><path d="m224.68 50.17c.035 1.037 1.424 1.107 1.476 1.846"/><path d="m227.22 50.33c.14.264.193.527.211.967"/></g></g></g></svg>