<svg width="640" xmlns="http://www.w3.org/2000/svg" height="480" viewBox="-15 -7.5 30 15"><defs><clipPath id="border"><path d="m-15-7.5h30v15h-30z"/></clipPath></defs><path fill="#00247d" d="m-15-11.25h30v22.5h-30z"/><g transform="translate(0 -3.75)"><g clip-path="url(#border)"><circle fill="#00247d" cx="0" cy="0" r="20" d="m 20,0 c 0,11.045695 -8.954305,20 -20,20 -11.045695,0 -20,-8.954305 -20,-20 0,-11.045695 8.954305,-20 20,-20 11.045695,0 20,8.954305 20,20 z"/><path stroke="#fff" stroke-width="3" d="m-20-10 40,20m-40,0 40-20"/><path stroke="#cf142b" stroke-width="2" d="m-20-10 40,20m-40,0 40-20"/><path fill="#fff" d="m0,0 20,10h-3l-20-10m3,0 20-10h3l-20,10m-3,0-20,10h-3l20-10m3,0-20-10h3l20,10"/><path stroke="#fff" stroke-width="5" d="m-20,0h40m-20-10v20"/><path stroke="#cf142b" stroke-width="3" d="m-20,0h40m-20-10v20"/></g></g><g stroke="#000" stroke-width=".186"><g transform="matrix(.15883 0 0 .15883 -27.207 -8.9732)"><g fill="#f7e017"><path d="m197.84,77.265c-2.706,2.2955-5.284,5.64-5.917,8.6634-1.782,8.5128-4.149,10.406-7.805,8.5782 0,4.5702 4.008,4.9218 5.766,2.25 0,4.2894 1.555,8.0064 5.062,11.179 1.477,1.336 1.758,.422 1.055-1.054-.703-1.477-.703-6.258-2.109-9.0004 2.25,1.6171 5.554,.7031 5.273-3.7266-2.883,1.6875-5.748,1.6215-6.047-2.3907-.351-4.7109 1.487-11.546 4.722-14.499z"/><path d="m194.42,43.401c.191-1.689-.17-3.4238-1.404-4.5115-2.384-2.0995-4.72-1.404-6.458,.2867-2.602-1.4063-3.984,3.5806-6.937,2.7368 .492,1.6172 1.266,2.3203 2.742,1.7578-1.547,1.4062 0,3.0937-1.828,4.7812 3.305,1.0548 5.063-.7734 4.922-3.9375 1.266,1.125 3.234,1.0548 4.289-.2109-1.758-.5625-1.766-2.0925-1.055-3.5156 1.055-2.1094 6.01-2.0276 5.729,2.613z"/></g><path fill="#337321" d="m202.05,67.858c-3.727,1.9687-10.547,1.125-11.18-3.7265-.633-4.8516 4.078-7.0313 5.344-7.6641 1.973-.9868 3.515,.7734 2.883,2.8125 2.179-.7734 2.672-3.3047 1.617-4.7813 2.883,.211 5.555-1.9687 6.68-5.0625-1.011,.9628-3.768,.3118-6.038,.1655 .703-.7734 .694-2.2749 .483-3.0483-2.391,2.4609-5.836,1.3359-10.406,8.4375 .703-2.4609 2.039-7.3828 2.812-10.617 .077-.3234 .137-.6415 .174-.9729 .281-4.6406-4.668-4.7236-5.723-2.6143 1.156,1.3047 .549,2.8267 .135,5.1341-.492,2.7422-1.547,9.0703-2.461,11.18-.281-3.3047-2.461-3.5156-2.883-5.1328-.633,.4218-.984,1.5468-.843,2.3203-.774-.8437-3.446,.2109-4.43-1.0547-1.055,2.1094 .633,4.2187 2.39,5.1328-1.019,.0703-1.265,1.3008-2.39,1.3008 1.512,1.7578 3.058,2.4609 4.851,2.6015s3.129,.8081 4.219,2.9884c1.758,3.5156 8.455,5.8007 14.766,2.6015z"/><path fill="#f7e017" d="m211.33,63.569c-2.109,5.8359-7.875,9.9843-10.477,10.617-4.427,1.0769-13.457,5.4601-15.881,7.7164-.383-.0848-.738-.2236-.994-.4039-1.195-.8437-2.179-3.5859-.07-5.9062 6.61-6.1875 13.711-3.5157 18.141-7.7344-3.727,1.9687-10.547,1.125-11.18-3.7265 4.008,1.0546 11.25,1.125 17.016-5.0625 .773,.8437 3.023,3.5156 3.445,4.5z"/><path fill="#337321" d="m197.84,77.265c-3.34,2.8337-5.073,9.7884-4.722,14.499 .098,1.3106 .466,2.1987 1.023,2.7437 .246-2.6719 2.104-9.5759 6.852-12.658 4.008-2.6016 10.266-8.4375 12.586-15.117-.422-1.1953-1.125-2.039-2.461-2.8828-2.296,6.3037-8.462,9.3278-13.278,13.415z"/><path fill="#316d3a" d="m209.19,60.862c-1.196,1.793-3.903,4.2539-6.504,5.2383 .562-.6328 .738-1.4415 .773-2.1094-3.305,1.2657-9.914,1.125-12.586,.1407 4.008,1.0546 11.25,1.125 17.016-5.0625 .562,.6327 1.054,1.1952 1.301,1.7929z"/><path fill="#337321" d="m183.91,75.592c-5.374,5.0307-1.828,9.4218 .281,10.406-.562,3.5156 2.743,3.0938 2.672,6.0469 1.336-.7734 1.688-2.8125 1.477-4.4297 1.687,1.8282 5.976-.2109 6.89,3.1641 .563-3.7266-2.32-7.4532-5.906-7.1016 1.477-1.3359 .633-3.5156-.773-4.0781-.281,2.7422-3.375,2.7422-4.571,1.8984-1.195-.8437-2.179-3.5859-.07-5.9062z"/><g fill="#f7e017"><path d="m195.55,107.58c-.587,.335-.544,1.091-.176,1.582 .738,.984-.52,3.215 1.863,3.691 .704,.141 1.245-.289 1.512-1.09 .738-2.215-1.617-2.461-1.828-3.515-.211-1.055-.879-.95-1.371-.668z"/><path d="m197.55,111.73c-.789,.364-1.477,.879-1.16,3.41 .13,1.047 .07,3.586-.844,3.621 .562,.282 1.758,.58 2.25-.07 .474,.791 1.547,.563 1.969-.422 .562,.457 1.336-.316 1.336-.984 .492,.316 1.476-.141 1.23-1.652 .598,.21 1.371-.211 1.652-.598-.879-.176-3.093-1.371-3.621-2.32-.527-.95-1.898-1.407-2.812-.985z"/></g></g><g fill="none" transform="matrix(.15883 0 0 .15883 -27.207 -8.9732)"><path d="m185.37,40.621c.354-.5246 .75-1.0177 1.189-1.4448"/><path d="m198.75,49.928c.621-.3548 1.564-.394 2.611-.3267"/><path d="m197.8,118.69c-.246-.351-.334-1.828-.158-2.725"/><path d="m199.77,118.27c-.387-.299-1.125-1.318-1.248-2.215"/><path d="m201.1,117.29c-.493-.229-1.688-1.776-1.952-2.777"/><path d="m202.33,115.64c-.58-.124-2.355-1.284-3.094-2.514"/></g></g><g transform="matrix(.15883 0 0 .15883 -27.207 -8.9732)"><path fill="#f7e017" stroke="#000" stroke-width=".186" d="m234.75,75.663c8.649,7.2422 9.211,13.008 7.875,16.383-.703-3.164-4.289-8.0859-8.016-9.3515l.141-7.0313z"/></g><g transform="matrix(.15883 0 0 .15883 -27.207 -8.9732)"><g stroke="#000" stroke-width=".186"><path fill="#337321" d="m219.28,71.585h16.032v18.984c0,16.172-9,25.734-18.141,30.797-9.141-5.063-18.141-14.625-18.141-30.797v-18.984h11.25c.018,.9844 .106,2.4609 1.266,3.9375 2.654-.2637 5.66-2.25 7.734-3.9375z"/><path fill="#006ec7" d="m235.31,71.585v18.984c0,4.882-.821,9.1618-2.217,12.897l-15.92-29.213-15.92,29.213c-1.397-3.7351-2.217-8.0149-2.217-12.897v-18.984h36.282z"/></g><path fill="#f7e017" d="m233.58,102.06c-.281,.861-.791,2.259-1.186,3.12l-15.22-28.285-15.22,28.285c-.395-.861-.905-2.259-1.186-3.12l16.41-30.421 16.41,30.421z"/></g><g stroke="#000" stroke-width=".186"><g fill="#f7e017" transform="matrix(.15883 0 0 .15883 -27.207 -8.9732)"><path d="m224.41,112.47c.422,.211 1.199,.601 1.551,.742 .844-1.688 .984-4.078 .703-6.188-.914,2.321-4.008,2.25-4.851,3.656 .519,.26 1,.6 1.415,.9-1.055,1.054-3.525,2.827-4.931,3.249v-15.082c0-1.0547-.352-1.9336-.352-2.8125v-3.1178c0-.7031-.14-1.7226-.773-1.7226s-.773,1.0195-.773,1.7226v3.1178c0,.8789-.352,1.8984-.352,2.8125v15.082c-.773-2.25-3.802-1.48-5.208-3.73 .55-.134 1.129-.175 1.692-.067-1.054-3.586-3.937-3.867-4.5-4.922 0,1.477-.632,4.922 .352,6.399 .221-.265 .553-.537 .952-.781 1.195,2.602 6.571,2.609 7.837,6.898 1.016-1.575 4.676-3.405 7.238-6.156z"/><path d="m217.17,99.921c1.195,0 4.992-.3888 6.363-.3888 .357,0 .647-.5342 .647-1.1932s-.29-1.1933-.647-1.1933c-1.371,0-5.168-.3887-6.363-.3887s-4.992,.3887-6.363,.3887c-.357,0-.647,.5343-.647,1.1933s.29,1.1932 .647,1.1932c1.371,0 5.168,.3888 6.363,.3888z"/><path d="m216.4,93.74c-.254-.2041-.587-.3278-.952-.3278-.797,0-1.442,.5894-1.442,1.3164 0,.7271 .645,1.3164 1.442,1.3164 .796,0 1.441-.5893 1.441-1.3164 0-.5625 .818-.5625 .818,0 0,1.1394-1.011,2.0631-2.259,2.0631s-2.26-.9237-2.26-2.0631c0-1.1393 1.012-2.063 2.26-2.063 .374,0 .727,.0831 1.038,.2304-.028,.189-.086,.541-.086,.844z"/><path d="m210.81,99.532c.357,0 .646-.5342 .646-1.1932s-.289-1.1933-.646-1.1933"/><path d="m211.34,99.532c.357,0 .646-.5342 .646-1.1932s-.289-1.1933-.646-1.1933"/><path d="m214.81,99.777c.43,0 .779-.644 .779-1.4383 0-.7944-.349-1.4383-.779-1.4383"/><path d="m215.62,99.842c.45,0 .815-.6732 .815-1.5036 0-.8305-.365-1.5037-.815-1.5037"/><path d="m218.32,99.859c.455,0 .824-.6809 .824-1.5206 0-.8399-.369-1.5206-.824-1.5206"/><path d="m219.17,99.811c.45,0 .814-.6592 .814-1.4723 0-.8132-.364-1.4724-.814-1.4724"/><path d="m222.94,99.555c.364,0 .66-.5448 .66-1.2168s-.296-1.2168-.66-1.2168"/><path d="m209.33,111.73c.435-.266 .953-.495 1.504-.629"/><path d="m223.64,111.87c-.129-.092-.267-.19-.413-.296"/><path d="m224.41,112.47c.985-1.057 1.805-2.252 2.254-3.618"/></g><g transform="matrix(.15883 0 0 .15883 -27.207 -8.9732)"><path fill="#fff" d="m213.95,85.006c0-.3427 .282-.4899 .61-.7383 .396-.2988 .554-.4394 .914-.4394h4.615c.342,0 .421,.0879 .421,.4043v6.2754c0,.3164-.079,.4043-.421,.4043h-6.139v-5.9677"/><path fill="#e5e5e5" d="m218.95,91.457c.606,0 .497-.0132 .923-.4394 .444-.4439 .402-.4044 .402-.8128v-5.7379c0-.2959-.073-.3781-.391-.3781h-4.27c-.334,0-.48,.1315-.846,.411-.304,.2322-.561,.3699-.561,.6905v6.2667h4.743z"/><path fill="#fff" d="m219.4,91.325c0,.3164-.079,.4043-.422,.4043h-4.614c-.343,0-.417-.0879-.417-.4043v-6.2754c0-.3164 .074-.4043 .417-.4043h4.614c.343,0 .422,.0879 .422,.4043v6.2754z"/></g></g><g transform="matrix(.15883 0 0 .15883 -27.207 -8.9732)"><path fill="#96877d" stroke="#000" stroke-width=".186" d="m228.35,67.908c.899,1.002 1.195,2.3525 .705,3.671h-1.336c.562-1.6875 .211-3.2985-2.18-3.5094-3.575-.3155-7.734,6.6093-13.992,7.4531-1.828-2.1797-1.73-6.3317 .59-8.3005-1.199-3.4582-3.733-7.2612-5.486-8.9073-1.148-.1867-2.474-.2802-3.331-.2297 .914-1.9688 3.519-4.0409 5.629-4.8846 .341-.4993 .708-.979 1.051-1.4084 .211-2.707 13.078-1.4414 15.82,.2461 0,3.0234 1.194,13.128 2.53,15.87z"/></g><g transform="matrix(.15883 0 0 .15883 -27.207 -8.9732)"><path d="m212.75,69.753c-.306-4.6868-2.2-8.5465-4.863-11.176 1.265,.3516 3.867,.3516 5.625-.914 2.32-1.5469 8.367-4.254 10.582-3.0937 .176,.3866 .281,1.2656 .14,1.8281-.527-1.4063-6.363,.7734-8.015,1.4414-1.582,.7382-2.285,1.7226-1.723,3.9375-.914-.7735-.598-1.5118-1.547-2.0743 .387,.9141 .703,2.5664 .809,3.9024-.352-.9492-.985-2.9883-2.356-4.1836 1.196,2.3203 2.233,7.8925 1.741,10.846 .949,0 3.041-.9316 3.884-1.5996-.738,1.0546-2.865,1.793-4.236,2.0742-.615,.7383-1.037,2.6367-1.002,3.6914-.105-1.3007 .305-4.4713 .961-4.679z"/><path d="m228.35,67.908c-1.164-1.2958-3.336-1.9974-6.116-1.2447 .422-.211 1.336-.5625 2.145-.7031-.105-.7384-.773-3.9024-.879-4.6759l.774-.3163c.386,1.8984 .878,4.0781 1.195,4.957 .246,.0703 .808,.1758 1.301,.4218-.211-.7382-1.407-6.0468-1.371-6.6093l1.054-.5625c.422,2.8828 1.09,7.0664 1.897,8.733z"/></g><g stroke="#000" stroke-width=".186"><g fill="#96877d" transform="matrix(.15883 0 0 .15883 -27.207 -8.9732)"><path d="m227.72,71.578c.562-1.6875 .211-3.2985-2.18-3.5094-1.853-.1636-3.863,1.6373-6.242,3.5094h8.422z"/><path d="m212.18,56.432c-1.055,.1407-3.41-.0703-4.606-.457 .069-.3174 .192-.6461 .35-.9942-.739,.4922-2.143,1.4512-2.67,2.1192 1.688,.3515 5.171,.5267 6.926-.668z"/></g><g fill="none" transform="matrix(.15883 0 0 .15883 -27.207 -8.9732)"><path d="m212.14,67.222c.388,1.1209 .641,2.2039 .676,3.1676"/><path d="m208.95,53.2c-.638,.9314-1.192,1.9283-1.375,2.7752 1.196,.3867 3.551,.5977 4.606,.457"/><path d="m206.65,58.314c.455,.0738 .881,.1628 1.24,.2624 1.265,.3516 3.867,.3516 5.625-.914s6.539-5.2031 11.953-5.625"/><path d="m205.25,57.1c1.688,.3515 5.171,.5267 6.926-.668 4.078-2.7773 8.015-4.3945 11.953-4.6055"/></g><g transform="matrix(.15883 0 0 .15883 -27.207 -8.9732)"><g fill="#337321"><path d="m234.75,75.663c5.906,4.0781 10.266,8.0156 11.531,14.344 1.266,6.3281 3.657,8.0156 6.61,6.3281-.703,3.6562-4.36,4.0783-7.453,1.2656 .281,4.2187-1.407,9.2817-5.766,11.11-.281-2.532 1.392-4.536 .914-6.61-.211-.914-.281-3.0232 .914-4.0075-2.32,.7734-5.976-.7032-6.328-4.1484 2.672,1.2656 6.117,1.4765 7.453-1.8985s.774-9.1406-7.875-16.383z"/><path d="m242.2,42.757c1.828-4.7813 6.61-4.2891 8.227-2.25 4.711-2.6719 5.344,3.375 9.351,2.1796-.07,1.125-1.406,2.1797-2.882,2.1094 1.546,1.4062-.633,3.5156 2.671,4.7812-2.812,1.4063-6.75-.0702-7.804-3.9375-.914,1.8282-4.219,1.8282-5.555,.3516 2.883-.7734 2.672-3.4453 1.055-4.5-1.629-1.0623-4.5-.6328-5.063,1.2657z"/><path d="m227.94,53.286c1.312,4.2318 4.026,8.1647 6.951,10.846 3.375,3.0937 8.472,2.3202 11.32-.6329 .07,5.8887-6.029,6.3457-9.422,4.5-1.495-.8134-2.705-.386-1.265,.9141 2.179,1.9688 6.948,3.4326 12.585,4.6406 9.844,2.1094 6.329,9.9141 3.446,9.8438 .826-.0177 1.504-.8828 .316-1.9512-8.543-7.6817-25.91-4.6582-25.629-21.814-1.828,4.5-9.351,2.7421-5.836-2.6016 1.125,.9141 3.094,.9843 3.657-.4219 .437-1.0942 .151-2.9973-1.819-4.6326 .324-.0256 1.019,.0008 .948-.8078 .088,.4745 .519,1.1777 1.626,.9404 .317,.501 .649,.8304 1.099,.6504 .088-.0352 .352-.167 .246-.668 .088,.9317 1.195,1.2657 1.777,1.1953z"/></g><g fill="#f7e017"><path d="m236.79,67.999c4.078,2.6719 8.689,2.67 12.938-2.25 1.336-1.5469 3.445-2.8828 4.922-3.0234 1.476-.1406 1.406-1.5469 2.531-1.8281-.703-.211-.985-1.0547-2.039-.9492 2.636-.9142 1.863-3.0235 3.164-4.043-1.055,.3867-2.707-1.1953-4.219,.8086 .387-.9141-.141-2.0039-.527-2.4258 .14,1.0547-2.075,1.2656-2.496,3.9375-.237,1.4992-1.055,1.4063-1.196-.9141-.103-1.6975-.914-6.3984-1.898-8.789-.985-2.3906-1.21-5.6725 .126-6.1648-.201-.34-.483-.6404-.829-.8665-1.629-1.0623-4.5-.6328-5.063,1.2657-1.828,4.7812 3.305,7.5234 2.883,12.726-.773-3.8672-7.031-4.8515-6.961-8.6484-2.039,.914-1.758,2.6015-.984,3.9375-1.266-1.9688-4.149,1.2656-6.61-1.4063-.281,3.5157 2.813,4.8516 5.344,4.9922-1.266,2.25 .422,4.1485 2.109,4.7812 .071-3.9375 8.145-2.3213 8.227,4.4298 .07,5.7656-6.117,6.2577-9.422,4.4296z"/><path d="m248.11,73.553c9.844,2.1094 6.329,9.9141 3.446,9.8438-1.836-.0448-3.586-1.5821-3.692-2.918-2.109,1.125-1.546,3.3399 .071,4.2188-4.43-.5274-6.293,2.3906-6.399,5.5898 .809-1.4766 3.27-1.5821 4.184-1.2656 .914,.3164 3.269,.4921 4.219-.5625-.774,.6679 .492,2.2148-.598,3.4101 3.691-.1406 5.309-3.586 4.676-5.0976 4.781-4.3594 3.867-11.461-5.907-13.219z"/><path d="m240.61,106.96c.641,.4 .56,1.241 .127,1.773-.867,1.067 .44,3.612-2.241,4.04-.791,.126-1.377-.378-1.64-1.283-.727-2.504 1.913-2.676 2.194-3.844 .282-1.168 1.023-1.022 1.56-.686z"/><path d="m238.2,111.5c.865,.441 1.61,1.045 1.147,3.857-.192,1.163-.235,3.999 .784,4.079-.641,.289-1.988,.57-2.509-.177-.564,.862-1.751,.561-2.179-.557-.648,.486-1.477-.411-1.448-1.157-.563,.332-1.642-.221-1.302-1.898-.676,.21-1.521-.295-1.818-.739 .989-.158 3.513-1.395 4.143-2.432 .63-1.036 2.18-1.487 3.182-.976z"/></g></g><g fill="none" transform="matrix(.15883 0 0 .15883 -27.207 -8.9732)"><path d="m237.62,119.26c.29-.382 .453-2.026 .296-3.034"/><path d="m235.44,118.71c.445-.316 1.313-1.422 1.49-2.417"/><path d="m233.99,117.55c.559-.233 1.961-1.908 2.299-3.015"/><path d="m232.69,115.65c.653-.112 2.685-1.329 3.563-2.67"/></g><g fill="#f7e017" transform="matrix(.15883 0 0 .15883 -27.207 -8.9732)"><path d="m226.24,59.632c-.118,7.207 2.878,10.853 7.027,13.227-1.542-.9227-.874-4.0867-2.949-5.1063 .493-.0351 1.266,.668 2.497,.3867-.598-1.3359-1.583-3.375-3.868-3.6562 .598-.0703 1.899,.1406 2.743-.1758-1.196-1.8281-4.36-.9492-5.45-4.6757z"/><path d="m225.49,52.778c-.253-.0833-.468-.3384-.678-.67-1.107,.2373-1.538-.4659-1.626-.9404 .071,.8086-.628,.7782-.953,.8038 1.979,1.6371 2.262,3.5406 1.824,4.6366-.563,1.4062-2.532,1.336-3.657,.4219-.14,2.9882 3.727,3.9726 5.133,.2109 0,.6328 .809,.5625 1.02,1.4063 1.004-1.6165 .246-3.9374-1.063-5.8691z"/></g></g><g transform="matrix(.15883 0 0 .15883 -27.207 -8.9732)"><g stroke="#000" stroke-width=".186"><path fill="#337321" d="m219.32,38.503c-1.758-1.6171-2.567-4.3242-2.497-5.871 .071-1.5469 .704-3.2344 2.954-2.5313-.704,0-.211,1.4063-.95,1.5469 .598,.2109 1.407-.2813 1.512-.5977 .141,.4922 1.055,.3516 1.125,.9141 .352-.2813-.035-1.6524-.562-1.9336 .386-.2109 .597-1.3008 .421-1.8282-.351,.0704-.878,.5625-.984,1.2657 .176-.5625-.035-1.9688-1.019-2.1797-.282,.3867-.352,1.3359 .035,1.8633-.914-.211-2.25,.3867-2.567,1.1601 .071-.9317 .199-2.2581 .774-3.0937 .193-.2813-.282-.7734-.651-.1055-.685-1.3359-2.513-2.039-3.322-1.3711s-1.898-.3164-2.566,.7383c-.668,1.0546-2.931,1.1658-2.813,2.2851 .07,.668-.091,1.7-.422,2.0743-.808,.914 .387,1.582 .598,2.3906-.141-2.6719 4.113-7.875 8.367-5.836-.387,.668-.725,2.0022-.844,3.6211-.175,2.3907 .176,5.7657 2.496,7.7344l.915-.2461z"/><path fill="#cf142b" d="m220.58,30.136c-.023-.6334 1.072-1.4561 2.549-1.4414 1.775,.0175 3.146,1.6347 4.57,1.4765s.721,.6328 .422,.8437c-.299,.211-.474,.5274-.369,.9141s-.077,.6396-.65,.2813c-1.266-.791-2.532,.3164-4.202-.2989-1.448-.5335-2.285-.8261-2.32-1.7753z"/><path fill="#96877d" d="m213.34,46.729c-.703-2.2149-3.375-4.6406-4.676-5.2031l-.07-1.1954c.703-.2812 2.39-1.6171 3.164-2.3554 5.273,2.5313 12.445-1.0547 15.75-4.7812l1.266,.7734-.633,.8437-.668-.3515c-.809,.9844-3.828,3.8251-4.742,4.4227 1.229,.3106 2.909,.5248 3.371,.4992 2.953-2.1094 5.273-4.0079 6.398-4.1485l.949,1.2656-.843,.5976-.668-.3866c-3.164,2.6015-6.75,8.2969-8.157,12.094-1.968-.4218-9-.1406-10.441-2.0742z"/><g fill="none"><path d="m222.73,38.882c-.455-.1152-.847-.2467-1.094-.3798-.563,.5274-1.969,.9844-3.762,1.0547"/><path d="m213.62,45.956c-.474-2.6191 .281-5.5195 1.617-6.3984 2.918,1.9336 7.911,1.9336 10.864-.1757"/><path d="m213.62,44.585c2.25-.0704 7.137,.3164 8.332,.4921 1.196,.1758 3.199,.668 2.918,1.2657"/><path d="m214.66,44.212 .647-.6464-.647-.6463-.646,.6463 .646,.6464z"/></g><path fill="#337321" d="m216.19,31.12c-.809-1.125-3.037-1.4809-3.516,.0352-.211,.668-.527,1.3711-1.055,1.6875-.527,.3163-.403,1.2745-.175,1.6875 .562,1.0195 .07,2.0038 1.16,2.6718 0-.8086 1.195-1.6523 2.215-1.8632 1.019-.211 2.566-1.125 2.777-2.1445 .211-1.0196 .562-1.8634-1.406-2.0743z"/><g fill="#96877d"><path d="m211.12,41.245h.281l.005,1.9229c.057,.0199 .121,.0469 .167,.0886l1.657-.9556 .141,.2436-1.663,.9652c.011,.06 .02,.1285 .007,.1895l1.656,.9572-.141,.2436-1.667-.9576c-.046,.04-.101,.0815-.161,.1009l-.001,1.9128h-.281l-.004-1.9229c-.058-.0199-.122-.0469-.168-.0886l-1.657,.9556-.14-.2437 1.662-.9652c-.011-.0599-.02-.1284-.007-.1894l-1.655-.9574 .14-.2436 1.668,.9578c.046-.04 .101-.0815 .16-.1009l.001-1.9128z"/><path d="m213.63,45.947c-.604,.608-1.44,.9845-2.364,.9845-1.84,0-3.332-1.4914-3.332-3.3312 0-1.8397 1.492-3.3311 3.332-3.3311 1.081,0 2.041,.5149 2.65,1.3127-.172,.4187-.371,1.3596-.386,1.7856-.116-1.1478-1.086-2.0437-2.264-2.0437-1.258,0-2.277,1.0193-2.277,2.2765 0,1.2573 1.019,2.2764 2.277,2.2764 1.052,0 1.962-.7356 2.223-1.7051-.001,.4174 .009,1.4238 .141,1.7754z"/></g><path fill="#337321" d="m209.86,49.12c-.21-.2461-.597-.9141-.562-1.4062 .316-.0352 .914,.1757 1.195,.457-.035-.3515-.175-1.125-.105-1.4765 .387,.1406 1.195,.5976 1.476,1.125-.07-.3516-.211-1.2657-.07-1.8282 .422,.2461 1.125,.9141 1.266,1.3711 .035-.7032 .281-1.8633 .492-2.1445 .316,.3163 .808,.5976 1.125,1.0195 .07-.5625 .351-1.2304 .773-1.4063 .317,.3516 .809,1.1602 .914,2.0743 .317-.1055 .739-.6328 .914-.9141 .176,.2813 .352,.7734 .247,1.3711 .386-.3515 .843-.8438 .949-1.2657 .281,.211 .808,.7384 .949,1.3009-.07-.4571-.035-1.2656-.176-1.7227 .528,.2812 .949,.7735 1.055,1.3008 .141-.4922 .457-1.3711 .738-1.5821 .281,.5625 .563,1.2305 .528,1.793 .175-.3515 .457-.9844 .738-1.125 .246,.3868 .211,1.2305 .14,1.6875 .247-.3515 .704-.7734 .985-.914 .035,.2109 .07,.6328 0,.9491 .316-.1757 .844-1.125 1.019-1.6171 .493,.2461 .985,1.0899 1.02,1.5117 .351-.1406 1.055-.7734 1.265-1.125 0,.2461 .106,.9141-.035,1.4414 .211-.211 .422-.6328 .528-.8086 .14,.3516 .035,1.1954-.106,1.6524 .317-.2813 .774-.457 1.055-.457 .035,.5976-.387,1.6522-.774,2.4257-3.375-.9492-10.441-1.3007-17.543-1.6875z"/></g><path fill="#f7e017" d="m221.63,30.495c-.017-.2591 .562-.8456 1.597-.8396 1.242,.0072 2.389,.9187 3.386,.854s.505,.2589 .296,.3452c-.21,.0863-.333,.2157-.259,.3739s-.054,.2617-.455,.1151c-.886-.3236-1.772,.1294-2.941-.1223-1.014-.2183-1.6-.338-1.624-.7263z"/></g><g stroke="#000" stroke-width=".186"><g fill="#f7e017" transform="matrix(.15883 0 0 .15883 -27.207 -8.9732)"><path d="m210.95,51.229c-1.054,1.2656-2.109,1.0546-2.32,.2461-.211-.8086 .563-1.1953 .281-1.8985-.281-.7031 .457-1.0195 .809-.7031 .351,.3164 1.476-.7031 1.969,.3516 .492,1.0547 .879,1.7929 .597,2.2148-.281,.4219-1.125,.211-1.336-.2109z"/><path d="m215.48,49.331c-.198-.4626 .897-1.3534 1.459-.7207 .563,.6329 1.442-.6855 1.934,.3164 .492,1.002 .65,1.5293 .897,2.0918 .246,.5625-1.336,.8613-1.829,.3692 .071,.3339-1.366,.5955-1.757-.3516-.211-.5097-.44-1.0898-.704-1.7051z"/><path d="m222.8,49.911c-.264-.4921 1.02-1.1953 1.687-.2988 .176-.3691 1.442-.4395 1.53,.6328 .088,1.0722 .123,1.7051 .158,2.127s-.773,.8086-1.354-.2637c-1.037,.211-1.511-.3692-1.634-.9844s-.246-.914-.387-1.2129z"/></g><g fill="#337321" transform="matrix(.15883 0 0 .15883 -27.207 -8.9732)"><path d="m211.63,49.208c-.158-.3515 .896-1.0547 1.617-.5273 .721,.5273 1.719-.455 2.145,.4921 .861,1.9161 .914,2.0567 .65,2.4258-.264,.3692-1.389,.2285-1.67-.2813-.053,.3517-1.023,.2937-1.529,.0177-.58-.3165-.985-1.4942-1.213-2.127z"/><path d="m219.03,49.296c-.246-.545 1.407-1.0195 2.127-.0703 .369-.334 1.178-.3516 1.635,.6855 .457,1.0372 .527,1.6172 .193,1.8809-.235,.1854-1.09,.3339-1.371-.1406-.387,.2461-1.582,.0351-1.845-.6329-.264-.6679-.493-1.248-.739-1.7226z"/><path d="m226.03,50.333c-.035-.4922 .862-.7207 1.196,0s1.402,.0717 1.494,1.2656c.017,.2285-.123,1.1074-.457,1.5293s-1.969,0-2.074-.8964c-.106-.8965-.141-1.4063-.159-1.8985z"/></g><g fill="none" transform="matrix(.15883 0 0 .15883 -27.207 -8.9732)"><path d="m210.95,51.229c-.386-.5274-.914-1.3711-1.582-.457"/><path d="m214.38,51.317c-.228-.2988-.527-.7909-.633-1.1777"/><path d="m217.94,51.387c-.246-.1758-.615-.5274-.808-.8965"/><path d="m217.63,49.542c.615,.0703 1.037,.6503 1.23,.914 .194,.2637 .598,.7384 .915,.7911"/><path d="m221.62,51.651c-.211-.3341-.422-.6329-.474-.8789"/><path d="m221.16,49.225c.211,.2988 .369,.5449 .492,.8261"/><path d="m224.82,52.108c-.281-.5274-.72-1.0371-1.089-1.2129"/><path d="m224.68,50.174c.035,1.0371 1.424,1.1074 1.476,1.8457"/><path d="m227.22,50.333c.14,.2636 .193,.5273 .211,.9668"/></g></g></svg>