<svg xmlns="http://www.w3.org/2000/svg" viewBox="0 0 640 480"><defs><clipPath id="clipPath15809" clipPathUnits="userSpaceOnUse"><path fill-opacity=".67" d="m-85.333-0h682.67v512h-682.67z"/></clipPath></defs><g fill-rule="evenodd" clip-path="url(#clipPath15809)" transform="matrix(.9375 0 0 .9375 80 0)"><path fill="#199d00" d="m-128-0h768v512h-768z"/><g fill="#fff"><path d="m65.54,145.13c-.8866,11.961-1.9507,33.011 8.2126,35.17 12.293,1.1818 5.5147-20.806 9.9642-24.793 .8412-1.9703 2.3925-1.9807 2.5205,.5047v18.651c-.1125,6.0648 3.8746,7.8514 6.972,9.1044 3.2233-.2487 5.3753-.1414 6.6386,2.9952 .5037,10.754 1.0084,21.507 1.5121,32.261 0,0 7.4757,2.1396 7.8318-18.146 .3571-11.911-2.379-21.881-.7751-24.198 .0568-2.2769 2.9643-2.4131 4.981-1.3036 3.213,2.2666 4.6446,5.0657 9.638,3.9458 7.5985-2.0932 12.166-5.7892 12.278-11.624-.4438-5.5446-1.0652-11.09-3.468-16.635 .3354-1.0084-1.4666-3.6207-1.1322-4.6291 1.3655,2.1386 3.4432,1.961 3.9159,0-1.2933-4.2616-3.2997-8.3448-6.553-10.112-2.6887-2.3687-6.6232-1.8847-8.064,3.0551-.6678,5.6922 2.0519,12.455 6.1969,17.968 .8804,2.154 2.1169,5.7335 1.573,8.9568-2.2057,1.2582-4.4113,.7338-6.2588-1.2169 0,0-6.0483-4.5362-6.0483-5.5446 1.605-10.276 .3561-11.441-.5336-14.293-.6213-3.9365-2.4895-5.1988-4.0026-7.8875-1.5131-1.6039-3.5598-1.6039-4.5383,0-2.6732,4.6342-1.4264,14.583 .5047,19.039 1.3954,4.0986 3.5278,6.6706 2.5205,6.6706-.8298,2.3161-2.5452,1.7814-3.7931-.8918-1.7814-5.525-2.1386-13.769-2.1386-17.481-.5346-4.6023-1.1219-14.419-4.1512-16.913-1.8475-2.5163-4.5868-1.2891-5.5436,1.0074-.1992,4.5682-.2198,9.1354 .2942,13.345 2.0777,7.3838 2.73,13.876 3.7384,21.437 .2797,10.128-5.8563,4.3948-5.5756-.6265 1.415-6.522 1.0476-16.788-.2095-19.39-.997-2.602-2.1737-3.244-4.5981-2.8156-1.9249-.1177-6.8781,5.2907-8.2684,14.262 0,0-1.1859,4.6177-1.6917,8.7173-.6802,4.6332-3.7301,7.903-5.8687-.6513-1.8485-6.2175-2.9849-21.524-6.0803-17.939z"/><path d="m98.944,194.21c-10.848,5.3031-21.339,10.25-32.01,15.375 .3901-7.2558 15.219-20.354 25.331-20.538 6.5819,.1837 4.9284,2.5504 6.6789,5.1637z"/><path d="m93.352,204.24c-16.87,43.487 39.505,49.546 45.805,1.7814 .5935-1.96 2.9705-3.921 3.3864-.7132-1.3077,43.248-43.606,46.22-50.794,32.614-1.7815-3.2068-2.3171-10.336-2.4957-14.614-1.0693-8.4944-5.5239-5.2277-6.2371,3.2078-.7132,4.6931-.5346,6.0018-.5346,10.516 2.2573,34.159 56.736,19.486 65.587-8.7328 4.6931-15.625-.7731-27.149 1.7814-27.091 5.4063,5.8233 12.95,.7731 14.614-1.2468 .7132-1.0104 2.4967-1.6628 3.7435-.3561 4.2173,3.0314 11.645,1.6029 13.189-3.7435 .8918-5.2277 1.605-10.634 1.7835-16.217-3.4473,1.0703-6.0008,1.7814-6.2382,3.2078-.2384,1.5451-.4748,3.0881-.7132,4.6332-.2962,1.4863-3.2688,1.5441-3.3864-.3571-1.3067-5.9409-6.713-6.713-9.9807,2.4967-2.1984,1.7815-6.1783,2.1386-6.5953-.5346 .5346-6.1783-1.961-7.0112-6.9503-4.0996-1.6039-12.238-3.2068-23.941-4.8118-36.179 2.0797-.0599 3.982,1.4842 5.8831-.8918-2.0818-6.4745-6.4766-19.723-8.9134-20.674-1.188-1.4254-2.1995-.5346-3.7425-.1786-2.6134,.8319-5.0502,3.0892-4.2782,7.486 3.0892,18.772 5.1101,33.09 8.1992,51.863 .4748,2.1984-1.3665,5.107-3.7425,4.8108-4.0397-2.7331-5.0471-8.257-11.941-8.0207-4.9903,.0599-10.695,5.4661-11.406,10.696-.8319,4.1564-1.1302,8.6709-.002,12.296 3.5072,4.2173 7.7244,3.8034 11.408,2.8518 3.0293-1.2468 5.5239-4.2771 6.5943-3.565 .7132,.8918 .1765,10.87-14.259,18.535-8.7328,3.921-15.684,4.8128-19.425-2.3171-2.3171-4.4557 .1775-21.387-5.527-17.465z"/><path d="m164.91,160.03c3.3864-1.2478 19.429-19.604 19.429-19.604-.8329-.7132-1.576-1.2478-2.408-1.961-.8918-.772-.802-1.5441 0-2.3171 3.9799-2.3161 2.7031-7.3962 .6244-9.7123-3.4463-1.5451-6.4467-1.0404-8.6451,.0888-2.7919,2.6732-3.4442,6.9503-1.2458,9.6236 2.1396,1.0104 4.2771,3.179 2.8507,4.3669-6.5633,7.0102-24.535,19.1-22.455,19.515 .4438,.5945 11.495,.5646 11.85,0z"/><path d="m68.036,225c-6.0163,9.5843-6.5396,23.903-3.2202,28.172 1.7639,2.0168 4.6621,2.9003 6.8058,2.2686 3.7796-1.639 5.4341-9.2974 4.5372-12.099-1.2613-1.9745-2.2552-2.2872-3.5144-.6079-2.6598,5.4001-3.7642,1.6958-3.9974-1.3222-.4077-5.7231 .1311-10.994 .7524-15.168 .6616-4.2782-.0113-2.9705-1.3634-1.2437z"/><path d="m325.12,209.65c-5.8171-12.521-13.87-24.894-16.432-29.647-2.5617-4.755-21.905-32.827-24.752-35.984-6.2836-7.4674 10.204,3.1098-2.0859-11.716-4.6859-4.0201-4.9583-4.2648-8.8474-7.5448-1.9621-1.3923-6.7522-3.9355-7.6006,.2797-.4263,3.7167-.1961,5.7324 .4283,8.8268 .4789,2.0632 3.4845,5.5188 4.9625,7.5211 19.625,26.379 37.027,53.019 53.808,86.514 2.6495-1.2592 2.0704-16.155 .5202-18.25z"/><path d="m299.59,251.54c-1.1436,1.284 2.8239,6.7759 7.9804,6.7708 8.6234-1.0012 16.215-5.8449 23.244-18.596 1.8795-2.9736 5.1833-9.3335 5.2804-14.267 .6575-28.925-1.4481-51.433-5.782-72.339-.2776-2.0364-.1084-4.4299 .2364-5.0409 .5584-.6668 2.4523,.003 3.4566-1.6442 1.4739-1.5048-3.9138-13.97-6.9854-18.771-1.091-2.1437-1.4708-3.5753-3.276,.2518-1.8991,3.1108-3.1748,8.5388-3.0252,13.611 4.1141,28.482 5.3774,53.398 8.0661,81.881 .2188,2.7548-.1858,6.7573-2.0168,8.353-6.7728,7.0721-16.548,15.777-27.178,19.791z"/><path d="m416.08,251.39c-6.1886,3.5774-6.1959,7.6924-1.1921,7.8411 8.6234-1.0012 18.813-1.7175 25.841-12.329 1.8805-2.9736 4.1141-11.015 4.2111-15.948 .6575-28.925-.3778-50.515-4.7117-71.421-.2776-2.0364-1.1787-6.7233-.834-7.3343 .5584-1.4316 3.3699,.1559 4.3742-1.4914 1.4739-1.5048-7.2775-12.747-10.349-17.548-1.091-2.1437-1.4708-3.5753-3.276,.2518-1.8991,3.1108-2.5628,8.6915-1.8021,13.611 4.5723,30.928 7.9763,54.163 8.6781,81.575-.3932,2.602-.4913,4.0046-1.7113,7.2827-2.699,3.4597-5.6891,7.7853-8.4934,9.8764-2.8033,2.09-8.7844,4.0852-10.735,5.6344z"/><path d="m420.72,223.66c-.0712-7.2331 .1022-13.479-.1362-18.873-.2374-5.3949-1.1911-9.7877-3.0582-13.617-1.767-4.1058-.6698-7.4055-1.4997-11.779-.8288-4.3721-.6244-10.92-1.8774-16.108-.3437-2.0261-1.3965-8.515-1.0713-9.1374 .5109-1.4481 2.4565,.0454 3.407-1.6328 1.4233-1.5513-4.9367-18.008-8.1631-22.707-1.1601-2.1066-3.2667-1.3851-5.8645,2.0405-2.409,2.2542-1.5152,7.3952-.5955,12.286 6.1876,32.291 10.803,61.518 9.7959,92.257-.3086,2.6134 9.1271-7.7956 9.0631-12.729z"/><path d="m375,183.61c-3.8922-.0712-12.044-7.5738-14.423-11.97-.899-2.5215-.322-4.981 .4706-6.4219 1.4408-.9372 3.6579-1.9899 5.3154-.9805 0,0 1.7185,2.4048 1.3862,2.7104 2.1252,1.0177 3.0272,.4325 3.2429-.4325 .1445-1.5131-.6286-2.4152-.6368-4.0821 .901-4.5207 6.0679-5.2236 8.0134-2.3409 1.4243,1.7577 1.9466,5.492 2.1623,8.0134-.0227,1.2881-2.1086-.2229-3.2935,.0867-1.1859,.3107-1.4708,1.6782-1.5626,2.9158-.2147,3.278-.6028,8.5378-.675,12.501z"/><path d="m303.17,231.68c1.0724-9.8279-.3963-27.331-.4944-33.13-.3932-13.7-2.6309-40.162-3.696-44.583-1.2004-8.3334 3.4277,.9145 2.7867-3.9293-1.5007-8.322-6.1164-13.963-11.542-21.585-1.7494-2.4792-1.6906-2.9849-4.3917,.6079-2.989,6.7811-.4087,11.445 .3633,16.726 3.9128,17.206 6.1959,33.037 7.259,48.687 1.0631,15.651 1.3892,32.572 .419,49.055 2.9323,.1156 7.647-4.7437 9.2964-11.849z"/><path d="m433.97,215.94c-6.8626-11.515-17.219-23.987-19.986-28.624-2.7661-4.6384-26.166-34.83-29.148-37.86-8.5605-8.9929 3.9262-1.4636-1.639-8.4098-4.7065-5.1679-6.0792-6.7904-10.108-9.8981-2.0199-1.3056-3.244-3.7982-3.9076,.45-.2642,3.7322-.5398,8.0496-.289,11.195-.0145,1.7484 1.8062,5.0337 3.3699,6.97 20.755,25.5 43.393,51.537 61.617,84.269 2.5927-1.3738 1.7309-16.066 .0908-18.092z"/></g><path fill="#1ba400" d="m122.59,194.69c-.4944,.866-1.5936,1.9879-1.2251,3.149 .771,1.0445 1.3862,1.2561 2.6701,1.3129 1.1137,0 2.6701,.2632 3.0045-.3943 .5997-.6606 1.0559-2.0085 .5563-3.2811-1.1601-2.8992-4.4-1.8186-5.0058-.7865z"/><g fill="#fff"><path d="m354.17,362.54c9.1777,.3375 15.185,.419 23.348,1.3903 0,0 7.0391-.6957 9.5534-1.0755 10.626-1.0136 11.096,15.176 11.096,15.176-.1166,9.4956-3.7817,9.992-8.4603,10.995-2.6732,.3406-4.0779-1.6008-5.4827-3.6682-1.7639,.738-4.1605,.8443-7.0649,.4418-3.824-.2394-7.6491-.224-11.473-.4634-4.0635-.3582-6.2248,.4232-10.288,.065-.837,1.3149-1.9259,3.1356-4.4113,2.5494-2.0674-.2281-4.5166-6.0328-3.7951-10.445 1.4925-3.1645 1.0827-2.1468 .9269-3.5371-37.525-.9558-75.409-2.6288-112.22-2.151-28.8,.1197-57.244,1.3149-85.687,2.5101-15.177-.2394-26.769-2.6299-34.776-14.341 .7173,0 38.72,2.151 49.835,1.4336 20.555-.2394 39.317-1.9115 60.231-2.5091 41.23,.7163 82.103,.7173 123.33,3.5846-3.9438-2.698-4.0852-9.0714 1.9848-10.629 .5161-.3551 .7824,3.1686 1.6906,3.1026 4.8562-.3643 2.7269,6.2144 1.6586,7.5706z"/><path d="m188.64,135.28c-6.2485,17.859 3.5794,37.394 10.394,35.492 4.916,2.0354 8.0465-7.3168 10.059-17.563 1.3769-2.8755 2.4172-3.182 3.1242-1.704-.1817,13.625 .9785,16.643 4.4815,20.779 7.8142,6.0286 14.278,.77 14.785,.2622l6.0844-6.0844c1.3542-1.4243 3.1573-1.5079 5.0698-.2529 1.8589,1.6896 1.5977,4.6084 5.5776,6.6324 3.3492,1.3397 10.51,.3096 12.169-2.5762 2.2325-3.8261 2.7682-5.14 3.8024-6.5912 1.5936-2.121 4.3102-1.1776 4.3102-.5078-.2539,1.1828-1.8485,2.3667-.7607,4.497 1.895,1.4212 2.3326,.5068 3.4535,.1909 3.9644-1.895 6.941-10.518 6.941-10.518 .1755-3.2078-1.6225-2.9426-2.7888-2.282-1.5214,.9299-1.6204,1.2272-3.1418,2.1572-1.9383,.288-5.6984,1.573-7.5572-1.3056-1.8981-3.4607-1.9239-8.289-3.3751-11.78 0-.2539-2.5184-5.4981-.1744-5.8336 1.1828,.2198 3.7064,.8876 4.1079-1.2375 1.2406-2.0715-2.6567-7.9371-5.3237-10.901-2.3151-2.5411-5.5229-2.8476-8.6193-.2529-2.1685,1.9951-1.8568,4.2245-2.282,6.3373-.5522,2.4265-.4345,5.4114 2.0281,8.6193 2.1644,4.2678 6.1133,9.7639 4.8169,17.492 0,0-2.3068,3.6527-6.3259,3.1748-1.6751-.3654-4.3917-1.0765-5.8429-11.794-1.0982-8.1125 .2591-19.463-3.1841-24.784-1.2437-3.213-2.152-6.3156-5.1823-.8205-.8143,2.1582-4.3091,5.4331-1.7742,12.169 2.0735,4.2709 2.9178,11.221 1.9765,18.954-1.4367,2.1974-1.7556,2.9416-3.6393,5.139-2.6464,2.8456-5.5178,2.119-7.7172,1.0569-2.055-1.3851-3.664-2.1014-4.6022-6.5014 .1693-7.0133 .5604-18.494-.7215-20.929-1.8898-3.7724-5.0068-2.408-6.3383-1.2685-6.3971,5.8491-9.5575,15.718-11.489,23.577-1.7742,5.7273-3.662,4.0862-4.9893,1.7753-3.2316-3.0283-3.4504-26.709-7.3518-22.816z"/><path d="m207.45,174.1c2.8373-2.0096 1.511-3.4143 5.7541,.8278 5.3124,9.0827 8.7266,20.845 9.2386,31.266-.224,2.5679 1.5864,4.1935 2.4141,3.6352 .4923-6.0287 15.153-14.429 28.596-15.657 2.056-.4469 1.0559-4.3865 1.3913-6.3961-.8061-7.4633 4.1935-14.258 11.202-14.8 9.5379,1.4099 12.713,6.5024 12.874,14.275-1.0301,14.922-16.575,17.452-25.309,18.642-1.3397,.5068-1.8981,1.125 0,1.8558l36.595,.1662 1.8671,1.0786c.224,.8722-.5336,.1445-1.9786,2.5236-1.4439,2.379-3.5742,7.8648-3.6847,11.528-10.903,3.5061-22.18,5.042-33.642,6.4281-3.982,2.0137-5.9554,4.6972-5.1379,7.7172 1.3397,3.3492 10.16,6.6954 10.16,6.8544 1.6751,1.0507 3.6568,3.502-.4737,8.5254-17.851-.7854-31.683-8.3819-36.472-19.104-1.4429-1.1188-2.9973-.006-3.9933,1.4429-6.9689,8.9836-13.826,17.074-25.708,21.369-7.0856,1.7701-14.339-1.0868-17.765-5.7273-2.2934-2.6412-2.2056-5.557-3.0479-6.1886-3.8292,1.6937-36.785,15.697-32.608,9.1735 8.0207-8.5842 21.906-14.89 34.169-23.363 .8845-2.8384 2.4936-12.442 7.3374-15.57 .2797,.0237-.7679,5.6395-.6626,8.0083 .0547,1.9445-.1424,2.7062 .2828,2.2057 .8278-.5274 15.707-12.219 16.857-15.805 1.4512-2.056 .4356-7.2631 .4356-7.421-2.7909-7.1919-6.7047-7.8029-8.1559-11.376-1.3067-4.7468-.7153-10.165 1.9982-11.675 2.409-2.1871 5.2628-1.9167 7.8947,.4737 3.0056,2.6918 5.6746,7.9525 6.4467,11.872-.5161,1.5502-3.9324-1.0301-5.1183-.2611 2.0983,2.1726 3.0778,4.6786 3.8354,7.7451 1.9383,8.2085 1.3469,11.4-.6038,16.708-6.6066,13.89-15.049,18.035-22.436,23.181-.1971,.0702-.3282,3.5247 2.4503,5.3929 .9578,1.0053 4.8107,1.5214 9.3418,.0702 8.7545-4.7746 17.843-13.569 22.355-23.367 1.3098-7.4117-.5068-15.27-2.4338-22.124-2.9034-6.6985-6.3228-16.262-6.3228-16.42-.1125-4.177 .2271-5.6261 2.0591-7.71z"/><path d="m111.64,135.47c4.2121,2.0085 12.131,1.1539 11.796-5.6375 0-.6007-.1527-2.633-.2126-3.1831-.8598-2.0023-3.2058-1.5079-3.7373,.5594-.1672,.6771 .2983,1.7794-.3148,2.12-.352,.3551-1.6978,.1466-1.6421-1.7298 0-.5976-.4407-1.2406-.706-1.6194-.2663-.1744-.4356-.2229-.9176-.2229-.5873,.0237-.578,.1765-.9,.6698-.1362,.5027-.3251,.9939-.3251,1.5637-.0733,.6678-.3251,.9062-.8164,1.0043-.5491,0-.4252,.0609-.8701-.2229-.2642-.289-.5945-.3994-.5945-.8928 0-.5109-.1156-1.3376-.2694-1.6751-.2333-.3076-.6079-.45-1.0301-.5584-2.3006,.008-2.4596,2.6319-2.3274,3.6279-.1724,.1878-.2704,4.8943 2.8672,6.1969z"/><path d="m235.11,187.73c4.2121,2.0085 14.238,.8525 11.796-5.6375 0-.6007-.1528-2.633-.2126-3.1831-.8598-2.0023-3.2058-1.5079-3.7373,.5594-.1672,.6771 .2983,1.7794-.3148,2.12-.352,.3551-1.6978,.1466-1.6421-1.7298 0-.5976-.4407-1.2406-.706-1.6194-.2663-.1744-.4356-.2229-.9176-.2229-.5873,.0237-.578,.1765-.9,.6698-.1362,.5026-.3251,.9939-.3251,1.5637-.0733,.6678-.3251,.9062-.8164,1.0043-.5491,0-.4252,.0609-.8701-.2229-.2642-.289-.5945-.3994-.5945-.8928 0-.5109-.1156-1.3376-.2694-1.6751-.2333-.3076-.6079-.45-1.0301-.5584-2.3006,.008-2.4596,2.6319-2.3274,3.6279-.1724,.1878-.2704,4.8943 2.8672,6.1969z"/><path d="m307.11,166.1c4.2121,2.0085 12.131,1.1539 11.796-5.6375 0-.6007-.1528-2.633-.2126-3.1831-.8598-2.0023-3.2058-1.5079-3.7373,.5594-.1672,.6771 .2983,1.7794-.3148,2.12-.352,.3551-1.6978,.1466-1.6421-1.7298 0-.5976-.4407-1.2406-.706-1.6194-.2663-.1744-.4356-.2229-.9176-.2229-.5873,.0237-.578,.1765-.9,.6699-.1362,.5026-.3251,.9939-.3251,1.5637-.0733,.6678-.3251,.9062-.8164,1.0043-.5491,0-.4252,.0609-.8701-.2229-.2642-.289-.5945-.3994-.5945-.8928 0-.5109-.1156-1.3376-.2694-1.6751-.2333-.3076-.6079-.45-1.0301-.5584-2.3006,.008-2.4596,2.6319-2.3274,3.6279-.1724,.1878-.2704,4.8944 2.8672,6.1969z"/><path d="m344.4,220.43c-7.3405,8.2725-4.1037,21.955-2.4462,24.903 2.4203,4.8417 4.369,7.9474 9.0786,10.342 4.2895,3.1573 7.6316,1.1838 9.4739-1.027 4.3164-4.4732 4.368-15.894 6.394-18.157 1.4212-4.1574 4.9996-3.4473 6.7367-1.605 1.6834,2.4203 3.6661,3.9809 6.1391,5.2979 4.0263,3.5516 8.834,4.2008 13.57,.964 3.2368-1.8155 5.3413-4.1615 7.2362-8.8185 2.1055-5.6313 .932-31.648 .5109-47.068-.162-1.2097-4.1842-21.205-4.1842-21.428 0-.224-.5315-10.205-.9743-12.583-.0774-.965-.3169-1.2427 .6946-1.1199 1.0724,.9021 1.2189,.9589 1.8888,1.2561 1.0827,.1982 2.0519-1.6442 1.3985-3.34-3.3492-6.1773-6.6985-12.356-10.048-18.533-.8061-.7937-1.8475-1.6658-3.1263,.224-1.222,1.0714-2.5236,3.0107-2.4833,5.5033 .2973,4.3917 1.0693,8.8608 1.3665,13.253 1.3397,7.517 2.6804,15.035 4.0201,22.552 1.2654,16.076 1.5822,29.233 2.8476,45.309-.1775,6.8069-2.2934,12.742-4.2782,13.598 0,0-3.02,1.7505-5.045-.1827-1.4728-.5914-7.3684-9.8248-7.3684-9.8248-3.0138-2.763-5.0007-1.9734-7.1454,0-5.9141,5.7108-8.5904,16.394-12.609,23.763-1.0363,1.6442-3.9654,3.052-7.2104-.1197-8.2415-11.259-3.4112-27.278-4.4371-23.159z"/><path d="m309,126.67c3.7735,1.5792 6.4353,9.2231 5.5673,12.955-.7514,4.6167-2.7527,9.6029-4.1915,8.9537-1.5637-.5801 1.0662-4.5888-.4366-8.7958-.835-2.7382-5.9843-7.741-5.4424-9.2159-1.0631-3.0902 2.1891-4.4423 4.5032-3.8973z"/><path d="m356.55,224.96c.7937-9.1787-.546-14.776-.7844-20.171-.2374-5.3949-6.1019-46.559-7.291-50.641-1.4347-7.7182 5.7004-1.0352 4.9212-5.5239-2.4688-5.6592-8.6121-13.9-10.541-18.816-1.1601-2.1066-.673-3.9799-3.2708-.5542-2.409,7.8762-3.245,14.314-2.3254,19.205 6.1876,32.291 12.533,59.14 11.526,89.879 2.9343,.0196 6.3166-6.714 7.7657-13.377z"/><path d="m421.02,139.68c3.4401,1.7102 5.4548,11.289 5.075,14.026-.6843,4.9986-2.5091,10.397-3.8209,9.6937-1.4254-.6275 .2859-7.4127-.3984-9.5224-.7607-2.9643-5.4548-8.3809-4.9614-9.9776-.9692-3.3451 1.9961-4.8087 4.1058-4.2193z"/><path d="m165.35,207.6c3.2904,1.2561 5.2195,8.2952 4.8562,10.307-.6564,3.6723-2.4028,7.6388-3.6558,7.1227-1.3645-.4614 .2735-5.4476-.3819-6.9978-.2776-3.76-4.8448-5.7066-4.7488-7.3312-.8525-2.9859 1.9105-3.535 3.9303-3.1005z"/></g><path fill="#1b9d00" d="m244.86,218.17c4.2472,.2694 6.3692,3.6021 2.3914,4.9996-3.9242,1.3438-7.6955,2.3935-7.7131,8.064 1.4512,7.902-1.991,5.1906-4.0439,4.1172-2.4193-1.7371-9.2086-5.9192-10.176-14.95-.1455-2.1551 1.5348-3.9685 4.24-3.9561 4.0748,1.1075 10.087,1.188 15.301,1.7257z"/><g fill="#fff"><path d="m77.399,124.39c4.8551,1.4636 5.1421,8.5997 4.7839,10.686-.6471,3.8075-2.3667,7.9195-3.6021,7.3838-1.3438-.4779-.0526-5.6468-.6977-7.2548-.7194-2.2583-4.8221-6.3837-4.3566-7.5996-.9134-2.5494 1.8826-3.6651 3.8725-3.2151z"/><path d="m173.28,158.03c-3.725,2.0147-5.1699,8.0207-2.8507,11.518 2.1664,3.0799 5.5879,1.9383 6.0441,1.9383 3.6496,.4562 5.815-6.842 5.815-6.842s.1146-2.0519-4.2193,1.8258c-1.8238,.3416-2.0519-.3427-2.5081-1.3696-.3798-1.9002-.3045-3.8003 .5697-5.7015 .6461-1.8238-.7607-2.6226-2.8507-1.3686z"/><path d="m201.22,121.63c-1.8723,1.2551-5.5982,5.1152-5.7118,9.5626-.1135,2.5091-.5811,2.5019 1.0621,4.0986 1.187,1.7113 2.3842,1.5575 4.7798,.3024 1.3758-1.0135 1.8413-1.6865 2.3047-3.3864 .5708-2.8507-3.0138,1.3521-3.47-1.8207-.7978-2.9457 1.5038-4.1512 3.6702-7.002 .0723-1.9528 .0299-3.3358-2.635-1.7546z"/><path d="m223.73,125.63c-.8071,1.7825-1.7742,11.093-1.6132,11.093-.644,2.7744 2.9034,3.9613 4.5166,.3953 2.4183-6.5375 2.4183-9.3108 2.5803-12.084-.7534-4.2245-3.6021-4.0924-5.4837,.5955z"/><path d="m365.65,197.85c.4841-.4841 19.998-14.353 19.998-14.353 1.9889-.6987 1.5585,7.1496 .6451,7.0959 .3757,1.5585-19.245,14.89-20.644,14.353-.9671,.6987-1.9352-5.3753 0-7.0959z"/><path d="m383.44,197.73c3.4401,1.7102 4.8097,11.773 4.4299,14.51 .1218,5.3216-3.3152,9.5905-4.627,8.8876-1.4254-.6275 .1249-6.6066-.5594-8.7163-.7607-2.9643-3.6816-8.5419-3.1882-10.139-.9692-3.3451 1.8351-5.1317 3.9448-4.5424z"/><path d="m267.37,241.07c1.3572-1.9838 5.5498-4.8386 5.6447-4.8386 1.9342-.9681 3.824,.7586 3.7095,.6451 .322,1.9352-1.2241,3.7363-.74,6.3176 .4232,1.0404 .7328,2.1953 2.6392,1.7546 3.0984-2.4379 5.9688-2.5948 9.0672-2.7506 2.3749,.1435 2.4688,4.1636 .9671,4.1935-5.7211,1.2437-8.2849,2.7754-12.37,4.3349-1.9352,1.1281-3.5959-.3034-3.5959-.4645s-1.1322-1.0982-.3416-3.662c.1404-2.056-.6874-3.1831-2.3997-2.9498-1.2902,.6977-2.4265,1.1601-3.0716-.3231-.2539-1.0951-.3365-1.6277 .4913-2.2573z"/><path d="m403.97,246.49c.836,1.0641 1.3769,2.0488-.0671,3.7972-1.3686,1.254-2.3326,1.9445-3.7012,3.1986-.6461,1.1023-1.059,2.7744 .9176,3.3069 3.6496,1.0259 12.088-4.4474 12.088-4.562 1.3686-1.0259 .9124-2.9643 .7978-2.9643-.7978-.9124-2.5958-.3705-3.8054-.5181-.5759,0-2.4647-.2859-1.5657-1.9579 .7504-1.0404 1.0187-1.6772 1.5276-2.9591 .5697-1.254 .0805-2.0911-1.9724-2.7754-2.0911-.3798-2.9261-.1899-5.2453,0-1.254,.2663-1.6824,.8267-1.9105,2.3471 .0898,2.3058 1.4924,2.1747 2.9364,3.0871z"/></g><g fill="#259f00"><path d="m384.69,181.37c0,1.7259-1.539,3.125-3.4375,3.125s-3.4375-1.3991-3.4375-3.125 1.539-3.125 3.4375-3.125 3.4375,1.3991 3.4375,3.125z" transform="matrix(.89344 .51677 -.31006 .53607 -19.345 -106.28)"/><path d="m384.69,181.37c0,1.7259-1.539,3.125-3.4375,3.125s-3.4375-1.3991-3.4375-3.125 1.539-3.125 3.4375-3.125 3.4375,1.3991 3.4375,3.125z" transform="matrix(.32696 .71792 -.58738 .14386 159.8 -166.12)"/></g><path fill="#209000" d="m355.24,374.97c9.3511,.4562 18.137,.1063 27.488,.5625 1.6937,1.4398 .4841,4.9759-.6451,4.722-3.0406-.0764-4.7922-.1517-7.8328-.2281-.1042-2.9787-7.7059-2.4895-7.487,.0949-4.1048,.4934-7.807-.1435-11.912-.2952-1.2138-1.511-1.0579-4.2317 .3891-4.8562z"/></g></svg>