<svg xmlns="http://www.w3.org/2000/svg" viewBox="0 0 640 480"><defs><clipPath id="clipPath15551" clipPathUnits="userSpaceOnUse"><path fill-opacity=".67" d="M 0,0 H682.67 V512 H0 z"/></clipPath></defs><g fill-rule="evenodd" stroke-width="1.25" clip-path="url(#clipPath15551)" transform="scale(.9375)"><path fill="#0000d6" d="m.0001,507.17 987.43-507.17h-987.43v507.17z"/><path fill="#006000" d="m1024,0-996.83,512h996.83v-512z"/><path fill="#fc0" d="m1024,.0001h-54.858l-969.14,485.36v26.64h54.857l969.14-484.4v-27.596z"/><g fill="#fff"><path d="m533.78,256.9 21.83,67.38 70.83-.05-57.34,41.58 21.94,67.35-57.27-41.68-57.27,41.67 21.95-67.34-57.33-41.6 70.83,.07z" transform="matrix(.54314 0 0 .51115 -218.52 -122.19)"/><path d="m533.78,256.9 21.83,67.38 70.83-.05-57.34,41.58 21.94,67.35-57.27-41.68-57.27,41.67 21.95-67.34-57.33-41.6 70.83,.07z" transform="matrix(.54314 0 0 .51115 -27.378 -122.19)"/><path d="m533.78,256.9 21.83,67.38 70.83-.05-57.34,41.58 21.94,67.35-57.27-41.68-57.27,41.67 21.95-67.34-57.33-41.6 70.83,.07z" transform="matrix(.54314 0 0 .51115 -27.378 22.289)"/><path d="m533.78,256.9 21.83,67.38 70.83-.05-57.34,41.58 21.94,67.35-57.27-41.68-57.27,41.67 21.95-67.34-57.33-41.6 70.83,.07z" transform="matrix(.54314 0 0 .51115 -122.39 -49.108)"/><path d="m533.78,256.9 21.83,67.38 70.83-.05-57.34,41.58 21.94,67.35-57.27-41.68-57.27,41.67 21.95-67.34-57.33-41.6 70.83,.07z" transform="matrix(.54314 0 0 .51115 -218.52 22.289)"/></g></g></svg>