<svg xmlns="http://www.w3.org/2000/svg" viewBox="0 0 640 480"><defs><clipPath id="clipPath15251" clipPathUnits="userSpaceOnUse"><path fill-opacity=".67" d="m0,0h640v480h-640z"/></clipPath></defs><g clip-path="url(#clipPath15251)"><g fill-rule="evenodd" transform="matrix(.9375 0 0 .9375 -1.2495 -0)"><g stroke-width="1.25"><path fill="#fff" d="m-20,0h768v512h-768z"/><path fill="#df0000" d="m-20,0h768v256h-768z"/></g><g fill="#fff" stroke-width=".524"><path d="m157.12,42.909c-35.46,8.13-61.807,34.386-69.256,70.081-10.121,48.5 21.466,95.99 70.066,106.12-49.1,14-99.829-14.22-113.7-62.86-13.863-48.64 14.358-99.372 63-113.24 17.075-4.8694 32.795-4.9 49.892-.1009z"/><path d="m262.25,522.28 3.94,12.17-10.41-7.43-10.36,7.5 3.85-12.19-10.33-7.53 12.78-.11 3.97-12.16 4.05,12.13 12.79,.02z" transform="matrix(1.3251 0 0 1.3251 -204.33 -574.79)"/><path d="m262.25,522.28 3.94,12.17-10.41-7.43-10.36,7.5 3.85-12.19-10.33-7.53 12.78-.11 3.97-12.16 4.05,12.13 12.79,.02z" transform="matrix(1.3251 0 0 1.3251 -185.6 -519.26)"/><path d="m262.25,522.28 3.94,12.17-10.41-7.43-10.36,7.5 3.85-12.19-10.33-7.53 12.78-.11 3.97-12.16 4.05,12.13 12.79,.02z" transform="matrix(1.3251 0 0 1.3251 -123.28 -519.66)"/><path d="m262.25,522.28 3.94,12.17-10.41-7.43-10.36,7.5 3.85-12.19-10.33-7.53 12.78-.11 3.97-12.16 4.05,12.13 12.79,.02z" transform="matrix(1.3251 0 0 1.3251 -104.69 -574.74)"/><path d="m262.25,522.28 3.94,12.17-10.41-7.43-10.36,7.5 3.85-12.19-10.33-7.53 12.78-.11 3.97-12.16 4.05,12.13 12.79,.02z" transform="matrix(1.3251 0 0 1.3251 -154.03 -611.28)"/></g></g></g></svg>