<svg xmlns="http://www.w3.org/2000/svg" viewBox="0 0 640 480"><defs><clipPath id="0"><path d="m-15.07 0h682.67v512h-682.67z"/></clipPath></defs><g fill-rule="evenodd" stroke-width="1.25" clip-path="url(#0)" transform="matrix(.9375 0 0 .9375 14.13 0)"><path fill="#fff" d="m-62 0h1024v512h-1024z"/><path fill="#de2918" d="M -62,341.33 H962 V512 H-62 z"/><path fill="#08399c" d="m-62 170.67h1024v170.67h-1024z"/><path fill="#de2918" d="m228.37 92.98c-4.02 61.65-6.322 95.44-15.709 111.07-10.15 16.789-20.03 29.08-59.63 43.882-39.61-14.81-49.48-27.1-59.63-43.89-9.387-15.63-11.69-49.41-15.709-111.06l5.853-1.972c11.783-3.593 20.574-6.484 27.08-7.766 9.313-1.971 17.228-4.2 42.26-4.722 25.03.43 32.983 2.798 42.3 4.769 6.449 1.375 15.617 4.081 27.312 7.744l5.884 1.948z"/><path fill="#08399c" d="m222.6 90.95c-3.802 61.52-6.983 89.69-11.943 103.24-9.626 23.19-24.866 35.909-57.665 48.04-32.8-12.14-48.04-24.86-57.664-48.05-4.961-13.54-8.095-41.64-11.788-103.3 11.534-3.602 20.577-6.418 27.08-7.701 9.313-1.972 17.228-4.293 42.26-4.724 25.03.431 33.04 2.752 42.35 4.724 6.503 1.283 15.732 4.098 27.373 7.763z"/><path fill="#fc0" d="m152.96 109.79l1.573 3.723 6.91.947-4.478 2.7 4.329 2.894-6.297 1.055-1.917 3.373-2.155-3.474-5.995-.851 4.08-2.957-4.201-2.691 6.636-1.017 1.514-3.703"/><path fill="#fff" d="m208.28 179.62l-3.831-3.03-2.768-4.554-5.422-4.704-2.826-4.753-5.422-4.852-2.653-4.752-2.883-2.328-1.903-1.832-4.898 4.295-2.67 4.665-3.327 3.02-3.655-2.855-2.763-4.866-10.258-18.217-10.259 18.217-2.763 4.866-3.655 2.855-3.327-3.02-2.67-4.665-4.898-4.295-1.903 1.832-2.883 2.328-2.653 4.752-5.422 4.852-2.826 4.753-5.422 4.704-2.768 4.554-3.821 3.099c1.984 16.886 12.748 30.12 18.613 36.17 6.545 6.355 20.04 14.858 36.54 20.486 16.548-5.508 30.23-14.13 36.774-20.486 5.865-6.05 16.629-19.282 18.625-36.24"/><g fill="#fc0"><path d="m169.45 83.89l1.573 3.723 6.91.947-4.478 2.7 4.329 2.894-6.297 1.055-1.917 3.373-2.155-3.474-5.995-.851 4.08-2.957-4.201-2.691 6.636-1.017 1.514-3.703"/><path d="m136.47 83.83l1.573 3.723 6.91.947-4.478 2.7 4.329 2.894-6.297 1.055-1.917 3.373-2.155-3.474-5.995-.851 4.08-2.957-4.201-2.691 6.636-1.017 1.514-3.703"/></g><g fill="#08399c"><path d="m199.72 203.03l-7.469.023-6.892-.513-8.348-4.094-9.409.057-8.149 3.981-6.428.568-6.428-.568-8.149-3.981-9.409-.057-8.348 4.094-6.892.513-7.562-.104-3.652-6.186.135-.142 11.172 1.848 6.892-.513 8.348-4.094 9.409.057 8.149 3.981 6.428.568 6.428-.568 8.149-3.981 9.409-.057 8.348 4.094 6.892.513 10.874-1.907.144.286-3.643 6.182"/><path d="m113.25 212.54l7.393-.513 8.348-4.094 9.409.057 8.149 3.981 6.428.568 6.428-.568 8.149-3.981 9.409-.057 8.348 4.094 7.494.513 4.835-5.96-.163-.135-5.18 1.51-6.892-.513-8.348-4.094-9.409.057-8.149 3.981-6.428.568-6.428-.568-8.149-3.981-9.409-.057-8.348 4.094-6.892.513-5.077-1.28-.061.249 4.543 5.615"/></g></g></svg>