<svg xmlns="http://www.w3.org/2000/svg" viewBox="0 0 640 480"><defs><clipPath id="0"><path d="m-26.334 0h682.67v512h-682.67z"/></clipPath></defs><g fill-rule="evenodd" stroke-width="1.25" clip-path="url(#0)" transform="matrix(.9375 0 0 .9375 24.688 0)"><path fill="#fff" d="m-69 0h768v512h-768z"/><path fill="#01017e" d="m-69 170.67h768v341.33h-768z"/><path fill="#fe0101" d="m-69 341.33h768v170.67h-768z"/><path fill="#fff" d="m64.736 116.2v143.57c9.833 56.05 35.893 113.09 123.9 142.09 87.52-29.01 115.54-83.59 125.87-143.08v-142.59h-249.77z"/><path fill="#fe0101" d="m74.57 127.51v125.38c8.85 45.726 26.06 108.17 114.07 137.18 87.52-29.01 107.68-91.45 115.54-137.18v-125.38h-229.61"/><path fill="#fff" d="m202.41 203.23v20.16h40.32c5.406 0 10.489-2.623 15.734-3.934v37.859c-5.409-1.147-10.696-3.441-16.226-3.441h-39.33v46.22l-27.04-.983v-45.23h-38.35c-5.764 0-11.144 2.95-16.717 4.424v-40.32c5.245 1.639 10.239 4.917 15.734 4.917h39.33v-20.16h-29.01c-5.083 0-9.506 3.606-14.259 5.409v-38.35c5.409 2.295 10.35 6.883 16.226 6.883h27.534v-17.209c0-8.04-4.589-15.406-6.884-23.11h38.842c-1.967 7.867-5.9 15.492-5.9 23.601v16.717h26.06c6.799 0 13.11-3.605 19.668-5.408v37.859c-5.901-1.967-11.482-5.901-17.701-5.901h-28.03z"/><path fill="#01017e" d="m152.75 305.5c-23.11-11.555-45.18-5.102-55.744 13.398 16.41 31.344 47.632 56.666 91.64 71.17 43.76-14.505 75.6-39.826 93.05-69.69-13.597-25.94-39.457-22.495-56.17-14.381-11.8-29.01-59.985-27.534-72.77-.492"/></g></svg>