<svg xmlns="http://www.w3.org/2000/svg" viewBox="0 0 640 480" xmlns:xlink="http://www.w3.org/1999/xlink"><defs><path id="0" d="m442.88 239.3c0 1.109-.899 2.01-2.01 2.01s-2.01-.899-2.01-2.01.899-2.01 2.01-2.01 2.01.899 2.01 2.01"/></defs><g fill-rule="evenodd"><g stroke-width="1.25" transform="scale(.64.8)"><path fill="#19b6ef" d="m0 300h1000v300h-1000z"/><path fill="#fff" d="m0 0h1000v300h-1000z"/></g><path fill="#fd0" stroke="#7d6c00" stroke-width="1.333" d="m469.46 343.7c31.488-23.557 65.41-71.62 25.659-96.9-7.406-1.434-15.673-1-19.639 2.15-2.102-1.195-3.775-1.099-5.877 1.147-1.481-1.816-2.963-2.629-6.02-1.72-6.116-3.106-11.658-3.775-18.921-1.864-34.594 20.785-13.427 70.1 24.799 97.19z" transform="matrix(1.6657 0 0 1.6657-464.91-233.28)"/></g><g stroke="#3a9d4f" stroke-width="1.333" transform="matrix(1.6657 0 0 1.6657-464.91-233.28)"><g fill="#4fd46b" fill-rule="evenodd" stroke-linejoin="round"><path d="m527.7 290.2s3.544-4.766 3.666-4.766c3.544-2.078 3.911-4.766 3.911-4.766 3.544-1.1 2.444-4.03 2.688-4.399 1.712-1.833 1.1-3.667.856-4.278 0-.488 1.222-5.01-.489-5.621.081-4.807-2.892-4.359-5.255-1.222-2.526.733-3.096 2.811-2.2 5.133-3.3 0-3.422 4.766-2.444 7.454-4.399-.122-1.955 4.766-2.078 5.01-1.466.733 1.1 7.699 1.345 7.454z"/><path d="m499.95 331.14c.733.448 1.467.896 2.2 1.344.448 1.67 1.996 2.73 3.178 2.445.57 2.566 3.34 2.2 5.377.733 1.629 2.363 3.626 2.404 6.355 1.589 2.444 1.792 5.622 1.018 7.699-.856 2.24 1.833 3.748.489 4.888-1.466 1.751.448 3.136.163 3.788-1.589 3.422-.285 1.711-3.503-1.099-4.888 2.24-1.956 4.725-5.989 1.222-6.6-1.1-.814-3.177-.651-4.766.123-.407-1.793-2.893-2.241-5.622-.245-.937-1.996-4.196-1.059-5.744.367-1.955-1.711-4.277-1.711-7.699.244l-9.777 8.799z"/><path d="m499.95 325.89c.407-2.24-1.141-6.314 1.222-6.721-.448-3.748.204-7.984 4.522-7.577.693-3.544.53-6.844 4.644-7.333 0 0 3.3-11.487 6.722-3.544 1.344 2.323 1.1 6.11-1.589 5.377.53 2.852-.407 5.336-3.544 5.255 1.385 1.996.937 4.726-.611 5.989-3.789 2.851-7.577 5.703-11.366 8.554z"/><path d="m519.87 311.59c1.181-.244 2.363-.489 3.544-.733 3.666-2.444 5.133-3.422 6.966-.734 3.055-.652 5.988-.326 5.866 2.078 3.626.244 3.585 2.566 3.178 4.399.57 3.218-.815 7.414-3.056 2.322-7.088-4.318-11.12-3.748-22.364-1.222 1.955-2.037 3.911-4.073 5.866-6.11z"/><path d="m521.71 308.04c.123-.122 10.51-2.811 9.41-5.988 2.933-.489 3.545-3.422 3.667-3.422 6.11-1.955 5.743-5.5 5.743-5.5 1.752-1.874 4.848-3.748 4.156-7.088.204-3.788.529-6.11-4.522-3.666-3.789-.367-5.133 1.833-6.233 5.133-1.792-2.118-4.684 1.263-5.01 4.277 0 0-4.644 4.522-4.644 4.644s-3.911 7.21-3.911 7.21c.448 1.467.896 2.933 1.344 4.4z"/><path d="m521.95 299.98c-2.485-1.874-3.87-4.114-3.422-6.355-1.629-2.2-2.77-3.544-1.222-5.499 0 0-1.222-4.4-1.222-4.522-3.177-1.222-1.833-3.91-.978-4.888-1.507-2.078-1.548-4.278-.122-6.233-.041-3.911 2.729-2.444 5.01 0 0 0 3.789 2.689.978 5.133 2.811.978 3.667 3.421 2.078 4.399 2.444 1.1 2.81 3.3 1.466 4.767 2.485 1.996 1.548 4.481 2.322 6.721-1.629 2.159-3.259 4.318-4.888 6.477z"/><path d="m526.35 281.77c-.122-.122-4.155-5.255-3.055-5.622-.244-1.589-1.466-3.3-.733-4.888-1.996-1.996-2.037-4.358-.489-6.232-1.344-1.833-.733-4.277 1.1-5.866-.57-3.01 1.548-3.707 3.422-4.278 1.385-4.848 3.625-3.585 4.888.122 1.915 1.67 1.63 4.196.978 6.111 2.281 1.548.896 3.462-.122 4.277-1.996 5.459-3.993 10.917-5.989 16.376z"/><path d="m525.74 255.98l-3.422-3.422c.884-1.813 1.596-5.01-.977-6.477-1.419-3.456-8.514-7.74-9.655.489-1.08-2.483-3.34-4.929-5.01-2.077-3.707-3.177-5.703-2.2-3.789 1.833 0 0-1.71 2.688 2.811 4.766.367.366-1.466 4.888 3.911 5.01-1.018 1.548.652 3.707 2.811 3.544-1.548 1.915 1.059 3.952 2.688 3.178-.693 2.118-.652 3.137 2.322 3.422 1.1 1.263 2.2 2.525 3.3 3.788.896 1.222 1.792 2.444 2.688 3.666.774-5.907 1.548-11.813 2.322-17.72z"/></g><g fill="none" stroke-linecap="round"><path d="m527.82 288.04c.173-.173 6.567-14.863 7.431-19.357"/><path d="m528.51 261.95s1.037 11.925-1.901 20.739"/><path d="m508.81 249.85s13.14 12.616 14.344 17.801"/><path d="m517.97 248.47s.864 10.37 4.493 20.567"/><path d="m541.13 286.14s-13.13 11.06-19.53 20.739"/><path d="m528.68 324.86s-17.283 2.42-24.887 2.593"/><path d="m522.98 332.29s-21.431-.519-22.987-2.074"/><path d="m512.26 304.46c0 .172-10.888 18.15-11.234 24.02"/></g></g><g transform="matrix(1.6657 0 0 1.6657-464.91-233.28)"><g fill-rule="evenodd"><path fill="#65c7ff" stroke="#7d6c00" stroke-width="1.333" d="m469.34 340.23c-22.674-21.387-45.899-61.52-22.796-81.81 4.106 2.329 8.947.245 15.627-2.39 2.02 2.206 4.595 2.758 7.169 1.103 2.88 1.226 5.02.245 6.435-1.287 6.557 3.8 14.952 5.761 16.913 2.023 22.735 21.57-.307 61.893-23.348 82.36z"/><path fill="#8fc753" d="m469.47 339.61c-9.737-9.79-18.621-20.643-25.423-34.616 1.164-.98 1.705-1.284 2.318-3 3.493.491 5.331.613 9.927-.184.919 3.432 1.103 6.312 3.309 9.192 1.532-3 3.064-6 4.596-9.01 3.125.736 6.986.92 9.927 0 1.9 2.574 1.226 6.435 4.596 9.376 2.02-5.944 4.045-6.373 6.067-9.56 3 1.042 4.903.613 7.354-.184 1.287 1.471.644 1.447 2.987 3.606-6.143 12.199-14.567 24.451-25.658 34.378"/><g fill="#fff" stroke="#000" stroke-width=".667"><use transform="translate(-.087-.611)" xlink:href="#0"/><use transform="translate(-2.183-5.24)" xlink:href="#0"/><use transform="translate(-4.629-9.52)" xlink:href="#0"/><use transform="translate(-6.288-13.712)" xlink:href="#0"/><use transform="translate(-6.03-18.253)" xlink:href="#0"/><use transform="translate(4.577-25.764)" xlink:href="#0"/><use transform="translate(.611-25.07)" xlink:href="#0"/><use transform="translate(-3.755-22.445)" xlink:href="#0"/><use transform="translate(9.694-25.677)" xlink:href="#0"/><use transform="translate(15.284-25.24)" xlink:href="#0"/><use transform="translate(20.262-25.502)" xlink:href="#0"/></g><use fill="#fd0" stroke="#7d6c00" stroke-width=".26" transform="matrix(2.5652 0 0 2.5652-661.33-403.26)" xlink:href="#0"/><g fill="#fff" stroke="#000" stroke-width=".667"><use transform="translate(37.29-25.589)" xlink:href="#0"/><use transform="translate(42.533-25.15)" xlink:href="#0"/><use transform="translate(47.598-25.415)" xlink:href="#0"/><use transform="translate(51.877-25.589)" xlink:href="#0"/><use transform="translate(57.2-24.978)" xlink:href="#0"/><use transform="translate(61.4-22.358)" xlink:href="#0"/></g><path fill="#e40000" stroke="#ac0000" stroke-width="1.333" d="m440.85 231.12c1.711 3.254 3.421 6.634 5.132 9.888h47.565c1.836-3.171 3.672-6.342 5.508-9.513-3.213-2.211-5.424-3.922-10.01-2.879-2.587-3.713-5.424-4.422-9.638-4-1.252-1.293-2.379-2.086-4.507-2.378-3.338.083-6.675.167-10.01.25-2.629.25-4.632 2.253-4.757 2.253-4.256-.501-8.136-.376-9.137 3.755-3.88-.96-6.634.084-10.139 2.629z"/><g fill="#fff" stroke="#000"><g stroke-width=".667"><use transform="translate(63.14-17.991)" xlink:href="#0"/><use transform="translate(63.49-13.275)" xlink:href="#0"/><use transform="translate(62.01-8.908)" xlink:href="#0"/><use transform="translate(60.17-5.327)" xlink:href="#0"/><use transform="translate(57.991-.786)" xlink:href="#0"/></g><use stroke-width=".451" transform="matrix(1.4783 0 0 1.4783-181.95-121)" xlink:href="#0"/><use stroke-width=".374" transform="matrix(1.7826 0 0 1.7826-316.13-200.65)" xlink:href="#0"/><use stroke-width=".414" transform="matrix(1.6087 0 0 1.6087-239.63-165.67)" xlink:href="#0"/></g><path fill="#fd0" stroke="#7d6c00" stroke-width=".667" d="m468.51 205.52c0-.556-.017-2.5.022-2.578l-2.144-.039.061-1.906 1.861-.022.022-1.666h2.639v1.527h2.083l-.043 2.028-2.162-.022-.017 2.717-2.322-.039z"/></g><g fill="none" stroke="#fd0" stroke-width="2"><path d="m445.74 241.01c-4.257-7.218-10.512-17.03-6.635-21.279 5.376-6.089 17.982-.584 26.04-4.131.584 6.885-1.335 18.275 1.753 20.654-.96.834-1.92 1.669-2.879 2.503-1.753-2.253-5.05-5.272-9.137.125-2.337-2.043-4.993-1.684-6.244 1.033-1.19.16-1.121.636-2.893 1.095z"/><path d="m493.84 240.76c4.257-7.218 10.512-17.03 6.635-21.279-5.376-6.089-17.982-.584-26.04-4.131-.584 6.885 1.335 18.275-1.753 20.654.96.834 1.92 1.669 2.879 2.503 2.77-3.895 6.227-4.02 9.137.125 2.337-2.043 4.758-1.763 6.244 1.033 1.19.16 1.121.636 2.893 1.095z"/></g><g fill-rule="evenodd"><path fill="#fd0" stroke="#7d6c00" stroke-width="1.333" d="m445.61 246.39c17.11-1.752 32.962-1.127 47.566 0 .626-1.794 1.251-3.589 1.877-5.383-16.606-3-28.08-3.379-49.818-.375.125 1.919.25 3.839.375 5.758z"/><g fill="#c76e2e"><path d="m467.69 337.79c.123-.858.245-1.658.368-2.516 1.701.458 2.999.281 4.412-.241.49-.736.981-1.471 1.471-2.207-.368-.429-.735-.857-1.103-1.286-.97.209-1.766 1.11-2.39 1.896-.977.046-1.839-.426-2.758-.61-.306-1.287-.613-2.573-.919-3.86-.912-1.078-2.804-1-2.39.919.061.49.123.981.184 1.471.368.919.505 2.184 1.103 2.872v1.508c.674.685 1.348 1.369 2.02 2.054"/><path d="m468.42 326.81c-1.279.634-2.797-.469-4.412-1.103-1.471-.101-2.653 1.124-4.412.735.321-.955 1.103-1.103 1.655-1.655-.404-2.48.919-3.309 1.287-3.309.367 0 1.838.368 1.838.368.49.061.981.123 1.471.184.858 1.593 2.061 3.01 2.573 4.78"/></g><path fill="#ffe100" stroke="#e9bf00" stroke-width="1.333" d="m459.68 359.83c4.242-6.887 33.775-20.717 61.49-50.58-28.21 27.16-45.841 33.83-68.927 50.41 2.479.055 4.959.111 7.438.166z"/><g stroke-width=".667"><g fill="#9d4916" stroke="#68300e"><path d="m500.28 328.07c0 1.188-.963 2.15-2.15 2.15s-2.15-.963-2.15-2.15.963-2.15 2.15-2.15 2.15.963 2.15 2.15z"/><path d="m520.92 306.71c0 1.346-1.091 2.437-2.437 2.437-1.346 0-2.437-1.091-2.437-2.437 0-1.346 1.091-2.437 2.437-2.437s2.437 1.091 2.437 2.437z" transform="translate(0 .43)"/><path d="m527.23 289.22c0 1.188-.963 2.15-2.15 2.15s-2.15-.963-2.15-2.15.963-2.15 2.15-2.15 2.15.963 2.15 2.15z" transform="translate(.573.143)"/><path d="m521.06 266.29c0 1.188-.963 2.15-2.15 2.15s-2.15-.963-2.15-2.15.963-2.15 2.15-2.15 2.15.963 2.15 2.15z"/></g><g fill="#fff" stroke="#a9a9a9"><path d="m446.68 301.9v-9.09l-.925-.77v-2.158l1.696-.154.308-10.173-1.079-.617-.154-1.695s1.233.462 1.233.154.308-2 .308-2-.77-.154-.77-.462.924-1.079.924-1.079-.462-.463-.616-.771-.462-1.695-.462-1.695l.462-1.696-.308-.925-.771-1.387 1.079-1.079s-.308-1.387-.308-1.695.77-1.541.924-1.696c.155-.154 1.388-1.849 1.388-1.849l2.62-.617 3.083.463 1.695 1.079.308 2.774s-.308 1.695-.462 1.695-1.387.617-1.387.617-1.542.154-1.696 0 .463 1.85.463 1.85v1.849l-.154 2.312s0 1.079-.155 1.233c-.154.154-.462.617-.462.617l-.154 2.312 2.466.616-.154 1.388-1.696.154.309 9.402 2.466.462v2.621l-1.079.616-.308 9.402h-8.632z"/><path d="m484.14 302.06v-9.09l-.925-.77v-2.158l1.696-.154.308-10.173-1.079-.617-.154-1.695s1.233.462 1.233.154.308-2 .308-2-.77-.154-.77-.462.924-1.079.924-1.079-.462-.463-.616-.771-.462-1.695-.462-1.695l.462-1.696-.308-.925-.771-1.387 1.079-1.079s-.308-1.387-.308-1.695.77-1.541.924-1.696c.155-.154 1.388-1.849 1.388-1.849l2.62-.617 3.083.463 1.695 1.079.308 2.774s-.308 1.695-.462 1.695-1.387.617-1.387.617-1.542.154-1.696 0 .463 1.85.463 1.85v1.849l-.154 2.312s0 1.079-.155 1.233c-.154.154-.462.617-.462.617l-.154 2.312 2.466.616-.154 1.388-1.696.154.309 9.402 2.466.462v2.621l-1.079.616-.308 9.402h-8.632z"/><path d="m465.18 302.37v-9.09l-.925-.77v-2.158l1.696-.154.308-10.173-1.079-.617-.154-1.695s1.233.462 1.233.154.308-2 .308-2-.77-.154-.77-.462.924-1.079.924-1.079-.462-.463-.616-.771-.462-1.695-.462-1.695l.462-1.696-.308-.925-.771-1.387 1.079-1.079s-.308-1.387-.308-1.695.77-1.541.924-1.696c.155-.154 1.388-1.849 1.388-1.849l2.62-.617 3.083.463 1.695 1.079.308 2.774s-.308 1.695-.462 1.695-1.387.617-1.387.617-1.542.154-1.696 0 .463 1.85.463 1.85v1.849l-.154 2.312s0 1.079-.155 1.233c-.154.154-.462.617-.462.617l-.154 2.312 2.466.616-.154 1.388-1.696.154.309 9.402 2.466.462v2.621l-1.079.616-.308 9.402h-8.632z"/></g></g><g stroke-width="1.25"><path d="m448.96 301.84v-7.167h4.01v7.454l-4.01-.287"/><path d="m467.88 302.41l.143-7.311h3.584v7.167l-3.727.144"/><path d="m486.52 302.27l-.287-6.88 3.871-.144v7.168l-3.584-.144"/><path d="m449.96 280.62h2.293v3.727h-2.293z"/><path d="m468.17 280.77h3.154v3.584h-3.154z"/><path d="m486.8 281.05h2.724v3.44h-2.724z"/></g></g><g fill="none" stroke="#a8a8a8" stroke-width=".667"><path d="m451.15 264.3c2.466 2.774 2.62 2.774 2.62 2.774"/><path d="m469.49 264.3c.462.924 1.233 2.928 2.158 3.082"/><path d="m489.22 264.76s.771 2.158 1.85 2.466"/></g><path fill="#b97700" fill-rule="evenodd" d="m448.53 256.53c7.211-2.331-1.685-6.993-3.162 0-2.333.377-2.635 2.108-7.678 1.356-12.195 19.873-3.162 51.941 32.52 85.14-63.911-54.39-37.938-94.62-20.24-93.1 9.626.658 4.77 12.665-1.44 6.605"/><g fill="none" stroke="#7d6c00" stroke-width="1.333"><path d="m450.54 246.34s5.872 1.581 5.872 4.065"/><path d="m456.41 245.89s4.065 1.806 4.968 3.387"/><path d="m488.48 246.57s-5.195.678-6.324 2.258"/><path d="m480.57 247.02s-2.935 2.484-2.71 3.161"/><path d="m479.9 257.86c-.452-.226-2.484-2.936-2.033-6.324"/><path d="m460.02 256.06s1.355-1.581 1.355-4.517"/><path d="m469.51 250.41l.226 6.549"/><path d="m475.38 256.06c0-.452 1.807-4.742-.226-6.775"/><path d="m462.96 248.38s-1.581 4.291-.451 7.904"/><path d="m474.48 252.22s-2.484.677-3.614 1.807"/><path d="m463.86 252.89c0-.225 2.71-.677 3.613.904"/></g><g fill-rule="evenodd"><g fill="#c76e2e"><path d="m459.59 321.27c.115.058 2.249-.404 2.249-1.442 1.096-.692.288-2.653.288-2.653-.673-.135-1.345-.269-2.02-.404l-2.769-3.114c-.134-.961.193-1.864-.403-2.883-1.903.5-2.999 2.095-3.634 3.921.462.577.52 1.211 1.385 1.73.903.154 1.518-.384 2.364-.23.442.769.307 1.423.461 2.134 1.154.807 1.385 1.961 2.077 2.941"/><path d="m457.11 307.95v-3.691c-.884-.039-1.769-.077-2.653-.116-.327.558-.942.827-1.327 1.327-.615.308-1.23.615-1.845.923.769.923 1.711 1.442 2.307 1.903 1.346.404 2.461.404 3.518-.346"/><path d="m448.8 313.43c-.481-.808-.961-1.615-1.442-2.423.884-.288 1.999-.173 2.826.173 0 0 .635 1.5.173 2.076-.231.519-1.615.289-1.557.174"/><path d="m470.72 315.91c.769-.384 1.48-1.057 1.615-2.02-.884-1.019-1.769-2.038-2.653-3.057-.807-.019-1.615-.038-2.422-.057-.557-.577-1.461-.692-2.191-.692 0 0 .75 1.153 1.73 1.384.692 1.556 3.691 4.44 3.921 4.44"/><path d="m473.32 316.25c0-.057 2.364-.865 3.633-.749-.115-.981 1.788-3.23 1.788-3.23l3.345 4.383c-.615.519-1.692.346-2.538.519 0 0-1.615 1.557-1.788 1.615s-3.114.749-4.556-.115c-.634-1.211.173-2.596.116-2.423"/><path d="m475.22 308.58c.404-1.403.519-2.807 0-4.556 0 0-3.807-.058-3.807 0 0 .057-2.537 1.153-2.537 1.211s.808 2.48 1.788 2.249c.442 1.288 1.749.961 2.364 1.442.731-.115 1.461-.231 2.192-.346"/><path d="m490.16 304.72c-.519 1.596-.807 3.307-.058 4.845.692.115 1.5.576 2.134.461 1.019-1.846 2.038-3.691 3.057-5.537-2.115-.673-3.826-.596-5.133.231"/></g><path fill="#b97700" d="m491.1 256.03c-7.211-2.331 1.685-6.993 3.162 0 2.333.377 2.635 2.108 7.678 1.356 12.195 19.873 3.162 51.941-32.52 85.14 63.911-54.39 37.938-94.62 20.24-93.1-9.626.658-4.77 12.665 1.44 6.605"/><g fill="#c76e2e"><path d="m491.83 310.95c-.115 0-1.845 1.268-1.845 1.268-.827.327-1.653.654-2.48.981-.884.019-1.769.038-2.653.057-.192-.615-.385-1.23-.577-1.845l2.02-1.788c-1.711-.25-3.422.423-4.787 1.673 0 0 0 2.02 1.154 2.999.692.864 2.71 2.422 2.71 2.422 1.269.25 2.48.038 3.287-.635 1.057-1.711 2.115-3.421 3.172-5.132"/><path d="m477.87 329.06c.866.231 6.806-7.67 6.806-7.67-.519-1.48-1.673-2.557-2.942-3.23 0 0-2.884 3.402-2.941 4.556-.461 1.038-1.787 5.02-1.211 5.537-.058.115-.288 1.729.288.807"/></g><path fill="#006800" stroke="#004100" stroke-linejoin="round" stroke-width="1.333" d="m439.02 330.6c-8.895-7.737-20.897-12-37.651-6.214 4.508 1.95 9.382 2.62 13.525 4.752 8.04.487 16.08.975 24.13 1.462z"/></g><g stroke-width="1.333"><path fill="none" stroke="#00a400" stroke-linecap="round" d="m413.25 325.11c17.546.365 22.664 4.751 21.75 4.02"/><g fill="#006800" fill-rule="evenodd" stroke="#004100" stroke-linejoin="round"><path d="m439.38 331.51c-5.24 1.035-12.49 6.096-14.622 5.848-5.727-.666-11.08-2.987-16.632-4.752-2.307-.733-4.631 0-6.946 0 19.679-9.321 26.381-8.04 38.2-1.096z"/><path d="m426.41 317.8s-6.579.913-9.504 1.096c-2.925-.182-7.177-2.907-11.88-7.859-2.455-2.689-8.04-2.376-8.04-2.376 12.368-2.62 21.993-.122 29.426 9.139z"/><path d="m417.45 305.01c-8.957-.549-20.11-8.59-22.664-18.09 0 .121 3.289 2.071 2.741 2.559 14.683 3.716 15.658 6.701 19.923 15.535z"/><path d="m432.44 320.36c1.279-8.103 1.645-13.464-2.193-18.277-3.168-3.656-3.96-5.849-6.214-10.967-.67 10.662-2.986 19.496 8.407 29.24z"/><path d="m418.36 297.88c6.64-9.687 7.798-16.998 6.762-28.513-.183.914-2.376 6.58-2.558 6.58-9.87 6.214-5.483 15.902-4.204 21.933z"/><path d="m412.52 251.09c6.64 9.687 5.605 18.826 4.569 30.341-.183-.914-2.376-6.58-2.558-6.58-9.87-6.214-3.29-17.73-2.01-23.761z"/><path d="m418 266.08c16.08-8.103 9.869-18.399 12.794-26.319-11.149 8.286-12.611 17.12-12.794 26.319z"/></g><g fill="none" stroke="#00a400" stroke-linecap="round"><path d="m420.19 264.07c2.01-5.666 6.03-15.353 6.397-15.353"/><path d="m415.44 275.95c-.365-4.02-2.375-14.806-2.558-15.902"/></g><g fill="#006800" fill-rule="evenodd" stroke="#004100" stroke-linejoin="round"><path d="m416.17 294.04c-8.957-.549-18.644-12.794-21.2-22.298 0 .121 3.289 2.071 2.741 2.559 12.855 5.726 14.196 10.905 18.461 19.739z"/><path d="m413.51 285.63c-6.64-9.687-7.798-16.998-6.762-28.513.183.914 2.376 6.58 2.558 6.58 9.87 6.214 5.483 15.902 4.204 21.933z"/><path d="m419.46 268.64c16.632-7.372 11.514-15.11 16.449-23.21-11.149 8.286-16.266 14.01-16.449 23.21z"/></g><path fill="none" stroke="#00a400" stroke-linecap="round" d="m420.19 266.99c6.763-6.763 9.139-12.429 9.139-12.429"/></g></g><g fill-rule="evenodd"><g transform="matrix(1.6657 0 0 1.6657-464.91-233.28)"><path fill="#ffe100" stroke="#e9bf00" stroke-width="1.333" d="m479.36 359.99c2.7.055 5.399.11 8.099.165-26.888-25.18-78.41-36.14-71.24-82.48-7.383 50.25 42.1 54.878 63.14 82.32z"/><g fill="#9d4916" stroke="#68300e" stroke-width=".667"><path d="m420.44 267.72c0 1.425-1.155 2.58-2.58 2.58s-2.58-1.155-2.58-2.58 1.155-2.58 2.58-2.58 2.58 1.155 2.58 2.58z"/><path d="m418.86 281.91c0 1.346-1.091 2.437-2.437 2.437-1.346 0-2.437-1.091-2.437-2.437 0-1.346 1.091-2.437 2.437-2.437 1.346 0 2.437 1.091 2.437 2.437z"/><path d="m421.15 302.13c0 1.188-.963 2.15-2.15 2.15s-2.15-.963-2.15-2.15.963-2.15 2.15-2.15 2.15.963 2.15 2.15z"/><path d="m440.07 324.49c0 1.188-.963 2.15-2.15 2.15s-2.15-.963-2.15-2.15.963-2.15 2.15-2.15 2.15.963 2.15 2.15z" transform="translate(-.143)"/><path d="m442.65 331.23c0 1.188-.963 2.15-2.15 2.15s-2.15-.963-2.15-2.15.963-2.15 2.15-2.15c1.188 0 2.15.963 2.15 2.15z" transform="translate(0-.326)"/></g></g><g fill="#fff"><g stroke="#000" stroke-width=".667"><g transform="matrix(1.6657 0 0 1.6657-464.91-233.28)"><path d="m452.13 349.59c-1.414-1.281-2.313-2.103-2.868-3.499-2.81-.306-5.62-.611-8.431-.917-.038 1.606-.076 3.211-.115 4.817 3.805-.134 7.61-.267 11.414-.401z" id="1"/><path stroke-linejoin="round" d="m390.36 343.91c4.897.904 12.281-.452 14.692 2.712 2.895 3.281-9.06 8.328-7.349 11.166 3.698 3.913 7.504 2.3 11.643.136.975-2.115 1.728-5.886 2.261-7.01-1.507-3.466-5.555-5.164-4.521-10.398 6.827-2.551 19.95-2.34 21.363-1.356 1.109 2.175.112 3.166.338 4.899-1.13 2.185-4.04 5.889-4.045 7.849 7.162 2.523 9.05-.389 15.493-.218 7.549.093 12.142 2.12 13.781-.881-1.123-2.59-8.05-.483-10.675-2.147-1.314-.445-2.163-1.501-3.299-2.666s-4.329-1.224-4.807-4.092c1.336-6.132 10.185-5.195 11.632-6.134 7.685.527 15.371 1.055 23.06 1.582 4.177-.118 6.539 7.398.899 9.66-5.64 2.261-22.321-3.355-29.557.505-.374-1.574-5.573-3.955-5.948-4.03-2.215.663-6.532.42-6.532.42-1.055 1.959-2.259 3.393-3.314 5.352-4.788-2.099-9.314 1.63-14.543.525 0 0-7.911.904-8.137.904s-5.198-.452-5.198-.452c-2.637.753-5.274 1.507-7.911 2.26 1.883-1.658 3.767-3.315 5.65-4.973-1.657-1.205-3.315-2.411-4.972-3.616z" id="2"/><path d="m389.61 342.71c0 1.204-.976 2.18-2.179 2.18-1.204 0-2.179-.976-2.179-2.18s.976-2.18 2.179-2.18c1.204 0 2.179.976 2.179 2.18z" transform="translate(.402.229)" id="3"/><path d="m389.44 353.72c0 1.204-.976 2.179-2.18 2.179s-2.179-.976-2.179-2.179c0-1.204.976-2.179 2.179-2.179 1.204 0 2.18.976 2.18 2.179z" id="4"/></g><g transform="matrix(-1.6657 0 0 1.6657 1099.37-233.21)"><use xlink:href="#1"/><use xlink:href="#2"/><use xlink:href="#3"/><use xlink:href="#4"/></g></g><path d="m469.41 337.77c-1.94-.364-2.63-.26-3.945-.39-1.029 3.164-2.057 6.328-3.086 9.492 4.766.43 9.179.43 9.179.391-2.891-.586-2.187-9.454-2.148-9.493" transform="matrix(1.6657 0 0 1.6657-464.91-233.28)"/></g></g><g transform="matrix(1.6657 0 0 1.6657-464.91-233.28)"><g line-height="100%"><text x="448.61" y="344.27"><tspan x="448.61" y="344.27">L</tspan></text><text x="453.64" y="344.62"><tspan x="453.64" y="344.62">I</tspan></text><text x="456.68" y="345.06"><tspan x="456.68" y="345.06">B</tspan></text><text x="462.58" y="345.49"><tspan x="462.58" y="345.49">E</tspan></text><text x="468.31" y="345.58"><tspan x="468.31" y="345.58">R</tspan></text><text x="473.95" y="345.4"><tspan x="473.95" y="345.4">T</tspan></text><text x="479.25" y="344.54"><tspan x="479.25" y="344.54">A</tspan></text><text x="485.5" y="344.27"><tspan x="485.5" y="344.27">S</tspan></text></g><g fill="none" stroke="#00a400" stroke-linecap="round" stroke-width="1.333"><path d="m418 331.33c6.03.731 14.44.182 18.1 0"/><path d="m408.86 310.67c5.118 4.02 16.267 6.396 16.08 6.396"/><path d="m431.34 318.17c-1.645-8.407-3.472-10.418-4.934-15.719"/><path d="m400.27 292.94c8.591 3.838 9.87 6.396 15.353 10.234"/><path d="m418.73 294.77c.732-10.419 2.194-13.161 4.753-15.537"/><path d="m400.27 277.96c3.108 3.473 13.343 14.256 13.343 14.256"/><path d="m409.41 268.45c3.839 2.741 3.839 12.61 3.839 12.61"/></g></g></svg>