<svg xmlns="http://www.w3.org/2000/svg" viewBox="0 0 640 480"><defs><clipPath id="clipPath8409" clipPathUnits="userSpaceOnUse"><path fill-opacity=".67" d="m0-0h682.67v512h-682.67z"/></clipPath></defs><g fill-rule="evenodd" clip-path="url(#clipPath8409)" transform="matrix(.9375 0 0 .9375 0 .00002)"><g stroke-width="1.25"><path fill="#ff0" d="m0-0h1024v504.3h-1024z"/><g fill="#009d00"><path d="m.0001-0h1023.9999v146.29h-1023.9999z"/><path d="M 0,365.71 H1024 V512 H0 z"/></g></g><path fill="#f10600" d="m.7083-0c1.4166,0 255.29,253.03 255.29,253.03l-256,258.97 .7083-512z"/><g stroke-width="1.25" transform="matrix(.78651 0 0 .78651 -154.66 -225.36)"><path d="m498.45,365.81-57.33-41.6 70.83,.07 21.83-67.38 21.83,67.38 70.83-.05-57.34,41.58 21.94,67.35-57.27-41.68-57.27,41.67z" transform="matrix(.70904 0 0 .73035 367.01 360.98)"/><path d="m498.45,365.81-57.33-41.6 70.83,.07 21.83-67.38 21.83,67.38 70.83-.05-57.34,41.58 21.94,67.35-57.27-41.68-57.27,41.67z" transform="matrix(.70904 0 0 .73035 116.64 360.98)"/></g></g></svg>