<svg xmlns="http://www.w3.org/2000/svg" viewBox="0 0 640 480" xmlns:xlink="http://www.w3.org/1999/xlink"><defs><path id="0" d="m283.46-389.76l-17.717 70.866 17.717 25.04 17.716-25.04-17.716-70.866"/><path id="1" d="m368.98-419.45s-40.709-27.717-40.709.866c0 28.582 39.843.866 40.709-.866m-7.795-.181s-28.583-19.342-28.583.604c0 19.945 27.975.604 28.583-.604"/><path id="2" d="m334.69 674.38s28.31-4.996 46.624-19.982c18.316-14.986 18.317-39.964 26.642-39.964 8.326 0 9.991 28.31 29.973 38.3 19.981 9.991 51.62 23.312 51.62 23.312l-154.86-1.665"/><path id="3" d="m490.58 234.24c0 .846-.823 1.531-1.837 1.531s-1.837-.685-1.837-1.531c0-.846.823-1.531 1.837-1.531s1.837.685 1.837 1.531"/><path id="4" d="m320.26 487.2c0 59.825-11.597 108.32-25.903 108.32s-25.903-48.5-25.903-108.32c0-59.825 11.597-108.32 25.903-108.32s25.903 48.5 25.903 108.32"/><path id="5" d="m314.71 506.2c0 45.06-10.06 81.59-22.479 81.59s-22.479-36.53-22.479-81.59c0-45.06 10.06-81.59 22.479-81.59s22.479 36.53 22.479 81.59"/><clipPath id="6"><path d="m0 0h640v480h-640z"/></clipPath></defs><g clip-path="url(#6)"><g fill-rule="evenodd" stroke-width="1.25"><g fill="#5387f4"><path d="m-79.43 318.86h798.86v161.14h-798.86z"/><path d="m-79.43 0h798.86v161.14h-798.86z"/></g><path fill="#fff" d="m-79.43 161.14h798.86v157.71h-798.86z"/></g><g transform="matrix(1.6437 0 0 1.6437-358.51-168.29)"><g stroke="#000"><g fill-rule="evenodd"><g transform="matrix(.74925 0 0 .7416 105.14 72.61)"><g transform="matrix(-1 0 0 1 825.1 9.187)"><g fill="#f00" stroke-width=".332"><path d="m490.58 234.24c0 .846-.823 1.531-1.837 1.531s-1.837-.685-1.837-1.531c0-.846.823-1.531 1.837-1.531s1.837.685 1.837 1.531z" transform="matrix(.63371-.40113.49703.7852 41.19 205.69)"/><use transform="matrix(.63371-.40113.49703.7852 36.37 209.51)" xlink:href="#3"/></g><g fill="#006700" stroke-width="1.603"><path d="m259.03 105.71s400.32 70.64 414.45 395.62c14.13 324.97-188.39 367.36-259.03 419.16-70.64 51.807-113.03 113.03-146 113.03-32.968 0-80.06-14.13-80.06-14.13s9.42 51.81 75.36 47.1c65.936-4.71 127.16-113.03 164.84-131.87s277.88-98.9 259.04-428.58c-14.13-353.23-423.88-390.91-428.59-400.33z" transform="matrix(.13845.03263-.03449.1482 406.46 152.89)" id="H"/><use transform="matrix(.06736-.00532.01657.06701 435.79 156.41)" xlink:href="#4"/><use transform="matrix(.061-.02296.03069.0639 429.11 164.08)" xlink:href="#4"/><use transform="matrix(.00639-.07135.06281.01895 425.66 205.09)" xlink:href="#4"/><use transform="matrix(.02942-.06013.0572.03953 421.8 189.48)" xlink:href="#4"/><use transform="matrix(.04453-.04704.04858.05203 423.4 178.25)" xlink:href="#4"/></g><g fill="#f00" stroke-width=".332"><use transform="matrix(.71299-.2327.28833.88343 65.801 118.99)" xlink:href="#3"/><use transform="matrix(.71299-.2327.28833.88343 60.19 121.51)" xlink:href="#3"/></g><g fill="#006700" stroke-width="1.603"><use transform="matrix(.095.02345.00142.10361 450.31 143)" xlink:href="#4"/><use transform="matrix(.09185-.00476.02197.10567 438.59 150.9)" xlink:href="#4"/><use transform="matrix(.03178-.09924.08089.05611 420.64 208.04)" xlink:href="#4"/><use transform="matrix(.06006-.07255.06651.083 420.3 183.9)" xlink:href="#4"/><use transform="matrix(.07679-.04683.05055.09692 426.13 168.55)" xlink:href="#4"/><use transform="matrix(.08876.04196-.01675.10262 469.8 160.18)" xlink:href="#4"/><use transform="matrix(.09061.01349.00298.10871 456.96 165.67)" xlink:href="#4"/><use transform="matrix(.04843-.09172.06925.07143 429.42 218.55)" xlink:href="#4"/><use transform="matrix(.0714-.05976.05048.09514 433.31 194.64)" xlink:href="#4"/><use transform="matrix(.08325-.03105.03245.10574 441.69 180.63)" xlink:href="#4"/><use transform="matrix(.06454.07673-.05382.08802 496.25 181.43)" xlink:href="#4"/><use transform="matrix(.07695.05112-.03826.10208 482.57 181.05)" xlink:href="#4"/><use transform="matrix(.07839-.06442.03578.09574 437.71 218.35)" xlink:href="#4"/><use transform="matrix(.08715-.02499.00986.10974 450.24 197.83)" xlink:href="#4"/><use transform="matrix(.08707.00668-.01046.11188 463.11 188.42)" xlink:href="#4"/><use transform="matrix(.04657.10876-.08731.07709 511.72 202.12)" xlink:href="#4"/></g><g fill="#f00" stroke-width=".332"><use transform="matrix(.29304-.42472.55451.30219 167.81 313.54)" xlink:href="#3"/><use transform="matrix(.29304-.42472.55451.30219 165.8 317.22)" xlink:href="#3"/></g><g fill="#006700" stroke-width="1.603"><use transform="matrix(.0684.08511-.07466.09841 496.78 196.6)" xlink:href="#4"/><use transform="matrix(.10683-.04187.00886.11902 435.5 221.04)" xlink:href="#4"/><use transform="matrix(.1039.00491-.02414.12481 455.84 203.07)" xlink:href="#4"/><use transform="matrix(.09371.03984-.04719.11959 473 197.47)" xlink:href="#4"/><use transform="matrix(-.01269.1312-.12512.02127 532.08 244.55)" xlink:href="#4"/></g><g fill="#f00" stroke-width=".332"><use transform="matrix(.45225.5983-.74133.56036 427.87-141.94)" xlink:href="#3"/><use transform="matrix(.45225.5983-.74133.56036 423.66-146.42)" xlink:href="#3"/></g><g fill="#006700" stroke-width="1.603"><use transform="matrix(.02091.12172-.12422.04909 520.59 230.39)" xlink:href="#4"/><use transform="matrix(.1253.02386-.05453.11847 448.5 217.11)" xlink:href="#4"/><use transform="matrix(.09768.0666-.08944.10431 477.65 212.14)" xlink:href="#4"/><use transform="matrix(.06933.09374-.10892.08561 497.18 217.05)" xlink:href="#4"/><g transform="matrix(.0629.16941-.15868.07052 507.09 211.42)"><use transform="matrix(.92853.37125-.37125.92853 252.11-52.33)" xlink:href="#5"/><use transform="matrix(.87409-.48576.48576.87409-234.07 229)" xlink:href="#5"/><use transform="translate(9.991 14.986)" xlink:href="#5"/></g><g transform="matrix(.03866-.06516.10009.05249 381.33 173.41)"><use transform="matrix(.92853.37125-.37125.92853 252.11-52.33)" xlink:href="#5"/><use transform="matrix(.87409-.48576.48576.87409-234.07 229)" xlink:href="#5"/><use transform="translate(9.991 14.986)" xlink:href="#5"/></g></g><g fill="#f00" stroke-width=".332"><use transform="matrix(.75 0 0 .92929 121.35 16.238)" xlink:href="#3"/><use transform="matrix(.75 0 0 .92929 115.23 16.888)" xlink:href="#3"/><use transform="matrix(.64918.37559-.46538.80436 276.35-113.32)" xlink:href="#3"/><use transform="matrix(.64918.37559-.46538.80436 270.73-115.82)" xlink:href="#3"/><use transform="matrix(.40299-.32227.44392.44914 153.89 236.13)" xlink:href="#3"/><use transform="matrix(.40299-.32227.44392.44914 150.91 239.07)" xlink:href="#3"/></g></g><g transform="translate(-4.287 9.799)"><g fill="#f00" stroke-width=".332"><use transform="matrix(.63371-.40113.49703.7852 41.19 205.69)" xlink:href="#3"/><use transform="matrix(.63371-.40113.49703.7852 36.37 209.51)" xlink:href="#3"/></g><g fill="#006700" stroke-width="1.603"><use xlink:href="#H"/><use transform="matrix(.06736-.00532.01657.06701 435.79 156.41)" xlink:href="#4"/><use transform="matrix(.061-.02296.03069.0639 429.11 164.08)" xlink:href="#4"/><use transform="matrix(.00639-.07135.06281.01895 425.66 205.09)" xlink:href="#4"/><use transform="matrix(.02942-.06013.0572.03953 421.8 189.48)" xlink:href="#4"/><use transform="matrix(.04453-.04704.04858.05203 423.4 178.25)" xlink:href="#4"/></g><g fill="#f00" stroke-width=".332"><use transform="matrix(.71299-.2327.28833.88343 65.801 118.99)" xlink:href="#3"/><use transform="matrix(.71299-.2327.28833.88343 60.19 121.51)" xlink:href="#3"/></g><g fill="#006700" stroke-width="1.603"><use transform="matrix(.095.02345.00142.10361 450.31 143)" xlink:href="#4"/><use transform="matrix(.09185-.00476.02197.10567 438.59 150.9)" xlink:href="#4"/><use transform="matrix(.03178-.09924.08089.05611 420.64 208.04)" xlink:href="#4"/><use transform="matrix(.06006-.07255.06651.083 420.3 183.9)" xlink:href="#4"/><use transform="matrix(.07679-.04683.05055.09692 426.13 168.55)" xlink:href="#4"/><use transform="matrix(.08876.04196-.01675.10262 469.8 160.18)" xlink:href="#4"/><use transform="matrix(.09061.01349.00298.10871 456.96 165.67)" xlink:href="#4"/><use transform="matrix(.04843-.09172.06925.07143 429.42 218.55)" xlink:href="#4"/><use transform="matrix(.0714-.05976.05048.09514 433.31 194.64)" xlink:href="#4"/><use transform="matrix(.08325-.03105.03245.10574 441.69 180.63)" xlink:href="#4"/><use transform="matrix(.06454.07673-.05382.08802 496.25 181.43)" xlink:href="#4"/><use transform="matrix(.07695.05112-.03826.10208 482.57 181.05)" xlink:href="#4"/><use transform="matrix(.07839-.06442.03578.09574 437.71 218.35)" xlink:href="#4"/><use transform="matrix(.08715-.02499.00986.10974 450.24 197.83)" xlink:href="#4"/><use transform="matrix(.08707.00668-.01046.11188 463.11 188.42)" xlink:href="#4"/><use transform="matrix(.04657.10876-.08731.07709 511.72 202.12)" xlink:href="#4"/></g><g fill="#f00" stroke-width=".332"><use transform="matrix(.29304-.42472.55451.30219 167.81 313.54)" xlink:href="#3"/><use transform="matrix(.29304-.42472.55451.30219 165.8 317.22)" xlink:href="#3"/></g><g fill="#006700" stroke-width="1.603"><use transform="matrix(.0684.08511-.07466.09841 496.78 196.6)" xlink:href="#4"/><use transform="matrix(.10683-.04187.00886.11902 435.5 221.04)" xlink:href="#4"/><use transform="matrix(.1039.00491-.02414.12481 455.84 203.07)" xlink:href="#4"/><use transform="matrix(.09371.03984-.04719.11959 473 197.47)" xlink:href="#4"/><use transform="matrix(-.01269.1312-.12512.02127 532.08 244.55)" xlink:href="#4"/></g><g fill="#f00" stroke-width=".332"><use transform="matrix(.45225.5983-.74133.56036 427.87-141.94)" xlink:href="#3"/><use transform="matrix(.45225.5983-.74133.56036 423.66-146.42)" xlink:href="#3"/></g><g fill="#006700" stroke-width="1.603"><use transform="matrix(.02091.12172-.12422.04909 520.59 230.39)" xlink:href="#4"/><use transform="matrix(.1253.02386-.05453.11847 448.5 217.11)" xlink:href="#4"/><use transform="matrix(.09768.0666-.08944.10431 477.65 212.14)" xlink:href="#4"/><use transform="matrix(.06933.09374-.10892.08561 497.18 217.05)" xlink:href="#4"/><g transform="matrix(.0629.16941-.15868.07052 507.09 211.42)"><use transform="matrix(.92853.37125-.37125.92853 252.11-52.33)" xlink:href="#5"/><use transform="matrix(.87409-.48576.48576.87409-234.07 229)" xlink:href="#5"/><use transform="translate(9.991 14.986)" xlink:href="#5"/></g><g transform="matrix(.03866-.06516.10009.05249 381.33 173.41)"><use transform="matrix(.92853.37125-.37125.92853 252.11-52.33)" xlink:href="#5"/><use transform="matrix(.87409-.48576.48576.87409-234.07 229)" xlink:href="#5"/><use transform="translate(9.991 14.986)" xlink:href="#5"/></g></g><g fill="#f00" stroke-width=".332"><use transform="matrix(.75 0 0 .92929 121.35 16.238)" xlink:href="#3"/><use transform="matrix(.75 0 0 .92929 115.23 16.888)" xlink:href="#3"/><use transform="matrix(.64918.37559-.46538.80436 276.35-113.32)" xlink:href="#3"/><use transform="matrix(.64918.37559-.46538.80436 270.73-115.82)" xlink:href="#3"/><use transform="matrix(.40299-.32227.44392.44914 153.89 236.13)" xlink:href="#3"/><use transform="matrix(.40299-.32227.44392.44914 150.91 239.07)" xlink:href="#3"/></g></g><g fill="#5387f4" stroke-width=".235" transform="translate(-3.062 1.837)"><path d="m411.36 319.5l.037 5.258c10.21-.517 5.263 6.977 7.03 11.223l2.255-2.827 3.122 2.803c-.25-4.908 2.748-17.395-12.443-16.457z" transform="translate(.433)" id="8"/><use transform="matrix(-1 0 0 1 827.23.217)" xlink:href="#8"/><g transform="matrix(.89666.44272-.44272.89666 184.34-149.98)"><path d="m427.88 303.13c.325 1.901-.449 11.372-.865 13.641-.537 1.923-.447 6.708-10.395 7.147-4.776.211-3.898-4.548-3.681-4.548.216 0 1.949 1.733 3.898 0 1.948-1.732-.444-17.53 1.515-19.488 2.156-2.155 9.985 1.496 9.528 3.248z" id="I"/><path d="m427.88 303.13c-2.057-.264-3.159-.732-3.68 1.516-2.053 9.07 2.368 17.1-7.58 19.272-4.665 1.041-3.898-4.548-3.681-4.548.216 0 1.949 1.733 3.898 0 1.948-1.732-.444-17.53 1.515-19.488 2.156-2.155 9.985 1.496 9.528 3.248z" id="J"/></g><g transform="matrix(-.89666.44272.44272.89666 644.51-149.98)"><use xlink:href="#I"/><use xlink:href="#J"/></g><path d="m411.57 319.06l-.18 6.774 5.08-.037.613-6.737h-5.513z"/></g></g><path fill="#5387f4" stroke-width=".235" d="m409.69 276.93s-14.322 12.06-14.322 20.725c.306 3.457 3.169 6.981 8.407 9.52-2.418-3.586-2.747-6.52-2.747-9.931.306-5.86 8.461-12.931 8.461-12.931l.201-7.383z" transform="matrix(-.55701 0 0 .56139 640.36 115.47)" id="7"/><g transform="matrix(.74925 0 0 .7416 145.3 269.28)"><g fill="#ffd200"><path stroke-width=".176" d="m172.65-427.57h49.929v2.055h-49.929z" transform="matrix(.00134-1.0774-.89274-.13654-21.895 93.38)"/><use stroke-width="1.066" transform="matrix(-.15568-.03036-.00157.16811 402.81-28.331)" xlink:href="#0"/></g><g stroke-width="1.685"><path d="m368.98-419.45s-40.709-27.717-40.709.866c0 28.582 39.843.866 40.709-.866zm-7.795-.181s-28.583-19.342-28.583.604c0 19.945 27.975.604 28.583-.604z" transform="matrix(-.12088-.00963.00369.08716 404.67-46.703)"/><use transform="matrix(.1182-.01363-.01637-.08695 308.96-117.95)" xlink:href="#1"/></g><g stroke-width=".175" transform="matrix(.9 0 0 1.0774-21.895 93.38)"><path fill="#5387f4" d="m422.29-165.7l2.45-.306s1.766 2.602 3.675 6.737c1.679 4.331 3.368 11.33 4.899 27.25-4.593-.307-21.436 1.531-21.436 1.531s.236-19.17 6.125-26.03c2.757-2.906 4.593-8.575 4.287-9.188z"/><path fill="#fff" d="m422.29-165.7l2.45-.306s1.766 2.602 3.675 6.737c1.679 4.331-4.9 11.636-3.369 27.561-4.593-.307-13.168 1.225-13.168 1.225s.236-19.17 6.125-26.03c2.757-2.906 4.593-8.575 4.287-9.188z"/><path fill="#5387f4" d="m422.29-165.7l2.45-.306s-.613 7.962-2.756 11.943c-2.144 3.981-3.369 22.967-3.063 22.967.307 0-7.04.613-7.04.613s.236-19.17 6.125-26.03c2.757-2.906 4.593-8.575 4.287-9.188z"/></g></g><use transform="matrix(-1.02876 0 0 .97326 839.1 7.477)" xlink:href="#7"/><g transform="matrix(-.26793 0 0 .19503 512.17 346.21)"><g stroke-width=".785"><path fill="#5387f4" d="m407.48-248.03l106.3-106.3s-27.516 220.02-88.58 265.75c0 0-53.15 24.12-53.15-.135l35.433-159.31z" transform="translate(0-301.18)" id="9"/><path fill="#fff" d="m407.48-248.03l70.866-70.867s-35.433 230.31-106.3 230.31v-.135l35.433-159.31z" transform="translate(0-301.18)" id="A"/><path fill="#5387f4" d="m407.48-248.03s35.433-35.434 35.433-35.434-35.433 194.88-70.866 194.88v-.135l35.433-159.31z" transform="translate(0-301.18)" id="B"/></g><g fill="#ffd200"><path stroke-width=".816" d="m678.85-116.49h177.17v7.323h-177.17z" transform="matrix(.71944-.69456.69456.71944 0 0)" id="C"/><use stroke-width="1.729" transform="matrix(.44721.43219-.39504.38894 290.37-679.58)" xlink:href="#0"/></g><g stroke-width=".785"><use transform="matrix(.38682.26358-.16606.2437 323.5-666.19)" xlink:href="#1"/><use transform="matrix(-.33732-.32453.20446-.21252 742.75-641.88)" xlink:href="#1"/><path fill="#5387f4" d="m407.48-248.03l106.3-53.15s-17.717 221.39-106.3 221.39c-53.15 0-70.866-70.866-70.866-70.866l70.866-97.38z" transform="translate(17.717-256.83)" id="D"/><path fill="#fff" d="m407.48-248.03l70.866-35.434c0 35.434-17.716 185.96-70.866 185.96-35.433 0-70.866-53.15-70.866-53.15l70.866-97.38z" transform="translate(17.717-256.83)" id="E"/><path fill="#5387f4" d="m407.48-248.03l35.433-17.717c0 79.66-17.716 150.53-53.15 150.53-17.717 0-53.15-35.433-53.15-35.433l70.866-97.38z" transform="translate(17.717-256.83)" id="F"/></g><g fill="#ffd200"><path stroke-width=".816" d="m569.18-267.74h177.17v7.323h-177.17z" transform="matrix(.8948-.44646.44646.8948 0 0)" id="G"/><use stroke-width="1.729" transform="matrix(.29679.54653-.4936.25237 315.38-647.39)" xlink:href="#0"/></g><g stroke-width=".785"><use transform="matrix(.28982.36758-.23158.18259 342.96-624.68)" xlink:href="#1"/><use transform="matrix(-.2243-.41085.25884-.14131 735.56-475.59)" xlink:href="#1"/></g></g><g transform="matrix(.26414 0 0 .19504 316.86 346.21)"><g stroke-width=".785"><use xlink:href="#9"/><use xlink:href="#A"/><use xlink:href="#B"/></g><g fill="#ffd200"><use xlink:href="#C"/><use stroke-width="1.729" transform="matrix(.44721.43219-.39504.38894 290.37-679.58)" xlink:href="#0"/></g><g stroke-width=".785"><use transform="matrix(.38682.26358-.16606.2437 323.5-666.19)" xlink:href="#1"/><use transform="matrix(-.33732-.32453.20446-.21252 742.75-641.88)" xlink:href="#1"/><use xlink:href="#D"/><use xlink:href="#E"/><use xlink:href="#F"/></g><g fill="#ffd200"><use xlink:href="#G"/><use stroke-width="1.729" transform="matrix(.29679.54653-.4936.25237 315.38-647.39)" xlink:href="#0"/></g><g stroke-width=".785"><use transform="matrix(.28982.36758-.23158.18259 342.96-624.68)" xlink:href="#1"/><use transform="matrix(-.2243-.41085.25884-.14131 735.56-475.59)" xlink:href="#1"/></g></g></g><g stroke-linejoin="bevel" stroke-width=".105" transform="matrix(.74925 0 0 .7416 105.14 70.34)"><g fill-rule="evenodd"><path fill="#ffd200" d="m496.06 627.16l17.717-17.716 17.716 17.716h-35.433z" transform="matrix(2.6869 0 0 4.6313-968.14-2627.4)"/><path fill="#0ff" d="m496.06 627.16l17.717-17.716 17.716 17.716h-35.433z" transform="matrix(2.4214 0 0 4.1966-831.57-2357.1)"/><path fill="#ffd200" d="m419.84 239.14c0 3.89-3.222 7.04-7.196 7.04-3.974 0-7.196-3.153-7.196-7.04 0-3.89 3.222-7.04 7.196-7.04 3.974 0 7.196 3.153 7.196 7.04z"/></g><g fill="none" transform="matrix(.24214 0 0 .24229 300.66 101.1)"><path d="m462.73,556.66-1.18-108.32"/><path d="m468.62 563.73l38.855-54.16"/><path d="m474.51 569.61l62.4-25.9"/><path d="m479.22 577.86l73 2.355"/><path d="m474.51 587.28l42.39 37.677"/><path d="m462.73 583.74v34.15"/><path d="m449.78 575.5l-55.34 48.27"/><path d="m455.67,579.03-24.726,45.92"/><path d="m446.25,569.61-91.84,31.791"/><path d="m445.07,564.9-64.76-2.355"/><path d="m393.26 537.82l56.52 18.839"/><path d="m420.34 489.55l34.15 65.936"/></g><g fill-rule="evenodd"><g transform="matrix(.24214 0 0 .24229 300.97 178.59)"><path fill="#c453d7" d="m460.63 219.69c-35.433 0-61.25 6.505-83.04 14.15l5.54-9.579 5.53-9.595 5.54-9.596 5.54-9.578 5.53-9.595 5.54-9.579 6.13-9.769c8.26-7.257 25.98-10.652 43.69-10.652 17.72 0 35.44 3.586 44.3 10.826l5.54 9.595 5.53 9.579 5.54 9.595 5.54 9.578 5.53 9.596 5.54 9.595 5.53 9.579c-22.972-7.64-47.613-14.15-83.05-14.15z" transform="translate(0-.004)"/><path fill="#5000c1" d="m460.63 212.93c-35.548-.05-75.28 10.597-77.5 11.329l5.53-9.595 5.54-9.596 5.54-9.578 5.53-9.595 5.54-9.579 6.13-9.769c8.26-7.257 25.98-10.652 43.69-10.652 17.72 0 35.44 3.586 44.3 10.826l5.54 9.595 5.53 9.579 5.54 9.595 5.54 9.578 5.53 9.596 5.54 9.595s-42.08-11.329-77.52-11.329z" transform="translate(.013)"/><path fill="#0053d7" d="m460.63 205.27c-26.25-.109-68.69 7.141-71.68 8.504l5.246-8.713 5.54-9.578 5.53-9.595 5.54-9.579 6.13-9.769c8.26-7.257 25.98-10.652 43.69-10.652 17.72 0 35.44 3.586 44.3 10.826l5.54 9.595 5.53 9.579 5.54 9.595 5.54 9.578 5.53 9.596s-36.543-9.387-71.976-9.387z" transform="translate(0-.007)"/><path fill="#009f9f" d="m460.63 197.32c-34.802-.07-63.717 6.631-66.43 7.739l5.54-9.578 5.53-9.595 5.54-9.579 6.13-9.769c8.26-7.257 25.98-10.652 43.69-10.652 17.72 0 35.44 3.586 44.3 10.826l5.54 9.595 5.53 9.579 5.54 9.595 5.54 9.578s-31.01-7.739-66.45-7.739z" transform="translate(-.015-.008)"/><path fill="#ff0" d="m460.63 190.56c-35.605-.123-57.963 4.465-60.894 4.931l5.53-9.595 5.54-9.579 6.13-9.769c8.26-7.257 25.98-10.652 43.69-10.652 17.72 0 35.44 3.586 44.3 10.826l5.54 9.595 5.53 9.579 5.54 9.595s-25.473-4.931-60.906-4.931z" transform="translate(0-.013)"/><path fill="#f50" d="m460.34 181.72c-31.01-.671-53.786 4.25-55.07 4.167l5.54-9.579 6.13-9.769c8.26-7.257 25.98-10.652 43.69-10.652 17.72 0 35.44 3.586 44.3 10.826l5.54 9.595 5.53 9.579s-20.227-4.167-55.66-4.167z" transform="translate(-.015-.013)"/><path fill="#ff0b00" d="m461.51 171.42c-31.13.257-47.25 4.34-50.707 4.891l6.13-9.769c8.26-7.257 25.98-10.652 43.69-10.652 17.72 0 35.44 3.586 44.3 10.826l5.54 9.595s-13.52-4.891-48.953-4.891z" transform="translate(-.029.003)"/></g><path fill="#4363ff" d="m496.06 627.16l4.983-4.983h25.467l4.983 4.983h-35.433z" transform="matrix(2.4214 0 0 4.1966-831.57-2357.1)"/><path fill="#f00" d="m438.01 565.49c.409 0 .727-1.87 1.766-3.532 2.222-1.61 4.568-2.871 7.653-3.533 1.665-.832 5.08-.588 7.653-.588 3.611.324 3.837 1.865 5.888 4.121.902 1.837 3.038 4.389 4.121 7.06 1.172 1.42 2.107 3.626 2.943 5.299.855 1.804 1.765 4.526 2.944 7.06.605 2.824 1.177 5.03 1.177 8.242 0 3.352-.554 4.78-1.177 7.07-1.794.598-5.29.888-7.06 0-1.9-1.7-5.162-.617-6.475-2.355-3.386-.474-4.208-4.459-5.888-6.475-1.175-1.729-1.156-3.03-2.355-4.71-1.857-1.327-2.108-2.945-2.943-5.299.736-2.517 2.01-3.068 4.121-4.121 1.127-1.644 1.766-2.304 1.766-5.298-.424-3.334-1.625-2.982-4.71-3.533-3.814 0-5.77.393-9.419.589z" transform="matrix(.16282 0 0 .12659 338.7 166.52)"/><g fill="#6da700" transform="matrix(1.0506-.04246.20928 1.1632-78.05-20.528)"><use transform="matrix(.09952-.00729.00894.12214 386.68 185.55)" xlink:href="#2"/><use transform="matrix(.09952-.00729.00894.12214 385.23 185.65)" xlink:href="#2"/><use transform="matrix(.11825-.00866.00992.13548 374.39 177.66)" xlink:href="#2"/><use transform="matrix(.13074-.00957.01155.15772 365.68 163.46)" xlink:href="#2"/><use transform="matrix(.14792-.01083.01285.1755 354.72 152.32)" xlink:href="#2"/><use transform="matrix(.15729-.01151.01448.19774 346.83 137.79)" xlink:href="#2"/><use transform="matrix(.17825 0 0 .19309 344.65 135.43)" xlink:href="#2"/><use transform="matrix(.17825 0 0 .19309 342.05 135.43)" xlink:href="#2"/><use transform="matrix(.21181 0 0 .21418 323.77 121.6)" xlink:href="#2"/><use transform="matrix(.23418 0 0 .24932 310.11 98.28)" xlink:href="#2"/><use transform="matrix(.26494 0 0 .27744 292.04 79.5)" xlink:href="#2"/><use transform="matrix(.28172 0 0 .31258 279.88 55.74)" xlink:href="#2"/></g></g></g></g><g transform="matrix(.74925 0 0 .7416 110.88-99.99)"><path fill="#ffc200" stroke="#000" fill-rule="evenodd" stroke-width=".235" d="m380.34 293.64l5.819-4.9s7.961 6.431 23.579 6.125c14.709-.283 19.906-5.513 22.05-6.126l5.818 5.206c-3.369.919-15.311 6.737-28.785 7.35-14.09-.612-26.642-5.817-28.48-7.655z" transform="translate(-5.846 229.96)"/><g stroke-width="1.25"><path d="m425.45 510.86v-3.401h-1.476v-.454h3.55v.454h-1.481v3.401h-.593" transform="matrix(.69073-.24508.25511.71327-2.83 265.75)"/><path d="m415.64 510.86v-3.855h3.238v.454h-2.645v1.181h2.477v.452h-2.477v1.313h2.749v.455h-3.342" transform="matrix(.70851-.18757.19571.7318 19.511 232.16)"/><path d="m409.81 510.86v-3.855h.593v3.855h-.593" transform="matrix(.70851-.18757.19571.7318 19.435 232.01)"/><path d="m406.21 510.86v-3.855h.593v3.4h2.206v.455h-2.799" transform="matrix(.72753-.08875.09362.75171 63.59 181.37)"/><path d="m399.97 510.86v-3.855h.608l2.352 3.03v-3.03h.568v3.855h-.608l-2.352-3.03v3.03h-.568" transform="matrix(.73267-.01911.02166.75721 97.81 150.42)"/><path d="m393.47 510.86v-3.855h.592v3.855h-.592" transform="matrix(.72886.07699-.07768.75353 149.67 114.07)"/><path d="m388.85 510.86v-3.855h.608l2.352 3.03v-3.03h.568v3.855h-.608l-2.352-3.03v3.03h-.568" transform="matrix(.72001.13695-.13967.74453 184.6 95.08)"/><path d="m387.28 507.01h.592v2.227c0 .387-.051.695-.152.923-.103.228-.287.413-.554.557-.264.142-.613.213-1.044.213-.419 0-.763-.062-1.029-.187-.267-.124-.458-.304-.572-.539-.114-.236-.171-.559-.171-.967v-2.227h.593v2.224c0 .335.035.582.107.742.073.158.197.279.373.365s.392.129.647.129c.436 0 .746-.085.932-.255.185-.17.278-.497.278-.981v-2.224" transform="matrix(.70887.1862-.1906.73315 215.09 81.89)"/><path d="m378.22 509.63l.559-.042c.026.193.087.351.183.476.098.122.248.223.452.3.203.075.433.113.687.113.226 0 .426-.029.599-.087s.302-.137.385-.237c.085-.102.128-.212.128-.331 0-.121-.04-.226-.122-.316-.082-.091-.216-.167-.403-.228-.12-.041-.386-.103-.797-.187-.412-.086-.7-.167-.865-.242-.214-.096-.374-.216-.479-.358-.105-.144-.156-.304-.156-.481 0-.194.064-.376.192-.544.128-.17.315-.299.562-.387.247-.087.52-.131.822-.131.332 0 .624.046.877.139.254.091.449.226.586.405s.21.381.22.608l-.568.036c-.031-.243-.135-.427-.312-.552-.175-.124-.435-.187-.779-.187-.358 0-.62.057-.785.171-.163.112-.244.248-.244.408 0 .138.058.252.174.342.114.089.412.181.892.276.482.093.813.174.993.244.26.104.453.235.577.395.124.158.187.34.187.547 0 .205-.069.399-.205.581-.137.18-.333.322-.59.423-.254.1-.542.15-.861.15-.406 0-.746-.051-1.02-.152-.274-.102-.488-.254-.645-.458-.155-.205-.236-.436-.244-.694" transform="matrix(.70684.20498-.19437.72911 217.43 76.46)"/><path d="m371.92 510.86v-3.855h.593v3.855h-.593" transform="matrix(.68641.26548-.25683.70952 256.75 63.44)"/><path d="m367.3 510.86v-3.855h1.542c.349 0 .615.018.798.055.257.05.476.142.656.276.237.172.413.392.529.66.118.266.177.571.177.915 0 .293-.039.552-.119.778-.079.226-.181.414-.305.563-.125.147-.261.264-.41.35-.146.084-.325.148-.534.192-.208.044-.447.066-.718.066h-1.616m.593-.455h.956c.295 0 .526-.024.693-.071.169-.048.303-.114.404-.201.14-.12.249-.282.326-.486.08-.205.119-.453.119-.744 0-.403-.077-.713-.232-.928-.152-.217-.339-.363-.559-.437-.159-.052-.414-.079-.766-.079h-.941v2.946" transform="matrix(.56237.47474-.4741.58703 413.2 48.27)"/><path d="m373.38 508.99c0-.64.2-1.14.598-1.502.4-.362.915-.544 1.546-.544.414 0 .786.085 1.118.255s.585.408.758.713c.175.303.263.648.263 1.033 0 .391-.092.741-.276 1.049-.183.309-.442.543-.778.703-.336.157-.699.236-1.088.236-.421 0-.798-.087-1.13-.263-.332-.175-.584-.415-.755-.717-.171-.304-.256-.625-.256-.963m.611.008c0 .464.144.831.434 1.099.291.267.655.399 1.093.399.446 0 .813-.134 1.1-.404.289-.27.434-.653.434-1.149 0-.314-.062-.588-.187-.821-.122-.235-.302-.416-.541-.544-.236-.13-.502-.195-.797-.195-.419 0-.781.125-1.084.374-.301.247-.452.661-.452 1.241" transform="matrix(.68641.26548-.25683.70952 256.75 63.67)"/><path d="m394.93 508.99c0-.64.199-1.14.598-1.502.4-.362.915-.544 1.546-.544.413 0 .786.085 1.118.255s.585.408.758.713c.175.303.262.648.262 1.033 0 .391-.091.741-.275 1.049-.183.309-.442.543-.779.703-.336.157-.698.236-1.087.236-.422 0-.798-.087-1.13-.263-.332-.175-.584-.415-.755-.717-.171-.304-.256-.625-.256-.963m.611.008c0 .464.144.831.434 1.099.29.267.655.399 1.093.399.446 0 .813-.134 1.1-.404.289-.27.434-.653.434-1.149 0-.314-.063-.588-.187-.821-.122-.235-.302-.416-.541-.544-.236-.13-.502-.195-.797-.195-.419 0-.781.125-1.084.374-.302.247-.452.661-.452 1.241" transform="matrix(.72886.07699-.07768.75353 149.82 114)"/><path d="m432.31 510.86v-3.855h1.542c.349 0 .615.018.798.055.256.05.475.142.656.276.237.172.413.392.529.66.118.266.177.571.177.915 0 .293-.04.552-.119.778s-.182.414-.306.563c-.124.147-.26.264-.409.35-.146.084-.325.148-.534.192-.208.044-.448.066-.718.066h-1.616m.593-.455h.956c.295 0 .526-.024.693-.071.169-.048.303-.114.403-.201.141-.12.25-.282.327-.486.079-.205.119-.453.119-.744 0-.403-.077-.713-.232-.928-.153-.217-.339-.363-.559-.437-.159-.052-.415-.079-.767-.079h-.94v2.946" transform="matrix(.65991-.31889.33131.68122-28.43 314.05)"/><path d="m419.8 510.86v-3.855h1.985c.4 0 .703.035.911.105.208.068.373.19.498.365.124.175.186.369.186.581 0 .274-.103.504-.308.692-.206.188-.524.307-.953.357.156.065.275.13.357.192.173.137.337.308.492.513l.779 1.05h-.746l-.593-.802c-.173-.232-.315-.409-.427-.532s-.213-.208-.302-.257c-.088-.05-.178-.084-.269-.103-.067-.012-.177-.018-.33-.018h-.688v1.712h-.592m.592-2.154h1.275c.27 0 .482-.024.635-.071.152-.049.269-.127.348-.232.08-.106.119-.222.119-.347 0-.182-.078-.332-.232-.449-.153-.118-.395-.177-.727-.177h-1.418v1.276" transform="matrix(.70851-.18757.19571.7318 19.664 232.01)"/><path d="m427.64 510.86l1.72-3.855h.638l1.833 3.855h-.675l-.522-1.168h-1.873l-.491 1.168h-.63m1.292-1.584h1.518l-.467-1.067c-.143-.324-.248-.591-.318-.8-.057.248-.137.493-.241.737l-.492 1.13" transform="matrix(.67948-.27472.28571.70157-13.761 284.59)"/><path d="m411.43 510.86v-3.855h1.68c.342 0 .616.039.822.118.208.077.369.197.486.36.117.161.177.331.177.508 0 .164-.052.32-.156.465s-.261.263-.471.352c.271.069.479.185.624.35.146.165.22.359.22.584 0 .181-.045.349-.135.505-.087.154-.196.273-.327.357-.13.085-.294.148-.492.192-.195.043-.435.064-.72.064h-1.708m.593-2.236h.968c.262 0 .451-.015.565-.044.15-.039.264-.103.339-.192.077-.09.116-.202.116-.337 0-.128-.036-.24-.107-.336-.071-.099-.173-.165-.305-.2-.132-.037-.36-.056-.681-.056h-.895v1.165m0 1.781h1.115c.191 0 .326-.007.403-.019.136-.021.25-.056.342-.105.091-.049.167-.12.226-.213.059-.095.089-.203.089-.326 0-.144-.043-.268-.129-.374-.085-.107-.205-.181-.357-.223-.151-.044-.369-.066-.654-.066h-1.035v1.326" transform="matrix(.71694-.15221.15919.7406 34.549 212.93)"/></g></g><g fill="#ffc200" stroke="#000" stroke-width=".235" transform="matrix(1.1675 0 0 1.1402-70.15-680.7)"><path d="m658.63 787.09v-8.59h1.136v7.577h4.231v1.013h-5.367z" transform="matrix(-.92759.37361-.37361-.92759 1345.6 1359.3)"/><path d="m636.87 787.09v-7.576h-2.83v-1.014h6.809v1.014h-2.842v7.576h-1.137z" transform="matrix(-.69841.7157-.7157-.69841 1465.5 957.27)"/><path d="m626 787.09v-8.59h1.166l4.512 6.745v-6.745h1.089v8.59h-1.166l-4.511-6.75v6.75h-1.09z" transform="matrix(-.7179.69615-.69615-.7179 1462.1 984.87)"/><g transform="matrix(-.53863.84254-.84254-.53863 1463.9 752.4)"><path d="m618.03 787.09v-8.59h6.211v1.014h-5.074v2.631h4.752v1.01h-4.752v2.924h5.273v1.013h-6.41z"/><path d="m615.47 784.08l1.136.287c-.238.933-.668 1.646-1.289 2.138-.617.489-1.373.733-2.267.733-.926 0-1.68-.188-2.262-.563-.578-.379-1.02-.926-1.324-1.64-.301-.715-.451-1.483-.451-2.303 0-.895.169-1.674.509-2.338.344-.668.83-1.174 1.459-1.518.633-.347 1.328-.521 2.086-.521.86 0 1.582.219 2.168.656.586.438.994 1.053 1.225 1.846l-1.119.264c-.2-.625-.489-1.081-.868-1.366-.378-.285-.855-.427-1.429-.427-.66 0-1.213.158-1.658.474-.442.317-.752.742-.932 1.278-.18.531-.27 1.08-.27 1.646 0 .731.106 1.369.317 1.916.215.543.547.949.996 1.219.449.269.935.404 1.459.404.637 0 1.176-.183 1.617-.551.441-.367.74-.912.897-1.634z"/></g><path d="m595.47 784.08l1.136.287c-.238.933-.668 1.646-1.289 2.138-.617.489-1.373.733-2.267.733-.926 0-1.68-.188-2.262-.563-.578-.379-1.02-.926-1.324-1.64-.301-.715-.451-1.483-.451-2.303 0-.895.17-1.674.509-2.338.344-.668.83-1.174 1.459-1.518.633-.347 1.329-.521 2.086-.521.86 0 1.582.219 2.168.656.586.438.994 1.053 1.225 1.846l-1.119.264c-.199-.625-.489-1.081-.867-1.366-.379-.285-.856-.427-1.43-.427-.66 0-1.213.158-1.658.474-.442.317-.752.742-.932 1.278-.18.531-.269 1.08-.269 1.646 0 .731.105 1.369.316 1.916.215.543.547.949.996 1.219.449.269.936.404 1.459.404.637 0 1.176-.183 1.617-.551.442-.367.74-.912.897-1.634z" transform="matrix(.04104.99916-.99916.04104 1238.1 197.35)"/><path d="m586.2 787.09v-8.59h1.137v8.59h-1.137z" transform="matrix(.06257.99804-.99804.06257 1225.2 180.85)"/><path d="m569.36 787.09v-8.59h6.211v1.014h-5.074v2.631h4.752v1.01h-4.752v2.924h5.273v1.013h-6.41z" transform="matrix(.27892.96031-.96031.27892 1069.5 30.595)"/><path d="m559.31 787.09v-8.59h1.711l2.033 6.082c.187.567.324.991.41 1.272.098-.313.25-.772.457-1.377l2.057-5.977h1.529v8.59h-1.096v-7.189l-2.496 7.189h-1.025l-2.485-7.312v7.312h-1.095z" transform="matrix(.39832.91725-.91725.39832 967.25-38.512)"/><path d="m533.28 787.09v-8.59h1.137v7.577h4.23v1.013h-5.367z" transform="matrix(.82363.56713-.56713.82363 456.04-183.4)"/><path d="m521.31 787.09v-8.59h1.166l4.512 6.745v-6.745h1.09v8.59h-1.166l-4.512-6.75v6.75h-1.09z" transform="matrix(.90738.42032-.42032.90738 296.41-171.77)"/><path d="m513.34 787.09v-8.59h6.211v1.014h-5.075v2.631h4.752v1.01h-4.752v2.924h5.274v1.013h-6.41z" transform="matrix(.9262.37704-.37704.9262 252.81-164.15)"/><path d="m469.77 787.09l-3.328-8.59h1.231l2.232 6.241c.18.5.33.968.451 1.406.133-.469.288-.938.463-1.406l2.321-6.241h1.16l-3.363 8.59h-1.167z" transform="matrix(.95764-.28798.28798.95764-289.63 143.26)"/><path d="m460.59 787.09v-8.59h1.136v7.577h4.231v1.013h-5.367z" transform="matrix(.87182-.48983.48983.87182-407.38 304.93)"/><path d="m444.24 784.33l1.072-.094c.051.429.168.783.352 1.06.187.274.476.496.867.668.391.168.83.252 1.318.252.434 0 .817-.064 1.149-.193s.578-.305.738-.527c.164-.227.246-.473.246-.739 0-.269-.078-.504-.234-.703-.156-.203-.414-.373-.774-.51-.23-.089-.74-.228-1.529-.416-.789-.191-1.342-.371-1.658-.539-.41-.215-.717-.48-.92-.797-.199-.32-.299-.677-.299-1.072 0-.433.123-.838.369-1.213.246-.379.606-.666 1.078-.861.473-.195.998-.293 1.577-.293.636 0 1.197.103 1.681.31.489.204.864.504 1.125.903.262.398.403.849.422 1.353l-1.09.082c-.058-.543-.258-.953-.597-1.23-.336-.277-.834-.416-1.495-.416-.687 0-1.189.127-1.505.381-.313.25-.469.552-.469.908 0 .309.111.562.334.762.219.199.789.404 1.711.615.926.207 1.56.389 1.904.545.5.23.869.523 1.108.879.238.351.357.758.357 1.218 0 .458-.131.889-.393 1.295-.261.403-.638.717-1.13.944-.489.222-1.04.334-1.653.334-.777 0-1.43-.114-1.957-.34-.523-.227-.935-.566-1.236-1.02-.297-.457-.453-.972-.469-1.546z" transform="matrix(.74566-.66632.66632.74566-488.97 485.31)"/><path d="m434.58 787.09v-8.59h1.137v7.577h4.23v1.013h-5.367z" transform="matrix(.58768-.8091.8091.58768-533.1 675.4)"/><path d="m426.64 787.09v-8.59h6.211v1.014h-5.074v2.631h4.752v1.01h-4.752v2.924h5.274v1.013h-6.411z" transform="matrix(.48391-.87512.87512.48391-539.99 786.15)"/><path d="m415.31 787.09v-8.59h6.211v1.014h-5.075v2.631h4.752v1.01h-4.752v2.924h5.274v1.013h-6.41z" transform="matrix(.21602-.97639.97639.21602-506.6 1042.6)"/><path d="m392.74 784.08l1.137.287c-.238.933-.668 1.646-1.289 2.138-.617.489-1.373.733-2.268.733-.926 0-1.679-.188-2.261-.563-.579-.379-1.02-.926-1.325-1.64-.3-.715-.451-1.483-.451-2.303 0-.895.17-1.674.51-2.338.344-.668.83-1.174 1.459-1.518.633-.347 1.328-.521 2.086-.521.859 0 1.582.219 2.168.656.586.438.994 1.053 1.224 1.846l-1.119.264c-.199-.625-.488-1.081-.867-1.366s-.855-.427-1.43-.427c-.66 0-1.213.158-1.658.474-.441.317-.752.742-.931 1.278-.18.531-.27 1.08-.27 1.646 0 .731.105 1.369.316 1.916.215.543.547.949.996 1.219.45.269.936.404 1.459.404.637 0 1.176-.183 1.618-.551.441-.367.74-.912.896-1.634z" transform="matrix(-.30592-.95206.95206-.30592-277.14 1448.5)"/><path d="m383.47 787.09v-8.59h1.136v8.59h-1.136z" transform="matrix(-.44366-.89619.89619-.44366-179.9 1535.7)"/><path d="m376.56 787.09v-8.59h1.136v7.577h4.231v1.013h-5.367z" transform="matrix(-.39402-.9191.9191-.39402-216.93 1504.8)"/><path d="m365.57 778.5h1.137v4.963c0 .864-.098 1.549-.293 2.057s-.549.922-1.061 1.242c-.507.317-1.175.475-2 .475-.805 0-1.463-.139-1.975-.416-.512-.278-.877-.678-1.096-1.201-.219-.528-.328-1.247-.328-2.157v-4.963h1.137v4.957c0 .747.068 1.297.205 1.653.141.351.379.623.715.814.34.192.754.287 1.242.287.836 0 1.432-.189 1.787-.568s.533-1.107.533-2.186v-4.957z" transform="matrix(-.64987-.76005.76005-.64987 3.068 1646.8)"/><path d="m343.95 787.09v-8.59h6.211v1.014h-5.074v2.631h4.752v1.01h-4.752v2.924h5.273v1.013h-6.41z" transform="matrix(-.78432-.62036.62036-.78432 160.13 1701.9)"/><path d="m649.73 787.09l3.299-8.59h1.225l3.515 8.59h-1.295l-1-2.601h-3.592l-.944 2.601h-1.207zm2.479-3.527h2.912l-.897-2.379c-.273-.723-.476-1.316-.609-1.781-.109.551-.264 1.097-.463 1.64l-.943 2.52z" transform="matrix(-.8584.51298-.51298-.8584 1410.4 1212.7)"/><path d="m642.03 787.09v-8.59h3.809c.765 0 1.348.079 1.746.235.398.152.717.424.955.814.238.391.357.823.357 1.295 0 .61-.197 1.123-.591 1.541-.395.418-1 .684-1.828.797.3.145.529.287.685.428.332.304.647.685.943 1.142l1.495 2.338h-1.43l-1.137-1.787c-.332-.515-.605-.91-.82-1.183-.215-.274-.408-.465-.58-.575-.168-.109-.34-.185-.516-.228-.129-.028-.34-.041-.633-.041h-1.318v3.814h-1.137zm1.137-4.799h2.443c.52 0 .926-.052 1.219-.158.293-.109.516-.281.668-.515.152-.239.229-.496.229-.774 0-.406-.149-.74-.446-1-.293-.261-.758-.392-1.394-.392h-2.719v2.841z" transform="matrix(-.76054.64929-.64929-.76054 1454.5 1047.6)"/><path d="m597.06 787.09l3.299-8.59h1.225l3.515 8.59h-1.294l-1-2.601h-3.592l-.944 2.601h-1.207zm2.479-3.527h2.912l-.896-2.379c-.274-.723-.477-1.316-.61-1.781-.109.551-.263 1.097-.463 1.64l-.943 2.52z" transform="matrix(-.305.95235-.95235-.305 1407.9 497.69)"/><path d="m577.36 787.09v-8.59h3.809c.766 0 1.348.079 1.746.235.398.152.717.424.955.814.238.391.358.823.358 1.295 0 .61-.198 1.123-.592 1.541-.395.418-1 .684-1.828.797.3.145.529.287.685.428.332.304.647.685.944 1.142l1.494 2.338h-1.43l-1.137-1.787c-.332-.515-.605-.91-.82-1.183-.215-.274-.408-.465-.58-.575-.168-.109-.34-.185-.516-.228-.129-.028-.34-.041-.633-.041h-1.318v3.814h-1.137zm1.137-4.799h2.443c.52 0 .926-.052 1.219-.158.293-.109.516-.281.668-.515.152-.239.229-.496.229-.774 0-.406-.149-.74-.446-1-.293-.261-.757-.392-1.394-.392h-2.719v2.841z" transform="matrix(.09132.99582-.99582.09132 1206.1 158.19)"/><path d="m550.39 787.09l3.299-8.59h1.225l3.516 8.59h-1.295l-1-2.601h-3.592l-.943 2.601h-1.208zm2.479-3.527h2.912l-.896-2.379c-.274-.723-.477-1.316-.61-1.781-.109.551-.263 1.097-.463 1.64l-.943 2.52z" transform="matrix(.57804.81601-.81601.57804 786.55-123.64)"/><path d="m539.06 787.09l3.298-8.59h1.225l3.516 8.59h-1.295l-1-2.601h-3.592l-.943 2.601h-1.207zm2.478-3.527h2.912l-.896-2.379c-.274-.723-.477-1.316-.61-1.781-.109.551-.263 1.097-.463 1.64l-.943 2.52z" transform="matrix(.73048.68294-.68294.73048 596.94-172.51)"/><path d="m501.34 787.09v-8.59h3.808c.766 0 1.348.079 1.746.235.399.152.717.424.956.814.238.391.357.823.357 1.295 0 .61-.197 1.123-.592 1.541-.394.418-1 .684-1.828.797.301.145.529.287.686.428.332.304.646.685.943 1.142l1.494 2.338h-1.43l-1.136-1.787c-.332-.515-.606-.91-.821-1.183-.214-.274-.408-.465-.58-.575-.168-.109-.34-.185-.515-.228-.129-.028-.34-.041-.633-.041h-1.318v3.814h-1.137zm1.137-4.799h2.443c.519 0 .926-.052 1.219-.158.293-.109.515-.281.668-.515.152-.239.228-.496.228-.774 0-.406-.148-.74-.445-1-.293-.261-.758-.392-1.395-.392h-2.718v2.841z" transform="matrix(.99506.09929-.09929.99506-4.117-77.12)"/><path d="m491.64 782.91c0-1.426.382-2.541 1.148-3.346.766-.809 1.754-1.213 2.965-1.213.793 0 1.508.19 2.144.568.637.379 1.121.909 1.453 1.588.336.676.504 1.444.504 2.303 0 .871-.175 1.65-.527 2.338-.352.687-.85 1.209-1.494 1.564-.645.352-1.34.528-2.086.528-.809 0-1.531-.196-2.168-.586-.637-.391-1.119-.924-1.447-1.6s-.492-1.39-.492-2.144zm1.171.017c0 1.035.278 1.852.832 2.449.559.594 1.258.891 2.098.891.856 0 1.559-.301 2.109-.902.555-.602.833-1.455.833-2.561 0-.699-.12-1.308-.358-1.828-.234-.523-.58-.928-1.037-1.213-.453-.289-.963-.433-1.529-.433-.805 0-1.498.277-2.08.832-.579.55-.868 1.472-.868 2.765z" transform="matrix(.99506.09929-.09929.99506-5.02-76.77)"/><path d="m483.32 787.09v-8.59h2.959c.668 0 1.178.041 1.53.123.492.114.912.319 1.259.616.453.383.791.873 1.014 1.47.227.594.34 1.274.34 2.039 0 .653-.076 1.231-.229 1.735-.152.504-.347.922-.586 1.254-.238.328-.5.588-.785.779-.281.188-.623.33-1.025.428-.399.097-.858.146-1.377.146h-3.1zm1.137-1.013h1.834c.566 0 1.01-.053 1.33-.159.324-.105.582-.254.773-.445.27-.269.479-.631.627-1.084.153-.457.229-1.01.229-1.658 0-.899-.149-1.588-.445-2.068-.293-.485-.651-.809-1.073-.973-.304-.117-.795-.176-1.47-.176h-1.805v6.563z" transform="matrix(.98177-.19006.19006.98177-224.4 76.38)"/><path d="m474.37 787.09l3.299-8.59h1.224l3.516 8.59h-1.295l-1-2.601h-3.592l-.943 2.601h-1.207zm2.478-3.527h2.913l-.897-2.379c-.273-.723-.476-1.316-.609-1.781-.11.551-.264 1.097-.463 1.64l-.944 2.52z" transform="matrix(.9741-.22611.22611.9741-248.74 100.13)"/><path d="m451.69 787.09l3.299-8.59h1.225l3.515 8.59h-1.295l-1-2.601h-3.592l-.944 2.601h-1.207zm2.479-3.527h2.912l-.897-2.379c-.273-.723-.476-1.316-.609-1.781-.109.551-.264 1.097-.463 1.64l-.943 2.52z" transform="matrix(.8367-.54766.54766.8367-436.7 359.63)"/><path d="m406.62 787.09v-8.59h2.959c.668 0 1.178.041 1.529.123.493.114.913.319 1.26.616.453.383.791.873 1.014 1.47.226.594.34 1.274.34 2.039 0 .653-.076 1.231-.229 1.735-.152.504-.347.922-.586 1.254-.238.328-.5.588-.785.779-.281.188-.623.33-1.025.428-.399.097-.858.146-1.377.146h-3.1zm1.137-1.013h1.834c.566 0 1.01-.053 1.33-.159.324-.105.582-.254.773-.445.27-.269.479-.631.627-1.084.153-.457.229-1.01.229-1.658 0-.899-.149-1.588-.445-2.068-.293-.485-.651-.809-1.073-.973-.304-.117-.795-.176-1.47-.176h-1.805v6.563z" transform="matrix(.09218-.99574.99574.09218-470.32 1147.6)"/><path d="m394.34 787.09l3.299-8.59h1.224l3.516 8.59h-1.295l-1-2.601h-3.592l-.943 2.601h-1.207zm2.478-3.527h2.913l-.897-2.379c-.273-.723-.477-1.316-.609-1.781-.11.551-.264 1.097-.463 1.64l-.944 2.52z" transform="matrix(-.07465-.99721.99721-.07465-403.83 1284.4)"/><path d="m368.55 787.09v-8.59h3.222c.657 0 1.182.088 1.576.264.399.172.709.44.932.803.227.359.34.736.34 1.131 0 .367-.1.713-.299 1.037s-.5.586-.902.785c.519.152.918.412 1.195.779.281.367.422.801.422 1.301 0 .402-.086.777-.258 1.125-.168.344-.377.609-.627.797-.25.187-.564.33-.943.428-.375.093-.836.14-1.383.14h-3.275zm1.136-4.98h1.858c.504 0 .865-.033 1.084-.1.289-.086.506-.228.65-.428.149-.199.223-.449.223-.75 0-.285-.069-.535-.205-.75-.137-.218-.332-.367-.586-.445-.254-.082-.69-.123-1.307-.123h-1.717v2.596zm0 3.967h2.139c.367 0 .625-.014.773-.041.262-.047.481-.125.657-.235.176-.109.32-.267.433-.474.114-.211.17-.454.17-.727 0-.32-.082-.598-.246-.832-.164-.238-.392-.404-.685-.498-.289-.098-.707-.147-1.254-.147h-1.987v2.954z" transform="matrix(-.57221-.8201.8201-.57221-72.28 1607.9)"/><path d="m351.93 787.09v-8.59h3.24c.57 0 1.01.028 1.306.082.422.071.776.206 1.061.405.285.195.514.47.686.826.175.355.263.746.263 1.172 0 .73-.232 1.349-.697 1.857-.465.504-1.305.756-2.52.756h-2.203v3.492h-1.136zm1.136-4.506h2.221c.734 0 1.256-.136 1.564-.41.309-.273.463-.658.463-1.154 0-.359-.091-.666-.275-.92-.18-.258-.418-.428-.715-.51-.191-.051-.545-.076-1.06-.076h-2.198v3.07z" transform="matrix(-.74471-.66739.66739-.74471 109.09 1687.7)"/><path d="m335.28 787.09v-8.59h3.809c.765 0 1.348.079 1.746.235.398.152.717.424.955.814.238.391.357.823.357 1.295 0 .61-.197 1.123-.591 1.541-.395.418-1 .684-1.828.797.3.145.529.287.685.428.332.304.647.685.943 1.142l1.495 2.338h-1.43l-1.137-1.787c-.332-.515-.605-.91-.82-1.183-.215-.274-.408-.465-.58-.575-.168-.109-.34-.185-.516-.228-.129-.028-.34-.041-.633-.041h-1.318v3.814h-1.137zm1.137-4.799h2.443c.52 0 .926-.052 1.219-.158.293-.109.516-.281.668-.515.152-.239.229-.496.229-.774 0-.406-.149-.74-.446-1-.293-.261-.758-.392-1.394-.392h-2.719v2.841z" transform="matrix(-.85581-.51728.51728-.85581 265.87 1722.7)"/></g></g></g></svg>