<svg xmlns="http://www.w3.org/2000/svg" viewBox="0 0 640 480"><g fill-rule="evenodd"><g fill="#fff"><path d="m0,0h640v480h-640z"/><path d="m0,320.7h480v159.3h-480z"/><path d="m0,0h480v159.3h-480z"/><path d="m201.9,281-28.822-20.867-28.68,21.072 10.667-34.242-28.628-21.145 35.418-.2948 10.985-34.138 11.221,34.06 35.418,.0449-28.481,21.344 10.902,34.166z"/><path d="m509.54,281-28.822-20.867-28.68,21.072 10.667-34.242-28.628-21.145 35.418-.2948 10.985-34.138 11.221,34.06 35.418,.0449-28.481,21.344 10.902,34.166z"/></g><g stroke-width="1.25"><path d="m0,320.7h640v159.3h-640z"/><path fill="#f00" d="m0,0h640v159.3h-640z"/></g><g fill="#090" stroke-width=".113"><path d="m201.9,281-28.822-20.867-28.68,21.072 10.667-34.242-28.628-21.145 35.418-.2948 10.985-34.138 11.221,34.06 35.418,.0449-28.481,21.344 10.902,34.166z"/><path d="m509.54,281-28.822-20.867-28.68,21.072 10.667-34.242-28.628-21.145 35.418-.2948 10.985-34.138 11.221,34.06 35.418,.0449-28.481,21.344 10.902,34.166z"/></g></g></svg>