<svg xmlns="http://www.w3.org/2000/svg" viewBox="0 0 640 480" xmlns:xlink="http://www.w3.org/1999/xlink"><g fill-rule="evenodd"><g fill="#fff"><path d="m0 0h640v480h-640z"/><path d="m0 320.7h480v159.3h-480z"/><path d="m0 0h480v159.3h-480z"/><path d="m201.9 281l-28.822-20.867-28.68 21.07 10.667-34.24-28.628-21.15 35.418-.295 10.985-34.14 11.221 34.06 35.418.045-28.481 21.344 10.902 34.17" id="0"/><path d="m509.54 281l-28.822-20.867-28.68 21.07 10.667-34.24-28.628-21.15 35.418-.295 10.985-34.14 11.221 34.06 35.418.045-28.481 21.344 10.902 34.17" id="1"/></g><g stroke-width="1.25"><path d="m0 320.7h640v159.3h-640z"/><path fill="#f00" d="m0 0h640v159.3h-640z"/></g><g fill="#090" stroke-width=".113"><use xlink:href="#0"/><use xlink:href="#1"/></g></g></svg>