<svg xmlns="http://www.w3.org/2000/svg" viewBox="0 0 640 480" xmlns:xlink="http://www.w3.org/1999/xlink"><defs><path id="0" d="m1224.4 279.92c-3.54 0-7.09-3.544-7.09-7.087s3.55-7.087 7.09-7.087"/><path id="1" d="m273.5 33.16c-19.565.663-27.16-1.665-39.755-1.249-22.16.709-38.09 4.409-38.09-.416 0-4.826 8.01-7.08 30.18-7.08 22.17 0 27.682 1.419 47.664 8.742"/><clipPath id="2"><path d="m-85.33 0h682.67v512h-682.67z"/></clipPath></defs><g clip-path="url(#2)" transform="matrix(.9375 0 0 .9375 80 0)"><g fill-rule="evenodd"><path fill="#3e5eb9" d="m-128 0h768v512h-768z"/><path fill="#ffd900" d="m-128 91.43h768v329.14h-768z"/><path fill="#b10c0c" d="m-128 128h768v256h-768z"/><path fill="#ffd900" stroke="#000" stroke-width="1.474" d="m-45.672 250.51h610.18a5.7666 5.4855 0 0 1 5.767 5.485 5.7666 5.4855 0 0 1 -5.767 5.486h-610.18a5.7666 5.4855 0 0 1 -5.7666 -5.486 5.7666 5.4855 0 0 1 5.7666 -5.485"/></g><g stroke="#000"><g transform="matrix(1.0321 0 0 1.0321-757.03-25.6)"><g fill-rule="evenodd"><path fill="#fff" stroke-width="4.175" d="m-106.3 265.75l-88.58 35.433 88.58 35.433 88.58-35.433-88.58-35.433z" transform="matrix(.34 0 0 .3 1256.8 136.42)" id="3"/><path fill="#ffd900" stroke-width="1.333" d="m765.92 223.23h434.69a4.1082 3.5433 0 0 1 4.11 3.543 4.1082 3.5433 0 0 1 -4.11 3.544h-434.69a4.1082 3.5433 0 0 1 -4.108 -3.544 4.1082 3.5433 0 0 1 4.108 -3.543" id="4"/></g><g fill="none" stroke-width="2.667"><use transform="matrix(-.50001 0 0 .5 1806.3 90.35)" xlink:href="#0"/><use transform="matrix(-.50001 0 0 .5 1802.8 90.35)" xlink:href="#0"/><use transform="matrix(-.50001 0 0 .5 1799.2 90.36)" xlink:href="#0"/></g></g><g transform="matrix(1.0321 0 0 1.0321-786.29-3.657)"><g fill-rule="evenodd"><use xlink:href="#3"/><use xlink:href="#4"/></g><g fill="none" stroke-width="2.667"><use transform="matrix(-.50001 0 0 .5 1806.3 90.35)" xlink:href="#0"/><use transform="matrix(-.50001 0 0 .5 1802.8 90.35)" xlink:href="#0"/><use transform="matrix(-.50001 0 0 .5 1799.2 90.36)" xlink:href="#0"/></g></g></g><g fill-rule="evenodd"><g transform="matrix(.48305 0 0 .4852 228.79 259.6)"><path fill="#3d5da7" stroke="#000" stroke-width="1.333" d="m338.07-.416c-5.571 12.442 4.275-4.138 28.3 16.691 4.452 3.87 8.342 14.09 8.342 21.18-1.13-.975-1.969-3.144-3.214-4.552-1.743 2.253 1.664 12.577 2.162 17.457-3.756-2.711-3.394-3.994-4.642-7.324.249 4.03-.645 15.12.849 19.386-2.96-1.09-2.764-4.163-4.31-4.78 1.052 4.834-.916 10.09-.394 15.528-1.73-2.208-3.573-3.938-4.376-4.829-.135 2.588-3.327 9.388-3.4 11.835-1.468-1.144-1.866-2.927-2.111-4.126-1.824 2.955-8.308 13.872-8.724 17.202-4.996-5.689-17.793-19.545-19.459-26.899-1.473 4.175-3.604 5.583-7.817 8.632-1.665-11.656-7.891-24.756-4.561-34.747-2.359 1.804-4.302 3.608-6.66 5.828 2.234-16.88 13.628-36.674 30.02-46.48z" transform="matrix(2.0586 0 0 1.5894-79.54-15.739)"/><g fill="#a70000" stroke-width="1.25"><use transform="matrix(-.27666.47556-.98145-.25924 681.83-39.928)" xlink:href="#1"/><use transform="matrix(.0006.37154-.90479.08269 635.67-.247)" xlink:href="#1"/><use transform="matrix(.06913.52214-.8386.21649 639.17-31.725)" xlink:href="#1"/><use transform="matrix(.32032.21152.45182-.55995 553.09 8.395)" xlink:href="#1"/><use transform="matrix(.18815.32091.80839-.3379 573.21 4.559)" xlink:href="#1"/></g></g><g transform="matrix(.47326 0 0 .48433-242.14 255.81)"><path fill="#3d5da7" stroke="#000" stroke-width="1.333" d="m329.6 20.703c-.272-2.662.253-2.981-1.258-4.989 2.2.997 2.284 3.649 4.959 1.767.983-.551 1.411-.569.217-3.526 2.79.14 11.927 3.535 13.39 3.614 3.842.191 10.855-4.373 15.723 1.239 4.672 5.117 3.112 10.429 3.112 17.516-1.877-.975-.973-1.455-2.965-3.989 1.494 6.195-.08 17.364-.08 23.934-.767-1.584-.654-.896-1.404-2.537-1.992 5.997-4.38 7.231-4.38 14.318-.719-2.779-.025-2.192-.825-3.654-1.936 4.552-14.925 8.444-9.92 13.03-4.518-2.87-6.499-2.569-8.548-5.15-.882.617-1.584 1.785-2.404 3.387-7.943-3.96-5.103-12.501-11.326-18.206-1.077 2.392-.586 2.045-1.75 5.938-1.26-5.408-1.604-8.844-3.02-12.819-1.223 2.204-1.113 1.359-3.333 4.689-.918-6.587-2.413-8.142-1.822-12.501-2.359 1.804-.815 1.073-3.173 3.294 2.234-16.88 11.884-29.352 18.808-25.358z" transform="matrix(2.4029 0 0 2.1669-332.33-34.376)"/><g fill="#a70000" stroke-width="1.25"><use transform="matrix(-.28442.59052-.97712-.33674 546.38-80.16)" xlink:href="#1"/><use transform="matrix(-.13148.53639-.90793-.09701 520.88-43.839)" xlink:href="#1"/><use transform="matrix(-.05773.52353-.86604.00969 521.59-23.375)" xlink:href="#1"/><use transform="matrix(.49337.4315.76655-.69323 364.56-41.836)" xlink:href="#1"/><use transform="matrix(.33146.44175.797-.44557 402.27-18.441)" xlink:href="#1"/></g></g><g transform="matrix(1.0321 0 0 1.0321-128 0)"><path fill="#fff" stroke="#000" stroke-width="2.108" d="m637.8 230.32c-53.15 59.05-124.02 177.16-265.75 177.16-124.02 0-212.6-118.11-265.75-177.16 53.15-59.06 141.73-177.17 265.75-177.17 141.73 0 212.6 118.11 265.75 177.17z" transform="matrix(.66667 0 0 .6 124.02 109.84)"/><g stroke-width="1.25"><path d="m353.5 114.78c14.14 17.671 2.333 24.795 17.3 25.955 15.784 1.288 6.837 18.672 20.11 19.276 9.282.45-.927 41.652 8.01 55.25 9.102 14.174 16.725 4.153 16.885 14.393.158 10.59-24.773 9.522-25.21 42.15-.731 18.8-21.04 20-22.01 32.1-1.205 11.378 40.01 17.766 39.459 27.952-.565 10.155-44.501 8.565-46.41 20.15-.981 10.402 60.36 18.928 65.29 49.01-9.153 3.326-35.19 6.457-54.877 6.474-124.01.11-212.6-118.11-265.75-177.16 53.15-59.06 141.73-177.17 265.75-177.17 0 0-36.813 37.37-18.549 61.63" transform="matrix(.66667 0 0 .6 124.02 109.84)"/><g fill="#fff" transform="matrix(.48485 0 0 .53333 183.72 210.24)"><path d="m159.45 0h17.717v53.15h-17.717z" id="5"/><path d="m159.45 88.58h17.717v53.15h-17.717z" id="6"/><path d="m194.88 0h17.717v53.15h-17.717z" id="7"/><path d="m194.88 88.58h17.717v53.15h-17.717z" id="8"/><path d="m230.31 0h17.717v53.15h-17.717z" id="9"/><path d="m230.31 88.58h17.717v53.15h-17.717z" id="A"/><path d="m265.75 0h17.717v53.15h-17.717z" id="B"/><path d="m265.75 88.58h17.717v53.15h-17.717z" id="C"/><path d="m301.18 0h17.717v53.15h-17.717z" id="D"/><path d="m301.18 88.58h17.717v53.15h-17.717z" id="E"/><path d="m336.61 0h17.717v53.15h-17.717z" id="F"/><path d="m336.61 88.58h17.717v53.15h-17.717z" id="G"/></g><g transform="matrix(.48485 0 0 .53333 313.64 210.24)"><use xlink:href="#5"/><use xlink:href="#6"/><use xlink:href="#7"/><use xlink:href="#8"/><use xlink:href="#9"/><use xlink:href="#A"/><use xlink:href="#B"/><use xlink:href="#C"/><use xlink:href="#D"/><use xlink:href="#E"/><use xlink:href="#F"/><use xlink:href="#G"/></g></g></g><g transform="matrix(.54409 0 0 .5327 19.257 165.99)"><path fill="#3d5da7" stroke="#000" stroke-width="1.333" d="m338.07-.416c-5.571 12.442 9.754-4.138 33.778 16.691 4.452 3.87 10.833 19.16 10.833 26.25-5.115-1.256-14.173-7.087-14.173-7.087s10.63 12.295 10.63 26.468c-3.756-2.711-5.635-2.304-6.883-5.635 0 4.589 3.34 7.513 3.34 14.599-2.711-2.498-5.01-4.163-7.3-5.625 3.543 7.087-6.457 20.834-1.452 25.423-8.752-1.462-17.707-7.919-21.25-15.01-1.878 1.462-2.082 3.756-2.155 6.203.276.264-13.322-11.656-12.07-16.235-1.824 2.955-2.081 4.579-2.497 7.909-4.996-5.689-9.574-11.378-11.24-18.733-2.22 3.33-2.359 3.33-4.579 6.66-1.665-11.656-1.665-11.24 1.665-21.23-2.359 1.804-4.302 3.608-6.66 5.828 2.234-16.88 13.628-36.674 30.02-46.48z" transform="matrix(1.6714 0 0 1.4783-238.63.199)"/><g fill="#a70000" stroke-width="1.25"><use transform="matrix(-.11102.64598-1.0321-.05499 368.06-85.39)" xlink:href="#1"/><use transform="matrix(.02113.55187-.89959.15647 353.52-43.46)" xlink:href="#1"/><use transform="matrix(.25282.46206.80443-.32096 274.24 15.866)" xlink:href="#1"/><use transform="matrix(.59303.27916.5463-.87734 203.78 1.463)" xlink:href="#1"/><use transform="matrix(.44018.33354.6437-.64761 246.48 13.583)" xlink:href="#1"/></g></g></g></g></svg>