<svg xmlns="http://www.w3.org/2000/svg" viewBox="0 0 640 480"><defs><clipPath id="clipPath4924" clipPathUnits="userSpaceOnUse"><path fill-opacity=".67" d="m-85.333-0h682.67v512h-682.67z"/></clipPath></defs><g clip-path="url(#clipPath4924)" transform="matrix(.9375 0 0 .9375 80 0)"><g fill-rule="evenodd"><path fill="#3e5eb9" d="m-128-0h768v512h-768z"/><path fill="#ffd900" d="m-128,91.429h768v329.14h-768z"/><path fill="#b10c0c" d="m-128,128h768v256h-768z"/><path fill="#ffd900" stroke="#000" stroke-width="1.474" d="m-45.6724,250.51h610.1764a5.7666,5.4855 0 0,1 5.767,5.485 5.7666,5.4855 0 0,1 -5.767,5.486h-610.1764a5.7666,5.4855 0 0,1 -5.7666-5.486 5.7666,5.4855 0 0,1 5.7666-5.485"/></g><g stroke="#000"><g transform="matrix(1.0321 0 0 1.0321 -757.03 -25.6)"><g fill-rule="evenodd"><path fill="#fff" stroke-width="4.175" d="m-106.3,265.75-88.583,35.433 88.583,35.433 88.582-35.433-88.582-35.433z" transform="matrix(.34 0 0 .3 1256.8 136.42)"/><path fill="#ffd900" stroke-width="1.333" d="m765.918,223.23h434.692a4.1082,3.5433 0 0,1 4.11,3.543 4.1082,3.5433 0 0,1 -4.11,3.544h-434.692a4.1082,3.5433 0 0,1 -4.108-3.544 4.1082,3.5433 0 0,1 4.108-3.543"/></g><g fill="none" stroke-width="2.667"><path d="m1224.4,279.92c-3.54,0-7.09-3.544-7.09-7.087s3.55-7.087 7.09-7.087" transform="matrix(-.50001 0 0 .5 1806.3 90.354)"/><path d="m1224.4,279.92c-3.54,0-7.09-3.544-7.09-7.087s3.55-7.087 7.09-7.087" transform="matrix(-.50001 0 0 .5 1802.8 90.354)"/><path d="m1224.4,279.92c-3.54,0-7.09-3.544-7.09-7.087s3.55-7.087 7.09-7.087" transform="matrix(-.50001 0 0 .5 1799.2 90.355)"/></g></g><g transform="matrix(1.0321 0 0 1.0321 -786.29 -3.6571)"><g fill-rule="evenodd"><path fill="#fff" stroke-width="4.175" d="m-106.3,265.75-88.583,35.433 88.583,35.433 88.582-35.433-88.582-35.433z" transform="matrix(.34 0 0 .3 1256.8 136.42)"/><path fill="#ffd900" stroke-width="1.333" d="m765.918,223.23h434.692a4.1082,3.5433 0 0,1 4.11,3.543 4.1082,3.5433 0 0,1 -4.11,3.544h-434.692a4.1082,3.5433 0 0,1 -4.108-3.544 4.1082,3.5433 0 0,1 4.108-3.543"/></g><g fill="none" stroke-width="2.667"><path d="m1224.4,279.92c-3.54,0-7.09-3.544-7.09-7.087s3.55-7.087 7.09-7.087" transform="matrix(-.50001 0 0 .5 1806.3 90.354)"/><path d="m1224.4,279.92c-3.54,0-7.09-3.544-7.09-7.087s3.55-7.087 7.09-7.087" transform="matrix(-.50001 0 0 .5 1802.8 90.354)"/><path d="m1224.4,279.92c-3.54,0-7.09-3.544-7.09-7.087s3.55-7.087 7.09-7.087" transform="matrix(-.50001 0 0 .5 1799.2 90.355)"/></g></g></g><g fill-rule="evenodd"><g transform="matrix(.48305 0 0 .4852 228.79 259.6)"><path fill="#3d5da7" stroke="#000" stroke-width="1.333" d="m338.07-.4163c-5.571,12.442 4.275-4.1375 28.299,16.691 4.452,3.8696 8.342,14.09 8.342,21.177-1.13-.9748-1.969-3.1443-3.214-4.5522-1.743,2.2527 1.664,12.577 2.162,17.457-3.756-2.7108-3.394-3.9938-4.642-7.3242 .249,4.0258-.645,15.116 .849,19.386-2.96-1.0897-2.764-4.1629-4.31-4.7801 1.052,4.834-.916,10.094-.394,15.528-1.73-2.2082-3.573-3.9375-4.376-4.829-.135,2.5882-3.327,9.3883-3.4,11.835-1.468-1.1436-1.866-2.9265-2.111-4.1265-1.824,2.9554-8.308,13.872-8.724,17.202-4.996-5.6892-17.793-19.545-19.459-26.899-1.473,4.175-3.604,5.583-7.817,8.6317-1.665-11.656-7.891-24.756-4.561-34.747-2.359,1.8039-4.302,3.6077-6.66,5.8279 2.234-16.88 13.628-36.674 30.016-46.477z" transform="matrix(2.0586 0 0 1.5894 -79.541 -15.739)"/><g fill="#a70000" stroke-width="1.25"><path d="m273.5,33.156c-19.565,.6626-27.155-1.6652-39.755-1.2489-22.163,.7088-38.09,4.4093-38.09-.4162 0-4.8256 8.006-7.0769 30.181-7.0769 22.174,0 27.682,1.4187 47.664,8.742z" transform="matrix(-.27666 .47556 -.98145 -.25924 681.83 -39.928)"/><path d="m273.5,33.156c-19.565,.6626-27.155-1.6652-39.755-1.2489-22.163,.7088-38.09,4.4093-38.09-.4162 0-4.8256 8.006-7.0769 30.181-7.0769 22.174,0 27.682,1.4187 47.664,8.742z" transform="matrix(.0006 .37154 -.90479 .08269 635.67 -.24702)"/><path d="m273.5,33.156c-19.565,.6626-27.155-1.6652-39.755-1.2489-22.163,.7088-38.09,4.4093-38.09-.4162 0-4.8256 8.006-7.0769 30.181-7.0769 22.174,0 27.682,1.4187 47.664,8.742z" transform="matrix(.06913 .52214 -.8386 .21649 639.17 -31.725)"/><path d="m273.5,33.156c-19.565,.6626-27.155-1.6652-39.755-1.2489-22.163,.7088-38.09,4.4093-38.09-.4162 0-4.8256 8.006-7.0769 30.181-7.0769 22.174,0 27.682,1.4187 47.664,8.742z" transform="matrix(.32032 .21152 .45182 -.55995 553.09 8.3945)"/><path d="m273.5,33.156c-19.565,.6626-27.155-1.6652-39.755-1.2489-22.163,.7088-38.09,4.4093-38.09-.4162 0-4.8256 8.006-7.0769 30.181-7.0769 22.174,0 27.682,1.4187 47.664,8.742z" transform="matrix(.18815 .32091 .80839 -.3379 573.21 4.5594)"/></g></g><g transform="matrix(.47326 0 0 .48433 -242.14 255.81)"><path fill="#3d5da7" stroke="#000" stroke-width="1.333" d="m329.6,20.703c-.272-2.6623 .253-2.9806-1.258-4.9889 2.2,.9974 2.284,3.6487 4.959,1.7668 .983-.5511 1.411-.5686 .217-3.526 2.79,.1401 11.927,3.5353 13.39,3.6142 3.842,.191 10.855-4.3733 15.723,1.2392 4.672,5.1175 3.112,10.429 3.112,17.516-1.877-.9748-.973-1.4548-2.965-3.9891 1.494,6.195-.08,17.364-.08,23.934-.767-1.5844-.654-.8963-1.404-2.537-1.992,5.9969-4.38,7.231-4.38,14.318-.719-2.7793-.025-2.1917-.825-3.6536-1.936,4.5523-14.925,8.4437-9.92,13.033-4.518-2.8699-6.499-2.5689-8.548-5.15-.882,.6171-1.584,1.7852-2.404,3.3868-7.943-3.9596-5.103-12.501-11.326-18.206-1.077,2.3922-.586,2.0448-1.75,5.9383-1.26-5.4076-1.604-8.8441-3.021-12.819-1.223,2.2038-1.113,1.359-3.333,4.6893-.918-6.5873-2.413-8.142-1.822-12.501-2.359,1.8039-.815,1.0733-3.173,3.2935 2.234-16.88 11.884-29.352 18.808-25.358z" transform="matrix(2.4029 0 0 2.1669 -332.33 -34.376)"/><g fill="#a70000" stroke-width="1.25"><path d="m273.5,33.156c-19.565,.6626-27.155-1.6652-39.755-1.2489-22.163,.7088-38.09,4.4093-38.09-.4162 0-4.8256 8.006-7.0769 30.181-7.0769 22.174,0 27.682,1.4187 47.664,8.742z" transform="matrix(-.28442 .59052 -.97712 -.33674 546.38 -80.159)"/><path d="m273.5,33.156c-19.565,.6626-27.155-1.6652-39.755-1.2489-22.163,.7088-38.09,4.4093-38.09-.4162 0-4.8256 8.006-7.0769 30.181-7.0769 22.174,0 27.682,1.4187 47.664,8.742z" transform="matrix(-.13148 .53639 -.90793 -.09701 520.88 -43.839)"/><path d="m273.5,33.156c-19.565,.6626-27.155-1.6652-39.755-1.2489-22.163,.7088-38.09,4.4093-38.09-.4162 0-4.8256 8.006-7.0769 30.181-7.0769 22.174,0 27.682,1.4187 47.664,8.742z" transform="matrix(-.05773 .52353 -.86604 .00969 521.59 -23.375)"/><path d="m273.5,33.156c-19.565,.6626-27.155-1.6652-39.755-1.2489-22.163,.7088-38.09,4.4093-38.09-.4162 0-4.8256 8.006-7.0769 30.181-7.0769 22.174,0 27.682,1.4187 47.664,8.742z" transform="matrix(.49337 .4315 .76655 -.69323 364.56 -41.836)"/><path d="m273.5,33.156c-19.565,.6626-27.155-1.6652-39.755-1.2489-22.163,.7088-38.09,4.4093-38.09-.4162 0-4.8256 8.006-7.0769 30.181-7.0769 22.174,0 27.682,1.4187 47.664,8.742z" transform="matrix(.33146 .44175 .797 -.44557 402.27 -18.441)"/></g></g><g transform="matrix(1.0321 0 0 1.0321 -128 .00012)"><path fill="#fff" stroke="#000" stroke-width="2.108" d="m637.8,230.32c-53.15,59.05-124.02,177.16-265.75,177.16-124.02,0-212.6-118.11-265.75-177.16 53.15-59.06 141.73-177.17 265.75-177.17 141.73,0 212.6,118.11 265.75,177.17z" transform="matrix(.66667 0 0 .6 124.02 109.84)"/><g stroke-width="1.25"><path d="m353.5,114.78c14.14,17.671 2.333,24.795 17.3,25.955 15.784,1.288 6.837,18.672 20.114,19.276 9.282,.45-.927,41.652 8.009,55.247 9.102,14.174 16.725,4.153 16.885,14.393 .158,10.59-24.773,9.522-25.21,42.146-.731,18.8-21.039,20.004-22.008,32.101-1.205,11.378 40.008,17.766 39.459,27.952-.565,10.155-44.501,8.565-46.414,20.146-.981,10.402 60.359,18.928 65.291,49.013-9.153,3.326-35.194,6.457-54.877,6.474-124.01,.11-212.6-118.11-265.75-177.16 53.15-59.06 141.73-177.17 265.75-177.17 0,0-36.813,37.374-18.549,61.627z" transform="matrix(.66667 0 0 .6 124.02 109.84)"/><g fill="#fff" transform="matrix(.48485 0 0 .53333 183.72 210.24)"><path d="m159.45,0h17.717v53.15h-17.717z"/><path d="m159.45,88.583h17.717v53.15h-17.717z"/><path d="m194.88,.0001h17.717v53.15h-17.717z"/><path d="m194.88,88.583h17.717v53.15h-17.717z"/><path d="m230.31-0h17.717v53.15h-17.717z"/><path d="m230.31,88.583h17.717v53.15h-17.717z"/><path d="m265.75,0h17.717v53.15h-17.717z"/><path d="m265.75,88.583h17.717v53.15h-17.717z"/><path d="m301.18-0h17.717v53.15h-17.717z"/><path d="m301.18,88.583h17.717v53.15h-17.717z"/><path d="m336.61,0h17.717v53.15h-17.717z"/><path d="m336.61,88.583h17.717v53.15h-17.717z"/></g><g transform="matrix(.48485 0 0 .53333 313.64 210.24)"><path d="m159.45,0h17.717v53.15h-17.717z"/><path d="m159.45,88.583h17.717v53.15h-17.717z"/><path d="m194.88,.0001h17.717v53.15h-17.717z"/><path d="m194.88,88.583h17.717v53.15h-17.717z"/><path d="m230.31-0h17.717v53.15h-17.717z"/><path d="m230.31,88.583h17.717v53.15h-17.717z"/><path d="m265.75,0h17.717v53.15h-17.717z"/><path d="m265.75,88.583h17.717v53.15h-17.717z"/><path d="m301.18-0h17.717v53.15h-17.717z"/><path d="m301.18,88.583h17.717v53.15h-17.717z"/><path d="m336.61,0h17.717v53.15h-17.717z"/><path d="m336.61,88.583h17.717v53.15h-17.717z"/></g></g></g><g transform="matrix(.54409 0 0 .5327 19.257 165.99)"><path fill="#3d5da7" stroke="#000" stroke-width="1.333" d="m338.07-.4163c-5.571,12.442 9.754-4.1376 33.778,16.691 4.452,3.8696 10.833,19.159 10.833,26.245-5.115-1.2564-14.173-7.0866-14.173-7.0866s10.63,12.295 10.63,26.468c-3.756-2.7108-5.635-2.3043-6.883-5.6345 0,4.5889 3.34,7.5126 3.34,14.599-2.711-2.4977-5.006-4.1629-7.3-5.6248 3.543,7.0866-6.457,20.834-1.452,25.423-8.752-1.4619-17.707-7.9192-21.25-15.006-1.878,1.4619-2.082,3.7564-2.155,6.2028 .276,.2643-13.322-11.656-12.073-16.235-1.824,2.9554-2.081,4.5791-2.497,7.9094-4.996-5.6892-9.574-11.378-11.24-18.733-2.22,3.3302-2.359,3.3302-4.579,6.6605-1.665-11.656-1.665-11.24 1.665-21.23-2.359,1.8039-4.302,3.6077-6.66,5.8279 2.234-16.88 13.628-36.674 30.016-46.477z" transform="matrix(1.6714 0 0 1.4783 -238.63 .19911)"/><g fill="#a70000" stroke-width="1.25"><path d="m273.5,33.156c-19.565,.6626-27.155-1.6652-39.755-1.2489-22.163,.7088-38.09,4.4093-38.09-.4162 0-4.8256 8.006-7.0769 30.181-7.0769 22.174,0 27.682,1.4187 47.664,8.742z" transform="matrix(-.11102 .64598 -1.0321 -.05499 368.06 -85.394)"/><path d="m273.5,33.156c-19.565,.6626-27.155-1.6652-39.755-1.2489-22.163,.7088-38.09,4.4093-38.09-.4162 0-4.8256 8.006-7.0769 30.181-7.0769 22.174,0 27.682,1.4187 47.664,8.742z" transform="matrix(.02113 .55187 -.89959 .15647 353.52 -43.459)"/><path d="m273.5,33.156c-19.565,.6626-27.155-1.6652-39.755-1.2489-22.163,.7088-38.09,4.4093-38.09-.4162 0-4.8256 8.006-7.0769 30.181-7.0769 22.174,0 27.682,1.4187 47.664,8.742z" transform="matrix(.25282 .46206 .80443 -.32096 274.24 15.866)"/><path d="m273.5,33.156c-19.565,.6626-27.155-1.6652-39.755-1.2489-22.163,.7088-38.09,4.4093-38.09-.4162 0-4.8256 8.006-7.0769 30.181-7.0769 22.174,0 27.682,1.4187 47.664,8.742z" transform="matrix(.59303 .27916 .5463 -.87734 203.78 1.4633)"/><path d="m273.5,33.156c-19.565,.6626-27.155-1.6652-39.755-1.2489-22.163,.7088-38.09,4.4093-38.09-.4162 0-4.8256 8.006-7.0769 30.181-7.0769 22.174,0 27.682,1.4187 47.664,8.742z" transform="matrix(.44018 .33354 .6437 -.64761 246.48 13.583)"/></g></g></g></g></svg>