<svg xmlns="http://www.w3.org/2000/svg" viewBox="0 0 640 480"><path fill="#006" d="m640,480v-480h-640v480h640z"/><g transform="matrix(.74736 0 0 .92867 0 .00021)"><path fill="#006" fill-rule="evenodd" d="m0,0h500v250h-500z"/></g><g stroke-width="1.25" transform="scale(6.22798 7.73889)"><g fill="#fff"><path d="m0,0v3.3541l53.292,26.646h6.708v-3.354l-53.292-26.646h-6.708zm60,0v3.354l-53.292,26.646h-6.708v-3.354l53.292-26.646h6.708z"/><path d="m25,0v30h10v-30h-10zm-25,10v10h60v-10h-60z"/></g><g fill="#c00"><path d="m0,12v6h60v-6h-60zm27-12v30h6v-30h-6z"/><path d="m0,30 20-10h4.472l-20,10h-4.472zm0-30 20,10h-4.472l-15.528-7.7639v-2.2361zm35.528,10 20-10h4.472l-20,10h-4.472zm24.472,20-20-10h4.472l15.528,7.764v2.236z"/></g></g><g fill-opacity=".996" transform="matrix(.9382 0 0 .9382 -334.01 51.775)"><path fill="#fff" d="m1008.9,171.25v85.175c0,69.928-27.467,133.94-108.95,172.85-81.45-38.91-108.92-102.92-108.92-172.85v-85.175h217.91z"/><path fill="#fdc300" d="m1001.6,179.93v79.444c0,65.223-25.619,124.93-101.62,161.22-76.004-36.291-101.62-95.996-101.62-161.22v-79.444h203.25z"/></g><g stroke="#000" stroke-width=".091"><g transform="matrix(3.90892 0 0 3.90939 -339.13154 46.65271)"><path fill="#ff9e3d" d="m205.96,52.847c-.353-.2648-.736-.4266-1.265-.4413 .117-1.2946-.824-1.8536-1.501-2.089-.676-.2354-.912-.5002-1.029-1.0298-.118-.5296-.471-.8532-1.089-1.0297-.618-.1766-1.148-.7944-1.383-1.0887-.235-.2942-.324-.2354-.5,.2648-.177,.5002-.883,1.4417-.236,1.4712-.47,.3824-.735,.8238-.441,1.4122-.324,.2648-.559,.6473-.118,.7944 .442,.1471 .559,.2648 .589,.3825-.397,0-.5,.7944 .441,.9709-.206,.0294-.294,.6767 .089,.6767-.53,0-.972,.7945-1.648,.7945-.677,0-1.03,.147-1.059,.4413-.03,.2942-.383,.6472-.559,.7944 .5,.0588 .823,0 1.088-.206s.706-.2648 1.001-.0294c.294,.2354 .912,.353 1.206,.2942-.647,.4414-1.118,1.0298-1.177,1.5888-.059,.5591-.441,1.2063-.883,1.3829-.441,.1765-1.029,.6473-1.235,1.2063 .559,1.3828 1.352,1.7244 2.147,2.0889 1.413,.6474 2.295,1.1181 2.884,1.7654 .588,.6473 .824,.1765 1.706,1.2945 .883,1.1181 1.707,3.2365 2.589,3.5896 .883,.353 2.001,.1177 2.648-1.0004 .648-1.118 1.06-12.416-2.265-14.299z"/><path fill="#ff927f" d="m207.46,48.139c-.824,.8827-1.884,1.7654-1.707,3.3542s.353,4.178-1.118,5.0606c-1.471,.8827-2.177,3.1188-.412,4.4133 1.765,1.2947 1.824,2.8835 2.118,4.3546 .295,1.4711 1.06,2.6479 2.237,1.6476 1.176,.1765 1.824-.2942 1.824-1.2357s.059-1.4711 .941-1.7654c.883-.2942 1.118-.5885 1.53-1.3828 .412-.7944 .647-1.1475 .412-1.6183-.235-.4707-.324-1.4416-.147-2.1478 .177-.7061-.235-1.0886-.471-1.5299-.235-.4413-.323-.8238-.206-1.4123 .118-.5885-.176-.9709-.588-1.2652-.412-.2942-.589-.5884-.5-1.0592 .088-.4707-.295-.7649-.736-1.118s-.765-.8238-.765-1.5299c0-.7062-1.353-2.3539-2.412-2.7658z"/><path fill="#ff9ee1" d="m207.79,67.352c1.971-.5002 1.795-3.7366 1.501-5.09-.295-1.3535-1.051-3.292-.471-4.8253 .824-2.1772-1.001-4.2368-.53-5.0606 .471-.8239 .412-1.2652 .353-1.53-.058-.2648-.5-.4707-.529,.0883-.03,.559-.177,.7649-.53,1.118s-.265,1.118 0,1.9713c.265,.8532 .824,2.1479-.059,3.8543-.882,1.7065-.519,2.4669-.176,3.2659 .529,1.2357 1.795,5.5314 .441,6.2081z"/><g fill="none"><path d="m198.96,48.904c.221,0 .648-.0884 .648,.2059"/><path d="m198.52,50.316c.265-.1913 .736,.0294 1.206-.2501"/><path d="m198.99,51.493c.353,0 .824-.0147 1.265-.3678"/><path d="m199.43,52.464c.324,0 .927-.2059 1.074-.6325"/><path d="m199.52,53.141c.632-.0294 1.471,.206 1.588-.0147"/><path d="m199.55,55.23c.441-.4119 1.486-.6914 1.721-1.118"/><path d="m200.67,48.669c.735,.2355 .431,.6901 .794,.971 .648,.5002 .059,1.0592 .589,1.2063 .529,.1471 .52,.2365 .382,.8238-.162,.6915 .5,.7208 .265,1.1769"/><path d="m204.7,52.406c-.294,0-1.162,.0294-1.53,.8091"/><path d="m198.42,60.894c.339,.0589 .508-.1338 .603-.3236 .103-.206 .147-.3531 .456-.3678 .309-.0148 .78-.103 .883-.3384 .103-.2353 .471-.0147 .78-.6326 .309-.6178 .515-1.3534 1.338-1.6182"/></g></g><g transform="matrix(3.90892 0 0 3.90939 -339.13154 46.65271)"><path fill="#00a728" d="m221.76,73.75c.333,.4838-.012,1.0068 .553,1.216 .662,.245 .084,1.1156 .865,1.4224 .692,.2722 .005,1.1045 .753,1.4783 .669,.3347-.112,1.1157 .781,1.562 .892,.4462-.168,1.4503 .502,1.8408 .669,.3905-.223,1.3946 .558,1.7851 .781,.3904-.335,1.1714 .39,1.7293 .725,.5578-.167,1.3945 .558,1.8966s-.445,1.1725 .279,1.8967c.558,.5578-.201,1.1041 .223,1.9524 .279,.5578-.279,2.7892-1.841,2.566-.558,.9484-2.733,1.7851-3.514,1.5062-.781,.5578-3.291,1.3388-4.575,.1116-1.282,1.2272-3.793,.4462-4.574-.1116-.781,.2789-2.956-.5578-3.514-1.5062-1.562,.2232-2.12-2.0082-1.841-2.566 .424-.8483-.335-1.3946 .223-1.9524 .724-.7242-.446-1.3946 .279-1.8967s-.167-1.3388 .558-1.8966c.725-.5579-.391-1.3389 .39-1.7293 .781-.3905-.111-1.3946 .558-1.7851 .67-.3905-.39-1.3946 .502-1.8408 .893-.4463 .112-1.2273 .781-1.562 .748-.3738 .061-1.2061 .753-1.4783 .781-.3068 .203-1.1774 .865-1.4224 .574-.2125 .208-.7489 .57-1.2391 1.661,.6534 6.803,1.1223 8.918,.0231z"/></g><g fill="#fdc300" fill-opacity=".996" transform="matrix(3.90892 0 0 3.90939 -339.13154 46.65271)"><path d="m213.51,76.668c.001,.2505-.005,.5-.237,.8089-.502,.6694 .223,1.0042-.335,1.7293-.557,.7252 .112,1.1715-.502,1.7851-.613,.6136 .112,1.1715-.502,1.8409-.613,.6694 .112,1.1156-.502,1.7292-.613,.6137 .112,1.2831-.502,1.8966-.613,.6137 .112,1.3946-.558,2.1199-.669,.7251 .112,1.2829-.446,1.8408-.558,.5578-.056,1.1156-.446,1.5061 .669-.502 .669-1.2829 1.171-1.6734 .502-.3906-.167-.9484 .112-1.2273s.056-1.4504 .558-2.0082c.502-.5579 .056-1.6735 .502-2.064s.111-1.5619 .669-1.9524 0-1.3388 .446-1.8409c.447-.502 0-1.283 .447-1.8966 .446-.6136 .02-1.1707 .334-1.6735 .14-.2231 .14-1.8408-.209-.9205z"/><path d="m215.12,77.365c-.39,.7252 .279,.8925-.223,1.6177s.279,1.283-.279,2.0082 .279,1.1156-.223,1.8409c-.502,.7251 .223,1.1156-.223,1.6735-.447,.5578 .334,1.1156-.223,1.785-.558,.6695 .223,1.1715-.224,1.7851-.446,.6136 .168,1.283-.223,1.785-.39,.5021 .279,1.2273-.279,1.8967s.112,1.1157-.223,1.562c.67-.2232 .419-1.1436 .67-1.3388 .251-.1953-.084-1.4783 .306-1.813 .391-.3347-.251-1.3672 .112-1.813 .614-.753 .084-1.2551 .446-1.8408 .363-.5858-.138-1.3377 .14-1.7293 .474-.6694-.21-1.2728 .139-1.7572 .502-.6973-.097-1.2715 .251-1.7293 .53-.6973-.056-1.3946 .168-1.7572 .223-.3626 .585-1.9245-.112-2.1755z"/><path d="m217.29,77.974c-.39,.972 .279,1.3608 .056,2.1383-.223,.7776 .279,1.3608-.056,2.2031-.334,.8424 .447,1.4903 0,2.5919-.446,1.1016 .288,1.3758 0,2.4623-.334,1.2637 .558,1.9331 0,2.8257-.557,.8925 .639,1.188 .056,2.1197-.279,.4463 .028,1.5899 .474,.2232 .447-1.3667-.334-1.534 .056-2.0919 .391-.5579-.139-2.0361 .028-2.8171 .168-.781-.39-1.8409-.028-2.6776 .363-.8367-.558-1.7292-.195-2.4545 .363-.7251-.167-1.6177 .167-2.2034 .335-.5857-.251-1.3667-.111-1.7014 .139-.3347-.14-1.5712-.447-.6183z"/></g><g transform="matrix(3.90892 0 0 3.90939 -339.13154 46.65271)"><path fill="#ef072d" d="m221.47,74.408c0-6.3035-.892-8.479-4.184-8.479-3.291,0-4.183,2.1755-4.183,8.479h8.367z"/></g><g fill="none" transform="matrix(3.90892 0 0 3.90939 -339.13154 46.65271)"><path d="m214.33,73.906c-.614,.6136 .112,1.0599-.502,1.785-.614,.7253-.056,1.1157-.558,1.7851s.223,1.0042-.335,1.7293c-.557,.7252 .112,1.1715-.502,1.7851-.613,.6136 .112,1.1715-.502,1.8409-.613,.6694 .112,1.1156-.502,1.7292-.613,.6137 .112,1.2831-.502,1.8966-.613,.6137 .112,1.3946-.558,2.1199-.669,.7251 .112,1.2829-.446,1.8408-.558,.5578-.056,1.1156-.446,1.5061-.391,.3905-.446,.9345-.279,1.1715"/><path d="m215.5,74.129c-.557,.7252 .279,1.0599-.223,1.6735-.502,.6137 .223,.8368-.167,1.562s.279,.8925-.223,1.6177 .279,1.283-.279,2.0082 .279,1.1156-.223,1.8409c-.502,.7251 .223,1.1156-.223,1.6735-.447,.5578 .334,1.1156-.223,1.785-.558,.6695 .223,1.1715-.224,1.7851-.446,.6136 .168,1.283-.223,1.785-.39,.5021 .279,1.2273-.279,1.8967s.112,1.1157-.223,1.562c-.335,.4462-.599,1.1017-.279,1.283"/><path d="m217.29,74.799c-.278,1.1663 .391,2.2031 0,3.175-.39,.972 .279,1.3608 .056,2.1383-.223,.7776 .279,1.3608-.056,2.2031-.334,.8424 .447,1.4903 0,2.5919-.446,1.1016 .288,1.3758 0,2.4623-.334,1.2637 .558,1.9331 0,2.8257-.557,.8925 .503,1.1157 .056,2.1197-.446,1.0042 .279,1.3946-.056,2.3988"/><path d="m220.25,73.906c.614,.6136-.112,1.0599 .502,1.785 .614,.7253 .056,1.1157 .558,1.7851s-.223,1.0042 .335,1.7293c.557,.7252-.112,1.1715 .502,1.7851 .613,.6136-.112,1.1715 .502,1.8409 .613,.6694-.112,1.1156 .502,1.7292 .613,.6137-.112,1.2831 .502,1.8966 .613,.6137-.112,1.3946 .558,2.1199 .669,.7251-.112,1.2829 .446,1.8408 .558,.5578 .056,1.1156 .446,1.5061 .391,.3905 .447,.9345 .279,1.1715"/><path d="m219.08,74.129c.557,.7252-.279,1.0599 .223,1.6735 .502,.6137-.223,.8368 .167,1.562 .391,.7252-.279,.8925 .223,1.6177s-.279,1.283 .279,2.0082-.279,1.1156 .223,1.8409c.502,.7251-.223,1.1156 .223,1.6735 .447,.5578-.334,1.1156 .224,1.785 .557,.6695-.224,1.1715 .223,1.7851 .446,.6136-.168,1.283 .223,1.785 .39,.5021-.279,1.2273 .279,1.8967s-.112,1.1157 .223,1.562c.335,.4462 .6,1.1017 .279,1.283"/></g><g transform="matrix(3.90892 0 0 3.90939 -339.13154 46.65271)"><path d="m213.11,74.408c0-6.3035 .892-8.479 4.183-8.479-1.506,0-2.426,1.1713-2.677,1.9523s-.112,.7252 .223,.4184 .167,.3626-.111,.7252c-.279,.3626-.558,1.3946-.168,1.0599 .391-.3347 .697,.0558 .279,.6415s-.781,1.9524-.363,1.4783c.419-.4742 .502,.3068 .252,.6973-.252,.3905-.224,.7251 0,.5578 .223-.1673 .195,.6415-.028,.9483h-1.59z"/><path d="m220.83,74.046c0-4.9368-.613-6.4151-1.84-6.9171-.695-.2847-.715-.2231-.383,.2231s.281,1.0878-.026,.6415c-.306-.4462-.408-.5299-.536-.3346-.128,.1952 .357,1.1156 .715,1.9524 .288,.673 .102,1.004-.332,.3346s-.434-.063-.053,.5021c.489,.7252 .474,2.9286 .474,3.849l1.981-.251z"/><path fill="#ef072d" d="m217.29,75.329c1.311,0 2.746-.2336 3.71-.6079 1.144-.4441 1.205-.8343 .809-1.3325-.279-.3507-.893-.1402-1.478,.1169-.586,.2571-2.204,.4208-3.041,.4208-.836,0-2.454-.1637-3.04-.4208-.585-.2571-1.199-.4676-1.478-.1169-.396,.4982-.335,.8884 .809,1.3325 .963,.3743 2.399,.6079 3.709,.6079z"/></g></g><g fill="#b95a1e" fill-rule="evenodd" transform="matrix(.84025 0 0 .84035 -109.32048 107.82213)"><g stroke="#000"><g stroke-width="6.377"><path d="m779.41,912.6s-.12,103.6 0,179.24c.12,75.63 19.822,104.91 54.262,103.59 34.44-1.33 41.108-58.83 34.531-92.08-6.577-33.26-53.24-198.97-53.24-198.97l-35.553,8.222z" transform="matrix(.06308 -.04074 .03863 .06652 712.1 209.87)"/><path d="m779.41,912.6s-.12,103.6 0,179.24c.12,75.63 19.822,104.91 54.262,103.59 34.44-1.33 41.108-58.83 34.531-92.08-6.577-33.26-53.24-198.97-53.24-198.97l-35.553,8.222z" transform="matrix(.07236 -.0162 .01536 .0763 725.15 182.35)"/><path d="m779.41,912.6s-.12,103.6 0,179.24c.12,75.63 19.822,104.91 54.262,103.59 34.44-1.33 41.108-58.83 34.531-92.08-6.577-33.26-53.24-198.97-53.24-198.97l-35.553,8.222z" transform="matrix(.07397 0 0 .078 736.23 168.42)"/></g><path stroke-width="8.095" d="m779.53,255.12c159.57-1.394 177.16-35.432 177.16-35.432s35.43-70.866 17.716-88.584c-17.717-17.716-194.88-17.716-194.88-17.716v141.73z" transform="matrix(.04591 0 0 .078 758.11 219.55)"/><g stroke-width="6.377"><path d="m779.53,255.12c106.3,0 124.02-35.432 124.02-35.432s35.43-70.866 17.716-88.584c-17.717-17.716-141.73-17.716-141.73-17.716v141.73z" transform="matrix(.07397 0 0 .078 736.23 214.02)"/><path d="m779.53,255.12c88.583,0 141.73-35.433 141.73-35.433s35.43-70.866 17.716-88.584c-17.72-17.72-159.45-17.71-159.45-17.71v141.73z" transform="matrix(.07397 0 0 .078 736.23 208.49)"/></g><g stroke-width="5.724"><path d="m832.68,113.39s70.866-88.583 194.88-177.17c124.01-88.582 213.73-156.72 230.31-141.73 0,17.717-106.3,106.3-194.88,177.17-88.59,70.86-194.89,177.16-194.89,177.16l-35.433-35.433z" transform="matrix(.0918 0 0 .078 721.87 168.58)"/><path d="m832.68,113.39s70.05-52.025 204.38-124.02c132.23-63.918 318.89-53.15 318.89-35.433-17.71,17.716-177.16,17.716-283.46,70.866-101.48,50.729-204.39,124.01-204.39,124.01l-35.433-35.433z" transform="matrix(.0918 0 0 .078 722.63 174.11)"/><path d="m832.68,113.39s61.675-35.068 204.38-88.583c141.72-53.15 329.87-17.717 329.87,0-17.7,17.713-170.4,6.944-276.7,35.429-109.99,27.758-222.09,88.584-222.09,88.584l-35.433-35.433z" transform="matrix(.0918 0 0 .078 722.7 183.63)"/><path d="m832.68,113.39s71.079-70.976 222.47-88.583c152.3-17.72 276.3,88.583 276.3,106.29-17.7,17.72-159.5-77.972-265.7-64.286-112.67,13.654-197.69,82.006-197.69,82.006l-35.433-35.433z" transform="matrix(.0918 0 0 .078 723.32 193.29)"/></g><g stroke-width="6.377"><path d="m779.53,255.12c159.57-1.394 159.45-45.508 159.45-45.508s35.43-70.866 17.716-88.584c-17.717-17.716-177.16-7.64-177.16-7.64v141.73z" transform="matrix(.07397 0 0 .078 736.23 201.59)"/><path d="m779.53,255.12c159.57-1.394 177.16-35.432 177.16-35.432s35.43-70.866 17.716-88.584c-17.717-17.716-194.88-17.716-194.88-17.716v141.73z" transform="matrix(.07397 0 0 .078 736.23 196.06)"/><path d="m779.53,255.12c159.57-1.394 194.88-35.433 194.88-35.433s35.43-70.866 17.716-88.583c-17.717-17.716-212.6-17.716-212.6-17.716v141.73z" transform="matrix(.07397 0 0 .078 736.23 189.15)"/><path d="m779.53,255.12c159.57-1.394 212.6-35.433 212.6-35.433s17.714-70.866 0-88.583c-17.717-17.716-212.6-17.716-212.6-17.716v141.73z" transform="matrix(.07397 0 0 .078 736.23 182.24)"/></g><g stroke-width="5.724"><path d="m832.68,113.39s114.21-88.583 114.21-159.45c0-70.866-50.349-141.73-64.625-177.17 28.552,0 93.176,106.3 93.176,177.17 0,77.444-107.32,194.88-107.32,194.88l-35.433-35.433z" transform="matrix(.0918 0 0 .078 720.08 162.89)"/><path d="m832.68,113.39s-14.276-53.15-14.276-159.45c0-124.02 63.001-202.89 85.654-230.32 5.898,27.422-57.102,124.02-57.102,230.32 0,77.444 21.157,194.88 21.157,194.88l-35.433-35.433z" transform="matrix(.0918 0 0 .078 720.08 162.89)"/></g><g stroke-width="6.377"><path d="m779.53,255.12c159.57-1.394 212.6-35.433 212.6-35.433s0-70.866-17.716-88.583c-17.717-17.716-194.88-17.716-194.88-17.716v141.73z" transform="matrix(.07397 0 0 .078 736.23 175.33)"/><path d="m779.53,255.12c159.57-1.394 194.88-35.433 194.88-35.433s0-70.866-17.716-88.583c-17.717-17.716-177.16-17.716-177.16-17.716v141.73z" transform="matrix(.07397 0 0 .078 736.23 168.42)"/></g></g><path stroke="#fdc301" stroke-width="16.071" d="m318.9,1318.1c55.065-122.32 70.866-336.61 70.866-372.05 0-99.782-32.948-585.11-35.433-779.53s124.02-301.18 248.03-301.18c106.3,0 177.17,70.866 177.17,177.17h-53.15c0-70.866-53.15-124.02-124.02-124.02-106.3,0-187.99,83.739-194.88,248.03-7.605,189.89 21.316,682.94 17.717,814.96s-51.234,249.72-106.3,336.61z" transform="matrix(-.07397 0 0 .078 851.56 168.42)"/><g stroke="#000"><g stroke-width="6.377"><path d="m779.41,912.6s-.12,103.6 0,179.24c.12,75.63 19.822,104.91 54.262,103.59 34.44-1.33 41.108-58.83 34.531-92.08-6.577-33.26-53.24-198.97-53.24-198.97l-35.553,8.222z" transform="matrix(-.06308 -.04074 -.03863 .06652 875.69 209.87)"/><path d="m779.53,32.884c124.13,.141 177.77,102.39 177.46,100.31l-35.734,33.347c-18.985,17.717-141.73,17.717-140.21,17.626l-1.52-151.29z" transform="matrix(.07397 0 0 .078 736.23 168.42)"/><path d="m779.41,912.6s-.12,103.6 0,179.24c.12,75.63 19.822,104.91 54.262,103.59 34.44-1.33 41.108-58.83 34.531-92.08-6.577-33.26-53.24-198.97-53.24-198.97l-35.553,8.222z" transform="matrix(-.07236 -.0162 -.01536 .0763 862.63 182.35)"/><path d="m779.41,912.6s-.12,103.6 0,179.24c.12,75.63 19.822,104.91 54.262,103.59 34.44-1.33 41.108-58.83 34.531-92.08-6.577-33.26-53.24-198.97-53.24-198.97l-35.553,8.222z" transform="matrix(-.07397 0 0 .078 851.55 168.42)"/></g><path stroke-width="8.095" d="m779.53,255.12c159.57-1.394 177.16-35.432 177.16-35.432s35.43-70.866 17.716-88.584c-17.717-17.716-194.88-17.716-194.88-17.716v141.73z" transform="matrix(-.04591 0 0 .078 829.67 219.55)"/><g stroke-width="6.377"><path d="m779.53,255.12c106.3,0 124.02-35.432 124.02-35.432s35.43-70.866 17.716-88.584c-17.717-17.716-141.73-17.716-141.73-17.716v141.73z" transform="matrix(-.07397 0 0 .078 851.55 214.02)"/><path d="m779.53,255.12c88.583,0 141.73-35.433 141.73-35.433s35.43-70.866 17.716-88.584c-17.72-17.72-159.45-17.71-159.45-17.71v141.73z" transform="matrix(-.07397 0 0 .078 851.55 208.49)"/></g><g stroke-width="5.724"><path d="m832.68,113.39s70.866-88.583 194.88-177.17c124.01-88.582 213.73-156.72 230.31-141.73 0,17.717-106.3,106.3-194.88,177.17-88.59,70.86-194.89,177.16-194.89,177.16l-35.433-35.433z" transform="matrix(-.0918 0 0 .078 865.91 168.58)"/><path d="m832.68,113.39s70.05-52.025 204.38-124.02c132.23-63.918 318.89-53.15 318.89-35.433-17.71,17.716-177.16,17.716-283.46,70.866-101.48,50.729-204.39,124.01-204.39,124.01l-35.433-35.433z" transform="matrix(-.0918 0 0 .078 865.16 174.11)"/><path d="m832.68,113.39s61.675-35.068 204.38-88.583c141.72-53.15 329.87-17.717 329.87,0-17.7,17.713-170.4,6.944-276.7,35.429-109.99,27.758-222.09,88.584-222.09,88.584l-35.433-35.433z" transform="matrix(-.0918 0 0 .078 865.09 183.63)"/><path d="m832.68,113.39s71.079-70.976 222.47-88.583c152.3-17.72 276.3,88.583 276.3,106.29-17.7,17.72-159.5-77.972-265.7-64.286-112.67,13.654-197.69,82.006-197.69,82.006l-35.433-35.433z" transform="matrix(-.0918 0 0 .078 864.47 193.29)"/></g><g stroke-width="6.377"><path d="m779.53,255.12c159.57-1.394 159.45-45.508 159.45-45.508s35.43-70.866 17.716-88.584c-17.717-17.716-177.16-7.64-177.16-7.64v141.73z" transform="matrix(-.07397 0 0 .078 851.55 201.59)"/><path d="m779.53,255.12c159.57-1.394 177.16-35.432 177.16-35.432s35.43-70.866 17.716-88.584c-17.717-17.716-194.88-17.716-194.88-17.716v141.73z" transform="matrix(-.07397 0 0 .078 851.55 196.06)"/><path d="m779.53,255.12c159.57-1.394 194.88-35.433 194.88-35.433s35.43-70.866 17.716-88.583c-17.717-17.716-212.6-17.716-212.6-17.716v141.73z" transform="matrix(-.07397 0 0 .078 851.55 189.15)"/><path d="m779.53,255.12c159.57-1.394 212.6-35.433 212.6-35.433s17.714-70.866 0-88.583c-17.717-17.716-212.6-17.716-212.6-17.716v141.73z" transform="matrix(-.07397 0 0 .078 851.55 182.24)"/></g><g stroke-width="5.724"><path d="m832.68,113.39s114.21-88.583 114.21-159.45c0-70.866-50.349-141.73-64.625-177.17 28.552,0 93.176,106.3 93.176,177.17 0,77.444-107.32,194.88-107.32,194.88l-35.433-35.433z" transform="matrix(-.0918 0 0 .078 867.71 162.89)"/><path d="m832.68,113.39s-14.276-53.15-14.276-159.45c0-124.02 63.001-202.89 85.654-230.32 5.898,27.422-57.102,124.02-57.102,230.32 0,77.444 21.157,194.88 21.157,194.88l-35.433-35.433z" transform="matrix(-.0918 0 0 .078 867.71 162.89)"/></g><g stroke-width="6.377"><path d="m779.53,255.12c159.57-1.394 212.6-35.433 212.6-35.433s0-70.866-17.716-88.583c-17.717-17.716-194.88-17.716-194.88-17.716v141.73z" transform="matrix(-.07397 0 0 .078 851.55 175.33)"/><path d="m779.53,255.12c159.57-1.394 194.88-35.433 194.88-35.433s0-70.866-17.716-88.583c-17.717-17.716-177.16-17.716-177.16-17.716v141.73z" transform="matrix(-.07397 0 0 .078 851.55 168.42)"/></g></g><path stroke="#fdc301" stroke-width="16.071" d="m318.9,1318.1c55.065-122.32 70.866-336.61 70.866-372.05 0-99.782-32.948-585.11-35.433-779.53s124.02-301.18 248.03-301.18c106.3,0 177.17,70.866 177.17,177.17h-53.15c0-70.866-53.15-124.02-124.02-124.02-106.3,0-187.99,83.739-194.88,248.03-7.605,189.89 21.316,682.94 17.717,814.96s-51.234,249.72-106.3,336.61z" transform="matrix(.07397 0 0 .078 736.22 168.42)"/><path stroke="#000" stroke-width="6.377" d="m779.53,32.884c124.13,.141 177.77,102.39 177.46,100.31l-35.734,33.347c-18.985,17.717-141.73,17.717-140.21,17.626l-1.52-151.29z" transform="matrix(-.07397 0 0 .078 851.55 168.42)"/></g></svg>