<svg xmlns="http://www.w3.org/2000/svg" viewBox="0 0 640 480" xmlns:xlink="http://www.w3.org/1999/xlink"><defs><path id="0" d="m779.53 255.12c159.57-1.394 177.16-35.432 177.16-35.432s35.43-70.866 17.716-88.58c-17.717-17.716-194.88-17.716-194.88-17.716v141.73z"/><path id="1" d="m779.41 912.6s-.12 103.6 0 179.24c.12 75.63 19.822 104.91 54.26 103.59 34.44-1.33 41.11-58.83 34.531-92.08-6.577-33.26-53.24-198.97-53.24-198.97l-35.553 8.222z"/></defs><g fill="#006"><path d="m640 480v-480h-640v480h640"/><path fill-rule="evenodd" d="m0 0h500v250h-500z" transform="scale(.74736.92867)"/></g><g stroke-width="1.25" transform="scale(6.22798 7.73889)"><g fill="#fff"><path d="m0 0v3.354l53.29 26.646h6.708v-3.354l-53.29-26.646h-6.708m60 0v3.354l-53.29 26.646h-6.708v-3.354l53.29-26.646h6.708"/><path d="m25 0v30h10v-30h-10m-25 10v10h60v-10h-60"/></g><g fill="#c00"><path d="m0 12v6h60v-6h-60m27-12v30h6v-30h-6"/><path d="m0 30l20-10h4.472l-20 10h-4.472m0-30l20 10h-4.472l-15.528-7.764v-2.236m35.528 10l20-10h4.472l-20 10h-4.472m24.472 20l-20-10h4.472l15.528 7.764v2.236"/></g></g><g fill-opacity=".996" transform="matrix(.9382 0 0 .9382-334.01 51.775)"><path fill="#fff" d="m1008.9 171.25v85.18c0 69.928-27.467 133.94-108.95 172.85-81.45-38.91-108.92-102.92-108.92-172.85v-85.18h217.91z"/><path fill="#fdc300" d="m1001.6 179.93v79.44c0 65.22-25.619 124.93-101.62 161.22-76-36.29-101.62-96-101.62-161.22v-79.44h203.25z"/></g><g stroke="#000" stroke-width=".091" transform="matrix(3.90892 0 0 3.90939-339.13 46.653)"><path fill="#ff9e3d" d="m205.96 52.847c-.353-.265-.736-.427-1.265-.441.117-1.295-.824-1.854-1.501-2.089-.676-.235-.912-.5-1.029-1.03-.118-.53-.471-.853-1.089-1.03-.618-.177-1.148-.794-1.383-1.089-.235-.294-.324-.235-.5.265-.177.5-.883 1.442-.236 1.471-.47.382-.735.824-.441 1.412-.324.265-.559.647-.118.794.442.147.559.265.589.383-.397 0-.5.794.441.971-.206.029-.294.677.089.677-.53 0-.972.794-1.648.794-.677 0-1.03.147-1.059.441-.03.294-.383.647-.559.794.5.059.823 0 1.088-.206s.706-.265 1-.029c.294.235.912.353 1.206.294-.647.441-1.118 1.03-1.177 1.589-.059.559-.441 1.206-.883 1.383-.441.176-1.029.647-1.235 1.206.559 1.383 1.352 1.724 2.147 2.089 1.413.647 2.295 1.118 2.884 1.765.588.647.824.176 1.706 1.295.883 1.118 1.707 3.237 2.589 3.59.883.353 2 .118 2.648-1 .648-1.118 1.06-12.416-2.265-14.299z"/><path fill="#ff927f" d="m207.46 48.14c-.824.883-1.884 1.765-1.707 3.354s.353 4.178-1.118 5.061c-1.471.883-2.177 3.119-.412 4.413 1.765 1.295 1.824 2.883 2.118 4.355.295 1.471 1.06 2.648 2.237 1.648 1.176.177 1.824-.294 1.824-1.236s.059-1.471.941-1.765c.883-.294 1.118-.589 1.53-1.383.412-.794.647-1.148.412-1.618-.235-.471-.324-1.442-.147-2.148.177-.706-.235-1.089-.471-1.53-.235-.441-.323-.824-.206-1.412.118-.589-.176-.971-.588-1.265-.412-.294-.589-.588-.5-1.059.088-.471-.295-.765-.736-1.118s-.765-.824-.765-1.53c0-.706-1.353-2.354-2.412-2.766z"/><path fill="#ff9ee1" d="m207.79 67.35c1.971-.5 1.795-3.737 1.501-5.09-.295-1.353-1.051-3.292-.471-4.825.824-2.177-1-4.237-.53-5.061.471-.824.412-1.265.353-1.53-.058-.265-.5-.471-.529.088-.03.559-.177.765-.53 1.118s-.265 1.118 0 1.971c.265.853.824 2.148-.059 3.854-.882 1.706-.519 2.467-.176 3.266.529 1.236 1.795 5.531.441 6.208z"/><g fill="none"><path d="m198.96 48.904c.221 0 .648-.088.648.206"/><path d="m198.52 50.32c.265-.191.736.029 1.206-.25"/><path d="m198.99 51.49c.353 0 .824-.015 1.265-.368"/><path d="m199.43 52.46c.324 0 .927-.206 1.074-.633"/><path d="m199.52 53.14c.632-.029 1.471.206 1.588-.015"/><path d="m199.55 55.23c.441-.412 1.486-.691 1.721-1.118"/><path d="m200.67 48.669c.735.236.431.69.794.971.648.5.059 1.059.589 1.206.529.147.52.236.382.824-.162.691.5.721.265 1.177"/><path d="m204.7 52.41c-.294 0-1.162.029-1.53.809"/><path d="m198.42 60.894c.339.059.508-.134.603-.324.103-.206.147-.353.456-.368.309-.015.78-.103.883-.338.103-.235.471-.015.78-.633.309-.618.515-1.353 1.338-1.618"/></g><path fill="#00a728" d="m221.76 73.75c.333.484-.012 1.01.553 1.216.662.245.084 1.116.865 1.422.692.272.005 1.105.753 1.478.669.335-.112 1.116.781 1.562.892.446-.168 1.45.502 1.841.669.391-.223 1.395.558 1.785.781.39-.335 1.171.39 1.729.725.558-.167 1.394.558 1.897s-.445 1.172.279 1.897c.558.558-.201 1.104.223 1.952.279.558-.279 2.789-1.841 2.566-.558.948-2.733 1.785-3.514 1.506-.781.558-3.291 1.339-4.575.112-1.282 1.227-3.793.446-4.574-.112-.781.279-2.956-.558-3.514-1.506-1.562.223-2.12-2.01-1.841-2.566.424-.848-.335-1.395.223-1.952.724-.724-.446-1.395.279-1.897s-.167-1.339.558-1.897c.725-.558-.391-1.339.39-1.729.781-.391-.111-1.395.558-1.785.67-.391-.39-1.395.502-1.841.893-.446.112-1.227.781-1.562.748-.374.061-1.206.753-1.478.781-.307.203-1.177.865-1.422.574-.213.208-.749.57-1.239 1.661.653 6.803 1.122 8.918.023z"/><g fill="#fdc300" fill-opacity=".996"><path d="m213.51 76.67c0 .251-.005.5-.237.809-.502.669.223 1-.335 1.729-.557.725.112 1.171-.502 1.785-.613.614.112 1.171-.502 1.841-.613.669.112 1.116-.502 1.729-.613.614.112 1.283-.502 1.897-.613.614.112 1.395-.558 2.12-.669.725.112 1.283-.446 1.841-.558.558-.056 1.116-.446 1.506.669-.502.669-1.283 1.171-1.673.502-.391-.167-.948.112-1.227s.056-1.45.558-2.01c.502-.558.056-1.674.502-2.064s.111-1.562.669-1.952 0-1.339.446-1.841c.447-.502 0-1.283.447-1.897.446-.614.02-1.171.334-1.674.14-.223.14-1.841-.209-.921z"/><path d="m215.12 77.36c-.39.725.279.892-.223 1.618s.279 1.283-.279 2.01.279 1.116-.223 1.841c-.502.725.223 1.116-.223 1.674-.447.558.334 1.116-.223 1.785-.558.669.223 1.171-.224 1.785-.446.614.168 1.283-.223 1.785-.39.502.279 1.227-.279 1.897s.112 1.116-.223 1.562c.67-.223.419-1.144.67-1.339.251-.195-.084-1.478.306-1.813.391-.335-.251-1.367.112-1.813.614-.753.084-1.255.446-1.841.363-.586-.138-1.338.14-1.729.474-.669-.21-1.273.139-1.757.502-.697-.097-1.272.251-1.729.53-.697-.056-1.395.168-1.757.223-.363.585-1.924-.112-2.175z"/><path d="m217.29 77.974c-.39.972.279 1.361.056 2.138-.223.778.279 1.361-.056 2.203-.334.842.447 1.49 0 2.592-.446 1.102.288 1.376 0 2.462-.334 1.264.558 1.933 0 2.826-.557.892.639 1.188.056 2.12-.279.446.028 1.59.474.223.447-1.367-.334-1.534.056-2.092.391-.558-.139-2.036.028-2.817.168-.781-.39-1.841-.028-2.678.363-.837-.558-1.729-.195-2.454.363-.725-.167-1.618.167-2.203.335-.586-.251-1.367-.111-1.701.139-.335-.14-1.571-.447-.618z"/></g><path fill="#ef072d" d="m221.47 74.41c0-6.303-.892-8.479-4.184-8.479-3.291 0-4.183 2.175-4.183 8.479h8.367z"/><g fill="none"><path d="m214.33 73.906c-.614.614.112 1.06-.502 1.785-.614.725-.056 1.116-.558 1.785s.223 1-.335 1.729c-.557.725.112 1.171-.502 1.785-.613.614.112 1.171-.502 1.841-.613.669.112 1.116-.502 1.729-.613.614.112 1.283-.502 1.897-.613.614.112 1.395-.558 2.12-.669.725.112 1.283-.446 1.841-.558.558-.056 1.116-.446 1.506-.391.391-.446.934-.279 1.171"/><path d="m215.5 74.13c-.557.725.279 1.06-.223 1.674-.502.614.223.837-.167 1.562s.279.892-.223 1.618.279 1.283-.279 2.01.279 1.116-.223 1.841c-.502.725.223 1.116-.223 1.674-.447.558.334 1.116-.223 1.785-.558.669.223 1.171-.224 1.785-.446.614.168 1.283-.223 1.785-.39.502.279 1.227-.279 1.897s.112 1.116-.223 1.562c-.335.446-.599 1.102-.279 1.283"/><path d="m217.29 74.8c-.278 1.166.391 2.203 0 3.175-.39.972.279 1.361.056 2.138-.223.778.279 1.361-.056 2.203-.334.842.447 1.49 0 2.592-.446 1.102.288 1.376 0 2.462-.334 1.264.558 1.933 0 2.826-.557.892.503 1.116.056 2.12-.446 1 .279 1.395-.056 2.399"/><path d="m220.25 73.906c.614.614-.112 1.06.502 1.785.614.725.056 1.116.558 1.785s-.223 1 .335 1.729c.557.725-.112 1.171.502 1.785.613.614-.112 1.171.502 1.841.613.669-.112 1.116.502 1.729.613.614-.112 1.283.502 1.897.613.614-.112 1.395.558 2.12.669.725-.112 1.283.446 1.841.558.558.056 1.116.446 1.506.391.391.447.934.279 1.171"/><path d="m219.08 74.13c.557.725-.279 1.06.223 1.674.502.614-.223.837.167 1.562.391.725-.279.892.223 1.618s-.279 1.283.279 2.01-.279 1.116.223 1.841c.502.725-.223 1.116.223 1.674.447.558-.334 1.116.224 1.785.557.669-.224 1.171.223 1.785.446.614-.168 1.283.223 1.785.39.502-.279 1.227.279 1.897s-.112 1.116.223 1.562c.335.446.6 1.102.279 1.283"/></g><path d="m213.11 74.41c0-6.303.892-8.479 4.183-8.479-1.506 0-2.426 1.171-2.677 1.952s-.112.725.223.418.167.363-.111.725c-.279.363-.558 1.395-.168 1.06.391-.335.697.056.279.641s-.781 1.952-.363 1.478c.419-.474.502.307.252.697-.252.391-.224.725 0 .558.223-.167.195.641-.028.948h-1.59z"/><path d="m220.83 74.05c0-4.937-.613-6.415-1.84-6.917-.695-.285-.715-.223-.383.223s.281 1.088-.026.641c-.306-.446-.408-.53-.536-.335-.128.195.357 1.116.715 1.952.288.673.102 1-.332.335s-.434-.063-.053.502c.489.725.474 2.929.474 3.849l1.981-.251z"/><path fill="#ef072d" d="m217.29 75.33c1.311 0 2.746-.234 3.71-.608 1.144-.444 1.205-.834.809-1.332-.279-.351-.893-.14-1.478.117-.586.257-2.204.421-3.041.421-.836 0-2.454-.164-3.04-.421-.585-.257-1.199-.468-1.478-.117-.396.498-.335.888.809 1.332.963.374 2.399.608 3.709.608z"/></g><g fill="#b95a1e" fill-rule="evenodd" transform="matrix(.84025 0 0 .84035-109.32 107.82)"><g stroke="#000"><g stroke-width="6.377"><use transform="matrix(.06308-.04074.03863.06652 712.1 209.87)" xlink:href="#1"/><use transform="matrix(.07236-.0162.01536.0763 725.15 182.35)" xlink:href="#1"/><use transform="matrix(.07397 0 0 .078 736.23 168.42)" xlink:href="#1"/></g><use stroke-width="8.095" transform="matrix(.04591 0 0 .078 758.11 219.55)" xlink:href="#0"/><g stroke-width="6.377"><path d="m779.53 255.12c106.3 0 124.02-35.432 124.02-35.432s35.43-70.866 17.716-88.58c-17.717-17.716-141.73-17.716-141.73-17.716v141.73z" transform="matrix(.07397 0 0 .078 736.23 214.02)" id="3"/><path d="m779.53 255.12c88.58 0 141.73-35.433 141.73-35.433s35.43-70.866 17.716-88.58c-17.72-17.72-159.45-17.71-159.45-17.71v141.73z" transform="matrix(.07397 0 0 .078 736.23 208.49)" id="4"/></g><g stroke-width="5.724"><path d="m832.68 113.39s70.866-88.58 194.88-177.17c124.01-88.58 213.73-156.72 230.31-141.73 0 17.717-106.3 106.3-194.88 177.17-88.59 70.86-194.89 177.16-194.89 177.16l-35.433-35.433z" transform="matrix(.0918 0 0 .078 721.87 168.58)" id="5"/><path d="m832.68 113.39s70.05-52.02 204.38-124.02c132.23-63.918 318.89-53.15 318.89-35.433-17.71 17.716-177.16 17.716-283.46 70.866-101.48 50.729-204.39 124.01-204.39 124.01l-35.433-35.433z" transform="matrix(.0918 0 0 .078 722.63 174.11)" id="6"/><path d="m832.68 113.39s61.675-35.07 204.38-88.58c141.72-53.15 329.87-17.717 329.87 0-17.7 17.713-170.4 6.944-276.7 35.429-109.99 27.758-222.09 88.58-222.09 88.58l-35.433-35.433z" transform="matrix(.0918 0 0 .078 722.7 183.63)" id="7"/><path d="m832.68 113.39s71.08-70.976 222.47-88.58c152.3-17.72 276.3 88.58 276.3 106.29-17.7 17.72-159.5-77.972-265.7-64.29-112.67 13.654-197.69 82.01-197.69 82.01l-35.433-35.433z" transform="matrix(.0918 0 0 .078 723.32 193.29)" id="8"/></g><g stroke-width="6.377"><path d="m779.53 255.12c159.57-1.394 159.45-45.508 159.45-45.508s35.43-70.866 17.716-88.58c-17.717-17.716-177.16-7.64-177.16-7.64v141.73z" transform="matrix(.07397 0 0 .078 736.23 201.59)" id="9"/><use transform="matrix(.07397 0 0 .078 736.23 196.06)" xlink:href="#0"/><path d="m779.53 255.12c159.57-1.394 194.88-35.433 194.88-35.433s35.43-70.866 17.716-88.58c-17.717-17.716-212.6-17.716-212.6-17.716v141.73z" transform="matrix(.07397 0 0 .078 736.23 189.15)" id="A"/><path d="m779.53 255.12c159.57-1.394 212.6-35.433 212.6-35.433s17.714-70.866 0-88.58c-17.717-17.716-212.6-17.716-212.6-17.716v141.73z" transform="matrix(.07397 0 0 .078 736.23 182.24)" id="B"/></g><g stroke-width="5.724"><path d="m832.68 113.39s114.21-88.58 114.21-159.45c0-70.866-50.35-141.73-64.62-177.17 28.552 0 93.18 106.3 93.18 177.17 0 77.44-107.32 194.88-107.32 194.88l-35.433-35.433z" transform="matrix(.0918 0 0 .078 720.08 162.89)" id="C"/><path d="m832.68 113.39s-14.276-53.15-14.276-159.45c0-124.02 63-202.89 85.65-230.32 5.898 27.422-57.1 124.02-57.1 230.32 0 77.44 21.16 194.88 21.16 194.88l-35.433-35.433z" transform="matrix(.0918 0 0 .078 720.08 162.89)" id="D"/></g><g stroke-width="6.377"><path d="m779.53 255.12c159.57-1.394 212.6-35.433 212.6-35.433s0-70.866-17.716-88.58c-17.717-17.716-194.88-17.716-194.88-17.716v141.73z" transform="matrix(.07397 0 0 .078 736.23 175.33)" id="E"/><path d="m779.53 255.12c159.57-1.394 194.88-35.433 194.88-35.433s0-70.866-17.716-88.58c-17.717-17.716-177.16-17.716-177.16-17.716v141.73z" transform="matrix(.07397 0 0 .078 736.23 168.42)" id="F"/></g></g><path stroke="#fdc301" stroke-width="16.07" d="m318.9 1318.1c55.06-122.32 70.866-336.61 70.866-372.05 0-99.78-32.948-585.11-35.433-779.53s124.02-301.18 248.03-301.18c106.3 0 177.17 70.866 177.17 177.17h-53.15c0-70.866-53.15-124.02-124.02-124.02-106.3 0-187.99 83.74-194.88 248.03-7.605 189.89 21.316 682.94 17.717 814.96s-51.23 249.72-106.3 336.61z" transform="matrix(-.07397 0 0 .078 851.56 168.42)" id="2"/><g stroke="#000"><g stroke-width="6.377"><use transform="matrix(-.06308-.04074-.03863.06652 875.69 209.87)" xlink:href="#1"/><path d="m779.53 32.884c124.13.141 177.77 102.39 177.46 100.31l-35.734 33.35c-18.985 17.717-141.73 17.717-140.21 17.626l-1.52-151.29z" transform="matrix(.07397 0 0 .078 736.23 168.42)"/><use transform="matrix(-.07236-.0162-.01536.0763 862.63 182.35)" xlink:href="#1"/><use transform="matrix(-.07397 0 0 .078 851.55 168.42)" xlink:href="#1"/></g><use stroke-width="8.095" transform="matrix(-.04591 0 0 .078 829.67 219.55)" xlink:href="#0"/><g stroke-width="6.377" transform="matrix(-1 0 0 1 1587.78 0)"><use xlink:href="#3"/><use xlink:href="#4"/></g><g stroke-width="5.724"><use transform="matrix(-1 0 0 1 1587.78 0)" xlink:href="#5"/><g transform="matrix(-1 0 0 1 1587.79 0)"><use xlink:href="#6"/><use xlink:href="#7"/><use xlink:href="#8"/></g></g><g stroke-width="6.377"><use transform="matrix(-1 0 0 1 1587.78 0)" xlink:href="#9"/><use transform="matrix(-.07397 0 0 .078 851.55 196.06)" xlink:href="#0"/><g transform="matrix(-1 0 0 1 1587.78 0)"><use xlink:href="#A"/><use xlink:href="#B"/></g></g><g stroke-width="5.724" transform="matrix(-1 0 0 1 1587.79 0)"><use xlink:href="#C"/><use xlink:href="#D"/></g><g stroke-width="6.377" transform="matrix(-1 0 0 1 1587.78 0)"><use xlink:href="#E"/><use xlink:href="#F"/></g></g><use transform="matrix(-1 0 0 1 1587.78 0)" xlink:href="#2"/><path stroke="#000" stroke-width="6.377" d="m779.53 32.884c124.13.141 177.77 102.39 177.46 100.31l-35.734 33.35c-18.985 17.717-141.73 17.717-140.21 17.626l-1.52-151.29z" transform="matrix(-.07397 0 0 .078 851.55 168.42)"/></g></svg>