<svg xmlns="http://www.w3.org/2000/svg" viewBox="0 0 640 480"><defs><clipPath id="clipPath7468" clipPathUnits="userSpaceOnUse"><path fill-opacity=".67" d="m0-0h682.67v512h-682.67z"/></clipPath></defs><g fill-rule="evenodd" clip-path="url(#clipPath7468)" transform="matrix(.9375 0 0 .9375 0 .00001)"><g stroke-width="1.25"><path fill="#ffe300" d="m0-0h767.63v512h-767.63z"/><g fill="#118600"><path d="M 0,208.14 H767.63 V310.95 H0 z"/><path d="m0,.2482h767.63v102.8098h-767.63z"/></g><path fill="#d80000" d="m0,.2481h306.51v310.7099h-306.51z"/></g><path fill="#fff" d="m134.42,128.43c0-.8563 18.836-53.083 18.836-53.083l17.124,52.227s57.365,1.7125 57.365,.8562-45.378,34.248-45.378,34.248 21.404,59.933 20.549,58.221c-.8562-1.7125-49.659-35.96-49.659-35.96s-49.658,34.248-48.802,34.248c.8563,0 18.835-56.508 18.835-56.508l-44.522-33.392 55.652-.8562z"/><path fill="#118600" stroke-width="1.25" d="M 0,409.19 H767.63 V512 H0 z"/></g></svg>