<svg xmlns="http://www.w3.org/2000/svg" viewBox="0 0 640 480"><defs><clipPath id="0"><path d="m0 0h682.67v512h-682.67z"/></clipPath></defs><g fill-rule="evenodd" clip-path="url(#0)" transform="scale(.9375)"><g stroke-width="1.25"><path fill="#ffe300" d="m0 0h767.63v512h-767.63z"/><g fill="#118600"><path d="M 0,208.14 H767.63 V310.95 H0 z"/><path d="m0 .248h767.63v102.81h-767.63z"/></g><path fill="#d80000" d="m0 .248h306.51v310.71h-306.51z"/></g><path fill="#fff" d="m134.42 128.43c0-.856 18.836-53.08 18.836-53.08l17.12 52.23s57.37 1.713 57.37.856-45.38 34.25-45.38 34.25 21.404 59.933 20.549 58.22c-.856-1.713-49.659-35.96-49.659-35.96s-49.658 34.25-48.802 34.25c.856 0 18.835-56.51 18.835-56.51l-44.522-33.392 55.652-.856"/><path fill="#118600" stroke-width="1.25" d="M 0,409.19 H767.63 V512 H0 z"/></g></svg>