<svg xmlns="http://www.w3.org/2000/svg" viewBox="0 0 640 480"><defs><clipPath id="clipPath7362" clipPathUnits="userSpaceOnUse"><path fill-opacity=".67" d="m-85.648,0h682.67v512h-682.67z"/></clipPath></defs><g fill-rule="evenodd" clip-path="url(#clipPath7362)" transform="matrix(.9375 0 0 .9375 80.295 -.00002)"><g stroke-width="1.25"><path fill="#fff" d="m-256,0h1023.4v512h-1023.4z"/><path fill="#239f40" d="m-256,372.43h1022.6v139.12h-1022.6z"/><path fill="#cd1738" d="m-256,0h1022.6v139.12h-1022.6z"/></g><g fill="#ff0"><path d="m391.56,256.53 3.57,11.24 11.56-.25-9.59,6.87 3.81,10.92-9.49-6.99-9.21,6.99 3.72-11.19-9.5-6.6 11.79,.08z" transform="matrix(1.0307 0 0 1.0782 -243.7 -64.335)"/><path d="m391.56,256.53 3.57,11.24 11.56-.25-9.59,6.87 3.81,10.92-9.49-6.99-9.21,6.99 3.72-11.19-9.5-6.6 11.79,.08z" transform="matrix(1.0307 0 0 1.0782 -255.54 -12.408)"/><path d="m391.56,256.53 3.57,11.24 11.56-.25-9.59,6.87 3.81,10.92-9.49-6.99-9.21,6.99 3.72-11.19-9.5-6.6 11.79,.08z" transform="matrix(1.0307 0 0 1.0782 -203.62 -106.7)"/><path d="m391.56,256.53 3.57,11.24 11.56-.25-9.59,6.87 3.81,10.92-9.49-6.99-9.21,6.99 3.72-11.19-9.5-6.6 11.79,.08z" transform="matrix(1.0307 0 0 1.0782 -149.64 -120.82)"/><path d="m391.56,256.53 3.57,11.24 11.56-.25-9.59,6.87 3.81,10.92-9.49-6.99-9.21,6.99 3.72-11.19-9.5-6.6 11.79,.08z" transform="matrix(1.0307 0 0 1.0782 -95.208 -106.7)"/><path d="m391.56,256.53 3.57,11.24 11.56-.25-9.59,6.87 3.81,10.92-9.49-6.99-9.21,6.99 3.72-11.19-9.5-6.6 11.79,.08z" transform="matrix(1.0307 0 0 1.0782 -55.124 -64.107)"/><path d="m391.56,256.53 3.57,11.24 11.56-.25-9.59,6.87 3.81,10.92-9.49-6.99-9.21,6.99 3.72-11.19-9.5-6.6 11.79,.08z" transform="matrix(1.0307 0 0 1.0782 -43.509 -12.408)"/><path d="m516.09,230.63c0,9.2551-9.3391,16.758-20.859,16.758s-20.859-7.5027-20.859-16.758c0-9.2551 9.3391-16.758 20.859-16.758s20.859,7.5028 20.859,16.758z" transform="matrix(.99015 0 0 .92977 -236.29 21.42)"/><path d="m248.11,246.85h11.796v54.916h-11.796z"/><path d="m357.58,297.62c-5.1338,10.894-12.042,14.76-23.319,14.458-19.735,.4679-24.195-14.028-26.768-20.427-6.9756,9.1937-10.941,12.848-22.52,12.627-16.498,.369-24.827-9.0216-30.977-26.776-6.1501,17.641-14.479,27.032-30.977,26.663-11.58,.2216-15.545-3.4332-22.52-12.627-2.5726,6.3995-7.0323,20.895-26.768,20.427-11.277,.302-18.185-3.5641-22.807-14.61 5.3647,15.426 10.679,24.058 27.152,24.596 14.92,.1793 21.753-8.4619 24.986-14.372 10.749,5.71 11.854,6.9777 27.093,6.6201 11.376-.3659 17.91-7.7981 23.797-14.87 5.8872,7.0715 12.422,14.504 23.797,14.87 15.24,.3576 16.345-.9101 27.093-6.6201 3.2332,5.9099 10.066,14.551 24.986,14.372 16.473-.538 21.788-9.17 27.751-24.331z"/><path d="m204.17,313.52 5.3853,7.4632 10.326-.303-7.9692,9.0308-15.601,.3989-4.8803-6.5366 9.0112-1.4564 3.7836-8.5753"/><path d="m303.62,313.52-5.3853,7.4632-10.326-.303 7.9692,9.0308 15.601,.3989 4.8803-6.5366-9.0112-1.4564-3.7836-8.5752"/><path d="m241.02,318.31c0-.0402 7.0859,.0402 7.0859,.0402l5.9584-4.7504 5.8172,4.6906 7.0261,.101-6.3212,9.34h-13.286l-6.2799-9.4214z"/><path d="m330.66,351.58c-27.551-5.6883-45.991-8.4866-76.696-8.4866s-49.145,2.7983-76.522,8.4186l-.0381-11.879c27.415-5.6718 45.855-8.4712 76.56-8.4712s49.145,2.7993 76.56,8.4712l.1361,11.947z"/></g><path fill="#fff" d="m505.31,228.88c0,3.2792-4.687,5.9375-10.469,5.9375-5.7817,0-10.469-2.6583-10.469-5.9375s4.687-5.9375 10.469-5.9375c5.7817,0 10.469,2.6583 10.469,5.9375z" transform="matrix(1.0307 0 0 1.0307 -256 .00002)"/></g></svg>