<svg xmlns="http://www.w3.org/2000/svg" viewBox="0 0 640 480" xmlns:xlink="http://www.w3.org/1999/xlink"><defs><path id="0" d="m391.56 256.53l3.57 11.24 11.56-.25-9.59 6.87 3.81 10.92-9.49-6.99-9.21 6.99 3.72-11.19-9.5-6.6 11.79.08z"/><clipPath id="1"><path d="m-85.65 0h682.67v512h-682.67z"/></clipPath></defs><g fill-rule="evenodd" clip-path="url(#1)" transform="matrix(.9375 0 0 .9375 80.3 0)"><g stroke-width="1.25"><path fill="#fff" d="m-256 0h1023.4v512h-1023.4z"/><path fill="#239f40" d="m-256 372.43h1022.6v139.12h-1022.6z"/><path fill="#cd1738" d="m-256 0h1022.6v139.12h-1022.6z"/></g><g fill="#ff0"><use transform="matrix(1.0307 0 0 1.0782-243.7-64.33)" xlink:href="#0"/><use transform="matrix(1.0307 0 0 1.0782-255.54-12.408)" xlink:href="#0"/><use transform="matrix(1.0307 0 0 1.0782-203.62-106.7)" xlink:href="#0"/><use transform="matrix(1.0307 0 0 1.0782-149.64-120.82)" xlink:href="#0"/><use transform="matrix(1.0307 0 0 1.0782-95.21-106.7)" xlink:href="#0"/><use transform="matrix(1.0307 0 0 1.0782-55.12-64.11)" xlink:href="#0"/><use transform="matrix(1.0307 0 0 1.0782-43.509-12.408)" xlink:href="#0"/><path d="m516.09 230.63c0 9.255-9.339 16.758-20.859 16.758s-20.859-7.503-20.859-16.758c0-9.255 9.339-16.758 20.859-16.758s20.859 7.503 20.859 16.758" transform="matrix(.99015 0 0 .92977-236.29 21.42)"/><path d="m248.11 246.85h11.796v54.916h-11.796z"/><path d="m357.58 297.62c-5.134 10.894-12.04 14.76-23.319 14.458-19.735.468-24.19-14.03-26.768-20.427-6.976 9.194-10.941 12.848-22.52 12.627-16.498.369-24.827-9.02-30.977-26.776-6.15 17.641-14.479 27.03-30.977 26.663-11.58.222-15.545-3.433-22.52-12.627-2.573 6.399-7.03 20.895-26.768 20.427-11.277.302-18.19-3.564-22.807-14.61 5.365 15.426 10.679 24.06 27.15 24.596 14.92.179 21.753-8.462 24.986-14.372 10.749 5.71 11.854 6.978 27.09 6.62 11.376-.366 17.91-7.798 23.797-14.87 5.887 7.07 12.422 14.504 23.797 14.87 15.24.358 16.345-.91 27.09-6.62 3.233 5.91 10.07 14.551 24.986 14.372 16.473-.538 21.788-9.17 27.751-24.331z"/><path d="m204.17 313.52l5.385 7.463 10.326-.303-7.969 9.03-15.601.399-4.88-6.537 9.01-1.456 3.784-8.575"/><path d="m303.62 313.52l-5.385 7.463-10.326-.303 7.969 9.03 15.601.399 4.88-6.537-9.01-1.456-3.784-8.575"/><path d="m241.02 318.31c0-.04 7.086.04 7.086.04l5.958-4.75 5.817 4.691 7.03.101-6.321 9.34h-13.286l-6.28-9.421"/><path d="m330.66 351.58c-27.551-5.688-45.991-8.487-76.7-8.487s-49.15 2.798-76.52 8.419l-.038-11.879c27.415-5.672 45.855-8.471 76.56-8.471s49.14 2.799 76.56 8.471l.136 11.947"/></g><path fill="#fff" d="m505.31 228.88c0 3.279-4.687 5.938-10.469 5.938-5.782 0-10.469-2.658-10.469-5.938s4.687-5.938 10.469-5.938c5.782 0 10.469 2.658 10.469 5.938" transform="matrix(1.0307 0 0 1.0307-256 0)"/></g></svg>