<svg xmlns="http://www.w3.org/2000/svg" viewBox="0 0 640 480" xmlns:xlink="http://www.w3.org/1999/xlink"><defs><clipPath id="0"><path d="m0 0h640v480h-640z"/></clipPath></defs><g clip-path="url(#0)"><path fill="#006" d="m0 0h960v480h-960z"/><g transform="scale(.66667)"><g fill="#fff"><path d="m0 0v26.833l426.33 213.17h53.67v-26.83l-426.33-213.17h-53.67zm480 0v26.832l-426.33 213.17h-53.67v-26.83l426.33-213.17h53.67z"/><path stroke-width="1.25" d="m200 0v240h80v-240h-80m-200 80v80h480v-80h-480"/></g><g fill="#c00"><path stroke-width="1.25" d="m0 96v48h480v-48h-480m216-96v240h48v-240h-48"/><path d="m0 240l160-80h35.777l-160 80h-35.78zm0-240l160 80h-35.78l-124.22-62.11v-17.889m284.22 80l160-80h35.78l-160 80h-35.78m195.78 160l-160-80h35.78l124.22 62.11v17.89"/></g></g><g transform="matrix(.8807 0 0 .8807-192.09 65.01)"><g transform="scale(8.5333)"><path fill="#fff" d="m90 7.995l.899 2.767h2.91l-2.354 1.71.899 2.767-2.354-1.709-2.354 1.71.899-2.767-2.354-1.71h2.91z" id="1"/><path fill="#c00" d="m90 8.846l.708 2.18h2.292l-1.854 1.347.708 2.18-1.854-1.347-1.854 1.347.708-2.18-1.854-1.347h2.292z" id="2"/></g><g transform="matrix(8.5333 0 0 8.5333-118.3 119.03)"><use xlink:href="#1"/><use xlink:href="#2"/></g><g transform="matrix(8.5333 0 0 8.5333 101.4-14.251)"><path fill="#fff" d="m90 20.648l.753 2.316h2.436l-1.97 1.432.753 2.316-1.972-1.432-1.97 1.432.753-2.316-1.97-1.432h2.436z"/><path fill="#c00" d="m90 21.371l.59 1.816h1.91l-1.545 1.123.59 1.816-1.545-1.122-1.545 1.123.59-1.816-1.545-1.123h1.91z"/></g><g fill-rule="evenodd"><path fill="#fff" d="m768 372.02l8.437 25.966h27.302l-22.09 16.05 8.437 25.966-22.09-16.06-22.09 16.05 8.437-25.966-22.09-16.05h27.302z"/><path fill="#c00" d="m768 378.2l7.05 21.699h22.816l-18.459 13.411 7.05 21.699-18.46-13.41-18.459 13.411 7.05-21.699-18.459-13.411h22.816z"/></g></g></g></svg>