<svg xmlns="http://www.w3.org/2000/svg" viewBox="0 0 640 480"><defs><clipPath id="clipPath7218" clipPathUnits="userSpaceOnUse"><path fill-opacity=".67" d="m0,0h640v480h-640z"/></clipPath></defs><g clip-path="url(#clipPath7218)"><path fill="#006" d="m0,0h960v480h-960z"/><g transform="scale(.66667)"><g fill="#fff"><path d="m0,0v26.833l426.33,213.17h53.67v-26.83l-426.33-213.17h-53.67zm480,0v26.832l-426.33,213.17h-53.67v-26.83l426.33-213.17h53.67z"/><path stroke-width="1.25" d="m200,0v240h80v-240h-80zm-200,80v80h480v-80h-480z"/></g><g fill="#c00"><path stroke-width="1.25" d="m0,96v48h480v-48h-480zm216-96v240h48v-240h-48z"/><path d="m0,240 160-80h35.777l-160,80h-35.78zm0-240 160,80h-35.78l-124.22-62.111v-17.889zm284.22,80 160-80h35.78l-160,80h-35.78zm195.78,160-160-80h35.78l124.22,62.11v17.89z"/></g></g><g transform="matrix(.8807 0 0 .8807 -192.09 65.009)"><g transform="scale(8.5333)"><path fill="#fff" d="m90,7.995 .8992,2.7674h2.9098l-2.3541,1.7104 .8992,2.7674-2.354-1.709-2.3541,1.7104 .8992-2.7674-2.3541-1.7104h2.9098z"/><path fill="#c00" d="m90,8.8456 .7082,2.1796h2.2918l-1.8541,1.3471 .7082,2.1796-1.854-1.347-1.854,1.347 .708-2.18-1.854-1.347h2.2918z"/></g><g transform="matrix(8.5333 0 0 8.5333 -118.3 119.03)"><path fill="#fff" d="m90,7.995 .8992,2.7674h2.9098l-2.3541,1.7104 .8992,2.7674-2.354-1.709-2.3541,1.7104 .8992-2.7674-2.3541-1.7104h2.9098z"/><path fill="#c00" d="m90,8.8456 .7082,2.1796h2.2918l-1.8541,1.3471 .7082,2.1796-1.854-1.347-1.854,1.347 .708-2.18-1.854-1.347h2.2918z"/></g><g transform="matrix(8.5333 0 0 8.5333 101.4 -14.251)"><path fill="#fff" d="m90,20.648 .7526,2.3164h2.4356l-1.9704,1.4316 .7526,2.3164-1.972-1.432-1.9704,1.4316 .7526-2.3164-1.9704-1.4316h2.4356z"/><path fill="#c00" d="m90,21.371 .5902,1.8164h1.9098l-1.5451,1.1226 .5902,1.8164-1.545-1.122-1.5451,1.1226 .5902-1.8164-1.5451-1.1226h1.9098z"/></g><g fill-rule="evenodd"><path fill="#fff" d="m768,372.02 8.4369,25.966h27.302l-22.088,16.048 8.4369,25.966-22.09-16.06-22.088,16.048 8.4369-25.966-22.088-16.048h27.302z"/><path fill="#c00" d="m768,378.2 7.0506,21.699h22.816l-18.459,13.411 7.0506,21.699-18.46-13.41-18.459,13.411 7.0506-21.699-18.459-13.411h22.816z"/></g></g></g></svg>