<svg xmlns="http://www.w3.org/2000/svg" viewBox="0 0 640 480"><defs><clipPath id="clipPath7035" clipPathUnits="userSpaceOnUse"><path fill-opacity=".67" d="m0,0h682.67v512h-682.67z"/></clipPath></defs><g fill-rule="evenodd" clip-path="url(#clipPath7035)" transform="matrix(.9375 0 0 .9375 0 -.00002)"><path fill="#cb000f" stroke-width="1.25" d="m0,0h1031.2v512h-1031.2z"/><path fill="#f8c00c" d="m0,0c3.2337,0 512,256.72 512,256.72l-512,255.28v-512z"/><path d="m0,0c2.1513,0 340.62,256.72 340.62,256.72l-340.62,255.28v-512z"/><path fill="#fff" d="m187.71,298.16-60.813-13.478-31.072,52.839-4.8613-59.677-60.753-13.372 54.84-24.817-3.2916-59.385 40.235,43.39 55.341-25.232-28.827,53.899 39.203,45.835z"/></g></svg>