<svg xmlns="http://www.w3.org/2000/svg" viewBox="0 0 640 480"><defs><clipPath id="0"><path d="m-85.33 0h682.67v512h-682.67z"/></clipPath></defs><g fill-rule="evenodd" clip-path="url(#0)" transform="matrix(.9375 0 0 .9375 80 0)"><path fill="#e70013" stroke-width="1.25" d="m-128 0h768v512h-768z"/><path fill="#fff" d="m485.97 255.06c0 67.28-54.54 121.82-121.82 121.82-67.28 0-121.82-54.54-121.82-121.82 0-67.28 54.54-121.82 121.82-121.82 67.28 0 121.82 54.54 121.82 121.82" transform="matrix(1.06 0 0 1.06-129.32-14.591)"/><g fill="#e70013" stroke-width="1.25"><path d="m256.68 341.41c-47.27 0-85.63-38.36-85.63-85.63s38.36-85.64 85.63-85.64c11.818 0 25.27 2.719 34.407 9.429-62.63 2.357-78.47 55.48-78.47 76.885s10.128 69.15 78.47 76.2c-7.777 5.01-22.588 8.75-34.406 8.75z"/><path d="m445.8,282.71-37.68-13.74-24.92,31.41 1.43-40.07-37.58-14 38.56-11.02 1.69-40.07 22.4,33.27 38.63-10.77-24.71,31.58z" transform="matrix(1.0321 0 0 1.0321-128 0)"/></g></g></svg>