<svg xmlns="http://www.w3.org/2000/svg" viewBox="0 0 640 480"><defs><clipPath id="clipPath5219" clipPathUnits="userSpaceOnUse"><path fill-opacity=".67" d="m-85.333,0h682.67v512h-682.67z"/></clipPath></defs><g fill-rule="evenodd" clip-path="url(#clipPath5219)" transform="matrix(.9375 0 0 .9375 80 -.00001)"><path fill="#e70013" stroke-width="1.25" d="m-128,0h768v512h-768z"/><path fill="#fff" d="m485.97,255.06c0,67.28-54.541,121.82-121.82,121.82-67.28,0-121.82-54.541-121.82-121.82 0-67.28 54.541-121.82 121.82-121.82 67.28,0 121.82,54.541 121.82,121.82z" transform="matrix(1.06 0 0 1.06 -129.32 -14.591)"/><g fill="#e70013" stroke-width="1.25"><path d="m256.68,341.41c-47.27,0-85.635-38.364-85.635-85.635s38.364-85.636 85.635-85.636c11.818,0 25.27,2.7186 34.407,9.4295-62.63,2.3574-78.472,55.477-78.472,76.885s10.128,69.154 78.471,76.205c-7.7771,5.013-22.588,8.7504-34.406,8.7504z"/><path d="m445.8,282.71-37.68-13.74-24.92,31.41 1.43-40.07-37.58-14 38.56-11.02 1.69-40.07 22.4,33.27 38.63-10.77-24.71,31.58z" transform="matrix(1.0321 0 0 1.0321 -128 .00027)"/></g></g></svg>