<svg xmlns="http://www.w3.org/2000/svg" viewBox="0 0 640 480"><path fill="#f31930" fill-rule="evenodd" stroke-width="1.25" d="m0,0h640v480h-640z"/><g transform="matrix(.9375 0 0 .9375 132.01 7.2462)"><path fill="none" stroke="#000" stroke-width=".971" d="m393.35,220.64"/><g fill-rule="evenodd"><path fill="#fff" d="m178.37,445.64c0,100.69-81.622,182.31-182.31,182.31s-182.31-81.622-182.31-182.31 81.622-182.31 182.31-182.31 182.31,81.622 182.31,182.31z" transform="matrix(.71362 0 0 .70145 166.01 -56.352)"/><path fill="#f31830" d="m-15.739,157.09c0,44.186-35.82,80.006-80.006,80.006s-80.006-35.82-80.006-80.006 35.82-80.006 80.006-80.006 80.006,35.82 80.006,80.006z" transform="matrix(1.3009 0 0 1.2787 320.28 55.365)"/><path fill="#fff" stroke-width="1.25" d="m318.63,196.5-1.0501,47.273-44.103,11.973 43.473,15.482-1.0501,43.351 28.352-33.854 42.842,14.863-24.782-36.332 30.242-36.125-46.413,12.798-27.512-39.428z"/></g></g></svg>