<svg xmlns="http://www.w3.org/2000/svg" viewBox="0 0 640 480" xmlns:xlink="http://www.w3.org/1999/xlink"><defs><path id="0" d="m555.61 324.28l70.83-.05-57.34 41.58 21.94 67.35-57.27-41.68-57.27 41.67 21.95-67.34-57.33-41.6 70.83.07 21.83-67.38z"/><clipPath id="1"><path d="m0 0h640v480h-640z"/></clipPath></defs><g clip-path="url(#1)"><g fill="#009fca" fill-rule="evenodd" stroke-width="1.25" transform="matrix(.64508 0 0 .92059 0 23.331)"><path d="m505.97-19.81h486.16v515.87h-486.16z"/><path d="m0-25.343h523.49v521.41h-523.49z"/></g><g transform="scale(1.6543)"><path fill="#fff" fill-rule="evenodd" d="m.01,0h239.29v118.84h-239.29z"/><path fill="#c00" d="m.001 0l-.001 8.919 57.1 29.341 21.485.622-78.58-38.883"/><path fill="#006" d="m24.459 0l69.23 36.16v-36.16h-69.23"/><path fill="#c00" d="m102.92 0v46.16h-102.91v26.379h102.91v46.16h31.666v-46.16h102.91v-26.379h-102.91v-46.16h-31.666"/><path fill="#006" d="m143.82 0v34.07l67.73-33.809-67.73-.264"/><path fill="#c00" d="m145.96 37.788l19.05-.153 74-37.37-19.64.32-73.41 37.2"/><path fill="#006" d="m.001 80.24v25.28l47.5-25.02-47.5-.263z"/><path fill="#c00" d="m182.91 81.28l-19.8-.154 74.64 37.16-.491-8.502-54.35-28.506m-164.35 37.63l69.984-36.739-18.381.121-70.15 36.568"/></g><path fill="#006" d="m394.55 17.271l-93.5 46.37 92.26.345v69.09h-78.57l77.848 42.18 1.143 21.458-41.581-.497-113.8-55.869v56.37h-82.939v-56.37l-106.75 56.22-48.21.151v196.37h785.75v-392.74l-390.82-.339m-394.95 22.16l-.415 40.783 82.72 1.037-82.31-41.82z"/><g fill-rule="evenodd"><g fill="#009fca" transform="matrix(.79241 0 0 .79977.006 0)"><path d="m496.06 0h496.06v496.06h-496.06z"/><path d="m-2.303 244.61h525.79v251.45h-525.79z"/></g><g fill="#fff40d" stroke-width="1.25" transform="matrix(1.5189 0 0 1.5189-136.22 80.58)"><use transform="matrix(.25628 0 0 .24119 337.93-50.49)" xlink:href="#0"/><use transform="matrix(.25628 0 0 .24119 292.37 79.06)" xlink:href="#0"/><use transform="matrix(.25628 0 0 .24119 337.93 49.738)" xlink:href="#0"/><use transform="matrix(.25628 0 0 .24119 142.03 143.7)" xlink:href="#0"/><use transform="matrix(-.25628 0 0-.24119 468.01 249.77)" xlink:href="#0"/><use transform="matrix(-.25628 0 0-.24119 521.54 175.74)" xlink:href="#0"/><use transform="matrix(-.25628 0 0-.24119 566.53 160.36)" xlink:href="#0"/><use transform="matrix(-.25628 0 0-.24119 521.54 288.49)" xlink:href="#0"/><use transform="matrix(-.25628 0 0-.24119 468.01 301.59)" xlink:href="#0"/></g></g></g></svg>