<svg xmlns="http://www.w3.org/2000/svg" viewBox="0 0 640 480"><defs><clipPath id="clipPath5023" clipPathUnits="userSpaceOnUse"><path fill-opacity=".67" d="m0,0h640v480h-640z"/></clipPath></defs><g clip-path="url(#clipPath5023)"><g fill="#009fca" fill-rule="evenodd" stroke-width="1.25" transform="matrix(.64508 0 0 .92059 0 23.331)"><path d="m505.97-19.81h486.16v515.87h-486.16z"/><path d="m0-25.343h523.49v521.41h-523.49z"/></g><g transform="scale(1.6543)"><path fill="#fff" fill-rule="evenodd" d="m.01,0h239.29v118.84h-239.29z"/><path fill="#c00" d="m.01,.0003-.01,8.9195 57.103,29.341 21.485,.622-78.578-38.883z"/><path fill="#006" d="m24.459,.0003 69.228,36.161v-36.161h-69.228z"/><path fill="#c00" d="m102.92,.0003v46.163h-102.91v26.379h102.91v46.163h31.666v-46.163h102.91v-26.379h-102.91v-46.163h-31.666z"/><path fill="#006" d="m143.82,.0003v34.073l67.73-33.809-67.73-.2637z"/><path fill="#c00" d="m145.96,37.788 19.05-.153 74-37.371-19.64,.3202-73.41,37.204z"/><path fill="#006" d="m.01,80.237v25.28l47.498-25.02-47.498-.263z"/><path fill="#c00" d="m182.91,81.28-19.8-.1538 74.638,37.162-.491-8.502-54.346-28.506zm-164.35,37.63 69.984-36.739-18.381,.121-70.151,36.568"/></g><path fill="#006" d="m394.55,17.271-93.502,46.368 92.257,.3453v69.093h-78.575l77.848,42.181 1.1427,21.458-41.581-.4968-113.8-55.869v56.366h-82.939v-56.366l-106.75,56.215-48.214,.1514v196.37h785.75v-392.74l-390.82-.3394m-394.95,22.164-.4146,40.783 82.722,1.037-82.307-41.82z"/><g fill-rule="evenodd"><g fill="#009fca" transform="matrix(.79241 0 0 .79977 .00599 .00029)"><path d="m496.06-0h496.06v496.06h-496.06z"/><path d="m-2.3032,244.61h525.7902v251.45h-525.7902z"/></g><g fill="#fff40d" stroke-width="1.25" transform="matrix(1.5189 0 0 1.5189 -136.22 80.582)"><path d="m555.61,324.28 70.83-.05-57.34,41.58 21.94,67.35-57.27-41.68-57.27,41.67 21.95-67.34-57.33-41.6 70.83,.07 21.83-67.38z" transform="matrix(.25628 0 0 .24119 337.93 -50.489)"/><path d="m555.61,324.28 70.83-.05-57.34,41.58 21.94,67.35-57.27-41.68-57.27,41.67 21.95-67.34-57.33-41.6 70.83,.07 21.83-67.38z" transform="matrix(.25628 0 0 .24119 292.37 79.065)"/><path d="m555.61,324.28 70.83-.05-57.34,41.58 21.94,67.35-57.27-41.68-57.27,41.67 21.95-67.34-57.33-41.6 70.83,.07 21.83-67.38z" transform="matrix(.25628 0 0 .24119 337.93 49.738)"/><path d="m555.61,324.28 70.83-.05-57.34,41.58 21.94,67.35-57.27-41.68-57.27,41.67 21.95-67.34-57.33-41.6 70.83,.07 21.83-67.38z" transform="matrix(.25628 0 0 .24119 142.03 143.7)"/><path d="m555.61,324.28 70.83-.05-57.34,41.58 21.94,67.35-57.27-41.68-57.27,41.67 21.95-67.34-57.33-41.6 70.83,.07 21.83-67.38z" transform="matrix(-.25628 0 0 -.24119 468.01 249.77)"/><path d="m555.61,324.28 70.83-.05-57.34,41.58 21.94,67.35-57.27-41.68-57.27,41.67 21.95-67.34-57.33-41.6 70.83,.07 21.83-67.38z" transform="matrix(-.25628 0 0 -.24119 521.54 175.74)"/><path d="m555.61,324.28 70.83-.05-57.34,41.58 21.94,67.35-57.27-41.68-57.27,41.67 21.95-67.34-57.33-41.6 70.83,.07 21.83-67.38z" transform="matrix(-.25628 0 0 -.24119 566.53 160.36)"/><path d="m555.61,324.28 70.83-.05-57.34,41.58 21.94,67.35-57.27-41.68-57.27,41.67 21.95-67.34-57.33-41.6 70.83,.07 21.83-67.38z" transform="matrix(-.25628 0 0 -.24119 521.54 288.49)"/><path d="m555.61,324.28 70.83-.05-57.34,41.58 21.94,67.35-57.27-41.68-57.27,41.67 21.95-67.34-57.33-41.6 70.83,.07 21.83-67.38z" transform="matrix(-.25628 0 0 -.24119 468.01 301.59)"/></g></g></g></svg>