<svg xmlns="http://www.w3.org/2000/svg" viewBox="0 0 640 480"><defs><clipPath id="clipPath3731" clipPathUnits="userSpaceOnUse"><path fill-opacity=".67" d="m0-0h682.67v512h-682.67z"/></clipPath></defs><g fill-rule="evenodd" stroke-width="1.25" clip-path="url(#clipPath3731)" transform="matrix(.9375 0 0 .9375 0 .00001)"><path fill="#de2110" d="m0-0h768v512h-768z"/><path fill="#08399c" d="m0-0h385.69v256h-385.69z"/><path fill="#fff" d="m272.53,171.99-45.86-9.43 9.77,45.79-35.01-31.09-14.44,44.54-14.77-44.44-34.77,31.36 9.43-45.86-45.79,9.76 31.09-35-44.539-14.44 44.429-14.77-31.35-34.773 45.86,9.427-9.76-45.792 35,31.095 14.44-44.54 14.77,44.432 34.77-31.354-9.43,45.863 45.79-9.767-31.09,35.009 44.54,14.43-44.43,14.77z" transform="matrix(1.0321 0 0 1.0321 .81976 1.0439)"/><path fill="#005387" d="m230.41,167.62-14.31,7.62-13.96,8.27-16.21-.56-16.21,.19-13.76-8.59-14.14-7.95-7.62-14.32-8.27-13.95 .55-16.21-.18-16.22 8.59-13.757 7.95-14.138 14.31-7.622 13.96-8.269 16.21,.557 16.22-.185 13.76,8.588 14.13,7.95 7.62,14.316 8.27,13.95-.55,16.21 .18,16.22-8.59,13.76z" transform="matrix(1.0437 0 0 1.0409 -2.0083 .44858)"/><path fill="#fff" d="m236.88,122.81c0,27.754-22.499,50.253-50.253,50.253s-50.253-22.499-50.253-50.253 22.499-50.253 50.253-50.253 50.253,22.499 50.253,50.253z" transform="matrix(1.0321 0 0 1.0321 .15286 1.5287)"/></g></svg>