<svg xmlns="http://www.w3.org/2000/svg" viewBox="0 0 640 480" xmlns:xlink="http://www.w3.org/1999/xlink"><defs><path id="1" d="m0-4l.899 2.767h2.909l-2.353 1.71.899 2.767-2.353-1.71-2.353 1.71.899-2.767-2.353-1.71h2.909z"/><clipPath id="0"><path d="m0 0h682.67v512h-682.67z"/></clipPath></defs><g fill-rule="evenodd" clip-path="url(#0)" transform="scale(.9375)"><g stroke-width="1.25"><g transform="scale(3.9385)"><g fill="#bd3d44"><path d="m0 0h247v10h-247z"/><path d="m0 20h247v10h-247z"/><path d="m0 40h247v10h-247z"/><path d="m0 60h247v10h-247z"/><path d="m0 80h247v10h-247z"/><path d="m0 100h247v10h-247z"/><path d="m0 120h247v10h-247z"/></g><g fill="#fff"><path d="m0 10h247v10h-247z"/><path d="m0 30h247v10h-247z"/><path d="m0 50h247v10h-247z"/><path d="m0 70h247v10h-247z"/><path d="m0 90h247v10h-247z"/><path d="m0 110h247v10h-247z"/></g></g><path fill="#192f5d" d="m0 0h389.12v275.69h-389.12z"/></g><g fill="#fff" transform="scale(3.9385)"><g><g><use transform="translate(8.233 7)" xlink:href="#1"/><use transform="translate(24.7 7)" xlink:href="#1"/><use transform="translate(41.17 7)" xlink:href="#1"/><use transform="translate(57.633 7)" xlink:href="#1"/><use transform="translate(74.1 7)" xlink:href="#1"/><use transform="translate(90.57 7)" xlink:href="#1"/></g><g><use transform="translate(16.467 14)" xlink:href="#1"/><use transform="translate(32.933 14)" xlink:href="#1"/><use transform="translate(49.4 14)" xlink:href="#1"/><use transform="translate(65.867 14)" xlink:href="#1"/><use transform="translate(82.33 14)" xlink:href="#1"/></g></g><g transform="translate(0 14)"><g><use transform="translate(8.233 7)" xlink:href="#1"/><use transform="translate(24.7 7)" xlink:href="#1"/><use transform="translate(41.17 7)" xlink:href="#1"/><use transform="translate(57.633 7)" xlink:href="#1"/><use transform="translate(74.1 7)" xlink:href="#1"/><use transform="translate(90.57 7)" xlink:href="#1"/></g><g><use transform="translate(16.467 14)" xlink:href="#1"/><use transform="translate(32.933 14)" xlink:href="#1"/><use transform="translate(49.4 14)" xlink:href="#1"/><use transform="translate(65.867 14)" xlink:href="#1"/><use transform="translate(82.33 14)" xlink:href="#1"/></g></g><g transform="translate(0 28)"><g><use transform="translate(8.233 7)" xlink:href="#1"/><use transform="translate(24.7 7)" xlink:href="#1"/><use transform="translate(41.17 7)" xlink:href="#1"/><use transform="translate(57.633 7)" xlink:href="#1"/><use transform="translate(74.1 7)" xlink:href="#1"/><use transform="translate(90.57 7)" xlink:href="#1"/></g><g><use transform="translate(16.467 14)" xlink:href="#1"/><use transform="translate(32.933 14)" xlink:href="#1"/><use transform="translate(49.4 14)" xlink:href="#1"/><use transform="translate(65.867 14)" xlink:href="#1"/><use transform="translate(82.33 14)" xlink:href="#1"/></g></g><g transform="translate(0 42)"><g><use transform="translate(8.233 7)" xlink:href="#1"/><use transform="translate(24.7 7)" xlink:href="#1"/><use transform="translate(41.17 7)" xlink:href="#1"/><use transform="translate(57.633 7)" xlink:href="#1"/><use transform="translate(74.1 7)" xlink:href="#1"/><use transform="translate(90.57 7)" xlink:href="#1"/></g><g><use transform="translate(16.467 14)" xlink:href="#1"/><use transform="translate(32.933 14)" xlink:href="#1"/><use transform="translate(49.4 14)" xlink:href="#1"/><use transform="translate(65.867 14)" xlink:href="#1"/><use transform="translate(82.33 14)" xlink:href="#1"/></g></g><g transform="translate(0 56)"><use transform="translate(8.233 7)" xlink:href="#1"/><use transform="translate(24.7 7)" xlink:href="#1"/><use transform="translate(41.17 7)" xlink:href="#1"/><use transform="translate(57.633 7)" xlink:href="#1"/><use transform="translate(74.1 7)" xlink:href="#1"/><use transform="translate(90.57 7)" xlink:href="#1"/></g></g></g></svg>