<svg xmlns="http://www.w3.org/2000/svg" viewBox="0 0 640 480" xmlns:xlink="http://www.w3.org/1999/xlink"><defs><path id="A" d="m101.66 488.82c9.641 18.11 21.855 33.03 30.418 58.686 1.846 34.31-2.07 40.849 4.635 57.06 2.696 5.929 6.544 8.378 7.285 22.12-1.146 19.675-9.645 20.899-18 20.359-1.5-6.04-.002-9.946-10.648-20.357-5.765-6.161-12.613-16.348-16.234-29.493-1.126-12.07-1.758-27.767-7.786-40.892-8.674-14.17-9.97-21.07-18.211-28.491-8.486-9.873-8-13.336-12.65-24.09 11.39-18.449 22.19-20.33 41.19-14.9z"/><path id="B" d="m82.66 496.87l-29.12 159.36v-159.36h29.12z"/><clipPath id="0"><path d="m0 0h640v512h-640z"/></clipPath><linearGradient gradientTransform="matrix(.7751-.00035-.00066 1.3762-23.24.167)" id="6" xlink:href="#4" y1="360.52" y2="459.27" gradientUnits="userSpaceOnUse" x2="0"/><linearGradient gradientTransform="matrix(.7507-.02422-.04587 1.4224 26.394-26.59)" id="7" xlink:href="#4" y1="360.52" y2="459.27" gradientUnits="userSpaceOnUse" x2="0"/><linearGradient gradientTransform="matrix(.7514.02422.04586 1.4211-30.19-29.545)" id="8" xlink:href="#4" y1="360.52" y2="459.27" gradientUnits="userSpaceOnUse" x2="0"/><linearGradient gradientTransform="matrix(.72666.00063.00119 1.4679-.624-48.24)" id="9" xlink:href="#4" y1="360.52" y2="459.27" gradientUnits="userSpaceOnUse" x2="0"/><linearGradient gradientTransform="matrix(.75059-.02422-.04587 1.4226-1.565 1.584)" id="5" xlink:href="#4" y1="360.52" y2="459.27" gradientUnits="userSpaceOnUse" x2="0"/><linearGradient id="4"><stop stop-color="#faff00"/><stop offset="1" stop-color="#f5c402"/></linearGradient><linearGradient gradientTransform="matrix(.75113.02422.04587 1.4216-1.847-1.827)" id="1" xlink:href="#4" y1="360.52" y2="459.27" gradientUnits="userSpaceOnUse" x2="0"/><linearGradient gradientTransform="matrix(.72665 0 0 1.4679 0-8.463)" id="3" xlink:href="#4" y1="360.52" y2="459.27" gradientUnits="userSpaceOnUse" x2="0"/><linearGradient gradientTransform="matrix(.7751-.00021-.00039 1.3762 16.423-.071)" id="2" xlink:href="#4" y1="360.52" y2="459.27" gradientUnits="userSpaceOnUse" x2="0"/></defs><g clip-path="url(#0)" transform="scale(1 .9375)"><g fill-rule="evenodd" transform="matrix(.48345 0 0 .48345 116.34-61.37)"><path fill="#fff" stroke-width="1.25" d="m-240.65 126.95h1587v1059h-1587z"/><g stroke="#cbaa19" fill-opacity=".561" stroke-width="3.228"><use fill="url(#7)" transform="matrix(-.70971.70449-.70449-.70971 390.96 688.93)" xlink:href="#A"/><use fill="url(#9)" transform="matrix(-.99992-.01294.01294-.99992 101.58 850.68)" xlink:href="#A"/><use fill="url(#8)" transform="matrix(-.69945-.71468.71468-.69945-212.76 760.55)" xlink:href="#A"/><use fill="url(#6)" transform="matrix(.00717-.99997.99997.00717-371.84 475.5)" xlink:href="#A"/><use fill="url(#5)" transform="matrix(.71126-.70293.70293.71126-283.29 160.35)" xlink:href="#A"/><use fill="url(#1)" transform="matrix(.70345.71074-.71074.70345 317.95 87.982)" xlink:href="#A"/><use fill="url(#2)" transform="matrix(-.0043.99999-.99999-.0043 478.78 373.3)" xlink:href="#A"/></g><g fill="#002993" stroke-width="1.25"><path d="m345.13 247.98h1001.2v120.52h-1001.2z"/><path d="m345.13 482.62h1001.2v120.52h-1001.2z"/></g><use fill="url(#3)" stroke="#cbaa19" fill-opacity=".561" stroke-width="3.228" xlink:href="#A"/><g fill="#002993" stroke-width="1.25"><path d="m-240.65 714.54h1587v120.52h-1587z"/><path d="m-240.65 947.82h1587v120.52h-1587z"/></g><g stroke="#cbaa19" stroke-width="3.228"><use fill="#faff00" stroke-linecap="round" xlink:href="#B"/><use fill="#f5c402" transform="matrix(-1 0 0 1 107.08 0)" xlink:href="#B"/><use fill="#faff00" stroke-linecap="round" transform="matrix(.70581-.7084.7084.70581-285.33 162.96)" xlink:href="#B"/><use fill="#f5c402" transform="matrix(-.70581.7084.7084.70581-209.75 87.1)" xlink:href="#B"/><use fill="#faff00" stroke-linecap="round" transform="matrix(-.00193-1 1-.00193-371.37 479.37)" xlink:href="#B"/><use fill="#f5c402" transform="matrix(.00193 1 1-.00193-371.57 372.29)" xlink:href="#B"/><use fill="#faff00" stroke-linecap="round" transform="matrix(-.70544-.70877.70877-.70544-209.93 762.78)" xlink:href="#B"/><use fill="#f5c402" transform="matrix(.70544.70877.70877-.70544-285.47 686.88)" xlink:href="#B"/><use fill="#faff00" stroke-linecap="round" transform="matrix(-1 .00196-.00196-1 107.91 849.92)" xlink:href="#B"/><use fill="#f5c402" transform="matrix(1-.00196-.00196-1 .831 850.13)" xlink:href="#B"/><use fill="#faff00" stroke-linecap="round" transform="matrix(-.70577.70844-.70844-.70577 392.42 687.04)" xlink:href="#B"/><use fill="#f5c402" transform="matrix(.70577-.70844-.70844-.70577 316.85 762.9)" xlink:href="#B"/><use fill="#faff00" stroke-linecap="round" transform="matrix(.01106.99994-.99994.01106 477.93 366.77)" xlink:href="#B"/><use fill="#f5c402" transform="matrix(-.01106-.99994-.99994.01106 479.12 473.85)" xlink:href="#B"/><use fill="#faff00" stroke-linecap="round" transform="matrix(.71235.70182-.70182.71235 313.68 84.68)" xlink:href="#B"/><use fill="#f5c402" transform="matrix(-.71235-.70182-.70182.71235 389.96 159.83)" xlink:href="#B"/><ellipse fill="#faff00" cx="52.585" cy="422.29" rx="82.22" ry="81.27" transform="translate(.956 2.868)"/></g></g></g></svg>