<svg xmlns="http://www.w3.org/2000/svg" viewBox="0 0 640 480"><defs><clipPath id="clipPath3415" clipPathUnits="userSpaceOnUse"><path fill-opacity=".67" d="m0,0h640v480h-640z"/></clipPath></defs><g fill-rule="evenodd" clip-path="url(#clipPath3415)"><g stroke-width="1.25"><path fill="#fff" d="m0-0h960v480h-960z"/><path fill="#94acd4" d="m0,.0003h960v166.1397h-960z"/><path fill="#b73000" d="m0,155.14h960v11.005h-960z"/><path fill="#00a900" d="M 0,324.86 H960 V480 H0 z"/><path fill="#b73000" d="m0,324.86h960v11.005h-960z"/><g fill="#feffff"><path d="m205.58,128.74-10.01-6.85-9.91,7.01 3.42-11.64-9.72-7.25 12.12-.35 3.89-11.495 4.08,11.425 12.13,.15-9.6,7.41z" transform="matrix(.89301 0 0 .89794 69.068 -66.212)"/><path d="m205.58,128.74-10.01-6.85-9.91,7.01 3.42-11.64-9.72-7.25 12.12-.35 3.89-11.495 4.08,11.425 12.13,.15-9.6,7.41z" transform="matrix(.89301 0 0 .89794 26.91 16.736)"/><path d="m205.58,128.74-10.01-6.85-9.91,7.01 3.42-11.64-9.72-7.25 12.12-.35 3.89-11.495 4.08,11.425 12.13,.15-9.6,7.41z" transform="matrix(.89301 0 0 .89794 69.474 16.736)"/><path d="m205.58,128.74-10.01-6.85-9.91,7.01 3.42-11.64-9.72-7.25 12.12-.35 3.89-11.495 4.08,11.425 12.13,.15-9.6,7.41z" transform="matrix(.89301 0 0 .89794 108.79 16.736)"/><path d="m205.58,128.74-10.01-6.85-9.91,7.01 3.42-11.64-9.72-7.25 12.12-.35 3.89-11.495 4.08,11.425 12.13,.15-9.6,7.41z" transform="matrix(.89301 0 0 .89794 145.28 16.736)"/><path d="m205.58,128.74-10.01-6.85-9.91,7.01 3.42-11.64-9.72-7.25 12.12-.35 3.89-11.495 4.08,11.425 12.13,.15-9.6,7.41z" transform="matrix(.89301 0 0 .89794 -17.681 16.736)"/><path d="m205.58,128.74-10.01-6.85-9.91,7.01 3.42-11.64-9.72-7.25 12.12-.35 3.89-11.495 4.08,11.425 12.13,.15-9.6,7.41z" transform="matrix(.89301 0 0 .89794 26.099 -24.432)"/><path d="m205.58,128.74-10.01-6.85-9.91,7.01 3.42-11.64-9.72-7.25 12.12-.35 3.89-11.495 4.08,11.425 12.13,.15-9.6,7.41z" transform="matrix(.89301 0 0 .89794 69.068 -24.432)"/><path d="m205.58,128.74-10.01-6.85-9.91,7.01 3.42-11.64-9.72-7.25 12.12-.35 3.89-11.495 4.08,11.425 12.13,.15-9.6,7.41z" transform="matrix(.89301 0 0 .89794 109.6 -24.432)"/><path d="m205.58,128.74-10.01-6.85-9.91,7.01 3.42-11.64-9.72-7.25 12.12-.35 3.89-11.495 4.08,11.425 12.13,.15-9.6,7.41z" transform="matrix(.89301 0 0 .89794 144.87 -24.432)"/><path d="m205.58,128.74-10.01-6.85-9.91,7.01 3.42-11.64-9.72-7.25 12.12-.35 3.89-11.495 4.08,11.425 12.13,.15-9.6,7.41z" transform="matrix(.89301 0 0 .89794 144.47 -66.212)"/><path d="m205.58,128.74-10.01-6.85-9.91,7.01 3.42-11.64-9.72-7.25 12.12-.35 3.89-11.495 4.08,11.425 12.13,.15-9.6,7.41z" transform="matrix(.89301 0 0 .89794 109.2 -66.212)"/></g></g><path fill="#fff" d="m137.83,25.111c-47.838-13.111-78.139,20.754-77.683,51.103 .456,30.346 28.426,62.486 71.603,54.466-67.837,31.79-102.53-18.28-101.14-58.032 2.378-46.988 55.193-85.309 107.22-47.537z"/></g></svg>