<svg xmlns="http://www.w3.org/2000/svg" viewBox="0 0 640 480" xmlns:xlink="http://www.w3.org/1999/xlink"><defs><path id="1" d="m205.58 128.74l-10.01-6.85-9.91 7.01 3.42-11.64-9.72-7.25 12.12-.35 3.89-11.495 4.08 11.425 12.13.15-9.6 7.41z"/><clipPath id="0"><path d="m0 0h640v480h-640z"/></clipPath></defs><g fill-rule="evenodd" clip-path="url(#0)"><g stroke-width="1.25"><path fill="#fff" d="m0 0h960v480h-960z"/><path fill="#94acd4" d="m0 0h960v166.14h-960z"/><path fill="#b73000" d="m0 155.14h960v11h-960z"/><path fill="#00a900" d="M 0,324.86 H960 V480 H0 z"/><path fill="#b73000" d="m0 324.86h960v11h-960z"/><g fill="#feffff"><use transform="matrix(.89301 0 0 .89794 69.07-66.21)" xlink:href="#1"/><use transform="matrix(.89301 0 0 .89794 26.91 16.736)" xlink:href="#1"/><use transform="matrix(.89301 0 0 .89794 69.47 16.736)" xlink:href="#1"/><use transform="matrix(.89301 0 0 .89794 108.79 16.736)" xlink:href="#1"/><use transform="matrix(.89301 0 0 .89794 145.28 16.736)" xlink:href="#1"/><use transform="matrix(.89301 0 0 .89794-17.681 16.736)" xlink:href="#1"/><use transform="matrix(.89301 0 0 .89794 26.1-24.432)" xlink:href="#1"/><use transform="matrix(.89301 0 0 .89794 69.07-24.432)" xlink:href="#1"/><use transform="matrix(.89301 0 0 .89794 109.6-24.432)" xlink:href="#1"/><use transform="matrix(.89301 0 0 .89794 144.87-24.432)" xlink:href="#1"/><use transform="matrix(.89301 0 0 .89794 144.47-66.21)" xlink:href="#1"/><use transform="matrix(.89301 0 0 .89794 109.2-66.21)" xlink:href="#1"/></g></g><path fill="#fff" d="m137.83 25.11c-47.838-13.11-78.14 20.754-77.68 51.1.456 30.346 28.426 62.49 71.6 54.47-67.837 31.79-102.53-18.28-101.14-58.03 2.378-46.988 55.19-85.31 107.22-47.537"/></g></svg>