<svg xmlns="http://www.w3.org/2000/svg" viewBox="0 0 640 480"><defs><clipPath id="0"><path d="m-84.61 0h682.67v512h-682.67z"/></clipPath></defs><g fill-rule="evenodd" clip-path="url(#0)" transform="matrix(.9375 0 0 .9375 79.32 0)"><g stroke-width="1.25"><path fill="#dc0000" d="M -128,341.33 H641.46 V512 H-128 z"/><path fill="#ffcb00" d="m-128 0h769.46v170.67h-769.46z"/><path fill="#0000ba" d="m-128 170.67h769.46v170.67h-769.46z"/></g><g fill="#fff" stroke-width=".113"><path d="m269.58 228.72l-12.397-8.856-12.336 8.943 4.588-14.533-12.314-8.974 15.234-.125 4.725-14.489 4.826 14.455 15.234.019-12.25 9.06 4.689 14.501"/><path d="m331.27 236.3l-12.397-8.856-12.336 8.943 4.588-14.533-12.314-8.974 15.234-.125 4.725-14.489 4.826 14.455 15.234.019-12.25 9.06 4.689 14.501"/><path d="m384.74 269.67l-12.397-8.856-12.336 8.943 4.588-14.533-12.314-8.974 15.234-.125 4.725-14.489 4.826 14.455 15.234.019-12.25 9.06 4.689 14.501"/><path d="m414.9 319.72l-12.397-8.856-12.336 8.943 4.588-14.533-12.314-8.974 15.234-.125 4.725-14.489 4.826 14.455 15.234.019-12.25 9.06 4.689 14.501"/><path d="m182.99 236.3l12.397-8.856 12.336 8.943-4.588-14.533 12.314-8.974-15.234-.125-4.725-14.489-4.826 14.455-15.234.019 12.25 9.06-4.689 14.501"/><path d="m129.53 269.67l12.397-8.856 12.336 8.943-4.588-14.533 12.314-8.974-15.234-.125-4.725-14.489-4.826 14.455-15.234.019 12.25 9.06-4.689 14.501"/><path d="m99.37 319.72l12.397-8.856 12.336 8.943-4.588-14.533 12.314-8.974-15.234-.125-4.725-14.489-4.826 14.455-15.234.019 12.25 9.06-4.689 14.501"/></g></g></svg>