<svg xmlns="http://www.w3.org/2000/svg" viewBox="0 0 640 480"><defs><clipPath id="clipPath5644" clipPathUnits="userSpaceOnUse"><path fill-opacity=".67" d="m-84.605,0h682.67v512h-682.67z"/></clipPath></defs><g fill-rule="evenodd" clip-path="url(#clipPath5644)" transform="matrix(.9375 0 0 .9375 79.318 -0)"><g stroke-width="1.25"><path fill="#dc0000" d="M -128,341.33 H641.46 V512 H-128 z"/><path fill="#ffcb00" d="m-128,0h769.46v170.67h-769.46z"/><path fill="#0000ba" d="m-128,170.67h769.46v170.67h-769.46z"/></g><g fill="#fff" stroke-width=".113"><path d="m269.58,228.72-12.397-8.856-12.336,8.943 4.5881-14.533-12.314-8.9739 15.234-.1251 4.7251-14.489 4.8264,14.455 15.234,.0191-12.25,9.0585 4.6894,14.501z"/><path d="m331.27,236.3-12.397-8.856-12.336,8.943 4.5881-14.533-12.314-8.9739 15.234-.1251 4.7251-14.489 4.8264,14.455 15.234,.0191-12.25,9.0585 4.6894,14.501z"/><path d="m384.74,269.67-12.397-8.856-12.336,8.943 4.5881-14.533-12.314-8.9739 15.234-.1251 4.7251-14.489 4.8264,14.455 15.234,.0191-12.25,9.0585 4.6894,14.501z"/><path d="m414.9,319.72-12.397-8.856-12.336,8.943 4.5881-14.533-12.314-8.9739 15.234-.1251 4.7251-14.489 4.8264,14.455 15.234,.0191-12.25,9.0585 4.6894,14.501z"/><path d="m182.99,236.3 12.397-8.856 12.336,8.943-4.5881-14.533 12.314-8.9739-15.234-.1251-4.7251-14.489-4.8264,14.455-15.234,.0191 12.25,9.0585-4.6894,14.501z"/><path d="m129.53,269.67 12.397-8.856 12.336,8.943-4.5881-14.533 12.314-8.9739-15.234-.1251-4.7251-14.489-4.8264,14.455-15.234,.0191 12.25,9.0585-4.6894,14.501z"/><path d="m99.369,319.72 12.397-8.856 12.336,8.943-4.5881-14.533 12.314-8.9739-15.234-.1251-4.7251-14.489-4.8264,14.455-15.234,.0191 12.25,9.0585-4.6894,14.501z"/></g></g></svg>