<svg xmlns="http://www.w3.org/2000/svg" viewBox="0 0 640 480" xmlns:xlink="http://www.w3.org/1999/xlink"><defs><clipPath id="clipPath3927" clipPathUnits="userSpaceOnUse"><path fill-opacity=".67" d="m0,0h640v480h-640z"/></clipPath><linearGradient gradientTransform="matrix(.64274 0 0 1.4534 -97.981 32.837)" id="linearGradient3345" xlink:href="#linearGradient570" y1="111.28" y2="107.76" x1="103.08" gradientUnits="userSpaceOnUse" x2="92.551"/><linearGradient gradientTransform="matrix(.64274 0 0 1.4534 -97.942 31.918)" id="linearGradient3347" xlink:href="#linearGradient570" y1="111.28" y2="107.76" x1="103.08" gradientUnits="userSpaceOnUse" x2="92.551"/><linearGradient gradientTransform="matrix(.8281 0 0 1.8726 602.82 148.17)" id="linearGradient3349" xlink:href="#linearGradient570" y1="111.28" y2="107.76" x1="103.08" gradientUnits="userSpaceOnUse" x2="92.551"/><linearGradient gradientTransform="matrix(.64274 0 0 1.4534 -97.976 30.11)" id="linearGradient3351" xlink:href="#linearGradient570" y1="111.28" y2="107.76" x1="103.08" gradientUnits="userSpaceOnUse" x2="92.551"/><linearGradient gradientTransform="matrix(.64274 0 0 1.4534 -95.336 30.955)" id="linearGradient3353" xlink:href="#linearGradient570" y1="111.28" y2="107.76" x1="103.08" gradientUnits="userSpaceOnUse" x2="92.551"/><linearGradient id="linearGradient570"><stop offset="0" stop-color="#f00"/><stop offset="1" stop-color="#ff0"/></linearGradient><linearGradient gradientTransform="matrix(.64274 0 0 1.4534 -98.011 33.736)" id="linearGradient3343" xlink:href="#linearGradient570" y1="111.28" y2="107.76" x1="103.08" gradientUnits="userSpaceOnUse" x2="92.551"/><linearGradient gradientTransform="matrix(.64274 0 0 1.4534 -94.683 29.21)" id="linearGradient3331" xlink:href="#linearGradient570" y1="111.28" y2="107.76" x1="103.08" gradientUnits="userSpaceOnUse" x2="92.551"/><linearGradient gradientTransform="matrix(.64274 0 0 1.4534 -94.767 33.751)" id="linearGradient3341" xlink:href="#linearGradient570" y1="111.28" y2="107.76" x1="103.08" gradientUnits="userSpaceOnUse" x2="92.551"/><linearGradient gradientTransform="matrix(.64274 0 0 1.4534 -94.666 30.155)" id="linearGradient3333" xlink:href="#linearGradient570" y1="111.28" y2="107.76" x1="103.08" gradientUnits="userSpaceOnUse" x2="92.551"/><linearGradient gradientTransform="matrix(.64274 0 0 1.4534 -94.743 31.932)" id="linearGradient3337" xlink:href="#linearGradient570" y1="111.28" y2="107.76" x1="103.08" gradientUnits="userSpaceOnUse" x2="92.551"/><linearGradient gradientTransform="matrix(.64274 0 0 1.4534 -94.75 32.835)" id="linearGradient3339" xlink:href="#linearGradient570" y1="111.28" y2="107.76" x1="103.08" gradientUnits="userSpaceOnUse" x2="92.551"/><linearGradient gradientTransform="matrix(.64274 0 0 1.4534 -97.986 31.014)" id="linearGradient3335" xlink:href="#linearGradient570" y1="111.28" y2="107.76" x1="103.08" gradientUnits="userSpaceOnUse" x2="92.551"/></defs><g clip-path="url(#clipPath3927)"><path fill="#006" stroke-width="1.25" d="m0,0h960v480h-960z"/><g transform="scale(.72917)"><path fill="#006" fill-rule="evenodd" d="m0,.0002h480v239.9998h-480z"/><g stroke-width="1.25" transform="scale(8)"><path fill="#fff" d="m0,0v3.3541l53.292,26.646h6.708v-3.354l-53.292-26.646h-6.708zm60,0v3.354l-53.292,26.646h-6.708v-3.354l53.292-26.646h6.708z"/><path fill="#fff" d="m25,0v30h10v-30h-10zm-25,10v10h60v-10h-60z"/><path fill="#c00" d="m0,12v6h60v-6h-60zm27-12v30h6v-30h-6z"/><path fill="#c00" d="m0,30 20-10h4.472l-20,10h-4.472zm0-30 20,10h-4.472l-15.528-7.7639v-2.2361zm35.528,10 20-10h4.472l-20,10h-4.472zm24.472,20-20-10h4.472l15.528,7.764v2.236z"/></g></g><g transform="matrix(1.0265 0 0 1.0265 -301.49 28.259)"><g fill-rule="evenodd"><path fill="#fff" d="m662.41,122.94 213.68-.7929-.3964,190.29s7.5321,28.939-89.593,72.943c34.886-3.5678 72.943-40.832 72.943-40.832s15.461-19.821 22.993-8.7214c7.5321,11.1 14.668,16.65 20.218,21.011 5.55,4.3607 9.9106,16.254 1.5856,24.975-8.325,8.7214-21.407,9.9108-24.975-.7929-5.55,2.7751-39.643,44.004-109.41,45.986-70.961-1.1893-109.81-46.382-109.81-46.382s-9.5143,15.064-22.993,3.1715c-13.082-15.461-3.1714-25.372-3.1714-25.372s11.1-6.3428 14.271-10.704c5.1536-5.9465 6.7393-13.875 15.461-13.875 10.307,.7929 14.271,9.1179 14.271,9.1179s35.679,37.661 74.132,42.418c-86.818-41.625-89.99-67.393-89.593-73.736l.3964-188.7z"/><path fill="#006129" stroke="#000" stroke-width="1.569" d="m667.56,128.09 203.76-1.1893v183.15c.3964,23.786-39.643,47.968-102.28,78.889-64.61-33.3-101.87-53.52-102.27-79.28l.7929-181.56z"/></g><g transform="matrix(1.2884 0 0 1.2884 602.15 110.19)"><path fill="none" stroke="#f7c600" stroke-width="1.218" d="m69.786,170.53 9.3354-13.711 9.3809,13.74"/><g stroke="#000"><path fill="#f7c600" fill-rule="evenodd" stroke-width=".56" d="m80.922,156.72c.0003,.9422-.7634,1.7061-1.7056,1.7061-.9422,0-1.7059-.764-1.7056-1.7061-.0003-.9422 .7634-1.7061 1.7056-1.7061 .9422,0 1.7059,.764 1.7056,1.7061z" transform="matrix(1.087 0 0 1.087 -6.9653 -4.9563)"/><g stroke-width=".609"><path fill="#f7c600" fill-rule="evenodd" d="m71.541,180.66 14.473,.0412s.2269-1.8783-1.5117-3.0199c7.5805-1.0424 5.6112-7.7289 11.96-8.1079 1.2318,.1895-3.3165,2.8427-3.3165,2.8427s-3.8277,2.7012-2.0846,4.0745c1.3839,1.0903 1.9899-.6632 2.1794-1.9898 .1895-1.3266 6.1592-2.1794 5.3064-5.9696-1.4214-3.127-9.7599,2.0845-9.7599,2.0845l-5.9491-.033c-.3709-.6677-2.0105-3.3452-3.7036-3.3576-2.0088,.0733-3.4237,3.3906-3.4237,3.3906h-8.6228-4.8326s-.4613,3.4524 6.3612,4.1157c1.536,2.0061 2.7268,2.5666 4.0621,3.0859-.8902,.7419-1.1408,1.6394-1.1371,2.8427z"/><g fill="none"><path d="m72.583,177.72 12.055-.0411"/><path d="m67.062,170.61s.9644,5.6381 5.4154,6.9734"/></g><g fill-rule="evenodd"><path fill="url(#linearGradient3331)" d="m66.32,170.54c.4451-2.1513 1.2611-2.5223 2.1513-5.2671 .1484-2.6706-2.1513-2.3739-1.4837-4.0801 1.1869-1.8546 .5935-3.635-1.632-5.0445 .4451,2.4481-2.8932,4.7478-2.8932,6.7507 0,2.003 1.7062,1.5579 1.4837,4.5995 .1484,1.7803-.4451,1.3353-.5935,3.0415h2.9674z"/><path fill="#f7c600" d="m80.922,156.72c.0003,.9422-.7634,1.7061-1.7056,1.7061-.9422,0-1.7059-.764-1.7056-1.7061-.0003-.9422 .7634-1.7061 1.7056-1.7061 .9422,0 1.7059,.764 1.7056,1.7061z" transform="translate(-.07419 .44507)"/></g></g></g></g><g transform="matrix(1.2884 0 0 1.2884 601.47 73.831)"><path fill="none" stroke="#f7c600" stroke-width="1.218" d="m69.786,170.53 9.3354-13.711 9.3809,13.74"/><g stroke="#000"><path fill="#f7c600" fill-rule="evenodd" stroke-width=".56" d="m80.922,156.72c.0003,.9422-.7634,1.7061-1.7056,1.7061-.9422,0-1.7059-.764-1.7056-1.7061-.0003-.9422 .7634-1.7061 1.7056-1.7061 .9422,0 1.7059,.764 1.7056,1.7061z" transform="matrix(1.087 0 0 1.087 -6.9653 -4.9563)"/><g stroke-width=".609"><path fill="#f7c600" fill-rule="evenodd" d="m71.541,180.66 14.473,.0412s.2269-1.8783-1.5117-3.0199c7.5805-1.0424 5.6112-7.7289 11.96-8.1079 1.2318,.1895-3.3165,2.8427-3.3165,2.8427s-3.8277,2.7012-2.0846,4.0745c1.3839,1.0903 1.9899-.6632 2.1794-1.9898 .1895-1.3266 6.1592-2.1794 5.3064-5.9696-1.4214-3.127-9.7599,2.0845-9.7599,2.0845l-5.9491-.033c-.3709-.6677-2.0105-3.3452-3.7036-3.3576-2.0088,.0733-3.4237,3.3906-3.4237,3.3906h-8.6228-4.8326s-.4613,3.4524 6.3612,4.1157c1.536,2.0061 2.7268,2.5666 4.0621,3.0859-.8902,.7419-1.1408,1.6394-1.1371,2.8427z"/><g fill="none"><path d="m72.583,177.72 12.055-.0411"/><path d="m67.062,170.61s.9644,5.6381 5.4154,6.9734"/></g><g fill-rule="evenodd"><path fill="url(#linearGradient3333)" d="m66.32,170.54c.4451-2.1513 1.2611-2.5223 2.1513-5.2671 .1484-2.6706-2.1513-2.3739-1.4837-4.0801 1.1869-1.8546 .5935-3.635-1.632-5.0445 .4451,2.4481-2.8932,4.7478-2.8932,6.7507 0,2.003 1.7062,1.5579 1.4837,4.5995 .1484,1.7803-.4451,1.3353-.5935,3.0415h2.9674z"/><path fill="#f7c600" d="m80.922,156.72c.0003,.9422-.7634,1.7061-1.7056,1.7061-.9422,0-1.7059-.764-1.7056-1.7061-.0003-.9422 .7634-1.7061 1.7056-1.7061 .9422,0 1.7059,.764 1.7056,1.7061z" transform="translate(-.07419 .44507)"/></g></g></g></g><g transform="matrix(1.2884 0 0 1.2884 729.25 40.779)"><path fill="none" stroke="#f7c600" stroke-width="1.218" d="m69.786,170.53 9.3354-13.711 9.3809,13.74"/><g stroke="#000"><path fill="#f7c600" fill-rule="evenodd" stroke-width=".56" d="m80.922,156.72c.0003,.9422-.7634,1.7061-1.7056,1.7061-.9422,0-1.7059-.764-1.7056-1.7061-.0003-.9422 .7634-1.7061 1.7056-1.7061 .9422,0 1.7059,.764 1.7056,1.7061z" transform="matrix(1.087 0 0 1.087 -6.9653 -4.9563)"/><g stroke-width=".609"><path fill="#f7c600" fill-rule="evenodd" d="m71.541,180.66 14.473,.0412s.2269-1.8783-1.5117-3.0199c7.5805-1.0424 5.6112-7.7289 11.96-8.1079 1.2318,.1895-3.3165,2.8427-3.3165,2.8427s-3.8277,2.7012-2.0846,4.0745c1.3839,1.0903 1.9899-.6632 2.1794-1.9898 .1895-1.3266 6.1592-2.1794 5.3064-5.9696-1.4214-3.127-9.7599,2.0845-9.7599,2.0845l-5.9491-.033c-.3709-.6677-2.0105-3.3452-3.7036-3.3576-2.0088,.0733-3.4237,3.3906-3.4237,3.3906h-8.6228-4.8326s-.4613,3.4524 6.3612,4.1157c1.536,2.0061 2.7268,2.5666 4.0621,3.0859-.8902,.7419-1.1408,1.6394-1.1371,2.8427z"/><g fill="none"><path d="m72.583,177.72 12.055-.0411"/><path d="m67.062,170.61s.9644,5.6381 5.4154,6.9734"/></g><g fill-rule="evenodd"><path fill="url(#linearGradient3335)" d="m66.32,170.54c.4451-2.1513 1.2611-2.5223 2.1513-5.2671 .1484-2.6706-2.1513-2.3739-1.4837-4.0801 1.1869-1.8546 .5935-3.635-1.632-5.0445 .4451,2.4481-2.8932,4.7478-2.8932,6.7507 0,2.003 1.7062,1.5579 1.4837,4.5995 .1484,1.7803-.4451,1.3353-.5935,3.0415h2.9674z"/><path fill="#f7c600" d="m80.922,156.72c.0003,.9422-.7634,1.7061-1.7056,1.7061-.9422,0-1.7059-.764-1.7056-1.7061-.0003-.9422 .7634-1.7061 1.7056-1.7061 .9422,0 1.7059,.764 1.7056,1.7061z" transform="translate(-.07419 .44507)"/></g></g></g></g><g transform="matrix(1.2884 0 0 1.2884 604.45 5.4353)"><path fill="none" stroke="#f7c600" stroke-width="1.218" d="m69.786,170.53 9.3354-13.711 9.3809,13.74"/><g stroke="#000"><path fill="#f7c600" fill-rule="evenodd" stroke-width=".56" d="m80.922,156.72c.0003,.9422-.7634,1.7061-1.7056,1.7061-.9422,0-1.7059-.764-1.7056-1.7061-.0003-.9422 .7634-1.7061 1.7056-1.7061 .9422,0 1.7059,.764 1.7056,1.7061z" transform="matrix(1.087 0 0 1.087 -6.9653 -4.9563)"/><g stroke-width=".609"><path fill="#f7c600" fill-rule="evenodd" d="m71.541,180.66 14.473,.0412s.2269-1.8783-1.5117-3.0199c7.5805-1.0424 5.6112-7.7289 11.96-8.1079 1.2318,.1895-3.3165,2.8427-3.3165,2.8427s-3.8277,2.7012-2.0846,4.0745c1.3839,1.0903 1.9899-.6632 2.1794-1.9898 .1895-1.3266 6.1592-2.1794 5.3064-5.9696-1.4214-3.127-9.7599,2.0845-9.7599,2.0845l-5.9491-.033c-.3709-.6677-2.0105-3.3452-3.7036-3.3576-2.0088,.0733-3.4237,3.3906-3.4237,3.3906h-8.6228-4.8326s-.4613,3.4524 6.3612,4.1157c1.536,2.0061 2.7268,2.5666 4.0621,3.0859-.8902,.7419-1.1408,1.6394-1.1371,2.8427z"/><g fill="none"><path d="m72.583,177.72 12.055-.0411"/><path d="m67.062,170.61s.9644,5.6381 5.4154,6.9734"/></g><g fill-rule="evenodd"><path fill="url(#linearGradient3337)" d="m66.32,170.54c.4451-2.1513 1.2611-2.5223 2.1513-5.2671 .1484-2.6706-2.1513-2.3739-1.4837-4.0801 1.1869-1.8546 .5935-3.635-1.632-5.0445 .4451,2.4481-2.8932,4.7478-2.8932,6.7507 0,2.003 1.7062,1.5579 1.4837,4.5995 .1484,1.7803-.4451,1.3353-.5935,3.0415h2.9674z"/><path fill="#f7c600" d="m80.922,156.72c.0003,.9422-.7634,1.7061-1.7056,1.7061-.9422,0-1.7059-.764-1.7056-1.7061-.0003-.9422 .7634-1.7061 1.7056-1.7061 .9422,0 1.7059,.764 1.7056,1.7061z" transform="translate(-.07419 .44507)"/></g></g></g></g><g transform="matrix(1.2884 0 0 1.2884 604.72 -29.303)"><path fill="none" stroke="#f7c600" stroke-width="1.218" d="m69.786,170.53 9.3354-13.711 9.3809,13.74"/><g stroke="#000"><path fill="#f7c600" fill-rule="evenodd" stroke-width=".56" d="m80.922,156.72c.0003,.9422-.7634,1.7061-1.7056,1.7061-.9422,0-1.7059-.764-1.7056-1.7061-.0003-.9422 .7634-1.7061 1.7056-1.7061 .9422,0 1.7059,.764 1.7056,1.7061z" transform="matrix(1.087 0 0 1.087 -6.9653 -4.9563)"/><g stroke-width=".609"><path fill="#f7c600" fill-rule="evenodd" d="m71.541,180.66 14.473,.0412s.2269-1.8783-1.5117-3.0199c7.5805-1.0424 5.6112-7.7289 11.96-8.1079 1.2318,.1895-3.3165,2.8427-3.3165,2.8427s-3.8277,2.7012-2.0846,4.0745c1.3839,1.0903 1.9899-.6632 2.1794-1.9898 .1895-1.3266 6.1592-2.1794 5.3064-5.9696-1.4214-3.127-9.7599,2.0845-9.7599,2.0845l-5.9491-.033c-.3709-.6677-2.0105-3.3452-3.7036-3.3576-2.0088,.0733-3.4237,3.3906-3.4237,3.3906h-8.6228-4.8326s-.4613,3.4524 6.3612,4.1157c1.536,2.0061 2.7268,2.5666 4.0621,3.0859-.8902,.7419-1.1408,1.6394-1.1371,2.8427z"/><g fill="none"><path d="m72.583,177.72 12.055-.0411"/><path d="m67.062,170.61s.9644,5.6381 5.4154,6.9734"/></g><g fill-rule="evenodd"><path fill="url(#linearGradient3339)" d="m66.32,170.54c.4451-2.1513 1.2611-2.5223 2.1513-5.2671 .1484-2.6706-2.1513-2.3739-1.4837-4.0801 1.1869-1.8546 .5935-3.635-1.632-5.0445 .4451,2.4481-2.8932,4.7478-2.8932,6.7507 0,2.003 1.7062,1.5579 1.4837,4.5995 .1484,1.7803-.4451,1.3353-.5935,3.0415h2.9674z"/><path fill="#f7c600" d="m80.922,156.72c.0003,.9422-.7634,1.7061-1.7056,1.7061-.9422,0-1.7059-.764-1.7056-1.7061-.0003-.9422 .7634-1.7061 1.7056-1.7061 .9422,0 1.7059,.764 1.7056,1.7061z" transform="translate(-.07419 .44507)"/></g></g></g></g><g transform="matrix(1.2884 0 0 1.2884 605.38 -64.549)"><path fill="none" stroke="#f7c600" stroke-width="1.218" d="m69.786,170.53 9.3354-13.711 9.3809,13.74"/><g stroke="#000"><path fill="#f7c600" fill-rule="evenodd" stroke-width=".56" d="m80.922,156.72c.0003,.9422-.7634,1.7061-1.7056,1.7061-.9422,0-1.7059-.764-1.7056-1.7061-.0003-.9422 .7634-1.7061 1.7056-1.7061 .9422,0 1.7059,.764 1.7056,1.7061z" transform="matrix(1.087 0 0 1.087 -6.9653 -4.9563)"/><g stroke-width=".609"><path fill="#f7c600" fill-rule="evenodd" d="m71.541,180.66 14.473,.0412s.2269-1.8783-1.5117-3.0199c7.5805-1.0424 5.6112-7.7289 11.96-8.1079 1.2318,.1895-3.3165,2.8427-3.3165,2.8427s-3.8277,2.7012-2.0846,4.0745c1.3839,1.0903 1.9899-.6632 2.1794-1.9898 .1895-1.3266 6.1592-2.1794 5.3064-5.9696-1.4214-3.127-9.7599,2.0845-9.7599,2.0845l-5.9491-.033c-.3709-.6677-2.0105-3.3452-3.7036-3.3576-2.0088,.0733-3.4237,3.3906-3.4237,3.3906h-8.6228-4.8326s-.4613,3.4524 6.3612,4.1157c1.536,2.0061 2.7268,2.5666 4.0621,3.0859-.8902,.7419-1.1408,1.6394-1.1371,2.8427z"/><g fill="none"><path d="m72.583,177.72 12.055-.0411"/><path d="m67.062,170.61s.9644,5.6381 5.4154,6.9734"/></g><g fill-rule="evenodd"><path fill="url(#linearGradient3341)" d="m66.32,170.54c.4451-2.1513 1.2611-2.5223 2.1513-5.2671 .1484-2.6706-2.1513-2.3739-1.4837-4.0801 1.1869-1.8546 .5935-3.635-1.632-5.0445 .4451,2.4481-2.8932,4.7478-2.8932,6.7507 0,2.003 1.7062,1.5579 1.4837,4.5995 .1484,1.7803-.4451,1.3353-.5935,3.0415h2.9674z"/><path fill="#f7c600" d="m80.922,156.72c.0003,.9422-.7634,1.7061-1.7056,1.7061-.9422,0-1.7059-.764-1.7056-1.7061-.0003-.9422 .7634-1.7061 1.7056-1.7061 .9422,0 1.7059,.764 1.7056,1.7061z" transform="translate(-.07419 .44507)"/></g></g></g></g><g transform="matrix(1.2884 0 0 1.2884 730.2 -63.975)"><path fill="none" stroke="#f7c600" stroke-width="1.218" d="m69.786,170.53 9.3354-13.711 9.3809,13.74"/><g stroke="#000"><path fill="#f7c600" fill-rule="evenodd" stroke-width=".56" d="m80.922,156.72c.0003,.9422-.7634,1.7061-1.7056,1.7061-.9422,0-1.7059-.764-1.7056-1.7061-.0003-.9422 .7634-1.7061 1.7056-1.7061 .9422,0 1.7059,.764 1.7056,1.7061z" transform="matrix(1.087 0 0 1.087 -6.9653 -4.9563)"/><g stroke-width=".609"><path fill="#f7c600" fill-rule="evenodd" d="m71.541,180.66 14.473,.0412s.2269-1.8783-1.5117-3.0199c7.5805-1.0424 5.6112-7.7289 11.96-8.1079 1.2318,.1895-3.3165,2.8427-3.3165,2.8427s-3.8277,2.7012-2.0846,4.0745c1.3839,1.0903 1.9899-.6632 2.1794-1.9898 .1895-1.3266 6.1592-2.1794 5.3064-5.9696-1.4214-3.127-9.7599,2.0845-9.7599,2.0845l-5.9491-.033c-.3709-.6677-2.0105-3.3452-3.7036-3.3576-2.0088,.0733-3.4237,3.3906-3.4237,3.3906h-8.6228-4.8326s-.4613,3.4524 6.3612,4.1157c1.536,2.0061 2.7268,2.5666 4.0621,3.0859-.8902,.7419-1.1408,1.6394-1.1371,2.8427z"/><g fill="none"><path d="m72.583,177.72 12.055-.0411"/><path d="m67.062,170.61s.9644,5.6381 5.4154,6.9734"/></g><g fill-rule="evenodd"><path fill="url(#linearGradient3343)" d="m66.32,170.54c.4451-2.1513 1.2611-2.5223 2.1513-5.2671 .1484-2.6706-2.1513-2.3739-1.4837-4.0801 1.1869-1.8546 .5935-3.635-1.632-5.0445 .4451,2.4481-2.8932,4.7478-2.8932,6.7507 0,2.003 1.7062,1.5579 1.4837,4.5995 .1484,1.7803-.4451,1.3353-.5935,3.0415h2.9674z"/><path fill="#f7c600" d="m80.922,156.72c.0003,.9422-.7634,1.7061-1.7056,1.7061-.9422,0-1.7059-.764-1.7056-1.7061-.0003-.9422 .7634-1.7061 1.7056-1.7061 .9422,0 1.7059,.764 1.7056,1.7061z" transform="translate(-.07419 .44507)"/></g></g></g></g><g transform="matrix(1.2884 0 0 1.2884 729.06 -29.376)"><path fill="none" stroke="#f7c600" stroke-width="1.218" d="m69.786,170.53 9.3354-13.711 9.3809,13.74"/><g stroke="#000"><path fill="#f7c600" fill-rule="evenodd" stroke-width=".56" d="m80.922,156.72c.0003,.9422-.7634,1.7061-1.7056,1.7061-.9422,0-1.7059-.764-1.7056-1.7061-.0003-.9422 .7634-1.7061 1.7056-1.7061 .9422,0 1.7059,.764 1.7056,1.7061z" transform="matrix(1.087 0 0 1.087 -6.9653 -4.9563)"/><g stroke-width=".609"><path fill="#f7c600" fill-rule="evenodd" d="m71.541,180.66 14.473,.0412s.2269-1.8783-1.5117-3.0199c7.5805-1.0424 5.6112-7.7289 11.96-8.1079 1.2318,.1895-3.3165,2.8427-3.3165,2.8427s-3.8277,2.7012-2.0846,4.0745c1.3839,1.0903 1.9899-.6632 2.1794-1.9898 .1895-1.3266 6.1592-2.1794 5.3064-5.9696-1.4214-3.127-9.7599,2.0845-9.7599,2.0845l-5.9491-.033c-.3709-.6677-2.0105-3.3452-3.7036-3.3576-2.0088,.0733-3.4237,3.3906-3.4237,3.3906h-8.6228-4.8326s-.4613,3.4524 6.3612,4.1157c1.536,2.0061 2.7268,2.5666 4.0621,3.0859-.8902,.7419-1.1408,1.6394-1.1371,2.8427z"/><g fill="none"><path d="m72.583,177.72 12.055-.0411"/><path d="m67.062,170.61s.9644,5.6381 5.4154,6.9734"/></g><g fill-rule="evenodd"><path fill="url(#linearGradient3345)" d="m66.32,170.54c.4451-2.1513 1.2611-2.5223 2.1513-5.2671 .1484-2.6706-2.1513-2.3739-1.4837-4.0801 1.1869-1.8546 .5935-3.635-1.632-5.0445 .4451,2.4481-2.8932,4.7478-2.8932,6.7507 0,2.003 1.7062,1.5579 1.4837,4.5995 .1484,1.7803-.4451,1.3353-.5935,3.0415h2.9674z"/><path fill="#f7c600" d="m80.922,156.72c.0003,.9422-.7634,1.7061-1.7056,1.7061-.9422,0-1.7059-.764-1.7056-1.7061-.0003-.9422 .7634-1.7061 1.7056-1.7061 .9422,0 1.7059,.764 1.7056,1.7061z" transform="translate(-.07419 .44507)"/></g></g></g></g><g transform="matrix(1.2884 0 0 1.2884 727.53 5.9883)"><path fill="none" stroke="#f7c600" stroke-width="1.218" d="m69.786,170.53 9.3354-13.711 9.3809,13.74"/><g stroke="#000"><path fill="#f7c600" fill-rule="evenodd" stroke-width=".56" d="m80.922,156.72c.0003,.9422-.7634,1.7061-1.7056,1.7061-.9422,0-1.7059-.764-1.7056-1.7061-.0003-.9422 .7634-1.7061 1.7056-1.7061 .9422,0 1.7059,.764 1.7056,1.7061z" transform="matrix(1.087 0 0 1.087 -6.9653 -4.9563)"/><g stroke-width=".609"><path fill="#f7c600" fill-rule="evenodd" d="m71.541,180.66 14.473,.0412s.2269-1.8783-1.5117-3.0199c7.5805-1.0424 5.6112-7.7289 11.96-8.1079 1.2318,.1895-3.3165,2.8427-3.3165,2.8427s-3.8277,2.7012-2.0846,4.0745c1.3839,1.0903 1.9899-.6632 2.1794-1.9898 .1895-1.3266 6.1592-2.1794 5.3064-5.9696-1.4214-3.127-9.7599,2.0845-9.7599,2.0845l-5.9491-.033c-.3709-.6677-2.0105-3.3452-3.7036-3.3576-2.0088,.0733-3.4237,3.3906-3.4237,3.3906h-8.6228-4.8326s-.4613,3.4524 6.3612,4.1157c1.536,2.0061 2.7268,2.5666 4.0621,3.0859-.8902,.7419-1.1408,1.6394-1.1371,2.8427z"/><g fill="none"><path d="m72.583,177.72 12.055-.0411"/><path d="m67.062,170.61s.9644,5.6381 5.4154,6.9734"/></g><g fill-rule="evenodd"><path fill="url(#linearGradient3347)" d="m66.32,170.54c.4451-2.1513 1.2611-2.5223 2.1513-5.2671 .1484-2.6706-2.1513-2.3739-1.4837-4.0801 1.1869-1.8546 .5935-3.635-1.632-5.0445 .4451,2.4481-2.8932,4.7478-2.8932,6.7507 0,2.003 1.7062,1.5579 1.4837,4.5995 .1484,1.7803-.4451,1.3353-.5935,3.0415h2.9674z"/><path fill="#f7c600" d="m80.922,156.72c.0003,.9422-.7634,1.7061-1.7056,1.7061-.9422,0-1.7059-.764-1.7056-1.7061-.0003-.9422 .7634-1.7061 1.7056-1.7061 .9422,0 1.7059,.764 1.7056,1.7061z" transform="translate(-.07419 .44507)"/></g></g></g></g><path fill="none" stroke="#f7c600" stroke-width="1.255" d="m818.97,330.26 12.028-17.665 12.086,17.702"/><g stroke="#000" stroke-width=".784"><g fill="#f7c600" fill-rule="evenodd"><path d="m833.41,323.66c.0005,1.3195-1.0691,2.3894-2.3887,2.3894s-2.3892-1.0699-2.3887-2.3894c-.0005-1.3195 1.0691-2.3894 2.3887-2.3894 1.3195,0 2.3891,1.0699 2.3887,2.3894z"/><path d="m821.23,343.31 18.647,.053s.2924-2.42-1.9477-3.8908c9.7667-1.343 7.2295-9.9579 15.409-10.446 1.5871,.2442-4.2729,3.6625-4.2729,3.6625s-4.9317,3.4802-2.6859,5.2496c1.783,1.4047 2.5638-.8545 2.808-2.5637 .2441-1.7092 7.9354-2.8079 6.8367-7.6912-1.8313-4.0288-12.575,2.6857-12.575,2.6857l-7.6648-.0425c-.4779-.8603-2.5903-4.31-4.7717-4.3259-2.5881,.0944-4.4111,4.3684-4.4111,4.3684h-11.11-6.2263s-.5944,4.4481 8.1957,5.3026c1.979,2.5846 3.5131,3.3068 5.2336,3.9759-1.147,.9559-1.4698,2.1122-1.465,3.6625z"/></g><g fill="none"><path d="m822.57,339.52 15.531-.0529"/><path d="m815.46,330.37s1.2425,7.2641 6.9772,8.9845"/></g><g fill-rule="evenodd"><path fill="url(#linearGradient3349)" d="m814.5,330.27c.5735-2.7717 1.6248-3.2497 2.7718-6.7861 .1912-3.4408-2.7718-3.0585-1.9116-5.2568 1.5292-2.3895 .7646-4.6833-2.1027-6.4993 .5735,3.1541-3.7276,6.117-3.7276,8.6976 0,2.5807 2.1983,2.0072 1.9116,5.926 .1912,2.2937-.5735,1.7204-.7646,3.9187h3.8231z"/><path fill="#f7c600" d="m833.22,313.05c.0004,1.2139-.9836,2.1982-2.1975,2.1982-1.214,0-2.1979-.9843-2.1975-2.1982-.0004-1.2139 .9836-2.1982 2.1975-2.1982s2.1979,.9843 2.1975,2.1982z"/></g></g><g transform="matrix(1.2884 0 0 1.2884 728.87 75.569)"><path fill="none" stroke="#f7c600" stroke-width="1.218" d="m69.786,170.53 9.3354-13.711 9.3809,13.74"/><g stroke="#000"><path fill="#f7c600" fill-rule="evenodd" stroke-width=".56" d="m80.922,156.72c.0003,.9422-.7634,1.7061-1.7056,1.7061-.9422,0-1.7059-.764-1.7056-1.7061-.0003-.9422 .7634-1.7061 1.7056-1.7061 .9422,0 1.7059,.764 1.7056,1.7061z" transform="matrix(1.087 0 0 1.087 -6.9653 -4.9563)"/><g stroke-width=".609"><path fill="#f7c600" fill-rule="evenodd" d="m71.541,180.66 14.473,.0412s.2269-1.8783-1.5117-3.0199c7.5805-1.0424 5.6112-7.7289 11.96-8.1079 1.2318,.1895-3.3165,2.8427-3.3165,2.8427s-3.8277,2.7012-2.0846,4.0745c1.3839,1.0903 1.9899-.6632 2.1794-1.9898 .1895-1.3266 6.1592-2.1794 5.3064-5.9696-1.4214-3.127-9.7599,2.0845-9.7599,2.0845l-5.9491-.033c-.3709-.6677-2.0105-3.3452-3.7036-3.3576-2.0088,.0733-3.4237,3.3906-3.4237,3.3906h-8.6228-4.8326s-.4613,3.4524 6.3612,4.1157c1.536,2.0061 2.7268,2.5666 4.0621,3.0859-.8902,.7419-1.1408,1.6394-1.1371,2.8427z"/><g fill="none"><path d="m72.583,177.72 12.055-.0411"/><path d="m67.062,170.61s.9644,5.6381 5.4154,6.9734"/></g><g fill-rule="evenodd"><path fill="url(#linearGradient3351)" d="m66.32,170.54c.4451-2.1513 1.2611-2.5223 2.1513-5.2671 .1484-2.6706-2.1513-2.3739-1.4837-4.0801 1.1869-1.8546 .5935-3.635-1.632-5.0445 .4451,2.4481-2.8932,4.7478-2.8932,6.7507 0,2.003 1.7062,1.5579 1.4837,4.5995 .1484,1.7803-.4451,1.3353-.5935,3.0415h2.9674z"/><path fill="#f7c600" d="m80.922,156.72c.0003,.9422-.7634,1.7061-1.7056,1.7061-.9422,0-1.7059-.764-1.7056-1.7061-.0003-.9422 .7634-1.7061 1.7056-1.7061 .9422,0 1.7059,.764 1.7056,1.7061z" transform="translate(-.07419 .44507)"/></g></g></g></g><g transform="matrix(1.2884 0 0 1.2884 627.25 43.056)"><path fill="none" stroke="#f7c600" stroke-width="1.218" d="m69.786,170.53 9.3354-13.711 9.3809,13.74"/><g stroke="#000"><path fill="#f7c600" fill-rule="evenodd" stroke-width=".56" d="m80.922,156.72c.0003,.9422-.7634,1.7061-1.7056,1.7061-.9422,0-1.7059-.764-1.7056-1.7061-.0003-.9422 .7634-1.7061 1.7056-1.7061 .9422,0 1.7059,.764 1.7056,1.7061z" transform="matrix(1.087 0 0 1.087 -6.9653 -4.9563)"/><g stroke-width=".609"><path fill="#f7c600" fill-rule="evenodd" d="m71.541,180.66 14.473,.0412s.2269-1.8783-1.5117-3.0199c7.5805-1.0424 5.6112-7.7289 11.96-8.1079 1.2318,.1895-3.3165,2.8427-3.3165,2.8427s-3.8277,2.7012-2.0846,4.0745c1.3839,1.0903 1.9899-.6632 2.1794-1.9898 .1895-1.3266 6.1592-2.1794 5.3064-5.9696-1.4214-3.127-9.7599,2.0845-9.7599,2.0845l-5.9491-.033c-.3709-.6677-2.0105-3.3452-3.7036-3.3576-2.0088,.0733-3.4237,3.3906-3.4237,3.3906h-8.6228-4.8326s-.4613,3.4524 6.3612,4.1157c1.536,2.0061 2.7268,2.5666 4.0621,3.0859-.8902,.7419-1.1408,1.6394-1.1371,2.8427z"/><g fill="none"><path d="m72.583,177.72 12.055-.0411"/><path d="m67.062,170.61s.9644,5.6381 5.4154,6.9734"/></g><g fill-rule="evenodd"><path fill="url(#linearGradient3353)" d="m66.32,170.54c.4451-2.1513 1.2611-2.5223 2.1513-5.2671 .1484-2.6706-2.1513-2.3739-1.4837-4.0801 1.1869-1.8546 .5935-3.635-1.632-5.0445 .4451,2.4481-2.8932,4.7478-2.8932,6.7507 0,2.003 1.7062,1.5579 1.4837,4.5995 .1484,1.7803-.4451,1.3353-.5935,3.0415h2.9674z"/><path fill="#f7c600" d="m80.922,156.72c.0003,.9422-.7634,1.7061-1.7056,1.7061-.9422,0-1.7059-.764-1.7056-1.7061-.0003-.9422 .7634-1.7061 1.7056-1.7061 .9422,0 1.7059,.764 1.7056,1.7061z" transform="translate(-.07419 .44507)"/></g></g></g></g><g stroke="#000"><g transform="matrix(1.2884 0 0 1.2884 602.15 109.79)"><g stroke-width=".609"><g fill-rule="evenodd"><path fill="#f7c600" d="m139.22,183.9s3.7768,8.7077 8.0782,3.3572 2.7278-7.6586 2.7278-7.6586l-9.652-5.2456-2.8326,5.98 1.6786,3.567z"/><g fill="#ffc6b5"><path d="m147.51,182.75s.6294,.105 1.154-.8392-1.154-1.364-1.8884-2.4131l-.8393,1.6787 1.5737,1.5736z"/><path d="m125.68,180.44-8.4979,4.6161s-4.1965,.8392-4.5112,0c-.3148-.8393 .1049-1.5737 2.308-1.6786 2.2032-.1049 8.1832-5.5604 8.1832-5.5604l2.5179,2.6229z"/><path d="m125.79,29.47s.2098,1.9933 .3147,3.0424-1.6786,3.2523-1.7835,3.1474-.9442,.1049-.8393,.7344 1.3639,.8393 1.3639,.8393-.5246,2.2031 0,2.308c.5245,.1049-1.3639,2.8327 0,3.567 1.3638,.7343 3.6719,1.6785 4.721,1.4687 1.0491-.2098 0,4.0916 0,4.0916l-2.9375,6.2947 16.156-1.6785-3.3572-5.3506s-1.5736-1.0491-1.154-4.0916c.4197-3.0424-.2098-16.786-.2098-16.786l-11.54-1.5737-.7344,3.9867z"/><path d="m122.85,53.39s-5.2456,2.413-5.0358,8.9175c-1.3638,6.2947-2.0982,12.589-2.0982,12.589s-6.1898,7.029-8.0782,9.547c-1.8884,2.5179-4.7211,7.6585-5.7702,9.0224s-5.1407,5.8752-5.0358,7.5537c.1049,1.6785-.9442,9.1274 3.1474,9.9666 1.0491,.4196 4.4063-8.6028 4.4063-8.6028s.2098-3.8817-.9442-4.6161 2.5179-3.2523 2.5179-3.2523 7.0291-5.1407 8.6028-6.3996 5.8751-6.0849 5.8751-6.0849l2.4129-28.641z"/></g><path fill="#fff" d="m128.83,48.459s1.3639,3.672 4.4063,3.0424c3.0425-.6295 6.6095-3.4621 6.6095-3.4621s2.8326-.1049 3.2523,.3147c.4196,.4196 7.6585,7.4486 7.4487,9.6519-.2098,2.2032-3.3572,1.5736-4.5112,3.0424s-3.0425,5.1407-2.5179,7.8684 2.0982,6.2948 1.8884,7.6586-1.3638,1.7834-1.3638,2.5178c0,.7344 .9442,1.9934 .9442,3.3572s-1.259,3.3571-1.0491,4.721c.2098,1.3639 .3147,5.3505 .3147,5.3505l-.3147,18.465s1.0491,.6294 1.154,1.6786c.1049,1.0491 7.134,31.578 7.134,31.578s-.3147,.9442-1.0491,.8393 2.8326,4.721 2.9375,6.0849 3.672,12.065 3.567,13.534c-.1049,1.4687-.6294,4.721-.9442,4.8259-.3147,.1049 2.3081,6.7144 1.8884,7.7635-.4196,1.0491-4.721,.9442-4.721,.9442l-1.154-.2098s.1049,1.3639-.7344,1.4688-7.0291-.3148-7.0291-.3148-1.7835,2.7277-2.8326,2.6228c-1.0492-.1049-2.413-1.9933-2.7278-1.6785-.3147,.3147 .9443,2.0981 .6295,2.6227-.3147,.5246-5.6652,1.6787-6.7144-.8392-1.0491-2.5179 .6295-1.8885 .3148-2.413-.3148-.5246-2.7277-1.8884-3.4621-1.4688s1.8884,1.0491 1.7835,2.0983c-.1049,1.0491-2.3081,2.6227-3.1474,2.6227s-2.8326-3.8817-5.7701-3.462c-2.9376,.4196-4.826,1.154-4.826,1.154s-3.4621,1.4687-4.9309,1.154c-1.4687-.3147-2.0982-1.4688-2.0982-2.0982 0-.6295 1.0491-3.3572 .9442-4.1965s-.9442-1.6786-.9442-2.9376c0-1.2589 2.413-5.5603 2.413-5.5603l-.1049-19.304s-2.2032-.0001-2.3081-1.3639 3.3572-30.529 3.8817-32.418c.5246-1.8884 1.8885-8.6028 1.8885-8.6028s-1.5737,.7344-1.6786,0 4.721-17.415 4.721-17.415 .8393-8.2881 .8393-10.491c0-2.2031-.4196-5.2456-.4196-5.2456s-4.3072-1.8234-4.4064-4.6161c-.3939-4.4434 4.0916-6.9243 4.6162-8.393 .5245-1.4687 2.0982-5.875 2.0982-5.875s2.3081-3.9867 6.0849-4.6162z"/><path fill="#f7c600" d="m127.26,181.7s-10.176,5.3506-11.645,5.7702c-1.4688,.4196-2.413-1.7835-.9442-2.2032 1.4688-.4196 3.7768-.6295 3.7768-.6295s-3.4621-2.7277-3.3572-2.8326c.105-.1049 4.7211-1.7834 4.826-1.7834s1.4688,2.7276 2.413,2.5178 3.6719-2.308 3.6719-2.308 1.4688,1.6786 1.2589,1.4687z"/><g fill="#ffc6b5"><path d="m141.6,184.63c.9622,1.2409 1.3384,3.3932 3.5416,2.1343 2.2031-1.2589-1.1286-3.5956-1.1286-3.5956l-2.413,1.4613z"/><path d="m145.62,184.42s1.0491,.8393 1.9933-.1049-1.8885-2.9375-1.8885-2.9375l-1.3638,1.5737 1.259,1.4687z"/></g></g><g fill="none"><path d="m142.47,52.55s-9.3372,5.98-9.1274,8.0782"/><path d="m144.57,53.599s-2.0982,2.308-2.2031,2.308"/><path d="m147.4,56.117s-4.6162,3.7768-3.8818,6.1898"/><path d="m125.58,52.026s-1.3638,2.8326-1.0491,3.7768c.3148,.9442 2.6228,4.5113 2.9376,6.7144 .3147,2.2031 0,3.7769 0,3.7769"/><path d="m123.17,57.271s.4196,3.3572 1.0491,3.9867c.6295,.6294 2.3081,3.4621 2.5179,4.6161"/><path d="m122.33,71.224s2.7277,1.364 5.2456-3.8817"/><path d="m131.66,63.671c-.1049,0-1.9933,5.1407 1.3639,7.0291s5.8751,1.6785 7.3438,1.154c1.4688-.5245 3.0425-1.4687 3.0425-1.4687"/><path d="m130.2,69.966s.2098,6.9243 10.386,13.744"/><path d="m130.62,76.47s-.1049,6.0848 3.8818,8.8126"/><path d="m128.52,69.336s-3.0425,9.0224-5.4554,9.9666"/><path d="m127.57,75.946s-.1049,6.5046-.9442,8.8126"/><path d="m125.79,86.332s2.0982,2.6228 4.4063,2.413c2.308-.2098 3.2522-2.9376 4.8259-2.5179 1.5737,.4197 3.0425,1.6787 6.7144,1.3639"/><path d="m136.49,90.318s0,5.3505 .9442,5.8751 .5246,5.4554 .5246,5.4554"/><path d="m123.69,87.801s-.1049,5.0359-.7344,6.8193c-.6294,1.7834-1.8884,4.826-1.6785,7.4488"/><path d="m117.29,105.01c.5245-.2098 2.3081-1.7834 2.3081-1.7834"/><path d="m120.54,104.38s-4.5113,19.304-3.2523,30.844"/><path d="m121.59,105.32s-2.3081,14.478-1.259,17.206"/><path d="m120.44,104.9c.1049,0 8.8126,.6294 8.8126,.6294"/><path d="m130.51,104.38s2.413,1.259 5.7702,1.0491"/><path d="m129.46,111.41s-.4197,24.759-1.0491,30.215"/><path d="m142.37,117.07s2.7277,21.717 4.3014,23.71"/><path d="m137.12,119.8s1.6786,19.199 2.6228,20.878"/><path d="m113.31,147.39s3.2522-1.0492 6.1897-4.1965c3.3573,4.5112 8.4979,.2099 8.4979,.2099s7.9733,5.4554 11.54-.6295c5.4554,3.567 8.1831-.5246 8.1831-.5246s1.9934,3.0424 3.4621,2.7277"/><path d="m142.47,147.08s4.0916,19.199 10.176,24.654"/><path d="m121.38,145.08s.5245,16.052 1.4687,27.382"/><path d="m120.65,163.23s-.5246,10.491-1.1541,11.226"/><path d="m114.46,175.51s1.154,4.5113 6.9242,.3148c5.7701-4.1966 5.875,1.5737 6.0849,2.2031 .2098,.6294 1.154,5.1407 3.3571,1.3639"/><path d="m135.44,173.2s-.9442,9.337 7.3438,2.5178c8.2881-6.8192 9.6519-.1048 9.8617,1.9934"/></g><path fill="#9c5100" fill-rule="evenodd" d="m125.47,28.84s2.3081,.3146 3.567-.4197c1.259-.7343 2.7278-1.049 3.7769,.4197s1.7835,1.3638 1.7835,1.3638-1.5737,3.8817 0,4.3014c1.5737,.4197 2.308,.4196 2.413,.9442 .1049,.5246-1.3639,1.6786-.9443,2.2031 .4197,.5246 1.1541,1.1541 1.259,1.5737 .1049,.4196-.9442,2.2031-.6295,2.6228 .3148,.4197 1.259,2.0983 1.8884,2.0983 .6295,0 .2099,2.6228 2.0983,1.9933s1.7835-2.3081 1.7835-2.3081 1.9933-.3147 2.5179-2.0982c.5245-1.7835 1.7835-2.2031 1.7835-2.2031s2.5179-1.3638-.8393-3.4621c0-14.688-9.6519-13.114-9.6519-13.114s-1.1541-2.6229-3.0425-2.3081c-1.8884,.3148-1.9933,2.518-3.3572,2.3081-1.3638-.2099-1.6785-1.154-1.7835-1.0491-.1049,.1049-1.2589,2.2031-1.2589,2.7277 0,.5246-3.6719-.7344-3.3572,1.9933s2.0982,2.6228 1.9933,2.413z"/><g fill="none"><path d="m135.55,25.273s-.7344,4.6161 4.1965,4.1965c-.6295,2.5179 1.2589,3.3572 1.2589,3.3572"/><path d="m144.67,35.659c.105,0 2.2032,1.3638-.1049,3.0424"/><path d="m137.54,39.331s1.049,1.259 2.2031,.9443c1.154-.3147 3.0424,1.154 3.0424,1.154s1.5737,.5245 1.7835,.2098"/><path d="m131.14,43.318s3.567,1.3639 5.8751-4.3014"/><path d="m124.53,37.338 2.0983,.1049"/><path stroke-linejoin="round" d="m124.85,39.436h1.8884l-1.6786,.7344"/></g></g><path fill="none" stroke-linejoin="round" stroke-width="1.096" d="m127.47,33.561c.3147,0 1.4687-.4197 1.6786-.1049 .2098,.3148-1.259,.5246-1.6786,.1049z"/><g stroke-width=".609"><path fill="#ffc6b5" fill-rule="evenodd" d="m150.13,58.487c.1049,0 3.4621,10.386 3.8817,13.009 .4197,2.6228 1.7835,13.114 1.259,14.583-.5246,1.4688-5.8751,8.4978-6.5046,10.281-.6295,1.7835-4.4063,8.6029-4.4063,8.6029s-.9442,6.7144-1.3639,7.0291c-.4196,.3148 1.0831,1.9628 .9443,2.5179-.2082,.6245-3.0425,3.567-4.3014,3.2523-1.259-.3148-3.2523-1.7836-3.3572-3.1474s.1049-5.8751 1.0491-7.0291 5.8751-12.799 6.1898-13.534c.3147-.7344 4.5112-9.8617 4.6161-11.435 .105-1.5737-1.3054-5.2127-2.7891-6.548-3.302-9.7182-2.0046-15.579 4.7825-17.582z"/><g fill="none"><path d="m101.25,103.5 .1642,4.5977"/><path d="m96.942,103.16s2.9477,4.9298 2.7014,7.557"/><path stroke-linejoin="round" d="m136.45,113.46s2.204-.2316 2.1346,3.4481c1.4074-4.5711 4.2692-4.6797 4.2692-4.6797"/></g></g></g><g stroke-width="1.569"><path fill="#f7c600" fill-rule="evenodd" d="m768.25,391.32c57.086-1.5858 93.954-42.814 93.557-43.211-.3963-.3964 7.5322-11.496 13.875-9.9107 6.3429,1.5858 15.461,20.218 26.561,24.182 5.5499,8.7214-1.5858,16.65-3.9644,18.236-2.3785,1.5858-13.082,5.9465-14.668-.3964-1.5856-6.3429-4.7572-5.1536-4.7572-5.1536s-50.743,49.554-109.41,47.572c-60.65,.4-110.6-47.57-110.6-47.57l-4.3608,4.7571s-4.7572,5.1536-7.1357,4.7572c-2.3786-.3965-12.686-7.1357-13.479-13.875-.7929-6.7393 6.3429-11.1 6.3429-11.1s17.443-13.479 19.425-20.614c3.9643-3.9643 11.496,2.7749 11.496,2.7749s45.986,52.725 97.125,49.554z"/><g fill="none"><path d="m639.02,360.66s4.7171-1.258 6.4468,.7076c1.7296,1.9654 13.601,13.601 13.601,13.601"/><path d="m649.79,366.16-4.7171,3.5378s11.871,2.3583 9.1984,10.142"/><path d="m897.99,360.26s-2.3587-1.258-6.0537,1.4938c-3.6951,2.7516-13.051,13.208-13.051,13.208"/><path d="m887.38,365.85 5.1102,3.9309s-10.692,.7076-8.3336,10.849"/></g></g></g><path d="m699.45,373.24-.3437,.482c-.717-.3541-1.5348-.4198-2.4534-.1972-.6744,.1741-1.9449,.8074-3.8115,1.9l-15.708,9.1572-.4299-.3066 3.9573-18.363c.4782-2.2137 .6967-3.558 .6554-4.0329-.0326-.4687-.3641-.9867-.9944-1.5542l.3437-.482 8.4674,6.0385-.3437,.482-.2866-.2044c-.7642-.545-1.3534-.8211-1.7676-.8282-.2927-.0122-.5288,.1077-.7084,.3595-.1115,.1563-.2099,.3678-.2953,.6345-.0792,.258-.2504,.994-.5136,2.2082l-2.5061,11.478 9.0745-5.3393c1.0919-.6493 1.8002-1.1006 2.1249-1.3538 .3247-.2532 .5675-.4927 .7286-.7185 .1858-.2605 .2804-.5402 .284-.8391 .003-.2988-.0923-.5964-.2871-.8926-.2682-.4139-.7105-.8408-1.3271-1.2805l.3437-.482 5.7969,4.1341m5.6407,27.295-.284,.5194-9.9529-5.4431 .2841-.5194 .6317,.3455c.5521,.302 1.0504,.4468 1.4948,.4345 .315,.002 .625-.1202 .93-.3667 .2258-.1683 .5997-.7298 1.1217-1.6843l6.848-12.522c.5323-.9733 .8135-1.6097 .8436-1.9094 .0301-.2996-.0653-.6253-.2862-.9772-.2065-.356-.5764-.68-1.1099-.9717l-.6317-.3455 .2841-.5194 9.9528,5.443-.284,.5194-.6317-.3455c-.5522-.3019-1.0504-.4468-1.4948-.4345-.315-.002-.6297,.1177-.944,.3591-.2258,.1683-.5997,.7298-1.1217,1.6843l-6.848,12.522c-.5323,.9733-.8135,1.6098-.8436,1.9094-.0208,.3047 .0721,.6352 .2786,.9912 .2209,.3518 .5981,.6736 1.1316,.9653l.6317,.3455m36.36-8.5281-2.5662,7.2046-.5577-.1986c.0283-2.2093-.4483-4.0662-1.4297-5.5707-.9814-1.5045-2.271-2.5413-3.8686-3.1104-1.5274-.544-2.9524-.5647-4.275-.062-1.3191,.4926-2.4635,1.4325-3.4331,2.8195-.9696,1.3871-1.7426,2.8895-2.3188,4.5073-.6979,1.9594-1.0788,3.76-1.1427,5.4017s.2931,2.9918 1.0711,4.0502c.788,1.062 1.8904,1.8453 3.3072,2.3499 .4923,.1754 1.0127,.3041 1.5609,.3861 .5619,.0756 1.1499,.1095 1.7641,.1018l1.514-4.2504c.2863-.8039 .4154-1.341 .3872-1.6115-.0247-.2805-.1788-.5789-.4625-.8951-.2736-.3126-.6567-.5566-1.149-.732l-.5275-.1879 .1986-.5577 9.9327,3.5379-.1986,.5577c-.7715-.2182-1.3367-.3006-1.6953-.2472-.3451,.0469-.6625,.2226-.9521,.5271-.1585,.1587-.3701,.6098-.6349,1.3534l-1.5139,4.2504c-1.5139,.1175-3.0311,.0696-4.5517-.1436-1.5142-.1996-3.0298-.5697-4.5471-1.1101-1.9393-.6908-3.459-1.5264-4.5591-2.5071-1.0864-.9871-1.9699-2.0831-2.6504-3.2879-.6669-1.2113-1.0852-2.453-1.2549-3.725-.2095-1.6372-.008-3.3149 .6038-5.0332 1.0952-3.0748 3.1006-5.2875 6.0161-6.6382 2.9156-1.3507 6.0112-1.4426 9.287-.2759 1.0149,.3615 1.9006,.7676 2.6573,1.2182 .4135,.2379 1.0446,.7231 1.8933,1.4557 .8623,.7261 1.3839,1.1214 1.5648,1.1858 .2813,.1002 .5784,.0928 .8911-.0223 .3163-.1251 .6769-.4382 1.0819-.9394l.5577,.1986m15.318,24.587-.0887,.5853-11.216-1.699 .0887-.5853 .7119,.1078c.6222,.0943 1.14,.0594 1.5532-.1046 .2966-.1061 .5458-.3273 .7478-.6635 .1544-.2355 .313-.8912 .476-1.9669l2.1376-14.111c.1661-1.0968 .212-1.7911 .1375-2.0829-.0745-.2917-.2758-.565-.6041-.8197-.3161-.2636-.7747-.441-1.3758-.5321l-.7119-.1078 .0887-.5853 11.216,1.699-.0887,.5853-.7119-.1078c-.6222-.0942-1.14-.0594-1.5532,.1046-.2966,.1061-.5511,.3265-.7636,.6611-.1544,.2356-.313,.8912-.476,1.9669l-2.1376,14.111c-.1662,1.0968-.212,1.7911-.1375,2.0829 .085,.2934 .2856,.5719 .6016,.8355 .3282,.2547 .7929,.4276 1.394,.5186l.7119,.1078m29.114-7.0721-.4268,7.6477-19.239,.9816-.0302-.5912 .7191-.0367c.6285-.0321 1.1288-.1697 1.5009-.413 .2694-.1633 .4694-.4298 .6-.7996 .1041-.2616 .1285-.9357 .073-2.0223l-.7273-14.253c-.0565-1.1079-.1504-1.7973-.2817-2.0683-.1313-.271-.3832-.4984-.7558-.6824-.3624-.1951-.8472-.2772-1.4544-.2462l-.7191,.0367-.0302-.5912 11.553-.5895 .0302,.5912-.9428,.0481c-.6285,.032-1.1288,.1698-1.5009,.413-.2694,.1633-.4747,.4301-.616,.8004-.1042,.2617-.1285,.9358-.073,2.0224l.7044,13.806c.0565,1.1079 .1566,1.813 .3002,2.1154 .1431,.2918 .4048,.5027 .7853,.6328 .2712,.0823 .9181,.0974 1.9408,.0452l1.8056-.0922c1.1505-.0587 2.0989-.31 2.8453-.754 .7463-.4439 1.3742-1.1168 1.8836-2.0186 .52-.9023 .9869-2.2185 1.4006-3.9485l.6552-.0334m21.045-3.6512-7.3433,2.1937-.2693,2.2847c-.0847,.76-.0613,1.3598 .0699,1.7993 .174,.5826 .5373,.9416 1.0899,1.0771 .3248,.0811 1.0411,.0007 2.1489-.2412l.1694,.5672-6.9141,2.0655-.1694-.5672c.7125-.3353 1.2341-.8251 1.5649-1.4694 .3277-.6545 .6075-1.8792 .8395-3.674l2.48-18.809 .2913-.087 12.589,14.808c1.1978,1.4011 2.0893,2.2425 2.6744,2.5241 .4421,.213 .9877,.2504 1.6366,.1122l.1694,.5672-10.057,3.0043-.1694-.5672 .4139-.1237c.8074-.2412 1.341-.5231 1.6009-.8456 .176-.2307 .2182-.4993 .1266-.806-.055-.1839-.1421-.3639-.2614-.5398-.0479-.0858-.3157-.4233-.8034-1.0124l-1.8778-2.2611m-.8601-.9787-5.2355-6.2342-1.05,8.112 6.2855-1.8777m27.726-28.253 2.7806,5.1719-.5073,.2728c-.9421-1.0315-1.7353-1.7071-2.3795-2.0269-.6493-.3291-1.3767-.4769-2.1822-.4435-.4479,.0228-1.1182,.2742-2.0106,.754l-1.4233,.7652 7.9252,14.741c.5253,.9771 .9053,1.56 1.14,1.7487 .2441,.1837 .5716,.2861 .9827,.3073 .4154,.007 .8955-.1363 1.4404-.4293l.6342-.341 .2803,.5214-10.006,5.3794-.2803-.5214 .6341-.341c.5543-.298 .9475-.6366 1.1797-1.0157 .1735-.2629 .2449-.5919 .2141-.9871-.0179-.281-.2844-.9007-.7996-1.859l-7.9252-14.741-1.381,.7425c-1.2871,.692-2.0754,1.4671-2.3649,2.3251-.4082,1.2004-.3415,2.5634 .2001,4.0888l-.5355,.2879-2.7806-5.1719 17.164-9.2284m13.014-7.7159 5.3186,7.051 .3449-.2602c1.0985-.8286 1.6346-1.7741 1.6082-2.8364s-.4789-2.3176-1.3576-3.7659l.4854-.3662 6.841,9.0692-.4854,.3661c-.8473-.9107-1.6747-1.5559-2.4821-1.9356-.7989-.3861-1.4958-.5217-2.0907-.407-.6013,.1062-1.315,.4708-2.141,1.0939l3.6807,4.8795c.7194,.9538 1.1978,1.5082 1.435,1.6632 .2457,.1487 .5307,.2076 .8549,.1768 .3242-.0307 .7332-.2324 1.2271-.605l1.0347-.7804c1.618-1.2204 2.6297-2.5715 3.0352-4.0532 .414-1.4881 .2558-3.1591-.4746-5.0131l.4726-.3565 3.3736,6.0931-14.971,11.292-.3565-.4726 .5748-.4336c.5024-.379 .8395-.7735 1.0112-1.1836 .1315-.2862 .1476-.6191 .0484-.9986-.0605-.275-.4183-.8468-1.0735-1.7154l-8.5946-11.394c-.591-.7834-.9752-1.2485-1.1526-1.3952-.31-.2338-.6409-.3449-.9929-.3333-.5035,.006-1.0362,.2205-1.5982,.6444l-.5748,.4336-.3565-.4726 14.498-10.936 3.8637,5.1222-.4854,.3661c-1.1912-1.0655-2.218-1.7005-3.0805-1.9051-.8539-.211-1.786-.1359-2.7962,.2253-.5925,.2065-1.5445,.8043-2.8559,1.7935l-1.7883,1.3489"/><path fill="none" d="m664.42,374.87c70.909,57.515 140.41,58.57 208.41,0"/></g></g></svg>