<svg xmlns="http://www.w3.org/2000/svg" viewBox="0 0 640 480" xmlns:xlink="http://www.w3.org/1999/xlink"><defs><path id="E" d="m69.786 170.53l9.335-13.711 9.381 13.74" stroke="#f7c600" stroke-width="1.218" fill="none"/><path id="F" d="m80.922 156.72c0 .942-.763 1.706-1.706 1.706-.942 0-1.706-.764-1.706-1.706 0-.942.763-1.706 1.706-1.706.942 0 1.706.764 1.706 1.706z" fill="#f7c600"/><path id="G" d="m71.54 180.66l14.473.041s.227-1.878-1.512-3.02c7.581-1.042 5.611-7.729 11.96-8.108 1.232.19-3.317 2.843-3.317 2.843s-3.828 2.701-2.085 4.075c1.384 1.09 1.99-.663 2.179-1.99.189-1.327 6.159-2.179 5.306-5.97-1.421-3.127-9.76 2.084-9.76 2.084l-5.949-.033c-.371-.668-2.01-3.345-3.704-3.358-2.01.073-3.424 3.391-3.424 3.391h-8.623-4.833s-.461 3.452 6.361 4.116c1.536 2.01 2.727 2.567 4.062 3.086-.89.742-1.141 1.639-1.137 2.843z" fill="#f7c600" fill-rule="evenodd"/><path id="H" d="m72.58 177.72l12.06-.041"/><path id="I" d="m66.32 170.54c.445-2.151 1.261-2.522 2.151-5.267.148-2.671-2.151-2.374-1.484-4.08 1.187-1.855.594-3.635-1.632-5.04.445 2.448-2.893 4.748-2.893 6.751 0 2 1.706 1.558 1.484 4.6.148 1.78-.445 1.335-.593 3.042h2.967z"/><path id="J" d="m67.06 170.61s.964 5.638 5.415 6.973"/><clipPath id="0"><path d="m0 0h640v480h-640z"/></clipPath><linearGradient gradientTransform="matrix(.64274 0 0 1.4534-94.68 29.21)" id="8" xlink:href="#6" y1="111.28" y2="107.76" x1="103.08" gradientUnits="userSpaceOnUse" x2="92.55"/><linearGradient gradientTransform="matrix(.64274 0 0 1.4534-94.77 33.751)" id="9" xlink:href="#6" y1="111.28" y2="107.76" x1="103.08" gradientUnits="userSpaceOnUse" x2="92.55"/><linearGradient gradientTransform="matrix(.64274 0 0 1.4534-94.67 30.16)" id="A" xlink:href="#6" y1="111.28" y2="107.76" x1="103.08" gradientUnits="userSpaceOnUse" x2="92.55"/><linearGradient gradientTransform="matrix(.64274 0 0 1.4534-94.74 31.932)" id="B" xlink:href="#6" y1="111.28" y2="107.76" x1="103.08" gradientUnits="userSpaceOnUse" x2="92.55"/><linearGradient gradientTransform="matrix(.64274 0 0 1.4534-94.75 32.835)" id="C" xlink:href="#6" y1="111.28" y2="107.76" x1="103.08" gradientUnits="userSpaceOnUse" x2="92.55"/><linearGradient gradientTransform="matrix(.64274 0 0 1.4534-97.99 31.01)" id="D" xlink:href="#6" y1="111.28" y2="107.76" x1="103.08" gradientUnits="userSpaceOnUse" x2="92.55"/><linearGradient gradientTransform="matrix(.64274 0 0 1.4534-98.01 33.736)" id="7" xlink:href="#6" y1="111.28" y2="107.76" x1="103.08" gradientUnits="userSpaceOnUse" x2="92.55"/><linearGradient gradientTransform="matrix(.64274 0 0 1.4534-97.98 32.837)" id="1" xlink:href="#6" y1="111.28" y2="107.76" x1="103.08" gradientUnits="userSpaceOnUse" x2="92.55"/><linearGradient id="6"><stop stop-color="#f00"/><stop offset="1" stop-color="#ff0"/></linearGradient><linearGradient gradientTransform="matrix(.64274 0 0 1.4534-97.94 31.918)" id="2" xlink:href="#6" y1="111.28" y2="107.76" x1="103.08" gradientUnits="userSpaceOnUse" x2="92.55"/><linearGradient gradientTransform="matrix(.64274 0 0 1.4534-97.98 30.11)" id="4" xlink:href="#6" y1="111.28" y2="107.76" x1="103.08" gradientUnits="userSpaceOnUse" x2="92.55"/><linearGradient gradientTransform="matrix(.64274 0 0 1.4534-95.34 30.955)" id="5" xlink:href="#6" y1="111.28" y2="107.76" x1="103.08" gradientUnits="userSpaceOnUse" x2="92.55"/><linearGradient gradientTransform="matrix(.8281 0 0 1.8726 602.82 148.17)" id="3" xlink:href="#6" y1="111.28" y2="107.76" x1="103.08" gradientUnits="userSpaceOnUse" x2="92.55"/></defs><g clip-path="url(#0)"><path fill="#006" stroke-width="1.25" d="m0 0h960v480h-960z"/><g transform="scale(.72917)"><path fill="#006" fill-rule="evenodd" d="m0 0h480v240h-480z"/><g stroke-width="1.25" transform="scale(8)"><g fill="#fff"><path d="m0 0v3.354l53.29 26.646h6.708v-3.354l-53.29-26.646h-6.708m60 0v3.354l-53.29 26.646h-6.708v-3.354l53.29-26.646h6.708"/><path d="m25 0v30h10v-30h-10m-25 10v10h60v-10h-60"/></g><g fill="#c00"><path d="m0 12v6h60v-6h-60m27-12v30h6v-30h-6"/><path d="m0 30l20-10h4.472l-20 10h-4.472m0-30l20 10h-4.472l-15.528-7.764v-2.236m35.528 10l20-10h4.472l-20 10h-4.472m24.472 20l-20-10h4.472l15.528 7.764v2.236"/></g></g></g><g transform="matrix(1.0265 0 0 1.0265-301.49 28.26)"><g fill-rule="evenodd"><path fill="#fff" d="m662.41 122.94l213.68-.793-.396 190.29s7.532 28.939-89.59 72.943c34.886-3.568 72.943-40.832 72.943-40.832s15.461-19.821 22.993-8.721c7.532 11.1 14.668 16.65 20.22 21.01 5.55 4.361 9.911 16.254 1.586 24.975-8.325 8.721-21.407 9.911-24.975-.793-5.55 2.775-39.643 44-109.41 45.986-70.961-1.189-109.81-46.38-109.81-46.38s-9.514 15.06-22.993 3.171c-13.08-15.461-3.171-25.372-3.171-25.372s11.1-6.343 14.271-10.704c5.154-5.947 6.739-13.875 15.461-13.875 10.307.793 14.271 9.118 14.271 9.118s35.679 37.661 74.13 42.42c-86.82-41.625-89.99-67.39-89.59-73.74l.396-188.7z"/><path fill="#006129" stroke="#000" stroke-width="1.569" d="m667.56 128.09l203.76-1.189v183.15c.396 23.786-39.643 47.968-102.28 78.889-64.61-33.3-101.87-53.52-102.27-79.28l.793-181.56z"/></g><g transform="matrix(1.2884 0 0 1.2884 602.15 110.19)"><use xlink:href="#E"/><g stroke="#000"><path fill="#f7c600" fill-rule="evenodd" stroke-width=".56" d="m80.922 156.72c0 .942-.763 1.706-1.706 1.706-.942 0-1.706-.764-1.706-1.706 0-.942.763-1.706 1.706-1.706.942 0 1.706.764 1.706 1.706z" transform="matrix(1.087 0 0 1.087-6.965-4.956)"/><g stroke-width=".609"><use xlink:href="#G"/><g fill="none"><use xlink:href="#H"/><path d="m67.06 170.61s.964 5.638 5.415 6.973"/></g><g fill-rule="evenodd"><use fill="url(#8)" xlink:href="#I"/><use transform="translate(-.074.445)" xlink:href="#F"/></g></g></g></g><g transform="matrix(1.2884 0 0 1.2884 601.47 73.831)"><use xlink:href="#E"/><g stroke="#000"><use fill-rule="evenodd" stroke-width=".56" transform="matrix(1.087 0 0 1.087-6.965-4.956)" xlink:href="#F"/><g stroke-width=".609"><use xlink:href="#G"/><g fill="none"><use xlink:href="#H"/><path d="m67.06 170.61s.964 5.638 5.415 6.973"/></g><g fill-rule="evenodd"><use fill="url(#A)" xlink:href="#I"/><use transform="translate(-.074.445)" xlink:href="#F"/></g></g></g></g><g transform="matrix(1.2884 0 0 1.2884 729.25 40.779)"><use xlink:href="#E"/><g stroke="#000"><use fill-rule="evenodd" stroke-width=".56" transform="matrix(1.087 0 0 1.087-6.965-4.956)" xlink:href="#F"/><g stroke-width=".609"><use xlink:href="#G"/><g fill="none"><use xlink:href="#H"/><use xlink:href="#J"/></g><g fill-rule="evenodd"><use fill="url(#D)" xlink:href="#I"/><use transform="translate(-.074.445)" xlink:href="#F"/></g></g></g></g><g transform="matrix(1.2884 0 0 1.2884 604.45 5.435)"><use xlink:href="#E"/><g stroke="#000"><use fill-rule="evenodd" stroke-width=".56" transform="matrix(1.087 0 0 1.087-6.965-4.956)" xlink:href="#F"/><g stroke-width=".609"><use xlink:href="#G"/><g fill="none"><use xlink:href="#H"/><use xlink:href="#J"/></g><g fill-rule="evenodd"><use fill="url(#B)" xlink:href="#I"/><use transform="translate(-.074.445)" xlink:href="#F"/></g></g></g></g><g transform="matrix(1.2884 0 0 1.2884 604.72-29.3)"><use xlink:href="#E"/><g stroke="#000"><use fill-rule="evenodd" stroke-width=".56" transform="matrix(1.087 0 0 1.087-6.965-4.956)" xlink:href="#F"/><g stroke-width=".609"><use xlink:href="#G"/><g fill="none"><use xlink:href="#H"/><use xlink:href="#J"/></g><g fill-rule="evenodd"><use fill="url(#C)" xlink:href="#I"/><use transform="translate(-.074.445)" xlink:href="#F"/></g></g></g></g><g transform="matrix(1.2884 0 0 1.2884 605.38-64.55)"><use xlink:href="#E"/><g stroke="#000"><use fill-rule="evenodd" stroke-width=".56" transform="matrix(1.087 0 0 1.087-6.965-4.956)" xlink:href="#F"/><g stroke-width=".609"><use xlink:href="#G"/><g fill="none"><use xlink:href="#H"/><use xlink:href="#J"/></g><g fill-rule="evenodd"><use fill="url(#9)" xlink:href="#I"/><use transform="translate(-.074.445)" xlink:href="#F"/></g></g></g></g><g transform="matrix(1.2884 0 0 1.2884 730.2-63.975)"><use xlink:href="#E"/><g stroke="#000"><use fill-rule="evenodd" stroke-width=".56" transform="matrix(1.087 0 0 1.087-6.965-4.956)" xlink:href="#F"/><g stroke-width=".609"><use xlink:href="#G"/><g fill="none"><use xlink:href="#H"/><use xlink:href="#J"/></g><g fill-rule="evenodd"><use fill="url(#7)" xlink:href="#I"/><use transform="translate(-.074.445)" xlink:href="#F"/></g></g></g></g><g transform="matrix(1.2884 0 0 1.2884 729.06-29.376)"><use xlink:href="#E"/><g stroke="#000"><use fill-rule="evenodd" stroke-width=".56" transform="matrix(1.087 0 0 1.087-6.965-4.956)" xlink:href="#F"/><g stroke-width=".609"><use xlink:href="#G"/><g fill="none"><use xlink:href="#H"/><use xlink:href="#J"/></g><g fill-rule="evenodd"><use fill="url(#1)" xlink:href="#I"/><use transform="translate(-.074.445)" xlink:href="#F"/></g></g></g></g><g transform="matrix(1.2884 0 0 1.2884 727.53 5.988)"><use xlink:href="#E"/><g stroke="#000"><use fill-rule="evenodd" stroke-width=".56" transform="matrix(1.087 0 0 1.087-6.965-4.956)" xlink:href="#F"/><g stroke-width=".609"><use xlink:href="#G"/><g fill="none"><use xlink:href="#H"/><use xlink:href="#J"/></g><g fill-rule="evenodd"><use fill="url(#2)" xlink:href="#I"/><use transform="translate(-.074.445)" xlink:href="#F"/></g></g></g></g><path fill="none" stroke="#f7c600" stroke-width="1.255" d="m818.97 330.26l12.03-17.665 12.09 17.702"/><g stroke="#000" stroke-width=".784"><g fill="#f7c600" fill-rule="evenodd"><path d="m833.41 323.66c0 1.32-1.069 2.389-2.389 2.389s-2.389-1.07-2.389-2.389c0-1.32 1.069-2.389 2.389-2.389 1.319 0 2.389 1.07 2.389 2.389z"/><path d="m821.23 343.31l18.647.053s.292-2.42-1.948-3.891c9.767-1.343 7.23-9.958 15.409-10.446 1.587.244-4.273 3.663-4.273 3.663s-4.932 3.48-2.686 5.25c1.783 1.405 2.564-.854 2.808-2.564.244-1.709 7.935-2.808 6.837-7.691-1.831-4.03-12.575 2.686-12.575 2.686l-7.665-.043c-.478-.86-2.59-4.31-4.772-4.326-2.588.094-4.411 4.368-4.411 4.368h-11.11-6.226s-.594 4.448 8.196 5.303c1.979 2.585 3.513 3.307 5.234 3.976-1.147.956-1.47 2.112-1.465 3.663z"/></g><g fill="none"><path d="m822.57 339.52l15.531-.053"/><path d="m815.46 330.37s1.242 7.264 6.977 8.985"/></g><g fill-rule="evenodd"><path fill="url(#3)" d="m814.5 330.27c.573-2.772 1.625-3.25 2.772-6.786.191-3.441-2.772-3.058-1.912-5.257 1.529-2.389.765-4.683-2.103-6.499.573 3.154-3.728 6.117-3.728 8.698 0 2.581 2.198 2.01 1.912 5.926.191 2.294-.573 1.72-.765 3.919h3.823z"/><path fill="#f7c600" d="m833.22 313.05c0 1.214-.984 2.198-2.197 2.198-1.214 0-2.198-.984-2.197-2.198 0-1.214.984-2.198 2.197-2.198s2.198.984 2.197 2.198z"/></g></g><g transform="matrix(1.2884 0 0 1.2884 728.87 75.57)"><use xlink:href="#E"/><g stroke="#000"><use fill-rule="evenodd" stroke-width=".56" transform="matrix(1.087 0 0 1.087-6.965-4.956)" xlink:href="#F"/><g stroke-width=".609"><use xlink:href="#G"/><g fill="none"><use xlink:href="#H"/><use xlink:href="#J"/></g><g fill-rule="evenodd"><use fill="url(#4)" xlink:href="#I"/><use transform="translate(-.074.445)" xlink:href="#F"/></g></g></g></g><g transform="matrix(1.2884 0 0 1.2884 627.25 43.06)"><use xlink:href="#E"/><g stroke="#000"><use fill-rule="evenodd" stroke-width=".56" transform="matrix(1.087 0 0 1.087-6.965-4.956)" xlink:href="#F"/><g stroke-width=".609"><use xlink:href="#G"/><g fill="none"><use xlink:href="#H"/><use xlink:href="#J"/></g><g fill-rule="evenodd"><use fill="url(#5)" xlink:href="#I"/><use transform="translate(-.074.445)" xlink:href="#F"/></g></g></g></g><g stroke="#000"><g transform="matrix(1.2884 0 0 1.2884 602.15 109.79)"><g stroke-width=".609"><g fill-rule="evenodd"><path fill="#f7c600" d="m139.22 183.9s3.777 8.708 8.08 3.357 2.728-7.659 2.728-7.659l-9.652-5.246-2.833 5.98 1.679 3.567z"/><g fill="#ffc6b5"><path d="m147.51 182.75s.629.105 1.154-.839-1.154-1.364-1.888-2.413l-.839 1.679 1.574 1.574z"/><path d="m125.68 180.44l-8.498 4.616s-4.197.839-4.511 0c-.315-.839.105-1.574 2.308-1.679 2.203-.105 8.183-5.56 8.183-5.56l2.518 2.623z"/><path d="m125.79 29.47s.21 1.993.315 3.042-1.679 3.252-1.784 3.147-.944.105-.839.734 1.364.839 1.364.839-.525 2.203 0 2.308c.525.105-1.364 2.833 0 3.567 1.364.734 3.672 1.678 4.721 1.469 1.049-.21 0 4.092 0 4.092l-2.938 6.295 16.16-1.678-3.357-5.351s-1.574-1.049-1.154-4.092c.42-3.042-.21-16.786-.21-16.786l-11.54-1.574-.734 3.987z"/><path d="m122.85 53.39s-5.246 2.413-5.04 8.918c-1.364 6.295-2.098 12.589-2.098 12.589s-6.19 7.03-8.08 9.547c-1.888 2.518-4.721 7.659-5.77 9.02s-5.141 5.875-5.04 7.554c.105 1.678-.944 9.127 3.147 9.967 1.049.42 4.406-8.603 4.406-8.603s.21-3.882-.944-4.616 2.518-3.252 2.518-3.252 7.03-5.141 8.603-6.4 5.875-6.085 5.875-6.085l2.413-28.641z"/></g><path fill="#fff" d="m128.83 48.46s1.364 3.672 4.406 3.042c3.042-.63 6.609-3.462 6.609-3.462s2.833-.105 3.252.315c.42.42 7.659 7.449 7.449 9.652-.21 2.203-3.357 1.574-4.511 3.042s-3.042 5.141-2.518 7.868 2.098 6.295 1.888 7.659-1.364 1.783-1.364 2.518c0 .734.944 1.993.944 3.357s-1.259 3.357-1.049 4.721c.21 1.364.315 5.35.315 5.35l-.315 18.465s1.049.629 1.154 1.679c.105 1.049 7.134 31.578 7.134 31.578s-.315.944-1.049.839 2.833 4.721 2.938 6.085 3.672 12.06 3.567 13.534c-.105 1.469-.629 4.721-.944 4.826-.315.105 2.308 6.714 1.888 7.763-.42 1.049-4.721.944-4.721.944l-1.154-.21s.105 1.364-.734 1.469-7.03-.315-7.03-.315-1.784 2.728-2.833 2.623c-1.049-.105-2.413-1.993-2.728-1.679-.315.315.944 2.098.63 2.623-.315.525-5.665 1.679-6.714-.839-1.049-2.518.63-1.888.315-2.413-.315-.525-2.728-1.888-3.462-1.469s1.888 1.049 1.784 2.098c-.105 1.049-2.308 2.623-3.147 2.623s-2.833-3.882-5.77-3.462c-2.938.42-4.826 1.154-4.826 1.154s-3.462 1.469-4.931 1.154c-1.469-.315-2.098-1.469-2.098-2.098 0-.63 1.049-3.357.944-4.196s-.944-1.679-.944-2.938c0-1.259 2.413-5.56 2.413-5.56l-.105-19.304s-2.203 0-2.308-1.364 3.357-30.529 3.882-32.418c.525-1.888 1.888-8.603 1.888-8.603s-1.574.734-1.679 0 4.721-17.415 4.721-17.415.839-8.288.839-10.491c0-2.203-.42-5.246-.42-5.246s-4.307-1.823-4.406-4.616c-.394-4.443 4.092-6.924 4.616-8.393.525-1.469 2.098-5.875 2.098-5.875s2.308-3.987 6.085-4.616z"/><path fill="#f7c600" d="m127.26 181.7s-10.176 5.351-11.645 5.77c-1.469.42-2.413-1.784-.944-2.203 1.469-.42 3.777-.63 3.777-.63s-3.462-2.728-3.357-2.833c.105-.105 4.721-1.783 4.826-1.783s1.469 2.728 2.413 2.518 3.672-2.308 3.672-2.308 1.469 1.679 1.259 1.469z"/><g fill="#ffc6b5"><path d="m141.6 184.63c.962 1.241 1.338 3.393 3.542 2.134 2.203-1.259-1.129-3.596-1.129-3.596l-2.413 1.461z"/><path d="m145.62 184.42s1.049.839 1.993-.105-1.888-2.938-1.888-2.938l-1.364 1.574 1.259 1.469z"/></g></g><g fill="none"><path d="m142.47 52.55s-9.337 5.98-9.127 8.08"/><path d="m144.57 53.599s-2.098 2.308-2.203 2.308"/><path d="m147.4 56.12s-4.616 3.777-3.882 6.19"/><path d="m125.58 52.03s-1.364 2.833-1.049 3.777c.315.944 2.623 4.511 2.938 6.714.315 2.203 0 3.777 0 3.777"/><path d="m123.17 57.27s.42 3.357 1.049 3.987c.629.629 2.308 3.462 2.518 4.616"/><path d="m122.33 71.22s2.728 1.364 5.246-3.882"/><path d="m131.66 63.67c-.105 0-1.993 5.141 1.364 7.03s5.875 1.678 7.344 1.154c1.469-.525 3.042-1.469 3.042-1.469"/><path d="m130.2 69.966s.21 6.924 10.386 13.744"/><path d="m130.62 76.47s-.105 6.085 3.882 8.813"/><path d="m128.52 69.34s-3.043 9.02-5.455 9.967"/><path d="m127.57 75.946s-.105 6.505-.944 8.813"/><path d="m125.79 86.33s2.098 2.623 4.406 2.413c2.308-.21 3.252-2.938 4.826-2.518 1.574.42 3.042 1.679 6.714 1.364"/><path d="m136.49 90.32s0 5.35.944 5.875.525 5.455.525 5.455"/><path d="m123.69 87.8s-.105 5.04-.734 6.819c-.629 1.783-1.888 4.826-1.678 7.449"/><path d="m117.29 105.01c.525-.21 2.308-1.783 2.308-1.783"/><path d="m120.54 104.38s-4.511 19.304-3.252 30.844"/><path d="m121.59 105.32s-2.308 14.478-1.259 17.206"/><path d="m120.44 104.9c.105 0 8.813.629 8.813.629"/><path d="m130.51 104.38s2.413 1.259 5.77 1.049"/><path d="m129.46 111.41s-.42 24.759-1.049 30.22"/><path d="m142.37 117.07s2.728 21.717 4.301 23.71"/><path d="m137.12 119.8s1.679 19.2 2.623 20.878"/><path d="m113.31 147.39s3.252-1.049 6.19-4.197c3.357 4.511 8.498.21 8.498.21s7.973 5.455 11.54-.63c5.455 3.567 8.183-.525 8.183-.525s1.993 3.042 3.462 2.728"/><path d="m142.47 147.08s4.092 19.2 10.176 24.654"/><path d="m121.38 145.08s.525 16.05 1.469 27.382"/><path d="m120.65 163.23s-.525 10.491-1.154 11.226"/><path d="m114.46 175.51s1.154 4.511 6.924.315c5.77-4.197 5.875 1.574 6.085 2.203.21.629 1.154 5.141 3.357 1.364"/><path d="m135.44 173.2s-.944 9.337 7.344 2.518c8.288-6.819 9.652-.105 9.862 1.993"/></g><path fill="#9c5100" fill-rule="evenodd" d="m125.47 28.84s2.308.315 3.567-.42c1.259-.734 2.728-1.049 3.777.42s1.784 1.364 1.784 1.364-1.574 3.882 0 4.301c1.574.42 2.308.42 2.413.944.105.525-1.364 1.679-.944 2.203.42.525 1.154 1.154 1.259 1.574.105.42-.944 2.203-.63 2.623.315.42 1.259 2.098 1.888 2.098.63 0 .21 2.623 2.098 1.993s1.784-2.308 1.784-2.308 1.993-.315 2.518-2.098c.524-1.784 1.784-2.203 1.784-2.203s2.518-1.364-.839-3.462c0-14.688-9.652-13.11-9.652-13.11s-1.154-2.623-3.042-2.308c-1.888.315-1.993 2.518-3.357 2.308-1.364-.21-1.679-1.154-1.784-1.049-.105.105-1.259 2.203-1.259 2.728 0 .525-3.672-.734-3.357 1.993s2.098 2.623 1.993 2.413z"/><g fill="none"><path d="m135.55 25.27s-.734 4.616 4.197 4.197c-.63 2.518 1.259 3.357 1.259 3.357"/><path d="m144.67 35.659c.105 0 2.203 1.364-.105 3.042"/><path d="m137.54 39.33s1.049 1.259 2.203.944c1.154-.315 3.042 1.154 3.042 1.154s1.574.525 1.784.21"/><path d="m131.14 43.32s3.567 1.364 5.875-4.301"/><path d="m124.53 37.34l2.098.105"/><path stroke-linejoin="round" d="m124.85 39.436h1.888l-1.679.734"/></g></g><path fill="none" stroke-linejoin="round" stroke-width="1.096" d="m127.47 33.561c.315 0 1.469-.42 1.679-.105.21.315-1.259.525-1.679.105z"/><g stroke-width=".609"><path fill="#ffc6b5" fill-rule="evenodd" d="m150.13 58.49c.105 0 3.462 10.386 3.882 13.01.42 2.623 1.784 13.11 1.259 14.583-.525 1.469-5.875 8.498-6.505 10.281-.63 1.784-4.406 8.603-4.406 8.603s-.944 6.714-1.364 7.03c-.42.315 1.083 1.963.944 2.518-.208.624-3.042 3.567-4.301 3.252-1.259-.315-3.252-1.784-3.357-3.147s.105-5.875 1.049-7.03 5.875-12.799 6.19-13.534c.315-.734 4.511-9.862 4.616-11.435.105-1.574-1.305-5.213-2.789-6.548-3.302-9.718-2-15.579 4.782-17.582z"/><g fill="none"><path d="m101.25 103.5l.164 4.598"/><path d="m96.94 103.16s2.948 4.93 2.701 7.557"/><path stroke-linejoin="round" d="m136.45 113.46s2.204-.232 2.135 3.448c1.407-4.571 4.269-4.68 4.269-4.68"/></g></g></g><g stroke-width="1.569"><path fill="#f7c600" fill-rule="evenodd" d="m768.25 391.32c57.09-1.586 93.95-42.814 93.56-43.21-.396-.396 7.532-11.496 13.875-9.911 6.343 1.586 15.461 20.22 26.561 24.18 5.55 8.721-1.586 16.65-3.964 18.236-2.379 1.586-13.08 5.947-14.668-.396-1.586-6.343-4.757-5.154-4.757-5.154s-50.743 49.554-109.41 47.572c-60.65.4-110.6-47.57-110.6-47.57l-4.361 4.757s-4.757 5.154-7.136 4.757c-2.379-.397-12.686-7.136-13.479-13.875-.793-6.739 6.343-11.1 6.343-11.1s17.443-13.479 19.425-20.614c3.964-3.964 11.496 2.775 11.496 2.775s45.986 52.725 97.13 49.554z"/><g fill="none"><path d="m639.02 360.66s4.717-1.258 6.447.708c1.73 1.965 13.601 13.601 13.601 13.601"/><path d="m649.79 366.16l-4.717 3.538s11.871 2.358 9.198 10.142"/><path d="m897.99 360.26s-2.359-1.258-6.05 1.494c-3.695 2.752-13.05 13.208-13.05 13.208"/><path d="m887.38 365.85l5.11 3.931s-10.692.708-8.334 10.849"/></g></g></g><path d="m699.45 373.24l-.344.482c-.717-.354-1.535-.42-2.453-.197-.674.174-1.945.807-3.812 1.9l-15.708 9.157-.43-.307 3.957-18.363c.478-2.214.697-3.558.655-4.03-.033-.469-.364-.987-.994-1.554l.344-.482 8.467 6.04-.344.482-.287-.204c-.764-.545-1.353-.821-1.768-.828-.293-.012-.529.108-.708.36-.111.156-.21.368-.295.635-.079.258-.25.994-.514 2.208l-2.506 11.478 9.07-5.339c1.092-.649 1.8-1.101 2.125-1.354.325-.253.567-.493.729-.719.186-.26.28-.54.284-.839.003-.299-.092-.596-.287-.893-.268-.414-.711-.841-1.327-1.281l.344-.482 5.797 4.134m5.641 27.3l-.284.519-9.953-5.443.284-.519.632.346c.552.302 1.05.447 1.495.435.315.002.625-.12.93-.367.226-.168.6-.73 1.122-1.684l6.848-12.522c.532-.973.813-1.61.844-1.909.03-.3-.065-.625-.286-.977-.207-.356-.576-.68-1.11-.972l-.632-.346.284-.519 9.953 5.443-.284.519-.632-.346c-.552-.302-1.05-.447-1.495-.435-.315-.002-.63.118-.944.359-.226.168-.6.73-1.122 1.684l-6.848 12.522c-.532.973-.813 1.61-.844 1.909-.021.305.072.635.279.991.221.352.598.674 1.132.965l.632.346m36.36-8.528l-2.566 7.205-.558-.199c.028-2.209-.448-4.066-1.43-5.571-.981-1.505-2.271-2.541-3.869-3.11-1.527-.544-2.952-.565-4.275-.062-1.319.493-2.463 1.433-3.433 2.82-.97 1.387-1.743 2.889-2.319 4.507-.698 1.959-1.079 3.76-1.143 5.402s.293 2.992 1.071 4.05c.788 1.062 1.89 1.845 3.307 2.35.492.175 1.013.304 1.561.386.562.076 1.15.11 1.764.102l1.514-4.25c.286-.804.415-1.341.387-1.611-.025-.281-.179-.579-.462-.895-.274-.313-.657-.557-1.149-.732l-.528-.188.199-.558 9.933 3.538-.199.558c-.771-.218-1.337-.301-1.695-.247-.345.047-.663.223-.952.527-.159.159-.37.61-.635 1.353l-1.514 4.25c-1.514.118-3.03.07-4.552-.144-1.514-.2-3.03-.57-4.547-1.11-1.939-.691-3.459-1.526-4.559-2.507-1.086-.987-1.97-2.083-2.65-3.288-.667-1.211-1.085-2.453-1.255-3.725-.21-1.637-.008-3.315.604-5.03 1.095-3.075 3.101-5.288 6.02-6.638 2.916-1.351 6.01-1.443 9.287-.276 1.015.361 1.901.768 2.657 1.218.413.238 1.045.723 1.893 1.456.862.726 1.384 1.121 1.565 1.186.281.1.578.093.891-.022.316-.125.677-.438 1.082-.939l.558.199m15.318 24.587l-.089.585-11.216-1.699.089-.585.712.108c.622.094 1.14.059 1.553-.105.297-.106.546-.327.748-.663.154-.236.313-.891.476-1.967l2.138-14.11c.166-1.097.212-1.791.138-2.083-.074-.292-.276-.565-.604-.82-.316-.264-.775-.441-1.376-.532l-.712-.108.089-.585 11.216 1.699-.089.585-.712-.108c-.622-.094-1.14-.059-1.553.105-.297.106-.551.327-.764.661-.154.236-.313.891-.476 1.967l-2.138 14.11c-.166 1.097-.212 1.791-.138 2.083.085.293.286.572.602.836.328.255.793.428 1.394.519l.712.108m29.11-7.07l-.427 7.648-19.239.982-.03-.591.719-.037c.629-.032 1.129-.17 1.501-.413.269-.163.469-.43.6-.8.104-.262.129-.936.073-2.022l-.727-14.253c-.057-1.108-.15-1.797-.282-2.068-.131-.271-.383-.498-.756-.682-.362-.195-.847-.277-1.454-.246l-.719.037-.03-.591 11.553-.589.03.591-.943.048c-.629.032-1.129.17-1.501.413-.269.163-.475.43-.616.8-.104.262-.129.936-.073 2.022l.704 13.806c.057 1.108.157 1.813.3 2.115.143.292.405.503.785.633.271.082.918.097 1.941.045l1.806-.092c1.15-.059 2.099-.31 2.845-.754.746-.444 1.374-1.117 1.884-2.02.52-.902.987-2.219 1.401-3.949l.655-.033m21.04-3.651l-7.343 2.194-.269 2.285c-.085.76-.061 1.36.07 1.799.174.583.537.942 1.09 1.077.325.081 1.041.0001 2.149-.241l.169.567-6.914 2.065-.169-.567c.712-.335 1.234-.825 1.565-1.469.328-.654.607-1.879.84-3.674l2.48-18.809.291-.087 12.589 14.808c1.198 1.401 2.089 2.243 2.674 2.524.442.213.988.25 1.637.112l.169.567-10.06 3-.169-.567.414-.124c.807-.241 1.341-.523 1.601-.846.176-.231.218-.499.127-.806-.055-.184-.142-.364-.261-.54-.048-.086-.316-.423-.803-1.012l-1.878-2.261m-.86-.979l-5.236-6.234-1.05 8.112 6.285-1.878m27.726-28.25l2.781 5.172-.507.273c-.942-1.031-1.735-1.707-2.38-2.027-.649-.329-1.377-.477-2.182-.443-.448.023-1.118.274-2.01.754l-1.423.765 7.925 14.741c.525.977.905 1.56 1.14 1.749.244.184.572.286.983.307.415.007.895-.136 1.44-.429l.634-.341.28.521-10.01 5.379-.28-.521.634-.341c.554-.298.947-.637 1.18-1.016.173-.263.245-.592.214-.987-.018-.281-.284-.901-.8-1.859l-7.925-14.741-1.381.743c-1.287.692-2.075 1.467-2.365 2.325-.408 1.2-.341 2.563.2 4.089l-.535.288-2.781-5.172 17.16-9.228m13.01-7.716l5.319 7.05.345-.26c1.098-.829 1.635-1.774 1.608-2.836s-.479-2.318-1.358-3.766l.485-.366 6.841 9.07-.485.366c-.847-.911-1.675-1.556-2.482-1.936-.799-.386-1.496-.522-2.091-.407-.601.106-1.315.471-2.141 1.094l3.681 4.88c.719.954 1.198 1.508 1.435 1.663.246.149.531.208.855.177.324-.031.733-.232 1.227-.605l1.035-.78c1.618-1.22 2.63-2.572 3.035-4.053.414-1.488.256-3.159-.475-5.01l.473-.356 3.374 6.093-14.971 11.292-.356-.473.575-.434c.502-.379.84-.774 1.011-1.184.131-.286.148-.619.048-.999-.061-.275-.418-.847-1.073-1.715l-8.595-11.394c-.591-.783-.975-1.248-1.153-1.395-.31-.234-.641-.345-.993-.333-.504.006-1.036.221-1.598.644l-.575.434-.356-.473 14.498-10.936 3.864 5.122-.485.366c-1.191-1.065-2.218-1.7-3.081-1.905-.854-.211-1.786-.136-2.796.225-.592.207-1.544.804-2.856 1.793l-1.788 1.349"/></g></g></svg>