<svg xmlns="http://www.w3.org/2000/svg" viewBox="0 0 640 480" xmlns:xlink="http://www.w3.org/1999/xlink"><defs><clipPath id="0"><path d="m0 0h682.67v512h-682.67z"/></clipPath></defs><g clip-path="url(#0)" transform="scale(.9375)"><g fill-rule="evenodd" transform="scale(1.0321)"><path d="m0 0l336.61 212.6h407.48v70.867h-407.48l-336.61 212.59v-496.06z"/><path fill="#ff0" d="m0 478.35l343.7-219.68h400.39v-21.259h-400.39l-343.7-219.69v31.886l322.44 198.42-322.44 198.43v31.889z"/><path fill="#40aa40" d="m0 496.06l343.7-219.68h400.39v219.68h-744.09"/><path fill="#ce0000" stroke-width="1.25" d="m0 0l343.7 219.68h400.39v-219.68h-744.09"/><g fill="#ff0"><path d="m392.5-118.94c13.385-4.211 18.52-3.257 20-22.5-2.636-7.909-2.5-20.974-2.5-32.5.183-15.174.576-21.434 15-17.501 8.846 1.923 22.88-17.5 35-17.5 18.565-.223 9.805 2.988 15-10-2.244-17.958-8.364-12.5-25-12.5-11.666 0-25.833 20-37.5 20-7.722-15.09-3.189-19.501 5-27.5 10.929 0 27.928-18.964 35-22.5 11.1-3.589 20.523-7.342 15-20-1.243-10.364.853-3.859-7.5-7.5-11.666 0-25.833 20-37.5 20-15.611-.578-15.65-3.812-17.5-17.5 5.658-7.92 13.253-9.491 27.5-10 15.08 0 23.424-19.691 32.5-25 2.721-11.734 10.763-19.38-2.5-25-8.813-4.935-12.05-4.315-25 0-16.688 0-23.24 19.408-35 12.5 1.379-15.166 6.596-14.81 22.5-15 8.82-1.917 23.14-23.49 30-27.5 8.728-7.84 10.685 3.869 2.5-20-9.356-7.312-17.481 16.63-30 20-9.502 6.449-19.905 7.966-27.5 0-8.759-11.47-1.954-16.13 10-20 10.357-3.618 24.543-23.521 32.5-27.5 14.718-1.32 16.94-4.867 17.5-20-3.243-15.835-6.42-6.925-22.5-7.5-11.666 0-25.833 20-37.5 20-2.14-5.351-3.894-12.307 0-17.5 9.123-3.041 15.922-6.997 30-7.5 12.737-1.919 17.747-25.492 22.5-35-7.187-6.229-15.829 12.5-30 12.5-8.979 0-19.693.684-25-2.5-3.999-15.395-6.296-13.323 12.5-17.5 7.04-6.01 21.24-13.307 2.5-20-3-1.093-10.727 3.888-20 5-12.232 0-24.16-.209-35 2.5-7.242 2.69-18.16 6.097-22.5 10 5.214 7.667 11.31 11.07 17.5 20 8.53 3.121 16.791-1.027 20 0-4.141 10.354-11.153 9.826-20 15-15.363 0-22.929-20.938-32.5-10 7.03 3.639 21.295 23.824 30 25 8.203 0 17.952-.911 22.5 2.5-.776 15.713-4.761 16.936-20 17.5-13.11 0-22.666-17.487-30-12.5-5.384 10.768-5.754 10.594 2.5 17.5 8.673 10.146 14.556 27.5 30 27.5 18.754.224 19.771-1.492 20 17.5-1.981 10.346-6.942 11.233-17.5 12.5-12.436 0-23.825-18-35-20-17.527.877-9.871-2.821-15 10 3.894 10.974 8.211 12.142 20 17.5 8.356 2.786 21.644 20.286 30 17.5 16.184-1.05 15.777-2.331 10 15-10.527 5.966-13.397 10.634-27.5 7.5-14.538-.519-22.18-21.564-35-15-11.231 6.912-13.609 8.487-2.5 20 10.507 9.757 18.542 29.535 35 30 13.597-1.869 19.868-5.498 27.5-2.5-1.586 3.967-2.471 14.13-5 17.5-7.162 4.325-17.971 4.418-27.5 7.5-12.844 1.736-13.641-7.5-25-7.5-7.52 7.171-15.439-2.661-12.5 10 8.384 7.277 13.155 20 27.5 20 11.667 0 25.834 5 37.5 5 16.197 3.6 13.635 7.04 17.5 22.5-7.792 4.314-20.341 5-32.5 5-11.666 0-23.333-17.5-35-17.5-11.363-1.623-12.867-7.279-15 10 5.323 8.684 7.774 8.231 15 12.5 6.818 8.148 15.881 25 30 25 11.346-3.742 25.427-5.419 35-7.501 12.95 2.816 5.274 4.958 5 20 2.911 13.388 4.316 15.29 0 25-1.503 11.274-1.849 16.06 12.5 22.5" transform="matrix(.07127.04893-.05575.09355 58.22 250.25)" id="1"/><use transform="matrix(.39807-1.06199.91804.39972-156.95 254.84)" xlink:href="#1"/><path d="m283.46-177.16c0-17.717-2.5-35.433 0-35.433 141.73 0 177.16-106.3 177.16-177.17 0-70.866-49.23-141.73-141.73-141.73-106.3 0-141.73 69.23-141.73 141.73 0 70.866 53.15 124.02 106.3 124.02 70.866 0 88.58-17.717 141.73-88.58-17.717 88.58-106.3 124.02-141.73 124.02-70.867 0-141.73-53.15-141.73-159.45 0-88.58 53.15-177.16 177.17-177.16 106.3 0 177.16 88.58 177.16 177.16 0 124.02-88.58 212.6-212.6 212.6z" transform="matrix(.32 0 0 .29091 4.252 356.26)"/></g></g></g></svg>