<svg xmlns="http://www.w3.org/2000/svg" viewBox="0 0 640 480"><g fill-rule="evenodd" stroke-width="1.25"><g><path fill="#f00" d="m0,0h640v480h-640z"/></g><g transform="scale(1.3126)"><path fill="#00006b" d="m0,0h239.53v119.77h-239.53z"/></g><g fill="#fff" transform="matrix(.56228 0 0 .56228 150.56835 7.38705)"><path d="m246.75,218.42-35.44-22.86-33.97,23.24 10.79-40.77-32.61-25.13 42.12-2.33 13.82-38.78 15.23,39.33 41.15,1.16-32.7,26.65z" transform="matrix(.62565 0 0 .65463 -132.68 100.69)"/><path d="m248.18,42.711-14.86-9.088-14.59,9.019 4.05-16.946-13.08-11.083 17.37-1.385 6.49-15.8676 6.69,16.0896 17.1,1.276-13.24,11.329z" transform="matrix(1.1939 0 0 1.2544 -278.4 12.56)"/><path d="m248.18,42.614-14.52-9.565-14.84,9.563 4.62-16.764-13.68-11.156 17.36-.795 6.39-16.4578 6.12,16.2718 17.62,.985-13.58,10.852z" transform="matrix(1.1891 0 0 1.2384 -355.61 77.249)"/><path d="m248.24,42.53-14.86-9.204-14.46,9.317 4.16-16.978-13.32-10.869 17.43-1.289 6.22-16.0352 6.61,16.1822 17.17,.958-13.34,11.29z" transform="matrix(1.1148 0 0 1.161 -180.05 66.37)"/><path d="m248.4,42.789-14.86-8.887-14.81,8.976 3.86-16.881-13.12-11.315 17.25-1.546 6.71-15.9697 6.8,15.9257 17.26,1.446-13.05,11.388z" transform="matrix(.74318 0 0 .77399 -134.25 129.31)"/></g></g></svg>