<svg xmlns="http://www.w3.org/2000/svg" viewBox="0 0 640 480"><defs><clipPath id="clipPath3532" clipPathUnits="userSpaceOnUse"><path fill-opacity=".67" d="m-71.873-.0123h682.68v512.0103h-682.68z"/></clipPath></defs><g clip-path="url(#clipPath3532)" transform="matrix(.93748 0 0 .93748 67.379 .01149)"><g fill-rule="evenodd" stroke-width="1.25" transform="matrix(2.0478 0 0 2.0484 -148.57 -1592.2)"><path d="m37.451,976.39v-148.12l110.28,74.022-110.28,74.103z"/><path fill="#00c" d="m112.7,1027.3 123.81-83.306h175.98v83.306h-299.79z"/><path fill="#f00" d="m104.74,777.32 307.74,.006v83.32h-175.98s-130.11-84.15-131.76-83.326z"/><path fill="#fc0" d="m37.451,808.57v19.688l110.28,74.022-110.28,74.103v19.687l138.9-93.79-138.9-93.71z"/><path fill="#093" d="m37.451,808.57v-31.25h46.338l147.14,99.531h181.55v50.899h-181.55l-147.14,99.517h-46.338v-31.197l138.9-93.79-138.9-93.71z"/><g fill="#fff"><path d="m83.789,777.32h28.906l123.81,83.32h175.98v16.211h-181.55l-147.14-99.531z"/><path d="m83.789,1027.3h28.906l123.81-83.306h175.98v-16.211h-181.55l-147.14,99.517z"/></g></g></g></svg>