<svg xmlns="http://www.w3.org/2000/svg" viewBox="0 0 640 480"><defs><clipPath id="0"><path d="m-71.873-.012h682.68v512.01h-682.68z"/></clipPath></defs><g clip-path="url(#0)" transform="matrix(.93748 0 0 .93748 67.38.011)"><g fill-rule="evenodd" stroke-width="1.25" transform="matrix(2.0478 0 0 2.0484-148.57-1592.2)"><path d="m37.451 976.39v-148.12l110.28 74.02-110.28 74.1z"/><path fill="#00c" d="m112.7 1027.3l123.81-83.31h175.98v83.31h-299.79"/><path fill="#f00" d="m104.74 777.32l307.74.006v83.32h-175.98s-130.11-84.15-131.76-83.33"/><path fill="#fc0" d="m37.451 808.57v19.688l110.28 74.02-110.28 74.1v19.687l138.9-93.79-138.9-93.71"/><path fill="#093" d="m37.451 808.57v-31.25h46.34l147.14 99.53h181.55v50.899h-181.55l-147.14 99.52h-46.34v-31.2l138.9-93.79-138.9-93.71"/><g fill="#fff"><path d="m83.79 777.32h28.906l123.81 83.32h175.98v16.211h-181.55l-147.14-99.53z"/><path d="m83.79 1027.3h28.906l123.81-83.31h175.98v-16.211h-181.55l-147.14 99.52z"/></g></g></g></svg>