<svg xmlns="http://www.w3.org/2000/svg" viewBox="0 0 640 480"><defs><clipPath id="0"><path d="m-170.67 0h682.67v512h-682.67z"/></clipPath></defs><g fill-rule="evenodd" clip-path="url(#0)" transform="matrix(.9375 0 0 .9375 160 0)"><g stroke-width="1.25"><path fill="#198a00" d="m-256 0h768v512h-768z"/><path fill="#ef7d00" d="m421.87 183.94h90.13v328.03h-90.13z"/><path d="m331.85 183.78h90.03v328.1h-90.03z"/><path fill="#de2010" d="m239.95 183.98h91.94v328.02h-91.94z"/></g><g fill="#ef7d00" stroke="#000" stroke-width="1.333" transform="matrix(.74502 0 0 .74502 233.62 18.293)"><g stroke-linejoin="round"><path d="m292.6 63.48s45.525-19.453 49.936-23.464c2.01 2.407-18.25 26.873-57.56 35.898 35.697-8.423 66.18-34.895 72.4-34.09 1.805.401 1.403 25.871-80.42 47.931 56.55-14.841 89.44-42.12 89.04-39.11.401.602-5.615 21.458-55.15 37.703 13.838-3.209 51.34-26.07 50.939-21.659 1.203 1.805-36.3 49.936-104.08 34.29 54.15 14.04 89.24-19.855 94.26-19.253 1 .201-10.03 29.681-78.21 31.486 32.69-3.409 23.263-.201 23.263-.201s-19.253 15.04-42.516 4.814c18.25 5.01 20.255 5.214 20.656 6.818-1.203 2-16.244 5.01-30.683-2.808 11.631 4.813 22.06 5.616 22.26 7.421-.2.601-7.62 4.813-14.238 1.805-6.618-3.01-67.58-40.511-67.58-40.511l103.88-28.478 3.81 1.404z"/><path d="m170.47 164.93c-9.135 0-9.387 8.129-9.387 8.129s-.754.587-.251 4.527c1.508-2.683 2.263-3.521 2.263-3.521 1.01.168 5.196 1.425 11.817-3.771-6.03 6.285-2.43 8.632-2.43 8.632s-1.425 4.945 3.184 5.951c-1.424-2.01-.586-3.772-.586-3.772s6.453-.67 6.03-8.548c.252 7.123 4.107 8.883 4.107 8.883s0 3.939 4.19 4.275c-2.262-2.01-1.76-5.113-1.76-5.113s5.448-3.939.838-10.644c2.766-1.593 5.03-6.03 5.03-6.03s-3.771-1.593-5.531-2.933c-.839-1.761-.084-11.399-.084-11.399l-2.263-12.488-6.454 19.445c.251-2.766.419 8.381-8.716 8.381z"/><path d="m215.59 136.88c.2.201 6.819 7.622 13.236 7.22 2.406-2-5.01-6.417-5.01-7.42 2.607 2.407 13.637 11.832 20.657 8.423 2.807-4.01-5.01-3.409-13.638-14.239 6.02 4.01 21.06 12.835 28.08 9.426 3.01-3.209-15.643-13.237-21.86-21.06l-16.04-8.222-21.86 17.849 16.445 8.02z"/><path stroke-linecap="round" d="m190.92 75.917s7.42-4.412 37.1-2.206c3.209.401 20.255-5.816 25.67-7.621 8.623-1.604 36.1-7.621 43.519-13.236 5.214-.602-1.405 9.626-8.02 12.03-7.02 3.209-32.489 12.03-41.514 10.83 10.83.201 4.814 9.02-13.236 4.813 8.624 4.813 5.415 5.615 5.415 5.615s-15.241.802-19.252-2.607c10.228 3.81 6.02 5.214 6.02 5.214s-10.428 1-15.242-1.203c7.42 2.206 3.61 3.61 3.61 3.61s-6.02 1-11.03-.802c-5.01-1.805-12.634-14.439-13.03-14.439z"/><path d="m202.82 141.04l1.09 19.612s-.587 1.01-1.09 1.593c-.503.586-13.913-2.096-12.07 8.129 0 4.191.084 5.28 2.934 7.627-.755-2.766-.503-4.693-.503-4.693s3.771 2.263 7.459-3.939c-2.514 6.118-.755 8.297-.168 8.465.587 1.09-1 6.03 4.02 5.95-1.927-1.844-1-4.526-1-4.526s5.28-.837 3.436-10.392c1.928-1.928 2.682-.084 2.682-.084s.586 5.699 5.196 4.526c2.096 1.173-.335 4.274-.335 4.274s3.352.084 4.358-2.766c1.01-2.849 2.179-7.962-3.353-10.06-.67-2.01 2.18-2.179 2.18-2.179s3.52 1.173 4.525 2.933c1.01 1.76.671-4.609-3.687-5.28-5.364-.168-5.699-1.257-5.699-1.508 0-.252-.922-14.248-1.341-18.271l-8.633.586z"/><g stroke-linecap="round"><path d="m221.48 157.75c.066-.899-9.15-13.308-6.812-14.912 2.337.481 6.17 6.125 9.275 4.293-.941-2.2-3.715-.961-6.865-6.593-3.149-6.367-3.609-15.925-14.639-26.351 7.141 11.03 23.34 17.5 24.03 14.283s-14.264-15.382-13.498-18.314c2.973 6.02 17.984 19.437 29.04 18.326.758-2.583-9.06-7.796-11.583-12.664-7.06-4.746-25.972-21.04-26.351-24.823-6.88-10.03-11.175-13.07-13.175-14.226-.773-.91-.967-1.781-1.118-2.334-4.271-10.07 1.386-13.338 4.697-13.822 2.725-.303 3.516.105 5.477-.844-2.322-.908-4.643-1.758-6.964-2.666 3.03 2.22 10.759.266 9.08 6.661 3.39-1.29 10.603-9.871-8.175-11.808-6.111-7.01-31.24-11.04-37.525 19.558.502.429.765.781 2.363 1.975-7.94-3.837-29.34-6.803-37.05-8.05-20.84-6.01-42.48-20.5-44.56-18.718-2.782 1.234 12.589 15.536 11.79 15.852-13.328-7.771-25.505-13.277-36.834-18.288-7.971-2.979-15.954-9.916-16.835-8.596-2.933 6.076 12.779 21.352 15.702 23.15 2.923 1.719 25.91 12.382 25.571 12.515-34.622-15.715-40.43-18.564-42.16-20.375-3.052-.688-10.486-10.724-12.557-10.08-1.134 1.114 1.14 16.973 17.662 24.09 2.693 1.963 35.414 13.701 35.09 14.621-.08.23-37.477-15.435-38.93-15.995-7.21-2.828-16.06-12.738-17.711-11.623-1.579 1.01 4.078 11.738 11.364 15.1 3.819 1.685 18.467 8.941 31.665 13.558.842.305-23.722-9.315-35.533-14.251-5.355-2.972-7.877-6.677-8.692-5.88-1.207.797 1.949 16.643 39.902 25.584 1 .426 13.36-2.928 12.749-2.483-.153.111-12.273 2.75-13.453 2.66-1.05-.16-7.69.786-7.81 1.13-.401 1.072 2.406 6.746 22 5.563 2.505-.151 16.1-4.951 14.958-3.918-.571.517-18.513 6.347-19.879 6.462-1.187.168-7.49.827-7.723 1.497-.285.914 4.665 4.952 15.189 5.599 9.318.495 27.02-5.693 26.668-5.292-.355.401-17.07 6.128-17.506 6.477-.605.342-6.725.674-6.94 1.144-.499 1.169 8.828 9.891 36.412.583-2.771 3.743-16.14 6.303-16.12 6.977-.062.489 2.946 3.395 7.62 4.435 2.337.52 5.537.414 8.46-.048 5.25-1.051 10.783-3.128 17.813-9.625.84 2.039-17.561 11.351-16.697 12.239 3.99 3.7 17.244-.477 18.11-.962.869-.486 25.523-14.388 25.438-15.997.383 2.062-31.785 19.541-31.438 20.258 2.065 3.295 13.05-.173 13.579-.476.524-.302 14.02-7.595 14.394-7.81.369-.215-15.866 9.502-14.42 10.981-.699 6.31 25.355-4.355 27.397-5.683 1.021-.664-12.516 5.952-12.552 9.09 4.359 7.37 18.317 5.03 20.47 3.411 1.077-.811-1.267 5.475-.512 4.904.263-.118 3.036-3.397 4.102-5.77-.34 2.059-1.87 5.303-2.763 9.03-.894 3.722-1.15 7.922-2.377 12.384-.281 1.96 8.601-3.832 7.311-17.678.76 7.202-2.805 20.669-1.872 21.369 1.866 1.4 7.03-6.707 7.546-12.189 1.532 2.769 4.747 8.549 7.513 9.879-.301-4.189.053-3.997-1.192-8.114.718-5.466.818-13.03.992-21.573 7.516 14.398 10.514 20.478 8.414 31.504 2.235.932 5.805-7.696 5.517-12.137 2.87 12.34 15.258 14.19 15.455 13.831z"/><path d="m96.29 66.34s-5.116 3.865-11.482 3.638c1.591 6.366 14.779 1.478 14.779 1.478s-6.366 7.05-10.914 8.185c2.728 2.274 14.21 1.478 16.14.341 1.932-1.137 5.343-5.57 5.343-5.57s-11.823 13.642-13.529 13.528c-.227 1.591 12.392 1.023 15.01-1.364 2.614-2.387 9.208-5.912 9.208-5.912s-17.28 12.05-18.08 12.05c6.48 1.705 19.44-2.046 27.739-7.162-12.278 8.185-13.414 9.663-19.667 12.391 5.571 1.251 8.412 5 27.28-3.183 10.8-5.116 16.938-14.438 16.938-14.438-6.707 8.981-17.28 16.598-28.988 24.1-.683 1.364 12.504 6.934 29.329-10.573"/></g></g><g stroke-linecap="round"><path d="m187.69 104.31s1.137 5.343 5.684 9.436c4.548 4.092 4.889 8.07 4.889 8.07"/><path d="m185.42 69.53s1.591 4.775 6.252 7.844c4.775 3.069 11.938 12.732 12.506 14.438.55 2.064 3.296 16.939 3.069 18.53"/><path d="m156.43 76.914c.341 1.819-6.708 11.03 2.955 21.827-8.754 10.685-8.753 12.05-8.753 12.05s4.888 2.728 13.642-4.775c14.437 17.735 9.626 25.851 9.626 25.851"/><path stroke-linejoin="round" d="m172.75 119.35s-1.33-1.905 1.041-9.02c2.135 2.572 4.509 3.121 5.55 4.162 1.04 1.041 11.941 2.619 12.634 9.904"/></g><path d="m185.56 52.574c0-.535-2.195-5.245-10.384.642 4.389.267 8.724 2.783 10.384-.642z"/><path stroke-linejoin="round" d="m263.72 74.11c.401.201 24.467 5.415 32.489 2.808-10.228 13.637-30.684 4.412-30.684 4.412 10.03 3.01 10.429 2.808 13.637 5.615 1 2.607-18.45 1.404-24.868-2.206 17.849 5.615 18.25 5.214 18.852 7.42.803 3.01-29.28-.802-31.887-4.813 8.02 6.217 12.434 7.42 16.846 10.228-5.415 2.407-15.442 4.813-33.893-8.222 24.266 22.06 46.13 20.656 49.54 24.667-8.423 12.434-41.11-7.42-56.15-17.448-15.04-10.03 32.89 24.266 37.3 23.664-2.207 3.409-18.05.401-19.05-1.203"/><g stroke-linecap="round"><path d="m269.94 97.17c-2.807.401-11.23.401-12.433.201"/><path stroke-linejoin="round" d="m89.24 62.704s18.303 9.663 26.03 8.981c-2.046 1.933-5.116 2.728-5.116 2.728 1.933.796 7.276 3.638 15.348 1.819-1.933 1.933-4.434 4.093-4.434 4.093s6.935 2.615 14.779-1.478c-2.387 2.956-3.752 5.116-3.752 5.116l5.457.341"/></g></g></g></svg>