<svg xmlns="http://www.w3.org/2000/svg" viewBox="0 0 512 512"><defs><clipPath id="clipPath5279" clipPathUnits="userSpaceOnUse"><path fill="#25ff01" d="m108.95,47.6h464.86v464.86h-464.86z"/></clipPath></defs><g fill-rule="evenodd" clip-path="url(#clipPath5279)" transform="matrix(1.1014 0 0 1.1014 -120 -52.427)"><g stroke-width="1.25"><path fill="#fff" d="m0,47.6h693v464.4h-693z"/><path d="m1.5302,48.161h690.8298v196.2h-690.8298z"/><path fill="#0061ff" d="m128.29,232.12h458.52v103.35h-458.52z"/></g><g fill="#e20000"><path d="m692.53,49.191v463.27h-345.67l345.67-463.27z"/><path d="m1.1886,49.191v463.27h345.67l-345.67-463.27z"/></g><path fill="#ffd600" d="m508.78,232.22-69.285-17.58 58.944-44.467-72.387,10.341 37.228-63.08-64.115,37.228 11.375-73.422-43.432,57.91-17.58-67.217-19.648,69.285-43.433-58.944 12.409,75.491-64.114-39.297 37.228,63.08-70.319-11.375 57.91,43.433-72.388,18.614h321.61z"/></g></svg>