<svg xmlns="http://www.w3.org/2000/svg" viewBox="0 0 512 512"><defs><clipPath id="0"><path d="m108.95 47.6h464.86v464.86h-464.86z"/></clipPath></defs><g fill-rule="evenodd" clip-path="url(#0)" transform="matrix(1.1014 0 0 1.1014-120-52.43)"><g stroke-width="1.25"><path fill="#fff" d="m0 47.6h693v464.4h-693z"/><path d="m1.53 48.16h690.83v196.2h-690.83z"/><path fill="#0061ff" d="m128.29 232.12h458.52v103.35h-458.52z"/></g><g fill="#e20000"><path d="m692.53 49.19v463.27h-345.67l345.67-463.27"/><path d="m1.189 49.19v463.27h345.67l-345.67-463.27"/></g><path fill="#ffd600" d="m508.78 232.22l-69.28-17.58 58.944-44.47-72.39 10.341 37.23-63.08-64.12 37.23 11.375-73.42-43.43 57.91-17.58-67.22-19.648 69.29-43.43-58.944 12.409 75.49-64.11-39.3 37.23 63.08-70.32-11.375 57.91 43.43-72.39 18.614h321.61z"/></g></svg>