<svg xmlns="http://www.w3.org/2000/svg" viewBox="0 0 512 512" xmlns:xlink="http://www.w3.org/1999/xlink"><defs><path id="0" d="m328.14 202.55h-3.151"/><path id="1" d="m343.17 258.06c-3.977 10.41.379 15.358-1.567 20.964-1.874 5.398-10.02 18.776-3.821 24.589 4.931.228-.852-7.376 9.01-21.455 4.575-6.595-1.196-10.769 3.625-23.707.449-1.107-6.622-2.031-7.249-.391z"/><path id="2" d="m342.97 258.16c-1.528 11.683-.62 47.577 3.037 46.14 4.049 1.305 4.583-35.16 4.212-45.946-.052-1.194-7.04-1.938-7.249-.195"/></defs><g fill-rule="evenodd" stroke-width="1.25" transform="matrix(.7553 0 0 1.1329-28.678-260.35)"><path fill="#00c4ff" d="m37.969 229.8h677.88v151.05h-677.88z"/><path fill="#fff" d="m37.969 380.23h677.88v151.05h-677.88z"/><path fill="#00c4ff" d="m37.969 530.67h677.88v151.05h-677.88z"/></g><g transform="matrix(1.2386 0 0 1.2386-158.39-42.01)"><g stroke-opacity=".387" stroke="#000"><path fill="#ffd600" fill-rule="evenodd" stroke-width=".625" d="m382.49 221.33c0 14.564-11.864 26.37-26.499 26.37s-26.499-11.806-26.499-26.37 11.864-26.37 26.499-26.37 26.499 11.806 26.499 26.37z" transform="matrix(1.0193 0 0 1.0038-26.2 18.07)"/><g stroke-width=".5"><g fill="none" transform="matrix(.78705 0 0 .7627 57.46 72.38)"><path d="m364.43 195.28c-4.34-1.049-8.785.422-10.185.318-1.925 0-6.79-1.68-10.185 0"/><path d="m338.71 200.49c4.305-3.01 9.115 1.086 10.394.315 3.492-2.294 6.736-1.868 10.08.21 2.155 1.272 5.914-3.71 10.289.315"/></g><g fill="#efc000" fill-rule="evenodd"><path d="m333.88 205.63c2.275-1.855 9.694-1.925 17.324 2.414 1.155-.28 1.89-1.084.945-2.204-5.74-1.995-12.424-4.515-18.584-2.625-1.68 1.19-1.26 1.96.315 2.415z" transform="matrix(.78705 0 0 .7627 57.46 72.38)" id="7"/><use transform="matrix(-1 0 0 1 672.45 0)" xlink:href="#7"/></g></g><g stroke-width=".625"><path fill="#f0bf00" fill-rule="evenodd" stroke-linejoin="round" d="m330.84 211.83c7.525-4.83 17.464-2.31 21.629.315-6.09-1.155-6.195-1.68-10.605-1.785-3.115.106-7.699-.21-11.02 1.47z" transform="matrix(.78705 0 0 .7627 57.46 72.38)" id="5"/><path fill="none" d="m348.06 211.3c-3.675 7.665-10.08 7.77-14.594-.42" transform="matrix(.78705 0 0 .7627 57.46 72.38)" id="6"/></g></g><g fill-rule="evenodd"><path fill-opacity=".368" d="m345.54 212.88c0 .928-1.645 1.68-3.675 1.68s-3.675-.752-3.675-1.68c0-.928 1.645-1.68 3.675-1.68s3.675.752 3.675 1.68" transform="matrix(.85295.12338-.92423 1.011 231.88-22.52)" id="3"/><path fill="#ffd700" d="m344.07 212.56c0 .232-.329.42-.735.42s-.735-.188-.735-.42c0-.232.329-.42.735-.42s.735.188.735.42" transform="matrix(1.0476-.34283.38138.94175-115.92 151.91)" id="4"/></g><g stroke="#000"><g stroke-width=".625"><g stroke-opacity=".387"><g fill="none"><path d="m349.18 224.5c-4.239 7.127 1.537 2.1 2.475 4.164 1.65 1.913 3.301 1.462 4.276 0 .976-1.651 7.127 3.113 2.926-3.938" transform="matrix(.78705 0 0 .7627 57.46 72.38)"/><g stroke-linejoin="round"><use xlink:href="#8"/><use xlink:href="#9"/></g></g><g fill="#ffd700" fill-rule="evenodd" stroke-linejoin="round"><use transform="matrix(.78705 0 0 .7627 57.46 72.38)" xlink:href="#1"/><path d="m342.97 258.16c-1.528 11.683-.62 47.577 3.037 46.14 4.049 1.305 4.583-35.16 4.212-45.946-.052-1.194-7.04-1.938-7.249-.195z" transform="matrix(.78705 0 0 .7627 64.24 72.907)"/></g></g><g fill="none"><g stroke-opacity=".387" stroke-linejoin="round"><use transform="matrix(-.56256-.5334-.55044.54515 657.14 309.12)" xlink:href="#1"/><use transform="matrix(.55074.54486-.56226.53369 265.32-69.993)" xlink:href="#1"/><use transform="matrix(-.00453-.76268-.78704.00439 511.37 509.69)" xlink:href="#1"/><use transform="matrix(-.72199-.30364-.31333.69965 656.38 192.05)" xlink:href="#2"/><use transform="matrix(-.56065-.53529-.55238.5433 651.5 306.4)" xlink:href="#2"/><use transform="matrix(-.30753-.70206-.72448.29802 602.06 417.74)" xlink:href="#2"/></g><path stroke-opacity=".082" d="m349.18 224.5c-4.239 7.127 1.537 2.1 2.475 4.164 1.65 1.913 3.301 1.462 4.276 0 .976-1.651 7.127 3.113 2.926-3.938" transform="matrix(.78705 0 0 .7627 57.46 72.38)"/></g><g fill-rule="evenodd" stroke-linejoin="round"><g stroke-opacity=".082" fill="#f0bf00"><path stroke-linecap="round" d="m341.64 236.31c3.638-.413 9.753-3.188 11.929-.9 1.875-2.063 8.477.6 12.715.9-3.076 1.875-9.302.6-12.265 2.588-2.889-1.763-9.266-.15-12.379-2.588z" transform="matrix(.78705 0 0 .7627 57.46 72.38)" id="8"/><path d="m347.5 239.58c5.514 2.251 6.752 1.913 12.716.225-1.238 3.264-4.398 3.951-6.19 3.826-1.857-.121-4.388.113-6.526-4.051z" transform="matrix(.78705 0 0 .7627 57.46 72.38)" id="9"/></g><g fill="#ffd700"><g stroke-opacity=".149"><use transform="matrix(-.56256-.5334-.55044.54515 657.14 309.12)" xlink:href="#1"/><use transform="matrix(.55074.54486-.56226.53369 265.32-69.993)" xlink:href="#1"/><use transform="matrix(-.00453-.76268-.78704.00439 511.37 509.69)" xlink:href="#1"/><use transform="matrix(-.72199-.30364-.31333.69965 656.38 192.05)" xlink:href="#2"/><use transform="matrix(-.56065-.53529-.55238.5433 651.5 306.4)" xlink:href="#2"/><use transform="matrix(-.30753-.70206-.72448.29802 602.06 417.74)" xlink:href="#2"/></g><g stroke-opacity=".387"><use transform="matrix(0-.7627.78705 0 164.06 504.41)" xlink:href="#2"/><use transform="matrix(-.78705 0 0 .7627 616.04 72.78)" xlink:href="#1"/><use transform="matrix(.56256-.5334.55044.54515 16.584 309.51)" xlink:href="#1"/><use transform="matrix(-.55074.54486.56226.53369 408.41-69.796)" xlink:href="#1"/><use transform="matrix(.00453-.76268.78704.00439 162.13 509.69)" xlink:href="#1"/><use transform="matrix(.72199-.30364.31333.69965 17.304 192.45)" xlink:href="#2"/><use transform="matrix(.56065-.53529.55238.5433 21.69 306.4)" xlink:href="#2"/><use transform="matrix(.30753-.70206.72448.29802 71.78 417.74)" xlink:href="#2"/></g><g stroke-opacity=".149"><use transform="matrix(.56256-.5334.55044.54515 16.584 309.51)" xlink:href="#1"/><use transform="matrix(-.55074.54486.56226.53369 408.41-69.796)" xlink:href="#1"/><use transform="matrix(.00453-.76268.78704.00439 162.13 509.69)" xlink:href="#1"/><use transform="matrix(.72199-.30364.31333.69965 17.304 192.45)" xlink:href="#2"/><use transform="matrix(.56065-.53529.55238.5433 21.69 306.4)" xlink:href="#2"/><use transform="matrix(.30753-.70206.72448.29802 71.78 417.74)" xlink:href="#2"/></g><g stroke-opacity=".387"><use transform="matrix(0 .7627-.78705 0 509.35-23.965)" xlink:href="#2"/><use transform="matrix(.78705 0 0-.7627 57.38 407.66)" xlink:href="#1"/><use transform="matrix(-.56256.5334-.55044-.54515 656.83 170.93)" xlink:href="#1"/><use transform="matrix(.55074-.54486-.56226-.53369 265.01 550.24)" xlink:href="#1"/><use transform="matrix(-.00453.76268-.78704-.00439 511.29-29.25)" xlink:href="#1"/><use transform="matrix(-.72199.30364-.31333-.69965 656.11 288)" xlink:href="#2"/><use transform="matrix(-.56065.53529-.55238-.5433 651.73 174.04)" xlink:href="#2"/><use transform="matrix(-.30753.70206-.72448-.29802 601.64 62.696)" xlink:href="#2"/></g><g stroke-opacity=".149"><use transform="matrix(-.56256.5334-.55044-.54515 656.83 170.93)" xlink:href="#1"/><use transform="matrix(.55074-.54486-.56226-.53369 265.01 550.24)" xlink:href="#1"/><use transform="matrix(-.00453.76268-.78704-.00439 511.29-29.25)" xlink:href="#1"/><use transform="matrix(-.72199.30364-.31333-.69965 656.11 288)" xlink:href="#2"/><use transform="matrix(-.56065.53529-.55238-.5433 651.73 174.04)" xlink:href="#2"/><use transform="matrix(-.30753.70206-.72448-.29802 601.64 62.696)" xlink:href="#2"/></g><g stroke-opacity=".387"><use transform="matrix(-.78705 0 0-.7627 609.13 407.52)" xlink:href="#2"/><use transform="matrix(0 .7627.78705 0 163.72-30.464)" xlink:href="#1"/><use transform="matrix(-.55044-.54515.56256-.5334 408.01 550.44)" xlink:href="#1"/><use transform="matrix(.56226.53369.55074-.54486 16.589 170.74)" xlink:href="#1"/><use transform="matrix(-.78704-.00439.00453-.76268 614.58 409.4)" xlink:href="#1"/><use transform="matrix(-.31333-.69965.72199-.30364 287.2 549.74)" xlink:href="#2"/><use transform="matrix(-.55238-.5433.56065-.53529 404.79 545.49)" xlink:href="#2"/><use transform="matrix(-.72448-.29802.30753-.70206 519.7 496.95)" xlink:href="#2"/></g><g stroke-opacity=".149"><use transform="matrix(-.55044-.54515.56256-.5334 408.01 550.44)" xlink:href="#1"/><use transform="matrix(.56226.53369.55074-.54486 16.589 170.74)" xlink:href="#1"/><use transform="matrix(-.78704-.00439.00453-.76268 614.58 409.4)" xlink:href="#1"/><use transform="matrix(-.31333-.69965.72199-.30364 287.2 549.74)" xlink:href="#2"/><use transform="matrix(-.55238-.5433.56065-.53529 404.79 545.49)" xlink:href="#2"/><use transform="matrix(-.72448-.29802.30753-.70206 519.7 496.95)" xlink:href="#2"/></g></g></g></g><g stroke-width="1.25"><g fill="none"><g stroke-opacity=".171"><use transform="matrix(.78705 0 0 .7627 57.865 72.976)" xlink:href="#0"/><use transform="matrix(.78705 0 0 .7627 57.24 74.52)" xlink:href="#0"/><use transform="matrix(.87138 0 0 .7627 29.31 75.979)" xlink:href="#0"/><use transform="matrix(.87137 0 0 .7627 28.514 77.35)" xlink:href="#0"/><use transform="matrix(1.04 0 0 .7627-27 78.81)" xlink:href="#0"/><use transform="matrix(1.1524 0 0 .7627-63.806 80.27)" xlink:href="#0"/><use transform="matrix(1.0962 0 0 .7627-45.89 81.901)" xlink:href="#0"/><use transform="matrix(1.0681 0 0 .7627-36.489 83.53)" xlink:href="#0"/><use transform="matrix(1.0962 0 0 .7627-45.713 85.08)" xlink:href="#0"/><use transform="matrix(1.3773 0 0 .7627-137.06 86.88)" xlink:href="#0"/><use transform="matrix(1.1805 0 0 .7627-72.849 88.94)" xlink:href="#0"/></g><g stroke-opacity=".078"><use transform="matrix(1.1805 0 0 .7627-72.76 90.4)" xlink:href="#0"/><use transform="matrix(1.1805 0 0 .7627-72.14 92.37)" xlink:href="#0"/><use transform="matrix(1.1805 0 0 .7627-72.05 94.09)" xlink:href="#0"/><use transform="matrix(1.1805 0 0 .7627-70.989 95.98)" xlink:href="#0"/><use transform="matrix(1.1805 0 0 .7627-69.926 97.52)" xlink:href="#0"/><use transform="matrix(1.1805 0 0 .7627-68.952 99.32)" xlink:href="#0"/><use transform="matrix(1.1805 0 0 .7627-67.8 101.04)" xlink:href="#0"/><use transform="matrix(1.1805 0 0 .7627-67 102.67)" xlink:href="#0"/><use transform="matrix(1.1805 0 0 .7627-65.32 104.65)" xlink:href="#0"/><use transform="matrix(.75892 0 0 .7627 73.74 106.45)" xlink:href="#0"/><use transform="matrix(1.1805 0 0 .7627-72.76 90.4)" xlink:href="#0"/><use transform="matrix(1.1805 0 0 .7627-72.14 92.37)" xlink:href="#0"/><use transform="matrix(1.1805 0 0 .7627-72.05 94.09)" xlink:href="#0"/><use transform="matrix(1.1805 0 0 .7627-70.989 95.98)" xlink:href="#0"/><use transform="matrix(1.1805 0 0 .7627-69.926 97.52)" xlink:href="#0"/><use transform="matrix(1.1805 0 0 .7627-68.952 99.32)" xlink:href="#0"/><use transform="matrix(1.1805 0 0 .7627-67.8 101.04)" xlink:href="#0"/><use transform="matrix(1.1805 0 0 .7627-67 102.67)" xlink:href="#0"/><use transform="matrix(1.1805 0 0 .7627-65.32 104.65)" xlink:href="#0"/><use transform="matrix(.75892 0 0 .7627 74.12 106.3)" xlink:href="#0"/></g></g><g fill="#00699d" fill-rule="evenodd" fill-opacity=".867"><g stroke-opacity=".134"><use transform="matrix(-.78705 0 0 .7627 615.44 72.58)" xlink:href="#0"/><use transform="matrix(-.78705 0 0 .7627 616.06 74.13)" xlink:href="#0"/><use transform="matrix(-.87138 0 0 .7627 643.99 75.58)" xlink:href="#0"/><use transform="matrix(-.87137 0 0 .7627 644.79 76.958)" xlink:href="#0"/><use transform="matrix(-1.04 0 0 .7627 700.31 78.42)" xlink:href="#0"/><use transform="matrix(-1.1524 0 0 .7627 737.11 79.876)" xlink:href="#0"/><use transform="matrix(-1.0962 0 0 .7627 719.19 81.51)" xlink:href="#0"/><use transform="matrix(-1.0681 0 0 .7627 709.79 83.14)" xlink:href="#0"/><use transform="matrix(-1.0962 0 0 .7627 719.02 84.68)" xlink:href="#0"/><use transform="matrix(-1.3773 0 0 .7627 810.36 86.48)" xlink:href="#0"/><use transform="matrix(-1.1805 0 0 .7627 746.15 88.55)" xlink:href="#0"/></g><g stroke-opacity=".063"><use transform="matrix(-1.1805 0 0 .7627 746.06 90)" xlink:href="#0"/><use transform="matrix(-1.1805 0 0 .7627 745.44 91.98)" xlink:href="#0"/><use transform="matrix(-1.1805 0 0 .7627 745.35 93.69)" xlink:href="#0"/><use transform="matrix(-1.1805 0 0 .7627 744.29 95.58)" xlink:href="#0"/><use transform="matrix(-1.1805 0 0 .7627 743.23 97.13)" xlink:href="#0"/><use transform="matrix(-1.1805 0 0 .7627 742.25 98.93)" xlink:href="#0"/><use transform="matrix(-1.1805 0 0 .7627 741.1 100.65)" xlink:href="#0"/><use transform="matrix(-1.1805 0 0 .7627 740.31 102.28)" xlink:href="#0"/><use transform="matrix(-1.1805 0 0 .7627 738.62 104.25)" xlink:href="#0"/><use transform="matrix(-.75892 0 0 .7627 599.56 106.05)" xlink:href="#0"/></g></g><g stroke-opacity=".063" fill="none"><use transform="matrix(-1.1805 0 0 .7627 746.06 90)" xlink:href="#0"/><use transform="matrix(-1.1805 0 0 .7627 745.44 91.98)" xlink:href="#0"/><use transform="matrix(-1.1805 0 0 .7627 745.35 93.69)" xlink:href="#0"/><use transform="matrix(-1.1805 0 0 .7627 744.29 95.58)" xlink:href="#0"/><use transform="matrix(-1.1805 0 0 .7627 743.23 97.13)" xlink:href="#0"/><use transform="matrix(-1.1805 0 0 .7627 742.25 98.93)" xlink:href="#0"/><use transform="matrix(-1.1805 0 0 .7627 741.1 100.65)" xlink:href="#0"/><use transform="matrix(-1.1805 0 0 .7627 740.31 102.28)" xlink:href="#0"/><use transform="matrix(-1.1805 0 0 .7627 738.62 104.25)" xlink:href="#0"/><use transform="matrix(-.75892 0 0 .7627 599.56 106.05)" xlink:href="#0"/></g></g><g stroke-opacity=".387" stroke-width=".625"><use transform="matrix(-1 0 0 1 673.26-.197)" xlink:href="#5"/><use transform="translate(20.551-.394)" xlink:href="#6"/></g></g><g fill-rule="evenodd"><use transform="matrix(1.03305 0-.00001.95749 9.636 9.659)" xlink:href="#3"/><use transform="translate(20.554-.39)" xlink:href="#4"/></g></g></svg>