<svg xmlns="http://www.w3.org/2000/svg" viewBox="0 0 512 512"><defs><clipPath id="0"><path d="m496.06 15.937h496.06v496.06h-496.06z"/></clipPath></defs><g clip-path="url(#0)" transform="matrix(1.0321 0 0 1.0321-512-16.449)"><g stroke-width="1.25"><path fill="#006" d="m0 15.937h992.13v496.06h-992.13z"/><g fill-rule="evenodd"><path fill="#bd1021" d="m0 263.97l992.13 248.03v-496.06l-992.13 248.03"/><path fill="#fff" d="m992.13 42.512v442.91l-885.83-221.46 885.83-221.46z"/></g><g stroke="#000" transform="matrix(1.3649 0 0 1.3649 645.58 82)"><g fill-rule="evenodd"><path fill="#9c3900" stroke-linejoin="round" d="m131.81 174.07s-4.538-3.713.825-9.695c-2.888-2.475-.206-7.219-.206-7.219s-4.951-1.857.206-9.489c-3.713-2.475-2.063-8.04-2.063-8.04s-12.17-4.538-.618-8.869c-9.489 4.125-18.359-5.57-18.359-5.57l-13.82.413c-2.344-11.48-20.565-1.51-7.02-34.443-3.507-.619-7.426-1.65-11.345 1.238-3.92 2.887-15.06 9.08-21.659 2.887s4.331-15.06 4.538-15.264c.206-.206 14.645-7.632 16.708-12.582-.206-3.714-4.744-6.601-.619-14.646 4.744-7.632 33.826-14.852 47.04-17.327 6.394-2.888 9.282-8.457 9.282-8.457l1.444 5.363s29.29-8.663 30.735-12.789.619 3.713.619 3.713c11.551-1.031 26.2-10.932 28.26-6.395 9.695-1.856 28.26-10.11 28.26-10.11s6.394-.206 1.856 6.807c2.888 4.538-.825 8.457-1.031 8.457-.207 0 1.237 4.538-2.476 7.01 1.239 3.919-2.269 7.01-2.269 7.01s1.651 4.744-4.95 7.22c.619 4.126-3.713 4.951-3.713 4.951s.619 4.332-2.269 6.188c0 3.3-3.3 4.951-3.3 4.951s2.062 1.238-.826 3.3c-2.887 2.063-32.797 20.421-32.797 20.22 0-.206 21.865 3.919 23.309 4.744s17.946 11.758 17.946 11.758l-16.709 20.627s-18.564-2.062-19.389-1.031 3.919 1.444 4.95 3.094c1.032 1.65 2.682 5.57 5.982 5.157 3.301-.413-6.188 5.982-12.376 6.601 0 2.269 7.838 2.475 9.901.619 2.063-1.857-4.951 5.363-5.776 6.394s9.283-1.444 9.283-1.444-1.651 6.807-10.52 8.87c3.506 5.776 2.062 9.489 1.856 9.489s-5.776-5.776-11.139-4.745c1.444 5.57 5.776 10.726 7.01 11.552 1.237.825-9.695.618-11.139-2.476s-2.682 7.426 1.237 10.727c-4.537.206-8.457-2.476-8.457-2.476s-2.681 6.188-.825 9.283c1.857 3.094-6.394-6.189-6.394-6.189l-15.677 6.601-3.507-5.982z"/><path fill="#ffc221" d="m10.652 161.79c.367 0 22.774-.368 33.06-6.245 5.143 8.08 12.12 13.591 12.12 13.591l3.306-11.754s8.08.367 8.816 2.204c-1.102 2.203-1.469 5.142-1.469 5.142s5.51.368 5.877 1.102c.367.735-1.469 6.979-1.469 6.979l23.509 5.51s1.837-9.183 3.673-8.08c1.837 1.102 9.918 12.489 21.305 13.224s12.12-9.551 12.12-9.551l2.571 1.47s4.775-10.285 5.51-10.285 1.837 1.469 8.08 1.469c1.837 2.204 2.572 7.346 2.572 7.346s-6.98 6.98-4.776 12.49 2.572 4.04 2.572 4.04l50.691 12.12s2.572 4.04-1.836 6.245c0 .367-51.06-11.755-51.06-11.755s-4.776 5.51-8.449 4.408-1.102 2.204-1.102 2.204l55.1 4.408s4.04 5.143 1.102 6.612c-3.673.367-59.51-3.673-59.51-3.673s-3.306 6.979-6.979 1.102c-2.571 4.04-5.51-1.102-5.51-1.102s-4.775 3.673-5.51-.368c-4.04 2.939-6.612-1.836-6.612-1.836l-23.509-1.47-1.469 2.204s4.04 1.102-2.204 3.674c-6.245 2.571 37.467 1.469 38.569 1.836 1.102.368-2.938 3.674-2.938 3.674s22.407 1.469 26.447-3.306c4.04-4.776-1.469 6.244-1.469 6.244s17.632-.734 17.632-1.469-.368 5.51-12.489 4.775c7.346 4.776 16.529 7.714 16.529 7.714s-9.183 2.204-19.835-.367c1.836 4.775 9.918 9.183 9.918 9.183s-5.878 5.143-19.1-7.347c3.674 6.612.735 9.184.368 8.449-.368-.735-6.612-9.918-21.305-13.224 9.183 5.877 5.142 8.449 5.142 8.449s-4.775-8.449-12.489 0c-2.939-7.714-14.326-12.12-28.28-12.857-4.408-5.142-6.979-3.673-17.264-6.612-5.877-6.611-14.326-13.958-14.326-13.958s.367-9.918 10.285-8.816c1.102 3.306 1.102 2.204 1.102 2.204s11.02-4.04 14.326 1.469c4.775-8.449 11.387-1.263 12.489 1.675 3.165.464 19.1.896 19.1.896s-1.837-3.306-.735-2.938c1.102.367 9.918-3.306 9.551-4.408-.368-1.102-.735-4.775.734-4.408 1.47.367-12.489-1.837-20.2 4.04-2.571-2.572-.735-9.551-.735-9.551l-22.774-4.775-1.102 5.877s-6.612 1.102-6.245-.367c.367-1.47-1.469 5.142-1.469 5.142s-8.816-2.204-8.816-2.571 2.571-13.224 2.571-12.857c0 .368-7.347.735-17.632 8.449-2.939-9.183-26.08-21.305-26.08-21.672z"/></g><g fill="none"><path d="m66.49 165.1l-4.775 21.305"/><path d="m70.894 173.18l-1.469 6.979"/><path d="m94.4 178.69l-2.204 6.612"/><path d="m135.18 223.5c-.367 0-11.754 1.469-13.224 1.102-1.469-.367 17.999 5.877 17.999 8.448"/><path d="m114.61 226.08s-11.388-7.346-13.224-6.612c-1.837.735 11.387-.367 12.489-1.469"/><path d="m91.1 217.63s-11.754.367-12.856-.735 11.387 8.08 13.591 7.347"/><path d="m68.32 212.48c-.367 0-8.08-2.938-11.387-3.674 2.939 2.939 5.143 6.98 12.489 8.449"/><path d="m71.26 207.71c-.367-.735-14.693-5.143-14.693-7.347 3.306 1.102 8.08 2.571 12.489 1.469"/><path d="m147.3,190.81-1.469,6.611"/></g><path fill="#ffc221" fill-rule="evenodd" d="m39.3 131.67s-15.428 13.223 0 20.937c.735-5.143 1.837-5.877 1.837-5.877s12.856 4.775 20.57-6.612c-3.306-4.775-9.183-2.938-9.183-2.938s-12.12-.0001-13.224-5.51z"/><g fill="none"><path d="m52.16 137.55l-10.652 9.183"/><path d="m84.969 201.33s2.455 2.707.251 6.01"/><path d="m136.65 204.04l-4.04.368"/><path d="m103.59 201.83l7.346 1.102"/><path d="m123.35 182.94s.206 7.426-5.982 7.22c-6.188-.207-4.126.206-4.126.206"/><path d="m128.1 181.7s2.475.825 1.857 2.682c-.619 1.856.618 7.219-6.601 12.376-7.633 1.65-6.807-6.394-6.807-6.394"/><path d="m130.78 183.97s4.538-2.681 5.157 1.651c.618 4.331-3.713 12.376-6.807 13.614-3.095 1.237-6.601-.207-6.189-2.269"/><path d="m136.35 185.83s4.126-3.301 5.363 1.031c1.238 4.332-3.3 14.03-5.157 14.233"/><path d="m142.12 186.86s2.063-1.031 3.506.206"/><path d="m135.52 201.71c-.825.206-4.332.412-5.569-2.269"/><path d="m116.96 194.49c-.206 0-4.331.207-4.331.207"/><path d="m132.84,210.79-.412-6.807-1.65-2.269-2.888,2.888s-.413,6.807-1.65,7.426"/><path d="m127.89 204.39c-.206-.412-2.269-4.331-2.269-4.331l-3.507 4.331s-.412 6.189-1.65 6.808"/><path d="m122.11 204.18c0-.206-1.444-4.125-1.444-4.125s-4.125 2.269-4.538 3.919c-.412 1.65-.619 6.188-1.65 6.601"/><path d="m116.13 203.15s.413-3.713-.825-3.713c-1.237 0-6.807 5.157-7.01 9.695"/></g><path fill="#fff" fill-rule="evenodd" stroke-linejoin="round" d="m39.811 131.78s2.063-2.063 2.682-4.538c.619-2.475-.825-5.157 1.65-7.426 2.475-2.269 35.07-16.09 37.748-18.771 2.682-2.681 7.632-8.457 8.251-9.695.619-1.238 2.475 6.188-3.094 9.489 5.982-1.651 9.901-3.507 12.376-2.682-2.476 3.507-9.08 9.283-12.17 9.283 7.22-2.682 13.82-4.951 15.677-3.507 1.856 1.444-8.87 8.664-13.202 9.08 7.22-1.856 16.915-4.744 18.15-1.65-3.919 1.238-2.682 2.268-10.726 6.807-1.031.826-6.188 1.031-6.188 1.031 6.188-.619 14.645-3.094 15.47 1.444-4.95 1.856-6.807 4.332-10.932 5.363-4.126 1.032-13.614 2.888-19.39 5.157-5.776 2.269-14.233 8.87-14.233 8.87s-18.358.619-18.358.412c0-.206-3.507-8.457-3.713-8.663z"/><g fill="none"><path d="m48.47 130.34s.206-4.125 2.063-5.569c1.856-1.444 11.139-4.951 13.202-8.05 2.063-3.094-3.094 5.363-2.269 7.632"/><path d="m52.19 124.15s4.538 1.651 3.507 5.157"/><path d="m57.34 126.01c0 2.164-1.755 3.919-3.919 3.919s-3.919-1.755-3.919-3.919 1.755-3.919 3.919-3.919 3.919 1.755 3.919 3.919z" transform="matrix(.86842 0 0 .86842 7.751 17.09)"/></g><path fill="#fff" fill-rule="evenodd" d="m197.2 119.2l35.685 6.807s3.92-4.538 1.857-7.01c5.363-1.237 3.919-8.251 3.919-8.251s6.188-2.681 1.031-8.87c3.508-3.507-.825-6.188-.825-6.188s1.444-6.188-3.094-6.807c1.238-4.951-7.838-6.601-7.838-6.601s-18.771 5.157-31.973 5.569c4.332 4.332-1.65 7.01-1.65 7.01s3.507 2.475 2.475 4.538c-1.031 2.063.619 4.332-3.919 5.776 5.982 2.682-.619 7.219-.619 7.219s6.601 4.538 4.951 6.807z"/><g fill="none"><path d="m193.69 111.57s31.56 3.713 33 3.713 7.01 1.857 8.04 3.713"/><path d="m195.34 109.71l43.936 1.031"/><path d="m195.55 108.68s41.667-2.475 44.555-6.807"/><path d="m196.78 99.6s41.874-4.538 42.29-3.919"/><path d="m195.34 94.45s40.636-6.394 41.05-5.363"/><path d="m79.42 68.25s12.789 14.03 11.551 23.515"/><path d="m90.14 84.34s4.125 5.982 5.776 6.601 16.09 1.444 16.915 7.632c.825 3.919-3.094 2.681-2.475 5.569 1.031 3.713 10.726 8.457 21.246 2.888"/><path d="m121.91 109.92s8.663 12.789 21.452-1.031"/><path d="m136.76 114.46s10.52 5.569 19.18-8.87"/><path d="m144.8 115.69s5.157 4.332 15.884-1.443"/><path d="m175.54 108.47s15.883 3.3 16.915 4.332"/><path d="m181.52 104.97c.206 0 11.139.413 11.139.413"/><path d="m174.71 98.78s18.977-1.238 21.453 2.682"/><path d="m166.46 92.8s26.61 1.031 27.847 2.475"/><path d="m172.44 120.02s4.538-1.237 5.157-.618"/><path d="m162.13 131.16s5.982 5.157 13.615 2.888"/><path d="m165.43 139.83s6.807 3.094 14.852 1.237"/><path d="m167.7 144.98s6.807 4.538 11.345 3.712"/><path d="m164.61 147.67s4.744 3.507 4.95 5.363"/><path d="m158.01 151.79s1.444 7.425 6.601 10.11"/><path d="m154.5 155.09s-2.269 9.695 3.507 15.677"/><path d="m148.52 162.72c0 .206-.412 4.538-.206 4.951"/><path d="m111.39 125.18l11.139-.619s4.125-1.65 1.237-4.331"/><path d="m125.21 122.71c.207 0 10.52.825 13.202 3.919 2.681 3.094 5.982 9.282 7.838 10.314 1.857 1.031 2.269-.413 2.269-.413"/><path d="m143.98 134.88s-5.569 9.489-1.237 12.377"/><path d="m140.88 145.4s-4.95 6.601-1.031 9.901"/><path d="m138.82 154.47s-3.919 6.395.826 10.726"/><path d="m137.09 137.51c-.266.266-4.791 3.46-6.388 2.662"/><path d="m132.3 147.62s1.863 1.863 3.46 1.597"/><path d="m132.52 157.3l2.973 2.039"/><path d="m132.92 164.71l2.572 1.552"/><path d="m86.33 63.54s5.423 2.82 9.761 0c4.339-2.82 25.16-13.448 30.585-15.184 5.422-1.735 8.459-11.713 9.544-16.05"/><path d="m132.1 44.02l30.368-8.893s4.989-4.121 5.206-11.713"/><path d="m165.5 31.658s30.367-3.037 30.367-14.316"/><path d="m191.1 25.15s31.886-8.676 34.923-11.93"/><path d="m102.16 70.48s19.305-9.978 22.342-11.06c3.036-1.085 9.977-9.761-.434-9.761"/><path d="m111.49 74.39c.217 0 15.834-10.195 21.04-11.496 2.82-3.904 1.302-8.03-3.47-7.158"/><path d="m133.83 60.29c.434-.217 8.46-.434 5.64 5.857-4.12 3.037-21.908 11.93-21.908 11.93"/><path d="m129.71 53.57l33.84-11.28s2.82-5.857-1.301-6.724"/><path d="m190.45 25.367c0 .217 4.339 2.603 1.736 6.507-4.772 2.82-27.331 8.243-27.331 8.243"/><path d="m224.72 21.897l-31.886 8.893"/><path d="m222.33 29.05l-27.764 8.459"/><path d="m219.95,35.996-24.511,7.375"/><path d="m215.39 42.937c-.651 0-18.22 5.423-18.22 5.423"/><path d="m211.49 48.36l-11.28 4.555"/><path d="m208.67 54.43c-.434 0-9.761 4.121-9.761 4.121"/><path d="m205.85 59.42l-8.676 4.121"/><path d="m190.88 68.75s1.085.434.868 1.735"/><path d="m168.97 80.68s3.688 1.301.217 4.772c-1.735 2.386-6.724 1.735-9.761 6.073"/><path d="m192.62 32.09s4.556 1.084 1.085 6.941c-9.111 3.471-27.548 9.11-27.548 9.11s-.867 1.518-3.253 2.82c-2.386 1.301-28.632 8.676-28.632 8.676"/><path d="m194.14 38.816s4.989 2.169 0 5.857c-5.64 3.254-25.379 9.327-25.379 9.327s-.217 1.735-1.084 2.386c-.868.651-26.897 9.327-26.897 9.327"/><path d="m195.44 44.672s5.206 1.518.651 5.856c-5.423 3.254-22.776 9.11-22.776 9.11s-1.735 2.169-4.555 3.037c-2.82.868-20.823 8.243-20.823 8.243"/><path d="m196.74 50.53c1.519.651 5.64 1.301.651 5.206-5.856 2.603-20.17 8.243-20.17 8.243l-1.302 2.386-22.775 9.761"/><path d="m198.04 56.39s2.169 2.603-2.603 5.64c-5.206 2.82-16.485 7.158-16.485 7.158"/><path d="m195.44 62.46s2.386 1.518-.65 3.688c-3.471 1.735-17.14 8.893-17.14 8.893l-8.894 5.857"/><path d="m164.2 42.503c0 .217 3.688 3.254 2.386 6.724 3.254 2.386 2.603 4.989 2.603 4.989s4.555 2.603 3.905 6.29c4.555 1.085 4.338 3.688 4.338 3.688l-1.519 2.386s4.555-.217.651 5.64c2.386 1.302 1.302 2.82 1.302 2.82"/><path d="m176.56 72.44c-.651 0-15.834 5.64-19.739 9.11"/><path d="m139.91 65.71s4.555-.217 3.905 4.772c5.206-1.735 4.121 3.254 4.121 3.254s6.073-2.386 4.989 5.206c3.904-.868 3.253 3.037 3.253 3.037s3.471-.217 3.471 1.735c2.386-2.169 4.989-1.085 4.989-1.085s1.735-2.386 4.121-1.735"/><path d="m144.03 70.27c0 .434-20.39 11.713-20.39 11.713"/><path d="m147.93,73.955-15.401,9.544"/><path d="m153.14 78.73c0 .217-13.449 8.03-13.449 8.03"/><path d="m156.18 81.76s-9.544 7.809-11.713 7.375"/><path d="m159.43 84.15s-5.423 4.121-9.978 6.073"/><path d="m165.07 82.42s1.735 2.169-9.11 7.809"/></g></g></g></g></svg>