<svg xmlns="http://www.w3.org/2000/svg" viewBox="0 0 512 512"><defs><clipPath id="0"><path d="m0 0h512v512h-512z"/></clipPath></defs><g clip-path="url(#0)"><g transform="scale(2.3704)"><path fill="#39c" d="m0 0v216h324v-216h-324"/><g fill="#ff0"><path d="m0 144v12h324v-12h-324"/><path d="m0 168v12h324v-12h-324"/></g></g><g transform="matrix(2.3804 0 0 2.3804 7.806-.498)"><g fill="#9cc"><path d="m48 12l1 1-1-1"/><path d="m47 14l1 1-1-1m2 0l1 1-1-1z"/></g><path fill="#ccf" d="m47 15l1 1-1-1m2 0l1 1-1-1z"/><path fill="#6cc" d="m46 17l1 1-1-1"/><path fill="#c66" d="m48 17l1 1-1-1"/><path fill="#6cc" d="m50 17l1 1-1-1"/><g fill="#ccf"><path d="m46 18l1 1-1-1"/><path d="m50 18l1 1-1-1"/></g><path fill="#fcc" d="m47 19l1 1-1-1m2 0l1 1-1-1z"/><path fill="#6cc" d="m45 20l1 1-1-1"/><path fill="#c00" stroke="#fff" stroke-width="1.25" d="m47.835 14.03l-7.01 26.574-26.652 7.238 26.575 6.936 7.087 26.574 7.086-26.574 26.575-7.087-26.575-7.087-7.086-26.574z"/><path fill="#6cc" d="m51 20l1 1-1-1"/><path fill="#9cf" d="m45 21l1 1-1-1m6 0l1 1-1-1z"/><path fill="#fcc" d="m46 22l1 1-1-1m4 0l1 1-1-1z"/><path fill="#69c" d="m44 23l1 1-1-1"/><path fill="#c33" d="m46.33 23.667l.333.667-.333-.667m4 0l.333.667-.333-.667z"/><path fill="#69c" d="m52 23l1 1-1-1"/><path fill="#9cf" d="m44 24l1 1-1-1m8 0l1 1-1-1z"/><path fill="#fcc" d="m45 25l1 1-1-1m6 0l1 1-1-1z"/><g fill="#69c"><path d="m43 26l1 1-1-1"/><path d="m53 26l1 1-1-1"/></g><path fill="#9cc" d="m43 27l1 1-1-1m10 0l1 1-1-1z"/><path fill="#cff" d="m43 28l1 1-1-1m10 0l1 1-1-1z"/><path fill="#69c" d="m42 29l1 1-1-1"/><path fill="#fcc" d="m44 29l1 1-1-1m8 0l1 1-1-1z"/><path fill="#69c" d="m54 29l1 1-1-1"/><path fill="#9cc" d="m42 30l1 1-1-1"/><path fill="#c33" d="m44.33 30.667l.333.667-.333-.667m8 0l.333.667-.333-.667z"/><path fill="#9cc" d="m54 30l1 1-1-1"/><path fill="#cff" d="m42 31l1 1-1-1m12 0l1 1-1-1z"/><path fill="#fcc" d="m43 32l1 1-1-1m10 0l1 1-1-1z"/><path fill="#9cc" d="m41 33l1 1-1-1"/><path fill="#c33" d="m43.33 33.667l.333.667-.333-.667m10 0l.333.667-.333-.667z"/><path fill="#9cc" d="m55 33l1 1-1-1"/><path fill="#ccf" d="m41 34l1 1-1-1m14 0l1 1-1-1z"/><path fill="#fcc" d="m42 35l1 1-1-1m12 0l1 1-1-1z"/><path fill="#9cc" d="m40 36l1 1-1-1"/><path fill="#c33" d="m42.33 36.667l.333.667-.333-.667m12 0l.333.667-.333-.667z"/><path fill="#9cc" d="m56 36l1 1-1-1"/><path fill="#ccf" d="m40 37l1 1-1-1m16 0l1 1-1-1z"/><path fill="#fcc" d="m41 38l1 1-1-1m14 0l1 1-1-1z"/><path fill="#9cc" d="m39 39l1 1-1-1"/><path fill="#c33" d="m41 39l1 1-1-1m14 0l1 1-1-1z"/><path fill="#9cc" d="m57 39l1 1-1-1m-21 1l1 1-1-1z"/><path fill="#ccf" d="m37 40l1 1-1-1m22 0l1 1-1-1z"/><path fill="#9cc" d="m60 40l1 1-1-1m-27 1l1 1-1-1z"/><path fill="#ccf" d="m34 41l1 1-1-1"/><path fill="#fcc" d="m38 41l1 1-1-1"/><path fill="#c33" d="m39 41l1 1-1-1m18 0l1 1-1-1z"/><path fill="#fcc" d="m58 41l1 1-1-1"/><path fill="#ccf" d="m62 41l1 1-1-1"/><path fill="#9cc" d="m63 41l1 1-1-1"/><path fill="#69c" d="m29 42l1 1-1-1"/><path fill="#9cc" d="m30 42l1 1-1-1"/><path fill="#cff" d="m31 42l1 1-1-1"/><path fill="#fcc" d="m35 42l1 1-1-1"/><path fill="#c33" d="m36.667 42.33l.667.333-.667-.333m23 0l.667.333-.667-.333z"/><path fill="#fcc" d="m61 42l1 1-1-1"/><path fill="#cff" d="m65 42l1 1-1-1"/><path fill="#9cc" d="m66 42l1 1-1-1"/><path fill="#69c" d="m67 42l1 1-1-1m-41 1l1 1-1-1z"/><path fill="#9cc" d="m27 43l1 1-1-1"/><path fill="#cff" d="m28 43l1 1-1-1"/><path fill="#fcc" d="m32 43l1 1-1-1"/><path fill="#c33" d="m33.667 43.33l.667.333-.667-.333m29 0l.667.333-.667-.333z"/><path fill="#fcc" d="m64 43l1 1-1-1"/><path fill="#cff" d="m68 43l1 1-1-1"/><path fill="#9cc" d="m69 43l1 1-1-1"/><path fill="#69c" d="m70 43l1 1-1-1m-47 1l1 1-1-1z"/><path fill="#9cf" d="m24 44l1 1-1-1"/><path fill="#fcc" d="m29 44l1 1-1-1"/><path fill="#c33" d="m30.667 44.33l.667.333-.667-.333m35 0l.667.333-.667-.333z"/><path fill="#fcc" d="m67 44l1 1-1-1"/><path fill="#9cf" d="m72 44l1 1-1-1"/><path fill="#69c" d="m73 44l1 1-1-1"/><path fill="#6cc" d="m20 45l1 1-1-1"/><path fill="#9cf" d="m21 45l1 1-1-1"/><g fill="#fcc"><path d="m25 45l1 1-1-1"/><path d="m71 45l1 1-1-1"/></g><path fill="#9cf" d="m75 45l1 1-1-1"/><path fill="#6cc" d="m76 45l1 1-1-1m-59 1l1 1-1-1z"/><path fill="#ccf" d="m18 46l1 1-1-1"/><path fill="#fcc" d="m22 46l1 1-1-1"/><path fill="#c33" d="m23.667 46.33l.667.333-.667-.333m49 0l.667.333-.667-.333z"/><path fill="#fcc" d="m74 46l1 1-1-1"/><path fill="#ccf" d="m78 46l1 1-1-1"/><path fill="#6cc" d="m79 46l1 1-1-1"/><path fill="#9cc" d="m14 47l1 1-1-1"/><path fill="#ccf" d="m15 47l1 1-1-1"/><g fill="#fcc"><path d="m19 47l1 1-1-1"/><path d="m77 47l1 1-1-1"/></g><path fill="#ccf" d="m81 47l1 1-1-1"/><path fill="#9cc" d="m82 47l1 1-1-1m-70 1l1 1-1-1z"/><g fill="#c66"><path d="m17 48l1 1-1-1"/><path d="m79 48l1 1-1-1"/></g><path fill="#9cc" d="m84 48l1 1-1-1m-70 1l1 1-1-1z"/><path fill="#ccf" d="m15 49l1 1-1-1"/><path fill="#fcc" d="m19 49l1 1-1-1m58 0l1 1-1-1z"/><path fill="#ccf" d="m81 49l1 1-1-1"/><path fill="#9cc" d="m82 49l1 1-1-1"/><path fill="#6cc" d="m17 50l1 1-1-1"/><path fill="#ccf" d="m18 50l1 1-1-1"/><path fill="#fcc" d="m22 50l1 1-1-1"/><path fill="#c33" d="m23.667 50.33l.667.333-.667-.333m49 0l.667.333-.667-.333z"/><path fill="#fcc" d="m74 50l1 1-1-1"/><path fill="#ccf" d="m78 50l1 1-1-1"/><path fill="#6cc" d="m79 50l1 1-1-1m-59 1l1 1-1-1z"/><path fill="#9cf" d="m21 51l1 1-1-1"/><g fill="#fcc"><path d="m25 51l1 1-1-1"/><path d="m71 51l1 1-1-1"/></g><path fill="#9cf" d="m75 51l1 1-1-1"/><path fill="#6cc" d="m76 51l1 1-1-1"/><path fill="#69c" d="m23 52l1 1-1-1"/><path fill="#9cf" d="m24 52l1 1-1-1"/><path fill="#fcc" d="m29 52l1 1-1-1"/><path fill="#c33" d="m30.667 52.33l.667.333-.667-.333m35 0l.667.333-.667-.333z"/><path fill="#fcc" d="m67 52l1 1-1-1"/><path fill="#9cf" d="m72 52l1 1-1-1"/><path fill="#69c" d="m73 52l1 1-1-1m-47 1l1 1-1-1z"/><path fill="#9cc" d="m27 53l1 1-1-1"/><path fill="#cff" d="m28 53l1 1-1-1"/><path fill="#fcc" d="m32 53l1 1-1-1"/><path fill="#c33" d="m33.667 53.33l.667.333-.667-.333m29 0l.667.333-.667-.333z"/><path fill="#fcc" d="m64 53l1 1-1-1"/><path fill="#cff" d="m68 53l1 1-1-1"/><path fill="#9cc" d="m69 53l1 1-1-1"/><path fill="#69c" d="m70 53l1 1-1-1m-41 1l1 1-1-1z"/><path fill="#9cc" d="m30 54l1 1-1-1"/><path fill="#cff" d="m31 54l1 1-1-1"/><path fill="#fcc" d="m35 54l1 1-1-1"/><path fill="#c33" d="m36.667 54.33l.667.333-.667-.333m23 0l.667.333-.667-.333z"/><path fill="#fcc" d="m61 54l1 1-1-1"/><path fill="#cff" d="m65 54l1 1-1-1"/><path fill="#9cc" d="m66 54l1 1-1-1"/><path fill="#69c" d="m67 54l1 1-1-1"/><path fill="#9cc" d="m33 55l1 1-1-1"/><path fill="#ccf" d="m34 55l1 1-1-1"/><path fill="#fcc" d="m38 55l1 1-1-1"/><path fill="#c33" d="m39 55l1 1-1-1m18 0l1 1-1-1z"/><path fill="#fcc" d="m58 55l1 1-1-1"/><path fill="#ccf" d="m62 55l1 1-1-1"/><path fill="#9cc" d="m63 55l1 1-1-1m-27 1l1 1-1-1z"/><path fill="#ccf" d="m37 56l1 1-1-1m22 0l1 1-1-1z"/><path fill="#9cc" d="m60 56l1 1-1-1m-21 1l1 1-1-1z"/><path fill="#c33" d="m41 57l1 1-1-1m14 0l1 1-1-1z"/><path fill="#9cc" d="m57 57l1 1-1-1"/><path fill="#fcc" d="m41 58l1 1-1-1m14 0l1 1-1-1z"/><path fill="#ccf" d="m40 59l1 1-1-1"/><path fill="#c33" d="m42.33 59.667l.333.667-.333-.667m12 0l.333.667-.333-.667z"/><path fill="#ccf" d="m56 59l1 1-1-1"/><path fill="#9cc" d="m40 60l1 1-1-1m16 0l1 1-1-1z"/><path fill="#fcc" d="m42 61l1 1-1-1m12 0l1 1-1-1z"/><path fill="#ccf" d="m41 62l1 1-1-1"/><path fill="#c33" d="m43.33 62.67l.333.667-.333-.667m10 0l.333.667-.333-.667z"/><path fill="#ccf" d="m55 62l1 1-1-1"/><path fill="#9cc" d="m41 63l1 1-1-1m14 0l1 1-1-1z"/><path fill="#fcc" d="m43 64l1 1-1-1m10 0l1 1-1-1z"/><path fill="#cff" d="m42 65l1 1-1-1"/><path fill="#c33" d="m44.33 65.67l.333.667-.333-.667m8 0l.333.667-.333-.667z"/><path fill="#cff" d="m54 65l1 1-1-1"/><path fill="#9cc" d="m42 66l1 1-1-1m12 0l1 1-1-1z"/><path fill="#69c" d="m42 67l1 1-1-1"/><path fill="#fcc" d="m44 67l1 1-1-1m8 0l1 1-1-1z"/><path fill="#69c" d="m54 67l1 1-1-1"/><g fill="#cff"><path d="m43 68l1 1-1-1"/><path d="m53 68l1 1-1-1"/></g><path fill="#9cc" d="m43 69l1 1-1-1m10 0l1 1-1-1z"/><path fill="#69c" d="m43 70l1 1-1-1m10 0l1 1-1-1z"/><path fill="#fcc" d="m45 71l1 1-1-1m6 0l1 1-1-1z"/><path fill="#9cf" d="m44 72l1 1-1-1"/><path fill="#c33" d="m46.33 72.67l.333.667-.333-.667m4 0l.333.667-.333-.667z"/><path fill="#9cf" d="m52 72l1 1-1-1"/><path fill="#69c" d="m44 73l1 1-1-1m8 0l1 1-1-1z"/><path fill="#fcc" d="m46 74l1 1-1-1m4 0l1 1-1-1z"/><g fill="#9cf"><path d="m45 75l1 1-1-1"/><path d="m51 75l1 1-1-1"/></g><path fill="#6cc" d="m45 76l1 1-1-1m6 0l1 1-1-1z"/><path fill="#fcc" d="m47 77l1 1-1-1m2 0l1 1-1-1z"/><path fill="#ccf" d="m46 78l1 1-1-1m4 0l1 1-1-1z"/><path fill="#6cc" d="m46 79l1 1-1-1"/><path fill="#c66" d="m48 79l1 1-1-1"/><path fill="#6cc" d="m50 79l1 1-1-1"/><path fill="#ccf" d="m47 81l1 1-1-1m2 0l1 1-1-1z"/><path fill="#9cc" d="m47 82l1 1-1-1m2 0l1 1-1-1m-1 2l1 1-1-1z"/></g></g></svg>