<svg width="512" xmlns="http://www.w3.org/2000/svg" height="512" viewBox="0 0 512 512"><defs><clipPath id="clipPath5084" clipPathUnits="userSpaceOnUse"><path fill-opacity=".67" d="m0,0h512v512h-512z"/></clipPath></defs><g fill-rule="evenodd" clip-path="url(#clipPath5084)"><path fill="#009" d="m0,0h512v512h-512z"/><path fill="#fc0" d="m77,.0065 436.91,436.91v-436.91h-436.91z"/><g fill="#fff" transform="matrix(.43691 0 0 .43691 -93.246 54.433)"><path d="m304.67-43.357 21.33-65.643 21.33,65.643 69.02,0-55.84,40.5702 21.33,65.6438-55.84-40.57-55.84,40.57 21.33-65.6438-55.84-40.5702z"/><path d="m304.67-43.357 21.33-65.643 21.33,65.643 69.02,0-55.84,40.5702 21.33,65.6438-55.84-40.57-55.84,40.57 21.33-65.6438-55.84-40.5702z" transform="translate(125 125)"/><path d="m304.67-43.357 21.33-65.643 21.33,65.643 69.02,0-55.84,40.5702 21.33,65.6438-55.84-40.57-55.84,40.57 21.33-65.6438-55.84-40.5702z" transform="translate(250 250)"/><path d="m304.67-43.357 21.33-65.643 21.33,65.643 69.02,0-55.84,40.5702 21.33,65.6438-55.84-40.57-55.84,40.57 21.33-65.6438-55.84-40.5702z" transform="translate(375 375)"/><path d="m304.67-43.357 21.33-65.643 21.33,65.643 69.02,0-55.84,40.5702 21.33,65.6438-55.84-40.57-55.84,40.57 21.33-65.6438-55.84-40.5702z" transform="translate(500 500)"/><path d="m304.67-43.357 21.33-65.643 21.33,65.643 69.02,0-55.84,40.5702 21.33,65.6438-55.84-40.57-55.84,40.57 21.33-65.6438-55.84-40.5702z" transform="translate(625 625)"/><path d="m304.67-43.357 21.33-65.643 21.33,65.643 69.02,0-55.84,40.5702 21.33,65.6438-55.84-40.57-55.84,40.57 21.33-65.6438-55.84-40.5702z" transform="translate(750 750)"/><path d="m304.67-43.357 21.33-65.643 21.33,65.643 69.02,0-55.84,40.5702 21.33,65.6438-55.84-40.57-55.84,40.57 21.33-65.6438-55.84-40.5702z" transform="translate(875 875)"/><path d="m304.67-43.357 21.33-65.643 21.33,65.643 69.02,0-55.84,40.5702 21.33,65.6438-55.84-40.57-55.84,40.57 21.33-65.6438-55.84-40.5702z" transform="translate(1000 1000)"/></g></g></svg>