<svg xmlns="http://www.w3.org/2000/svg" viewBox="0 0 512 512" xmlns:xlink="http://www.w3.org/1999/xlink"><defs><path id="1" d="m134.28 105.87l-6.58.11-3.4 5.62-3.39-5.63-6.57-.14 3.18-5.75-3.16-5.768 6.57-.113 3.41-5.625 3.39 5.638 6.57.14-3.19 5.748z"/><clipPath id="0"><path d="m60.84 337h175v175h-175z"/></clipPath></defs><g fill-rule="evenodd" clip-path="url(#0)" transform="matrix(2.9257 0 0 2.9257-178-985.97)"><g stroke-width="1.25"><g fill="#00cf00"><path d="m0 337l146.56 87.5-146.56 87.5z"/><path d="m293.12,337-146.56,87.5 146.56,87.5z"/></g><g fill="#f00"><path d="m0 337l146.56 87.5 146.56-87.5z"/><path d="m0 512l146.56-87.5 146.56 87.5z"/></g><path fill="#fff" d="m293.12 337h-27.31l-265.81 158.7v16.305h27.31l265.81-158.7z"/></g><path fill="#fff" d="m196.84 88.14c0 27.948-22.656 50.604-50.604 50.604s-50.604-22.656-50.604-50.604 22.656-50.604 50.604-50.604 50.604 22.656 50.604 50.604" transform="translate(.328 336.36)"/><g stroke-width="1.25"><path fill="#fff" d="m0 337v16.305l265.81 158.7h27.31v-16.305l-265.81-158.7z"/><g fill="#f00" stroke="#00de00"><use transform="translate(22.243 299.54)" xlink:href="#1"/><use transform="translate(.199 337.7)" xlink:href="#1"/><use transform="translate(44.827 337.7)" xlink:href="#1"/></g></g></g></svg>