<svg xmlns="http://www.w3.org/2000/svg" viewBox="0 0 512 512"><g stroke-width="1.25"><path fill="#c00" d="m0,0h512v512h-512z"/><path fill="#006" d="m0,0h512v256h-512z"/><g transform="scale(8.5333)"><g fill="#fff"><path d="m0,0v3.3541l53.292,26.646h6.708v-3.354l-53.292-26.646h-6.708zm60,0v3.354l-53.292,26.646h-6.708v-3.354l53.292-26.646h6.708z"/><path d="m25,0v30h10v-30h-10zm-25,10v10h60v-10h-60z"/></g><g fill="#c00"><path d="m0,12v6h60v-6h-60zm27-12v30h6v-30h-6z"/><path d="m0,30 20-10h4.472l-20,10h-4.472zm0-30 20,10h-4.472l-15.528-7.7639v-2.2361zm35.528,10 20-10h4.472l-20,10h-4.472zm24.472,20-20-10h4.472l15.528,7.764v2.236z"/></g></g></g><g transform="matrix(.16872 0 0 .13815 986.16 438.1)"><path fill="#fff" fill-rule="evenodd" d="m-1576.8,1353.5c17.72,2.98 674.45-205.79 673.23-531.49v-1594.5h-1346.5v1594.5c-1.22,325.7 673.23,531.49 673.23,531.49z" transform="translate(-2078.9 -953.42)"/><g stroke="#002b00" stroke-width="11.125"><path fill="#007a0f" fill-rule="evenodd" fill-opacity=".996" d="m-903.54,822.05c1.22,325.7-655.51,534.47-673.23,531.49 0,0-674.45-205.79-673.23-531.49 7.16-10.536 9.96-14.595 10.43-27.844 2.29-6.875 1.64-15.152 1.64-23.02v-23.021c-1.73-5.202-1.64-13.795-1.64-21.376-.22-5.804-1.64-15.454-1.64-16.443 1.28,9.471 3.02,14.092 6.57,1.644 2.51-6.278 3.92-11.441 6.58-19.732 .29-8.094 1.64-14.587 1.64-23.02 0-7.972 .38-15.559 1.65-21.377 2.53-2.073 4.74-5.722 8.22-3.288-.31,8.369-2.27,12.789-3.29,21.376v23.02 23.021c.16,5.439 .91,9.983 3.29,13.155 .29-8.095 1.64-14.587 1.64-23.021 1.9-5.689 3.07-13.139 6.58-18.088 1.99-7.394 5.22-13.502 8.22-21.376 2.51-7.807 5.04-13.192 6.58-19.732 3.63-4.077 7.64-11.014 11.51-14.799 8.45-5.43 5.95,2.76 3.29,9.866v23.021c5.8,1.657 2.09-2.335 6.58-6.577 1.58-6.083 5.31-14.346 8.22-19.732 2.92-4.739 6.7-9.218 9.86-14.799 3.42-2.102 12.53-8.07 13.16-8.222-3.65,3.824-6.79,9.365-9.87,14.799-1.26,5.818-1.64,13.405-1.64,21.376 .6,15.793 3.82,3.08 6.58-3.288 3.35-2.744 1.82-4.597 8.22-4.933 9.69-6.53 6.58,.646 4.93,8.221-1.31,7.351-1.64,14.841-1.64,23.021 0,8.924 1.54,12.746 1.64,21.376 0,7.582-.09,16.175 1.65,21.376 1.17,8.881 3.58,12.586 6.57,19.732 2.51,7.252 5.42,11.873 8.22,18.088 6.44,7.893 3.29,.717 3.29-8.222v-23.02-23.021c3.02-5.157 3.89-11.445 8.22-16.443 1.65-6.019 4.65-10.675 8.23-14.799 2.45-3.909 6.16-8.807 8.22-13.155v23.021c0,8.179 .33,15.67 1.64,23.02 2.26,7.619 3.93,12.286 4.94,19.732 4.29,2.78 5.91,6.903 9.86,9.866 1.99-7.598 3.29-14.388 3.29-23.02v-23.021c1.37-7.684 2.92-14.073 4.93-19.732 2.22-6.977 3.68,1.805 4.94,4.933 2.84,6.012 5.79,9.158 9.86,16.443 4.83,3.451 6.08,8.786 9.87,13.155 .87,4.034 1.29,13.115 3.29,16.443 1.77-8.002 4.74-12.822 6.57-21.376 4.93-4.831 7.83-8.229 13.16-11.51 8.36-1.611 12.2-3.916 19.73-4.933 10.41,0 8.54,1.064 1.64,6.577-2.61,4.246-6.36,10.867-9.86,14.799-1.02,7.514-2.97,11.212-3.29,19.732 .6,8.429 3.02,15.088 4.93,21.376 4.12-4.611 8.7-14.515 11.51-19.732 4.41-5.036 6.44-12.481 9.87-16.443 3.54-4.289 8.13-7 14.8-8.222 4.08-3.065 8.89-3.288 16.44-3.288 15.09,4.827 31.93,3.435 47.69,4.933 12.19,0 19.9-2.238 31.24-4.933 12.34-2.539 25.39-2.794 37.82-4.933 12.52,0 26.39-1.114 37.82,1.644h32.88c11.89,0 23.53-.245 34.53-1.644 13.27,0 26.77,.605 39.47-1.645 14.64,0 28.33-1.158 42.75-1.644 19.75,0 38.05-2.356 57.55-3.288 14.92-.634 26.89-5.416 41.11-8.222 9.53-2.169 20.71-1.644 31.24-1.644 12.48,0 22.46,2.218 34.53,3.288 10.27,0 19.68,.851 29.6,1.645h29.6 34.53 37.82c12.08,0 23.18,.743 34.53,1.644 10.31,0 19.66,.83 29.6,1.644h26.31c7.22,.86 16.21,1.021 23.02,3.289 9.55,0 17.27,1.321 26.31,1.644 8.51,.516 15.72,1.644 24.66,1.644 8.26,.295 15.31,1.911 23.02,3.289 6.98,.943 12.59,2.733 18.09,4.933 4.64,2.197 12.24,5.279 16.44,8.222 9.13,0 13.09-1.725 19.74-3.289 4.58-3.537 9.64-3.654 9.86-6.577-5.07,4.519-9.44,5.577-11.51,13.154-1.03,2.565-4.34,12.035 0,9.866 6.04-3.525 10.35-7.542 13.16-13.154 4.7-6.623 6.86-10.678 11.51-16.444 3.44-6.616 9.21-10.764 13.15-14.798 4.6-6.759 7.28-10.169 3.29,1.644-1.41,7.913-2.72,14.015-3.29,21.376-.94,6.975-2.73,12.587-4.93,18.088 0,5.08-.42,10.399 1.64,13.154 7.59-2.167 15-6.207 19.73-9.866 6.51-1.774 11.97-5.252 18.09-9.866 8.1-2.025 13.33-2.289 14.8-4.933-4.43,4.523-8.65,8.448-13.15,11.511-2.19,4.612-5.98,7.345-4.94,11.51 5.11-1.111 14.94-1.69 19.73-3.289 7.71-2.667 11.16-4.304 19.74-6.577 14.765,.192 2.498,2.24-4.94,6.577-4.46,3.036-9.07,7.542-14.8,11.511-3.67,6.82-6.16,12.168-9.86,16.443-1.93,7.157-4.59,12.247-8.22,16.443-1.46,6.188-3.54,11.659-4.94,18.088-1.42,10.552-5.32,13.111 6.58,8.221 5.1-5.562 10.03-10.196 13.16-14.799 3.03-4.728 7.17-10.545 11.51-14.799 2.26-6.386 5.81-8.91 9.86-16.443 3.661-3.837 8.797-9.617 13.157-14.799 3.764-3.59 8.946-7.383 14.798-9.866 9.013-3.004 7.87-8.779 4.933,1.645-3.466,4.196-5.575,9.794-6.577,16.443-3.571,14.821 .355,9.164 6.577,4.933 5.341-4.412 3.347-7.48 11.511-9.866 1.801-1.517 10.546-6.293 8.221-1.644-1.116,7.408-3.903,10.798-6.577,16.443-3.615,6.524-6.483,11.714-8.222,18.087-2.909,3.88-5.027,8.337 0,6.578 8.471-1.883 11.08-4.921 16.444-8.222 3.201-7.303 6.352-9.631 9.866-14.799-2.013,8.052-4.9,13.579-6.578,19.732-3.786,4.369-5.751,9.307-8.221,16.443-3.603,7.016-4.821,10.371-4.933,19.732-2.215,7.477-5.063,12.895-1.645,19.732 5.209-5.417 9.865-8.835 13.155-16.443 3.386-4.099 5.154-10.395 6.577-16.443 1.567-6.658 3.942-10.753 4.933-18.088 2.292-6.875 1.645-15.153 1.645-23.021v-23.02c-.094-7.859-2.588-14.365 0-19.732 5.006,5.109 6.258,9.691 9.866,16.443 2.11,8.442 5.844,13.214 6.577,21.376 3.342,4.915 3.839,10.934 6.577,18.088 .577,8.072 2.097,15.085 0,21.376-.496,5.291-3.066,9.066 0,13.155 5.308-4.385 5.538-10.919 6.577,3.289 0,7.198 .252,14.07 .836,21.266z" transform="translate(-2078.9 -953.42)"/><g fill="none"><path d="m-2178.7,685.68c-.62,4.245-1.64,17.061-1.64,26.309 0,8.38 .75,14.816 1.64,21.376 .55,5.919 1.88,6.805 0,11.51" transform="translate(-2078.9 -953.42)"/><path d="m-2154.1,672.52c.63,4.245 1.65,17.062 1.65,26.309 0,8.736-1.08,14.023-1.65,21.377-.29,8.079-1.64,12.433-1.64,21.376v6.577" transform="translate(-2078.9 -953.42)"/><path d="m-2172.2,759.67c1.55,0 .93,4.205 1.64,9.866 .95,6.998 2.51,12.974 4.93,18.088 .35,9.411 2.15,11.425 8.23,14.799 5.87,5.788 8.03,9.685 11.51,14.799 4.19,.741 4.91,1.85 6.57,4.933" transform="translate(-2078.9 -953.42)"/><path d="m-2229.7,809h1.64c8.48,1.413 20.16,1.238 26.31,3.289 6.33,1.469 13.95,4.538 18.09,8.221 6.65,7.382 9.26,12.74 18.08,16.444 7.4,4.315 14.86,5.888 23.03,8.221 7.59,3.202 12.6,5.624 18.08,8.222 7.81,3.994 14.04,8.476 23.02,9.866h23.02c7.7,0 12.64,.26 16.45-3.289l-16.45,3.289c7.7,0 12.64,.26 16.45-3.289" transform="translate(-2078.9 -953.42)"/><path d="m-2200.1,927.39h29.6 23.02c3.39,7.075 6.48,9.284 13.16,11.51 5.33,3.905 12.28,6.004 19.73,6.577h3.29" transform="translate(-2078.9 -953.42)"/><path d="m-2185.3,955.35c4.47-.919 17.27-4.287 26.31-4.933 9.62,0 14.8,2.073 19.73,6.577 5.04,3.425 7.99,6.602 14.8,9.866 7.27,2.511 14.62,3.289 23.02,3.289 .78,2.319 .48,1.644 3.29,1.644" transform="translate(-2078.9 -953.42)"/><path d="m-2163.9,988.23h29.6c5.9,2.794 10.77,3.151 13.15,9.865 6.82,5.741 9.83,9.501 19.73,9.871 3.81,1.97 11.83,1.64 18.09,1.64" transform="translate(-2078.9 -953.42)"/><path d="m-2085,1045.8h29.59c9.66,.98 16.51,.28 21.38,6.58 5.42,7.8 9.97,6.08 16.44,9.87 5.7,0 9.45,1.18 14.8,1.64" transform="translate(-2078.9 -953.42)"/><path d="m-2014.3,1091.8c4.25,.62 17.06,1.64 26.31,1.64 9.08,1.23 9.76,3.39 14.8,9.87 2.74,9.6 7.48,8.92 18.09,9.86 7.2,0 12.97-.53 18.09-1.64" transform="translate(-2078.9 -953.42)"/><path d="m-2149.1,762.96c.55,.548 1.09,1.096 1.64,1.644-3.73-3.731-1.93-2.363 1.65,6.578 .62,8.063 2.05,12.855 4.93,19.732 3.91,5.609 7.18,10.979 9.87,16.443 2.92,6.68 6.81,11.845 11.51,16.443 .69,2.087 1.2,2.593 3.28,3.289" transform="translate(-2078.9 -953.42)"/><path d="m-2114.6,769.54c.84,0 5.23,5.086 8.22,9.866 5.7,4.074 10.23,9.203 14.8,14.799 5.13,3.386 11.11,7.55 18.09,11.51 7.98,2.764 10.74,5.003 18.08,8.222 3.87,3.348 10.82,5.812 16.45,8.222 2.42,0 1.25-.388 3.29,1.644" transform="translate(-2078.9 -953.42)"/><path d="m-2076.8,753.1c-1.8,0 0,4.239 0,9.866 2.75,6.088 7.01,12.119 11.51,18.088 5.21,3.442 10.49,10.505 14.8,16.443 2.65,4.223 5.7,7.31 11.51,9.866" transform="translate(-2078.9 -953.42)"/><path d="m-2037.3,739.94c.06,5.876 1.62,16.938 3.29,26.31 2.86,6.823 4.98,11.276 6.58,18.087 1.03,6.853 3.62,12.832 8.22,18.088 3.77,4.78 10.23,9.499 16.44,11.51 6.35,2.719 10.81,4.826 19.73,4.933 6.56-.886 13-1.644 21.38-1.644h13.16" transform="translate(-2078.9 -953.42)"/><path d="m-1999.5,753.1c.14,5.279-1.4,10.768 4.93,14.799 2.13,6.659 6.84,14.364 11.51,21.376 4.17,5.286 9.96,9.137 18.09,9.866 5.77,1.339 14.5,2.639 21.38,4.933 6.24,4.06 12.78,10.903 21.37,13.155l-21.37-13.155c6.24,4.06 12.78,10.903 21.37,13.155" transform="translate(-2078.9 -953.42)"/><path d="m-1984.7,753.1c4.35,5.551 16.15,17.799 24.67,26.309 5.88,4.862 11.94,8.736 18.08,11.511 7.52,1.163 15.81,4.454 21.38,6.577 3.59,1.537 4.61,3.012 9.86,3.289" transform="translate(-2078.9 -953.42)"/><path d="m-1961.7,733.36c.55,.548 1.1,1.096 1.65,1.645-4.68-4.672-2.25-2.142 8.22,6.577 6.14,4.954 8.58,6.281 9.86,14.799 3.02,2.854 3.99,7.924 8.22,4.933-.52-9.732-5.03-13.119 3.29-8.222 3.03,6.332 6.75,11.464 11.51,14.799 3,3.173 6.52,4.743 13.16,4.933" transform="translate(-2078.9 -953.42)"/><path d="m-1790.7,955.35c4.13,.516 21.43,.566 29.6,3.289 7.35,1.312 14.84,1.644 23.02,1.644 8.32-.308 13.02-2.784 21.38,0 9.59,.738 10.67,3.031 18.08,9.866 6.11,4.141 8.73,8.81 13.16,16.443 1.94,1.254 14.26,8.828 4.93,3.289" transform="translate(-2078.9 -953.42)"/><path d="m-1798.9,915.88c5.51,2.905 18.24,10.319 24.66,14.799 8.63,1.917 11.11,4.661 19.74,6.577 8.8-.104 14.34-2.338 21.37-3.288 5.52-1.84 14.39-2.331 21.38,0 7.45,2.581 12.13,4.848 18.09,8.221 3.26,4.078 13.55,11.503 3.28,3.289-2.74-3.837-3.83-4.385-8.22-6.577" transform="translate(-2078.9 -953.42)"/><path d="m-1764.4,912.6c6.03,.172 21.04,2.167 31.24,3.288 6.88,2.293 15.55,2.755 23.02,3.289 8.66,1.546 15.09,2.11 21.38,6.577 4.43,2.981 10.56,8.747 14.8,13.155 9.3,4.031 3.64,2.989-3.29-3.289" transform="translate(-2078.9 -953.42)"/><path d="m-1739.7,897.8c6.48,0 16.65,1.448 26.31,3.288 3.82,4.619 9.98,5.905 18.09,8.222 5.73,1.4 9.92,4.725 16.44,8.222" transform="translate(-2078.9 -953.42)"/><path d="m-1616.4,1021.1l1.64-1.64c-3.62,3.62-2.4,1.79 6.58,0 9.97-2.69 19.28-3.77 29.6-1.65 8.04,0 15.89,.14 23.02-1.64 3.3-2.48 7.45-1.31 9.86-4.94 4.74-.83 4.58-4.61 4.94,0" transform="translate(-2078.9 -953.42)"/><path d="m-1611.4,1047.4c8.69-.44 26.41-1.55 36.18-8.22 6.37-1.94 12.67-5.53 19.73-6.58 8.38,0 15.17-1.08 23.02-1.64 9.47-.51 17.94-1.65 27.95-1.65h24.67c8.29,0 15.43,.74 23.02,1.65 6.47,1.13 14.19,4.91 18.09,8.22 5.84,1.27 12.44,1.88 18.08,0" transform="translate(-2078.9 -953.42)"/><path d="m-1442.1,1193.8c.55-.54 1.09-1.09 1.64-1.64-3.38,3.38-2.34,1.99 4.93-1.64 9.8,0 18.97-.48 27.96-1.65 8.59,.28 17.5,1.19 23.02,4.93 7.66,2.47 15.09,3.36 21.37,6.58 8.01,2.96 13.02,4.97 21.38,6.58 4.48,2.24 15.13,1.73 21.38,3.29 8.04,0 15.89,.13 23.02-1.65 8.55-1.83 13.37-4.8 21.37-6.57 5.35-5.16 12-8.15 19.74-9.87 3.18-3.85 7.65-8.33 11.51-11.51l-11.51,11.51c3.18-3.85 7.65-8.33 11.51-11.51" transform="translate(-2078.9 -953.42)"/><path d="m-1220.1,787.63c6.1-.419 18.58-2.761 26.31-6.577 6.46-1.821 14.22-5.025 18.09-8.222 6.51-1.777 10.7-4.02 18.09-6.577 6.89-4.925 14.68-9.035 18.08-13.155 9.14-4.185 11.31-6.836 14.8-14.799 1.86-2.481 .95-4.152 3.29-4.933" transform="translate(-2078.9 -953.42)"/><path d="m-1083.6,733.36c-.84,0-5.23,5.086-8.22,9.866-5.65,5.273-11.05,12.922-14.8,19.732-4.39,2.986-8.99,7.951-14.8,11.51-7.43,6.356-13,10.315-21.38,14.799-6.2,4.134-11.79,6.457-19.73,8.222-7.7,2.667-11.15,4.304-19.73,6.577" transform="translate(-2078.9 -953.42)"/><path d="m-1049.1,738.3c-.55,.548-1.1,1.096-1.64,1.644 4.12-4.126 2.12-2.248-4.94,6.578-5.63,5.145-11.9,12.179-14.8,16.443-4.66,3.108-12.7,11.297-18.08,14.799-7.3,6.078-14.09,8.026-19.73,13.155-8.1,3.121-13.17,6.542-21.38,9.866-4.69,2.222-11.82,3.87-16.44,6.577h-4.94" transform="translate(-2078.9 -953.42)"/><path d="m-1059,797.49c-.54,.548-1.09,1.096-1.64,1.644 3.9-3.904 2.04-2.309-3.29,6.577-5.89,4.086-8.52,7.957-14.8,11.511 0,2.192 .55,1.644-1.64,1.644" transform="translate(-2078.9 -953.42)"/><path d="m-988.24,769.54c0,.482-3.036,4.807-4.933,9.866-4.54,4.633-6.777,11.236-11.508,16.444-3.62,7.555-6.47,9.195-13.16,16.443-4.38,2.814-11.43,7.306-14.8,11.51-6.74,2.956-11,6.373-18.08,8.222" transform="translate(-2078.9 -953.42)"/><path d="m-1044.2,845.18c6.05-2.192 16.37-7.738 23.02-11.51 5.59-3.013 12.12-7.204 16.45-9.866 2.19-6.174 7.129-9.368 14.797-13.155 3.301-4.854 8.089-7.802 13.154-13.154 5.008-2.754 6.664-6.426 9.866-9.866" transform="translate(-2078.9 -953.42)"/><path d="m-1047.4,853.4c6.91-.059 19.93-.149 27.95-4.933 8.64-2.708 11.64-6.043 19.731-8.222 4.512-3.159 11.571-6.276 16.443-9.866l-16.443,9.866c4.512-3.159 11.571-6.276 16.443-9.866" transform="translate(-2078.9 -953.42)"/><path d="m-919.18,812.29c-3.606,5.99-11.343,19.205-19.732,24.665-3.205,3.879-11.489,7.529-16.444,11.51-5.166,2.447-12.761,5.717-19.732,9.866-7.788,1.669-13.168,3.716-19.731,6.577" transform="translate(-2078.9 -953.42)"/><path d="m-1050.7,897.8c5.66-2.389 16.06-8.195 24.66-11.511 4.1-2.047 8.2-1.644 13.16-1.644" transform="translate(-2078.9 -953.42)"/><path d="m-1012.9,907.66c.57,0 4.97-4.13 9.86-6.578 6.454-4.053 13.696-8.155 19.734-11.51 6.845-1.786 14.331-6.823 23.02-8.222 4.438,2.219 14.728,2.814 21.377,3.289h9.866" transform="translate(-2078.9 -953.42)"/><path d="m-991.53,920.82c7.102-.182 17.88-.319 24.665-4.933 5.422-.929 10.272-2.506 13.155-4.933" transform="translate(-2078.9 -953.42)"/><path d="m-1108.3,998.1c1.36,.072 9.17,1.584 13.15,3.291 5.72,2.86 8.51,6.15 14.8,9.86 5.45,4.78 12.54,6.27 21.37,6.58h23.03c9.67-.55 14.08-2.96 23.02-3.29 7.71,0 13.062-1.08 18.084-3.29" transform="translate(-2078.9 -953.42)"/><path d="m-1126.4,1017.8c6.77,.18 10.95,1.22 18.09,4.93 8.07,7.02 13.64,11.21 23.02,13.16 7.35,.56 12.64,1.64 21.37,1.64 8.05,0 15.9-.13 23.02,1.65 6.36,.18 8.03,1.64 14.8,1.64" transform="translate(-2078.9 -953.42)"/></g></g></g><g transform="matrix(.16872 0 0 .13815 268.17204 305.09885)"><g stroke-width="1.25"><g stroke="#2b2b2b"><path fill="#d40f0f" fill-rule="evenodd" fill-opacity=".996" d="m74.995,82.955c-1.044,0-2.2898,.0795-2.9067-.2906-1.1795-.216-1.9897-.6952-2.6161-1.4534-1.0782-.7478-1.4231-1.4412-2.3254-2.3254-.2902-1.064-.8215-1.887-1.4534-2.6161 .0198-1.6461 .3092-2.2353 .872-3.1975 1.3743-.4757 1.9177-.8599 3.4881-1.1627 .7562-.5141 1.9578-1.0248 2.9068-1.4534-.436-.7378-.8948-1.1826 0-2.0347 .7358-.7016 1.5742-1.2554 2.9068-1.4534 1.4797,.1345 1.8216,.6959 2.6161,1.4534 1.4223,0 2.8095-.0243 4.0694,.2907 1.1716,.3195 1.9089,.7216 3.1975,1.4534 1.1806,.3935 1.7265,.784 2.3254,2.0347 .9351,.9091 .316,1.5134 .2907,2.9068-.162,1.9201-.7909,1.79-1.7441,2.6161 1.3159,.6736 2.3169,.8178 3.7788,.872h4.0695 4.0695c1.3645-.3722 1.5475-.8172 2.0345-2.0347 .368-.9191 .881-2.1164 1.163-3.1975 .644-.7437 .98-1.6941 1.744-2.3254 .524-1.095 1.197-1.946 2.035-2.6161 .818-1.1858 1.522-1.7054 2.616-2.3254 .903-1.0584 1.703-1.4032 0-1.4534-1.389,.2439-1.977,.9201-3.488,1.1627-.292-.7303-.235-1.6686 .29-2.3254 .383-1.4451 1.13-2.2463 1.454-3.4882 .678-.7826 .905-1.8443 1.453-3.1974-.097-1.267-.339-2.3743-.581-3.4881-.406-1.0138-.582-1.9066-.582-3.4881 .292-1.2376 .568-1.9835 1.454-2.6161 .537-.9661 1.133-1.4637 2.325-2.0348 .583-.8165 1.396-1.2793 2.326-1.7441 .653-.7904 1.42-1.2405 2.034-2.3253 .362-1.0203 .71-1.9968 .872-3.1975 .407-.8129 .538-2.5405 .582-3.7788-.019-1.5433-.195-2.3781-.872-3.1974-.361-.903-.642-2.141-1.163-2.9068 0-1.5815 .176-2.4743 .581-3.4881 .31-1.5488 .291-1.9473 .291-1.1627v-.2907c1.662,.9784 2.116,1.3811 4.07,1.4534 .815,0 1.34-.0824 2.034-.2907 1.652,.1785 2.271,.1844 2.326-1.7441 .258-1.0351 .49,.3546 .581,.8721 .643,1.286 .694,.4684 1.453-.2907 .477-1.4285 1.011-.6004 2.035-.2907 .116-.3486 .493-.4933 .872-.872 .218,1.0901 .539,1.9987 1.454,2.3254 1.467-.2686 1.544-.8517 1.744-2.3254 1.039-.215 1.121-.5439 1.162,.872 .767,.1585 1.378,.4926 2.035,0 .258-.6456 .555-1.2068 .872-1.744 .378,1.7023 .513,1.9675 2.326,2.0347 .586-.5544 .837-.8715 .872-2.0347 .658,.7969 1.49,1.3262 2.906,1.4533 1.171,.1098 1.016,.5428 2.326,.5814 .332,.7024 .483,1.9553 1.162,2.6161 1,.6424 2.352,.8685 2.907,.5814 0-.8088-.109-1.6346 .291-2.0348 1.138-.3794 2.128-.0887 3.197,.2907 1.474,.402 1.454,.7521 1.454,2.6161-.101,1.4043-.272,2.7618-.872,3.4881-.236,1.0858-.265,2.5925-.872,3.7788-.502,1.6242 .431,1.7131 .581,3.4881 .234,.9819-.273,2.281-.291,3.7788 .02,1.6126-.006,2.4112 1.163,2.9068 .671,.9887 1.494,1.477 2.325,2.3254 .986,1.1285 1.43,1.6323 2.035,2.6161 1.053,1.2058 1.206,1.7172 2.035,2.9067 .485,.9697 .936,1.6729 1.453,2.9068 .35,1.048 .235,2.4108 0,3.4881-.931,.7342-1.396,1.5923-1.453,3.1975-.41,.8201-.499,2.4157-.581,3.4881 .284,1.2088 .875,2.0061 1.453,2.9068 .606,.7573 1.603,1.5433 2.325,2.0347 .636,.7333 1.079,1.6279 1.744,2.3254 .383,1.2586 .852,1.8234 .872,3.4882 .243,1.1137 .484,2.221 .582,3.4881 .676,.6388 .594,.872 2.035,.872 .894,.5232 1.992,.5814 3.488,.5814 1.3,.1 2.234,.2906 3.778,.2906 1.184,0 2.42-.0062 3.198-.2906 .607-.9522 .951-2.5798 1.453-3.4881 .098-1.267 .34-2.3744 .582-3.4882 .685-.7185 1.191-1.4616 2.034-2.0347 1.202-.617 1.964-.8156 3.489-.872 1.408,.399 2.375,.7773 3.197-.2907 1.128-.3078 1.833-.5814 3.488-.5814 1.722-.4304 2.179-.1983 2.907,.8721 .238,1.0938 .47,2.3493 .872,3.1974 .661,.4494 1.693,1.1808 2.325,1.7441 .408,.8605 .582,1.4738 .582,2.9068 .523,.8729 .122,1.8907 0,2.9067-.684,.7169-1.21,1.517-2.035,2.3254-.354,.4321-.776,.7525-1.453,.8721l.581,.5813-10.17,10.172-106.09-.872-4.945-12.208z" transform="matrix(7.6403 0 0 8.9872 -395.54 -872.9)"/><g fill="none"><path d="m129.93,29.47c.096,.0969 .193,.1937 .29,.2906-.73-.73-.373-.3936 .872,1.1628v4.0695c0,1.6547 .274,2.3596 .582,3.4881 .397,.3253 .474,.8374 .872,1.1627" transform="matrix(7.6403 0 0 8.9872 -395.54 -872.9)"/><path d="m138.65,29.761v.2907c0-.8558 .05-.3737-.872,1.1627-.586,1.3446-.581,2.1522-.291,3.4882 .307,.9196 .291,2.4385 .291,3.7788-.155,.4652-.136,.1161-.291,.5813" transform="matrix(7.6403 0 0 8.9872 -395.54 -872.9)"/><path d="m144.76,37.318h-.291c.856,0 .374-.0496-1.162,.8721-1.293,.8124-1.789,1.2411-3.198,1.4534-.947,.9283-1.503,1.1423-3.197,1.1627-.137,.4099-.085,.2907-.582,.2907" transform="matrix(7.6403 0 0 8.9872 -395.54 -872.9)"/><path d="m137.78,42.551v.2907c.383-.1439 1.727-.5149 2.325-.5814 .728-.6016 1.907-.8382 2.616-1.4534 1.116-.1439 .758-.5438 2.035-.5814l-2.035,.5814c1.116-.1439 .758-.5438 2.035-.5814" transform="matrix(7.6403 0 0 8.9872 -395.54 -872.9)"/><path d="m142.14,43.713c.496,0 2.54,.0847 3.488,.2907h1.453" transform="matrix(7.6403 0 0 8.9872 -395.54 -872.9)"/><path d="m108.42,50.399h.291c-.785,0-.382,.0182 1.163-.2907 1.301-.1001 2.38-.3316 3.779-.5814 1.553-.3885 2.17-.3921 3.197-1.4534 1.164-.7763 1.548-1.4547 1.744-2.9068 .202-.9283 .326-2.0299 .872-2.616" transform="matrix(7.6403 0 0 8.9872 -395.54 -872.9)"/><path d="m121.21,46.33v.2907 1.1627c0,1.4955 .058,2.5936 .582,3.4881 .597,1.2485 .973,1.7946 2.034,2.3255 .963,.3849 1.945,.7777 2.907,1.1627h.872" transform="matrix(7.6403 0 0 8.9872 -395.54 -872.9)"/><path d="m128.48,53.306h.291 1.163c2.154,0 4.021,.2317 6.104,.2907h4.069c1.431-.0512 2.579-.2907 4.07-.2907h2.906" transform="matrix(7.6403 0 0 8.9872 -395.54 -872.9)"/><path d="m121.79,43.423h.29 1.163c1.203-.401 2.817-.3575 4.069-.5812 .517,.2783 .875,.6237 1.454,.8719" transform="matrix(7.6403 0 0 8.9872 -395.54 -872.9)"/><path d="m122.96,39.353h.291c-.784,0-.387-.0194 1.163,.2907 .718,.6222 1.426,.9835 2.616,1.1627" transform="matrix(7.6403 0 0 8.9872 -395.54 -872.9)"/><path d="m123.83,36.446h.291c-.784,0-.387-.0194 1.163,.2907 .748,.7635 1.947,1.4771 2.616,2.3254 .636,.3761 1.017,.8296 1.744,1.1627" transform="matrix(7.6403 0 0 8.9872 -395.54 -872.9)"/><path d="m115.69,53.887v.2907c0-.8556-.049-.3737 .872,1.1627 .097,1.3553 .211,2.9173 .872,3.7788 .192,1.414 .234,1.7996-.29,2.9068-.452,1.0163-1.033,2.319-1.744,2.9068-.581,.8535-1.443,1.206-2.035,2.0347-.758,.5305-1.529,1.5823-2.035,2.3254-1.113,1.2406-1.359,1.9594-2.325,2.6161-.374,1.1208-.909,1.664-1.454,2.9068-.872,1.0285-1.513,2.0237-2.034,3.1975-.408,.951-.465,2.5563-.872,3.7787v.8721" transform="matrix(7.6403 0 0 8.9872 -395.54 -872.9)"/><path d="m112.49,80.048v-.2906-1.1627c0-1.4661 .131-2.7281 .291-4.0695 .445-1.0387 .877-2.2025 1.162-3.4881 .598-.8793 .852-1.7804 1.454-2.9068 .31-1.1364 .889-2.0175 1.744-2.6161 .364-1.0919 .827-1.7343 1.453-2.9067 .457-.9308 1.373-2.0699 1.744-3.4882 .444-.5273 .606-1.393 .872-2.3254" transform="matrix(7.6403 0 0 8.9872 -395.54 -872.9)"/><path d="m123.83,58.247v.2906c0-.8123 .036-.3805-.581,1.1628-.447,1.2458-1.14,2.2858-1.453,3.4881-.605,1.3014-1.014,2.7017-1.454,4.0695-.232,1.2993-.29,2.6235-.29,4.0695v4.0694c0,1.4873-.274,2.603-.291,4.0696-.371,.7414-.51,1.5245-.291,1.744" transform="matrix(7.6403 0 0 8.9872 -395.54 -872.9)"/><path d="m127.03,59.41c-.275,0-.166,.7432-.291,1.7441-.105,1.3707-.291,2.4173-.291,4.0694-.295,1.3789-.704,2.5414-.872,3.7788-.409,1.3821-.813,2.1414-.872,3.7788 .595,.8749 1.348,1.5016 1.744,2.9068 .47,.9567 1.018,1.9385 1.454,3.1975 0,1.5776 .272,2.2533 .29,3.7788 0,.7171-.056,1.166 .291,1.744" transform="matrix(7.6403 0 0 8.9872 -395.54 -872.9)"/><path d="m132.84,61.445v.2907c0-.8124 .036-.3805-.581,1.1627-.92,1.2459-1.503,2.334-2.035,3.1975-.442,1.376-.943,2.6887-.581,4.0695 .095,1.3318 .345,2.9114 .872,3.7787 .053,1.4283 .291,2.1979 .291,3.7789 .1,1.2999 .29,2.2345 .29,3.7787 0,1.1834-.006,2.42-.29,3.1975-.547,.2342-.407,.4974-1.163,.5814" transform="matrix(7.6403 0 0 8.9872 -395.54 -872.9)"/><path d="m129.06,54.468c-.366,0 .169,.7776 .29,1.7441 .402,.6695 .291,2.0896 .291,3.1974" transform="matrix(7.6403 0 0 8.9872 -395.54 -872.9)"/><path d="m134.29,55.34h.29c-.911,0-.366-.0603 1.163,1.1628 .217,.9987 .436,2.1212 .581,3.1974" transform="matrix(7.6403 0 0 8.9872 -395.54 -872.9)"/><path d="m140.4,54.468v.2907 1.1627c.299,1.3942 .581,2.4822 .581,4.0694l-.581-4.0694c.299,1.3942 .581,2.4822 .581,4.0694" transform="matrix(7.6403 0 0 8.9872 -395.54 -872.9)"/><path d="m143.88,54.759h.291c-.856,0-.374-.0497 1.162,.872v.8721" transform="matrix(7.6403 0 0 8.9872 -395.54 -872.9)"/><path d="m142.14,61.735h-.291c.911,0 .352-.0759-.872,1.4534-.459,.9185-1.003,1.6661-1.453,2.6161-.533,.9866-.737,1.4874-.872,2.6161" transform="matrix(7.6403 0 0 8.9872 -395.54 -872.9)"/><path d="m137.2,62.317c-.168,0-.508,.9079-1.162,1.4534-.259,1.1899-.563,1.9558-.582,3.4881 0,1.8849 .351,2.2033 1.163,3.4881 .682,.7872 1.055,1.5065 1.163,2.9068v4.0695 4.0694c-.201,1.3352-.573,1.9872-1.454,2.6161-1.115,.7264-1.256,.1844-2.034-.872-.272-.8971-.653-1.3159-.872-2.3254" transform="matrix(7.6403 0 0 8.9872 -395.54 -872.9)"/><path d="m144.76,61.735v.2907c0-.7848 .019-.3854-.291,1.1627-.529,1.3091-1.299,2.5824-1.744,3.4881-.405,1.0138-.581,1.9067-.581,3.4882 .244,1.364 .529,2.6104 .581,4.0694 0,1.5952-.395,2.5304-.581,3.7789-.57,1.0813-1.069,2.4401-1.744,3.1974-.155,.465-.136,.1162-.291,.5813" transform="matrix(7.6403 0 0 8.9872 -395.54 -872.9)"/><path d="m148.24,58.538v.2907c0-.8126 .036-.3805-.581,1.1627-.103,1.4462-.419,2.5734-.582,3.7789-.384,.8974-1.056,2.5954-1.453,3.4881-.601,.9773-.872,1.447-.872,3.1974 .601,1.03 1.523,1.9438 2.616,2.3254 .447,.9438 .641,2.0004 1.163,3.1975 .102,1.4326 .415,2.6691 .581,4.0694v1.1628" transform="matrix(7.6403 0 0 8.9872 -395.54 -872.9)"/><path d="m151.44,60.863l-.291,.2907c.64-.6401 .317-.4247 0,1.1627 0,1.4825-.192,2.6825-.291,4.0694-.518,1.0375-.995,2.2467-1.162,3.4882 .252,1.3813 .907,1.6865 2.034,2.3254 .676,.6446 1.656,1.1997 2.616,1.744 1.086,.6331 1.831,1.3509 2.617,2.3255 .866,1.0739 1.409,1.3101 2.034,2.6161 .167,1.2347 .555,2.4024 .291,3.4881 0,.3878 .097,.2907-.291,.2907" transform="matrix(7.6403 0 0 8.9872 -395.54 -872.9)"/><path d="m153.48,54.178h.291c-.911,0-.35-.0742 .872,1.4534 .315,1.2599 .291,2.6472 .291,4.0695 .556,.8181 .773,1.9069 .872,3.1974 .306,.9196 .29,2.4386 .29,3.7788-.097,1.1337-.459,1.8347 0,2.9068 1.263,.7639 2.139,1.6084 2.907,2.3254 1.069,.5343 1.492,1.0015 2.326,2.0347 .529,.9338 1.14,1.92 1.744,2.6162 .232,1.2993 .29,2.6235 .29,4.0694 0,1.7069 .053,2.545-.872,3.4882-.44,0-.927,.0783-.29,.2906" transform="matrix(7.6403 0 0 8.9872 -395.54 -872.9)"/><path d="m149.41,42.26v.2907 1.1626c.205,1.3806 .858,2.2958 1.744,3.1975 .543,.7988 1.236,1.4916 2.035,2.0348 1.122,.3811 1.53,.5813 2.906,.5813" transform="matrix(7.6403 0 0 8.9872 -395.54 -872.9)"/><path d="m152.9,50.98h.291c-.785,0-.388-.0193 1.162,.2907 .983,.4916 1.475,1.1653 2.326,1.7441 .246,.9035 .598,2.3654 1.163,3.1975 .207,1.1615 .38,2.2511 .872,2.9067" transform="matrix(7.6403 0 0 8.9872 -395.54 -872.9)"/><path d="m127.9,44.295v.2907 1.1627c.835,.7242 1.55,.872 3.197,.872 1.3,.1 2.235,.2907 3.779,.2907h4.07c1.553,0 1.869,.0232 2.325-1.4534 .596-.8093-.194-1.0887-.581-1.7441l.581,1.7441c.596-.8093-.194-1.0887-.581-1.7441" transform="matrix(7.6403 0 0 8.9872 -395.54 -872.9)"/><path d="m166.56,84.699h.291c-.912,0-.367-.0603 1.162,1.1627 .18,.8696 .548,1.3271 .872,2.0347" transform="matrix(7.6403 0 0 8.9872 -395.54 -872.9)"/></g></g><path stroke="#000" fill-rule="evenodd" d="m83.424,73.072h-.2907c.8557,0 .3734-.0497-1.1627,.872-.8552,.5986-1.4342,1.4798-1.7441,2.6162-1.0144,.6762-.4414,1.1251 .872,1.1627 1.7394-.021 2.1943-.1947 3.1975-1.1627 .7046-.5285 1.1501-1.3776 .5813-2.3255l-.581,2.325c.7046-.5285 1.1501-1.3776-.872-3.4882z" transform="matrix(7.6403 0 0 8.9872 -395.54 -872.9)"/><g fill="none" stroke="#2b2b2b"><path d="m171.21,85.571v.2906c0-.7845-.019-.3859 .29,1.1627 .155,.36 .263,.6595 .582,.872" transform="matrix(7.6403 0 0 8.9872 -395.54 -872.9)"/><path d="m174.12,85.28v.2907 1.1627c.509,.6898 .963,1.5077 1.454,2.0347" transform="matrix(7.6403 0 0 8.9872 -395.54 -872.9)"/><path d="m177.02,86.152v.2907c0-.8556-.05-.3739 .872,1.1626 .123,.3689 .213,.4584 .582,.5814" transform="matrix(7.6403 0 0 8.9872 -395.54 -872.9)"/><path d="m86.912,84.99v.2907 1.1627c-.2167,1.0832-.8977,1.8281-1.4534,2.3254l1.4534-2.3254c-.2167,1.0832-.8977,1.8281-1.4534,2.3254" transform="matrix(7.6403 0 0 8.9872 -395.54 -872.9)"/><path d="m90.11,85.862v.2907 1.1627c-.4179,.597-.6574,.9462-1.1627,1.1627" transform="matrix(7.6403 0 0 8.9872 -395.54 -872.9)"/><path d="m92.726,85.28v.2907 1.1627c-.0713,.7128-.3885,1.1011-.5813,1.744" transform="matrix(7.6403 0 0 8.9872 -395.54 -872.9)"/><path d="m96.505,84.699h.2907c-.0774,.1934 0,1.2975 0,2.0348-.3143,.5835-.7759,.6899-1.1627,1.1626" transform="matrix(7.6403 0 0 8.9872 -395.54 -872.9)"/></g></g><g fill="#2b2b2b" fill-rule="evenodd"><path d="m116.56,25.982h-.29c.101,.2714 .407,1.6278 .581,2.0347 .804,.5745 1.226,1.4832 1.744,2.3254 .724-.8356 .872-1.5498 .872-3.1974-.386-1.1166-1.559-1.0043-2.907-1.1627z" transform="matrix(7.6403 0 0 8.9872 -395.54 -872.9)"/><path d="m150.57,27.145c-.085,0-.85,.5366-1.744,.872-.216,1.5944-.12,1.7672 .581,2.9068 1.388-.1069 1.419-.4193 1.744-1.7441 .642-.8565 .191-.6616-.581-2.0347z" transform="matrix(7.6403 0 0 8.9872 -395.54 -872.9)"/></g><g stroke-width="1.25"><g fill="none" stroke="#2b2b2b"><path d="m144.18,31.505h-.291-.872c-1.55-.2768-2.404-.3673-3.488,.5814-.334,1.2472-.515,2.2568 .291,2.9068 .989,.2419 1.575,.6459 2.616,.872 .561-.9116 1.018-1.5745 1.744-2.6161 .671-.2238 .192-.7208 0-1.7441v1.7441c.671-.2238 .192-.7208 0-1.7441" transform="matrix(7.6403 0 0 8.9872 -395.54 -872.9)"/><path d="m129.35,31.505c-.097-.0969-.194-.1938-.29-.2907 .659,.6594 .419,.3421-1.163-.2906-1.34,0-2.859-.0159-3.779,.2906-.365,.7302 .441,1.2773 1.163,1.7441 .799,.5432 1.491,1.236 2.034,2.0348 .808,.5936 .984,1.4263 2.035,1.744 .47-.9918 .877-1.7119 1.163-3.1974-.183-.5477-.664-1.1482-1.163-2.0348z" transform="matrix(7.6403 0 0 8.9872 -395.54 -872.9)"/></g><g fill-rule="evenodd"><g stroke="#000"><path d="m78.192,71.618c-.336,0-2.424-.0187-3.1975,.2906-.8025,1.2483-.6344,1.9359 .2907,2.6161 .2427,1.6108 .778,1.6785 2.6161,1.7441 .7719,.5789 1.5061,.3705 1.7441-.5814 .4973-.8288 .2569-1.7372-.2907-2.3254 0-.9111 .0605-.215-1.1627-1.744z" transform="matrix(7.6403 0 0 8.9872 -395.54 -872.9)"/><path d="m72.088,77.141h-.2907c.8125,0 .3265-.0895-.2907,1.4534 0,.8981-.0745,1.8385 .2907,2.3254 1.044,0 2.2898,.0795 2.9068-.2907 .4795-1.2787 .5529-2.2379-.5814-2.616-.3844-.5766-.989-.5685-2.0347-.8721z" transform="matrix(7.6403 0 0 8.9872 -395.54 -872.9)"/><path d="m83.134,80.629h-.2907-1.1627c-.6136,.5299-1.3657,1.1699-1.7441,2.0348 1.2169,.3318 1.5751,.9937 2.3255,1.744 1.896-.0228 2.1633-.1129 2.3254-2.0347 0-1.1355 .0424-.4476-1.4534-1.7441z" transform="matrix(7.6403 0 0 8.9872 -395.54 -872.9)"/><path d="m182.25,82.083h-.29-1.163c-1.363,.4409-1.622,.9112-1.744,2.6161 .853,.5153 1.938,1.1144 3.197,1.4534 .91,.5322 2.122,.7463 3.489,.2907 .566-.9203 1.031-1.1697 1.162-2.6161-.996-.3033-2.545-.9005-3.197-1.4534l3.197,1.4534c-.996-.3033-2.545-.9005-4.651-1.7441z" transform="matrix(7.6403 0 0 8.9872 -395.54 -872.9)"/><path d="m185.16,75.107h-.291c.912,0 .352-.076-.872,1.4534-.308,1.4199-.059,1.9562 .582,3.1974 1.287,.6343 1.416,1.6088 2.616,2.0347 .558,.5583 .291-.7515 .291-1.4534 .247-1.5386 .753-1.9498 .872-3.4881-.267-1.0887-.616-1.6838-1.744-2.0347l1.744,2.0347c-.267-1.0887-.616-1.6838-3.198-1.744z" transform="matrix(7.6403 0 0 8.9872 -395.54 -872.9)"/><path d="m191.85,75.979h-.291c.911,0 .351-.0758-.872,1.4534-.562,.9263-.581,2.3284-.581,3.7788 .48,1.2957 1.187,.4955 1.744-.2907 .985-.6703 1.391-.9404 1.453-2.6161 0-1.3725 .016-.7579-1.453-2.3254z" transform="matrix(7.6403 0 0 8.9872 -395.54 -872.9)"/><path d="m195.92,80.048h-.29c.784,0 .387-.0193-1.163,.2907-.965,1.1057-1.697,1.675-2.035,3.1975 1.363,.2962 2.249,.0918 3.779-.2907 .624-1.3625 .692-1.0972-.291-3.1975z" transform="matrix(7.6403 0 0 8.9872 -395.54 -872.9)"/></g><path d="m127.74,32.473h-.103-.411c-.202,.2699-.089,.5578 .103,.8222 .106,.3527 .062,.4882 .411,.6166 .249,.2973 .591,.448 1.028,.5138 .709-.0645 .437-.2459 .308-.7194-.239-.2758-.232-.5654-.617-.7193-.111-.1675-.434-.321-.719-.5139z" transform="matrix(10.1 0 0 11.729 -711.28 -965.51)"/><path d="m141.51,32.679c-.081,.0171-.525,.2038-.719,.3083-.33,.392-.451,.5184-.309,.9249 .341,.1364 .726,.2478 1.234,.3083 .503-.0969 .486-.3399 .514-.8222-.109-.2544-.365-.4103-.72-.7193z" transform="matrix(10.81 0 0 14.39 -842.28 -1054.2)"/><path d="m38.66-669.61v.29 1.163c.3308,1.406 .3675,1.883 2.0347,2.035h4.0695 4.0695 4.0695c1.2785-.12 1.1627-.407 1.1627-1.744 .1913-.298-.1467-1.228-.5814-1.744-1.1495,.408-1.4334,1.465-2.9068,1.744-1.6749,0-2.4619,.018-3.1974-.872-.8359-.541-.9197-1.612-1.7441-.582-.9386,.567-1.8147,.872-3.4881,.872-1.7759,0-1.8023-.196-3.4881-1.162z" transform="matrix(8.4681 0 0 10.301 240.03 6456.7)"/></g></g><path fill="none" stroke="#2b2b2b" stroke-width="1.109" d="m42.73-676.01h.2907c-.9108,0-.3681-.062 1.1627,1.163 .1229,.696 .2907,.847 .2907,1.744" transform="matrix(8.4681 0 0 10.301 238.56 6449.1)"/><g fill-rule="evenodd"><path stroke-width="1.109" d="m42.439-673.68h-.2907c.0841,.21 .1473,1.314 .2907,1.744 1.4528,0 .7726-.244 0-1.744z" transform="matrix(21.986 0 0 13.678 -336.34 8719.8)"/><path stroke-width="1.591" d="m49.415-673.97h-.2906c.8125,0 .3801-.036-1.1628,.581-.5569,.786-1.3769,1.166-.2906,2.035 1.2062,.068 1.8146,.29 3.1974,.29v-2.034 2.034c0-.678 0-1.356-1.4534-2.906z" transform="matrix(5.3102 0 0 7.9857 382.26 4894.3)"/></g><path fill="none" stroke="#2b2b2b" stroke-width="1.109" d="m48.834-675.72h-.2907c.7844,0 .3874-.02-1.1627,.29-.3037,.514-.7368,1.051-1.1627,1.454" transform="matrix(8.4681 0 0 10.301 237.82 6449.1)"/></g><g stroke-width="1.25"><g stroke="#2b2b2b"><g transform="matrix(.16872 0 0 .13815 268.17204 305.09885)"><path fill="#d40f0f" fill-rule="evenodd" fill-opacity=".996" d="m81.971,123.07c-.6383,0-3.0226,.044-4.3602-.29-1.6347,.06-1.956,.533-3.1974,.872-1.4283-.053-2.1979-.291-3.7788-.291-1.1364-.613-1.9319-1.105-3.4881-1.163-1.1597-.156-2.2974-.29-3.7788-.29-1.6946,.02-2.3073,.525-3.4882,1.162-.5413,.796-1.2353,1.542-2.0347,2.326-.6396,.94-1.1996,1.342-2.3254,2.325-.6169,.907-1.2597,1.361-1.7441,2.907 0,1.34-.0158,2.859 .2907,3.779 .1905,1.409 .5356,2.117 .5814,3.778 0,1.527-.1013,2.769-.5814,4.07-.3207,1.443-.8731,2.345-1.4534,3.779-.3049,.915-.4908,2.511-.5813,3.779 .2133,1.214 .7992,2.39 1.1627,3.778 .3514,1.406 .6363,2.617 1.1627,3.488 .3387,1.121 .8429,1.017 .872,2.616 0,1.578 .2723,2.254 .2907,3.779 .434,.868 .6407,2.289 .872,3.488 .6913,.84 .8647,1.729 2.0348,2.326 .2498-1.399 .4812-2.477 .5813-3.779 .1679-.94 .2197-2.595 .5814-3.197 .3173,1.163 .8453,1.743 1.1627,2.906 .5559,.673 1.0347,1.98 1.4533,2.907 .597,.163 .5814-.055 .5814-1.163 .3422-1.026 .5343-2.213 .872-3.488v-1.162c.7189,.828 1.2109,1.966 1.7441,2.906 .5462,.804 1.1071,1.63 2.0347,2.326 1.3979,.329 1.1627,.002 1.1627-1.454v-4.069c.0606,1.635 .5335,1.956 .8721,3.197 .682,.682 1.0047,1.269 2.3254,1.454 .5743-.933 1.1736-1.425 1.744-2.616 0-1.603 .1256-2.526 .5814-3.488 .8656-1.074 1.2522-1.46 2.3254-2.326 1.1324-1.01 2.2106-2.012 3.4881-2.616 .7152-1.031 1.5618-1.705 2.6161-2.616 1.1817-1.095 2.1776-2.384 2.9068-3.779 .8468-.847 1.6221-2.283 2.0347-3.779 .7745-1.214 1.026-2.623 1.1627-4.36 .6214-1.418 1.1567-2.802 1.4534-4.36 0-1.563-.1253-2.846-.2906-4.069-.7201-1.21-1.1969-2.684-1.7441-3.489-.3433-1.076-1.1643-2.38-1.4534-3.488-.7454-1.395-.6723-1.87-2.6161-2.034-.9137,0-.7837-.113-2.0347-.582z" transform="matrix(7.3319 0 0 9.2267 -349.45 -896)"/><g fill="none"><path d="m55.519,129.46v.291c0-.785-.019-.386 .2907,1.162 .1567,1.16 .2906,2.298 .2906,3.779 0,1.482 .134,2.619 .2907,3.779 .1447,1.206 .4033,1.857 1.4534,2.616" transform="matrix(7.3319 0 0 9.2267 -349.45 -896)"/><path d="m58.426,136.44c.205,0 .313,.895 .872,1.454 .2939,1.078 .82,2.19 1.4534,3.488 .2863,1.485 .6928,2.205 1.1627,3.197 .2728,.682 .3765,1.567 .872,2.035v-4.069-4.07c-.2657-1.488-.5699-2.419-.872-3.779v-1.744" transform="matrix(7.3319 0 0 9.2267 -349.45 -896)"/><path d="m63.949,137.31c.0545,.6 .4479,2.522 .872,3.489 .3881,1.018 .8516,2.212 1.4534,2.906 .1228,.696 .4168,1.044 .8721,1.744 1.0033-.809 1.76-1.455 2.0347-2.906 .4401-1.027 .7723-2.192 .872-3.489 .1033-1.446 .4185-2.573 .5814-3.778 0-1.524-.0016-2.636-.5814-3.488l.5814,3.488c0-1.524-.0016-2.636-.5814-3.488" transform="matrix(7.3319 0 0 9.2267 -349.45 -896)"/><path d="m71.506,139.35v.291c0-.785-.0189-.386 .2907,1.163 .2093,.962 .2907,2.156 .2907,3.488-.3157,.21-.4347,.82-.5814,1.162" transform="matrix(7.3319 0 0 9.2267 -349.45 -896)"/><path d="m74.123,134.99v.291 1.162c0,1.271 .1204,2.957-.2907,3.779 0,1.482-.1339,2.619-.2907,3.779 .3837,1.918 .7069-.112 .8721-.872 .349-.916 .7158-2.434 1.1627-3.198 .1807-1.517 .5265-2.299 .5813-3.778 .2944-1.178 .2907-2.443 .2907-3.779" transform="matrix(7.3319 0 0 9.2267 -349.45 -896)"/><path d="m78.192,128.88c.1012,0 .8787,.73 1.744,1.163 .202,1.34 .6846,1.809 .8721,3.197v1.453" transform="matrix(7.3319 0 0 9.2267 -349.45 -896)"/><path d="m77.901,126.85c.3731,.156 1.7289,1.101 2.3254,1.453 .7974,.08 1.0787,.116 1.1627,.872" transform="matrix(7.3319 0 0 9.2267 -349.45 -896)"/><path d="m77.611,125.1h.2907 1.1627c.6964,.077 .6348,.291 1.4534,.291" transform="matrix(7.3319 0 0 9.2267 -349.45 -896)"/></g></g><g fill="#d30f0f" fill-rule="evenodd" fill-opacity=".996" transform="matrix(1.23704 0 0 1.27467 209.00194 182.19094)"><path d="m186.32,126.27h-.291-1.163c-1.3,.238-1.723,.858-2.325,1.744l2.325-1.744c-1.3,.238-1.723,.858-2.325,1.744"/><path d="m186.9,124.52c-.097-.097-.194-.194-.29-.291 .64,.64 .424,.317-1.163,0-.972-.201-1.063-.201-2.035,0"/><path d="m184.29,122.49h.291 1.163c1.759,.141 3.182,.56 4.941,.581 1.466,0 2.728-.131 4.069-.29 .823-.412 2.509-.291 3.779-.291 1.655,0 2.413,.177 3.779,.581 .994,.259 2.576,.772 3.488,1.163 .958,.453 1.866,.78 2.907,1.453 1.113,.755 1.392,1.239 1.453,2.907-.155,1.15-.344,2.453-.581,3.779 .102,1.433 .415,2.669 .581,4.069 .315,1.26 .291,2.648 .291,4.07-.223,1.077-.694,.997-1.163,2.035 .819,.54 1.822,1.584 2.326,2.325 .243,1.364 .529,2.611 .581,4.069 0,1.631-.038,2.532-.581,3.779-.379,1.406-.832,1.999-1.163,3.488-.249,1.145-.729,2.315-1.163,3.198-.481,.707-.812,2.278-1.162,3.197-.182,1.384-.627,2.701-1.163,3.488-.296,1.085-.443,1.898-1.453,2.326-.865-.216-.582-.776-.582-1.744 .207-1.159 .326-2.016 0-2.907-.951-.224-1.015,.454-1.453,1.744-.617,.663-.654,1.518-1.454,2.035-.992,1.201-1.342,.777-2.034-.872 0-1.545-.191-2.479-.291-3.779-.156-1.876-.337,1.047-.581,1.453-.329,1.48-.835,1.993-1.163,3.198-1.195,.437-1.654,.426-1.744-1.163 .232-1.299 .291-2.623 .291-4.069-.73-.842-.783-.179-1.163,.581-.064,1.721-.497,1.928-1.163,2.907-.971,.574-.747,.582-1.163-.872-.462-1.102-.803-1.518-1.744-2.035-.835-.724-1.549-.872-3.197-.872-1.519-.056-2.259-.552-3.488-.872-1.16-.332-2.288-.587-2.907-1.163-.552-.812-1.348-1.857-2.035-3.197-.749-1.368-1.105-2.227-1.162-3.779-.25-1.396-.414-2.935-.582-4.36-.329-1.977-.816-4.129-1.162-6.104-.501-1.557-.988-2.929-1.163-4.651-.578-1.277-.896-2.666-1.163-4.07 0-1.34-.016-2.859 .291-3.778 .554-1.075 1.189-1.801 1.744-2.617 .818-1.014 1.358-1.754 2.616-2.616 .649-.775 1.93-1.303 2.907-1.744 .657-.281 1.104-.366 2.325-.581z"/><path d="m187.2,129.46v.291c0-.856 .083-.341-1.453,.581-.794,.756-1.504,1.015-2.326,2.035-.186,.435-.557,.791 0,1.163"/><path d="m186.9,132.66v.29c0-.784-.019-.386 .291,1.163 .051,1.377 .291,2 .291,3.488-.535,.891-.221,2.137 .29,3.198 .456,1.269 1.035,2.151 1.454,3.197 .62,.207 .29-.223 .29-1.163-.376-1.129-.224-2.592 0-4.069v-3.488"/><path d="m194.75,132.08h-.29c.812,0 .326-.089-.291,1.454v4.069c-.306,.92-.291,2.439-.291,3.779-.309,1.425-.515,1.846 1.163,2.325 .438,.677 1.016,1.068 1.454,1.744 .552-1.363 1.137-2.596 1.453-4.069 .465-.84 .654-2.561 .872-3.779 .479-.582 1.085-1.656 1.453-2.325"/><path d="m202.31,132.37v.291c0-.785-.019-.386 .291,1.162 .022,1.271 .29,2.194 .29,3.488-.572,.843-.653,2.029-1.162,3.198-.509,1.379-.853,2.446-.872,4.069 0,.976-.26,2.032 .581,1.454 .598-1.287 1.107-2.683 1.453-4.07 .639-1.262 .993-2.224 1.454-3.197 .152-1.278 .18-2.867 .581-4.07l-.581,4.07c.152-1.278 .18-2.867 .581-4.07"/><path d="m209.29,130.34c-.097,.097-.193,.194-.29,.291 .573-.573 .324-.424 0,.872 0,1.336 .15,3.187-.291,4.069-.206,1.73-.456,2.275-1.453,3.488-.202,.505-.58,1.259-.872,1.454"/><path d="m192.72,140.22v.291c0-.785 .019-.386-.291,1.163-.555,.64-1.384,1.872-1.744,2.906-.239,.08-.79,.291-.291,.291"/><path d="m191.85,143.42h.29c-.812,0-.327-.091 .291,1.453 .233,.932 .639,.812 .872,1.744"/></g></g><g transform="matrix(.16872 0 0 .13815 986.16 438.1)"><g fill-rule="evenodd" fill-opacity=".996"><g fill="#000f0f" stroke="#000"><path d="m77.32,201.26c-.2746,0-.1655,.743-.2906,1.744v4.07c.1885,1.439 .6832,2.802 1.4534,3.488 .463,.463 1.4428,1.204 2.0347,1.744 0-1.544 .1907-2.479 .2907-3.779 .4864-.831 .6366-2.133 1.1627-2.907 .1282-1.667 .7295-1.681 1.1627-3.197 .4971-.723-.534-.786-1.4534-.872-1.0854-.255-2.1038-.617-2.9068-1.163l2.9068,1.163c-1.0854-.255-2.1038-.617-4.3602-.291z" transform="matrix(7.3319 0 0 9.2267 -4606.2 -1868.5)"/><path d="m92.435,200.68h-.2906c.8555,0 .3411-.084-.5814,1.453 0,1.41 .0671,2.751 .2907,3.779 .6,.726 .8121,1.919 1.1627,2.907 .5201,.32 .844-.467 1.1627-1.163 .5886-1.454 1.2496-2.135 1.4534-3.488 .3194-1.171 .8676-1.652 1.1627-2.907-.6177-1.29-.9441-1.849-2.6161-2.034-.7302,.73-.1798,.202-1.7441,1.453z" transform="matrix(7.3319 0 0 9.2267 -4606.2 -1868.5)"/><path d="m168.59,200.39h.29c-.157,.421-.29,1.73-.29,2.616-.217,1.216-.45,2.289 0,3.489 .834,.367 1.373,.644 1.744,1.453 .679,.572 .829,.87 .872-.581 .63-1.388 .928-1.736 1.744-2.907 .577-.987 .801-1.656 .581-3.198-.751-1.522-1.176-1.701-2.907-2.034-1.823,0-1.797,1.361-2.325,2.616" transform="matrix(7.3319 0 0 9.2267 -4606.2 -1868.5)"/><path d="m182.84,202.13h-.291c.233,.608 .581,1.864 .581,2.907 .232,1.299 .291,2.624 .291,4.07-.173,1.155-.465,1.162 .872,1.162 .544-1.295 .973-2.269 1.744-2.906 .372-1.222 .815-1.956 .872-3.489 0-1.2 .09-2.727-.29-3.488-2.109,0-2.041,.291-3.779,1.744z" transform="matrix(7.3319 0 0 9.2267 -4606.2 -1868.5)"/><path d="m195.63,195.74h-.291c.812,0 .38-.035-1.163,.582-.72,.943-1.826,1.415-1.453,2.907 1.453,.49 2.267,.848 2.907,1.744 .925,.508 1.596,.891 2.034,1.744 .531,.353 .84,.906 1.163,1.453-.174-1.463-.479-2.444-.581-3.779-.02-1.646-.31-2.235-.872-3.197-.118-1.055-.425-.815-1.744-1.454z" transform="matrix(7.3319 0 0 9.2267 -4606.2 -1868.5)"/><path d="m197.66,189.92h-.29c.855,0 .373-.05-1.163,.872-.651,1.176-.667,2.169-.291,3.197 1.424,.212 1.995,.83 2.616,1.744 .867,.867 1.468,1.452 2.326,2.035-.622-1.059-1.178-2.025-1.454-3.197-.048-1.293-.259-2.233-.581-3.198l.581,3.198c-.048-1.293-.259-2.233-1.744-4.651z" transform="matrix(7.3319 0 0 9.2267 -4606.2 -1868.5)"/><path d="m69.472,195.74c-.0976,0-.9313,.537-1.4534,1.163-1.4139,.78-2.1749,1.229-2.3254,2.907-.051,1.377-.2907,2-.2907,3.488 .4117,.412 .0747,1.669 .5813,1.163 .8863-.975 1.3419-1.861 2.3255-2.616 .6587-.628 1.8806-1.288 2.9067-1.744 1.6261-.473 1.4994-.313 .5814-1.744-.5172-.876-1.1991-1.351-2.3254-2.617z" transform="matrix(7.3319 0 0 9.2267 -4606.2 -1868.5)"/><path d="m67.437,190.22h-.2906c.8557,0 .3734-.05-1.1628,.872-.7275,.909-1.626,1.173-2.0347,2.325-.6768,.819-.8534,1.654-.872,3.197 .0268,.941 .1811,1.826 .5813,2.326 .3882-1.094 .8609-1.739 2.0348-2.326 .7221-.467 .9188-1.093 1.744-1.453 .5985-.256 1.2608-.101 1.4534-.872-.1909-1.782-.7281-2.304-1.4534-4.069z" transform="matrix(7.3319 0 0 9.2267 -4606.2 -1868.5)"/></g><g fill="#d40f0f" stroke="#2b2b2b"><path d="m89.819,181.2v.29c0-.855 .0498-.374-.8721,1.163-1.0138,.405-1.9066,.581-3.4881,.581-.8806,.661-1.4568,.457-2.0347,1.744-.7788,.817-1.136,1.269-2.3255,1.745-1.3401,0-2.8593,.015-3.7788-.291-.9757-.527-2.3712-.92-3.4881-1.163-1.5775,.019-2.3665,.391-3.4881,.872-1.2009,.283-1.9544,.653-2.6161,1.454-.7817,.312-.7816,.779-.872,1.744 .4149,.691 .0367,1.069 .872,1.162 .465,.569 .5814,.589 .5814,1.744 .312,1.249 .2692,2.821 .5813,4.07 .6697,1.595 1.1763,1.722 2.3254,2.616 .9972,.472 1.71,.929 2.9068,1.453 1.0703,.55 2.3573,.627 3.4881,.872 .9292,1.097 1.5245,1.532 2.9068,2.035 1.4261-.215 1.6487-.82 2.9068-1.163 .491-.491 1.2548-.089 1.744-.872 .4266-.823 .6157-2.682 1.1627-3.488 .6379-1.294 1.5127-1.95 2.9068-2.325 .7653-.574 1.6491-.645 2.6161-.291-.064,1.726-.6156,1.797-.872,3.198-.4984,.922-.8181,1.737-.2907,2.616 1.2152,.405 2.6786,.29 4.0695,.29 1.8761-.316 2.0122-.745 2.0347-2.616-.2769-1.177-.6968-1.901-.872-3.197 0-.898-.0746-1.839 .2906-2.326 .6075,.223 2.0087,.359 2.6161,.582 .4973,.994 .9199,1.252 2.0349,.872 .353-.55 .893-.953 1.163-1.454 .294,.8 .865,1.516 1.453,1.163 .613-1.28 1.039-1.684 2.325-2.035 1.231-.267 2.04-.629 2.907-1.162 .88-.542 1.427-1.245 2.326-1.744 .616-.962 1.241-1.601 1.453-3.198 0-1.711-.346-2.841-.581-4.36-.648-1.017-.967-2.114-2.035-2.907-.847-.508-2.038-.124-3.198,0-1.3-.1-2.234-.29-3.778-.29-1.491,0-2.639,.239-4.0699,.29h-4.0694c-1.6869,0-2.571,.236-3.7788,.872-.8557,0-.241-.083-1.1627,1.454z" transform="matrix(7.3319 0 0 9.2267 -4606.2 -1868.5)"/><path d="m157.55,191.67c.499,.125 1.824,.771 2.907,.872 1.127,.059 .872,.365 .872,1.453 .417,.239 .822,.911 1.453,1.163 .232-.43 .702-1.099 1.163-1.453 .269,.627 .575,1.305 1.453,1.744 .737-1.398 .674-1.721 2.616-1.744 1.222,1.159 .858,2.235 0,3.197-.428,1.239-.61,2.314-.872,3.779 .569,.705 1.325,.581 2.616,.581 .872-.522 2.009-.274 2.616,.291 1.745-.087 1.681-.317 1.744-2.035v-4.069c.643-.643 1.335-.816 2.035-.291 .726,.6 1.075,1.992 1.744,2.907 .099,1.278 .257,2.453 .872,3.197 .656,1.369 .87,1.68 2.616,1.744 1.522-.018 2.365-.228 3.779-.581 1.301-.238 1.724-.859 2.326-1.744 1.439-.387 1.842-.811 3.488-.872 1.497-.333 1.958-.87 2.906-1.453 .626-.723 .904-1.807 1.454-2.617 .435-1.086 .963-1.585 1.163-2.906 .119-1.548 .746-1.911 1.162-3.198 .258-1.029-.256-1.678-1.162-2.325-.746-.647-1.834-.805-2.907-1.163h-4.07-4.069c-1.483,0-2.683-.191-4.07-.291-1.172-.676-1.724-1.124-2.616-2.034-1.261-.188-2.458-.898-3.488-1.454-.821-1.018-1.632-1.195-2.325-2.034-1.183-.502-1.789-1.153-3.198-1.744-1.199-.641-1.873-.971-3.488-1.163-1.387-.099-2.587-.291-4.069-.291-1.675,0-2.583,.491-3.779,.872-1.009,1.066-1.767,1.154-2.035,2.616-.411,.823-.291,2.508-.291,3.779 .292,1.363 .874,2.669 1.163,3.779 .115,1.224 .291,1.869 .291,3.488z" transform="matrix(7.3319 0 0 9.2267 -4606.2 -1868.5)"/></g></g><g fill="none" stroke="#2b2b2b"><path d="m82.843,189.92c-.6326-.093-2.8467-.291-4.3601-.291-1.1659,.254-2.0764,.529-3.4882,.582-1.0692,.251-2.1821,.564-2.9067,1.162-.9763,.092-1.2811,.403-2.3255,.582" transform="matrix(7.3319 0 0 9.2267 -4606.2 -1868.5)"/><path d="m83.134,192.54h-.2907c.8557,0 .3734-.05-1.1627,.872-1.1538,1.008-1.9572,1.514-2.6161,2.907-.789,.657-1.01,1.241-2.0347,1.453-.608,.646-1.2172,1.217-1.7441,1.744" transform="matrix(7.3319 0 0 9.2267 -4606.2 -1868.5)"/><path d="m181.09,193.41h.29c-.812,0-.38-.036 1.163,.581 1.216,1.062 1.267,1.595 2.907,1.744 1.532,.558 1.696,.89 2.325,2.326 .212,.493 .291,.915 .291,1.744" transform="matrix(7.3319 0 0 9.2267 -4606.2 -1868.5)"/><path d="m181.67,189.63c.468,.18 2.119,1.062 3.197,1.163 1.16,.157 2.298,.291 3.779,.291 1.369,.185 2.076,.618 3.488,1.162h2.326" transform="matrix(7.3319 0 0 9.2267 -4606.2 -1868.5)"/></g></g></g><g transform="matrix(.15111 0 0 .13378 289.39702 302.22533)"><path fill="#0068bd" fill-rule="evenodd" stroke-width="1.25" d="m520.83-116.93c-1.257,33.442-9.085,53.149-35.434,53.149-17.716,0-35.764-15.68-35.433-35.433 .332-19.753 22.568-20.962 37.859-19.339 5.425-16.094-20.142-33.81-91.008-33.81-70.164-.924-124.67,73.273-216.75,70.866-92.078-2.407-132.95-114.03-115.44-141.73-6.861,24.66-22.32,39.976-29.182,64.637-6.861,24.66 24.578,59.012 17.716,83.672-6.861,24.66-52.021,39.629-58.882,64.289s-5.1233,58.664-11.984,83.324c0-17.717 31.404-59.727 73.414-59.727 35.433,0 152.45-27.033 159.45,265.75 0,230.52-140.57,239.62-185.51,223.26-.11,27.793 15.589,114.18 87.422,202.59 77.143,88.58 166.25,100.95 183.74,99.72-8.221-24.66-42.01-53.15-10.087-53.47 21.226,.32 27.953,46.05 27.953,46.05s34.536-26.24 46.041-13.16c11.109,20.58-35.051,38.3-35.051,38.3s23.432,55.77 53.15,88.58c35.434,46.82 86.746,62.39 106.3,63.02 9.501,.31 27.872,7.8 27.211,25.57-1.315,35.376-1.273,52.466-18.419,53.146h127.47c-17.146-.68-17.104-17.77-18.419-53.146-.661-17.77 17.71-25.26 27.211-25.57 19.554-.63 70.866-16.2 106.3-63.02 29.718-32.81 53.15-88.58 53.15-88.58s-46.16-17.72-35.051-38.3c11.505-13.08 46.041,13.16 46.041,13.16s6.727-45.73 27.953-46.05c31.923,.32-1.866,28.81-10.087,53.47 17.494,1.23 106.6-11.14 183.75-99.72 71.83-88.41 87.53-174.8 87.42-202.59-44.95,16.356-185.52,7.256-185.52-223.26 6.996-292.78 124.02-265.75 159.45-265.75 42.01,0 73.42,42.01 73.42,59.727 0,4.4171 4.05-25.159-3.67-52.074-7.72-26.914-46.31-46.305-56.6-84.4-10.29-38.094 7.72-94.892 0-124.02-7.72-29.123-22.06-35.433-22.06-35.433 17.5,27.695-23.37,139.32-115.45,141.73-92.082,2.4075-146.59-71.79-216.75-70.866-70.866,0-96.433,17.716-91.008,33.81 15.291-1.623 37.527-.414 37.859,19.339 .331,19.753-17.717,35.433-35.433,35.433-26.349,0-34.177-19.708-35.434-53.149h-81.601z" transform="matrix(1 0 0 .92685 0 76.981)"/></g><g stroke-width="1.25"><g stroke="#000"><g transform="matrix(.15111 0 0 .12399 289.39702 312.52366)"><path fill="#e8e1cb" fill-rule="evenodd" d="m215.15,278.72c0,230.52-140.57,239.62-185.51,223.26-.11,27.793 15.589,114.18 87.422,202.59 77.143,88.58 166.25,100.95 183.74,99.72-8.221-24.66-42.01-53.15-10.087-53.47 21.226,.32 27.953,46.05 27.953,46.05s34.536-26.24 46.041-13.16c11.109,20.58-35.051,38.3-35.051,38.3s23.432,55.77 53.15,88.58c35.434,46.82 86.746,62.39 106.3,63.02 9.501,.31 27.872,7.8 27.211,25.57-1.315,35.376-1.273,52.466-18.419,53.146h127.47c-17.146-.68-17.104-17.77-18.419-53.146-.661-17.77 17.71-25.26 27.211-25.57 19.554-.63 70.866-16.2 106.3-63.02 29.718-32.81 53.15-88.58 53.15-88.58s-46.16-17.72-35.051-38.3c11.505-13.08 46.041,13.16 46.041,13.16s6.727-45.73 27.953-46.05c31.923,.32-1.866,28.81-10.087,53.47 17.494,1.23 106.6-11.14 183.75-99.72 71.83-88.41 87.53-174.8 87.42-202.59-44.95,16.356-176.21,16.558-176.21-213.96-2.107-9.149-2.776-27.288-4.275-35.824-1.499-8.535-35.472,26.766-38.855,26.587-11.423-.359-46.732-32.686-71.856-37.071-11.852-1.893-50.628,33.305-60.175,33.994-12.495,.726-28.51-35.973-55.13-32.205-19.595,3.103-35.643,36.54-40.445,31.758-12.349-12.298-25.95-20.022-41.7-22.942-23.548-2.04-36.935,16.411-49.59,31.592-.443-12.395-17.165-24.791-36.213-23.234-13.7-139.99-122.91-282.93-131.79-287.41-6.593-2.6371-4.078,13.602-6.117,20.403-16.619-4.5614-33.238-9.1227-49.858-13.684-3.181,8.0845-1.712,16.169-9.545,24.254-19.861-14.947-30.421-43.847-45.631-44.842-5.423,17.81-1.544,54.223-2.316,81.335-12.574-8.3649-25.149-16.73-37.724-25.095-1.01,8.8471-2.02,17.694-3.031,26.541-1.214,10.631-51.204-28.6-61.016-28.856-9.811-.2551-21.479,27.453-30.295,27.304-8.817-.1491 56.995,42.98 73.293,238.09z"/><g fill="none"><path d="m199.99,175.68s23.255-32.556 51.16-27.905c27.905,4.65 58.135,106.97 58.135,106.97"/><path d="m279.05,40.803c0,4.6508 18.603,79.065 34.881,102.32 16.278,23.254 53.485,41.857 72.088,69.762 18.604,27.906 27.905,104.64 27.905,104.64"/><path d="m320.91,5.9218s6.977,37.207 18.604,65.112 39.532,37.206 53.484,60.461c13.953,23.254 23.255,69.762 23.255,69.762"/><path d="m211.61,336.13s32.555-4.651 60.46,32.556c27.906,37.207 32.556,86.04 32.556,86.04"/><path d="m813.9,284.97s20.929-2.326 34.881,13.952c13.953,16.278 11.627,27.905 9.302,27.905"/><path d="m811.57,308.23s18.603,0 25.579,4.651c6.977,4.651 9.302,27.905 9.302,27.905"/><path d="m799.95,331.48c2.325,0 16.278-13.952 25.579-9.302 9.302,4.651 11.627,30.231 11.627,30.231"/><path d="m788.32,343.11s16.278-2.325 25.58,4.651 6.976,18.603 6.976,18.603"/><path d="m741.81,343.11c2.325,0 30.23,9.302 41.858,20.929 11.627,11.627 9.301,37.207 9.301,37.207"/><path d="m874.36,357.06s6.976-4.651 23.254,9.301c16.278,13.953 18.604,30.231 18.604,30.231"/><path d="m872.03,382.64s18.603,2.326 27.905,9.302c9.301,6.976 23.254,23.254 23.254,23.254"/><path d="m865.06,412.87s23.255-9.302 32.556-4.651c9.302,4.651 25.58,18.603 25.58,18.603"/></g></g><g fill="#b03f00" fill-rule="evenodd" transform="matrix(.08233 -.02972 .03519 .06563 394.562 341.09172)"><path d="m-301.18-134.65v442.91h17.716v-442.91l-8.858-35.433-8.858,35.433z" transform="translate(-248.03 -.00041)"/><path d="m-301.18-134.65v407.48h17.716v-407.48l-8.858-35.433-8.858,35.433z" transform="translate(35.433 -.00041)"/></g><g fill="none" transform="matrix(.08233 -.02972 .03519 .06563 394.562 341.09172)"><path d="m-283.46-99.213 17.717,336.61" transform="matrix(1 0 0 1.1905 35.433 18.898)"/><path d="m-318.9-99.212 53.151,336.61" transform="matrix(1 0 0 1.1905 70.867 18.897)"/><path d="m-354.33-99.212 88.584,336.61" transform="matrix(1 0 0 1.1905 106.3 18.897)"/><path d="m-389.76-99.212 124.01,336.61" transform="matrix(1 0 0 1.1905 141.73 18.897)"/><path d="m-283.46-99.213 17.717,336.61" transform="matrix(-1 0 0 1.1905 -549.21 18.898)"/><path d="m-318.9-99.212 53.151,336.61" transform="matrix(-1 0 0 1.1905 -584.65 18.897)"/><path d="m-354.33-99.212 88.584,336.61" transform="matrix(-1 0 0 1.1905 -620.08 18.897)"/><path d="m-389.76-99.212 124.01,336.61" transform="matrix(-1 0 0 1.1905 -655.51 18.897)"/><path d="m-407.48-99.212 177.16,354.33" transform="matrix(-1 0 0 1.1905 -673.23 18.897)"/><path d="m-407.48-99.212 177.16,354.33" transform="matrix(1 0 0 1.1905 159.45 18.897)"/><path d="m-407.48,184.25h301.18" transform="matrix(1 0 0 1.1905 0 18.898)"/><path d="m-124.02,148.82h-265.75" transform="matrix(1 0 0 1.1905 0 18.898)"/><path d="m-372.05,113.39h230.32" transform="matrix(1 0 0 1.1905 0 18.898)"/><path d="m-159.45,77.953h-194.88" transform="matrix(1 0 0 1.1905 0 18.898)"/><path d="m-336.61,42.52c0,.5813 159.45,0 159.45,0" transform="matrix(1 0 0 1.1905 0 18.898)"/><path d="m-194.88,7.0866h-124.02" transform="matrix(1 0 0 1.1905 0 18.898)"/><path d="m-301.18-28.346c.581,0 89.343,.0344 88.583,0" transform="matrix(1 0 0 1.1905 0 18.898)"/><path d="m-283.46-63.78h53.15" transform="matrix(1 0 0 1.1905 0 18.898)"/><path d="m-283.46-99.213 17.717,336.61" transform="matrix(1 0 0 1.1905 -248.03 39.989)"/><path d="m-318.9-99.212 53.151,336.61" transform="matrix(1 0 0 1.1905 -212.6 39.988)"/><path d="m-354.33-99.212 88.584,336.61" transform="matrix(1 0 0 1.1905 -177.16 39.988)"/><path d="m-389.76-99.212 124.01,336.61" transform="matrix(1 0 0 1.1905 -141.73 39.988)"/><path d="m-283.46-99.213 17.717,336.61" transform="matrix(-1 0 0 1.1905 -832.68 39.989)"/><path d="m-318.9-99.212 53.151,336.61" transform="matrix(-1 0 0 1.1905 -868.11 39.988)"/><path d="m-354.33-99.212 88.584,336.61" transform="matrix(-1 0 0 1.1905 -903.54 39.988)"/><path d="m-389.76-99.212 124.01,336.61" transform="matrix(-1 0 0 1.1905 -938.98 39.988)"/><path d="m-407.48-99.212 177.16,354.33" transform="matrix(-1 0 0 1.1905 -956.69 39.989)"/><path d="m-407.48-99.212 177.16,354.33" transform="matrix(1 0 0 1.1905 -124.02 39.989)"/><path d="m-407.48,184.25h301.18" transform="matrix(1 0 0 1.1905 -283.46 39.989)"/><path d="m-124.02,148.82h-265.75" transform="matrix(1 0 0 1.1905 -283.46 39.989)"/><path d="m-372.05,113.39h230.32" transform="matrix(1 0 0 1.1905 -283.46 39.989)"/><path d="m-159.45,77.953h-194.88" transform="matrix(1 0 0 1.1905 -283.46 39.989)"/><path d="m-336.61,42.52c0,.5813 159.45,0 159.45,0" transform="matrix(1 0 0 1.1905 -283.46 39.989)"/><path d="m-194.88,7.0866h-124.02" transform="matrix(1 0 0 1.1905 -283.46 39.989)"/><path d="m-301.18-28.346c.581,0 89.343,.0344 88.583,0" transform="matrix(1 0 0 1.1905 -283.46 39.989)"/><path d="m-283.46-63.78h53.15" transform="matrix(1 0 0 1.1905 -283.46 39.989)"/></g><g fill="#b03f00" fill-rule="evenodd" transform="matrix(.08233 -.02972 .03519 .06563 394.562 341.09172)"><path d="m-407.48,237.4h372.05v53.149l17.717,17.717h-17.717v35.433h17.717l-17.717,17.716 53.15,70.866-106.3,212.6h-566.93v-283.46h88.583v-70.866h53.149l106.3-53.149z"/><path d="m-566.93,361.42h531.5"/><path d="m-566.93,361.42h531.5" transform="translate(.00003 -17.716)"/><path d="m-566.93,361.42h531.5" transform="translate(-.00011 -53.15)"/><path d="m-566.93,361.42h531.5" transform="matrix(.9 0 0 1 -3.5433 -70.866)"/><path d="m-35.433,361.42l-141.73,283.46"/><path d="m-407.48,272.84h230.32"/><path d="m-442.91,255.12c34.35,1.539 407.48,0 407.48,0"/><path d="m-53.15,255.12-17.716,35.433"/><path d="m-70.866,308.27s-17.717,35.433-17.717,35.433"/><path d="m-230.32,308.27-17.716,35.433"/><path d="m-212.6,308.27-17.717,35.433"/><path d="m-53.15,396.85h-88.582l17.716-35.433"/><path d="m-70.866,432.28h-88.583l18.761-36.853-1.044,1.42"/><path d="m-88.583,467.72h-88.582l17.716-35.434"/><path d="m-106.3,503.15h-88.583l17.717-35.433"/><path d="m-124.02,538.58h-88.582l17.716-35.433"/><path d="m-124.02,538.58h-88.582l17.716-35.433" transform="translate(-17.716 35.433)"/><path d="m-53.15,396.85 70.866,35.433"/><path d="m-88.583,467.72 70.866,35.433"/><path d="m-160.45,433.8-495.32-1.16"/><path d="m-175.57,468.68c-1.162,1.162-480.2-2.326-480.2-2.326"/><path d="m-212.6,538.58c-35.433,0-442.91,0-442.01,1.023"/><path d="m-212.6,539.61s-442.91-1.023-442.01,0" transform="matrix(.96196 0 0 1 -25.804 34.41)"/><path d="m-124.02,538.58h-88.582l17.716-35.433" transform="translate(-35.434 70.866)"/><path d="m-124.02,538.58h-88.582l17.716-35.433" transform="translate(-53.15 106.3)"/><path d="m-442.91,379.13-17.717,17.716v35.433h70.866l17.717-17.716" transform="matrix(1 0 0 .66666 -53.15 126.38)"/><path d="m-442.91,379.13-17.717,17.716v35.433h70.866l17.717-17.716" transform="matrix(1 0 0 .66666 70.866 126.38)"/><path d="m-442.91,379.13-17.717,17.716v35.433h70.866l17.717-17.716" transform="matrix(1 0 0 .66666 -53.15 232.68)"/><path d="m-442.91,379.13-17.717,17.716v35.433h70.866l17.717-17.716" transform="matrix(1 0 0 .66666 70.866 232.68)"/></g></g><g fill-rule="evenodd" transform="matrix(.08233 -.02972 .03519 .06563 394.562 341.09172)"><path d="m-496.06,379.13h70.866v23.622h-70.866z"/><path d="m-372.05,379.13h70.866v23.622h-70.866z"/><path d="m-496.06,485.43h70.866v23.622h-70.866z"/><path d="m-372.05,485.43h70.866v23.622h-70.866z"/><g fill="#b03f00" stroke="#000"><path d="m-301.18-99.213h88.583v17.717h-88.583z"/><path d="m-584.65-99.213h88.583v17.717h-88.583z"/></g></g><g stroke="#000"><g fill="none" transform="matrix(.08233 -.02972 .03519 .06563 394.562 341.09172)"><path d="m-407.48,237.4v-17.717h372.05v17.717"/><path d="m-389.76,219.68v17.717"/><path d="m-389.76,219.68v17.717" transform="translate(17.717 .00005)"/><path d="m-389.76,219.68v17.717" transform="translate(35.433 -.00056)"/><path d="m-389.76,219.68v17.717" transform="translate(53.15 -.00049)"/><path d="m-389.76,219.68v17.717" transform="translate(70.866 .00058)"/><path d="m-389.76,219.68v17.717" transform="translate(88.583 .00066)"/><path d="m-389.76,219.68v17.717" transform="translate(106.3 .00005)"/><path d="m-389.76,219.68v17.717" transform="translate(124.02 .00012)"/><path d="m-389.76,219.68v17.717" transform="translate(141.73 .00058)"/><path d="m-389.76,219.68v17.717" transform="translate(159.45 .00066)"/><path d="m-389.76,219.68v17.717" transform="translate(177.17 .00005)"/><path d="m-389.76,219.68v17.717" transform="translate(194.88 .00012)"/><path d="m-389.76,219.68v17.717" transform="translate(212.6 .00058)"/><path d="m-389.76,219.68v17.717" transform="translate(230.32 .00066)"/><path d="m-389.76,219.68v17.717" transform="translate(248.03 .00005)"/><path d="m-389.76,219.68v17.717" transform="translate(265.75 .00012)"/><path d="m-389.76,219.68v17.717" transform="translate(283.46 -.00056)"/><path d="m-389.76,219.68v17.717" transform="translate(301.18 -.00049)"/><path d="m-389.76,219.68v17.717" transform="translate(318.9 -.0011)"/><path d="m-389.76,219.68v17.717" transform="translate(336.61 -.00102)"/></g><g transform="matrix(.15111 0 0 .12399 289.39702 312.52366)"><path fill="#00c8ff" fill-rule="evenodd" d="m32.92,551.31c-.11,27.793 12.3,64.848 84.133,153.26 77.143,88.58 166.25,100.95 183.74,99.72-8.221-24.66-42.01-53.15-10.087-53.47 21.226,.32 27.953,46.05 27.953,46.05s34.536-26.24 46.041-13.16c11.109,20.58-35.051,38.3-35.051,38.3s23.432,55.77 53.15,88.58c35.434,46.82 86.746,62.39 106.3,63.02 9.501,.31 27.872,7.8 27.211,25.57-1.315,35.376-1.273,52.466-18.419,53.146h127.47c-17.146-.68-17.104-17.77-18.419-53.146-.661-17.77 17.71-25.26 27.211-25.57 19.554-.63 70.866-16.2 106.3-63.02 29.718-32.81 53.15-88.58 53.15-88.58s-46.16-17.72-35.051-38.3c11.505-13.08 46.041,13.16 46.041,13.16s6.727-45.73 27.953-46.05c31.923,.32-1.866,28.81-10.087,53.47 17.494,1.23 106.6-11.14 183.75-99.72 71.83-88.41 87.53-151.78 87.42-179.57-2.81,1.021-59.78-13.779-69.48-4.288-12.98-10.24-38.09-20.589-57.601-20.965-22.8-.377-43.289,9.219-50.318,25.712-13.606-19.682-53.266-29.558-61.641-28.272-27.333,4.704-44.374,41.317-35.418,87.337-20.641-19.754-27.998-21.696-51.111-21.76-50.423-.121-55.381,89.819-129.14,89.282-58.401-.444-83.079-31.417-100.29-53.799 22.249-19.092 20.85-26.544 6.129-45.765-16.689-18.061-42.762-16.443-60.658,1.805-17.897-17.717-18.059-28.043-35.776-53.15-17.315-24.538-29.608-26.967-61-26.84-31.391,.128-55.464,1.804-67.577,34.691-15.402,8.593-37.213,26.565-54.089,23.02-10.298-28.042-43.228-60.617-70.99-61s-72.792,56.438-82.747,82.923c-17.683-37.06-36.276-42.13-51.789-42.9-15.512-.77-21.083,24.88-27.181,40.31z"/><g fill="none"><path d="m167.72,490s16.443,9.866 36.175,39.464 3.289,42.752 3.289,42.752"/><path d="m184.16,506.45s32.886,3.289 46.041,26.31c13.155,23.02 6.577,49.329 6.577,49.329"/><path d="m220.34,631.42s23.021-55.907 65.773-32.887c42.752,23.021 39.464,59.196 36.175,59.196h-3.289v3.289"/><path d="m263.09,687.32s23.021-9.866 49.33,0 9.866,32.886 9.866,32.886"/><path d="m259.8,700.48s26.309-6.577 42.752,3.289 3.289,26.309 3.289,26.309"/><path d="m200.61,710.34s3.289,26.309 19.732,42.753c16.443,16.443 46.041,23.02 46.041,23.02"/><path d="m361.75,723.5c32.886,16.443 39.463,46.041 39.463,46.041"/><path d="m374.9,710.34c49.33,0 46.041,29.598 46.041,29.598"/><path d="m302.56,552.49s29.598-23.02 69.062,0c39.463,23.021 16.443,52.619 16.443,52.619"/><path d="m322.29,513.02s39.464-26.309 72.35,0c32.887,26.309 23.021,46.041 23.021,46.041"/><path d="m437.39,529.47s9.865,16.443 19.731,32.886c9.866,16.444 26.31,13.155 26.31,13.155"/><path d="m526.18,647.86s23.02,32.887 75.639,39.464c52.618,6.577 98.659-13.155 98.659-13.155"/><path d="m526.18,690.61s29.598,29.598 69.061,29.598c39.464,0 95.371-16.443 95.371-16.443"/><path d="m526.18,720.21s16.443,26.309 75.639,26.309c59.195,0 85.504-13.154 85.504-13.154"/><path d="m522.89,759.67s6.578,13.155 36.175,19.732c29.598,6.577 59.196-9.866 59.196-9.866"/><path d="m618.26,785.98s19.732,26.309 46.041,26.309 0-39.463 19.732-46.041c19.732-6.577 49.329,0 49.329,0"/><path d="m605.11,825.45s19.732,26.309 49.33,19.732c29.598-6.578 65.773-55.907 65.773-55.907l23.02-16.443"/><path d="m388.06,887.93s3.288-16.443 39.464-9.866c36.175,6.577 0,55.907 39.463,55.907 39.464,0 75.639-23.02 98.66-26.309 23.02-3.289 65.772,23.02 88.793,29.598 23.02,6.577 65.773-26.309 65.773-26.309"/><path d="m568.94,956.99c3.289,0 13.155-6.578 36.175-3.289 23.021,3.289 49.33,3.289 49.33,3.289"/><path d="m559.07,989.88s16.444-6.577 29.598-6.577c13.155,0 9.866,19.729 9.866,19.729"/><path d="m483.43,624.84c-3.289,0 16.443,0 26.309,3.288 9.866,3.289 13.154,26.309 13.154,26.309"/><path d="m480.14,647.86s13.154-6.577 26.309,0 6.577,29.598 6.577,29.598"/><path d="m470.28,674.17c0-3.288 19.732-9.866 26.309-6.577s6.577,32.886 6.577,32.886"/><path d="m463.7,710.34s16.443-13.154 26.309-13.154 6.577,23.02 6.577,23.02"/><path d="m460.41,739.94 23.021-13.154 9.865,19.731"/><path d="m746.52,588.66s13.155-3.289 32.886,0c19.732,3.288 26.31,26.309 26.31,26.309"/><path d="m753.1,614.97c0-3.289 19.732-3.289 26.309,0 6.578,3.288 16.444,19.732 16.444,19.732"/><path d="m789.27,684.03c-3.288,0 3.289,13.155 6.578,29.598 3.288,16.443-13.155,32.886-13.155,32.886"/><path d="m855.05,670.88c-3.288,0 19.732,23.02 23.021,42.752 3.288,19.732-16.444,39.464-16.444,39.464"/><path d="m871.49,661.01s23.021,32.886 23.021,49.329c0,16.444-16.443,42.753-16.443,42.753"/><path d="m894.51,637.99s9.866,13.155 13.154,29.598c3.289,16.443-6.577,42.752-6.577,42.752"/><path d="m924.11,677.46s16.443,19.732 9.866,36.175c-6.578,16.443-19.732,29.598-19.732,29.598"/><path d="m950.42,687.32c-3.289,3.288 6.577,23.02 3.288,32.886-3.288,9.866-19.731,26.309-19.731,26.309"/><path d="m957,634.7c0,3.288 23.021,23.02 23.021,46.041 0,23.02-13.155,46.041-13.155,46.041"/><path d="m920.82,598.53s16.443,3.289 19.732,19.732c3.289,16.444-9.866,32.887-9.866,32.887" transform="translate(-55.085 -38.642)"/><path d="m927.4,568.93s26.309,29.597 32.887,39.463c6.577,9.866-3.289,32.887-3.289,32.887" transform="translate(-55.085 -38.642)"/><path d="m920.82,565.64c3.289,3.289 32.886,3.289 46.041,19.732s6.577,46.041 6.577,46.041" transform="translate(-55.085 -38.642)"/></g></g></g></g><g transform="matrix(.15111 0 0 .13378 289.39702 302.22533)"><path fill="#ffd400" stroke="#000" fill-rule="evenodd" stroke-width="1.25" d="m503.45,7.0847c5.813-4.6508 24.417-15.115 59.298-13.953 34.881,1.1627 59.299,17.441 59.299,17.441l-2.326-45.346s-23.254-11.627-54.647-11.627-58.136,6.9762-58.136,6.9762l-3.488,46.509z"/></g><g fill="#ffd400" stroke="#000" fill-rule="evenodd" stroke-width="1.25" transform="matrix(.15111 0 0 .12399 289.39702 312.52366)"><path d="m148.7,515.65c0,17.668 2.547,28.856 20.264,28.856 17.716,0 24.239-17.836 24.664-30.5 .538-15.992 3.489-40.366 38.921-40.366 17.717,0 128.01-11.771 131.3,248.03 3.288,259.8-184.24,206.72-184.24,206.72s-20.175,88.581 90.067,232.5c84.663,104.07 205.54,106.88 205.54,106.88s18.724,41.77 56.289,95.64c54.318,77.9 124.02,61 124.02,78.72 0,17.71-17.545,9.92-17.717,25.93 .172,19.42 9.363,27.9 26.509,27.22s17.104-17.77 18.419-53.15c.661-17.77-17.71-25.26-27.211-25.57-19.554-.63-70.866-16.2-106.3-63.02-29.718-32.81-53.15-88.58-53.15-88.58s46.16-17.72 35.051-38.3c-11.505-13.08-46.041,13.16-46.041,13.16s-6.727-45.73-27.953-46.05c-31.923,.32 1.866,28.81 10.087,53.47-17.494,1.23-106.6-11.14-183.74-99.72-71.832-88.41-87.531-174.8-87.421-202.59 44.945,16.356 185.51,7.256 185.51-223.26-7.02-292.78-124.04-265.75-159.47-265.75-42.01,0-73.414,42.01-73.414,59.727z" transform="translate(-166.41 -442.96)"/><path d="m148.7,515.65c0,17.668 2.547,28.856 20.264,28.856 17.716,0 24.239-17.836 24.664-30.5 .538-15.992 3.489-40.366 38.921-40.366 17.717,0 128.01-11.771 131.3,248.03 3.288,259.8-184.24,206.72-184.24,206.72s-20.175,88.581 90.067,232.5c84.663,104.07 205.54,106.88 205.54,106.88s18.724,41.77 56.289,95.64c54.318,77.9 124.02,61 124.02,78.72 0,17.71-17.545,9.92-17.717,25.93 .172,19.42 9.363,27.9 26.509,27.22s17.104-17.77 18.419-53.15c.661-17.77-17.71-25.26-27.211-25.57-19.554-.63-70.866-16.2-106.3-63.02-29.718-32.81-53.15-88.58-53.15-88.58s46.16-17.72 35.051-38.3c-11.505-13.08-46.041,13.16-46.041,13.16s-6.727-45.73-27.953-46.05c-31.923,.32 1.866,28.81 10.087,53.47-17.494,1.23-106.6-11.14-183.74-99.72-71.832-88.41-87.531-174.8-87.421-202.59 44.945,16.356 185.51,7.256 185.51-223.26-7.02-292.78-124.04-265.75-159.47-265.75-42.01,0-73.414,42.01-73.414,59.727z" transform="matrix(-1 0 0 1 1289.7 -442.96)"/><path d="m238.56-187.8c26.42,0 22.65,26.716 17.717,42.978-4.933,16.261-35.433,27.888-63.117,10.172 7.642,26.836 27.684,106.3 109.4,108.34 95.371-2.0366 103.64-71.797 209.37-72.35 105.73-.5527 124.84,15.498 123.44,52.597-1.257,33.442-9.085,53.15-35.434,53.15-17.716,0-35.764-15.68-35.433-35.433 .332-19.753 22.568-20.962 37.859-19.34 5.425-16.094-20.142-33.81-91.008-33.81-70.164-.9237-124.67,73.274-216.75,70.866-92.082-2.4075-132.95-114.04-115.45-141.73 18.525-33.809 31.256-35.433 59.401-35.433z" transform="matrix(-1 0 0 1 1237.8 -70.866)"/><path d="m238.56-187.8c26.42,0 22.65,26.716 17.717,42.978-4.933,16.261-35.433,27.888-63.117,10.172 7.642,26.836 27.684,106.3 109.4,108.34 95.371-2.0366 103.64-71.797 209.37-72.35 105.73-.5527 124.84,15.498 123.44,52.597-1.257,33.442-9.085,53.15-35.434,53.15-17.716,0-35.764-15.68-35.433-35.433 .332-19.753 22.568-20.962 37.859-19.34 5.425-16.094-20.142-33.81-91.008-33.81-70.164-.9237-124.67,73.274-216.75,70.866-92.082-2.4075-132.95-114.04-115.45-141.73 18.525-33.809 31.256-35.433 59.401-35.433z" transform="translate(-114.54 -70.866)"/></g><g transform="matrix(.16872 0 0 .13815 986.16 438.1)"><path fill="none" stroke="#000" stroke-width="11.125" d="m-1576.8,1353.5c17.72,2.98 674.45-205.79 673.23-531.49v-1594.5h-1346.5v1594.5c-1.22,325.7 673.23,531.49 673.23,531.49z" transform="translate(-2078.9 -953.42)"/></g></svg>