<svg xmlns="http://www.w3.org/2000/svg" viewBox="0 0 512 512" xmlns:xlink="http://www.w3.org/1999/xlink"><defs><path id="0" d="m-283.46-99.21l17.717 336.61"/><path id="1" d="m-354.33-99.21l88.58 336.61"/><path id="2" d="m-318.9-99.21l53.15 336.61"/><path id="3" d="m-407.48-99.21l177.16 354.33"/><path id="4" d="m-566.93 361.42h531.5"/><path id="5" d="m-124.02 538.58h-88.58l17.716-35.433"/><path id="6" d="m-442.91,379.13-17.717,17.716v35.433h70.866l17.717-17.716"/><path id="7" d="m-389.76 219.68v17.717"/><path id="8" d="m-389.76-99.21l124.01 336.61"/></defs><g stroke-width="1.25"><path fill="#c00" d="m0 0h512v512h-512z"/><path fill="#006" d="m0 0h512v256h-512z"/><g transform="scale(8.5333)"><g fill="#fff"><path d="m0 0v3.354l53.29 26.646h6.708v-3.354l-53.29-26.646h-6.708m60 0v3.354l-53.29 26.646h-6.708v-3.354l53.29-26.646h6.708"/><path d="m25 0v30h10v-30h-10m-25 10v10h60v-10h-60"/></g><g fill="#c00"><path d="m0 12v6h60v-6h-60m27-12v30h6v-30h-6"/><path d="m0 30l20-10h4.472l-20 10h-4.472m0-30l20 10h-4.472l-15.528-7.764v-2.236m35.528 10l20-10h4.472l-20 10h-4.472m24.472 20l-20-10h4.472l15.528 7.764v2.236"/></g></g></g><g transform="matrix(.16872 0 0 .13815 635.41 306.39)"><path fill="#fff" fill-rule="evenodd" d="m-1576.8 1353.5c17.72 2.98 674.45-205.79 673.23-531.49v-1594.5h-1346.5v1594.5c-1.22 325.7 673.23 531.49 673.23 531.49z"/><g stroke="#002b00" stroke-width="11.125"><path fill="#007a0f" fill-rule="evenodd" fill-opacity=".996" d="m-903.54 822.05c1.22 325.7-655.51 534.47-673.23 531.49 0 0-674.45-205.79-673.23-531.49 7.16-10.536 9.96-14.595 10.43-27.844 2.29-6.875 1.64-15.15 1.64-23.02v-23.02c-1.73-5.202-1.64-13.795-1.64-21.376-.22-5.804-1.64-15.454-1.64-16.443 1.28 9.471 3.02 14.09 6.57 1.644 2.51-6.278 3.92-11.441 6.58-19.732.29-8.094 1.64-14.587 1.64-23.02 0-7.972.38-15.559 1.65-21.377 2.53-2.073 4.74-5.722 8.22-3.288-.31 8.369-2.27 12.789-3.29 21.376v23.02 23.02c.16 5.439.91 9.983 3.29 13.155.29-8.095 1.64-14.587 1.64-23.02 1.9-5.689 3.07-13.14 6.58-18.09 1.99-7.394 5.22-13.502 8.22-21.376 2.51-7.807 5.04-13.192 6.58-19.732 3.63-4.077 7.64-11.01 11.51-14.799 8.45-5.43 5.95 2.76 3.29 9.866v23.02c5.8 1.657 2.09-2.335 6.58-6.577 1.58-6.083 5.31-14.346 8.22-19.732 2.92-4.739 6.7-9.218 9.86-14.799 3.42-2.102 12.53-8.07 13.16-8.222-3.65 3.824-6.79 9.365-9.87 14.799-1.26 5.818-1.64 13.405-1.64 21.376.6 15.793 3.82 3.08 6.58-3.288 3.35-2.744 1.82-4.597 8.22-4.933 9.69-6.53 6.58.646 4.93 8.221-1.31 7.351-1.64 14.841-1.64 23.02 0 8.924 1.54 12.746 1.64 21.376 0 7.582-.09 16.17 1.65 21.376 1.17 8.881 3.58 12.586 6.57 19.732 2.51 7.252 5.42 11.873 8.22 18.09 6.44 7.893 3.29.717 3.29-8.222v-23.02-23.02c3.02-5.157 3.89-11.445 8.22-16.443 1.65-6.02 4.65-10.675 8.23-14.799 2.45-3.909 6.16-8.807 8.22-13.155v23.02c0 8.179.33 15.67 1.64 23.02 2.26 7.619 3.93 12.286 4.94 19.732 4.29 2.78 5.91 6.903 9.86 9.866 1.99-7.598 3.29-14.388 3.29-23.02v-23.02c1.37-7.684 2.92-14.07 4.93-19.732 2.22-6.977 3.68 1.805 4.94 4.933 2.84 6.01 5.79 9.158 9.86 16.443 4.83 3.451 6.08 8.786 9.87 13.155.87 4.03 1.29 13.12 3.29 16.443 1.77-8 4.74-12.822 6.57-21.376 4.93-4.831 7.83-8.229 13.16-11.51 8.36-1.611 12.2-3.916 19.73-4.933 10.41 0 8.54 1.064 1.64 6.577-2.61 4.246-6.36 10.867-9.86 14.799-1.02 7.514-2.97 11.212-3.29 19.732.6 8.429 3.02 15.09 4.93 21.376 4.12-4.611 8.7-14.515 11.51-19.732 4.41-5.04 6.44-12.481 9.87-16.443 3.54-4.289 8.13-7 14.8-8.222 4.08-3.065 8.89-3.288 16.44-3.288 15.09 4.827 31.93 3.435 47.69 4.933 12.19 0 19.9-2.238 31.24-4.933 12.34-2.539 25.39-2.794 37.82-4.933 12.52 0 26.39-1.114 37.82 1.644h32.88c11.89 0 23.53-.245 34.53-1.644 13.27 0 26.77.605 39.47-1.645 14.64 0 28.33-1.158 42.75-1.644 19.75 0 38.05-2.356 57.55-3.288 14.92-.634 26.89-5.416 41.11-8.222 9.53-2.169 20.71-1.644 31.24-1.644 12.48 0 22.46 2.218 34.53 3.288 10.27 0 19.68.851 29.6 1.645h29.6 34.53 37.82c12.08 0 23.18.743 34.53 1.644 10.31 0 19.66.83 29.6 1.644h26.31c7.22.86 16.21 1.021 23.02 3.289 9.55 0 17.27 1.321 26.31 1.644 8.51.516 15.72 1.644 24.66 1.644 8.26.295 15.31 1.911 23.02 3.289 6.98.943 12.59 2.733 18.09 4.933 4.64 2.197 12.24 5.279 16.44 8.222 9.13 0 13.09-1.725 19.74-3.289 4.58-3.537 9.64-3.654 9.86-6.577-5.07 4.519-9.44 5.577-11.51 13.154-1.03 2.565-4.34 12.03 0 9.866 6.04-3.525 10.35-7.542 13.16-13.154 4.7-6.623 6.86-10.678 11.51-16.444 3.44-6.616 9.21-10.764 13.15-14.798 4.6-6.759 7.28-10.169 3.29 1.644-1.41 7.913-2.72 14.01-3.29 21.376-.94 6.975-2.73 12.587-4.93 18.09 0 5.08-.42 10.399 1.64 13.154 7.59-2.167 15-6.207 19.73-9.866 6.51-1.774 11.97-5.252 18.09-9.866 8.1-2.025 13.33-2.289 14.8-4.933-4.43 4.523-8.65 8.448-13.15 11.511-2.19 4.612-5.98 7.345-4.94 11.51 5.11-1.111 14.94-1.69 19.73-3.289 7.71-2.667 11.16-4.304 19.74-6.577 14.765.192 2.498 2.24-4.94 6.577-4.46 3.036-9.07 7.542-14.8 11.511-3.67 6.82-6.16 12.168-9.86 16.443-1.93 7.157-4.59 12.247-8.22 16.443-1.46 6.188-3.54 11.659-4.94 18.09-1.42 10.552-5.32 13.11 6.58 8.221 5.1-5.562 10.03-10.196 13.16-14.799 3.03-4.728 7.17-10.545 11.51-14.799 2.26-6.386 5.81-8.91 9.86-16.443 3.661-3.837 8.797-9.617 13.157-14.799 3.764-3.59 8.946-7.383 14.798-9.866 9.01-3 7.87-8.779 4.933 1.645-3.466 4.196-5.575 9.794-6.577 16.443-3.571 14.821.355 9.164 6.577 4.933 5.341-4.412 3.347-7.48 11.511-9.866 1.801-1.517 10.546-6.293 8.221-1.644-1.116 7.408-3.903 10.798-6.577 16.443-3.615 6.524-6.483 11.714-8.222 18.09-2.909 3.88-5.03 8.337 0 6.578 8.471-1.883 11.08-4.921 16.444-8.222 3.201-7.303 6.352-9.631 9.866-14.799-2.01 8.05-4.9 13.579-6.578 19.732-3.786 4.369-5.751 9.307-8.221 16.443-3.603 7.02-4.821 10.371-4.933 19.732-2.215 7.477-5.063 12.895-1.645 19.732 5.209-5.417 9.865-8.835 13.155-16.443 3.386-4.099 5.154-10.395 6.577-16.443 1.567-6.658 3.942-10.753 4.933-18.09 2.292-6.875 1.645-15.15 1.645-23.02v-23.02c-.094-7.859-2.588-14.365 0-19.732 5.01 5.109 6.258 9.691 9.866 16.443 2.11 8.442 5.844 13.214 6.577 21.376 3.342 4.915 3.839 10.934 6.577 18.09.577 8.07 2.097 15.09 0 21.376-.496 5.291-3.066 9.07 0 13.155 5.308-4.385 5.538-10.919 6.577 3.289 0 7.198.252 14.07.836 21.266z"/><g fill="none"><path d="m-2178.7 685.68c-.62 4.245-1.64 17.06-1.64 26.309 0 8.38.75 14.816 1.64 21.376.55 5.919 1.88 6.805 0 11.51"/><path d="m-2154.1 672.52c.63 4.245 1.65 17.06 1.65 26.309 0 8.736-1.08 14.02-1.65 21.377-.29 8.08-1.64 12.433-1.64 21.376v6.577"/><path d="m-2172.2 759.67c1.55 0 .93 4.205 1.64 9.866.95 6.998 2.51 12.974 4.93 18.09.35 9.411 2.15 11.425 8.23 14.799 5.87 5.788 8.03 9.685 11.51 14.799 4.19.741 4.91 1.85 6.57 4.933"/><path d="m-2229.7 809h1.64c8.48 1.413 20.16 1.238 26.31 3.289 6.33 1.469 13.95 4.538 18.09 8.221 6.65 7.382 9.26 12.74 18.08 16.444 7.4 4.315 14.86 5.888 23.03 8.221 7.59 3.202 12.6 5.624 18.08 8.222 7.81 3.994 14.04 8.476 23.02 9.866h23.02c7.7 0 12.64.26 16.45-3.289l-16.45 3.289c7.7 0 12.64.26 16.45-3.289"/><path d="m-2200.1 927.39h29.6 23.02c3.39 7.08 6.48 9.284 13.16 11.51 5.33 3.905 12.28 6 19.73 6.577h3.29"/><path d="m-2185.3 955.35c4.47-.919 17.27-4.287 26.31-4.933 9.62 0 14.8 2.073 19.73 6.577 5.04 3.425 7.99 6.602 14.8 9.866 7.27 2.511 14.62 3.289 23.02 3.289.78 2.319.48 1.644 3.29 1.644"/><path d="m-2163.9 988.23h29.6c5.9 2.794 10.77 3.151 13.15 9.865 6.82 5.741 9.83 9.501 19.73 9.871 3.81 1.97 11.83 1.64 18.09 1.64"/><path d="m-2085 1045.8h29.59c9.66.98 16.51.28 21.38 6.58 5.42 7.8 9.97 6.08 16.44 9.87 5.7 0 9.45 1.18 14.8 1.64"/><path d="m-2014.3 1091.8c4.25.62 17.06 1.64 26.31 1.64 9.08 1.23 9.76 3.39 14.8 9.87 2.74 9.6 7.48 8.92 18.09 9.86 7.2 0 12.97-.53 18.09-1.64"/><path d="m-2149.1 762.96c.55.548 1.09 1.096 1.64 1.644-3.73-3.731-1.93-2.363 1.65 6.578.62 8.06 2.05 12.855 4.93 19.732 3.91 5.609 7.18 10.979 9.87 16.443 2.92 6.68 6.81 11.845 11.51 16.443.69 2.087 1.2 2.593 3.28 3.289"/><path d="m-2114.6 769.54c.84 0 5.23 5.086 8.22 9.866 5.7 4.074 10.23 9.203 14.8 14.799 5.13 3.386 11.11 7.55 18.09 11.51 7.98 2.764 10.74 5 18.08 8.222 3.87 3.348 10.82 5.812 16.45 8.222 2.42 0 1.25-.388 3.29 1.644"/><path d="m-2076.8 753.1c-1.8 0 0 4.239 0 9.866 2.75 6.088 7.01 12.12 11.51 18.09 5.21 3.442 10.49 10.505 14.8 16.443 2.65 4.223 5.7 7.31 11.51 9.866"/><path d="m-2037.3 739.94c.06 5.876 1.62 16.938 3.29 26.31 2.86 6.823 4.98 11.276 6.58 18.09 1.03 6.853 3.62 12.832 8.22 18.09 3.77 4.78 10.23 9.499 16.44 11.51 6.35 2.719 10.81 4.826 19.73 4.933 6.56-.886 13-1.644 21.38-1.644h13.16"/><path d="m-1999.5 753.1c.14 5.279-1.4 10.768 4.93 14.799 2.13 6.659 6.84 14.364 11.51 21.376 4.17 5.286 9.96 9.137 18.09 9.866 5.77 1.339 14.5 2.639 21.38 4.933 6.24 4.06 12.78 10.903 21.37 13.155l-21.37-13.155c6.24 4.06 12.78 10.903 21.37 13.155"/><path d="m-1984.7 753.1c4.35 5.551 16.15 17.799 24.67 26.309 5.88 4.862 11.94 8.736 18.08 11.511 7.52 1.163 15.81 4.454 21.38 6.577 3.59 1.537 4.61 3.01 9.86 3.289"/><path d="m-1961.7 733.36c.55.548 1.1 1.096 1.65 1.645-4.68-4.672-2.25-2.142 8.22 6.577 6.14 4.954 8.58 6.281 9.86 14.799 3.02 2.854 3.99 7.924 8.22 4.933-.52-9.732-5.03-13.12 3.29-8.222 3.03 6.332 6.75 11.464 11.51 14.799 3 3.173 6.52 4.743 13.16 4.933"/><path d="m-1790.7 955.35c4.13.516 21.43.566 29.6 3.289 7.35 1.312 14.84 1.644 23.02 1.644 8.32-.308 13.02-2.784 21.38 0 9.59.738 10.67 3.03 18.08 9.866 6.11 4.141 8.73 8.81 13.16 16.443 1.94 1.254 14.26 8.828 4.93 3.289"/><path d="m-1798.9 915.88c5.51 2.905 18.24 10.319 24.66 14.799 8.63 1.917 11.11 4.661 19.74 6.577 8.8-.104 14.34-2.338 21.37-3.288 5.52-1.84 14.39-2.331 21.38 0 7.45 2.581 12.13 4.848 18.09 8.221 3.26 4.078 13.55 11.503 3.28 3.289-2.74-3.837-3.83-4.385-8.22-6.577"/><path d="m-1764.4 912.6c6.03.172 21.04 2.167 31.24 3.288 6.88 2.293 15.55 2.755 23.02 3.289 8.66 1.546 15.09 2.11 21.38 6.577 4.43 2.981 10.56 8.747 14.8 13.155 9.3 4.03 3.64 2.989-3.29-3.289"/><path d="m-1739.7 897.8c6.48 0 16.65 1.448 26.31 3.288 3.82 4.619 9.98 5.905 18.09 8.222 5.73 1.4 9.92 4.725 16.44 8.222"/><path d="m-1616.4 1021.1l1.64-1.64c-3.62 3.62-2.4 1.79 6.58 0 9.97-2.69 19.28-3.77 29.6-1.65 8.04 0 15.89.14 23.02-1.64 3.3-2.48 7.45-1.31 9.86-4.94 4.74-.83 4.58-4.61 4.94 0"/><path d="m-1611.4 1047.4c8.69-.44 26.41-1.55 36.18-8.22 6.37-1.94 12.67-5.53 19.73-6.58 8.38 0 15.17-1.08 23.02-1.64 9.47-.51 17.94-1.65 27.95-1.65h24.67c8.29 0 15.43.74 23.02 1.65 6.47 1.13 14.19 4.91 18.09 8.22 5.84 1.27 12.44 1.88 18.08 0"/><path d="m-1442.1 1193.8c.55-.54 1.09-1.09 1.64-1.64-3.38 3.38-2.34 1.99 4.93-1.64 9.8 0 18.97-.48 27.96-1.65 8.59.28 17.5 1.19 23.02 4.93 7.66 2.47 15.09 3.36 21.37 6.58 8.01 2.96 13.02 4.97 21.38 6.58 4.48 2.24 15.13 1.73 21.38 3.29 8.04 0 15.89.13 23.02-1.65 8.55-1.83 13.37-4.8 21.37-6.57 5.35-5.16 12-8.15 19.74-9.87 3.18-3.85 7.65-8.33 11.51-11.51l-11.51 11.51c3.18-3.85 7.65-8.33 11.51-11.51"/><path d="m-1220.1 787.63c6.1-.419 18.58-2.761 26.31-6.577 6.46-1.821 14.22-5.02 18.09-8.222 6.51-1.777 10.7-4.02 18.09-6.577 6.89-4.925 14.68-9.03 18.08-13.155 9.14-4.185 11.31-6.836 14.8-14.799 1.86-2.481.95-4.152 3.29-4.933"/><path d="m-1083.6 733.36c-.84 0-5.23 5.086-8.22 9.866-5.65 5.273-11.05 12.922-14.8 19.732-4.39 2.986-8.99 7.951-14.8 11.51-7.43 6.356-13 10.315-21.38 14.799-6.2 4.134-11.79 6.457-19.73 8.222-7.7 2.667-11.15 4.304-19.73 6.577"/><path d="m-1049.1 738.3c-.55.548-1.1 1.096-1.64 1.644 4.12-4.126 2.12-2.248-4.94 6.578-5.63 5.145-11.9 12.179-14.8 16.443-4.66 3.108-12.7 11.297-18.08 14.799-7.3 6.078-14.09 8.03-19.73 13.155-8.1 3.121-13.17 6.542-21.38 9.866-4.69 2.222-11.82 3.87-16.44 6.577h-4.94"/><path d="m-1059 797.49c-.54.548-1.09 1.096-1.64 1.644 3.9-3.904 2.04-2.309-3.29 6.577-5.89 4.086-8.52 7.957-14.8 11.511 0 2.192.55 1.644-1.64 1.644"/><path d="m-988.24 769.54c0 .482-3.036 4.807-4.933 9.866-4.54 4.633-6.777 11.236-11.508 16.444-3.62 7.555-6.47 9.195-13.16 16.443-4.38 2.814-11.43 7.306-14.8 11.51-6.74 2.956-11 6.373-18.08 8.222"/><path d="m-1044.2 845.18c6.05-2.192 16.37-7.738 23.02-11.51 5.59-3.01 12.12-7.204 16.45-9.866 2.19-6.174 7.129-9.368 14.797-13.155 3.301-4.854 8.089-7.802 13.154-13.154 5.01-2.754 6.664-6.426 9.866-9.866"/><path d="m-1047.4 853.4c6.91-.059 19.93-.149 27.95-4.933 8.64-2.708 11.64-6.04 19.731-8.222 4.512-3.159 11.571-6.276 16.443-9.866l-16.443 9.866c4.512-3.159 11.571-6.276 16.443-9.866"/><path d="m-919.18 812.29c-3.606 5.99-11.343 19.21-19.732 24.665-3.205 3.879-11.489 7.529-16.444 11.51-5.166 2.447-12.761 5.717-19.732 9.866-7.788 1.669-13.168 3.716-19.731 6.577"/><path d="m-1050.7 897.8c5.66-2.389 16.06-8.195 24.66-11.511 4.1-2.047 8.2-1.644 13.16-1.644"/><path d="m-1012.9 907.66c.57 0 4.97-4.13 9.86-6.578 6.454-4.053 13.696-8.155 19.734-11.51 6.845-1.786 14.331-6.823 23.02-8.222 4.438 2.219 14.728 2.814 21.377 3.289h9.866"/><path d="m-991.53 920.82c7.102-.182 17.88-.319 24.665-4.933 5.422-.929 10.272-2.506 13.155-4.933"/><path d="m-1108.3 998.1c1.36.072 9.17 1.584 13.15 3.291 5.72 2.86 8.51 6.15 14.8 9.86 5.45 4.78 12.54 6.27 21.37 6.58h23.03c9.67-.55 14.08-2.96 23.02-3.29 7.71 0 13.06-1.08 18.08-3.29"/><path d="m-1126.4 1017.8c6.77.18 10.95 1.22 18.09 4.93 8.07 7.02 13.64 11.21 23.02 13.16 7.35.56 12.64 1.64 21.37 1.64 8.05 0 15.9-.13 23.02 1.65 6.36.18 8.03 1.64 14.8 1.64"/></g></g></g><g transform="matrix(.16872 0 0 .13815 268.17 305.1)"><g transform="matrix(7.6403 0 0 8.9872-395.54-872.9)"><g stroke-width="1.25"><g stroke="#2b2b2b"><path fill="#d40f0f" fill-rule="evenodd" fill-opacity=".996" d="m74.995 82.955c-1.044 0-2.29.079-2.907-.291-1.18-.216-1.99-.695-2.616-1.453-1.078-.748-1.423-1.441-2.325-2.325-.29-1.064-.822-1.887-1.453-2.616.02-1.646.309-2.235.872-3.198 1.374-.476 1.918-.86 3.488-1.163.756-.514 1.958-1.025 2.907-1.453-.436-.738-.895-1.183 0-2.035.736-.702 1.574-1.255 2.907-1.453 1.48.135 1.822.696 2.616 1.453 1.422 0 2.809-.024 4.069.291 1.172.32 1.909.722 3.198 1.453 1.181.394 1.727.784 2.325 2.035.935.909.316 1.513.291 2.907-.162 1.92-.791 1.79-1.744 2.616 1.316.674 2.317.818 3.779.872h4.07 4.07c1.365-.372 1.547-.817 2.034-2.035.368-.919.881-2.116 1.163-3.198.644-.744.98-1.694 1.744-2.325.524-1.095 1.197-1.946 2.035-2.616.818-1.186 1.522-1.705 2.616-2.325.903-1.058 1.703-1.403 0-1.453-1.389.244-1.977.92-3.488 1.163-.292-.73-.235-1.669.29-2.325.383-1.445 1.13-2.246 1.454-3.488.678-.783.905-1.844 1.453-3.197-.097-1.267-.339-2.374-.581-3.488-.406-1.014-.582-1.907-.582-3.488.292-1.238.568-1.983 1.454-2.616.537-.966 1.133-1.464 2.325-2.035.583-.816 1.396-1.279 2.326-1.744.653-.79 1.42-1.24 2.034-2.325.362-1.02.71-1.997.872-3.197.407-.813.538-2.541.582-3.779-.019-1.543-.195-2.378-.872-3.197-.361-.903-.642-2.141-1.163-2.907 0-1.581.176-2.474.581-3.488.31-1.549.291-1.947.291-1.163v-.291c1.662.978 2.116 1.381 4.07 1.453.815 0 1.34-.082 2.034-.291 1.652.178 2.271.184 2.326-1.744.258-1.035.49.355.581.872.643 1.286.694.468 1.453-.291.477-1.428 1.01-.6 2.035-.291.116-.349.493-.493.872-.872.218 1.09.539 1.999 1.454 2.325 1.467-.269 1.544-.852 1.744-2.325 1.039-.215 1.121-.544 1.162.872.767.159 1.378.493 2.035 0 .258-.646.555-1.207.872-1.744.378 1.702.513 1.968 2.326 2.035.586-.554.837-.872.872-2.035.658.797 1.49 1.326 2.906 1.453 1.171.11 1.016.543 2.326.581.332.702.483 1.955 1.162 2.616 1 .642 2.352.869 2.907.581 0-.809-.109-1.635.291-2.035 1.138-.379 2.128-.089 3.197.291 1.474.402 1.454.752 1.454 2.616-.101 1.404-.272 2.762-.872 3.488-.236 1.086-.265 2.593-.872 3.779-.502 1.624.431 1.713.581 3.488.234.982-.273 2.281-.291 3.779.02 1.613-.006 2.411 1.163 2.907.671.989 1.494 1.477 2.325 2.325.986 1.129 1.43 1.632 2.035 2.616 1.053 1.206 1.206 1.717 2.035 2.907.485.97.936 1.673 1.453 2.907.35 1.048.235 2.411 0 3.488-.931.734-1.396 1.592-1.453 3.197-.41.82-.499 2.416-.581 3.488.284 1.209.875 2.01 1.453 2.907.606.757 1.603 1.543 2.325 2.035.636.733 1.079 1.628 1.744 2.325.383 1.259.852 1.823.872 3.488.243 1.114.484 2.221.582 3.488.676.639.594.872 2.035.872.894.523 1.992.581 3.488.581 1.3.1 2.234.291 3.778.291 1.184 0 2.42-.006 3.198-.291.607-.952.951-2.58 1.453-3.488.098-1.267.34-2.374.582-3.488.685-.719 1.191-1.462 2.034-2.035 1.202-.617 1.964-.816 3.489-.872 1.408.399 2.375.777 3.197-.291 1.128-.308 1.833-.581 3.488-.581 1.722-.43 2.179-.198 2.907.872.238 1.094.47 2.349.872 3.197.661.449 1.693 1.181 2.325 1.744.408.861.582 1.474.582 2.907.523.873.122 1.891 0 2.907-.684.717-1.21 1.517-2.035 2.325-.354.432-.776.752-1.453.872l.581.581-10.17 10.172-106.09-.872-4.945-12.208z"/><g fill="none"><path d="m129.93 29.47c.096.097.193.194.29.291-.73-.73-.373-.394.872 1.163v4.069c0 1.655.274 2.36.582 3.488.397.325.474.837.872 1.163"/><path d="m138.65 29.761v.291c0-.856.05-.374-.872 1.163-.586 1.345-.581 2.152-.291 3.488.307.92.291 2.438.291 3.779-.155.465-.136.116-.291.581"/><path d="m144.76 37.32h-.291c.856 0 .374-.05-1.162.872-1.293.812-1.789 1.241-3.198 1.453-.947.928-1.503 1.142-3.197 1.163-.137.41-.085.291-.582.291"/><path d="m137.78 42.551v.291c.383-.144 1.727-.515 2.325-.581.728-.602 1.907-.838 2.616-1.453 1.116-.144.758-.544 2.035-.581l-2.035.581c1.116-.144.758-.544 2.035-.581"/><path d="m142.14 43.713c.496 0 2.54.085 3.488.291h1.453"/><path d="m108.42 50.4h.291c-.785 0-.382.018 1.163-.291 1.301-.1 2.38-.332 3.779-.581 1.553-.389 2.17-.392 3.197-1.453 1.164-.776 1.548-1.455 1.744-2.907.202-.928.326-2.03.872-2.616"/><path d="m121.21 46.33v.291 1.163c0 1.495.058 2.594.582 3.488.597 1.248.973 1.795 2.034 2.325.963.385 1.945.778 2.907 1.163h.872"/><path d="m128.48 53.31h.291 1.163c2.154 0 4.02.232 6.104.291h4.069c1.431-.051 2.579-.291 4.07-.291h2.906"/><path d="m121.79 43.42h.29 1.163c1.203-.401 2.817-.358 4.069-.581.517.278.875.624 1.454.872"/><path d="m122.96 39.35h.291c-.784 0-.387-.019 1.163.291.718.622 1.426.983 2.616 1.163"/><path d="m123.83 36.446h.291c-.784 0-.387-.019 1.163.291.748.764 1.947 1.477 2.616 2.325.636.376 1.017.83 1.744 1.163"/><path d="m115.69 53.887v.291c0-.856-.049-.374.872 1.163.097 1.355.211 2.917.872 3.779.192 1.414.234 1.8-.29 2.907-.452 1.016-1.033 2.319-1.744 2.907-.581.853-1.443 1.206-2.035 2.035-.758.531-1.529 1.582-2.035 2.325-1.113 1.241-1.359 1.959-2.325 2.616-.374 1.121-.909 1.664-1.454 2.907-.872 1.028-1.513 2.024-2.034 3.198-.408.951-.465 2.556-.872 3.779v.872"/><path d="m112.49 80.05v-.291-1.163c0-1.466.131-2.728.291-4.07.445-1.039.877-2.203 1.162-3.488.598-.879.852-1.78 1.454-2.907.31-1.136.889-2.02 1.744-2.616.364-1.092.827-1.734 1.453-2.907.457-.931 1.373-2.07 1.744-3.488.444-.527.606-1.393.872-2.325"/><path d="m123.83 58.25v.291c0-.812.036-.38-.581 1.163-.447 1.246-1.14 2.286-1.453 3.488-.605 1.301-1.014 2.702-1.454 4.069-.232 1.299-.29 2.623-.29 4.07v4.069c0 1.487-.274 2.603-.291 4.07-.371.741-.51 1.525-.291 1.744"/><path d="m127.03 59.41c-.275 0-.166.743-.291 1.744-.105 1.371-.291 2.417-.291 4.069-.295 1.379-.704 2.541-.872 3.779-.409 1.382-.813 2.141-.872 3.779.595.875 1.348 1.502 1.744 2.907.47.957 1.018 1.939 1.454 3.198 0 1.578.272 2.253.29 3.779 0 .717-.056 1.166.291 1.744"/><path d="m132.84 61.45v.291c0-.812.036-.38-.581 1.163-.92 1.246-1.503 2.334-2.035 3.197-.442 1.376-.943 2.689-.581 4.07.095 1.332.345 2.911.872 3.779.053 1.428.291 2.198.291 3.779.1 1.3.29 2.234.29 3.779 0 1.183-.006 2.42-.29 3.198-.547.234-.407.497-1.163.581"/><path d="m129.06 54.47c-.366 0 .169.778.29 1.744.402.669.291 2.09.291 3.197"/><path d="m134.29 55.34h.29c-.911 0-.366-.06 1.163 1.163.217.999.436 2.121.581 3.197"/><path d="m140.4 54.47v.291 1.163c.299 1.394.581 2.482.581 4.069l-.581-4.069c.299 1.394.581 2.482.581 4.069"/><path d="m143.88 54.759h.291c-.856 0-.374-.05 1.162.872v.872"/><path d="m142.14 61.735h-.291c.911 0 .352-.076-.872 1.453-.459.918-1 1.666-1.453 2.616-.533.987-.737 1.487-.872 2.616"/><path d="m137.2 62.32c-.168 0-.508.908-1.162 1.453-.259 1.19-.563 1.956-.582 3.488 0 1.885.351 2.203 1.163 3.488.682.787 1.055 1.507 1.163 2.907v4.07 4.069c-.201 1.335-.573 1.987-1.454 2.616-1.115.726-1.256.184-2.034-.872-.272-.897-.653-1.316-.872-2.325"/><path d="m144.76 61.735v.291c0-.785.019-.385-.291 1.163-.529 1.309-1.299 2.582-1.744 3.488-.405 1.014-.581 1.907-.581 3.488.244 1.364.529 2.61.581 4.069 0 1.595-.395 2.53-.581 3.779-.57 1.081-1.069 2.44-1.744 3.197-.155.465-.136.116-.291.581"/><path d="m148.24 58.54v.291c0-.813.036-.38-.581 1.163-.103 1.446-.419 2.573-.582 3.779-.384.897-1.056 2.595-1.453 3.488-.601.977-.872 1.447-.872 3.197.601 1.03 1.523 1.944 2.616 2.325.447.944.641 2 1.163 3.198.102 1.433.415 2.669.581 4.069v1.163"/><path d="m151.44 60.863l-.291.291c.64-.64.317-.425 0 1.163 0 1.483-.192 2.683-.291 4.069-.518 1.037-.995 2.247-1.162 3.488.252 1.381.907 1.686 2.034 2.325.676.645 1.656 1.2 2.616 1.744 1.086.633 1.831 1.351 2.617 2.326.866 1.074 1.409 1.31 2.034 2.616.167 1.235.555 2.402.291 3.488 0 .388.097.291-.291.291"/><path d="m153.48 54.18h.291c-.911 0-.35-.074.872 1.453.315 1.26.291 2.647.291 4.069.556.818.773 1.907.872 3.197.306.92.29 2.439.29 3.779-.097 1.134-.459 1.835 0 2.907 1.263.764 2.139 1.608 2.907 2.325 1.069.534 1.492 1 2.326 2.035.529.934 1.14 1.92 1.744 2.616.232 1.299.29 2.624.29 4.069 0 1.707.053 2.545-.872 3.488-.44 0-.927.078-.29.291"/><path d="m149.41 42.26v.291 1.163c.205 1.381.858 2.296 1.744 3.197.543.799 1.236 1.492 2.035 2.035 1.122.381 1.53.581 2.906.581"/><path d="m152.9 50.98h.291c-.785 0-.388-.019 1.162.291.983.492 1.475 1.165 2.326 1.744.246.904.598 2.365 1.163 3.197.207 1.161.38 2.251.872 2.907"/><path d="m127.9 44.3v.291 1.163c.835.724 1.55.872 3.197.872 1.3.1 2.235.291 3.779.291h4.07c1.553 0 1.869.023 2.325-1.453.596-.809-.194-1.089-.581-1.744l.581 1.744c.596-.809-.194-1.089-.581-1.744"/><path d="m166.56 84.7h.291c-.912 0-.367-.06 1.162 1.163.18.87.548 1.327.872 2.035"/></g></g><path stroke="#000" fill-rule="evenodd" d="m83.42 73.07h-.291c.856 0 .373-.05-1.163.872-.855.599-1.434 1.48-1.744 2.616-1.014.676-.441 1.125.872 1.163 1.739-.021 2.194-.195 3.198-1.163.705-.528 1.15-1.378.581-2.326l-.581 2.325c.705-.528 1.15-1.378-.872-3.488z"/><g fill="none" stroke="#2b2b2b"><path d="m171.21 85.57v.291c0-.784-.019-.386.29 1.163.155.36.263.659.582.872"/><path d="m174.12 85.28v.291 1.163c.509.69.963 1.508 1.454 2.035"/><path d="m177.02 86.15v.291c0-.856-.05-.374.872 1.163.123.369.213.458.582.581"/><path d="m86.91 84.99v.291 1.163c-.217 1.083-.898 1.828-1.453 2.325l1.453-2.325c-.217 1.083-.898 1.828-1.453 2.325"/><path d="m90.11 85.86v.291 1.163c-.418.597-.657.946-1.163 1.163"/><path d="m92.73 85.28v.291 1.163c-.071.713-.388 1.101-.581 1.744"/><path d="m96.5 84.7h.291c-.077.193 0 1.297 0 2.035-.314.584-.776.69-1.163 1.163"/></g></g><g fill="#2b2b2b" fill-rule="evenodd"><path d="m116.56 25.982h-.29c.101.271.407 1.628.581 2.035.804.575 1.226 1.483 1.744 2.325.724-.836.872-1.55.872-3.197-.386-1.117-1.559-1-2.907-1.163"/><path d="m150.57 27.14c-.085 0-.85.537-1.744.872-.216 1.594-.12 1.767.581 2.907 1.388-.107 1.419-.419 1.744-1.744.642-.857.191-.662-.581-2.035"/></g></g><g stroke-width="1.25"><g fill="none" stroke="#2b2b2b" transform="matrix(7.6403 0 0 8.9872-395.54-872.9)"><path d="m144.18 31.505h-.291-.872c-1.55-.277-2.404-.367-3.488.581-.334 1.247-.515 2.257.291 2.907.989.242 1.575.646 2.616.872.561-.912 1.018-1.575 1.744-2.616.671-.224.192-.721 0-1.744v1.744c.671-.224.192-.721 0-1.744"/><path d="m129.35 31.505c-.097-.097-.194-.194-.29-.291.659.659.419.342-1.163-.291-1.34 0-2.859-.016-3.779.291-.365.73.441 1.277 1.163 1.744.799.543 1.491 1.236 2.034 2.035.808.594.984 1.426 2.035 1.744.47-.992.877-1.712 1.163-3.197-.183-.548-.664-1.148-1.163-2.035z"/></g><g fill-rule="evenodd"><g stroke="#000" transform="matrix(7.6403 0 0 8.9872-395.54-872.9)"><path d="m78.19 71.62c-.336 0-2.424-.019-3.198.291-.802 1.248-.634 1.936.291 2.616.243 1.611.778 1.678 2.616 1.744.772.579 1.506.371 1.744-.581.497-.829.257-1.737-.291-2.325 0-.911.061-.215-1.163-1.744z"/><path d="m72.09 77.14h-.291c.813 0 .326-.09-.291 1.453 0 .898-.075 1.838.291 2.325 1.044 0 2.29.079 2.907-.291.48-1.279.553-2.238-.581-2.616-.384-.577-.989-.569-2.035-.872z"/><path d="m83.13 80.63h-.291-1.163c-.614.53-1.366 1.17-1.744 2.035 1.217.332 1.575.994 2.326 1.744 1.896-.023 2.163-.113 2.325-2.035 0-1.135.042-.448-1.453-1.744z"/><path d="m182.25 82.08h-.29-1.163c-1.363.441-1.622.911-1.744 2.616.853.515 1.938 1.114 3.197 1.453.91.532 2.122.746 3.489.291.566-.92 1.031-1.17 1.162-2.616-.996-.303-2.545-.9-3.197-1.453l3.197 1.453c-.996-.303-2.545-.9-4.651-1.744z"/><path d="m185.16 75.11h-.291c.912 0 .352-.076-.872 1.453-.308 1.42-.059 1.956.582 3.197 1.287.634 1.416 1.609 2.616 2.035.558.558.291-.751.291-1.453.247-1.539.753-1.95.872-3.488-.267-1.089-.616-1.684-1.744-2.035l1.744 2.035c-.267-1.089-.616-1.684-3.198-1.744z"/><path d="m191.85 75.979h-.291c.911 0 .351-.076-.872 1.453-.562.926-.581 2.328-.581 3.779.48 1.296 1.187.496 1.744-.291.985-.67 1.391-.94 1.453-2.616 0-1.373.016-.758-1.453-2.325z"/><path d="m195.92 80.05h-.29c.784 0 .387-.019-1.163.291-.965 1.106-1.697 1.675-2.035 3.198 1.363.296 2.249.092 3.779-.291.624-1.362.692-1.097-.291-3.198z"/></g><path d="m127.74 32.473h-.103-.411c-.202.27-.089.558.103.822.106.353.062.488.411.617.249.297.591.448 1.028.514.709-.065.437-.246.308-.719-.239-.276-.232-.565-.617-.719-.111-.167-.434-.321-.719-.514" transform="matrix(10.1 0 0 11.729-711.28-965.51)"/><path d="m141.51 32.679c-.081.017-.525.204-.719.308-.33.392-.451.518-.309.925.341.136.726.248 1.234.308.503-.097.486-.34.514-.822-.109-.254-.365-.41-.72-.719" transform="matrix(10.81 0 0 14.39-842.28-1054.2)"/><path d="m38.66-669.61v.29 1.163c.331 1.406.367 1.883 2.035 2.035h4.069 4.069 4.069c1.279-.12 1.163-.407 1.163-1.744.191-.298-.147-1.228-.581-1.744-1.15.408-1.433 1.465-2.907 1.744-1.675 0-2.462.018-3.197-.872-.836-.541-.92-1.612-1.744-.582-.939.567-1.815.872-3.488.872-1.776 0-1.802-.196-3.488-1.162" transform="matrix(8.4681 0 0 10.301 240.03 6456.7)"/></g></g><path fill="none" stroke="#2b2b2b" stroke-width="1.109" d="m42.73-676.01h.291c-.911 0-.368-.062 1.163 1.163.123.696.291.847.291 1.744" transform="matrix(8.4681 0 0 10.301 238.56 6449.1)"/><g fill-rule="evenodd"><path stroke-width="1.109" d="m42.44-673.68h-.291c.084.21.147 1.314.291 1.744 1.453 0 .773-.244 0-1.744" transform="matrix(21.986 0 0 13.678-336.34 8719.8)"/><path stroke-width="1.591" d="m49.41-673.97h-.291c.813 0 .38-.036-1.163.581-.557.786-1.377 1.166-.291 2.035 1.206.068 1.815.29 3.197.29v-2.034 2.034c0-.678 0-1.356-1.453-2.906" transform="matrix(5.3102 0 0 7.9857 382.26 4894.3)"/></g><path fill="none" stroke="#2b2b2b" stroke-width="1.109" d="m48.834-675.72h-.291c.784 0 .387-.02-1.163.29-.304.514-.737 1.051-1.163 1.454" transform="matrix(8.4681 0 0 10.301 237.82 6449.1)"/></g><g stroke-width="1.25"><g stroke="#2b2b2b"><g transform="matrix(1.23704 0 0 1.27467 209.21 181.32)"><path fill="#d40f0f" fill-rule="evenodd" fill-opacity=".996" d="m81.971 123.07c-.638 0-3.02.044-4.36-.29-1.635.06-1.956.533-3.197.872-1.428-.053-2.198-.291-3.779-.291-1.136-.613-1.932-1.105-3.488-1.163-1.16-.156-2.297-.29-3.779-.29-1.695.02-2.307.525-3.488 1.162-.541.796-1.235 1.542-2.035 2.326-.64.94-1.2 1.342-2.325 2.325-.617.907-1.26 1.361-1.744 2.907 0 1.34-.016 2.859.291 3.779.191 1.409.536 2.117.581 3.778 0 1.527-.101 2.769-.581 4.07-.321 1.443-.873 2.345-1.453 3.779-.305.915-.491 2.511-.581 3.779.213 1.214.799 2.39 1.163 3.778.351 1.406.636 2.617 1.163 3.488.339 1.121.843 1.017.872 2.616 0 1.578.272 2.254.291 3.779.434.868.641 2.289.872 3.488.691.84.865 1.729 2.035 2.326.25-1.399.481-2.477.581-3.779.168-.94.22-2.595.581-3.197.317 1.163.845 1.743 1.163 2.906.556.673 1.035 1.98 1.453 2.907.597.163.581-.055.581-1.163.342-1.026.534-2.213.872-3.488v-1.162c.719.828 1.211 1.966 1.744 2.906.546.804 1.107 1.63 2.035 2.326 1.398.329 1.163.002 1.163-1.454v-4.069c.061 1.635.534 1.956.872 3.197.682.682 1 1.269 2.325 1.454.574-.933 1.174-1.425 1.744-2.616 0-1.603.126-2.526.581-3.488.866-1.074 1.252-1.46 2.325-2.326 1.132-1.01 2.211-2.01 3.488-2.616.715-1.031 1.562-1.705 2.616-2.616 1.182-1.095 2.178-2.384 2.907-3.779.847-.847 1.622-2.283 2.035-3.779.775-1.214 1.026-2.623 1.163-4.36.621-1.418 1.157-2.802 1.453-4.36 0-1.563-.125-2.846-.291-4.069-.72-1.21-1.197-2.684-1.744-3.489-.343-1.076-1.164-2.38-1.453-3.488-.745-1.395-.672-1.87-2.616-2.034-.914 0-.784-.113-2.035-.582z"/><g fill="none"><path d="m55.52 129.46v.291c0-.785-.019-.386.291 1.162.157 1.16.291 2.298.291 3.779 0 1.482.134 2.619.291 3.779.145 1.206.403 1.857 1.453 2.616"/><path d="m58.43 136.44c.205 0 .313.895.872 1.454.294 1.078.82 2.19 1.453 3.488.286 1.485.693 2.205 1.163 3.197.273.682.377 1.567.872 2.035v-4.069-4.07c-.266-1.488-.57-2.419-.872-3.779v-1.744"/><path d="m63.949 137.31c.055.6.448 2.522.872 3.489.388 1.018.852 2.212 1.453 2.906.123.696.417 1.044.872 1.744 1-.809 1.76-1.455 2.035-2.906.44-1.027.772-2.192.872-3.489.103-1.446.418-2.573.581-3.778 0-1.524-.002-2.636-.581-3.488l.581 3.488c0-1.524-.002-2.636-.581-3.488"/><path d="m71.51 139.35v.291c0-.785-.019-.386.291 1.163.209.962.291 2.156.291 3.488-.316.21-.435.82-.581 1.162"/><path d="m74.12 134.99v.291 1.162c0 1.271.12 2.957-.291 3.779 0 1.482-.134 2.619-.291 3.779.384 1.918.707-.112.872-.872.349-.916.716-2.434 1.163-3.198.181-1.517.526-2.299.581-3.778.294-1.178.291-2.443.291-3.779"/><path d="m78.19 128.88c.101 0 .879.73 1.744 1.163.202 1.34.685 1.809.872 3.197v1.453"/><path d="m77.901 126.85c.373.156 1.729 1.101 2.325 1.453.797.08 1.079.116 1.163.872"/><path d="m77.61 125.1h.291 1.163c.696.077.635.291 1.453.291"/></g></g><g fill="#d30f0f" fill-rule="evenodd" fill-opacity=".996" transform="matrix(1.23704 0 0 1.27467 209 182.19)"><path d="m186.32 126.27h-.291-1.163c-1.3.238-1.723.858-2.325 1.744l2.325-1.744c-1.3.238-1.723.858-2.325 1.744"/><path d="m186.9 124.52c-.097-.097-.194-.194-.29-.291.64.64.424.317-1.163 0-.972-.201-1.063-.201-2.035 0"/><path d="m184.29 122.49h.291 1.163c1.759.141 3.182.56 4.941.581 1.466 0 2.728-.131 4.069-.29.823-.412 2.509-.291 3.779-.291 1.655 0 2.413.177 3.779.581.994.259 2.576.772 3.488 1.163.958.453 1.866.78 2.907 1.453 1.113.755 1.392 1.239 1.453 2.907-.155 1.15-.344 2.453-.581 3.779.102 1.433.415 2.669.581 4.069.315 1.26.291 2.648.291 4.07-.223 1.077-.694.997-1.163 2.035.819.54 1.822 1.584 2.326 2.325.243 1.364.529 2.611.581 4.069 0 1.631-.038 2.532-.581 3.779-.379 1.406-.832 1.999-1.163 3.488-.249 1.145-.729 2.315-1.163 3.198-.481.707-.812 2.278-1.162 3.197-.182 1.384-.627 2.701-1.163 3.488-.296 1.085-.443 1.898-1.453 2.326-.865-.216-.582-.776-.582-1.744.207-1.159.326-2.02 0-2.907-.951-.224-1.015.454-1.453 1.744-.617.663-.654 1.518-1.454 2.035-.992 1.201-1.342.777-2.034-.872 0-1.545-.191-2.479-.291-3.779-.156-1.876-.337 1.047-.581 1.453-.329 1.48-.835 1.993-1.163 3.198-1.195.437-1.654.426-1.744-1.163.232-1.299.291-2.623.291-4.069-.73-.842-.783-.179-1.163.581-.064 1.721-.497 1.928-1.163 2.907-.971.574-.747.582-1.163-.872-.462-1.102-.803-1.518-1.744-2.035-.835-.724-1.549-.872-3.197-.872-1.519-.056-2.259-.552-3.488-.872-1.16-.332-2.288-.587-2.907-1.163-.552-.812-1.348-1.857-2.035-3.197-.749-1.368-1.105-2.227-1.162-3.779-.25-1.396-.414-2.935-.582-4.36-.329-1.977-.816-4.129-1.162-6.104-.501-1.557-.988-2.929-1.163-4.651-.578-1.277-.896-2.666-1.163-4.07 0-1.34-.016-2.859.291-3.778.554-1.075 1.189-1.801 1.744-2.617.818-1.014 1.358-1.754 2.616-2.616.649-.775 1.93-1.303 2.907-1.744.657-.281 1.104-.366 2.325-.581z"/><path d="m187.2 129.46v.291c0-.856.083-.341-1.453.581-.794.756-1.504 1.015-2.326 2.035-.186.435-.557.791 0 1.163"/><path d="m186.9 132.66v.29c0-.784-.019-.386.291 1.163.051 1.377.291 2 .291 3.488-.535.891-.221 2.137.29 3.198.456 1.269 1.035 2.151 1.454 3.197.62.207.29-.223.29-1.163-.376-1.129-.224-2.592 0-4.069v-3.488"/><path d="m194.75 132.08h-.29c.812 0 .326-.089-.291 1.454v4.069c-.306.92-.291 2.439-.291 3.779-.309 1.425-.515 1.846 1.163 2.325.438.677 1.016 1.068 1.454 1.744.552-1.363 1.137-2.596 1.453-4.069.465-.84.654-2.561.872-3.779.479-.582 1.085-1.656 1.453-2.325"/><path d="m202.31 132.37v.291c0-.785-.019-.386.291 1.162.022 1.271.29 2.194.29 3.488-.572.843-.653 2.029-1.162 3.198-.509 1.379-.853 2.446-.872 4.069 0 .976-.26 2.032.581 1.454.598-1.287 1.107-2.683 1.453-4.07.639-1.262.993-2.224 1.454-3.197.152-1.278.18-2.867.581-4.07l-.581 4.07c.152-1.278.18-2.867.581-4.07"/><path d="m209.29 130.34c-.097.097-.193.194-.29.291.573-.573.324-.424 0 .872 0 1.336.15 3.187-.291 4.069-.206 1.73-.456 2.275-1.453 3.488-.202.505-.58 1.259-.872 1.454"/><path d="m192.72 140.22v.291c0-.785.019-.386-.291 1.163-.555.64-1.384 1.872-1.744 2.906-.239.08-.79.291-.291.291"/><path d="m191.85 143.42h.29c-.812 0-.327-.091.291 1.453.233.932.639.812.872 1.744"/></g></g><g transform="matrix(1.23704 0 0 1.27467 209 179.97)"><g fill-rule="evenodd" fill-opacity=".996"><g fill="#000f0f" stroke="#000"><path d="m77.32 201.26c-.275 0-.165.743-.291 1.744v4.07c.189 1.439.683 2.802 1.453 3.488.463.463 1.443 1.204 2.035 1.744 0-1.544.191-2.479.291-3.779.486-.831.637-2.133 1.163-2.907.128-1.667.73-1.681 1.163-3.197.497-.723-.534-.786-1.453-.872-1.085-.255-2.104-.617-2.907-1.163l2.907 1.163c-1.085-.255-2.104-.617-4.36-.291z"/><path d="m92.44 200.68h-.291c.856 0 .341-.084-.581 1.453 0 1.41.067 2.751.291 3.779.6.726.812 1.919 1.163 2.907.52.32.844-.467 1.163-1.163.589-1.454 1.25-2.135 1.453-3.488.319-1.171.868-1.652 1.163-2.907-.618-1.29-.944-1.849-2.616-2.034-.73.73-.18.202-1.744 1.453z"/><path d="m168.59 200.39h.29c-.157.421-.29 1.73-.29 2.616-.217 1.216-.45 2.289 0 3.489.834.367 1.373.644 1.744 1.453.679.572.829.87.872-.581.63-1.388.928-1.736 1.744-2.907.577-.987.801-1.656.581-3.198-.751-1.522-1.176-1.701-2.907-2.034-1.823 0-1.797 1.361-2.325 2.616"/><path d="m182.84 202.13h-.291c.233.608.581 1.864.581 2.907.232 1.299.291 2.624.291 4.07-.173 1.155-.465 1.162.872 1.162.544-1.295.973-2.269 1.744-2.906.372-1.222.815-1.956.872-3.489 0-1.2.09-2.727-.29-3.488-2.109 0-2.041.291-3.779 1.744z"/><path d="m195.63 195.74h-.291c.812 0 .38-.035-1.163.582-.72.943-1.826 1.415-1.453 2.907 1.453.49 2.267.848 2.907 1.744.925.508 1.596.891 2.034 1.744.531.353.84.906 1.163 1.453-.174-1.463-.479-2.444-.581-3.779-.02-1.646-.31-2.235-.872-3.197-.118-1.055-.425-.815-1.744-1.454z"/><path d="m197.66 189.92h-.29c.855 0 .373-.05-1.163.872-.651 1.176-.667 2.169-.291 3.197 1.424.212 1.995.83 2.616 1.744.867.867 1.468 1.452 2.326 2.035-.622-1.059-1.178-2.025-1.454-3.197-.048-1.293-.259-2.233-.581-3.198l.581 3.198c-.048-1.293-.259-2.233-1.744-4.651z"/><path d="m69.47 195.74c-.098 0-.931.537-1.453 1.163-1.414.78-2.175 1.229-2.325 2.907-.051 1.377-.291 2-.291 3.488.412.412.075 1.669.581 1.163.886-.975 1.342-1.861 2.326-2.616.659-.628 1.881-1.288 2.907-1.744 1.626-.473 1.499-.313.581-1.744-.517-.876-1.199-1.351-2.325-2.617z"/><path d="m67.44 190.22h-.291c.856 0 .373-.05-1.163.872-.728.909-1.626 1.173-2.035 2.325-.677.819-.853 1.654-.872 3.197.027.941.181 1.826.581 2.326.388-1.094.861-1.739 2.035-2.326.722-.467.919-1.093 1.744-1.453.599-.256 1.261-.101 1.453-.872-.191-1.782-.728-2.304-1.453-4.069z"/></g><g fill="#d40f0f" stroke="#2b2b2b"><path d="m89.82 181.2v.29c0-.855.05-.374-.872 1.163-1.014.405-1.907.581-3.488.581-.881.661-1.457.457-2.035 1.744-.779.817-1.136 1.269-2.326 1.745-1.34 0-2.859.015-3.779-.291-.976-.527-2.371-.92-3.488-1.163-1.578.019-2.367.391-3.488.872-1.201.283-1.954.653-2.616 1.454-.782.312-.782.779-.872 1.744.415.691.037 1.069.872 1.162.465.569.581.589.581 1.744.312 1.249.269 2.821.581 4.07.67 1.595 1.176 1.722 2.325 2.616.997.472 1.71.929 2.907 1.453 1.07.55 2.357.627 3.488.872.929 1.097 1.525 1.532 2.907 2.035 1.426-.215 1.649-.82 2.907-1.163.491-.491 1.255-.089 1.744-.872.427-.823.616-2.682 1.163-3.488.638-1.294 1.513-1.95 2.907-2.325.765-.574 1.649-.645 2.616-.291-.064 1.726-.616 1.797-.872 3.198-.498.922-.818 1.737-.291 2.616 1.215.405 2.679.29 4.07.29 1.876-.316 2.01-.745 2.035-2.616-.277-1.177-.697-1.901-.872-3.197 0-.898-.075-1.839.291-2.326.608.223 2.01.359 2.616.582.497.994.92 1.252 2.035.872.353-.55.893-.953 1.163-1.454.294.8.865 1.516 1.453 1.163.613-1.28 1.039-1.684 2.325-2.035 1.231-.267 2.04-.629 2.907-1.162.88-.542 1.427-1.245 2.326-1.744.616-.962 1.241-1.601 1.453-3.198 0-1.711-.346-2.841-.581-4.36-.648-1.017-.967-2.114-2.035-2.907-.847-.508-2.038-.124-3.198 0-1.3-.1-2.234-.29-3.778-.29-1.491 0-2.639.239-4.07.29h-4.069c-1.687 0-2.571.236-3.779.872-.856 0-.241-.083-1.163 1.454z"/><path d="m157.55 191.67c.499.125 1.824.771 2.907.872 1.127.059.872.365.872 1.453.417.239.822.911 1.453 1.163.232-.43.702-1.099 1.163-1.453.269.627.575 1.305 1.453 1.744.737-1.398.674-1.721 2.616-1.744 1.222 1.159.858 2.235 0 3.197-.428 1.239-.61 2.314-.872 3.779.569.705 1.325.581 2.616.581.872-.522 2.01-.274 2.616.291 1.745-.087 1.681-.317 1.744-2.035v-4.069c.643-.643 1.335-.816 2.035-.291.726.6 1.075 1.992 1.744 2.907.099 1.278.257 2.453.872 3.197.656 1.369.87 1.68 2.616 1.744 1.522-.018 2.365-.228 3.779-.581 1.301-.238 1.724-.859 2.326-1.744 1.439-.387 1.842-.811 3.488-.872 1.497-.333 1.958-.87 2.906-1.453.626-.723.904-1.807 1.454-2.617.435-1.086.963-1.585 1.163-2.906.119-1.548.746-1.911 1.162-3.198.258-1.029-.256-1.678-1.162-2.325-.746-.647-1.834-.805-2.907-1.163h-4.07-4.069c-1.483 0-2.683-.191-4.07-.291-1.172-.676-1.724-1.124-2.616-2.034-1.261-.188-2.458-.898-3.488-1.454-.821-1.018-1.632-1.195-2.325-2.034-1.183-.502-1.789-1.153-3.198-1.744-1.199-.641-1.873-.971-3.488-1.163-1.387-.099-2.587-.291-4.069-.291-1.675 0-2.583.491-3.779.872-1.01 1.066-1.767 1.154-2.035 2.616-.411.823-.291 2.508-.291 3.779.292 1.363.874 2.669 1.163 3.779.115 1.224.291 1.869.291 3.488z"/></g></g><g fill="none" stroke="#2b2b2b"><path d="m82.84 189.92c-.633-.093-2.847-.291-4.36-.291-1.166.254-2.076.529-3.488.582-1.069.251-2.182.564-2.907 1.162-.976.092-1.281.403-2.326.582"/><path d="m83.13 192.54h-.291c.856 0 .373-.05-1.163.872-1.154 1.01-1.957 1.514-2.616 2.907-.789.657-1.01 1.241-2.035 1.453-.608.646-1.217 1.217-1.744 1.744"/><path d="m181.09 193.41h.29c-.812 0-.38-.036 1.163.581 1.216 1.062 1.267 1.595 2.907 1.744 1.532.558 1.696.89 2.325 2.326.212.493.291.915.291 1.744"/><path d="m181.67 189.63c.468.18 2.119 1.062 3.197 1.163 1.16.157 2.298.291 3.779.291 1.369.185 2.076.618 3.488 1.162h2.326"/></g></g></g><g stroke-width="1.25"><path fill="#0068bd" fill-rule="evenodd" d="m520.83-116.93c-1.257 33.442-9.08 53.15-35.434 53.15-17.716 0-35.764-15.68-35.433-35.433.332-19.753 22.568-20.962 37.859-19.339 5.425-16.09-20.14-33.81-91.01-33.81-70.16-.924-124.67 73.27-216.75 70.866-92.08-2.407-132.95-114.03-115.44-141.73-6.861 24.66-22.32 39.976-29.18 64.64-6.861 24.66 24.578 59.01 17.716 83.67-6.861 24.66-52.02 39.629-58.882 64.29s-5.123 58.664-11.984 83.32c0-17.717 31.404-59.727 73.41-59.727 35.433 0 152.45-27.03 159.45 265.75 0 230.52-140.57 239.62-185.51 223.26-.11 27.793 15.589 114.18 87.42 202.59 77.14 88.58 166.25 100.95 183.74 99.72-8.221-24.66-42.01-53.15-10.09-53.47 21.23.32 27.953 46.05 27.953 46.05s34.536-26.24 46.04-13.16c11.11 20.58-35.05 38.3-35.05 38.3s23.432 55.77 53.15 88.58c35.434 46.82 86.75 62.39 106.3 63.02 9.501.31 27.872 7.8 27.21 25.57-1.315 35.38-1.273 52.47-18.419 53.15h127.47c-17.15-.68-17.1-17.77-18.419-53.15-.661-17.77 17.71-25.26 27.21-25.57 19.554-.63 70.866-16.2 106.3-63.02 29.718-32.81 53.15-88.58 53.15-88.58s-46.16-17.72-35.05-38.3c11.505-13.08 46.04 13.16 46.04 13.16s6.727-45.73 27.953-46.05c31.923.32-1.866 28.81-10.09 53.47 17.494 1.23 106.6-11.14 183.75-99.72 71.83-88.41 87.53-174.8 87.42-202.59-44.95 16.356-185.52 7.256-185.52-223.26 6.996-292.78 124.02-265.75 159.45-265.75 42.01 0 73.42 42.01 73.42 59.727 0 4.417 4.05-25.16-3.67-52.07-7.72-26.914-46.31-46.3-56.6-84.4-10.29-38.09 7.72-94.89 0-124.02-7.72-29.12-22.06-35.433-22.06-35.433 17.5 27.695-23.37 139.32-115.45 141.73-92.08 2.407-146.59-71.79-216.75-70.866-70.866 0-96.43 17.716-91.01 33.81 15.291-1.623 37.527-.414 37.859 19.339.331 19.753-17.717 35.433-35.433 35.433-26.349 0-34.18-19.708-35.434-53.15h-81.6z" transform="matrix(.15111 0 0 .12399 289.4 312.52)"/><g stroke="#000"><g transform="matrix(.15111 0 0 .12399 289.4 312.52)"><path fill="#e8e1cb" fill-rule="evenodd" d="m215.15 278.72c0 230.52-140.57 239.62-185.51 223.26-.11 27.793 15.589 114.18 87.42 202.59 77.14 88.58 166.25 100.95 183.74 99.72-8.221-24.66-42.01-53.15-10.09-53.47 21.23.32 27.953 46.05 27.953 46.05s34.536-26.24 46.04-13.16c11.11 20.58-35.05 38.3-35.05 38.3s23.432 55.77 53.15 88.58c35.434 46.82 86.75 62.39 106.3 63.02 9.501.31 27.872 7.8 27.21 25.57-1.315 35.38-1.273 52.47-18.419 53.15h127.47c-17.15-.68-17.1-17.77-18.419-53.15-.661-17.77 17.71-25.26 27.21-25.57 19.554-.63 70.866-16.2 106.3-63.02 29.718-32.81 53.15-88.58 53.15-88.58s-46.16-17.72-35.05-38.3c11.505-13.08 46.04 13.16 46.04 13.16s6.727-45.73 27.953-46.05c31.923.32-1.866 28.81-10.09 53.47 17.494 1.23 106.6-11.14 183.75-99.72 71.83-88.41 87.53-174.8 87.42-202.59-44.95 16.356-176.21 16.558-176.21-213.96-2.107-9.149-2.776-27.29-4.275-35.824-1.499-8.535-35.472 26.766-38.855 26.587-11.423-.359-46.732-32.686-71.856-37.07-11.852-1.893-50.628 33.3-60.17 33.994-12.495.726-28.51-35.973-55.13-32.2-19.595 3.103-35.643 36.54-40.445 31.758-12.349-12.298-25.95-20.02-41.7-22.942-23.548-2.04-36.935 16.411-49.59 31.592-.443-12.395-17.16-24.791-36.21-23.23-13.7-139.99-122.91-282.93-131.79-287.41-6.593-2.637-4.078 13.602-6.117 20.403-16.619-4.561-33.24-9.123-49.858-13.684-3.181 8.08-1.712 16.17-9.545 24.25-19.861-14.947-30.421-43.847-45.631-44.842-5.423 17.81-1.544 54.22-2.316 81.33-12.574-8.365-25.15-16.73-37.724-25.09-1.01 8.847-2.02 17.694-3.03 26.541-1.214 10.631-51.2-28.6-61.02-28.856-9.811-.255-21.479 27.453-30.29 27.304-8.817-.149 56.995 42.98 73.29 238.09z"/><g fill="none"><path d="m199.99 175.68s23.255-32.556 51.16-27.905c27.905 4.65 58.14 106.97 58.14 106.97"/><path d="m279.05 40.803c0 4.651 18.603 79.06 34.881 102.32 16.278 23.254 53.49 41.857 72.09 69.762 18.604 27.906 27.905 104.64 27.905 104.64"/><path d="m320.91 5.922s6.977 37.21 18.604 65.11 39.532 37.21 53.48 60.46c13.953 23.254 23.255 69.762 23.255 69.762"/><path d="m211.61 336.13s32.555-4.651 60.46 32.556c27.906 37.21 32.556 86.04 32.556 86.04"/><path d="m813.9 284.97s20.929-2.326 34.881 13.952c13.953 16.278 11.627 27.905 9.302 27.905"/><path d="m811.57 308.23s18.603 0 25.579 4.651c6.977 4.651 9.302 27.905 9.302 27.905"/><path d="m799.95 331.48c2.325 0 16.278-13.952 25.579-9.302 9.302 4.651 11.627 30.23 11.627 30.23"/><path d="m788.32 343.11s16.278-2.325 25.58 4.651 6.976 18.603 6.976 18.603"/><path d="m741.81 343.11c2.325 0 30.23 9.302 41.858 20.929 11.627 11.627 9.301 37.21 9.301 37.21"/><path d="m874.36 357.06s6.976-4.651 23.254 9.301c16.278 13.953 18.604 30.23 18.604 30.23"/><path d="m872.03 382.64s18.603 2.326 27.905 9.302c9.301 6.976 23.254 23.254 23.254 23.254"/><path d="m865.06 412.87s23.255-9.302 32.556-4.651c9.302 4.651 25.58 18.603 25.58 18.603"/></g></g><g fill="#b03f00" fill-rule="evenodd" transform="matrix(.08233-.02972.03519.06563 394.56 341.09)"><path d="m-301.18-134.65v442.91h17.716v-442.91l-8.858-35.433-8.858 35.433z" transform="translate(-248.03)"/><path d="m-301.18-134.65v407.48h17.716v-407.48l-8.858-35.433-8.858 35.433z" transform="translate(35.433)"/></g><g transform="matrix(.08233-.02972.03519.06563 394.56 341.09)"><g fill="none"><use transform="matrix(1 0 0 1.1905 35.433 18.898)" xlink:href="#0"/><use transform="matrix(1 0 0 1.1905 70.867 18.897)" xlink:href="#2"/><use transform="matrix(1 0 0 1.1905 106.3 18.897)" xlink:href="#1"/><use transform="matrix(1 0 0 1.1905 141.73 18.897)" xlink:href="#8"/><use transform="matrix(-1 0 0 1.1905-549.21 18.898)" xlink:href="#0"/><use transform="matrix(-1 0 0 1.1905-584.65 18.897)" xlink:href="#2"/><use transform="matrix(-1 0 0 1.1905-620.08 18.897)" xlink:href="#1"/><use transform="matrix(-1 0 0 1.1905-655.51 18.897)" xlink:href="#8"/><use transform="matrix(-1 0 0 1.1905-673.23 18.897)" xlink:href="#3"/><use transform="matrix(1 0 0 1.1905 159.45 18.897)" xlink:href="#3"/><path d="m-407.48 184.25h301.18" transform="matrix(1 0 0 1.1905 0 18.898)"/><path d="m-124.02 148.82h-265.75" transform="matrix(1 0 0 1.1905 0 18.898)" id="B"/><path d="m-372.05 113.39h230.32" transform="matrix(1 0 0 1.1905 0 18.898)" id="C"/><path d="m-159.45 77.953h-194.88" transform="matrix(1 0 0 1.1905 0 18.898)" id="D"/><path d="m-336.61 42.52c0 .581 159.45 0 159.45 0" transform="matrix(1 0 0 1.1905 0 18.898)" id="E"/><path d="m-194.88 7.087h-124.02" transform="matrix(1 0 0 1.1905 0 18.898)" id="F"/><path d="m-301.18-28.346c.581 0 89.34.034 88.58 0" transform="matrix(1 0 0 1.1905 0 18.898)" id="G"/><path d="m-283.46-63.78h53.15" transform="matrix(1 0 0 1.1905 0 18.898)" id="H"/><use transform="matrix(1 0 0 1.1905-248.03 39.989)" xlink:href="#0"/><use transform="matrix(1 0 0 1.1905-212.6 39.988)" xlink:href="#2"/><use transform="matrix(1 0 0 1.1905-177.16 39.988)" xlink:href="#1"/><use transform="matrix(1 0 0 1.1905-141.73 39.988)" id="I" xlink:href="#8"/><use transform="matrix(-1 0 0 1.1905-832.68 39.989)" xlink:href="#0"/><use transform="matrix(-1 0 0 1.1905-868.11 39.988)" xlink:href="#2"/><use transform="matrix(-1 0 0 1.1905-903.54 39.988)" xlink:href="#1"/><use transform="matrix(-1 0 0 1-1080.71 0)" xlink:href="#I"/><use transform="matrix(-1 0 0 1.1905-956.69 39.989)" xlink:href="#3"/><use transform="matrix(1 0 0 1.1905-124.02 39.989)" xlink:href="#3"/><path d="m-407.48 184.25h301.18" transform="matrix(1 0 0 1.1905-283.46 39.989)"/><g transform="translate(-283.46 21.09)"><use xlink:href="#B"/><use xlink:href="#C"/><use xlink:href="#D"/><use xlink:href="#E"/><use xlink:href="#F"/><use xlink:href="#G"/><use xlink:href="#H"/></g></g><g fill="#b03f00" fill-rule="evenodd"><path d="m-407.48 237.4h372.05v53.15l17.717 17.717h-17.717v35.433h17.717l-17.717 17.716 53.15 70.866-106.3 212.6h-566.93v-283.46h88.58v-70.866h53.15l106.3-53.15z"/><use xlink:href="#4"/><use transform="translate(0-17.716)" xlink:href="#4"/><use transform="translate(0-53.15)" xlink:href="#4"/><use transform="matrix(.9 0 0 1-3.543-70.866)" xlink:href="#4"/><path d="m-35.433 361.42l-141.73 283.46"/><path d="m-407.48 272.84h230.32"/><path d="m-442.91 255.12c34.35 1.539 407.48 0 407.48 0"/><path d="m-53.15,255.12-17.716,35.433"/><path d="m-70.866 308.27s-17.717 35.433-17.717 35.433"/><path d="m-230.32,308.27-17.716,35.433"/><path d="m-212.6,308.27-17.717,35.433"/><path d="m-53.15 396.85h-88.58l17.716-35.433"/><path d="m-70.866 432.28h-88.58l18.761-36.853-1.044 1.42"/><path d="m-88.58 467.72h-88.58l17.716-35.434"/><path d="m-106.3 503.15h-88.58l17.717-35.433"/><use xlink:href="#5"/><use transform="translate(-17.716 35.433)" xlink:href="#5"/><path d="m-53.15 396.85l70.866 35.433"/><path d="m-88.58 467.72l70.866 35.433"/><path d="m-160.45,433.8-495.32-1.16"/><path d="m-175.57 468.68c-1.162 1.162-480.2-2.326-480.2-2.326"/><path d="m-212.6 538.58c-35.433 0-442.91 0-442.01 1.023"/><path d="m-212.6 539.61s-442.91-1.023-442.01 0" transform="matrix(.96196 0 0 1-25.804 34.41)"/><use transform="translate(-35.434 70.866)" xlink:href="#5"/><use transform="translate(-53.15 106.3)" xlink:href="#5"/><use transform="matrix(1 0 0 .66666-53.15 126.38)" xlink:href="#6"/><use transform="matrix(1 0 0 .66666 70.866 126.38)" xlink:href="#6"/><use transform="matrix(1 0 0 .66666-53.15 232.68)" xlink:href="#6"/><use transform="matrix(1 0 0 .66666 70.866 232.68)" xlink:href="#6"/></g></g></g><g fill-rule="evenodd" transform="matrix(.08233-.02972.03519.06563 394.56 341.09)"><path d="m-496.06 379.13h70.866v23.622h-70.866z"/><path d="m-372.05 379.13h70.866v23.622h-70.866z"/><path d="m-496.06 485.43h70.866v23.622h-70.866z"/><path d="m-372.05 485.43h70.866v23.622h-70.866z"/><g fill="#b03f00" stroke="#000"><path d="m-301.18-99.21h88.58v17.717h-88.58z"/><path d="m-584.65-99.21h88.58v17.717h-88.58z"/></g></g><g stroke="#000"><g fill="none" transform="matrix(.08233-.02972.03519.06563 394.56 341.09)"><path d="m-407.48 237.4v-17.717h372.05v17.717"/><use xlink:href="#7"/><use transform="translate(17.717)" xlink:href="#7"/><use transform="translate(35.433)" xlink:href="#7"/><use transform="translate(53.15)" xlink:href="#7"/><use transform="translate(70.866)" xlink:href="#7"/><use transform="translate(88.58)" xlink:href="#7"/><use transform="translate(106.3)" xlink:href="#7"/><use transform="translate(124.02)" xlink:href="#7"/><use transform="translate(141.73)" xlink:href="#7"/><use transform="translate(159.45)" xlink:href="#7"/><use transform="translate(177.17)" xlink:href="#7"/><use transform="translate(194.88)" xlink:href="#7"/><use transform="translate(212.6)" xlink:href="#7"/><use transform="translate(230.32)" xlink:href="#7"/><use transform="translate(248.03)" xlink:href="#7"/><use transform="translate(265.75)" xlink:href="#7"/><use transform="translate(283.46)" xlink:href="#7"/><use transform="translate(301.18)" xlink:href="#7"/><use transform="translate(318.9)" xlink:href="#7"/><use transform="translate(336.61)" xlink:href="#7"/></g><g transform="matrix(.15111 0 0 .12399 289.4 312.52)"><path fill="#00c8ff" fill-rule="evenodd" d="m32.92 551.31c-.11 27.793 12.3 64.848 84.13 153.26 77.14 88.58 166.25 100.95 183.74 99.72-8.221-24.66-42.01-53.15-10.09-53.47 21.23.32 27.953 46.05 27.953 46.05s34.536-26.24 46.04-13.16c11.11 20.58-35.05 38.3-35.05 38.3s23.432 55.77 53.15 88.58c35.434 46.82 86.75 62.39 106.3 63.02 9.501.31 27.872 7.8 27.21 25.57-1.315 35.38-1.273 52.47-18.419 53.15h127.47c-17.15-.68-17.1-17.77-18.419-53.15-.661-17.77 17.71-25.26 27.21-25.57 19.554-.63 70.866-16.2 106.3-63.02 29.718-32.81 53.15-88.58 53.15-88.58s-46.16-17.72-35.05-38.3c11.505-13.08 46.04 13.16 46.04 13.16s6.727-45.73 27.953-46.05c31.923.32-1.866 28.81-10.09 53.47 17.494 1.23 106.6-11.14 183.75-99.72 71.83-88.41 87.53-151.78 87.42-179.57-2.81 1.021-59.78-13.779-69.48-4.288-12.98-10.24-38.09-20.589-57.6-20.965-22.8-.377-43.29 9.219-50.32 25.712-13.606-19.682-53.27-29.558-61.64-28.27-27.333 4.704-44.37 41.32-35.418 87.34-20.641-19.754-27.998-21.696-51.11-21.76-50.42-.121-55.38 89.82-129.14 89.28-58.4-.444-83.08-31.417-100.29-53.799 22.249-19.09 20.85-26.544 6.129-45.765-16.689-18.06-42.762-16.443-60.66 1.805-17.897-17.717-18.06-28.04-35.776-53.15-17.315-24.538-29.608-26.967-61-26.84-31.391.128-55.46 1.804-67.58 34.691-15.402 8.593-37.21 26.565-54.09 23.02-10.298-28.04-43.23-60.62-70.99-61s-72.79 56.44-82.75 82.923c-17.683-37.06-36.28-42.13-51.789-42.9-15.512-.77-21.08 24.88-27.18 40.31z"/><g fill="none"><path d="m167.72 490s16.443 9.866 36.17 39.464 3.289 42.752 3.289 42.752"/><path d="m184.16 506.45s32.886 3.289 46.04 26.31c13.155 23.02 6.577 49.33 6.577 49.33"/><path d="m220.34 631.42s23.02-55.907 65.773-32.887c42.752 23.02 39.464 59.2 36.18 59.2h-3.289v3.289"/><path d="m263.09 687.32s23.02-9.866 49.33 0 9.866 32.886 9.866 32.886"/><path d="m259.8 700.48s26.309-6.577 42.752 3.289 3.289 26.309 3.289 26.309"/><path d="m200.61 710.34s3.289 26.309 19.732 42.753c16.443 16.443 46.04 23.02 46.04 23.02"/><path d="m361.75 723.5c32.886 16.443 39.463 46.04 39.463 46.04"/><path d="m374.9 710.34c49.33 0 46.04 29.598 46.04 29.598"/><path d="m302.56 552.49s29.598-23.02 69.06 0c39.463 23.02 16.443 52.619 16.443 52.619"/><path d="m322.29 513.02s39.464-26.309 72.35 0c32.887 26.309 23.02 46.04 23.02 46.04"/><path d="m437.39 529.47s9.865 16.443 19.731 32.886c9.866 16.444 26.31 13.155 26.31 13.155"/><path d="m526.18 647.86s23.02 32.887 75.64 39.464c52.618 6.577 98.66-13.155 98.66-13.155"/><path d="m526.18 690.61s29.598 29.598 69.06 29.598c39.464 0 95.37-16.443 95.37-16.443"/><path d="m526.18 720.21s16.443 26.309 75.64 26.309c59.2 0 85.5-13.154 85.5-13.154"/><path d="m522.89 759.67s6.578 13.155 36.17 19.732c29.598 6.577 59.2-9.866 59.2-9.866"/><path d="m618.26 785.98s19.732 26.309 46.04 26.309 0-39.463 19.732-46.04c19.732-6.577 49.33 0 49.33 0"/><path d="m605.11 825.45s19.732 26.309 49.33 19.732c29.598-6.578 65.773-55.907 65.773-55.907l23.02-16.443"/><path d="m388.06 887.93s3.288-16.443 39.464-9.866c36.18 6.577 0 55.907 39.463 55.907 39.464 0 75.64-23.02 98.66-26.309 23.02-3.289 65.772 23.02 88.79 29.598 23.02 6.577 65.773-26.309 65.773-26.309"/><path d="m568.94 956.99c3.289 0 13.155-6.578 36.17-3.289 23.02 3.289 49.33 3.289 49.33 3.289"/><path d="m559.07 989.88s16.444-6.577 29.598-6.577c13.155 0 9.866 19.729 9.866 19.729"/><path d="m483.43 624.84c-3.289 0 16.443 0 26.309 3.288 9.866 3.289 13.154 26.309 13.154 26.309"/><path d="m480.14 647.86s13.154-6.577 26.309 0 6.577 29.598 6.577 29.598"/><path d="m470.28 674.17c0-3.288 19.732-9.866 26.309-6.577s6.577 32.886 6.577 32.886"/><path d="m463.7 710.34s16.443-13.154 26.309-13.154 6.577 23.02 6.577 23.02"/><path d="m460.41 739.94l23.02-13.154 9.865 19.731"/><path d="m746.52 588.66s13.155-3.289 32.886 0c19.732 3.288 26.31 26.309 26.31 26.309"/><path d="m753.1 614.97c0-3.289 19.732-3.289 26.309 0 6.578 3.288 16.444 19.732 16.444 19.732"/><path d="m789.27 684.03c-3.288 0 3.289 13.155 6.578 29.598 3.288 16.443-13.155 32.886-13.155 32.886"/><path d="m855.05 670.88c-3.288 0 19.732 23.02 23.02 42.752 3.288 19.732-16.444 39.464-16.444 39.464"/><path d="m871.49 661.01s23.02 32.886 23.02 49.33c0 16.444-16.443 42.753-16.443 42.753"/><path d="m894.51 637.99s9.866 13.155 13.154 29.598c3.289 16.443-6.577 42.752-6.577 42.752"/><path d="m924.11 677.46s16.443 19.732 9.866 36.17c-6.578 16.443-19.732 29.598-19.732 29.598"/><path d="m950.42 687.32c-3.289 3.288 6.577 23.02 3.288 32.886-3.288 9.866-19.731 26.309-19.731 26.309"/><path d="m957 634.7c0 3.288 23.02 23.02 23.02 46.04 0 23.02-13.155 46.04-13.155 46.04"/><g transform="translate(-55.09-38.642)"><path d="m920.82 598.53s16.443 3.289 19.732 19.732c3.289 16.444-9.866 32.887-9.866 32.887"/><path d="m927.4 568.93s26.309 29.597 32.887 39.463c6.577 9.866-3.289 32.887-3.289 32.887"/><path d="m920.82 565.64c3.289 3.289 32.886 3.289 46.04 19.732s6.577 46.04 6.577 46.04"/></g></g></g></g><g fill="#ffd400" stroke="#000" fill-rule="evenodd"><path d="m503.45 7.085c5.813-4.651 24.417-15.12 59.3-13.953 34.881 1.163 59.3 17.441 59.3 17.441l-2.326-45.35s-23.254-11.627-54.647-11.627-58.14 6.976-58.14 6.976l-3.488 46.509z" transform="matrix(.15111 0 0 .13378 289.4 302.23)"/><g transform="matrix(.15111 0 0 .12399 289.4 312.52)"><path d="m148.7 515.65c0 17.668 2.547 28.856 20.264 28.856 17.716 0 24.24-17.836 24.664-30.5.538-15.992 3.489-40.37 38.921-40.37 17.717 0 128.01-11.771 131.3 248.03 3.288 259.8-184.24 206.72-184.24 206.72s-20.18 88.58 90.07 232.5c84.66 104.07 205.54 106.88 205.54 106.88s18.724 41.77 56.29 95.64c54.32 77.9 124.02 61 124.02 78.72 0 17.71-17.545 9.92-17.717 25.93.172 19.42 9.363 27.9 26.509 27.22s17.1-17.77 18.419-53.15c.661-17.77-17.71-25.26-27.21-25.57-19.554-.63-70.866-16.2-106.3-63.02-29.718-32.81-53.15-88.58-53.15-88.58s46.16-17.72 35.05-38.3c-11.505-13.08-46.04 13.16-46.04 13.16s-6.727-45.73-27.953-46.05c-31.923.32 1.866 28.81 10.09 53.47-17.494 1.23-106.6-11.14-183.74-99.72-71.832-88.41-87.53-174.8-87.42-202.59 44.945 16.356 185.51 7.256 185.51-223.26-7.02-292.78-124.04-265.75-159.47-265.75-42.01 0-73.41 42.01-73.41 59.727z" transform="translate(-166.41-442.96)" id="9"/><use transform="matrix(-1 0 0 1 1123.29 0)" xlink:href="#9"/><path d="m238.56-187.8c26.42 0 22.65 26.716 17.717 42.978-4.933 16.261-35.433 27.888-63.12 10.172 7.642 26.836 27.684 106.3 109.4 108.34 95.37-2.037 103.64-71.797 209.37-72.35 105.73-.553 124.84 15.498 123.44 52.597-1.257 33.442-9.09 53.15-35.434 53.15-17.716 0-35.764-15.68-35.433-35.433.332-19.753 22.568-20.962 37.859-19.34 5.425-16.09-20.14-33.81-91.01-33.81-70.16-.924-124.67 73.27-216.75 70.866-92.08-2.408-132.95-114.04-115.45-141.73 18.525-33.809 31.26-35.433 59.4-35.433z" transform="matrix(-1 0 0 1 1237.8-70.866)" id="A"/><use transform="matrix(-1 0 0 1 1123.26 0)" xlink:href="#A"/></g></g></g><path fill="none" stroke="#000" stroke-width="11.125" d="m-1576.8 1353.5c17.72 2.98 674.45-205.79 673.23-531.49v-1594.5h-1346.5v1594.5c-1.22 325.7 673.23 531.49 673.23 531.49z" transform="matrix(.16872 0 0 .13815 635.41 306.39)"/></svg>