<svg xmlns="http://www.w3.org/2000/svg" viewBox="0 0 512 512" xmlns:xlink="http://www.w3.org/1999/xlink"><defs><path id="0" d="m228.54 107.68l-2.58-1.46-2.68 1.3.6-2.92-2.07-2.14 2.96-.34 1.39-2.619 1.24 2.709 2.92.52-2.19 2.01z"/></defs><g stroke-width="1.25"><path fill="#229e45" fill-rule="evenodd" d="m0 0h512v512h-512z"/><g transform="matrix(.74806 0 0 .74806 65.58 64.5)"><g fill-rule="evenodd"><path fill="#f8e509" d="m261.72 455.71l307.29-199.44-309.15-199.98-308.3 200.46 310.16 198.96"/><path fill="#2b49a3" d="m293.25 149.98c0 41.878-34.418 75.827-76.874 75.827-42.46 0-76.874-33.949-76.874-75.827s34.418-75.827 76.874-75.827c42.46 0 76.874 33.949 76.874 75.827" transform="matrix(1.6911 0 0 1.7117-100.3-.715)"/><g fill="#ffffef"><use transform="matrix(1.5567 0 0 1.5877-132.89 162.78)" xlink:href="#0"/><use transform="matrix(1.5567 0 0 1.5877-45.771 184.84)" xlink:href="#0"/><use transform="matrix(1.3448 0 0 1.3716-34.894 172.87)" xlink:href="#0"/><use transform="matrix(1.3204 0 0 1.3467 58.669 162.88)" xlink:href="#0"/><use transform="matrix(1.5567 0 0 1.5877-84.91 110.55)" xlink:href="#0"/><use transform="matrix(1.5567 0 0 1.5877-192.18 70.28)" xlink:href="#0"/><use transform="matrix(1.5567 0 0 1.5877-179.28 123.85)" xlink:href="#0"/><use transform="matrix(1.3751 0 0 1.4025-3.919 70.5)" xlink:href="#0"/><use transform="matrix(1.083 0 0 1.1046 55.48 137.43)" xlink:href="#0"/><use transform="matrix(1.0393 0 0 1.06-79.913 190.38)" xlink:href="#0"/><use transform="matrix(.84693 0 0 .79301 167.62 231.47)" xlink:href="#0"/><g transform="matrix(1.0393 0 0 1.06-79.913 190.38)"><use xlink:href="#0"/><use xlink:href="#0"/></g><use transform="matrix(1.0393 0 0 1.06-37.23 190.37)" xlink:href="#0"/><use transform="matrix(1.0393 0 0 1.06-42.53 204.57)" xlink:href="#0"/><use transform="matrix(1.0393 0 0 1.06 46.11 178.72)" xlink:href="#0"/><use transform="matrix(1.0393 0 0 1.06 20.1 178.71)" xlink:href="#0"/><use transform="matrix(.65125 0 0 .66422 38.23 212.26)" xlink:href="#0"/><use transform="matrix(1.0393 0 0 1.06 120.35 213.95)" xlink:href="#0"/><use transform="matrix(.86091 0 0 .88028 139.46 236.14)" xlink:href="#0"/><use transform="matrix(.80183 0 0 .81855 163.18 242.54)" xlink:href="#0"/><use transform="matrix(.7723 0 0 .78768 199.27 220.26)" xlink:href="#0"/><use transform="matrix(1.0086 0 0 .97287 105.45 240.62)" xlink:href="#0"/><use transform="matrix(.91998 0 0 .97287 125.85 252.28)" xlink:href="#0"/><use transform="matrix(.7723 0 0 .78768 139.93 245.86)" xlink:href="#0"/><use transform="matrix(.7723 0 0 .78768 121.49 245.86)" xlink:href="#0"/><use transform="matrix(.7723 0 0 .78768 90.18 218.48)" xlink:href="#0"/><use transform="matrix(.65415 0 0 .66718 120.67 287.26)" xlink:href="#0"/><use transform="matrix(1.5567 0 0 1.5877-132.89 97.88)" xlink:href="#0"/></g><path stroke-opacity=".503" fill="#fff" d="m387.05 302.7c1.981-5.181 4.537-12.995 5.894-20.17-69.05-60.66-146.02-91.73-243.28-85.33-3.487 6.686-6.278 13.683-8.631 21.256 115.24-10.994 199.71 40.03 246.02 84.25z"/></g><g stroke-opacity=".502" fill="#309e3a"><path d="m356.01 268.6l2.467 1.347c-.387.875-.491 1.64-.315 2.292.182.659.636 1.232 1.359 1.722.767.524 1.453.753 2.056.692.61-.062 1.066-.312 1.361-.748.186-.279.263-.573.228-.88-.027-.306-.196-.673-.505-1.096-.213-.286-.733-.89-1.558-1.811-1.06-1.183-1.693-2.181-1.898-2.994-.283-1.143-.111-2.182.52-3.119.408-.603.955-1.051 1.644-1.344.699-.294 1.461-.361 2.283-.202.827.161 1.697.549 2.6 1.166 1.48 1 2.373 2.087 2.679 3.244.312 1.161.121 2.297-.575 3.41l-2.45-1.511c.307-.678.382-1.263.222-1.756-.15-.495-.561-.969-1.233-1.424-.69-.469-1.328-.695-1.911-.676-.377.012-.667.171-.873.478-.189.281-.232.601-.131.96.131.457.68 1.215 1.656 2.277.972 1.06 1.635 1.926 1.988 2.597.361.669.525 1.366.491 2.088-.024.721-.29 1.455-.793 2.203-.457.68-1.072 1.185-1.846 1.522-.774.337-1.601.419-2.484.243-.878-.18-1.829-.618-2.853-1.315-1.49-1.01-2.404-2.133-2.738-3.363-.329-1.236-.128-2.571.61-4"/><path d="m344.31 260.92l2.52 1.244c-.351.888-.425 1.659-.223 2.302.211.65.684 1.207 1.427 1.667.789.491 1.482.693 2.082.608.61-.087 1.055-.353 1.33-.801.177-.286.24-.584.194-.888-.039-.306-.223-.666-.551-1.077-.223-.277-.764-.858-1.628-1.746-1.107-1.14-1.778-2.112-2.02-2.915-.329-1.131-.198-2.176.392-3.137.385-.618.914-1.087 1.589-1.407.689-.322 1.448-.421 2.274-.296.834.13 1.717.483 2.644 1.061 1.521.943 2.455 1.989 2.806 3.132.358 1.149.213 2.29-.435 3.43l-2.512-1.412c.28-.688.332-1.275.152-1.761-.171-.49-.6-.947-1.287-1.375-.711-.442-1.357-.64-1.937-.597-.377.026-.66.199-.854.514-.176.288-.208.606-.092.962.148.452.728 1.188 1.744 2.21 1.013 1.019 1.712 1.857 2.09 2.513.389.654.58 1.344.575 2.066.007.722-.232 1.465-.702 2.236-.43.693-1.028 1.226-1.785 1.595-.76.368-1.586.483-2.474.342-.882-.144-1.85-.546-2.902-1.198-1.528-.952-2.486-2.035-2.87-3.252-.382-1.222-.234-2.562.447-4.02"/><path d="m329.83 257.04l7.417-12.196 9.01 5.52-1.255 2.064-6.552-4.02-1.647 2.703 6.099 3.738-1.25 2.054-6.099-3.737-2.02 3.319 6.786 4.159-1.252 2.056-9.238-5.664"/><path d="m308.74 239.72l1.1-2.141 5.505 2.85-2.595 5.058c-.805.243-1.816.301-3.04.173-1.212-.132-2.339-.466-3.381-1-1.323-.685-2.334-1.556-3.033-2.621-.696-1.07-1.028-2.247-.992-3.538.039-1.298.37-2.554.996-3.773.677-1.323 1.56-2.354 2.641-3.098 1.076-.741 2.291-1.111 3.637-1.111 1.028-.003 2.145.311 3.354.933 1.572.815 2.627 1.78 3.164 2.9.549 1.118.65 2.325.303 3.624l-2.781-.837c.142-.715.058-1.381-.254-1.994-.302-.618-.822-1.116-1.557-1.498-1.118-.579-2.188-.683-3.216-.311-1.02.37-1.887 1.253-2.604 2.651-.776 1.508-1.025 2.812-.745 3.915.283 1.094.963 1.922 2.048 2.484.534.276 1.122.448 1.763.517.651.067 1.245.05 1.787-.051l.827-1.612-2.928-1.513"/><path d="m216.76 216.91l2.073-14.13 4.252.63 1.144 10.02 3.935-9.269 4.268.63-2.072 14.14-2.641-.39 1.633-11.128-4.428 10.715-2.737-.406-1.156-11.539-1.632 11.126-2.641-.389"/><path d="m202.38 215.24l1.33-14.229 10.506.993-.222 2.407-7.647-.721-.297 3.155 7.113.669-.223 2.398-7.115-.671-.36 3.872 7.913.745-.222 2.4-10.777-1.017"/></g></g><g stroke-opacity=".502"><g transform="matrix(1.04504-.66894.66633 1.04915-83.33 160.32)"><path fill="#309e3a" d="m154.79 154.48c.49-.725 1.01-1.26 1.56-1.605.406-.253.847-.429 1.319-.529.476-.098.928-.103 1.356-.016.57.112 1.145.364 1.724.755 1.048.71 1.666 1.602 1.853 2.676.192 1.078-.105 2.196-.888 3.354-.777 1.148-1.698 1.837-2.763 2.064-1.062.225-2.116-.016-3.16-.723-1.059-.716-1.681-1.607-1.87-2.673-.187-1.07.103-2.171.869-3.303"/><path fill="#f7ffff" d="m156.31 155.43c-.545.805-.773 1.543-.683 2.212.091.666.424 1.193.997 1.58.572.387 1.181.499 1.824.336.649-.165 1.252-.66 1.811-1.485.551-.815.783-1.545.696-2.189-.085-.642-.423-1.163-1.015-1.564-.592-.4-1.207-.519-1.846-.357-.636.159-1.231.648-1.784 1.467"/></g><g transform="matrix(1.03457-.68516.68249 1.03861-83.53 164.56)"><path fill="#309e3a" d="m160.44 163.42l4.814-7.115 3.02 2.046c.761.515 1.269.952 1.524 1.314.261.36.384.774.37 1.241s-.163.91-.448 1.331c-.361.534-.817.869-1.367 1.01-.548.134-1.165.035-1.851-.297.188.391.31.764.363 1.116.058.354.07.924.039 1.71l-.07 1.975-1.718-1.162.009-2.251c.006-.802-.012-1.321-.051-1.555-.038-.238-.115-.434-.232-.589-.115-.157-.337-.348-.668-.571l-.29-.197-2.01 2.97-1.437-.972"/><path fill="#fff" d="m164.66 160.29l1.063.719c.689.467 1.139.729 1.35.787.211.057.413.048.606-.029s.362-.222.507-.435c.162-.24.228-.476.196-.709-.025-.234-.141-.45-.348-.646-.106-.095-.45-.34-1.032-.734l-1.121-.758-1.221 1.805"/></g><g transform="matrix(1.06038-.64417.64166 1.06456-80.09 153.71)"><path fill="#309e3a" d="m172.42 161.16l2.626 1.776c.592.401 1.012.751 1.261 1.052.334.405.544.866.629 1.381.086.515.052 1.053-.101 1.615-.152.558-.452 1.17-.903 1.836-.396.586-.811 1.041-1.243 1.367-.529.397-1.065.644-1.613.741-.412.075-.877.036-1.393-.115-.385-.114-.843-.351-1.374-.71l-2.702-1.828 4.813-7.115"/><path fill="#fff" d="m173.05 163.33l-3.188 4.713 1.073.725c.4.272.706.445.914.52.272.099.532.131.778.095.25-.034.53-.177.841-.429.314-.254.657-.656 1.029-1.206s.609-1.01.712-1.366c.102-.36.121-.681.058-.965-.063-.283-.209-.544-.438-.784-.17-.181-.548-.47-1.134-.866l-.645-.437"/></g><g transform="matrix(1.16032-.4373.43559 1.16488-57.52 98.95)"><path fill="#309e3a" d="m200.75 190.69l4.813-7.115 2.306 1.56c.873.591 1.419 1.012 1.636 1.263.335.382.519.846.551 1.391.034.542-.141 1.096-.524 1.662-.295.437-.622.751-.983.941-.359.191-.72.288-1.082.294-.357.004-.68-.052-.97-.168-.388-.164-.908-.466-1.558-.906l-.936-.634-1.816 2.684-1.437-.972"/><path fill="#fff" d="m206.19 185.75l-1.366 2.02.786.532c.567.383.97.602 1.211.656.242.055.469.039.683-.047.217-.084.397-.231.539-.442.175-.259.244-.523.206-.794-.039-.272-.16-.507-.364-.706-.15-.149-.483-.398-1-.748l-.694-.47"/></g><g transform="matrix(1.19899-.31505.31383 1.2037-41.539 66.66)"><path fill="#309e3a" d="m207.39 195.18l4.813-7.114 3.02 2.046c.761.514 1.269.952 1.524 1.313.261.361.384.774.37 1.241s-.163.911-.448 1.331c-.361.534-.817.869-1.367 1.01-.548.134-1.165.035-1.851-.296.188.391.31.763.363 1.115.058.355.07.925.039 1.71l-.07 1.976-1.718-1.162.009-2.251c.005-.803-.012-1.321-.051-1.556-.038-.237-.115-.433-.232-.588-.115-.158-.337-.348-.668-.572l-.29-.197-2.01 2.971-1.437-.973"/><path fill="#fff" d="m211.6 192.05l1.063.719c.689.466 1.138.728 1.349.785.211.058.413.049.607-.028.193-.076.362-.222.506-.435.162-.24.228-.476.197-.709-.025-.234-.142-.449-.348-.646-.106-.095-.45-.339-1.032-.733l-1.121-.759-1.221 1.806"/></g><g transform="matrix(1.18672-.35905.35764 1.19136-46.42 79.77)"><path fill="#309e3a" d="m216.64 196.32c.491-.725 1.01-1.26 1.559-1.605.408-.253.847-.43 1.321-.529.476-.098.928-.103 1.355-.017.571.112 1.145.364 1.724.756 1.049.709 1.666 1.601 1.854 2.676.191 1.077-.105 2.195-.889 3.353-.777 1.149-1.698 1.837-2.762 2.065-1.062.225-2.116-.017-3.161-.724-1.058-.715-1.681-1.606-1.87-2.672-.187-1.07.103-2.171.869-3.303"/><path fill="#fff" d="m218.16 197.28c-.545.805-.773 1.542-.683 2.212.092.665.424 1.192.997 1.58.573.387 1.18.499 1.824.335.649-.164 1.253-.659 1.811-1.484.552-.816.784-1.545.696-2.19-.084-.641-.423-1.163-1.015-1.563-.592-.401-1.207-.52-1.845-.357-.636.159-1.231.648-1.785 1.467"/></g><g transform="matrix(1.23086-.14576.14519 1.23572-12.01 24.16)"><path fill="#309e3a" d="m230.03 210.5l4.813-7.115 3.02 2.046c.76.515 1.268.952 1.524 1.314.26.36.384.774.37 1.241s-.164.91-.448 1.331c-.361.534-.817.869-1.368 1.01-.548.134-1.164.035-1.85-.297.188.391.309.764.363 1.116.057.355.07.924.039 1.71l-.071 1.975-1.717-1.162.008-2.25c.005-.804-.011-1.322-.051-1.556-.037-.237-.115-.434-.232-.589-.114-.157-.337-.348-.667-.571l-.291-.197-2.01 2.97-1.437-.972"/><path fill="#fff" d="m234.24 207.36l1.063.719c.689.467 1.139.728 1.35.786.21.058.413.048.607-.028.193-.077.361-.222.506-.436.162-.239.227-.475.197-.708-.026-.234-.142-.45-.348-.646-.106-.095-.45-.34-1.033-.734l-1.12-.758-1.222 1.805"/></g><g transform="matrix(1.23939 0 0 1.24425 19.978-9.819)"><path fill="#309e3a" d="m259.17 225.1c.49-.725 1.01-1.26 1.56-1.605.407-.253.847-.429 1.32-.529.477-.097.928-.103 1.355-.017.571.113 1.146.365 1.725.757 1.048.709 1.666 1.601 1.854 2.676.191 1.077-.106 2.194-.89 3.353-.777 1.148-1.697 1.837-2.761 2.065-1.063.224-2.116-.017-3.162-.724-1.057-.716-1.681-1.607-1.87-2.673-.187-1.07.103-2.171.869-3.303"/><path fill="#fff" d="m260.69 226.05c-.545.806-.773 1.543-.684 2.212.093.666.425 1.192.997 1.58.573.387 1.181.499 1.825.336.649-.165 1.253-.659 1.811-1.485.551-.815.783-1.545.695-2.189-.085-.642-.423-1.163-1.015-1.564s-1.207-.52-1.845-.357c-.636.159-1.23.649-1.784 1.467"/></g><path fill="#309e3a" d="m241.76 219.84l2.292-10.03 7.408 1.708-.385 1.695-5.389-1.241-.513 2.224 5.02 1.157-.389 1.688-5.01-1.154-.626 2.728 5.581 1.286-.385 1.691-7.599-1.751" transform="matrix(.74806 0 0 .74806 65.58 64.5)"/></g></g></svg>