<svg xmlns="http://www.w3.org/2000/svg" viewBox="0 0 512 512"><defs><clipPath id="clipPath3091" clipPathUnits="userSpaceOnUse"><path fill-opacity=".67" d="m.1825,3.0248h511.9995v512.0002h-511.9995z"/></clipPath></defs><g width="512" x="0" y="0" height="512" clip-path="url(#clipPath3091)" transform="translate(-.18245 -3.0248)"><g transform="matrix(.70757 0 0 1 79.961 3.0248)"><path fill="#fff" d="m1.919,0h512v512h-512z"/><g fill="#bf0a30"><path d="m-254.08,0h256v512h-256z"/><path d="m513.92,0h256v512h-256z"/></g></g><path fill="#bf0a30" d="m135.49,250.44-14.067,4.8081 65.456,57.446c4.9517,14.764-1.7184,19.116-5.9683,26.859l71.06-9.0192-1.8508,71.512 14.718-.4234-3.2096-70.918 71.13,8.4323c-4.4022-9.2965-8.3199-14.233-4.2474-29.098l65.413-54.425-11.447-4.1437c-9.359-7.2222 4.0438-34.784 6.0657-52.178 0,0-38.195,13.135-40.698,6.2622l-9.7261-18.685-34.748,38.172c-3.7965,.9092-5.4138-.6019-6.3042-3.809l16.053-79.766-25.419,14.297c-2.1281,.9099-4.2561,.1249-5.6586-2.3552l-24.445-49.073-25.209,50.952c-1.9008,1.8257-3.8028,2.0373-5.3813,.7958l-24.204-13.578 14.529,79.143c-1.1552,3.1421-3.9239,4.0263-7.1797,2.3254l-33.216-37.737c-4.3448,6.9615-7.2896,18.336-13.033,20.885-5.7435,2.3866-24.98-4.8231-37.873-7.6378 4.4047,15.895 18.176,42.302 9.4614,50.957z"/></g></svg>