<svg xmlns="http://www.w3.org/2000/svg" viewBox="0 0 512 512" xmlns:xlink="http://www.w3.org/1999/xlink"><g stroke-width="1.25"><path fill="#006" d="m0,0h512v512h-512z"/><g transform="matrix(6.1 0 0 6.1 0 .00002)"><g fill="#fff"><path d="m0,0v3.3541l53.292,26.646h6.708v-3.354l-53.292-26.646h-6.708zm60,0v3.354l-53.292,26.646h-6.708v-3.354l53.292-26.646h6.708z"/><path d="m25,0v30h10v-30h-10zm-25,10v10h60v-10h-60z"/></g><g fill="#c00"><path d="m0,12v6h60v-6h-60zm27-12v30h6v-30h-6z"/><path d="m0,30 20-10h4.472l-20,10h-4.472zm0-30 20,10h-4.472l-15.528-7.7639v-2.2361zm35.528,10 20-10h4.472l-20,10h-4.472zm24.472,20-20-10h4.472l15.528,7.764v2.236z"/></g></g></g><g fill="#fff" fill-rule="evenodd" transform="matrix(.76758 0 0 .77858 -234.75 154.37)"><path d="m659.7,186.57 7.73-29.85-25.29-17.62 30.77-1.87 8.94-29.5 11.28,28.69 30.83-.62-23.8,19.6 10.11,29.13-25.99-16.58z" transform="matrix(.81872 .03818 -.03719 .79758 211.47 -51.031)"/><path d="m659.7,186.57 7.73-29.85-25.29-17.62 30.77-1.87 8.94-29.5 11.28,28.69 30.83-.62-23.8,19.6 10.11,29.13-25.99-16.58z" transform="matrix(.75849 .31057 -.30255 .7389 360.23 -215.16)"/><path d="m659.7,186.57 7.73-29.85-25.29-17.62 30.77-1.87 8.94-29.5 11.28,28.69 30.83-.62-23.8,19.6 10.11,29.13-25.99-16.58z" transform="matrix(.78299 -.24225 .236 .76277 127.08 160.08)"/><path d="m659.7,186.57 7.73-29.85-25.29-17.62 30.77-1.87 8.94-29.5 11.28,28.69 30.83-.62-23.8,19.6 10.11,29.13-25.99-16.58z" transform="matrix(.62728 -.52752 .5139 .61108 136.01 414.06)"/><path d="m659.7,186.57 7.73-29.85-25.29-17.62 30.77-1.87 8.94-29.5 11.28,28.69 30.83-.62-23.8,19.6 10.11,29.13-25.99-16.58z" transform="matrix(.34058 -.74549 .72624 .33179 266.38 664.02)"/><path d="m659.7,186.57 7.73-29.85-25.29-17.62 30.77-1.87 8.94-29.5 11.28,28.69 30.83-.62-23.8,19.6 10.11,29.13-25.99-16.58z" transform="matrix(.01584 -.81945 .79829 .01543 466.71 832.56)"/><path d="m659.7,186.57 7.73-29.85-25.29-17.62 30.77-1.87 8.94-29.5 11.28,28.69 30.83-.62-23.8,19.6 10.11,29.13-25.99-16.58z" transform="matrix(-.31707 -.7558 .73628 -.30888 725.66 902.38)"/><path d="m659.7,186.57 7.73-29.85-25.29-17.62 30.77-1.87 8.94-29.5 11.28,28.69 30.83-.62-23.8,19.6 10.11,29.13-25.99-16.58z" transform="matrix(-.55852 -.59985 .58436 -.54409 956.23 884.09)"/><path d="m659.7,186.57 7.73-29.85-25.29-17.62 30.77-1.87 8.94-29.5 11.28,28.69 30.83-.62-23.8,19.6 10.11,29.13-25.99-16.58z" transform="matrix(-.79561 -.19686 .19178 -.77507 1238.3 669.37)"/><path d="m659.7,186.57 7.73-29.85-25.29-17.62 30.77-1.87 8.94-29.5 11.28,28.69 30.83-.62-23.8,19.6 10.11,29.13-25.99-16.58z" transform="matrix(-.79806 .18671 -.18189 -.77745 1368.5 407.85)"/><path d="m659.7,186.57 7.73-29.85-25.29-17.62 30.77-1.87 8.94-29.5 11.28,28.69 30.83-.62-23.8,19.6 10.11,29.13-25.99-16.58z" transform="matrix(-.42514 .70072 -.68263 -.41416 1277.6 -266.62)"/><path d="m659.7,186.57 7.73-29.85-25.29-17.62 30.77-1.87 8.94-29.5 11.28,28.69 30.83-.62-23.8,19.6 10.11,29.13-25.99-16.58z" transform="matrix(-.68567 .44902 -.43743 -.66796 1454.9 1.4861)"/><path d="m659.7,186.57 7.73-29.85-25.29-17.62 30.77-1.87 8.94-29.5 11.28,28.69 30.83-.62-23.8,19.6 10.11,29.13-25.99-16.58z" transform="matrix(-.81122 .11694 -.11392 -.79028 1496.6 313.7)"/><path d="m659.7,186.57 7.73-29.85-25.29-17.62 30.77-1.87 8.94-29.5 11.28,28.69 30.83-.62-23.8,19.6 10.11,29.13-25.99-16.58z" transform="matrix(-.802 -.169 .16464 -.78129 1425 574.38)"/><path d="m659.7,186.57 7.73-29.85-25.29-17.62 30.77-1.87 8.94-29.5 11.28,28.69 30.83-.62-23.8,19.6 10.11,29.13-25.99-16.58z" transform="matrix(-.59473 -.56396 .5494 -.57938 1179.6 862.83)"/></g></svg>