<svg xmlns="http://www.w3.org/2000/svg" viewBox="0 0 512 512" xmlns:xlink="http://www.w3.org/1999/xlink"><defs><path id="0" d="m659.7 186.57l7.73-29.85-25.29-17.62 30.77-1.87 8.94-29.5 11.28 28.69 30.83-.62-23.8 19.6 10.11 29.13-25.99-16.58z"/></defs><g stroke-width="1.25"><path fill="#006" d="m0 0h512v512h-512z"/><g transform="scale(6.1)"><g fill="#fff"><path d="m0 0v3.354l53.29 26.646h6.708v-3.354l-53.29-26.646h-6.708m60 0v3.354l-53.29 26.646h-6.708v-3.354l53.29-26.646h6.708"/><path d="m25 0v30h10v-30h-10m-25 10v10h60v-10h-60"/></g><g fill="#c00"><path d="m0 12v6h60v-6h-60m27-12v30h6v-30h-6"/><path d="m0 30l20-10h4.472l-20 10h-4.472m0-30l20 10h-4.472l-15.528-7.764v-2.236m35.528 10l20-10h4.472l-20 10h-4.472m24.472 20l-20-10h4.472l15.528 7.764v2.236"/></g></g></g><g fill="#fff" fill-rule="evenodd" transform="matrix(.76758 0 0 .77858-234.75 154.37)"><use transform="matrix(.81872.03818-.03719.79758 211.47-51.03)" xlink:href="#0"/><use transform="matrix(.75849.31057-.30255.7389 360.23-215.16)" xlink:href="#0"/><use transform="matrix(.78299-.24225.236.76277 127.08 160.08)" xlink:href="#0"/><use transform="matrix(.62728-.52752.5139.61108 136.01 414.06)" xlink:href="#0"/><use transform="matrix(.34058-.74549.72624.33179 266.38 664.02)" xlink:href="#0"/><use transform="matrix(.01584-.81945.79829.01543 466.71 832.56)" xlink:href="#0"/><use transform="matrix(-.31707-.7558.73628-.30888 725.66 902.38)" xlink:href="#0"/><use transform="matrix(-.55852-.59985.58436-.54409 956.23 884.09)" xlink:href="#0"/><use transform="matrix(-.79561-.19686.19178-.77507 1238.3 669.37)" xlink:href="#0"/><use transform="matrix(-.79806.18671-.18189-.77745 1368.5 407.85)" xlink:href="#0"/><use transform="matrix(-.42514.70072-.68263-.41416 1277.6-266.62)" xlink:href="#0"/><use transform="matrix(-.68567.44902-.43743-.66796 1454.9 1.486)" xlink:href="#0"/><use transform="matrix(-.81122.11694-.11392-.79028 1496.6 313.7)" xlink:href="#0"/><use transform="matrix(-.802-.169.16464-.78129 1425 574.38)" xlink:href="#0"/><use transform="matrix(-.59473-.56396.5494-.57938 1179.6 862.83)" xlink:href="#0"/></g></svg>