<svg xmlns="http://www.w3.org/2000/svg" viewBox="0 0 512 512"><g fill-rule="evenodd" stroke-width="1.25"><path fill="#f30" d="m0,0h512v512h-512z"/><g fill="#ff0"><path d="m266.19,534.45l-10.41-7.43-10.36,7.5 3.85-12.19-10.33-7.53 12.78-.11 3.97-12.16 4.05,12.13 12.79,.02-10.28,7.6 3.94,12.17z" transform="matrix(6.2061 0 0 6.2061 -1415.4 -3060.2)"/><path d="m266.19,534.45l-10.41-7.43-10.36,7.5 3.85-12.19-10.33-7.53 12.78-.11 3.97-12.16 4.05,12.13 12.79,.02-10.28,7.6 3.94,12.17z" transform="matrix(1.63 .55554 -.55554 1.63 253.84 -925.67)"/><path d="m266.19,534.45l-10.41-7.43-10.36,7.5 3.85-12.19-10.33-7.53 12.78-.11 3.97-12.16 4.05,12.13 12.79,.02-10.28,7.6 3.94,12.17z" transform="matrix(1.6793 .38142 -.38142 1.6793 95.09 -579.25)"/><path d="m266.19,534.45l-10.41-7.43-10.36,7.5 3.85-12.19-10.33-7.53 12.78-.11 3.97-12.16 4.05,12.13 12.79,.02-10.28,7.6 3.94,12.17z" transform="matrix(1.4007 1.0019 -1.0019 1.4007 603.91 -806.68)"/><path d="m266.19,534.45l-10.41-7.43-10.36,7.5 3.85-12.19-10.33-7.53 12.78-.11 3.97-12.16 4.05,12.13 12.79,.02-10.28,7.6 3.94,12.17z" transform="matrix(1.7221 -.01214 .01214 1.7221 -26.659 -602.32)"/></g></g></svg>