<svg xmlns="http://www.w3.org/2000/svg" viewBox="0 0 512 512"><g fill-rule="evenodd"><path fill="#0021ad" stroke-width="1.25" d="m0,0h512v512h-512z"/><path fill="#1c8a42" d="m0-0 512,512-.29-511.62-511.71-.38z"/><path fill="#ffc639" d="m227.5,97.284a34.922,34.922 0 1,1 -69.844,0 34.922,34.922 0 1,1 69.844,0z" transform="matrix(2.6485 0 0 2.6485 -257.15 1.0897)"/><path fill="#1c8a42" d="m195.39,217.47c6.3269,8.6884 15.91,23.235 23.624,19.441 6.0121,.0196 9.1219,.4459 9.9373,4.4443 14.194,2.4193 38.05-3.5701 52.884-22.896 0,0 1.254,.162 .8174-7.1857 .0826-3.2048 4.3772-2.5576 4.4805-1.5244 .6007,1.5915 .4923,2.7857 1.2974,2.8249 1.8351-.6141 4.3308-4.7086 6.4229-7.3075 .5728-1.1467 .2611-2.3594 .3943-3.7972 1.1023-2.7186 3.856-2.1252 4.4392-.7049 .5212,.9165 .5295,1.6235 1.0507,2.5401 2.795,1.862 7.8452,.1239 8.2395,.1239 .4954-2.2769 1.961-2.0632 1.961-2.0632 1.862-.4118 1.1353-.2456 2.3543,.3922-1.0786,12.293 2.4183,12.834 2.1293,19.146 .1249,7.0339-2.1293,9.0342-2.1293,11.728 .7153,3.2729 11.097,3.3864 7.4427,6.1628-3.211,1.7164 .0176,4.9284-4.8211,6.1721-14.05,7.1361-16.744,13.257-16.744,13.257s-3.5299,6.6696-3.9221,6.6696c-2.3594,4.4495-5.3423,2.0178-6.9968,4.1894-.8288,2.7258-1.7598,8.7607-.1032,11.899 .8267,4.3122-.1032,6.6644-1.1395,10.98-.931,8.9981-4.497,10.362-4.9088,13.526-1.6566,3.373 .3478,19.221-1.22,19.221-10.467,.2064-18.488-2.0023-22.627-2.828 4.0356-17.383 2.473-32.667 2.473-34.235-1.0363-12.435-18.635-9.4078-21.323-11.062-2.2356-.4748-3.6393-2.2934-4.4258-3.0788-2.4854-.2611-3.4163-.834-5.9017-1.093-1.2427,.6193-.4934,1.2633-3.2626,2.1138-7.0143,.8463-10.118-6.1154-10.118-6.1154 .3427-2.347-15.774,.4779-24.536-1.5554-3.5928,2.0023-5.1606,7.9236-8.1063,8.6296-.0836,1.8351-4.8366-1.5079-5.7954-3.3142-.2054-5.2546 4.5796-7.583 4.5796-7.583 3.7931-2.667 6.0493-3.1057 7.8772-4.946 .9165-4.5764 .4531-7.9598 2.4038-11.4 1.6504-2.6247 4.0841-1.3934 5.7345-2.5721 1.7794-1.1756 2.5266-8.8722 .8928-10.982 0,0-7.1031-6.4085-7.4943-6.7996-2.313-6.6294 2.7-10.898 4.1388-10.418z"/><path fill="#ffc639" d="m455.51,64.507c-2.4366-9.6396-24.239-30.401-40.625-43.612-3.9143-2.665-6.4636-1.0777-5.9543,2.722 2.0418,3.4026 3.5705,7.1437 5.6135,10.546 .567,2.2678 1.644,3.8552 2.211,6.123 0,0 .1692,3.912 .5118,4.2522 5.1017,5.6153 5.7821,10.377 5.7821,10.377 2.9483,5.6705 5.5559,9.809 10.717,14.458 5.7833,3.6287 1.5288,14.913 1.6998,20.924 0,3.7991-2.7203,3.3455-5.1023,2.8907-18.768-17.237-37.366-17.293-53.754-22.282-6.4055-.681-6.5195,2.3813-4.4213,4.0811 11.453,12.248 22.228,20.583 36.403,27.557 2.3814,1.4748 4.7615,2.9489 7.1434,4.4237 2.7221,2.2674 5.4425,4.5353 8.1646,6.8033 6.2939,4.0829 6.805,7.8256 6.805,8.164 .1686,7.6552-3.9137,13.608-5.1047,15.99-2.1492,8.1184-6.4625,9.526-6.4625,9.526-35.041,23.645-53.414,29.768-110.23,22.453-.8502-.4536-6.2945,.4536 0,2.7221 14.46,4.8191 49.978,12.546 84.341-3.7271 8.2504-5.7845 13.77-3.8867 19.747-7.3492 9.8122-6.0515 23.83-13.588 26.381-14.438 7.6546-4.0829 29.087-8.6758 34.02-12.759 5.6699-.4542 11.544-1.1976 11.941-6.0737 1.8648-1.2024 4.5845-.3252 6.6094-4.2941 4.4897-.7818 3.7337-2.391 3.7337-2.391-1.1334-3.1739-5.3303-4.4789-8.3338-6.8026-4.4237-1.4754-7.4842-1.9284-10.718-.3414-1.0206,.4548-2.0412,.9078-3.0617,1.3614 0,0-4.7627-.6798-4.7627-1.02-10.584-.5808-9.5542-35.656-13.298-50.285z"/><path fill="#1c8a42" d="m354.38,73.886a2.0703,1.3672 0 1,1 -4.1406,0 2.0703,1.3672 0 1,1 4.1406,0z" transform="matrix(1.2043 .37822 -.40443 1.1263 83.426 -95.322)"/><g fill="#fff" stroke-width="1.25"><path d="m73.826,356.02-13.802-12.92-13.968,12.74 1.497-18.84-18.671-2.98 15.668-10.58-9.315-16.45 18.042,5.65 7.055-17.54 6.83,17.63 18.113-5.42-9.526,16.33 15.531,10.78-18.708,2.74z" transform="matrix(.85242 0 0 .85242 -10.029 88.758)"/><path d="m73.826,356.02-13.802-12.92-13.968,12.74 1.497-18.84-18.671-2.98 15.668-10.58-9.315-16.45 18.042,5.65 7.055-17.54 6.83,17.63 18.113-5.42-9.526,16.33 15.531,10.78-18.708,2.74z" transform="matrix(.67138 0 0 .67138 82.917 59.462)"/><path d="m240.51,428.32-23.61-11.9-9.44,24.7-8.27-25.11-24.14,10.79 11.9-23.6-24.69-9.44 25.11-8.28-10.8-24.13 23.61,11.9 9.44-24.7 8.27,25.11 24.14-10.79-11.9,23.61 24.69,9.43-25.11,8.28z" transform="matrix(.65617 0 0 .65617 -13.22 216.2)"/><path d="m269.57,243.43-13.75-.61-6.81,11.97-6.35-12.22-13.76,.09 7.41-11.6-6.97-11.88 13.76,.61 6.8-11.97 6.35,12.22 13.77-.09-7.41,11.6z" transform="matrix(.85232 -.01252 .01252 .85232 -17.441 176.58)"/><path d="m159.76,320.14-12.93-8.86-12.59,9.33 4.43-15.03-12.77-9.09 15.67-.43 4.69-14.96 5.26,14.77 15.67-.15-12.42,9.56z" transform="matrix(.77294 0 0 .75275 17.672 171.67)"/></g></g></svg>