<svg xmlns="http://www.w3.org/2000/svg" viewBox="0 0 512 512" xmlns:xlink="http://www.w3.org/1999/xlink"><g fill-rule="evenodd"><path fill="#0021ad" stroke-width="1.25" d="m0 0h512v512h-512z"/><path fill="#1c8a42" d="m0 0l512 512-.29-511.62-511.71-.38"/><path fill="#ffc639" d="m227.5 97.284a34.922 34.922 0 1 1 -69.844 0 34.922 34.922 0 1 1 69.844 0" transform="matrix(2.6485 0 0 2.6485-257.15 1.09)"/><path fill="#1c8a42" d="m195.39 217.47c6.327 8.688 15.91 23.23 23.624 19.441 6.01.02 9.122.446 9.937 4.444 14.194 2.419 38.05-3.57 52.884-22.896 0 0 1.254.162.817-7.186.083-3.205 4.377-2.558 4.481-1.524.601 1.591.492 2.786 1.297 2.825 1.835-.614 4.331-4.709 6.423-7.308.573-1.147.261-2.359.394-3.797 1.102-2.719 3.856-2.125 4.439-.705.521.917.529 1.624 1.051 2.54 2.795 1.862 7.845.124 8.24.124.495-2.277 1.961-2.063 1.961-2.063 1.862-.412 1.135-.246 2.354.392-1.079 12.293 2.418 12.834 2.129 19.15.125 7.03-2.129 9.03-2.129 11.728.715 3.273 11.1 3.386 7.443 6.163-3.211 1.716.018 4.928-4.821 6.172-14.05 7.136-16.744 13.257-16.744 13.257s-3.53 6.67-3.922 6.67c-2.359 4.45-5.342 2.02-6.997 4.189-.829 2.726-1.76 8.761-.103 11.899.827 4.312-.103 6.664-1.139 10.98-.931 8.998-4.497 10.362-4.909 13.526-1.657 3.373.348 19.221-1.22 19.221-10.467.206-18.488-2-22.627-2.828 4.04-17.383 2.473-32.667 2.473-34.24-1.036-12.435-18.635-9.408-21.323-11.06-2.236-.475-3.639-2.293-4.426-3.079-2.485-.261-3.416-.834-5.902-1.093-1.243.619-.493 1.263-3.263 2.114-7.01.846-10.118-6.115-10.118-6.115.343-2.347-15.774.478-24.536-1.555-3.593 2-5.161 7.924-8.106 8.63-.084 1.835-4.837-1.508-5.795-3.314-.205-5.255 4.58-7.583 4.58-7.583 3.793-2.667 6.05-3.106 7.877-4.946.917-4.576.453-7.96 2.404-11.4 1.65-2.625 4.084-1.393 5.734-2.572 1.779-1.176 2.527-8.872.893-10.982 0 0-7.103-6.409-7.494-6.8-2.313-6.629 2.7-10.898 4.139-10.418"/><path fill="#ffc639" d="m455.51 64.51c-2.437-9.64-24.24-30.401-40.625-43.612-3.914-2.665-6.464-1.078-5.954 2.722 2.042 3.403 3.57 7.144 5.613 10.546.567 2.268 1.644 3.855 2.211 6.123 0 0 .169 3.912.512 4.252 5.102 5.615 5.782 10.377 5.782 10.377 2.948 5.67 5.556 9.809 10.717 14.458 5.783 3.629 1.529 14.913 1.7 20.924 0 3.799-2.72 3.346-5.102 2.891-18.768-17.237-37.37-17.293-53.754-22.282-6.406-.681-6.519 2.381-4.421 4.081 11.453 12.248 22.23 20.583 36.403 27.557 2.381 1.475 4.762 2.949 7.143 4.424 2.722 2.267 5.442 4.535 8.165 6.803 6.294 4.083 6.805 7.826 6.805 8.164.169 7.655-3.914 13.608-5.105 15.99-2.149 8.118-6.462 9.526-6.462 9.526-35.04 23.645-53.41 29.768-110.23 22.453-.85-.454-6.295.454 0 2.722 14.46 4.819 49.978 12.546 84.34-3.727 8.25-5.785 13.77-3.887 19.747-7.349 9.812-6.05 23.83-13.588 26.381-14.438 7.655-4.083 29.09-8.676 34.02-12.759 5.67-.454 11.544-1.198 11.941-6.074 1.865-1.202 4.584-.325 6.609-4.294 4.49-.782 3.734-2.391 3.734-2.391-1.133-3.174-5.33-4.479-8.334-6.803-4.424-1.475-7.484-1.928-10.718-.341-1.021.455-2.041.908-3.062 1.361 0 0-4.763-.68-4.763-1.02-10.584-.581-9.554-35.656-13.298-50.28z"/><path fill="#1c8a42" d="m354.38 73.886a2.0703 1.3672 0 1 1 -4.1406 0 2.0703 1.3672 0 1 1 4.1406 0" transform="matrix(1.2043.37822-.40443 1.1263 83.43-95.32)"/><g fill="#fff" stroke-width="1.25"><path d="m73.826 356.02l-13.802-12.92-13.968 12.74 1.497-18.84-18.671-2.98 15.668-10.58-9.315-16.45 18.04 5.65 7.05-17.54 6.83 17.63 18.11-5.42-9.526 16.33 15.531 10.78-18.708 2.74z" transform="matrix(.85242 0 0 .85242-10.03 88.76)" id="0"/><use transform="matrix(.78762 0 0 .78762 90.82-10.445)" xlink:href="#0"/><path d="m240.51,428.32-23.61-11.9-9.44,24.7-8.27-25.11-24.14,10.79 11.9-23.6-24.69-9.44 25.11-8.28-10.8-24.13 23.61,11.9 9.44-24.7 8.27,25.11 24.14-10.79-11.9,23.61 24.69,9.43-25.11,8.28z" transform="matrix(.65617 0 0 .65617-13.22 216.2)"/><path d="m269.57 243.43l-13.75-.61-6.81 11.97-6.35-12.22-13.76.09 7.41-11.6-6.97-11.88 13.76.61 6.8-11.97 6.35 12.22 13.77-.09-7.41 11.6z" transform="matrix(.85232-.01252.01252.85232-17.441 176.58)"/><path d="m159.76,320.14-12.93-8.86-12.59,9.33 4.43-15.03-12.77-9.09 15.67-.43 4.69-14.96 5.26,14.77 15.67-.15-12.42,9.56z" transform="matrix(.77294 0 0 .75275 17.672 171.67)"/></g></g></svg>