<svg xmlns="http://www.w3.org/2000/svg" viewBox="0 0 512 512"><path fill="#fff" d="m-2.086,2.086h512v512h-512z"/><g fill-rule="evenodd"><path fill="#808080" stroke-width="1.25" d="m699.33,498.15 3.02-3.98-1.57-4.74 4.72,1.64 4.02-2.96-.1,4.99 4.05,2.92-4.77,1.44-1.52,4.76-2.85-4.1z" transform="matrix(.4561 0 0 .4561 -63.823 10.873)"/><path fill="#ffce00" d="m128.27,257.88h.2503c-.6681,0-.3171-.0509 .7515,.7649 .8737,.3554 1.6424,.5101 3.0054,.5101 1.1949,.0867 2.2289,.2548 3.5066,.2548 1.1752,.5047 1.8445,.9656 2.7551,1.2744 .4017,.6193 1.2777,2.0065 1.7533,2.5494 .882,.6605 1.9464,1.0639 2.7551,1.7845 1.0078,.2796 1.649,.7157 2.7551,1.5291 .8325,.4015 1.6198,.7321 2.7551,1.275 1.09,.3833 2.2813,.8965 3.2557,1.2744 .8582,.2056 2.0054,.5568 2.7551,1.0196 1.0644,.2353 1.9577,.5374 3.2563,.7649 1.326,.1607 1.9953,.5174 3.2557,.7649 1.1317,.5829 2.0137,1.0178 3.2563,1.5297 .5042,.7545 .9374,1.4333 2.0036,1.7839 .5477,.6751 1.4559,.8546 2.0036,1.5297 .8069,.3888 1.6955,.6466 2.7551,1.0196 1.2771,.0928 2.1985,.4622 3.5066,.5101h3.5066 3.5066c1.118,.1353 2.3701,.3136 3.2557,.5095 1.2259,0 2.4208,.0212 3.5066-.2548 1.4017-.0169 2.0554-.4161 3.2563-.5101 1.3397,.2165 2.2485,.097 2.7551,1.275 .8302,.8449 1.3349,1.6723 1.5024,2.8041 .264,.8061 .2509,2.1387 .2509,3.3136 0,1.1076 .006,2.314 .2503,3.0594 .7974,.7831 1.419,1.0141 2.5048,1.2744 .8051,.2729 2.2884,.5113 3.0054,1.0196 .5918,.632 .8814,1.6359 1.7533,2.2946 .7622,.5956 2.037,.72 3.2557,.7643h3.5066c1.0948,0 2.5477,.1061 3.2563-.2548 1.0846-.4015 1.3695-1.1482 2.7551-1.2744 1.3051,.2002 1.2783,.8292 2.2539,1.2744 .621,.911 1.2098,1.2871 2.0036,1.7845 .5149,.7491 1.1883,1.3308 2.2545,1.5297 1.3051-.1347 2.4857-.5241 3.5066-.7649 .357-.9098 .7944-1.5376 1.2521-2.2946 .3397-.5847 .5006-.7351 .5006-1.7845 .3749-.7618 .3284-2.3116 0-3.3136-.0471-1.2974-.3451-1.9828-.5006-3.3142 0-1.2356 .0579-2.4116 .2503-3.3136 .5149-.6047 .8498-1.594 1.2527-2.2946 .683-.834 1.3159-1.1476 2.2539-1.5291 .7926-.2687 2.1013-.2554 3.2563-.2554 .6126-.1868 1.6299-.125 1.2521-.5095-.3248,.3306-1.5709,.4349-.2503,.5095 .7187-.4962 2.0298-.7242 2.7551-1.0196 1.0697-.1638 1.711-.5338 2.7551-.7643 .7807-.4652 1.6544-.6878 2.7551-1.0202 .907-.3512 1.9273-.6945 3.0054-1.0196 1.1532-.5514 1.8641-.8625 3.0054-1.0196 .7855-.4216 1.7718-.5095 3.006-.5095 1.1573,.7552 1.7646,1.3472 2.7551,2.294 .4732,.7091 .8969,1.1355 1.2521,2.0392 .8016,.555 1.23,.9644 2.7551,1.0196 1.2062,0 1.6848,.2099 2.0036-.7643 .6591-.5981 1.0006-1.6559 1.7533-2.2946 .7473-.7473 1.6704-1.127 2.5048-1.5291 .9404-.2614 1.7002-.6072 3.0054-.7649 .8689-.3233 1.767-.3918 2.7551,.2548 .7354,1.0451 1.5656,2.112 2.5048,3.3142 .6371,.4197 1.4172,.5095 2.5042,.5095 .7646-.3888 2.3421-.2548 3.5066-.2548 1.0256,.3002 1.4738,.9881 2.5048,1.2744 .5763,.0589 .8868,.2548 1.503,.2548 1.832,.242 2.5942,.0582 4.0072-.2548h3.5066c1.2306,.0467 1.8939,.2548 3.2557,.2548 .761,.4701 2.0656,.6884 3.006,1.0202 1.1854,.2839 1.4118,.7418 2.5042,1.2744 .7086,.3603 2.1615,.2548 3.2563,.2548 1.3075-.1583 2.1764-.3845 3.2557-.7649 .9505-.236 1.3528-.4804 1.7533-1.2744 .6228-.4307 1.4821-1.1203 2.0042-1.7845 .6877-.4761 1.2849-1.0839 1.7527-1.7845 .6746-.4531 1.8087-1.6074 2.2545-2.294 .64-.5216 1.3242-1.614 1.7533-2.2946 .5495-.831 1.2432-1.3126 1.7533-2.5487 .3904-1.1919 .4416-2.126 .7515-3.3142 .2581-.9632 .7318-1.7784 1.0018-3.0588 .5089-1.1161 .9166-2.2048 1.2521-3.0594 .615-.7018 1.0226-1.5504 1.7533-2.294 .419-.6593 .9774-.9948 1.503-1.5297 .5965-.5787 1.4964-1.0069 2.5042-1.2744 1.0346-.2869 1.4821-.7485 2.0036-1.5297 .947-.3209 1.5054-.7364 2.7551-1.0196 1.0989-.3312 1.9988-.5416 3.006-.7649h3.5066c1.2628,0 2.3504,.1152 3.506,.2554 1.1418,.3318 2.2134,.6211 3.2563,.7649 .7169,.3451 1.9094,.9759 2.5048,1.5291 .7479,.5028 1.565,1.3144 2.0036,2.0392 .3272,1.0002 .8594,1.4418 1.5024,2.2946 .6693,.8862 1.2324,1.4466 2.5048,2.0392 1.0137,.239 1.8439,.6739 3.0054,.7649 1.3308,0 2.1359,.1674 3.2563,.2548 1.2253,0 2.4208,.0212 3.5066-.2548 1.0936-.6429 1.4857-.8146 2.2539-1.7845 1.0101-.5059 1.7438-.9074 3.006-1.0196 .8296-.1838 1.8576-.2548 3.0054-.2548 .6502,.4537 1.3403,.6248 1.7533,1.2744 .6597,.4755 .7032,.7333 1.7533,.7649 .7163,.4264 1.7712,.6296 2.7551,.7649h3.506-3.506 3.506c.9601-.8207 1.2527-.7273 1.2527-1.7845 .7753-.632 1.1597-1.5188 2.0036-2.5493 .4577-.7564 .8951-1.3848 1.2521-2.2946 .2735-.8352 .6138-2.1162 .7515-3.0588 .3164-.8455 .615-2.1454 .7515-3.3136 .3033-1.1779 .5012-2.2309 .5012-3.569v-3.5689c-.0149-1.2604-.2008-2.1417-.5012-3.0588-.3969-1.1264-1.0608-1.9495-1.503-2.8041-.7414-.5962-1.6568-1.4321-2.2539-2.0392-1.1389-.6987-2.0018-1.2076-3.0054-1.7845-1.0972-.6915-2.1508-1.2914-3.006-1.7845-.5024-.572-1.3188-1.3575-1.7527-1.7845-.3433-.6981-.3433-2.3613 0-3.0588 .0292-1.0615 .14-1.6729 .7509-2.2946 1.1413-.4167 1.9023-.9656 2.7551-1.5297 .5536-.7885 1.4214-.9402 2.5048-1.7839 1.084-.484 1.6985-.7382 2.5048-1.5297 1.1716-.3979 2.2652-1.2082 3.2557-1.5297 .5364-.6599 1.5405-1.2058 2.7551-1.5291 .8689-.6023 1.9088-1.2428 2.7551-1.5297 1.1794-.6363 2.0554-.8601 3.2563-1.5297 1.2247-.3111 2.3183-.8716 3.5066-1.2744 .3045-.3791 .6681-.6599 1.2521-.7649 1.559-.094 2.8588-.2645 3.7569-1.0196 1.0072-.3633 1.1115-1.0991 1.7533-1.7845 .4607-.8431 .9637-1.2167 1.2521-2.294 .7968-.871 .3564-1.1264-1.0018-1.275-.4273-.4349-.8129,.004-1.0018-.7643-.8987-.4106-1.1335-1.1233-1.7533-1.7845-.3784-1.0536-.3695-1.5273 .7515-2.0398 .6985-.4828 1.6925-.6454 2.2545-1.2744 1.0435-.1601 1.8361-.6187 2.7551-1.0196 1.3612-.0989 2.0852-.4118 3.2557-.7649 .9964-.5417 1.6436-.8595 2.5048-1.2744 1.0298-.4537 2.2575-1.0942 3.2557-1.5297 .8981-.609 2.0388-1.2046 3.2563-1.5291 .8969-.464 2-.8286 3.0054-1.275 .8582-.2056 2.0054-.5562 2.7551-1.0196 1.1544-.2238 2.4041-.6478 3.2563-1.0196 .8379-.3852 1.8248-.8698 2.5042-1.2744 1.0375-.4567 1.7783-1.0032 2.7557-1.275 .5918-.5744 1.3892-.9814 2.2539-1.2744 .705-.666 2.2044-1.5861 3.0054-2.0392 .7598-.3664 1.6478-.7394 2.2545-1.275 .5828-.0656 .4184-.1886 1.0018-.2548 1.8254-.5592 2.7575-.7673 3.7569-1.7845 .7765-.3742 1.5751-.7806 2.2539-1.2744 .8355-.6751 1.5012-1.2865 2.0036-2.0392 .9118-.3294 1.4112-.9723 2.2545-1.5297 .8737-.3554 1.643-.5101 3.0054-.5101 1.0954,0 2.5477,.1061 3.2563-.2548 1.5715-.0189 1.9804-.4027 3.0054-1.0196 .3391-.9729 1.0632-1.4594 2.0036-2.0392 .5542-.515 1.9553-1.2859 2.5048-1.7845 1.084-.5283 1.5524-1.2022 2.5048-2.0392 .7354-.8055 1.6568-1.5504 2.5042-2.0392 1.053-.467 1.8075-.6769 2.7551-1.0196 1.186-.2153 2.3778-.4367 3.5042-.7649 1.2813-.1001 1.7342-.4816 2.7593-.7649 .7092-.6884 1.1383-1.0354 2.0024-2.0392 .4231-1.1713 1.0489-1.6001 2.2527-1.7845 1.2098-.6436 2.1812-.72 3.0096-1.5297 .8462-.8631 1.4303-1.8342 2.2527-2.8041 .4648-1.0985 .8999-1.759 1.0012-3.0588-.0178-1.5643-.3516-1.7893-1.0012-2.8041-.6258-.9135-1.0191-1.4945-1.5018-2.2946-.7807-.4488-1.8892-.8947-2.7593-1.2744-1.1919,.0934-1.9249,.3657-2.7533,.7649-.8522,.7012-1.4422,1.2774-2.0024,2.294-.3814,.8213-.6377,1.7256-1.0012,2.8041-.4768,.6933-1.615,1.3514-2.509,1.7845-1.0489,.4671-1.7998,.6769-2.7533,1.0196-1.1859,.4173-1.739,.7782-3.0048,1.275-.7408,.3567-1.7658,.905-2.5048,1.2744-1.0894,.6599-2.1329,1.1743-3.0054,1.5297-1.1109,.6417-1.7456,.9941-2.7551,1.2744-1.1389,.6896-2.2414,1.2125-3.2563,1.7845-.8421,.4209-1.6639,.9674-2.7551,1.5297-.8856,.1959-2.1383,.3742-3.2557,.5095h-3.7575c-1.0703-.2511-2.3439-.4701-3.506-1.0196-1.2473-.6575-1.8576-1.0736-2.7551-1.7845-.5489-1.0876-.7342-1.6074-.7515-3.0588-.7783-.3961-1.8552-.4956-3.0054-.5101-1.2706,0-2.4488-.048-3.2563,.5101-1.0906,.165-2.0072,.6138-2.7551,1.2744-1.1532,.558-1.9064,1.2307-2.7551,1.7845-.8826,.5417-2.0244,1.3526-3.0054,1.7845-.9219,.4021-2.3636,.8425-3.5066,1.2744-1.4708,.43-2.5346,.9044-4.0072,1.0202-1.2575,.5787-2.2432,.7509-3.5066,1.2744-1.2825,.4853-2.1883,.8431-3.5066,1.2744-.8695,.4501-2.4398,1.2022-3.2563,1.7845-1.4958,.7612-2.5906,1.4078-3.7569,2.0392-1.1722,.501-2.0215,.9766-3.2557,1.5297-.6067,.5501-1.8087,.9814-2.5048,1.5297-1.1174,.2845-2.4011,.7533-3.0054,1.2744-.9881,.1207-1.537,.3858-2.0036,1.0196-.8927,1.09-.5024,1.0196-1.503,1.0196-.8558,.5289-2.1866,.5101-3.5066,.5101-1.3361-.0364-2.388-.2553-3.7569-.2553-1.1752-.2135-2.2491-.464-3.5066-.5095h-3.5066-3.506-3.5066-4.0078-3.506-3.5066c-1.3308,0-2.1359,.1674-3.2563,.2548-1.2462,.091-2.2176,.367-3.2557,.5101-1.1287,.1729-1.6448,.6047-2.5048,1.0196-.7908,.3815-1.5882,.7655-2.5048,1.0196-1.2294,.6618-2.6442,1.0087-4.0072,1.2744-1.0286,.4859-2.4893,.7455-3.2563,1.275-1.174,.0916-1.9422,.4143-3.2557,.5095-1.1156,.5137-2.0346,.7873-3.006,1.0196-.9005,.3057-1.767,.4949-3.0054,.5101-1.1585,.1595-1.7974,.4913-3.0054,.7649-.4297,.3682-1.1156,.6302-1.7533,.7643-1.4714,.7097-1.9535,.7649-3.5066,.7649h-3.5066c-1.6705-.165-3.3284-.3773-5.009-.7649-1.7146-.0837-3.3498-.3039-5.0096-.5095h-3.7569-3.7569-3.5066c-1.3236-.0479-2.4988-.3057-3.7569-.5101-1.1776-.2141-2.422-.3178-3.506-.7643-1.5578-.0837-3.1335-.2984-4.5084-.7649-1.2527-.2275-2.4535-.6557-3.7569-.7649-.7235-.447-2.1424-.5956-2.7551-1.0196-1.1454-.0898-2.0972-.4519-2.7551-1.0196-1.1716-.1771-1.8504-.703-3.006-1.0196-1.0405-.6411-2.2968-.8558-3.7569-1.5297-1.2438-.2711-2.4887-.7188-3.7569-1.0196-.9988-.3518-2.2164-.6866-3.0054-1.2744-1.1073-.3075-1.7426-.6393-3.0054-1.0202-.59-.5344-1.7509-1.0942-2.5048-1.5291-.5477-.4968-1.9869-1.3502-2.7551-1.7845-.8159-.9614-1.6389-1.9094-2.7551-3.0588-.7747-.8601-1.6591-1.5516-2.5048-2.0398-1.0858-.4604-2.3159-1.1185-3.0054-1.5291-.9488-.2632-1.7146-.8504-2.2545-1.5297-.854-.4925-1.4112-.9316-2.2539-1.5291-1.3087,.5047-1.4464,.2548-2.7551,.2548-1.4929-.125-2.5912-.1717-4.0072,0-1.2247,.1468-2.4226,.2548-3.7575,.2548h-3.506c-1.5846,.0194-1.8409,.2281-2.2545,1.5297-.7288,.8158-1.0334,1.7711-1.7533,2.294-.618,.7976-1.5095,1.3405-2.5048,1.7845-1.2366,.8704-1.6097,1.1852-2.2539,2.2946-.82,.7315-1.5036,1.7778-2.0036,2.5487-.4547,.7915-.7598,1.5249-1.0018,2.8041 0,1.2198 .0983,2.5032-.2503,3.569 0,1.2198 .0983,2.5032-.2509,3.569v3.569 3.5689c.5221,.7812 1.2253,1.0809 1.503,2.294 .3713,1.0075-.3164,.6466-1.0018,1.2744h-3.5066-3.5066c-1.2771,0-2.3111-.168-3.5066-.2548-1.0119-.1838-2.4935-.2511-3.2557-.5095h-3.5066c-1.2461-.091-2.2175-.367-3.2563-.5101-1.4506-.2814-2.4541-.7084-3.7569-1.5297-1.3337-.2905-2.3522-.8019-3.5066-1.5291-1.2438-.3318-2.2294-.9966-3.506-1.275-.8594-.4137-1.4738-.8146-2.5048-1.2744-.6061-.8443-1.1907-1.315-2.5048-1.5297-1.0078-.5265-1.8618-.5095-3.2557-.5095-1.3051,.1577-2.065,.5034-3.006,.7649-1.0435,.4804-2.4041,.8892-3.2557,1.2744-.8516,.3469-1.6252,.8128-2.5048,1.2744-.6734,.8819-1.0674,1.409-1.503,2.2946-.3337,0-.2503-.0849-.2503,.2548-1.3492,.0491-2.7682,0-4.2575,0-.7068,.3597-2.0817,.4373-3.006,.5101-.7336,.5774-1.6013,1.0778-2.2539,1.5291-.4321,.8795-.7342,1.1136-.7515,2.5493 .0536,1.5231 .5912,1.9658 1.0018,3.0588-.3016,1.3902-.8373,1.5055-2.0036,1.7845-.8862,.1959-2.0417,.2548-3.2563,.2548h-3.7569-3.7569c-1.4428,0-2.121,.0164-2.7551-.7643-.4356-.8643-.4768-1.9658-.7515-2.8041-.7461-1.033-1.0793-1.7262-2.2539-2.5493-.2586-.7897-.879-1.9488-1.2521-2.8041-.4017-.8619-.7116-1.6231-1.503-2.2946-.8325-.7867-1.7759-1.2974-2.5048-2.0392-.8379-.5471-1.5107-1.0014-3.0054-1.0196-1.214,0-2.3701,.0589-3.2563,.2548-.6103,.5392-1.6311,1.1148-2.5042,1.7845-.6925,.9395-1.3063,1.625-2.2545,2.5493-1.0686,.9972-2.1317,1.6025-3.0054,2.0392-.8004,.4076-1.6168,.9104-2.2545,1.7845-.7438,.33-1.1049,.8837-1.5024,1.7845-.6538,.5932-1.0286,1.5813-1.2527,2.5493-.4082,1.2477-.4642,2.681-.5006,4.0785v3.5689c-.3963,.4792-.6103,.9887-1.2521,1.5297-.6132,.5556-1.5352,1.1634-2.2545,1.5291-.6979,.9135-1.1329,1.4497-1.2521,2.8041 0,1.1142-.1037,2.593 .2503,3.3142 .5066,.7218 1.5286,1.2204 2.5048,1.7845 .938,.3385 1.4249,1.0784 2.0036,2.0392 1.0727,.4901 .9404,.9438 2.2539,1.0196 .7956,.6363 2.0161,.8358 3.006,1.2744 1.0024,.2784 1.5018,.7418 2.5042,1.0196 .649,.8601 1.3641,1.4181 1.7533,2.8041 .1055,.891 .4517,1.7839 0,2.5493-1.0203,.6181-2.3892,1.0117-3.0054,1.5297-.8105,.0431-.7503,.2347-1.2521,.5095-.0103,1.7038-.2336,2.5724-.5012,3.8237-.0858,1.1403-.2503,1.9598-.2503,3.3142v3.569c.5328,1.1324 1.2366,1.3435 2.0036,2.0392 .7634,.555 1.0012,1.2089 1.2521,2.294 .4297,.9972 .8874,1.8287 1.2527,2.8041 .4565,.9766 .7515,1.8627 .7515,3.3142-.1251,1.3957-.6985,1.6359-1.7533,2.294-.5602,.6903-.3761,1.9118-.7515,3.0594 0,1.1749-.0137,2.5075 .2503,3.3136 .4291,.5823 .3248,.8261 .5012,1.7845z"/><g fill="#009a00"><g transform="matrix(.59595 0 0 .60655 -117.78 -72.873)"><path d="m460.16,634.92l-.683-.683c1.55,1.549 .802,.981-.683-2.731-.145-3.936-1.098-4.57-3.413-6.145-2.715-.904-3.875-2.064-4.779-4.779-1.736-1.433-3.042-3.351-4.097-5.462-1.876-1.275-3.503-2.903-4.779-4.779-1.876-1.276-3.503-2.903-4.779-4.779-2.594-.906-4.306-2.751-7.51-4.096-1.803-1.719-3.497-2.567-6.145-4.097-2.963-1.419-3.132-2.446-6.827-2.731-1.13,1.244-2.92,.755-3.414,2.731 .15,4.046 .955,4.894 2.731,8.193 .138,3.729 1.14,5.484 2.731,8.193 1.939,1.357 3.431,3.769 5.462,5.462 2.168,1.474 3.03,3.04 6.145,4.779 1.627,2.035 4.347,3.126 6.827,4.779 3.054,1.178 5.559,2.087 7.51,3.414 2.74,.644 4.611,1.681 6.827,2.731 3.277,.307 4.611,.673 8.876,0z"/><path d="m474.5,654.03l-.682-.682c1.621,1.621 .848,.958-1.366-2.731-2.524-2.39-3.07-4.221-6.827-4.78-2.006-.802-5.262-1.298-7.51-2.048-3.887,0-5.668-.415-8.876-1.365-2.293-.626-5.194-1.738-7.51-2.731-2.746-.408-5.589-1.482-8.193-2.048h-9.558c-3.067,.721-4.793,.753-5.462,4.096 1.4,1.695 3.248,3.173 4.779,4.779 .863,2.999 2.946,3.714 4.779,5.462 3.161,1.094 3.803,1.911 7.51,2.048 3.143,1.048 5.428,1.324 8.876,1.366 3.657,0 6.287,.742 9.558,1.365 2.724,.368 5.396,.683 8.876,.683 2.966,0 6.197-.017 8.193-.683 4.302-3.441 3.413-4.188 3.413,.683 .456,.455 .911,.91 1.366,1.365"/><path d="m497.71,664.27h-.682c1.843,0 .907,.045-2.731-.682-3.405-.973-5.339-1.918-8.876-2.049-2.101-1.228-4.68-1.365-8.193-1.365h-9.558c-3.38,.26-4.813,1.105-8.193,1.365-1.794,1.05-5.358,1.912-7.51,2.731-1.92,1.306-3.559,2.929-6.145,4.097 .596,3.391 2.479,4.668 4.78,6.144 2.31,.925 4.685,1.798 8.192,2.049 3.355,.124 5.163,.682 8.876,.682 3.479,0 6.152-.314 8.876-.682 2.266-1.074 4.194-2.199 7.51-2.731 1.653-1.433 4.073-2.433 6.144-3.414 1.834-.868 4.329-1.669 6.145-2.731l-6.145,2.731c1.834-.868 4.329-1.669 7.51-6.145z"/><path d="m529.8,679.98v-.682c0,1.908 .085,.894-1.365-2.731-2.527-1.332-5.559-2.273-7.511-3.414-2.984,0-6.944-.283-8.875,.683-3.448,.041-5.733,.318-8.876,1.365-2.996,.452-4.723,1.5-6.827,2.731-2.378,1.283-5.824,2.934-8.876,4.096-2.698,1.881-3.612,2.984-6.827,4.78-2.025,2.219-4.098,3.552-5.462,5.462-.606,2.304 .039,5.022 2.731,6.144 1.702,1.406 4.316,2.14 6.827,2.731 3.187-.118 6.001-.56 8.193-2.048 3.383-.448 5.393-1.44 8.193-2.048 2.396-.851 4.69-1.667 7.51-2.049 1.953-1.324 5.416-2.467 7.51-3.413 3.43-1.389 5.621-3.221 8.193-4.779 1.226-1.419 2.862-2.951 4.779-3.414l-4.779,3.414c1.226-1.419 2.862-2.951 5.462-6.828z" transform="matrix(1 0 0 .85157 1.1887 101.1)"/><path d="m557.11,693.63c-.127-.032-3.176-1.365-5.461-1.365-2.024-1.184-5.299-1.422-8.193-2.731-3.731,0-6.271,.418-8.193,2.048-2.838,.383-5.375,1.217-7.51,2.731-2.658,.625-5.07,1.21-7.51,2.731-3.294,1.382-4.744,2.679-6.828,4.096-1.405,1.701-4.441,2.652-6.144,4.097-1.529,1.851-1.526,4.299-.683,6.827 1.748,1.076 4.736,2.144 6.827,3.414 3.052,.545 6.162,.682 9.559,.682 3.031-.233 5.588-.741 7.51-2.048 3.434-1.654 4.348-2.876 6.827-4.779 1.434-1.736 3.833-3.133 6.145-4.096 1.742-1.51 3.856-2.614 6.827-3.414 1.663-1.585 3.194-3.117 4.779-4.779 1.909,0 .598,.211 2.048-3.414z" transform="matrix(1 0 0 .88839 0 76.96)"/><path d="m587.15,696.36c-.164-.025-3.855-.683-6.145-.683-1.931-.965-5.891-.683-8.875-.683-3.762,.14-4.925,.917-6.828,2.731-1.935,1.191-4.271,2.261-6.144,4.097-2.394,1.467-4.551,3.489-6.828,4.779-2.505,1.073-4.664,2.302-7.51,2.731-1.372,1.661-3.778,3.096-5.462,4.779-1.874,1.406-2.669,2.082-2.731,5.462-1.39,1.121-2.329,3.322-2.048,4.096 2.763,1.419 5.047,2.003 8.876,2.049 3.647,.043 6.208,.837 9.558,0 3.414-1.012 4.778-1.72 8.193-2.731 1.743-2.271 3.052-3.791 5.462-5.462 1.302-1.915 2.862-3.677 5.462-4.779 1.948-1.772 4.83-3.729 6.827-4.78 1.221-1.709 3.602-3.527 5.462-4.779 1.368-2.315 1.757-2.7 2.731-6.827z" transform="matrix(1 0 0 .86641 -.59437 95.81)"/><path d="m589.88,693.63v-10.924-9.558c-3.17-1.875-3.645-2.997-4.779-6.827-1.683-2.73-2.969-4.447-4.097-6.828-1.581-1.659-2.884-3.812-3.414-6.827-1.304-2.528-2.113-5.07-4.779-6.145-2.415-.525-5.565-.683-8.875-.683-4.522,.168-4.097,.965-4.097,5.462 .318,3.497 1.433,4.412 2.731,7.51 1.003,2.118 2.092,4.294 3.414,6.145 1.021,2.262 2.623,5.174 4.096,6.827 1.196,2.511 2.915,4.786 3.414,7.511 1.871,2.374 3.164,4.451 4.779,6.144 1.337,2.791 2.343,4.37 4.779,5.462 1.393,2.088 3.748,2.26 6.828,2.731z"/><path d="m557.11,682.71h.683c-1.908,0-.894,.085 2.731-1.365 .966-1.932 .683-5.891 .683-8.876 0-3.887-.643-5.542-1.366-8.193-1.242-2.965-2.255-4.355-2.731-7.51-1.021-2.156-2.049-4.329-2.731-6.827-1.227-1.806-2.104-4.529-2.73-6.827-2.305-1.306-4.433-2.616-6.828-3.414-2.171-1.028-4.193-2.561-6.827-3.414-3.425,.627-3.812,1.756-4.097,5.462-.787,2.754 .293,5.244 1.366,7.51 1.128,2.694 1.801,5.426 3.414,7.51 .984,3.063 1.986,4.131 2.048,7.51 1.175,2.01 1.666,4.969 2.731,7.51 1.371,3.171 2.647,4.538 4.779,6.828 2.915,1.982 3.916,2.814 8.875,4.096z"/><path d="m529.8,673.83c0-.327 2.168-1.67 3.414-3.414 1.02-2.041 .894-6.191 0-8.876-1.295-3.199-2.706-5.597-3.414-8.192-.72-2.16-.683-5.728-.683-8.876-.623-2.868-1.649-4.988-2.731-8.193-.882-2.206-2.602-4.966-3.413-7.51-1.065-1.006-2.269-3.071-3.414-4.096-1.335-1.092-1.382-1.366-4.096-1.366-3.629,.135-5.455,.47-7.511,2.731-.719,2.16-.682,5.728-.682,8.876 .045,3.762 .395,5.541 2.048,8.193 1.206,2.869 3.736,5.663 5.462,8.192 1.415,2.396 2.316,4.675 4.096,6.145 .464,3.076 1.621,4.484 2.731,6.827 .464,3.076 1.621,4.484 2.731,6.828 1.786,.198 .952,.634 2.048,1.365l-2.048-1.365c1.786,.198 .952,.634 5.462,2.731z"/><path d="m502.49,653.35c.417-.939 2.951-4.593 3.413-6.828-.046-3.872-.497-6.515-2.731-8.875-.554-2.389-1.894-5.998-2.731-8.193 0-3.148 .038-6.716-.682-8.876 0-3.587-.496-5.742-1.366-8.193-1.542-2.267-3.203-2.931-6.827-4.096-2.937-.979-4.967-.273-8.193,.683v9.558c.043,3.613 .688,6.193 2.048,8.193 1.11,2.342 2.182,4.016 3.414,6.827 .132,3.711 1.116,5.629 1.365,8.876 .269,3.491 .597,5.298 2.731,7.51 2.907,1.374 3.794,2.703 6.145,3.414l-6.145-3.414c2.907,1.374 3.794,2.703 9.559,3.414z"/><path d="m477.92,638.33v-.682c0,1.908-.084,.894 1.366-2.731 .739-2.96 .682-6.218 .682-9.559-.211-2.751-.61-5.928-1.365-8.192-.624-3.495-1.339-5.682-2.048-8.876-.488-2.773-2.366-5.834-3.414-8.193-.67-2.01-1.353-6.2-2.048-8.193-.489-2.552-1.715-3.355-4.097-4.096-1.869-.935-6.323-.935-8.193,0-2.009,.696-2.006,2.284-2.73,4.096-.253,3.533-.854,6.143 0,9.559 1.155,1.975 2.377,4.071 3.413,6.144 1.342,2.423 2.687,6.059 4.097,8.193 1.027,3.467 1.407,5.068 3.413,8.193 .738,2.213 1.902,4.873 3.414,6.827 .972,2.43 2.39,4.152 3.414,6.828 1.842,0 .461-.045 4.096,.682z"/><path d="m618.13,711.13h-.594-2.378-8.321c-1.735,1.648-2.339,2.595-5.349,2.972-1.52,1.317-2.96,2.534-5.349,2.971-2.103,.458-4.845,.595-7.727,.595-3.523-.043-4.733,.109-5.349-2.972 .056-3.063 .2-3.234 2.972-3.566 1.484-1.226 3.971-1.807 6.538-2.377 1.962-.697 4.365-1.311 6.538-1.784 2.107-.748 4.118-1.512 5.943-2.377-.454-1.815-1.921-1.417-3.566-.594-2.135,0-4.682,.162-5.944-.595-1.483-2.204-2.286-2.927-5.943-2.971-3.47-.042-4.062-.953-7.132-1.189-2.94-.036-4.995-.476-7.133-1.189-3.138-.224-5.246-.702-7.726-1.783-.797-.797 1.094-.962 2.377-1.189 1.758-1.195 3.617-1.675 6.538-1.783h8.321c3.049,0 5.395,.49 8.321,.595 2.385,.825 4.891,1.257 6.538,2.377 2.151,.717 3.505,1.978 4.755,3.566 2.091,.571 4.195,1.274 6.538,1.783 2.74,0 5.846-.032 7.726,.595 1.361,2.268 .285,5.986-.594,8.915z"/></g><g transform="matrix(-.59595 0 0 .60655 620.4 -72.512)"><path d="m460.16,634.92l-.683-.683c1.55,1.549 .802,.981-.683-2.731-.145-3.936-1.098-4.57-3.413-6.145-2.715-.904-3.875-2.064-4.779-4.779-1.736-1.433-3.042-3.351-4.097-5.462-1.876-1.275-3.503-2.903-4.779-4.779-1.876-1.276-3.503-2.903-4.779-4.779-2.594-.906-4.306-2.751-7.51-4.096-1.803-1.719-3.497-2.567-6.145-4.097-2.963-1.419-3.132-2.446-6.827-2.731-1.13,1.244-2.92,.755-3.414,2.731 .15,4.046 .955,4.894 2.731,8.193 .138,3.729 1.14,5.484 2.731,8.193 1.939,1.357 3.431,3.769 5.462,5.462 2.168,1.474 3.03,3.04 6.145,4.779 1.627,2.035 4.347,3.126 6.827,4.779 3.054,1.178 5.559,2.087 7.51,3.414 2.74,.644 4.611,1.681 6.827,2.731 3.277,.307 4.611,.673 8.876,0z"/><path d="m474.5,654.03l-.682-.682c1.621,1.621 .848,.958-1.366-2.731-2.524-2.39-3.07-4.221-6.827-4.78-2.006-.802-5.262-1.298-7.51-2.048-3.887,0-5.668-.415-8.876-1.365-2.293-.626-5.194-1.738-7.51-2.731-2.746-.408-5.589-1.482-8.193-2.048h-9.558c-3.067,.721-4.793,.753-5.462,4.096 1.4,1.695 3.248,3.173 4.779,4.779 .863,2.999 2.946,3.714 4.779,5.462 3.161,1.094 3.803,1.911 7.51,2.048 3.143,1.048 5.428,1.324 8.876,1.366 3.657,0 6.287,.742 9.558,1.365 2.724,.368 5.396,.683 8.876,.683 2.966,0 6.197-.017 8.193-.683 4.302-3.441 3.413-4.188 3.413,.683 .456,.455 .911,.91 1.366,1.365"/><path d="m497.71,664.27h-.682c1.843,0 .907,.045-2.731-.682-3.405-.973-5.339-1.918-8.876-2.049-2.101-1.228-4.68-1.365-8.193-1.365h-9.558c-3.38,.26-4.813,1.105-8.193,1.365-1.794,1.05-5.358,1.912-7.51,2.731-1.92,1.306-3.559,2.929-6.145,4.097 .596,3.391 2.479,4.668 4.78,6.144 2.31,.925 4.685,1.798 8.192,2.049 3.355,.124 5.163,.682 8.876,.682 3.479,0 6.152-.314 8.876-.682 2.266-1.074 4.194-2.199 7.51-2.731 1.653-1.433 4.073-2.433 6.144-3.414 1.834-.868 4.329-1.669 6.145-2.731l-6.145,2.731c1.834-.868 4.329-1.669 7.51-6.145z"/><path d="m529.8,679.98v-.682c0,1.908 .085,.894-1.365-2.731-2.527-1.332-5.559-2.273-7.511-3.414-2.984,0-6.944-.283-8.875,.683-3.448,.041-5.733,.318-8.876,1.365-2.996,.452-4.723,1.5-6.827,2.731-2.378,1.283-5.824,2.934-8.876,4.096-2.698,1.881-3.612,2.984-6.827,4.78-2.025,2.219-4.098,3.552-5.462,5.462-.606,2.304 .039,5.022 2.731,6.144 1.702,1.406 4.316,2.14 6.827,2.731 3.187-.118 6.001-.56 8.193-2.048 3.383-.448 5.393-1.44 8.193-2.048 2.396-.851 4.69-1.667 7.51-2.049 1.953-1.324 5.416-2.467 7.51-3.413 3.43-1.389 5.621-3.221 8.193-4.779 1.226-1.419 2.862-2.951 4.779-3.414l-4.779,3.414c1.226-1.419 2.862-2.951 5.462-6.828z" transform="matrix(1 0 0 .85157 1.1887 101.1)"/><path d="m557.11,693.63c-.127-.032-3.176-1.365-5.461-1.365-2.024-1.184-5.299-1.422-8.193-2.731-3.731,0-6.271,.418-8.193,2.048-2.838,.383-5.375,1.217-7.51,2.731-2.658,.625-5.07,1.21-7.51,2.731-3.294,1.382-4.744,2.679-6.828,4.096-1.405,1.701-4.441,2.652-6.144,4.097-1.529,1.851-1.526,4.299-.683,6.827 1.748,1.076 4.736,2.144 6.827,3.414 3.052,.545 6.162,.682 9.559,.682 3.031-.233 5.588-.741 7.51-2.048 3.434-1.654 4.348-2.876 6.827-4.779 1.434-1.736 3.833-3.133 6.145-4.096 1.742-1.51 3.856-2.614 6.827-3.414 1.663-1.585 3.194-3.117 4.779-4.779 1.909,0 .598,.211 2.048-3.414z" transform="matrix(1 0 0 .88839 0 76.96)"/><path d="m587.15,696.36c-.164-.025-3.855-.683-6.145-.683-1.931-.965-5.891-.683-8.875-.683-3.762,.14-4.925,.917-6.828,2.731-1.935,1.191-4.271,2.261-6.144,4.097-2.394,1.467-4.551,3.489-6.828,4.779-2.505,1.073-4.664,2.302-7.51,2.731-1.372,1.661-3.778,3.096-5.462,4.779-1.874,1.406-2.669,2.082-2.731,5.462-1.39,1.121-2.329,3.322-2.048,4.096 2.763,1.419 5.047,2.003 8.876,2.049 3.647,.043 6.208,.837 9.558,0 3.414-1.012 4.778-1.72 8.193-2.731 1.743-2.271 3.052-3.791 5.462-5.462 1.302-1.915 2.862-3.677 5.462-4.779 1.948-1.772 4.83-3.729 6.827-4.78 1.221-1.709 3.602-3.527 5.462-4.779 1.368-2.315 1.757-2.7 2.731-6.827z" transform="matrix(1 0 0 .86641 -.59437 95.81)"/><path d="m589.88,693.63v-10.924-9.558c-3.17-1.875-3.645-2.997-4.779-6.827-1.683-2.73-2.969-4.447-4.097-6.828-1.581-1.659-2.884-3.812-3.414-6.827-1.304-2.528-2.113-5.07-4.779-6.145-2.415-.525-5.565-.683-8.875-.683-4.522,.168-4.097,.965-4.097,5.462 .318,3.497 1.433,4.412 2.731,7.51 1.003,2.118 2.092,4.294 3.414,6.145 1.021,2.262 2.623,5.174 4.096,6.827 1.196,2.511 2.915,4.786 3.414,7.511 1.871,2.374 3.164,4.451 4.779,6.144 1.337,2.791 2.343,4.37 4.779,5.462 1.393,2.088 3.748,2.26 6.828,2.731z"/><path d="m557.11,682.71h.683c-1.908,0-.894,.085 2.731-1.365 .966-1.932 .683-5.891 .683-8.876 0-3.887-.643-5.542-1.366-8.193-1.242-2.965-2.255-4.355-2.731-7.51-1.021-2.156-2.049-4.329-2.731-6.827-1.227-1.806-2.104-4.529-2.73-6.827-2.305-1.306-4.433-2.616-6.828-3.414-2.171-1.028-4.193-2.561-6.827-3.414-3.425,.627-3.812,1.756-4.097,5.462-.787,2.754 .293,5.244 1.366,7.51 1.128,2.694 1.801,5.426 3.414,7.51 .984,3.063 1.986,4.131 2.048,7.51 1.175,2.01 1.666,4.969 2.731,7.51 1.371,3.171 2.647,4.538 4.779,6.828 2.915,1.982 3.916,2.814 8.875,4.096z"/><path d="m529.8,673.83c0-.327 2.168-1.67 3.414-3.414 1.02-2.041 .894-6.191 0-8.876-1.295-3.199-2.706-5.597-3.414-8.192-.72-2.16-.683-5.728-.683-8.876-.623-2.868-1.649-4.988-2.731-8.193-.882-2.206-2.602-4.966-3.413-7.51-1.065-1.006-2.269-3.071-3.414-4.096-1.335-1.092-1.382-1.366-4.096-1.366-3.629,.135-5.455,.47-7.511,2.731-.719,2.16-.682,5.728-.682,8.876 .045,3.762 .395,5.541 2.048,8.193 1.206,2.869 3.736,5.663 5.462,8.192 1.415,2.396 2.316,4.675 4.096,6.145 .464,3.076 1.621,4.484 2.731,6.827 .464,3.076 1.621,4.484 2.731,6.828 1.786,.198 .952,.634 2.048,1.365l-2.048-1.365c1.786,.198 .952,.634 5.462,2.731z"/><path d="m502.49,653.35c.417-.939 2.951-4.593 3.413-6.828-.046-3.872-.497-6.515-2.731-8.875-.554-2.389-1.894-5.998-2.731-8.193 0-3.148 .038-6.716-.682-8.876 0-3.587-.496-5.742-1.366-8.193-1.542-2.267-3.203-2.931-6.827-4.096-2.937-.979-4.967-.273-8.193,.683v9.558c.043,3.613 .688,6.193 2.048,8.193 1.11,2.342 2.182,4.016 3.414,6.827 .132,3.711 1.116,5.629 1.365,8.876 .269,3.491 .597,5.298 2.731,7.51 2.907,1.374 3.794,2.703 6.145,3.414l-6.145-3.414c2.907,1.374 3.794,2.703 9.559,3.414z"/><path d="m477.92,638.33v-.682c0,1.908-.084,.894 1.366-2.731 .739-2.96 .682-6.218 .682-9.559-.211-2.751-.61-5.928-1.365-8.192-.624-3.495-1.339-5.682-2.048-8.876-.488-2.773-2.366-5.834-3.414-8.193-.67-2.01-1.353-6.2-2.048-8.193-.489-2.552-1.715-3.355-4.097-4.096-1.869-.935-6.323-.935-8.193,0-2.009,.696-2.006,2.284-2.73,4.096-.253,3.533-.854,6.143 0,9.559 1.155,1.975 2.377,4.071 3.413,6.144 1.342,2.423 2.687,6.059 4.097,8.193 1.027,3.467 1.407,5.068 3.413,8.193 .738,2.213 1.902,4.873 3.414,6.827 .972,2.43 2.39,4.152 3.414,6.828 1.842,0 .461-.045 4.096,.682z"/><path d="m618.13,711.13h-.594-2.378-8.321c-1.735,1.648-2.339,2.595-5.349,2.972-1.52,1.317-2.96,2.534-5.349,2.971-2.103,.458-4.845,.595-7.727,.595-3.523-.043-4.733,.109-5.349-2.972 .056-3.063 .2-3.234 2.972-3.566 1.484-1.226 3.971-1.807 6.538-2.377 1.962-.697 4.365-1.311 6.538-1.784 2.107-.748 4.118-1.512 5.943-2.377-.454-1.815-1.921-1.417-3.566-.594-2.135,0-4.682,.162-5.944-.595-1.483-2.204-2.286-2.927-5.943-2.971-3.47-.042-4.062-.953-7.132-1.189-2.94-.036-4.995-.476-7.133-1.189-3.138-.224-5.246-.702-7.726-1.783-.797-.797 1.094-.962 2.377-1.189 1.758-1.195 3.617-1.675 6.538-1.783h8.321c3.049,0 5.395,.49 8.321,.595 2.385,.825 4.891,1.257 6.538,2.377 2.151,.717 3.505,1.978 4.755,3.566 2.091,.571 4.195,1.274 6.538,1.783 2.74,0 5.846-.032 7.726,.595 1.361,2.268 .285,5.986-.594,8.915z"/></g></g></g></svg>