<svg xmlns="http://www.w3.org/2000/svg" viewBox="0 0 512 512" xmlns:xlink="http://www.w3.org/1999/xlink"><path fill="#fff" d="m-2.086 2.086h512v512h-512z"/><g fill-rule="evenodd"><path fill="#808080" stroke-width="1.25" d="m699.33 498.15l3.02-3.98-1.57-4.74 4.72 1.64 4.02-2.96-.1 4.99 4.05 2.92-4.77 1.44-1.52 4.76-2.85-4.1z" transform="matrix(.4561 0 0 .4561-63.823 10.873)"/><path fill="#ffce00" d="m128.27 257.88h.25c-.668 0-.317-.051.751.765.874.355 1.642.51 3.01.51 1.195.087 2.229.255 3.507.255 1.175.505 1.845.966 2.755 1.274.402.619 1.278 2.01 1.753 2.549.882.661 1.946 1.064 2.755 1.784 1.01.28 1.649.716 2.755 1.529.833.401 1.62.732 2.755 1.275 1.09.383 2.281.897 3.256 1.274.858.206 2.01.557 2.755 1.02 1.064.235 1.958.537 3.256.765 1.326.161 1.995.517 3.256.765 1.132.583 2.01 1.018 3.256 1.53.504.755.937 1.433 2 1.784.548.675 1.456.855 2 1.53.807.389 1.696.647 2.755 1.02 1.277.093 2.198.462 3.507.51h3.507 3.507c1.118.135 2.37.314 3.256.51 1.226 0 2.421.021 3.507-.255 1.402-.017 2.055-.416 3.256-.51 1.34.216 2.249.097 2.755 1.275.83.845 1.335 1.672 1.502 2.804.264.806.251 2.139.251 3.314 0 1.108.006 2.314.25 3.059.797.783 1.419 1.014 2.505 1.274.805.273 2.288.511 3.01 1.02.592.632.881 1.636 1.753 2.295.762.596 2.037.72 3.256.764h3.507c1.095 0 2.548.106 3.256-.255 1.085-.401 1.369-1.148 2.755-1.274 1.305.2 1.278.829 2.254 1.274.621.911 1.21 1.287 2 1.784.515.749 1.188 1.331 2.255 1.53 1.305-.135 2.486-.524 3.507-.765.357-.91.794-1.538 1.252-2.295.34-.585.501-.735.501-1.784.375-.762.328-2.312 0-3.314-.047-1.297-.345-1.983-.501-3.314 0-1.236.058-2.412.25-3.314.515-.605.85-1.594 1.253-2.295.683-.834 1.316-1.148 2.254-1.529.793-.269 2.101-.255 3.256-.255.613-.187 1.63-.125 1.252-.51-.325.331-1.571.435-.25.51.719-.496 2.03-.724 2.755-1.02 1.07-.164 1.711-.534 2.755-.764.781-.465 1.654-.688 2.755-1.02.907-.351 1.927-.695 3.01-1.02 1.153-.551 1.864-.863 3.01-1.02.786-.422 1.772-.51 3.01-.51 1.157.755 1.765 1.347 2.755 2.294.473.709.897 1.135 1.252 2.039.802.555 1.23.964 2.755 1.02 1.206 0 1.685.21 2-.764.659-.598 1-1.656 1.753-2.295.747-.747 1.67-1.127 2.505-1.529.94-.261 1.7-.607 3.01-.765.869-.323 1.767-.392 2.755.255.735 1.045 1.566 2.112 2.505 3.314.637.42 1.417.51 2.504.51.765-.389 2.342-.255 3.507-.255 1.026.3 1.474.988 2.505 1.274.576.059.887.255 1.503.255 1.832.242 2.594.058 4.01-.255h3.507c1.231.047 1.894.255 3.256.255.761.47 2.066.688 3.01 1.02 1.185.284 1.412.742 2.504 1.274.709.36 2.161.255 3.256.255 1.308-.158 2.176-.385 3.256-.765.95-.236 1.353-.48 1.753-1.274.623-.431 1.482-1.12 2-1.784.688-.476 1.285-1.084 1.753-1.784.675-.453 1.809-1.607 2.255-2.294.64-.522 1.324-1.614 1.753-2.295.55-.831 1.243-1.313 1.753-2.549.39-1.192.442-2.126.752-3.314.258-.963.732-1.778 1-3.059.509-1.116.917-2.205 1.252-3.059.615-.702 1.023-1.55 1.753-2.294.419-.659.977-.995 1.503-1.53.596-.579 1.496-1.01 2.504-1.274 1.035-.287 1.482-.749 2-1.53.947-.321 1.505-.736 2.755-1.02 1.099-.331 1.999-.542 3.01-.765h3.507c1.263 0 2.35.115 3.506.255 1.142.332 2.213.621 3.256.765.717.345 1.909.976 2.505 1.529.748.503 1.565 1.314 2 2.039.327 1 .859 1.442 1.502 2.295.669.886 1.232 1.447 2.505 2.039 1.014.239 1.844.674 3.01.765 1.331 0 2.136.167 3.256.255 1.225 0 2.421.021 3.507-.255 1.094-.643 1.486-.815 2.254-1.784 1.01-.506 1.744-.907 3.01-1.02.83-.184 1.858-.255 3.01-.255.65.454 1.34.625 1.753 1.274.66.476.703.733 1.753.765.716.426 1.771.63 2.755.765h3.506-3.506 3.506c.96-.821 1.253-.727 1.253-1.784.775-.632 1.16-1.519 2-2.549.458-.756.895-1.385 1.252-2.295.274-.835.614-2.116.752-3.059.316-.845.615-2.145.752-3.314.303-1.178.501-2.231.501-3.569v-3.569c-.015-1.26-.201-2.142-.501-3.059-.397-1.126-1.061-1.95-1.503-2.804-.741-.596-1.657-1.432-2.254-2.039-1.139-.699-2-1.208-3.01-1.785-1.097-.691-2.151-1.291-3.01-1.785-.502-.572-1.319-1.357-1.753-1.785-.343-.698-.343-2.361 0-3.059.029-1.061.14-1.673.751-2.295 1.141-.417 1.902-.966 2.755-1.53.554-.788 1.421-.94 2.505-1.784 1.084-.484 1.699-.738 2.505-1.53 1.172-.398 2.265-1.208 3.256-1.53.536-.66 1.541-1.206 2.755-1.529.869-.602 1.909-1.243 2.755-1.53 1.179-.636 2.055-.86 3.256-1.53 1.225-.311 2.318-.872 3.507-1.274.305-.379.668-.66 1.252-.765 1.559-.094 2.859-.264 3.757-1.02 1.01-.363 1.111-1.099 1.753-1.785.461-.843.964-1.217 1.252-2.294.797-.871.356-1.126-1-1.275-.427-.435-.813.004-1-.764-.899-.411-1.134-1.123-1.753-1.785-.378-1.054-.37-1.527.752-2.04.699-.483 1.692-.645 2.255-1.274 1.043-.16 1.836-.619 2.755-1.02 1.361-.099 2.085-.412 3.256-.765.996-.542 1.644-.859 2.505-1.274 1.03-.454 2.257-1.094 3.256-1.53.898-.609 2.039-1.205 3.256-1.529.897-.464 2-.829 3.01-1.275.858-.206 2.01-.556 2.755-1.02 1.154-.224 2.404-.648 3.256-1.02.838-.385 1.825-.87 2.504-1.274 1.038-.457 1.778-1 2.756-1.275.592-.574 1.389-.981 2.254-1.274.705-.666 2.204-1.586 3.01-2.039.76-.366 1.648-.739 2.255-1.275.583-.066.418-.189 1-.255 1.825-.559 2.757-.767 3.757-1.785.776-.374 1.575-.781 2.254-1.274.836-.675 1.501-1.286 2-2.039.912-.329 1.411-.972 2.255-1.53.874-.355 1.643-.51 3.01-.51 1.095 0 2.548.106 3.256-.255 1.572-.019 1.98-.403 3.01-1.02.339-.973 1.063-1.459 2-2.039.554-.515 1.955-1.286 2.505-1.785 1.084-.528 1.552-1.202 2.505-2.039.735-.805 1.657-1.55 2.504-2.039 1.053-.467 1.808-.677 2.755-1.02 1.186-.215 2.378-.437 3.504-.765 1.281-.1 1.734-.482 2.759-.765.709-.688 1.138-1.035 2-2.039.423-1.171 1.049-1.6 2.253-1.785 1.21-.644 2.181-.72 3.01-1.53.846-.863 1.43-1.834 2.253-2.804.465-1.099.9-1.759 1-3.059-.018-1.564-.352-1.789-1-2.804-.626-.913-1.019-1.494-1.502-2.295-.781-.449-1.889-.895-2.759-1.274-1.192.093-1.925.366-2.753.765-.852.701-1.442 1.277-2 2.294-.381.821-.638 1.726-1 2.804-.477.693-1.615 1.351-2.509 1.785-1.049.467-1.8.677-2.753 1.02-1.186.417-1.739.778-3 1.275-.741.357-1.766.905-2.505 1.274-1.089.66-2.133 1.174-3.01 1.53-1.111.642-1.746.994-2.755 1.274-1.139.69-2.241 1.213-3.256 1.785-.842.421-1.664.967-2.755 1.53-.886.196-2.138.374-3.256.51h-3.757c-1.07-.251-2.344-.47-3.506-1.02-1.247-.657-1.858-1.074-2.755-1.785-.549-1.088-.734-1.607-.752-3.059-.778-.396-1.855-.496-3.01-.51-1.271 0-2.449-.048-3.256.51-1.091.165-2.01.614-2.755 1.274-1.153.558-1.906 1.231-2.755 1.785-.883.542-2.024 1.353-3.01 1.785-.922.402-2.364.843-3.507 1.274-1.471.43-2.535.904-4.01 1.02-1.257.579-2.243.751-3.507 1.274-1.283.485-2.188.843-3.507 1.274-.87.45-2.44 1.202-3.256 1.785-1.496.761-2.591 1.408-3.757 2.039-1.172.501-2.02.977-3.256 1.53-.607.55-1.809.981-2.505 1.53-1.117.285-2.401.753-3.01 1.274-.988.121-1.537.386-2 1.02-.893 1.09-.502 1.02-1.503 1.02-.856.529-2.187.51-3.507.51-1.336-.036-2.388-.255-3.757-.255-1.175-.214-2.249-.464-3.507-.51h-3.507-3.506-3.507-4.01-3.506-3.507c-1.331 0-2.136.167-3.256.255-1.246.091-2.218.367-3.256.51-1.129.173-1.645.605-2.505 1.02-.791.381-1.588.766-2.505 1.02-1.229.662-2.644 1.01-4.01 1.274-1.029.486-2.489.745-3.256 1.275-1.174.092-1.942.414-3.256.51-1.116.514-2.035.787-3.01 1.02-.901.306-1.767.495-3.01.51-1.159.16-1.797.491-3.01.765-.43.368-1.116.63-1.753.764-1.471.71-1.954.765-3.507.765h-3.507c-1.671-.165-3.328-.377-5.01-.765-1.715-.084-3.35-.304-5.01-.51h-3.757-3.757-3.507c-1.324-.048-2.499-.306-3.757-.51-1.178-.214-2.422-.318-3.506-.764-1.558-.084-3.134-.298-4.508-.765-1.253-.227-2.454-.656-3.757-.765-.724-.447-2.142-.596-2.755-1.02-1.145-.09-2.097-.452-2.755-1.02-1.172-.177-1.85-.703-3.01-1.02-1.041-.641-2.297-.856-3.757-1.53-1.244-.271-2.489-.719-3.757-1.02-.999-.352-2.216-.687-3.01-1.274-1.107-.308-1.743-.639-3.01-1.02-.59-.534-1.751-1.094-2.505-1.529-.548-.497-1.987-1.35-2.755-1.785-.816-.961-1.639-1.909-2.755-3.059-.775-.86-1.659-1.552-2.505-2.04-1.086-.46-2.316-1.119-3.01-1.529-.949-.263-1.715-.85-2.255-1.53-.854-.493-1.411-.932-2.254-1.529-1.309.505-1.446.255-2.755.255-1.493-.125-2.591-.172-4.01 0-1.225.147-2.423.255-3.757.255h-3.506c-1.585.019-1.841.228-2.255 1.53-.729.816-1.033 1.771-1.753 2.294-.618.798-1.51 1.34-2.505 1.785-1.237.87-1.61 1.185-2.254 2.295-.82.732-1.504 1.778-2 2.549-.455.792-.76 1.525-1 2.804 0 1.22.098 2.503-.25 3.569 0 1.22.098 2.503-.251 3.569v3.569 3.569c.522.781 1.225 1.081 1.503 2.294.371 1.01-.316.647-1 1.274h-3.507-3.507c-1.277 0-2.311-.168-3.507-.255-1.012-.184-2.494-.251-3.256-.51h-3.507c-1.246-.091-2.218-.367-3.256-.51-1.451-.281-2.454-.708-3.757-1.53-1.334-.291-2.352-.802-3.507-1.529-1.244-.332-2.229-.997-3.506-1.275-.859-.414-1.474-.815-2.505-1.274-.606-.844-1.191-1.315-2.505-1.53-1.01-.526-1.862-.51-3.256-.51-1.305.158-2.065.503-3.01.765-1.043.48-2.404.889-3.256 1.274-.852.347-1.625.813-2.505 1.274-.673.882-1.067 1.409-1.503 2.295-.334 0-.25-.085-.25.255-1.349.049-2.768 0-4.257 0-.707.36-2.082.437-3.01.51-.734.577-1.601 1.078-2.254 1.529-.432.88-.734 1.114-.751 2.549.054 1.523.591 1.966 1 3.059-.302 1.39-.837 1.506-2 1.785-.886.196-2.042.255-3.256.255h-3.757-3.757c-1.443 0-2.121.016-2.755-.764-.436-.864-.477-1.966-.751-2.804-.746-1.033-1.079-1.726-2.254-2.549-.259-.79-.879-1.949-1.252-2.804-.402-.862-.712-1.623-1.503-2.295-.833-.787-1.776-1.297-2.505-2.039-.838-.547-1.511-1-3.01-1.02-1.214 0-2.37.059-3.256.255-.61.539-1.631 1.115-2.504 1.785-.692.94-1.306 1.625-2.255 2.549-1.069.997-2.132 1.602-3.01 2.039-.8.408-1.617.91-2.254 1.785-.744.33-1.105.884-1.502 1.785-.654.593-1.029 1.581-1.253 2.549-.408 1.248-.464 2.681-.501 4.078v3.569c-.396.479-.61.989-1.252 1.53-.613.556-1.535 1.163-2.255 1.529-.698.913-1.133 1.45-1.252 2.804 0 1.114-.104 2.593.25 3.314.507.722 1.529 1.22 2.505 1.785.938.339 1.425 1.078 2 2.039 1.073.49.94.944 2.254 1.02.796.636 2.02.836 3.01 1.274 1 .278 1.502.742 2.504 1.02.649.86 1.364 1.418 1.753 2.804.106.891.452 1.784 0 2.549-1.02.618-2.389 1.012-3.01 1.53-.811.043-.75.235-1.252.51-.001 1.704-.234 2.572-.501 3.824-.086 1.14-.25 1.96-.25 3.314v3.569c.533 1.132 1.237 1.344 2 2.039.763.555 1 1.209 1.252 2.294.43.997.887 1.829 1.253 2.804.457.977.751 1.863.751 3.314-.125 1.396-.698 1.636-1.753 2.294-.56.69-.376 1.912-.751 3.059 0 1.175-.014 2.507.25 3.314.429.582.325.826.501 1.784"/><g fill="#009a00"><g transform="matrix(.59595 0 0 .60655-117.78-72.873)"><path d="m460.16 634.92l-.683-.683c1.55 1.549.802.981-.683-2.731-.145-3.936-1.098-4.57-3.413-6.145-2.715-.904-3.875-2.064-4.779-4.779-1.736-1.433-3.042-3.351-4.097-5.462-1.876-1.275-3.503-2.903-4.779-4.779-1.876-1.276-3.503-2.903-4.779-4.779-2.594-.906-4.306-2.751-7.51-4.096-1.803-1.719-3.497-2.567-6.145-4.097-2.963-1.419-3.132-2.446-6.827-2.731-1.13 1.244-2.92.755-3.414 2.731.15 4.046.955 4.894 2.731 8.193.138 3.729 1.14 5.484 2.731 8.193 1.939 1.357 3.431 3.769 5.462 5.462 2.168 1.474 3.03 3.04 6.145 4.779 1.627 2.035 4.347 3.126 6.827 4.779 3.054 1.178 5.559 2.087 7.51 3.414 2.74.644 4.611 1.681 6.827 2.731 3.277.307 4.611.673 8.876 0" id="0"/><path d="m474.5 654.03l-.682-.682c1.621 1.621.848.958-1.366-2.731-2.524-2.39-3.07-4.221-6.827-4.78-2.01-.802-5.262-1.298-7.51-2.048-3.887 0-5.668-.415-8.876-1.365-2.293-.626-5.194-1.738-7.51-2.731-2.746-.408-5.589-1.482-8.193-2.048h-9.558c-3.067.721-4.793.753-5.462 4.096 1.4 1.695 3.248 3.173 4.779 4.779.863 2.999 2.946 3.714 4.779 5.462 3.161 1.094 3.803 1.911 7.51 2.048 3.143 1.048 5.428 1.324 8.876 1.366 3.657 0 6.287.742 9.558 1.365 2.724.368 5.396.683 8.876.683 2.966 0 6.197-.017 8.193-.683 4.302-3.441 3.413-4.188 3.413.683.456.455.911.91 1.366 1.365" id="1"/><path d="m497.71 664.27h-.682c1.843 0 .907.045-2.731-.682-3.405-.973-5.339-1.918-8.876-2.049-2.101-1.228-4.68-1.365-8.193-1.365h-9.558c-3.38.26-4.813 1.105-8.193 1.365-1.794 1.05-5.358 1.912-7.51 2.731-1.92 1.306-3.559 2.929-6.145 4.097.596 3.391 2.479 4.668 4.78 6.144 2.31.925 4.685 1.798 8.192 2.049 3.355.124 5.163.682 8.876.682 3.479 0 6.152-.314 8.876-.682 2.266-1.074 4.194-2.199 7.51-2.731 1.653-1.433 4.073-2.433 6.144-3.414 1.834-.868 4.329-1.669 6.145-2.731l-6.145 2.731c1.834-.868 4.329-1.669 7.51-6.145" id="2"/><path d="m529.8 679.98v-.682c0 1.908.085.894-1.365-2.731-2.527-1.332-5.559-2.273-7.511-3.414-2.984 0-6.944-.283-8.875.683-3.448.041-5.733.318-8.876 1.365-2.996.452-4.723 1.5-6.827 2.731-2.378 1.283-5.824 2.934-8.876 4.096-2.698 1.881-3.612 2.984-6.827 4.78-2.025 2.219-4.098 3.552-5.462 5.462-.606 2.304.039 5.02 2.731 6.144 1.702 1.406 4.316 2.14 6.827 2.731 3.187-.118 6-.56 8.193-2.048 3.383-.448 5.393-1.44 8.193-2.048 2.396-.851 4.69-1.667 7.51-2.049 1.953-1.324 5.416-2.467 7.51-3.413 3.43-1.389 5.621-3.221 8.193-4.779 1.226-1.419 2.862-2.951 4.779-3.414l-4.779 3.414c1.226-1.419 2.862-2.951 5.462-6.828" transform="matrix(1 0 0 .85157 1.189 101.1)" id="3"/><path d="m557.11 693.63c-.127-.032-3.176-1.365-5.461-1.365-2.024-1.184-5.299-1.422-8.193-2.731-3.731 0-6.271.418-8.193 2.048-2.838.383-5.375 1.217-7.51 2.731-2.658.625-5.07 1.21-7.51 2.731-3.294 1.382-4.744 2.679-6.828 4.096-1.405 1.701-4.441 2.652-6.144 4.097-1.529 1.851-1.526 4.299-.683 6.827 1.748 1.076 4.736 2.144 6.827 3.414 3.052.545 6.162.682 9.559.682 3.03-.233 5.588-.741 7.51-2.048 3.434-1.654 4.348-2.876 6.827-4.779 1.434-1.736 3.833-3.133 6.145-4.096 1.742-1.51 3.856-2.614 6.827-3.414 1.663-1.585 3.194-3.117 4.779-4.779 1.909 0 .598.211 2.048-3.414" transform="matrix(1 0 0 .88839 0 76.96)" id="4"/><path d="m587.15 696.36c-.164-.025-3.855-.683-6.145-.683-1.931-.965-5.891-.683-8.875-.683-3.762.14-4.925.917-6.828 2.731-1.935 1.191-4.271 2.261-6.144 4.097-2.394 1.467-4.551 3.489-6.828 4.779-2.505 1.073-4.664 2.302-7.51 2.731-1.372 1.661-3.778 3.096-5.462 4.779-1.874 1.406-2.669 2.082-2.731 5.462-1.39 1.121-2.329 3.322-2.048 4.096 2.763 1.419 5.05 2 8.876 2.049 3.647.043 6.208.837 9.558 0 3.414-1.012 4.778-1.72 8.193-2.731 1.743-2.271 3.052-3.791 5.462-5.462 1.302-1.915 2.862-3.677 5.462-4.779 1.948-1.772 4.83-3.729 6.827-4.78 1.221-1.709 3.602-3.527 5.462-4.779 1.368-2.315 1.757-2.7 2.731-6.827" transform="matrix(1 0 0 .86641-.594 95.81)" id="5"/><path d="m589.88 693.63v-10.924-9.558c-3.17-1.875-3.645-2.997-4.779-6.827-1.683-2.73-2.969-4.447-4.097-6.828-1.581-1.659-2.884-3.812-3.414-6.827-1.304-2.528-2.113-5.07-4.779-6.145-2.415-.525-5.565-.683-8.875-.683-4.522.168-4.097.965-4.097 5.462.318 3.497 1.433 4.412 2.731 7.51 1 2.118 2.092 4.294 3.414 6.145 1.021 2.262 2.623 5.174 4.096 6.827 1.196 2.511 2.915 4.786 3.414 7.511 1.871 2.374 3.164 4.451 4.779 6.144 1.337 2.791 2.343 4.37 4.779 5.462 1.393 2.088 3.748 2.26 6.828 2.731" id="6"/><path d="m557.11 682.71h.683c-1.908 0-.894.085 2.731-1.365.966-1.932.683-5.891.683-8.876 0-3.887-.643-5.542-1.366-8.193-1.242-2.965-2.255-4.355-2.731-7.51-1.021-2.156-2.049-4.329-2.731-6.827-1.227-1.806-2.104-4.529-2.73-6.827-2.305-1.306-4.433-2.616-6.828-3.414-2.171-1.028-4.193-2.561-6.827-3.414-3.425.627-3.812 1.756-4.097 5.462-.787 2.754.293 5.244 1.366 7.51 1.128 2.694 1.801 5.426 3.414 7.51.984 3.063 1.986 4.131 2.048 7.51 1.175 2.01 1.666 4.969 2.731 7.51 1.371 3.171 2.647 4.538 4.779 6.828 2.915 1.982 3.916 2.814 8.875 4.096" id="7"/><path d="m529.8 673.83c0-.327 2.168-1.67 3.414-3.414 1.02-2.041.894-6.191 0-8.876-1.295-3.199-2.706-5.597-3.414-8.192-.72-2.16-.683-5.728-.683-8.876-.623-2.868-1.649-4.988-2.731-8.193-.882-2.206-2.602-4.966-3.413-7.51-1.065-1.01-2.269-3.071-3.414-4.096-1.335-1.092-1.382-1.366-4.096-1.366-3.629.135-5.455.47-7.511 2.731-.719 2.16-.682 5.728-.682 8.876.045 3.762.395 5.541 2.048 8.193 1.206 2.869 3.736 5.663 5.462 8.192 1.415 2.396 2.316 4.675 4.096 6.145.464 3.076 1.621 4.484 2.731 6.827.464 3.076 1.621 4.484 2.731 6.828 1.786.198.952.634 2.048 1.365l-2.048-1.365c1.786.198.952.634 5.462 2.731" id="8"/><path d="m502.49 653.35c.417-.939 2.951-4.593 3.413-6.828-.046-3.872-.497-6.515-2.731-8.875-.554-2.389-1.894-5.998-2.731-8.193 0-3.148.038-6.716-.682-8.876 0-3.587-.496-5.742-1.366-8.193-1.542-2.267-3.203-2.931-6.827-4.096-2.937-.979-4.967-.273-8.193.683v9.558c.043 3.613.688 6.193 2.048 8.193 1.11 2.342 2.182 4.02 3.414 6.827.132 3.711 1.116 5.629 1.365 8.876.269 3.491.597 5.298 2.731 7.51 2.907 1.374 3.794 2.703 6.145 3.414l-6.145-3.414c2.907 1.374 3.794 2.703 9.559 3.414" id="9"/><path d="m477.92 638.33v-.682c0 1.908-.084.894 1.366-2.731.739-2.96.682-6.218.682-9.559-.211-2.751-.61-5.928-1.365-8.192-.624-3.495-1.339-5.682-2.048-8.876-.488-2.773-2.366-5.834-3.414-8.193-.67-2.01-1.353-6.2-2.048-8.193-.489-2.552-1.715-3.355-4.097-4.096-1.869-.935-6.323-.935-8.193 0-2.01.696-2.01 2.284-2.73 4.096-.253 3.533-.854 6.143 0 9.559 1.155 1.975 2.377 4.071 3.413 6.144 1.342 2.423 2.687 6.06 4.097 8.193 1.027 3.467 1.407 5.068 3.413 8.193.738 2.213 1.902 4.873 3.414 6.827.972 2.43 2.39 4.152 3.414 6.828 1.842 0 .461-.045 4.096.682" id="A"/><path d="m618.13 711.13h-.594-2.378-8.321c-1.735 1.648-2.339 2.595-5.349 2.972-1.52 1.317-2.96 2.534-5.349 2.971-2.103.458-4.845.595-7.727.595-3.523-.043-4.733.109-5.349-2.972.056-3.063.2-3.234 2.972-3.566 1.484-1.226 3.971-1.807 6.538-2.377 1.962-.697 4.365-1.311 6.538-1.784 2.107-.748 4.118-1.512 5.943-2.377-.454-1.815-1.921-1.417-3.566-.594-2.135 0-4.682.162-5.944-.595-1.483-2.204-2.286-2.927-5.943-2.971-3.47-.042-4.062-.953-7.132-1.189-2.94-.036-4.995-.476-7.133-1.189-3.138-.224-5.246-.702-7.726-1.783-.797-.797 1.094-.962 2.377-1.189 1.758-1.195 3.617-1.675 6.538-1.783h8.321c3.049 0 5.395.49 8.321.595 2.385.825 4.891 1.257 6.538 2.377 2.151.717 3.505 1.978 4.755 3.566 2.091.571 4.195 1.274 6.538 1.783 2.74 0 5.846-.032 7.726.595 1.361 2.268.285 5.986-.594 8.915" id="B"/></g><g transform="matrix(-.59595 0 0 .60655 620.4-72.51)"><use xlink:href="#0"/><use xlink:href="#1"/><use xlink:href="#2"/><use xlink:href="#3"/><use xlink:href="#4"/><use xlink:href="#5"/><use xlink:href="#6"/><use xlink:href="#7"/><use xlink:href="#8"/><use xlink:href="#9"/><use xlink:href="#A"/><use xlink:href="#B"/></g></g></g></svg>