<svg xmlns="http://www.w3.org/2000/svg" viewBox="0 0 512 512"><defs><clipPath id="clipPath58492" clipPathUnits="userSpaceOnUse"><path fill-opacity=".67" d="m55.364-.0001h708.66v708.6601h-708.66z"/></clipPath></defs><g fill-rule="evenodd" clip-path="url(#clipPath58492)" transform="matrix(.72249 0 0 .72249 -40 .00005)"><g stroke-width="1.25"><path fill="#0c0" d="m0-.0001h1063v708.6601h-1063z"/><path fill="#69f" d="m0,0h1063v354.33h-1063z"/><path fill="#fffefe" d="m0,0 609.96,353.88-609.96,353.42v-707.3z" transform="matrix(.86847 0 0 1 0 -.00003)"/></g><path fill="#f00" stroke-width=".113" d="m266.19,534.45-10.408-7.432-10.357,7.505 3.852-12.196-10.338-7.531 12.79-.105 3.967-12.159 4.052,12.131 12.79,.016-10.285,7.602 3.937,12.169z" transform="matrix(4.0987 0 0 4.132 -869.84 -1804.1)"/></g></svg>