<svg xmlns="http://www.w3.org/2000/svg" viewBox="0 0 512 512"><g fill-rule="evenodd" stroke-width="1.25"><g transform="scale(.48166.72249)"><path fill="#fff" d="m0 0h1063v708.66h-1063z"/><path fill="#00bf13" d="m0 0h531.5v708.66h-531.5z"/></g><g fill="#f21930" transform="matrix(.67903 0 0 .67903-106.73 24)"><path d="m692.45 439.71c-50.15 90.2-160.76 122.25-248.65 73.84s-119.93-159.03-71.52-246.92c48.41-87.89 159.02-119.93 246.91-71.52 32.491 17.896 55.625 41.42 73.819 74.936-6.64-9.132-14.05-16.67-23.784-24.32-59.948-47.13-146.85-36.73-193.98 23.22-47.13 59.947-36.729 146.85 23.22 193.98 59.948 47.13 146.85 36.729 193.98-23.22z"/><path d="m532.15 298.04l71.88 24.46 44.56-61.47-1.06 75.92 72.23 23.38-72.52 22.45.08 75.93-43.77-62.04-72.18 23.54 45.47-60.8z" transform="translate(2.181-2.905)"/></g></g></svg>