<svg xmlns="http://www.w3.org/2000/svg" viewBox="0 0 512 512" xmlns:xlink="http://www.w3.org/1999/xlink"><defs><path id="0" d="m322.44-322.44h7.087l3.75 60.24-7.294 7.087-7.086-7.087 3.543-60.24"/><path id="1" d="m318.9 574.02l17.716 17.716 17.717-17.716 17.716 17.716 17.717-17.716 17.716 17.716c5.257-9.426 7.092-22.888-.112-36.519-36.19-13.818-68.824-12.643-107.18 1.188-3.087 11.03-2.975 23.928 0 35.433l18.709-17.818z"/><path id="2" d="m345.63-96.12c0 3.279-1.119 5.938-2.5 5.938s-2.5-2.658-2.5-5.938 1.119-5.938 2.5-5.938 2.5 2.658 2.5 5.938"/><clipPath id="3"><path d="m124.02 0h496.06v496.06h-496.06z"/></clipPath></defs><g clip-path="url(#3)" transform="matrix(1.0321 0 0 1.0321-128 0)"><g fill-rule="evenodd"><g stroke-width="1.25"><path fill="#fff" d="M 0,162.99 H744.09 V329.53 H0 z"/><path d="M 0,329.53 H744.09 V496.07 H0 z"/><path fill="#f00" d="m0 0h744.09v162.99h-744.09z"/></g><g transform="translate(23.21 409.22)"><g fill="#d7b900" stroke="#fff"><g stroke-width="1.25"><use transform="matrix(.60585-.03204.0572.75873 164.05 95.21)" xlink:href="#0"/><use transform="matrix(.60642.02312-.04128.75945 123.88 77.45)" xlink:href="#0"/></g><g stroke-width="4.824"><g transform="matrix(1.2667 0 0 1.0307-115.19 8.206)"><path d="m177.16,255.12-17.716,442.91 35.433-35.434 17.716-407.48h-35.433z" transform="matrix(-.21053 0 0 .18418 442.73-252.58)" id="5"/><path d="m177.16,290.55-17.717,407.48 35.433-35.434 17.717-372.05h-35.433z" transform="matrix(-.21053 0 0 .18418 435.27-259.11)" id="6"/><path d="m177.17,325.98-17.718,372.05 35.433-35.434 17.718-336.61h-35.433z" transform="matrix(-.21053 0 0 .18418 427.81-265.63)"/><path d="m177.16,361.42-17.717,336.62 35.433-35.434 17.717-301.18h-35.433z" transform="matrix(-.21053 0 0 .18418 420.35-272.16)"/></g><g transform="matrix(1.1273 0 0 1.0307-62.21 8.148)"><g transform="matrix(-1 0 0 1 711.9 0)"><use xlink:href="#5"/><use xlink:href="#6"/></g><path d="m177.17,325.98-17.717,372.05 35.433-35.434 17.717-336.61h-35.433z" transform="matrix(.21053 0 0 .18418 284.08-265.63)"/><path d="m177.16,361.42-17.716,336.62 35.433-35.434 17.716-301.18h-35.433z" transform="matrix(.21053 0 0 .18418 291.86-271.3)"/></g></g></g><g fill="#fff" stroke="#d7b900"><path stroke-width="4.824" d="m181.73 256.05c-1-1.312 19.847-18.646 55.28-18.646 53.15 0 61.31 18.646 96.74 18.646h152.02c35.433 0 45.723-18.646 98.87-18.646 35.433 0 52.17 18.293 53.15 18.646 0 0-17.716-.93-53.15-.93s-49.3 39.04-85.05 38.22c-26.788.818-144.23 0-179.66 0-35.433 0-47.49-37.29-82.92-37.29-35.433 0-56.28-1.312-55.28 0z" transform="matrix(.25639 0 0 .19003 236.01-252.36)"/><path stroke-width="1.25" d="m400.39-109.84v3.543l3.543 3.543-3.543 3.543v3.543c-14.174 7.087-28.849 7.087-42.52 7.087-13.67 0-28.346 0-46.06-7.087v-3.543l-3.543-3.543 3.543-3.543v-3.543c14.173 3.543 28.347 7.086 46.06 7.086 17.717 0 28.347-3.543 42.52-7.086z" transform="matrix(1.3231 0 0 1.2037-129.91 19.854)"/><g transform="matrix(-1.0627.28456.30493.99174 760.82-100.29)"><use xlink:href="#4"/><g stroke-width="4.713" transform="matrix(-.10045.03769.09413.22662 362.02-256.85)"><use transform="matrix(1.3763.17548-.14151 1.7066-97.89-514.14)" xlink:href="#1"/><use transform="matrix(1.3763.17548-.14151 1.7066-95.13-545.97)" xlink:href="#1"/><use transform="matrix(1.3763.17548-.14151 1.7066-92.37-577.8)" xlink:href="#1"/><use transform="matrix(1.3763.17548-.14151 1.7066-88.23-617.12)" xlink:href="#1"/><use transform="matrix(1.3763.17548-.14151 1.7066-85.47-648.94)" xlink:href="#1"/><use transform="matrix(1.3763.17548-.14151 1.7066-82.71-680.77)" xlink:href="#1"/></g><g stroke-width="1.25"><use transform="matrix(.498-.38506.29096.65904 228.03 87.16)" xlink:href="#2"/><use transform="matrix(.498-.42984.29096.73568 242.09 102.86)" xlink:href="#2"/><use transform="matrix(.53454-.41491.31232.71013 245.2 88.25)" xlink:href="#2"/></g></g><g stroke-width="4.824"><path d="m268.29 261.84s32.89-42.16 32.89-95.31c0 0 70.866 0 70.866 0 0 53.15 34.31 95.31 35.434 88.58-17.717 0-53.15-17.717-70.866-53.15-17.716 35.434-50.608 59.875-68.32 59.875z" transform="matrix(.30797 0 0 .19003 235.41-246.38)"/><path d="m253.46 240.41s47.939-58.726 47.939-111.88v-74.58c0-17.717 23.97-18.646 35.955-18.646 17.717 0 35.954.929 35.954 18.646v74.58c0 53.15 47.94 111.88 47.94 111.88-35.433 0-54.19-39.15-71.909-74.58 0 17.717 4.993 53.862-12.724 71.58-17.716-17.717-11.246-53.862-11.246-71.58-17.717 35.433-36.475 74.58-71.909 74.58z" transform="matrix(.29565 0 0 .19003 239.56-245.85)"/></g><path stroke-width="5.909" d="m283.12 77.953h53.15c0 17.716 0 35.433-17.716 35.433-17.717 0-35.433-17.717-35.433-35.433z" transform="matrix(.24229.07746-.05394.11836 258.11-271.54)"/><g stroke-width="4.824"><path d="m183.96 42.52c11.811 0 11.811 17.716 11.811 35.433-17.716 0-29.528-17.717-47.24 0 0-19.559 0-35.433 17.716-35.433h17.717z" transform="matrix(.36344.11619-.05394.11836 267.48-266.15)"/><path d="m336.61 69.09c0 4.892-3.966 8.858-8.858 8.858s-8.858-3.966-8.858-8.858 3.966-8.858 8.858-8.858 8.858 3.966 8.858 8.858z" transform="matrix(.24229.07746-.08091.17754 263.94-273.76)"/></g></g><use fill="#d7b900" stroke="#fff" stroke-width="1.25" transform="matrix(.60705 0 0 .76024 141.13 85.24)" xlink:href="#0"/><g fill="#fff" stroke="#d7b900" transform="matrix(1.159.30317-.35586.98736-126.74-108.64)"><path stroke-width=".623" d="m-70.7644-406.53a2.3946 4.5048 0 0 1 2.3947 4.505v31.12a2.3946 4.5048 0 0 1 -2.3946 4.505 2.3946 4.5048 0 0 1 -2.3947 -4.505v-31.12a2.3946 4.5048 0 0 1 2.3946 -4.505" transform="matrix(-.56396-.8258-.8884.45907 0 0)" id="4"/><g stroke-width="4.713" transform="matrix(-.10045.03769.09413.22662 362.02-256.85)"><use transform="matrix(1.3763.17548-.14151 1.7066-97.89-514.14)" xlink:href="#1"/><use transform="matrix(1.3763.17548-.14151 1.7066-95.13-545.97)" xlink:href="#1"/><use transform="matrix(1.3763.17548-.14151 1.7066-92.37-577.8)" xlink:href="#1"/><use transform="matrix(1.3763.17548-.14151 1.7066-88.23-617.12)" xlink:href="#1"/><use transform="matrix(1.3763.17548-.14151 1.7066-85.47-648.94)" xlink:href="#1"/><use transform="matrix(1.3763.17548-.14151 1.7066-82.71-680.77)" xlink:href="#1"/></g><g stroke-width="1.25"><path d="m345.63-96.12c0 3.279-1.119 5.938-2.5 5.938s-2.5-2.658-2.5-5.938 1.119-5.938 2.5-5.938 2.5 2.658 2.5 5.938z" transform="matrix(.498-.38506.29096.65904 228.03 87.16)"/><use transform="matrix(.498-.42984.29096.73568 242.09 102.86)" xlink:href="#2"/><use transform="matrix(.53454-.41491.31232.71013 245.2 88.25)" xlink:href="#2"/></g></g><g transform="matrix(1.1703 0 0 1.0318-76.898 9.431)"><path fill="#fff" stroke="#d7b900" stroke-width="4.824" d="m301.18 290.55c0 194.88 35.433 177.17 106.3 248.03 70.866-70.866 106.3-53.15 106.3-248.03-35.434 0-70.867 0-106.3-17.716-35.432 17.716-70.866 17.716-106.3 17.716z" transform="matrix(.21053 0 0 .18418 269.66-253.34)"/><path fill="#d7b900" d="m301.18 290.55c0 194.88 35.433 177.17 106.3 248.03 70.866-70.866 106.3-53.15 106.3-248.03-35.434 0-70.867 0-106.3-17.716-35.432 17.716-70.866 17.716-106.3 17.716" transform="matrix(.19583 0 0 .1689 275.65-247.61)"/><path fill="#fff" d="m372.05 284.81v221.58l35.433 32.2 35.433-32.19v-221.58c-12.64-2.444-24.837-6.876-35.38-11.971-11.719 5.427-23.659 9.693-35.488 11.971" transform="matrix(.21053 0 0 .15478 269.77-242.19)"/></g></g></g></g></svg>