<svg xmlns="http://www.w3.org/2000/svg" viewBox="0 0 512 512"><defs><clipPath id="0"><path d="m229.34 6.346h489.26v489.26h-489.26z"/></clipPath></defs><g fill-rule="evenodd" stroke-width="1.25" clip-path="url(#0)" transform="matrix(1.0465 0 0 1.0465-240-6.641)"><path fill="#ffc621" d="m1.923 9.69h991.84v475.89h-991.84z"/><path fill="#ef2118" d="M 0,333.64 H993.18 V495.61 H0 z"/><path fill="#298c08" d="m1.923 6.346h991.93v172h-991.93z"/><ellipse fill="#006bc6" cx="534.22" cy="352.97" rx="199.65" ry="199.65" transform="matrix(.51526 0 0 .51526 204.68 77.01)"/><path fill="#ffc621" d="m445.21 211.89l-11.929 8.386 43.572 61.24 11.622-7.411-43.26-62.22m54.54 144.55l-17.917-12.493 7.404-23.509-89.25 1.246-25.832-19.778 121.83-1.313 22.594-68.45 12.137 27.677-30.969 96.62m141.92-131.08l-11.599-8.837-45.21 60.04 10.577 8.839 46.23-60.04m-121.31 95.67l6.496-20.855 24.647-.045-28.16-84.7 11.05-30.601 38.06 115.74 72.08.854-22.715 19.933-101.46-.326zm168.16 94.89l4.849-13.752-71.02-24.595-5.165 12.779 71.34 25.568m-128.3-86.08l21.842-.221 7.611 23.443 71.964-52.799 32.515 1.12-98.46 71.76 21.315 68.858-25.944-15.499-30.84-96.66m-36.627 189.32l14.58.213.674-75.16-13.759-.822-1.495 75.77m40.697-149.04l7.171 20.633-19.794 14.685 72.983 51.38 9.303 31.18-99.4-70.45-58.47 42.15 6.421-29.531 81.79-60.04m-191.52 24.08l4.312 13.93 71.67-22.632-3.48-13.338-72.5 22.04m154.32-7.455l-17.397 13.207-20.09-14.273-26.25 85.31-26.763 18.499 36.21-116.33-58.19-42.545 30.07-3.039 82.42 59.18z" transform="matrix(.51526 0 0 .51526 204.68 77.01)"/></g></svg>