<svg xmlns="http://www.w3.org/2000/svg" viewBox="0 0 512 512"><defs><clipPath id="clipPath3804" clipPathUnits="userSpaceOnUse"><path fill-opacity=".67" d="m229.34,6.3461h489.26v489.2599h-489.26z"/></clipPath></defs><g fill-rule="evenodd" stroke-width="1.25" clip-path="url(#clipPath3804)" transform="matrix(1.0465 0 0 1.0465 -240 -6.6411)"><path fill="#ffc621" d="M 1.9231,9.6896 H993.763 V485.58 H1.9231 z"/><path fill="#ef2118" d="M 0,333.64 H993.18 V495.61 H0 z"/><path fill="#298c08" d="m1.9231,6.3462h991.9299v171.9998h-991.9299z"/><ellipse fill="#006bc6" cx="534.22" cy="352.97" rx="199.65" ry="199.65" d="m 733.8736,352.9678 c 0,110.26463 -89.38716,199.65177 -199.6518,199.65177 -110.26464,0 -199.65179,-89.38714 -199.65179,-199.65177 0,-110.26462 89.38715,-199.65176 199.65179,-199.65176 110.26464,0 199.6518,89.38714 199.6518,199.65176 z" transform="matrix(.51526 0 0 .51526 204.68 77.013)"/><path fill="#ffc621" d="m445.21,211.89-11.929,8.386 43.572,61.24 11.622-7.411-43.265-62.215zm54.544,144.55-17.917-12.493 7.404-23.509-89.247,1.246-25.832-19.778 121.83-1.313 22.594-68.45 12.137,27.677-30.969,96.62zm141.92-131.08-11.599-8.837-45.211,60.04 10.577,8.839 46.233-60.042zm-121.31,95.673 6.496-20.855 24.647-.045-28.156-84.699 11.049-30.601 38.064,115.74 72.077,.854-22.715,19.933-101.46-.326zm168.16,94.891 4.849-13.752-71.021-24.595-5.165,12.779 71.337,25.568zm-128.3-86.082 21.842-.221 7.611,23.443 71.964-52.799 32.515,1.12-98.463,71.759 21.315,68.858-25.944-15.499-30.84-96.661zm-36.627,189.32 14.58,.213 .674-75.156-13.759-.822-1.495,75.765zm40.697-149.04 7.171,20.633-19.794,14.685 72.983,51.381 9.303,31.176-99.401-70.454-58.472,42.152 6.421-29.531 81.789-60.042zm-191.52,24.083 4.312,13.93 71.672-22.632-3.48-13.338-72.504,22.04zm154.32-7.455-17.397,13.207-20.094-14.273-26.255,85.306-26.763,18.499 36.211-116.33-58.187-42.545 30.068-3.039 82.417,59.177z" transform="matrix(.51526 0 0 .51526 204.68 77.013)"/></g></svg>