<svg xmlns="http://www.w3.org/2000/svg" viewBox="0 0 512 512"><defs><clipPath id="clipPath3830" clipPathUnits="userSpaceOnUse"><path fill-opacity=".67" d="m125.07,.0001h606.3v606.2999h-606.3z"/></clipPath></defs><g fill-rule="evenodd" stroke-width="1.25"><g fill="#0062da"><path d="m.2934-3764.3h49.872v8.55h-49.872z"/><path d="m0-2.8005e+06h7.4728e+06v66030h-7.4728e+06z"/></g><g clip-path="url(#clipPath3830)" transform="matrix(.84447 0 0 .84447 -105.62 -.00008)"><path fill="#fff" d="M 0,385.64 H295.28 V606.29 H0 z"/><g fill="#0062da"><path d="m295.08,.0001h177.56v606.2899h-177.56z"/><path d="m0,220.47h1063v165.35h-1063z"/></g><g fill="#fff"><path d="m0,.0037h295.28v220.6503h-295.28z"/><path d="m472.44,385.64h590.55v220.65h-590.55z"/><path d="m472.44,.0019h590.55v220.6501h-590.55z"/><path d="M 0,385.64 H295.28 V606.29 H0 z"/></g><path fill="#0062da" d="m295.08,.0001h177.56v606.2899h-177.56z"/><g fill="#fff"><path d="m0,.0037h295.28v220.6503h-295.28z"/><path d="m472.44,385.64h590.55v220.65h-590.55z"/><path d="m472.44,.0019h590.55v220.6501h-590.55z"/></g></g></g></svg>