<svg xmlns="http://www.w3.org/2000/svg" viewBox="0 0 512 512"><defs><clipPath id="clipPath3257" clipPathUnits="userSpaceOnUse"><path fill-opacity=".67" d="m244.16-0h496.06v496.06h-496.06z"/></clipPath></defs><g fill-rule="evenodd" stroke-width="1.25" clip-path="url(#clipPath3257)" transform="matrix(1.0321 0 0 1.0321 -252 .00001)"><path fill="#6797d6" d="m0-0h992.13v496.06h-992.13z"/><g fill="#fff"><path d="m555.61,324.28 70.83-.05-57.34,41.58 21.94,67.35-57.27-41.68-57.27,41.67 21.95-67.34-57.33-41.6 70.83,.07 21.83-67.38z" transform="matrix(.54883 0 0 .51651 202.91 -83.045)"/><path d="m555.61,324.28 70.83-.05-57.34,41.58 21.94,67.35-57.27-41.68-57.27,41.67 21.95-67.34-57.33-41.6 70.83,.07 21.83-67.38z" transform="matrix(.54883 0 0 -.51651 202.91 580.11)"/><path d="m555.61,324.28 70.83-.05-57.34,41.58 21.94,67.35-57.27-41.68-57.27,41.67 21.95-67.34-57.33-41.6 70.83,.07 21.83-67.38z" transform="matrix(.52485 -.16046 .15101 .49394 5.4986 159.08)"/><path d="m555.61,324.28 70.83-.05-57.34,41.58 21.94,67.35-57.27-41.68-57.27,41.67 21.95-67.34-57.33-41.6 70.83,.07 21.83-67.38z" transform="matrix(-.52485 -.16046 -.15101 .49394 986.13 159.08)"/></g></g></svg>