<svg xmlns="http://www.w3.org/2000/svg" viewBox="0 0 512 512" xmlns:xlink="http://www.w3.org/1999/xlink"><defs><path id="0" d="m555.61 324.28l70.83-.05-57.34 41.58 21.94 67.35-57.27-41.68-57.27 41.67 21.95-67.34-57.33-41.6 70.83.07 21.83-67.38z"/><clipPath id="1"><path d="m244.16 0h496.06v496.06h-496.06z"/></clipPath></defs><g fill-rule="evenodd" stroke-width="1.25" clip-path="url(#1)" transform="matrix(1.0321 0 0 1.0321-252 0)"><path fill="#6797d6" d="m0 0h992.13v496.06h-992.13z"/><g fill="#fff"><use transform="matrix(.54883 0 0 .51651 202.91-83.05)" xlink:href="#0"/><use transform="matrix(.54883 0 0-.51651 202.91 580.11)" xlink:href="#0"/><use transform="matrix(.52485-.16046.15101.49394 5.499 159.08)" xlink:href="#0"/><use transform="matrix(-.52485-.16046-.15101.49394 986.13 159.08)" xlink:href="#0"/></g></g></svg>