<svg xmlns="http://www.w3.org/2000/svg" viewBox="0 0 512 512" xmlns:xlink="http://www.w3.org/1999/xlink"><defs><path id="0" d="m256.44 57.23l-17.17-12.243-17.19 12.213 6.34-20.11-16.92-12.573 21.08-.185 6.73-19.983 6.69 19.995 21.08.222-16.95 12.543z" stroke-width="1.25" fill="#ffce00"/></defs><g fill-rule="evenodd"><g><g stroke-width="1.25"><path fill="#f00" d="m0 0h512v512h-512z"/><path fill="#009a00" d="m63.65 88.41h384.72v335.15h-384.72z"/><g fill="#ffca00"><path d="m63.65 423.56h384.72l-192.36-167.56-192.36 167.56"/><path d="m63.65 88.48l192.36 167.56 192.36-167.56h-384.72"/></g></g><use transform="matrix(1.0211 0 0 1.0211-164.38 6.429)" xlink:href="#0"/><use transform="matrix(1.0211 0 0 1.0211 11.382 6.951)" xlink:href="#0"/><use transform="matrix(1.0211 0 0 1.0211 187.26 6.668)" xlink:href="#0"/><use transform="matrix(1.0211 0 0 1.0211-164.38 440.73)" xlink:href="#0"/><use transform="matrix(1.0211 0 0 1.0211 11.382 441.25)" xlink:href="#0"/><use transform="matrix(1.0211 0 0 1.0211 187.26 440.97)" xlink:href="#0"/><path fill="#f00" d="m455.81 246.95a45.689 45.689 0 1 1 -91.379 0 45.689 45.689 0 1 1 91.379 0" transform="matrix(1.0211 0 0 1.0211-163.27 6.429)"/><use transform="matrix(1.2128 0 0 1.2128-34.434 217.89)" xlink:href="#0"/></g><g transform="translate(92-8)"><path fill="#f00" d="m-2.789 298.95s2.367-19.607 1.015-32.791c-1.353-13.184-35.16-16.903-35.16-16.903l-.338 30.763s27.05 21.974 34.481 18.931"/><path fill="#ffce00" d="m-52.15 221.2s3.258 17.276-1.352 51.723c-2.463 18.703 17.917 31.439 42.933 37.19-5.071-8.789-18.592-22.988-15.212-49.02 18.255 2.366 35.495 37.862 35.495 37.862s13.658-50.33-13.86-58.15c-26.744-7.514-48-19.269-48-19.607z"/></g></g></svg>