<svg xmlns="http://www.w3.org/2000/svg" viewBox="0 0 512 512"><g fill-rule="evenodd"><g><path fill="#f00" stroke-width="1.25" d="m0-0h512v512h-512z"/><path fill="#009a00" stroke-width="1.25" d="m63.653,88.407h384.72v335.15h-384.72z"/><path fill="#ffca00" stroke-width="1.25" d="m63.653,423.56h384.72l-192.36-167.56-192.36,167.56z"/><path fill="#ffca00" stroke-width="1.25" d="m63.653,88.485 192.36,167.56 192.36-167.56h-384.72z"/><path fill="#ffce00" stroke-width="1.25" d="m256.44,57.228-17.17-12.243-17.19,12.213 6.34-20.109-16.92-12.573 21.08-.185 6.73-19.9831 6.69,19.9951 21.08,.222-16.95,12.543z" transform="matrix(1.0211 0 0 1.0211 -164.38 6.429)"/><path fill="#ffce00" stroke-width="1.25" d="m256.44,57.228-17.17-12.243-17.19,12.213 6.34-20.109-16.92-12.573 21.08-.185 6.73-19.9831 6.69,19.9951 21.08,.222-16.95,12.543z" transform="matrix(1.0211 0 0 1.0211 11.382 6.9506)"/><path fill="#ffce00" stroke-width="1.25" d="m256.44,57.228-17.17-12.243-17.19,12.213 6.34-20.109-16.92-12.573 21.08-.185 6.73-19.9831 6.69,19.9951 21.08,.222-16.95,12.543z" transform="matrix(1.0211 0 0 1.0211 187.26 6.6678)"/><path fill="#ffce00" stroke-width="1.25" d="m256.44,57.228-17.17-12.243-17.19,12.213 6.34-20.109-16.92-12.573 21.08-.185 6.73-19.9831 6.69,19.9951 21.08,.222-16.95,12.543z" transform="matrix(1.0211 0 0 1.0211 -164.38 440.73)"/><path fill="#ffce00" stroke-width="1.25" d="m256.44,57.228-17.17-12.243-17.19,12.213 6.34-20.109-16.92-12.573 21.08-.185 6.73-19.9831 6.69,19.9951 21.08,.222-16.95,12.543z" transform="matrix(1.0211 0 0 1.0211 11.382 441.25)"/><path fill="#ffce00" stroke-width="1.25" d="m256.44,57.228-17.17-12.243-17.19,12.213 6.34-20.109-16.92-12.573 21.08-.185 6.73-19.9831 6.69,19.9951 21.08,.222-16.95,12.543z" transform="matrix(1.0211 0 0 1.0211 187.26 440.97)"/><path fill="#f00" d="m455.81,246.95a45.689,45.689 0 1,1 -91.379,0 45.689,45.689 0 1,1 91.379,0z" transform="matrix(1.0211 0 0 1.0211 -163.27 6.429)"/><path fill="#ffce00" stroke-width="1.25" d="m256.44,57.228-17.17-12.243-17.19,12.213 6.34-20.109-16.92-12.573 21.08-.185 6.73-19.9831 6.69,19.9951 21.08,.222-16.95,12.543z" transform="matrix(1.2128 0 0 1.2128 -34.434 217.89)"/></g><g transform="translate(92 -8)"><path fill="#f00" d="m-2.7888,298.95s2.3668-19.607 1.0149-32.791c-1.3529-13.184-35.158-16.903-35.158-16.903l-.338,30.763s27.045,21.974 34.481,18.931z"/><path fill="#ffce00" d="m-52.145,221.2s3.2582,17.276-1.3519,51.723c-2.4628,18.703 17.917,31.439 42.933,37.186-5.0706-8.7893-18.592-22.988-15.212-49.018 18.255,2.3658 35.495,37.862 35.495,37.862s13.658-50.331-13.86-58.145c-26.744-7.514-48.004-19.269-48.004-19.607z"/></g></g></svg>