<svg width="512" xmlns="http://www.w3.org/2000/svg" height="512" viewBox="0 0 170.66667 170.66667" xmlns:xlink="http://www.w3.org/1999/xlink"><defs><g id="0"><path id="2" d="m-55 74a55 55 0 0 1 110 0v-148a55 55 0 0 1 -110 0z" clip-path="url(#1)"/><use width="300" height="200" xlink:href="#2" transform="matrix(0 1-1 0 0 0)"/></g><clipPath id="1"><path d="m-109,104a104,104 0 0,0 0-208h218a104,104 0 0,0 0,208z"/></clipPath></defs><path fill="#fff" d="m0 0h170.67v170.67h-170.67z"/><g transform="matrix(.53484 0 0 .53484 5.108 47.576)"><path fill="#fff" d="m0-29.333h300v200h-300z"/><g fill="#f00"><path d="m130-29.333v80h-130v40h130v80h40v-80h130v-40h-130v-80h-40"/><use width="300" height="200" xlink:href="#0" transform="translate(64.45 10.117)"/><use width="300" height="200" xlink:href="#0" transform="translate(235.55 131.22)"/><use width="300" height="200" xlink:href="#0" transform="translate(235.55 10.117)"/><use width="300" height="200" xlink:href="#0" transform="translate(64.45 131.22)"/></g></g></svg>