<svg width="512" xmlns="http://www.w3.org/2000/svg" height="512" viewBox="0 0 170.66667 170.66667" xmlns:xlink="http://www.w3.org/1999/xlink"><defs><g id="smallcross"><clipPath id="vclip"><path d="m-109,104a104,104 0 0,0 0-208h218a104,104 0 0,0 0,208z"/></clipPath><path id="varm" d="m-55,74a55,55 0 0,1 110,0v-148a55,55 0 0,1 -110,0z" clip-path="url(#vclip)"/><use width="300" height="200" xlink:href="#varm" transform="rotate(90)"/></g></defs><path fill="#fff" d="m0,0h170.67v170.67h-170.67z"/><g transform="matrix(.53484 0 0 .53484 5.1077 47.576)"><path fill="#fff" d="m0-29.333h300v200h-300z"/><path fill="#f00" d="m130-29.333v80h-130v40h130v80h40v-80h130v-40h-130v-80h-40z"/><use width="300" fill="#f00" height="200" xlink:href="#smallcross" transform="translate(64.45 10.117)"/><use width="300" fill="#f00" height="200" xlink:href="#smallcross" transform="translate(235.55 131.22)"/><use width="300" fill="#f00" height="200" xlink:href="#smallcross" transform="translate(235.55 10.117)"/><use width="300" fill="#f00" height="200" xlink:href="#smallcross" transform="translate(64.45 131.22)"/></g></svg>