<svg xmlns="http://www.w3.org/2000/svg" viewBox="0 0 512 512" xmlns:xlink="http://www.w3.org/1999/xlink"><defs><clipPath id="0"><path d="m0 0h512v512h-512z"/></clipPath><linearGradient id="5"><stop stop-color="#d5dfff"/><stop offset="1" stop-color="#fff"/></linearGradient><linearGradient id="6"><stop stop-color="#474747"/><stop offset="1" stop-color="#f50"/></linearGradient><linearGradient gradientTransform="matrix(1.2315 0 0 .79928 40.513.006)" id="7" y1="316.38" y2="337.23" x1="125.91" gradientUnits="userSpaceOnUse" x2="126.02"><stop stop-color="#b50000"/><stop offset="1" stop-color="#ffc500"/></linearGradient><linearGradient gradientTransform="matrix(.55904 0 0 1.7607 40.513.006)" id="4" xlink:href="#5" y1="149.38" y2="147.35" x1="407.87" gradientUnits="userSpaceOnUse" x2="456.4"/><linearGradient gradientTransform="matrix(1.5101 0 0 .65184 40.513.006)" id="8" xlink:href="#6" y1="218.47" y2="173.45" x1="109.34" gradientUnits="userSpaceOnUse" x2="110.94"/><linearGradient gradientTransform="matrix(.74087 0 0 1.3286 40.513.006)" id="1" xlink:href="#6" x1="215.83" gradientUnits="userSpaceOnUse" x2="228.97"/><linearGradient gradientTransform="matrix(.88634 0 0 1.1105 40.513.006)" id="3" xlink:href="#5" y1="245.98" y2="226.38" x1="264.72" gradientUnits="userSpaceOnUse" x2="255.03"/><linearGradient gradientTransform="matrix(2.5627 0 0 .38409 40.513.006)" id="2" xlink:href="#5" y1="1040.4" y2="1003.7" x1="117.6" gradientUnits="userSpaceOnUse" x2="78.22"/></defs><g clip-path="url(#0)"><g stroke-width="1.25" transform="scale(1.0321)"><path fill="#006" d="m0 0h992.13v496.06h-992.13z"/><g transform="scale(8.2677)"><g fill="#fff"><path d="m0 0v3.354l53.29 26.646h6.708v-3.354l-53.29-26.646h-6.708m60 0v3.354l-53.29 26.646h-6.708v-3.354l53.29-26.646h6.708"/><path d="m25 0v30h10v-30h-10m-25 10v10h60v-10h-60"/></g><g fill="#c00"><path d="m0 12v6h60v-6h-60m27-12v30h6v-30h-6"/><path d="m0 30l20-10h4.472l-20 10h-4.472m0-30l20 10h-4.472l-15.528-7.764v-2.236m35.528 10l20-10h4.472l-20 10h-4.472m24.472 20l-20-10h4.472l15.528 7.764v2.236"/></g></g></g><g transform="matrix(.86059 0 0 .86059 207.27 41.701)"><g fill-rule="evenodd" stroke="#000"><g stroke-width="1.25"><path fill="#6a4c2d" d="m146.97 393.04s-3.346 8.842-5.257 8.842c-1.912 0-8.842-3.824-8.842-3.824s-5.02 8.125-7.647 8.603c-2.629.478-9.559-1.195-9.559-1.195s-6.691 0-6.93-.956c-.239-.956.239-2.868.239-2.868s-9.559 7.647-11.71 7.169c-2.151-.478-9.32-9.559-9.32-9.559l-1.198 4.79-13.621-.48-11.949-7.65s-6.691 10.993-6.93 10.754c-.239-.239-11.71 2.629-11.71 2.629l-.717-2.151-7.647-4.541s5.974-8.364 5.974-8.603c0-.239-2.868-1.195-2.868-1.195l-4.301 3.584-8.842 5.735-8.842-4.063 3.824-7.169.478-5.257 6.93-10.515 84.83-82.44 41.82 77.19-6.213 23.18z"/><path fill="#fff" d="m207.24 398.04l22.08-.793-9.399-4.643 84.14-3.171-11.891-4.53-10.532-14.269-43.599-3.284s-3.284-2.491-8.607-1.246c-.226-3.397-4.303-7.814-4.303-7.814l-26.839-2.038-16.76 11.438 11.324 28.99 14.382 1.359z"/><path fill="url(#8)" d="m121.32 150.76l2.224-7.561s3.892-6.561 3.892-9.452c0-2.891 2.891-6.338 2.891-6.338s8.896-2.558 10.786 2.891c9.563-14.456 20.794-.667 20.794-.667l3.114-3.67 6.338-7.784s9.01 8.451 9.118 9.897 1.557.445 1.557.445l9.786-.778s4.644 3.636 3.67 10.564c3.449 2.034 6.561 14.01 6.561 14.01l-80.73-1.557z"/><path fill="#656263" d="m207.25 240.72c1.686-1.037 7-2.724 6.355-10.505-.649-7.782-7.393-8.69-11.154-8.43-3.761.259-7.133 3.502-7.133 3.502l-12.451-7.911s6.225-39.3 12.84-41.762c6.282-4.527 7.393-6.485 7.393-7.522s-2.334-3.631-2.334-3.631l-40.595-4.799-38.39 4.539s-2.983 4.539-2.594 6.355.519 3.761 7.393 9.08c7.606 5.85 12.84 39.43 12.84 39.43s-10.765 5.318-11.413 4.669c-.648-.649-3.891-1.297-5.577-1.038-1.686.259-7.263 3.113-7.263 10.505 0 7.393 5.577 11.673 5.577 11.673s36.704-4.28 42.15 5.836c5.317-12.191 40.21-7.911 44.36-9.987z"/><path stroke-opacity=".979" stroke-linejoin="round" d="m246.79 199.87s.407-4.266 3.453-6.297c3.047-2.031 23.359-3.047 28.23 0s6.703 18.08 6.703 18.08 3.047 5.281 3.25 9.14.609 6.5.609 6.5 16.25 21.13 16.453 40.22c1.829 13 1.422 47.733-3.656 60.936-.203 16.452-7.109 27.22-7.109 27.22s1.625 2.843 1.422 5.89c-.204 3.047-1.829 5.891-1.829 5.891l23.765 11.781-8.734-3.25s8.938 7.515 8.734 7.312c-.203-.203-9.952-4.672-9.952-4.672s6.093 6.094 5.89 5.891c-.203-.204-14.421-6.5-14.421-6.5s6.702 6.297 6.296 6.093c-.406-.203-10.765-5.078-10.765-5.078s6.5 6.906 6.297 6.5-9.344-4.062-9.344-4.062l.406 3.453s-7.312-.406-7.312-5.891c-3.656-2.031-6.094-4.875-6.094-4.875l-16.858-2.843-19.09-57.08 4.469-96.48 1.219-4.875-2.032-12.999z"/></g><path fill="#fb0" stroke-width="1.242" d="m234.03 508.2s-9.779-20.579-14.656-20.867c-4.4-8.387 15.291-76.962 53.38-80.87 20.941 1.725 1.722 24.14-12.05 17.243 1.72 6.04 8.605 14.657 8.605 14.657s-27.25 11.783-35.28 69.838z"/></g><g stroke-width="1.25"><path fill="#fb0" stroke="#000" fill-rule="evenodd" d="m102.91 511.2s8.094-23.416 13.01-23.705c4.914-.289-13.01-78.05-52.03-78.63-21.1 1.735-1.734 24.283 12.142 17.345-1.734 6.071-8.672 14.743-8.672 14.743s27.463 11.853 35.557 70.25z"/><g><path fill="#00713d" stroke="#000" fill-rule="evenodd" d="m138.71 364.93c-.094-.188-9.686 3.01-3.479 13.448.47-4.04 4.796-6.489 4.796-6.489s-6.583 7.805.376 14.388c.846-6.206 4.796-8.181 4.796-8.181s-4.89 14.388.094 17.303c.564-5.737 4.232-8.276 4.232-8.276s-4.42 12.884-.47 15.799c.47-4.89 3.761-7.05 3.761-7.05s-1.975 13.354 3.198 14.294c.094-4.701 3.855-9.31 3.855-9.31s-1.693 10.909 6.395 11.379c.094-4.138 1.599-8.84 1.599-8.84s3.667 11.567 9.03 9.686c-.093-3.385.094-9.78 0-9.78s3.386 11 9.78 8.934c-.94-3.103.377-6.771.377-6.771s3.385 6.865 9.498 4.608c1.034-2.069-.283-6.112-.283-6.112s8.934 9.216 11.661 3.667c2.728-5.548-7.147-7.429-7.147-7.429h6.677s-2.163-5.642-11.191-6.865c3.104-1.41 6.301-.376 6.301-.376s-1.881-7.05-11.1-7.805c3.574-1.223 7.524-.377 7.524-.377s-1.223-6.676-11.379-8.557c1.599-1.787 5.924-1.223 5.924-1.223s-4.04-6.3-8.651-5.924-46.27-4.232-46.17-4.138z"/><g fill="none" stroke="#3ec26d" stroke-linecap="round"><path d="m179.8 398.88s3.667 1.787 3.573 3.386"/><path d="m181.97 395.97s4.702 3.291 4.608 5.736"/><path d="m186.1 394.27s3.762 2.351 3.95 6.02"/><path d="m192.4 395.78s1.881 4.04 1.222 4.796"/><path d="m196.17 397.94c.282 3.197-.283 3.479-.283 3.479"/><path d="m149.8 377.72s4.42 2.821 4.04 6.771"/><path d="m149.52 381.11s2.069 1.974 1.599 3.291"/><path d="m154.98 377.82s2.915 4.04 1.975 6.865"/><path d="m159.96 380.45s1.317 2.539.094 3.95"/><path d="m162.31 381.67s1.599 2.539.188 3.385"/><path d="m160.53 390.04s4.137.941 4.702 4.04"/><path d="m162.97 387.22s4.325.282 4.796 4.89"/><path d="m168.71 385.62c.094 0 2.915 4.984 2.445 6.582"/><path d="m174.26 386.09s1.129 4.796.282 6.3"/><path d="m177.83 387.97c0 .094.094 5.548.094 5.548"/><path d="m172.38 380.45s2.727 1.035 2.539 3.668"/><path d="m174.91 378s3.479 1.975 3.103 5.737"/><path d="m178.96 376.41s3.01 3.573 1.881 7.523"/><path d="m184.22 377.25s-1.129 4.42-.659 6.207"/><path d="m187.42 380.26s-1.975 1.505-.941 3.386"/><path d="m170.31 397.47s.658 3.385 0 3.949"/><path d="m165.98 395.5s2.163 3.761 1.41 5.642"/><path d="m161.37 395.31s2.445 2.821 2.351 5.078"/><path d="m157.61 395.87s2.257 2.163 2.069 3.385"/><path d="m155.64 399.16s2.163 2.257 2.069 2.727"/></g></g><g fill-rule="evenodd" stroke="#000"><path fill="#fff" d="m108.86 244.78c10.368-.185 20.735-.37 31.1-.555 0 0 20.551 0 22.773 6.665 3.887-8.887 21.661-8.331 21.661-8.331 10.738-.37 21.476-.741 32.21-1.111.185 25.92.371 51.839.556 77.76-6.295 30.18-28.14 51.47-52.21 60.54-28.696-9.258-46.841-33.511-52.765-61.1-1.111-24.624-2.221-49.25-3.332-73.871z"/><path fill="#006b00" d="m119.94 244.49l45.31 120.74 40.93-123.37c-12.696.819-39.939-1.998-43.32 9.587-5.236-10.369-33.895-6.189-42.914-6.956z"/></g></g><g fill-rule="evenodd"><path fill="#ffc900" stroke="#006b00" stroke-linecap="round" stroke-width=".689" d="m150.78 309.86c1.742.912 1.695-32.768 3.983-33.813.654-2.789.982-4.01 1.799-6.972-1.962-3.487-10.79-3.312-14.06-.349 1.471 4.706 2.125 6.275 2.125 6.275 4.415 7.146 3.538 35.619 6.153 34.859z"/><g fill="#cdad56" stroke="#000" stroke-linejoin="round"><path stroke-width="1.25" d="m138.64 49.548s3.201-3.637 3.346-4.51c.146-.873 14.549-1.455 23.13-17.458 4.801-8.438 0-3.491 0-3.491l-.291-4.073s5.965-5.674 3.783-8.729c-2.182-3.055-1.455 3.928-4.947 3.783-3.491-.146-1.6-7.565-1.6-7.565s-.29-.873-1.309-1.309c-1.455.146-1.019 2.764-2.328 3.055-1.309.291-2.473-6.11-2.473-6.11s-2.182-2.91-4.074 6.256c1.019 9.747 7.274 7.856 7.274 14.257 0 6.401-5.528 11.348-7.128 11.493-1.601.145-1.019-5.383-1.019-5.383s-.872-2.619-1.454-2.619 3.2-.582 2.619-7.856c-1.31-8.729-2.328 2.037-4.656 1.6s-.582-8 .291-8.874-1.019-4.51-6.111 4.801c-.436 4.51-1.018-1.164-2.036-.873-1.746 3.637-1.455 6.256 1.018 9.602 3.637 3.346 5.965 6.692 5.819 8.438-.145 1.746-2.036 5.674-4.655 5.674s.145-4.801 0-6.401c-.146-1.6-4.51-7.419-4.51-7.419s-3.055-4.947-2.764-5.092c.291-.145-.291-.873-1.746 4.219s-3.201-3.346-3.201-3.346-2.036 6.256 2.328 10.04c-3.346-.436-3.637.873-3.637.873 0 1.746 4.51 2.473 5.092 5.528s-4.655 4.801-4.655 4.801 2.182 3.055 8.292-2.91c.146 3.782-2.328 6.401-2.328 6.401 2.037.921 3.637.824 3.928 3.201z"/><path stroke-width="1.099" d="m118.68 49.548s-2.718-4.04-2.842-4.831c-.123-.794-13.375 1-19.646-15.16-4.077-7.678 0-3.177 0-3.177l.247-3.707s-4.339-5.308-2.485-8.088c1.853-2.78 1.09 3.574 3.474 3.587 2.965-.132 1.359-6.884 1.359-6.884s.246-.794 1.112-1.191c1.235.132 1.738 4.115 2.851 4.38 1.111.265 3.408-4.687 4.136-5.706 1.018-.146.98-4.102 2.587 4.238-.865 8.869-8.214 7.149-8.214 12.973 0 5.825 4.695 10.326 6.05 10.458 1.36.132.865-4.898.865-4.898s.741-2.383 1.235-2.383c.495 0-4.317.925-3.824-5.694 1.113-6.197 3.578.398 5.554.0001 1.978-.397-.231-6.554.335-7.493.132-.94 3.047-4.977 4.172 3.932.371 4.104 2.61-3.532 3.475-3.268 1.483 3.309-.656 7.729-2.756 10.774-3.088 3.045-4.484 6.381-4.36 7.969.123 1.589.856 3.563 3.081 3.563 2.224 0 .749-2.768.873-4.224.123-1.456 3.83-6.169 3.83-6.169.727-1.164.122-3.337.893-4.342 1.207.013 1.702-1.667 2.938 2.966 1.235 4.633 2.717-3.045 2.717-3.045s1.73 5.692-1.976 9.134c2.842-.397 3.088.794 3.088.794 0 1.589-1.356 2.25-1.851 5.03-.495 2.78 1.48 4.369 1.48 4.369s-1.853 2.78-7.04-2.648c-.124 3.442 1.977 5.825 1.977 5.825-1.73.839-3.088.75-3.336 2.912z"/></g><g fill="#ffc900"><g stroke-width="1.25"><path d="m198.62 262.5c-2.71-2.459-3.03-.311-4.365-.861-.653-.274-1.165-.886-1.733-1.442-.494-.507-1.081-.717-1.734-.992-.246.728-.493 1.456-.739 2.185-.247.728.686 1.934.665 3.03-.185 1.625-.847 2.969-2.885 3.526.581-1.152.911-1.208.734-2.613-.088-.702-2.053-1.948-1.811-2.613.361-1.068.975-2.304.521-3.371-.838.571-1.929.272-2.767.62-.702.314-.75 1.621-1.728 2.165-1 .469-3.213.237-5.058-.811 1.128-.855 2.06-.278 3.188-1.134.564-.428.538-2.26 1.102-2.688s1.915-.884 2.479-1.312c-.507-.578-.48-1.493-.987-2.07-.508-.578-2.757-.453-3.265-1.031-1.014-1.155-.821-2.676-1.836-3.831 2.626.942 2.245 2.222 2.904 2.125 1.244-.596 2.486-.715 3.138-.441.653.275 1.895 1.898 2.548 2.173.246-.728.605-1.653.852-2.381.247-.729-1.108-1.991-.861-2.719.493-1.456 1.717-2.744 2.21-4.201.177 1.405.41 2.586.587 3.991.088.702 1.469 1.067 1.558 1.77.088.702-.722 2.332-.633 3.034.754-.15 1.845-.048 2.598-.199.754-.15 1.255-1.902 2.01-2.052 1.508-.301 2.594-.209 4.13.08-1.128 1.052-2 .981-2.71 1.949-.564.428.22 1.839-1.411 2.829-.613.355-2.224-.072-2.788.356.507.578 1.015 1.155 1.522 1.733s2.785.846 3.292 1.424c1.014 1.156 1.552 2.536 1.274 3.775"/><path d="m128.95 263.69c2.71-2.46 3.03-.312 4.365-.861.652-.275 1.165-.887 1.733-1.442.494-.508 1.08-.718 1.733-.993.247.729.493 1.457.74 2.185s-.687 1.934-.665 3.03c.184 1.625.846 2.969 2.884 3.527-.581-1.152-.91-1.209-.733-2.613.088-.703 2.052-1.948 1.81-2.614-.36-1.067-.974-2.303-.52-3.371.838.572 1.929.273 2.767.62.702.314.75 1.621 1.728 2.165 1 .47 3.213.237 5.058-.81-1.129-.856-2.061-.279-3.188-1.135-.564-.428-.538-2.26-1.102-2.688-.565-.428-1.916-.884-2.48-1.312.508-.577.481-1.492.988-2.07.508-.577 2.757-.453 3.264-1.031 1.015-1.155.822-2.676 1.836-3.831-2.625.943-2.244 2.222-2.904 2.125-1.243-.596-2.485-.715-3.138-.44-.652.274-1.894 1.898-2.547 2.172-.247-.728-.606-1.653-.852-2.381-.247-.728 1.108-1.99.861-2.718-.493-1.457-1.717-2.745-2.21-4.201-.177 1.405-.41 2.585-.587 3.99-.089.702-1.47 1.068-1.559 1.77-.088.703.722 2.332.634 3.035-.754-.151-1.845-.049-2.599-.199-.753-.151-1.254-1.902-2.01-2.053-1.508-.301-2.593-.209-4.13.08 1.128 1.053 2 .981 2.711 1.949.564.428-.221 1.839 1.411 2.829.612.355 2.224-.071 2.788.357-.508.577-1.015 1.155-1.522 1.733-.507.577-2.785.846-3.292 1.424-1.015 1.155-1.552 2.535-1.274 3.775"/></g><path stroke="#006b00" stroke-linejoin="round" stroke-linecap="round" stroke-width=".689" d="m196.19 270.28c-2.453 1.917-18.311 5.925-18.474 19.695-.163 13.769 2.78 16.907-.163 17.256-5.723 0-6.54-15.338-6.376-22.14.162-6.798.326-5.752.326-5.752s3.923 1.045 3.597 4.358c-.327 3.311 3.923-8.192 2.453-11.33 2.615 2.615 6.05 1.569 6.05 1.394 0-.174-1.961-2.265-2.779-3.834-.817-1.569 2.943.871 2.943.871s.163-2.614-3.107-2.44c-4.25 0 .655-1.394.655-1.394s2.452 2.265 4.087-.175c-1.799-1.916-4.414-2.963-4.414-2.963s-2.289-4.357-5.395-5.228c-3.597-.872-3.107 1.568-7.194 1.22-.817 1.568-.817 1.743.818 2.265-2.779 1.918-1.308 5.752-1.308 5.752s4.414-1.917 4.25 1.22c-.163 3.138-2.616 2.615-4.25.698-1.471-.872-1.962.871-1.962.871l2.289 2.44s-4.415-.174-5.559 2.789c2.453-.174 3.761.523 3.761.523s-5.069 2.266-5.56 3.486c-.489 1.22-.653-1.395-.817-1.395-.163 0-4.904-1.742-4.904-1.742l-1.637 7.537s3.272 3.269 5.07 2.223c1.799-1.046 5.068-4.183 7.03-3.312-5.722 4.358-11.444 10.632-14.55 11.504-.818-.697-3.597-3.486-4.741-2.092-1.145 1.395-.328 3.138 1.144 2.963 1.471-.174-4.741 1.395-3.433 4.01 1.308 2.615 1.144 2.44 2.289 1.744 1.144-.698-.981-.872 3.269-2.092 4.251-1.22 4.087-2.441 4.087-2.441s-.817 1.918-3.105 2.441c-2.289.523-4.088.523-3.597 1.22.49.697 1.47 1.917 1.144 2.615-.327.696 4.741-3.661 6.05-.175 3.434-.174 5.722-4.357 4.087-6.797.164 2.614 1.798 3.485.817 4.705s7.684-4.01 3.433-7.146c1.146 2.615 1.308 4.706 1.308 4.706s1.962-.174 2.453-.871c.49-.698-.981 1.917-.327 2.44.653.523 3.76 3.486 2.452 5.578-.817-1.22-.981-3.138-1.961-2.964-.982.175-5.069 3.138-7.521 3.312s2.943 9.06 2.943 9.06-3.761-.523-4.25-.175c-.491.349-2.943-3.137-3.434-1.045-.818 2.614.817 1.568.817 1.568s-2.125-1.046-3.269.175c-1.144 1.22-2.289 2.44-1.472 2.962.818.523 4.415.523 4.905.349s-4.087.349-4.414.872c-.328.522-.981 2.44 0 3.137s3.433-.349 3.596-.871c.164-.524.328 1.917.328 1.917s4.25.348 4.25-4.01.328 3.137.328 3.137 4.25.697 4.413-3.66.49 2.963.49 2.963 2.78-.872 2.78-1.568c0-.698-.164 8.714-2.125 11.329-3.107-2.092-5.069 1.394-5.069 1.394s.164 5.06-.163 6.275c-.326 1.22 2.125-.698 2.289-1.22.163-.523 3.106-1.918 3.27-2.266.163-.349.98-2.092.98-2.092s-.654 2.44-1.798 2.789-2.289 1.569-1.799 2.615c.491 1.045 2.29 1.743 2.943 2.788.654 1.046 2.943-6.1 2.943-6.1l.163 1.568s2.943-.696 3.27-2.091c.327-1.394-3.106-2.614-.327-4.881 2.779-2.265 0 2.092 0 2.092s.981 3.312 1.635 3.312 2.288-6.275.654-7.844c-1.635-1.568 2.452 1.918 2.452 1.918s2.29-6.449-.163-7.321c-2.452-.871-3.597-1.22-3.597-1.22s1.308-1.743.654-1.917 3.433 3.835 4.087 2.789 1.635-4.184-3.105-5.926c-4.742-1.743-.164-6.624-.164-6.624s2.943 3.486 5.068 1.568c2.125-1.916-.164-1.916-.164-1.916s6.05-3.834 6.212-5.752c-1.144-.175-3.106.174-3.106.174s3.434-2.265 2.617-5.926c-1.309 1.917-3.107 1.918-3.107 1.918s2.943-2.964 2.452-5.752c-1.798 1.394-1.635 2.439-2.779 2.091s-3.106-11.329 1.471-12.03c4.578-.696 2.125 5.404 2.289 5.404.163 0 6.867-2.789 0-7.321 1.635-.523 5.068 2.615 5.068 2.615s-1.471-7.67-8.828-2.963c1.799-1.917 2.943-3.138 4.414-2.789 1.472.349 6.704-.174 6.704-1.743-1.308-1.046-4.088.523-5.56 0-1.471-.523 10.463-1.395 9.483-7.32z"/></g></g><g stroke-width="1.25" transform="matrix(.53397 0 0 .56928-112.64 207.32)"><g stroke="#006b00" stroke-linecap="round"><g fill="none"><path d="m481.3 118.54s12.247-6.43 18.37 1.531"/><path d="m504.57 132.32c-.306 0-4.286 3.98-5.205 3.98"/><path d="m512.84 145.18s11.328.918 18.676-10.41"/><path d="m525.08 141.81s.919 6.123 2.756 6.123-3.062 1.531-4.899.306c2.143 2.756 3.368 7.655 0 9.492"/></g><path fill="#e80000" fill-rule="evenodd" d="m519.26 218.97s-3.98 4.286-8.879 4.592"/><g fill="none"><path d="m523.86 199.37s-2.45-12.247-.919-15.309c.919-3.979 4.899-5.511 7.961-10.716"/><path d="m522.63 190.49s-3.062 7.348-16.533 4.899"/><path d="m526.31 172.12s.919 9.797-11.328 6.123"/><path d="m511.3 128.04s-4.899 4.287-3.062 10.1"/></g></g><g fill-rule="evenodd"><path fill="#006b00" stroke-linecap="round" d="m529.67 117.32s6.43-2.449 7.654-3.674c1.225-1.224 3.368-3.674 3.98-5.511.613-1.837-4.285-4.593-1.837-8.573 1.531-1.837 3.674-2.143 7.348 0 3.675 2.144-3.367-6.736-7.04-7.04s-6.124 2.449-7.04 1.837c-.919-.612.306 2.449-1.225 2.449s3.062 2.449 2.756 3.98c-.307 1.531 4.898 6.736 4.592 7.961-.306 1.224-7.654 8.266-9.185 8.572"/><g stroke-linejoin="round"><path fill="#ffc900" stroke="#ffc900" stroke-linecap="round" d="m534.27 97.11c2.794-.636 3.243.07 2.755 2.449-1.309-.66-1.79-1.217-2.755-2.449z"/><g stroke="#006b00"><g fill="#e80000"><path d="m514.71 233.52s-1.033 6.409 1.489 6.946c-.124-2.48.538-4.176 1.158-4.837-.538-.249-2.522-2.067-2.647-2.109z"/><path d="m509.03 225.63c-2.316-.331-6.23 1.591-5.105 3.911 1.881-1.621 3.626.134 4.941-1.519.404-.453.29-1.812.164-2.392z"/><path d="m509.01 221.05s-3.651-.581-4.157 1.948c2.52-.32 3.274-.59 4.109-.06.242-.541.008-1.762.048-1.888z"/><path d="m493.54 184.94s2.191.828 2.811 3.06c1.736-1.075 2.564-5.83-2.811-3.06z"/><path d="m488.12 190.39c.083-.041 4.59-2.77 5.05-.165-.952.95-1.365 1.57-2.109 1.778-.579-.0001-1.737-1.778-2.936-1.613z"/><path d="m487.67 199.24c.082-.042 2.894-2.522 3.969-.868 1.075 1.653-.868 1.571-.868 1.571s-.993-.455-3.101-.703z"/><path d="m483.7 149.96c-.041 0-3.597-1.364-5.085 1.116 2.357.29 3.184 1.117 4.258 1.944-.289-1.034-.785-2.605.827-3.06z"/><path d="m476.8 168.52s.165-4.176 2.15-5.871c1.116.62 1.446 1.612 2.191 2.853-1.488.33-3.473.413-4.341 3.02z"/><path d="m486.3 165.54s-3.928 1.82-2.646 3.804c1.282-1.364 2.688-.951 2.688-.992s0-2.77-.042-2.812z"/></g><path fill="#ffc900" d="m480.64 125.6c-1.406 1.571 1.736 5 5.04 4.507.827-3.72-4.217-5.664-5.04-4.507z"/></g></g></g><g stroke="#006b00" fill-rule="evenodd" stroke-linejoin="round"><g fill="#e80000"><path d="m484.28 122.75s.62 2.936 3.473 2.15c-.455-2.274-2.439-3.969-2.439-3.969-.124.662.413 1.695-1.034 1.819z"/><path d="m486.18 131.27s1.571 1.695 4.672-1.778c-1.405.413-3.886-.827-3.886-.827s0 2.398-.786 2.605z"/></g><path fill="#ffc900" d="m480.46 118.86c-1.406 1.571.583 3.762 3.891 3.266.827-3.72-3.064-4.423-3.891-3.266z"/></g></g><g fill-rule="evenodd"><path fill="url(#7)" d="m144.62 266.62s7.04-2.01 10.771 1 3.734.287 3.734.287 5.457 2.01 7.04 1.58-1.148.144 1.01-1.149c2.154-1.292-4.309.288-4.883-2.441-1.01-1.724.143-3.878-2.154-3.16-1.58-2.01 1-3.446.43-5.601-1.579 1.149-2.441-.431-3.734 2.442-3.01-.575-.431-4.74-3.734-5.171 0 3.02-2.442 3.16-2.585 4.883-1.436 1.01-7.755 4.74-5.888 7.325"/><g stroke="#000"><g fill="#c01500"><g stroke-width="1.25"><path d="m63.62 495.58c4.566-1.102 29.31 5.462 38.844 15.689-2.024-18.213-7.07-32.17-7.07-32.17s-14.743-4.205-16.767-2.181c-2.968 3.126-11.884 12.492-15.01 18.658z"/><path d="m56.08 411.46c-1.734.289-3.469 1.446-5.203 4.336-2.024 4.914-3.469 17.345-6.36 20.236-2.891 2.891-5.493 3.18-5.493 5.782 0 2.601.289 8.672 8.094 10.985 7.805.289 20.236-12.431 20.236-12.431s6.36-6.938 8.962-14.454c-15.03 5.204-25.728-8.673-20.236-14.454z"/></g><g stroke-width="1.242"><path d="m273.49 492.68c-4.531-1.096-29.556 5.43-39.02 15.597 2.01-18.11 7.02-31.978 7.02-31.978 1.747-.476 14.47-4.18 16.479-2.168 2.945 3.108 12.426 12.419 15.525 18.549z"/><path d="m280.5 409.05c1.722.287 2.33 2.549 3.735 5.422 2.01 4.885 4.077 12 6.946 14.876 2.868 2.875 5.45 7.132 5.45 9.719 0 2.585-.605 6.081-8.35 8.379-7.745.288-18.968-9.657-18.968-9.657s-6.311-6.898-8.893-14.37c14.917 5.174 24.578-8.146 20.08-14.369z"/></g></g><path fill="#fb0" stroke-width="1.25" d="m47.41 479.69s15.61 10.696 15.9 15.61c41.918-62.15 148.88-81.52 209.88-4.336 8.094-10.696 16.478-14.165 16.478-14.165-64.18-83.84-191.96-73.43-242.26 2.89z"/></g><g fill="#1e5aa6" stroke="#000"><g stroke-width="1.25"><path d="m206.44 241.88l6.11-.145-10.911 13.82 13.09 15.276-25.751 32.443 24.296 29.24c-2.667 6.547-5.771 12.512-9.893 17.894l-13.966-15.421 25.314-31.57-20.804-23.568 12.511-37.971z"/><path d="m119.15 244.64l-6.546.146 12.22 13.238-12.949 16.15 26.915 29.24-22.259 29.824c2.667 6.547 6.498 13.821 10.62 19.2l13.239-16.73-27.2-30.26 19.931-25.313-13.966-35.498z"/><path d="m149.41 323.2l-9.602 12.803 34.33 39.716c6.06-3.055 10.815-6.546 16-10.765l-17.894-20.659 7.274-21.386 10.475 12.07-32.733 41.754c-5.48-2.328-11.542-5.965-17.02-10.475l17.312-21.968-8.147-21.1z"/><path d="m138.79 303.27l6.256 7.856-4.073-10.62-2.183 2.764z"/></g><path stroke-width="1.211" d="m183.6 310.22c.137-.146 5.05-6.693 5.05-6.693l-1.911-2.618-3.138 9.311z"/></g></g><g font-family="Timmons" font-size="14" line-height="100%" font-weight="bold"><text x="-328.34" y="362.4" transform="matrix(.64869-.76105.76105.64869 0 0)"><tspan x="-328.34" y="362.4">L</tspan></text><text x="-292.33" y="384.27" transform="matrix(.70225-.71193.71193.70225 0 0)"><tspan x="-292.33" y="384.27">E</tspan></text><text x="-239.78" y="451.68" transform="matrix(.7628-.54464.56769.75422 0 0)"><tspan x="-239.78" y="451.68">O</tspan></text><text x="-188.53" y="429.96" transform="matrix(.82844-.56007.56007.82844 0 0)"><tspan x="-188.53" y="429.96">T</tspan></text><text x="-115.43" y="451.48" transform="matrix(.90222-.43128.43128.90222 0 0)"><tspan x="-115.43" y="451.48">E</tspan></text><text x="-94.11" y="453.05" transform="matrix(.91363-.40655.40655.91363 0 0)"><tspan x="-94.11" y="453.05">R</tspan></text><text x="-68.37" y="454.98" transform="matrix(.92776-.37317.37317.92776 0 0)"><tspan x="-68.37" y="454.98">R</tspan></text><text x="112.02" y="445.67" transform="matrix(.99655-.08303.08303.99655 0 0)"><tspan x="112.02" y="445.67">R</tspan></text><text x="180.22" y="430.79" transform="matrix(.99989.01495-.01495.99989 0 0)"><tspan x="180.22" y="430.79">R</tspan></text><text x="414.76" y="275.22" transform="matrix(.86911.49462-.49462.86911 0 0)"><tspan x="414.76" y="275.22">R</tspan></text><text x="483.88" y="193.05" transform="matrix(.76826.64014-.64014.76826 0 0)"><tspan x="483.88" y="193.05">E</tspan></text><text x="309.12" y="414.03" transform="matrix(.96356.18112-.15531.95184 0 0)"><tspan x="309.12" y="414.03">O</tspan></text><text x="105.06" y="459.27" transform="matrix(.90188-.1316.13648.975 0 0)"><tspan x="105.06" y="459.27">O</tspan></text><text x="-45.708" y="455.83" transform="matrix(.93794-.3468.3468.93794 0 0)"><tspan x="-45.708" y="455.83">A</tspan></text><text x="518.35" y="144.72" transform="matrix(.70468.70953-.70953.70468 0 0)"><tspan x="518.35" y="144.72">A</tspan></text><text x="271.19" y="388.3" transform="matrix(.98042.19692-.19692.98042 0 0)"><tspan x="271.19" y="388.3">A</tspan></text><text x="40.32" y="455.17" transform="matrix(.98279-.18472.18472.98279 0 0)"><tspan x="40.32" y="455.17">M</tspan></text><text x="94.43" y="448.08" transform="matrix(.99463-.10349.10349.99463 0 0)"><tspan x="94.43" y="448.08">P</tspan></text><text x="155.09" y="437.61" transform="matrix(.99967-.02552.02552.99967 0 0)"><tspan x="155.09" y="437.61">P</tspan></text><text x="405.13" y="276.67" transform="matrix(.87036.49241-.49241.87036 0 0)"><tspan x="405.13" y="276.67">P</tspan></text><text x="232.09" y="409.79" transform="matrix(.9934.1147-.1147.9934 0 0)"><tspan x="232.09" y="409.79">I</tspan></text><text x="530.39" y="132.09" transform="matrix(.68727.72641-.72641.68727 0 0)"><tspan x="530.39" y="132.09">T</tspan></text><text x="464.16" y="218.52" transform="matrix(.80056.59925-.59925.80056 0 0)"><tspan x="464.16" y="218.52">T</tspan></text><text x="313.73" y="361.96" transform="matrix(.95925.28254-.28254.95925 0 0)"><tspan x="313.73" y="361.96">M</tspan></text><text x="513.7" y="123.25" transform="matrix(.67353.73916-.73916.67353 0 0)"><tspan x="513.7" y="123.25">G</tspan></text></g><g stroke-width="1.25"><g fill="none" stroke="#fff700" stroke-linecap="round"><path d="m255.94 200.94s6.03-5.171 10.341-5.315"/><path d="m256.81 200.22c.143-.143 36.05-5.17 37.2-6.319"/><path d="m256.95 200.51c.144-.144 40.22-3.447 40.22-3.447"/><path d="m256.81 200.65s42.657-2.01 45.24.144"/><path d="m256.66 200.51s41.796.287 42.514 1.292"/><path d="m256.81 200.51l40.21 3.303"/><path d="m256.38 200.8c.143 0 40.934 3.591 44.955 8.761"/><path d="m303.48 216.88c-.143-.143-13.931-16.517-47.25-16.23"/><path d="m256.38 200.94s23.12 1.579 30.449 9.623"/><path d="m256.81 200.65s14.937-2.872 30.592 15.943"/></g><g stroke="#000"><g fill-rule="evenodd"><path fill="url(#4)" d="m247.4 217.74s20.718.813 20.718 2.844-15.437 5.89-15.64 14.422c-.203 8.531 11.781 9.14 12.593 19.905.813 10.766-9.343 12.39-11.375 15.234-2.031 1.422-6.906 16.656-6.296 25.593.609 8.938 3.249 39.2 7.921 45.3 3.657 2.844 9.141 11.984 15.03 9.14 5.891-2.843 1.828-13.202 1.219-16.05s2.437-7.516 2.437-11.781c0-4.266-2.234-7.719-2.031-8.734.203-1.016 16.453 3.859 15.437 19.906-1.015 16.05-7.515 11.171-7.515 11.171s2.031 19.703-3.047 22.343c-9.14 4.875-15.843-1.015-15.843-1.015l.859 4.01-6.953-3.601s-8.937-12.797-10.968-18.484-4.469-31.08-3.656-36.561c.812-5.485 1.421-37.578 1.015-39.2s-2.031-28.436-1.015-32.499c1.015-4.062 7.312-21.937 7.109-21.937z"/><path fill="#ff7000" d="m225.06 212.46s14.421-14.02 22.749-12.39c4.266 0 .203 3.047.203 3.047s7.312.609 8.328 3.859c.203 1.422-3.453 1.828-3.453 1.828s3.047.609 3.25 3.25-30.874.609-31.08.406z"/></g><g fill="none"><path d="m225.87 211.85s15.437-2.031 21.937-8.531"/><path d="m241.51 207.59s11.375-.406 11.375 1.219"/></g><path fill="#fff" fill-rule="evenodd" stroke-linejoin="round" d="m281.93 373.74s9.75-2.234 12.39-5.687c1.626-1.219 10.157 12.796-12.39 5.687z"/></g><g fill="none" stroke="#fff" stroke-linecap="round"><path d="m279.29 293.1s1.219 7.515-2.235 12.593c-1.828 2.031-7.312 5.484-7.312 7.922 0 2.437 2.031 5.687 1.625 8.531s-3.453 5.688-3.25 8.125c0 2.437 3.453 15.437 3.047 15.64"/><path d="m261.42 268.73s-7.718 2.641-9.343 10.36"/></g><path fill="#c75b00" stroke="#000" fill-rule="evenodd" d="m258.16 207.59s2.641 7.313 11.172.407c-5.484-7.515-11.172-.204-11.172-.407z"/></g><path fill-rule="evenodd" d="m264.87 206.47c0 .393-.409.711-.914.711s-.914-.318-.914-.711c0-.393.409-.711.914-.711s.914.318.914.711" transform="translate(-.406.813)"/><g stroke-width="1.25"><g fill-rule="evenodd"><g fill="#fff" stroke="#000"><path d="m188.41 190.62s16.177 17.509 26.644 17.319c1.903 5.138-4.752 9.919-7.416 12.202-5.329-1.713-10.145.312-22.515-14.913.761-9.706 3.478-14.227 3.287-14.608z"/><path d="m210.3 149.89c2.094-6.471 6.28-11.609 9.896-12.18-.952-4.948 7.613-26.834 32.544-35.21 1.523 11.228-10.658 22.267-10.658 22.267s36.731-6.28 44.15-15.606c-.761 4.187-8.183 30.26-47.39 30.07 14.845 14.08-4.758 25.312-13.13 21.886 15.416-11.8-4.377-18.841-15.416-11.229z"/></g><path fill="#cccccd" stroke="#ccc" d="m222.86 140.76c7.422-4.758 10.09-4.758 16.177-3.806-4.377.571-4.377.761-4.377.761s-.381.571 2.284 3.045c-3.045-.761-5.709-2.474-14.08 0z"/></g><g stroke="#000"><path fill="none" d="m220 137.71s14.654-7.803 22.838-13.13"/><g fill-rule="evenodd"><g fill="#00f"><path d="m207.44 220.12s20.17 5.519 22.457-23.409c-4.377-12.561-10.467-39.585-1.142-47.39-8.564-5.9-17.89.19-17.89.19-.571 1.332-8.184 12.18 2.093 31.21-24.36-6.471-14.464 16.557-14.464 16.557.952-3.616 13.893-7.04 17.13 11.419 1.332 4.568-8.754 11.609-8.184 11.419z"/><path d="m230.09 196.9s21.315-11.419 20.744-38.25c-18.08.381-24.55 23.789-24.55 23.789l3.806 14.464z"/></g><path fill="#fff" d="m134.55 195.57s-15.796 13.703-24.741 9.325c-6.661 3.997-14.464-3.045-14.464-3.045s9.135 33.686 41.869 9.325c-.571-7.422-2.284-15.03-2.664-15.606z"/><path fill="#00f" d="m109.62 204.32c1.332-7.04 6.851-10.467 11.229-3.806 5.9 1.142 11.8-23.03-9.135-19.03 5.9-31.592-11.799-43.39-11.799-43.39s-6.28 35.02-3.426 41.489c2.855 6.471-4.187-11.99-26.834-17.13-.381 26.454 25.312 38.824 25.312 38.824s7.232 6.661 14.654 3.045z"/></g><g fill="none"><path d="m111.71 181.29s-9.896 8.374-7.613 19.793"/><path d="m96.68 180.15s-2.284 8.184 2.664 19.793"/><path d="m95.16 202.61s4.568-7.422 14.464 2.094"/></g><path fill="#fff" fill-rule="evenodd" d="m97.06 151.22c0-.19-15.03 0-6.09 15.225-6.661 2.094-21.506-7.613-11.229-20.554-33.686-.761-47.39-16.938-47.39-31.782 9.896 10.277 33.495 6.09 41.869 12.37-10.277-9.516-8.183-22.647-8.183-22.647s28.738 8.564 33.876 34.07c-1.713 4.948-2.474 13.703-2.855 13.322z"/><path fill="none" d="m73.942 125.82c5.546 5.643 19.796 7.328 27.03 13.609"/></g></g><path fill="#cccccd" stroke="#ccc" fill-rule="evenodd" stroke-width=".948" d="m80.5 142.47s11.797-1.523 15.216 2.664c-4.616 0-6.155-1.142-12.823 1.332 1.881-.952 1.368-2.664 2.394-2.664s-4.274-1.332-4.787-1.332z"/><g stroke-width="1.25"><g stroke="#000"><g fill-rule="evenodd"><path fill="#923f00" d="m139.31 50.17s6.471-5.709 13.512-.571c-3.181 9.507-14.654 5.9-14.654 5.9s.381 4.758-.761 7.04c2.297 1.726 4.187 7.422 4.187 7.422s11.8-2.855 14.274 2.284c4.519-.624 7.803 0 7.803 0s9.135-2.284 12.37-2.284c3.235 0 13.512 2.665 14.464 4.568.952 1.903 4.377 14.654 6.661 14.464 2.284-.19-5.519 3.045-7.613-.19-2.094-3.235-1.523 4.187-1.523 4.187s6.471 6.851 7.232 8.374c.761 1.522-3.997 13.893-.381 22.457-3.168.293-3.426 3.616-3.426 3.616-.174 3.77-4.948 4.758-4.948 4.758l-1.142-5.138-3.235 1.903 1.332-3.997s4.377-10.658 4.758-14.08c.381-3.426-3.997-9.516-7.422-9.516-3.426 0-5.9 10.848-5.9 10.848s-1.713 8.183-1.142 8.945c.571.761-2.284-2.664-2.284-2.664s-1.523 4.948-2.664 6.471c-1.142 1.523-3.616 2.094-3.616 2.094s-1.713-4.948-1.142-6.851c.571-1.903 9.325-9.326 8.564-14.654-.761-5.329 0-3.997-.19-4.187-.19-.19-4.567-3.997-4.758-6.09-.19-2.093-5.709 2.664-12.941 1.142-2.213 3.868-2.474 13.512-2.474 13.512s-.761 11.609.761 12.941c1.523 1.332-3.806 4.187-3.806 4.187l-3.806 5.138s-1.332-3.235-1.332-3.045c0 .19-2.664 1.903-2.664 1.903l1.523-3.806c-.093-2.881 3.7-10.75 3.7-17.412 0-6.661.487-13.8.487-13.8s-7.04-.38-6.851 6.851c.19 7.232-1.713 7.613-1.332 9.706.381 2.093 2.284 7.993 1.713 9.706-.571 1.713-2.855 2.284-2.855 2.284l-.571.952s-7.04 3.235-6.851 4.568c.19 1.332-.19-3.806-.19-3.806l-.381-5.519s4.187-2.664 4.187-9.325c0-6.661-.965-7.608-.775-9.131.19-1.523 1.155-7.05.965-7.617-.19-.571-3.997 1.522-5.138 1.522s2.094-3.996 2.474-6.851c.381-2.855-3.806 2.664-7.232-.571 1.593-3.514 3.997-4.567 4.377-7.232s-2.664 2.284-5.329.381c.217-2.554 2.855-4.758 2.855-4.758s-2.169-.266-3.045 0c-1.713-.571 1.903-3.235 2.093-7.04.19-3.806-2.093-5.329-2.093-5.519 0-.19-3.806-3.426-4.377-4.758-.571-1.332-.571-2.855-.571-2.855s-6.28 4.568-13.703-5.139c6.797-5.803 14.08-1.523 14.08-1.523s1.903-5.329 10.658-4.948c8.754.381 10.467 5.329 10.09 4.758z"/><path fill="#00f" d="m187.19 148.61c.159 0 16.17.475 16.325 9.03.159 8.559-4.913 6.34-5.072 6.34s-11.729-1.427-11.729-1.427l.476-13.948z"/><path fill="#fffeff" d="m171.65 146.23s19.971-.159 18.861 8.559c-1.109 8.717-6.181 6.974-6.181 6.974l-9.668-.792-3.01-14.74z"/><path fill="#00f" d="m160.4 145.28l11.57.951s6.974.951 6.657 7.608c-.317 6.657-7.132 6.815-7.132 6.815l-11.253-.634.159-14.74z"/><path fill="#fff" d="m133.3 148.61c-.159 0-16.17.475-16.325 9.03-.159 8.559 4.913 6.34 5.072 6.34s11.729-1.427 11.729-1.427l-.48-13.95z"/><path fill="#00f" d="m148.83 146.23s-19.971-.159-18.861 8.559c1.109 8.717 6.181 6.974 6.181 6.974l9.668-.792 3.01-14.74z"/><path fill="#fff" d="m160.09 145.28l-11.57.951s-6.974.951-6.657 7.608c.317 6.657 7.132 6.815 7.132 6.815l11.253-.634-.159-14.74z"/><g fill="#5e0043"><path d="m191.07 241.51s8.32-12.261 11.823-10.948c3.065 1.022.73 10.51-.73 11.386l-11.09-.438z"/><path d="m134.04 243.7c-2.627-3.649-6.422-13.721-9.926-10.948-3.065 1.022-.73 10.51.73 11.386l9.196-.438z"/></g></g><path fill="none" d="m139.55 219.45s16.212 9.987 21.53 10.246c5.318.259 22.18-12.97 22.18-12.97"/><path fill="#5e0043" fill-rule="evenodd" d="m141.11 180.29l3.113-3.891 15.564 7.911 15.823-7 3.113 3.242-17.639 12.451-19.973-12.71z"/></g><g fill="#474747" fill-rule="evenodd" stroke="#474747" stroke-linejoin="round"><path d="m128.75 180.08c1.264 1.597 11.323 13.828 13.14 23.944 1.816 10.116-1.038-13.878-1.038-13.878s12.451 6.096 12.84 9.987c.389 3.891 5.953-.263 6.219-.928l-36.05-23.414 4.888 4.289z"/><path d="m190.26 179.38s-13.1 17.25-11.543 36.06c-2.702-9-.519-23.864-.519-23.864l-2.853 1.816s-2.983 12.71-6.744 14.656c-.634-1.514-.519-2.075-.519-2.075s-4.02 5.188-4.799 5.707c-.778.519.259 17.509.259 17.509s1.35 12.314 2.906 12.185c-1.77.868-3.944 2.215-3.944 2.215l-1.614-32.882 3.689-3.695s4.928-5.966 5.317-11.802c-2.139 1.815-4.539 2.334-4.539 2.334s-.649 8.3-2.594 9.468c-1.946 1.167-1.999 3.333-1.999 3.333l-.463-10.848 29.956-20.11z"/></g><g stroke="#000"><g fill="none"><path stroke-linecap="round" d="m160.3 199.35l2.531 51.872"/><path d="m128.4 224.12s5.966 3.502 8.171 14.14c19.454-1.427 25.55 5.447 25.55 5.447s15.953-7.652 23.345-6.225c2.594-5.447 9.987-12.451 9.987-12.451"/></g><path fill="#b4b6b9" fill-rule="evenodd" d="m120.26 173.28l40.05 26.2 36.06-24.25s7.522-4.15 6.874-7.133-3.242-1.816-4.539-1.297c-1.297.519-37.742 26.328-37.742 26.328l-38.779-24.512s-2.853-.908-3.372.908 1.068 2.853 1.457 3.761z"/></g><g fill="#474747" fill-rule="evenodd" stroke="#474747" stroke-linejoin="round"><path d="m191.87 166.48s-10.246-4.35-10.246-.58c0 3.77.29 4.156 1.933 6.573 1.643 2.417-1.256 3.963-1.256 3.963s-.387-1.063-.967-2.707c-.58-1.643-6.089-2.803-6.573-4.736-.483-1.933 1.16-5.03-2.127-5.413-3.286-.387-6.476 1.353-7.153 5.123-.677 3.77-4.93 12.566-4.93 12.566l.58-20.01c7.217.516 20.621 2.094 30.931 3.286-3.093-.483 1.16.193 1.063 1.256-.29.87-1.353.967-1.257.677z"/><path d="m155.62 161.45c-1.837 0-11.02 1.063-13.339 2.417-2.32 1.353 3.77 3.48 2.996 5.316-.773 1.837-.87 5.51-3.77 4.736-2.9-.773-12.662-5.606-12.952-7.249-.29-1.643-2.32-1.74-2.32-1.74s28.03-3.77 29.385-3.48z"/></g><g stroke="#000"><g fill="none"><path d="m160.04 159.15l-.07 24.582"/><path d="m141.11 130.19s-11.231 18.237-11.454 18.793"/></g><path fill="url(#1)" fill-rule="evenodd" d="m161.8 129.74s4.893 6.672 4.337 8.562c2 1.557 4.226 7.784 4.226 7.784"/><path fill="none" d="m180.7 128.63s-10.564 14.901-10.23 16.01"/></g></g><g fill-rule="evenodd"><path d="m126.5 56.748c0 .794-1.134 1.438-2.533 1.438s-2.533-.644-2.533-1.438c0-.794 1.134-1.438 2.533-1.438s2.533.644 2.533 1.438" transform="matrix(1.0161.31118-.30126 1.0495 15.15-41.14)" id="9"/><use transform="matrix(-1 0 0 1 257.45-.294)" xlink:href="#9"/></g><g stroke-width="1.25"><g stroke="#000"><g fill-rule="evenodd"><g fill="#ff7000" stroke-linejoin="round"><path d="m254.49 366.13s-3.917.735-3.795 1.102-11.384.734-11.629.367c-.245-.367-1.714 1.959-1.714 1.959l1.836-1.102s2.815 2.938 3.672 2.693c.857-.245-.367 1.102-.122 1.347.245.245 1.102-.49 1.102-.49l19.02-.318-8.373-5.558z"/><path d="m261.58 372.05l-15.537.45s-3.917 3.55-4.162 4.407 2.571 1.102 2.571 1.102l.857 2.938 1.958-.734s13.211 1.964 25.339-.735c6.12-2.142 7.192-4.713 2.907-6.274-4.284-1.561-13.811-1.092-13.933-1.154z"/></g><path fill="url(#2)" d="m208.37 403.93l27.971-1.246-5.209-4.416 75.65-3.058-2.605-6-84.71 3.397 10.192 4.756-22.875.679.679 2.378-6-.227s6.681 2.605 6.908 3.737z"/><path fill="url(#3)" d="m239.73 249.42c-2.222-1.111-11.998-2.444-22.884 4.666l.444 25.11s15.997-8.665 23.773-6.665c-.444-7.776-.444-17.774-1.333-23.11z"/></g><g fill="none"><path d="m85.07 325.65l-65.956 65.48"/><path d="m114.47 326.13l-53.53 70.5"/><path d="m112.08 307.73l-71.45 86.51"/><path d="m38.474 393.04l6.93-8.125"/><path d="m125.7,351.22-27.722,38.24"/><path d="m96.78 394.48l.717 14.57"/><path d="m138.36,364.6-29.393,36.802"/><path d="m133.11 398.54l11.949-19.596"/><path d="m137.65,375.12-14.338,16.25"/><path d="m133.35 359.83l-9.798 11.949"/><path d="m120.68 342.38s-29.871 43.732-29.393 47.32"/><path d="m117.57 336.65c-.717.478-25.809 33.695-25.809 33.695"/><path d="m90.33 380.85l-4.54 5.496"/><path d="m80.06 394.72l-6.93 9.08"/></g></g><g fill-rule="evenodd" stroke="#2b2b2b"><path fill="#8a9396" d="m81.81 225s-2.024 6.36 0 9.54 14.743 28.908 14.743 28.908 8.673-10.696 11.853-10.985c3.18-.289 1.734 27.752 1.734 27.752s-5.203 4.915-8.383 4.626c-3.18-.289 7.805 10.985 7.516 20.525s-14.454 56.949-19.658 57.817c-5.204.867 2.313-8.673 2.024-11.275-.289-2.601-1.734-.867-2.891-3.758-1.156-2.891 1.734-7.227 1.156-10.118s-3.18-2.312-3.469-4.336 1.734-2.602 1.445-4.914c-.289-2.313-3.469-1.735-3.18-3.759.289-2.023.578-1.156.289-4.914-.289-3.758-.867 2.602-4.047 2.891-3.18.289-5.782 7.516-5.782 7.516s-6.36 8.962-12.72 4.914c3.758 8.095.867 11.564-.578 11.853s1.156 6.36-2.313 6.649 2.602 13.587-1.445 14.743c4.336 2.024.867 4.626.867 4.626s-10.02.832-7.805 13.876c-29.487-10.39-43.941-28.31-43.652-46.52.289-18.212 6.071-34.69 20.236-40.761 4.047-15.03 10.985-31.22 10.985-31.22s-1.156-6.649-.289-10.986c.867-4.336 4.914-8.672 4.914-8.672s-.578-10.407-.289-15.61c.289-5.204 2.313-7.517 2.602-10.407.289-2.891-.867-17.635 2.024-20.236 2.891-2.602 8.383-2.313 11.274-4.048 2.891-1.734 6.649-4.914 10.407-4.625s6.938 2.891 6.938 2.891 14.165 0 15.03 5.493c.867 5.492-2.891 7.516-2.891 7.516s2.024 7.805-6.649 15.03z"/><path fill="#cecfcf" d="m69.67 206.45c0 .953-1.593 1.726-3.559 1.726s-3.559-.773-3.559-1.726c0-.953 1.593-1.726 3.559-1.726s3.559.773 3.559 1.726z" transform="matrix(.87942-.47604.47604.87942-90.31 56.58)"/></g></g><path fill-rule="evenodd" d="m66.68 206.44c0 .356-.446.644-.996.644-.55 0-.996-.289-.996-.644 0-.356.446-.644.996-.644.55 0 .996.289.996.644" transform="matrix(1.0784 0 0 1.4848-5.074-100.09)"/><g fill="none"><g stroke="#2b2b2b" stroke-width=".625"><path d="m87.971 216s3.511 15.676-.688 26.504"/><path d="m89.05 209.14s6.85 9.06 5.966 20.329"/><path d="m89.71 207.15c.221 0 5.745 4.862 5.524 8.176"/><path d="m91.04 205.16s3.757 2.652 4.64 5.303"/></g><path stroke="#000" stroke-width="1.25" d="m89.27 203.61s-13.479 21.876-11.711 35.576"/><path stroke="#2b2b2b" stroke-width=".625" d="m90.16 202.95s-17.899 10.607-21.21 45.3"/><path stroke="#000" stroke-width="1.25" d="m88.17 209.36l-7.07 5.303"/><path stroke="#2b2b2b" stroke-width=".625" d="m62.31 250.24s9.944-41.32 27.621-47.29"/></g><g stroke="#2b2b2b" stroke-width="1.25"><path fill="#2b2b2b" fill-rule="evenodd" d="m96.78 264.16s9.502-11.932 11.711-11.49c2.21.442 1.547 27.621 1.547 27.621s-7.07 5.303-8.618 5.082c-1.547-.221 7.955 12.816 7.734 17.678-.221 4.861-.442 4.861-.442 4.861s0-2.873-2.21-7.513c-2.21-4.64-.884-9.944-15.247-21.655-3.535-7.292 7.07 4.419 9.281 2.652 2.21-1.768-3.978-17.01-3.757-17.236z"/><path fill="none" d="m79.893 196.96s-3.995 1.089-4.539 2.724c-.545 1.634-2.905 3.268-4.176 2.724-1.271-.545-3.632-2.542-3.632-2.542"/><path fill="#2b2b2b" fill-rule="evenodd" stroke-linejoin="round" d="m57.2 210.94s-5.992 5.992-3.087 6.718c2.905.726 5.992-4.721 5.992-4.721s0 9.26 2.542 7.808 9.987-6.718 9.987-6.718 2.542-.181 3.087 0c.545.181 6.9 5.629 11.08 3.631-2.361 6.174-5.084 6.9-5.084 6.9s-4.358 5.629-9.987 4.358c-5.629-1.271-7.082-3.631-7.082-3.631s-4.721.363-6.174-1.816c-1.453-2.179-1.997-3.45-1.997-3.45s-2.724 2.724-3.45 1.453c-.726-1.271 0-8.716 4.176-10.531z"/><path fill="none" d="m91.15 202.59s-11.08-3.268-14.889 2.179c-3.813 5.447-2.905 8.534-.908 9.08"/></g><path fill-rule="evenodd" d="m92.86 202.28c0 1.306-.935 2.364-2.088 2.364s-2.088-1.059-2.088-2.364.935-2.364 2.088-2.364 2.088 1.059 2.088 2.364"/><g stroke-width="1.25"><g stroke="#2b2b2b" fill-rule="evenodd"><g fill="#2b2b2b"><path d="m60.62 230.54s4.516 6.948 9.901 8.859-3.735 3.561-9.12-.087c-3.908-5.298-2.866-9.12-2.866-9.12s1.042-1.042 2.084.347z"/><path d="m99.28 271.54s-12.681-17.631-16.329-18.587c-3.648-.955 2.779-1.737 6.688 1.998 3.908 3.735-1.042-6.08-1.042-6.08l10.683 22.669z"/><path stroke-linejoin="round" d="m59.41 373.42c4.864-1.303 26.06 12.16 30.833 15.547 4.777 3.387 14.765 1.216 14.765 1.216s-4.603 2.779-7.469 3.474 8.512.695 8.512.695-27.1 7.469-54.632-7.04c-2.519-11.291 5.906-13.81 7.991-13.897z"/><path d="m90.42 275.88s-3.561-.695-5.385-2.779c-1.824-2.084-4.43-7.209-7.122-9.38s-16.16-9.554-21.02-9.03c-4.864.521-6.34-.521-6.948-1.129-.608-.608-2.606.261-2.258 2.779.347 2.519-3.735 8.08-2.258 10.683 1.477 2.606 8.425 13.202 9.815 13.549 1.39.347.521 6.167.521 6.167s6.167 6.253 7.73 6.601c1.563.347 3.127 1.477 2.953 2.953-.174 1.476-6.775 9.554-6.775 9.554s-7.122 3.735-7.209 5.819c-.087 2.084 1.737 6.427 7.383 7.817 5.646 1.39 20.845.26 21.627-1.042.782-1.303 1.998-9.12 1.477-9.901-.521-.782-4.256-3.127-6.167-2.779-1.911.347-3.648 1.911-3.474 2.258.174.348-2.692 1.824-2.692.434 0-1.39 5.646-7.643 6.167-7.122.521.521 8.512 1.303 9.988 5.298s1.477 6.861 5.645 6.427c4.169-.434 9.988-4.256 10.509-12.246.521-7.991-4.69-13.376-5.993-14.157-1.303-.782-5.646-3.387-5.993-4.603-.347-1.216-1.216-5.211-.521-6.167z"/><path d="m15.286 311.15s13.462-3.474 16.937-3.387c3.474.087 16.589 6.167 20.411 9.901 3.822 3.735 11.638 12.594 16.763 11.812 5.124-.782 6.601-1.824 6.601-1.824l-1.998 3.822s-4.169 1.129-6.254.608c-2.085-.521-6.167-1.824-10.249-5.819-4.082-3.995-16.676-14.765-27.359-13.984-10.683.782-16.85 11.291-16.85 11.291s.087-5.125.521-6.253c.434-1.129-2.258 2.432-2.258 2.432l3.735-8.599z"/><path d="m64.88 321.57c.087.087 3.387.955 8.946.955s8.512-2.432 8.512-2.432l-.347-2.171.868-3.04s4.256 4.343 4.169 5.211c-.087.869-1.737 1.216-1.737 1.216l-.608-2.084-1.477 1.824s-8.08 6.427-12.507 5.472c-4.43-.955-8.512-3.822-7.383-4.517s1.737-.434 1.563-.434z"/><path d="m45.25 332.95s-4.864-.087-7.04.955c-2.171 1.042-2.953 2.345-4.43 2.171-1.477-.174-2.606-2.085-2.171-2.866.608-1.216 3.474-2.779 8.946-2.345s4.69 2.084 4.69 2.084z"/><path d="m62.27 346.15c0-.26-.347-7.122-3.04-9.901s-5.993-2.779-7.47-2.432c-1.477.348 5.472 3.387 6.167 5.385.695 1.998 2.953 7.556 2.345 8.946-.608 1.39-1.737-3.909-5.993-5.385s-10.162-.695-8.946 1.216 5.993.174 8.425 4.256 4.256 8.425 4.256 8.425l.782-2.953 2.171-.608.261-5.646 1.042-1.303z"/><path stroke-linejoin="round" d="m58.801 368.38l-4.43-8.859s-1.39-5.646-5.124-7.209c-3.735-1.563-8.685-1.303-8.772.608-.087 1.911 7.991 4.343 8.512 5.385.521 1.042.261 2.779-.434 2.866-.695.087-4.256-1.303-6.08-.869-1.824.434-2.866 2.779-5.559 2.084-2.693-.695-4.951-9.293-3.908-10.162 1.042-.868-1.998 1.563-2.606-.695-.608-2.258.869-9.293-.174-10.162-1.042-.868-6.08-3.908-6.167-4.516-.087-.608.261-34.568 28.662-6.427-12.16-14.418-16.937-12.854-19.2-12.941-1.65 0-12.681.955-15.46 15.03-2.779 14.07-6.08 5.298-6.08 5.298s-.608 6.08 2.345 7.817c2.953 1.737-1.39 6.775-1.39 6.775s-5.298-12.941-4.516-18.587c-1.042 4.517-.955 15.721 5.732 27.967 7.817 8.251 15.2 15.894 34.829 24.493 10.336-15.808 9.815-17.718 9.815-17.892z"/></g><path fill="#8a9396" stroke-linejoin="round" d="m40.21 368.47s5.732.695 7.296 3.648c1.563 2.953 2.258 7.469 2.258 7.469.955-1.911 1.39-3.561 3.3-4.951s3.3-1.563 3.214-2.606c-.087-1.042-6.08-7.383-9.12-7.73-3.04-.347-8.338 3.3-8.338 3.3s-.955 1.39 1.39.868z"/></g><g fill="none"><path stroke="#8a9396" stroke-linecap="round" d="m53.31 383.41s14.856 6.772 39.33 7.209"/><g stroke="#2b2b2b"><path stroke-linecap="round" d="m102.9 314.45s-1.278 12.464-10.866 37.07"/><path d="m100.99 322.12s-2.876 8.948-10.866 15.659"/></g></g></g></g></g></svg>