<svg xmlns="http://www.w3.org/2000/svg" viewBox="0 0 512 512"><g fill-rule="evenodd" stroke-width="1.25"><path fill="#be0027" d="m0,0h512v512h-512z"/><path fill="#3b5aa3" d="m20.48,20.48h470v471.04h-470z"/></g><g transform="translate(-256.29 5.0895)"><g fill-rule="evenodd"><path fill="#cbe0e5" d="m508.15,391.04c1.8181,.9967 4.6937,.9438 6.3118,.0787 103.36-54.986 103.42-205.78 .1507-259.99-1.918-1.0108-4.7067-.956-6.6131,.0785-100.72,55.105-100.99,204.19 .1507,259.84z"/><path fill="#add2d9" d="m508.15,393.76c1.6066,1.3098 4.8472,1.1843 6.3118,.0787 76.168-57.026 76.615-92.573 73.239-92.572l-150.75,.0786c-2.3048,.002 1.3284,36.086 71.199,92.414z"/><path fill="#fdf9a1" d="m448.89,329.52c6.5356-1.7007 14.431-2.1496 20.863,1.2862 5.7147,2.9868 9.0259,2.9573 15.183,3.0392 6.4438,.0868 11.51,4.8218 18.478,5.007 12.829,.3359 18.235,6.6978 8.2608,6.7109-4.7153,.007-14.823-3.1424-19.7-2.4658-10.192,1.0518-16.659,3.3079-26.25,13.976l11.085,7.5956c9.5879-3.9076 11.195-8.3034 16.504-8.4787 5.9982-.1933 8.0364-3.9092 14.972-3.9174 7.8807,1.432 18.555-.9781 24.807-2.379 11.09-2.5788 5.8147-10.328-.9077-13.138-5.4346-2.3134-15.609-.0852-21.927-2.3806-4.7825-1.8563-.8471-4.8415 1.7203-5.4788 2.5952-.4784 5.3789,.3703 8.6065,.8897 5.7622,.4981 12.999-.0557 18.058-.8487 10.46-1.6204 10.019-4.6875 15.07-4.7694 3.6831-.1769 6.4864-1.278 8.9948-3.0802 2.9491-1.9743 6.0162-6.0211 9.5896-5.8688l9.5682,.4063-13.477,30.309-38.073,38.753-19.718,7.4793-43.342-28.215-21.856-33.523 3.4914-.9077z"/><path fill="#179a3b" d="m498.7,300.05 87.027-.4049 1.5303-7.7107s-3.1048-.4636-5.6099-.6103c-3.1244-.1917-8.4804,3.2685-12.068,3.247-2.5379-.0176-5.446-4.5595-7.9872-4.4656-4.4352-.0411-4.83,3.9512-9.0096,4.0607-3.3735-.1154-4.8103-2.6915-9.1783-2.4353-4.581,.2582-4.2402,2.7795-10.027,2.6367-7.6431-.1917-10.713-6.8246-16.828-6.8989-10.207-.1213-10.54,9.741-17.849,12.581z"/><path fill="#fdf9a1" d="m498.7,301.91 89.576-.4559v-2.4334l-91.614,.4559 2.0382,2.4334z"/><path fill="#a79270" d="m535.51,328.83c1.3795,5.2904 2.8344,7.0894 8.3984,8.4378 5.4952,1.3517 13.879-4.0059 8.6688-9.1783-4.9611-4.812-10.174-6.0342-14.618-10.368-9.3536-9.2406-23.446-31.882-23.459-47.849-.0115-13.712-1.3336-41.855-1.3435-68.511 .007-1.7269-5.2085,4.8431-5.2003,6.5978 .2392,23.516 .2032,41.289 1.1584,65.002 1.4811,17.334 9.7534,29.006 17.016,39.541 3.2539,5.0479 7.9577,10.492 9.3782,16.328z"/></g><g fill="#bd0728" font-family="helvetica" stroke="#fff" stroke-width="1.638" font-size="25.614px"><text x="465.114" y="269.487"><tspan>G</tspan></text><text x="488.065" y="269.607"><tspan>U</tspan></text><text x="516.053" y="269.59"><tspan>A</tspan></text><text x="539.532" y="269.542"><tspan>M</tspan></text></g><g fill-rule="evenodd"><path fill="#239e46" d="m468.19,202.22c-1.1584,2.2348 2.7116-.6521 3.5881-.9634 5.0151-1.7842 6.9796-8.1199 15.619-4.3057 6.801,2.9376 15.93,1.2304 11.158,4.2058-5.8966,3.5291-17.641,7.44-17.872,24.945 .9814,1.7121 1.0519,1.4418 1.8727-.3932 1.7842-4.0796 10.296-15.16 14.508-14.238 1.6957,.4391 6.6748-5.007 6.7912-3.4521 .4506,4.3713-6.7617,13.214-6.6847,25.051 .018,2.741 3.3898,3.6291 5.0151,1.7007 1.6155-1.7007 2.5248-3.4587 5.3543-5.6934 5.002-4.1042 3.6209-21.511 4.2385-20.693 3.5406,4.5842 4.0845,17.513 9.3585,22.816 4.3827,4.4073 7.9266,2.297 6.9698-3.824-1.9038-12.27-7.7038-8.7622-10.464-21.453-.5603-2.4724-.698-4.7055 2.5739-3.6716 4.001,1.16 6.3488,3.0179 9.334,7.5317 2.9835,4.3041 8.5787,8.4296 11.813,10.963 5.641,4.3352 7.6218,.5505 4.93-5.0135-2.9802-6.2423-9.6977-11.418-15.807-13.682-4.6285-1.5991-6.2784-1.7514-10.356-2.5346-1.1338-.2408-2.3052-2.5625-.29-3.8453 4.3188-2.6395 9.4863-5.6214 14.726-5.7721 5.0446-.1278 9.0407,3.9158 12.578,4.9283 7.055,1.8498 7.0189-2.628 3.9092-5.949-2.5543-2.8049-7.9577-7.5072-13.002-6.8829-10.178,1.2485-9.5355,.9634-15.779,5.1052-2.2905,1.35-4.8333,2.8394-3.8846,1.2026 2.2839-4.1091 .1557-3.403 3.6848-7.5842 2.7443-3.0638 4.7596-5.2691 7.4793-6.0342 2.5838-.6226 5.9965-3.3669 7.0533-4.7596 2.5346-3.5062 .349-5.5083-3.5684-4.3336-3.3997,.9355-5.2281,3.1982-7.5645,3.824-5.4821,1.7269-9.9058,14.269-10.581,16.046-.8733,2.1217-1.8399,1.0699-1.6613-.7275 .7913-8.8556 1.5401-23.682-1.5876-29.786-4.7071-9.0001-4.2713-4.8031-6.0785-.5325-2.7214,6.7848-1.776,13.109-.0623,19.759 .7487,3.3194 3.5291,7.0959 4.0272,9.701 .3588,2.0464-1.1878-.6373-2.0873-1.8645-2.9557-4.5236-5.1167-7.5825-9.9303-10.045-3.2883-2.0824-12.147-2.3626-15.231-1.4139-1.3353,.4112 1.4811,2.3167 2.6739,3.2637 3.2276,2.5657 9.3438,3.3653 13.459,5.895 3.534,2.1725 6.2243,3.5701 7.3957,6.5733 .4882,2.2299 1.2124,5.5394-.2572,5.4592-3.8552-.2212-9.8468-3.557-22.148-2.1856-6.2816,.8307-11.736,6.2046-15.213,12.663z"/><path stroke-width="1.25" d="m495,314.75h3.569v5.949h-3.569z"/><path fill="#fdf9ff" d="m477.28,275.12c14.154,19.599 36.841,31.025 37.295,39.926-14.334-.0573-29.871,.007-44.206-.0491 10.156-12.211 16.346-20.455 6.9108-39.877z"/><path fill="#a68861" d="m464.41,315.49c19.23,4.2877 42.187,6.6503 56.851-.5997 .1196,4.2861-4.7678,10.456-8.7753,10.456h-36.898c4.286-.6144 6.7306-1.9218 13.704-2.2839l-19.59,.2408c-2.1643,.0803-6.0113-5.7311-5.2904-7.8135z"/><path fill="#be0027" stroke-width="1.25" d="m508.02,400.84c1.9546,1.0715 5.0446,1.0142 6.7846,.0852 111.1-59.135 111.16-221.3 .1622-279.61-2.0627-1.0871-5.0594-1.0281-7.109,.0844-108.26,59.262-108.55,219.59 .1622,279.44zm.5521-13.35c1.7072,.9454 4.404,.8962 5.9228,.0737 92.997-54.731 94.136-199.32 .1409-251.15-1.799-1.3214-4.4155-.9075-6.2046,.0745-89.067,52.672-94.034,191.3 .1409,251z"/></g><g fill="#bd0728" font-family="helvetica" font-size="25.614px"><text x="465.114" y="269.487"><tspan>G</tspan></text><text x="488.065" y="269.607"><tspan>U</tspan></text><text x="516.053" y="269.59"><tspan>A</tspan></text><text x="539.532" y="269.542"><tspan>M</tspan></text></g></g></svg>