<svg xmlns="http://www.w3.org/2000/svg" viewBox="0 0 512 512"><g fill-rule="evenodd" stroke-width="1.25"><path fill="#be0027" d="m0 0h512v512h-512z"/><path fill="#3b5aa3" d="m20.48 20.48h470v471.04h-470z"/></g><g transform="translate(-256.29 5.09)"><g fill-rule="evenodd"><path fill="#cbe0e5" d="m508.15 391.04c1.818.997 4.694.944 6.312.079 103.36-54.986 103.42-205.78.151-259.99-1.918-1.01-4.707-.956-6.613.078-100.72 55.1-100.99 204.19.151 259.84z"/><path fill="#add2d9" d="m508.15 393.76c1.607 1.31 4.847 1.184 6.312.079 76.17-57.03 76.62-92.57 73.24-92.57l-150.75.079c-2.305.002 1.328 36.09 71.2 92.41"/><path fill="#fdf9a1" d="m448.89 329.52c6.536-1.701 14.431-2.15 20.863 1.286 5.715 2.987 9.03 2.957 15.183 3.039 6.444.087 11.51 4.822 18.478 5.01 12.829.336 18.235 6.698 8.261 6.711-4.715.007-14.823-3.142-19.7-2.466-10.192 1.052-16.659 3.308-26.25 13.976l11.08 7.596c9.588-3.908 11.195-8.303 16.504-8.479 5.998-.193 8.04-3.909 14.972-3.917 7.881 1.432 18.555-.978 24.807-2.379 11.09-2.579 5.815-10.328-.908-13.14-5.435-2.313-15.609-.085-21.927-2.381-4.783-1.856-.847-4.841 1.72-5.479 2.595-.478 5.379.37 8.607.89 5.762.498 12.999-.056 18.06-.849 10.46-1.62 10.02-4.688 15.07-4.769 3.683-.177 6.486-1.278 8.995-3.08 2.949-1.974 6.02-6.02 9.59-5.869l9.568.406-13.477 30.31-38.07 38.753-19.718 7.479-43.34-28.21-21.856-33.523 3.491-.908z"/><path fill="#179a3b" d="m498.7 300.05l87.03-.405 1.53-7.711s-3.105-.464-5.61-.61c-3.124-.192-8.48 3.269-12.07 3.247-2.538-.018-5.446-4.56-7.987-4.466-4.435-.041-4.83 3.951-9.01 4.061-3.374-.115-4.81-2.692-9.178-2.435-4.581.258-4.24 2.779-10.03 2.637-7.643-.192-10.713-6.825-16.828-6.899-10.207-.121-10.54 9.741-17.849 12.581"/><path fill="#fdf9a1" d="m498.7 301.91l89.58-.456v-2.433l-91.61.456 2.038 2.433"/><path fill="#a79270" d="m535.51 328.83c1.38 5.29 2.834 7.089 8.398 8.438 5.495 1.352 13.879-4.01 8.669-9.178-4.961-4.812-10.174-6.03-14.618-10.368-9.354-9.241-23.446-31.882-23.459-47.849-.011-13.712-1.334-41.855-1.343-68.51.007-1.727-5.209 4.843-5.2 6.598.239 23.516.203 41.29 1.158 65 1.481 17.334 9.753 29.01 17.02 39.541 3.254 5.05 7.958 10.492 9.378 16.328"/></g><g fill="#bd0728" font-family="helvetica" stroke="#fff" stroke-width="1.638" font-size="25.614"><text x="465.11" y="269.49"><tspan>G</tspan></text><text x="488.06" y="269.61"><tspan>U</tspan></text><text x="516.05" y="269.59"><tspan>A</tspan></text><text x="539.53" y="269.54"><tspan>M</tspan></text></g><g fill-rule="evenodd"><path fill="#239e46" d="m468.19 202.22c-1.158 2.235 2.712-.652 3.588-.963 5.02-1.784 6.98-8.12 15.619-4.306 6.801 2.938 15.93 1.23 11.158 4.206-5.897 3.529-17.641 7.44-17.872 24.945.981 1.712 1.052 1.442 1.873-.393 1.784-4.08 10.296-15.16 14.508-14.238 1.696.439 6.675-5.01 6.791-3.452.451 4.371-6.762 13.214-6.685 25.05.018 2.741 3.39 3.629 5.02 1.701 1.615-1.701 2.525-3.459 5.354-5.693 5-4.104 3.621-21.511 4.238-20.693 3.541 4.584 4.084 17.513 9.358 22.816 4.383 4.407 7.927 2.297 6.97-3.824-1.904-12.27-7.704-8.762-10.464-21.453-.56-2.472-.698-4.706 2.574-3.672 4 1.16 6.349 3.02 9.334 7.532 2.984 4.304 8.579 8.43 11.813 10.963 5.641 4.335 7.622.55 4.93-5.01-2.98-6.242-9.698-11.418-15.807-13.682-4.629-1.599-6.278-1.751-10.356-2.535-1.134-.241-2.305-2.563-.29-3.845 4.319-2.639 9.486-5.621 14.726-5.772 5.04-.128 9.04 3.916 12.578 4.928 7.05 1.85 7.02-2.628 3.909-5.949-2.554-2.805-7.958-7.507-13-6.883-10.178 1.249-9.535.963-15.779 5.105-2.29 1.35-4.833 2.839-3.885 1.203 2.284-4.109.156-3.403 3.685-7.584 2.744-3.064 4.76-5.269 7.479-6.03 2.584-.623 5.996-3.367 7.05-4.76 2.535-3.506.349-5.508-3.568-4.334-3.4.935-5.228 3.198-7.564 3.824-5.482 1.727-9.906 14.269-10.581 16.05-.873 2.122-1.84 1.07-1.661-.727.791-8.856 1.54-23.682-1.588-29.786-4.707-9-4.271-4.803-6.079-.532-2.721 6.785-1.776 13.11-.062 19.759.749 3.319 3.529 7.096 4.03 9.701.359 2.046-1.188-.637-2.087-1.864-2.956-4.524-5.117-7.583-9.93-10.04-3.288-2.082-12.147-2.363-15.231-1.414-1.335.411 1.481 2.317 2.674 3.264 3.228 2.566 9.344 3.365 13.459 5.895 3.534 2.173 6.224 3.57 7.396 6.573.488 2.23 1.212 5.539-.257 5.459-3.855-.221-9.847-3.557-22.15-2.186-6.282.831-11.736 6.205-15.213 12.663"/><path stroke-width="1.25" d="m495 314.75h3.569v5.949h-3.569z"/><path fill="#fdf9ff" d="m477.28 275.12c14.15 19.599 36.841 31.02 37.29 39.926-14.334-.057-29.871.007-44.21-.049 10.156-12.211 16.346-20.455 6.911-39.877"/><path fill="#a68861" d="m464.41 315.49c19.23 4.288 42.19 6.65 56.851-.6.12 4.286-4.768 10.456-8.775 10.456h-36.898c4.286-.614 6.731-1.922 13.704-2.284l-19.59.241c-2.164.08-6.01-5.731-5.29-7.813z"/><path fill="#be0027" stroke-width="1.25" d="m508.02 400.84c1.955 1.072 5.04 1.014 6.785.085 111.1-59.13 111.16-221.3.162-279.61-2.063-1.087-5.059-1.028-7.109.084-108.26 59.26-108.55 219.59.162 279.44m.552-13.35c1.707.945 4.404.896 5.923.074 93-54.731 94.14-199.32.141-251.15-1.799-1.321-4.416-.907-6.205.075-89.07 52.672-94.03 191.3.141 251z"/></g><g fill="#bd0728" font-family="helvetica" font-size="25.614"><text x="465.11" y="269.49"><tspan>G</tspan></text><text x="488.06" y="269.61"><tspan>U</tspan></text><text x="516.05" y="269.59"><tspan>A</tspan></text><text x="539.53" y="269.54"><tspan>M</tspan></text></g></g></svg>