<svg width="512" xmlns="http://www.w3.org/2000/svg" viewBox="0 0 512 512" height="512"><defs><clipPath id="clipPath9847" clipPathUnits="userSpaceOnUse"><path fill-opacity=".67" d="m218.92,2.6033h494.61v494.6097h-494.61z"/></clipPath></defs><g fill-rule="evenodd" stroke-width="1.25" clip-path="url(#clipPath9847)" transform="matrix(1.0352 0 0 1.0352 -226.62 -2.6949)"><path fill="#fff" d="M 0,136.96 H959.78 V345.89 H0 z"/><g fill="#087bce"><path d="m-619.34-472.52h618.06v107.96h-618.06z" transform="matrix(-1.5468 0 0 -1.5468 .00042 -233.71)"/><path d="m-620.86-257.75h620.86v104.98h-620.86z" transform="matrix(-1.5468 0 0 -1.5468 .00042 -233.71)"/><path d="m533.77,391.48-57.27,41.67 21.95-67.34-57.33-41.6 70.83,.07 21.83-67.38 21.83,67.38 70.83-.05-57.34,41.58 21.94,67.35z" transform="matrix(.33337 -.00162 -.00363 .31606 304.57 139.65)"/><path d="m533.77,391.48-57.27,41.67 21.95-67.34-57.33-41.6 70.83,.07 21.83-67.38 21.83,67.38 70.83-.05-57.34,41.58 21.94,67.35z" transform="matrix(.33337 -.00162 -.00363 .31606 442.66 175.2)"/><path d="m533.77,391.48-57.27,41.67 21.95-67.34-57.33-41.6 70.83,.07 21.83-67.38 21.83,67.38 70.83-.05-57.34,41.58 21.94,67.35z" transform="matrix(.33337 -.00162 -.00363 .31606 442.66 101.37)"/><path d="m533.77,391.48-57.27,41.67 21.95-67.34-57.33-41.6 70.83,.07 21.83-67.38 21.83,67.38 70.83-.05-57.34,41.58 21.94,67.35z" transform="matrix(.33337 -.00162 -.00363 .31606 137.77 175.2)"/><path d="m533.77,391.48-57.27,41.67 21.95-67.34-57.33-41.6 70.83,.07 21.83-67.38 21.83,67.38 70.83-.05-57.34,41.58 21.94,67.35z" transform="matrix(.33337 -.00162 -.00363 .31606 137.77 101.37)"/></g></g></svg>