<svg xmlns="http://www.w3.org/2000/svg" viewBox="0 0 512 512" xmlns:xlink="http://www.w3.org/1999/xlink"><defs><path id="1" d="m533.77 391.48l-57.27 41.67 21.95-67.34-57.33-41.6 70.83.07 21.83-67.38 21.83 67.38 70.83-.05-57.34 41.58 21.94 67.35z"/><clipPath id="0"><path d="m218.92 2.603h494.61v494.61h-494.61z"/></clipPath></defs><g fill-rule="evenodd" stroke-width="1.25" clip-path="url(#0)" transform="matrix(1.0352 0 0 1.0352-226.62-2.695)"><path fill="#fff" d="M 0,136.96 H959.78 V345.89 H0 z"/><g fill="#087bce"><g transform="matrix(-1.5468 0 0-1.5468 0-233.71)"><path d="m-619.34-472.52h618.06v107.96h-618.06z"/><path d="m-620.86-257.75h620.86v104.98h-620.86z"/></g><use transform="matrix(.33337-.00162-.00363.31606 304.57 139.65)" xlink:href="#1"/><use transform="matrix(.33337-.00162-.00363.31606 442.66 175.2)" xlink:href="#1"/><use transform="matrix(.33337-.00162-.00363.31606 442.66 101.37)" xlink:href="#1"/><use transform="matrix(.33337-.00162-.00363.31606 137.77 175.2)" xlink:href="#1"/><use transform="matrix(.33337-.00162-.00363.31606 137.77 101.37)" xlink:href="#1"/></g></g></svg>