<svg xmlns="http://www.w3.org/2000/svg" viewBox="0 0 512 512" xmlns:xlink="http://www.w3.org/1999/xlink"><defs><path id="0" d="m410.94 120.56l-4.063 1.016.156 7.5-5 1.094-3.497 6.614 2.159 2.044c.111.221-1.703 4.892-1.625 4.892s1.323 1.762 1.323 1.762l1.328 4.063 3.359.468.86 4.766 5.312.859 4.922 3.516.312 2.188 5.625.156 3.829 1.25 13.359-1.563 1.797-2.812.156-3.828 7.188-.235.657-6.105h3.809l-.474-6.875 3.177.286-.82-3.295-1.975-2.683-.39-4.218-5.625-5.625-1.25-7.344s-3.594-1.641-3.594-1.719-.234-4.922-.234-4.922l4.062-5.703-.39-2.265-3.75-.079-2.813 2.344s-3.75.391-3.75.469v1.719s.938 3.203.938 3.281-4.297 0-4.297 0l-.157-5.078-6.093-3.047s-5.703 3.906-5.703 3.984-.313 4.532-.313 4.532l-2.734.781-2.813-4.219-4.922-1.875-2.656-.156-.078 3.281 5.156 6.797-.468 3.984" stroke-opacity=".996" fill="#faf703" fill-opacity=".996" fill-rule="evenodd"/><path id="1" d="m433.436,129.59a1.3258,1.3258 0 0,1 1.326,1.326 1.3258,1.3258 0 0,1 -1.326,1.326 1.3258,1.3258 0 0,1 -1.326-1.326 1.3258,1.3258 0 0,1 1.326-1.326" fill="#7a6b3a"/><path id="2" d="m449.23,148.04-1.105-4.088"/><path id="3" d="m400.84 138.21l5.856-.332 1.105 5.303 1.988 1.768.332 9.723 1.878.773.553-3.867 4.53-.331.883 7.844-1.104.995.442 1.215 5.413-.11s1.216-2.1 1.326-2.1c.111 0 3.094-.331 3.094-.221 0 .111 1.215 2.321 1.215 2.321l.884-2.984s2.873-1.215 2.873-1.104c0 .11 2.32 3.756 2.32 3.756l3.977-.552-2.43-2.32-.995-5.083 5.524-2.983 2.21 3.757s2.099.11 1.989 0c-.111-.111-2.431-4.309-2.431-4.309v-8.839l4.199-5.745 5.855-.663v-2.431l-5.855-5.414-1.547-7.513-3.315-1.657-.884.994-3.646.332 3.646 5.414v3.535l1.658.884-.332 9.723s-4.088.552-4.088.663c0 .11-.331 5.413-.331 5.413l-2.541 2.542s-1.437 5.082-1.547 5.082c-.111 0-2.431 3.093-2.431 3.093l-4.53.111s-2.651-2.541-2.651-2.652c0-.11-.442-3.756-.442-3.756s-1.768-.553-1.879-.553c-.11 0-.994-4.088-.994-4.088l-3.094-1.767-.22-2.431-2.984-1.326s-.331-2.21-.442-2.32c-.11-.111-1.436-.994-1.546-.994-.111 0-.111-6.077-.111-6.077l2.652-.442-1.485-1.94-.504-1.706v-1.768l2.21-2.21s-3.978-.552-3.978-.442c0 .111-3.866 1.768-3.866 1.658.11 0-.111 7.181-.111 7.181l-4.53 1.437-3.646 5.855 1.878 1.658z" stroke="#544b21"/><path id="4" d="m436.53 110.36l7.734-5.965-2.541-.332-2.873 2.651-3.425.553 1.105 3.093"/><path id="5" d="m431.34 106.83l-4.198.11-.332-2.32 4.53 2.21"/><path id="6" d="m401.06 147.04l2.099-5.303-1.878-3.646-1.878 5.414 1.657 3.535"/><path id="7" d="m423.71 148.04l2.983-1.768-.111-3.425-2.872-.663-1.106-1.105 3.205.553 3.977-.332 1.326-.663c-.552 1.437-.994 1.326-1.105 1.326-.11 0-2.209 1.105-2.209 1.105l.11 3.315s6.85.883 6.74.883c-.111 0 0 1.326-.221 1.326s-7.07-1.547-7.07-1.547l-4.309 2.652.663-1.657"/><clipPath id="8"><path d="m0 0h512v512h-512z"/></clipPath></defs><g clip-path="url(#8)"><path fill="#fff" fill-rule="evenodd" stroke-width="1.25" d="m-248.62 144.7h998.76v181.5h-998.76z"/><g transform="matrix(1.0814 0 0 1.0814-248.56-3.155)"><g fill-rule="evenodd"><g stroke-width="1.25"><path fill="#003e9f" d="m.785 288.73h925.36v187.64h-925.36z"/><path fill="#d61517" d="m-1.33 2.917h926.85v157.34h-926.85z"/></g><path fill="#fff" stroke="#e5141d" stroke-linecap="round" stroke-width="4" d="m99.55 313.18c91.17-33.06 192.26-50.898 291.06-51.15 98.8-.254 199.56 15.548 299.12 51.915l74.11-152.4-52.09-92.49s-92.94 38.91-93.7 38.91-65.53-72.66-65.53-72.66l-83.17 51.22-78.1-60.883-73.47 59.944-85.76-50.53-62.56 75.78-93.78-40.874-50.2 91.64 74.06 151.57z" transform="matrix(.26544 0 0 .2604 359.68 74.41)"/></g><g stroke-width="1.25"><g fill-rule="evenodd"><g fill="#00a7bd" stroke="#0084fd"><path d="m103.35 305.55l-55.3-148.75 51.57-83.74 86.84 38.3 28.36 156.41c-41.45 10.136-62.64 16.965-111.47 37.787z" transform="matrix(.21501.1527-.15566.21093 537.56 64.727)"/><path d="m103.49 305.85l-63.37-145.84 50.17-78.25 89.981 31.708 37.2 154.81c-40.18 10.938-68.34 20.333-113.98 37.58z" transform="matrix(.25199.08183-.08342.24721 448.13 56.57)"/><path stroke-opacity=".996" d="m103.12 305.58l-67.32-145.16 44.991-80.13 93.26 41.38 39.41 149.75c-42.583 8.976-65.13 16.31-110.34 34.15z" transform="matrix(.26544 0 0 .2604 359.68 74.41)"/></g><path fill="#fff" stroke="#fff" d="m82.19 225.18c21.2 4.375 36.3 4.532 55.31-.781 22.709-9.479 30.73-22.24 38.13-32.5 3.438 21.667-.156 41.3-26.09 55.16-23.282 10.938-54.688 4.063-67.34-21.875z" transform="matrix(.26544 0 0 .2604 359.68 74.41)"/></g><g transform="matrix(.26544 0 0 .2604 359.68 74.41)"><g stroke="#544b20"><use xlink:href="#0"/><g fill="none"><use xlink:href="#2"/><path d="m452.33,141.3-1.878-2.762" id="F"/></g></g><g fill-rule="evenodd"><g fill="#544b20"><use xlink:href="#3"/><g stroke="#544b20"><use xlink:href="#7"/><path d="m440.95 127.49l-3.977 3.093-2.541 4.53-1.326.221-3.867-5.193-4.419.111s-2.431 6.076-2.431 6.187c0 .11-1.768-.221-1.768-.221l-4.64-5.082s-1.437-2.542-1.216-2.542 11.601.111 11.601.111l-.11-5.524s-1.768-.553-2.652-1.105c.663-.221 6.298-.221 6.298-.221l-2.431 1.657v4.751l10.05.11 3.425-.883z" id="P"/></g></g><path fill="#796a3a" fill-opacity=".996" d="m420.836,130.14a1.3258,1.3258 0 0,1 1.326,1.326 1.3258,1.3258 0 0,1 -1.326,1.326 1.3258,1.3258 0 0,1 -1.326-1.326 1.3258,1.3258 0 0,1 1.326-1.326" id="9"/><use xlink:href="#1"/></g><g stroke="#544b20"><path fill="none" d="m413.55 121.3c4.198-1.694 7.181-3.056 12.374-3.535 4.898-.516 8.692.184 13.04.994" id="A"/><g fill="#544b20" fill-rule="evenodd"><path d="m415.87 112.35h-3.425l-4.862-5.193 2.763.332 3.204 1.436 2.32 3.425z" id="G"/><use xlink:href="#4"/><path d="m431.97 111.46l-12.12.451.11-1.326 4.42-.442.552-1.767s1.326-.11 1.326 0c0 .111.994 1.657.994 1.657l4.309.773.412.654z" id="H"/><use xlink:href="#5"/><path d="m424.26 104.73l-.332 2.319-4.087.663 4.419-2.982z" id="I"/><use xlink:href="#6"/><path d="m405.37 149.81l2.541-6.298-4.861 5.082 2.32 1.216z" transform="translate(-.11.11)" id="J"/></g></g></g><g transform="matrix(.26544 0 0 .2604 341.88 74.989)"><g stroke="#544b20"><use xlink:href="#0"/><g fill="none"><use xlink:href="#2"/><use id="K" xlink:href="#F"/></g></g><g fill-rule="evenodd"><g fill="#544b20"><use xlink:href="#3"/><g stroke="#544b20"><use xlink:href="#7"/><use id="Q" xlink:href="#P"/></g></g><use id="B" xlink:href="#9"/><use xlink:href="#1"/></g><g stroke="#544b20"><use id="C" xlink:href="#A"/><g fill="#544b20" fill-rule="evenodd"><use id="L" xlink:href="#G"/><use xlink:href="#4"/><use id="M" xlink:href="#H"/><use xlink:href="#5"/><use id="N" xlink:href="#I"/><use xlink:href="#6"/><use id="O" xlink:href="#J"/></g></g></g><path stroke-opacity=".996" fill="#001070" stroke="#001071" fill-rule="evenodd" d="m103.35 305.55l-58.07-148.45 52.68-79.85 88.34 35.07 29.41 156.08c-40.76 10.493-63.48 17.573-112.36 37.15z" transform="matrix(.23818.11495-.11717.23366 492.03 57.35)"/><g transform="matrix(.26544 0 0 .2604 351.11 90.44)"><g stroke="#544b20"><use xlink:href="#0"/><g fill="none"><use xlink:href="#2"/><use xlink:href="#K"/></g></g><g fill-rule="evenodd"><g fill="#544b20"><use xlink:href="#3"/><g stroke="#544b20"><use xlink:href="#7"/><use xlink:href="#Q"/></g></g><use xlink:href="#B"/><use xlink:href="#1"/></g><g stroke="#544b20"><use xlink:href="#C"/><g fill="#544b20" fill-rule="evenodd"><use xlink:href="#L"/><use xlink:href="#4"/><use xlink:href="#M"/><use xlink:href="#5"/><use xlink:href="#N"/><use xlink:href="#6"/><use xlink:href="#O"/></g></g></g><g fill-rule="evenodd"><g stroke-opacity=".997" fill="#a0210c" stroke="#a0210c"><path d="m476.9 225.82l-4.136 4.931.318 4.136 8.59-.159c2.757-.663 3.446-1.644 3.977-2.784.848-1.405.265-2.174.477-4.056l-9.226-2.068z" transform="matrix(.26544 0 0 .2604 359.68 74.41)"/><path d="m476.58 226.14l-3.5 3.34v3.818l7.636-.159c2.757-.663 3.127-1.167 3.658-2.306.848-1.406.584-1.379.796-3.261l-8.59-1.432z" transform="matrix(.26544 0 0 .2604 365.26 77.56)"/><path d="m476.9 225.98l-3.977 4.136.159 3.181 8.113.318c2.757-.663 2.332-.53 3.181-1.988.848-1.405.584-1.697.796-3.579l-8.272-2.068z" transform="matrix(.26544 0 0 .2604 374.08 74.829)"/><path d="m477.85 225.51l-4.613 3.976v3.977l8.59.796c2.757-.663 2.969-1.485 3.659-2.466.848-1.405.424-1.538.636-3.42l-8.272-2.863z" transform="matrix(.26544 0 0 .2604 380.12 76.9)"/></g><g stroke="#000"><g transform="matrix(.26544 0 0 .2604 359.68 74.41)"><path fill="#a0210c" d="m497.1 131.02l16.225 10.976c3.05-2.579 9.395-1.016 11.88-.301 4.462 1.187 7.607 3.88 11.504 4.596 7.128 1.826 15.668 3.087 22.14 2.371 6.469-.715 11.902-4.161 16.677-6.666v-1.59h-3.181c-5.164 1.894-12.4 1.998-17.941 1.256s-7.03-3.274-15.305-5.71l-.636-1.591c10.04.486 12.08.221 16.282-1.647 4.109-1.112 5.96-3.543 8.28-5.222l-.065-1.88-3.02-.159c-3.894 2.644-6.376 3.122-12.342 2.565-5.429-.56-10.319-3.71-13.961-3.776-3.863.03-3.681-1.851-7.417-2.036-5.939-.53-12.358.277-17.978 1.656-6.734 2.068-7.742 3.817-11.135 7.158z"/><path d="m500.25 128.58c1.553.36 3.295.816 4.565 1.553 1.271.737.942.722 2.307 1.741-.219-1.317-.157-1.223-1.035-2.258-.879-1.036-2.323-1.977-3.483-2.825l-2.354 1.789z"/><path d="m513.81 140.44c.031-1.427-.69-2.667-1.224-3.906-.533-1.239-.973-2.291-1.977-3.53 1.255.36 1.946.909 3.01 2.211 1.066 1.303 1 2.605 1.223 4.471l-1.035.754z"/><path d="m516.91 123.03c.377.989 1.116 1.668 1.742 3.778.541 1.917.799 4.6.799 4.6-.204-1.428.157-3.044-.047-4.472-.204-1.427-.973-2.667-1.177-4.095l-1.317.189z"/></g><path d="m529.81 123.88l.659 7.908.754-7.437-1.413-.471z" transform="matrix(.26544 0 0 .2604 359.76 74.41)"/><path d="m526.7 140.35c.314-1.286.251-2.573.094-3.86-.157-1.286-.597-2.384-1.036-3.859 1.255 1.098 1.758 2.479 2.448 3.954 0 1.474-.376 2.76-1.506 3.765z" transform="matrix(.26544 0 0 .2604 359.73 74.39)"/><path d="m540.45 137.06c.047 0 .401 2.683-.199 4.613s-1.024 2.071-2.154 3.107c1.506-1.129 2.824-1.506 3.295-2.73.471-1.883-.754-4.707-.942-4.99z" transform="matrix(.26544 0 0 .2604 359.71 74.34)"/><path d="m542.05 133.86c-.941.157-1.129-3.829-1.694-5.743.408-.22.816-.157 1.224.753.439.534.313 3.327.47 4.99z" transform="matrix(.26544 0 0 .2604 359.91 74.51)"/><path d="m552.22 133.01l.377-3.295 1.035-.094v2.824c0 .095-1.317.659-1.412.565z" transform="matrix(.26544 0 0 .2604 359.68 74.32)"/><path d="m551.56 141.86c.597 1 1.663 2.197 1.789 3.295s-.22 1.632-1.035 3.295l1.506.094c.815-1.333 1.067-2.29.942-3.341-.126-1.052-.629-2.103-1.695-2.966l-1.507-.377z" transform="matrix(.26544 0 0 .2604 359.66 74.32)"/><path d="m562.57 142.7l.376 4.612 1.224-.659-.282-3.953h-1.318z" transform="matrix(.26544 0 0 .2604 359.71 74.32)"/></g><path fill="#dc9103" stroke="#544b20" d="m496.09 131.83c-3.672 1.083-5 3.151-6.797 4.938l-10.346-5.341c-1.678 1.419-2.324 3.446-1.517 5.521.807 2.074 4.053 5.321 6.361 6.926-.578 2.865-1.43 5.03-2.439 7.54-1.125 2.825-3.54 6.394-3.61 7.54-.138 1.312-.558 4.123 1.367 4.872 1.926.749 8.118-.519 10.184-.38-.336 1.127-1.14 3.098-.866 3.944s.829 1.128 2.51 1.177c-.484 1.047-1.529 2.374-1.028 2.999 1.298 1 2.785.828 4.04.75-1.973 2.332-6.902 6.82-8.501 8.825-1.692 2.332-1.837 4.851 1.442 4.604-1.22 1.378-2.393 2.709-2.206 3.899.282 1.425.985 2.381 3.329 1.555-1.387 3.197-.476 6.07.013 9.403-1.184 2.525-.681 4.863-.975 7.763-2.412 1.392-2.712 3.206-4.28 6-1.414 3.03-4.046 3.857-5.506 10.358l9.465 2.406c.348-1.337 1.586-2.205 1.934-3.541.347-1.337.32-3 .151-4.48 1.878-2.772 5.678-8.498 6.899-11.551 2.067-1.125 3.57-1.829 5.121-1.829s2.538.938 4.183 1.829c-.728 2.573-2.769 5.379-2.887 8.984v9.947c-.412 2.471-3.169 2.504-4.332 9.946l8.503 2.246c1.444-2.503 3.731-2.848 4.331-3.85l.614-10.334c1.082-4.878 7.792-8.911 7.889-14.211 2.408-.033 3.317.217 4.272-.285 1.283-.455 1.723-1.191 2.725-2.115.386 1.595 1.617 1.735 2.66 1.735 1.042 0 3.116-1.5 3.972-2.11.602.865.921 1.683 2.179 1.985s4.813-.24 6.259-.595l-6.987 11.652c-.261 1.123.088 1.824-.454 3.135-.508 1.177-1.532 1.744-1.993 2.828l7.921 1.929 1.264-3.4c1.679-.721 3.03-1.114 3.913-2.21s.874-3.178 1.381-4.368c2.706-2 6.959-6.349 9.946-9.946 2.028.349 4.9 2.058 5.99 4.612.153 2.74.351 7.779-.856 11.27l-5.134 8.182-.582 1.342 8.08 2.935 5.134-4.01.2-5.721c2.579-4.642 6.269-7.179 9.786-10.11 0-.161.375-6.144.234-6.378-.869-.674-1.456-.269-1.763-1.506-.306-1.236-.097-4.63.066-5.96.508-.642 1.579-1.379 1.524-1.927-1.399-1.565-.971-5.616-.542-8.775-.105-3.597 4.715-7.85 5.454-9.946l.301-3.776c-.493-.928-1.219-1.481-1.243-2.269-.023-.787.937-2.091 1.524-2.926l1.022-1.777-.16-9.305c-.286-1-1.135-2.572-1.937-2.733-.803-.16-1.98.759-2.876 1.77l-4.645 3.495c-2.227.694-4.173.967-8.09-.027l-5.972.121c-3.136.893-4.772 1.037-7.721-.274l-3.536.058c-1.102.612-2.627 1.597-3.823 1.833-1.195.235-2.813.283-4.01-.091-9.128.626-6.861 1.298-9.47 1.877-2.095-.405-1.423-1.466-9.566-1.544l-3.228-.963c-4.073-2.751-7.209-7.143-9.922-12.192 8.484-2.477 12.04-5.05 14.618-10.949l-11.997.457-16.965-11.491z" transform="matrix(.26544 0 0 .2604 359.68 74.41)"/><g stroke="#000"><path d="m491.65 147.82l3.397 1.467c.415.503 1.219 1.083 1.751 1.117.531.033.984-.519 1.438-.915l3.127-1.669c-1.853-.273-2.418-1.445-4.388-1.445s-3.355 1.054-5.325 1.445z" transform="matrix(.26544 0 0 .2604 359.74 74.18)"/><path d="m506.77 147.78c1.104.664 3.107 1.992 4.758 1.992 1.807-.156 1.778-1.445 4.366-2.304l3.796-3.128c-2.29.026-7.237.483-9.956 1.33-2.29.612-2.822 1.537-2.964 2.11z" transform="matrix(.26544 0 0 .2604 359.68 74.41)"/><path d="m497.93 187.57c0 .286-.471.495-.707.156-.291-4.058-1.168-6.905-2.396-10.06 1.386 2.404 2.537 6.293 3.103 9.909z" transform="matrix(.26544 0 0 .2604 359.72 74.47)"/><path d="m507.27 204.53c-1.544.16-2.152-.072-3.696.088-.17-4.083-.185-8.752-.16-11.663.589.074 2.311 1.906 3.33 4.793.266 2.13.65 4.534.526 6.782z" transform="matrix(.26544 0 0 .2604 359.82 74.38)"/><g transform="matrix(.26544 0 0 .2604 359.68 74.41)"><path d="m518.03 188.2c.696.195 1.666.196 1.893-.273.295-.87-.583-1.818-.912-2.883-1.145-2.287-1.78-4.768-2.259-5.843-.504-.324-1.047-.295-.927.241.657 2.034 1.783 7.974 2.205 8.758z"/><path d="m528.98 186.97c.075.493-1.569-.224-1.846-.785-.024-1.089-2.237-9.05-1.871-9.362.465-.232 1.907 2.662 2.372 3.994.109.788 1.079 3.685 1.345 6.153z"/><path d="m527.42 203.38c-.039.557 1.25.099 1.758-.32 1.473-2.347 3.298-4.811 3.834-5.751.323-1 1.935-7.4 1.438-7.349-.176-.185-1.578 3.172-3.388 6.485-1.883 3.374-3.662 6.612-3.642 6.935z"/><path d="m538.4 199.95c-.536.263 1.076-5.529 1.204-6.555.295-1.622.706-4.533 1.352-8.303.789 5.265-.142 10.921-2.556 14.858z"/><path d="m544.98 182.22c-.352.313-5.066-7.63-4.633-7.669.121-.352 3.951 4.971 4.498 5.908.228.444.454 1.122.135 1.761z"/><path d="m556.01 188.12c-.352-.271-.211-2.807-.909-5.592-.697-2.785-1.883-5.469-1.648-6.231.22-.401.987-.216 1.598.32.291 1.515.972 7.328 1.771 11.11-.011.366-.411.615-.812.394z"/><path d="m563.72 181.06c-.377-.409 1.024 2.727 2.044 6.453 1.02 3.727 1.542 10.31 1.79 9.842.701-.474.582-1.065 1.674-1.305 1.091-.239 5.152.146 4.916-.132-2.512-2.281-4.829-4.172-6.56-6.648-1.73-2.476-2.875-5.734-3.864-8.21z"/><path d="m573.22 215.04c-.788.579-2.279 1.04-2.715.799-2.395-5.077-3.736-8.396-7.07-13.825-.859-1.289-2.997-1.09-2.876-1.598.08-.586 1.201-.351 1.926-1.201.725-.849.82-1.924 1.269-2.314-.98 2.343 1.594 5.936 3.036 8.787.959.266 1.722.26 2.173.838.107.274-1.037.468-.891 1.445l2.432 4.992c.792.606 2.01.94 3.195 1.118.309.28-.242.678-.48.959z"/></g></g><g transform="matrix(.26544 0 0 .2604 359.68 74.41)"><path stroke="#000" d="m578.2 170.66c1.503.085 2.861.219 3.307-.56.919-1.929 1.452-3.519.833-4.773-2.356.193-4.136 1.299-5.098 3.416.031.735.205 1.278.958 1.917z"/><path fill="#fdfcfc" stroke="#fdfcfc" d="m602.95 169.21c23.293 5.02 44.856 10.724 66.42 17.815 21.562 7.091 42.09 15.566 62.958 24.733l-34.939 71.953c-19.502-7.565-38.758-13.663-58.01-20-19.256-6.342-38.02-11.951-57.52-18.05l21.1-76.45z"/><path fill="#e6151e" stroke="#e6151e" d="m598.31 186.21s32.532 7.399 64.06 17.734c31.524 10.334 62.28 23.603 62.16 23.603-.245 0-19.814 41.1-19.814 41.1-18.997-7.705-38.974-14.922-58.705-21.404-19.732-6.482-39.463-12.719-59.684-17.489l11.986-43.539z"/><path stroke-opacity=".996" stroke="#010001" d="m601.01 206.31c3.2-1.822 5.367-2.314 7.09-5.317h11.52l.149 4.282c2.831 1.379 4.48 2.906 7.311 4.284 2.831 1.379 6.844 2.609 9.675 3.988l24.814 2.216c3.323.541 8.124 1.969 11 3.692 2.88 1.724 4.727 3.89 6.278 6.647 5.095 1.822 10.192 2.905 15.435 3.693 5.244.787 11.816 1.132 16.912 1.329 2.511.887 2.511 2.216 1.329 3.545 0 0-2.807 3.877-10.469 3.914s-16.34-4.357-20.11-3.766c.148 2.363 4.136 7.238 8.715 9.158l-.147 11.224-2.069 1.921-2.215-1.477c1.773-2.658 1.181-5.761.443-8.419-1.699-2.511-1.92-3.545-5.095-3.692-3.767-.74-6.5-1.774-11.3-5.171l-1.773.296c-1.034 1.871-2.068 3.151-4.431 4.283l-4.874-.295s-11.226-2.511-11.226-2.659c0-.147-.148-1.772.148-1.92.295-.148 3.84-.147 4.135-.147 2.364.738 7.386.738 7.386.738l-.148-4.284 7.533-.443c-1.526-5.317-2.02-8.715-9.01-9.896l-21.861.591.296 3.102c-5.465-.739-15.361-.871-20.416.836-2.954.296-7.205 1.822-9.125 1.822l-2.216-.59c-1.477-.443-1.477-.886-.886-2.216 9.453-.739 10.931-1.477 13.737-2.806.148-.886-1.034-2.807-1.477-2.955-5.908-.295-10.635.148-12.259-.147-2.511-.739-5.909-2.068-5.909-2.216s-.443-2.363-.295-2.363c.147 0 3.841 1.034 3.987 1.034 3.989.738 10.931.443 12.556-.443l.148-3.25c-.148-1.477-1.182-2.806-1.478-2.954-.295-.148-6.499-.886-8.715-.886-3.594-.64-3.052-2.462-3.101-4.284z"/></g><g fill-opacity=".996"><path stroke-opacity=".996" fill="#fdfdfd" stroke="#010001" d="m648.72 232.6c3.348 1.083 5.81 1.427 10.783 1.772l7.533-.443c-1.526-5.317-2.02-8.715-9.01-9.896l-21.861.591.296 3.102c6.647 2.51 9.896 3.889 12.259 4.874z" transform="matrix(.26544 0 0 .2604 359.68 74.41)"/><path fill="#011171" stroke="#011171" d="m101.18 306.6l-63.57-141.57 47.27-83.31 91.45 34.667 40.2 154.53c-42.02 10.284-68.887 19.04-115.35 35.686z" transform="matrix(.26185.04268-.04351.25688 403.49 61.862)"/><path stroke-opacity=".996" fill="#fbfd10" stroke="#fdc605" d="m78.28 151.27l13.75 12.344-3.906 19.844 19.06-6.719 14.06 12.344 3.125-18.281 15.625-5.157-11.875-13.12 3.906-18.12s-18.75 5.624-18.75 5.468-12.499-12.187-12.656-12.03c-.156.156-4.063 17.19-4.063 17.19l-18.281 6.25z" transform="matrix(.26544 0 0 .2604 359.68 74.41)"/></g><g fill="#ffc500"><path d="m78.59 151.42l61.25 14.06-15.782 5.468-14.218-11.719s11.562 29.375 11.406 29.22-13.437-11.407-13.906-11.875l2.344-17.344s-21.25 24.06-21.25 23.907c0-.157 4.063-19.688 4.063-19.688l-13.898-12.03z" transform="matrix(.26544 0 0 .2604 359.68 74.41)"/><path d="m96.41 145.02l13.594 13.28-9.375-30.781-4.219 17.499z" transform="matrix(.26544 0 0 .2604 359.68 74.41)" id="D"/><path d="m113.13 140.02c.156.156-3.282 17.968-3.126 17.968 1.562-1.875 22.03-23.594 21.876-23.594-.157 0-18.438 5.782-18.75 5.626" transform="matrix(.26544 0 0 .2604 359.68 74.41)" id="E"/></g><g transform="matrix(.2062.16399-.16716.20228 546.72 62.47)"><path stroke-opacity=".996" fill="#fbfd10" stroke="#fdc605" fill-opacity=".996" d="m78.28 151.27l13.75 12.344-3.906 19.844 19.06-6.719 14.06 12.344 3.125-18.281 15.625-5.157-11.875-13.12 3.906-18.12s-18.75 5.624-18.75 5.468-12.499-12.187-12.656-12.03c-.156.156-4.063 17.19-4.063 17.19l-18.281 6.25z"/><path fill="#ffc500" d="m78.59 151.42l61.25 14.06-15.782 5.468-14.218-11.719s11.562 29.375 11.406 29.22-13.437-11.407-13.906-11.875l2.344-17.344s-21.25 24.06-21.25 23.907c0-.157 4.063-19.688 4.063-19.688l-13.898-12.03z"/></g><g fill="#fdc605" transform="matrix(.77682.6178-.64194.7768 315.08-217.55)"><use xlink:href="#D"/><use xlink:href="#E"/></g><g fill="#e6141d" stroke="#e6141d" transform="matrix(.26544 0 0 .2604 359.68 74.41)"><path d="m175.37 121.34c21.456-10.454 45.538-18.61 70.935-22.17 24.41-3.558 48.84-3.866 73.908-3.812 0 0 3.284 39.13 3.284 39.461-19.704.164-34.388-.209-69.15 4.374-34.564 4.886-48.802 9.07-69.82 17.283l-9.16-35.14z"/><path fill-opacity=".996" d="m193.74 190.62c-.329 0 10.855 41.4 10.855 41.4 20.635-5.309 41.598-9.305 62.56-12.315s43.26-4.725 63.56-6.093l-3.595-40.38c-21.401-1.314-45.792-1.314-67.85 1.641-22.06 2.956-43.476 8.193-65.53 15.746z"/></g></g></g><g fill-rule="evenodd"><g stroke="#e5141d" stroke-width="4"><path fill="#fff" d="m95.25 318.45h598.87v391.42c-15.22 152.44-158.96 266.38-290.3 265.51-141.79 6.31-298.57-111.99-309.88-266.82l1.305-390.12z" transform="matrix(.26544 0 0 .2604 359.68 74.41)"/><path fill="#d61517" d="m95.25 318.45h598.87v391.42c-15.22 152.44-158.96 266.38-290.3 265.51-141.79 6.31-298.57-111.99-309.88-266.82l1.305-390.12z" transform="matrix(.25438 0 0 .24955 364.04 81.44)"/></g><g fill="#fff" stroke-width="1.25"><path d="m452.68 334.03h110.6v122.35h-110.6z" transform="matrix(.26544 0 0 .2604 359.68 74.41)"/><path d="m225.6 334.03h110.6v122.35h-110.6z" transform="matrix(.26544 0 0 .2604 359.39 74.41)"/><g transform="matrix(.26544 0 0 .2604 359.68 74.41)"><path d="m109.11 460.43h112.08v119.42h-112.08z"/><path d="m339.51 460.43h109.49v119.42h-109.49z"/><path d="m566.58 460.43h112.83v119.42h-112.83z"/><path d="m452.68 583.52h110.6v121.25h-110.6z"/><path d="m224.5 583.52h110.6v121.25h-110.6z"/></g><path d="m339.51 708.81h109.49v121.25h-109.49z" transform="matrix(.26544 0 0 .2604 359.68 74.32)"/><g stroke="#fff" transform="matrix(.26544 0 0 .2604 359.68 74.41)"><path d="m567.28 709.5l.028 119.12 67.34.089c30.721-45.75 41.24-90.31 44.13-119.18-.498 0-111.06-.054-111.5-.026z"/><path d="m453.36 834.44l.017 119.54c47.9-10.147 86.91-33.28 109.25-50.26l.009-69.32-109.27.048z"/><path d="m225.34 834.21l-.158 67.54c37.624 27.974 80.59 44.35 109.21 50.64l.019-118.14-109.07-.044z"/><path d="m109.32 709.34c3.572 46.8 23.13 90.21 44.14 119.57l67.06-.115.012-119.5-111.21.051z"/></g></g></g></g></g></svg>