<svg xmlns="http://www.w3.org/2000/svg" viewBox="0 0 512 512" xmlns:xlink="http://www.w3.org/1999/xlink"><defs><path id="1" d="m297.09 104.97c6.1-1.639 9.354-1.974 15.188-3.158 3.641 11.977 11.578 18.241 19.562 16.838 7.19-1.157 17.438-6.421 15.338-21.399 5.942-.356 9.356-.514 15.673-.498-.117 45.2-2.964 92.84-7.129 137.28-3 32.785 6.06 40.636 7.422 57.697 1.52 19.795.264 35.37 1.668 76.25-8.06-40.11-12.981-55.871-15.885-74.44-2.681-17.866 3.817-24.71-8.936-58-16.47-42.05-31.17-86.92-42.901-130.58z" fill="#fff"/><clipPath id="0"><path d="m177.17 0h708.66v708.66h-708.66z"/></clipPath></defs><g fill-rule="evenodd" stroke-width="1.25" clip-path="url(#0)" transform="matrix(.72249 0 0 .72249-128 0)"><path fill="#fff" d="m0 0h1063v708.66h-1063z"/><path fill="#329203" d="m0 472.44h1063v236.22h-1063z"/><path fill="#e77300" d="m0 0h1063v236.22h-1063z"/><g transform="matrix(.36664 0 0 .36664 398.44 219.6)"><ellipse fill="#08399c" cx="362.9" cy="367.47" rx="305" ry="305"/><use transform="matrix(.00502.99999-.99999.00502 730.68 1.42)" xlink:href="#1"/><use transform="matrix(1 .00147-.00147 1 .54-.432)" xlink:href="#1"/><use transform="matrix(.96639.25708-.25708.96639 106.82-81.28)" xlink:href="#1"/><use transform="matrix(.86719.49798-.49798.86719 231.61-132.65)" xlink:href="#1"/><use transform="matrix(.70912.70508-.70508.70912 365.43-150.03)" xlink:href="#1"/><use transform="matrix(.50429.86354-.86354.50429 498.42-132.47)" xlink:href="#1"/><use transform="matrix(.25962.96571-.96571.25962 625.23-79.73)" xlink:href="#1"/><use transform="matrix(.00114-1 1 .00114-3.573 732.2)" xlink:href="#1"/><use transform="matrix(-.2505.96812-.96812-.2505 812.14 107.03)" xlink:href="#1"/><use transform="matrix(-.49233.87041-.87041-.49233 864.39 231.62)" xlink:href="#1"/><use transform="matrix(-.70082.71334-.71334-.70082 882.64 365.59)" xlink:href="#1"/><use transform="matrix(-.86165.5075-.5075-.86165 865.58 499.81)" xlink:href="#1"/><use transform="matrix(-.96422.2651-.2651-.96422 813.82 625.94)" xlink:href="#1"/><use transform="matrix(-.99998.00579-.00579-.99998 731.48 733.66)" xlink:href="#1"/><use transform="matrix(-.96693-.25503.25503-.96693 623.49 816.62)" xlink:href="#1"/><use transform="matrix(-.86828-.49608.49608-.86828 498.84 868.23)" xlink:href="#1"/><use transform="matrix(-.71002-.70418.70418-.71002 364.58 885.91)" xlink:href="#1"/><use transform="matrix(-.50285-.86437.86437-.50285 230.11 868.12)" xlink:href="#1"/><use transform="matrix(-.25926-.96581.96581-.25926 103.96 815.51)" xlink:href="#1"/><use transform="matrix(.96694-.25498.25498.96694-81.74 105.25)" xlink:href="#1"/><use transform="matrix(.26159-.96518.96518.26159-85.75 623.7)" xlink:href="#1"/><use transform="matrix(.50026-.86588.86588.50026-136.26 499.69)" xlink:href="#1"/><use transform="matrix(.7076-.70661.70661.7076-153.29 365.34)" xlink:href="#1"/><use transform="matrix(.86909-.49466.49466.86909-134.21 228.65)" xlink:href="#1"/></g></g></svg>