<svg xmlns="http://www.w3.org/2000/svg" viewBox="0 0 512 512"><defs><clipPath id="clipPath9097" clipPathUnits="userSpaceOnUse"><path fill-opacity=".67" d="m177.17,0h708.66v708.66h-708.66z"/></clipPath></defs><g fill-rule="evenodd" stroke-width="1.25" clip-path="url(#clipPath9097)" transform="matrix(.72249 0 0 .72249 -128 -0)"><path fill="#fff" d="m0,0h1063v708.66h-1063z"/><path fill="#329203" d="m0,472.44h1063v236.22h-1063z" transform="translate(0 .00028)"/><path fill="#e77300" d="m0,0h1063v236.22h-1063z"/><g transform="matrix(.36664 0 0 .36664 398.44 219.6)"><ellipse fill="#08399c" cx="362.9" cy="367.47" rx="305" ry="305" d="m 667.90271,367.47272 c 0,168.44796 -136.55407,305.00201 -305.00204,305.00201 -168.44798,0 -305.002049,-136.55405 -305.002049,-305.00201 0,-168.44796 136.554069,-305.002017 305.002049,-305.002017 168.44797,0 305.00204,136.554057 305.00204,305.002017 z"/><path fill="#fff" d="m297.09,104.97c6.1-1.639 9.354-1.974 15.188-3.158 3.641,11.977 11.578,18.241 19.562,16.838 7.19-1.157 17.438-6.421 15.338-21.399 5.942-.3557 9.356-.5144 15.673-.4981-.117,45.205-2.964,92.837-7.129,137.28-3.004,32.785 6.062,40.636 7.422,57.697 1.52,19.795 .264,35.374 1.668,76.254-8.058-40.105-12.981-55.871-15.885-74.435-2.681-17.866 3.817-24.71-8.936-58-16.47-42.047-31.171-86.918-42.901-130.58z" transform="matrix(.00502 .99999 -.99999 .00502 730.68 1.42)"/><path fill="#fff" d="m297.09,104.97c6.1-1.639 9.354-1.974 15.188-3.158 3.641,11.977 11.578,18.241 19.562,16.838 7.19-1.157 17.438-6.421 15.338-21.399 5.942-.3557 9.356-.5144 15.673-.4981-.117,45.205-2.964,92.837-7.129,137.28-3.004,32.785 6.062,40.636 7.422,57.697 1.52,19.795 .264,35.374 1.668,76.254-8.058-40.105-12.981-55.871-15.885-74.435-2.681-17.866 3.817-24.71-8.936-58-16.47-42.047-31.171-86.918-42.901-130.58z" transform="matrix(1 .00147 -.00147 1 .54011 -.43154)"/><path fill="#fff" d="m297.09,104.97c6.1-1.639 9.354-1.974 15.188-3.158 3.641,11.977 11.578,18.241 19.562,16.838 7.19-1.157 17.438-6.421 15.338-21.399 5.942-.3557 9.356-.5144 15.673-.4981-.117,45.205-2.964,92.837-7.129,137.28-3.004,32.785 6.062,40.636 7.422,57.697 1.52,19.795 .264,35.374 1.668,76.254-8.058-40.105-12.981-55.871-15.885-74.435-2.681-17.866 3.817-24.71-8.936-58-16.47-42.047-31.171-86.918-42.901-130.58z" transform="matrix(.96639 .25708 -.25708 .96639 106.82 -81.284)"/><path fill="#fff" d="m297.09,104.97c6.1-1.639 9.354-1.974 15.188-3.158 3.641,11.977 11.578,18.241 19.562,16.838 7.19-1.157 17.438-6.421 15.338-21.399 5.942-.3557 9.356-.5144 15.673-.4981-.117,45.205-2.964,92.837-7.129,137.28-3.004,32.785 6.062,40.636 7.422,57.697 1.52,19.795 .264,35.374 1.668,76.254-8.058-40.105-12.981-55.871-15.885-74.435-2.681-17.866 3.817-24.71-8.936-58-16.47-42.047-31.171-86.918-42.901-130.58z" transform="matrix(.86719 .49798 -.49798 .86719 231.61 -132.65)"/><path fill="#fff" d="m297.09,104.97c6.1-1.639 9.354-1.974 15.188-3.158 3.641,11.977 11.578,18.241 19.562,16.838 7.19-1.157 17.438-6.421 15.338-21.399 5.942-.3557 9.356-.5144 15.673-.4981-.117,45.205-2.964,92.837-7.129,137.28-3.004,32.785 6.062,40.636 7.422,57.697 1.52,19.795 .264,35.374 1.668,76.254-8.058-40.105-12.981-55.871-15.885-74.435-2.681-17.866 3.817-24.71-8.936-58-16.47-42.047-31.171-86.918-42.901-130.58z" transform="matrix(.70912 .70508 -.70508 .70912 365.43 -150.03)"/><path fill="#fff" d="m297.09,104.97c6.1-1.639 9.354-1.974 15.188-3.158 3.641,11.977 11.578,18.241 19.562,16.838 7.19-1.157 17.438-6.421 15.338-21.399 5.942-.3557 9.356-.5144 15.673-.4981-.117,45.205-2.964,92.837-7.129,137.28-3.004,32.785 6.062,40.636 7.422,57.697 1.52,19.795 .264,35.374 1.668,76.254-8.058-40.105-12.981-55.871-15.885-74.435-2.681-17.866 3.817-24.71-8.936-58-16.47-42.047-31.171-86.918-42.901-130.58z" transform="matrix(.50429 .86354 -.86354 .50429 498.42 -132.47)"/><path fill="#fff" d="m297.09,104.97c6.1-1.639 9.354-1.974 15.188-3.158 3.641,11.977 11.578,18.241 19.562,16.838 7.19-1.157 17.438-6.421 15.338-21.399 5.942-.3557 9.356-.5144 15.673-.4981-.117,45.205-2.964,92.837-7.129,137.28-3.004,32.785 6.062,40.636 7.422,57.697 1.52,19.795 .264,35.374 1.668,76.254-8.058-40.105-12.981-55.871-15.885-74.435-2.681-17.866 3.817-24.71-8.936-58-16.47-42.047-31.171-86.918-42.901-130.58z" transform="matrix(.25962 .96571 -.96571 .25962 625.23 -79.732)"/><path fill="#fff" d="m297.09,104.97c6.1-1.639 9.354-1.974 15.188-3.158 3.641,11.977 11.578,18.241 19.562,16.838 7.19-1.157 17.438-6.421 15.338-21.399 5.942-.3557 9.356-.5144 15.673-.4981-.117,45.205-2.964,92.837-7.129,137.28-3.004,32.785 6.062,40.636 7.422,57.697 1.52,19.795 .264,35.374 1.668,76.254-8.058-40.105-12.981-55.871-15.885-74.435-2.681-17.866 3.817-24.71-8.936-58-16.47-42.047-31.171-86.918-42.901-130.58z" transform="matrix(.00114 -1 1 .00114 -3.573 732.2)"/><path fill="#fff" d="m297.09,104.97c6.1-1.639 9.354-1.974 15.188-3.158 3.641,11.977 11.578,18.241 19.562,16.838 7.19-1.157 17.438-6.421 15.338-21.399 5.942-.3557 9.356-.5144 15.673-.4981-.117,45.205-2.964,92.837-7.129,137.28-3.004,32.785 6.062,40.636 7.422,57.697 1.52,19.795 .264,35.374 1.668,76.254-8.058-40.105-12.981-55.871-15.885-74.435-2.681-17.866 3.817-24.71-8.936-58-16.47-42.047-31.171-86.918-42.901-130.58z" transform="matrix(-.2505 .96812 -.96812 -.2505 812.14 107.03)"/><path fill="#fff" d="m297.09,104.97c6.1-1.639 9.354-1.974 15.188-3.158 3.641,11.977 11.578,18.241 19.562,16.838 7.19-1.157 17.438-6.421 15.338-21.399 5.942-.3557 9.356-.5144 15.673-.4981-.117,45.205-2.964,92.837-7.129,137.28-3.004,32.785 6.062,40.636 7.422,57.697 1.52,19.795 .264,35.374 1.668,76.254-8.058-40.105-12.981-55.871-15.885-74.435-2.681-17.866 3.817-24.71-8.936-58-16.47-42.047-31.171-86.918-42.901-130.58z" transform="matrix(-.49233 .87041 -.87041 -.49233 864.39 231.62)"/><path fill="#fff" d="m297.09,104.97c6.1-1.639 9.354-1.974 15.188-3.158 3.641,11.977 11.578,18.241 19.562,16.838 7.19-1.157 17.438-6.421 15.338-21.399 5.942-.3557 9.356-.5144 15.673-.4981-.117,45.205-2.964,92.837-7.129,137.28-3.004,32.785 6.062,40.636 7.422,57.697 1.52,19.795 .264,35.374 1.668,76.254-8.058-40.105-12.981-55.871-15.885-74.435-2.681-17.866 3.817-24.71-8.936-58-16.47-42.047-31.171-86.918-42.901-130.58z" transform="matrix(-.70082 .71334 -.71334 -.70082 882.64 365.59)"/><path fill="#fff" d="m297.09,104.97c6.1-1.639 9.354-1.974 15.188-3.158 3.641,11.977 11.578,18.241 19.562,16.838 7.19-1.157 17.438-6.421 15.338-21.399 5.942-.3557 9.356-.5144 15.673-.4981-.117,45.205-2.964,92.837-7.129,137.28-3.004,32.785 6.062,40.636 7.422,57.697 1.52,19.795 .264,35.374 1.668,76.254-8.058-40.105-12.981-55.871-15.885-74.435-2.681-17.866 3.817-24.71-8.936-58-16.47-42.047-31.171-86.918-42.901-130.58z" transform="matrix(-.86165 .5075 -.5075 -.86165 865.58 499.81)"/><path fill="#fff" d="m297.09,104.97c6.1-1.639 9.354-1.974 15.188-3.158 3.641,11.977 11.578,18.241 19.562,16.838 7.19-1.157 17.438-6.421 15.338-21.399 5.942-.3557 9.356-.5144 15.673-.4981-.117,45.205-2.964,92.837-7.129,137.28-3.004,32.785 6.062,40.636 7.422,57.697 1.52,19.795 .264,35.374 1.668,76.254-8.058-40.105-12.981-55.871-15.885-74.435-2.681-17.866 3.817-24.71-8.936-58-16.47-42.047-31.171-86.918-42.901-130.58z" transform="matrix(-.96422 .2651 -.2651 -.96422 813.82 625.94)"/><path fill="#fff" d="m297.09,104.97c6.1-1.639 9.354-1.974 15.188-3.158 3.641,11.977 11.578,18.241 19.562,16.838 7.19-1.157 17.438-6.421 15.338-21.399 5.942-.3557 9.356-.5144 15.673-.4981-.117,45.205-2.964,92.837-7.129,137.28-3.004,32.785 6.062,40.636 7.422,57.697 1.52,19.795 .264,35.374 1.668,76.254-8.058-40.105-12.981-55.871-15.885-74.435-2.681-17.866 3.817-24.71-8.936-58-16.47-42.047-31.171-86.918-42.901-130.58z" transform="matrix(-.99998 .00579 -.00579 -.99998 731.48 733.66)"/><path fill="#fff" d="m297.09,104.97c6.1-1.639 9.354-1.974 15.188-3.158 3.641,11.977 11.578,18.241 19.562,16.838 7.19-1.157 17.438-6.421 15.338-21.399 5.942-.3557 9.356-.5144 15.673-.4981-.117,45.205-2.964,92.837-7.129,137.28-3.004,32.785 6.062,40.636 7.422,57.697 1.52,19.795 .264,35.374 1.668,76.254-8.058-40.105-12.981-55.871-15.885-74.435-2.681-17.866 3.817-24.71-8.936-58-16.47-42.047-31.171-86.918-42.901-130.58z" transform="matrix(-.96693 -.25503 .25503 -.96693 623.49 816.62)"/><path fill="#fff" d="m297.09,104.97c6.1-1.639 9.354-1.974 15.188-3.158 3.641,11.977 11.578,18.241 19.562,16.838 7.19-1.157 17.438-6.421 15.338-21.399 5.942-.3557 9.356-.5144 15.673-.4981-.117,45.205-2.964,92.837-7.129,137.28-3.004,32.785 6.062,40.636 7.422,57.697 1.52,19.795 .264,35.374 1.668,76.254-8.058-40.105-12.981-55.871-15.885-74.435-2.681-17.866 3.817-24.71-8.936-58-16.47-42.047-31.171-86.918-42.901-130.58z" transform="matrix(-.86828 -.49608 .49608 -.86828 498.84 868.23)"/><path fill="#fff" d="m297.09,104.97c6.1-1.639 9.354-1.974 15.188-3.158 3.641,11.977 11.578,18.241 19.562,16.838 7.19-1.157 17.438-6.421 15.338-21.399 5.942-.3557 9.356-.5144 15.673-.4981-.117,45.205-2.964,92.837-7.129,137.28-3.004,32.785 6.062,40.636 7.422,57.697 1.52,19.795 .264,35.374 1.668,76.254-8.058-40.105-12.981-55.871-15.885-74.435-2.681-17.866 3.817-24.71-8.936-58-16.47-42.047-31.171-86.918-42.901-130.58z" transform="matrix(-.71002 -.70418 .70418 -.71002 364.58 885.91)"/><path fill="#fff" d="m297.09,104.97c6.1-1.639 9.354-1.974 15.188-3.158 3.641,11.977 11.578,18.241 19.562,16.838 7.19-1.157 17.438-6.421 15.338-21.399 5.942-.3557 9.356-.5144 15.673-.4981-.117,45.205-2.964,92.837-7.129,137.28-3.004,32.785 6.062,40.636 7.422,57.697 1.52,19.795 .264,35.374 1.668,76.254-8.058-40.105-12.981-55.871-15.885-74.435-2.681-17.866 3.817-24.71-8.936-58-16.47-42.047-31.171-86.918-42.901-130.58z" transform="matrix(-.50285 -.86437 .86437 -.50285 230.11 868.12)"/><path fill="#fff" d="m297.09,104.97c6.1-1.639 9.354-1.974 15.188-3.158 3.641,11.977 11.578,18.241 19.562,16.838 7.19-1.157 17.438-6.421 15.338-21.399 5.942-.3557 9.356-.5144 15.673-.4981-.117,45.205-2.964,92.837-7.129,137.28-3.004,32.785 6.062,40.636 7.422,57.697 1.52,19.795 .264,35.374 1.668,76.254-8.058-40.105-12.981-55.871-15.885-74.435-2.681-17.866 3.817-24.71-8.936-58-16.47-42.047-31.171-86.918-42.901-130.58z" transform="matrix(-.25926 -.96581 .96581 -.25926 103.96 815.51)"/><path fill="#fff" d="m297.09,104.97c6.1-1.639 9.354-1.974 15.188-3.158 3.641,11.977 11.578,18.241 19.562,16.838 7.19-1.157 17.438-6.421 15.338-21.399 5.942-.3557 9.356-.5144 15.673-.4981-.117,45.205-2.964,92.837-7.129,137.28-3.004,32.785 6.062,40.636 7.422,57.697 1.52,19.795 .264,35.374 1.668,76.254-8.058-40.105-12.981-55.871-15.885-74.435-2.681-17.866 3.817-24.71-8.936-58-16.47-42.047-31.171-86.918-42.901-130.58z" transform="matrix(.96694 -.25498 .25498 .96694 -81.737 105.25)"/><path fill="#fff" d="m297.09,104.97c6.1-1.639 9.354-1.974 15.188-3.158 3.641,11.977 11.578,18.241 19.562,16.838 7.19-1.157 17.438-6.421 15.338-21.399 5.942-.3557 9.356-.5144 15.673-.4981-.117,45.205-2.964,92.837-7.129,137.28-3.004,32.785 6.062,40.636 7.422,57.697 1.52,19.795 .264,35.374 1.668,76.254-8.058-40.105-12.981-55.871-15.885-74.435-2.681-17.866 3.817-24.71-8.936-58-16.47-42.047-31.171-86.918-42.901-130.58z" transform="matrix(.26159 -.96518 .96518 .26159 -85.746 623.7)"/><path fill="#fff" d="m297.09,104.97c6.1-1.639 9.354-1.974 15.188-3.158 3.641,11.977 11.578,18.241 19.562,16.838 7.19-1.157 17.438-6.421 15.338-21.399 5.942-.3557 9.356-.5144 15.673-.4981-.117,45.205-2.964,92.837-7.129,137.28-3.004,32.785 6.062,40.636 7.422,57.697 1.52,19.795 .264,35.374 1.668,76.254-8.058-40.105-12.981-55.871-15.885-74.435-2.681-17.866 3.817-24.71-8.936-58-16.47-42.047-31.171-86.918-42.901-130.58z" transform="matrix(.50026 -.86588 .86588 .50026 -136.26 499.69)"/><path fill="#fff" d="m297.09,104.97c6.1-1.639 9.354-1.974 15.188-3.158 3.641,11.977 11.578,18.241 19.562,16.838 7.19-1.157 17.438-6.421 15.338-21.399 5.942-.3557 9.356-.5144 15.673-.4981-.117,45.205-2.964,92.837-7.129,137.28-3.004,32.785 6.062,40.636 7.422,57.697 1.52,19.795 .264,35.374 1.668,76.254-8.058-40.105-12.981-55.871-15.885-74.435-2.681-17.866 3.817-24.71-8.936-58-16.47-42.047-31.171-86.918-42.901-130.58z" transform="matrix(.7076 -.70661 .70661 .7076 -153.29 365.34)"/><path fill="#fff" d="m297.09,104.97c6.1-1.639 9.354-1.974 15.188-3.158 3.641,11.977 11.578,18.241 19.562,16.838 7.19-1.157 17.438-6.421 15.338-21.399 5.942-.3557 9.356-.5144 15.673-.4981-.117,45.205-2.964,92.837-7.129,137.28-3.004,32.785 6.062,40.636 7.422,57.697 1.52,19.795 .264,35.374 1.668,76.254-8.058-40.105-12.981-55.871-15.885-74.435-2.681-17.866 3.817-24.71-8.936-58-16.47-42.047-31.171-86.918-42.901-130.58z" transform="matrix(.86909 -.49466 .49466 .86909 -134.21 228.65)"/></g></g></svg>