<svg xmlns="http://www.w3.org/2000/svg" viewBox="0 0 512 512" xmlns:xlink="http://www.w3.org/1999/xlink"><defs><path id="1" d="m992.13 330.3c-11.12 7.201-20.668 24.03-50.2 24.03-59.05 0-73.817-35.433-118.11-35.433-29.525 0-44.29 35.433-73.816 35.433-59.05 0-73.819-35.433-118.11-35.433-29.528 0-44.29 35.433-73.819 35.433-59.06 0-73.819-35.433-118.11-35.433-29.528 0-44.29 35.433-73.819 35.433-59.06 0-73.819-35.433-118.11-35.433-29.529 0-44.29 35.433-73.819 35.433-59.06 0-73.82-35.433-118.11-35.433-29.528 0-38.39 25.25-56.1 25.25v45.617c17.716 0 26.575-25.25 56.1-25.25 44.29 0 59.06 35.433 118.11 35.433 29.527 0 44.29-35.433 73.819-35.433 44.29 0 59.06 35.433 118.11 35.433 29.527 0 44.29-35.433 73.819-35.433 44.29 0 59.06 35.433 118.11 35.433 29.527 0 44.29-35.433 73.819-35.433 44.29 0 59.05 35.433 118.11 35.433 29.527 0 44.29-35.433 73.816-35.433 44.29 0 59.06 35.433 118.11 35.433 29.533 0 39.08-10.04 50.2-17.242v-52.41" fill="#000063"/><path id="2" d="m478.35 549.21c0 9.785-7.932 17.717-17.717 17.717-9.785 0-17.717-7.932-17.717-17.717 0-9.785 7.932-17.717 17.717-17.717 9.785 0 17.717 7.932 17.717 17.717z" fill="#fff"/><path id="3" d="m566.93 776.28c0 11.58-7.932 20.967-17.717 20.967-9.785 0-17.717-9.387-17.717-20.967s7.932-20.967 17.717-20.967c9.785 0 17.717 9.387 17.717 20.967"/><path id="4" d="m614.51 1201.8c0 7.954-16.12 14.403-36.01 14.403-19.886 0-36.01-6.448-36.01-14.403 0-7.954 16.12-14.403 36.01-14.403 19.886 0 36.01 6.448 36.01 14.403"/><path id="5" d="m496.06 549.21l17.717 70.866 35.433-53.15-17.717 88.58 35.433-35.433-35.433 88.58 35.433-35.433-35.433 88.58 35.433-35.433-35.433 106.3 35.433-35.433-35.433 106.3 35.433-35.433-35.433 106.3-17.716 53.15-17.717 17.72-17.717-17.72-17.716-53.15-35.433-106.3 35.433 35.433-35.433-106.3 35.433 35.433-35.433-106.3 35.433 35.433-35.433-88.58 35.433 35.433-35.433-88.58 35.433 35.433-17.717-88.58 35.433 53.15 17.717-70.866z" stroke-width="8.25" stroke="#fff" fill-rule="evenodd" fill="#006d00"/><path id="6" d="m425.2 868.11l70.86 106.3 70.87-106.3" stroke="#000" stroke-width="1.25" fill="none"/><path id="7" d="m425.2 726.38l70.866 106.3 70.866-106.3" stroke="#000" stroke-width="1.25" fill="none"/><path id="8" d="m425.2 620.08l70.866 88.58 70.866-88.58" stroke="#000" stroke-width="1.25" fill="none"/><path id="9" d="m496.06 549.21v496.07" stroke="#000" stroke-width="1.25" fill="none"/><path id="A" d="m425.2 673.23l70.866 88.58 70.866-88.58" stroke="#000" stroke-width="1.25" fill="none"/><path id="B" d="m425.2 797.24l70.866 106.3 70.866-106.3" stroke="#000" stroke-width="1.25" fill="none"/><clipPath id="0"><path d="m0 0h512v512h-512z"/></clipPath></defs><g clip-path="url(#0)"><g fill-rule="evenodd" transform="scale(1.0321)"><path fill="#fff" d="m0 0h992.13v496.06h-992.13z"/><use transform="matrix(1 0 0 .92873 0 124.62)" xlink:href="#1"/><use transform="matrix(1 0 0 .92873 0 42.35)" xlink:href="#1"/><use transform="matrix(1 0 0 .92873 0-39.921)" xlink:href="#1"/><use transform="matrix(1 0 0 .92873 0-122.19)" xlink:href="#1"/><use transform="matrix(1 0 0 .92873 0-204.46)" xlink:href="#1"/><use transform="matrix(1 0 0 .92873 0-286.73)" xlink:href="#1"/></g><g stroke-width="1.25" transform="matrix(.52678 0 0 .63663 0 .063)"><path fill="#000063" fill-rule="evenodd" d="m0 0h496.06v248.03h-496.06z"/><g transform="scale(8.2677)"><g fill="#fff"><path d="m0 0v3.354l53.29 26.646h6.708v-3.354l-53.29-26.646h-6.708m60 0v3.354l-53.29 26.646h-6.708v-3.354l53.29-26.646h6.708"/><path d="m25 0v30h10v-30h-10m-25 10v10h60v-10h-60"/></g><g fill="#c00"><path d="m0 12v6h60v-6h-60m27-12v30h6v-30h-6"/><path d="m0 30l20-10h4.472l-20 10h-4.472m0-30l20 10h-4.472l-15.528-7.764v-2.236m35.528 10l20-10h4.472l-20 10h-4.472m24.472 20l-20-10h4.472l15.528 7.764v2.236"/></g></g></g><g transform="translate(-382)"><g transform="matrix(1.0321 0 0 1.0321 0-15.937)"><path fill="#a24300" stroke="#fff" fill-rule="evenodd" stroke-width="6.935" d="m814.96-301.18l-17.72 708.66c0 37.3 80.1 37.3 88.58 0l-17.717-708.66h-53.15z" transform="matrix(.2 0 0 .475 575.17 274.56)"/><g transform="matrix(.7252 0 0 .6231 202.06 41.43)"><g transform="matrix(-.31451.10485-.13829-.30324 1021.76 459.84)"><use xlink:href="#5"/><path fill="none" stroke="#000" stroke-width="1.25" d="m496.06 549.21v496.07"/><use xlink:href="#6"/><path fill="none" stroke="#000" stroke-width="1.25" d="m425.2 797.24l70.866 106.3 70.866-106.3"/><use xlink:href="#7"/><path fill="none" stroke="#000" stroke-width="1.25" d="m425.2 673.23l70.866 88.58 70.866-88.58"/><use xlink:href="#8"/><path fill="none" stroke="#000" stroke-width="1.25" d="m442.91 566.93l53.15 106.3 53.15-106.3"/></g><g transform="matrix(.23652-.28186.29496.22762 330.39 103.71)"><use xlink:href="#5"/><use xlink:href="#9"/><use xlink:href="#6"/><path fill="none" stroke="#000" stroke-width="1.25" d="m425.2 797.24l70.866 106.3 70.866-106.3"/><use xlink:href="#7"/><use xlink:href="#A"/><use xlink:href="#8"/><path fill="none" stroke="#000" stroke-width="1.25" d="m442.91 566.93l53.15 106.3 53.15-106.3"/></g><g transform="matrix(.15164.33524-.3329.16731 1008.99-131.56)"><use xlink:href="#5"/><use xlink:href="#9"/><use xlink:href="#6"/><use xlink:href="#B"/><use xlink:href="#7"/><use xlink:href="#A"/><use xlink:href="#8"/><path fill="none" stroke="#000" stroke-width="1.25" d="m442.91 566.93l53.15 106.3 53.15-106.3"/></g><g transform="matrix(-.20952.30246-.3147-.19945 1141.4 167.58)"><g transform="translate(177.17-224.05)"><use xlink:href="#5"/><use xlink:href="#9"/><use xlink:href="#6"/><use xlink:href="#B"/><use xlink:href="#7"/><use xlink:href="#A"/><use xlink:href="#8"/></g><path fill="none" stroke="#000" stroke-width="1.25" d="m442.91 566.93l53.15 106.3 53.15-106.3" transform="translate(177.17-224.05)" id="H"/></g><g transform="matrix(-.20772-.25838.23618-.23515 689.99 567.28)"><g transform="translate(177.17-224.05)"><use xlink:href="#5"/><use xlink:href="#9"/><use xlink:href="#6"/><use xlink:href="#B"/><use xlink:href="#7"/><use xlink:href="#A"/><use xlink:href="#8"/></g><use xlink:href="#H"/></g><g transform="matrix(-.36218-.09947-.20981.31773 1222.4-24.23)"><path fill="#006d00" stroke="#fff" fill-rule="evenodd" stroke-width="8.25" d="m460.63 549.21l28.643 70.866 42.22-53.15-10.184 88.58 27.9-35.433-17.716 88.58 25.25-35.433-25.25 88.58 35.433-35.433-35.433 106.3 35.433-35.433-35.433 106.3 35.433-35.433-35.433 106.3-17.716 53.15-17.717 17.72-17.717-17.72-17.716-53.15-35.433-106.3 35.433 35.433-35.433-106.3 35.433 35.433-35.433-106.3 35.433 35.433-45.617-88.58 45.617 35.433-53.15-88.58 42.966 35.433-25.25-88.58 35.433 53.15v-70.866z" transform="translate(283.46-124.02)" id="I"/><path fill="none" stroke="#000" stroke-width="1.25" d="m467.21 584.65l28.855 124.02v336.62" transform="translate(283.46-124.02)" id="J"/><path fill="none" stroke="#000" stroke-width="1.25" d="m436.23 885.83l59.833 88.58 60.682-88.58" transform="translate(283.46-124.02)" id="K"/><path fill="none" stroke="#000" stroke-width="1.25" d="m434.53 814.96l61.53 88.58 60.682-88.58" transform="translate(283.46-124.02)" id="L"/><path fill="none" stroke="#000" stroke-width="1.25" d="m435.38 744.1l60.682 88.58 59.833-88.58" transform="translate(283.46-124.02)" id="M"/><path fill="none" stroke="#000" stroke-width="1.25" d="m432.84 690.94l63.23 70.866 53.15-70.866" transform="translate(283.46-124.02)" id="N"/><path fill="none" stroke="#000" stroke-width="1.25" d="m425.2 637.8l70.866 70.865 45.41-70.865" transform="translate(283.46-124.02)" id="O"/><path fill="none" stroke="#000" stroke-width="1.25" d="m436.12 593.24l53.15 86.89 35.33-95.48" transform="translate(283.46-124.02)" id="P"/></g><g transform="matrix(.36088.10411.01321.38052 452.76-239.27)"><use xlink:href="#I"/><use xlink:href="#J"/><use xlink:href="#K"/><use xlink:href="#L"/><use xlink:href="#M"/><use xlink:href="#N"/><use xlink:href="#O"/><use xlink:href="#P"/></g><g transform="matrix(.04613-.36474.32602.0648 386 315.21)"><path fill="#006d00" stroke="#fff" fill-rule="evenodd" stroke-width="8.25" d="m354.33 531.5l88.58 88.58 17.716-53.15v88.58l35.433-35.433-17.716 88.58 35.432-35.434-17.716 88.58 35.433-35.433-17.716 106.3 35.433-35.433-35.433 106.3 35.433-35.433-17.717 106.3-17.716 53.15-17.717 17.72-17.717-17.72-17.716-53.15-53.15-82.29 35.434 11.429-35.433-106.3 35.433 35.433-53.15-106.3 35.433 35.433-53.15-88.58 53.15 35.434-70.866-88.58 53.15 35.433-70.866-70.866 70.866 35.433-53.15-88.58z"/><g fill="none" stroke="#000" stroke-width="1.25"><path d="m378.96 560.02l63.952 95.5 17.716 53.15 8.859 45.21 8.858 78.81 9.315 70.866 8.401 141.74"/><path d="m425.2 903.54l63.67 70.866 50.749-88.58"/><path d="m417.08 814.96l70.58 88.58 50.75-88.58"/><path d="m407.48 752.44l70.867 80.24 45.948-88.58"/><path d="m372.05 637.8l88.58 70.866 25.831-70.866"/><path d="m360.62 602.36l82.3 53.15 10.515-53.15"/><path d="m389.76 690.94l81.1 70.866 33.946-70.866"/></g></g></g></g><g fill-rule="evenodd" transform="matrix(.13659 0 0 .12573 648.36 208.19)"><g stroke="#000" stroke-width="1.25"><path fill="#c00" d="m541.46 1173.3l-1.7-229.13-61.1-106.94c-15.277-52.618-7.754-78.08 16.973-79.78 24.728-1.698 49.22 13.579 84.87 15.276 35.645 1.697 28.856-59.41 81.47-57.71 52.618 1.697 144.28 32.25 222.36 37.34 78.08 5.092 118.81-27.16 208.77-30.553 89.97-3.395 113.73 42.43 118.82 42.43s30.55-18.672 56.01-22.07c25.46-3.395 33.95 10.184 33.95 10.184s-1.7 57.71-13.58 91.66c-11.88 33.948-54.32 89.96-56.01 89.96-1.7 0-15.28 249.52-15.28 251.21 0 1.7-675.55-6.79-675.55-11.88z"/><g transform="matrix(-1 0 0 1 1771.7 354.33)"><path fill="#fff100" d="m531.5 584.65s-67.982-52.1-69.813-177.17c-1.053-71.929 34.38-124.02 122.96-124.02 124.02 0 301.18 53.15 301.18 53.15v17.717s-141.73-53.15-301.18-53.15c-70.866 0-106.3 52.09-106.3 105.24 0 88.58 70.867 178.23 70.867 178.23v141.73h-17.717v-141.73z"/><use transform="translate(16.02-1.697)" xlink:href="#2"/><use transform="translate(-1.697-42.22)" xlink:href="#2"/><use transform="translate(-10.927-83.49)" xlink:href="#2"/><use transform="translate(-17.717-127.62)" xlink:href="#2"/><use transform="translate(-16.02-175.47)" xlink:href="#2"/><use transform="translate(41.48 33.947)" xlink:href="#2"/><use transform="translate(-.954-220.66)" xlink:href="#2"/><use transform="translate(31.3-256.3)" xlink:href="#2"/><use transform="translate(75.43-280.06)" xlink:href="#2"/><use transform="translate(119.56-283.46)" xlink:href="#2"/><use transform="translate(167.08-281.76)" xlink:href="#2"/><use transform="translate(214.61-274.97)" xlink:href="#2"/><use transform="translate(262.14-268.18)" xlink:href="#2"/><use transform="translate(313.06-259.7)" xlink:href="#2"/><use transform="translate(357.19-247.81)" xlink:href="#2"/></g><use transform="translate(16.02 352.63)" xlink:href="#2"/><use transform="translate(-1.698 312.11)" xlink:href="#2"/><use transform="translate(-10.928 270.84)" xlink:href="#2"/><use transform="translate(-17.717 226.71)" xlink:href="#2"/><use transform="translate(-16.02 178.86)" xlink:href="#2"/><use transform="translate(-.955 133.67)" xlink:href="#2"/><use transform="translate(31.3 98.03)" xlink:href="#2"/><use transform="translate(75.43 74.27)" xlink:href="#2"/><use transform="translate(119.56 70.871)" xlink:href="#2"/><use transform="translate(167.08 72.57)" xlink:href="#2"/><use transform="translate(214.61 79.36)" xlink:href="#2"/><use transform="translate(262.14 86.15)" xlink:href="#2"/><use transform="translate(313.06 94.63)" xlink:href="#2"/><use transform="translate(357.19 106.52)" xlink:href="#2"/><use transform="translate(41.479 388.28)" xlink:href="#2"/><path fill="#fff100" d="m531.5 584.65s-67.982-52.1-69.813-177.17c-1.053-71.929 34.38-124.02 122.96-124.02 124.02 0 301.18 53.15 301.18 53.15v17.717s-141.73-53.15-301.18-53.15c-70.866 0-106.3 52.09-106.3 105.24 0 88.58 70.867 178.23 70.867 178.23v141.73h-17.717v-141.73z" transform="translate(0 354.33)"/></g><path fill="#fff100" stroke="#000" stroke-width="2.991" d="m1240.2 531.5s15.35-35.433 70.86-35.433c37.79 0 70.87 35.433 70.87 70.866v70.866h35.43v-70.866c0-35.47 35.44-70.866 70.87-70.866 53.15 0 70.87 35.433 70.87 35.433s0-106.3-70.87-106.3c-53.15 0-70.87 35.433-70.87 35.433s17.72-53.15 17.72-106.3-35.43-88.58-35.43-88.58c0 6.79-35.44 35.433-35.44 88.58 0 53.15 17.72 106.3 17.72 106.3s-17.72-35.433-70.87-35.433c-70.86 0-70.86 106.3-70.86 106.3z" transform="matrix(.33333 0 0 .38095 242.13 802.31)" id="C"/><use transform="translate(354.33)" xlink:href="#C"/><path fill="#fff100" stroke="#000" stroke-width="1.25" d="m531.5 832.68v-159.45s35.433 53.15 88.58 53.15c43.489 0 88.58-70.866 88.58-70.866s41.515 53.15 88.58 53.15c42.02 0 88.52-68.57 88.52-68.57s43.21 68.57 88.65 68.57c45.44 0 88.58-53.15 88.58-53.15s46.29 70.866 106.3 70.866c53.15 0 70.87-53.15 70.87-53.15v159.45h-708.66z" transform="translate(0 354.33)"/><path fill="#fff100" stroke="#000" stroke-width="1.25" d="m708.66 832.68v-124.02s106.3 35.433 106.3 124.02h-106.3z" transform="translate(-177.17 354.33)" id="D"/><use transform="matrix(-1 0 0 1 1771.63 0)" xlink:href="#D"/><path fill="#fff100" stroke="#000" stroke-width="1.25" d="m602.36 832.68c0-88.58 106.37-144.6 106.37-144.6s106.23 56.02 106.23 144.6h-212.6z" transform="translate(0 354.33)" id="E"/><use transform="translate(354.33)" xlink:href="#E"/><g stroke-width="1.25"><g stroke="#000"><path fill="#fff100" d="m584.65 847.53c0-88.58 124.08-159.45 124.08-159.45s123.95 70.866 123.95 159.45h-248.03z" transform="translate(177.16 339.48)"/><path fill="#fff" d="m1275.6 655.51c-35.43-17.716-166.02-35.433-376.28-35.433s-350.1 17.717-385.53 35.433c-35.434 17.717-35.434 53.15-.0001 70.866 35.433 17.716 175.28 35.433 385.54 35.433s340.84-17.716 376.28-35.433c35.43-17.716 35.43-53.15 0-70.866z" transform="matrix(.98876 0 0 1-3.385 531.5)"/></g><path fill="#808080" d="m1294.7 703.35c0 58.46-317.39 58.46-381.59 58.46-69.36 0-381.59 15.842-381.59-58.46 0-58.46 314.81-58.46 381.59-58.46 66.778.0001 381.59 11.883 381.59 58.46" transform="matrix(.92857 0 0 .6061 37.964 831.57)"/></g><g fill="#c00"><use transform="translate(0 354.33)" xlink:href="#3"/><use transform="translate(673.23 354.33)" xlink:href="#3"/></g><use transform="matrix(2 0 0 1-212.6 343.12)" xlink:href="#3"/><g fill="#006300"><use transform="matrix(1.5 0 0 1 240.83 343.12)" xlink:href="#3"/><use transform="matrix(1.5 0 0 1-124.02 343.12)" xlink:href="#3"/></g><path fill="#fff100" stroke="#000" stroke-width="2.188" d="m1257.9 496.06s35.44-53.15 70.87-53.15h35.43v35.433c0 53.15-53.15 70.867-53.15 70.867h141.74s-53.15-17.717-53.15-70.867v-35.433h35.43c35.43 0 70.87 53.15 70.87 53.15v-141.73s-35.44 53.15-70.87 53.15h-35.43v-35.433c0-53.15 53.15-70.867 53.15-70.867h-141.74s53.15 17.717 53.15 70.867v35.433h-35.43c-35.43 0-70.87-53.15-70.87-53.15v141.73z" transform="matrix(.57141 0 0 .57143 96.2 713.72)"/><path fill="#fff100" stroke="#000" stroke-width="3.307" d="m1381.9 549.21h70.87s-53.15-17.717-53.15-70.867v-35.433h35.43c35.43 0 70.87 53.15 70.87 53.15v-141.73s-35.44 53.15-70.87 53.15h-35.43v-35.433c0-53.15 53.15-70.867 53.15-70.867h-70.87v248.03z" transform="matrix(.28571 0 0 .5 136.68 788.39)" id="F"/><use transform="matrix(-1 0 0 1 1771.68 0)" xlink:href="#F"/><path fill="#fff" stroke="#000" stroke-width="1.25" d="m903.54 602.36c0 9.785-7.932 17.717-17.717 17.717-9.785 0-17.717-7.932-17.717-17.717 0-9.785 7.932-17.717 17.717-17.717 9.785 0 17.717 7.932 17.717 17.717z" transform="translate(0 354.33)" id="G"/><path fill="#fff100" stroke="#000" stroke-width="2.188" d="m1257.9 496.06s35.44-53.15 70.87-53.15h35.43v35.433c0 53.15-53.15 70.867-53.15 70.867h141.74s-53.15-17.717-53.15-70.867v-35.433h35.43c35.43 0 70.87 53.15 70.87 53.15v-141.73s-35.44 53.15-70.87 53.15h-35.43v-35.433c0-53.15 53.15-70.867 53.15-70.867h-141.74s53.15 17.717 53.15 70.867v35.433h-35.43c-35.43 0-70.87-53.15-70.87-53.15v141.73z" transform="matrix(.57141 0 0 .57143 96.2 341.68)"/><use transform="translate(1.697-369.07)" xlink:href="#G"/><g stroke="#000" stroke-width="1.25"><g fill="#fff100"><path d="m850.39 655.51h70.866v53.15h-70.866z"/><path d="m850.39 683.3h70.866v202.53h-70.866z"/></g><use transform="translate(425.2 301.18)" xlink:href="#2"/><use transform="translate(425.2 255.35)" xlink:href="#2"/><use transform="translate(425.2 212.6)" xlink:href="#2"/><use transform="translate(425.2 168.47)" xlink:href="#2"/></g><use transform="translate(308.95-14.402)" xlink:href="#4"/><use transform="matrix(.98773.24606-.25044.68556 943.77 247.45)" xlink:href="#4"/><use transform="matrix(1.019.07734-.0991.88195 606.29 91.22)" xlink:href="#4"/><use transform="matrix(-.98773.24606.25044.68556 819.99 247.45)" xlink:href="#4"/><use transform="matrix(-1.019.07734.0991.88195 1164.3 87.82)" xlink:href="#4"/></g></g></g></svg>