<svg xmlns="http://www.w3.org/2000/svg" viewBox="0 0 512 512" xmlns:xlink="http://www.w3.org/1999/xlink"><defs><path id="0" d="m566.56,405.84-35.32-25.55-35.15,25.9 13.38-41.5-35.49-25.42 43.6-.1 13.22-41.6 13.56,41.43 43.65-.29-35.21,25.7z" stroke-width="1.25"/></defs><g fill-rule="evenodd"><g transform="matrix(.66667 0 0 1 86.92 1.954)"><path fill="#fff" stroke-width="1.25" d="m-130.37-1.954h768v512h-768z"/><path d="m-130.37 339.38h768v170.67h-768z"/><path fill="#f30000" d="m-130.37-1.954h768v170.67h-768z"/></g><g fill="#005623" transform="matrix(.82742 0 0 .82742 43.799 43.03)"><use transform="matrix(.72249 0 0 .72249 127.03-1.955)" xlink:href="#0"/><path d="m180.61 229.79c.262 29.417 0 48.33 0 54.37-3.152 3.677-6.304 7.616-8.668 10.768-1.05-.788-1.314-.788-1.314-2.364 0-1.576-.262-40.19 0-54.37 4.728-2.364 7.88-8.931 9.981-8.405m-10.769-.525c2.364-3.94 4.99-7.88 6.829-9.718 1.839 1.05 1.576 3.94 1.839 4.727-1.839 2.627-6.304 6.829-7.617 8.142-.525-.787 0-.525-1.05-3.151m13.13-33.62c-16.02 10.506-34.15 23.11-40.712 28.629-6.567 5.516-8.93 8.931-8.93 18.386 0 9.456.262 20.225-.525 25.21-.788 4.99-3.152 10.243-8.931 5.515-5.778-4.727-9.981-9.455-12.607-11.556-2.626-2.102-7.354-4.991-13.658.525-6.304 5.515-35.721 36.509-41.24 39.923-5.516 3.414-6.566 4.203-10.506 6.304 8.142.525 17.335 1.05 24.689-.525 9.718-7.092 21.01-23.11 24.69-27.05 3.677-3.94 7.354-12.344 15.497-3.151 8.142 9.193 7.88 9.455 11.819 12.344 3.94 2.889 8.931 2.364 12.345-3.414 3.415-5.779 3.677-8.405 4.99-17.861 1.314-9.455 2.101-21.275 4.203-26.528 2.101-5.253 6.304-10.506 13.395-14.709 7.092-4.202 8.405-4.465 9.981-5.252 3.151-6.04 10.769-20.225 13.92-23.639 1.314-1.576 1.577-2.364 1.577-3.152zm-71.18 95.61c-3.94-2.626-5.253-4.728-7.354-4.465-2.101.263-6.566 6.304-9.193 7.88 3.415 2.889 6.567 5.516 9.193 4.991 2.627-.526 4.465-6.304 7.354-8.405"/><path d="m444.58 217.45c-5.515 1.314-8.405 8.668-13.13 13.658-.525 14.709-.525 60.41-.525 66.45 4.728-5.515 7.617-8.668 11.03-10.769.788-24.427 3.677-58.57 2.626-69.34m-26-.262c-6.566 4.202-8.142 8.405-13.658 13.13-.262 17.598.525 42.55-.788 45.964-1.313 3.414-4.203 10.506-11.294 9.718-7.092-.788-9.193-2.101-9.193-9.455s1.576-54.37 1.576-61.987c-5.516 2.627-10.243 10.769-14.183 14.184 0 18.385.788 41.761.262 46.752-.525 4.99-2.626 13.13-11.557 12.87-8.93-.262-13.658-4.728-13.658-9.981 0-5.253-.262-39.661.263-45.702-7.88 5.516-26.26 16.547-29.943 30.73-3.677 14.183 2.102 18.386 7.354 15.759 5.253-2.626 7.617-4.99 10.506-7.091.788 8.93 1.05 18.648 9.981 24.427 8.931 5.779 20.225 3.678 24.427.525 4.202-3.151 5.779-5.253 6.829-6.829 7.88 6.04 19.436 9.193 27.05 2.626 7.616-6.566 11.819-13.13 12.607-20.487.788-7.354 4.466-45.18 3.414-55.16m-82.47 35.721c-7.88 3.677-11.294 9.193-9.193 12.607 2.101 3.414 6.304-.525 9.193-1.839-.525-5.252 0-8.142 0-10.769m50.692-55.681c-1.839 6.04-3.151 4.99-5.515 5.253-2.364.262-3.94-2.102-5.779-4.203-1.839.262-2.101.788-3.414 1.314 4.202 6.04 7.354 8.667 12.344 7.354 4.99-1.314 5.253-5.779 5.253-8.142-.788-.525-1.05-.788-2.889-1.576m-4.464-7.617c-2.364.788-2.889 1.314-3.678 3.415 1.313 2.889 3.152 4.465 4.991 3.678 1.838-.788 2.101-3.94 1.05-4.728-1.05-.788-.525-1.314-2.364-2.364"/><use transform="matrix(.72249 0 0 .72249-386.72-1.955)" xlink:href="#0"/><use transform="matrix(.72249 0 0 .72249-130.37-1.954)" xlink:href="#0"/></g></g></svg>