<svg xmlns="http://www.w3.org/2000/svg" viewBox="0 0 512 512"><g fill-rule="evenodd"><g transform="matrix(.66667 0 0 1 86.916 1.9545)"><path fill="#fff" stroke-width="1.25" d="m-130.37-1.9545h768v512.0005h-768z"/><path d="m-130.37,339.38h768v170.67h-768z"/><path fill="#f30000" d="m-130.37-1.9545h768v170.6695h-768z"/></g><g fill="#005623" transform="matrix(.82742 0 0 .82742 43.799 43.035)"><path stroke-width="1.25" d="m566.56,405.84-35.32-25.55-35.15,25.9 13.38-41.5-35.49-25.42 43.6-.1 13.22-41.6 13.56,41.43 43.65-.29-35.21,25.7z" transform="matrix(.72249 0 0 .72249 127.03 -1.9546)"/><path d="m180.61,229.79c.2623,29.417 0,48.328 0,54.369-3.1522,3.6767-6.3037,7.6165-8.6677,10.768-1.0505-.7875-1.3135-.7875-1.3135-2.364 0-1.5758-.2623-40.186 0-54.369 4.728-2.364 7.8802-8.9307 9.9812-8.4047zm-10.769-.5252c2.364-3.9397 4.9902-7.8802 6.829-9.7182 1.8387,1.0505 1.5758,3.9397 1.8387,4.7272-1.8387,2.627-6.3037,6.829-7.6172,8.1424-.5252-.7875 0-.5252-1.0505-3.1515zm13.133-33.62c-16.022,10.506-34.146,23.114-40.712,28.629-6.5667,5.5162-8.93,8.9307-8.93,18.386 0,9.4559 .2623,20.225-.5252,25.215-.7882,4.9902-3.1522,10.243-8.9307,5.5155-5.7785-4.7272-9.9805-9.4552-12.607-11.556-2.6262-2.1017-7.3542-4.991-13.658,.5253-6.3037,5.5155-35.721,36.509-41.237,39.923-5.5155,3.4145-6.566,4.2027-10.506,6.3037 8.1417,.5253 17.335,1.0505 24.689-.5253 9.7182-7.092 21.013-23.114 24.69-27.054 3.6775-3.9397 7.3542-12.344 15.497-3.1515 8.1424,9.193 7.8795,9.4552 11.819,12.344 3.9404,2.8892 8.9307,2.364 12.345-3.4145 3.4145-5.7785 3.6768-8.4047 4.9902-17.861 1.3135-9.4552 2.101-21.275 4.2027-26.528 2.101-5.2532 6.3037-10.506 13.395-14.709 7.092-4.202 8.4054-4.465 9.9812-5.2525 3.1515-6.0414 10.769-20.225 13.92-23.639 1.3135-1.5757 1.5765-2.364 1.5765-3.1522zm-71.18,95.606c-3.9397-2.6262-5.2532-4.728-7.3542-4.465-2.101,.263-6.566,6.3037-9.193,7.8795 3.4145,2.8892 6.5667,5.5162 9.193,4.991 2.627-.526 4.465-6.3037 7.3542-8.4054z"/><path d="m444.58,217.45c-5.5155,1.3135-8.4047,8.6677-13.133,13.658-.5253,14.709-.5253,60.411-.5253,66.452 4.728-5.5155 7.6172-8.6677 11.032-10.769 .7875-24.427 3.6768-58.571 2.6262-69.341zm-26.003-.2623c-6.566,4.202-8.1417,8.4047-13.658,13.133-.2623,17.598 .5253,42.55-.7875,45.964-1.3135,3.4145-4.2027,10.506-11.294,9.7182-7.092-.7875-9.193-2.101-9.193-9.4552s1.5758-54.369 1.5758-61.987c-5.5162,2.627-10.243,10.769-14.183,14.184 0,18.385 .7875,41.761 .2623,46.752-.5253,4.9902-2.6262,13.133-11.557,12.87-8.93-.2623-13.658-4.728-13.658-9.9805 0-5.2532-.2623-39.661 .263-45.702-7.8795,5.5155-26.265,16.547-29.943,30.73-3.6767,14.183 2.1017,18.386 7.3542,15.759 5.2532-2.6262 7.6172-4.9902 10.506-7.0912 .7882,8.93 1.0505,18.648 9.9805,24.427 8.9307,5.7785 20.225,3.6775 24.427,.5253 4.202-3.1515 5.7785-5.2532 6.829-6.829 7.8795,6.0407 19.436,9.1929 27.054,2.6262 7.6165-6.566 11.819-13.133 12.607-20.487 .7882-7.3542 4.4657-45.177 3.4145-55.157zm-82.473,35.721c-7.8795,3.6775-11.294,9.193-9.1929,12.607 2.101,3.4145 6.3037-.5253 9.1929-1.8387-.5253-5.2525 0-8.1417 0-10.769zm50.692-55.682c-1.8387,6.0407-3.1515,4.9902-5.5155,5.2532-2.364,.2623-3.9397-2.1017-5.7785-4.2027-1.8387,.2623-2.101,.7882-3.4145,1.3135 4.202,6.0407 7.3542,8.667 12.344,7.3542 4.9902-1.3135 5.2532-5.7785 5.2532-8.1424-.7882-.5252-1.0505-.7882-2.8892-1.5757zm-4.465-7.6172c-2.364,.7882-2.8892,1.3135-3.6775,3.4145 1.3135,2.8892 3.1522,4.465 4.991,3.6775 1.838-.7882 2.101-3.9397 1.0505-4.728-1.0505-.7882-.5253-1.3135-2.364-2.364z"/><path stroke-width="1.25" d="m566.56,405.84-35.32-25.55-35.15,25.9 13.38-41.5-35.49-25.42 43.6-.1 13.22-41.6 13.56,41.43 43.65-.29-35.21,25.7z" transform="matrix(.72249 0 0 .72249 -386.72 -1.9546)"/><path stroke-width="1.25" d="m566.56,405.84-35.32-25.55-35.15,25.9 13.38-41.5-35.49-25.42 43.6-.1 13.22-41.6 13.56,41.43 43.65-.29-35.21,25.7z" transform="matrix(.72249 0 0 .72249 -130.37 -1.9545)"/></g></g></svg>