<svg xmlns="http://www.w3.org/2000/svg" viewBox="0 0 512 512"><defs><clipPath id="clipPath7329" clipPathUnits="userSpaceOnUse"><path fill-opacity=".67" d="m185.98-0h496.06v496.06h-496.06z"/></clipPath></defs><g fill-rule="evenodd" clip-path="url(#clipPath7329)" transform="matrix(1.0321 0 0 1.0321 -191.96 .00002)"><g stroke-width="1.25"><path fill="#fff" d="m0-0h868.11v496.06h-868.11z"/><path fill="#da0000" d="M 0,333.13 H868.11 V496.06 H0 z"/><g fill="#fff"><g transform="matrix(1.4724 0 0 1.4724 117.81 35.66)"><path d="m32.067,206.72h32.289v2.222h-32.289z"/><path d="m36.881,217.83h2.2217v2.158h-2.2217z"/><path d="m217.76-64.44h2.222v6.453h-2.222z" transform="rotate(90)"/><path d="m67.911,206.72h2.2217v13.266h-2.2217z"/><path d="m217.76-80.765h2.222v12.229h-2.222z" transform="rotate(90)"/><path d="m57.987,212.57h2.2217v7.416h-2.2217z"/><path d="m67.911,206.72h2.2217v13.266h-2.2217z" transform="translate(11.035 -.00002)"/><path d="m73.391,206.72h2.2217v13.266h-2.2217z"/><path d="m212-43.903h2.222v11.785h-2.222z" transform="matrix(0 1 -1 0 .00922 -.00002)"/><path d="m212-69.772h2.222v11.785h-2.222z" transform="rotate(90)"/><path d="m57.987,212.57h2.2217v7.416h-2.2217z"/><path d="m57.987,212.57h2.2217v7.416h-2.2217z"/><path d="m57.987,212.57h2.2217v7.416h-2.2217z"/><path d="m32.299,212.57h2.2217v7.416h-2.2217z" transform="translate(-.17213 -.00002)"/><path d="m51.082,212.57h2.2217v7.416h-2.2217z"/><path d="m41.691,212.57h2.2217v7.416h-2.2217z" transform="translate(0 -.00002)"/><path d="m217.76-52.641h2.222v9.9621h-2.222z" transform="rotate(90)"/><path d="m212-53.304h2.222v6.3161h-2.222z" transform="rotate(90)"/></g><g transform="matrix(1.4724 0 0 1.4724 39.725 35.66)"><path d="m32.067,206.72h32.289v2.222h-32.289z"/><path d="m36.881,217.83h2.2217v2.158h-2.2217z"/><path d="m217.76-64.44h2.222v6.453h-2.222z" transform="rotate(90)"/><path d="m67.911,206.72h2.2217v13.266h-2.2217z"/><path d="m217.76-80.765h2.222v12.229h-2.222z" transform="rotate(90)"/><path d="m57.987,212.57h2.2217v7.416h-2.2217z"/><path d="m67.911,206.72h2.2217v13.266h-2.2217z" transform="translate(11.035 -.00002)"/><path d="m73.391,206.72h2.2217v13.266h-2.2217z"/><path d="m212-43.903h2.222v11.785h-2.222z" transform="matrix(0 1 -1 0 .00922 -.00002)"/><path d="m212-69.772h2.222v11.785h-2.222z" transform="rotate(90)"/><path d="m57.987,212.57h2.2217v7.416h-2.2217z"/><path d="m57.987,212.57h2.2217v7.416h-2.2217z"/><path d="m57.987,212.57h2.2217v7.416h-2.2217z"/><path d="m32.299,212.57h2.2217v7.416h-2.2217z" transform="translate(-.17213 -.00002)"/><path d="m51.082,212.57h2.2217v7.416h-2.2217z"/><path d="m41.691,212.57h2.2217v7.416h-2.2217z" transform="translate(0 -.00002)"/><path d="m217.76-52.641h2.222v9.9621h-2.222z" transform="rotate(90)"/><path d="m212-53.304h2.222v6.3161h-2.222z" transform="rotate(90)"/></g><g transform="matrix(1.4724 0 0 1.4724 195.25 35.66)"><path d="m32.067,206.72h32.289v2.222h-32.289z"/><path d="m36.881,217.83h2.2217v2.158h-2.2217z"/><path d="m217.76-64.44h2.222v6.453h-2.222z" transform="rotate(90)"/><path d="m67.911,206.72h2.2217v13.266h-2.2217z"/><path d="m217.76-80.765h2.222v12.229h-2.222z" transform="rotate(90)"/><path d="m57.987,212.57h2.2217v7.416h-2.2217z"/><path d="m67.911,206.72h2.2217v13.266h-2.2217z" transform="translate(11.035 -.00002)"/><path d="m73.391,206.72h2.2217v13.266h-2.2217z"/><path d="m212-43.903h2.222v11.785h-2.222z" transform="matrix(0 1 -1 0 .00922 -.00002)"/><path d="m212-69.772h2.222v11.785h-2.222z" transform="rotate(90)"/><path d="m57.987,212.57h2.2217v7.416h-2.2217z"/><path d="m57.987,212.57h2.2217v7.416h-2.2217z"/><path d="m57.987,212.57h2.2217v7.416h-2.2217z"/><path d="m32.299,212.57h2.2217v7.416h-2.2217z" transform="translate(-.17213 -.00002)"/><path d="m51.082,212.57h2.2217v7.416h-2.2217z"/><path d="m41.691,212.57h2.2217v7.416h-2.2217z" transform="translate(0 -.00002)"/><path d="m217.76-52.641h2.222v9.9621h-2.222z" transform="rotate(90)"/><path d="m212-53.304h2.222v6.3161h-2.222z" transform="rotate(90)"/></g><g transform="matrix(1.4724 0 0 1.4724 742.06 35.66)"><path d="m32.067,206.72h32.289v2.222h-32.289z"/><path d="m36.881,217.83h2.2217v2.158h-2.2217z"/><path d="m217.76-64.44h2.222v6.453h-2.222z" transform="rotate(90)"/><path d="m67.911,206.72h2.2217v13.266h-2.2217z"/><path d="m217.76-80.765h2.222v12.229h-2.222z" transform="rotate(90)"/><path d="m57.987,212.57h2.2217v7.416h-2.2217z"/><path d="m67.911,206.72h2.2217v13.266h-2.2217z" transform="translate(11.035 -.00002)"/><path d="m73.391,206.72h2.2217v13.266h-2.2217z"/><path d="m212-43.903h2.222v11.785h-2.222z" transform="matrix(0 1 -1 0 .00922 -.00002)"/><path d="m212-69.772h2.222v11.785h-2.222z" transform="rotate(90)"/><path d="m57.987,212.57h2.2217v7.416h-2.2217z"/><path d="m57.987,212.57h2.2217v7.416h-2.2217z"/><path d="m57.987,212.57h2.2217v7.416h-2.2217z"/><path d="m32.299,212.57h2.2217v7.416h-2.2217z" transform="translate(-.17213 -.00002)"/><path d="m51.082,212.57h2.2217v7.416h-2.2217z"/><path d="m41.691,212.57h2.2217v7.416h-2.2217z" transform="translate(0 -.00002)"/><path d="m217.76-52.641h2.222v9.9621h-2.222z" transform="rotate(90)"/><path d="m212-53.304h2.222v6.3161h-2.222z" transform="rotate(90)"/></g><g transform="matrix(1.4724 0 0 1.4724 273.19 35.66)"><path d="m32.067,206.72h32.289v2.222h-32.289z"/><path d="m36.881,217.83h2.2217v2.158h-2.2217z"/><path d="m217.76-64.44h2.222v6.453h-2.222z" transform="rotate(90)"/><path d="m67.911,206.72h2.2217v13.266h-2.2217z"/><path d="m217.76-80.765h2.222v12.229h-2.222z" transform="rotate(90)"/><path d="m57.987,212.57h2.2217v7.416h-2.2217z"/><path d="m67.911,206.72h2.2217v13.266h-2.2217z" transform="translate(11.035 -.00002)"/><path d="m73.391,206.72h2.2217v13.266h-2.2217z"/><path d="m212-43.903h2.222v11.785h-2.222z" transform="matrix(0 1 -1 0 .00922 -.00002)"/><path d="m212-69.772h2.222v11.785h-2.222z" transform="rotate(90)"/><path d="m57.987,212.57h2.2217v7.416h-2.2217z"/><path d="m57.987,212.57h2.2217v7.416h-2.2217z"/><path d="m57.987,212.57h2.2217v7.416h-2.2217z"/><path d="m32.299,212.57h2.2217v7.416h-2.2217z" transform="translate(-.17213 -.00002)"/><path d="m51.082,212.57h2.2217v7.416h-2.2217z"/><path d="m41.691,212.57h2.2217v7.416h-2.2217z" transform="translate(0 -.00002)"/><path d="m217.76-52.641h2.222v9.9621h-2.222z" transform="rotate(90)"/><path d="m212-53.304h2.222v6.3161h-2.222z" transform="rotate(90)"/></g><g transform="matrix(1.4724 0 0 1.4724 351.41 35.66)"><path d="m32.067,206.72h32.289v2.222h-32.289z"/><path d="m36.881,217.83h2.2217v2.158h-2.2217z"/><path d="m217.76-64.44h2.222v6.453h-2.222z" transform="rotate(90)"/><path d="m67.911,206.72h2.2217v13.266h-2.2217z"/><path d="m217.76-80.765h2.222v12.229h-2.222z" transform="rotate(90)"/><path d="m57.987,212.57h2.2217v7.416h-2.2217z"/><path d="m67.911,206.72h2.2217v13.266h-2.2217z" transform="translate(11.035 -.00002)"/><path d="m73.391,206.72h2.2217v13.266h-2.2217z"/><path d="m212-43.903h2.222v11.785h-2.222z" transform="matrix(0 1 -1 0 .00922 -.00002)"/><path d="m212-69.772h2.222v11.785h-2.222z" transform="rotate(90)"/><path d="m57.987,212.57h2.2217v7.416h-2.2217z"/><path d="m57.987,212.57h2.2217v7.416h-2.2217z"/><path d="m57.987,212.57h2.2217v7.416h-2.2217z"/><path d="m32.299,212.57h2.2217v7.416h-2.2217z" transform="translate(-.17213 -.00002)"/><path d="m51.082,212.57h2.2217v7.416h-2.2217z"/><path d="m41.691,212.57h2.2217v7.416h-2.2217z" transform="translate(0 -.00002)"/><path d="m217.76-52.641h2.222v9.9621h-2.222z" transform="rotate(90)"/><path d="m212-53.304h2.222v6.3161h-2.222z" transform="rotate(90)"/></g></g><path fill="#239f40" d="m0-0h868.11v162.93h-868.11z"/><g fill="#fff"><g transform="matrix(1.4724 0 0 1.4724 430.09 35.66)"><path d="m32.067,206.72h32.289v2.222h-32.289z"/><path d="m36.881,217.83h2.2217v2.158h-2.2217z"/><path d="m217.76-64.44h2.222v6.453h-2.222z" transform="rotate(90)"/><path d="m67.911,206.72h2.2217v13.266h-2.2217z"/><path d="m217.76-80.765h2.222v12.229h-2.222z" transform="rotate(90)"/><path d="m57.987,212.57h2.2217v7.416h-2.2217z"/><path d="m67.911,206.72h2.2217v13.266h-2.2217z" transform="translate(11.035 -.00002)"/><path d="m73.391,206.72h2.2217v13.266h-2.2217z"/><path d="m212-43.903h2.222v11.785h-2.222z" transform="matrix(0 1 -1 0 .00922 -.00002)"/><path d="m212-69.772h2.222v11.785h-2.222z" transform="rotate(90)"/><path d="m57.987,212.57h2.2217v7.416h-2.2217z"/><path d="m57.987,212.57h2.2217v7.416h-2.2217z"/><path d="m57.987,212.57h2.2217v7.416h-2.2217z"/><path d="m32.299,212.57h2.2217v7.416h-2.2217z" transform="translate(-.17213 -.00002)"/><path d="m51.082,212.57h2.2217v7.416h-2.2217z"/><path d="m41.691,212.57h2.2217v7.416h-2.2217z" transform="translate(0 -.00002)"/><path d="m217.76-52.641h2.222v9.9621h-2.222z" transform="rotate(90)"/><path d="m212-53.304h2.222v6.3161h-2.222z" transform="rotate(90)"/></g><g transform="matrix(1.4724 0 0 1.4724 508.32 35.66)"><path d="m32.067,206.72h32.289v2.222h-32.289z"/><path d="m36.881,217.83h2.2217v2.158h-2.2217z"/><path d="m217.76-64.44h2.222v6.453h-2.222z" transform="rotate(90)"/><path d="m67.911,206.72h2.2217v13.266h-2.2217z"/><path d="m217.76-80.765h2.222v12.229h-2.222z" transform="rotate(90)"/><path d="m57.987,212.57h2.2217v7.416h-2.2217z"/><path d="m67.911,206.72h2.2217v13.266h-2.2217z" transform="translate(11.035 -.00002)"/><path d="m73.391,206.72h2.2217v13.266h-2.2217z"/><path d="m212-43.903h2.222v11.785h-2.222z" transform="matrix(0 1 -1 0 .00922 -.00002)"/><path d="m212-69.772h2.222v11.785h-2.222z" transform="rotate(90)"/><path d="m57.987,212.57h2.2217v7.416h-2.2217z"/><path d="m57.987,212.57h2.2217v7.416h-2.2217z"/><path d="m57.987,212.57h2.2217v7.416h-2.2217z"/><path d="m32.299,212.57h2.2217v7.416h-2.2217z" transform="translate(-.17213 -.00002)"/><path d="m51.082,212.57h2.2217v7.416h-2.2217z"/><path d="m41.691,212.57h2.2217v7.416h-2.2217z" transform="translate(0 -.00002)"/><path d="m217.76-52.641h2.222v9.9621h-2.222z" transform="rotate(90)"/><path d="m212-53.304h2.222v6.3161h-2.222z" transform="rotate(90)"/></g><g transform="matrix(1.4724 0 0 1.4724 586.54 35.66)"><path d="m32.067,206.72h32.289v2.222h-32.289z"/><path d="m36.881,217.83h2.2217v2.158h-2.2217z"/><path d="m217.76-64.44h2.222v6.453h-2.222z" transform="rotate(90)"/><path d="m67.911,206.72h2.2217v13.266h-2.2217z"/><path d="m217.76-80.765h2.222v12.229h-2.222z" transform="rotate(90)"/><path d="m57.987,212.57h2.2217v7.416h-2.2217z"/><path d="m67.911,206.72h2.2217v13.266h-2.2217z" transform="translate(11.035 -.00002)"/><path d="m73.391,206.72h2.2217v13.266h-2.2217z"/><path d="m212-43.903h2.222v11.785h-2.222z" transform="matrix(0 1 -1 0 .00922 -.00002)"/><path d="m212-69.772h2.222v11.785h-2.222z" transform="rotate(90)"/><path d="m57.987,212.57h2.2217v7.416h-2.2217z"/><path d="m57.987,212.57h2.2217v7.416h-2.2217z"/><path d="m57.987,212.57h2.2217v7.416h-2.2217z"/><path d="m32.299,212.57h2.2217v7.416h-2.2217z" transform="translate(-.17213 -.00002)"/><path d="m51.082,212.57h2.2217v7.416h-2.2217z"/><path d="m41.691,212.57h2.2217v7.416h-2.2217z" transform="translate(0 -.00002)"/><path d="m217.76-52.641h2.222v9.9621h-2.222z" transform="rotate(90)"/><path d="m212-53.304h2.222v6.3161h-2.222z" transform="rotate(90)"/></g><g transform="matrix(1.4724 0 0 1.4724 665.22 35.66)"><path d="m32.067,206.72h32.289v2.222h-32.289z"/><path d="m36.881,217.83h2.2217v2.158h-2.2217z"/><path d="m217.76-64.44h2.222v6.453h-2.222z" transform="rotate(90)"/><path d="m67.911,206.72h2.2217v13.266h-2.2217z"/><path d="m217.76-80.765h2.222v12.229h-2.222z" transform="rotate(90)"/><path d="m57.987,212.57h2.2217v7.416h-2.2217z"/><path d="m67.911,206.72h2.2217v13.266h-2.2217z" transform="translate(11.035 -.00002)"/><path d="m73.391,206.72h2.2217v13.266h-2.2217z"/><path d="m212-43.903h2.222v11.785h-2.222z" transform="matrix(0 1 -1 0 .00922 -.00002)"/><path d="m212-69.772h2.222v11.785h-2.222z" transform="rotate(90)"/><path d="m57.987,212.57h2.2217v7.416h-2.2217z"/><path d="m57.987,212.57h2.2217v7.416h-2.2217z"/><path d="m57.987,212.57h2.2217v7.416h-2.2217z"/><path d="m32.299,212.57h2.2217v7.416h-2.2217z" transform="translate(-.17213 -.00002)"/><path d="m51.082,212.57h2.2217v7.416h-2.2217z"/><path d="m41.691,212.57h2.2217v7.416h-2.2217z" transform="translate(0 -.00002)"/><path d="m217.76-52.641h2.222v9.9621h-2.222z" transform="rotate(90)"/><path d="m212-53.304h2.222v6.3161h-2.222z" transform="rotate(90)"/></g><g transform="matrix(1.4724 0 0 1.4724 -39.296 35.66)"><path d="m32.067,206.72h32.289v2.222h-32.289z"/><path d="m36.881,217.83h2.2217v2.158h-2.2217z"/><path d="m217.76-64.44h2.222v6.453h-2.222z" transform="rotate(90)"/><path d="m67.911,206.72h2.2217v13.266h-2.2217z"/><path d="m217.76-80.765h2.222v12.229h-2.222z" transform="rotate(90)"/><path d="m57.987,212.57h2.2217v7.416h-2.2217z"/><path d="m67.911,206.72h2.2217v13.266h-2.2217z" transform="translate(11.035 -.00002)"/><path d="m73.391,206.72h2.2217v13.266h-2.2217z"/><path d="m212-43.903h2.222v11.785h-2.222z" transform="matrix(0 1 -1 0 .00922 -.00002)"/><path d="m212-69.772h2.222v11.785h-2.222z" transform="rotate(90)"/><path d="m57.987,212.57h2.2217v7.416h-2.2217z"/><path d="m57.987,212.57h2.2217v7.416h-2.2217z"/><path d="m57.987,212.57h2.2217v7.416h-2.2217z"/><path d="m32.299,212.57h2.2217v7.416h-2.2217z" transform="translate(-.17213 -.00002)"/><path d="m51.082,212.57h2.2217v7.416h-2.2217z"/><path d="m41.691,212.57h2.2217v7.416h-2.2217z" transform="translate(0 -.00002)"/><path d="m217.76-52.641h2.222v9.9621h-2.222z" transform="rotate(90)"/><path d="m212-53.304h2.222v6.3161h-2.222z" transform="rotate(90)"/></g><g transform="matrix(1.4724 0 0 1.4724 117.81 -165.4)"><path d="m32.067,206.72h32.289v2.222h-32.289z"/><path d="m36.881,217.83h2.2217v2.158h-2.2217z"/><path d="m217.76-64.44h2.222v6.453h-2.222z" transform="rotate(90)"/><path d="m67.911,206.72h2.2217v13.266h-2.2217z"/><path d="m217.76-80.765h2.222v12.229h-2.222z" transform="rotate(90)"/><path d="m57.987,212.57h2.2217v7.416h-2.2217z"/><path d="m67.911,206.72h2.2217v13.266h-2.2217z" transform="translate(11.035 -.00002)"/><path d="m73.391,206.72h2.2217v13.266h-2.2217z"/><path d="m212-43.903h2.222v11.785h-2.222z" transform="matrix(0 1 -1 0 .00922 -.00002)"/><path d="m212-69.772h2.222v11.785h-2.222z" transform="rotate(90)"/><path d="m57.987,212.57h2.2217v7.416h-2.2217z"/><path d="m57.987,212.57h2.2217v7.416h-2.2217z"/><path d="m57.987,212.57h2.2217v7.416h-2.2217z"/><path d="m32.299,212.57h2.2217v7.416h-2.2217z" transform="translate(-.17213 -.00002)"/><path d="m51.082,212.57h2.2217v7.416h-2.2217z"/><path d="m41.691,212.57h2.2217v7.416h-2.2217z" transform="translate(0 -.00002)"/><path d="m217.76-52.641h2.222v9.9621h-2.222z" transform="rotate(90)"/><path d="m212-53.304h2.222v6.3161h-2.222z" transform="rotate(90)"/></g><g transform="matrix(1.4724 0 0 1.4724 39.725 -165.4)"><path d="m32.067,206.72h32.289v2.222h-32.289z"/><path d="m36.881,217.83h2.2217v2.158h-2.2217z"/><path d="m217.76-64.44h2.222v6.453h-2.222z" transform="rotate(90)"/><path d="m67.911,206.72h2.2217v13.266h-2.2217z"/><path d="m217.76-80.765h2.222v12.229h-2.222z" transform="rotate(90)"/><path d="m57.987,212.57h2.2217v7.416h-2.2217z"/><path d="m67.911,206.72h2.2217v13.266h-2.2217z" transform="translate(11.035 -.00002)"/><path d="m73.391,206.72h2.2217v13.266h-2.2217z"/><path d="m212-43.903h2.222v11.785h-2.222z" transform="matrix(0 1 -1 0 .00922 -.00002)"/><path d="m212-69.772h2.222v11.785h-2.222z" transform="rotate(90)"/><path d="m57.987,212.57h2.2217v7.416h-2.2217z"/><path d="m57.987,212.57h2.2217v7.416h-2.2217z"/><path d="m57.987,212.57h2.2217v7.416h-2.2217z"/><path d="m32.299,212.57h2.2217v7.416h-2.2217z" transform="translate(-.17213 -.00002)"/><path d="m51.082,212.57h2.2217v7.416h-2.2217z"/><path d="m41.691,212.57h2.2217v7.416h-2.2217z" transform="translate(0 -.00002)"/><path d="m217.76-52.641h2.222v9.9621h-2.222z" transform="rotate(90)"/><path d="m212-53.304h2.222v6.3161h-2.222z" transform="rotate(90)"/></g><g transform="matrix(1.4724 0 0 1.4724 195.25 -165.4)"><path d="m32.067,206.72h32.289v2.222h-32.289z"/><path d="m36.881,217.83h2.2217v2.158h-2.2217z"/><path d="m217.76-64.44h2.222v6.453h-2.222z" transform="rotate(90)"/><path d="m67.911,206.72h2.2217v13.266h-2.2217z"/><path d="m217.76-80.765h2.222v12.229h-2.222z" transform="rotate(90)"/><path d="m57.987,212.57h2.2217v7.416h-2.2217z"/><path d="m67.911,206.72h2.2217v13.266h-2.2217z" transform="translate(11.035 -.00002)"/><path d="m73.391,206.72h2.2217v13.266h-2.2217z"/><path d="m212-43.903h2.222v11.785h-2.222z" transform="matrix(0 1 -1 0 .00922 -.00002)"/><path d="m212-69.772h2.222v11.785h-2.222z" transform="rotate(90)"/><path d="m57.987,212.57h2.2217v7.416h-2.2217z"/><path d="m57.987,212.57h2.2217v7.416h-2.2217z"/><path d="m57.987,212.57h2.2217v7.416h-2.2217z"/><path d="m32.299,212.57h2.2217v7.416h-2.2217z" transform="translate(-.17213 -.00002)"/><path d="m51.082,212.57h2.2217v7.416h-2.2217z"/><path d="m41.691,212.57h2.2217v7.416h-2.2217z" transform="translate(0 -.00002)"/><path d="m217.76-52.641h2.222v9.9621h-2.222z" transform="rotate(90)"/><path d="m212-53.304h2.222v6.3161h-2.222z" transform="rotate(90)"/></g><g transform="matrix(1.4724 0 0 1.4724 742.06 -165.4)"><path d="m32.067,206.72h32.289v2.222h-32.289z"/><path d="m36.881,217.83h2.2217v2.158h-2.2217z"/><path d="m217.76-64.44h2.222v6.453h-2.222z" transform="rotate(90)"/><path d="m67.911,206.72h2.2217v13.266h-2.2217z"/><path d="m217.76-80.765h2.222v12.229h-2.222z" transform="rotate(90)"/><path d="m57.987,212.57h2.2217v7.416h-2.2217z"/><path d="m67.911,206.72h2.2217v13.266h-2.2217z" transform="translate(11.035 -.00002)"/><path d="m73.391,206.72h2.2217v13.266h-2.2217z"/><path d="m212-43.903h2.222v11.785h-2.222z" transform="matrix(0 1 -1 0 .00922 -.00002)"/><path d="m212-69.772h2.222v11.785h-2.222z" transform="rotate(90)"/><path d="m57.987,212.57h2.2217v7.416h-2.2217z"/><path d="m57.987,212.57h2.2217v7.416h-2.2217z"/><path d="m57.987,212.57h2.2217v7.416h-2.2217z"/><path d="m32.299,212.57h2.2217v7.416h-2.2217z" transform="translate(-.17213 -.00002)"/><path d="m51.082,212.57h2.2217v7.416h-2.2217z"/><path d="m41.691,212.57h2.2217v7.416h-2.2217z" transform="translate(0 -.00002)"/><path d="m217.76-52.641h2.222v9.9621h-2.222z" transform="rotate(90)"/><path d="m212-53.304h2.222v6.3161h-2.222z" transform="rotate(90)"/></g><g transform="matrix(1.4724 0 0 1.4724 273.19 -165.4)"><path d="m32.067,206.72h32.289v2.222h-32.289z"/><path d="m36.881,217.83h2.2217v2.158h-2.2217z"/><path d="m217.76-64.44h2.222v6.453h-2.222z" transform="rotate(90)"/><path d="m67.911,206.72h2.2217v13.266h-2.2217z"/><path d="m217.76-80.765h2.222v12.229h-2.222z" transform="rotate(90)"/><path d="m57.987,212.57h2.2217v7.416h-2.2217z"/><path d="m67.911,206.72h2.2217v13.266h-2.2217z" transform="translate(11.035 -.00002)"/><path d="m73.391,206.72h2.2217v13.266h-2.2217z"/><path d="m212-43.903h2.222v11.785h-2.222z" transform="matrix(0 1 -1 0 .00922 -.00002)"/><path d="m212-69.772h2.222v11.785h-2.222z" transform="rotate(90)"/><path d="m57.987,212.57h2.2217v7.416h-2.2217z"/><path d="m57.987,212.57h2.2217v7.416h-2.2217z"/><path d="m57.987,212.57h2.2217v7.416h-2.2217z"/><path d="m32.299,212.57h2.2217v7.416h-2.2217z" transform="translate(-.17213 -.00002)"/><path d="m51.082,212.57h2.2217v7.416h-2.2217z"/><path d="m41.691,212.57h2.2217v7.416h-2.2217z" transform="translate(0 -.00002)"/><path d="m217.76-52.641h2.222v9.9621h-2.222z" transform="rotate(90)"/><path d="m212-53.304h2.222v6.3161h-2.222z" transform="rotate(90)"/></g><g transform="matrix(1.4724 0 0 1.4724 351.41 -165.4)"><path d="m32.067,206.72h32.289v2.222h-32.289z"/><path d="m36.881,217.83h2.2217v2.158h-2.2217z"/><path d="m217.76-64.44h2.222v6.453h-2.222z" transform="rotate(90)"/><path d="m67.911,206.72h2.2217v13.266h-2.2217z"/><path d="m217.76-80.765h2.222v12.229h-2.222z" transform="rotate(90)"/><path d="m57.987,212.57h2.2217v7.416h-2.2217z"/><path d="m67.911,206.72h2.2217v13.266h-2.2217z" transform="translate(11.035 -.00002)"/><path d="m73.391,206.72h2.2217v13.266h-2.2217z"/><path d="m212-43.903h2.222v11.785h-2.222z" transform="matrix(0 1 -1 0 .00922 -.00002)"/><path d="m212-69.772h2.222v11.785h-2.222z" transform="rotate(90)"/><path d="m57.987,212.57h2.2217v7.416h-2.2217z"/><path d="m57.987,212.57h2.2217v7.416h-2.2217z"/><path d="m57.987,212.57h2.2217v7.416h-2.2217z"/><path d="m32.299,212.57h2.2217v7.416h-2.2217z" transform="translate(-.17213 -.00002)"/><path d="m51.082,212.57h2.2217v7.416h-2.2217z"/><path d="m41.691,212.57h2.2217v7.416h-2.2217z" transform="translate(0 -.00002)"/><path d="m217.76-52.641h2.222v9.9621h-2.222z" transform="rotate(90)"/><path d="m212-53.304h2.222v6.3161h-2.222z" transform="rotate(90)"/></g><g transform="matrix(1.4724 0 0 1.4724 430.09 -165.4)"><path d="m32.067,206.72h32.289v2.222h-32.289z"/><path d="m36.881,217.83h2.2217v2.158h-2.2217z"/><path d="m217.76-64.44h2.222v6.453h-2.222z" transform="rotate(90)"/><path d="m67.911,206.72h2.2217v13.266h-2.2217z"/><path d="m217.76-80.765h2.222v12.229h-2.222z" transform="rotate(90)"/><path d="m57.987,212.57h2.2217v7.416h-2.2217z"/><path d="m67.911,206.72h2.2217v13.266h-2.2217z" transform="translate(11.035 -.00002)"/><path d="m73.391,206.72h2.2217v13.266h-2.2217z"/><path d="m212-43.903h2.222v11.785h-2.222z" transform="matrix(0 1 -1 0 .00922 -.00002)"/><path d="m212-69.772h2.222v11.785h-2.222z" transform="rotate(90)"/><path d="m57.987,212.57h2.2217v7.416h-2.2217z"/><path d="m57.987,212.57h2.2217v7.416h-2.2217z"/><path d="m57.987,212.57h2.2217v7.416h-2.2217z"/><path d="m32.299,212.57h2.2217v7.416h-2.2217z" transform="translate(-.17213 -.00002)"/><path d="m51.082,212.57h2.2217v7.416h-2.2217z"/><path d="m41.691,212.57h2.2217v7.416h-2.2217z" transform="translate(0 -.00002)"/><path d="m217.76-52.641h2.222v9.9621h-2.222z" transform="rotate(90)"/><path d="m212-53.304h2.222v6.3161h-2.222z" transform="rotate(90)"/></g><g transform="matrix(1.4724 0 0 1.4724 508.32 -165.4)"><path d="m32.067,206.72h32.289v2.222h-32.289z"/><path d="m36.881,217.83h2.2217v2.158h-2.2217z"/><path d="m217.76-64.44h2.222v6.453h-2.222z" transform="rotate(90)"/><path d="m67.911,206.72h2.2217v13.266h-2.2217z"/><path d="m217.76-80.765h2.222v12.229h-2.222z" transform="rotate(90)"/><path d="m57.987,212.57h2.2217v7.416h-2.2217z"/><path d="m67.911,206.72h2.2217v13.266h-2.2217z" transform="translate(11.035 -.00002)"/><path d="m73.391,206.72h2.2217v13.266h-2.2217z"/><path d="m212-43.903h2.222v11.785h-2.222z" transform="matrix(0 1 -1 0 .00922 -.00002)"/><path d="m212-69.772h2.222v11.785h-2.222z" transform="rotate(90)"/><path d="m57.987,212.57h2.2217v7.416h-2.2217z"/><path d="m57.987,212.57h2.2217v7.416h-2.2217z"/><path d="m57.987,212.57h2.2217v7.416h-2.2217z"/><path d="m32.299,212.57h2.2217v7.416h-2.2217z" transform="translate(-.17213 -.00002)"/><path d="m51.082,212.57h2.2217v7.416h-2.2217z"/><path d="m41.691,212.57h2.2217v7.416h-2.2217z" transform="translate(0 -.00002)"/><path d="m217.76-52.641h2.222v9.9621h-2.222z" transform="rotate(90)"/><path d="m212-53.304h2.222v6.3161h-2.222z" transform="rotate(90)"/></g><g transform="matrix(1.4724 0 0 1.4724 586.54 -165.4)"><path d="m32.067,206.72h32.289v2.222h-32.289z"/><path d="m36.881,217.83h2.2217v2.158h-2.2217z"/><path d="m217.76-64.44h2.222v6.453h-2.222z" transform="rotate(90)"/><path d="m67.911,206.72h2.2217v13.266h-2.2217z"/><path d="m217.76-80.765h2.222v12.229h-2.222z" transform="rotate(90)"/><path d="m57.987,212.57h2.2217v7.416h-2.2217z"/><path d="m67.911,206.72h2.2217v13.266h-2.2217z" transform="translate(11.035 -.00002)"/><path d="m73.391,206.72h2.2217v13.266h-2.2217z"/><path d="m212-43.903h2.222v11.785h-2.222z" transform="matrix(0 1 -1 0 .00922 -.00002)"/><path d="m212-69.772h2.222v11.785h-2.222z" transform="rotate(90)"/><path d="m57.987,212.57h2.2217v7.416h-2.2217z"/><path d="m57.987,212.57h2.2217v7.416h-2.2217z"/><path d="m57.987,212.57h2.2217v7.416h-2.2217z"/><path d="m32.299,212.57h2.2217v7.416h-2.2217z" transform="translate(-.17213 -.00002)"/><path d="m51.082,212.57h2.2217v7.416h-2.2217z"/><path d="m41.691,212.57h2.2217v7.416h-2.2217z" transform="translate(0 -.00002)"/><path d="m217.76-52.641h2.222v9.9621h-2.222z" transform="rotate(90)"/><path d="m212-53.304h2.222v6.3161h-2.222z" transform="rotate(90)"/></g><g transform="matrix(1.4724 0 0 1.4724 665.22 -165.4)"><path d="m32.067,206.72h32.289v2.222h-32.289z"/><path d="m36.881,217.83h2.2217v2.158h-2.2217z"/><path d="m217.76-64.44h2.222v6.453h-2.222z" transform="rotate(90)"/><path d="m67.911,206.72h2.2217v13.266h-2.2217z"/><path d="m217.76-80.765h2.222v12.229h-2.222z" transform="rotate(90)"/><path d="m57.987,212.57h2.2217v7.416h-2.2217z"/><path d="m67.911,206.72h2.2217v13.266h-2.2217z" transform="translate(11.035 -.00002)"/><path d="m73.391,206.72h2.2217v13.266h-2.2217z"/><path d="m212-43.903h2.222v11.785h-2.222z" transform="matrix(0 1 -1 0 .00922 -.00002)"/><path d="m212-69.772h2.222v11.785h-2.222z" transform="rotate(90)"/><path d="m57.987,212.57h2.2217v7.416h-2.2217z"/><path d="m57.987,212.57h2.2217v7.416h-2.2217z"/><path d="m57.987,212.57h2.2217v7.416h-2.2217z"/><path d="m32.299,212.57h2.2217v7.416h-2.2217z" transform="translate(-.17213 -.00002)"/><path d="m51.082,212.57h2.2217v7.416h-2.2217z"/><path d="m41.691,212.57h2.2217v7.416h-2.2217z" transform="translate(0 -.00002)"/><path d="m217.76-52.641h2.222v9.9621h-2.222z" transform="rotate(90)"/><path d="m212-53.304h2.222v6.3161h-2.222z" transform="rotate(90)"/></g><g transform="matrix(1.4724 0 0 1.4724 -39.296 -165.4)"><path d="m32.067,206.72h32.289v2.222h-32.289z"/><path d="m36.881,217.83h2.2217v2.158h-2.2217z"/><path d="m217.76-64.44h2.222v6.453h-2.222z" transform="rotate(90)"/><path d="m67.911,206.72h2.2217v13.266h-2.2217z"/><path d="m217.76-80.765h2.222v12.229h-2.222z" transform="rotate(90)"/><path d="m57.987,212.57h2.2217v7.416h-2.2217z"/><path d="m67.911,206.72h2.2217v13.266h-2.2217z" transform="translate(11.035 -.00002)"/><path d="m73.391,206.72h2.2217v13.266h-2.2217z"/><path d="m212-43.903h2.222v11.785h-2.222z" transform="matrix(0 1 -1 0 .00922 -.00002)"/><path d="m212-69.772h2.222v11.785h-2.222z" transform="rotate(90)"/><path d="m57.987,212.57h2.2217v7.416h-2.2217z"/><path d="m57.987,212.57h2.2217v7.416h-2.2217z"/><path d="m57.987,212.57h2.2217v7.416h-2.2217z"/><path d="m32.299,212.57h2.2217v7.416h-2.2217z" transform="translate(-.17213 -.00002)"/><path d="m51.082,212.57h2.2217v7.416h-2.2217z"/><path d="m41.691,212.57h2.2217v7.416h-2.2217z" transform="translate(0 -.00002)"/><path d="m217.76-52.641h2.222v9.9621h-2.222z" transform="rotate(90)"/><path d="m212-53.304h2.222v6.3161h-2.222z" transform="rotate(90)"/></g></g><g fill="#d90000" transform="translate(0 171.39)"><path d="m119.3,157.55h5.86v10.178h-5.86z"/><path d="m274.84,157.55h5.86v10.178h-5.86z"/><path d="m-.0424,157.55h5.8601v10.178h-5.8601z"/><path d="m39.308,157.55h5.8601v10.178h-5.8601z" transform="translate(39.591 -.00002)"/><path d="m39.308,157.55h5.8601v10.178h-5.8601z" transform="translate(117.97 -.00002)"/><path d="m39.308,157.55h5.8601v10.178h-5.8601z" transform="translate(156.75 -.00002)"/><path d="m39.308,157.55h5.8601v10.178h-5.8601z" transform="translate(196.34 -.00002)"/><path d="m313.62,157.55h5.86v10.178h-5.86z"/><path d="m510.36,157.55h5.86v10.178h-5.86z"/><path d="m39.308,157.55h5.8601v10.178h-5.8601z" transform="translate(313.9 -.00002)"/><path d="m39.308,157.55h5.8601v10.178h-5.8601z" transform="translate(352.69 -.00002)"/><path d="m39.308,157.55h5.8601v10.178h-5.8601z" transform="translate(391.87 -.00002)"/><path d="m39.308,157.55h5.8601v10.178h-5.8601z" transform="translate(431.06 -.00002)"/><path d="m783.46,157.55h5.86v10.178h-5.86z"/><path d="m39.308,157.55h5.8601v10.178h-5.8601z" transform="translate(509.03 -.00002)"/><path d="m39.308,157.55h5.8601v10.178h-5.8601z" transform="translate(548.62 -.00002)"/><path d="m39.308,157.55h5.8601v10.178h-5.8601z" transform="translate(588.62 -.00002)"/><path d="m39.308,157.55h5.8601v10.178h-5.8601z" transform="translate(626.19 -.00002)"/><path d="m39.308,157.55h5.8601v10.178h-5.8601z" transform="translate(666.18 -.00002)"/><path d="m39.308,157.55h5.8601v10.178h-5.8601z" transform="translate(705.37 -.00002)"/><path d="m860.63,157.55h5.86v10.178h-5.86z"/><path d="m39.308,157.55h5.8601v10.178h-5.8601z" transform="translate(783.75 -.00002)"/><path d="m39.308,157.55h5.8601v10.178h-5.8601z"/></g><g fill="#239e3f" transform="translate(0 -.00002)"><path d="m119.3,157.55h5.86v10.178h-5.86z"/><path d="m274.84,157.55h5.86v10.178h-5.86z"/><path d="m-.0424,157.55h5.8601v10.178h-5.8601z"/><path d="m39.308,157.55h5.8601v10.178h-5.8601z" transform="translate(39.591 -.00002)"/><path d="m39.308,157.55h5.8601v10.178h-5.8601z" transform="translate(117.97 -.00002)"/><path d="m39.308,157.55h5.8601v10.178h-5.8601z" transform="translate(156.75 -.00002)"/><path d="m39.308,157.55h5.8601v10.178h-5.8601z" transform="translate(196.34 -.00002)"/><path d="m313.62,157.55h5.86v10.178h-5.86z"/><path d="m510.36,157.55h5.86v10.178h-5.86z"/><path d="m39.308,157.55h5.8601v10.178h-5.8601z" transform="translate(313.9 -.00002)"/><path d="m39.308,157.55h5.8601v10.178h-5.8601z" transform="translate(352.69 -.00002)"/><path d="m39.308,157.55h5.8601v10.178h-5.8601z" transform="translate(391.87 -.00002)"/><path d="m39.308,157.55h5.8601v10.178h-5.8601z" transform="translate(431.06 -.00002)"/><path d="m783.46,157.55h5.86v10.178h-5.86z"/><path d="m39.308,157.55h5.8601v10.178h-5.8601z" transform="translate(509.03 -.00002)"/><path d="m39.308,157.55h5.8601v10.178h-5.8601z" transform="translate(548.62 -.00002)"/><path d="m39.308,157.55h5.8601v10.178h-5.8601z" transform="translate(588.62 -.00002)"/><path d="m39.308,157.55h5.8601v10.178h-5.8601z" transform="translate(626.19 -.00002)"/><path d="m39.308,157.55h5.8601v10.178h-5.8601z" transform="translate(666.18 -.00002)"/><path d="m39.308,157.55h5.8601v10.178h-5.8601z" transform="translate(705.37 -.00002)"/><path d="m860.63,157.55h5.86v10.178h-5.86z"/><path d="m39.308,157.55h5.8601v10.178h-5.8601z" transform="translate(783.75 -.00002)"/><path d="m39.308,157.55h5.8601v10.178h-5.8601z"/></g></g><g fill="#da0000" transform="translate(11.919 -515.45)"><path d="m445.16,706.81c8.19,10.039 33.438,65.548-15.241,101.91-22.884,17.223-8.714,18.093-8.037,20.988 36.785-19.539 48.799-46.013 48.52-69.727-.28-23.715-12.853-44.669-25.242-53.167z"/><path d="m450.03,704.23c18.166,9.301 57.701,56.079 15.149,108.85 26.439-5.868 60.053-83.729-15.149-108.85z"/><path d="m394.24,704.23c-18.166,9.301-57.701,56.079-15.149,108.85-26.439-5.868-60.053-83.729 15.149-108.85z"/><path d="m399.04,706.81c-8.19,10.039-33.438,65.548 15.241,101.91 22.884,17.223 8.714,18.093 8.037,20.988-36.785-19.539-48.799-46.013-48.52-69.727 .28-23.715 12.853-44.669 25.242-53.167z"/><path d="m468.8,824.65c-14.398,.228-32.549-1.984-46.01-8.979 2.217,4.311 4.059,7.026 6.276,11.337 12.838,1.184 30.554,2.649 39.734-2.358z"/><path d="m376.78,824.65c14.398,.228 32.549-1.984 46.01-8.979-2.217,4.311-4.059,7.026-6.276,11.337-12.838,1.184-30.554,2.649-39.734-2.358z"/><path d="m403.19,690.25c2.917,7.753 10.57,8.88 18.762,4.315 5.97,3.582 15.202,3.809 18.386-3.94 2.421,19.169-17.736,14.634-18.487,10.882-7.504,7.254-21.475,3.064-18.661-11.257z"/><path d="m422.49,836.72 7.57-8.652 1.082-116.44-9.012-7.931-9.012,7.57 1.802,117.16 7.57,8.291z"/></g></g></svg>