<svg xmlns="http://www.w3.org/2000/svg" viewBox="0 0 512 512" xmlns:xlink="http://www.w3.org/1999/xlink"><defs><path id="0" d="m39.31 157.55h5.86v10.178h-5.86z"/><path id="1" d="m32.07 206.72h32.29v2.222h-32.29z"/><path id="2" d="m217.76-64.44h2.222v6.453h-2.222z"/><path id="3" d="m217.76-80.77h2.222v12.229h-2.222z"/><path id="4" d="m67.911 206.72h2.222v13.266h-2.222z"/><path id="5" d="m212-43.903h2.222v11.785h-2.222z"/><path id="6" d="m57.987 212.57h2.222v7.416h-2.222z"/><path id="7" d="m51.08 212.57h2.222v7.416h-2.222z"/><path id="8" d="m217.76-52.641h2.222v9.962h-2.222z"/><path id="9" d="m36.881 217.83h2.222v2.158h-2.222z"/><path id="A" d="m212-69.772h2.222v11.785h-2.222z"/><path id="B" d="m41.691 212.57h2.222v7.416h-2.222z"/><path id="C" d="m73.39 206.72h2.222v13.266h-2.222z"/><path id="D" d="m212-53.3h2.222v6.316h-2.222z"/><path id="E" d="m32.3 212.57h2.222v7.416h-2.222z"/><clipPath id="F"><path d="m185.98 0h496.06v496.06h-496.06z"/></clipPath></defs><g fill-rule="evenodd" clip-path="url(#F)" transform="matrix(1.0321 0 0 1.0321-191.96 0)"><g stroke-width="1.25"><path fill="#fff" d="m0 0h868.11v496.06h-868.11z"/><path fill="#da0000" d="M 0,333.13 H868.11 V496.06 H0 z"/><g fill="#fff"><g transform="matrix(1.4724 0 0 1.4724 117.81 35.66)"><use xlink:href="#1"/><use transform="matrix(0 1-1 0 0 0)" xlink:href="#2"/><use xlink:href="#4"/><use transform="matrix(0 1-1 0 0 0)" xlink:href="#3"/><use xlink:href="#6"/><use transform="translate(11.04)" xlink:href="#4"/><use xlink:href="#C"/><use transform="matrix(0 1-1 0 .009 0)" xlink:href="#5"/><use transform="matrix(0 1-1 0 0 0)" xlink:href="#A"/><use xlink:href="#6"/><use xlink:href="#6"/><use xlink:href="#6"/><use xlink:href="#7"/><g transform="matrix(0 1-1 0 0 0)"><use xlink:href="#8"/><use xlink:href="#D"/></g></g><g transform="matrix(1.4724 0 0 1.4724 39.725 35.66)"><use xlink:href="#1"/><use xlink:href="#9"/><use transform="matrix(0 1-1 0 0 0)" xlink:href="#2"/><use xlink:href="#4"/><use transform="matrix(0 1-1 0 0 0)" xlink:href="#3"/><use xlink:href="#6"/><use transform="translate(11.04)" xlink:href="#4"/><use transform="matrix(0 1-1 0 .009 0)" xlink:href="#5"/><use transform="matrix(0 1-1 0 0 0)" xlink:href="#A"/><use xlink:href="#6"/><use xlink:href="#6"/><use xlink:href="#6"/><use xlink:href="#7"/><use xlink:href="#B"/><use transform="matrix(0 1-1 0 0 0)" xlink:href="#8"/></g><g transform="matrix(1.4724 0 0 1.4724 195.25 35.66)"><use xlink:href="#1"/><use xlink:href="#9"/><use transform="matrix(0 1-1 0 0 0)" xlink:href="#2"/><use xlink:href="#4"/><use transform="matrix(0 1-1 0 0 0)" xlink:href="#3"/><use xlink:href="#6"/><use transform="translate(11.04)" xlink:href="#4"/><use xlink:href="#C"/><use transform="matrix(0 1-1 0 .009 0)" xlink:href="#5"/><use transform="matrix(0 1-1 0 0 0)" xlink:href="#A"/><use xlink:href="#6"/><use xlink:href="#6"/><use xlink:href="#6"/><use transform="translate(-.172)" xlink:href="#E"/><use xlink:href="#7"/><use xlink:href="#B"/><g transform="matrix(0 1-1 0 0 0)"><use xlink:href="#8"/><use xlink:href="#D"/></g></g><g transform="matrix(1.4724 0 0 1.4724 742.06 35.66)"><use xlink:href="#1"/><use xlink:href="#9"/><use transform="matrix(0 1-1 0 0 0)" xlink:href="#2"/><use xlink:href="#4"/><use transform="matrix(0 1-1 0 0 0)" xlink:href="#3"/><use xlink:href="#6"/><use transform="translate(11.04)" xlink:href="#4"/><use xlink:href="#C"/><use transform="matrix(0 1-1 0 .009 0)" xlink:href="#5"/><use transform="matrix(0 1-1 0 0 0)" xlink:href="#A"/><use xlink:href="#6"/><use xlink:href="#6"/><use xlink:href="#6"/><use xlink:href="#7"/><use xlink:href="#B"/><g transform="matrix(0 1-1 0 0 0)"><use xlink:href="#8"/><use xlink:href="#D"/></g></g><g transform="matrix(1.4724 0 0 1.4724 273.19 35.66)"><use xlink:href="#1"/><use xlink:href="#9"/><use transform="matrix(0 1-1 0 0 0)" xlink:href="#2"/><use xlink:href="#4"/><use transform="matrix(0 1-1 0 0 0)" xlink:href="#3"/><use xlink:href="#6"/><use transform="translate(11.04)" xlink:href="#4"/><use xlink:href="#C"/><use transform="matrix(0 1-1 0 .009 0)" xlink:href="#5"/><use transform="matrix(0 1-1 0 0 0)" xlink:href="#A"/><use xlink:href="#6"/><use xlink:href="#6"/><use xlink:href="#6"/><use transform="translate(-.172)" xlink:href="#E"/><use xlink:href="#7"/><use xlink:href="#B"/><g transform="matrix(0 1-1 0 0 0)"><use xlink:href="#8"/><use xlink:href="#D"/></g></g><g transform="matrix(1.4724 0 0 1.4724 351.41 35.66)"><use xlink:href="#1"/><use xlink:href="#9"/><use transform="matrix(0 1-1 0 0 0)" xlink:href="#2"/><use xlink:href="#4"/><use transform="matrix(0 1-1 0 0 0)" xlink:href="#3"/><use xlink:href="#6"/><use transform="translate(11.04)" xlink:href="#4"/><use xlink:href="#C"/><use transform="matrix(0 1-1 0 .009 0)" xlink:href="#5"/><use transform="matrix(0 1-1 0 0 0)" xlink:href="#A"/><use xlink:href="#6"/><use xlink:href="#6"/><use xlink:href="#6"/><use transform="translate(-.172)" xlink:href="#E"/><use xlink:href="#7"/><use xlink:href="#B"/><g transform="matrix(0 1-1 0 0 0)"><use xlink:href="#8"/><use xlink:href="#D"/></g></g></g><path fill="#239f40" d="m0 0h868.11v162.93h-868.11z"/><g fill="#fff"><g transform="matrix(1.4724 0 0 1.4724 430.09 35.66)"><use xlink:href="#1"/><use xlink:href="#9"/><use transform="matrix(0 1-1 0 0 0)" xlink:href="#2"/><use xlink:href="#4"/><use transform="matrix(0 1-1 0 0 0)" xlink:href="#3"/><use xlink:href="#6"/><use transform="translate(11.04)" xlink:href="#4"/><use xlink:href="#C"/><use transform="matrix(0 1-1 0 .009 0)" xlink:href="#5"/><use transform="matrix(0 1-1 0 0 0)" xlink:href="#A"/><use xlink:href="#6"/><use xlink:href="#6"/><use xlink:href="#6"/><use transform="translate(-.172)" xlink:href="#E"/><use xlink:href="#7"/><use xlink:href="#B"/><g transform="matrix(0 1-1 0 0 0)"><use xlink:href="#8"/><use xlink:href="#D"/></g></g><g transform="matrix(1.4724 0 0 1.4724 508.32 35.66)"><use xlink:href="#1"/><use xlink:href="#9"/><use transform="matrix(0 1-1 0 0 0)" xlink:href="#2"/><use xlink:href="#4"/><use transform="matrix(0 1-1 0 0 0)" xlink:href="#3"/><use xlink:href="#6"/><use transform="translate(11.04)" xlink:href="#4"/><use xlink:href="#C"/><use transform="matrix(0 1-1 0 .009 0)" xlink:href="#5"/><use transform="matrix(0 1-1 0 0 0)" xlink:href="#A"/><use xlink:href="#6"/><use xlink:href="#6"/><use xlink:href="#6"/><use transform="translate(-.172)" xlink:href="#E"/><use xlink:href="#7"/><use xlink:href="#B"/><g transform="matrix(0 1-1 0 0 0)"><use xlink:href="#8"/><use xlink:href="#D"/></g></g><g transform="matrix(1.4724 0 0 1.4724 586.54 35.66)"><use xlink:href="#1"/><use xlink:href="#9"/><use transform="matrix(0 1-1 0 0 0)" xlink:href="#2"/><use xlink:href="#4"/><use transform="matrix(0 1-1 0 0 0)" xlink:href="#3"/><use xlink:href="#6"/><use transform="translate(11.04)" xlink:href="#4"/><use xlink:href="#C"/><use transform="matrix(0 1-1 0 .009 0)" xlink:href="#5"/><use transform="matrix(0 1-1 0 0 0)" xlink:href="#A"/><use xlink:href="#6"/><use xlink:href="#6"/><use xlink:href="#6"/><use transform="translate(-.172)" xlink:href="#E"/><use xlink:href="#7"/><use xlink:href="#B"/><g transform="matrix(0 1-1 0 0 0)"><use xlink:href="#8"/><use xlink:href="#D"/></g></g><g transform="matrix(1.4724 0 0 1.4724 665.22 35.66)"><use xlink:href="#1"/><use xlink:href="#9"/><use transform="matrix(0 1-1 0 0 0)" xlink:href="#2"/><use xlink:href="#4"/><use transform="matrix(0 1-1 0 0 0)" xlink:href="#3"/><use xlink:href="#6"/><use transform="translate(11.04)" xlink:href="#4"/><use xlink:href="#C"/><use transform="matrix(0 1-1 0 .009 0)" xlink:href="#5"/><use transform="matrix(0 1-1 0 0 0)" xlink:href="#A"/><use xlink:href="#6"/><use xlink:href="#6"/><use xlink:href="#6"/><use transform="translate(-.172)" xlink:href="#E"/><use xlink:href="#7"/><use xlink:href="#B"/><g transform="matrix(0 1-1 0 0 0)"><use xlink:href="#8"/><use xlink:href="#D"/></g></g><g transform="matrix(1.4724 0 0 1.4724-39.3 35.66)"><use xlink:href="#1"/><use xlink:href="#9"/><use transform="matrix(0 1-1 0 0 0)" xlink:href="#2"/><use xlink:href="#4"/><use transform="matrix(0 1-1 0 0 0)" xlink:href="#3"/><use xlink:href="#6"/><use transform="translate(11.04)" xlink:href="#4"/><use xlink:href="#C"/><use transform="matrix(0 1-1 0 .009 0)" xlink:href="#5"/><use transform="matrix(0 1-1 0 0 0)" xlink:href="#A"/><use xlink:href="#6"/><use xlink:href="#6"/><use xlink:href="#6"/><use transform="translate(-.172)" xlink:href="#E"/><use xlink:href="#7"/><use xlink:href="#B"/><g transform="matrix(0 1-1 0 0 0)"><use xlink:href="#8"/><use xlink:href="#D"/></g></g><g transform="matrix(1.4724 0 0 1.4724 117.81-165.4)"><use xlink:href="#1"/><use xlink:href="#9"/><use transform="matrix(0 1-1 0 0 0)" xlink:href="#2"/><use xlink:href="#4"/><use transform="matrix(0 1-1 0 0 0)" xlink:href="#3"/><use xlink:href="#6"/><use transform="translate(11.04)" xlink:href="#4"/><use xlink:href="#C"/><use transform="matrix(0 1-1 0 .009 0)" xlink:href="#5"/><use transform="matrix(0 1-1 0 0 0)" xlink:href="#A"/><use xlink:href="#6"/><use xlink:href="#6"/><use xlink:href="#6"/><use transform="translate(-.172)" xlink:href="#E"/><use xlink:href="#7"/><use xlink:href="#B"/><g transform="matrix(0 1-1 0 0 0)"><use xlink:href="#8"/><use xlink:href="#D"/></g></g><g transform="matrix(1.4724 0 0 1.4724 39.725-165.4)"><use xlink:href="#1"/><use xlink:href="#9"/><use transform="matrix(0 1-1 0 0 0)" xlink:href="#2"/><use xlink:href="#4"/><use transform="matrix(0 1-1 0 0 0)" xlink:href="#3"/><use xlink:href="#6"/><use transform="translate(11.04)" xlink:href="#4"/><use xlink:href="#C"/><use transform="matrix(0 1-1 0 .009 0)" xlink:href="#5"/><use transform="matrix(0 1-1 0 0 0)" xlink:href="#A"/><use xlink:href="#6"/><use xlink:href="#6"/><use xlink:href="#6"/><use transform="translate(-.172)" xlink:href="#E"/><use xlink:href="#7"/><use xlink:href="#B"/><g transform="matrix(0 1-1 0 0 0)"><use xlink:href="#8"/><use xlink:href="#D"/></g></g><g transform="matrix(1.4724 0 0 1.4724 195.25-165.4)"><use xlink:href="#1"/><use xlink:href="#9"/><use transform="matrix(0 1-1 0 0 0)" xlink:href="#2"/><use xlink:href="#4"/><use transform="matrix(0 1-1 0 0 0)" xlink:href="#3"/><use xlink:href="#6"/><use transform="translate(11.04)" xlink:href="#4"/><use xlink:href="#C"/><use transform="matrix(0 1-1 0 .009 0)" xlink:href="#5"/><use transform="matrix(0 1-1 0 0 0)" xlink:href="#A"/><use xlink:href="#6"/><use xlink:href="#6"/><use xlink:href="#6"/><use transform="translate(-.172)" xlink:href="#E"/><use xlink:href="#7"/><use xlink:href="#B"/><g transform="matrix(0 1-1 0 0 0)"><use xlink:href="#8"/><use xlink:href="#D"/></g></g><g transform="matrix(1.4724 0 0 1.4724 742.06-165.4)"><use xlink:href="#1"/><use xlink:href="#9"/><use transform="matrix(0 1-1 0 0 0)" xlink:href="#2"/><use xlink:href="#4"/><use transform="matrix(0 1-1 0 0 0)" xlink:href="#3"/><use xlink:href="#6"/><use transform="translate(11.04)" xlink:href="#4"/><use xlink:href="#C"/><use transform="matrix(0 1-1 0 .009 0)" xlink:href="#5"/><use transform="matrix(0 1-1 0 0 0)" xlink:href="#A"/><use xlink:href="#6"/><use xlink:href="#6"/><use xlink:href="#6"/><use transform="translate(-.172)" xlink:href="#E"/><use xlink:href="#7"/><use xlink:href="#B"/><g transform="matrix(0 1-1 0 0 0)"><use xlink:href="#8"/><use xlink:href="#D"/></g></g><g transform="matrix(1.4724 0 0 1.4724 273.19-165.4)"><use xlink:href="#1"/><use xlink:href="#9"/><use transform="matrix(0 1-1 0 0 0)" xlink:href="#2"/><use xlink:href="#4"/><use transform="matrix(0 1-1 0 0 0)" xlink:href="#3"/><use xlink:href="#6"/><use transform="translate(11.04)" xlink:href="#4"/><use xlink:href="#C"/><use transform="matrix(0 1-1 0 .009 0)" xlink:href="#5"/><use transform="matrix(0 1-1 0 0 0)" xlink:href="#A"/><use xlink:href="#6"/><use xlink:href="#6"/><use xlink:href="#6"/><use transform="translate(-.172)" xlink:href="#E"/><use xlink:href="#7"/><use xlink:href="#B"/><g transform="matrix(0 1-1 0 0 0)"><use xlink:href="#8"/><use xlink:href="#D"/></g></g><g transform="matrix(1.4724 0 0 1.4724 351.41-165.4)"><use xlink:href="#1"/><use xlink:href="#9"/><use transform="matrix(0 1-1 0 0 0)" xlink:href="#2"/><use xlink:href="#4"/><use transform="matrix(0 1-1 0 0 0)" xlink:href="#3"/><use xlink:href="#6"/><use transform="translate(11.04)" xlink:href="#4"/><use xlink:href="#C"/><use transform="matrix(0 1-1 0 .009 0)" xlink:href="#5"/><use transform="matrix(0 1-1 0 0 0)" xlink:href="#A"/><use xlink:href="#6"/><use xlink:href="#6"/><use xlink:href="#6"/><use transform="translate(-.172)" xlink:href="#E"/><use xlink:href="#7"/><use xlink:href="#B"/><g transform="matrix(0 1-1 0 0 0)"><use xlink:href="#8"/><use xlink:href="#D"/></g></g><g transform="matrix(1.4724 0 0 1.4724 430.09-165.4)"><use xlink:href="#1"/><use xlink:href="#9"/><use transform="matrix(0 1-1 0 0 0)" xlink:href="#2"/><use xlink:href="#4"/><use transform="matrix(0 1-1 0 0 0)" xlink:href="#3"/><use xlink:href="#6"/><use transform="translate(11.04)" xlink:href="#4"/><use xlink:href="#C"/><use transform="matrix(0 1-1 0 .009 0)" xlink:href="#5"/><use transform="matrix(0 1-1 0 0 0)" xlink:href="#A"/><use xlink:href="#6"/><use xlink:href="#6"/><use xlink:href="#6"/><use transform="translate(-.172)" xlink:href="#E"/><use xlink:href="#7"/><use xlink:href="#B"/><g transform="matrix(0 1-1 0 0 0)"><use xlink:href="#8"/><use xlink:href="#D"/></g></g><g transform="matrix(1.4724 0 0 1.4724 508.32-165.4)"><use xlink:href="#1"/><use xlink:href="#9"/><use transform="matrix(0 1-1 0 0 0)" xlink:href="#2"/><use xlink:href="#4"/><use transform="matrix(0 1-1 0 0 0)" xlink:href="#3"/><use xlink:href="#6"/><use transform="translate(11.04)" xlink:href="#4"/><use xlink:href="#C"/><use transform="matrix(0 1-1 0 .009 0)" xlink:href="#5"/><use transform="matrix(0 1-1 0 0 0)" xlink:href="#A"/><use xlink:href="#6"/><use xlink:href="#6"/><use xlink:href="#6"/><use transform="translate(-.172)" xlink:href="#E"/><use xlink:href="#7"/><use xlink:href="#B"/><g transform="matrix(0 1-1 0 0 0)"><use xlink:href="#8"/><use xlink:href="#D"/></g></g><g transform="matrix(1.4724 0 0 1.4724 586.54-165.4)"><use xlink:href="#1"/><use xlink:href="#9"/><use transform="matrix(0 1-1 0 0 0)" xlink:href="#2"/><use xlink:href="#4"/><use transform="matrix(0 1-1 0 0 0)" xlink:href="#3"/><use xlink:href="#6"/><use transform="translate(11.04)" xlink:href="#4"/><use xlink:href="#C"/><use transform="matrix(0 1-1 0 .009 0)" xlink:href="#5"/><use transform="matrix(0 1-1 0 0 0)" xlink:href="#A"/><use xlink:href="#6"/><use xlink:href="#6"/><use xlink:href="#6"/><use transform="translate(-.172)" xlink:href="#E"/><use xlink:href="#7"/><use xlink:href="#B"/><g transform="matrix(0 1-1 0 0 0)"><use xlink:href="#8"/><use xlink:href="#D"/></g></g><g transform="matrix(1.4724 0 0 1.4724 665.22-165.4)"><use xlink:href="#1"/><use xlink:href="#9"/><use transform="matrix(0 1-1 0 0 0)" xlink:href="#2"/><use xlink:href="#4"/><use transform="matrix(0 1-1 0 0 0)" xlink:href="#3"/><use xlink:href="#6"/><use transform="translate(11.04)" xlink:href="#4"/><use xlink:href="#C"/><use transform="matrix(0 1-1 0 .009 0)" xlink:href="#5"/><use transform="matrix(0 1-1 0 0 0)" xlink:href="#A"/><use xlink:href="#6"/><use xlink:href="#6"/><use xlink:href="#6"/><use transform="translate(-.172)" xlink:href="#E"/><use xlink:href="#7"/><use xlink:href="#B"/><g transform="matrix(0 1-1 0 0 0)"><use xlink:href="#8"/><use xlink:href="#D"/></g></g><g transform="matrix(1.4724 0 0 1.4724-39.3-165.4)"><use xlink:href="#1"/><use xlink:href="#9"/><use transform="matrix(0 1-1 0 0 0)" xlink:href="#2"/><use xlink:href="#4"/><use transform="matrix(0 1-1 0 0 0)" xlink:href="#3"/><use xlink:href="#6"/><use transform="translate(11.04)" xlink:href="#4"/><use xlink:href="#C"/><use transform="matrix(0 1-1 0 .009 0)" xlink:href="#5"/><use transform="matrix(0 1-1 0 0 0)" xlink:href="#A"/><use xlink:href="#6"/><use xlink:href="#6"/><use xlink:href="#6"/><use transform="translate(-.172)" xlink:href="#E"/><use xlink:href="#7"/><use xlink:href="#B"/><g transform="matrix(0 1-1 0 0 0)"><use xlink:href="#8"/><use xlink:href="#D"/></g></g></g><g fill="#d90000" transform="translate(0 171.39)"><path d="m119.3 157.55h5.86v10.178h-5.86z" id="G"/><path d="m274.84 157.55h5.86v10.178h-5.86z" id="H"/><path d="m-.042 157.55h5.86v10.178h-5.86z" id="I"/><use transform="translate(39.591)" xlink:href="#0"/><use transform="translate(117.97)" xlink:href="#0"/><use transform="translate(156.75)" xlink:href="#0"/><use transform="translate(196.34)" xlink:href="#0"/><path d="m313.62 157.55h5.86v10.178h-5.86z" id="J"/><path d="m510.36 157.55h5.86v10.178h-5.86z" id="K"/><use transform="translate(313.9)" xlink:href="#0"/><use transform="translate(352.69)" xlink:href="#0"/><use transform="translate(391.87)" xlink:href="#0"/><use transform="translate(431.06)" xlink:href="#0"/><path d="m783.46 157.55h5.86v10.178h-5.86z" id="L"/><use transform="translate(509.03)" xlink:href="#0"/><use transform="translate(548.62)" xlink:href="#0"/><use transform="translate(588.62)" xlink:href="#0"/><use transform="translate(626.19)" xlink:href="#0"/><use transform="translate(666.18)" xlink:href="#0"/><use transform="translate(705.37)" xlink:href="#0"/><path d="m860.63 157.55h5.86v10.178h-5.86z" id="M"/><use transform="translate(783.75)" xlink:href="#0"/><use xlink:href="#0"/></g><g fill="#239e3f"><use xlink:href="#G"/><use xlink:href="#H"/><use xlink:href="#I"/><use transform="translate(39.591)" xlink:href="#0"/><use transform="translate(117.97)" xlink:href="#0"/><use transform="translate(156.75)" xlink:href="#0"/><use transform="translate(196.34)" xlink:href="#0"/><use xlink:href="#J"/><use xlink:href="#K"/><use transform="translate(313.9)" xlink:href="#0"/><use transform="translate(352.69)" xlink:href="#0"/><use transform="translate(391.87)" xlink:href="#0"/><use transform="translate(431.06)" xlink:href="#0"/><use xlink:href="#L"/><use transform="translate(509.03)" xlink:href="#0"/><use transform="translate(548.62)" xlink:href="#0"/><use transform="translate(588.62)" xlink:href="#0"/><use transform="translate(626.19)" xlink:href="#0"/><use transform="translate(666.18)" xlink:href="#0"/><use transform="translate(705.37)" xlink:href="#0"/><use xlink:href="#M"/><use transform="translate(783.75)" xlink:href="#0"/><use xlink:href="#0"/></g></g><g fill="#da0000" transform="translate(11.919-515.45)"><path d="m445.16 706.81c8.19 10.04 33.438 65.55-15.241 101.91-22.884 17.223-8.714 18.09-8.04 20.988 36.785-19.539 48.799-46.01 48.52-69.73-.28-23.715-12.853-44.669-25.24-53.17z"/><path d="m450.03 704.23c18.17 9.301 57.701 56.08 15.15 108.85 26.439-5.868 60.05-83.73-15.15-108.85"/><path d="m394.24 704.23c-18.17 9.301-57.701 56.08-15.15 108.85-26.439-5.868-60.05-83.73 15.15-108.85"/><path d="m399.04 706.81c-8.19 10.04-33.438 65.55 15.241 101.91 22.884 17.223 8.714 18.09 8.04 20.988-36.785-19.539-48.799-46.01-48.52-69.73.28-23.715 12.853-44.669 25.24-53.17z"/><path d="m468.8 824.65c-14.398.228-32.549-1.984-46.01-8.979 2.217 4.311 4.059 7.03 6.276 11.337 12.838 1.184 30.554 2.649 39.734-2.358"/><path d="m376.78 824.65c14.398.228 32.549-1.984 46.01-8.979-2.217 4.311-4.059 7.03-6.276 11.337-12.838 1.184-30.554 2.649-39.734-2.358"/><path d="m403.19 690.25c2.917 7.753 10.57 8.88 18.762 4.315 5.97 3.582 15.202 3.809 18.386-3.94 2.421 19.17-17.736 14.634-18.487 10.882-7.504 7.254-21.475 3.064-18.661-11.257"/><path d="m422.49 836.72l7.57-8.652 1.082-116.44-9.01-7.931-9.01 7.57 1.802 117.16 7.57 8.291z"/></g></g></svg>