<svg xmlns="http://www.w3.org/2000/svg" viewBox="0 0 512 512"><defs><clipPath id="clipPath5782" clipPathUnits="userSpaceOnUse"><path fill-opacity=".67" d="m113.56-0h493.5v493.5h-493.5z"/></clipPath></defs><g clip-path="url(#clipPath5782)" transform="matrix(1.0375 0 0 1.0375 -117.82 .00002)"><g fill-rule="evenodd" stroke-width="1.25" transform="scale(23.5)"><path d="m0,0h42v7h-42z"/><path fill="#fff" d="m0,7h42v7h-42z"/><path fill="#090" d="m0,14h42v7h-42z"/><path fill="#f00" d="m0,21 21-10.5-21-10.5v21z"/><path fill="#fff" d="m7.0113,10.381 .9405,.453-1.0439,0 .2323,1.018-.6508-.817-.6509,.817 .2323-1.018-1.0438,0 .9404-.453-.6508-.8162 .9405,.4532 .2323-1.018 .2322,1.018 .9405-.4532z"/></g></g></svg>