<svg xmlns="http://www.w3.org/2000/svg" viewBox="0 0 512 512"><defs><clipPath id="0"><path d="m113.56 0h493.5v493.5h-493.5z"/></clipPath></defs><g clip-path="url(#0)" transform="matrix(1.0375 0 0 1.0375-117.82 0)"><g fill-rule="evenodd" stroke-width="1.25" transform="scale(23.5)"><path d="m0 0h42v7h-42z"/><path fill="#fff" d="m0 7h42v7h-42z"/><path fill="#090" d="m0 14h42v7h-42z"/><path fill="#f00" d="m0 21l21-10.5-21-10.5v21"/><path fill="#fff" d="m7.01 10.381l.941.453h-1.044l.232 1.018-.651-.817-.651.817.232-1.018h-1.044l.94-.453-.651-.816.941.453.232-1.018.232 1.018.941-.453z"/></g></g></svg>