<svg xmlns="http://www.w3.org/2000/svg" viewBox="0 0 512 512" xmlns:xlink="http://www.w3.org/1999/xlink"><defs><path id="1" d="m380.22 199.25c0 38.559-31.26 69.816-69.816 69.816-38.559 0-69.816-31.26-69.816-69.816 0-38.559 31.26-69.816 69.816-69.816 38.559 0 69.816 31.26 69.816 69.816"/><clipPath id="0"><path d="m104.06 0h416.25v416.25h-416.25z"/></clipPath></defs><g fill-rule="evenodd" clip-path="url(#0)" transform="matrix(1.23 0 0 1.23-128 0)"><path fill="#be0027" stroke-width="1.25" d="m0 0h625v416.25h-625z"/><g fill="#ff0"><path d="m186.65 207.9c11.1-13.504 34.1-.324 52.881-10.05-22.24 1.223-34.37-10.674-51.937-9.01 18.207-11.184 33.707 3.658 54.06-2.308-26.963-2.268-25.794-14.321-50.31-16.03 21.778-9.288 32.549 9.553 53.882 5.268-25.14-5.804-28.491-20.614-47.19-23.749 27.323-4.124 25.542 12.03 52.33 14-27.19-11.662-20.06-21.786-42.8-30.668 25.444-.601 23.757 17.03 49.53 21.658-22.07-14-19.342-26.776-37.519-36.773 21.564.39 23.669 22.462 45.677 29.3-19.632-15.577-14.469-28.71-31.433-42.62 21.449 5.03 18.326 24.07 40.665 36.22-16.555-18.386-10.203-31.548-24.645-46.598 20.629 6.644 12.792 24.74 34.2 41.946-12.271-20.21-4.695-33.09-16.771-50.14 19.15 9.891 9.879 28.35 27.66 46.794-8.37-20.738.012-33.619-8.542-51.983 16.383 12.241 6.639 31.969 19.855 50.789-4.818-25.95 6.375-30.22 2.892-52.945 12.444 15.276-1.465 30.553 8.09 53.06-1.163-25.59 12.434-31.54 10.08-52.09 12.332 18.41-6.916 34.432 1.134 54.15 2.082-24.279 18.04-30.566 18.284-49.46 9.701 17.343-11.472 29.814-8.04 52.808 6.967-25.362 23.964-28.496 25.969-45.548 5.882 20.06-17.288 29.39-15.933 51.626 6.901-22.549 28.15-25.19 32.489-41.849 2.68 21.22-18.212 24.993-24.09 48.44 10.985-19.14 30.2-20.708 38.847-35.844-.679 20.987-24.26 23.739-31.502 43.39 13.597-16.674 30.642-13.78 44.24-28.564-1.435 18.942-25.441 17.871-38.22 37.482 14.744-13.603 36.938-9.527 48.24-21.239-.548 16.754-30.01 15.495-43.898 30.47 17.13-9.386 38.826-3.873 51.4-12.591-2.298 14.689-33.394 11.256-48.26 22.72 20.496-5.679 36.32 3.097 52.927-3.248-8.08 14.298-36.29 5.248-51.26 14.543 17.787-3.01 36.687 7.764 52.918 4.307-5.335 12.358-36.24-.747-52.918 6.941 19.926-.175 32.847 12.548 51.33 11.706-10.05 11.189-37.23-4.197-53.06-1.569 19.316 3.996 34.07 20 48.719 20.772-12.02 9.229-34.489-11.786-52.734-9.118 18.784 5.03 34.565 26.399 45.34 26.868-11.613 7.936-34.566-18.263-50.29-17.332 19.1 8.634 27.863 30.499 40.4 33.573-15.527 4.982-30.786-23.753-47.47-24.749 19.326 12.189 20.418 30.827 35.3 39.12-15.656 3.827-26.799-28.59-43.3-31.33 15.844 11.648 18.234 36.528 28.74 44.4-15.94.842-21.7-33.1-38.04-37.949 13.996 11.69 10.645 37.06 21.527 47.855-16.605-3.406-14.465-32.957-31.802-42.908 12.455 15.707 6.119 38.08 14.237 50.679-16.16-6.535-9.138-32.981-24.561-47.959 8.414 16.734-.629 36.25 6.01 52.43-14.758-7.198-4.832-38.523-16.14-50.947 5.199 19.338-4.39 35.34-.525 52.677-15.09-17.5 2.29-35.11-10.797-52.946 3.474 20.469-10.842 34.712-8.591 51.845-11.964-13.975 6.427-36.401-2.868-54.05 2 20.13-16.484 37.754-15.215 50.43-9.738-16.233 10.811-35.432 5.309-53.889-1.159 19.16-19.813 29.578-23.326 47.04-6.27-19.259 15.905-33.18 13.991-52.11-6.35 18-24.375 25.22-30.725 42.67-5.199-19.2 21.07-29.403 21.762-49.609-8.119 18.95-29.692 23.11-36.811 37.613-2.658-19.11 27.485-27.647 28.607-45.751-9.704 17.383-33.31 18.09-41.455 31.913-1.235-19.04 30.554-21.395 35.545-41.32-9.661 14.86-35.556 12.932-46.33 25.01 1.699-17.66 36.09-18.752 41.567-34.633-12.783 12.331-36.554 7.221-49.939 17 7.45-17.345 39.705-13.668 46.997-26.23-14.279 7.45-39.576.228-52.03 7.678 11.318-16.427 36.424-6.614 50.633-17.926-23.11 3.368-36.996-5.829-52.992-1.572" transform="translate(3.145 4.403)"/><use transform="matrix(1.1554 0 0 1.1554-45.879-22)" xlink:href="#1"/></g><use fill="#be0027" transform="matrix(1.0045 0 0 1.0045 1.118 8.223)" xlink:href="#1"/><use fill="#ff0" transform="matrix(.86261 0 0 .86261 45.32 36.652)" xlink:href="#1"/><path fill="#be0027" d="m258.67 164.66c16.667-.367 37.424 1.153 51.1 12.11 14.519-9.07 31.711-13.261 49.22-11.636 2.988 5.451 5.975 10.902 8.963 16.353-12.999-1.311-25.683.525-40.727 6.605 19.18 15.2 28.776 34.803 28.15 58.652-2.201 2.725-5.661 5.765-7.862 8.49 3.197-23.17-9.01-49.01-26.732-62.58 14.414 20.809 23.01 39.573 20.6 65.41-2.568 1.52-5.609 3.669-8.177 5.189 3.773-22.8-1.571-49.53-18.397-65.1 9.696 14.257 19.393 39.836 13.365 65.885-2.621.786-6.656 2.988-9.277 3.774 6.762-21.332 2.515-48.01-8.806-63.998-11.216 16.09-14.886 40.673-8.492 63.37-3.145-.786-5.503-1.73-8.648-2.516-4.612-24.425 1.783-51.996 12.895-66.36-11.322 6.552-22.01 34.645-19.03 63.37-2.725-1.258-4.822-2.202-7.547-3.46-3.669-21.438 6.03-49.32 19.97-65.41-15.83 9.959-28.671 34.385-26.417 60.697-2.411-2.149-4.665-3.197-7.08-5.346-2.778-22.958 10.483-46.07 26.1-59.91-13.156-5.871-24.425-7.02-40.726-6.762 2.568-5.294 4.98-11.531 7.548-16.825" transform="translate(3.145 4.403)"/></g></svg>