<svg xmlns="http://www.w3.org/2000/svg" viewBox="0 0 512 512" xmlns:xlink="http://www.w3.org/1999/xlink"><defs><path id="1" d="m245,280-5,15h60l-5-15h-50z"/><path id="2" d="m358.18 217.13l13.471 22.98 14.264-22.98h-27.735z"/><path id="3" d="m330.92 208.56l-18.42-20.45c6.141-5.303 17.543 3.789 17.543 3.789s6.14-23.485 32.457-33.33c26.316 9.849 32.456 33.33 32.456 33.33s11.403-9.09 17.544-3.789l-18.422 20.455h-63.16z"/><path id="4" d="m330.92 208.56l-.878-16.666s6.14-23.485 32.457-33.33c26.316 9.849 32.456 33.33 32.456 33.33l-.878 16.666h-63.16z"/><path id="5" d="m510.49 70.22l.41-25.609s23.557-2.998 20.288-9.332c-3.27-6.333-31.604 7.986-31.604 7.986h-113.34s-28.335-14.319-31.604-7.986c-3.269 6.334 20.288 9.332 20.288 9.332l.408 25.609h135.15z"/><clipPath id="0"><path d="m124.02 0h496.06v496.06h-496.06z"/></clipPath></defs><g fill-rule="evenodd" clip-path="url(#0)" transform="matrix(1.0321 0 0 1.0321-128 0)"><g stroke-width="1.25"><path fill="#1b0073" d="m0 0h744.09v496.06h-744.09z"/><path fill="#e60006" d="M 0,124.02 H744.09 V372.05 H0 z"/></g><g fill="#fff" stroke="#e60000"><path stroke-width="1.17" d="m214.37-113.98h315.35v50.992h-315.35z" transform="translate(0 354.33)"/><path stroke-width="1.25" d="m220,280-5,15h320l-5-15h-310z" transform="matrix(1.0187 0 0 .79988-9.965 67.38)"/><use stroke-width="1.123" transform="matrix(1.2359 0 0 .79988 160.47 67.38)" xlink:href="#1"/><use stroke-width="1.52" transform="matrix(.62245 0 0 .79988 328.64 67.38)" xlink:href="#1"/><use stroke-width="2.024" transform="matrix(.40229 0 0 .79988 388.1 67.38)" xlink:href="#1"/><use stroke-width="1.098" transform="matrix(1.2992 0 0 .79988 21.26 67.38)" xlink:href="#1"/><path stroke-width="1.186" d="m212.6 239.58h318.9v11.998h-318.9z"/><g transform="translate(0 354.33)"><path stroke-width="1.117" d="m462.79-113.87h62.5v50.792h-62.5z"/><g stroke-width=".805"><path d="m507.5-90.07h6.25v26.986h-6.25z"/><path d="m480-90.07h6.25v26.986h-6.25z"/></g></g><g><use stroke-width="1.554" transform="matrix(.65261 0 0 .79988 195.63 67.38)" xlink:href="#1"/><use stroke-width="1.956" transform="matrix(.40931 0 0 .79988 261.53 67.38)" xlink:href="#1"/><g transform="translate(0 354.33)"><path stroke-width="1.149" d="m338.8-113.98h65.854v50.992h-65.854z"/><g stroke-width="1.04"><path d="m391.27-90.07h6.25v26.986h-6.25z"/><path d="m347.78-90.08h6.254v26.986h-6.254z"/></g><path stroke-width=".891" d="m356.1-126.32h31.89v63.32h-31.89z"/><g stroke-width="1.04"><path d="m380.02-90.07h6.25v26.986h-6.25z"/><path d="m359.03-90.07h6.254v26.986h-6.254z"/></g></g><use stroke-width="1.25" transform="matrix(1 0 0 .84654 0 54.38)" xlink:href="#2"/></g><g transform="translate(0 354.33)"><path stroke-width="1.179" d="m487.59-113.98h17.717v62.99h-17.717z"/><path stroke-width="1.178" d="m490.54-113.98h11.799v62.99h-11.799z"/></g><g><use stroke-width="1.123" transform="matrix(1.236 0 0 .79988-84.45 67.38)" xlink:href="#1"/><use stroke-width="1.637" transform="matrix(.5811 0 0 .79988 90.86 67.38)" xlink:href="#1"/><use stroke-width="2.049" transform="matrix(.37077 0 0 .79988 147.56 67.38)" xlink:href="#1"/><g transform="translate(0 354.33)"><path stroke-width="1.115" d="m217.91-113.98h62.01v50.992h-62.01z"/><g stroke-width=".805"><path d="m230-90.07h6.25v26.986h-6.25z"/><path d="m258.75-90.06h6.25v26.986h-6.25z"/></g><path stroke-width="1.179" d="m239.17-113.98h17.717v62.99h-17.717z"/><path stroke-width="1.178" d="m242.11-113.98h11.799v62.99h-11.799z"/></g></g><path stroke-width="1.199" d="m209.06 228.35h325.98v11.998h-325.98z"/><g transform="matrix(1 0 0 .84654 0 54.38)"><g transform="matrix(1.0466 0 0 1.0413-36.796-6.02)"><path stroke-width="1.25" d="m187.5 328.56h406.25v17.5h-406.25z" id="7"/><path stroke-width="1.122" d="m226.25 284.81h327.5v17.5h-327.5z"/><path stroke-width="1.139" d="m221.25 288.56h337.5v17.5h-337.5z"/><use xlink:href="#7"/><path stroke-width="1.171" d="m212.5 298.56h356.25v17.5h-356.25z"/><path stroke-width="1.211" d="m200 311.06h381.25v17.5h-381.25z"/></g><g transform="matrix(.94488 0 0 1.0205-32.48 1.183)"><path stroke-width="1.287" d="m287.5 283.56h18.75v62.5h-18.75z" id="8"/><path stroke-width="1.051" d="m290.62 283.56h12.5v62.5h-12.5z" id="9"/></g><g transform="matrix(.94488 0 0 1.0205 215.55 1.183)"><use xlink:href="#8"/><use xlink:href="#9"/></g></g><path stroke-width="1.201" d="m365.5 240.35h14.239v113.98h-14.239z"/><g><path stroke-width="1.25" d="m217.92 220.3l.184-36.915s3.362 7.236 29.512 8.821c24.749-.937 28.848-5.362 29.969-9.284l-1.025 37.515-58.64-.137z" transform="matrix(.94365 0 0 .84654 261.19 54.38)" id="6"/><g transform="translate(246.55 2.241)"><use stroke-width="3.528" transform="matrix(.41468 0 0 .29996 99.01 139.48)" xlink:href="#3"/><use stroke-width="2.615" transform="matrix(.53908 0 0 .41994 53.919 130.35)" xlink:href="#3"/></g><g transform="matrix(1.0205 0 0 1.1198 221.61 77.956)"><path stroke-width="3.383" d="m0 280.52c.792 0 30.11 52.3 0 53.09-30.11.793 0-51.51 0-53.09z" transform="matrix(.3866 0 0 .35309 268.92-29.04)"/><use stroke-width="5.963" transform="matrix(.3125 0 0 .14062 155.67 64.12)" xlink:href="#3"/><use stroke-width="8.321" transform="matrix(.16047 0 0 .14062 210.78 66.47)" xlink:href="#4"/><g stroke-width="5.096"><use transform="matrix(.32094 0 0 .1875 152.61 63.722)" xlink:href="#4"/><use transform="matrix(.32094 0 0 .1875 152.61 68.41)" xlink:href="#4"/></g><g stroke-width="3.651"><use transform="matrix(.3125 0 0 .375 155.67 43.37)" xlink:href="#3"/><use transform="matrix(.3125 0 0 .375 155.67 52.742)" xlink:href="#3"/></g><use stroke-width="3.223" transform="matrix(.32094 0 0 .46875 152.61 47.25)" xlink:href="#4"/><use stroke-width="4.216" transform="matrix(.3125 0 0 .28125 155.67 86.36)" xlink:href="#3"/></g></g><g><g transform="translate(-1.121)"><use stroke-width="3.528" transform="matrix(.41468 0 0 .29996 99.01 139.48)" xlink:href="#3"/><use stroke-width="2.615" transform="matrix(.53908 0 0 .41994 53.919 130.35)" xlink:href="#3"/></g><use transform="translate(-245.55)" xlink:href="#6"/><g transform="matrix(1.0205 0 0 1.1198-26.424 77.956)"><path stroke-width="3.383" d="m0 280.52c.792 0 30.11 52.3 0 53.09-30.11.793 0-51.51 0-53.09z" transform="matrix(.3866 0 0 .35309 268.92-29.04)"/><use stroke-width="5.963" transform="matrix(.3125 0 0 .14062 155.67 64.12)" xlink:href="#3"/><use stroke-width="8.321" transform="matrix(.16047 0 0 .14062 210.78 66.47)" xlink:href="#4"/><g stroke-width="5.096"><use transform="matrix(.32094 0 0 .1875 152.61 63.722)" xlink:href="#4"/><use transform="matrix(.32094 0 0 .1875 152.61 68.41)" xlink:href="#4"/></g><g stroke-width="3.651"><use transform="matrix(.3125 0 0 .375 155.67 43.37)" xlink:href="#3"/><use transform="matrix(.3125 0 0 .375 155.67 52.742)" xlink:href="#3"/></g><use stroke-width="3.223" transform="matrix(.32094 0 0 .46875 152.61 47.25)" xlink:href="#4"/><use stroke-width="4.216" transform="matrix(.3125 0 0 .28125 155.67 86.36)" xlink:href="#3"/></g></g><g><path stroke-width="1.226" d="m335.98 226.28h72.14a6.4488 6.4488 0 0 1 6.449 6.449 6.4488 6.4488 0 0 1 -6.449 6.449h-72.14a6.4488 6.4488 0 0 1 -6.449 -6.449 6.4488 6.4488 0 0 1 6.449 -6.449"/><path stroke-width="1.579" d="m353.24-212.6l1.093-56.693s-3.28 13.906-13.12 13.906h-150.92c-9.843 0-13.12-13.906-13.12-13.906l1.093 56.693h174.98z" transform="matrix(.5 0 0 .75 239.17 393.31)"/><g transform="translate(0-7.79)"><use stroke-width="2.4" transform="matrix(.4 0 0 .57434 194.88 182.02)" xlink:href="#5"/><use stroke-width="2.19" transform="matrix(.48 0 0 .57434 159.45 194.02)" xlink:href="#5"/><path stroke-width="6.247" d="m510.49 70.22l.41-25.609s23.557-2.998 20.288-9.332c-3.27-6.333-27.29-18.36-61.81-31.08-24.29-5.905 31.26-26.346-21.07-27.709-48.02.757-5.42 23.318-21.07 28.618-38.84 11.81-69.33 23.838-72.6 30.17-3.27 6.334 20.29 9.332 20.29 9.332l.408 25.609h135.15z" transform="matrix(.12985 0 0 .26106 314.17 141.87)"/><use stroke-width="3.152" transform="matrix(.28332 0 0 .46992 246.55 164.54)" xlink:href="#5"/><use stroke-width="2.877" transform="matrix(.34 0 0 .46992 221.46 174.36)" xlink:href="#5"/><use stroke-width="4.755" transform="matrix(.18333 0 0 .31908 290.85 157.28)" xlink:href="#5"/><use stroke-width="4.341" transform="matrix(.22 0 0 .31908 274.61 163.95)" xlink:href="#5"/><use stroke-width="6.247" transform="matrix(.12985 0 0 .26106 314.53 147.57)" xlink:href="#5"/><use stroke-width="5.702" transform="matrix(.15583 0 0 .26106 303.03 153.03)" xlink:href="#5"/></g><g transform="matrix(1 0 0 .84654 0 54.38)"><g stroke-width="5.444"><use transform="matrix(.17717 0 0 .2126 307.82 85)" xlink:href="#3"/><use transform="matrix(.24803 0 0 .2126 282.14 92.09)" xlink:href="#3"/></g><use stroke-width="4.41" transform="matrix(.28346 0 0 .28346 269.29 89.7)" xlink:href="#3"/><use stroke-width="3.528" transform="matrix(.35433 0 0 .35433 243.6 90.16)" xlink:href="#3"/><use stroke-width="1.458" transform="matrix(.92308 0 0 .79602 28.619 3.752)" xlink:href="#2"/><use stroke-width="3.051" transform="matrix(.4252 0 0 .39487 217.91 96.26)" xlink:href="#3"/><use stroke-width="1.25" transform="translate(0-20.422)" xlink:href="#2"/><g stroke-width="2.615"><use transform="matrix(.46063 0 0 .49606 205.07 95.81)" xlink:href="#3"/><use transform="matrix(.46063 0 0 .49606 205.07 116.22)" xlink:href="#3"/></g></g></g><g stroke-width="1.04" transform="translate(0 354.33)"><path d="m285.34-90.07h6.25v26.986h-6.25z"/><path d="m306.59-90.07h6.25v26.986h-6.25z"/><path d="m296.59-90.07h6.25v26.986h-6.25z"/><path d="m410.14-90.07h6.25v26.986h-6.25z"/><path d="m452.64-90.07h6.25v26.986h-6.25z"/><path d="m431.39-90.07h6.25v26.986h-6.25z"/><path d="m421.39-90.08h6.25v26.986h-6.25z"/><path d="m441.39-90.08h6.25v26.986h-6.25z"/><path d="m327.84-90.07h6.25v26.986h-6.25z"/><path d="m316.59-90.07h6.25v26.986h-6.25z"/></g></g></g></svg>