<svg xmlns="http://www.w3.org/2000/svg" viewBox="0 0 512 512" xmlns:xlink="http://www.w3.org/1999/xlink"><defs><clipPath id="clipPath5131" clipPathUnits="userSpaceOnUse"><path fill-opacity=".67" d="m161.78,5.7533h491.68v491.6797h-491.68z"/></clipPath></defs><g clip-path="url(#clipPath5131)" transform="matrix(1.0413 0 0 1.0413 -168.47 -5.991)"><g fill-rule="evenodd"><path fill="#e73e2d" stroke-width="1.25" d="m4.0232,5.7533h802.6198v294.3297h-802.6198z"/><g fill="#fec74a" stroke="#d8aa3f"><g stroke-width="1.25"><path d="m330.31,587.19c-14.59-11.391-41.764-7.538-46.24-38.5 20.807,16.117 17.03-.921 48.106,14.435l-1.866,24.065z" transform="matrix(1.2792 0 0 1.2792 -64.564 -474.49)"/><path d="m330.31,587.19c-14.59-11.391-41.764-7.538-46.24-38.5 20.807,16.117 17.03-.921 48.106,14.435l-1.866,24.065z" transform="matrix(1.2177 .39191 -.39191 1.2177 190.84 -585.83)"/><path d="m330.31,587.19c-14.59-11.391-41.764-7.538-46.24-38.5 20.807,16.117 17.03-.921 48.106,14.435l-1.866,24.065z" transform="matrix(.97537 .8277 -.8277 .97537 532.83 -600.28)"/><path d="m330.31,587.19c-14.59-11.391-41.764-7.538-46.24-38.5 20.807,16.117 17.03-.921 48.106,14.435l-1.866,24.065z" transform="matrix(.67418 1.0872 -1.0872 .67418 798.64 -521.04)"/><path d="m330.31,587.19c-14.59-11.391-41.764-7.538-46.24-38.5 20.807,16.117 17.03-.921 48.106,14.435l-1.866,24.065z" transform="matrix(.16998 1.2679 -1.2679 .16998 1083.7 -294.22)"/><path d="m330.31,587.19c-14.59-11.391-41.764-7.538-46.24-38.5 20.807,16.117 17.03-.921 48.106,14.435l-1.866,24.065z" transform="matrix(-.24063 1.2564 -1.2564 -.24063 1230.7 -46.802)"/><path d="m330.31,587.19c-14.59-11.391-41.764-7.538-46.24-38.5 20.807,16.117 17.03-.921 48.106,14.435l-1.866,24.065z" transform="matrix(-.59878 1.1304 -1.1304 -.59878 1290.9 214.3)"/><path d="m330.31,587.19c-14.59-11.391-41.764-7.538-46.24-38.5 20.807,16.117 17.03-.921 48.106,14.435l-1.866,24.065z" transform="matrix(-.89277 .91619 -.91619 -.89277 1275.5 472.17)"/><path d="m368.35,490.64-15.346,82.734 22.91,1.164-7.564-83.898z" transform="matrix(.26085 1.2524 -1.2524 .26085 1044.6 -334.24)"/><path d="m368.53,489.85-15.035,82.136 28.185,1.899-13.15-84.035z" transform="matrix(.66596 1.0922 -1.0922 .66596 799.97 -513.24)"/><path d="m380.1,573.4-11.751-82.765-14.86,83.198 26.611-.433z" transform="matrix(1.0226 .76853 -.76853 1.0226 483.2 -603.22)"/></g><path stroke-width="1.254" d="m381.86,573.24-13.513-82.602-15.405,82.535 28.918,.067z" transform="matrix(1.2145 .40191 -.39943 1.207 195.37 -577.79)"/><path stroke-width="1.25" d="m381.89,573.4-13.539-82.764-15.006,83.126 28.545-.362z" transform="matrix(1.2792 0 0 1.2792 -64.564 -474.49)"/><path stroke-width="1.253" d="m378.51,569.67-10.159-79.033-17.918,83.552 28.077-4.519z" transform="matrix(1.1791 -.4886 .48383 1.1816 -306.93 -238.21)"/><g stroke-width="1.25"><path d="m378.51,569.67-10.159-79.033-17.785,83.489 27.944-4.456z" transform="matrix(.94317 -.86422 .86422 .94317 -442.11 39.108)"/><path d="m368.35,490.64-19.61,82.464 29.769-3.431-10.159-79.033z" transform="matrix(.56417 -1.1481 1.1481 .56417 -469.18 362.06)"/><path d="m373.86,567.25-5.513-76.612-18.876,78.389 24.389-1.777z" transform="matrix(.10974 -1.2745 1.2745 .10974 -379.33 670.51)"/></g><path stroke-width="1.187" d="m429.77,602.07c0,24.163-19.588,43.751-43.751,43.751s-43.751-19.588-43.751-43.751 19.588-43.751 43.751-43.751 43.751,19.588 43.751,43.751z" transform="matrix(1.3472 0 0 1.3472 -114.56 -537.17)"/></g><path fill="#005989" stroke-width="1.25" d="m3.2151,297.11h806.5799v200.33h-806.5799z"/><g fill="#fff"><path d="m53.601,716.23c11.673,5.426 28.396,19.007 46.283,18.995 29.929-.195 30.726-20.588 61.043-19.618 30.396,.777 24.898,22.246 65.942,22.139 33.911-.089 44.866-26.023 74.097-22.916 21.648-1.119 30.508,24.558 63.782,24.884 34.511,.741 47.183-27.986 68.832-25.608 23.063,0 30.618,23.137 62.974,23.304 41.211,.209 48.456-24.081 74.238-22.527 18.35-.389 32.82,17.802 59.711,18.255 21.457,.367 39.42-15.925 51.555-21.751l.6-27.646c-12.718,4.75-31.681,20.324-50.644,20.495-27.288,1.003-44.169-17.976-63.132-17.805-22.72,.205-31.774,23.485-70.316,23.485-35.211,0-43.29-23.485-66.011-23.485-22.208,.171-29.012,25.543-67.459,25.073-31.363-.379-43.583-24.219-65.792-24.048-23.544,0-47.89,23.182-73.96,22.063-35.982-1.527-43.756-22.063-67.3-22.063-17.596,0-36.586,19.244-57.784,19.565-21.082,.326-44.766-19.149-46.959-19.565l.3003,28.774z" transform="matrix(1.2848 0 0 1.2792 -66.112 -474.49)"/><path d="m53.601,716.23c11.673,5.426 28.396,19.007 46.283,18.995 29.929-.195 30.726-20.588 61.043-19.618 30.396,.777 24.898,22.246 65.942,22.139 33.911-.089 44.866-26.023 74.097-22.916 21.648-1.119 30.508,24.558 63.782,24.884 34.511,.741 47.183-27.986 68.832-25.608 23.063,0 30.618,23.137 62.974,23.304 41.211,.209 48.456-24.081 74.238-22.527 18.35-.389 32.82,17.802 59.711,18.255 21.457,.367 39.42-15.925 51.555-21.751l.6-27.646c-12.718,4.75-31.681,20.324-50.644,20.495-27.288,1.003-44.169-17.976-63.132-17.805-22.72,.205-31.774,23.485-70.316,23.485-35.211,0-43.29-23.485-66.011-23.485-22.208,.171-29.012,25.543-67.459,25.073-31.363-.379-43.583-24.219-65.792-24.048-23.544,0-47.89,23.182-73.96,22.063-35.982-1.527-43.756-22.063-67.3-22.063-17.596,0-36.586,19.244-57.784,19.565-21.082,.326-44.766-19.149-46.959-19.565l.3003,28.774z" transform="matrix(1.2848 0 0 1.2792 -66.112 -544.53)"/><path d="m53.601,716.23c11.673,5.426 28.396,19.007 46.283,18.995 29.929-.195 30.726-20.588 61.043-19.618 30.396,.777 24.898,22.246 65.942,22.139 33.911-.089 44.866-26.023 74.097-22.916 21.648-1.119 30.508,24.558 63.782,24.884 34.511,.741 47.183-27.986 68.832-25.608 23.063,0 30.618,23.137 62.974,23.304 41.211,.209 48.456-24.081 74.238-22.527 18.35-.389 32.82,17.802 59.711,18.255 21.457,.367 39.42-15.925 51.555-21.751l.6-27.646c-12.718,4.75-31.681,20.324-50.644,20.495-27.288,1.003-44.169-17.976-63.132-17.805-22.72,.205-31.774,23.485-70.316,23.485-35.211,0-43.29-23.485-66.011-23.485-22.208,.171-29.012,25.543-67.459,25.073-31.363-.379-43.583-24.219-65.792-24.048-23.544,0-47.89,23.182-73.96,22.063-35.982-1.527-43.756-22.063-67.3-22.063-17.596,0-36.586,19.244-57.784,19.565-21.082,.326-44.766-19.149-46.959-19.565l.3003,28.774z" transform="matrix(1.2836 0 0 1.2792 -66.048 -613.81)"/></g><g fill="#ffc84b" stroke="#d8aa3f"><g stroke-width="1.25"><path d="m279.65,432.43c45.829-3.138 37.476-7.052 55.922-9.996 23.245,3.196 25.903,17.269 38.855,25.903 0,0-4.868,16.46-20.799,14.13-2.142-6.603 7.712-8.644-20.642-25.929-16.484-.981-45.98,2.893-53.336-4.108z" transform="matrix(1.2792 0 0 1.2792 -64.564 -474.49)"/><path d="m385.69,468 33.015-1.359v-8.157c-22.269-.712-26.283,2.266-33.015,9.516z" transform="matrix(-1.2792 0 0 -1.2792 968.3 709.96)"/><path stroke-linejoin="round" d="m308.2,456.54c5.754-2.943 8.616-1.742 13.601-1.936 3.431,6.214 6.668,6.797 14.177,7.574 11.458,16.119 27.577,16.313 29.907,16.313 22.463-.583 29.584-16.313 44.667-18.061h15.925c-2.654-4.531-4.726-7.121-10.487-7.38-11.847-.647-27.188-.323-40.588,2.719l-18.838,4.661c-5.503-2.654-18.967-16.766-27.577-16.507-5.049,1.359-5.049,3.107-7.574,5.049-4.855,2.072-9.711,1.079-13.213,7.568z" transform="matrix(1.2792 0 0 1.2792 -64.564 -474.49)"/></g><path stroke-width="1.63" d="m330.54,451.11c0,1.7161-1.3912,3.1073-3.1072,3.1073-1.7161,0-3.1072-1.3912-3.1072-3.1073s1.3912-3.1073 3.1072-3.1073c1.7161,0 3.1072,1.3912 3.1072,3.1073z" transform="matrix(.98084 0 0 .98084 34.528 -341.73)"/><path stroke-width="1.25" d="m346.27,456.35c33.727-40.653 63.181-35.669 101.57-38.452 1.295,4.726 .842,11.782-17.478,18.061-25.052,3.69-69.914,30.101-70.108,30.101-8.352-.388-14.178-9.127-13.983-9.71z" transform="matrix(1.2792 0 0 1.2792 -64.564 -474.49)"/></g></g><g fill="none" stroke="#d9a43e" stroke-linecap="round" stroke-width="1.25"><path d="m415.56,429.86 24.874,1.078" transform="matrix(1.2792 0 0 1.2792 -64.564 -474.49)"/><path d="m412.86,433.92 18.131,1.479" transform="matrix(1.2792 0 0 1.2792 -64.564 -474.49)"/></g></g></svg>