<svg xmlns="http://www.w3.org/2000/svg" viewBox="0 0 512 512" xmlns:xlink="http://www.w3.org/1999/xlink"><defs><path id="0" d="m53.601 716.23c11.673 5.426 28.396 19.01 46.28 18.995 29.929-.195 30.726-20.588 61.04-19.618 30.396.777 24.898 22.246 65.942 22.14 33.911-.089 44.866-26.02 74.1-22.916 21.648-1.119 30.508 24.558 63.782 24.884 34.511.741 47.18-27.986 68.832-25.608 23.06 0 30.618 23.14 62.974 23.304 41.21.209 48.46-24.08 74.24-22.527 18.35-.389 32.82 17.802 59.711 18.255 21.457.367 39.42-15.925 51.55-21.751l.6-27.646c-12.718 4.75-31.681 20.324-50.644 20.495-27.29 1-44.17-17.976-63.13-17.805-22.72.205-31.774 23.485-70.32 23.485-35.21 0-43.29-23.485-66.01-23.485-22.21.171-29.01 25.543-67.46 25.07-31.363-.379-43.583-24.22-65.792-24.05-23.544 0-47.89 23.18-73.96 22.06-35.982-1.527-43.756-22.06-67.3-22.06-17.596 0-36.586 19.244-57.784 19.565-21.08.326-44.766-19.15-46.959-19.565l.3 28.774"/><path id="1" d="m330.31 587.19c-14.59-11.391-41.764-7.538-46.24-38.5 20.807 16.12 17.03-.921 48.11 14.435l-1.866 24.07z"/><clipPath id="2"><path d="m161.78 5.753h491.68v491.68h-491.68z"/></clipPath></defs><g clip-path="url(#2)" transform="matrix(1.0413 0 0 1.0413-168.47-5.991)"><g fill-rule="evenodd"><path fill="#e73e2d" stroke-width="1.25" d="m4.02 5.753h802.62v294.33h-802.62z"/><g fill="#fec74a" stroke="#d8aa3f"><g stroke-width="1.25"><use transform="matrix(1.2792 0 0 1.2792-64.56-474.49)" xlink:href="#1"/><use transform="matrix(1.2177.39191-.39191 1.2177 190.84-585.83)" xlink:href="#1"/><use transform="matrix(.97537.8277-.8277.97537 532.83-600.28)" xlink:href="#1"/><use transform="matrix(.67418 1.0872-1.0872.67418 798.64-521.04)" xlink:href="#1"/><use transform="matrix(.16998 1.2679-1.2679.16998 1083.7-294.22)" xlink:href="#1"/><use transform="matrix(-.24063 1.2564-1.2564-.24063 1230.7-46.802)" xlink:href="#1"/><use transform="matrix(-.59878 1.1304-1.1304-.59878 1290.9 214.3)" xlink:href="#1"/><use transform="matrix(-.89277.91619-.91619-.89277 1275.5 472.17)" xlink:href="#1"/><path d="m368.35 490.64l-15.346 82.73 22.91 1.164-7.564-83.9z" transform="matrix(.26085 1.2524-1.2524.26085 1044.6-334.24)"/><path d="m368.53 489.85l-15.04 82.14 28.19 1.899-13.15-84.03z" transform="matrix(.66596 1.0922-1.0922.66596 799.97-513.24)"/><path d="m380.1 573.4l-11.751-82.76-14.86 83.2 26.611-.433z" transform="matrix(1.0226.76853-.76853 1.0226 483.2-603.22)"/></g><path stroke-width="1.254" d="m381.86 573.24l-13.513-82.6-15.405 82.53 28.918.067z" transform="matrix(1.2145.40191-.39943 1.207 195.37-577.79)"/><path stroke-width="1.25" d="m381.89 573.4l-13.539-82.76-15.01 83.13 28.545-.362z" transform="matrix(1.2792 0 0 1.2792-64.56-474.49)"/><path stroke-width="1.253" d="m378.51 569.67l-10.159-79.03-17.918 83.55 28.08-4.519z" transform="matrix(1.1791-.4886.48383 1.1816-306.93-238.21)"/><g stroke-width="1.25"><path d="m378.51 569.67l-10.159-79.03-17.785 83.49 27.944-4.456z" transform="matrix(.94317-.86422.86422.94317-442.11 39.11)"/><path d="m368.35 490.64l-19.61 82.46 29.769-3.431-10.159-79.03z" transform="matrix(.56417-1.1481 1.1481.56417-469.18 362.06)"/><path d="m373.86 567.25l-5.513-76.61-18.876 78.39 24.389-1.777z" transform="matrix(.10974-1.2745 1.2745.10974-379.33 670.51)"/></g><path stroke-width="1.187" d="m429.77 602.07c0 24.16-19.588 43.751-43.751 43.751s-43.751-19.588-43.751-43.751 19.588-43.751 43.751-43.751 43.751 19.588 43.751 43.751z" transform="matrix(1.3472 0 0 1.3472-114.56-537.17)"/></g><path fill="#005989" stroke-width="1.25" d="m3.215 297.11h806.58v200.33h-806.58z"/><g fill="#fff"><use transform="matrix(1.2848 0 0 1.2792-66.11-474.49)" xlink:href="#0"/><use transform="matrix(1.2848 0 0 1.2792-66.11-544.53)" xlink:href="#0"/><use transform="matrix(1.2836 0 0 1.2792-66.05-613.81)" xlink:href="#0"/></g><g fill="#ffc84b" stroke="#d8aa3f"><g stroke-width="1.25"><path d="m279.65 432.43c45.829-3.138 37.476-7.05 55.922-9.996 23.25 3.196 25.903 17.269 38.855 25.903 0 0-4.868 16.46-20.799 14.13-2.142-6.603 7.712-8.644-20.642-25.929-16.484-.981-45.98 2.893-53.34-4.108z" transform="matrix(1.2792 0 0 1.2792-64.56-474.49)"/><path d="m385.69 468l33.01-1.359v-8.157c-22.269-.712-26.28 2.266-33.01 9.516z" transform="matrix(-1.2792 0 0-1.2792 968.3 709.96)"/><path stroke-linejoin="round" d="m308.2 456.54c5.754-2.943 8.616-1.742 13.601-1.936 3.431 6.214 6.668 6.797 14.177 7.574 11.458 16.12 27.577 16.313 29.907 16.313 22.463-.583 29.584-16.313 44.667-18.06h15.925c-2.654-4.531-4.726-7.121-10.487-7.38-11.847-.647-27.19-.323-40.588 2.719l-18.838 4.661c-5.503-2.654-18.967-16.766-27.577-16.507-5.05 1.359-5.05 3.107-7.574 5.05-4.855 2.072-9.711 1.079-13.213 7.568z" transform="matrix(1.2792 0 0 1.2792-64.56-474.49)"/></g><path stroke-width="1.63" d="m330.54 451.11c0 1.716-1.391 3.107-3.107 3.107-1.716 0-3.107-1.391-3.107-3.107s1.391-3.107 3.107-3.107c1.716 0 3.107 1.391 3.107 3.107z" transform="matrix(.98084 0 0 .98084 34.528-341.73)"/><path stroke-width="1.25" d="m346.27 456.35c33.727-40.653 63.18-35.669 101.57-38.452 1.295 4.726.842 11.782-17.478 18.06-25.05 3.69-69.914 30.1-70.11 30.1-8.352-.388-14.178-9.127-13.983-9.71z" transform="matrix(1.2792 0 0 1.2792-64.56-474.49)"/></g></g><g fill="none" stroke="#d9a43e" stroke-linecap="round" stroke-width="1.25" transform="matrix(1.2792 0 0 1.2792-64.56-474.49)"><path d="m415.56 429.86l24.874 1.078"/><path d="m412.86 433.92l18.13 1.479"/></g></g></svg>