<svg xmlns="http://www.w3.org/2000/svg" viewBox="0 0 512 512"><defs><clipPath id="clipPath4980" clipPathUnits="userSpaceOnUse"><path fill-opacity=".67" d="m0-0h416.25v416.25h-416.25z"/></clipPath></defs><g fill-rule="evenodd" clip-path="url(#clipPath4980)" transform="matrix(1.23 0 0 1.23 0 .00002)"><g stroke-width="1.25"><path fill="#ff0" d="m0-0h625v104.06h-625z"/><path fill="#fff" d="m0,104.06h625v104.06h-625z"/><path fill="#be0027" d="m0,208.12h625v104.06h-625z"/><path fill="#3b5aa3" d="m0,312.19h625v104.06h-625z"/></g><path fill="#239e46" d="m0,.7562v415.49l310.45-207.16-310.45-208.33z" transform="matrix(1 0 0 1.0018 0 -.75756)"/><g fill="#fff"><path d="m127.81,114.98c-69.183-3.51-100.7,51.6-100.63,94.2-.159,50.38 47.582,91.93 91.71,89.43-23.794-11.26-52.85-42.82-53.117-89.64-.2436-42.423 23.977-79.31 62.038-93.99z"/><g stroke-width="1.25"><path d="m126.77,160.21-9.75-7.63-11.82,3.72 4.24-11.64-7.18-10.09 12.38,.43 7.37-9.95 3.41,11.91 11.75,3.94-10.28,6.93z"/><path d="m126.77,160.21-9.75-7.63-11.82,3.72 4.24-11.64-7.18-10.09 12.38,.43 7.37-9.95 3.41,11.91 11.75,3.94-10.28,6.93z" transform="translate(-.20749 42.327)"/><path d="m126.77,160.21-9.75-7.63-11.82,3.72 4.24-11.64-7.18-10.09 12.38,.43 7.37-9.95 3.41,11.91 11.75,3.94-10.28,6.93z" transform="translate(-.00001 85.069)"/><path d="m126.77,160.21-9.75-7.63-11.82,3.72 4.24-11.64-7.18-10.09 12.38,.43 7.37-9.95 3.41,11.91 11.75,3.94-10.28,6.93z" transform="translate(-.20749 128.23)"/></g></g></g></svg>