<svg xmlns="http://www.w3.org/2000/svg" viewBox="0 0 512 512" xmlns:xlink="http://www.w3.org/1999/xlink"><defs><clipPath id="0"><path d="m151.69-.347h745.12v745.12h-745.12z"/></clipPath></defs><g fill-rule="evenodd" clip-path="url(#0)" transform="matrix(.68714 0 0 .68714-104.23.239)"><path fill="#ffe900" d="m1144.3 145.85h1073.5v744.09h-1073.5z" transform="translate(-1149.6-145.85)"/><path fill="#35a100" d="m-2.662-3.57l1.246 536.41 835.33-536.76-836.57.35z" transform="translate(-3.176 3.571)"/><path fill="#c70000" d="m1069.5 744.09l-1.9-557.75-842.62 558.17 844.52-.42"/><path d="m-2.124 573.28l.708 167.92 182.28-.24 890.3-596.88-1-146-180.14-1.65-892.18 576.85z" transform="translate(-3.176 3.571)"/><g fill="#fff"><path d="m591.04 433.16l-57.27-41.68-57.27 41.67 21.95-67.34-57.33-41.6 70.83.07 21.83-67.38 21.83 67.38 70.83-.05-57.34 41.58z" transform="matrix(.7814-.50566.46724.7486 153.82 243.69)" id="1"/><use transform="translate(-400.58 260.38)" xlink:href="#1"/></g></g></svg>