<svg xmlns="http://www.w3.org/2000/svg" viewBox="0 0 512 512"><defs><clipPath id="clipPath4933" clipPathUnits="userSpaceOnUse"><path fill-opacity=".67" d="m151.69-.3472h745.12v745.1202h-745.12z"/></clipPath></defs><g fill-rule="evenodd" clip-path="url(#clipPath4933)" transform="matrix(.68714 0 0 .68714 -104.23 .23857)"><path fill="#ffe900" d="m1144.3,145.85h1073.5v744.09h-1073.5z" transform="translate(-1149.6 -145.85)"/><path fill="#35a100" d="m-2.6622-3.5704 1.246,536.41 835.33-536.76-836.57,.3496z" transform="translate(-3.1757 3.5705)"/><path fill="#c70000" d="m1069.5,744.09-1.9-557.75-842.62,558.17 844.52-.42z"/><path d="m-2.1244,573.28 .7081,167.92 182.28-.24 890.3-596.88-1-146l-180.14-1.6504-892.18,576.85z" transform="translate(-3.1757 3.5705)"/><g fill="#fff"><path d="m591.04,433.16-57.27-41.68-57.27,41.67 21.95-67.34-57.33-41.6 70.83,.07 21.83-67.38 21.83,67.38 70.83-.05-57.34,41.58z" transform="matrix(.7814 -.50566 .46724 .7486 153.82 243.69)"/><path d="m591.04,433.16-57.27-41.68-57.27,41.67 21.95-67.34-57.33-41.6 70.83,.07 21.83-67.38 21.83,67.38 70.83-.05-57.34,41.58z" transform="matrix(.7814 -.50566 .46724 .7486 -246.76 504.07)"/></g></g></svg>