<svg xmlns="http://www.w3.org/2000/svg" viewBox="0 0 512 512"><defs><clipPath id="0"><path d="m92.21 7.828h593.6v485.5h-593.6z"/></clipPath></defs><g fill-rule="evenodd" clip-path="url(#0)" transform="matrix(.86254 0 0 1.0546-79.54-8.255)"><path fill="#fff" stroke="#000" stroke-width=".996" d="m-991.81-492.88h987.63v484.5h-987.63z" transform="scale(-1-1)"/><g stroke-width="1.25"><path fill="#3e5698" d="m-991.81 405.21h987.63v87.67h-987.63z" transform="scale(-1 1)"/><path fill="#c60000" d="m-991.81-384.9h987.63v268.55h-987.63z" transform="scale(-1-1)"/><path fill="#3e5698" d="m-991.81 8.374h987.63v87.67h-987.63z" transform="scale(-1 1)"/></g><path fill="#fff" d="m495.86 1148c0 90.46-73.33 163.79-163.79 163.79-90.46 0-163.79-73.33-163.79-163.79 0-90.46 73.33-163.79 163.79-163.79 90.46 0 163.79 73.33 163.79 163.79" transform="matrix(.83963 0 0 .66512 56.749-512.91)"/><path fill="#c40000" d="m591.04 433.16l-57.27-41.68-57.27 41.67 21.95-67.34-57.33-41.6 70.83.07 21.83-67.38 21.83 67.38 70.83-.05-57.34 41.58z" transform="matrix(1.163-.00479-.01266.93245-279.04-74.32)"/></g></svg>