<svg xmlns="http://www.w3.org/2000/svg" viewBox="0 0 512 512" xmlns:xlink="http://www.w3.org/1999/xlink"><defs><path id="0" d="m249.94 680.32l18-59.99-49.99-37.71 62.61-1.42 20.42-59.2 20.7 59.1 62.61 1.14-49.82 37.94 18.27 59.9-51.48-35.65z"/><clipPath id="1"><path d="m0 0h512v512h-512z"/></clipPath></defs><g clip-path="url(#1)"><g fill="#006"><path stroke-width="1.25" d="m0 0h1024v512h-1024z"/><path fill-rule="evenodd" d="m0 0h512v256h-512z"/></g><g stroke-width="1.25" transform="scale(8.5333)"><g fill="#fff"><path d="m0 0v3.354l53.29 26.646h6.708v-3.354l-53.29-26.646h-6.708m60 0v3.354l-53.29 26.646h-6.708v-3.354l53.29-26.646h6.708"/><path d="m25 0v30h10v-30h-10m-25 10v10h60v-10h-60"/></g><g fill="#c00"><path d="m0 12v6h60v-6h-60m27-12v30h6v-30h-6"/><path d="m0 30l20-10h4.472l-20 10h-4.472m0-30l20 10h-4.472l-15.528-7.764v-2.236m35.528 10l20-10h4.472l-20 10h-4.472m24.472 20l-20-10h4.472l15.528 7.764v2.236"/></g></g><g transform="matrix(1.1493 0 0 1.1493-512.92 36.15)"><g fill-rule="evenodd"><g stroke-width="1.25"><path fill="#fff" d="m714.2 130.3c-.986.596-2.958 2.383-4.93 1.788-1.972-.596-6.409-8.342-11.339-7.151-4.93 1.192-7.888 2.98-9.86 2.98-1.972 0-7.395 1.788-7.395 6.554 0 4.767.493 8.343 1.479 8.343.986 0 2.465-2.98 2.465-2.98s.493 5.959 3.944 5.959 10.846.596 11.339 2.384c.493 1.788-3.451 5.959-2.465 9.534.986 3.575 5.423 9.534 5.423 9.534s-6.409 4.767-6.409 7.747.986 5.959.986 5.959l-28.594 1.191s-1.972 84.62-.986 91.17c.986 6.552 3.451 22.642 3.451 22.642s-6.409-2.084-11.832 3.28c-5.423 5.363-24.403 14.597-24.896 18.768-.493 4.171-2.218 7.748-.246 10.727 1.972 2.979 8.911 11.07 6.902 10.727-6.619-1.142-9.08-10.545-13.557-14-4.398-3.396-13.06-2.682-14.05.892-.986 3.577-.493 9.534 0 10.727.493 1.192 5.916 20.261 7.395 24.432s17.01 10.426 23.91 9.832c13.06.297 18.98-5.66 19.473-5.063.493.594 28.11 29.07 84.79 29.2 44.13.098 77.4-28.603 77.4-28 0 .594 18.241 5.958 24.65 4.171 6.409-1.79 15.776-5.961 17.748-10.132 1.972-4.171 7.395-25.624 7.888-29.2.493-3.577 0-7.748-4.437-8.94s-6.902-.895-9.367.297-3.205 4.472-6.902 10.429c-1.972 1.79-7.148 6.555-5.669 5.363s4.683-10.129 5.177-13.11c.493-2.979 1.972-8.342-1.479-11.321-3.451-2.979-8.737-4.196-14.79-8.639-5.748-3.939-10.352-10.429-13.804-10.429-3.451 0-7.395-1.787-6.902-1.787.493 0 4.445-8.657 3.459-17.594-.986-8.94.485-94.43-.008-94.43-.493 0-24.65 1.788-24.65.596s1.972-9.534 0-14.897c-1.972-5.363-10.353-8.939-7.888-10.13 2.465-1.192 13.311-4.171 12.818-8.939-.493-4.767-7.395-4.171-10.353-5.959-2.958-1.788-11.832-10.13-12.818-10.13-.986 0 25.635-16.09 23.664-16.09-1.972 0-12.325-2.979-15.776-1.192 0-2.98 14.297-11.918 11.832-13.11-2.465-1.192-13.804-2.384-10.846-2.98 2.958-.596 3.944-7.747 3.451-7.747-.493 0-12.818 1.788-12.818 1.788s-2.958-4.171-3.944-4.171c-.986 0-5.423 2.383-5.423 2.383l-2.465-6.555-5.423 3.576-2.465-2.98s-4.437 1.192-4.437 0c.187-.043-.511-2.992-1.208-2.992-.697 0-5.578 3.792-5.752 3.581-.174-.21-5.577-7.795-5.577-7.584 0 .211-3.835 14.326-4.01 14.326-.174 0-3.835.421-4.01.632-.174.211-19.522-11.166-19.347-10.955.174.211 5.05 10.955 5.05 10.955s-4.183 2.318-4.183 2.528c0 .21.697 4.845.697 4.845l-12.9-4.425s4.881 9.902 4.532 9.902c-.349 0-9.586.421-9.412.421.174 0 4.357 8.216 4.357 8.216l-1.569 4.846s13.884 9.798 12.898 10.394zm82.33 207.37c1.232 1.787 7.888 10.129 6.902 10.129-.986 0-17.501 11.02-24.16 13.11-6.655 2.084-28.347 5.958-27.12 5.66 1.232-.297 19.479-10.288 26.874-15.05 7.395-4.765 17.495-13.252 17.495-13.847zm-103.04-.301c-.986 1.192-5.669 10.429-5.669 10.429s13.557 9.534 23.664 13.11c10.11 3.573 27.361 4.765 26.375 4.468-.986-.297-21.692-9.534-27.608-14.3-5.916-4.769-16.515-13.709-16.762-13.709"/><g fill="#fec500" stroke="#6d6666" transform="matrix(.29981 0 0 .36238 586 193.89)"><path d="m394.65-212.97s28.777 17.265 35.35 21.376 27.954 22.2 29.598 21.377c1.645-.822 13.155-9.866 13.155-9.866s-23.843-18.91-38.642-23.02-39.465-8.222-39.465-9.866z"/><path d="m390.54-231.88c2.467 0 47.687 23.02 61.66 34.532s19.732 26.31 21.377 26.31c1.644 0 23.02-3.289 22.2-3.289-.822 0-9.866-29.598-30.42-38.642-20.555-9.04-73.996-18.911-74.819-18.911z"/><path d="m603.48-296.01c-.822 0-9.04 24.666-11.511 32.06-2.466 7.4-6.577 23.02-6.577 23.02s-36.18 3.289-34.532-.822c1.645-4.111 55.09-54.26 52.62-54.26z" transform="translate(0 4.651)"/><path d="m398.76-261.48s42.754 28.776 57.55 45.22c14.799 16.443 29.598 45.22 30.42 45.22.823 0 40.29-8.222 40.29-7.4s-46.04-46.04-68.24-60.02-59.2-21.377-60.02-23.02z"/><g transform="translate(0 4.651)"><path d="m443.16-273.81s21.377 32.887 25.487 44.4c4.111 11.51 16.444 41.11 16.444 41.11h33.709s-16.443-36.998-34.531-55.09-40.29-28.776-41.11-30.421z"/><path d="m454.66-291.9c.823 2.467 31.24 31.24 38.643 50.15 7.399 18.91 13.155 42.754 13.155 42.754l29.598-7.4s-26.31-48.51-42.753-61.66c-16.444-13.154-36.998-22.2-38.643-23.843z"/></g><path d="m700.5-209.68s-61.66 6.578-83.86 12.333-34.532 27.13-34.532 27.13 28.777 10.688 30.421 9.04 18.91-18.91 37.82-25.488c18.91-6.577 51.797-22.2 50.15-23.02z"/><path d="m698.03-249.97c-1.645.823-50.975 41.11-66.6 54.26-15.621 13.155-30.421 27.13-32.07 27.954-1.644.823-32.07-4.11-30.421-5.755 1.645-1.644 45.22-36.998 73.997-52.619 28.776-15.622 52.619-22.2 55.09-23.844z"/><path d="m685.7-278.75c-4.933 5.755-53.44 45.22-66.6 59.2s-34.531 38.643-34.531 38.643-25.488-11.511-23.843-16.444c1.644-4.933 36.17-33.709 60.841-50.15 24.665-16.444 66.6-29.599 64.13-31.24z"/><path d="m636.37-282.04c-.822.823-29.598 31.24-35.35 39.465-5.755 8.222-23.02 44.4-23.02 44.4s-25.487-22.2-25.487-23.02 32.07-34.532 50.975-47.687 33.709-10.688 32.887-13.155z"/><g transform="translate(0 4.651)"><path d="m565.09-241.77c0 5.779-4.685 10.465-10.465 10.465-5.779 0-10.465-4.685-10.465-10.465 0-5.78 4.685-10.465 10.465-10.465 5.779 0 10.465 4.685 10.465 10.465z"/><path d="m586.02-227.81c0 5.137-4.685 9.302-10.465 9.302-5.779 0-10.465-4.165-10.465-9.302s4.685-9.302 10.465-9.302c5.779 0 10.465 4.165 10.465 9.302z"/><path d="m539.51-238.28c0 5.137-5.726 9.302-12.79 9.302-7.06 0-12.79-4.165-12.79-9.302s5.726-9.302 12.79-9.302c7.06 0 12.79 4.165 12.79 9.302z"/><path d="m573.23-219.09c0 9.953-6.507 18.02-14.534 18.02-8.03 0-14.534-8.07-14.534-18.02 0-9.953 6.507-18.02 14.534-18.02 8.03 0 14.534 8.07 14.534 18.02z"/><path d="m533.7-218.51c0 7.706-6.507 13.953-14.534 13.953-8.03 0-14.534-6.247-14.534-13.953 0-7.706 6.507-13.953 14.534-13.953 8.03 0 14.534 6.247 14.534 13.953z"/><path d="m513.93-207.46c0 6.743-4.945 12.209-11.05 12.209-6.101 0-11.05-5.466-11.05-12.209 0-6.743 4.945-12.209 11.05-12.209 6.101 0 11.05 5.466 11.05 12.209z"/><path d="m595.32-208.63c0 8.03-7.548 14.534-16.86 14.534-9.311 0-16.86-6.507-16.86-14.534 0-8.03 7.548-14.534 16.86-14.534 9.311 0 16.86 6.507 16.86 14.534z"/><path d="m554.63-229.56c0 4.816-5.987 8.72-13.372 8.72-7.385 0-13.372-3.904-13.372-8.72s5.987-8.72 13.372-8.72c7.385 0 13.372 3.904 13.372 8.72z"/><path d="m556.95-210.37c0 7.06-8.329 12.79-18.604 12.79s-18.604-5.726-18.604-12.79c0-7.06 8.329-12.79 18.604-12.79s18.604 5.726 18.604 12.79z"/><path d="m604.62-187.7c0 8.669-7.809 15.697-17.441 15.697s-17.441-7.03-17.441-15.697 7.809-15.697 17.441-15.697c9.633 0 17.441 7.03 17.441 15.697z"/><path d="m509.28-191.77c0 5.78-4.425 10.465-9.883 10.465s-9.883-4.685-9.883-10.465c0-5.779 4.425-10.465 9.883-10.465s9.883 4.685 9.883 10.465z"/><path d="m579.04-193.51c0 7.385-6.768 13.372-15.12 13.372-8.348 0-15.12-5.987-15.12-13.372 0-7.385 6.768-13.372 15.12-13.372 8.348 0 15.12 5.987 15.12 13.372z"/><path d="m531.37-194.09c0 6.422-5.987 11.627-13.371 11.627-7.385 0-13.371-5.206-13.371-11.627 0-6.422 5.987-11.627 13.371-11.627 7.385 0 13.371 5.206 13.371 11.627z"/><path d="m554.63-190.61c0 7.06-6.247 12.79-13.953 12.79-7.706 0-13.953-5.726-13.953-12.79 0-7.06 6.247-12.79 13.953-12.79 7.706 0 13.953 5.726 13.953 12.79z"/><path d="m494.16-267.35c3.488 0 27.906 8.139 27.906 8.139s-30.23 11.628-25.581 10.465 33.72-4.651 31.394-4.651c-2.325 0-25.58 22.09-18.604 20.929 6.977-1.162 20.93-15.12 22.09-15.12 1.163 0 15.12 22.09 16.279 20.929 1.162-1.163 0-22.09 1.162-22.09 1.163 0 29.07 13.953 26.743 12.79-2.325-1.163-18.603-17.441-17.441-17.441 1.163 0 38.37 3.488 36.04 2.325-2.325-1.162-24.417-11.627-24.417-11.627s16.278-15.12 12.79-15.12-30.23 15.12-27.906 13.952c2.326-1.162 29.07-31.393 29.07-31.393l-26.743 12.79s4.651-18.604 2.325-17.442c-2.325 1.163-20.929 24.418-22.09 24.418s-5.814-23.255-5.814-23.255 1.163 25.58-5.813 26.743c-6.977 1.163-31.394 5.814-31.394 4.651z"/></g></g></g><g transform="matrix(.29981 0 0 .36238 618.89 139.61)"><g fill="#00389b"><path d="m308.71 75.08c.581 2.326 19.19 44.18 47.672 43.02s40.11-8.139 38.952-8.72c-1.163-.582-13.372-7.558-20.348-22.674-6.977-15.12-8.14-21.511-8.14-21.511l-58.14 9.883"/><path d="m410.45 58.804s20.929 41.28 30.23 47.09c9.302 5.814 30.813 10.465 40.12 9.884 9.302-.582 20.348 0 20.348 0s-9.302-4.07-16.86-26.743-9.883-30.23-9.883-30.23h-63.951"/><path d="m538.35 73.919s-4.069 30.23 0 37.789c4.07 7.558 24.418 21.511 24.418 21.511s24.417-2.907 24.998-21.511c.582-18.604-8.139-36.05-8.139-36.05l-41.28-1.744"/></g><g stroke-width="1.25"><g stroke="#000"><g fill="#005120"><path d="m288.94 21.02s1.163 4.651 0 8.139-11.05 12.79-11.05 20.348c0 7.558 11.627 30.812 47.09 31.394 35.463.581 80.23-19.19 79.65-19.767-.58-.581-84.88-56.974-86.04-56.39-1.16.582-29.65 17.441-29.65 16.279z"/><path d="m523.23 61.13s7.557 20.348 10.464 22.674c2.907 2.325 4.07 6.976 4.651 6.976s48.835 10.464 48.835 10.464 4.651-13.371-2.325-23.836c-6.977-10.465-33.14-37.789-33.14-37.789l-28.49 21.511z"/><path d="m556.37 36.13c1.162 0 12.79 9.883 22.09 4.651 9.301-5.232 24.417-19.18 24.417-19.18s-12.79 4.07-22.09 3.488c-9.302-.581-23.836 11.627-24.417 11.05z"/><path d="m287.2 23.34s-3.488-9.883-12.79-10.465c-9.302-.581-26.16 1.163-31.975-3.488-5.814-4.651-7.558-15.697-10.465-15.12-2.907.581-10.465 0-11.05 0s-3.488-9.302 4.651-13.953c8.139-4.651 15.12-.581 19.766-4.07 4.651-3.488 11.628-5.814 20.93-6.395 9.302-.581 24.417 11.628 31.394 14.534 6.976 2.907 22.09 6.395 27.905 3.488 5.814-2.907 38.37-15.697 49.998-16.278 11.627-.581 36.05-1.163 45.35-.581 9.302.581 45.928 5.232 56.974 10.465 11.05 5.232 69.764 25.58 77.903 30.23 8.139 4.651 26.16 11.627 26.16 11.627s-31.976 31.394-47.672 36.626c-15.697 5.232-65.69 13.372-95.35 11.627-29.65-1.744-52.904-4.651-75.58-16.278-22.68-11.626-47.1-22.672-48.26-28.486-1.16-5.813-.58-13.371-.58-13.371l-27.324 9.883z"/><path d="m251.15-14.449c-1.163.581-6.976 2.907-5.814 4.07 1.163 1.163 3.489 4.651 10.465 4.069 6.977-.581 14.534-4.651 14.534-4.651s-8.72-4.07-19.19-3.488z"/></g><path d="m250.57-13.286v6.395s8.139 2.325 8.139.581c0-1.744.581-5.814-1.163-5.814s-6.395-.581-6.976-1.163z"/></g><g fill="#001707" stroke="#000007"><path d="m331.95-8.453c2.056-3.7 0-8.633 11.922-14.388 11.921-5.755 32.681-4.111 32.681-4.111s-5.96 4.522-6.166 9.249c-.205 4.727.411 6.783.411 6.783s-11.305-3.7-19.938-1.439c-8.633 2.261-18.704 4.522-18.91 3.905z"/><path d="m385.4-28.596c-1.233.617-10.277 10.688-9.25 13.772 1.028 3.083 13.155 10.483 17.06 9.866 3.905-.617 21.787-9.249 22.815-13.566 1.028-4.316 1.85-10.07.411-11.305-1.439-1.233-30.832 1.644-31.04 1.233z"/><path d="m424.66-30.24c-2.261 2.261-1.439 13.155-.617 14.388.822 1.233 15 15.416 18.09 16.238 3.083.822 25.899-1.439 27.749-3.905s7.399-12.949 5.755-15.416c-1.645-2.467-6.578-5.755-21.788-9.04s-24.25-2.878-29.19-2.261z"/><path d="m482.82-16.469c3.7 1.85 25.282 12.333 38.03 20.76 12.743 8.427 17.882 18.09 21.582 18.91 3.7.822 18.704-8.222 19.321-10.688.617-2.467-18.293-15.621-31.04-21.582-12.744-5.961-47.892-6.783-47.892-7.4z"/><path d="m478.3-7.63c-1.85 1.644 23.02 45.01 27.748 46.45 4.728 1.439 33.09-8.427 32.682-11.716-.41-3.288-7.81-9.866-25.28-19.526-17.47-9.661-31.65-16.03-35.15-15.21z"/><path d="m447.47 8.196c-3.905 2.261-10.07 41.11-6.166 42.959 3.905 1.85 52-4.727 53.853-9.04 1.849-4.316-19.733-38.642-26.11-38.642-6.371 0-17.882 1.644-21.582 4.727z"/><path d="m397.73-.025c-5.14 4.728-4.11 40.903-1.85 43.16 2.261 2.261 30.831 9.66 33.914 6.989 3.084-2.672 7.195-43.37 4.317-46.45-2.878-3.083-10.894-10.483-17.06-11.1-6.167-.617-16.444 5.961-19.321 7.4z"/><path d="m333.19-.642c-4.728 3.7-4.933 13.36.205 15.01 5.139 1.644 17.882 7.194 29.804 12.333 11.922 5.139 18.705 11.305 22.2 11.1 3.494-.206 6.783-36.38 3.083-38.437-3.7-2.055-14.594-3.7-24.871-3.289-10.277.411-25.282 1.439-30.42 3.289z"/></g></g></g><g fill-opacity=".996" stroke-width="1.25"><g fill="#d40f0f"><path d="m655.26 306.14c2.528-2.462 6.461-8.479 11.798-8.752 5.337-.274 10.956 4.649 10.956 4.649s5.618 22.976 5.337 22.976c-.281 0-9.27 6.564-9.551 6.564-.281 0-3.933-9.03-7.304-8.206-3.371.821-3.09 13.13-3.652 12.309-.562-.821-14.888-17.779-14.326-18.326.562-.547 7.02-10.393 6.742-11.214"/><path d="m803.59 303.13c1.685-.273 9.27-6.02 14.607-5.743 5.338.273 8.428 2.735 11.237 5.196 2.808 2.462 6.18 8.752 6.18 8.752s-6.742 18.599-7.303 18.599-3.372 1.642-3.933.274-2.247-5.745-5.618-6.292c-3.37-.547-4.213 6.02-4.213 6.02l-10.955-26.804"/></g><g fill="#fddc59"><path d="m807.24 308.88c0 1.642 10.394 27.353 27.25 32.27 16.854 4.924 22.19-4.649 24.16-7.931 1.967-3.283 8.99-3.01 8.99-3.01s-1.685 24.07-4.495 27.08c-2.808 3.01-5.057 9.573-20.787 9.846-15.73.274-30.06-14.769-34.832-19.15-4.777-4.377-10.957-15.863-13.485-21.06-2.527-5.196 13.484-17.504 13.203-18.05"/><path d="m624.08 360.02c.281 0 7.585 7.932 18.259 7.111 10.675-.82 28.934-7.111 37.36-18.05 8.427-10.94 12.641-22.702 12.641-22.702s-12.36-21.881-12.641-21.881c-.281 0-1.404 7.111-3.652 11.761-2.247 4.649-8.427 17.778-18.821 21.882-10.394 4.103-10.394 5.743-14.607 5.196-4.214-.547-15.169-7.111-15.169-7.385 0-.273-5.337 12.856-5.337 12.856s-1.124 8.479 1.966 11.214"/><path d="m655.07 305.38c-.795 0-20.658 10.831-19.863 15.473.794 4.642 34.16 70.4 105.67 71.17 71.51.774 115.21-59.57 112.03-69.63-3.178-10.06-25.424-21.661-25.424-21.661s5.561 4.642 4.767 10.831c-.795 6.189-25.426 59.57-87.4 58.02-61.974-1.548-91.37-48.738-91.37-54.15 0-5.415 3.178-8.51 1.589-10.06z"/></g><g fill="#d40f0f"><path d="m848.81 353.19c1.687-1.368 12.08-29.814 17.979-28.993 5.9.821 3.933 9.299 3.372 11.488-.562 2.188-6.462 21.881-6.462 21.881s.282-4.649-3.652-5.743c-3.932-1.094-10.394 1.915-11.237 1.368"/><path d="m624.08 360.31c0-1.546-4.767-6.962.794-8.51 5.562-1.546 12.713 1.548 12.713 1.548s-3.973-11.605-8.74-20.888c-4.767-9.283-6.356-7.735-10.329-6.189-3.973 1.548-3.876 5.642-1.492 11.831 2.384 6.189 7.05 23.756 7.05 22.21"/></g></g></g><g><g fill-rule="evenodd" stroke-width="1.25"><use fill="#fdc400" transform="matrix(.38319 0 0 .38944 593.86 42.31)" xlink:href="#0"/><path fill="#fff" d="m673.23 325.98v256.89c.59 125.55-148.82 235.49-248.03 256.89-99.22-21.4-248.62-131.34-248.03-256.88v-256.89h496.06z" transform="matrix(.29981 0 0 .34989 617.15 71.61)"/><g fill-opacity=".996"><path fill="#d40f0f" stroke="#000" d="m177.16 325.98l.421 160.73s2.386-3.288 35.01-1.284c32.627 2 35.433 35.433 70.867 35.433 35.433 0 35.433-35.433 70.866-35.433s35.433 35.433 70.866 35.433 35.433-35.433 70.866-35.433 35.433 35.433 72.87 37.459c33.429-2.026 33.429-37.459 69.06-39.463l35.23 2v-159.45h-496.06z" transform="matrix(.29981 0 0 .34989 617.15 71.61)"/><g fill="#0062bb"><path d="m177.16 432.28v53.15h35.433c32.627 2 35.432 35.433 70.866 35.433 35.433 0 35.433-35.433 70.866-35.433s35.433 35.433 70.866 35.433 35.434-35.433 70.867-35.433 33.429 33.407 70.866 35.433c33.429-2.026 35.23-33.429 70.866-35.433h35.433v-53.15h-35.433c-35.433 0-35.433 35.433-70.866 35.434-35.433 0-35.433-35.434-70.866-35.434s-35.433 35.433-70.867 35.433c-35.433 0-35.433-35.433-70.866-35.433s-35.433 35.433-70.866 35.433-35.433-35.433-70.866-35.433h-35.433" transform="matrix(.29981 0 0 .34989 617.15 108.8)"/><path d="m187.85 432.28l24.745 53.15c32.627 2 35.432 35.433 70.866 35.433 35.433 0 35.433-35.433 70.866-35.433s35.433 35.433 70.866 35.433 35.434-35.433 70.867-35.433 33.429 33.407 70.866 35.433c33.429-2.026 34.411-33.429 70.04-35.433l25.567-53.972-24.745.822c-35.433 0-35.433 35.433-70.866 35.434-35.433 0-35.433-35.434-70.866-35.434s-35.433 35.433-70.867 35.433c-35.433 0-35.433-35.433-70.866-35.433s-35.433 35.433-70.866 35.433-35.433-35.433-70.866-35.433h-24.745" transform="matrix(.29981 0 0 .34989 617.15 145.99)"/><path d="m425.2 520.87c35.434 0 116.62-53.15 115.79-53.15.823 0-9.494-35.433-44.927-35.433s-35.433 35.433-70.867 35.433c-35.433 0-35.433-35.433-70.866-35.433s-44.48 35.433-44.556 35.433c-1.645 0 79.989 53.15 115.42 53.15z" transform="matrix(.29981 0 0 .34989 617.15 183.18)"/></g></g></g><g transform="matrix(1.4653 0 0 1.2748 556.79 30.774)"><g fill-rule="evenodd" fill-opacity=".996"><g transform="translate(-.139 37.594)"><g fill="#fdc400" stroke="#000" stroke-width=".625"><path d="m90.85 117.57c.822 0 8.222 1.233 13.565.822 5.344-.411 7.4-2.467 7.4-2.878v-1.233h6.988s1.233 5.755.411 6.166-2.878 2.056-3.289 2.056 0-2.878-.822-2.056-1.233 2.056-1.233 2.056-.822-1.234-1.233-1.234-1.233 1.234-1.233 1.234 0-1.234-.412-1.234c-.411 0-2.466 2.056-2.466 2.056l-2.055-1.645s-1.234 2.056-1.645 2.056-2.877-1.644-2.877-1.644l-4.111 2.466s0-3.7-.822-3.289c-.822.411-5.344.411-5.344.411s-1.233 2.467-1.644 2.467-2.055-2.055-1.644-2.055 1.233-1.234.822-1.645c-.411-.411-2.466 0-2.466-.411s-.822-2.878-.411-2.878 2.055.412 2.055.412v-2.467h2.055l.411 2.467z"/><path d="m98.25 94.14c-.411 0-3.289 3.289-2.878 6.988.411 3.7 7.4 9.04 7.4 9.04s3.7-1.644 4.933 0 1.233 6.577.822 6.577-5.344 1.234-5.344.411c0-.822 0-1.644-.411-1.644s-4.933.411-4.933.411l.411-1.644-4.111-.822 1.644-1.645s-6.577-2.877-6.166-2.877 2.878-1.644 2.878-1.644l-4.933-3.289h2.878s-4.111-3.289-3.7-3.289c.411 0 2.466.411 2.466.411l-1.233-3.288h1.233l-1.233-2.466 2.055-.822 1.233 2.055-.411-4.933 2.877.411v4.111s1.233-2.466 1.233-2.878c0-.411 3.7 1.644 3.289.822z"/></g><path d="m161.97 119.62c-.514.514-2.056 1.644-2.056 1.644s3.495-.308 3.392-.308-1.233-1.028-1.336-1.336"/><path d="m164.95 121.57c-.205.308-.822 3.494-.411 3.288.411-.205 2.055-2.569 2.055-2.569l-1.644-.719"/><path d="m169.67 121.98c.513.514 2.877 2.877 2.569 2.363-.308-.513-.617-2.672-.822-2.774-.206-.103-1.542.616-1.747.411"/><path d="m128.26 118.59c-.308.103-2.877 2.056-2.877 2.056s4.316-.823 4.11-.823c-.205 0-1.336-.924-1.233-1.233"/><path d="m130.93 121.06c-.411.411-1.747 3.288-1.233 3.186.514-.103 2.775-1.953 2.775-1.953l-1.542-1.233"/><path d="m129.28 117.05c-.308-.103-2.467-1.131-2.364-1.131s2.878-.719 2.878-.719l-.514 1.85"/><path d="m88.59 115.72l-3.083-2.467 3.905 1.233-.822 1.234"/><path d="m85.92 117.36c-.411 0-4.316 2.466-4.214 2.466s5.447.103 5.344 0c-.103-.102-.925-2.26-1.13-2.466"/><path d="m88.38 120.96c-.411.206-3.494 2.569-3.289 2.569.206 0 4.625.103 4.625 0s-1.233-2.466-1.336-2.569"/><path d="m87.971 95.37s-1.13-2.878-1.028-2.878c.103 0 2.877 2.261 2.877 2.261l-1.85.617"/><path d="m91.05 91.77c0-.103.308-1.85.308-1.85s2.775 2.158 2.672 2.158c-.103 0-2.775 0-2.98-.308"/><path d="m95.37 93.11c0-.103.308-2.672.308-2.672s2.569 3.494 2.364 3.597c-.206.103-2.466-.514-2.672-.925"/></g><g fill="#fdc400" stroke="#000" stroke-width=".625"><g transform="translate(-.822 37.82)"><path d="m137.26 110.86c0 .206 4.316 3.7 4.419 4.522.102.822-7.811 1.028-7.811 1.028s-2.261-1.747-2.98-1.645c-.72.103-1.028 1.85-1.028 1.85l1.85 1.028-3.494.205 1.028 1.953 2.672-.206-.617 1.85s1.644 1.234 1.953 1.028c.308-.205 1.336-2.055 2.158-2.364.822-.308 2.569-.308 2.569-.308s-1.336 2.261-.719 2.261c.616 0 3.391-2.364 3.391-2.364s.617 2.158.719 2.158c.103 0 2.056-2.466 2.056-2.466s0 1.953.308 1.953 3.186-2.467 3.186-2.467 2.261 2.878 2.569 2.672c.309-.205.617-3.083.925-3.083s2.261-.308 2.261-.411-1.233-1.131-1.439-2.569c-.205-1.439.206-4.83.103-4.83s-13.874.513-14.08.205z"/><path d="m115.37 104.6h40.29c4.111 0 7.81-1.644 7.81-4.111 0-2.466-6.577-2.877-9.04-2.055-2.467.822-13.155 5.755-17.677 5.344s-8.632-3.289-9.04-6.166c-.412-2.878 2.055-5.344 6.577-5.344s10.277 1.644 11.51 1.233 4.111-3.7 5.344-4.111c1.233-.411 4.933-.822 4.933-.822l-1.644 1.233 5.344-1.233s-4.111 4.522-8.222 5.755c-4.111 1.233-12.743.822-16.03.822s-4.933-.411-4.522 2.055c.411 2.466 2.878 4.111 4.933 3.699 2.056-.411 8.222-2.466 8.222-2.466l-1.645-1.233 7.4-.411s-.411-1.233 0-1.233 4.111.411 4.111.411-2.467-1.233-2.056-1.233 2.056 0 5.344.411c3.289.411 10.277 1.644 9.866 4.933-.411 3.289-2.877 6.166-5.755 6.166s-5.344-.822-5.344.412c0 1.233 3.289 2.055 5.344 2.055s4.522-1.644 4.933-1.644 1.233 2.466 1.644 2.466 2.878-.822 2.878-.822l-1.644 4.522 2.877.822s-1.644 1.644-1.233 1.644 2.877 0 2.877.411-3.288 2.878-3.288 3.289 2.466 1.644 2.466 1.644-1.644 2.467-2.055 2.056-2.056-2.467-2.056-2.467-.411 1.645-1.233 1.645-2.466-.411-2.466-.411 1.233-2.467.822-2.467-2.467 1.644-2.467 1.233l-1.232-1.236s3.288-1.336 3.288-3.289c0-1.952-1.336-3.905-7.296-4.213-5.961-.309-6.06 1.438-10.483 1.233-4.419-.206-4.419-1.953-7.708-1.953-3.288 0-13.463 4.111-18.19 4.01-4.727-.102-10.688-.411-10.483-.616.206-.206 3.906-9.661 4.01-9.966z"/></g><path d="m106.88 102.46c-.411.206-4.01.72-4.214 4.522-.205 3.803.309 3.803.72 3.597.411-.205 1.233-3.494 1.233-3.494s-1.233 4.522.103 5.55c1.336 1.027 2.775 1.438 2.775 1.438l.513-3.597s-1.027 3.495 1.439 4.728c2.467 1.233 3.392.308 3.186-.617-.205-.925-.925-3.288-.925-3.288s1.953 2.158 2.056 2.363c.102.206 1.027 1.85 3.494 1.131 2.466-.72.719-2.364.719-2.364l-2.98-2.46s3.083 3.185 4.419 2.055-1.028-3.597-.925-3.494 1.953 3.494 2.672 1.336-1.13-2.775-1.747-4.83c-.617-2.056-1.131-2.261-.514-3.495.617-1.233.72-3.597.72-3.597s2.569.617 2.363-1.542c-.205-2.158-2.775-2.672-3.288-2.775-.514-.103-.412-2.261-.617-2.158-.206.103-1.85 1.336-1.85 1.336s-1.439-3.391-1.747-3.186-1.953 1.953-3.186 2.055c-1.233.103-1.953 1.85-1.953 1.85s-4.316-2.055-4.213 1.336c.103 3.391 2.569 2.569 2.569 2.672s-.411 4.728-.822 4.933z" transform="translate(-.139 37.594)"/></g><path d="m109.25 96.39c.514-.103 1.336-.719 2.158-.514s2.055 1.13 1.336 1.439c-.72.308-1.233.411-1.953.103-.719-.308-1.233-.822-1.541-1.028" transform="matrix(.9901-.14036.14036.9901-12.577 54.751)" id="2"/><use transform="matrix(-1 0 0 1 226.62-.103)" xlink:href="#2"/><path fill="#000039" stroke="#000" stroke-width=".375" d="m110.99 103.17c.103.514.411 4.831.616 4.522.206-.308 1.748-4.419 1.645-4.419s-2.158.103-2.261-.103z" transform="translate(0 37.643)"/></g><g fill="none" stroke="#000"><path stroke-width=".75" d="m109.96 103.17c.049-1.215.822-1.13 2.467-.925 1.644.206 2.466 1.028 2.363 1.234-.102.205-1.438.719-2.569.616-1.336-.411-2.298.089-2.261-.925z" transform="translate(0 37.789)"/><g stroke-width="1.25"><g transform="translate(0 37.789)"><path d="m112.43,100.08-.206,1.953"/><path d="m119.32 94.84s1.336.617 1.131 1.233c-.206.617-1.131.925-1.131.925"/><path d="m108.12 94.33c-.308.103-.719.308-.925 1.13-.205.822.925 1.336.925 1.336"/></g><path d="m111.19 136.13s-1.454 1.454 1.017 1.454.727-1.308.727-1.308" transform="translate(.145.291)"/></g></g></g><g fill-rule="evenodd" stroke-width="1.25"><use fill="#fdc400" transform="matrix(.34772 0 0 .34286 640.98 116.4)" xlink:href="#0"/><use fill="#003017" fill-opacity=".996" transform="matrix(.28976 0 0 .27236 658.43 158.85)" xlink:href="#0"/><use fill="#fdc400" transform="matrix(.34397 0 0 .32423 606.09 87.42)" xlink:href="#0"/><use fill="#003017" fill-opacity=".996" transform="matrix(.28664 0 0 .25756 623.36 127.56)" xlink:href="#0"/><use fill="#fdc400" transform="matrix(.3484 0 0 .32423 677.16 87.42)" xlink:href="#0"/><use fill="#003017" fill-opacity=".996" transform="matrix(.29033 0 0 .25756 694.65 127.56)" xlink:href="#0"/></g></g><path d="m644.94 331.5l10.359-5.267.975 1.917-4.063 2.066 1.344 2.644 4.063-2.066.975 1.917-10.359 5.267-.975-1.917 4.695-2.387-1.344-2.644-4.695 2.387-.975-1.917m4.336 8.157l9.671-6.443 3.309 4.967-1.608 1.071-2.117-3.178-2.236 1.489 1.971 2.958-1.532 1.021-1.971-2.958-2.663 1.774 2.167 3.253-1.633 1.088-3.36-5.04m6.739 9.356l8.531-7.891 1.46 1.579-3.346 3.095 2.01 2.177 3.346-3.095 1.46 1.579-8.531 7.891-1.46-1.579 3.867-3.576-2.01-2.177-3.867 3.576-1.46-1.579m11.141 4.673l1.384 1.214 2.516-4.277-3.901 3.063m-5.412 1.456l9.631-7.01 2.184 1.916-5.676 10.479-1.753-1.537 1.494-2.574-1.872-1.642-2.345 1.827-1.662-1.458m8.403 7.03l5.739-7.825-2.01-1.473 1.134-1.546 5.763 4.226-1.134 1.546-2.01-1.473-5.739 7.825-1.746-1.281m4.713 3.391l6.05-9.919 1.836 1.12-2.374 3.89 2.531 1.545 2.374-3.89 1.836 1.12-6.05 9.919-1.836-1.12 2.744-4.496-2.531-1.545-2.744 4.496-1.836-1.12m11.38 6.481l4.885-10.544 5.512 2.553-.799 1.725-3.547-1.643-1.155 2.492 3.348 1.551-.78 1.684-3.348-1.551-2.15 4.642-1.965-.91m10.779-1.601c-.678 1.787-1 2.953-.972 3.497.037.541.337.919.902 1.133.555.211 1.019.129 1.393-.246.38-.378.913-1.469 1.598-3.276s1.012-2.979.98-3.518c-.032-.539-.328-.915-.888-1.128-.56-.212-1.03-.127-1.412.255-.382.382-.916 1.477-1.601 3.283m-2.067-.785c.437-1.152.841-2.051 1.209-2.697.371-.65.737-1.106 1.1-1.366.503-.374 1.013-.584 1.53-.63.518-.046 1.134.067 1.849.339.715.271 1.251.596 1.608.974.357.378.602.874.734 1.489.095.445.064 1.03-.094 1.756-.153.728-.447 1.665-.882 2.813-.434 1.143-.836 2.039-1.207 2.69-.369.646-.734 1.104-1.095 1.376-.507.373-1.02.582-1.538.627-.518.046-1.134-.067-1.849-.339-.715-.271-1.251-.596-1.608-.974-.357-.378-.6-.873-.727-1.487-.098-.435-.071-1.017.081-1.745.154-.732.45-1.675.887-2.827m9.995-2.468l2.076.618-2.235 7.507c-.255.858-.326 1.473-.21 1.843.122.367.45.63.985.789.53.158.943.113 1.237-.135.299-.247.579-.807.839-1.679l2.227-7.478 2.047.609-2.289 7.688c-.222.747-.429 1.282-.619 1.603-.184.318-.413.578-.689.779-.415.301-.898.478-1.449.529-.549.046-1.161-.031-1.836-.232-1.273-.379-2.09-.922-2.452-1.628-.356-.709-.329-1.751.08-3.125l2.289-7.688m5.558 13.703l2.538-11.34 2.172.486 1.178 8.592 1.716-7.944 1.996.447-2.538 11.34-2.158-.483-1.197-8.611-1.719 7.959-1.988-.445m11.36.578l.947.148c.482.075.826.094 1.03.054.205-.039.378-.134.518-.286.245-.267.451-.652.616-1.156.166-.509.339-1.334.518-2.478.174-1.113.251-1.931.231-2.454-.02-.522-.129-.932-.327-1.228-.104-.149-.251-.263-.443-.344-.185-.085-.487-.16-.904-.226l-.917-.144-1.27 8.111m-2.36 1.364l1.798-11.481 3.437.538c.701.11 1.248.257 1.642.44.399.185.711.432.938.743.341.456.547.997.616 1.624.076.623.014 1.565-.183 2.828-.255 1.63-.493 2.774-.713 3.432-.219.653-.503 1.194-.85 1.624-.337.431-.757.704-1.259.819-.496.111-1.323.075-2.481-.106l-2.945-.461m8.989 1.33l1.117-11.567 5.941.574-.186 1.923-3.801-.367-.258 2.674 3.538.342-.177 1.833-3.538-.342-.308 3.185 3.891.376-.189 1.953-6.03-.582m9.817-.936l.958.034c.488.018.831-.005 1.029-.069.199-.063.359-.178.481-.345.212-.294.37-.702.474-1.221.105-.525.178-1.365.219-2.522.041-1.126.02-1.947-.062-2.464-.082-.516-.239-.91-.471-1.18-.121-.135-.281-.232-.48-.289-.194-.062-.502-.101-.925-.116l-.928-.033-.295 8.205m-2.181 1.635l.418-11.613 3.476.125c.709.026 1.27.106 1.683.242.418.136.758.344 1.019.626.393.412.661.925.805 1.539.149.609.201 1.553.155 2.83-.059 1.649-.159 2.813-.299 3.493-.14.675-.357 1.246-.651 1.713-.284.468-.668.789-1.152.963-.479.169-1.305.232-2.476.19l-2.979-.107m12.945.152l-.461-11.612 2.164-.086.461 11.612-2.164.086m5.78-.306l-.794-9.672-2.482.204-.157-1.91 7.122-.585.157 1.91-2.482.204.794 9.672-2.158.177m7.624-12.46l2.134-.371 1.341 7.717c.153.882.364 1.463.632 1.744.272.274.684.364 1.234.268.545-.095.894-.319 1.047-.672.158-.354.159-.98.003-1.877l-1.336-7.687 2.104-.366 1.374 7.903c.134.768.187 1.339.159 1.711-.023.367-.113.701-.27 1-.237.455-.591.828-1.062 1.119-.471.286-1.054.49-1.747.61-1.308.227-2.282.106-2.92-.365-.634-.477-1.074-1.422-1.32-2.834l-1.374-7.903m11.562 2.947l.88-.214c.655-.159 1.083-.399 1.285-.717.201-.323.226-.795.074-1.416-.152-.626-.38-1.028-.683-1.208-.299-.186-.788-.196-1.468-.031l-.909.221.82 3.365m-.485 6.844l-2.75-11.291 3.651-.889c1.114-.271 1.977-.217 2.587.162.61.38 1.053 1.136 1.33 2.27.271 1.114.212 2.01-.177 2.684-.386.669-1.114 1.134-2.185 1.394l-1.532.373 1.166 4.788-2.09.509m8.299-8.182c.578 1.822 1.048 2.937 1.409 3.345.365.401.835.511 1.41.329.566-.18.879-.532.939-1.058.063-.532-.197-1.719-.781-3.56s-1.056-2.964-1.416-3.367c-.36-.403-.825-.514-1.396-.333-.571.181-.887.54-.949 1.077-.062.537.199 1.726.783 3.567m-2.107.668c-.373-1.175-.615-2.13-.727-2.865-.113-.74-.109-1.325.014-1.754.162-.605.431-1.087.809-1.444.378-.357.931-.651 1.66-.883.729-.231 1.351-.31 1.865-.235.514.074 1.014.312 1.5.712.351.29.69.768 1.017 1.435.332.665.684 1.583 1.055 2.753.37 1.165.611 2.118.724 2.858.112.735.11 1.321-.004 1.759-.166.607-.438 1.089-.816 1.446-.378.357-.931.651-1.66.883-.729.231-1.351.31-1.865.235-.514-.074-1.012-.312-1.493-.714-.347-.28-.688-.753-1.02-1.418-.334-.67-.687-1.592-1.06-2.767m10.622 2.656l-4.324-10.787 2.066-.828 5.833 6.418-3.08-7.521 1.898-.761 4.324 10.787-2.052.823-5.859-6.423 3.086 7.535-1.891.758m13.459-5.95l-4.534-8.58-2.202 1.163-.895-1.695 6.318-3.339.895 1.695-2.202 1.163 4.534 8.58-1.915 1.012m5.116-2.745l-6.206-9.825 1.818-1.148 2.434 3.854 2.507-1.584-2.434-3.854 1.818-1.148 6.206 9.825-1.818 1.148-2.813-4.453-2.507 1.584 2.813 4.453-1.818 1.148m7.752-5.02l-7-9.273 4.763-3.597 1.164 1.541-3.047 2.301 1.619 2.144 2.836-2.142 1.11 1.469-2.836 2.142 1.928 2.553 3.119-2.356 1.182 1.566-4.835 3.652m5.978-9.971l1.545-1.518.524.533c.501.51.905.796 1.214.859.309.056.62-.069.932-.376.327-.321.493-.647.5-.978.0001-.334-.144-.663-.461-.986-.243-.248-.51-.401-.802-.461-.295-.063-.777-.041-1.447.067l-1.341.218c-1.147.196-1.966.232-2.456.107-.486-.129-.958-.426-1.417-.893-.684-.696-1.014-1.444-.989-2.245.025-.8.4-1.556 1.124-2.269.768-.755 1.563-1.123 2.384-1.105s1.619.42 2.391 1.206c.078.079.136.142.174.188.042.043.077.082.106.118l-1.464 1.439-.217-.221c-.441-.449-.83-.697-1.167-.747-.337-.049-.675.092-1.012.423-.248.243-.371.509-.37.797 0 .281.129.551.382.809.342.348 1.039.422 2.09.221.011-.003.02-.005.027-.005l1.416-.26c1-.194 1.786-.217 2.354-.07.564.144 1.118.492 1.661 1.044.74.753 1.096 1.546 1.068 2.379-.029.832-.443 1.641-1.243 2.428-.832.818-1.665 1.213-2.497 1.184-.829-.032-1.677-.49-2.544-1.372-.092-.093-.236-.255-.433-.484l-.032-.032m8.993-3.264l-8.907-7.464 3.834-4.575 1.481 1.241-2.452 2.927 2.059 1.725 2.283-2.724 1.411 1.183-2.283 2.724 2.452 2.055 2.51-2.996 1.504 1.26-3.892 4.644m2.262-10.404l1.029-1.527-4.562-1.954 3.533 3.481m2.131 5.184l-8.175-8.664 1.623-2.409 11.11 4.302-1.303 1.934-2.742-1.156-1.391 2.065 2.11 2.095-1.235 1.834m1.379-9.45l.989-1.927.665.341c.635.326 1.11.471 1.423.434.311-.044.566-.261.766-.65.209-.407.265-.769.167-1.085-.096-.32-.345-.584-.747-.791-.309-.159-.611-.22-.906-.185-.3.033-.75.206-1.352.519l-1.205.628c-1.027.547-1.793.838-2.298.873-.502.031-1.044-.103-1.626-.402-.868-.446-1.416-1.052-1.644-1.82-.228-.767-.11-1.603.354-2.507.492-.958 1.13-1.557 1.916-1.799.786-.241 1.668-.11 2.648.393.098.051.173.092.225.124.054.028.1.054.138.079l-.938 1.826-.275-.141c-.559-.287-1.01-.401-1.343-.342-.336.059-.612.299-.828.72-.159.309-.192.6-.101.873.089.267.295.482.617.648.434.223 1.119.074 2.053-.447.009-.007.017-.011.024-.013l1.263-.692c.89-.499 1.627-.768 2.212-.807.581-.041 1.216.115 1.905.469.94.483 1.527 1.123 1.761 1.922.234.799.096 1.697-.417 2.695-.533 1.038-1.199 1.675-1.998 1.909-.797.23-1.745.062-2.846-.503-.116-.06-.304-.168-.563-.323l-.04-.021" transform="matrix(1.0376 0 0 1.1529-28.43-57.787)"/></g></g></svg>