<svg xmlns="http://www.w3.org/2000/svg" viewBox="0 0 512 512" xmlns:xlink="http://www.w3.org/1999/xlink"><g fill-rule="evenodd"><g><path fill="#6fdcff" stroke-width="1.25" d="m0,0h512v512h-512z"/></g><g fill="#ffe400"><g transform="matrix(14.638 0 0 11.134 -5630.7 -2748.3)"><path d="m387.6,291.56c.237,.305 .159,.818 .818,.752 1.006,0 1.035-.809 1.035-1.374 0-.564-1.499-1.353-1.568-2.183-.07-.831 .346-1.063 .694-1.063 .346,0 .589,.266 .589,.498s-.173,.299-.416,.299 .104-.166-.104-.299-.347,.199-.347,.399c0,.199 .52,.265 .867,.116 .07,.448 .104,.482-.382,1.245 .348-.299 .381-.365 .764-.199-.382-.432-.096-1.312-.083-1.536s-.073-.49-.229-.623c-.278-.332-.885-.347-1.249-.133-.53,.311-.556,1.228-.417,1.528l1.469,1.98c.104,.233 .14,.88-.484,.913-.659,.066-.885-1.115-1.002-1.508-.157,.429-.332,1.613-.991,1.547-.625-.033-.745-.68-.641-.913l1.509-2.019c.138-.3 .112-1.217-.418-1.528-.364-.214-.97-.199-1.248,.133-.156,.133-.243,.399-.23,.623s.299,1.104-.083,1.536c.383-.166 .417-.1 .764,.199-.486-.763-.451-.797-.382-1.245 .347,.149 .868,.083 .868-.116 0-.2-.14-.532-.348-.399-.207,.133 .139,.299-.103,.299-.244,0-.417-.067-.417-.299s.243-.498 .59-.498 .763,.232 .693,1.063c-.069,.83-1.607,1.736-1.607,2.3 0,.565 .107,1.257 1.113,1.257 .659,.066 .737-.447 .976-.752z"/><path d="m387.52,294.92c.237,.305 .432,1.209 1.091,1.143 1.006,0 1.387-.731 1.387-1.296 0-.564-2.046-5.181-2.115-6.011-.07-.831 .346-1.063 .694-1.063 .346,0 .589,.266 .589,.498s-.173,.299-.416,.299 .104-.166-.104-.299-.347,.199-.347,.399c0,.199 .52,.265 .867,.116 .07,.448 .104,.482-.382,1.245 .348-.299 .381-.365 .764-.199-.382-.432-.096-1.312-.083-1.536s-.073-.49-.229-.623c-.278-.332-.885-.347-1.249-.133-.53,.311-.556,1.228-.417,1.528l1.977,5.613c.104,.233-.173,.997-.797,1.03-.659,.066-.885-.842-1.002-1.235l.898,.086s.035-.182 0-.3c-.464-.04-.898-.151-.898-.151l-.034-.598h.443l-.035-.265s-.374,.033-.408,0c-.035-.033-.07-.599-.07-.599s-.069-.033-.144-.033c-.076,0-.145,.033-.145,.033s-.035,.566-.069,.599c-.035,.033-.409,0-.409,0l-.034,.265h.443l-.035,.598s-.434,.111-.898,.151c-.034,.118 0,.3 0,.3l.898-.086c-.117,.393-.343,1.301-1.001,1.235-.625-.033-.902-.797-.798-1.03l1.978-5.613c.138-.3 .112-1.217-.418-1.528-.364-.214-.97-.199-1.248,.133-.156,.133-.243,.399-.23,.623s.299,1.104-.083,1.536c.383-.166 .417-.1 .764,.199-.486-.763-.451-.797-.382-1.245 .347,.149 .868,.083 .868-.116 0-.2-.14-.532-.348-.399-.207,.133 .139,.299-.103,.299-.244,0-.417-.067-.417-.299s.243-.498 .59-.498 .763,.232 .693,1.063c-.069,.83-2.115,5.447-2.115,6.011 0,.565 .381,1.296 1.387,1.296 .659,.066 .893-.838 1.132-1.143z" transform="matrix(1 0 0 -1 .00001 574.63)"/><path d="m387.52,294.92c.237,.305 .432,1.209 1.091,1.143 1.006,0 1.387-.731 1.387-1.296 0-.564-2.046-5.181-2.115-6.011-.07-.831 .346-1.063 .694-1.063 .346,0 .589,.266 .589,.498s-.173,.299-.416,.299 .104-.166-.104-.299-.347,.199-.347,.399c0,.199 .52,.265 .867,.116 .07,.448 .104,.482-.382,1.245 .348-.299 .381-.365 .764-.199-.382-.432-.096-1.312-.083-1.536s-.073-.49-.229-.623c-.278-.332-.885-.347-1.249-.133-.53,.311-.556,1.228-.417,1.528l1.977,5.613c.104,.233-.173,.997-.797,1.03-.659,.066-.885-.842-1.002-1.235l.898,.086s.035-.182 0-.3c-.464-.04-.898-.151-.898-.151l-.034-.598h.443l-.035-.265s-.374,.033-.408,0c-.035-.033-.07-.599-.07-.599s-.069-.033-.144-.033c-.076,0-.145,.033-.145,.033s-.035,.566-.069,.599c-.035,.033-.409,0-.409,0l-.034,.265h.443l-.035,.598s-.434,.111-.898,.151c-.034,.118 0,.3 0,.3l.898-.086c-.117,.393-.343,1.301-1.001,1.235-.625-.033-.902-.797-.798-1.03l1.978-5.613c.138-.3 .112-1.217-.418-1.528-.364-.214-.97-.199-1.248,.133-.156,.133-.243,.399-.23,.623s.299,1.104-.083,1.536c.383-.166 .417-.1 .764,.199-.486-.763-.451-.797-.382-1.245 .347,.149 .868,.083 .868-.116 0-.2-.14-.532-.348-.399-.207,.133 .139,.299-.103,.299-.244,0-.417-.067-.417-.299s.243-.498 .59-.498 .763,.232 .693,1.063c-.069,.83-2.115,5.447-2.115,6.011 0,.565 .381,1.296 1.387,1.296 .659,.066 .893-.838 1.132-1.143z" transform="translate(0 -17.498)"/><path d="m387.52,294.92c.237,.305 .432,1.209 1.091,1.143 1.006,0 1.387-.731 1.387-1.296 0-.564-2.046-5.181-2.115-6.011-.07-.831 .346-1.063 .694-1.063 .346,0 .589,.266 .589,.498s-.173,.299-.416,.299 .104-.166-.104-.299-.347,.199-.347,.399c0,.199 .52,.265 .867,.116 .07,.448 .104,.482-.382,1.245 .348-.299 .381-.365 .764-.199-.382-.432-.096-1.312-.083-1.536s-.073-.49-.229-.623c-.278-.332-.885-.347-1.249-.133-.53,.311-.556,1.228-.417,1.528l1.977,5.613c.104,.233-.173,.997-.797,1.03-.659,.066-.885-.842-1.002-1.235l.898,.086s.035-.182 0-.3c-.464-.04-.898-.151-.898-.151l-.034-.598h.443l-.035-.265s-.374,.033-.408,0c-.035-.033-.07-.599-.07-.599s-.069-.033-.144-.033c-.076,0-.145,.033-.145,.033s-.035,.566-.069,.599c-.035,.033-.409,0-.409,0l-.034,.265h.443l-.035,.598s-.434,.111-.898,.151c-.034,.118 0,.3 0,.3l.898-.086c-.117,.393-.343,1.301-1.001,1.235-.625-.033-.902-.797-.798-1.03l1.978-5.613c.138-.3 .112-1.217-.418-1.528-.364-.214-.97-.199-1.248,.133-.156,.133-.243,.399-.23,.623s.299,1.104-.083,1.536c.383-.166 .417-.1 .764,.199-.486-.763-.451-.797-.382-1.245 .347,.149 .868,.083 .868-.116 0-.2-.14-.532-.348-.399-.207,.133 .139,.299-.103,.299-.244,0-.417-.067-.417-.299s.243-.498 .59-.498 .763,.232 .693,1.063c-.069,.83-2.115,5.447-2.115,6.011 0,.565 .381,1.296 1.387,1.296 .659,.066 .893-.838 1.132-1.143z" transform="matrix(1 0 0 -1 .00001 557.13)"/><path d="m387.52,294.92c.237,.305 .432,1.209 1.091,1.143 1.006,0 1.387-.731 1.387-1.296 0-.564-2.046-5.181-2.115-6.011-.07-.831 .346-1.063 .694-1.063 .346,0 .589,.266 .589,.498s-.173,.299-.416,.299 .104-.166-.104-.299-.347,.199-.347,.399c0,.199 .52,.265 .867,.116 .07,.448 .104,.482-.382,1.245 .348-.299 .381-.365 .764-.199-.382-.432-.096-1.312-.083-1.536s-.073-.49-.229-.623c-.278-.332-.885-.347-1.249-.133-.53,.311-.556,1.228-.417,1.528l1.977,5.613c.104,.233-.173,.997-.797,1.03-.659,.066-.885-.842-1.002-1.235l.898,.086s.035-.182 0-.3c-.464-.04-.898-.151-.898-.151l-.034-.598h.443l-.035-.265s-.374,.033-.408,0c-.035-.033-.07-.599-.07-.599s-.069-.033-.144-.033c-.076,0-.145,.033-.145,.033s-.035,.566-.069,.599c-.035,.033-.409,0-.409,0l-.034,.265h.443l-.035,.598s-.434,.111-.898,.151c-.034,.118 0,.3 0,.3l.898-.086c-.117,.393-.343,1.301-1.001,1.235-.625-.033-.902-.797-.798-1.03l1.978-5.613c.138-.3 .112-1.217-.418-1.528-.364-.214-.97-.199-1.248,.133-.156,.133-.243,.399-.23,.623s.299,1.104-.083,1.536c.383-.166 .417-.1 .764,.199-.486-.763-.451-.797-.382-1.245 .347,.149 .868,.083 .868-.116 0-.2-.14-.532-.348-.399-.207,.133 .139,.299-.103,.299-.244,0-.417-.067-.417-.299s.243-.498 .59-.498 .763,.232 .693,1.063c-.069,.83-2.115,5.447-2.115,6.011 0,.565 .381,1.296 1.387,1.296 .659,.066 .893-.838 1.132-1.143z" transform="translate(0 -34.998)"/><path d="m387.6,291.56c.237,.305 .159,.818 .818,.752 1.006,0 1.035-.809 1.035-1.374 0-.564-1.499-1.353-1.568-2.183-.07-.831 .346-1.063 .694-1.063 .346,0 .589,.266 .589,.498s-.173,.299-.416,.299 .104-.166-.104-.299-.347,.199-.347,.399c0,.199 .52,.265 .867,.116 .07,.448 .104,.482-.382,1.245 .348-.299 .381-.365 .764-.199-.382-.432-.096-1.312-.083-1.536s-.073-.49-.229-.623c-.278-.332-.885-.347-1.249-.133-.53,.311-.556,1.228-.417,1.528l1.469,1.98c.104,.233 .14,.88-.484,.913-.659,.066-.885-1.115-1.002-1.508-.157,.429-.332,1.613-.991,1.547-.625-.033-.745-.68-.641-.913l1.509-2.019c.138-.3 .112-1.217-.418-1.528-.364-.214-.97-.199-1.248,.133-.156,.133-.243,.399-.23,.623s.299,1.104-.083,1.536c.383-.166 .417-.1 .764,.199-.486-.763-.451-.797-.382-1.245 .347,.149 .868,.083 .868-.116 0-.2-.14-.532-.348-.399-.207,.133 .139,.299-.103,.299-.244,0-.417-.067-.417-.299s.243-.498 .59-.498 .763,.232 .693,1.063c-.069,.83-1.607,1.736-1.607,2.3 0,.565 .107,1.257 1.113,1.257 .659,.066 .737-.447 .976-.752z" transform="matrix(1 0 0 -1 -.00003 539.63)"/></g><g transform="translate(-220 40)"><path stroke-width="1.25" d="m511.02,104.45a85.12,80.648 0 0,1 85.12,80.648v.004a85.12,80.648 0 0,1 -85.12,80.648 85.12,80.648 0 0,1 -85.12-80.648v-.004a85.12,80.648 0 0,1 85.12-80.648"/><g stroke-width=".25"><path d="m506.94,56.355c-.7082-.0066-4.5339,26.842-6.0133,32.876-1.325,13.43 18.07,12.94 14.897-.5316l-8.88-32.344z"/><path d="m513.77,316.21c.706,.0532 6.4902-26.479 8.4083-32.401 2.3061-13.31-17.078-14.098-14.9-.4498l6.4913,32.85z"/><path d="m378.17,184.61c-.0596,.6686 27.915,6.2768 34.156,8.1226 14.037,2.249 14.962-16.113 .5466-14.115l-34.703,5.992z"/><path d="m649.89,187.8c.0299-.6703-28.166-5.2743-34.483-6.8957-14.123-1.7455-14.234,16.638 .0789,14.125l34.404-7.2295z"/><path d="m406.79,99.641c-.482,.4916 17.893,21.249 21.605,26.348 9.5875,9.9707 22.265-3.9453 9.6155-10.793l-31.22-15.559z"/><path d="m617.95,270.64c.4351-.5294-19.772-19.698-23.937-24.472-10.465-9.1446-21.819,5.7614-8.5904,11.543l32.528,12.929z"/><path d="m448.97,70.619c-.6437,.2798 7.9658,26.114 9.3401,32.171 4.8391,12.685 22.167,4.4144 13.239-6.4931l-22.58-25.678z"/><path d="m571.98,302.96c.6626-.2368-6.0325-26.575-6.9597-32.708-3.8977-12.973-21.79-5.8622-13.682,5.6064l20.642,27.101z"/><path d="m602.16,88.602c-.5111-.4645-22.711,16.61-28.152,20.045-10.676,8.9228 3.8066,21.156 11.236,9.2822l16.916-29.327z"/><path d="m419.24,282.33c.4758,.497 23.874-15.076 29.553-18.145 11.304-8.1989-2.2469-21.355-10.528-9.999l-19.025,28.144z"/><path d="m384.15,138.16c-.2908,.6118 24.124,14.715 29.362,18.422 12.449,6.5435 19.765-10.482 5.4692-13.139l-34.831-5.2826z"/><path d="m638.07,236.6c.335-.5912-22.987-16.266-27.941-20.309-11.939-7.3468-20.486,9.1564-6.419,12.748l34.36,7.5615z"/><path d="m557.37,63.719c-.6566-.2513-14.571,23.416-18.275,28.521-6.4123,12.042 11.831,18.301 14.072,4.6621l4.2038-33.183z"/><path d="m463.52,307.97c.6366,.2939 16.252-22.401 20.322-27.25 7.2794-11.591-10.461-19.035-13.696-5.5767l-6.6257,32.826z"/><path d="m386.04,238.68c.2566,.6254 27.986-5.9856 34.449-6.9264 13.652-3.8247 5.9653-20.703-6.0561-12.906l-28.392,19.832z"/><path d="m638.13,136.11c-.2102-.6408-28.357,4.1299-34.873,4.6432-13.899,2.9172-7.4683,20.261 5.0956,13.273l29.777-17.916z"/><path d="m534.62,58.119c-.6923-.1414-10.14,25.429-12.87,31.058-4.149,12.903 14.954,16.119 14.705,2.3183l-1.8352-33.376z"/><path d="m486.15,313.97c.6802,.1867 11.979-24.7 15.115-30.136 5.0846-12.599-13.736-17.064-14.5-3.2802l-.6154,33.416z"/><path d="m476.38,60.639c-.6918,.1436 1.9179,27.122 1.9005,33.317 1.8791,13.37 20.667,8.7826 14.394-3.6751l-16.29-29.642z"/><path d="m544.39,312.46c.7006-.0978 .0746-27.183 .5459-33.362-.8947-13.462-19.974-10.121-14.628,2.7193l14.082,30.642z"/><path d="m428.16,83.092c-.5805,.3843 12.765,24.345 15.26,30.07 7.1545,11.661 22.642,.5888 11.8-8.6308l-27.06-21.44z"/><path d="m593.02,290.86c.6073-.3452-10.95-25.126-13.019-31.002-6.2826-12.104-22.545-2.0771-12.404,7.8336l25.423,23.168z"/><path d="m393,116.64c-.3965,.556 21.128,18.39 25.624,22.888 11.091,8.4556 21.36-7.1417 7.7498-12.065l-33.374-10.823z"/><path d="m627.19,256.26c.4363-.5285-19.729-19.736-23.885-24.519-10.445-9.1649-21.832,5.7191-8.6154,11.526l32.5,12.992z"/><path d="m377.57,158.53c-.1815,.6486 26.336,10.784 32.143,13.63 13.409,4.5292 17.693-13.4 3.1307-13.809l-35.274,.1786z"/><path d="m645.04,216.35c.2286-.6351-25.482-12.49-31.067-15.712-13.045-5.4005-18.632,12.204-4.1352,13.57l35.202,2.1426z"/><path d="m376.7,209.96c.0982,.6645 28.689,.2621 35.207,.7522 14.214-.7528 10.823-18.853-2.7669-13.879l-32.44,13.126z"/><path d="m646.91,164.97c-.0493-.6694-28.601-2.149-35.067-3.0668-14.235-.1842-12.178,18.095 1.7431,14.027l33.324-10.96z"/><path d="m401.18,263.43c.3948,.5571 25.926-11.641 32.015-13.899 12.438-6.5616 1.0407-21.438-8.8892-11.338l-23.126,25.237z"/><path d="m623.48,111.1c-.353-.5817-26.717,9.9073-32.956,11.759-12.889,5.7274-2.6094,21.318 8.0368,11.896l24.92-23.654z"/><path d="m442.83,298.77c.5966,.3616 18.872-20.474 23.505-24.846 8.6426-10.718-8.0724-20.052-12.925-7.0369l-10.58,31.883z"/><path d="m582.54,75.063c-.5687-.3999-20.327,19.183-25.269,23.239-9.4073,10.124 6.5833,20.535 12.378,7.8703l12.891-31.11z"/></g></g><g transform="matrix(2.1824 0 0 2.0629 -625.01 -232.56)"><path d="m349.53,159.5c.625,2.5 .781,16.562 14.844,30 14.062,13.437 37.969,16.406 37.969,16.406s.156,1.875-1.563,2.031c-1.719,.157-9.844-1.562-13.906-2.812-4.063-1.25-7.656-3.438-8.125-3.281-.469,.156-1.25,1.562-2.5,1.406s-7.031-6.25-9.531-7.813c-2.5-1.562-10.938-10.781-13.75-15.312-2.813-4.531-3.438-7.5-4.375-7.5-.938,0-4.219,2.187-4.219,2.187s-2.969-4.531-5.625-11.719c-2.656-7.187-2.344-11.406-1.719-11.718 .625-.313 .625,5.312 2.656,10.468 2.032,5.157 4.844,6.719 4.844,6.719s-1.875-2.656-3.281-9.375-1.875-13.125-.938-15.156c.938-2.031 1.875-2.656 2.032-2.5 .156,.156-1.719,3.125-.469,10.781s4.844,14.219 5.625,13.906c.781-.312-.469-1.875-1.094-6.406s.625-7.344 1.719-7.656c.469-.469 1.25,5 1.406,7.344z" transform="translate(10.607 88.389)"/><path d="m339.06,174.81c-2.656-2.5-6.875-11.25-7.812-10.781-.938,.469 6.875,12.969 7.031,14.063 .156,1.093 1.875,4.531 .625,4.062s-10.625-10.312-9.531-8.437 8.125,10.468 7.656,10.937-5.781-4.688-5.937-4.062c-.157,.625 5.312,5.781 5.156,6.406s-3.438-3.281-3.438-2.5 3.438,4.687 3.438,5.312-2.969-2.812-2.031-.937c.937,1.875 3.593,3.594 3.437,4.219s-2.187-.782-2.187-.469c0,.312 3.906,1.719 4.843,2.812 .938,1.094 7.344,8.438 12.188,12.188s18.594,10.156 19.531,10.156c.938,0 2.344-2.031 2.031-2.812-.312-.782-13.75-5.313-17.5-8.75-3.75-3.438-12.968-11.563-13.75-12.032-.781-.468-2.812-.312-2.812-.781s2.656,.313 2.5,0c-.156-.312-3.75-1.875-3.594-2.187 .156-.313 2.5,.625 2.5,.312 0-.312-4.219-2.656-4.062-3.125 .156-.469 3.125,1.406 3.125,1.094 0-.313-4.063-3.125-3.907-3.594 .157-.469 3.125,2.188 2.969,1.563s-2.344-3.907-2.344-4.375c0-.469 3.594,3.437 3.907,2.656 .312-.781-1.25-7.188-1.094-7.344s2.645,1.422 3.114,.484c.468-.937-1.837-2.241-4.052-4.078z" transform="translate(11.232 85.889)"/><path d="m385.18,222.67c-2.478,.327-3.595-.519-2.188-2.55 1.948-.146 7.132-1.817 8.964-2.584s3.788-1.866 5.416-3.339c1.622-1.609 2.49,1.031 1.678,2.397-.674,.962-3.715,2.694-5.95,3.61-3.244,1.087-6.033,2.593-7.92,2.466z" transform="matrix(.76398 0 0 .75875 102.13 140.95)"/><path d="m398.28,216.38c-1.25-1.407-.156-2.344 1.719-3.438 2.812-1.562 2.032-3.593 5.625-5.312 1.563-.938 23.906-10 31.25-14.844s27.813-20.313 33.281-30.938c5.469-10.625 2.813-11.406 3.594-11.875 .781-.468 1.563,1.563 1.406,3.907-.156,2.343-1.875,9.375-1.406,10s8.281-5.469 11.406-12.969 5.625-15.313 7.188-15.313c1.562,0-2.656,12.813-5.313,17.813-2.656,5-5.781,7.5-5,8.594 .782,1.093 8.594-5.469 11.25-10.313 2.657-4.844 5.157-9.219 5.625-8.281 .469,.937-2.5,11.25-6.718,16.094-4.219,4.843-9.219,8.281-8.438,9.062 .781,.782 6.406,1.563 12.344-2.5 5.937-4.062 6.562-10 7.344-9.687 .781,.312-.782,8.437-6.407,13.437s-13.281,5.469-12.968,6.563c.312,1.094 16.25-4.531 15.937-3.281-.312,1.25-20.625,9.218-20.782,10 .001,.625 3.439,.781 8.907-.469 5.469-1.25 10.626-5.468 11.407-4.531 .155,1.406-3.907,4.844-10.157,6.406-6.25,1.563-9.375,3.75-9.531,4.219-.156,.468 11.094-1.407 11.094-.782s-14.688,3.438-14.844,4.22c-.156,.781 14.062-2.813 13.75-2.032-.313,.781-19.219,6.406-19.063,6.719 .157,.312 15.782-3.438 15.469-2.813-.312,.625-26.406,7.969-26.562,8.438-.157,.468 22.968-5.157 22.812-4.688s-12.031,3.437-12.031,3.75c0,.312 9.531-1.562 9.375-1.094-.156,.469-24.063,6.563-24.532,7.5-.468,.938 12.344-2.5 12.188-.781s-27.656,11.094-27.813,9.375c-.156-1.719 16.719-6.094 16.563-6.562-.156-.469-9.687,1.093-9.844,.156-.156-.938 6.25-2.969 5.782-3.438-.469-.468-5.313,1.406-4.844,.313 .469-1.094 9.531-5.313 9.375-5.625-.156-.313-3.281,1.093-2.969,0 .313-1.094 19.687-6.719 19.375-7.344-.313-.625-8.906,1.406-9.687,1.562-.313-.624 12.031-5.156 11.718-5.937-.312-.781-6.562,2.656-6.874,1.719-.313-.938 10.781-5.313 10.156-5.938s-5.781,1.719-6.406,1.094 10.468-8.437 8.749-8.594c-1.718-.156-3.75,2.345-4.062,.782 .313-2.032 8.75-5.313 6.875-6.875-2.969-.938-13.125,.625-17.344,3.125s-18.125,16.406-21.563,18.593c-3.437,2.188-15,7.032-17.187,7.969-3.438,1.25-4.063,3.125-7.5,4.844-6.251,1.719-6.25,3.594-9.219,4.687-1.093,.313-12.343,5.781-12.5,5.313z" transform="translate(10.607 88.389)"/><path d="m380,224.19c-1.875,.938-3.593,3.438-2.501,4.375 .626,1.25 2.501-2.656 4.063-2.5 1.563,.156 3.75,.157 7.969,.47 4.219,.312 6.406-.938 8.75-.782s7.657-1.25 10.157-1.25 2.968,.312 3.281-.782c.312-1.093-7.813-.312-11.407-.468-3.593-.156-8.125,.781-10.781,.781-2.5-.156-6.875-.938-9.531,.156z" transform="translate(13.107 87.607)"/><path stroke-width="1.25" d="m403.419,309.14a1.7188,1.4844 0 0,1 1.718,1.484 1.7188,1.4844 0 0,1 -1.718,1.485 1.7188,1.4844 0 0,1 -1.719-1.485 1.7188,1.4844 0 0,1 1.719-1.484"/><path d="m432.17,225.28c1.566-.313 5.749,1.25 8.639,2.031 5.313,2.188 15.134,1.094 15.134,2.188s-.611,2.5-2.955,2.656-7.983-.937-7.827-.937 4.532,2.187 3.282,2.812-5.001-1.25-5.626-.781 3.438,1.406 2.813,1.719c-.625,.312-3.447-.469-4.385-.312-.937,.155 .791,1.249-.303,1.718-1.093,.469-2.932-.624-3.713-.313-.781,.314 1.682,2.032 .588,2.188-1.093,.156-3.727-.781-5.134-.937-1.406-.156 1.384,1.562 .447,1.718-.938,.156-3.488-1.249-4.113-1.249s.05,1.874-.887,1.874c-.938,0-2.041-1.562-2.51-1.562s.01,1.875-.928,1.875c-.937,0-1.273-2.031-2.054-1.875-.924,.157 .023,2.656-1.227,2.5-1.25-.157-1.416-2.656-2.353-2.5-.938,.156 .166,2.5-.772,2.5-.937,0-1.089-2.344-2.027-2.5-.937-.156-.473,2.187-1.098,2.187s-1.089-2.187-1.402-2.187c-.312,0-.004,2.187-1.098,2.031s-1.089-2.5-1.402-2.344c-.312,.157-.317,1.719-1.098,1.719s-.777-1.562-1.089-1.406c-.313,.156-1.411,2.187-2.192,1.875-.781-.313 .188-1.875-.124-1.875-.313,0-1.282,1.093-1.907,.937s.032-1.406-.125-1.406c-.156,0-1.594,.781-2.219,.781s-2.344,1.094-2.813,.156c-.468-.937 1.223-.937 1.535-1.875 .313-.937-.91-3.593 .34-4.531 1.25-.937 5.157,1.25 10.938-.312 10.624-3.125 18.824-6.718 19.665-6.563z" transform="matrix(1.0971 0 0 1 -29.114 82.451)"/></g></g></g></svg>