<svg xmlns="http://www.w3.org/2000/svg" viewBox="0 0 512 512"><defs><clipPath id="0"><path d="m124.02 0h496.06v496.06h-496.06z"/></clipPath></defs><g clip-path="url(#0)" transform="matrix(1.0321 0 0 1.0321-128 0)"><g fill-rule="evenodd" stroke-width="1.25"><g fill="#f00"><path d="M 0,372.05 H744.09 V496.07 H0 z"/><path d="M 0,0 H744.09 V124.02 H0 z"/></g><path fill="#fff" d="M 0,124.02 H744.09 V372.05 H0 z"/></g><path fill="#007900" d="m368.26 125.9c-7.567 15.11-12.613 15.11-25.22 25.18-5.04 5.04-12.611 7.554-2.522 12.591-10.09 5.03-15.13 7.554-20.18 17.626l2.522 2.518s9.587-4.699 10.09-2.518c1.677 2.01-12.619 9.738-14.464 10.912s-10.76 6.715-10.76 6.715c-12.611 10.07-20.18 7.553-27.746 22.662l25.22-2.517c5.05 17.626-12.612 20.14-25.22 27.698l-20.18 12.591c5.05 17.626 20.18 7.554 32.791 2.517l2.523 2.519v5.04l-25.22 12.591s-29.776 17.04-30.27 17.626c-.203.912 0 5.04 0 5.04 10.09 2.518 25.22 5.04 35.31 0 12.611-5.04 15.13-10.07 30.27-10.07-17.657 12.59-30.27 17.627-50.45 20.14v10.07c15.13 0 25.22 0 37.835-2.518l32.791-10.07c7.567 0 15.13 7.554 12.612 15.11-7.567 27.698-37.836 22.663-47.926 45.32l40.36-15.11c10.09-5.04 20.18-10.07 32.79-7.554 15.13 5.04 15.13 15.11 35.31 20.14l-5.04-12.59c5.04 2.518 10.09 2.518 15.13 5.04 12.613 5.04 15.13 10.07 30.27 7.554-12.611-15.11-15.13-12.59-25.22-22.662-10.09-15.11-15.13-37.771 0-40.29l17.657 5.04c17.656 2.517 17.656-2.518 42.879 7.554 15.13 5.04 20.18 12.59 37.836 7.554-7.567-17.626-35.31-30.22-52.969-35.25 20.18-12.591 15.13 5.04 42.879-2.519v-5.04c-20.18-15.11-27.746-27.699-55.49-27.699 0 0 42.881-5.04 42.881-5.04v-5.04s-42.29-11.09-43.27-11.489c.295-1.278 1.329-3.261 4.137-4.357 8.03 5.199 32.32 4.593 33.698 4.495-.71-6.196-12.218-11.312-22.307-16.347 0 0-43.2-26.628-43.42-28.985.857-6.749 17.744 1.072 35.849 6.321-5.05-10.07-15.13-15.11-25.22-17.626l15.13-2.518c-10.09-22.663-35.31-20.15-50.45-30.22-10.09-7.554-10.09-12.591-25.22-20.14"/><g fill="#fff" fill-rule="evenodd" stroke="#fff" stroke-linejoin="round" stroke-linecap="round" stroke-width="3.119"><path d="m341.01 293.63c1.872-6 4.337-11.311-6.895-16.426-11.233-5.114 5.614 20.457 6.895 16.426z"/><path d="m354.31 281.63c-2.264.295-3.45 8.56 1.082 10.821 5.03.785.889-10.722-1.082-10.821z"/><path d="m367.42 280.75c-2.366.69-2.464 12.296 5.814 10.231 8.276-2.064-.101-11.213-5.814-10.231z"/><path d="m382.69 250.94c1.773-2.853-.098-14.557-7.194-9.64-7.093 4.919 4.927 10.427 7.194 9.64z"/><path d="m367.22 241.21c2.169-.787 2.366-7.967-3.841-6.098-6.205 1.869 2.169 7.574 3.841 6.098z"/><path d="m353.23 244.06s-4.336-6-7.686-4.722c-4.237 4.03 7.981 4.82 7.686 4.722z"/><path d="m305.18 263.23c1.846.168 15.528-2.256 20.257-7.567 4.729-5.312-24.345 2.273-24.345 2.371s2.747 4.693 4.088 5.196z"/><path d="m441.91 229.36c.705-1.255-7.283-6.949-12.03-4.705-1.222 4.204 11.99 5.569 12.03 4.705z"/><path d="m415 215.83c1.479-2.164-3.447-11.02-13.3-6.098s10.344 9.541 13.3 6.098z"/><path d="m383.87 210.62s2.462-7.967 8.375-6.394c6.701 5.116-8.08 6.69-8.375 6.394z"/><path d="m378.06 204.62c-.888-2.262-7.095-.885-14.188 3.738-7.096 4.623 16.355 1.378 14.188-3.738z"/><path d="m396.19 183.17s6.32-2.829 8.178 0c2.661 4.23-8.276.099-8.178 0z"/><path d="m390.88 180.41c-1.281-2.558-8.274-2.8-8.095.896-1.172 2.896 9.09 2.357 8.095-.896z"/><path d="m374.21 180.42c-.689-1.476-10.638.028-13.595 6 4.746 2.308 15.765-2.262 13.595-6z"/><path d="m352.93 186.52s-13.09 8-13.893 13.869c.397 5.066 16.256-9.148 16.256-9.148s1.38-5.607-2.363-4.721z"/><path d="m338.45 179.24c.366-1.628 6.467-5.399 6.995-5.115.494 1.641-4.983 6.083-6.995 5.115z"/><path d="m342.59 209.83c.295-2.361-15.568-2.165-9.557 5.114 5 6.105 10.642-4.03 9.557-5.114z"/><path d="m328.14 220.28c-.827-1.596-2.02-5.85-4.189-6.242-1.77-.099-11.309 1.868-12.04 3.483-.394 1.279 3.948 9.141 5.427 9.338 1.675.688 10.505-5.792 10.8-6.579z"/><path d="m413.72 273.66c.492-1.671 16.702-7.273 22.299-1.915 6.6 9.05-22.692 4.769-22.299 1.915z"/><path d="m458.28 284.26c3.552-6.01-10.907-13.14-17.04-6.269 2.098 8.252 14.173 11.239 17.04 6.269z"/></g></g></svg>