<svg xmlns="http://www.w3.org/2000/svg" viewBox="0 0 512 512" xmlns:xlink="http://www.w3.org/1999/xlink"><defs><path id="1" d="m299.66 8.609c32.967 24.14 33.556 69.47 33.556 69.47s-5.299-47.686 30.02-67.11c-18.25 5.299-17.662 4.121-27.67 3.533l-2.355-15.307s-1.766 7.653-5.298 14.718c-7.654 2.355-9.42 2.355-28.26-5.298"/><path id="2" d="m231.894,175.06a3.4339,4.6505 0 0,1 3.434,4.65v.001a3.4339,4.6505 0 0,1 -3.434,4.65 3.4339,4.6505 0 0,1 -3.434-4.65v-.001a3.4339,4.6505 0 0,1 3.434-4.65"/><path id="3" d="m223.304,175.06a3.4339,4.6505 0 0,1 3.434,4.65v.001a3.4339,4.6505 0 0,1 -3.434,4.65 3.4339,4.6505 0 0,1 -3.434-4.65v-.001a3.4339,4.6505 0 0,1 3.434-4.65"/><path id="4" d="m214.714,177.41a3.4339,4.6505 0 0,1 3.434,4.65v.001a3.4339,4.6505 0 0,1 -3.434,4.65 3.4339,4.6505 0 0,1 -3.434-4.65v-.001a3.4339,4.6505 0 0,1 3.434-4.65"/><path id="5" d="m249.064,182.71a3.4339,4.6505 0 0,1 3.434,4.651 3.4339,4.6505 0 0,1 -3.434,4.65 3.4339,4.6505 0 0,1 -3.434-4.65 3.4339,4.6505 0 0,1 3.434-4.651"/><clipPath id="0"><path d="m0 .354h495.71v495.71h-495.71z"/></clipPath></defs><g fill-rule="evenodd" clip-path="url(#0)" transform="matrix(1.0329 0 0 1.0329 0-.366)"><g stroke-width="1.25"><path fill="#e4104d" d="M 0,248.03 H744.09 V496.06 H0 z"/><path fill="#8a85ff" d="m0 .354h744.09v247.68h-744.09z"/></g><g transform="translate(-16.385 221.83)"><g transform="matrix(.3339 0 0 .3551 103.07-209.73)"><path fill="#f3ef7d" d="m175.25 443.36l145.49-.447s53.728-52.25 25.283-86.48c-28.444-34.23-139.96-1.082-140.41-1.082-.451 0-.903-18.376-28.444-18.737-27.541.361-27.992 18.737-28.443 18.737-.452 0-111.97-33.15-140.41 1.082-28.444 34.23 25.284 86.48 25.284 86.48l141.66.447z" transform="matrix(1 0 0 1.1618 0-125.32)"/><path d="m175.25 443.36l145.49-.447s53.728-52.25 25.283-86.48c-28.444-34.23-139.96-1.082-140.41-1.082-.451 0-.903-18.376-28.444-18.737-27.541.361-27.992 18.737-28.443 18.737-.452 0-111.97-33.15-140.41 1.082-28.444 34.23 25.284 86.48 25.284 86.48l141.66.447z" transform="matrix(.96 0 0 1.1286 7.087-110.61)"/></g><g stroke-width="1.25"><g fill="#f3ef7d"><g transform="matrix(-1 0 0 1 455.54-20.882)"><path d="m239.71-79.74h.553v6.63h-.553z" id="6"/><path d="m241.72-83.34h.553v13.634h-.553z" id="7"/><path d="m243.64-85.2h.649v17.935h-.649z" id="8"/><path d="m246.1-86.51h.703v21.451h-.703z" id="9"/><path d="m248.89-87.28h.703v24.04h-.703z" id="A"/><path d="m251.74-88.21h.697v26.2h-.697z" id="B"/><path d="m254.16-88.41h.703v27.301h-.703z" id="C"/><path d="m256.59-88.41h.703v28.07h-.703z" id="D"/><path d="m259.63-88.35h.649v29.28h-.649z" id="E"/><path d="m262.48-88.07h.799v29.29h-.799z" id="F"/><path d="m265.6-87.35h.799v28.861h-.799z" id="G"/><path d="m268.65-86.23h.751v27.946h-.751z" id="H"/><path d="m271.84-84.952h.703v26.46h-.703z" id="I"/><path d="m274.48-84.09h.703v24.686h-.703z" id="J"/><path d="m277.29-82.42h.601v22.263h-.601z" id="K"/><path d="m279.75-80.26h.505v19.02h-.505z" id="L"/><path d="m281.96-78.15h.601v15.475h-.601z" id="M"/><path d="m284.12-74.915h.54v9.879h-.54z" id="N"/></g><g transform="translate(-131.37-21.545)"><use xlink:href="#6"/><use xlink:href="#7"/><use xlink:href="#8"/><use xlink:href="#9"/><use xlink:href="#A"/><use xlink:href="#B"/><use xlink:href="#C"/><use xlink:href="#D"/><use xlink:href="#E"/><use xlink:href="#F"/><use xlink:href="#G"/><use xlink:href="#H"/><use xlink:href="#I"/><use xlink:href="#J"/><use xlink:href="#K"/><use xlink:href="#L"/><use xlink:href="#M"/><use xlink:href="#N"/></g><path d="m205.64 168.03l-.833-12.489c0-2.498-18.317-16.652-18.316-52.45 0-35.8 15.818-49.954 24.14-49.954s26.642 11.656 27.475 49.12c.832 37.466-18.317 51.62-18.317 51.62l-1.665 14.986s13.321.832 14.15.832c.832 0 18.316-14.986 63.27-13.321s47.46 19.982 48.29 25.81c.832 5.828-6.661 23.311-51.619 23.311-44.959 0-58.28-20.813-59.11-20.813-.832 0-14.15-.833-14.15-.833v10.823s17.483 13.321 16.651 57.45c-.833 44.13-18.317 46.624-23.312 46.624-6.66 0-20.814-2.497-21.647-45.791 1.666-44.13 13.322-56.62 13.322-57.45v-10.823h-12.489s-13.321 10.823-59.11 11.656c-45.791.832-48.29-12.489-49.12-19.982-.833-7.493 8.326-20.814 48.29-21.647 39.963-.832 59.11 13.321 59.11 13.321l14.987.0001z" transform="matrix(.07692 0 0 .0803 145.58-144.87)"/><g transform="matrix(.3339 0 0 .3551 86.12-150.31)"><path d="m194.818,105.59a5.828,5.828 0 0,1 5.828,5.828 5.828,5.828 0 0,1 -5.828,5.828 5.828,5.828 0 0,1 -5.828-5.828 5.828,5.828 0 0,1 5.828-5.828" id="O"/><path d="m183.048,103.23a5.828,5.828 0 0,1 5.828,5.828 5.828,5.828 0 0,1 -5.828,5.828 5.828,5.828 0 0,1 -5.828-5.828 5.828,5.828 0 0,1 5.828-5.828" id="P"/><path d="m170.688,99.703a5.828,5.828 0 0,1 5.828,5.828 5.828,5.828 0 0,1 -5.828,5.828 5.828,5.828 0 0,1 -5.828-5.828 5.828,5.828 0 0,1 5.828-5.828" id="Q"/><path d="m158.318,96.759a5.828,5.828 0 0,1 5.828,5.828 5.828,5.828 0 0,1 -5.828,5.828 5.828,5.828 0 0,1 -5.828-5.828 5.828,5.828 0 0,1 5.828-5.828" id="R"/><path d="m145.368,94.404a5.828,5.828 0 0,1 5.828,5.828 5.828,5.828 0 0,1 -5.828,5.828 5.828,5.828 0 0,1 -5.828-5.828 5.828,5.828 0 0,1 5.828-5.828" id="S"/><path d="m132.418,92.638a5.828,5.828 0 0,1 5.828,5.828 5.828,5.828 0 0,1 -5.828,5.828 5.828,5.828 0 0,1 -5.828-5.828 5.828,5.828 0 0,1 5.828-5.828" id="T"/><path d="m120.058,91.461a5.828,5.828 0 0,1 5.828,5.828 5.828,5.828 0 0,1 -5.828,5.828 5.828,5.828 0 0,1 -5.828-5.828 5.828,5.828 0 0,1 5.828-5.828" id="U"/><path d="m107.098,90.872a5.828,5.828 0 0,1 5.828,5.828 5.828,5.828 0 0,1 -5.828,5.828 5.828,5.828 0 0,1 -5.828-5.828 5.828,5.828 0 0,1 5.828-5.828" id="V"/><path d="m94.739,92.638a5.828,5.828 0 0,1 5.828,5.828 5.828,5.828 0 0,1 -5.828,5.828 5.828,5.828 0 0,1 -5.828-5.828 5.828,5.828 0 0,1 5.828-5.828" id="W"/><path d="m81.788,94.404a5.828,5.828 0 0,1 5.828,5.828 5.828,5.828 0 0,1 -5.828,5.828 5.828,5.828 0 0,1 -5.828-5.828 5.828,5.828 0 0,1 5.828-5.828" id="X"/><path d="m70.013,98.525a5.828,5.828 0 0,1 5.828,5.828 5.828,5.828 0 0,1 -5.828,5.828 5.828,5.828 0 0,1 -5.828-5.828 5.828,5.828 0 0,1 5.828-5.828" id="Y"/><path d="m58.828,106.18a5.828,5.828 0 0,1 5.828,5.828 5.828,5.828 0 0,1 -5.828,5.828 5.828,5.828 0 0,1 -5.828-5.828 5.828,5.828 0 0,1 5.828-5.828" id="Z"/><path d="m51.174,116.78a5.828,5.828 0 0,1 5.828,5.828 5.828,5.828 0 0,1 -5.828,5.828 5.828,5.828 0 0,1 -5.828-5.828 5.828,5.828 0 0,1 5.828-5.828" id="a"/><path d="m46.465,127.96a5.828,5.828 0 0,1 5.828,5.828 5.828,5.828 0 0,1 -5.828,5.828 5.828,5.828 0 0,1 -5.828-5.828 5.828,5.828 0 0,1 5.828-5.828" id="b"/><path d="m44.699,140.32a5.828,5.828 0 0,1 5.828,5.828 5.828,5.828 0 0,1 -5.828,5.828 5.828,5.828 0 0,1 -5.828-5.828 5.828,5.828 0 0,1 5.828-5.828" id="c"/><path d="m45.287,153.28a5.828,5.828 0 0,1 5.828,5.828 5.828,5.828 0 0,1 -5.828,5.828 5.828,5.828 0 0,1 -5.828-5.828 5.828,5.828 0 0,1 5.828-5.828" id="d"/><path d="m48.231,165.64a5.828,5.828 0 0,1 5.828,5.828 5.828,5.828 0 0,1 -5.828,5.828 5.828,5.828 0 0,1 -5.828-5.828 5.828,5.828 0 0,1 5.828-5.828" id="e"/><path d="m52.941,178a5.828,5.828 0 0,1 5.828,5.828 5.828,5.828 0 0,1 -5.828,5.828 5.828,5.828 0 0,1 -5.828-5.828 5.828,5.828 0 0,1 5.828-5.828" id="f"/><path d="m58.239,188.6a5.828,5.828 0 0,1 5.828,5.828 5.828,5.828 0 0,1 -5.828,5.828 5.828,5.828 0 0,1 -5.828-5.828 5.828,5.828 0 0,1 5.828-5.828" id="g"/></g><g transform="matrix(-.3339 0 0 .3551 238.43-150.31)"><use xlink:href="#O"/><use xlink:href="#P"/><use xlink:href="#Q"/><use xlink:href="#R"/><use xlink:href="#S"/><use xlink:href="#T"/><use xlink:href="#U"/><use xlink:href="#V"/><use xlink:href="#W"/><use xlink:href="#X"/><use xlink:href="#Y"/><use xlink:href="#Z"/><use xlink:href="#a"/><use xlink:href="#b"/><use xlink:href="#c"/><use xlink:href="#d"/><use xlink:href="#e"/><use xlink:href="#f"/><use xlink:href="#g"/></g></g><g><path fill="#f3ef7d" d="m318.9 338.4l-24.17 56.927s-39.963-13.321-114.89-13.321c-74.931 0-109.07 11.655-109.07 11.655l-35.15-55.94c31.27-4.635 40.802 16.61 40.802 16.61s2.129-24.81 26.689-29.21c20.747-2.866 39.08 18.591 39.08 18.591s4.321-24.15 34.979-24.81c30.659.663 34.98 24.81 34.98 24.81s18.332-21.456 39.08-18.59c24.56 4.402 26.688 29.21 26.688 29.21s9.532-21.246 40.986-15.935z" transform="matrix(.45941 0 0 .57623 80.53-274.38)"/><path d="m151.529,162.27h.002a51.429,8.1303 0 0,1 51.429,8.13v.001a51.429,8.1303 0 0,1 -51.429,8.13h-.002a51.429,8.1303 0 0,1 -51.429-8.13v-.001a51.429,8.1303 0 0,1 51.429-8.13" transform="translate(13.258-218.32)"/><g transform="matrix(.3339 0 0 .3551 86.12-150.31)"><use xlink:href="#2"/><path d="m241.254,177.41a3.4339,4.6505 0 0,1 3.434,4.65v.001a3.4339,4.6505 0 0,1 -3.434,4.65 3.4339,4.6505 0 0,1 -3.434-4.65v-.001a3.4339,4.6505 0 0,1 3.434-4.65"/><use xlink:href="#3"/><path d="m206.914,182.12a3.4339,4.6505 0 0,1 3.434,4.65v.001a3.4339,4.6505 0 0,1 -3.434,4.65 3.4339,4.6505 0 0,1 -3.434-4.65v-.001a3.4339,4.6505 0 0,1 3.434-4.65"/><use xlink:href="#4"/><path d="m200.664,189.19a3.4339,4.6505 0 0,1 3.434,4.65v.001a3.4339,4.6505 0 0,1 -3.434,4.65 3.4339,4.6505 0 0,1 -3.434-4.65v-.001a3.4339,4.6505 0 0,1 3.434-4.65"/><use xlink:href="#5"/><path d="m256.084,189.19a3.4339,4.6505 0 0,1 3.434,4.65v.001a3.4339,4.6505 0 0,1 -3.434,4.65 3.4339,4.6505 0 0,1 -3.434-4.65v-.001a3.4339,4.6505 0 0,1 3.434-4.65"/></g><g transform="matrix(.32984.05521-.05191.35078 129.39-157.7)"><use xlink:href="#2"/><path d="m241.254,177.41a3.4339,4.6505 0 0,1 3.434,4.65v.001a3.4339,4.6505 0 0,1 -3.434,4.65 3.4339,4.6505 0 0,1 -3.434-4.65v-.001a3.4339,4.6505 0 0,1 3.434-4.65" id="h"/><use xlink:href="#3"/><path d="m206.914,182.12a3.4339,4.6505 0 0,1 3.434,4.65v.001a3.4339,4.6505 0 0,1 -3.434,4.65 3.4339,4.6505 0 0,1 -3.434-4.65v-.001a3.4339,4.6505 0 0,1 3.434-4.65" id="i"/><use xlink:href="#4"/><path d="m200.664,189.19a3.4339,4.6505 0 0,1 3.434,4.65v.001a3.4339,4.6505 0 0,1 -3.434,4.65 3.4339,4.6505 0 0,1 -3.434-4.65v-.001a3.4339,4.6505 0 0,1 3.434-4.65" id="j"/><use xlink:href="#5"/><path d="m256.084,189.19a3.4339,4.6505 0 0,1 3.434,4.65v.001a3.4339,4.6505 0 0,1 -3.434,4.65 3.4339,4.6505 0 0,1 -3.434-4.65v-.001a3.4339,4.6505 0 0,1 3.434-4.65" id="k"/></g><g transform="matrix(.32842-.06406.06024.34928 42.896-131.04)"><use xlink:href="#2"/><use xlink:href="#h"/><use xlink:href="#3"/><use xlink:href="#i"/><use xlink:href="#4"/><use xlink:href="#j"/><use xlink:href="#5"/><use xlink:href="#k"/></g><g transform="matrix(.97649-.21555.19155.98148 13.258-218.32)"><path d="m58.1927,155.25a1.1497,1.6475 0 0,1 1.1497,1.648v-.001a1.1497,1.6475 0 0,1 -1.1497,1.648 1.1497,1.6475 0 0,1 -1.1497-1.648v.001a1.1497,1.6475 0 0,1 1.1497-1.648"/><path d="m61.3287,156.09a1.1497,1.6475 0 0,1 1.1497,1.648v-.001a1.1497,1.6475 0 0,1 -1.1497,1.648 1.1497,1.6475 0 0,1 -1.1497-1.648v.001a1.1497,1.6475 0 0,1 1.1497-1.648"/><path d="m63.9417,157.96a1.1497,1.6475 0 0,1 1.1497,1.648v-.001a1.1497,1.6475 0 0,1 -1.1497,1.648 1.1497,1.6475 0 0,1 -1.1497-1.648v.001a1.1497,1.6475 0 0,1 1.1497-1.648"/><path d="m66.2937,160.26a1.1497,1.6475 0 0,1 1.1497,1.647 1.1497,1.6475 0 0,1 -1.1497,1.648 1.1497,1.6475 0 0,1 -1.1497-1.648 1.1497,1.6475 0 0,1 1.1497-1.647"/></g><g transform="matrix(.3091.13429-.12628.32873 148.87-220.32)"><path d="m362.514 285.4a3.4339 4.6505 0 0 1 3.434 4.65 3.4339 4.6505 0 0 1 -3.434 4.651 3.4339 4.6505 0 0 1 -3.434 -4.65 3.4339 4.6505 0 0 1 3.434 -4.651"/><path d="m346.124,292.46a3.4339,4.6505 0 0,1 3.434,4.651 3.4339,4.6505 0 0,1 -3.434,4.65 3.4339,4.6505 0 0,1 -3.434-4.65 3.4339,4.6505 0 0,1 3.434-4.651"/><path d="m353.924,287.75a3.4339,4.6505 0 0,1 3.434,4.651 3.4339,4.6505 0 0,1 -3.434,4.65 3.4339,4.6505 0 0,1 -3.434-4.65 3.4339,4.6505 0 0,1 3.434-4.651"/><path d="m339.874 299.53a3.4339 4.6505 0 0 1 3.434 4.65 3.4339 4.6505 0 0 1 -3.434 4.651 3.4339 4.6505 0 0 1 -3.434 -4.65 3.4339 4.6505 0 0 1 3.434 -4.651"/></g><use transform="matrix(.24424 0 0 .265 80.941-78.68)" xlink:href="#1"/><use transform="matrix(.23738-.06113.05865.25756 50.678-55.618)" xlink:href="#1"/><use transform="matrix(.23657.06458-.06195.25668 117.33-97.04)" xlink:href="#1"/><use transform="matrix(.15393-.06069.07756.22478 58.13-49.51)" xlink:href="#1"/><use transform="matrix(.13481.09965-.12911.19615 172.37-101.78)" xlink:href="#1"/></g><g><g transform="translate(13.258-218.32)"><path fill="#f3ef7d" d="m148.622,97.304a3.362,3.5099 0 0,1 3.362,3.51 3.362,3.5099 0 0,1 -3.362,3.51 3.362,3.5099 0 0,1 -3.362-3.51 3.362,3.5099 0 0,1 3.362-3.51"/><path d="m148.4 97.3h.704v7.02h-.704z"/><g fill="#f3ef7d"><path d="m148.913,119.51a1.5528,1.7559 0 0,1 1.553,1.756 1.5528,1.7559 0 0,1 -1.553,1.756 1.5528,1.7559 0 0,1 -1.553-1.756 1.5528,1.7559 0 0,1 1.553-1.756"/><path d="m148.815,115.96a1.4545,1.6514 0 0,1 1.454,1.651 1.4545,1.6514 0 0,1 -1.454,1.652 1.4545,1.6514 0 0,1 -1.455-1.652 1.4545,1.6514 0 0,1 1.455-1.651"/><path d="m148.815,112.61a1.4545,1.5469 0 0,1 1.454,1.547 1.4545,1.5469 0 0,1 -1.454,1.547 1.4545,1.5469 0 0,1 -1.455-1.547 1.4545,1.5469 0 0,1 1.455-1.547"/><path d="m148.818,109.9a1.2579,1.2333 0 0,1 1.258,1.233 1.2579,1.2333 0 0,1 -1.258,1.234 1.2579,1.2333 0 0,1 -1.258-1.234 1.2579,1.2333 0 0,1 1.258-1.233"/><path d="m148.818,106.76a1.2579,1.4424 0 0,1 1.258,1.442 1.2579,1.4424 0 0,1 -1.258,1.443 1.2579,1.4424 0 0,1 -1.258-1.443 1.2579,1.4424 0 0,1 1.258-1.442"/><path d="m148.821,104.46a1.0614,1.0243 0 0,1 1.062,1.024 1.0614,1.0243 0 0,1 -1.062,1.024 1.0614,1.0243 0 0,1 -1.061-1.024 1.0614,1.0243 0 0,1 1.061-1.024"/></g></g><path d="m101.34-151.55h.735v6.724h-.735z" transform="matrix(.00556.99998-.99998.00606 13.258-218.32)"/><path fill="#f3ef7d" d="m148.916,123.07a1.9459,2.0695 0 0,1 1.946,2.069 1.9459,2.0695 0 0,1 -1.946,2.07 1.9459,2.0695 0 0,1 -1.946-2.07 1.9459,2.0695 0 0,1 1.946-2.069" transform="translate(13.258-218.32)"/></g></g></g></g></svg>