<svg xmlns="http://www.w3.org/2000/svg" viewBox="0 0 512 512"><g fill-rule="evenodd" stroke-width="1.25"><path fill="#fc0" d="m0,0h512v512h-512z"/><path fill="#f60" d="m203.76,42.685h163.63v426.63h-163.63z"/><path fill="#060" d="m42.663,42.685h161.23v426.7h-161.23z"/></g><g transform="matrix(.58168 0 0 .58168 -100.53 195.38)"><path fill="#991b33" fill-rule="evenodd" stroke-width="1.25" d="m410.1,42.671h571.23v426.71h-571.23z"/></g><g fill="#fc0" transform="matrix(1.37864 0 0 1.37864 -100.53 195.37996)"><path stroke="#991b33" fill-rule="evenodd" stroke-linejoin="round" stroke-linecap="round" stroke-width="1.25" d="m267.94,101.34 3.555,.091s-4.01,3.372-3.099,7.929c4.193-6.197 5.742-5.013 5.742-5.013-1.276,1.367-3.737,3.281-1.823,7.474 1.641-4.284 5.013-7.565 5.013-7.565s-.912,4.739 1.093,9.114c1.458-4.375 3.919-8.111 3.919-8.111s-.364,4.739 1.732,6.47c1.64-1.458 2.734-5.195 2.734-5.195s3.099,5.469 5.013,6.289c1.549-3.737 1.549-6.653 1.549-6.653s6.38,4.557 11.483,1.914c-4.557-1.64-6.106-5.468-6.106-5.468s8.294,3.645 11.848,2.005c-3.464-2.644-11.574-6.5623-11.574-6.5623s6.015,2.1873 7.746,1.6405c-.82-1.1848-3.463-2.6431-3.463-2.6431"/><path d="m317.72,56.88c10.99-1 27.97,7.98 36.97,13.97 0-2 0-3.99 1.99-4.99 2-1 5,1 4,3.99-3,6.98-14.99-1-18.98-2.99l2,3.99c-6-1-7-2-10.99-6.99-1,3.99-1,4.99-6,4.99 1.88-2.96 2.51-3.95 0-6.98l-1,5.98-4.99-6.98v6.98c-1-.99-5-3.99-7-3.99-2.99-1-4.99,4.99-5.99,7.99 3-3 3.99-4.99 8.99-3-2.71,2.56-1.92,5.63 1,7.98 0,0 .52-4.15 .84-5.1 1.59,1.19 4.96,5.66 9.15,6.1 3,0 6-1 8.99-1.99 9.99-1 31.97,.99 26.98,15.96-1,3-2,4.99-4,6.99 13.99,4.99 2,22.95-1,31.93-2,7.98-.61,14.34 9.24,13.31-1.99,3.99-5.24,4.65-9.24,4.65 0,0 .5,2.4 3.07,3.53-4.27,3.83 1.48,9.57-1.07,12.44-4.3,2.06-9.99-1-9.99-1l-.28,2.83s-7.55-.52-7.71-.84c0,0 2.15-4.02 1.99-4.1-2,2.99-3.91,4.74-7.99,4.1 0,0 .32-1.88 2.55-4.26-3.03,3.02-3.36,4.34-6.54,4.26 0-4.99 2.99-10.97 8.99-8.98 1,0 4.15,2.48 5.63,.88 1.2-1.72 .49-7.54 .49-9.54 .63-8.82-1.13-8.3-6.12-13.29-4-2.99-6.922-7.574-11.912-8.574-5-1-13.068,4.584-17.068,6.574-9.99,5.99-18.98,9.98-29.97,11.98 0,0 .217-.51 .217-1.508 0-.673 10.787-9.069 12.674-23.81-2.953,14.549-13.441,22.235-13.836,24.938-.394,2.704-2.536,7.317-2.796,7.619 1.297-.778 5.458-2.817 10.731-3.249-1.137,6.249-6.99,4.99-7.99,7.98 0,3 4,6.99 0,8.98h-15.98s2.459-3.404 2.576-4.342c-2.151,1.305-3.516,4.73-8.227,4.379 .172-1.288 2.428-3.305 2.049-4.097-2.695,2.5-3.96,4.607-7.398,4.06 1-2.99 1-6.98 5-6.98 3-1 6,1 7.99-2 4-4.99-.729-15.906-1.719-21.896 0-4.99 .015-5.936-1.271-12.024l1,17.96c-4-3-8-4.99-11-8.98-6.99-8.98-4.99-18.96 4-24.95 4-2.99 6.16-4.55 11.16-6.54-1-3 1.42-5.21-2.12-6.14-1.06,1.85-2.1,3.87-4.12,3.7l1.08-4.99s-3.6,.22-2.89,6.66c-4.14-1.99-2.11-6.66-2.11-6.66h-2s-.01,5.94-3.27,7.14c.88-2.79 1.27-7.14 1.27-7.14s-5.35,6.38-8.46,4.31c1.83-2.07 3.25-2.41 3-4.91-.24-2.49-1.53-5.7025-1.764-6.2103 1.132,.5469 8.669,2.7968 13.396,.4531-.313,1.5625-.172,3.3672-.172,3.3672 4.99-1 5.99-1 10.99,.99-1-6.98-5-7.98-8.99-12.97v3.99c-4-.99-5-1.99-7-5.98l-2.99,1.99c-5.27-3.11-9.16-10.49-1.68-10.06 4.46,.56 .68,4.08 .68,4.08s11.44-3.6 15.98-4c0,0-1.32-2.79-5.54-3.27 3.5-2.63 7.02-3.48 9.54,2.06 2.51,.14 4.85-2.88 3.36-6.8 3.71-.06 5.54,2.29 7.23,4.76 1.38,.25 2.77-1.2 2.44-6.16 3.5,2.99 5.22,3.91 5.45,6.43 2.98,.66 5-.01 9.49-2.01-.99,4-.99,4.99-4.99,6.99 2.82,3.485 3.117,7.6907 2.526,9.2196-.979-.2837-1.223-.348-1.918-.5378 .217,1.5417 .53,5.7832 .392,8.2782h-2s3,8.98 3,8.98l-2,3c6.99-3 13.99-2 20.98-3.99 7.99-1 15.99-4 24.98-4 5.99,0 5.99,3 13.99,3v-4.99c0-3.99-3-7.98-8-8.98-2.99,0-7.99,1.99-10.99,2.99-3.99,1-9.99,1-13.99,1-12.98-2-10.91-3.26-15.44-5.69-2.71,.72-4.23,3.02-5.58,7.08-2.51-3.68-1.95-8.38 1.04-10.37-2.99-10.98 5-15.97 14.99-17.96z"/><g stroke="#991b33"><path stroke-linejoin="round" d="m320.72,146.69c-2-3-9-7.99-7-12.98 3-4.99 19.99-12.97 22.98-1.99 1,2.99-2.082,10.927-3.082,13.927 1.513-.389 3.195-2.713 8.119-1.871-.917,3.92-6.907,6.943-6.907,6.943 .608,2.652-4.12,14.921-4.12,14.921h-12.99l2-3.99-3,3.99h-5l4-4.99s-4.731,5.542-8.763,5.321c1-7.98 5.763-9.311 12.763-6.311 1-3.99 2.99-8.98 1-12.97z"/><g fill-rule="evenodd" stroke-width="1.25"><path d="m267.22,71.542c-1.347,.8286-.247,6.3104 1.822,5.3772 2.579-1.1629-.799-6.0068-1.822-5.3772z"/><g stroke-linejoin="round" stroke-linecap="round"><path d="m268.49,69.811c2.461,1.7316 6.38,6.3797 11.21,6.1063-3.646-3.0076-2.916-5.1949-2.916-5.1949 1.914,2.2784 8.293,4.3746 10.389,3.4631-2.46-1.8227-2.916-2.005-3.463-3.7365 2.917,.3646 6.562,1.0026 9.478-.2734"/><path d="m273.23,100.25 .273-4.1924s2.734,6.3794 4.739,6.4704c-1.276-4.6472-.729-8.3843-.729-8.3843"/><path d="m279.61,95.147s5.468,10.025 8.111,8.3847c-4.01-3.5549-3.554-8.2025-3.554-8.2025s1.823,6.1975 7.2,8.1115c.364-3.4635-2.096-9.114-2.096-9.114s4.465,7.838 6.744,8.02c1.458-1.822 .911-3.7365 .911-3.7365"/><path d="m275.33,88.221 4.01,5.1037 .638-6.8353s3.919,3.0986 4.648,3.0075-1.094-7.291-1.094-7.291 5.286,8.0202 5.651,7.8378c.364-.1823 .546-7.929 .546-7.929s4.011,11.028 5.378,10.937c1.367-.0911 1.002-1.5493 1.002-1.5493"/><path d="m272.32,79.289s6.197,5.6505 6.835,5.286c.638-.3646-2.551-6.562-2.551-6.562s3.554,3.3721 4.921,3.6455 .456-4.3746 .456-4.3746 4.192,3.5544 4.921,3.3721 .365-3.3721 .365-3.3721 2.734,2.7342 2.916,2.7342-.547-7.8379-.547-7.8379 6.107,6.4708 6.562,6.3797"/><path d="m247.53,81.294c.273,.4557 1.288,8.515 13.774,5.234 1.185-.638 .664,2.2523 .612,3.0986 .547-.0911 6.498-2.2133 10.599,.7943-.482-3.3335-1.381-5.5725-4.935-7.4864-1.731-.3645-2.995,.5207-2.995,.5207s-15.05,.1173-17.055-2.1612z"/></g></g><path stroke-linejoin="round" stroke-linecap="round" d="m240.72,132.61c-.207,.933-.86,1.202-2.725,3.897 .829,1.14 4.643,2.922 5.679,1.99 .933-.519 1-2.99 1-2.99 2,2.99 5.518,7.705 9.518,8.705 2.99,1 5.99-1 5.99-3.99s-4.518-7.819-6.508-9.809c-5-5.99-4.559-17.303-14.011-15.729-.049,.086-.427,1.373-1.333,1.603 .759,1.453 1.185,2.681-.632,3.138 1.413,1.388 1.635,2.396-.181,3.093 1.099,1.474 2.386,2.015-.144,3.276 2.647,2.58 3.217,6.376 3.347,6.816"/><path fill-rule="evenodd" stroke-width="1.25" d="m238.26,48.041c-3.005,4.3527-3.317,52.233-2.384,61.871-3.005,1.969-8.601,1.14-10.156,.518 .726-3.42 3.316-58.969 12.54-62.389z"/></g><g fill-rule="evenodd"><path d="m229.76,146.18s-13.266,1.865-7.67-6.01c4.768-2.073 4.664,2.798 2.902,4.456 2.177,.242 3.628-1.175 3.938-3.317-2.694-3.627 1.14-6.011 .933-6.011-9.223,2.073-10.467-4.249-7.047-5.285 4.319,.241 2.937,1.623 4.664,2.902 3.109-2.867 4.975-3.143 6.84-.207 1.865-2.902 4.56-2.591 4.663-2.28 3.006,5.077-3.627,5.388-6.321,4.766 2.28,2.488 1.347,4.871 .621,6.634 .069,1.727 1.383,2.003 3.524,2.694-4.559-12.575 16.064,3.35-4.664,1.762 .035,.552 .07,1.105 .104,1.658 1.693,.311 2.867,.725 3.419,2.487-.724,.967-1.864,1.105-3.626,.415 0,0 1.036,2.902-.829,3.731-1.555-.933-1.762-3.213-1.762-3.213-.864,1.071-2.142,.379-3.213-.518 .968-2.384 3.697-1.245 3.524-4.664z"/><path d="m218.36,107.84c.794-3.594 9.154-3.145 5.182,.725 2.659,4.249 10.812,3.628 13.887,1.244-2.592-4.941 4.457-3.87 4.146-.104-.864,6.666-24.113,5.769-23.215-1.865z"/></g><g stroke="#991b33"><path d="m384.27,171.44c2.49,4.66 6.911,15.702 9.36,18.34 2.295,2.052 8.01,1.81 9.77-.51 0,0 3.66,3.77 5.14,4.91 .88-.3 1.42-1.14 1.42-1.14-1.49-1.62-3.52-2.53-4.52-5.53 1.49-1.99 2.31-5.86 1.31-8.86-4.37-7.32-18.91-4.43-22.48-7.21z"/><path d="m202.8,44.287c-2.49-4.66-6.911-15.702-9.36-18.34-2.295-2.052-8.01-1.81-9.77,.51 0,0-3.66-3.77-5.14-4.91-.88,.3-1.42,1.14-1.42,1.14 1.49,1.62 3.52,2.53 4.52,5.53-1.49,1.99-2.31,5.86-1.31,8.86 4.37,7.32 18.91,4.43 22.48,7.21z"/><path d="m201.32,170.73c-4.66,2.49-15.702,6.911-18.34,9.36-2.052,2.295-1.81,8.01 .51,9.77 0,0-3.77,3.66-4.91,5.14 .3,.88 1.14,1.42 1.14,1.42 1.62-1.49 2.53-3.52 5.53-4.52 1.99,1.49 5.86,2.31 8.86,1.31 7.32-4.37 4.43-18.91 7.21-22.48z"/><path d="m384.65,44.286c2.49-4.66 6.911-15.702 9.36-18.34 2.295-2.052 8.01-1.81 9.77,.51 0,0 3.66-3.77 5.14-4.91 .88,.3 1.42,1.14 1.42,1.14-1.49,1.62-3.52,2.53-4.52,5.53 1.49,1.99 2.31,5.86 1.31,8.86-4.37,7.32-18.91,4.43-22.48,7.21z"/></g><g fill-rule="evenodd" stroke="#fc0" stroke-linejoin="round" stroke-width="1.25"><path d="m222.1,116.03c-.196,1.518 3.427,2.179 7.141,2.197 3.714,.019 7.521-.605 7.692-1.658 .049-1.885-3.243-.282-6.988-.313-3.745-.03-6.866-1.499-7.845-.226z"/><path d="m222.4,120.24c.048,1.42 3.647,1.762 6.829,1.86 3.183,.098 6.389-.538 6.976-1.566-.564-1.616-4.1-.269-6.977-.196-2.876,.074-6.07-1.42-6.828-.098z"/><path d="m223.43,124.01c-.245,1.077 2.925,1.848 5.844,1.866s7.056-1.108 7.08-2.258c-.171-.905-4.259,.318-7.006,.41-2.748,.092-5.918-.997-5.918-.018z"/><path d="m223.08,127.88c.245,1.052 3.844,1.408 7.007,1.169 3.164-.238 6.382-1.218 6.651-2.344-.146-.71-3.781,.551-6.792,.704s-6.915-.362-6.866,.471z"/></g></g></svg>