<svg xmlns="http://www.w3.org/2000/svg" viewBox="0 0 512 512"><defs><clipPath id="clipPath3051" clipPathUnits="userSpaceOnUse"><path fill-opacity=".67" d="m0,0h512v512h-512z"/></clipPath></defs><g fill-rule="evenodd" clip-path="url(#clipPath3051)"><g stroke-width="1.25"><path fill="#fff" d="m0,.0835h767.87v511.9205h-767.87z"/><path fill="#006" d="m0-0h232.74v232.75h-232.74z"/><g fill="#c00"><path d="m0,464.87h767.89v47.127h-767.89z"/><path d="m0,465.43h767.89v46.574h-767.89z"/><path d="m0,372.52h767.89v46.21h-767.89z"/><path d="m0,279.26h765.96v46.7h-765.96z"/><path d="m232.67,.0554h535.17v46.494h-535.17z"/><path d="m232.67,186.06h535.17v46.796h-535.17z"/><path d="m232.67,93.361h535.17v46.494h-535.17z"/></g></g><path fill="#fff" stroke-width=".113" d="m166.35,177.47-50.71-30.98-50.465,31.29 18.769-50.85-50.373-31.394 62.321-.438 19.328-50.691l19.744,50.574 62.321,.0667-50.115,31.693 19.184,50.732z"/></g></svg>