<svg width="512" xmlns="http://www.w3.org/2000/svg" height="512" viewBox="0 0 256 256"><defs><clipPath id="0"><path d="m73.828-44h300v300h-300z"/></clipPath></defs><g clip-path="url(#0)" transform="matrix(.85333 0 0 .85333-63 37.547)"><path fill="#fff" d="m0-44h450v300h-450z"/><path fill="#009543" d="m0 166h450v90h-450z"/><path fill="#00209f" d="m0-44h450v90h-450z"/><g transform="matrix(1.13695 0 0 1.13695-30.564-72.26)"><g stroke="#000"><path stroke-width=".88" d="m224.57 108.91c-1.504.032-2.971 1.698-2.971 1.698l.13 17.796-5.618 5.886h4.548l-.038 10.205-26.906 36.23-3.977-1.375-6.952 14.83c0 0 17.195 10.767 42.15 10.473 27.392-.326 42.27-10.969 42.27-10.969l-7.184-14.639-3.518 1.53-27.25-36.04-.038-10.51h4.548l-6.19-5.813.037-17.731c0 0-1.541-1.601-3.044-1.569z"/><path fill="none" stroke-width="4.398" d="m233.95 151.52h-18.605s-6.753-14.228-5.658-24.17c1.115-10.128 6.903-14.919 14.599-15 9.1-.101 13.868 4.459 15.308 14.599 1.428 10.05-5.644 24.58-5.644 24.58z"/></g><g fill="#fff"><path d="m192.05 185.43c-.304.405-2.535 4.866-2.535 4.866l3.852-.811-1.318-4.055"/><path d="m194.28 191.21l-4.055 1.318 4.866 1.926-.811-3.244"/><path d="m196.11 185.54l2.028 5.981 4.968-1.419-1.318-2.839-5.677-1.724"/><path d="m199.25 193.65l.71 2.433 6.59 1.622-2.636-5.576-4.663 1.521"/><path d="m206.55 188.58l2.332 5.576 4.968-1.926-1.622-2.433-5.677-1.217"/><path d="m209.79 196.18l.811 2.129 7.705 1.115-3.244-5.069-5.272 1.825"/><path d="m217.19 190.2l2.839 4.968 7.198-2.636-.811-1.926-9.226-.405"/><path d="m221.35 196.99l1.521 2.636 8.921-.304-3.345-4.968-7.097 2.636"/><path d="m230.78 190.4l2.433 4.157 5.677-2.737-1.521-2.23-6.59.811"/><path d="m240.1 193.54l-5.677 2.839 1.521 2.433 7.603-1.217-3.447-4.055"/><path d="m241.93 189.19l2.94 3.65 4.765-3.751-1.622-1.724-6.083 1.825"/><path d="m250.65 191.11l-4.562 3.447 1.217 2.129 6.286-1.622-2.94-3.954"/><path d="m256.93 183.91l1.115 1.622-3.143 4.663-3.244-4.157 5.272-2.129"/><path d="m259.06 187.97l1.926 3.852-3.852 1.318-.304-1.825 2.23-3.345"/></g></g></g></svg>