<svg xmlns="http://www.w3.org/2000/svg" viewBox="0 0 512 512"><g fill-rule="evenodd" stroke-width="1.25"><path fill="#eb0013" d="m0 0h512v512h-512z"/><path fill="#0b5035" d="m296.81 313.37l-133.4 93.29 34.37-105.26 17.854 12.931-12.81 38.45 86.999-62.695 6.984 23.284m13.684-60.925l46.566 156.5-87.44-65.25 17.986-12.747 31.12 23.349-32.522-102.72 24.295.874zm-55.2-31.07l163.91.193-89.32 64.42-7.146-20.854 33.21-22.24-108.35 1.529 7.704-23.06zm-46.34 41.839l51.901-156.73 35.721 107.75-22.04.279-13.158-41.27-32.922 104.49-19.5-14.516zm26.599 56.33l-132.23-97.06 111.62-.863-6.511 21.06-41.43-.167 88.36 62.936-19.809 14.09"/></g></svg>