<svg xmlns="http://www.w3.org/2000/svg" viewBox="0 0 512 512"><g fill-rule="evenodd" stroke-width="1.25"><path fill="#eb0013" d="m0,0h512v512h-512z"/><path fill="#0b5035" d="m296.81,313.37-133.4,93.29 34.373-105.26 17.854,12.931-12.81,38.45 86.999-62.695 6.9838,23.284zm13.684-60.925 46.566,156.5-87.443-65.253 17.986-12.747 31.118,23.349-32.522-102.72 24.295,.8744zm-55.199-31.074 163.91,.1928-89.323,64.423-7.1464-20.854 33.212-22.235-108.35,1.5294 7.7038-23.057zm-46.343,41.839 51.901-156.73 35.721,107.75-22.043,.2787-13.158-41.272-32.922,104.49-19.5-14.516zm26.599,56.326-132.23-97.057 111.62-.8628-6.5112,21.059-41.429-.1672 88.359,62.936-19.809,14.092z"/></g></svg>