<svg xmlns="http://www.w3.org/2000/svg" viewBox="0 0 512 512"><g fill-rule="evenodd" stroke-width="1.25" transform="matrix(4.26667 0 0 6.4 0 .00001)"><path fill="#00319c" d="m0,0h40v80h-40z"/><path fill="#ffde00" d="m40,0h40v80h-40z"/><path fill="#de2110" d="m80,0h40v80h-40z"/></g><g stroke="#000"><g fill-rule="evenodd" transform="matrix(.56007 0 0 .53518 9.8408 -55.998)"><path fill="#ff1900" stroke-width="1.25" d="m173.62,690.94v63.779c0,3.544 0,7.087-3.543,7.087-3.544,0-7.087,7.087-7.087,10.63 0,7.087 3.543,10.63 7.087,10.63h31.889c3.544,0 7.087-3.543 7.087-10.63-.228-3.723-3.543-10.63-7.087-10.63-3.543,0-3.543-3.543-3.543-7.087v-63.779" transform="matrix(.83373 -.55218 .55218 .83373 -26.753 225.15)"/><path fill="#a77b3b" stroke-width="3.125" d="m177.17,696.26c0,24.461-9.5184,44.291-21.26,44.291-11.741,0-21.26-19.83-21.26-44.291s9.5184-44.291 21.26-44.291c11.741,0 21.26,19.83 21.26,44.291z" transform="matrix(.76523 -.64375 .64375 .76523 -70.525 249)"/><path fill="#ff1900" stroke-width="1.25" d="m173.62,690.94v63.779c0,3.544 0,7.087-3.543,7.087-3.544,0-7.087,7.087-7.087,10.63 0,7.087 3.543,10.63 7.087,10.63h31.889c3.544,0 7.087-3.543 7.087-10.63-.228-3.723-3.543-10.63-7.087-10.63-3.543,0-3.543-3.543-3.543-7.087v-63.779" transform="matrix(.87313 .48748 -.48748 .87313 541.92 -4.2137)"/><g fill="#a77b3b" stroke-width="3.125"><path d="m421.65,701.58h-28.347c-.937,.938-8.998,54.066-17.716,74.409-10.63,24.803-42.465,46.69-42.465,46.69s19.073,6.045 24.748,10.003c1.411-.415 31.835-7.086 35.378-46.063 3.544,38.977-21.205,56.693-21.205,56.693s35.433,10.63 35.433,35.433c0-24.803 35.434-35.433 35.434-35.433s-17.772-17.716-21.315-56.693c7.086,38.977 34.077,45.648 35.488,46.063 5.675-3.958 24.748-10.003 24.748-10.003s-31.835-21.887-42.465-46.69c-8.718-20.343-16.779-73.471-17.716-74.409z" transform="translate(35.488 -56.693)"/><path d="m336.61,467.7 53.15,17.716c17.716,0 35.433-17.697 35.433-35.414 .589-39.414-14.174-53.168-17.717-53.168l7.087-7.087-10.63-10.63s3.554-18.382 38.976-17.698c35.421,.685 35.433,17.717 35.433,35.433 0,17.717-17.716,17.717-17.716,53.15 0,17.717 17.716,35.433 35.433,35.433l53.15-17.716v177.16h-212.6v-177.18z" transform="translate(.00019 -.00018)"/></g></g><g fill="none" transform="matrix(.56007 0 0 .53518 9.84078 -55.9981)"><path stroke-width=".603" d="m302.16,292.24 14.645,14.964 14.644-14.964 14.645,14.964 29.29-14.964 14.261,15.809 15.028-15.809 21.605,15.809 22.329-15.809 14.645,14.964 14.645-14.964" transform="matrix(.24195 0 0 .71037 345 267.2)"/><g stroke-width=".25"><path d="m432.28,435.83-7.086,38.976" transform="translate(-.00015 .00012)"/><path d="m435.83,435.83v38.976" transform="translate(-.00023 .00012)"/><path d="m442.91,435.83v38.976"/><path d="m450,435.83 3.543,38.976" transform="translate(0 .00012)"/><path d="m457.09,435.83 3.543,38.976"/></g></g><g stroke-width="3.125"><g transform="matrix(.56007 0 0 .53518 9.8408 -55.998)"><path fill="#a77b3b" fill-rule="evenodd" d="m318.9,361.42c35.433,17.717 35.433,53.149 35.433,70.866-1.251,16.117 0,354.33 0,354.33s-2.306-20.022-17.717-35.433l-17.716-17.716-17.717-17.717c-12.951-11.774-17.716-35.433-17.716-53.15v-248.03s0-17.717 35.433-53.15z" transform="matrix(-1 0 0 1 620.08 .00027)"/><g fill="none"><path d="m283.46,574.02c.417,0 17.716-17.717 17.716-17.717l17.717,17.717s17.716-17.717 17.716-17.717l17.717,17.717" transform="matrix(-1 0 0 1 620.08 -141.73)"/><path d="m283.46,574.02c.417,0 17.716-17.717 17.716-17.717l17.717,17.717s17.716-17.717 17.716-17.717l17.717,17.717" transform="matrix(-1 0 0 -1 620.08 1024)"/><path d="m283.46,574.02c.417,0 17.716-17.717 17.716-17.717l17.717,17.717s17.716-17.717 17.716-17.717l17.717,17.717" transform="matrix(-1 0 0 1 620.08 -70.866)"/><path d="m301.39,556.99-.208,158.76" transform="matrix(-1 0 0 1.8971 620.08 -642.07)"/><path d="m301.39,539.27-.208,176.48" transform="matrix(-1 0 0 1.7027 602.57 -485.94)"/><path d="m301.39,539.27-.208,176.48" transform="matrix(-1 0 0 1.9074 584.85 -614.03)"/></g></g><g transform="matrix(.56007 0 0 .53518 9.8408 -55.998)"><path fill="#a77b3b" fill-rule="evenodd" d="m318.9,361.42c35.433,17.717 35.433,53.149 35.433,70.866-1.251,16.117 0,354.33 0,354.33s-2.306-20.022-17.717-35.433l-17.716-17.716-17.717-17.717c-12.951-11.774-17.716-35.433-17.716-53.15v-248.03s0-17.717 35.433-53.15z" transform="translate(265.75 .00027)"/><g fill="none"><path d="m283.46,574.02c.417,0 17.716-17.717 17.716-17.717l17.717,17.717s17.716-17.717 17.716-17.717l17.717,17.717" transform="translate(265.75 -141.73)"/><path d="m283.46,574.02c.417,0 17.716-17.717 17.716-17.717l17.717,17.717s17.716-17.717 17.716-17.717l17.717,17.717" transform="matrix(1 0 0 -1 265.75 1024)"/><path d="m283.46,574.02c.417,0 17.716-17.717 17.716-17.717l17.717,17.717s17.716-17.717 17.716-17.717l17.717,17.717" transform="translate(265.75 -70.866)"/><path d="m301.39,556.99-.208,158.76" transform="matrix(1 0 0 1.8971 265.75 -642.07)"/><path d="m301.39,539.27-.208,176.48" transform="matrix(1 0 0 1.7027 283.26 -485.94)"/><path d="m301.39,539.27-.208,176.48" transform="matrix(1 0 0 1.9074 300.97 -614.03)"/></g></g></g></g><g transform="matrix(.56007 0 0 .53518 9.8408 -55.998)"><path fill="#a77b3b" stroke="#000" fill-rule="evenodd" stroke-width="3.125" d="m177.17,696.26c0,24.461-9.5184,44.291-21.26,44.291-11.741,0-21.26-19.83-21.26-44.291s9.5184-44.291 21.26-44.291c11.741,0 21.26,19.83 21.26,44.291z" transform="matrix(.92308 .38461 -.38461 .92308 500.64 -32.163)"/></g><g transform="matrix(.56007 0 0 .53518 9.8408 -55.998)"><g fill-rule="evenodd"><path fill="#f00" stroke-width="1.25" d="m336.61,485.43h212.6v106.3h-212.6z" transform="translate(.00015 -.00018)"/><path fill="#564dff" stroke-width="2.5" d="m336.61,591.73h212.6v53.15c0,35.433-53.15,35.433-106.3,70.866-53.15-35.433-106.3-35.433-106.3-70.866v-53.15z" transform="translate(.00086 .0007)"/></g><path fill="none" stroke="#ff0" stroke-width="2.5" d="m336.61,485.43h212.6v159.45c0,35.433-53.15,35.433-106.3,70.866-53.149-35.433-106.3-35.433-106.3-70.866v-159.45z" transform="translate(.00158 .00032)"/><g fill-rule="evenodd"><g fill="#ff0" stroke="#000" stroke-width="3.011"><path d="m385.59,129.9s-50.618,55.447-50.618,108.6c0,53.149 53.149,70.866 53.149,70.866s-17.717,0-17.717,70.866c0,35.433 53.15,17.717 53.15,35.433 0,17.717-.751,60.578 0,88.583 0,17.716-35.433,0-35.433,17.716 0,8.859 26.575,53.15 53.15,53.15 26.574,0 53.149-44.291 53.149-53.15 0-17.716-35.433,0-35.433-17.716v-88.583c0-17.716 53.15,0 53.15-35.433 0-70.866-17.717-70.866-17.717-70.866s53.15-17.717 53.15-70.866-50.619-108.6-50.619-108.6c0-.001 28.473,73.163 28.473,108.6 0,17.717-13.287,53.149-48.72,53.149 0,0-8.961-17.716-17.717,0 0,0-10.189-17.716-17.716,0-2.598,6.115-7.207-17.716-17.717,0-4.465,4.697-7.984-17.716-17.717,0-17.716,0-53.148-17.716-53.149-53.149 0-35.433 32.902-108.6 32.902-108.6z" transform="matrix(.7 0 0 .46956 134.02 431.52)"/><path d="m382.68,248.03c-3.543,3.543 4.581,61.274 7.087,63.779 3.543,3.543 24.803,3.543 28.346,0 2.525-2.525 0-56.693-3.543-60.236-3.543-3.544-29.384-6.049-31.89-3.543z" transform="matrix(.7 0 0 .46956 136.69 524.92)"/><path d="m382.68,248.03c-3.543,3.543 4.581,61.274 7.087,63.779 3.543,3.543 24.803,3.543 28.346,0 2.525-2.525 0-56.693-3.543-60.236-3.543-3.544-29.384-6.049-31.89-3.543z" transform="matrix(-.7 0 0 .46956 749.14 524.92)"/><path d="m414.57,228.54c0,8.8061-7.1388,15.945-15.945,15.945-8.8061,0-15.945-7.1388-15.945-15.945 0-8.8061 7.1388-15.945 15.945-15.945 8.8061,0 15.945,7.1388 15.945,15.945z" transform="matrix(.80459 0 0 .58536 96.528 497.79)"/><path d="m414.57,228.54c0,8.8061-7.1388,15.945-15.945,15.945-8.8061,0-15.945-7.1388-15.945-15.945 0-8.8061 7.1388-15.945 15.945-15.945 8.8061,0 15.945,7.1388 15.945,15.945z" transform="matrix(.8046 0 0 .58537 147.84 497.79)"/></g><g stroke-width="1.25"><path d="m414.57,228.54c0,8.8061-7.1388,15.945-15.945,15.945-8.8061,0-15.945-7.1388-15.945-15.945 0-8.8061 7.1388-15.945 15.945-15.945 8.8061,0 15.945,7.1388 15.945,15.945z" transform="matrix(.38889 0 0 .26087 304.02 626.15)"/><path d="m414.57,228.54c0,8.8061-7.1388,15.945-15.945,15.945-8.8061,0-15.945-7.1388-15.945-15.945 0-8.8061 7.1388-15.945 15.945-15.945 8.8061,0 15.945,7.1388 15.945,15.945z" transform="matrix(.38889 0 0 .26087 271.77 626.15)"/><g fill="#ff0" stroke="#000"><path d="m439.37,549.92-7.78-10.26-12.77,1.75 1.76-12.76-10.26-7.78 10.26-7.79-1.76-12.76 12.77,1.76 7.78-10.27 7.78,10.27 12.77-1.76-1.76,12.76 10.26,7.79-10.26,7.78 1.76,12.76-12.77-1.75z" transform="matrix(.97561 0 0 .97561 14.26 16.248)"/><path d="m496.06,591.73l21.26,10.63 21.26-10.63-21.26-10.63-21.26,10.63z" transform="translate(.00015 -.00018)"/><path d="m496.06,591.73l21.26,10.63 21.26-10.63-21.26-10.63-21.26,10.63z" transform="translate(-152.36 .00017)"/><path d="m535.04,659.06c-3.543-7.086-14.173-10.63-21.259-10.63-7.087,0-14.174,0-21.26,10.63 0-14.173 10.502-21.26 21.26-21.26 10.756,0 21.259,10.503 21.259,21.26z" transform="matrix(.86717 -.49801 .49801 .86717 -263.15 350.11)"/><path d="m386.22,651.97c0,3.9138-3.1728,7.0866-7.0866,7.0866s-7.0866-3.1728-7.0866-7.0866 3.1728-7.0866 7.0866-7.0866 7.0866,3.1728 7.0866,7.0866z" transform="translate(-3.5432 -17.717)"/><path d="m386.22,651.97c0,3.9138-3.1728,7.0866-7.0866,7.0866s-7.0866-3.1728-7.0866-7.0866 3.1728-7.0866 7.0866-7.0866 7.0866,3.1728 7.0866,7.0866z" transform="translate(-10.63 7.0864)"/><path d="m386.22,651.97c0,3.9138-3.1728,7.0866-7.0866,7.0866s-7.0866-3.1728-7.0866-7.0866 3.1728-7.0866 7.0866-7.0866 7.0866,3.1728 7.0866,7.0866z" transform="translate(-14.173 -7.0869)"/><path d="m386.22,651.97c0,3.9138-3.1728,7.0866-7.0866,7.0866s-7.0866-3.1728-7.0866-7.0866 3.1728-7.0866 7.0866-7.0866 7.0866,3.1728 7.0866,7.0866z" transform="translate(3.5435 7.0864)"/><path d="m386.22,651.97c0,3.9138-3.1728,7.0866-7.0866,7.0866s-7.0866-3.1728-7.0866-7.0866 3.1728-7.0866 7.0866-7.0866 7.0866,3.1728 7.0866,7.0866z" transform="translate(7.0868 -7.0869)"/><path d="m386.22,651.97c0,3.9138-3.1728,7.0866-7.0866,7.0866s-7.0866-3.1728-7.0866-7.0866 3.1728-7.0866 7.0866-7.0866 7.0866,3.1728 7.0866,7.0866z" transform="translate(-3.5431 -3.5435)"/></g></g></g></g><g fill-rule="evenodd"><g transform="matrix(.56007 0 0 .53518 9.8408 -55.998)"><path fill="#da4500" stroke-width="1.25" d="m389.76,386.22c-15.647,0-17.716,1.772-24.803,3.544 0-4.89 17.424-10.63 33.071-10.63 0,3.543-4.134,7.087-8.268,7.086z" transform="matrix(1.1429 0 0 1.6667 -36.784 -242.13)"/><path fill="#cac9c7" d="m428.74,386.22c0,3.9138-3.1728,7.0866-7.0866,7.0866s-7.0866-3.1728-7.0866-7.0866 3.1728-7.0866 7.0866-7.0866 7.0866,3.1728 7.0866,7.0866z" transform="translate(7.0866 -3.5433)"/><g stroke-width="1.25"><path fill="#ff0" stroke="#000" d="m361.42,357.87v10.63h17.717v53.15h10.63v-53.15h17.716v-10.63h-17.716v-14.173h-10.63v14.173h-17.717z"/><path fill="#da4500" d="m396.85,387.11c-15.647,0-24.803,.885-31.89,2.657 0-4.89 9.156-10.63 24.803-10.63 3.543,0 7.087,5.315 7.087,7.973z" transform="matrix(1.3333 0 0 2.2222 -111.03 -470.46)"/></g></g><g transform="matrix(.56007 0 0 .53518 9.8408 -55.998)"><path fill="#008500" stroke="#000" stroke-width=".875" d="m67.323,612.99c-14.173-14.17-16.634-21.36 3.543-10.1l283.75,247.5-3.366,6.968-283.93-244.37z" transform="matrix(.5634 .45036 -.20424 .35982 321.13 327.02)"/><g fill="#008f00"><path d="m106.3,825.59c61.099-21.171 49.646-102.47 42.618-103.04-7.028-.572-33.42,18.668-36.963,36.385-7.086-28.346-23.102-54.578-32.342-51.546-13.861,3.032 2.4664,47.491-4.6203,54.578-7.0866,3.543-39.117-21.736-46.203-18.193-7.0866,3.544 18.481,100.06 77.511,81.813z" transform="matrix(.13171 -.18019 .3274 .2393 23.692 542.15)"/><path d="m106.3,825.59c61.099-21.171 49.646-102.47 42.618-103.04-7.028-.572-33.42,18.668-36.963,36.385-7.086-28.346-23.102-54.578-32.342-51.546-13.861,3.032 2.4664,47.491-4.6203,54.578-7.0866,3.543-39.117-21.736-46.203-18.193-7.0866,3.544 18.481,100.06 77.511,81.813z" transform="matrix(.13171 -.18019 .3274 .2393 -4.4099 495.32)"/><path d="m106.3,825.59c61.099-21.171 49.646-102.47 42.618-103.04-7.028-.572-33.42,18.668-36.963,36.385-7.086-28.346-23.102-54.578-32.342-51.546-13.861,3.032 2.4664,47.491-4.6203,54.578-7.0866,3.543-39.117-21.736-46.203-18.193-7.0866,3.544 18.481,100.06 77.511,81.813z" transform="matrix(.13171 -.18019 .3274 .2393 -25.914 452.8)"/><path d="m106.3,825.59c61.099-21.171 49.646-102.47 42.618-103.04-7.028-.572-33.42,18.668-36.963,36.385-7.086-28.346-23.102-54.578-32.342-51.546-13.861,3.032 2.4664,47.491-4.6203,54.578-7.0866,3.543-39.117-21.736-46.203-18.193-7.0866,3.544 18.481,100.06 77.511,81.813z" transform="matrix(.13171 -.18019 .3274 .2393 -47.174 406.73)"/><path d="m106.3,825.59c61.099-21.171 49.646-102.47 42.618-103.04-7.028-.572-33.42,18.668-36.963,36.385-7.086-28.346-23.102-54.578-32.342-51.546-13.861,3.032 2.4664,47.491-4.6203,54.578-7.0866,3.543-39.117-21.736-46.203-18.193-7.0866,3.544 18.481,100.06 77.511,81.813z" transform="matrix(.2232 -.00074 .00134 .40553 219.6 248.33)"/><path d="m106.3,825.59c61.099-21.171 49.646-102.47 42.618-103.04-7.028-.572-33.42,18.668-36.963,36.385-7.086-28.346-23.102-54.578-32.342-51.546-13.861,3.032 2.4664,47.491-4.6203,54.578-7.0866,3.543-39.117-21.736-46.203-18.193-7.0866,3.544 18.481,100.06 77.511,81.813z" transform="matrix(.21063 .07382 -.13413 .38271 352.49 299.69)"/><path d="m106.3,825.59c61.099-21.171 49.646-102.47 42.618-103.04-7.028-.572-33.42,18.668-36.963,36.385-7.086-28.346-23.102-54.578-32.342-51.546-13.861,3.032 2.4664,47.491-4.6203,54.578-7.0866,3.543-39.117-21.736-46.203-18.193-7.0866,3.544 18.481,100.06 77.511,81.813z" transform="matrix(.22236 .01926 -.035 .40402 292.95 329.27)"/><path d="m106.3,825.59c61.099-21.171 49.646-102.47 42.618-103.04-7.028-.572-33.42,18.668-36.963,36.385-7.086-28.346-23.102-54.578-32.342-51.546-13.861,3.032 2.4664,47.491-4.6203,54.578-7.0866,3.543-39.117-21.736-46.203-18.193-7.0866,3.544 18.481,100.06 77.511,81.813z" transform="matrix(.21927 .04166 -.07569 .39841 352.36 385.54)"/></g></g></g><g transform="matrix(.56007 0 0 .53518 9.8408 -55.998)"><path fill="#ff1900" stroke="#000" fill-rule="evenodd" stroke-width="1.25" d="m209.06,775.98c0,7.8277-10.312,14.173-23.031,14.173-12.72,0-23.031-6.3456-23.031-14.173 0-7.8277 10.312-14.173 23.031-14.173 12.72,0 23.031,6.3456 23.031,14.173z" transform="matrix(.87313 .48748 -.48748 .87313 541.92 -4.2137)"/></g><g fill="#ff0" stroke="#000" fill-rule="evenodd" transform="matrix(.40549 .12769 -.14842 .38308 363.62582 58.04886)"><path stroke-width=".625" d="m155.91,414.57v-7.087h7.086v-7.086h7.087v7.086h7.086v7.087h-7.086v17.716h-7.087v-17.716h-7.086z" transform="translate(0 -.00003)"/><path stroke-width=".63" d="m162.99,474.8h7.087v205.51h-7.087z"/><g stroke-width=".625"><path d="m159.45,676.77h14.173v56.693h-14.173z"/><path d="m155.91,439.37h21.259c14.174,0-3.543,38.976-3.543,38.976h-14.173s-17.717-38.976-3.543-38.976z"/><path d="m173.62,434.06c0,2.9354-3.1728,5.315-7.0866,5.315s-7.0866-2.3796-7.0866-5.315 3.1728-5.315 7.0866-5.315 7.0866,2.3796 7.0866,5.315z"/></g></g><g transform="matrix(.56007 0 0 .53518 9.8408 -55.998)"><path fill="#ff1900" stroke="#000" fill-rule="evenodd" stroke-width="1.25" d="m209.06,775.98c0,7.8277-10.312,14.173-23.031,14.173-12.72,0-23.031-6.3456-23.031-14.173 0-7.8277 10.312-14.173 23.031-14.173 12.72,0 23.031,6.3456 23.031,14.173z" transform="matrix(.83373 -.55218 .55218 .83373 -26.753 225.15)"/></g></svg>