<svg xmlns="http://www.w3.org/2000/svg" viewBox="0 0 512 512"><g fill-rule="evenodd"><path fill="#3b5aa3" stroke-width="1.25" d="m0 0h511.9v512h-511.9z"/><path fill="#fff" d="m139.06 1.241l-5.4 87.962-23.12-56.09 8.87 59.71-35.796-48.25 23.466 55.05-47.01-36.467 36.592 45.826-53.14-23.552 46.549 35.24-57.895-7.655 54.706 21.687-85.87 7.854 86.08 5.753-54.55 22.427 57.31-7.755-46.38 34.25 53.819-23.615-36.708 46.2 46.7-35.36-23.14 53.817 37.38-46.801-10.119 58.34 23.514-54.51 5.315 86.11 8.292-85.9 20.274 54.843-7.729-59.09 37.2 46.841-24.441-54.708 46.681 37.649-37.11-47 55.48 23.1-49.1-35.857 59.797 10.08-57.25-21.987 89.04-5.529-89.04-8.292 58.61-19.535-60.733 7.628 50.18-35.08-56.56 22.75 39.06-47.35-47.564 37.15 22.888-56.832-36.921 48.33 7.93-60.27-21.963 56.868-8.204-87.962z"/><path fill="#e2ae57" d="m0 498.22l511.94-498.22-.03 92.71-511.91 419.29v-13.78"/><path fill="#fff" d="m17.918 511.98l494.08-320.81-.11-101.85-511.89 422.68 17.918-.02z"/></g></svg>