<svg xmlns="http://www.w3.org/2000/svg" viewBox="0 0 512 512"><g fill-rule="evenodd"><path fill="#3b5aa3" stroke-width="1.25" d="m0,0h511.9v512h-511.9z"/><path fill="#fff" d="m139.06,1.2407-5.4,87.962-23.12-56.095 8.87,59.71-35.796-48.252 23.466,55.055-47.013-36.467 36.592,45.826-53.14-23.552l46.549,35.244-57.895-7.6547 54.706,21.687-85.871,7.8543 86.083,5.7533-54.547,22.427 57.311-7.755-46.377,34.245 53.819-23.615-36.708,46.202 46.7-35.358-23.136,53.817 37.382-46.801-10.119,58.338 23.514-54.511 5.3151,86.112 8.2925-85.899 20.274,54.843-7.7291-59.095 37.198,46.841-24.441-54.708 46.681,37.649-37.113-47.005 55.481,23.1-49.102-35.857 59.797,10.08-57.246-21.987 89.038-5.5288-89.038-8.2925 58.606-19.535-60.733,7.6282 50.179-35.082-56.557,22.75 39.059-47.352-47.564,37.146 22.888-56.832-36.921,48.327 7.9305-60.27-21.963,56.868-8.204-87.962z"/><path fill="#e2ae57" d="m0,498.22 511.94-498.22-.03,92.71-511.91,419.29v-13.78z"/><path fill="#fff" d="m17.918,511.98 494.08-320.81-.11-101.85-511.89,422.68 17.918-.02z"/></g></svg>