<svg width="512" xmlns="http://www.w3.org/2000/svg" height="512" viewBox="0 0 5.12 5.12" xmlns:xlink="http://www.w3.org/1999/xlink"><defs><g id="1"><use width="18" height="12" xlink:href="#2" transform="matrix(-.80902-.58779.58779-.80902 0 0)"/><use width="18" height="12" xlink:href="#2" transform="matrix(.30902-.95106.95106.30902 0 0)"/><use width="18" height="12" xlink:href="#2"/><use width="18" height="12" xlink:href="#2" transform="matrix(.30902.95106-.95106.30902 0 0)"/><use width="18" height="12" xlink:href="#2" transform="matrix(-.80902.58779-.58779-.80902 0 0)"/></g><path fill="#fff" id="2" d="m.163 0h-.325l.163-.5z" transform="scale(8.844)"/><clipPath><path d="m1-7.2h16v12h-16z"/></clipPath><clipPath id="0"><path d="m2.992-7.2h12v12h-12z"/></clipPath></defs><g clip-path="url(#0)" transform="matrix(.42667 0 0 .42667-1.277 3.072)"><path fill="#fecb00" d="m0-7.2h18v6h-18z"/><path fill="#ea2839" d="m0-1.2h18v6h-18z"/><path fill="#34b233" d="m0-3.2h18v4h-18z"/><use width="18" x="9" y="6.422" height="12" xlink:href="#1" transform="translate(0-7.2)"/></g></svg>