<svg width="512" xmlns="http://www.w3.org/2000/svg" height="512" viewBox="0 0 5.12 5.12" xmlns:xlink="http://www.w3.org/1999/xlink"><defs><clipPath clipPathUnits="userSpaceOnUse"><path d="m1-7.2h16v12h-16z"/></clipPath><clipPath id="clipPath3042" clipPathUnits="userSpaceOnUse"><path d="m2.9922-7.2h12v12h-12z"/></clipPath><g id="star"><use width="18" height="12" xlink:href="#pt" transform="matrix(-.80902 -.58779 .58779 -.80902 0 0)"/><use width="18" height="12" xlink:href="#pt" transform="matrix(.30902 -.95106 .95106 .30902 0 0)"/><use width="18" height="12" xlink:href="#pt"/><use width="18" height="12" xlink:href="#pt" transform="rotate(72)"/><use width="18" height="12" xlink:href="#pt" transform="rotate(144)"/></g><path fill="#fff" id="pt" d="M.1625,0-.1625,0 0-.5z" transform="scale(8.844)"/></defs><g clip-path="url(#clipPath3042)" transform="matrix(.42667 0 0 .42667 -1.27667 3.072)"><path fill="#fecb00" d="m0-7.2h18v6h-18z"/><path fill="#ea2839" d="m0-1.2h18v6h-18z"/><path fill="#34b233" d="m0-3.2h18v4h-18z"/><use width="18" x="9" y="6.422" height="12" xlink:href="#star" transform="translate(0 -7.2)"/></g></svg>