<svg xmlns="http://www.w3.org/2000/svg" viewBox="0 0 512 512"><g fill-rule="evenodd"><g stroke-width="1.25" transform="matrix(.50106 0 0 1 0 15.937)"><path fill="#d61517" d="m0-15.937h1021.8v512h-1021.8z"/><path fill="#018edf" d="m340.61-15.937h340.61v512h-340.61z"/></g><g fill="#ffd700" fill-opacity=".867" transform="matrix(.5822 0 0 .5822-17.756 118.89)"><g stroke-width="1.25"><path d="m173.29 121.21c12.727.368 14.685-4.047 14.685-8.463v-15.08c0-1.84 4.895-3.679 4.895-6.991 0-3.311-2.447-6.99-3.426-9.198-1.469 5.519-3.916 11.04-8.323 12.878-1.958-4.415-2.447-5.887-1.468-8.095.979-2.207 0-5.518-1.958-8.829-1.469 6.99-5.874 8.83-6.364 11.04-.49 2.207-1.958 8.463-4.896 5.151-2.937-3.311-4.895-7.358-6.364-11.773-2.938 8.829-1.469 10.67-.489 12.141.979 1.472 1.958 5.887 1.958 7.726 0 1.839-1.958 9.198-.98 11.406.98 2.207 1.469 8.829 12.728 8.094"/><path d="m221.01 236.08c0 21.656-17.556 39.21-39.21 39.21s-39.21-17.556-39.21-39.21 17.556-39.21 39.21-39.21 39.21 17.556 39.21 39.21" transform="matrix(.81858 0 0 .61524 27.799 7.811)"/><path d="m221.39 162.59c-16.946 23.674-49.582 30.25-73.78 14.383-6.379-4.182-11.04-8.865-15.482-14.863 4 17.02 16.13 29.07 32.922 33.368 24.711 6.329 49.952-8.405 56.34-32.889z"/><path d="m127.5 349.12h95.5v19.868h-95.5z"/><path d="m132.17 208.71l42.589 25.843 43.08-25.843h-85.67"/><path d="m132.17 236.69h86.16v19.868h-86.16z"/><path d="m132.17 381.72l42.589 20.235 43.08-20.235h-85.67"/><path d="m67.72 209h41.573v192.1h-41.573z"/><path d="m238.74 209h41.573v192.1h-41.573z"/></g><path stroke-width=".625" d="m145.83 276.48c12.711-9.408 31.701-16.454 38.53-8.829 6.864 7.888 8.495 14.935 6.991 21.275-2.031 5.502-11.157 12.07-17.901 8.585-7.749-3.655-20.11 9.02-21.532 16.02-1.852 7.466-2.034 16.343.098 24.578-20.302-23.67-21.683-51.06-6.185-61.62m34.519 11.697c-3.502 2.059-8.596-.034-11.371-4.671-2.776-4.637-.645-6.363 2.855-8.423 3.503-2.058 7.06-3.673 9.832.963 2.775 4.638 2.185 10.07-1.317 12.13m19.612 42.05c-12.552 9.639-33.23 13.361-40.13 5.819-6.936-7.807-1.193-17.662.228-24.05 1.957-5.552 10.993-10.413 17.756-7.02 7.765 3.546 20.235-10.365 18.761-19.279 1.755-7.519-.653-8.799-4.313-19.83 20.519 23.43 23.01 53.51 7.697 64.36m-27.972-14.84c3.464-2.121 7.631-1.036 10.453 3.573 2.822 4.609 2.629 8.231-.834 10.353-3.465 2.12-8.895 1.941-11.717-2.668-2.822-4.609-1.366-9.137 2.098-11.258"/></g></g></svg>