<svg xmlns="http://www.w3.org/2000/svg" viewBox="0 0 512 512"><defs><clipPath id="clipPath6890" clipPathUnits="userSpaceOnUse"><path fill-opacity=".67" d="m124.02-0h496.06v496.06h-496.06z"/></clipPath></defs><g fill-rule="evenodd" clip-path="url(#clipPath6890)" transform="matrix(1.0321 0 0 1.0321 -128 .00001)"><path fill="#199d00" d="m0-.0001h744.09v496.0601h-744.09z" transform="translate(0 .00006)"/><g stroke-width="1.25"><path fill="#feffff" stroke-linejoin="round" d="m370.8,277.77c-11.663,8.12-23.864,15.299-35.527,23.419-14.615,1.034-28.788,1.181-43.846,.443 0,0-31.445-5.314-39.417-19.044-.443-1.329 10.186-6.201 10.186-6.201 16.092,11.368 33.955,21.407 67.32,19.931-41.189-3.691-69.091-26.426-77.506-47.39 22.292-15.649 59.2-15.354 89.464,6.2-9.448-11.81-41.041-24.949-64.662-21.258-3.396-3.544-6.348-7.973-9.744-11.516 27.164-6.053 64.958,11.368 78.835,25.688-14.615-23.473-25.245-50.047-7.972-82.378 3.395,3.248 7.234,6.496 10.629,9.744-12.991,23.768-8.267,51.523 2.215,70.862-18.159-37.498-3.544-74.553 20.372-92.564 27.902,16.83 35.875,61.562 19.488,93.451 9.3-5.315 16.83-45.176 3.986-71.749 2.953-3.543 5.905-7.086 8.858-10.629 19.34,26.13 7.677,68.205-8.415,84.149 12.253-10.63 43.993-31.445 81.049-26.573-2.953,3.543-7.677,6.643-10.63,10.186-30.412-1.181-55.065,11.81-65.99,23.03 26.721-17.715 63.628-26.574 90.792-6.643-12.548,33.512-48.128,43.551-77.506,46.503 24.949,1.919 48.128-5.462 66.877-18.601 3.543,1.919 7.086,3.839 10.629,5.758-7.972,7.529-19.487,15.058-35.874,17.272-15.796,2.067-30.707,1.477-46.503,1.772-12.253-7.972-24.855-15.891-37.108-23.862z"/><path fill="#fff" d="m370.8,285.61-30.378,22.861-81.424-.313c1,3.281 4.113,7.474 5.95,9.395l80.798,.314 25.054-19.417 24.114,19.103h81.738c2.349-2.505 4.854-5.95 7.046-8.925l-82.834,.157-30.064-23.175z"/></g><g fill="#fff" stroke-linejoin="round"><path stroke-width="1.19" d="m324.13,364.13c23.384,11.542 73.074,10.595 95.518-.283l-95.518,.283z"/><g stroke-width="1.25"><path d="m270.36,325.38c.94,0 200.81-.157 200.81-.157-3.497,3.967-7.621,8.247-11.901,11.9l-178.63-.782c-3.353-2.325-7.813-7.75-10.28-10.961z"/><path d="m284.15,339.79 172.45,.471c-3.236,2.505-5.845,5.48-9.551,7.359l-153.3-.13c-3.539-1.902-7.169-5.133-9.601-7.7z"/></g><path stroke-width="1.312" d="m299.86,352.62 140.93-.344c-3.758,2.413-7.986,4.983-12.683,7.24h-115.56c-3.915-1.359-8.456-4.284-12.683-6.896z"/></g><g fill="#feb700" stroke-width="1.25"><path d="m205.58,128.74-10.01-6.85-9.91,7.01 3.42-11.64-9.72-7.25 12.12-.35 3.89-11.495 4.08,11.425 12.13,.15-9.6,7.41z" transform="matrix(.69272 .27121 -.27121 .69272 338.05 8.3367)"/><path d="m205.58,128.74-10.01-6.85-9.91,7.01 3.42-11.64-9.72-7.25 12.12-.35 3.89-11.495 4.08,11.425 12.13,.15-9.6,7.41z" transform="matrix(1.0053 0 0 1.0053 175.15 13.221)"/><path d="m205.58,128.74-10.01-6.85-9.91,7.01 3.42-11.64-9.72-7.25 12.12-.35 3.89-11.495 4.08,11.425 12.13,.15-9.6,7.41z" transform="matrix(.72912 -.14765 .14765 .72912 318.88 139.21)"/><path d="m205.58,128.74-10.01-6.85-9.91,7.01 3.42-11.64-9.72-7.25 12.12-.35 3.89-11.495 4.08,11.425 12.13,.15-9.6,7.41z" transform="matrix(-.69272 .27121 .27121 .69272 403.81 8.1978)"/><path d="m205.58,128.74-10.01-6.85-9.91,7.01 3.42-11.64-9.72-7.25 12.12-.35 3.89-11.495 4.08,11.425 12.13,.15-9.6,7.41z" transform="matrix(-.72912 -.14765 -.14765 .72912 420.99 138.88)"/></g></g></svg>