<svg xmlns="http://www.w3.org/2000/svg" viewBox="0 0 512 512" xmlns:xlink="http://www.w3.org/1999/xlink"><defs><path id="0" d="m205.58 128.74l-10.01-6.85-9.91 7.01 3.42-11.64-9.72-7.25 12.12-.35 3.89-11.495 4.08 11.425 12.13.15-9.6 7.41z"/><clipPath id="1"><path d="m124.02 0h496.06v496.06h-496.06z"/></clipPath></defs><g fill-rule="evenodd" clip-path="url(#1)" transform="matrix(1.0321 0 0 1.0321-128 0)"><path fill="#199d00" d="m0 0h744.09v496.06h-744.09z"/><g stroke-width="1.25"><path fill="#feffff" stroke-linejoin="round" d="m370.8 277.77c-11.663 8.12-23.864 15.299-35.527 23.419-14.615 1.034-28.788 1.181-43.846.443 0 0-31.445-5.314-39.42-19.04-.443-1.329 10.186-6.201 10.186-6.201 16.09 11.368 33.955 21.407 67.32 19.931-41.19-3.691-69.09-26.426-77.51-47.39 22.292-15.649 59.2-15.354 89.46 6.2-9.448-11.81-41.04-24.949-64.66-21.258-3.396-3.544-6.348-7.973-9.744-11.516 27.16-6.05 64.958 11.368 78.83 25.688-14.615-23.473-25.25-50.05-7.972-82.38 3.395 3.248 7.234 6.496 10.629 9.744-12.991 23.768-8.267 51.52 2.215 70.862-18.16-37.498-3.544-74.55 20.372-92.56 27.902 16.83 35.875 61.56 19.488 93.45 9.3-5.315 16.83-45.18 3.986-71.75 2.953-3.543 5.905-7.086 8.858-10.629 19.34 26.13 7.677 68.2-8.415 84.15 12.253-10.63 43.993-31.445 81.05-26.573-2.953 3.543-7.677 6.643-10.63 10.186-30.412-1.181-55.06 11.81-65.99 23.03 26.721-17.715 63.63-26.574 90.79-6.643-12.548 33.512-48.13 43.551-77.51 46.5 24.949 1.919 48.13-5.462 66.877-18.601 3.543 1.919 7.086 3.839 10.629 5.758-7.972 7.529-19.487 15.06-35.874 17.272-15.796 2.067-30.707 1.477-46.5 1.772-12.253-7.972-24.855-15.891-37.11-23.862"/><path fill="#fff" d="m370.8 285.61l-30.378 22.861-81.42-.313c1 3.281 4.113 7.474 5.95 9.395l80.8.314 25.05-19.417 24.11 19.1h81.74c2.349-2.505 4.854-5.95 7.05-8.925l-82.83.157-30.06-23.18"/></g><g fill="#fff" stroke-linejoin="round"><path stroke-width="1.19" d="m324.13 364.13c23.384 11.542 73.07 10.595 95.52-.283l-95.52.283"/><g stroke-width="1.25"><path d="m270.36 325.38c.94 0 200.81-.157 200.81-.157-3.497 3.967-7.621 8.247-11.901 11.9l-178.63-.782c-3.353-2.325-7.813-7.75-10.28-10.961"/><path d="m284.15 339.79l172.45.471c-3.236 2.505-5.845 5.48-9.551 7.359l-153.3-.13c-3.539-1.902-7.169-5.133-9.601-7.7z"/></g><path stroke-width="1.312" d="m299.86 352.62l140.93-.344c-3.758 2.413-7.986 4.983-12.683 7.24h-115.56c-3.915-1.359-8.456-4.284-12.683-6.896z"/></g><g fill="#feb700" stroke-width="1.25"><use transform="matrix(.69272.27121-.27121.69272 338.05 8.337)" xlink:href="#0"/><use transform="matrix(1.0053 0 0 1.0053 175.15 13.221)" xlink:href="#0"/><use transform="matrix(.72912-.14765.14765.72912 318.88 139.21)" xlink:href="#0"/><use transform="matrix(-.69272.27121.27121.69272 403.81 8.198)" xlink:href="#0"/><use transform="matrix(-.72912-.14765-.14765.72912 420.99 138.88)" xlink:href="#0"/></g></g></svg>