<svg xmlns="http://www.w3.org/2000/svg" viewBox="0 0 512 512" xmlns:xlink="http://www.w3.org/1999/xlink"><defs><path id="0" d="m333.07 295.87c0 8.806-11.11 15.945-24.803 15.945s-24.803-7.139-24.803-15.945c0-8.806 11.11-15.945 24.803-15.945s24.803 7.139 24.803 15.945"/><path id="1" d="m281.34 223.23h4.96l4.961 14.174 4.96-14.174h4.961l-9.921 28.347-9.921-28.347"/><path id="2" d="m322.44 290.55h3.543v21.26h-3.543z" stroke-width="1.25"/><path id="3" d="m279.92 58.47c0 6.849-.793 12.402-1.772 12.402-.978 0-1.772-5.552-1.772-12.402 0-6.849.793-12.402 1.772-12.402.978 0 1.772 5.552 1.772 12.402"/></defs><g fill-rule="evenodd"><g stroke-width="1.25" transform="scale(.68808 1.0321)"><path fill="#ce0000" d="m372.05 0h372.05v496.06h-372.05z"/><path fill="#fff" d="m0 0h372.05v496.06h-372.05z"/></g><g transform="matrix(.35005 0 0 .35003 40.728-25.527)"><path fill="#f1eeee" d="m209.06 63.779c0 7.828-7.932 14.173-17.717 14.173-9.785 0-17.717-6.346-17.717-14.173 0-7.828 7.932-14.173 17.717-14.173 9.785 0 17.717 6.346 17.717 14.173" transform="matrix(.33032 0 0 .29556 114.05 362.81)"/><g stroke-width="1.25"><g transform="matrix(6 0 0 6.0001-1027.5-2551.2)"><path fill="#c00" d="m171.26 485.43v17.717h17.717c0 2.952 2.953 5.905 5.906 5.905v17.716h17.716v-17.716c2.953 0 5.906-2.953 5.906-5.905h17.717v-17.717h-17.717c0-2.952-2.953-5.905-5.906-5.905v-17.716h-17.716v17.716c-2.953 0-5.906 2.953-5.906 5.905h-17.717"/><path fill="#ffe600" d="m171.85 486.02v16.535h17.717c0 2.952 2.952 5.906 5.905 5.906v17.716h16.536v-17.716c2.953 0 5.905-2.954 5.905-5.906h17.717v-16.535h-17.717c0-2.952-2.952-5.906-5.905-5.906v-17.716h-16.536v17.716c-2.953 0-5.905 2.954-5.905 5.906h-17.717"/></g><g transform="matrix(6 0 0 6.0001-1027.6-2551.2)"><path fill="#707070" d="m172.44 486.61v15.355h17.716c0 2.952 2.953 5.905 5.906 5.905v17.716h15.354v-17.716c2.953 0 5.906-2.953 5.906-5.905h17.716v-15.355h-17.716c0-2.952-2.953-5.905-5.906-5.905v-17.716h-15.354v17.716c-2.953 0-5.906 2.953-5.906 5.905h-17.716"/><path fill="#a0a0a0" d="m173.03 487.2v14.173h17.716c0 2.952 2.953 5.906 5.906 5.906v17.716h14.173v-17.716c2.953 0 5.906-2.954 5.906-5.906h17.716v-14.173h-17.716c0-2.952-2.953-5.905-5.906-5.905v-17.716h-14.173v17.716c-2.953 0-5.906 2.953-5.906 5.905h-17.716"/></g></g></g><g transform="matrix(.24752-.24751.24752.24751-65.69 101.06)"><use fill="#d0d0d0" transform="matrix(1.2857 0 0 1-80.99 3.543)" xlink:href="#0"/><use fill="#808080" transform="matrix(.85715 0 0 1 51.12 3.543)" xlink:href="#0"/><g fill="#d0d0d0"><use transform="matrix(.71429 0 0 .74998 100.22 123.13)" xlink:href="#1"/><path stroke-width="1.25" d="m322.44 290.55h3.543v21.26h-3.543z"/></g></g><g transform="matrix(.24752.24751-.24752.24751 127.47-55.04)"><use fill="#d0d0d0" transform="matrix(1.2857 0 0 1-80.99 3.543)" xlink:href="#0"/><use fill="#808080" transform="matrix(.85715 0 0 1 51.12 3.543)" xlink:href="#0"/><g fill="#d0d0d0"><use transform="matrix(.71429 0 0 .74998 100.22 123.13)" xlink:href="#1"/><use xlink:href="#2"/></g></g><g transform="matrix(-.24752.24751-.24752-.24751 283.59 138.11)"><use fill="#d0d0d0" transform="matrix(1.2857 0 0 1-80.99 3.543)" xlink:href="#0"/><use fill="#808080" transform="matrix(.85715 0 0 1 51.12 3.543)" xlink:href="#0"/><g fill="#d0d0d0"><use transform="matrix(.71429 0 0 .74998 100.22 123.13)" xlink:href="#1"/><use xlink:href="#2"/></g></g><g transform="matrix(-.24752-.24751.24752-.24751 90.42 294.21)"><use fill="#d0d0d0" transform="matrix(1.2857 0 0 1-80.99 3.543)" xlink:href="#0"/><use fill="#808080" transform="matrix(.85715 0 0 1 51.12 3.543)" xlink:href="#0"/><g fill="#d0d0d0"><use transform="matrix(.71429 0 0 .74998 100.22 123.13)" xlink:href="#1"/><use xlink:href="#2"/></g></g></g><g transform="matrix(.35005 0 0 .35003 40.728-25.527)"><g fill="none" stroke="#707070" stroke-width="1.25"><path d="m269.29 414.57c0 41.09-34.11 74.41-76.18 74.41s-76.18-33.31-76.18-74.41 34.11-74.41 76.18-74.41 76.18 33.31 76.18 74.41z" transform="matrix(.97674 0 0 1 6.263 0)"/><path d="m269.29 414.57c0 41.09-34.11 74.41-76.18 74.41s-76.18-33.31-76.18-74.41 34.11-74.41 76.18-74.41 76.18 33.31 76.18 74.41z" transform="matrix(.74419 0 0 .7619 51.17 98.71)"/></g><g fill-rule="evenodd"><g fill="#d0d0d0"><path d="m170.08 474.8c0 1.957-1.586 3.543-3.543 3.543s-3.543-1.586-3.543-3.543 1.586-3.543 3.543-3.543 3.543 1.586 3.543 3.543"/><path d="m170.08 474.8c0 1.957-1.586 3.543-3.543 3.543s-3.543-1.586-3.543-3.543 1.586-3.543 3.543-3.543 3.543 1.586 3.543 3.543" transform="translate(56.693)"/><path d="m318.9 315.35v7.087h-7.087c-7.087 0-7.087 7.087 0 7.087h7.087v7.086c.024 7.347 6.185 8.232 6.636.573l.45-7.659h7.087c7.086 0 7.086-7.087 0-7.087h-7.087v-7.087c0-7.086-7.086-7.086-7.086 0" transform="matrix(.66667 0 0 .52133-20.08 310.4)"/></g><g stroke-width="1.25"><g fill="#d0d0d0" stroke="#707070"><path d="m180.71 162.99v7.087s-3.362 5.423-24.803 7.086-24.803 0-24.803 0c.559 6.181 4.732 17.896 3.543 31.89.835 16.291-4.103 31.04-4.103 31.04.56.848-2.02 1.279-6.527.848 3.543-3.544 3.134-13.795 3.543-28.347.409-14.553-13.527-36.456-10.63-42.519s63.78-7.087 63.78-7.087z" transform="matrix(.33032 0 0 .29556 117.56 374.28)"/><path d="m272.84 162.26c20.858-1.077 55.859-.843 55.859-.843s8.253 18.502 7.91 28.723-3.181 18.919-7.08 14.57 1.805-3.531 2.498-14.57c.692-11.04-6.661-22.479-6.661-22.479s-14.962 7.302-37.466 5.828c-22.503-1.474-12.541-10.791-15.06-11.229z" transform="matrix(.33032 0 0 .29556 115.22 366.9)"/><path d="m312.21 273.91c20.858-1.077 34.551 2.498 34.551 2.498s8.253 18.502 7.91 28.723-3.181 18.919-7.08 14.57 1.805-3.531 2.498-14.57c.692-11.04-6.661-22.479-6.661-22.479s-14.962 7.302-37.466 5.828c-22.503-1.474-16.08-2.975-18.606-3.413s-3.131 6.958-37.18 7.992c-34.04 1.033-51.41-7.992-51.41-7.992s-3.362 5.423-24.803 7.086-24.803 0-24.803 0c.559 6.181 4.732 17.896 3.543 31.89.835 16.291-4.103 31.04-4.103 31.04.56.848-2.02 1.279-6.527.848 3.543-3.544 3.134-13.795 3.543-28.347.409-14.553-13.527-36.456-10.63-42.519s18.333-.395 21.26-3.544c2.926-3.149-13.749-25.333-10.63-46.06 3.12-20.731 20.792-14.886 42.52-14.173 21.727.712 69.865 7 81.5 0 11.632-7 6.598-32.929 17.717-49.606 7.086-10.63 17.716-14.173 28.346-14.173 7.087 0 17.717 28.346 17.717 35.433l-3.544 3.543h-3.543v3.543c-8.09.907-9.216-7.732-14.173-14.173-2.13 9.984 7.086 42.52 7.086 63.78 0 17.716-6.622 25.525-7.04 24.276z" transform="matrix(.33032 0 0 .29556 104.56 339.3)"/><path d="m209.06 131.1c.294 7.06-27.384 22.895-29.637 29.16s7.04 9.744 4.163 13.321c-2.872 3.578-5.24 2.251-5.828 2.914-.588.664-10.407-24.56-10.407-24.56s25.961-13.08 24.977-18.733-19.17-9.09-22.479-23.312c-3.309-14.227-1.474-41.71-4.163-47.46-2.689-5.747-34.552-11.23-34.579-19.92-.027-8.69 32.75-32.541 36.29-36.09 3.543-3.543 7.087 3.543 3.543 7.087-3.543 3.543-29.21 25.455-29.21 28.998 0 3.543 21.26 7.087 28.347 7.087 7.086 0 10.63-3.543 10.63-7.087.042-3.066-7.087-3.543-7.087-10.63 0-7.087 3.543-10.63 10.63-10.63 3.543 0 10.356 4.537 10.63 10.63.274 6.093-6.305 6.609-7.087 10.63-.781 4.02 7.087 7.087 14.173 7.087 7.087 0 31.28 20.608 34.825 24.15 3.544 3.543 7.087 3.543 3.544 7.087-3.543 3.543-1.468 7.738-5.01 4.195-3.02-3.423-3.543-7.087-3.543-7.087-.306-3.22-26.27-17.716-29.814-14.173-3.543 3.543 0 46.06 0 49.606 0 7.086 7.381 7.06 7.087 17.716z" transform="matrix(.33032 0 0 .29556 116.1 372.43)"/></g><path fill="#a7a7a7" d="m170.23 386.9h14.04v14.662h-14.04z"/><path fill="#808080" d="m406.88 64.58h85.01a1.2699 .5697 0 0 1 1.27 .5697 1.2699 .5697 0 0 1 -1.27 .5697h-85.01a1.2699 .5697 0 0 1 -1.27 -.5697 1.2699 .5697 0 0 1 1.27 -.5697" transform="matrix(.5544.83225-.88236.47057 0 0)"/><path fill="#d0d0d0" stroke="#707070" d="m180.71 42.52c0 3.914-3.173 7.087-7.087 7.087s-7.087-3.173-7.087-7.087 3.173-7.087 7.087-7.087 7.087 3.173 7.087 7.087z" transform="matrix(.33032 0 0 .29556 114.05 362.81)"/><path fill="#808080" d="m354.33 49.606c0 4.89-27.965 10.63-60.24 10.63s-60.24-5.74-60.24-10.63c0-4.89 27.964 7.087 60.24 7.087s60.24-11.976 60.24-7.087" transform="matrix(.19431 0 0 .17745 145.85 385.64)"/><path fill="#a7a7a7" d="m171.4 401.56h11.704v4.189h-11.704z"/></g><g fill="#808080"><use transform="matrix(.19766.26014-.16568.31035 163.81 300.28)" xlink:href="#3"/><use transform="matrix(.0371.23343-.18868.16554 213.08 321.72)" xlink:href="#3"/><use transform="matrix(.18217-.07773.13913.25309 151.8 401.05)" xlink:href="#3"/><path d="m290.55 136.42c0 .978-10.312 1.772-23.03 1.772s-23.03-.793-23.03-1.772c0-.978 10.312-1.772 23.03-1.772 12.72 0 23.03.793 23.03 1.772" transform="matrix(.35573 0 0 .29556 106.66 362.81)"/><path d="m209.06 132.87c0 .978-7.932 1.772-17.717 1.772-9.785 0-17.717-.793-17.717-1.772 0-.978 7.932-1.772 17.717-1.772 9.785 0 17.717.793 17.717 1.772" transform="matrix(.33032 0 0 .29556 114.05 362.81)"/></g><path fill="#d0d0d0" stroke="#808080" stroke-width="1.25" d="m375.49 171.92s8.938 36.13 47.04 36.633 51.21-10.838 35.8-29.972-44.08-13.182-40.38 3.33-10.752 22.02-14.15 10.407c-3.401-11.611-17.05-45.99 7.493-48.29 24.539-2.299 76.51-14.817 89.5 9.159 12.991 23.975-14.675 45.707 6.244 50.786 20.92 5.079 23.893-5.809 59.896-9.09 36-3.286 49.742 11.1 62.08 9.09 12.334-2.01 10.59-37.26.832-46.21-9.758-8.95-28.5-10.586-33.3-20.398-4.802-9.812-17.87-1.825-16.651-12.905s18.53 7.625 18.733 1.966c.006-.177 2.858-3.93 3.434-4.878-2.178-.828-3.421.512-5.056 1.948 1.775-2.36 1.665-3.448 2.26-5.378-.31-.727-2.461 2.734-2.825 2.01s2.505-5.632 1.206-3.852c-.45.513-3.872 3.329-3.91 1.389.058-.787 1.789-2.813 1.177-3.912-.493-.914-3.093 1.064-3.428 1.29 1.487-3.309 1.382-3.269-.048-5.721-1.249-2.452-2.16-2.395-4.2.374.849-3.979 1.08-4.821-.969-6.329-1.685-1.521-1.76-2.956-3.856 4.162.798-7.618-1.343-7.95-.454-11.562.529-3.312 3.323-4.709 7.927-3.978 8.945.13 13.728 17.954 16.651 17.9 2.924-.054 6.196-18.882 18.733-11.24 12.537 7.643 14.09 9.202 20.398 13.738 6.313 4.535-4.435 11.457-.833 20.398 3.602 8.94 28.23 38.804 21.23 69.935-6.999 31.13-25.03 36.06-26.642 49.54-1.617 13.483 57.07 7.951 72.02 12.489 14.949 4.537 24.375 23.11 24.977 26.23s-26.23 2.914-26.23 2.914-13.776-11.837-46.624-12.904c-32.847-1.068-45.36-23.11-57.651-25.871s-38.501 4.63-53.15 3.543c-14.649-1.087-29.488-4.943-38.976-7.086-9.489-2.142-56.693 35.433-56.53 44.18-9.84-.621-33.01-2.709-32.05-1.665.955 1.043 4.152-17.04 22.21-20.22 18.06-3.179 35.645-17.573 35.06-27.03-.583-9.451 3.487-41.876 4.995-55.782s8.27-20.616 6.661-27.891c-1.609-7.274-22.244-14.778-42.05-14.57-19.801.209-41.77 2.057-44.959 9.991-3.188 7.934-.781 30.964 3.331 28.31 4.111-2.657-.994-17.712 3.33-20.815 4.324-3.102 15.405-5.843 25.809-6.244 10.405-.401 28.494 14.729 28.31 19.565-.186 4.837 5.821 20.934-2.498 27.06-8.318 6.124-25.332 8.862-41.628 7.493-16.297-1.369-32.786-10.674-38.715-16.651-5.928-5.977-9.574-24.15-9.574-25.394z" transform="matrix(.21598 0 0 .12989 76.27 416.17)"/><path d="m205.51 434.06c0 .978-.793 1.772-1.772 1.772-.978 0-1.772-.793-1.772-1.772 0-.978.793-1.772 1.772-1.772.978 0 1.772.793 1.772 1.772" transform="matrix(.53006 0 0 .53007 100.54 201.47)"/></g><g fill="#d0d0d0" stroke-width="1.25"><path d="m187.24 167.99v-3.639l-3.31-4.951h1.383l1.693 2.59c.312.484.603.969.873 1.453.258-.449.57-.955.938-1.517l1.664-2.526h1.324l-3.428 4.951v3.639h-1.137" transform="matrix(-.42644 1.9779-1.2525-.27003 543.87 92.99)"/><path d="m171.01 167.99v-7.576h-2.83v-1.014h6.808v1.014h-2.841v7.576h-1.137" transform="matrix(.84644 1.8378-1.1637.536 296.6-19.872)"/><path d="m160.14 167.99v-8.59h1.166l4.511 6.744v-6.744h1.09v8.59h-1.166l-4.512-6.75v6.75h-1.089" transform="matrix(1.3664 1.4922-.94493.86528 172.12-16.482)"/><path d="m145.43 167.99v-8.59h1.136v7.576h4.231v1.014h-5.367" transform="matrix(2.0085.24467-.15493 1.2718-69.34 104.28)"/><path d="m138.76 167.99v-8.59h1.137v7.576h4.23v1.014h-5.367" transform="matrix(1.9907-.36212.22931 1.2606-135.47 193.57)"/><path d="m125.48 164.62v-1.01l3.639-.006v3.188c-.559.445-1.135.781-1.728 1.01-.594.222-1.204.334-1.829.334-.843 0-1.611-.18-2.302-.539-.688-.364-1.207-.887-1.559-1.571-.351-.683-.527-1.447-.527-2.291 0-.836.174-1.615.521-2.338.352-.726.856-1.265 1.512-1.617.656-.351 1.412-.527 2.268-.527.621 0 1.181.101 1.681.304.504.2.899.479 1.184.838.285.36.502.828.65 1.407l-1.025.281c-.129-.438-.289-.781-.481-1.031-.191-.25-.465-.45-.82-.598-.355-.152-.75-.229-1.184-.229-.519 0-.968.081-1.347.241-.379.156-.686.363-.92.621-.231.258-.41.541-.539.849-.219.532-.328 1.108-.328 1.729 0 .766.13 1.406.392 1.922.266.515.651.898 1.154 1.148.504.25 1.04.375 1.606.375.492 0 .973-.094 1.441-.281.469-.191.825-.395 1.067-.609v-1.6h-2.526" transform="matrix(1.5794-1.2646.80082 1.0001-182.99 365.04)"/><path d="m92.86 167.99v-8.59h5.795v1.014h-4.658v2.66h4.03v1.014h-4.03v3.902h-1.137" transform="matrix(-1.1715-1.6497 1.0447-.74182 79.96 727.93)"/><path d="m112.11 187.63c0 6.42.658 11.488 1.978 15.191 1.328 3.685 2.99 5.527 4.987 5.527 2.032 0 3.703-1.867 5.01-5.595 1.319-3.734 1.978-9.03 1.978-15.886 0-4.336-.283-8.12-.849-11.339-.558-3.25-1.379-5.756-2.465-7.524-1.079-1.793-2.289-2.692-3.637-2.692-1.911 0-3.561 1.724-4.944 5.161-1.374 3.417-2.061 9.137-2.061 17.16m-2.785-.105c0-8.846.909-15.768 2.73-20.756 1.819-5.02 4.17-7.524 7.05-7.524 1.885 0 3.585 1.172 5.099 3.523s2.664 5.633 3.454 9.851c.798 4.193 1.198 8.957 1.198 14.285 0 5.403-.419 10.235-1.253 14.503-.837 4.262-2.02 7.5-3.551 9.702-1.534 2.183-3.186 3.275-4.959 3.275-1.923 0-3.642-1.216-5.153-3.635-1.515-2.425-2.663-5.732-3.442-9.925-.78-4.193-1.169-8.628-1.169-13.299" transform="matrix(-.23122-.81918.19878-.05611 122.07 538.17)"/><path d="m132.37 213.47v-53.28h9.05c1.821 0 3.204.484 4.15 1.458.949.942 1.705 2.623 2.27 5.05.566 2.425.851 5.099.851 8.03 0 3.777-.47 6.966-1.407 9.559-.939 2.593-2.387 4.243-4.345 4.944.713.893 1.257 1.78 1.628 2.654.789 1.886 1.538 4.25 2.244 7.084l3.551 14.503h-3.399l-2.703-11.09c-.789-3.201-1.438-5.645-1.949-7.344-.511-1.694-.97-2.878-1.378-3.561-.4-.676-.809-1.147-1.227-1.414-.307-.174-.808-.254-1.502-.254h-3.136v23.658h-2.702m2.702-29.768h5.81c1.234 0 2.199-.323 2.895-.98.697-.677 1.227-1.744 1.588-3.201.364-1.477.544-3.077.544-4.795 0-2.519-.354-4.59-1.06-6.216-.696-1.625-1.799-2.437-3.313-2.437h-6.464v17.629" transform="matrix(.0192-.85097.2065.00466 88.37 527.4)"/><path d="m180.8 213.47l7.842-53.28h2.912l8.357 53.28h-3.078l-2.382-16.13h-8.538l-2.242 16.13h-2.871m5.892-21.878h6.922l-2.129-14.757c-.652-4.485-1.134-8.17-1.45-11.05-.259 3.412-.626 6.805-1.101 10.173l-2.242 15.632" transform="matrix(.73036-.43714.10608.17723 4.774 406.1)"/><path d="m231.56 213.47l7.842-53.28h2.909l8.358 53.28h-3.078l-2.382-16.13h-8.538l-2.242 16.13h-2.869m5.893-21.878h6.922l-2.132-14.757c-.649-4.485-1.132-8.17-1.448-11.05-.262 3.412-.628 6.805-1.101 10.173l-2.241 15.632" transform="matrix(.68796.50123-.12163.16694 81.27 203.3)"/><path d="m290.89 213.47v-53.28h9.05c1.819 0 3.202.484 4.151 1.458.946.942 1.702 2.623 2.27 5.05.566 2.425.849 5.099.849 8.03 0 3.777-.469 6.966-1.408 9.559-.936 2.593-2.386 4.243-4.345 4.944.715.893 1.26 1.78 1.631 2.654.789 1.886 1.535 4.25 2.241 7.084l3.552 14.503h-3.397l-2.703-11.09c-.789-3.201-1.44-5.645-1.949-7.344-.511-1.694-.972-2.878-1.381-3.561-.397-.676-.806-1.147-1.224-1.414-.307-.174-.809-.254-1.505-.254h-3.133v23.658h-2.703m2.703-29.768h5.807c1.236 0 2.201-.323 2.898-.98.696-.677 1.224-1.744 1.588-3.201.361-1.477.542-3.077.542-4.795 0-2.519-.352-4.59-1.058-6.216-.697-1.625-1.802-2.437-3.316-2.437h-6.461v17.629" transform="matrix(.19808.82782-.20088.04807 236.01 144.21)"/></g></g></svg>