<svg xmlns="http://www.w3.org/2000/svg" viewBox="0 0 512 512"><defs><clipPath id="clipPath6009" clipPathUnits="userSpaceOnUse"><path fill-opacity=".67" d="m179.71,0h708.66v708.66h-708.66z"/></clipPath></defs><g fill-rule="evenodd" stroke-width="1.25" clip-path="url(#clipPath6009)" transform="matrix(.72249 0 0 .72249 -129.84 -0)"><path fill="#f41408" d="m0,0h1063v708.66h-1063z"/><path fill="#21873b" d="m0,472.44h1063v236.22h-1063z" transform="translate(0 .00028)"/><path d="m0,0h1063v236.22h-1063z"/><g fill="#f31509"><path d="m259.71,214.67c61.43-149.6 232.71-221.16 382.31-159.73 75.34,30.936 128.71,84.28 159.68,159.62l-541.99,.112z" transform="matrix(.50262 0 0 .50262 270.88 106.14)"/><path d="m537.98,92.591c-5.966-31.997-7.592-67.247-7.05-73.212 .542-5.9654 3.796-7.0501 6.507-7.0501 2.712,0 6.508,2.7116 6.508,7.05 0,8.1348 .001,41.216-5.965,73.213z" transform="matrix(.25573 -.96675 .96675 .25573 138.38 720.17)"/><path d="m537.98,92.591c-5.966-31.997-7.592-67.247-7.05-73.212 .542-5.9654 3.796-7.0501 6.507-7.0501 2.712,0 6.508,2.7116 6.508,7.05 0,8.1348 .001,41.216-5.965,73.213z" transform="matrix(.99999 .00442 -.00442 .99999 .41417 -2.3438)"/><path d="m537.98,92.591c-5.966-31.997-7.592-67.247-7.05-73.212 .542-5.9654 3.796-7.0501 6.507-7.0501 2.712,0 6.508,2.7116 6.508,7.05 0,8.1348 .001,41.216-5.965,73.213z" transform="matrix(.99593 .09008 -.09008 .99593 26.501 -47.312)"/><path d="m537.98,92.591c-5.966-31.997-7.592-67.247-7.05-73.212 .542-5.9654 3.796-7.0501 6.507-7.0501 2.712,0 6.508,2.7116 6.508,7.05 0,8.1348 .001,41.216-5.965,73.213z" transform="matrix(.98514 .17173 -.17173 .98514 54.338 -88.274)"/><path d="m537.98,92.591c-5.966-31.997-7.592-67.247-7.05-73.212 .542-5.9654 3.796-7.0501 6.507-7.0501 2.712,0 6.508,2.7116 6.508,7.05 0,8.1348 .001,41.216-5.965,73.213z" transform="matrix(.96622 .25773 -.25773 .96622 87.724 -129.38)"/><path d="m537.98,92.591c-5.966-31.997-7.592-67.247-7.05-73.212 .542-5.9654 3.796-7.0501 6.507-7.0501 2.712,0 6.508,2.7116 6.508,7.05 0,8.1348 .001,41.216-5.965,73.213z" transform="matrix(.93952 .34248 -.34248 .93952 124.94 -167.72)"/><path d="m537.98,92.591c-5.966-31.997-7.592-67.247-7.05-73.212 .542-5.9654 3.796-7.0501 6.507-7.0501 2.712,0 6.508,2.7116 6.508,7.05 0,8.1348 .001,41.216-5.965,73.213z" transform="matrix(.9068 .42155 -.42155 .9068 163.87 -201.38)"/><path d="m537.98,92.591c-5.966-31.997-7.592-67.247-7.05-73.212 .542-5.9654 3.796-7.0501 6.507-7.0501 2.712,0 6.508,2.7116 6.508,7.05 0,8.1348 .001,41.216-5.965,73.213z" transform="matrix(.86641 .49933 -.49933 .86641 206.57 -232.27)"/><path d="m537.98,92.591c-5.966-31.997-7.592-67.247-7.05-73.212 .542-5.9654 3.796-7.0501 6.507-7.0501 2.712,0 6.508,2.7116 6.508,7.05 0,8.1348 .001,41.216-5.965,73.213z" transform="matrix(.8196 .57294 -.57294 .8196 251.6 -259.19)"/><path d="m537.98,92.591c-5.966-31.997-7.592-67.247-7.05-73.212 .542-5.9654 3.796-7.0501 6.507-7.0501 2.712,0 6.508,2.7116 6.508,7.05 0,8.1348 .001,41.216-5.965,73.213z" transform="matrix(.76646 .64229 -.64229 .76646 298.87 -282.12)"/><path d="m537.98,92.591c-5.966-31.997-7.592-67.247-7.05-73.212 .542-5.9654 3.796-7.0501 6.507-7.0501 2.712,0 6.508,2.7116 6.508,7.05 0,8.1348 .001,41.216-5.965,73.213z" transform="matrix(.70734 .70687 -.70687 .70734 348.08 -300.87)"/><path d="m537.98,92.591c-5.966-31.997-7.592-67.247-7.05-73.212 .542-5.9654 3.796-7.0501 6.507-7.0501 2.712,0 6.508,2.7116 6.508,7.05 0,8.1348 .001,41.216-5.965,73.213z" transform="matrix(.6426 .7662 -.7662 .6426 398.88 -315.27)"/><path d="m537.98,92.591c-5.966-31.997-7.592-67.247-7.05-73.212 .542-5.9654 3.796-7.0501 6.507-7.0501 2.712,0 6.508,2.7116 6.508,7.05 0,8.1348 .001,41.216-5.965,73.213z" transform="matrix(.5762 .81731 -.81731 .5762 448.36 -324.81)"/><path d="m537.98,92.591c-5.966-31.997-7.592-67.247-7.05-73.212 .542-5.9654 3.796-7.0501 6.507-7.0501 2.712,0 6.508,2.7116 6.508,7.05 0,8.1348 .001,41.216-5.965,73.213z" transform="matrix(.50416 .86361 -.86361 .50416 499.57 -330.25)"/><path d="m537.98,92.591c-5.966-31.997-7.592-67.247-7.05-73.212 .542-5.9654 3.796-7.0501 6.507-7.0501 2.712,0 6.508,2.7116 6.508,7.05 0,8.1348 .001,41.216-5.965,73.213z" transform="matrix(.42204 .90658 -.90658 .42204 555.3 -331.17)"/><path d="m537.98,92.591c-5.966-31.997-7.592-67.247-7.05-73.212 .542-5.9654 3.796-7.0501 6.507-7.0501 2.712,0 6.508,2.7116 6.508,7.05 0,8.1348 .001,41.216-5.965,73.213z" transform="matrix(.34272 .93944 -.93944 .34272 606.79 -327.42)"/><path d="m537.98,92.591c-5.966-31.997-7.592-67.247-7.05-73.212 .542-5.9654 3.796-7.0501 6.507-7.0501 2.712,0 6.508,2.7116 6.508,7.05 0,8.1348 .001,41.216-5.965,73.213z" transform="matrix(.25861 .96598 -.96598 .25861 659.16 -318.98)"/><path d="m537.98,92.591c-5.966-31.997-7.592-67.247-7.05-73.212 .542-5.9654 3.796-7.0501 6.507-7.0501 2.712,0 6.508,2.7116 6.508,7.05 0,8.1348 .001,41.216-5.965,73.213z" transform="matrix(.99611 -.08809 .08809 .99611 -21.69 48.389)"/><path d="m537.98,92.591c-5.966-31.997-7.592-67.247-7.05-73.212 .542-5.9654 3.796-7.0501 6.507-7.0501 2.712,0 6.508,2.7116 6.508,7.05 0,8.1348 .001,41.216-5.965,73.213z" transform="matrix(.98462 -.17471 .17471 .98462 -38.894 98.036)"/><path d="m537.98,92.591c-5.966-31.997-7.592-67.247-7.05-73.212 .542-5.9654 3.796-7.0501 6.507-7.0501 2.712,0 6.508,2.7116 6.508,7.05 0,8.1348 .001,41.216-5.965,73.213z" transform="matrix(.9654 -.26078 .26078 .9654 -51.798 149.48)"/><path d="m537.98,92.591c-5.966-31.997-7.592-67.247-7.05-73.212 .542-5.9654 3.796-7.0501 6.507-7.0501 2.712,0 6.508,2.7116 6.508,7.05 0,8.1348 .001,41.216-5.965,73.213z" transform="matrix(.93977 -.34181 .34181 .93977 -59.897 199.94)"/><path d="m537.98,92.591c-5.966-31.997-7.592-67.247-7.05-73.212 .542-5.9654 3.796-7.0501 6.507-7.0501 2.712,0 6.508,2.7116 6.508,7.05 0,8.1348 .001,41.216-5.965,73.213z" transform="matrix(.90704 -.42105 .42105 .90704 -63.697 251.36)"/><path d="m537.98,92.591c-5.966-31.997-7.592-67.247-7.05-73.212 .542-5.9654 3.796-7.0501 6.507-7.0501 2.712,0 6.508,2.7116 6.508,7.05 0,8.1348 .001,41.216-5.965,73.213z" transform="matrix(.86543 -.50104 .50104 .86543 -62.926 305.58)"/><path d="m537.98,92.591c-5.966-31.997-7.592-67.247-7.05-73.212 .542-5.9654 3.796-7.0501 6.507-7.0501 2.712,0 6.508,2.7116 6.508,7.05 0,8.1348 .001,41.216-5.965,73.213z" transform="matrix(.81895 -.57387 .57387 .81895 -57.608 357.26)"/><path d="m537.98,92.591c-5.966-31.997-7.592-67.247-7.05-73.212 .542-5.9654 3.796-7.0501 6.507-7.0501 2.712,0 6.508,2.7116 6.508,7.05 0,8.1348 .001,41.216-5.965,73.213z" transform="matrix(.76699 -.64166 .64166 .76699 -48.051 407.66)"/><path d="m537.98,92.591c-5.966-31.997-7.592-67.247-7.05-73.212 .542-5.9654 3.796-7.0501 6.507-7.0501 2.712,0 6.508,2.7116 6.508,7.05 0,8.1348 .001,41.216-5.965,73.213z" transform="matrix(.70672 -.70749 .70749 .70672 -33.508 459.26)"/><path d="m537.98,92.591c-5.966-31.997-7.592-67.247-7.05-73.212 .542-5.9654 3.796-7.0501 6.507-7.0501 2.712,0 6.508,2.7116 6.508,7.05 0,8.1348 .001,41.216-5.965,73.213z" transform="matrix(.64494 -.76423 .76423 .64494 -15.696 506.38)"/><path d="m537.98,92.591c-5.966-31.997-7.592-67.247-7.05-73.212 .542-5.9654 3.796-7.0501 6.507-7.0501 2.712,0 6.508,2.7116 6.508,7.05 0,8.1348 .001,41.216-5.965,73.213z" transform="matrix(.57445 -.81854 .81854 .57445 7.4468 554.56)"/><path d="m537.98,92.591c-5.966-31.997-7.592-67.247-7.05-73.212 .542-5.9654 3.796-7.0501 6.507-7.0501 2.712,0 6.508,2.7116 6.508,7.05 0,8.1348 .001,41.216-5.965,73.213z" transform="matrix(.49823 -.86705 .86705 .49823 35.23 601.18)"/><path d="m537.98,92.591c-5.966-31.997-7.592-67.247-7.05-73.212 .542-5.9654 3.796-7.0501 6.507-7.0501 2.712,0 6.508,2.7116 6.508,7.05 0,8.1348 .001,41.216-5.965,73.213z" transform="matrix(.42077 -.90717 .90717 .42077 65.94 643.62)"/><path d="m537.98,92.591c-5.966-31.997-7.592-67.247-7.05-73.212 .542-5.9654 3.796-7.0501 6.507-7.0501 2.712,0 6.508,2.7116 6.508,7.05 0,8.1348 .001,41.216-5.965,73.213z" transform="matrix(.34326 -.93924 .93924 .34326 98.857 681.77)"/><path d="m537.98,92.591c-5.966-31.997-7.592-67.247-7.05-73.212 .542-5.9654 3.796-7.0501 6.507-7.0501 2.712,0 6.508,2.7116 6.508,7.05 0,8.1348 .001,41.216-5.965,73.213z" transform="matrix(.25573 -.96675 .96675 .25573 138.38 720.17)"/></g><path d="m275.33,214.74h527.66v19.174h-527.66z"/></g></svg>