<svg xmlns="http://www.w3.org/2000/svg" viewBox="0 0 512 512"><g fill-rule="evenodd" stroke-width="1.25"><g transform="matrix(.50098 0 0 1.0013 0 15.301)"><path fill="#e80008" d="m0-15.281h1022v511.34h-1022z"/><path fill="#fff" d="m0,21.244h1022v36.525h-1022z"/><path fill="#fff" d="m0,94.293h1022v36.525h-1022z"/><path fill="#fff" d="m0,167.34h1022v36.525h-1022z"/><path fill="#fff" d="m0,240.39h1022v36.525h-1022z"/><path fill="#fff" d="m0,313.44h1022v36.525h-1022z"/><path fill="#fff" d="m0,386.49h1022v36.525h-1022z"/><path fill="#fff" d="m0,459.54h1022v36.525h-1022z"/></g><g transform="matrix(.51574 0 0 .51574 -.96191 7.5535)"><path fill="#000689" d="m0-15.937h507.72v292.81h-507.72z"/></g><g fill="#fe0" transform="matrix(.51574 0 0 .51574 -.96191 7.5535)"><path d="m257.76,232.94c-54.627,30.397-122.92,9.8571-152.44-45.2-29.517-55.058-9.1377-123.89 45.49-153.64 33.777-18.395 70.875-18.76 104.58-.6666-19.02-4.578-36.004-4.3319-54.459,1.1505-53.759,15.97-84.662,73.362-68.979,128.11 15.683,54.745 72.042,86.214 125.8,70.244z"/><path d="m240.04,122.22 67.02,40-22.48-74.738 43.02,65.118 12.18-77.093 10.5,77.343 44.42-64.184-24.09,74.244 67.87-38.56-53.92,56.44 77.88-5.29-73.07,27.46 72.46,29.02-77.74-6.96 52.69,57.58-67.02-40 22.48,74.74-43.02-65.12-12.18,77.09-10.5-77.34-44.42,64.19 24.09-74.25-67.87,38.56 53.92-56.44-77.88,5.29 73.07-27.46-72.46-29.02 77.74,6.96z" transform="matrix(.84992 0 0 .84992 34.931 -42.019)"/></g></g></svg>