<svg xmlns="http://www.w3.org/2000/svg" viewBox="0 0 512 512"><defs><clipPath id="clipPath4451" clipPathUnits="userSpaceOnUse"><path fill-opacity=".67" d="m0-.0001h496.06v496.0601h-496.06z"/></clipPath></defs><g clip-path="url(#clipPath4451)" transform="matrix(1.0321 0 0 1.0321 0 .00008)"><g stroke-width="1.25"><g fill-rule="evenodd"><path fill="#009a00" d="m0-0h744.09v155.02h-744.09z"/><path fill="#fff" d="M 0,154.98 H744.09 V170.5 H0 z"/><path d="M 0,170.5 H744.09 V325.52 H0 z"/><path fill="#fff" d="m0,325.52h744.09v15.52h-744.09z"/><path fill="#ffca00" d="M 0,341.04 H744.09 V496.06 H0 z"/><path fill="#f00" d="m0-.0001v496.06l325.56-248.03-325.56-248.03z"/></g><g transform="matrix(.85471 0 0 .85471 33.727 138.34)"><path fill="#ffca00" fill-rule="evenodd" d="m189.55,214.57-60.76-42.57-58.86,45.07 21.713-70.94-61.055-42.05 74.182-1.27 21.12-71.06 24.13,70.16 74.11-1.88-59.27,44.63z" transform="matrix(.96989 .02019 -.02019 .96989 6.077 3.6535)"/><g stroke="#000"><g stroke-linejoin="round" stroke-linecap="round"><path fill="#fff" fill-rule="evenodd" d="m77.112,167.91h41.834c3.366,3.776 10.876,5.316 18.029-.045 13.112-7.18 38.479,.045 38.479,.045l4.995-5.307-12.176-39.961-4.371-4.683s-9.365-5.619-27.161-3.746c-17.795,1.873-24.039-.624-24.039-.624s-15.609,1.873-19.98,4.058c-.4805,.389-4.9951,4.995-4.9951,4.995l-10.615,45.268z"/><path fill="none" d="m85.542,157.61s39.96-4.995 51.512,10.302c-6.524,4.464-12.268,4.832-18.42,.313 .98-1.633 14.361-15.61 48.39-10.927"/></g><g fill="none"><path d="m128.31,117.65-.31,44.02"/><path d="m163.9,118.27 7.493,34.966"/></g><g stroke-linejoin="round" stroke-linecap="round"><path fill="none" d="m93.134,117.72-4.1583,18.032"/><path fill-rule="evenodd" d="m49.942,172.71 9.8382,11.535c1.1553,.689 2.1815,.645 3.2077,0l14.58-17.496 6.1238-7.582c.9482-1.123 1.2509-2.376 1.1664-3.499l11.707-10.403c.9577,.066 1.5281,.174 2.4858,.239-1.1315-.293-1.9617-.844-1.0708-2.084l2.6243-2.041 2.041,2.624s-2.9156,3.791-3.2072,3.791h-3.2077l-6.1238,5.541 2.677,2.366 4.03,11.048 4.9577-3.5-3.2081-11.372 6.9991-7.582-2.625-4.083 1.75-2.333s24.222,15.25 33.554,11.168c.252,.091 .564-10.876 .564-10.876s-25.078-2.624-25.662-7.582c-.583-4.957 5.541-5.54 5.541-5.54l-2.625-3.791 .584-2.042 4.374,5.541 9.915-8.457 58.321,66.487c3.184-1.291 3.864-2.07 4.083-5.249-.082-.08-57.155-65.612-57.155-65.612l4.374-4.665c.862-.972 1.165-1.385 1.166-2.917l6.707-5.8318c2.017,.6929 3.303,1.9018 4.374,3.4988l18.439-15.627c.486,.486 1.962,.972 2.964,.4254l30.48-29.264-33.22,23.468-1.17-.875c0-.9721 1.205-1.2125 0-2.9161-1.291-1.5491-3.208,1.4581-3.499,1.4581-.292,0-4.809-1.5964-5.799-3.6188l-.325,5.3684-8.457,7.8735-6.415-.2916-9.332,9.0398-1.166,3.4989 1.458,2.917s-4.958,4.374-4.958,4.082c0-.291-1.002-1.289-1.045-1.418l4.253-3.831 .583-2.6243-1.419-2.2158c-.43,.3125-5.871,6.0071-6.163,5.4231-.49-.54-15.75-17.786-15.75-17.786l.874-3.2077-9.914-10.79c-3.6145-1.2479-9.3318-1.458-10.498,6.4154-.9083,1.8493-8.4567,.2916-8.4567,.2916l-4.0825,.8749-23.037,32.66 12.831,15.455 26.245-33.243 .7791-9.4176 5.5068,6.1573c1.836,.2359 3.585,.2566 5.249-.5832l15.549,17.356-2.589,2.526c.875,.972 1.477,1.593 2.352,2.565 .875-.583 1.71-1.283 2.585-1.867 .292,.39 .778,1.129 1.07,1.518-1.303,.709-2.217,1.653-3.52,2.362-2.085-1.359-4.098-3.051-3.945-5.744l-8.748,7.29-.292,1.458-25.953,21.579-2.3329,.292-.5832,6.707 16.913-13.997v-2.042l1.7497,1.458 13.122-10.497s.875,1.166 .584,1.166c-.292,0-11.665,10.498-11.665,10.498l-.291,1.166-2.0416,1.75-1.1665-.875-15.747,13.997h-2.3328l-8.7483,8.749c-2.2564,.196-4.2116,.435-6.1238,1.749l-15.67,13.835z"/></g></g></g></g></g></svg>