<svg xmlns="http://www.w3.org/2000/svg" viewBox="0 0 512 512"><defs><clipPath id="0"><path d="m0 0h512v512h-512z"/></clipPath></defs><g fill-rule="evenodd" clip-path="url(#0)"><path fill="#fff" d="m0 0h512v512h-512z"/><g transform="translate(-102.4)"><path fill="#3662a2" d="m-5.838.239l.856 368.58 573.98-368.82-574.84.239z"/><path fill="#38a100" d="m733.09 511.53l-1.347-383.25-578.98 383.54 580.33-.283z"/><path fill="#c70000" d="m-5.468 396.61l.487 115.39 125.25-.16 611.76-410.14-.69-100.32-123.76-1.141-613.05 396.37z"/></g><g><path fill="#ffe700" stroke-width="1.25" d="m223.81 249.35l-37.97-20.97-19.94 38.52-22.39-37.15-36.53 23.4-.82-43.37-43.34 1.99 20.975-37.97-38.524-19.94 37.15-22.39-23.393-36.533 43.37-.82-1.99-43.33 37.97 20.974 19.94-38.524 22.39 37.15 36.53-23.394.82 43.37 43.33-1.995-20.97 37.973 38.52 19.94-37.15 22.39 23.4 36.53-43.37.82z" transform="matrix(.62436.0238-.025.6244 20.58 22.369)"/><path fill="#3662a2" d="m239.52 185.41c0 31.29-25.365 56.654-56.654 56.654s-56.654-25.365-56.654-56.654 25.365-56.654 56.654-56.654 56.654 25.365 56.654 56.654" transform="matrix(.87763 0 0 .87083-42.44-41.528)"/><path fill="#ffe700" d="m239.52 185.41c0 31.29-25.365 56.654-56.654 56.654s-56.654-25.365-56.654-56.654 25.365-56.654 56.654-56.654 56.654 25.365 56.654 56.654" transform="matrix(.68714 0 0 .68714-7.608-7.47)"/></g></g></svg>