<svg xmlns="http://www.w3.org/2000/svg" viewBox="0 0 512 512"><defs><clipPath id="clipPath9157" clipPathUnits="userSpaceOnUse"><path fill-opacity=".67" d="m44.568-0h496.06v496.06h-496.06z"/></clipPath></defs><g fill-rule="evenodd" clip-path="url(#clipPath9157)" transform="matrix(1.0321 0 0 1.0321 -46 .00001)"><g transform="matrix(.77905 0 0 1 .00065 -248.03)"><path fill="#fff" d="m-744.09-744.09h744.09v496.06h-744.09z" transform="scale(-1)"/><path fill="#ff7000" d="m-744.09-413.39h744.09v165.35h-744.09z" transform="scale(-1)"/><path fill="#36a100" d="m-744.09-744.09h744.09v165.35h-744.09z" transform="scale(-1)"/></g><path fill="#ff7000" d="m580.68,372.84c0,38.554-31.254,69.808-69.808,69.808s-69.808-31.254-69.808-69.808 31.254-69.808 69.808-69.808 69.808,31.254 69.808,69.808z" transform="matrix(.68523 0 0 .68523 -60.22 -7.4509)"/></g></svg>