<svg xmlns="http://www.w3.org/2000/svg" viewBox="0 0 512 512"><g fill-rule="evenodd"><g stroke-width="1.25" transform="matrix(.5 0 0 1 130 0)"><path fill="#fff" d="m51.662,.0001h400.71v511.9999h-400.71z"/><path fill="#198200" d="M -260,6.3e-05 H51.66 V512 H-260 z"/><path fill="#198200" d="m452.37-0h311.63v512h-311.63z"/></g><g stroke="#000" stroke-linejoin="round" transform="matrix(.57525 0 0 .57525 105.35 104.32)"><path fill="#198200" stroke-linecap="round" stroke-width="1.29" d="m239.22,396.41v71.317c9.6081,.0991 19.216,.1982 28.824,.2973 0,0-9.2117-62.105-4.1605-70.425 5.0523-8.32 9.8062-7.132 9.8062-7.132s18.721,5.6468 20.8,4.755c2.0808-.8918-.2973-7.132 9.8062-6.2402 3.2687-1.189 1.4863-6.8347 4.4578-7.132 2.9715-.2973 60.322,16.046 72.802,.5945-3.2687-8.6172-14.56-.5945-17.532-.2973-2.6742,0-13.966-5.3485-20.504,0-5.943-4.4567-32.984-7.4292-32.984-7.4292-3.566-3.566 64.482,1.7835 68.345-.8907 8.0227-8.0238-14.857-7.132-18.423-4.4578-6.3393-3.8632-14.289-3.565-19.143-.8907-2.3274-5.5673-24.44-3.1697-36.722-4.755-3.9314-2.3058-3.2584-3.6166-.5945-5.0512 25.655,1.0899 51.183,4.4185 76.963,3.2687 6.9679-9.0838-8.7782-12.491-18.423-4.755-5.6622-9.3118-17.234-.2973-24.961-1.188-7.7255-.8918-4.1595-10.401 5.6457-8.9155 9.8062,1.4863 27.339-.5935 30.608-5.0512 3.2677-4.4567-1.9518-8.9847-18.127-4.754-5.4744-5.3505-17.532,0-23.177,1.7825-7.5118-4.1904-24.961-.5945-30.904,.8918-5.8181-3.6166 30.607-9.509 30.607-9.509 14.061-.2487 21.989-2.6742 26.446-3.8632 21.256-11.393-.3045-12.606-11.459-4.3256-6.9235-5.4052-13.501,.4624-19.741,2.5432-6.2402,2.0797-18.127,3.566-18.127,2.6742 0-.8918 16.938-11.292 16.938-11.292s20.8-1.4852 24.961-2.0797c4.1605-.5945 25.451-11.522-3.566-4.1605-10.103,.8918-16.046,.2973-19.91,.5945-22.402-2.3161 2.0808-4.4567 2.0808-4.4567s31.718-2.9158 32.092-4.4578c.6224-12.367-25.852-6.5375-26.149-6.5375 .0764-8.835-24.664,.2973-24.664,0-4.7282-2.7857 2.6742-5.6457 2.6742-5.6457 6.5375-1.5843 16.31-2.0498 18.866-4.1316 0,0 18.464-.1786 20.655-5.0801-4.5279-12.492-39.059,2.218-43.682,4.4578-6.2402,0 4.1605-10.103 4.4578-10.401 .2973-.2973 28.527-1.4852 41.898-19.612 .9289-11.033-15.749,6.2402-15.749,6.2402-1.2447-14.309-18.126,.8918-27.932,2.0808-9.8052,1.188-10.102-4.4578-3.2677-5.3495 6.8337-.8907 14.56-.2962 18.423-10.697 3.8622-10.401 15.452,.5945 17.532-3.2688 2.0797-3.8632-4.1605-7.132-4.1605-7.132s8.6172-8.9145-5.3485-8.6172c-13.967,.2972-32.093-1.7825-32.093-1.7825s14.561-5.6468 28.23-5.3495c13.669,.2973 6.2402-9.8052-6.8347-9.8052-13.074,0-19.909-4.4578-19.909-4.4578 7.4292-2.7733 14.857-5.5466 22.287-8.32-.4954-2.0797-.9909-4.1605-1.4863-6.2402 0,0 13.075-10.401-5.3485-8.0238-18.423,2.378-20.503,2.6742-20.503,2.6742s-36.847,5.6468-37.144,5.6468c-.2973,0-10.103-2.9715-.5945-5.3495 9.509-2.377 43.087-9.2117 48.138-7.4282 5.0523,1.7825-.5945-12.48-18.423-14.264-17.829-1.7825-28.824,4.4578-28.824,4.4578s-11.589-4.1605-.8907-7.7265c10.697-3.565 27.635,1.189 27.635,1.189s19.018-5.6457 3.2687-8.0227c-15.749-2.378-20.716,2.1282-27.932,2.377-2.8807-3.5959 24.724-4.4557 26.446-7.4292-2.9116-5.3505-20.008,0-30.012,0-4.2555-1.8052-4.53-4.7323 .2973-6.5375 10.203-.3963 19.782,.2033 29.984-.193-.2973-5.4476 .0279-11.891-.2694-17.339-12.941-2.3646-28.124,1.7061-35.39,1.3614 1.9435-5.944 29.902-7.4695 33.013-9.0868 6.4704-8.0878-27.338,0-27.635,0-5.8965-.8711-5.5157-4.595-1.7825-6.8347 8.6172-.9908 27.936,1.254 26.474-4.5888-1.1199-5.4751-13.4-2.5432-18.451-1.3542-5.0512,1.188-12.48,.2973-12.48,.2973-3.2347-4.3551 29.12-2.5837 28.824-5.9434-.4221-3.8574-20.504-1.1887-27.339-.8915-5.3402-3.6846 25.652-6.1157 26.15-6.5374 1.1199-9.8783-20.8,0-24.961,0-4.1605,0-2.0797-6.2402-2.0797-6.2402s8.6172-3.8629 8.32-4.4572c-.2973-.5943-6.5375-2.6743-7.132-2.6743-.5935,0 0-6.8346 0-6.8346s7.132-5.3487 6.5375-6.8344c-.5945-1.4858-8.32,1.1886-8.32,1.1886v-5.9431s5.6457-.5943 6.2402-3.2686c.5945-2.6744-6.8347-2.9716-6.8347-2.9716-.9908-10.4-1.9806-20.801-2.9715-31.201-.8918,9.7069-1.7825,19.414-2.6742,29.121-3.2687,.4953-6.5375,.9905-9.8062,1.4857 0,0 6.8347,3.863 8.0238,7.726 1.188,3.863-8.321,2.6743-8.321,2.6743s7.7265,6.5374 8.321,8.9147c.5935,2.3772-10.698,2.9715-10.698,2.9715s9.509,6.8345 10.103,10.697c.5945,3.863 0,5.9431 0,5.9431s-15.749-13.669-25.853-9.806c-5.2504,2.7431 12.028,4.0119 23.476,13.966-.0268,2.2168-27.801-6.7651-28.824-1.1887 .644,1.552 29.658,5.7173 31.796,9.5091-10.599,.3963-32.52-2.3191-31.796,1.188-2.215,4.049 20.703,1.7505 30.309,5.0523 2.8156,3.1996 2.5215,5.9027-2.377,6.2402-9.2582-4.4268-29.963-7.7327-30.012-2.0808 .1259,1.509 21.404,.5295 29.12,5.6468-10.3,2.3429-45.236-4.7684-45.457-1.3056 .995,1.6173 6.5303,8.7339 16.039,8.4366 9.509-.2972 31.497,3.8632 32.984,6.8348 1.4852,2.9715-28.527-6.2402-39.818-.8918-11.291,5.3495 32.389,2.0808 39.521,8.6183s-14.263-.5945-14.263-.5945-29.716-4.1605-34.173-2.0808c-4.4578,2.0808-9.509,6.8347-9.509,6.8347s2.9715,5.943 5.943,4.755c2.9715-1.189-.8918,3.566-.8918,3.566s41.602,10.102 50.814,19.017c9.2117,8.9155-52.893-13.966-52.893-13.966s-24.961,9.2117 1.4852,9.8062c-3.0427,4.4516 1.4863,7.131 1.4863,7.131s43.979,9.2117 48.436,16.344c4.4578,7.132-30.012-6.8348-37.739-10.697-7.7255-3.8632-29.715,2.377-29.418,3.8622 .2973,1.4863 10.698,3.566 10.994,6.2402 .2972,2.6742-12.777,3.566-12.777,5.943 0,2.378 55.568,13.967 70.425,26.447s-43.682-14.857-43.682-14.857 3.2687,4.4567 0,5.6457c-3.2688,1.188-14.857-16.641-33.875-5.6457-3.4638,4.5238 16.59,8.1197 21.692,8.6172-1.7422,4.4794-3.2687,5.943 3.8632,10.4 7.131,4.4578-13.967-6.5365-13.967-5.943 0,.5945 1.4863,7.7265 1.4863,7.7265-6.5839-5.3485-14.534-6.9638-21.989-1.4863 0,0-.2972,5.3495 7.4282,8.6182-4.2183,8.6193 4.755,5.943 19.018,13.966-21.199-5.5405-22.88,4.755-7.7255,7.132 15.155,2.377 56.756,3.8632 66.562,16.64 9.8062,12.778-13.932-4.8995-16.64-5.3485-.5945,.2973-1.189,6.5375-1.189,6.5375-6.3393-3.6692-12.181-6.9658-19.764-8.5202-.5945,1.188-.4418,2.8745-1.0362,4.0624-6.8812-4.9625-12.889-8.4314-22.881-8.9145-.3963,1.5854-.7927,3.1697-1.189,4.755 0,0-8.32-10.401-24.664,0-9.1261,6.5426 34.47,2.377 41.602,10.103 7.132,7.7255 1.4852,8.9145 1.4852,8.9145-5.943-2.1788-11.886-4.3587-17.829-6.5375 0,0-21.098-3.8632-27.041,.8907-5.943,4.755 86.769,16.344 89.443,29.121 1.8031,6.9297-21.789-7.2755-42.195-13.372-.7927,2.2779-1.5853,4.5568-2.378,6.8347 0,0-8.1032-8.1404-17.234-9.509-.2972,0 1.7825,8.0238 1.7825,8.0238s-22.88-10.698-34.469-5.0523c-11.59,5.6457 40.413,8.6172 45.167,13.967 4.754,5.3485-15.749-3.566-17.532,0-1.7835,3.566-27.042-6.5375-26.744-1.7835 .2972,4.755 3.566,7.4292 3.566,7.4292s52.596,5.0512 54.38,11.291c1.7825,6.2402-29.121-3.566-29.121-3.566s-2.9715,4.4578-.5945,6.5375c2.377,2.0808-17.829-11.886-16.046-2.6742-6.553-2.6092-23.475-10.697-21.098-4.4567 2.377,6.2402 47.842,15.155 47.842,15.155s-19.91,1.4852-19.018,6.5375c-25.612-15.604-24.961-5.6468-24.366-5.3495 .5945,.2973-32.984-8.32-7.7265,5.3495 25.258,13.668 13.669,11.291 13.967,11.589 .2972,.2973 2.6742,6.8348 2.0797,6.8348-.5945,0-17.234-8.9155-22.88-9.509-5.6468-.5945-32.39,7.4282-3.8632,19.909 28.527,12.48 46.059-2.9715 61.808-1.188 15.749,1.7825 23.177,4.4567 21.692,9.509-1.4863,5.0512-16.089-16.554-31.458,2.1355-17.483-3.4597-29.349-5.4672-20.324,7.3807-28.552-10.67-45.982,3.2605-10.026,8.9072 35.333,1.0414 57.053-8.6183 57.053-8.6183s5.943,10.995 14.561,3.2688c8.6172-7.7255 8.9145,2.9715 9.2117,2.9715 .2962,0 8.32-3.566 8.32-3.566h2.0797z"/><path fill="#fff" stroke-linecap="round" stroke-width="1.29" d="m242.7,354.22v-4.9769s-11.223-1.991-16.698-.8711c-3.2419-1.8578-6.3053-4.304-10.179-2.2397-.7473,1.6173 7.0928,5.848 9.7051,5.848 3.0602,1.9363 17.171,2.4885 17.171,2.2397z"/><path fill="#fff" stroke-linecap="round" stroke-width="1.29" d="m242.57,362.31s-11.224-4.1037-15.704,.6244c.7328,5.0264 13.215,7.4633 15.829,6.0947 2.6133-1.3686 0-6.4704-.1249-6.7191z"/><path fill="#fff" stroke-linecap="round" stroke-width="1.29" d="m261.49,364.3v3.4845s13.438,2.6123 15.803-.2487c2.3636-2.8621-10.701-4.7282-15.803-3.2357z"/><path fill="#fff" stroke-linecap="round" stroke-width="1.29" d="m260.87,350.42 .4954,3.9314s11.571,2.6123 16.051-3.7332c4.4794-6.3455-10.169,.0506-16.546-.1982z"/><path fill="#fff" stroke-linecap="round" stroke-width="1.29" d="m261.49,336.93v2.6123s8.7101,1.3696 10.701-2.3636c1.991-3.7332-10.452,0-10.701-.2487z"/><path fill="#fff" stroke-linecap="round" stroke-width="1.29" d="m243.29,328.89c-1.3397-1.9115-6.0699-6.6459-18.762-8.0145-8.8206-.0289 15.933,12.979 18.762,8.0145z"/><path fill="#fff" stroke-linecap="round" stroke-width="1.29" d="m261.24,315.65s-.4975,3.6083-.3736,3.6083c.1249,0 29.864-8.835 36.831-8.2126 6.2237-1.7598 7.4664-6.0968 7.2166-6.0968-5.3113-3.8715-30.982,3.1108-43.674,10.701z"/><path fill="#fff" stroke-linecap="round" stroke-width="1.29" d="m261.86,305.07c-.1249,.6224-.3736,3.4845-.3736,3.4845s21.029-4.1068 26.628-8.0877c5.5993-3.982-26.005,4.7282-26.254,4.6033z"/><path fill="#fff" stroke-linecap="round" stroke-width="1.29" d="m260.99,294.75 .002,3.5082s14.036-.4283 16.921-3.2595c1.8413-2.8311-12.37-.4025-16.923-.2487z"/><path fill="#fff" stroke-linecap="round" stroke-width="1.29" d="m290.28,324.21s7.291,1.0187 8.6596-1.0961c-.2694-3.7538-8.6596,1.22-8.6596,1.0961z"/><path fill="#fff" stroke-linecap="round" stroke-width="1.29" d="m261.61,281.68c-.1249,.6213 .1239,7.7141 .1239,7.7141s33.721-10.701 35.836-12.692c2.1148-1.991 6.8089-7.9835-35.96,4.978z"/><path fill="#fff" stroke-linecap="round" stroke-width="1.29" d="m260.61,270.98v5.5993s13.563-.996 19.785-6.0978c6.2217-5.1008-19.785,.6224-19.785,.4985z"/><path fill="#fff" stroke-linecap="round" stroke-width="1.29" d="m244.31,258.29 .8711,5.1018s-44.67-14.434-44.546-14.434c.1239,0-2.25-7.3529 43.674,9.3325z"/><path fill="#fff" stroke-linecap="round" stroke-width="1.29" d="m245.06,240.37c-.1249,.4975-.1249,4.852-.2498,4.7282-.1239-.1249-30.982-12.941-32.102-11.821-4.0976-9.6019 32.352,7.3415 32.352,7.0928z"/><path fill="#fff" stroke-linecap="round" stroke-width="1.29" d="m260.12,248.33c0,.1249 .4975,4.3556 .4975,4.3556s18.914-3.9819 20.034-5.848c1.1198-1.8671-20.531,1.6174-20.531,1.4925z"/><path fill="#fff" stroke-linecap="round" stroke-width="1.29" d="m260.56,258.41c.1755,1.0693 .5481,4.4805 .5481,4.4805s7.5903-.6224 8.7101-2.3646c1.1199-1.7422-9.2582-1.991-9.2582-2.1159z"/><path fill="#fff" stroke-linecap="round" stroke-width="1.29" d="m259.37,235.39c0,.3736 .1239,4.2307 .1239,4.2307s20.78-4.1058 23.02-6.0968c2.2397-1.991-23.517,1.8661-23.143,1.8661z"/><path fill="#fff" stroke-linecap="round" stroke-width="1.29" d="m259.49,223.94c0,.2487-.7462,4.2307-.2487,4.2307 .4975,0 25.259-4.2307 29.116-7.7141 3.8581-3.4845-28.494,3.8571-28.868,3.4834z"/><path fill="#fff" stroke-linecap="round" stroke-width="1.29" d="m259.12,203.79v4.3556s16.052-3.3596 19.039-6.7202c2.9859-3.3596-19.039,2.6133-19.039,2.3646z"/><path fill="#fff" stroke-linecap="round" stroke-width="1.29" d="m256.38,174.42 .3736,6.5942s21.526-2.9859 24.637-6.5942c3.1108-3.6083-25.134,0-25.01,0z"/><path fill="#fff" stroke-linecap="round" stroke-width="1.29" d="m246.43,125.02v4.1058s-10.204-.4975-7.7152-2.2397c2.4885-1.7422 7.7152-1.4935 7.7152-1.8661z"/><path fill="#fff" stroke-linecap="round" stroke-width="1.29" d="m255.89,130.5 .2487,5.5993s13.19-1.2437 14.186-3.3596c.995-2.1148-14.186-2.2397-14.434-2.2397z"/><path fill="#fff" stroke-linecap="round" stroke-width="1.29" d="m255.14,138.59s.2487,3.4845 .4975,3.4845 5.2257-.3736 6.3455-1.7422-6.3455-1.4935-6.843-1.7422z"/><path fill="#fff" stroke-linecap="round" stroke-width="1.29" d="m243.94,154.51c0,.3726 .3726,5.3506 .1239,5.2257-.2488-.1249-28.868-8.3365-31.481-8.2126-2.6123,.1249-3.3596-6.5943 31.357,2.987z"/><path fill="#fff" stroke-linecap="round" stroke-width="1.29" d="m246.3,163.85c0,.996 .6224,6.2217-.3736,5.9729-.995-.2487-19.41-6.0968-17.544-7.839 1.8661-1.7422 17.918,2.2397 17.918,1.8661z"/><path fill="#fff" stroke-linecap="round" stroke-width="1.29" d="m244.69,203.16 .1239,4.7282s-32.102-9.7051-33.222-11.322c-1.1199-1.6173-4.2307-9.2076 33.098,6.5943z"/><path fill="#fff" stroke-linecap="round" stroke-width="1.29" d="m245.93,214.74c0,.1249 .2498,4.4794 .1249,4.4794s-43.674-15.304-43.674-15.304-3.4845-11.448 43.55,10.825z"/><path fill="#fff" stroke-width="1.29" d="m194.17,365.77c0,.1486-.1486,4.7653-.1486,4.7653s-8.4882-2.3832-11.169-7.1475c4.914-1.3397 11.466,2.5308 11.317,2.3822z"/></g></g></svg>