<svg xmlns="http://www.w3.org/2000/svg" viewBox="0 0 512 512"><g fill-rule="evenodd"><g stroke-width="1.25" transform="matrix(.5 0 0 1 130 0)"><path fill="#fff" d="m51.662 0h400.71v512h-400.71z"/><g fill="#198200"><path d="m-260 0h311.66v512h-311.66z"/><path d="m452.37 0h311.63v512h-311.63z"/></g></g><g stroke="#000" stroke-linejoin="round" transform="matrix(.57525 0 0 .57525 105.35 104.32)" stroke-width="1.29"><g stroke-linecap="round"><path fill="#198200" d="m239.22 396.41v71.32c9.608.099 19.216.198 28.824.297 0 0-9.212-62.11-4.161-70.43 5.05-8.32 9.806-7.132 9.806-7.132s18.721 5.647 20.8 4.755c2.081-.892-.297-7.132 9.806-6.24 3.269-1.189 1.486-6.835 4.458-7.132 2.971-.297 60.32 16.05 72.802.594-3.269-8.617-14.56-.594-17.532-.297-2.674 0-13.966-5.349-20.504 0-5.943-4.457-32.984-7.429-32.984-7.429-3.566-3.566 64.48 1.784 68.35-.891 8.02-8.02-14.857-7.132-18.423-4.458-6.339-3.863-14.289-3.565-19.14-.891-2.327-5.567-24.44-3.17-36.722-4.755-3.931-2.306-3.258-3.617-.594-5.05 25.655 1.09 51.18 4.418 76.963 3.269 6.968-9.08-8.778-12.491-18.423-4.755-5.662-9.312-17.234-.297-24.961-1.188-7.726-.892-4.159-10.401 5.646-8.916 9.806 1.486 27.339-.594 30.608-5.05 3.268-4.457-1.952-8.985-18.13-4.754-5.474-5.351-17.532 0-23.18 1.783-7.512-4.19-24.961-.594-30.904.892-5.818-3.617 30.607-9.509 30.607-9.509 14.06-.249 21.989-2.674 26.446-3.863 21.256-11.393-.305-12.606-11.459-4.326-6.923-5.405-13.501.462-19.741 2.543-6.24 2.08-18.13 3.566-18.13 2.674 0-.892 16.938-11.292 16.938-11.292s20.8-1.485 24.961-2.08c4.161-.594 25.451-11.522-3.566-4.161-10.1.892-16.05.297-19.91.594-22.402-2.316 2.081-4.457 2.081-4.457s31.718-2.916 32.09-4.458c.622-12.367-25.852-6.538-26.15-6.538.076-8.835-24.664.297-24.664 0-4.728-2.786 2.674-5.646 2.674-5.646 6.538-1.584 16.31-2.05 18.866-4.132 0 0 18.464-.179 20.655-5.08-4.528-12.492-39.06 2.218-43.682 4.458-6.24 0 4.161-10.1 4.458-10.401.297-.297 28.527-1.485 41.898-19.612.929-11.03-15.749 6.24-15.749 6.24-1.245-14.309-18.13.892-27.932 2.081-9.805 1.188-10.1-4.458-3.268-5.349 6.834-.891 14.56-.296 18.423-10.697 3.862-10.401 15.452.595 17.532-3.269 2.08-3.863-4.161-7.132-4.161-7.132s8.617-8.915-5.349-8.617c-13.967.297-32.09-1.782-32.09-1.782s14.561-5.647 28.23-5.35c13.669.297 6.24-9.805-6.835-9.805-13.07 0-19.909-4.458-19.909-4.458 7.429-2.773 14.857-5.547 22.287-8.32-.495-2.08-.991-4.161-1.486-6.24 0 0 13.07-10.401-5.349-8.02-18.423 2.378-20.503 2.674-20.503 2.674s-36.847 5.647-37.14 5.647c-.297 0-10.1-2.971-.594-5.35 9.509-2.377 43.09-9.212 48.14-7.428 5.05 1.782-.594-12.48-18.423-14.264-17.829-1.782-28.824 4.458-28.824 4.458s-11.589-4.161-.891-7.726c10.697-3.565 27.635 1.189 27.635 1.189s19.02-5.646 3.269-8.02c-15.749-2.378-20.716 2.128-27.932 2.377-2.881-3.596 24.724-4.456 26.446-7.429-2.912-5.351-20.01 0-30.01 0-4.255-1.805-4.53-4.732.297-6.537 10.203-.396 19.782.203 29.984-.193-.297-5.448.028-11.891-.269-17.339-12.941-2.365-28.12 1.706-35.39 1.361 1.943-5.944 29.902-7.469 33.01-9.09 6.47-8.09-27.338 0-27.635 0-5.897-.871-5.516-4.595-1.783-6.835 8.617-.991 27.936 1.254 26.474-4.589-1.12-5.475-13.4-2.543-18.451-1.354-5.05 1.188-12.48.297-12.48.297-3.235-4.355 29.12-2.584 28.824-5.943-.422-3.857-20.504-1.189-27.339-.891-5.34-3.685 25.652-6.116 26.15-6.537 1.12-9.878-20.8 0-24.961 0-4.161 0-2.08-6.24-2.08-6.24s8.617-3.863 8.32-4.457c-.297-.594-6.538-2.674-7.132-2.674-.594 0 0-6.835 0-6.835s7.132-5.349 6.538-6.834c-.594-1.486-8.32 1.189-8.32 1.189v-5.943s5.646-.594 6.24-3.269c.594-2.674-6.835-2.972-6.835-2.972-.991-10.4-1.981-20.801-2.971-31.2-.892 9.707-1.782 19.414-2.674 29.12-3.269.495-6.537.99-9.806 1.486 0 0 6.835 3.863 8.02 7.726 1.188 3.863-8.321 2.674-8.321 2.674s7.726 6.537 8.321 8.915c.594 2.377-10.698 2.972-10.698 2.972s9.509 6.835 10.1 10.697c.595 3.863 0 5.943 0 5.943s-15.749-13.669-25.853-9.806c-5.25 2.743 12.03 4.01 23.476 13.966-.027 2.217-27.801-6.765-28.824-1.189.644 1.552 29.658 5.717 31.796 9.509-10.599.396-32.52-2.319-31.796 1.188-2.215 4.049 20.703 1.751 30.31 5.05 2.816 3.2 2.522 5.903-2.377 6.24-9.258-4.427-29.963-7.733-30.01-2.081.126 1.509 21.404.529 29.12 5.647-10.3 2.343-45.24-4.768-45.46-1.306.995 1.617 6.53 8.734 16.04 8.437 9.509-.297 31.497 3.863 32.984 6.835 1.485 2.971-28.527-6.24-39.818-.892-11.291 5.35 32.389 2.081 39.521 8.618s-14.263-.595-14.263-.595-29.716-4.161-34.17-2.081c-4.458 2.081-9.509 6.835-9.509 6.835s2.971 5.943 5.943 4.755c2.971-1.189-.892 3.566-.892 3.566s41.602 10.1 50.814 19.02c9.212 8.916-52.893-13.966-52.893-13.966s-24.961 9.212 1.485 9.806c-3.043 4.452 1.486 7.131 1.486 7.131s43.979 9.212 48.44 16.344c4.458 7.132-30.01-6.835-37.739-10.697-7.726-3.863-29.715 2.377-29.418 3.862.297 1.486 10.698 3.566 10.994 6.24.297 2.674-12.777 3.566-12.777 5.943 0 2.378 55.57 13.967 70.43 26.447s-43.682-14.857-43.682-14.857 3.269 4.457 0 5.646c-3.269 1.188-14.857-16.641-33.875-5.646-3.464 4.524 16.59 8.12 21.692 8.617-1.742 4.479-3.269 5.943 3.863 10.4 7.131 4.458-13.967-6.536-13.967-5.943 0 .595 1.486 7.726 1.486 7.726-6.584-5.349-14.534-6.964-21.989-1.486 0 0-.297 5.35 7.428 8.618-4.218 8.619 4.755 5.943 19.02 13.966-21.2-5.541-22.88 4.755-7.726 7.132 15.16 2.377 56.756 3.863 66.56 16.64 9.806 12.778-13.932-4.899-16.64-5.349-.595.297-1.189 6.538-1.189 6.538-6.339-3.669-12.181-6.966-19.764-8.52-.595 1.188-.442 2.875-1.036 4.062-6.881-4.962-12.889-8.431-22.881-8.914-.396 1.585-.793 3.17-1.189 4.755 0 0-8.32-10.401-24.664 0-9.126 6.543 34.47 2.377 41.602 10.1 7.132 7.726 1.485 8.914 1.485 8.914-5.943-2.179-11.886-4.359-17.829-6.538 0 0-21.1-3.863-27.04.891-5.943 4.755 86.77 16.344 89.44 29.12 1.803 6.93-21.789-7.276-42.19-13.372-.793 2.278-1.585 4.557-2.378 6.835 0 0-8.103-8.14-17.234-9.509-.297 0 1.782 8.02 1.782 8.02s-22.88-10.698-34.469-5.05c-11.59 5.646 40.41 8.617 45.17 13.967 4.754 5.349-15.749-3.566-17.532 0-1.784 3.566-27.04-6.538-26.744-1.784.297 4.755 3.566 7.429 3.566 7.429s52.596 5.05 54.38 11.291c1.782 6.24-29.12-3.566-29.12-3.566s-2.971 4.458-.595 6.538c2.377 2.081-17.829-11.886-16.05-2.674-6.553-2.609-23.475-10.697-21.1-4.457 2.377 6.24 47.842 15.15 47.842 15.15s-19.91 1.485-19.02 6.538c-25.612-15.604-24.961-5.647-24.366-5.349.595.297-32.984-8.32-7.726 5.349 25.26 13.668 13.669 11.291 13.967 11.589.297.297 2.674 6.835 2.08 6.835-.595 0-17.234-8.916-22.88-9.509-5.647-.594-32.39 7.428-3.863 19.909 28.527 12.48 46.06-2.971 61.808-1.188 15.749 1.783 23.18 4.457 21.692 9.509-1.486 5.05-16.09-16.554-31.458 2.135-17.483-3.46-29.349-5.467-20.324 7.381-28.552-10.67-45.982 3.26-10.03 8.907 35.33 1.041 57.05-8.618 57.05-8.618s5.943 10.995 14.561 3.269c8.617-7.726 8.915 2.971 9.212 2.971.296 0 8.32-3.566 8.32-3.566h2.08z"/><g fill="#fff"><path d="m242.7 354.22v-4.977s-11.223-1.991-16.698-.871c-3.242-1.858-6.305-4.304-10.179-2.24-.747 1.617 7.093 5.848 9.705 5.848 3.06 1.936 17.17 2.488 17.17 2.24z"/><path d="m242.57 362.31s-11.224-4.104-15.704.624c.733 5.03 13.215 7.463 15.829 6.095 2.613-1.369 0-6.47-.125-6.719z"/><path d="m261.49 364.3v3.485s13.438 2.612 15.803-.249c2.364-2.862-10.701-4.728-15.803-3.236z"/><path d="m260.87 350.42l.495 3.931s11.571 2.612 16.05-3.733c4.479-6.346-10.169.051-16.546-.198z"/><path d="m261.49 336.93v2.612s8.71 1.37 10.701-2.364c1.991-3.733-10.452 0-10.701-.249z"/><path d="m243.29 328.89c-1.34-1.911-6.07-6.646-18.762-8.01-8.821-.029 15.933 12.979 18.762 8.01z"/><path d="m261.24 315.65s-.498 3.608-.374 3.608c.125 0 29.864-8.835 36.831-8.213 6.224-1.76 7.466-6.097 7.217-6.097-5.311-3.872-30.982 3.111-43.674 10.701z"/><path d="m261.86 305.07c-.125.622-.374 3.485-.374 3.485s21.03-4.107 26.628-8.09c5.599-3.982-26 4.728-26.25 4.603z"/><path d="m260.99 294.75l.002 3.508s14.04-.428 16.921-3.26c1.841-2.831-12.37-.402-16.923-.249z"/><path d="m290.28 324.21s7.291 1.019 8.66-1.096c-.269-3.754-8.66 1.22-8.66 1.096z"/><path d="m261.61 281.68c-.125.621.124 7.714.124 7.714s33.721-10.701 35.836-12.692c2.115-1.991 6.809-7.983-35.96 4.978z"/><path d="m260.61 270.98v5.599s13.563-.996 19.785-6.098c6.222-5.101-19.785.622-19.785.498z"/><path d="m244.31 258.29l.871 5.102s-44.67-14.434-44.546-14.434c.124 0-2.25-7.353 43.674 9.333z"/><path d="m245.06 240.37c-.125.498-.125 4.852-.25 4.728-.124-.125-30.982-12.941-32.1-11.821-4.098-9.602 32.35 7.341 32.35 7.093z"/><path d="m260.12 248.33c0 .125.498 4.356.498 4.356s18.914-3.982 20.03-5.848c1.12-1.867-20.531 1.617-20.531 1.493z"/><path d="m260.56 258.41c.175 1.069.548 4.481.548 4.481s7.59-.622 8.71-2.365c1.12-1.742-9.258-1.991-9.258-2.116z"/><path d="m259.37 235.39c0 .374.124 4.231.124 4.231s20.78-4.106 23.02-6.097c2.24-1.991-23.517 1.866-23.14 1.866z"/><path d="m259.49 223.94c0 .249-.746 4.231-.249 4.231.498 0 25.26-4.231 29.12-7.714 3.858-3.484-28.494 3.857-28.868 3.483z"/><path d="m259.12 203.79v4.356s16.05-3.36 19.04-6.72c2.986-3.36-19.04 2.613-19.04 2.365z"/><path d="m256.38 174.42l.374 6.594s21.526-2.986 24.637-6.594c3.111-3.608-25.13 0-25.01 0z"/><path d="m246.43 125.02v4.106s-10.204-.498-7.715-2.24c2.488-1.742 7.715-1.493 7.715-1.866z"/><path d="m255.89 130.5l.249 5.599s13.19-1.244 14.186-3.36c.995-2.115-14.186-2.24-14.434-2.24z"/><path d="m255.14 138.59s.249 3.484.498 3.484 5.226-.374 6.346-1.742-6.345-1.494-6.843-1.742z"/><path d="m243.94 154.51c0 .373.373 5.351.124 5.226-.249-.125-28.868-8.337-31.481-8.213-2.612.125-3.36-6.594 31.357 2.987z"/><path d="m246.3 163.85c0 .996.622 6.222-.374 5.973-.995-.249-19.41-6.097-17.544-7.839 1.866-1.742 17.918 2.24 17.918 1.866z"/><path d="m244.69 203.16l.124 4.728s-32.1-9.705-33.22-11.322c-1.12-1.617-4.231-9.208 33.1 6.594z"/><path d="m245.93 214.74c0 .125.25 4.479.125 4.479s-43.674-15.304-43.674-15.304-3.484-11.448 43.55 10.825z"/></g></g><path fill="#fff" d="m194.17 365.77c0 .149-.149 4.765-.149 4.765s-8.488-2.383-11.169-7.147c4.914-1.34 11.466 2.531 11.317 2.382z"/></g></g></svg>