<svg xmlns="http://www.w3.org/2000/svg" viewBox="0 0 512 512"><defs><clipPath id="0"><path d="m135.64 0h496.06v496.06h-496.06z"/></clipPath></defs><g fill-rule="evenodd" stroke-width="1.25" clip-path="url(#0)" transform="matrix(1.0321 0 0 1.0321-140 0)"><path fill="#002170" d="m0 0h992.13v496.06h-992.13z"/><path fill="#ffb20d" d="m0 226.82h992.13v42.42h-992.13z"/><path fill="#fff" d="m467.72,433.18-33.52-40.55-16.72,49.88-8.74-51.88-39.43,34.83 18.37-49.3-51.56,10.46 40.55-33.51-49.88-16.73 51.88-8.74-34.84-39.43 49.3,18.37-10.45-51.56 33.51,40.55 16.73-49.88 8.74,51.88 39.42-34.83-18.36,49.3 51.56-10.46-40.56,33.51 49.88,16.73-51.88,8.74 34.84,39.43-49.3-18.37z" transform="matrix(.8542-.08035.08035.8542-141.92 91.91)"/></g></svg>