<svg xmlns="http://www.w3.org/2000/svg" viewBox="0 0 512 512"><g fill-rule="evenodd" stroke-width="1.25"><g><path fill="#00006a" d="m.0041-0h511.9999v512h-511.9999z"/></g><g transform="matrix(1.0176 0 0 .95605 -.00099 -1.0435)"><path fill="#fff" d="m64.501,291.57 514.08,508.63h105.45l-502.98-508.39-116.55-.24z" transform="matrix(.46237 0 0 .47458 -29.823 -137.28)"/><path fill="#f00" d="m105.54,296.01 503.84,506.72 39.211-.619-505.95-506.11h-37.1z" transform="matrix(-.4619 0 0 -.47635 317.39 383.47)"/><path fill="#fff" d="m64.501,291.57 514.08,508.63h105.45l-502.98-508.39-116.55-.24z" transform="matrix(-.46237 0 0 .47458 316.28 -137.28)"/><path fill="#f00" d="m105.54,296.01 503.84,506.72 39.211,.02-505.95-506.74h-37.1z" transform="matrix(-.46172 0 0 .47635 317.32 -139.91)"/><path fill="#fff" d="m120.31,1.0945h45.831v241.3805h-45.831z"/><path fill="#fff" d="m.0049,97.646h286.4401v48.276h-286.4401z"/><path fill="#f00" d="m130.34,1.0945h25.78v241.3805h-25.78z"/><path fill="#f00" d="m.0049,109.72h286.4401v24.138h-286.4401z"/></g><g transform="matrix(.88865 0 0 .89341 -61.26086 103.94039)"><path fill="#fff" d="m519.07,108.73-22.03-16.195-22.84,15.025 8.6-25.952-21.35-17.077 27.34,.155 9.64-25.58 8.31,26.047 27.3,1.268-22.2,15.943z" transform="translate(0 -1.9662)"/><path fill="#f00" d="m511.2,91.032-13.47-8.733-12.87,9.596 4.15-15.509-13.11-9.275 16.04-.852 4.77-15.328 5.76,14.983 16.05-.198-12.46,10.112z" transform="matrix(.99883 .04836 -.04836 .99883 4.0356 -21.997)"/></g><g transform="matrix(.88865 0 0 .89341 -136.39149 228.65853)"><path fill="#fff" d="m519.07,108.73-22.03-16.195-22.84,15.025 8.6-25.952-21.35-17.077 27.34,.155 9.64-25.58 8.31,26.047 27.3,1.268-22.2,15.943z" transform="translate(0 -1.9662)"/><path fill="#f00" d="m511.2,91.032-13.47-8.733-12.87,9.596 4.15-15.509-13.11-9.275 16.04-.852 4.77-15.328 5.76,14.983 16.05-.198-12.46,10.112z" transform="matrix(.99883 .04836 -.04836 .99883 4.0356 -21.997)"/></g><g transform="matrix(.88865 0 0 .89341 17.36426 216.36673)"><path fill="#fff" d="m519.07,108.73-22.03-16.195-22.84,15.025 8.6-25.952-21.35-17.077 27.34,.155 9.64-25.58 8.31,26.047 27.3,1.268-22.2,15.943z" transform="translate(0 -1.9662)"/><path fill="#f00" d="m511.2,91.032-13.47-8.733-12.87,9.596 4.15-15.509-13.11-9.275 16.04-.852 4.77-15.328 5.76,14.983 16.05-.198-12.46,10.112z" transform="matrix(.99883 .04836 -.04836 .99883 4.0356 -21.997)"/></g><g transform="matrix(.88865 0 0 .89341 -63.00812 393.7842)"><path fill="#fff" d="m519.07,108.73-22.03-16.195-22.84,15.025 8.6-25.952-21.35-17.077 27.34,.155 9.64-25.58 8.31,26.047 27.3,1.268-22.2,15.943z" transform="translate(0 -1.9662)"/><path fill="#f00" d="m511.2,91.032-13.47-8.733-12.87,9.596 4.15-15.509-13.11-9.275 16.04-.852 4.77-15.328 5.76,14.983 16.05-.198-12.46,10.112z" transform="matrix(.99883 .04836 -.04836 .99883 4.0356 -21.997)"/></g></g></svg>