<svg xmlns="http://www.w3.org/2000/svg" viewBox="0 0 512 512"><defs><clipPath id="0"><path d="m0 0h512v512h-512z"/></clipPath></defs><g fill-rule="evenodd" clip-path="url(#0)"><g stroke-width="1.25"><path fill="#fff" d="m-26-24.954h592.45v595.94h-592.45z"/><path fill="#db0000" d="m255.34-20.417h312.09v275.22h-312.09z"/><path fill="#0000ab" d="m-54.45 254.81h309.82v316.17h-309.82z"/></g><g stroke-width=".113"><path fill="#0000ab" d="m178.98 181.59l-46.48-29.21-46.25 29.498 17.201-47.936-46.16-29.6 57.11-.413 17.715-47.79 18.09 47.68 57.11.063-45.927 29.879 17.581 47.83"/><path fill="#d80000" d="m435.24 449.04l-46.48-29.21-46.25 29.498 17.201-47.936-46.16-29.6 57.11-.413 17.715-47.79 18.09 47.68 57.11.063-45.927 29.879 17.581 47.83"/></g></g></svg>