<svg xmlns="http://www.w3.org/2000/svg" viewBox="0 0 512 512"><defs><clipPath id="clipPath10940" clipPathUnits="userSpaceOnUse"><path fill-opacity=".67" d="m0,0h512v512h-512z"/></clipPath></defs><g fill-rule="evenodd" clip-path="url(#clipPath10940)"><g stroke-width="1.25"><path fill="#fff" d="m-26.003-24.954h592.45v595.94h-592.45z"/><path fill="#db0000" d="m255.34-20.417h312.09v275.22h-312.09z"/><path fill="#0000ab" d="m-54.446,254.81h309.82v316.17h-309.82z"/></g><g stroke-width=".113"><path fill="#0000ab" d="m178.98,181.59-46.477-29.211-46.249,29.498 17.201-47.936-46.164-29.6 57.113-.4127 17.715-47.79 18.094,47.68 57.113,.0629-45.927,29.879 17.581,47.83z"/><path fill="#d80000" d="m435.24,449.04-46.477-29.211-46.249,29.498 17.201-47.936-46.164-29.6 57.113-.4127 17.715-47.79 18.094,47.68 57.113,.0629-45.927,29.879 17.581,47.83z"/></g></g></svg>