<svg xmlns="http://www.w3.org/2000/svg" viewBox="0 0 512 512" xmlns:xlink="http://www.w3.org/1999/xlink"><defs><path id="0" d="m171.25 126.89l5.469 7.344"/><path id="1" d="m174.38,126.42-.156,4.531"/><use id="2" xlink:href="#4"/><path id="4" d="m171.25 134.24l5.938-7.187"/><clipPath id="3"><path d="m0 0h512v512h-512z"/></clipPath></defs><g clip-path="url(#3)"><path width="0" fill="#fff" d="m0 0h512v512h-512z"/><g fill-rule="evenodd"><g stroke-width="2.5"><g fill="#083d9c" stroke="#083d9c"><path d="m210.43 363.47s11.562-9.374 22.812-9.374 14.375 7.811 22.19 8.436c7.812.625 14.373-7.812 24.06-8.124 9.688-.312 21.875 6.874 21.875 6.874l-42.499 12.814-48.44-10.626z"/><path d="m186.06 349.72l144.37.625s-12.499-13.437-27.19-13.749c-14.687-.315-10.624 6.25-21.874 7.186-11.249.938-14.06-6.874-24.376-6.562-10.311.312-16.25 6.562-24.06 6.876-7.812.312-17.812-7.814-23.75-7.499-5.938.312-27.19 9.374-27.19 9.374l4.062 3.75z"/><path d="m167.62 332.53l178.12.627c2.812-4.063-8.75-13.75-19.374-14.688-8.752.312-15 9.06-22.19 9.376-7.188.312-15.312-9.06-23.438-8.749-8.124.312-16.562 8.749-24.687 8.749-8.124 0-14.06-9.06-24.374-9.06s-15 10-22.812 9.376c-7.814-.625-14.688-9.999-22.19-9.999-7.499 0-20 11.249-22.499 10.624-2.5-.624 3.123 4.688 3.438 3.75z"/></g><path fill="#f00" stroke="#000" stroke-linejoin="round" d="m236.06 233.47l40.938 10.938v-58.44c-18.751.938-34.37-35.624-1.25-38.12-32.5-4.688-36.25 3.75-40 12.812l.312 72.811z"/></g><path fill="#083d9c" stroke="#083d9c" stroke-linecap="round" stroke-width="5" d="m210.12 275.97l92.5.312"/></g><g fill="none" stroke="#000" stroke-linecap="round" stroke-width="2"><g transform="matrix(2 0 0 2-128 0)"><use xlink:href="#0"/><use xlink:href="#4"/><use xlink:href="#1"/></g><g transform="matrix(2 0 0 2-110.5 0)"><use xlink:href="#0"/><use xlink:href="#4"/><use xlink:href="#1"/></g><g transform="matrix(2 0 0 2-92.69 0)"><use xlink:href="#0"/><use xlink:href="#2"/><use xlink:href="#1"/></g><g transform="matrix(2 0 0 2-74.25 0)"><use xlink:href="#0"/><use xlink:href="#2"/><use xlink:href="#1"/></g><g transform="matrix(2 0 0 2-56.44 0)"><use xlink:href="#0"/><use xlink:href="#2"/><use xlink:href="#1"/></g></g><g fill-rule="evenodd"><g fill="#ef7d08"><path d="m147.93 276.91l39.37.313v-24.687l-45-2.186 5.626 26.561"/><path d="m146.06 242.85l41.875 4.063-.312-17.5-40.937-16.25-.626 29.687"/><path d="m154.5 207.85l32.19 15.624 4.596-4.798s-2.96-2.04-2.814-3.916c.056-1.898 2.978-2.186 3.03-4.246.054-1.898-3.31-2.126-3.346-4.03-.22-2.058 2.593-4.265 2.593-4.265l-29.06-25.312-7.189 30.938"/><path d="m365.74 277.22h-41.562l-.312-24.06 45.623-3.438-3.75 27.5"/><path d="m324.49 247.53l49.38-5.936-10.626-28.437-39.06 16.562.312 17.811"/><path d="m360.43 205.35l-35.625 18.75c-.52-2.032-.962-3.986-3.436-5.626 0 0 2.186-1.25 2.186-3.438 0-2.186-2.813-2.5-2.813-3.75s2.578-2.342 2.734-5.155c-.312-1.953-2.734-4.686-2.265-5.234l27.657-21.17 11.562 25.626"/><path d="m283.25 247.06l17.811-.78.312-7.19-18.12 7.97"/><path d="m228.87 246.52l-18.75-.546v-7.5l18.75 8.05"/><path d="m228.79 244.33l-18.672-9.61v-12.499s-2.188.312-1.875-2.188c.103-5.208 13.723 9.506 20.703 14.297l-.156 10"/><path d="m283.24 243.16l-.076-8.124s16.872-15.233 20.466-18.05c0 3.125-1.952 5.546-1.952 5.546v11.876l-18.438 8.749"/><path d="m173.87 174.72c.312.313 18.933 21.01 18.933 21.01.522-1.961 4.816-2.259 9.19-1.947 4.376.312 7.864-.293 7.864 2.832 0 3.124-2.22 2.68-2.22 4.869 0 2.188 3.327 2 3.327 4.814 0 2.813-2.412 2.239-2.424 4.417-.007 1.8 2.516 1.896 2.516 1.896l17.734 17.188.077-18.361-36.561-57.34-18.436 20.625"/><path d="m203.13 153.01c.278.834 24.764 50.642 24.764 50.642s.278-46.747 4.452-49.25l-6.956-12.8-22.26 11.409"/><path d="m310.81 154.96l-27.651 49.33.036-20.79s2.293-3.496-1.324-3.217c-3.617.278-8.07-.279-8.07-.279l11.129-38.956 25.878 13.913"/><path d="m339.19 176.1c-.279.556-18.654 19.243-18.654 19.243-.834-2.225-6.39-1.157-11.676-1.157-5.288 0-6.02 1.695-5.744 3.086.556 3.618 2.342.952 2.342 4.292 0 3.338-2.572 2.12-2.802 4.564.256 2.807 4.04 2.114 1.823 4.241l-21.278 20.426.06-19.356 39.512-61.5 16.418 26.16"/></g><g stroke-width="2.5"><g fill="#f00" stroke="#000" stroke-linejoin="round"><path d="m245.14 286.29c-8.904 14.748-32.708 10.374-38.27.078-1.668-.473-.681-63.52-.681-63.52s-2.66-1.212-2.783-3.15c-.122-1.958 3.617-2.136 3.617-4.642 0-2.504-3.818-1.522-3.894-4.04.017-2.41 4.076-2.078 3.894-4.305-.215-2.51-4.547-2.139-4.73-4.453-.14-1.838 3.098-3.441 3.999-4.268-.582.029-3.01-.036-3.02-.044-2.273.046-4.547.093-6.818.139-4.844.005.084 1.056.012 3.851-.044 1.826-2.457 3.041-2.672 4.628-.076 1.63 3.451 2.774 3.496 4.73.04 1.745-3.466 1.864-3.34 3.486.218 2.744 3.106 3.348 3.062 5.01-.044 1.66-3.886 2.292-3.896 3.617.134 2.562.556 64.833.556 64.833 6.122 31.721 41.46 39.791 51.48-1.947z"/><path d="m268.44 286.29c8.904 14.748 32.707 10.374 38.27.078 1.668-.473.682-63.52.682-63.52s2.66-1.212 2.782-3.15c.122-1.958-3.382-2.136-3.382-4.642 0-2.504 3.585-1.522 3.66-4.04-.015-2.41-3.763-2.233-3.582-4.462.214-2.509 3.156-2.216 3.323-4.53.14-1.993-1.848-3.207-2.748-4.03.582.029 2.852-.036 2.868-.044 2.272.046 4.546.093 6.817.139 4.845.005-.084 1.056-.011 3.851.043 1.826 2.455 3.041 2.672 4.628.075 1.63-3.452 2.774-3.497 4.73-.039 1.745 3.467 1.864 3.34 3.486-.218 2.744-3.106 3.348-3.061 5.01.043 1.66 3.886 2.292 3.895 3.617-.133 2.562-.555 64.833-.555 64.833-6.123 31.721-41.46 39.791-51.48-1.947z"/></g><g fill="#083d9c" stroke="#083d9c"><path d="m236.49 315.3l39.762-.024c.31-.313-8.902-13.732-19.875-12.786-12.223.32-20.527 12.81-19.887 12.81z"/><path d="m363.28 314.33h-54.41s7.04-4.161 8.962-8c3.52 1.921 2.56 3.841 9.602 4.161 7.04.32 13.761-8 20.484-7.68 6.72.32 15.361 11.842 15.361 11.522z"/><path d="m148.87 314.33h54.41s-7.04-4.161-8.962-8c-3.52 1.921-2.56 3.841-9.602 4.161-7.04.32-13.761-8-20.484-7.68-6.72.32-15.361 11.842-15.361 11.522z"/><path d="m152.93 297.22l38.749.312s-2.5-5.311-2.811-11.874c-10-3.436-18.13 7.499-25.314 7.812-7.186.312-14.685-7.812-14.685-7.812l4.061 11.562z"/><path d="m359.81 297.22l-38.75.312s2.501-5.311 2.813-11.874c10-3.436 18.13 7.499 25.313 7.812 7.187.312 14.686-7.812 14.686-7.812l-4.061 11.562z"/><path d="m246.37 297.53l19.686-.623s.314-5.938-9.999-5.938c-10.312 0-9.374 6.875-9.686 6.561z"/><path d="m234.49 289.1c3.438-1.876 6.562-3.75 8.75-8.126l-13.438.312s-6.248 3.752-9.374 7.814h14.06z"/><path d="m277.93 289.1c-3.438-1.876-6.561-3.75-8.749-8.126l13.437.312s6.248 3.752 9.374 7.814h-14.06z"/></g></g><g fill="#de2010" stroke-width="1.25"><path d="m-128 384h768v128h-768z"/><path d="m-128 0h768v128h-768z"/></g></g></g></svg>