<svg xmlns="http://www.w3.org/2000/svg" viewBox="0 0 512 512"><defs><clipPath id="clipPath4144" clipPathUnits="userSpaceOnUse"><path fill-opacity=".67" d="m0,0h512v512h-512z"/></clipPath></defs><g clip-path="url(#clipPath4144)"><path width="0" fill="#fff" d="m0,0h512v512h-512z"/><g fill-rule="evenodd"><g stroke-width="2.5"><g fill="#083d9c" stroke="#083d9c"><path d="m210.43,363.47s11.562-9.3738 22.812-9.3738 14.375,7.8111 22.188,8.4356c7.8122,.6255 14.373-7.8122 24.062-8.1239 9.6876-.3117 21.875,6.874 21.875,6.874l-42.499,12.814-48.438-10.626z"/><path d="m186.06,349.72 144.37,.6255s-12.499-13.437-27.187-13.749c-14.687-.3148-10.624,6.2495-21.874,7.1857-11.249,.9382-14.064-6.874-24.376-6.5623-10.311,.3117-16.25,6.5623-24.061,6.876-7.8122,.3117-17.812-7.8142-23.75-7.4994-5.9378,.3117-27.187,9.3738-27.187,9.3738l4.0624,3.7497z"/><path d="m167.62,332.53 178.12,.6265c2.8115-4.0625-8.7504-13.75-19.374-14.688-8.7524,.3117-15,9.0621-22.188,9.3758-7.1877,.3117-15.312-9.0641-23.438-8.7493-8.1239,.3117-16.562,8.7493-24.687,8.7493-8.1239,0-14.062-9.0641-24.374-9.0641s-15,10-22.812,9.3758c-7.8142-.6255-14.688-9.9993-22.188-9.9993-7.4994,0-20,11.249-22.499,10.624-2.4998-.6244 3.1232,4.6879 3.438,3.7497z"/></g><path fill="#f00" stroke="#000" stroke-linejoin="round" d="m236.06,233.47 40.938,10.938v-58.438c-18.751,.9382-34.374-35.624-1.2499-38.124-32.5-4.6879-36.25,3.7497-40,12.812l.3117,72.811z"/></g><path fill="#083d9c" stroke="#083d9c" stroke-linecap="round" stroke-width="5" d="m210.12,275.97 92.499,.3117"/></g><g fill="none" stroke="#000" stroke-linecap="round" stroke-width="2"><g transform="matrix(2 0 0 2 -128 -.00004)"><path d="m171.25,126.89 5.469,7.344"/><path d="m171.25,134.24 5.938-7.187"/><path d="m174.38,126.42-.156,4.531"/></g><g transform="matrix(2 0 0 2 -110.5 -.00004)"><path d="m171.25,126.89 5.469,7.344"/><path d="m171.25,134.24 5.938-7.187"/><path d="m174.38,126.42-.156,4.531"/></g><g transform="matrix(2 0 0 2 -92.688 -.00004)"><path d="m171.25,126.89 5.469,7.344"/><path d="m171.25,134.24 5.938-7.187"/><path d="m174.38,126.42-.156,4.531"/></g><g transform="matrix(2 0 0 2 -74.251 -.00004)"><path d="m171.25,126.89 5.469,7.344"/><path d="m171.25,134.24 5.938-7.187"/><path d="m174.38,126.42-.156,4.531"/></g><g transform="matrix(2 0 0 2 -56.439 -.00004)"><path d="m171.25,126.89 5.469,7.344"/><path d="m171.25,134.24 5.938-7.187"/><path d="m174.38,126.42-.156,4.531"/></g></g><g fill-rule="evenodd"><g fill="#ef7d08"><path d="m147.93,276.91 39.374,.3127v-24.687l-45-2.186 5.6261,26.561z"/><path d="m146.06,242.85 41.875,4.0625-.3117-17.5-40.937-16.25-.6265,29.687z"/><path d="m154.5,207.85 32.188,15.624 4.5961-4.7984s-2.9601-2.0395-2.8136-3.9159c.0557-1.8981 2.9777-2.186 3.0334-4.2462 .0537-1.8981-3.31-2.1262-3.3462-4.0253-.2198-2.0581 2.5927-4.2648 2.5927-4.2648l-29.062-25.312-7.1888,30.938z"/><path d="m365.74,277.22h-41.562l-.3117-24.062 45.623-3.438-3.7497,27.5z"/><path d="m324.49,247.53 49.376-5.9358-10.626-28.437-39.062,16.562 .3117,17.811z"/><path d="m360.43,205.35-35.625,18.75c-.5202-2.0323-.962-3.9861-3.436-5.6261 0,0 2.186-1.2499 2.186-3.438 0-2.186-2.8126-2.4998-2.8126-3.7497s2.5783-2.3419 2.7341-5.1555c-.3117-1.9528-2.7341-4.6859-2.2655-5.2339l27.657-21.172 11.562,25.626z"/><path d="m283.25,247.06 17.811-.7803 .3117-7.1898-18.123,7.9701z"/><path d="m228.87,246.52-18.75-.546v-7.5005l18.75,8.0465z"/><path d="m228.79,244.33-18.672-9.6101v-12.499s-2.1881,.3117-1.8754-2.1881c.1032-5.2081 13.723,9.5059 20.703,14.297l-.1558,10z"/><path d="m283.24,243.16-.0764-8.1239s16.872-15.233 20.466-18.047c0,3.1253-1.9518,5.5456-1.9518,5.5456v11.876l-18.438,8.7493z"/><path d="m173.87,174.72c.3117,.3127 18.933,21.009 18.933,21.009 .5223-1.961 4.8159-2.2593 9.1901-1.9466 4.3762,.3117 7.8638-.2931 7.8638,2.8322 0,3.1242-2.2201,2.6804-2.2201,4.8686 0,2.1881 3.3266,2.0044 3.3266,4.8138 0,2.8126-2.4121,2.2387-2.4245,4.4165-.007,1.8 2.5163,1.896 2.5163,1.896l17.734,17.188 .0774-18.361-36.561-57.342-18.436,20.625z"/><path d="m203.13,153.01c.2776,.834 24.764,50.642 24.764,50.642s.2776-46.747 4.4516-49.251l-6.9555-12.8-22.26,11.409z"/><path d="m310.81,154.96-27.651,49.328 .0361-20.79s2.2934-3.4958-1.3242-3.2171c-3.6166,.2776-8.0682-.2787-8.0682-.2787l11.129-38.956 25.878,13.913z"/><path d="m339.19,176.1c-.2787,.5563-18.654,19.243-18.654,19.243-.834-2.2253-6.3899-1.157-11.676-1.157-5.2876,0-6.0235,1.6948-5.7438,3.0861 .5563,3.6176 2.3419,.9516 2.3419,4.2916 0,3.3379-2.5721,2.12-2.8022,4.5641 .256,2.8074 4.0387,2.1138 1.8227,4.241l-21.278,20.426 .0599-19.356 39.512-61.495 16.418,26.156z"/></g><g stroke-width="2.5"><g fill="#f00" stroke="#000" stroke-linejoin="round"><path d="m245.14,286.29c-8.9042,14.748-32.708,10.374-38.274,.0784-1.6679-.4727-.6812-63.521-.6812-63.521s-2.6598-1.2117-2.7826-3.15c-.1218-1.958 3.6166-2.1355 3.6166-4.6415 0-2.5039-3.8178-1.5224-3.8942-4.0428 .0165-2.41 4.0759-2.0777 3.8942-4.305-.2147-2.5101-4.5465-2.1386-4.7302-4.4526-.1404-1.8382 3.0984-3.4411 3.9985-4.2678-.5821,.0289-3.0086-.0361-3.0241-.0444-2.2728,.0464-4.5465,.0929-6.8182,.1393-4.8438,.005 .0836,1.0559 .0124,3.8509-.0444,1.8258-2.4565,3.0406-2.6722,4.6281-.0764,1.6297 3.4514,2.7744 3.4958,4.7302 .0403,1.7453-3.4659,1.864-3.34,3.4855 .2178,2.7444 3.1057,3.3482 3.0623,5.0099-.0444,1.6597-3.886,2.2924-3.8963,3.6166 .1342,2.5617 .5563,64.833 .5563,64.833 6.1216,31.721 41.46,39.791 51.477-1.9466z"/><path d="m268.44,286.29c8.9042,14.748 32.707,10.374 38.273,.0784 1.6679-.4727 .6822-63.521 .6822-63.521s2.6598-1.2117 2.7816-3.15c.1218-1.958-3.3823-2.1355-3.3823-4.6415 0-2.5039 3.5846-1.5224 3.6599-4.0428-.0155-2.41-3.7631-2.2335-3.5815-4.4619 .2136-2.5091 3.1562-2.216 3.3234-4.53 .1404-1.993-1.8475-3.2068-2.7475-4.0336 .5821,.0289 2.8518-.0361 2.8683-.0444 2.2717,.0464 4.5455,.0929 6.8172,.1393 4.8448,.005-.0836,1.0559-.0114,3.8509 .0433,1.8258 2.4554,3.0406 2.6722,4.6281 .0754,1.6297-3.4525,2.7744-3.4968,4.7302-.0392,1.7453 3.4669,1.864 3.34,3.4855-.2178,2.7444-3.1057,3.3482-3.0613,5.0099 .0433,1.6597 3.886,2.2924 3.8952,3.6166-.1332,2.5617-.5553,64.833-.5553,64.833-6.1226,31.721-41.46,39.791-51.477-1.9466z"/></g><g fill="#083d9c" stroke="#083d9c"><path d="m236.49,315.3 39.762-.0237c.3096-.3127-8.9021-13.732-19.875-12.786-12.223,.32-20.527,12.81-19.887,12.81z"/><path d="m363.28,314.33h-54.409s7.0422-4.1615 8.962-8.0021c3.5196,1.9208 2.5597,3.8406 9.6019,4.1605 7.0402,.32 13.761-8 20.484-7.6801 6.7202,.32 15.361,11.842 15.361,11.522z"/><path d="m148.87,314.33h54.409s-7.0422-4.1615-8.962-8.0021c-3.5196,1.9208-2.5597,3.8406-9.6019,4.1605-7.0391,.32-13.761-8-20.484-7.6801-6.7202,.32-15.361,11.842-15.361,11.522z"/><path d="m152.93,297.22 38.749,.3117s-2.4998-5.3113-2.8115-11.874c-10.002-3.436-18.126,7.4994-25.314,7.8122-7.1857,.3117-14.685-7.8122-14.685-7.8122l4.0614,11.562z"/><path d="m359.81,297.22-38.75,.3117s2.5008-5.3113 2.8126-11.874c10.001-3.436 18.125,7.4994 25.313,7.8122 7.1867,.3117 14.686-7.8122 14.686-7.8122l-4.0614,11.562z"/><path d="m246.37,297.53 19.686-.6234s.3138-5.9378-9.9992-5.9378c-10.312,0-9.3738,6.875-9.6865,6.5612z"/><path d="m234.49,289.1c3.438-1.8764 6.5623-3.7497 8.7504-8.1259l-13.438,.3117s-6.2475,3.7518-9.3738,7.8142h14.062z"/><path d="m277.93,289.1c-3.438-1.8764-6.5612-3.7497-8.7494-8.1259l13.437,.3117s6.2485,3.7518 9.3738,7.8142h-14.062z"/></g></g><g fill="#de2010" stroke-width="1.25"><path d="m-128,384h768v128h-768z"/><path d="m-128-0h768v128h-768z"/></g></g></g></svg>