<svg xmlns="http://www.w3.org/2000/svg" viewBox="0 0 512 512" xmlns:xlink="http://www.w3.org/1999/xlink"><defs><path id="1" d="m266.19 534.45l-10.408-7.432-10.357 7.505 3.852-12.196-10.338-7.531 12.79-.105 3.967-12.159 4.052 12.13 12.79.016-10.285 7.602 3.937 12.169"/><path id="2" d="m212.74 285.32l11.383-41.98-7.826-9.962-9.249 51.23 5.692.713m-24.19 0l-7.115-57.633 13.518-15.653 13.519 12.807-6.403 59.766-13.519.713m-10.673.712l-11.383-41.98 7.826-9.962 9.249 51.23-5.692.713"/><clipPath id="0"><path d="m192.39 0h708.66v708.66h-708.66z"/></clipPath></defs><g fill-rule="evenodd" clip-path="url(#0)" transform="matrix(.72249 0 0 .72249-139 0)"><g stroke-width="1.25"><path fill="#f50013" d="m0 0h1063v708.66h-1063z"/><path fill="#00189a" d="m0 0h1063v354.33h-1063z"/><path fill="#feffff" d="m0 0l609.96 353.88-609.96 353.42v-707.3"/></g><g fill="#eca300"><use stroke-width=".113" transform="matrix(.87393 1.9702-2.0604.91397 897.48-367.59)" xlink:href="#1"/><g stroke-width="1.25"><use transform="matrix(1 .00099-.00099 1 .352-.194)" xlink:href="#2"/><use transform="matrix(.69319.72076-.72076.69319 314.87-31.94)" xlink:href="#2"/><use transform="matrix(-.00152 1-1-.00152 549.12 159.46)" xlink:href="#2"/><use transform="matrix(-.69917.71495-.71495-.69917 584.26 461.92)" xlink:href="#2"/><use transform="matrix(-.99998.00588-.00588-.99998 391.98 706.6)" xlink:href="#2"/><use transform="matrix(-.70468-.70952.70952-.70468 81.25 741.57)" xlink:href="#2"/><use transform="matrix(-.00558-.99998.99998-.00558-157.83 550.8)" xlink:href="#2"/></g><g stroke-width=".113"><use transform="matrix(2.0518.65988-.69011 2.1458 327.17-931.59)" xlink:href="#1"/><use transform="matrix(1.579 1.467-1.5342 1.6513 444.17-1137)" xlink:href="#1"/></g><ellipse cx="190.68" cy="353.88" rx="73.03" ry="73.03" stroke-width="1.25" transform="translate(4.269)"/></g></g></svg>