<svg xmlns="http://www.w3.org/2000/svg" viewBox="0 0 512 512"><defs><clipPath id="clipPath6532" clipPathUnits="userSpaceOnUse"><path fill-opacity=".67" d="m192.39-0h708.66v708.66h-708.66z"/></clipPath></defs><g fill-rule="evenodd" clip-path="url(#clipPath6532)" transform="matrix(.72249 0 0 .72249 -139 0)"><g stroke-width="1.25"><path fill="#f50013" d="m0,0h1063v708.66h-1063z"/><path fill="#00189a" d="m0,0h1063v354.33h-1063z"/><path fill="#feffff" d="m0,0 609.96,353.88-609.96,353.42v-707.3z"/></g><g fill="#eca300"><path stroke-width=".113" d="m266.19,534.45-10.408-7.432-10.357,7.505 3.852-12.196-10.338-7.531 12.79-.105 3.967-12.159 4.052,12.131 12.79,.016-10.285,7.602 3.937,12.169z" transform="matrix(.87393 1.9702 -2.0604 .91397 897.48 -367.59)"/><g stroke-width="1.25"><path d="m212.74,285.32 11.383-41.98-7.826-9.962-9.249,51.229 5.692,.713zm-24.192,0-7.115-57.633 13.518-15.653 13.519,12.807-6.403,59.766-13.519,.713zm-10.673,.712-11.383-41.98 7.826-9.962 9.249,51.229-5.692,.713z" transform="matrix(.70232 -.71186 .71186 .70232 -193.88 244.12)"/><path d="m212.74,285.32 11.383-41.98-7.826-9.962-9.249,51.229 5.692,.713zm-24.192,0-7.115-57.633 13.518-15.653 13.519,12.807-6.403,59.766-13.519,.713zm-10.673,.712-11.383-41.98 7.826-9.962 9.249,51.229-5.692,.713z" transform="matrix(1 .00099 -.00099 1 .35201 -.19373)"/><path d="m212.74,285.32 11.383-41.98-7.826-9.962-9.249,51.229 5.692,.713zm-24.192,0-7.115-57.633 13.518-15.653 13.519,12.807-6.403,59.766-13.519,.713zm-10.673,.712-11.383-41.98 7.826-9.962 9.249,51.229-5.692,.713z" transform="matrix(.69319 .72076 -.72076 .69319 314.87 -31.94)"/><path d="m212.74,285.32 11.383-41.98-7.826-9.962-9.249,51.229 5.692,.713zm-24.192,0-7.115-57.633 13.518-15.653 13.519,12.807-6.403,59.766-13.519,.713zm-10.673,.712-11.383-41.98 7.826-9.962 9.249,51.229-5.692,.713z" transform="matrix(-.00152 1 -1 -.00152 549.12 159.46)"/><path d="m212.74,285.32 11.383-41.98-7.826-9.962-9.249,51.229 5.692,.713zm-24.192,0-7.115-57.633 13.518-15.653 13.519,12.807-6.403,59.766-13.519,.713zm-10.673,.712-11.383-41.98 7.826-9.962 9.249,51.229-5.692,.713z" transform="matrix(-.69917 .71495 -.71495 -.69917 584.26 461.92)"/><path d="m212.74,285.32 11.383-41.98-7.826-9.962-9.249,51.229 5.692,.713zm-24.192,0-7.115-57.633 13.518-15.653 13.519,12.807-6.403,59.766-13.519,.713zm-10.673,.712-11.383-41.98 7.826-9.962 9.249,51.229-5.692,.713z" transform="matrix(-.99998 .00588 -.00588 -.99998 391.98 706.6)"/><path d="m212.74,285.32 11.383-41.98-7.826-9.962-9.249,51.229 5.692,.713zm-24.192,0-7.115-57.633 13.518-15.653 13.519,12.807-6.403,59.766-13.519,.713zm-10.673,.712-11.383-41.98 7.826-9.962 9.249,51.229-5.692,.713z" transform="matrix(-.70468 -.70952 .70952 -.70468 81.249 741.57)"/><path d="m212.74,285.32 11.383-41.98-7.826-9.962-9.249,51.229 5.692,.713zm-24.192,0-7.115-57.633 13.518-15.653 13.519,12.807-6.403,59.766-13.519,.713zm-10.673,.712-11.383-41.98 7.826-9.962 9.249,51.229-5.692,.713z" transform="matrix(-.00558 -.99998 .99998 -.00558 -157.83 550.8)"/></g><g stroke-width=".113"><path d="m266.19,534.45-10.408-7.432-10.357,7.505 3.852-12.196-10.338-7.531 12.79-.105 3.967-12.159 4.052,12.131 12.79,.016-10.285,7.602 3.937,12.169z" transform="matrix(2.0518 .65988 -.69011 2.1458 327.17 -931.59)"/><path d="m266.19,534.45-10.408-7.432-10.357,7.505 3.852-12.196-10.338-7.531 12.79-.105 3.967-12.159 4.052,12.131 12.79,.016-10.285,7.602 3.937,12.169z" transform="matrix(1.579 1.467 -1.5342 1.6513 444.17 -1137)"/></g><ellipse cx="190.68" cy="353.88" rx="73.029" ry="73.029" stroke-width="1.25" d="m 263.71223,353.87601 c 0,40.33258 -32.69602,73.02859 -73.02861,73.02859 -40.33258,0 -73.0286,-32.69601 -73.0286,-73.02859 0,-40.33258 32.69602,-73.0286 73.0286,-73.0286 40.33259,0 73.02861,32.69602 73.02861,73.0286 z" transform="translate(4.269 -.00002)"/></g></g></svg>