<svg xmlns="http://www.w3.org/2000/svg" viewBox="0 0 512 512"><defs><clipPath id="0"><path d="m0 0h512v512h-512z"/></clipPath></defs><g fill-rule="evenodd" stroke-width="1.25" clip-path="url(#0)"><path fill="#0c590b" d="m-95 0h768v512h-768z"/><g fill="#fff"><path d="m-95 0h192.52v512h-192.52z"/><g transform="matrix(.78618 0 0 .78618 1.115 55.13)"><path d="m512.08 216.58l-39.641-8.339-20.846 34.733-4.319-40.28-39.476-9.09 36.972-16.554-3.55-40.35 27.17 30.05 37.28-15.846-20.18 35.12 26.591 30.56"/><path d="m527.03 319.21c-35.19 77.54-127.55 111.41-205.31 75.39-77.77-36.03-111.65-128.38-75.62-206.15 18.376-39.665 48.45-66.923 90.9-81.8-4.883 4.129-9.714 8.412-15.01 13.875-54.836 56.59-53.41 147.03 3.179 201.86 56.59 54.836 147.03 53.41 201.86-3.179z"/></g></g></g></svg>