<svg xmlns="http://www.w3.org/2000/svg" viewBox="0 0 512 512"><defs><clipPath id="clipPath6343" clipPathUnits="userSpaceOnUse"><path fill-opacity=".67" d="m51.624-0h708.66v708.66h-708.66z"/></clipPath></defs><g fill-rule="evenodd" clip-path="url(#clipPath6343)" transform="matrix(.72249 0 0 .72249 -37.298 0)"><g stroke-width="1.25"><path fill="#ed0000" d="m0,0h1063v708.66h-1063z"/><g fill="#fff"><path d="m0,141.73h1063v141.73h-1063z"/><path d="m0,425.2h1063v141.73h-1063z"/></g><path fill="#0050f0" d="m0,0 609.96,353.88-609.96,353.42v-707.3z"/></g><path fill="#fff" stroke-width=".113" d="m266.19,534.45-10.408-7.432-10.357,7.505 3.852-12.196-10.338-7.531 12.79-.105 3.967-12.159 4.052,12.131 12.79,.016-10.285,7.602 3.937,12.169z" transform="matrix(6.3097 0 0 6.5987 -1411.4 -3076.2)"/></g></svg>