<svg xmlns="http://www.w3.org/2000/svg" viewBox="0 0 512 512" xmlns:xlink="http://www.w3.org/1999/xlink"><defs><clipPath id="clipPath12804" clipPathUnits="userSpaceOnUse"><path fill-opacity=".67" d="m0,0h512v512h-512z"/></clipPath><linearGradient gradientTransform="matrix(.08002 0 0 .1332 -143.77 670.73)" id="linearGradient11677" x1="359.59" gradientUnits="userSpaceOnUse" x2="4203.4"><stop offset="0"/><stop offset="1" stop-color="#fff"/></linearGradient></defs><g clip-path="url(#clipPath12804)"><path fill="#090" stroke="url(#linearGradient11677)" stroke-width=".129" d="m-114.94,.0645h307.43v511.8705h-307.43z"/><g fill-rule="evenodd" stroke-width="1.25"><path fill="#f00" d="m191.82-0h461.15v512h-461.15z"/><g transform="matrix(.10329 0 0 .10306 23.562 74.592)"><g transform="matrix(-.0534 1.0792 .43966 -.04359 1384.9 -475.58)"><path d="m1528.3,376.91h171.54v2824.2h-171.54z"/><path fill="#efef00" d="m1548.3,404.6h131.37v2768.8h-131.37z"/><g transform="translate(9.3838 -.00003)"><path d="m1482.6,357.96h56.3v2852.7h-56.3z"/><path fill="#efef00" d="m1502.8,383.29h15.95v2802h-15.95z"/></g><g transform="translate(197.06 -.00003)"><path d="m1482.6,357.96h56.3v2852.7h-56.3z"/><path fill="#efef00" d="m1502.8,383.29h15.95v2802h-15.95z"/></g></g><g transform="matrix(-.0534 1.0792 .43966 -.04359 1572.6 115.61)"><path d="m1528.3,376.91h171.54v2824.2h-171.54z"/><path fill="#efef00" d="m1548.3,404.6h131.37v2768.8h-131.37z"/><g transform="translate(9.3838 -.00003)"><path d="m1482.6,357.96h56.3v2852.7h-56.3z"/><path fill="#efef00" d="m1502.8,383.29h15.95v2802h-15.95z"/></g><g transform="translate(197.06 -.00003)"><path d="m1482.6,357.96h56.3v2852.7h-56.3z"/><path fill="#efef00" d="m1502.8,383.29h15.95v2802h-15.95z"/></g></g><g transform="matrix(-.0534 1.0792 .43966 -.04359 1497.5 781.86)"><path d="m1528.3,376.91h171.54v2824.2h-171.54z"/><path fill="#efef00" d="m1548.3,404.6h131.37v2768.8h-131.37z"/><g transform="translate(9.3838 -.00003)"><path d="m1482.6,357.96h56.3v2852.7h-56.3z"/><path fill="#efef00" d="m1502.8,383.29h15.95v2802h-15.95z"/></g><g transform="translate(197.06 -.00003)"><path d="m1482.6,357.96h56.3v2852.7h-56.3z"/><path fill="#efef00" d="m1502.8,383.29h15.95v2802h-15.95z"/></g></g><g transform="matrix(.0534 1.0792 -.43966 -.04359 1815 734.94)"><path d="m1528.3,376.91h171.54v2824.2h-171.54z"/><path fill="#efef00" d="m1548.3,404.6h131.37v2768.8h-131.37z"/><g transform="translate(9.3838 -.00003)"><path d="m1482.6,357.96h56.3v2852.7h-56.3z"/><path fill="#efef00" d="m1502.8,383.29h15.95v2802h-15.95z"/></g><g transform="translate(197.06 -.00003)"><path d="m1482.6,357.96h56.3v2852.7h-56.3z"/><path fill="#efef00" d="m1502.8,383.29h15.95v2802h-15.95z"/></g></g><g transform="matrix(-.31852 .97312 -.46881 -.05 2307.7 363.88)"><path d="m1528.3,376.91h171.54v2824.2h-171.54z"/><path fill="#efef00" d="m1548.3,404.6h131.37v2768.8h-131.37z"/><g transform="translate(9.3838 -.00003)"><path d="m1482.6,357.96h56.3v2852.7h-56.3z"/><path fill="#efef00" d="m1502.8,383.29h15.95v2802h-15.95z"/></g><g transform="translate(197.06 -.00003)"><path d="m1482.6,357.96h56.3v2852.7h-56.3z"/><path fill="#efef00" d="m1502.8,383.29h15.95v2802h-15.95z"/></g></g><g transform="matrix(-.78495 .83247 -.34476 -.23585 2811.1 622.21)"><path d="m1528.3,376.91h171.54v2824.2h-171.54z"/><path fill="#efef00" d="m1548.3,404.6h131.37v2768.8h-131.37z"/><g transform="translate(9.3838 -.00003)"><path d="m1482.6,357.96h56.3v2852.7h-56.3z"/><path fill="#efef00" d="m1502.8,383.29h15.95v2802h-15.95z"/></g><g transform="translate(197.06 -.00003)"><path d="m1482.6,357.96h56.3v2852.7h-56.3z"/><path fill="#efef00" d="m1502.8,383.29h15.95v2802h-15.95z"/></g></g><g transform="translate(3443.9 797.63)"><path fill="#efef00" fill-opacity="1" d="m-576.02-680.03c.472,617.58-500.34,1118.8-1117.9,1118.8-617.58,.981-1119.2-499.44-1119.7-1117-1.49-617.6 498.53-1119.6 1116.1-1120.6 617.58-1.96 1120,497.67 1121.5,1115.2 .026,1.253 .026,2.31 .026,3.564zm262.44-.001c.582,762.45-617.7,1381.2-1380.1,1381.2-762.44,1.211-1381.8-616.6-1382.3-1379-1.85-762.47 615.47-1382.2 1377.9-1383.4 762.45-2.42 1382.7,614.41 1384.5,1376.8 .032,1.547 .032,2.852 .032,4.399z" transform="translate(-149.86 1690.5)"/><path d="m296.75,2625.1c.582,762.45-617.7,1381.2-1380.1,1381.2-762.45,1.21-1381.8-616.6-1382.4-1379-1.84-762.46 615.48-1382.2 1378-1383.4 762.45-2.42 1382.7,614.41 1384.5,1376.8 .032,1.55 .032,2.86 .032,4.4zm-27.624,0c.57,747.2-605.35,1353.6-1352.5,1353.6-747.2,1.18-1354.1-604.27-1354.7-1351.5-1.81-747.21 603.16-1354.6 1350.4-1355.8 747.2-2.38 1355,602.11 1356.8,1349.3 .032,1.52 .032,2.8 .032,4.31z" transform="matrix(.98 0 0 .98 -781.88 -1562.1)"/><path d="m296.75,2625.1c.582,762.45-617.7,1381.2-1380.1,1381.2-762.45,1.21-1381.8-616.6-1382.4-1379-1.84-762.46 615.48-1382.2 1378-1383.4 762.45-2.42 1382.7,614.41 1384.5,1376.8 .032,1.55 .032,2.86 .032,4.4zm-27.624,0c.57,747.2-605.35,1353.6-1352.5,1353.6-747.2,1.18-1354.1-604.27-1354.7-1351.5-1.81-747.21 603.16-1354.6 1350.4-1355.8 747.2-2.38 1355,602.11 1356.8,1349.3 .032,1.52 .032,2.8 .032,4.31z" transform="matrix(.85016 0 0 .85016 -922.69 -1221.3)"/></g><g transform="matrix(1 0 0 .98355 9.3838 52.807)"><path d="m1528.3,376.91h171.54v2824.2h-171.54z"/><path fill="#efef00" d="m1548.3,404.6h131.37v2768.8h-131.37z"/><g transform="translate(9.3838 -.00003)"><path d="m1482.6,357.96h56.3v2852.7h-56.3z"/><path fill="#efef00" d="m1502.8,383.29h15.95v2802h-15.95z"/></g><g transform="translate(197.06 -.00003)"><path d="m1482.6,357.96h56.3v2852.7h-56.3z"/><path fill="#efef00" d="m1502.8,383.29h15.95v2802h-15.95z"/></g></g><g transform="matrix(.3714 1.0146 -.43278 .08892 1148.7 461.89)"><path d="m1528.3,376.91h171.54v2824.2h-171.54z"/><path fill="#efef00" d="m1548.3,404.6h131.37v2768.8h-131.37z"/><g transform="translate(9.3838 -.00003)"><path d="m1482.6,357.96h56.3v2852.7h-56.3z"/><path fill="#efef00" d="m1502.8,383.29h15.95v2802h-15.95z"/></g><g transform="translate(197.06 -.00003)"><path d="m1482.6,357.96h56.3v2852.7h-56.3z"/><path fill="#efef00" d="m1502.8,383.29h15.95v2802h-15.95z"/></g></g><g transform="matrix(.04818 1.0353 -.45375 .04928 1585.8 -73.118)"><path d="m1528.3,376.91h171.54v2824.2h-171.54z"/><path fill="#efef00" d="m1548.3,404.6h131.37v2768.8h-131.37z"/><g transform="translate(9.3838 -.00003)"><path d="m1482.6,357.96h56.3v2852.7h-56.3z"/><path fill="#efef00" d="m1502.8,383.29h15.95v2802h-15.95z"/></g><g transform="translate(197.06 -.00003)"><path d="m1482.6,357.96h56.3v2852.7h-56.3z"/><path fill="#efef00" d="m1502.8,383.29h15.95v2802h-15.95z"/></g></g><g transform="matrix(-.61913 .96221 -.38214 -.16868 2610.1 86.531)"><path d="m1528.3,376.91h171.54v2824.2h-171.54z"/><path fill="#efef00" d="m1548.3,404.6h131.37v2768.8h-131.37z"/><g transform="translate(9.3838 -.00003)"><path d="m1482.6,357.96h56.3v2852.7h-56.3z"/><path fill="#efef00" d="m1502.8,383.29h15.95v2802h-15.95z"/></g><g transform="translate(197.06 -.00003)"><path d="m1482.6,357.96h56.3v2852.7h-56.3z"/><path fill="#efef00" d="m1502.8,383.29h15.95v2802h-15.95z"/></g></g><g transform="matrix(-.0134 1.0347 -.45603 -.02215 3190.7 -29.14)"><path d="m1528.3,376.91h171.54v2824.2h-171.54z"/><path fill="#efef00" d="m1548.3,404.6h131.37v2768.8h-131.37z"/><g transform="translate(9.3838 -.00003)"><path d="m1482.6,357.96h56.3v2852.7h-56.3z"/><path fill="#efef00" d="m1502.8,383.29h15.95v2802h-15.95z"/></g><g transform="translate(197.06 -.00003)"><path d="m1482.6,357.96h56.3v2852.7h-56.3z"/><path fill="#efef00" d="m1502.8,383.29h15.95v2802h-15.95z"/></g></g><g transform="matrix(.29417 .92656 -.37653 -.01188 2458.6 -379.7)"><path d="m1528.3,376.91h171.54v2824.2h-171.54z"/><path fill="#efef00" d="m1548.3,404.6h131.37v2768.8h-131.37z"/><g transform="translate(9.3838 -.00003)"><path d="m1482.6,357.96h56.3v2852.7h-56.3z"/><path fill="#efef00" d="m1502.8,383.29h15.95v2802h-15.95z"/></g><g transform="translate(197.06 -.00003)"><path d="m1482.6,357.96h56.3v2852.7h-56.3z"/><path fill="#efef00" d="m1502.8,383.29h15.95v2802h-15.95z"/></g></g><g transform="matrix(-.44645 .96157 -.41974 -.15349 3749.8 876.84)"><path d="m1528.3,376.91h171.54v2824.2h-171.54z"/><path fill="#efef00" d="m1548.3,404.6h131.37v2768.8h-131.37z"/><g transform="translate(9.3838 -.00003)"><path d="m1482.6,357.96h56.3v2852.7h-56.3z"/><path fill="#efef00" d="m1502.8,383.29h15.95v2802h-15.95z"/></g><g transform="translate(197.06 -.00003)"><path d="m1482.6,357.96h56.3v2852.7h-56.3z"/><path fill="#efef00" d="m1502.8,383.29h15.95v2802h-15.95z"/></g></g><g><g transform="translate(388.6 -627.37)"><g fill="#f6f6fb" transform="translate(1261.6 8670.4)"><g><path d="m-850.89-7147h1590.9v1171.1h-1590.9z"/><ellipse cx="2861.4" cy="4267.3" rx="740.21" ry="696.02" d="m 3601.6224,4267.3076 c 0,384.4008 -331.4036,696.0192 -740.2108,696.0192 -408.8071,0 -740.2108,-311.6184 -740.2108,-696.0192 0,-384.4008 331.4037,-696.0191 740.2108,-696.0191 408.8072,0 740.2108,311.6183 740.2108,696.0191 z" transform="matrix(1.0746 0 0 1.0635 -3130.4 -10547)"/></g><g transform="translate(-5963.8 -3463.6)"><path d="m5478.8-3340.7h859.09v632.38h-859.09z"/><ellipse cx="2861.4" cy="4267.3" rx="740.21" ry="696.02" d="m 3601.6224,4267.3076 c 0,384.4008 -331.4036,696.0192 -740.2108,696.0192 -408.8071,0 -740.2108,-311.6184 -740.2108,-696.0192 0,-384.4008 331.4037,-696.0191 740.2108,-696.0191 408.8072,0 740.2108,311.6183 740.2108,696.0191 z" transform="matrix(.5803 0 0 .57429 4247.9 -5088.5)"/></g></g><g transform="translate(-4610.5 4587.5)"><g fill="#f00" transform="matrix(.95 0 0 .95 5869.2 3772.5)"><g><path d="m-850.89-7147h1590.9v1171.1h-1590.9z"/><ellipse cx="2861.4" cy="4267.3" rx="740.21" ry="696.02" d="m 3601.6224,4267.3076 c 0,384.4008 -331.4036,696.0192 -740.2108,696.0192 -408.8071,0 -740.2108,-311.6184 -740.2108,-696.0192 0,-384.4008 331.4037,-696.0191 740.2108,-696.0191 408.8072,0 740.2108,311.6183 740.2108,696.0191 z" transform="matrix(1.0746 0 0 1.0635 -3130.4 -10547)"/></g><g transform="translate(-5963.8 -3463.6)"><path d="m5478.8-3340.7h859.09v632.38h-859.09z"/><ellipse cx="2861.4" cy="4267.3" rx="740.21" ry="696.02" d="m 3601.6224,4267.3076 c 0,384.4008 -331.4036,696.0192 -740.2108,696.0192 -408.8071,0 -740.2108,-311.6184 -740.2108,-696.0192 0,-384.4008 331.4037,-696.0191 740.2108,-696.0191 408.8072,0 740.2108,311.6183 740.2108,696.0191 z" transform="matrix(.5803 0 0 .57429 4247.9 -5088.5)"/></g></g><g fill="#400" transform="matrix(.567 0 0 .567 5848 1394.8)"><g><path d="m-850.89-7147h1590.9v1171.1h-1590.9z"/><ellipse cx="2861.4" cy="4267.3" rx="740.21" ry="696.02" d="m 3601.6224,4267.3076 c 0,384.4008 -331.4036,696.0192 -740.2108,696.0192 -408.8071,0 -740.2108,-311.6184 -740.2108,-696.0192 0,-384.4008 331.4037,-696.0191 740.2108,-696.0191 408.8072,0 740.2108,311.6183 740.2108,696.0191 z" transform="matrix(1.0746 0 0 1.0635 -3130.4 -10547)"/></g><g transform="translate(-5963.8 -3463.6)"><path d="m5478.8-3340.7h859.09v632.38h-859.09z"/><ellipse cx="2861.4" cy="4267.3" rx="740.21" ry="696.02" d="m 3601.6224,4267.3076 c 0,384.4008 -331.4036,696.0192 -740.2108,696.0192 -408.8071,0 -740.2108,-311.6184 -740.2108,-696.0192 0,-384.4008 331.4037,-696.0191 740.2108,-696.0191 408.8072,0 740.2108,311.6183 740.2108,696.0191 z" transform="matrix(.5803 0 0 .57429 4247.9 -5088.5)"/></g></g><g fill="#fff" transform="matrix(.51172 0 0 .51172 5844.9 1051.6)"><g><path d="m-850.89-7147h1590.9v1171.1h-1590.9z"/><ellipse cx="2861.4" cy="4267.3" rx="740.21" ry="696.02" d="m 3601.6224,4267.3076 c 0,384.4008 -331.4036,696.0192 -740.2108,696.0192 -408.8071,0 -740.2108,-311.6184 -740.2108,-696.0192 0,-384.4008 331.4037,-696.0191 740.2108,-696.0191 408.8072,0 740.2108,311.6183 740.2108,696.0191 z" transform="matrix(1.0746 0 0 1.0635 -3130.4 -10547)"/></g><g transform="translate(-5963.8 -3463.6)"><path d="m5478.8-3340.7h859.09v632.38h-859.09z"/><ellipse cx="2861.4" cy="4267.3" rx="740.21" ry="696.02" d="m 3601.6224,4267.3076 c 0,384.4008 -331.4036,696.0192 -740.2108,696.0192 -408.8071,0 -740.2108,-311.6184 -740.2108,-696.0192 0,-384.4008 331.4037,-696.0191 740.2108,-696.0191 408.8072,0 740.2108,311.6183 740.2108,696.0191 z" transform="matrix(.5803 0 0 .57429 4247.9 -5088.5)"/></g></g></g></g><g transform="translate(-1370 3907.3)"><g fill="#3b3bff" transform="matrix(.15 0 0 .15 2790 -2140.7)"><g transform="translate(1261.6 8670.4)"><g><path d="m-850.89-7147h1590.9v1171.1h-1590.9z"/><ellipse cx="2861.4" cy="4267.3" rx="740.21" ry="696.02" d="m 3601.6224,4267.3076 c 0,384.4008 -331.4036,696.0192 -740.2108,696.0192 -408.8071,0 -740.2108,-311.6184 -740.2108,-696.0192 0,-384.4008 331.4037,-696.0191 740.2108,-696.0191 408.8072,0 740.2108,311.6183 740.2108,696.0191 z" transform="matrix(1.0746 0 0 1.0635 -3130.4 -10547)"/></g><g transform="translate(-5963.8 -3463.6)"><path d="m5478.8-3340.7h859.09v632.38h-859.09z"/><ellipse cx="2861.4" cy="4267.3" rx="740.21" ry="696.02" d="m 3601.6224,4267.3076 c 0,384.4008 -331.4036,696.0192 -740.2108,696.0192 -408.8071,0 -740.2108,-311.6184 -740.2108,-696.0192 0,-384.4008 331.4037,-696.0191 740.2108,-696.0191 408.8072,0 740.2108,311.6183 740.2108,696.0191 z" transform="matrix(.5803 0 0 .57429 4247.9 -5088.5)"/></g></g><g transform="translate(-4610.5 4587.5)"><g transform="matrix(.95 0 0 .95 5869.2 3772.5)"><g><path d="m-850.89-7147h1590.9v1171.1h-1590.9z"/><ellipse cx="2861.4" cy="4267.3" rx="740.21" ry="696.02" d="m 3601.6224,4267.3076 c 0,384.4008 -331.4036,696.0192 -740.2108,696.0192 -408.8071,0 -740.2108,-311.6184 -740.2108,-696.0192 0,-384.4008 331.4037,-696.0191 740.2108,-696.0191 408.8072,0 740.2108,311.6183 740.2108,696.0191 z" transform="matrix(1.0746 0 0 1.0635 -3130.4 -10547)"/></g><g transform="translate(-5963.8 -3463.6)"><path d="m5478.8-3340.7h859.09v632.38h-859.09z"/><ellipse cx="2861.4" cy="4267.3" rx="740.21" ry="696.02" d="m 3601.6224,4267.3076 c 0,384.4008 -331.4036,696.0192 -740.2108,696.0192 -408.8071,0 -740.2108,-311.6184 -740.2108,-696.0192 0,-384.4008 331.4037,-696.0191 740.2108,-696.0191 408.8072,0 740.2108,311.6183 740.2108,696.0191 z" transform="matrix(.5803 0 0 .57429 4247.9 -5088.5)"/></g></g><g transform="matrix(.567 0 0 .567 5848 1394.8)"><g><path d="m-850.89-7147h1590.9v1171.1h-1590.9z"/><ellipse cx="2861.4" cy="4267.3" rx="740.21" ry="696.02" d="m 3601.6224,4267.3076 c 0,384.4008 -331.4036,696.0192 -740.2108,696.0192 -408.8071,0 -740.2108,-311.6184 -740.2108,-696.0192 0,-384.4008 331.4037,-696.0191 740.2108,-696.0191 408.8072,0 740.2108,311.6183 740.2108,696.0191 z" transform="matrix(1.0746 0 0 1.0635 -3130.4 -10547)"/></g><g transform="translate(-5963.8 -3463.6)"><path d="m5478.8-3340.7h859.09v632.38h-859.09z"/><ellipse cx="2861.4" cy="4267.3" rx="740.21" ry="696.02" d="m 3601.6224,4267.3076 c 0,384.4008 -331.4036,696.0192 -740.2108,696.0192 -408.8071,0 -740.2108,-311.6184 -740.2108,-696.0192 0,-384.4008 331.4037,-696.0191 740.2108,-696.0191 408.8072,0 740.2108,311.6183 740.2108,696.0191 z" transform="matrix(.5803 0 0 .57429 4247.9 -5088.5)"/></g></g><g transform="matrix(.51172 0 0 .51172 5844.9 1051.6)"><g><path d="m-850.89-7147h1590.9v1171.1h-1590.9z"/><ellipse cx="2861.4" cy="4267.3" rx="740.21" ry="696.02" d="m 3601.6224,4267.3076 c 0,384.4008 -331.4036,696.0192 -740.2108,696.0192 -408.8071,0 -740.2108,-311.6184 -740.2108,-696.0192 0,-384.4008 331.4037,-696.0191 740.2108,-696.0191 408.8072,0 740.2108,311.6183 740.2108,696.0191 z" transform="matrix(1.0746 0 0 1.0635 -3130.4 -10547)"/></g><g transform="translate(-5963.8 -3463.6)"><path d="m5478.8-3340.7h859.09v632.38h-859.09z"/><ellipse cx="2861.4" cy="4267.3" rx="740.21" ry="696.02" d="m 3601.6224,4267.3076 c 0,384.4008 -331.4036,696.0192 -740.2108,696.0192 -408.8071,0 -740.2108,-311.6184 -740.2108,-696.0192 0,-384.4008 331.4037,-696.0191 740.2108,-696.0191 408.8072,0 740.2108,311.6183 740.2108,696.0191 z" transform="matrix(.5803 0 0 .57429 4247.9 -5088.5)"/></g></g></g></g><g fill="#fff"><ellipse cx="2903" cy="-1854.9" rx="35.688" ry="35.688" d="m 2938.7051,-1854.9092 c 0,19.71 -15.9781,35.6881 -35.688,35.6881 -19.7099,0 -35.688,-15.9781 -35.688,-35.6881 0,-19.7099 15.9781,-35.688 35.688,-35.688 19.7099,0 35.688,15.9781 35.688,35.688 z" transform="translate(-3.7817 -7.5629)"/><ellipse cx="2903" cy="-1854.9" rx="35.688" ry="35.688" d="m 2938.7051,-1854.9092 c 0,19.71 -15.9781,35.6881 -35.688,35.6881 -19.7099,0 -35.688,-15.9781 -35.688,-35.6881 0,-19.7099 15.9781,-35.688 35.688,-35.688 19.7099,0 35.688,15.9781 35.688,35.688 z" transform="translate(129.99 -7.5629)"/><ellipse cx="2903" cy="-1854.9" rx="35.688" ry="35.688" d="m 2938.7051,-1854.9092 c 0,19.71 -15.9781,35.6881 -35.688,35.6881 -19.7099,0 -35.688,-15.9781 -35.688,-35.6881 0,-19.7099 15.9781,-35.688 35.688,-35.688 19.7099,0 35.688,15.9781 35.688,35.688 z" transform="translate(61.922 67.595)"/><ellipse cx="2903" cy="-1854.9" rx="35.688" ry="35.688" d="m 2938.7051,-1854.9092 c 0,19.71 -15.9781,35.6881 -35.688,35.6881 -19.7099,0 -35.688,-15.9781 -35.688,-35.6881 0,-19.7099 15.9781,-35.688 35.688,-35.688 19.7099,0 35.688,15.9781 35.688,35.688 z" transform="translate(1.4179 140.39)"/><ellipse cx="2903" cy="-1854.9" rx="35.688" ry="35.688" d="m 2938.7051,-1854.9092 c 0,19.71 -15.9781,35.6881 -35.688,35.6881 -19.7099,0 -35.688,-15.9781 -35.688,-35.6881 0,-19.7099 15.9781,-35.688 35.688,-35.688 19.7099,0 35.688,15.9781 35.688,35.688 z" transform="translate(128.57 142.75)"/></g></g><path fill="#ff0" d="m-433.9,545.04v22.689h302.52v-22.689h-302.52zm26.249-62.601v63.152h257.14v-63.152h-257.14zm-22.688,207.62v22.692h302.52v-22.692h-302.52zm81.069-7.017c-.031-41.191 31.622-74.621 70.654-74.621 39.033-.066 70.737,33.311 70.768,74.502 0,.327-.001,.602-.004,.928m-149.28,3.292c-.034-45.769 35.136-82.913 78.505-82.913 43.37-.073 78.596,37.012 78.63,82.78 .001,.363 0,.669-.004,1.031m-207.65-114.09v113.44h257.14v-113.44h-257.14zm-26.26-113.15v21.46h302.52v-21.46h-302.52zm-.027-30.268v30.484h23.308v-30.484h-23.308zm279.36,0v30.484h23.308v-30.484h-23.308zm-232.9,.612v30.484h23.308v-30.484h-23.308zm185.22-.618v30.484h23.308v-30.484h-23.308zm-139.99-28.725v30.484h23.308v-30.484h-23.308zm92.917-.006v30.484h23.308v-30.484h-23.308zm-45.236-.612v30.484h23.308v-30.484h-23.308zm-47.745,31.32v29.144h116.15v-29.144h-116.15z" transform="translate(1296.7 561.41)"/><g fill="#f00" transform="translate(1302.4 561.96)"><path d="m-348.96,477.6h23.308v30.484h-23.308z"/><path d="m-244.43,476.98h23.308v30.484h-23.308z"/></g><path fill="#ff0" d="m-433.9,545.04v22.689h302.52v-22.689h-302.52zm26.249-62.601v63.152h257.14v-63.152h-257.14zm-22.688,207.62v22.692h302.52v-22.692h-302.52zm81.069-7.017c-.031-41.191 31.622-74.621 70.654-74.621 39.033-.066 70.737,33.311 70.768,74.502 0,.327-.001,.602-.004,.928m-149.28,3.292c-.034-45.769 35.136-82.913 78.505-82.913 43.37-.073 78.596,37.012 78.63,82.78 .001,.363 0,.669-.004,1.031m-207.65-114.09v113.44h257.14v-113.44h-257.14zm-26.26-113.15v21.46h302.52v-21.46h-302.52zm-.027-30.268v30.484h23.308v-30.484h-23.308zm279.36,0v30.484h23.308v-30.484h-23.308zm-232.9,.612v30.484h23.308v-30.484h-23.308zm185.22-.618v30.484h23.308v-30.484h-23.308zm-139.99-28.725v30.484h23.308v-30.484h-23.308zm92.917-.006v30.484h23.308v-30.484h-23.308zm-45.236-.612v30.484h23.308v-30.484h-23.308zm-47.745,31.32v29.144h116.15v-29.144h-116.15z" transform="translate(2457.9 565.04)"/><g fill="#f00" transform="translate(2463.5 565.59)"><path d="m-348.96,477.6h23.308v30.484h-23.308z"/><path d="m-244.43,476.98h23.308v30.484h-23.308z"/></g><path fill="#ff0" d="m-433.9,545.04v22.689h302.52v-22.689h-302.52zm26.249-62.601v63.152h257.14v-63.152h-257.14zm-22.688,207.62v22.692h302.52v-22.692h-302.52zm81.069-7.017c-.031-41.191 31.622-74.621 70.654-74.621 39.033-.066 70.737,33.311 70.768,74.502 0,.327-.001,.602-.004,.928m-149.28,3.292c-.034-45.769 35.136-82.913 78.505-82.913 43.37-.073 78.596,37.012 78.63,82.78 .001,.363 0,.669-.004,1.031m-207.65-114.09v113.44h257.14v-113.44h-257.14zm-26.26-113.15v21.46h302.52v-21.46h-302.52zm-.027-30.268v30.484h23.308v-30.484h-23.308zm279.36,0v30.484h23.308v-30.484h-23.308zm-232.9,.612v30.484h23.308v-30.484h-23.308zm185.22-.618v30.484h23.308v-30.484h-23.308zm-139.99-28.725v30.484h23.308v-30.484h-23.308zm92.917-.006v30.484h23.308v-30.484h-23.308zm-45.236-.612v30.484h23.308v-30.484h-23.308zm-47.745,31.32v29.144h116.15v-29.144h-116.15z" transform="translate(1888.2 565.04)"/><g fill="#f00" transform="translate(1893.8 565.59)"><path d="m-348.96,477.6h23.308v30.484h-23.308z"/><path d="m-244.43,476.98h23.308v30.484h-23.308z"/></g><path fill="#ff0" d="m-433.9,545.04v22.689h302.52v-22.689h-302.52zm26.249-62.601v63.152h257.14v-63.152h-257.14zm-22.688,207.62v22.692h302.52v-22.692h-302.52zm81.069-7.017c-.031-41.191 31.622-74.621 70.654-74.621 39.033-.066 70.737,33.311 70.768,74.502 0,.327-.001,.602-.004,.928m-149.28,3.292c-.034-45.769 35.136-82.913 78.505-82.913 43.37-.073 78.596,37.012 78.63,82.78 .001,.363 0,.669-.004,1.031m-207.65-114.09v113.44h257.14v-113.44h-257.14zm-26.26-113.15v21.46h302.52v-21.46h-302.52zm-.027-30.268v30.484h23.308v-30.484h-23.308zm279.36,0v30.484h23.308v-30.484h-23.308zm-232.9,.612v30.484h23.308v-30.484h-23.308zm185.22-.618v30.484h23.308v-30.484h-23.308zm-139.99-28.725v30.484h23.308v-30.484h-23.308zm92.917-.006v30.484h23.308v-30.484h-23.308zm-45.236-.612v30.484h23.308v-30.484h-23.308zm-47.745,31.32v29.144h116.15v-29.144h-116.15z" transform="translate(1271.3 1272.6)"/><g fill="#f00" transform="translate(1277 1273.2)"><path d="m-348.96,477.6h23.308v30.484h-23.308z"/><path d="m-244.43,476.98h23.308v30.484h-23.308z"/></g><path fill="#ff0" d="m-433.9,545.04v22.689h302.52v-22.689h-302.52zm26.249-62.601v63.152h257.14v-63.152h-257.14zm-22.688,207.62v22.692h302.52v-22.692h-302.52zm81.069-7.017c-.031-41.191 31.622-74.621 70.654-74.621 39.033-.066 70.737,33.311 70.768,74.502 0,.327-.001,.602-.004,.928m-149.28,3.292c-.034-45.769 35.136-82.913 78.505-82.913 43.37-.073 78.596,37.012 78.63,82.78 .001,.363 0,.669-.004,1.031m-207.65-114.09v113.44h257.14v-113.44h-257.14zm-26.26-113.15v21.46h302.52v-21.46h-302.52zm-.027-30.268v30.484h23.308v-30.484h-23.308zm279.36,0v30.484h23.308v-30.484h-23.308zm-232.9,.612v30.484h23.308v-30.484h-23.308zm185.22-.618v30.484h23.308v-30.484h-23.308zm-139.99-28.725v30.484h23.308v-30.484h-23.308zm92.917-.006v30.484h23.308v-30.484h-23.308zm-45.236-.612v30.484h23.308v-30.484h-23.308zm-47.745,31.32v29.144h116.15v-29.144h-116.15z" transform="translate(2479.7 1265.4)"/><g fill="#f00" transform="translate(2485.3 1265.9)"><path d="m-348.96,477.6h23.308v30.484h-23.308z"/><path d="m-244.43,476.98h23.308v30.484h-23.308z"/></g><path fill="#ff0" d="m-433.9,545.04v22.689h302.52v-22.689h-302.52zm26.249-62.601v63.152h257.14v-63.152h-257.14zm-22.688,207.62v22.692h302.52v-22.692h-302.52zm81.069-7.017c-.031-41.191 31.622-74.621 70.654-74.621 39.033-.066 70.737,33.311 70.768,74.502 0,.327-.001,.602-.004,.928m-149.28,3.292c-.034-45.769 35.136-82.913 78.505-82.913 43.37-.073 78.596,37.012 78.63,82.78 .001,.363 0,.669-.004,1.031m-207.65-114.09v113.44h257.14v-113.44h-257.14zm-26.26-113.15v21.46h302.52v-21.46h-302.52zm-.027-30.268v30.484h23.308v-30.484h-23.308zm279.36,0v30.484h23.308v-30.484h-23.308zm-232.9,.612v30.484h23.308v-30.484h-23.308zm185.22-.618v30.484h23.308v-30.484h-23.308zm-139.99-28.725v30.484h23.308v-30.484h-23.308zm92.917-.006v30.484h23.308v-30.484h-23.308zm-45.236-.612v30.484h23.308v-30.484h-23.308zm-47.745,31.32v29.144h116.15v-29.144h-116.15z" transform="matrix(.65276 -.75757 .75757 .65276 969.57 1819.3)"/><g fill="#f00" transform="matrix(.65276 -.75757 .75757 .65276 973.66 1815.4)"><path d="m-348.96,477.6h23.308v30.484h-23.308z"/><path d="m-244.43,476.98h23.308v30.484h-23.308z"/></g><path fill="#ff0" d="m-433.9,545.04v22.689h302.52v-22.689h-302.52zm26.249-62.601v63.152h257.14v-63.152h-257.14zm-22.688,207.62v22.692h302.52v-22.692h-302.52zm81.069-7.017c-.031-41.191 31.622-74.621 70.654-74.621 39.033-.066 70.737,33.311 70.768,74.502 0,.327-.001,.602-.004,.928m-149.28,3.292c-.034-45.769 35.136-82.913 78.505-82.913 43.37-.073 78.596,37.012 78.63,82.78 .001,.363 0,.669-.004,1.031m-207.65-114.09v113.44h257.14v-113.44h-257.14zm-26.26-113.15v21.46h302.52v-21.46h-302.52zm-.027-30.268v30.484h23.308v-30.484h-23.308zm279.36,0v30.484h23.308v-30.484h-23.308zm-232.9,.612v30.484h23.308v-30.484h-23.308zm185.22-.618v30.484h23.308v-30.484h-23.308zm-139.99-28.725v30.484h23.308v-30.484h-23.308zm92.917-.006v30.484h23.308v-30.484h-23.308zm-45.236-.612v30.484h23.308v-30.484h-23.308zm-47.745,31.32v29.144h116.15v-29.144h-116.15z" transform="matrix(-.65276 -.75757 -.75757 .65276 2231 1815.7)"/><g fill="#f00" transform="matrix(-.65276 -.75757 -.75757 .65276 2226.9 1811.8)"><path d="m-348.96,477.6h23.308v30.484h-23.308z"/><path d="m-244.43,476.98h23.308v30.484h-23.308z"/></g><g transform="translate(-1377.6 3272)"><g transform="translate(3.7814 11.344)"><g fill="#3b3bff" transform="matrix(.15 0 0 .15 2790 -2140.7)"><g transform="translate(1261.6 8670.4)"><g><path d="m-850.89-7147h1590.9v1171.1h-1590.9z"/><ellipse cx="2861.4" cy="4267.3" rx="740.21" ry="696.02" d="m 3601.6224,4267.3076 c 0,384.4008 -331.4036,696.0192 -740.2108,696.0192 -408.8071,0 -740.2108,-311.6184 -740.2108,-696.0192 0,-384.4008 331.4037,-696.0191 740.2108,-696.0191 408.8072,0 740.2108,311.6183 740.2108,696.0191 z" transform="matrix(1.0746 0 0 1.0635 -3130.4 -10547)"/></g><g transform="translate(-5963.8 -3463.6)"><path d="m5478.8-3340.7h859.09v632.38h-859.09z"/><ellipse cx="2861.4" cy="4267.3" rx="740.21" ry="696.02" d="m 3601.6224,4267.3076 c 0,384.4008 -331.4036,696.0192 -740.2108,696.0192 -408.8071,0 -740.2108,-311.6184 -740.2108,-696.0192 0,-384.4008 331.4037,-696.0191 740.2108,-696.0191 408.8072,0 740.2108,311.6183 740.2108,696.0191 z" transform="matrix(.5803 0 0 .57429 4247.9 -5088.5)"/></g></g><g transform="translate(-4610.5 4587.5)"><g transform="matrix(.95 0 0 .95 5869.2 3772.5)"><g><path d="m-850.89-7147h1590.9v1171.1h-1590.9z"/><ellipse cx="2861.4" cy="4267.3" rx="740.21" ry="696.02" d="m 3601.6224,4267.3076 c 0,384.4008 -331.4036,696.0192 -740.2108,696.0192 -408.8071,0 -740.2108,-311.6184 -740.2108,-696.0192 0,-384.4008 331.4037,-696.0191 740.2108,-696.0191 408.8072,0 740.2108,311.6183 740.2108,696.0191 z" transform="matrix(1.0746 0 0 1.0635 -3130.4 -10547)"/></g><g transform="translate(-5963.8 -3463.6)"><path d="m5478.8-3340.7h859.09v632.38h-859.09z"/><ellipse cx="2861.4" cy="4267.3" rx="740.21" ry="696.02" d="m 3601.6224,4267.3076 c 0,384.4008 -331.4036,696.0192 -740.2108,696.0192 -408.8071,0 -740.2108,-311.6184 -740.2108,-696.0192 0,-384.4008 331.4037,-696.0191 740.2108,-696.0191 408.8072,0 740.2108,311.6183 740.2108,696.0191 z" transform="matrix(.5803 0 0 .57429 4247.9 -5088.5)"/></g></g><g transform="matrix(.567 0 0 .567 5848 1394.8)"><g><path d="m-850.89-7147h1590.9v1171.1h-1590.9z"/><ellipse cx="2861.4" cy="4267.3" rx="740.21" ry="696.02" d="m 3601.6224,4267.3076 c 0,384.4008 -331.4036,696.0192 -740.2108,696.0192 -408.8071,0 -740.2108,-311.6184 -740.2108,-696.0192 0,-384.4008 331.4037,-696.0191 740.2108,-696.0191 408.8072,0 740.2108,311.6183 740.2108,696.0191 z" transform="matrix(1.0746 0 0 1.0635 -3130.4 -10547)"/></g><g transform="translate(-5963.8 -3463.6)"><path d="m5478.8-3340.7h859.09v632.38h-859.09z"/><ellipse cx="2861.4" cy="4267.3" rx="740.21" ry="696.02" d="m 3601.6224,4267.3076 c 0,384.4008 -331.4036,696.0192 -740.2108,696.0192 -408.8071,0 -740.2108,-311.6184 -740.2108,-696.0192 0,-384.4008 331.4037,-696.0191 740.2108,-696.0191 408.8072,0 740.2108,311.6183 740.2108,696.0191 z" transform="matrix(.5803 0 0 .57429 4247.9 -5088.5)"/></g></g><g transform="matrix(.51172 0 0 .51172 5844.9 1051.6)"><g><path d="m-850.89-7147h1590.9v1171.1h-1590.9z"/><ellipse cx="2861.4" cy="4267.3" rx="740.21" ry="696.02" d="m 3601.6224,4267.3076 c 0,384.4008 -331.4036,696.0192 -740.2108,696.0192 -408.8071,0 -740.2108,-311.6184 -740.2108,-696.0192 0,-384.4008 331.4037,-696.0191 740.2108,-696.0191 408.8072,0 740.2108,311.6183 740.2108,696.0191 z" transform="matrix(1.0746 0 0 1.0635 -3130.4 -10547)"/></g><g transform="translate(-5963.8 -3463.6)"><path d="m5478.8-3340.7h859.09v632.38h-859.09z"/><ellipse cx="2861.4" cy="4267.3" rx="740.21" ry="696.02" d="m 3601.6224,4267.3076 c 0,384.4008 -331.4036,696.0192 -740.2108,696.0192 -408.8071,0 -740.2108,-311.6184 -740.2108,-696.0192 0,-384.4008 331.4037,-696.0191 740.2108,-696.0191 408.8072,0 740.2108,311.6183 740.2108,696.0191 z" transform="matrix(.5803 0 0 .57429 4247.9 -5088.5)"/></g></g></g></g><g fill="#fff"><ellipse cx="2903" cy="-1854.9" rx="35.688" ry="35.688" d="m 2938.7051,-1854.9092 c 0,19.71 -15.9781,35.6881 -35.688,35.6881 -19.7099,0 -35.688,-15.9781 -35.688,-35.6881 0,-19.7099 15.9781,-35.688 35.688,-35.688 19.7099,0 35.688,15.9781 35.688,35.688 z" transform="translate(-3.7817 -7.5629)"/><ellipse cx="2903" cy="-1854.9" rx="35.688" ry="35.688" d="m 2938.7051,-1854.9092 c 0,19.71 -15.9781,35.6881 -35.688,35.6881 -19.7099,0 -35.688,-15.9781 -35.688,-35.6881 0,-19.7099 15.9781,-35.688 35.688,-35.688 19.7099,0 35.688,15.9781 35.688,35.688 z" transform="translate(129.99 -7.5629)"/><ellipse cx="2903" cy="-1854.9" rx="35.688" ry="35.688" d="m 2938.7051,-1854.9092 c 0,19.71 -15.9781,35.6881 -35.688,35.6881 -19.7099,0 -35.688,-15.9781 -35.688,-35.6881 0,-19.7099 15.9781,-35.688 35.688,-35.688 19.7099,0 35.688,15.9781 35.688,35.688 z" transform="translate(61.922 67.595)"/><ellipse cx="2903" cy="-1854.9" rx="35.688" ry="35.688" d="m 2938.7051,-1854.9092 c 0,19.71 -15.9781,35.6881 -35.688,35.6881 -19.7099,0 -35.688,-15.9781 -35.688,-35.6881 0,-19.7099 15.9781,-35.688 35.688,-35.688 19.7099,0 35.688,15.9781 35.688,35.688 z" transform="translate(1.4179 140.39)"/><ellipse cx="2903" cy="-1854.9" rx="35.688" ry="35.688" d="m 2938.7051,-1854.9092 c 0,19.71 -15.9781,35.6881 -35.688,35.6881 -19.7099,0 -35.688,-15.9781 -35.688,-35.6881 0,-19.7099 15.9781,-35.688 35.688,-35.688 19.7099,0 35.688,15.9781 35.688,35.688 z" transform="translate(128.57 142.75)"/></g></g><g transform="translate(3.7817 321.43)"><g fill="#3b3bff" transform="matrix(.15 0 0 .15 2790 -2140.7)"><g transform="translate(1261.6 8670.4)"><g><path d="m-850.89-7147h1590.9v1171.1h-1590.9z"/><ellipse cx="2861.4" cy="4267.3" rx="740.21" ry="696.02" d="m 3601.6224,4267.3076 c 0,384.4008 -331.4036,696.0192 -740.2108,696.0192 -408.8071,0 -740.2108,-311.6184 -740.2108,-696.0192 0,-384.4008 331.4037,-696.0191 740.2108,-696.0191 408.8072,0 740.2108,311.6183 740.2108,696.0191 z" transform="matrix(1.0746 0 0 1.0635 -3130.4 -10547)"/></g><g transform="translate(-5963.8 -3463.6)"><path d="m5478.8-3340.7h859.09v632.38h-859.09z"/><ellipse cx="2861.4" cy="4267.3" rx="740.21" ry="696.02" d="m 3601.6224,4267.3076 c 0,384.4008 -331.4036,696.0192 -740.2108,696.0192 -408.8071,0 -740.2108,-311.6184 -740.2108,-696.0192 0,-384.4008 331.4037,-696.0191 740.2108,-696.0191 408.8072,0 740.2108,311.6183 740.2108,696.0191 z" transform="matrix(.5803 0 0 .57429 4247.9 -5088.5)"/></g></g><g transform="translate(-4610.5 4587.5)"><g transform="matrix(.95 0 0 .95 5869.2 3772.5)"><g><path d="m-850.89-7147h1590.9v1171.1h-1590.9z"/><ellipse cx="2861.4" cy="4267.3" rx="740.21" ry="696.02" d="m 3601.6224,4267.3076 c 0,384.4008 -331.4036,696.0192 -740.2108,696.0192 -408.8071,0 -740.2108,-311.6184 -740.2108,-696.0192 0,-384.4008 331.4037,-696.0191 740.2108,-696.0191 408.8072,0 740.2108,311.6183 740.2108,696.0191 z" transform="matrix(1.0746 0 0 1.0635 -3130.4 -10547)"/></g><g transform="translate(-5963.8 -3463.6)"><path d="m5478.8-3340.7h859.09v632.38h-859.09z"/><ellipse cx="2861.4" cy="4267.3" rx="740.21" ry="696.02" d="m 3601.6224,4267.3076 c 0,384.4008 -331.4036,696.0192 -740.2108,696.0192 -408.8071,0 -740.2108,-311.6184 -740.2108,-696.0192 0,-384.4008 331.4037,-696.0191 740.2108,-696.0191 408.8072,0 740.2108,311.6183 740.2108,696.0191 z" transform="matrix(.5803 0 0 .57429 4247.9 -5088.5)"/></g></g><g transform="matrix(.567 0 0 .567 5848 1394.8)"><g><path d="m-850.89-7147h1590.9v1171.1h-1590.9z"/><ellipse cx="2861.4" cy="4267.3" rx="740.21" ry="696.02" d="m 3601.6224,4267.3076 c 0,384.4008 -331.4036,696.0192 -740.2108,696.0192 -408.8071,0 -740.2108,-311.6184 -740.2108,-696.0192 0,-384.4008 331.4037,-696.0191 740.2108,-696.0191 408.8072,0 740.2108,311.6183 740.2108,696.0191 z" transform="matrix(1.0746 0 0 1.0635 -3130.4 -10547)"/></g><g transform="translate(-5963.8 -3463.6)"><path d="m5478.8-3340.7h859.09v632.38h-859.09z"/><ellipse cx="2861.4" cy="4267.3" rx="740.21" ry="696.02" d="m 3601.6224,4267.3076 c 0,384.4008 -331.4036,696.0192 -740.2108,696.0192 -408.8071,0 -740.2108,-311.6184 -740.2108,-696.0192 0,-384.4008 331.4037,-696.0191 740.2108,-696.0191 408.8072,0 740.2108,311.6183 740.2108,696.0191 z" transform="matrix(.5803 0 0 .57429 4247.9 -5088.5)"/></g></g><g transform="matrix(.51172 0 0 .51172 5844.9 1051.6)"><g><path d="m-850.89-7147h1590.9v1171.1h-1590.9z"/><ellipse cx="2861.4" cy="4267.3" rx="740.21" ry="696.02" d="m 3601.6224,4267.3076 c 0,384.4008 -331.4036,696.0192 -740.2108,696.0192 -408.8071,0 -740.2108,-311.6184 -740.2108,-696.0192 0,-384.4008 331.4037,-696.0191 740.2108,-696.0191 408.8072,0 740.2108,311.6183 740.2108,696.0191 z" transform="matrix(1.0746 0 0 1.0635 -3130.4 -10547)"/></g><g transform="translate(-5963.8 -3463.6)"><path d="m5478.8-3340.7h859.09v632.38h-859.09z"/><ellipse cx="2861.4" cy="4267.3" rx="740.21" ry="696.02" d="m 3601.6224,4267.3076 c 0,384.4008 -331.4036,696.0192 -740.2108,696.0192 -408.8071,0 -740.2108,-311.6184 -740.2108,-696.0192 0,-384.4008 331.4037,-696.0191 740.2108,-696.0191 408.8072,0 740.2108,311.6183 740.2108,696.0191 z" transform="matrix(.5803 0 0 .57429 4247.9 -5088.5)"/></g></g></g></g><g fill="#fff"><ellipse cx="2903" cy="-1854.9" rx="35.688" ry="35.688" d="m 2938.7051,-1854.9092 c 0,19.71 -15.9781,35.6881 -35.688,35.6881 -19.7099,0 -35.688,-15.9781 -35.688,-35.6881 0,-19.7099 15.9781,-35.688 35.688,-35.688 19.7099,0 35.688,15.9781 35.688,35.688 z" transform="translate(-3.7817 -7.5629)"/><ellipse cx="2903" cy="-1854.9" rx="35.688" ry="35.688" d="m 2938.7051,-1854.9092 c 0,19.71 -15.9781,35.6881 -35.688,35.6881 -19.7099,0 -35.688,-15.9781 -35.688,-35.6881 0,-19.7099 15.9781,-35.688 35.688,-35.688 19.7099,0 35.688,15.9781 35.688,35.688 z" transform="translate(129.99 -7.5629)"/><ellipse cx="2903" cy="-1854.9" rx="35.688" ry="35.688" d="m 2938.7051,-1854.9092 c 0,19.71 -15.9781,35.6881 -35.688,35.6881 -19.7099,0 -35.688,-15.9781 -35.688,-35.6881 0,-19.7099 15.9781,-35.688 35.688,-35.688 19.7099,0 35.688,15.9781 35.688,35.688 z" transform="translate(61.922 67.595)"/><ellipse cx="2903" cy="-1854.9" rx="35.688" ry="35.688" d="m 2938.7051,-1854.9092 c 0,19.71 -15.9781,35.6881 -35.688,35.6881 -19.7099,0 -35.688,-15.9781 -35.688,-35.6881 0,-19.7099 15.9781,-35.688 35.688,-35.688 19.7099,0 35.688,15.9781 35.688,35.688 z" transform="translate(1.4179 140.39)"/><ellipse cx="2903" cy="-1854.9" rx="35.688" ry="35.688" d="m 2938.7051,-1854.9092 c 0,19.71 -15.9781,35.6881 -35.688,35.6881 -19.7099,0 -35.688,-15.9781 -35.688,-35.6881 0,-19.7099 15.9781,-35.688 35.688,-35.688 19.7099,0 35.688,15.9781 35.688,35.688 z" transform="translate(128.57 142.75)"/></g></g><g transform="translate(268.49 321.43)"><g fill="#3b3bff" transform="matrix(.15 0 0 .15 2790 -2140.7)"><g transform="translate(1261.6 8670.4)"><g><path d="m-850.89-7147h1590.9v1171.1h-1590.9z"/><ellipse cx="2861.4" cy="4267.3" rx="740.21" ry="696.02" d="m 3601.6224,4267.3076 c 0,384.4008 -331.4036,696.0192 -740.2108,696.0192 -408.8071,0 -740.2108,-311.6184 -740.2108,-696.0192 0,-384.4008 331.4037,-696.0191 740.2108,-696.0191 408.8072,0 740.2108,311.6183 740.2108,696.0191 z" transform="matrix(1.0746 0 0 1.0635 -3130.4 -10547)"/></g><g transform="translate(-5963.8 -3463.6)"><path d="m5478.8-3340.7h859.09v632.38h-859.09z"/><ellipse cx="2861.4" cy="4267.3" rx="740.21" ry="696.02" d="m 3601.6224,4267.3076 c 0,384.4008 -331.4036,696.0192 -740.2108,696.0192 -408.8071,0 -740.2108,-311.6184 -740.2108,-696.0192 0,-384.4008 331.4037,-696.0191 740.2108,-696.0191 408.8072,0 740.2108,311.6183 740.2108,696.0191 z" transform="matrix(.5803 0 0 .57429 4247.9 -5088.5)"/></g></g><g transform="translate(-4610.5 4587.5)"><g transform="matrix(.95 0 0 .95 5869.2 3772.5)"><g><path d="m-850.89-7147h1590.9v1171.1h-1590.9z"/><ellipse cx="2861.4" cy="4267.3" rx="740.21" ry="696.02" d="m 3601.6224,4267.3076 c 0,384.4008 -331.4036,696.0192 -740.2108,696.0192 -408.8071,0 -740.2108,-311.6184 -740.2108,-696.0192 0,-384.4008 331.4037,-696.0191 740.2108,-696.0191 408.8072,0 740.2108,311.6183 740.2108,696.0191 z" transform="matrix(1.0746 0 0 1.0635 -3130.4 -10547)"/></g><g transform="translate(-5963.8 -3463.6)"><path d="m5478.8-3340.7h859.09v632.38h-859.09z"/><ellipse cx="2861.4" cy="4267.3" rx="740.21" ry="696.02" d="m 3601.6224,4267.3076 c 0,384.4008 -331.4036,696.0192 -740.2108,696.0192 -408.8071,0 -740.2108,-311.6184 -740.2108,-696.0192 0,-384.4008 331.4037,-696.0191 740.2108,-696.0191 408.8072,0 740.2108,311.6183 740.2108,696.0191 z" transform="matrix(.5803 0 0 .57429 4247.9 -5088.5)"/></g></g><g transform="matrix(.567 0 0 .567 5848 1394.8)"><g><path d="m-850.89-7147h1590.9v1171.1h-1590.9z"/><ellipse cx="2861.4" cy="4267.3" rx="740.21" ry="696.02" d="m 3601.6224,4267.3076 c 0,384.4008 -331.4036,696.0192 -740.2108,696.0192 -408.8071,0 -740.2108,-311.6184 -740.2108,-696.0192 0,-384.4008 331.4037,-696.0191 740.2108,-696.0191 408.8072,0 740.2108,311.6183 740.2108,696.0191 z" transform="matrix(1.0746 0 0 1.0635 -3130.4 -10547)"/></g><g transform="translate(-5963.8 -3463.6)"><path d="m5478.8-3340.7h859.09v632.38h-859.09z"/><ellipse cx="2861.4" cy="4267.3" rx="740.21" ry="696.02" d="m 3601.6224,4267.3076 c 0,384.4008 -331.4036,696.0192 -740.2108,696.0192 -408.8071,0 -740.2108,-311.6184 -740.2108,-696.0192 0,-384.4008 331.4037,-696.0191 740.2108,-696.0191 408.8072,0 740.2108,311.6183 740.2108,696.0191 z" transform="matrix(.5803 0 0 .57429 4247.9 -5088.5)"/></g></g><g transform="matrix(.51172 0 0 .51172 5844.9 1051.6)"><g><path d="m-850.89-7147h1590.9v1171.1h-1590.9z"/><ellipse cx="2861.4" cy="4267.3" rx="740.21" ry="696.02" d="m 3601.6224,4267.3076 c 0,384.4008 -331.4036,696.0192 -740.2108,696.0192 -408.8071,0 -740.2108,-311.6184 -740.2108,-696.0192 0,-384.4008 331.4037,-696.0191 740.2108,-696.0191 408.8072,0 740.2108,311.6183 740.2108,696.0191 z" transform="matrix(1.0746 0 0 1.0635 -3130.4 -10547)"/></g><g transform="translate(-5963.8 -3463.6)"><path d="m5478.8-3340.7h859.09v632.38h-859.09z"/><ellipse cx="2861.4" cy="4267.3" rx="740.21" ry="696.02" d="m 3601.6224,4267.3076 c 0,384.4008 -331.4036,696.0192 -740.2108,696.0192 -408.8071,0 -740.2108,-311.6184 -740.2108,-696.0192 0,-384.4008 331.4037,-696.0191 740.2108,-696.0191 408.8072,0 740.2108,311.6183 740.2108,696.0191 z" transform="matrix(.5803 0 0 .57429 4247.9 -5088.5)"/></g></g></g></g><g fill="#fff"><ellipse cx="2903" cy="-1854.9" rx="35.688" ry="35.688" d="m 2938.7051,-1854.9092 c 0,19.71 -15.9781,35.6881 -35.688,35.6881 -19.7099,0 -35.688,-15.9781 -35.688,-35.6881 0,-19.7099 15.9781,-35.688 35.688,-35.688 19.7099,0 35.688,15.9781 35.688,35.688 z" transform="translate(-3.7817 -7.5629)"/><ellipse cx="2903" cy="-1854.9" rx="35.688" ry="35.688" d="m 2938.7051,-1854.9092 c 0,19.71 -15.9781,35.6881 -35.688,35.6881 -19.7099,0 -35.688,-15.9781 -35.688,-35.6881 0,-19.7099 15.9781,-35.688 35.688,-35.688 19.7099,0 35.688,15.9781 35.688,35.688 z" transform="translate(129.99 -7.5629)"/><ellipse cx="2903" cy="-1854.9" rx="35.688" ry="35.688" d="m 2938.7051,-1854.9092 c 0,19.71 -15.9781,35.6881 -35.688,35.6881 -19.7099,0 -35.688,-15.9781 -35.688,-35.6881 0,-19.7099 15.9781,-35.688 35.688,-35.688 19.7099,0 35.688,15.9781 35.688,35.688 z" transform="translate(61.922 67.595)"/><ellipse cx="2903" cy="-1854.9" rx="35.688" ry="35.688" d="m 2938.7051,-1854.9092 c 0,19.71 -15.9781,35.6881 -35.688,35.6881 -19.7099,0 -35.688,-15.9781 -35.688,-35.6881 0,-19.7099 15.9781,-35.688 35.688,-35.688 19.7099,0 35.688,15.9781 35.688,35.688 z" transform="translate(1.4179 140.39)"/><ellipse cx="2903" cy="-1854.9" rx="35.688" ry="35.688" d="m 2938.7051,-1854.9092 c 0,19.71 -15.9781,35.6881 -35.688,35.6881 -19.7099,0 -35.688,-15.9781 -35.688,-35.6881 0,-19.7099 15.9781,-35.688 35.688,-35.688 19.7099,0 35.688,15.9781 35.688,35.688 z" transform="translate(128.57 142.75)"/></g></g><g transform="translate(-260.92 321.43)"><g fill="#3b3bff" transform="matrix(.15 0 0 .15 2790 -2140.7)"><g transform="translate(1261.6 8670.4)"><g><path d="m-850.89-7147h1590.9v1171.1h-1590.9z"/><ellipse cx="2861.4" cy="4267.3" rx="740.21" ry="696.02" d="m 3601.6224,4267.3076 c 0,384.4008 -331.4036,696.0192 -740.2108,696.0192 -408.8071,0 -740.2108,-311.6184 -740.2108,-696.0192 0,-384.4008 331.4037,-696.0191 740.2108,-696.0191 408.8072,0 740.2108,311.6183 740.2108,696.0191 z" transform="matrix(1.0746 0 0 1.0635 -3130.4 -10547)"/></g><g transform="translate(-5963.8 -3463.6)"><path d="m5478.8-3340.7h859.09v632.38h-859.09z"/><ellipse cx="2861.4" cy="4267.3" rx="740.21" ry="696.02" d="m 3601.6224,4267.3076 c 0,384.4008 -331.4036,696.0192 -740.2108,696.0192 -408.8071,0 -740.2108,-311.6184 -740.2108,-696.0192 0,-384.4008 331.4037,-696.0191 740.2108,-696.0191 408.8072,0 740.2108,311.6183 740.2108,696.0191 z" transform="matrix(.5803 0 0 .57429 4247.9 -5088.5)"/></g></g><g transform="translate(-4610.5 4587.5)"><g transform="matrix(.95 0 0 .95 5869.2 3772.5)"><g><path d="m-850.89-7147h1590.9v1171.1h-1590.9z"/><ellipse cx="2861.4" cy="4267.3" rx="740.21" ry="696.02" d="m 3601.6224,4267.3076 c 0,384.4008 -331.4036,696.0192 -740.2108,696.0192 -408.8071,0 -740.2108,-311.6184 -740.2108,-696.0192 0,-384.4008 331.4037,-696.0191 740.2108,-696.0191 408.8072,0 740.2108,311.6183 740.2108,696.0191 z" transform="matrix(1.0746 0 0 1.0635 -3130.4 -10547)"/></g><g transform="translate(-5963.8 -3463.6)"><path d="m5478.8-3340.7h859.09v632.38h-859.09z"/><ellipse cx="2861.4" cy="4267.3" rx="740.21" ry="696.02" d="m 3601.6224,4267.3076 c 0,384.4008 -331.4036,696.0192 -740.2108,696.0192 -408.8071,0 -740.2108,-311.6184 -740.2108,-696.0192 0,-384.4008 331.4037,-696.0191 740.2108,-696.0191 408.8072,0 740.2108,311.6183 740.2108,696.0191 z" transform="matrix(.5803 0 0 .57429 4247.9 -5088.5)"/></g></g><g transform="matrix(.567 0 0 .567 5848 1394.8)"><g><path d="m-850.89-7147h1590.9v1171.1h-1590.9z"/><ellipse cx="2861.4" cy="4267.3" rx="740.21" ry="696.02" d="m 3601.6224,4267.3076 c 0,384.4008 -331.4036,696.0192 -740.2108,696.0192 -408.8071,0 -740.2108,-311.6184 -740.2108,-696.0192 0,-384.4008 331.4037,-696.0191 740.2108,-696.0191 408.8072,0 740.2108,311.6183 740.2108,696.0191 z" transform="matrix(1.0746 0 0 1.0635 -3130.4 -10547)"/></g><g transform="translate(-5963.8 -3463.6)"><path d="m5478.8-3340.7h859.09v632.38h-859.09z"/><ellipse cx="2861.4" cy="4267.3" rx="740.21" ry="696.02" d="m 3601.6224,4267.3076 c 0,384.4008 -331.4036,696.0192 -740.2108,696.0192 -408.8071,0 -740.2108,-311.6184 -740.2108,-696.0192 0,-384.4008 331.4037,-696.0191 740.2108,-696.0191 408.8072,0 740.2108,311.6183 740.2108,696.0191 z" transform="matrix(.5803 0 0 .57429 4247.9 -5088.5)"/></g></g><g transform="matrix(.51172 0 0 .51172 5844.9 1051.6)"><g><path d="m-850.89-7147h1590.9v1171.1h-1590.9z"/><ellipse cx="2861.4" cy="4267.3" rx="740.21" ry="696.02" d="m 3601.6224,4267.3076 c 0,384.4008 -331.4036,696.0192 -740.2108,696.0192 -408.8071,0 -740.2108,-311.6184 -740.2108,-696.0192 0,-384.4008 331.4037,-696.0191 740.2108,-696.0191 408.8072,0 740.2108,311.6183 740.2108,696.0191 z" transform="matrix(1.0746 0 0 1.0635 -3130.4 -10547)"/></g><g transform="translate(-5963.8 -3463.6)"><path d="m5478.8-3340.7h859.09v632.38h-859.09z"/><ellipse cx="2861.4" cy="4267.3" rx="740.21" ry="696.02" d="m 3601.6224,4267.3076 c 0,384.4008 -331.4036,696.0192 -740.2108,696.0192 -408.8071,0 -740.2108,-311.6184 -740.2108,-696.0192 0,-384.4008 331.4037,-696.0191 740.2108,-696.0191 408.8072,0 740.2108,311.6183 740.2108,696.0191 z" transform="matrix(.5803 0 0 .57429 4247.9 -5088.5)"/></g></g></g></g><g fill="#fff"><ellipse cx="2903" cy="-1854.9" rx="35.688" ry="35.688" d="m 2938.7051,-1854.9092 c 0,19.71 -15.9781,35.6881 -35.688,35.6881 -19.7099,0 -35.688,-15.9781 -35.688,-35.6881 0,-19.7099 15.9781,-35.688 35.688,-35.688 19.7099,0 35.688,15.9781 35.688,35.688 z" transform="translate(-3.7817 -7.5629)"/><ellipse cx="2903" cy="-1854.9" rx="35.688" ry="35.688" d="m 2938.7051,-1854.9092 c 0,19.71 -15.9781,35.6881 -35.688,35.6881 -19.7099,0 -35.688,-15.9781 -35.688,-35.6881 0,-19.7099 15.9781,-35.688 35.688,-35.688 19.7099,0 35.688,15.9781 35.688,35.688 z" transform="translate(129.99 -7.5629)"/><ellipse cx="2903" cy="-1854.9" rx="35.688" ry="35.688" d="m 2938.7051,-1854.9092 c 0,19.71 -15.9781,35.6881 -35.688,35.6881 -19.7099,0 -35.688,-15.9781 -35.688,-35.6881 0,-19.7099 15.9781,-35.688 35.688,-35.688 19.7099,0 35.688,15.9781 35.688,35.688 z" transform="translate(61.922 67.595)"/><ellipse cx="2903" cy="-1854.9" rx="35.688" ry="35.688" d="m 2938.7051,-1854.9092 c 0,19.71 -15.9781,35.6881 -35.688,35.6881 -19.7099,0 -35.688,-15.9781 -35.688,-35.6881 0,-19.7099 15.9781,-35.688 35.688,-35.688 19.7099,0 35.688,15.9781 35.688,35.688 z" transform="translate(1.4179 140.39)"/><ellipse cx="2903" cy="-1854.9" rx="35.688" ry="35.688" d="m 2938.7051,-1854.9092 c 0,19.71 -15.9781,35.6881 -35.688,35.6881 -19.7099,0 -35.688,-15.9781 -35.688,-35.6881 0,-19.7099 15.9781,-35.688 35.688,-35.688 19.7099,0 35.688,15.9781 35.688,35.688 z" transform="translate(128.57 142.75)"/></g></g></g></g></g></g></g></svg>