<svg xmlns="http://www.w3.org/2000/svg" viewBox="0 0 512 512" xmlns:xlink="http://www.w3.org/1999/xlink"><defs><path id="1" d="m332.03 604.94c1.177 0 21.19-164.84 21.19-164.84l17.661 164.84-20.02 28.26-18.839-28.26z"/><path id="2" d="m248.44 462.47c29.436 48.27 77.71 121.28 101.26 170.73 26.295-51.807 74.962-128.34 104.79-175.44-31.79 36.11-71.822 88.7-104.79 116.56-33.36-27.866-70.25-78.1-101.26-111.86z"/><path id="3" d="m320.26 487.2c0 59.825-11.597 108.32-25.903 108.32s-25.903-48.5-25.903-108.32c0-59.825 11.597-108.32 25.903-108.32s25.903 48.5 25.903 108.32z"/><path id="4" d="m151.53 682.7c0 1.665-41.628-24.978-49.954-33.3-8.333-8.33-6.668-46.62-33.31-64.94s-54.949-9.99-68.27 1.66c-13.321 11.656-8.326 38.3 23.312 61.61s53.28 1.666 69.936 9.991c16.651 8.326 43.29 24.976 56.62 38.3 13.321-9.99 46.623-21.646 64.94-29.972 18.316-8.325 64.941 11.656 96.58-11.656 26.642-18.316 38.3-56.61 19.981-68.27-18.317-11.656-51.619-6.66-71.6 4.996-19.982 11.656-29.972 58.28-49.955 66.61-14.986 4.995-56.61 28.31-58.28 24.977z"/><path id="5" d="m314.71 506.2c0 45.06-10.06 81.59-22.479 81.59s-22.479-36.53-22.479-81.59c0-45.06 10.06-81.59 22.479-81.59s22.479 36.53 22.479 81.59z"/><clipPath id="0"><path d="m248.03 0h496.06v496.06h-496.06z"/></clipPath></defs><g clip-path="url(#0)" transform="matrix(1.0321 0 0 1.0321-256 0)"><g fill-rule="evenodd" stroke-width="1.25"><path fill="#fff" d="M 0,166.54 H992.13 V329.53 H0 z"/><path fill="#3d25ca" d="M 0,329.53 H992.13 V496.07 H0 z"/><path fill="#d60000" d="m0 0h992.13v166.54h-992.13z"/></g><g transform="matrix(.17561 0 0 .17561 426.06 151.9)"><g stroke="#000"><path fill="#fff" fill-rule="evenodd" stroke-width="12.5" d="m744.14 567.26c0 192.48-157.09 348.52-350.87 348.52s-350.87-156.04-350.87-348.52 157.09-348.52 350.87-348.52 350.87 156.04 350.87 348.52z" transform="matrix(1.0351 0 0 1.0421-8.442-43.697)"/><g stroke-width="2.553" transform="matrix(.4059 0 0 .40681 257.18 329.71)"><g fill="#006700" fill-rule="evenodd"><g transform="matrix(.89726.20468-.22354.9298 260.11-31.435)"><path d="m259.03 105.71s400.32 70.64 414.45 395.62c14.13 324.97-188.39 367.36-259.03 419.16-70.64 51.807-113.03 113.03-146 113.03-32.968 0-80.06-14.13-80.06-14.13s9.42 51.81 75.36 47.1c65.936-4.71 127.16-113.03 164.84-131.87s277.88-98.9 259.04-428.58c-14.13-353.23-423.88-390.91-428.59-400.33z"/><g transform="matrix(.375-.6002.56218.35125 34.02 138.2)"><use transform="matrix(.50148.47086-.3188.60446 320.67 92.87)" xlink:href="#3"/><use transform="matrix(.5715.29659-.20081.68886 224.73 97.25)" xlink:href="#3"/><use transform="matrix(.5061-.46199.3128.61002-64.59 364.47)" xlink:href="#3"/><use transform="matrix(.5931-.20779.14069.7149 9.635 223.61)" xlink:href="#3"/><use transform="matrix(.61321 0 0 .73913 93.44 155.35)" xlink:href="#3"/><path d="m151.53 682.7c0 1.665-41.628-24.978-49.954-33.3-8.333-8.33-6.668-46.62-33.31-64.94s-54.949-9.99-68.27 1.66c-13.321 11.656-8.326 38.3 23.312 61.61s53.28 1.666 69.936 9.991c16.651 8.326 43.29 24.976 56.62 38.3 13.321-9.99 46.623-21.646 64.94-29.972 18.316-8.325 64.941 11.656 96.58-11.656 26.642-18.316 38.3-56.61 19.981-68.27-18.317-11.656-51.619-6.66-71.6 4.996-19.982 11.656-29.972 58.28-49.955 66.61-14.986 4.995-56.61 28.31-58.28 24.977z" transform="matrix(.52514 0 0 .27822 191.54 402.47)"/></g><g transform="matrix(.73572-.67729.67729.73572-14.339 19.529)"><use transform="matrix(.50148.47086-.3188.60446 320.67 92.87)" xlink:href="#3"/><use transform="matrix(.5715.29659-.20081.68886 224.73 97.25)" xlink:href="#3"/><use transform="matrix(.5061-.46199.3128.61002-64.59 364.47)" xlink:href="#3"/><use transform="matrix(.5931-.20779.14069.7149 9.635 223.61)" xlink:href="#3"/><use transform="matrix(.61321 0 0 .73913 93.44 155.35)" xlink:href="#3"/><use transform="matrix(.52514 0 0 .27822 191.54 402.47)" xlink:href="#4"/></g><g transform="matrix(.8489-.52856.52856.8489 124.02 41.877)"><use transform="matrix(.50148.47086-.3188.60446 320.67 92.87)" xlink:href="#3"/><use transform="matrix(.5715.29659-.20081.68886 224.73 97.25)" xlink:href="#3"/><use transform="matrix(.5061-.46199.3128.61002-64.59 364.47)" xlink:href="#3"/><use transform="matrix(.5931-.20779.14069.7149 9.635 223.61)" xlink:href="#3"/><use transform="matrix(.61321 0 0 .73913 93.44 155.35)" xlink:href="#3"/><use transform="matrix(.52514 0 0 .27822 191.54 402.47)" xlink:href="#4"/></g><g transform="matrix(.98953-.14433.14433.98953 329.61 1.645)"><use transform="matrix(.50148.47086-.3188.60446 320.67 92.87)" xlink:href="#3"/><use transform="matrix(.5715.29659-.20081.68886 224.73 97.25)" xlink:href="#3"/><use transform="matrix(.5061-.46199.3128.61002-64.59 364.47)" xlink:href="#3"/><use transform="matrix(.5931-.20779.14069.7149 9.635 223.61)" xlink:href="#3"/><use transform="matrix(.61321 0 0 .73913 93.44 155.35)" xlink:href="#3"/><use transform="matrix(.52514 0 0 .27822 191.54 402.47)" xlink:href="#4"/></g><g transform="matrix(1.1499.1852-.17928 1.1312 447.09-8.152)"><use transform="matrix(.50148.47086-.3188.60446 320.67 92.87)" xlink:href="#3"/><use transform="matrix(.5715.29659-.20081.68886 224.73 97.25)" xlink:href="#3"/><use transform="matrix(.5061-.46199.3128.61002-64.59 364.47)" xlink:href="#3"/><use transform="matrix(.5931-.20779.14069.7149 9.635 223.61)" xlink:href="#3"/><use transform="matrix(.61321 0 0 .73913 93.44 155.35)" xlink:href="#3"/><use transform="matrix(.52514 0 0 .27822 191.54 402.47)" xlink:href="#4"/></g><g transform="matrix(1.0178.80745-.82443.96298 756.4 48.616)"><use transform="matrix(.50148.47086-.3188.60446 320.67 92.87)" xlink:href="#3"/><use transform="matrix(.5715.29659-.20081.68886 224.73 97.25)" xlink:href="#3"/><use transform="matrix(.5061-.46199.3128.61002-64.59 364.47)" xlink:href="#3"/><use transform="matrix(.5931-.20779.14069.7149 9.635 223.61)" xlink:href="#3"/><use transform="matrix(.61321 0 0 .73913 93.44 155.35)" xlink:href="#3"/><use transform="matrix(.52514 0 0 .27822 191.54 402.47)" xlink:href="#4"/></g><g transform="matrix(.70068.98883-.97411.69025 782.3 222.78)"><path d="m314.71 506.2c0 45.06-10.06 81.59-22.479 81.59s-22.479-36.53-22.479-81.59c0-45.06 10.06-81.59 22.479-81.59s22.479 36.53 22.479 81.59z" transform="matrix(.92853.37125-.37125.92853 252.11-52.33)"/><use transform="matrix(.87409-.48576.48576.87409-234.07 229)" xlink:href="#5"/><use transform="translate(9.991 14.986)" xlink:href="#5"/></g><g transform="matrix(.16083-.47509.76898.18492-139.38 169.17)"><use transform="matrix(.92853.37125-.37125.92853 252.11-52.33)" xlink:href="#5"/><use transform="matrix(.87409-.48576.48576.87409-234.07 229)" xlink:href="#5"/><use transform="translate(9.991 14.986)" xlink:href="#5"/></g></g><g transform="matrix(.99936-.02588.01748.95569 103.72 108.05)"><path d="m339.1 586.1s113.03 32.968 211.94 89.48c98.9 56.52 252.16 272.38 292.21 280.92 44.682-1.342 105.85-37.846 126.48-164.27-67.86 43.25-107.82 101.54-174.96 40.06-23.55-14.13-102.44-137.87-187.22-199.09-84.77-61.23-254.32-122.45-254.32-122.45l-14.13 75.36z" transform="matrix(.67307.06127-.02185.36561-223.16 555.09)"/><use transform="matrix(-.2202-.58061-.5617.20187 498.33 149.41)" xlink:href="#1"/><path d="m248.44 462.47c29.436 48.27 77.71 121.28 101.26 170.73 26.295-51.807 74.962-128.34 104.79-175.44-31.79 36.11-71.822 88.7-104.79 116.56-33.36-27.866-70.25-78.1-101.26-111.86z" transform="matrix(-.22082-.58039-.56146.20252 482.16 153.62)"/><use transform="matrix(-.31222-.53799-.51625.29737 485.55 82.61)" xlink:href="#1"/><use transform="matrix(-.23174-.60068-.55952.20773 468.36 154.89)" xlink:href="#2"/><use transform="matrix(-.16989-.59613-.57891.14997 463.29 195.77)" xlink:href="#1"/><use transform="matrix(-.29638-.58472-.52952.27541 460.33 120.12)" xlink:href="#2"/><use transform="matrix(-.41657-.46086-.43642.40677 449.75-4.341)" xlink:href="#1"/><use transform="matrix(-.37077-.61687-.53581.34039 481.04 103.22)" xlink:href="#2"/><use transform="matrix(-.39501-.59481-.51356.36652 476.42 82.78)" xlink:href="#1"/><use transform="matrix(-.27938-.66608-.64876.38722 494.14 95.88)" xlink:href="#2"/><use transform="matrix(-.31006-.64126-.62984.41526 493.2 73.61)" xlink:href="#1"/><use transform="matrix(-.36811-.60966-.58877.47184 474.07 44.859)" xlink:href="#2"/><use transform="matrix(-.46201-.52149-.51837.56778 463.19-42.07)" xlink:href="#1"/><use transform="matrix(-.33504-.62763-.6138.43994 455.59 76.11)" xlink:href="#2"/><use transform="matrix(-.31416-.6493-.61924.41561 461.59 103.3)" xlink:href="#1"/><use transform="matrix(-.40162-.57445-.57246.50741 441.37 35.733)" xlink:href="#2"/><use transform="matrix(-.53889-.41956-.44565.64143 415.43-105.63)" xlink:href="#1"/><use transform="matrix(-.50728-.62456-.5684.59428 465.65 14.525)" xlink:href="#2"/><use transform="matrix(-.5321-.58958-.53942.61853 457.63-8.756)" xlink:href="#1"/><use transform="matrix(-.5327-.58889-.53882.61919 441.32 7.02)" xlink:href="#2"/><use transform="matrix(-.61584-.4762-.44141.70952 410.66-84.73)" xlink:href="#1"/><use transform="matrix(-.47964-.63197-.59086.57072 436.11 57.18)" xlink:href="#2"/><use transform="matrix(-.42049-.68402-.63433.50718 448.7 118.68)" xlink:href="#1"/><use transform="matrix(-.43061-.69232-.61096.52059 413.98 112.33)" xlink:href="#2"/><use transform="matrix(-.57704-.52972-.4751.68536 385.94-50.897)" xlink:href="#1"/><use transform="matrix(-.59455-.63298-.59222.76522 451.58-30.354)" xlink:href="#2"/><use transform="matrix(-.6199-.58928-.55891.78836 441.41-55.635)" xlink:href="#1"/><use transform="matrix(-.62052-.5884-.55822.78902 424.35-35.14)" xlink:href="#2"/><use transform="matrix(-.70568-.44711-.44574.87684 385.32-134.92)" xlink:href="#1"/><use transform="matrix(-.62455-.58268-.55371.79325 403.49-26.09)" xlink:href="#2"/><use transform="matrix(-.56829-.65639-.61131.73342 427.06 39.506)" xlink:href="#1"/><use transform="matrix(-.7337-.39339-.39064.90553 351.09-132.23)" xlink:href="#2"/><use transform="matrix(-.81096-.13952-.18237.97738 252.19-272.91)" xlink:href="#1"/><use transform="matrix(-.73184-.39768-.39411.90366 340.67-115.45)" xlink:href="#2"/><use transform="matrix(-.75038-.35265-.35755.92216 327.56-141.21)" xlink:href="#1"/><use transform="matrix(-.7978-.31648-.31043.97647 313.84-165.52)" xlink:href="#2"/><use transform="matrix(-.83868-.1475-.17163 1.0158 244.27-245.48)" xlink:href="#1"/><use transform="matrix(-.76499-.40186-.38396.94508 327.22-101.8)" xlink:href="#2"/><use transform="matrix(-.72444-.49104-.45587.90197 365.88-43.31)" xlink:href="#1"/><use transform="matrix(-.7561-.31701-.29476.99159 283.06-143.75)" xlink:href="#2"/><use transform="matrix(-.85152-.04061-.08661 1.0261 186.79-259.73)" xlink:href="#1"/><use transform="matrix(-.76356-.31091-.26627.99585 253.97-135.08)" xlink:href="#2"/><use transform="matrix(-.77576-.26144-.22831 1.01 237.89-160.04)" xlink:href="#1"/><use transform="matrix(-.7845-.23176-.19317 1.0177 217.81-158.32)" xlink:href="#2"/><use transform="matrix(-.80583-.05704-.05829 1.0422 144.06-231.29)" xlink:href="#1"/><use transform="matrix(-.79918-.19047-.14475 1.0357 195.61-167.06)" xlink:href="#2"/><use transform="matrix(-.78151-.28937-.22108 1.0126 244.54-119.77)" xlink:href="#1"/><use transform="matrix(-.81036-.07337-.05442 1.0506 150.3-187.11)" xlink:href="#2"/><use transform="matrix(-.79583.20748.16214 1.0325 11.425-282.66)" xlink:href="#1"/><use transform="matrix(-.8323-.07382-.06323 1.0471 158.58-166.22)" xlink:href="#2"/><use transform="matrix(-.83441-.02211-.02213 1.0495 137.26-185.67)" xlink:href="#1"/><use transform="matrix(-.83091-.09424-.07947 1.0455 168.16-145.21)" xlink:href="#2"/><use transform="matrix(-.83242.08318.0616 1.0464 84.09-204.96)" xlink:href="#1"/><use transform="matrix(-.82497-.15415-.12707 1.0384 176.47-102.86)" xlink:href="#2"/><use transform="matrix(-.80889-.25347-.20596 1.0187 223.56-57.902)" xlink:href="#1"/><use transform="matrix(-.83401-.03699-.03396 1.0491 137.38-132.48)" xlink:href="#2"/><use transform="matrix(-.81322.24218.18814 1.0214-19.326-209.79)" xlink:href="#1"/><use transform="matrix(-.82635.15381.1178 1.0384 58.12-162.22)" xlink:href="#2"/><use transform="matrix(-.80657.27576.21488 1.0129 7.574-201.31)" xlink:href="#1"/><use transform="matrix(-.82529.16284.12499 1.037 53.836-147.04)" xlink:href="#2"/><use transform="matrix(-.77235.4034.31656.96913-65.33-189.99)" xlink:href="#1"/><use transform="matrix(-.80048.28493.23828 1.0098-10.356-150.92)" xlink:href="#2"/><use transform="matrix(-.8276.14227.10861 1.0401 83.04-122.66)" xlink:href="#1"/><use transform="matrix(-.76878.39613.32636.97156-59.06-143.04)" xlink:href="#2"/><use transform="matrix(-.6549.6393.51831.83196-220.52-149.44)" xlink:href="#1"/><use transform="matrix(-.77032.39153.32271.97342-55.22-122.15)" xlink:href="#2"/><use transform="matrix(-.75348.43904.36029.95294-81.31-127.85)" xlink:href="#1"/><use transform="matrix(-.75308.44009.36113.95245-73.12-100.27)" xlink:href="#2"/><use transform="matrix(-.6815.59422.4828.86473-169.94-99.1)" xlink:href="#1"/><use transform="matrix(-.75044.44697.36657.94924-75.72-73.31)" xlink:href="#2"/><use transform="matrix(-.78227.35344.29256.98789-13.05-71.77)" xlink:href="#1"/><use transform="matrix(-.70471.55038.44824.89327-122.62-55.47)" xlink:href="#2"/><use transform="matrix(-.49745.81292.67456.65902-326.81-30.979)" xlink:href="#1"/><use transform="matrix(-.67755.57664.49337.8733-146.45-46.2)" xlink:href="#2"/><use transform="matrix(-.65241.61898.52617.84381-172.89-45.26)" xlink:href="#1"/><use transform="matrix(-.65182.61993.5269.84312-159.84-20.278)" xlink:href="#2"/><use transform="matrix(-.50705.80342.66738.67058-286.39 19.592)" xlink:href="#1"/><use transform="matrix(-.60805.68475.57686.79138-190.41 12.602)" xlink:href="#2"/><use transform="matrix(-.66079.60532.5156.85367-130.32-7.105)" xlink:href="#1"/><use transform="matrix(-.53968.769.64128.70978-230.83 45.662)" xlink:href="#2"/><use transform="matrix(-.1955.9766.82904.34045-469.03 180.53)" xlink:href="#1"/><use transform="matrix(-.54271.76564.63872.71342-219.87 62.62)" xlink:href="#2"/><use transform="matrix(-.37436.87687.7651.5484-348.1 103.99)" xlink:href="#1"/><use transform="matrix(-.37351.87749.76552.54743-327.73 121.39)" xlink:href="#2"/><use transform="matrix(-.23925.95715.81749.39183-403.67 188.09)" xlink:href="#1"/><use transform="matrix(-.36797.88142.7682.54107-316.2 145.59)" xlink:href="#2"/><use transform="matrix(-.44027.82519.72917.62347-265.88 104.33)" xlink:href="#1"/><use transform="matrix(-.2797.93643.80455.43904-344.27 192.27)" xlink:href="#2"/><use transform="matrix(-.05663 1.0193.8499.17535-456.93 323.18)" xlink:href="#1"/><use transform="matrix(.02017-.39188-.61627.0403 498.97 161.08)" xlink:href="#1"/><use transform="matrix(.01602-.40284-.61767.03636 470.02 162.81)" xlink:href="#2"/><use transform="matrix(-.08459-.37938-.61077.10615 525.98 120.63)" xlink:href="#1"/><use transform="matrix(-.18817-.47728-.59826.20148 516.32 112.47)" xlink:href="#2"/><use transform="matrix(.07434-.39391-.61211.00565 437.32 192.49)" xlink:href="#1"/><use transform="matrix(-.05405-.3842-.61423.08711 464.53 145.6)" xlink:href="#2"/><use transform="matrix(-.21479-.34741-.57798.18575 503.79 66.8)" xlink:href="#1"/><use transform="matrix(-.12891-.54735-.45778.08623 407.59 198.43)" xlink:href="#2"/><use transform="matrix(-.15109-.5387-.44765.11133 408.8 182.53)" xlink:href="#1"/><use transform="matrix(.02956.99554.88443.1449-527.6 335.38)" xlink:href="#1"/><use transform="matrix(-.16718.93867.86898.36192-427.03 233.56)" xlink:href="#1"/><use transform="matrix(-.01745.98644.88475.19757-462.22 328.02)" xlink:href="#1"/><use transform="matrix(-.15992.94166.87035.35408-386.57 266.9)" xlink:href="#2"/><use transform="matrix(-.24302.90317.8509.44315-346.84 215.36)" xlink:href="#1"/><use transform="matrix(-.06152.97537.88278.24648-403.41 318.71)" xlink:href="#2"/><use transform="matrix(.17448 1.0058.86755-.02064-483.67 471.63)" xlink:href="#1"/><use transform="matrix(.10114.99083.89256.08086-503.33 405.32)" xlink:href="#1"/><use transform="matrix(-.09917.94827.89278.29843-410.35 296.52)" xlink:href="#1"/><use transform="matrix(.0536.98514.89668.13336-438.65 393.27)" xlink:href="#1"/><use transform="matrix(-.09172.95073.89358.29051-367.59 326.87)" xlink:href="#2"/><use transform="matrix(-.17738.91832.88059.38075-331.68 272.6)" xlink:href="#1"/><use transform="matrix(.00885.97727.89823.18229-380.66 379.75)" xlink:href="#2"/><use transform="matrix(.24643.99065.86381-.08304-449.71 538.06)" xlink:href="#1"/></g></g><g transform="matrix(1.1008 0 0 1.0798 111.21 31.501)"><g fill-rule="evenodd"><path fill="#3d25ca" d="m374.65 434.6c0 66.21-53.676 119.89-119.89 119.89-66.21 0-119.89-53.676-119.89-119.89 0-66.21 53.676-119.89 119.89-119.89 66.21 0 119.89 53.676 119.89 119.89z" transform="matrix(2.1427 0 0 2.2166-324.43-513.33)"/><path fill="#ffd900" d="m353.57 628.49l-130.85-89.51-130.85 89.51 49.07-143.21-114.5-89.51h147.21l49.07-143.21 49.07 143.21h147.21l-114.49 89.51 49.07 143.21z" transform="matrix(1.0832 0 0 .98968-10.924-12.555)"/></g><g fill="none"><path d="m17.716 379.13l212.6 53.15"/><path d="m230.32 237.4v194.88"/><path d="m230.32 432.28v88.58"/><path d="m230.32 432.28l88.58 35.434"/><path d="m177.16 379.13l53.15 53.15"/><path d="m230.32 432.28l53.15-53.15"/><path d="m442.91,379.13-212.59,53.15"/><path d="m230.32 432.28l141.73 177.17"/><path d="m230.32,432.28-141.74,177.17"/><path d="m141.73 467.72l88.58-35.434"/></g></g></g></g><g stroke-width="1.25"><path fill="#d60000" stroke="#000" fill-rule="evenodd" d="m637.79 325.98c0 117.36-95.24 212.6-212.6 212.6s-212.6-95.24-212.6-212.6c0-117.35 95.24-212.6 212.6-212.6 117.35 0 212.6 95.24 212.6 212.6zm70.867 0c0 156.47-126.99 283.46-283.46 283.46s-283.46-126.99-283.46-283.46 126.99-283.46 283.46-283.46 283.46 126.99 283.46 283.46z" transform="matrix(1.0938 0 0 1.0938-66.44 190.9)"/><g fill="#ffe600"><path d="m790.76 189.65v-21.772l-17.561-29.625h7.335l8.985 15.497c1.654 2.898 3.198 5.796 4.63 8.694 1.363-2.688 3.02-5.715 4.969-9.08l8.826-15.11h7.02l-18.18 29.625v21.772h-6.03" transform="matrix(-.34698.93787-.93787-.34698 1087.2-72.78)"/><path d="m719.4 138.25h6.03v29.695c0 5.166-.52 9.268-1.554 12.306-1.04 3.039-2.912 5.516-5.628 7.433-2.694 1.893-6.237 2.84-10.628 2.84-4.27 0-7.759-.83-10.47-2.489-2.715-1.66-4.651-4.056-5.812-7.188-1.162-3.155-1.74-7.456-1.74-12.902v-29.695h6.02v29.661c0 4.464.366 7.759 1.093 9.886.742 2.104 2 3.728 3.786 4.874 1.804 1.145 3.999 1.717 6.593 1.717 4.428 0 7.589-1.133 9.478-3.401 1.882-2.267 2.826-6.626 2.826-13.08v-29.661" transform="matrix(.10883.99406-.99406.10883 751.51-205.45)"/><path d="m661.32 169.49v-6.03l19.295-.035v19.07c-2.96 2.665-6.01 4.675-9.165 6.03-3.151 1.332-6.38 1.999-9.695 1.999-4.477 0-8.55-1.075-12.215-3.226-3.649-2.174-6.401-5.305-8.268-9.396-1.862-4.09-2.795-8.659-2.795-13.708 0-5 .923-9.665 2.768-13.988 1.862-4.348 4.535-7.573 8.01-9.677 3.48-2.104 7.489-3.155 12.03-3.155 3.294 0 6.264.607 8.916 1.823 2.673 1.192 4.768 2.863 6.279 5.01 1.512 2.151 2.663 4.956 3.447 8.415l-5.436 1.682c-.684-2.617-1.533-4.674-2.546-6.17-1.018-1.496-2.466-2.688-4.354-3.576-1.883-.911-3.978-1.367-6.274-1.367-2.758 0-5.139.479-7.149 1.437-2.01.935-3.639 2.174-4.88 3.716-1.22 1.543-2.174 3.238-2.859 5.084-1.161 3.179-1.739 6.626-1.739 10.343 0 4.581.695 8.414 2.079 11.499 1.411 3.085 3.453 5.376 6.126 6.872 2.673 1.495 5.51 2.243 8.512 2.243 2.609 0 5.16-.561 7.648-1.683 2.482-1.145 4.37-2.36 5.654-3.645v-9.572h-13.392" transform="matrix(.19869.98006-.98006.19869 685.86-216.97)"/><path d="m413.37 189.65v-51.4h6.02v45.33h22.439v6.06h-28.464" transform="matrix(.985.17257-.17257.985 61.22 44.28)"/><path d="m371.29 189.65v-51.4h32.941v6.07h-26.91v15.741h25.2v6.03h-25.2v17.495h27.966v6.06h-33.997" transform="translate(14.314 109.37)"/><path d="m251.62 171.63l6.02 1.718c-1.262 5.586-3.543 9.852-6.836 12.796-3.273 2.922-7.282 4.383-12.02 4.383-4.911 0-8.91-1.122-11.997-3.366-3.065-2.267-5.404-5.539-7.02-9.817-1.596-4.277-2.392-8.87-2.392-13.778 0-5.352.902-10.01 2.7-13.989 1.824-3.997 4.402-7.02 7.738-9.08 3.357-2.08 7.05-3.12 11.06-3.12 4.562 0 8.391 1.309 11.499 3.926 3.108 2.618 5.272 6.299 6.497 11.04l-5.935 1.578c-1.055-3.74-2.593-6.463-4.598-8.169-2.01-1.706-4.54-2.559-7.584-2.559-3.501 0-6.434.946-8.794 2.839-2.344 1.894-3.988 4.441-4.943 7.644-.955 3.178-1.427 6.462-1.427 9.851 0 4.371.557 8.192 1.676 11.465 1.141 3.248 2.901 5.679 5.283 7.292 2.381 1.612 4.964 2.419 7.738 2.419 3.378 0 6.237-1.099 8.576-3.296 2.344-2.197 3.925-5.457 4.757-9.781" transform="matrix(.76014-.64976.64976.76014-59.54 364.33)"/><path d="m202.45 189.65v-51.4h6.03v51.4h-6.03" transform="matrix(.66836-.74384.74384.66836-54.644 400.36)"/><path d="m165.78 189.65v-51.4h6.03v45.33h22.434v6.06h-28.464" transform="matrix(.60945-.79282.79282.60945-54.38 421.56)"/><path d="m107.51 138.25h6.03v29.695c0 5.166-.514 9.268-1.548 12.306-1.04 3.039-2.912 5.516-5.627 7.433-2.695 1.893-6.238 2.84-10.629 2.84-4.269 0-7.759-.83-10.475-2.489-2.71-1.66-4.651-4.056-5.808-7.188-1.162-3.155-1.74-7.456-1.74-12.902v-29.695h6.03v29.661c0 4.464.366 7.759 1.087 9.886.748 2.104 2.01 3.728 3.792 4.874 1.803 1.145 3.999 1.717 6.587 1.717 4.434 0 7.594-1.133 9.483-3.401 1.882-2.267 2.826-6.626 2.826-13.08v-29.661" transform="matrix(.36842-.92966.92966.36842-47.569 485.03)"/><path d="m-7.156 189.65v-51.4h32.941v6.07h-26.916v15.741h25.2v6.03h-25.2v17.495h27.972v6.06h-33.997" transform="matrix(-.0083-.99997.99997-.0083-39.13 554.8)"/><path d="m325.2 189.65v-51.4h15.693c3.543 0 6.243.246 8.11.737 2.609.678 4.836 1.904 6.682 3.681 2.403 2.29 4.195 5.224 5.373 8.8 1.204 3.553 1.803 7.619 1.803 12.2 0 3.903-.403 7.363-1.209 10.378-.812 3.01-1.846 5.516-3.108 7.503-1.262 1.963-2.652 3.517-4.164 4.663-1.495 1.121-3.304 1.974-5.441 2.559-2.111.584-4.545.876-7.303.876h-16.436m6.02-6.07h9.727c3.01 0 5.356-.315 7.05-.947 1.724-.631 3.087-1.519 4.105-2.664 1.427-1.613 2.536-3.775 3.326-6.486.806-2.735 1.209-6.04 1.209-9.922 0-5.375-.785-9.501-2.36-12.376-1.554-2.898-3.447-4.838-5.686-5.82-1.617-.701-4.216-1.051-7.801-1.051h-9.573v39.27" transform="matrix(.98024-.19783.19783.98024-13.77 184.73)"/><path d="m466.69 189.65v-51.4h17.189c3.02 0 5.335.164 6.927.491 2.238.421 4.115 1.227 5.627 2.419 1.511 1.169 2.726 2.817 3.633 4.943.933 2.127 1.4 4.465 1.4 7.01 0 4.371-1.231 8.08-3.697 11.11-2.466 3.01-6.921 4.523-13.365 4.523h-11.684v20.895h-6.03m6.03-26.961h11.779c3.893 0 6.662-.817 8.295-2.453 1.639-1.637 2.456-3.939 2.456-6.907 0-2.15-.488-3.985-1.459-5.505-.954-1.542-2.216-2.559-3.792-3.05-1.013-.303-2.89-.455-5.627-.455h-11.652v18.37" transform="matrix(.88663.46248-.46248.88663 182.56-57.18)"/><path d="m504.14 189.65l17.497-51.4h6.491l18.648 51.4h-6.868l-5.314-15.566h-19.05l-5 15.566h-6.401m13.14-21.11h15.45l-4.757-14.234c-1.448-4.323-2.525-7.876-3.23-10.657-.584 3.295-1.4 6.567-2.456 9.816l-5.01 15.07" transform="matrix(.74426.66789-.66789.74426 286.34-137.51)"/><path d="m551.69 189.65v-51.4h20.2c4.062 0 7.149.468 9.26 1.403 2.116.912 3.803 2.535 5.07 4.873 1.263 2.337 1.894 4.92 1.894 7.748 0 3.646-1.045 6.72-3.14 9.221-2.09 2.501-5.325 4.09-9.695 4.768 1.596.864 2.805 1.718 3.638 2.559 1.761 1.823 3.426 4.102 5 6.837l7.924 13.988h-7.584l-6.02-10.693c-1.761-3.085-3.214-5.446-4.354-7.082-1.135-1.636-2.164-2.781-3.077-3.435-.891-.655-1.803-1.111-2.731-1.368-.684-.164-1.803-.246-3.357-.246h-6.99v22.824h-6.03m6.03-28.713h12.957c2.752 0 4.911-.316 6.465-.947 1.554-.654 2.731-1.683 3.543-3.085.806-1.426 1.209-2.969 1.209-4.628 0-2.431-.785-4.429-2.36-5.995-1.554-1.566-4.02-2.349-7.399-2.349h-14.415v17" transform="matrix(.60879.79333-.79333.60879 386.21-178.23)"/><path d="m592.55 189.65l17.497-51.4h6.492l18.647 51.4h-6.868l-5.314-15.566h-19.05l-5 15.566h-6.402m13.14-21.11h15.449l-4.757-14.234c-1.448-4.323-2.53-7.876-3.23-10.657-.583 3.295-1.4 6.567-2.456 9.816l-5.01 15.07" transform="matrix(.48763.87305-.87305.48763 475.73-199.8)"/><path d="m730.47 189.65l17.497-51.4h6.491l18.648 51.4h-6.868l-5.314-15.566h-19.05l-5 15.566h-6.401m13.14-21.11h15.445l-4.752-14.234c-1.454-4.323-2.53-7.876-3.23-10.657-.584 3.295-1.401 6.567-2.456 9.816l-5.01 15.07" transform="matrix(-.104.99458-.99458-.104 908.9-163.73)"/><path d="m-53.15 189.65v-51.4h20.2c4.063 0 7.149.468 9.26 1.403 2.116.912 3.803 2.535 5.07 4.873 1.262 2.337 1.893 4.92 1.893 7.748 0 3.646-1.045 6.72-3.14 9.221-2.09 2.501-5.325 4.09-9.695 4.768 1.596.864 2.806 1.718 3.638 2.559 1.761 1.823 3.426 4.102 5 6.837l7.924 13.988h-7.584l-6.03-10.693c-1.761-3.085-3.214-5.446-4.354-7.082-1.135-1.636-2.164-2.781-3.076-3.435-.891-.655-1.803-1.111-2.731-1.368-.684-.164-1.803-.246-3.357-.246h-6.99v22.824h-6.03m6.03-28.713h12.957c2.753 0 4.911-.316 6.465-.947 1.554-.654 2.731-1.683 3.543-3.085.806-1.426 1.209-2.969 1.209-4.628 0-2.431-.785-4.429-2.36-5.995-1.554-1.566-4.02-2.349-7.399-2.349h-14.415v17" transform="matrix(-.21523-.97656.97656-.21523-37.95 596.54)"/><path d="m35.17 189.65v-51.4h17.18c3.03 0 5.335.164 6.932.491 2.238.421 4.11 1.227 5.627 2.419 1.511 1.169 2.721 2.817 3.633 4.943.933 2.127 1.4 4.465 1.4 7.01 0 4.371-1.236 8.08-3.697 11.11-2.466 3.01-6.921 4.523-13.365 4.523h-11.684v20.895h-6.03m6.03-26.961h11.78c3.893 0 6.656-.817 8.295-2.453 1.639-1.637 2.456-3.939 2.456-6.907 0-2.15-.488-3.985-1.459-5.505-.955-1.542-2.217-2.559-3.792-3.05-1.018-.303-2.891-.455-5.627-.455h-11.652v18.37" transform="matrix(.08574-.99632.99632.08574-39.533 533.62)"/><path d="m123.33 189.65v-51.4h17.09c3.479 0 6.263.526 8.358 1.578 2.111 1.029 3.761 2.63 4.943 4.803 1.199 2.15 1.798 4.406 1.798 6.767 0 2.197-.525 4.265-1.58 6.205-1.061 1.94-2.652 3.506-4.789 4.698 2.757.911 4.868 2.466 6.343 4.663 1.49 2.197 2.238 4.791 2.238 7.783 0 2.407-.456 4.651-1.368 6.732-.891 2.056-2 3.645-3.326 4.767s-2.996 1.975-5.01 2.56c-1.989.561-4.434.841-7.33.841h-17.375m6.03-29.8h9.849c2.673 0 4.593-.199 5.749-.596 1.533-.514 2.684-1.367 3.453-2.559.785-1.192 1.177-2.688 1.177-4.488 0-1.706-.36-3.202-1.087-4.487-.721-1.31-1.761-2.198-3.108-2.665-1.347-.491-3.654-.736-6.926-.736h-9.107v15.531m0 23.735h11.345c1.946 0 3.315-.082 4.1-.245 1.389-.281 2.545-.748 3.479-1.403.933-.655 1.702-1.601 2.302-2.84.599-1.262.901-2.711.901-4.347 0-1.917-.435-3.576-1.305-4.979-.869-1.425-2.084-2.419-3.638-2.979-1.533-.585-3.75-.877-6.651-.877h-10.533v17.67" transform="matrix(.55474-.83202.83202.55474-52.3 436.28)"/><path d="m260.06 189.65l17.497-51.4h6.497l18.642 51.4h-6.863l-5.314-15.566h-19.05l-5.01 15.566h-6.401m13.148-21.11h15.444l-4.752-14.234c-1.453-4.323-2.53-7.876-3.235-10.657-.578 3.295-1.395 6.567-2.456 9.816l-5 15.07" transform="matrix(.84688-.53178.53178.84688-62.48 318.04)"/></g></g></g></g></svg>