<svg xmlns="http://www.w3.org/2000/svg" viewBox="0 0 512 512"><defs><clipPath id="0"><path d="m248.03 0h496.06v496.06h-496.06z"/></clipPath></defs><g fill-rule="evenodd" clip-path="url(#0)" transform="matrix(1.0321 0 0 1.0321-256 0)"><g stroke-width="1.25"><path fill="#009af4" d="m0 0h744.09v248.03h-744.09z"/><path fill="#1c8f31" d="M 0,372.05 H744.09 V496.07 H0 z"/><path fill="#efef00" d="M 0,248.03 H744.09 V372.05 H0 z"/><path fill="#ffda00" d="m673.46 171.02l-36.02-19.86 21.41 35.11-29.64-28.51 11.59 39.47-21.26-35.21.99 41.11-11.42-39.51-9.69 39.97-.8-41.12-19.71 36.1 9.87-39.93-28.38 29.78 19.86-36.02-35.11 21.41 28.5-29.64-39.46 11.59 35.21-21.26-41.11.99 39.51-11.42-39.97-9.69 41.12-.81-36.1-19.701 39.92 9.871-29.77-28.383 36.02 19.864-21.41-35.12 29.64 28.508-11.59-39.461 21.26 35.21-.99-41.12 11.42 39.511 9.69-39.97.8 41.12 19.71-36.1-9.87 39.928 28.38-29.77-19.86 36.01 35.11-21.411-28.5 29.644 39.46-11.592-35.21 21.262 41.11-.99-39.51 11.42 39.97 9.69-41.12.8 36.1 19.71-39.92-9.87z" transform="translate(2.174 1.631)"/></g><path fill="#0098f6" d="m639.76 123.19c0 17.11-13.871 30.982-30.982 30.982s-30.982-13.871-30.982-30.982 13.871-30.982 30.982-30.982 30.982 13.871 30.982 30.982" transform="matrix(1.0124 0 0 1.0124-5.922.102)"/><path fill="#ffd900" d="m639.76 123.19c0 17.11-13.871 30.982-30.982 30.982s-30.982-13.871-30.982-30.982 13.871-30.982 30.982-30.982 30.982 13.871 30.982 30.982" transform="matrix(.81392 0 0 .82578 114.91 23.09)"/></g></svg>