<svg xmlns="http://www.w3.org/2000/svg" viewBox="0 0 512 512" xmlns:xlink="http://www.w3.org/1999/xlink"><defs><path id="1" d="m476.5 433.15l21.95-67.34-57.33-41.6 70.83.07 21.83-67.38 21.83 67.38 70.83-.05-57.34 41.58 21.94 67.35-57.27-41.68z"/><clipPath id="0"><path d="m0 0h496.06v496.06h-496.06z"/></clipPath></defs><g fill-rule="evenodd" stroke-width="1.25" clip-path="url(#0)" transform="scale(1.0321)"><path fill="#0000d6" d="m0 491.39l956.69-491.39h-956.69v491.39"/><path fill="#006000" d="m992.13 0l-965.8 496.06h965.8v-496.06"/><path fill="#fc0" d="m119.06 0h-6.38l-112.68 56.43v3.098h6.378l112.68-56.32v-3.208z" transform="scale(8.3333)"/><g fill="#fff"><use transform="matrix(.52623 0 0 .49524-211.72-118.39)" xlink:href="#1"/><use transform="matrix(.52623 0 0 .49524-26.526-118.39)" xlink:href="#1"/><use transform="matrix(.52623 0 0 .49524-26.526 21.596)" xlink:href="#1"/><use transform="matrix(.52623 0 0 .49524-118.58-47.579)" xlink:href="#1"/><use transform="matrix(.52623 0 0 .49524-211.72 21.596)" xlink:href="#1"/></g></g></svg>