<svg xmlns="http://www.w3.org/2000/svg" viewBox="0 0 512 512"><defs><clipPath id="clipPath5251" clipPathUnits="userSpaceOnUse"><path fill-opacity=".67" d="m0-.0001h496.06v496.0601h-496.06z"/></clipPath></defs><g fill-rule="evenodd" stroke-width="1.25" clip-path="url(#clipPath5251)" transform="matrix(1.0321 0 0 1.0321 0 .00006)"><path fill="#0000d6" d="m.0001,491.39 956.69-491.39h-956.69v491.39z"/><path fill="#006000" d="m992.13-.0001-965.8,496.06h965.8v-496.06z"/><path fill="#fc0" d="m119.06,0h-6.38l-112.68,56.43v3.0978h6.378l112.68-56.32v-3.208z" transform="scale(8.3333)"/><g fill="#fff"><path d="m476.5,433.15 21.95-67.34-57.33-41.6 70.83,.07 21.83-67.38 21.83,67.38 70.83-.05-57.34,41.58 21.94,67.35-57.27-41.68z" transform="matrix(.52623 0 0 .49524 -211.72 -118.39)"/><path d="m476.5,433.15 21.95-67.34-57.33-41.6 70.83,.07 21.83-67.38 21.83,67.38 70.83-.05-57.34,41.58 21.94,67.35-57.27-41.68z" transform="matrix(.52623 0 0 .49524 -26.526 -118.39)"/><path d="m476.5,433.15 21.95-67.34-57.33-41.6 70.83,.07 21.83-67.38 21.83,67.38 70.83-.05-57.34,41.58 21.94,67.35-57.27-41.68z" transform="matrix(.52623 0 0 .49524 -26.526 21.596)"/><path d="m476.5,433.15 21.95-67.34-57.33-41.6 70.83,.07 21.83-67.38 21.83,67.38 70.83-.05-57.34,41.58 21.94,67.35-57.27-41.68z" transform="matrix(.52623 0 0 .49524 -118.58 -47.579)"/><path d="m476.5,433.15 21.95-67.34-57.33-41.6 70.83,.07 21.83-67.38 21.83,67.38 70.83-.05-57.34,41.58 21.94,67.35-57.27-41.68z" transform="matrix(.52623 0 0 .49524 -211.72 21.596)"/></g></g></svg>