<svg xmlns="http://www.w3.org/2000/svg" viewBox="0 0 512 512"><defs><clipPath id="clipPath5206" clipPathUnits="userSpaceOnUse"><path fill-opacity=".67" d="m0-.0001h512v496.0601h-512z"/></clipPath></defs><g fill-rule="evenodd" stroke-width="1.25" clip-path="url(#clipPath5206)" transform="matrix(1 0 0 1.0321 0 .00015)"><path fill="#f00" d="m0-.0001h992.13v496.0601h-992.13z"/><path fill="#090" d="m0,531.5 1063-177.16v177.16h-1063z" transform="matrix(.93333 0 0 .93333 0 -.00002)"/><path fill="#fff" d="m0,531.5 1063-354.33v177.17l-1063,177.16z" transform="matrix(.93333 0 0 .93333 0 -.00002)"/><path fill="#009" d="m0,531.5v-531.5h354.33l-354.33,531.5z" transform="matrix(.93333 0 0 .93333 0 -.00002)"/><path fill="#ff0" d="m0,531.5 354.33-531.5h354.33l-708.66,531.5z" transform="matrix(.93333 0 0 .93333 0 -.00002)"/></g></svg>