<svg xmlns="http://www.w3.org/2000/svg" viewBox="0 0 512 512" xmlns:xlink="http://www.w3.org/1999/xlink"><defs><path id="1" d="m249.27 522.33l-10.33-7.53 12.78-.11 3.97-12.16 4.05 12.13 12.79.02-10.28 7.6 3.94 12.17-10.41-7.43-10.36 7.5z"/><clipPath id="0"><path d="m27.682 0h708.66v708.66h-708.66z"/></clipPath></defs><g fill-rule="evenodd" clip-path="url(#0)" transform="matrix(.72249 0 0 .72249-20 0)"><g stroke-width="1.25"><path fill="#fff" d="m0 0h1063v708.66h-1063z"/><path fill="#df0000" d="m0 0h1063v354.33h-1063z"/></g><g fill="#fff" stroke-width=".524"><path d="m263.4 473.62c-23.19 5.316-40.41 22.484-45.28 45.826-6.618 31.712 14.04 62.762 45.812 69.39-32.1 9.152-65.27-9.301-74.34-41.11-9.07-31.804 9.386-64.976 41.19-74.04 11.165-3.184 21.444-3.204 32.623-.066" transform="matrix(2.1168 0 0 2.1168-312.4-943.16)"/><use transform="matrix(1.8341 0 0 1.8341-255.13-795.56)" xlink:href="#1"/><use transform="matrix(1.8341 0 0 1.8341-229.2-718.7)" xlink:href="#1"/><use transform="matrix(1.8341 0 0 1.8341-142.94-719.27)" xlink:href="#1"/><use transform="matrix(1.8341 0 0 1.8341-117.22-795.5)" xlink:href="#1"/><use transform="matrix(1.8341 0 0 1.8341-185.51-846.08)" xlink:href="#1"/></g></g></svg>