<svg xmlns="http://www.w3.org/2000/svg" viewBox="0 0 512 512"><defs><clipPath id="clipPath5047" clipPathUnits="userSpaceOnUse"><path fill-opacity=".67" d="m27.682-0h708.66v708.66h-708.66z"/></clipPath></defs><g fill-rule="evenodd" clip-path="url(#clipPath5047)" transform="matrix(.72249 0 0 .72249 -20 0)"><g stroke-width="1.25"><path fill="#fff" d="m0,0h1063v708.66h-1063z"/><path fill="#df0000" d="m0,0h1063v354.33h-1063z"/></g><g fill="#fff" stroke-width=".524"><path d="m263.4,473.62c-23.186,5.316-40.414,22.484-45.285,45.826-6.618,31.712 14.039,62.762 45.812,69.39-32.101,9.152-65.273-9.301-74.341-41.106-9.067-31.804 9.386-64.976 41.191-74.044 11.165-3.184 21.444-3.204 32.623-.066z" transform="matrix(2.1168 0 0 2.1168 -312.4 -943.16)"/><path d="m249.27,522.33-10.33-7.53 12.78-.11 3.97-12.16 4.05,12.13 12.79,.02-10.28,7.6 3.94,12.17-10.41-7.43-10.36,7.5z" transform="matrix(1.8341 0 0 1.8341 -255.13 -795.56)"/><path d="m249.27,522.33-10.33-7.53 12.78-.11 3.97-12.16 4.05,12.13 12.79,.02-10.28,7.6 3.94,12.17-10.41-7.43-10.36,7.5z" transform="matrix(1.8341 0 0 1.8341 -229.2 -718.7)"/><path d="m249.27,522.33-10.33-7.53 12.78-.11 3.97-12.16 4.05,12.13 12.79,.02-10.28,7.6 3.94,12.17-10.41-7.43-10.36,7.5z" transform="matrix(1.8341 0 0 1.8341 -142.94 -719.27)"/><path d="m249.27,522.33-10.33-7.53 12.78-.11 3.97-12.16 4.05,12.13 12.79,.02-10.28,7.6 3.94,12.17-10.41-7.43-10.36,7.5z" transform="matrix(1.8341 0 0 1.8341 -117.22 -795.5)"/><path d="m249.27,522.33-10.33-7.53 12.78-.11 3.97-12.16 4.05,12.13 12.79,.02-10.28,7.6 3.94,12.17-10.41-7.43-10.36,7.5z" transform="matrix(1.8341 0 0 1.8341 -185.51 -846.08)"/></g></g></svg>