<svg xmlns="http://www.w3.org/2000/svg" viewBox="0 0 512 512" xmlns:xlink="http://www.w3.org/1999/xlink"><defs><path id="0" d="m234.7 95.18l1.134 3.255 4.983.829-3.229 2.361 3.122 2.531-4.541.923-1.382 2.95-1.554-3.038-4.323-.744 2.942-2.586-3.03-2.353 4.785-.89 1.092-3.238"/><clipPath id="1"><path d="m60.22 0h497.33v497.33h-497.33z"/></clipPath></defs><g fill-rule="evenodd" stroke-width="1.25" clip-path="url(#1)" transform="matrix(1.0295 0 0 1.0295-62 0)"><path fill="#fff" d="M 0,0 H994.66 V497.33 H0 z"/><path fill="#de2918" d="M 0,331.55 H994.66 V497.33 H0 z"/><path fill="#08399c" d="M 0,165.78 H994.66 V331.56 H0 z"/><path fill="#de2918" d="m311.66 103.35c-3.351 59.885-5.271 92.7-13.1 107.88-8.463 16.308-16.696 28.25-49.717 42.625-33.02-14.377-41.25-26.317-49.718-42.625-7.827-15.183-9.747-48-13.1-107.88l4.88-1.915c9.824-3.49 17.15-6.298 22.576-7.544 7.765-1.915 14.364-4.079 35.23-4.587 20.868.418 27.5 2.718 35.26 4.632 5.377 1.336 13.02 3.964 22.772 7.522l4.906 1.892" transform="matrix(1.165 0 0 1-81.05-13.04)"/><path fill="#08399c" d="m306.85 101.43c-3.17 59.739-5.822 87.1-9.958 100.25-8.03 22.522-20.732 34.87-48.08 46.648-27.346-11.778-40.05-24.13-48.08-46.648-4.136-13.153-6.749-40.43-9.828-100.31 9.617-3.498 17.16-6.232 22.578-7.478 7.765-1.915 14.364-4.169 35.23-4.587 20.868.418 27.545 2.673 35.31 4.587 5.422 1.246 13.12 3.98 22.823 7.538" transform="matrix(1.165 0 0 1.0003-81.05-13.11)"/><use fill="#fc0" transform="matrix(1.347 0 0 1.1107-107.35.922)" xlink:href="#0"/><path fill="#fff" d="m294.92 187.51l-3.194-2.941-2.308-4.424-4.521-4.569-2.356-4.617-4.521-4.713-2.212-4.616-2.404-2.261-1.587-1.779-4.084 4.172-2.226 4.531-2.774 2.93-3.047-2.773-2.304-4.727-8.553-17.695-8.554 17.695-2.304 4.727-3.047 2.773-2.774-2.93-2.226-4.531-4.084-4.172-1.587 1.779-2.404 2.261-2.212 4.616-4.521 4.713-2.356 4.617-4.521 4.569-2.308 4.424-3.186 3.01c1.654 16.402 10.629 29.25 15.519 35.13 5.457 6.173 16.708 14.432 30.466 19.899 13.797-5.35 25.2-13.726 30.661-19.899 4.89-5.879 13.865-18.73 15.529-35.2" transform="matrix(1.165 0 0 1-81.05-13.04)"/><g fill="#fc0"><use transform="matrix(1.347 0 0 1.1107-91.33-24.23)" xlink:href="#0"/><use transform="matrix(1.347 0 0 1.1107-123.36-24.289)" xlink:href="#0"/></g><g fill="#08399c"><path d="m287.78 210.25l-6.227.022-5.746-.498-6.96-3.977-7.845.055-6.794 3.867-5.359.552-5.359-.552-6.794-3.867-7.845-.055-6.96 3.977-5.746.498-6.305-.101-3.045-6.01.113-.138 9.315 1.795 5.746-.498 6.96-3.977 7.845.055 6.794 3.867 5.359.552 5.359-.552 6.794-3.867 7.845-.055 6.96 3.977 5.746.498 9.07-1.852.12.278-3.037 6" transform="matrix(1.165 0 0 1-81.05-13.04)"/><path d="m215.72 210.27l6.164-.498 6.96-3.977 7.845.055 6.794 3.867 5.359.552 5.359-.552 6.794-3.867 7.845-.055 6.96 3.977 6.248.498 4.03-5.789-.136-.131-4.319 1.467-5.746-.498-6.96-3.977-7.845.055-6.794 3.867-5.359.552-5.359-.552-6.794-3.867-7.845-.055-6.96 3.977-5.746.498-4.233-1.243-.051.242 3.788 5.454" transform="matrix(1.165 0 0 1-81.09-3.818)"/></g></g></svg>