<svg xmlns="http://www.w3.org/2000/svg" viewBox="0 0 512 512"><defs><clipPath id="0"><path d="m177.12.193h708.47v708.47h-708.47z"/></clipPath></defs><path width="0" fill="#fff" d="m0 0h512v512h-512z"/><g fill-rule="evenodd" clip-path="url(#0)" transform="matrix(.72269 0 0 .72269-128-.14)"><g stroke-width="1.25"><g fill="#090"><path d="M 0,567.12 H1062.9 V708.66 H0 z"/><path d="m0 .193h1062.8v141.69h-1062.8z"/></g><path fill="#f00" d="M 0,212.45 H1062.9 V495.38 H0 z"/></g><path fill="#ff0" stroke-width=".113" d="m266.19 534.45l-10.408-7.432-10.357 7.505 3.852-12.196-10.338-7.531 12.79-.105 3.967-12.159 4.052 12.13 12.79.016-10.285 7.602 3.937 12.169" transform="matrix(8.8291 0 0 8.1823-1739.2-3887)"/></g></svg>