<svg xmlns="http://www.w3.org/2000/svg" viewBox="0 0 512 512" xmlns:xlink="http://www.w3.org/1999/xlink"><defs><clipPath id="0"><path d="m0 0h512v512h-512z"/></clipPath></defs><g fill-rule="evenodd" clip-path="url(#0)"><g stroke-width="1.25"><path fill="#ff0" d="m0 0h1024v504.3h-1024z"/><g fill="#009d00"><path d="m0 0h1024v146.29h-1024z"/><path d="M 0,365.71 H1024 V512 H0 z"/></g></g><path fill="#f10600" d="m.708 0c1.417 0 255.29 253.03 255.29 253.03l-256 258.97.708-512z"/><g stroke-width="1.25" transform="matrix(.78651 0 0 .78651-154.66-225.36)"><path d="m591.04 433.16l-57.27-41.68-57.27 41.67 21.95-67.34-57.33-41.6 70.83.07 21.83-67.38 21.83 67.38 70.83-.05-57.34 41.58z" transform="matrix(.70904 0 0 .73035 367.01 360.98)" id="1"/><use transform="translate(-250.37)" xlink:href="#1"/></g></g></svg>