<svg xmlns="http://www.w3.org/2000/svg" viewBox="0 0 512 512" xmlns:xlink="http://www.w3.org/1999/xlink"><defs><clipPath id="0"><path d="m0 0h512v512h-512z"/></clipPath></defs><g fill-rule="evenodd" clip-path="url(#0)"><g fill="#fff"><path d="m0 0h512v512h-512z"/><path d="M 0,342.08 H512 V512 H0 z" id="1"/><path d="m0 0h512v169.92h-512z"/><path d="m151.36 299.73l-30.743-22.258-30.592 22.476 11.378-36.525-30.536-22.554 37.779-.315 11.718-36.414 11.969 36.33 37.779.048-30.38 22.767 11.629 36.444z" id="2"/><path d="m436.84 299.73l-30.743-22.258-30.592 22.476 11.378-36.525-30.536-22.554 37.779-.315 11.718-36.414 11.969 36.33 37.779.048-30.38 22.767 11.629 36.444z" id="3"/></g><g stroke-width="1.25"><use xlink:href="#1"/><path fill="#f00" d="m0 0h512v169.92h-512z"/></g><g fill="#090" stroke-width=".113"><use xlink:href="#2"/><use xlink:href="#3"/></g></g></svg>