<svg xmlns="http://www.w3.org/2000/svg" viewBox="0 0 512 512"><defs><clipPath id="clipPath3830" clipPathUnits="userSpaceOnUse"><path fill-opacity=".67" d="m0,0h512v512h-512z"/></clipPath></defs><g fill-rule="evenodd" clip-path="url(#clipPath3830)"><g fill="#fff"><path d="m0,0h512v512h-512z"/><path d="M 0,342.08 H512 V512 H0 z"/><path d="m0,0h512v169.92h-512z"/><path d="m151.36,299.73-30.743-22.258-30.592,22.476 11.378-36.525-30.536-22.554 37.779-.3145 11.718-36.414 11.969,36.33 37.779,.0479-30.38,22.767 11.629,36.444z"/><path d="m436.84,299.73-30.743-22.258-30.592,22.476 11.378-36.525-30.536-22.554 37.779-.3145 11.718-36.414 11.969,36.33 37.779,.0479-30.38,22.767 11.629,36.444z"/></g><g stroke-width="1.25"><path d="M 0,342.08 H512 V512 H0 z"/><path fill="#f00" d="m0,0h512v169.92h-512z"/></g><g fill="#090" stroke-width=".113"><path d="m151.36,299.73-30.743-22.258-30.592,22.476 11.378-36.525-30.536-22.554 37.779-.3145 11.718-36.414 11.969,36.33 37.779,.0479-30.38,22.767 11.629,36.444z"/><path d="m436.84,299.73-30.743-22.258-30.592,22.476 11.378-36.525-30.536-22.554 37.779-.3145 11.718-36.414 11.969,36.33 37.779,.0479-30.38,22.767 11.629,36.444z"/></g></g></svg>