<svg xmlns="http://www.w3.org/2000/svg" viewBox="0 0 512 512"><defs><clipPath id="0"><path d="m0-.241h496.3v496.3h-496.3z"/></clipPath></defs><g fill-rule="evenodd" clip-path="url(#0)" transform="matrix(1.0316 0 0 1.0316 0 .248)"><g stroke-width="1.25"><path fill="#ffe300" d="m0-.241h744.09v496.3h-744.09z"/><g fill="#118600"><path d="m0 201.52h744.09v99.66h-744.09z"/><path d="m0 0h744.09v99.66h-744.09z"/></g><path fill="#d80000" d="m0 0h297.12v301.18h-297.12z"/></g><path fill="#fff" d="m130.3 124.25c0-.83 18.259-51.46 18.259-51.46l16.599 50.626s55.606 1.66 55.606.83-43.987 33.2-43.987 33.2 20.748 58.1 19.919 56.44c-.83-1.66-48.14-34.858-48.14-34.858s-48.14 33.2-47.31 33.2 18.258-54.776 18.258-54.776l-43.16-32.37 53.946-.83z"/><path fill="#118600" stroke-width="1.25" d="m0 396.4h744.09v99.66h-744.09z"/></g></svg>