<svg xmlns="http://www.w3.org/2000/svg" viewBox="0 0 512 512"><defs><clipPath id="clipPath7166" clipPathUnits="userSpaceOnUse"><path fill-opacity=".67" d="m0-.2406h496.3v496.2996h-496.3z"/></clipPath></defs><g fill-rule="evenodd" clip-path="url(#clipPath7166)" transform="matrix(1.0316 0 0 1.0316 0 .24825)"><g stroke-width="1.25"><path fill="#ffe300" d="m0-.2407h744.09v496.2997h-744.09z"/><g fill="#118600"><path d="m0,201.52h744.09v99.66h-744.09z"/><path d="m0-.0001h744.09v99.66h-744.09z"/></g><path fill="#d80000" d="m0-.0001h297.12v301.1801h-297.12z"/></g><path fill="#fff" d="m130.3,124.25c0-.83 18.259-51.456 18.259-51.456l16.599,50.626s55.606,1.66 55.606,.83-43.987,33.198-43.987,33.198 20.748,58.096 19.919,56.436c-.83-1.66-48.137-34.858-48.137-34.858s-48.136,33.198-47.306,33.198 18.258-54.776 18.258-54.776l-43.156-32.37 53.946-.83z"/><path fill="#118600" stroke-width="1.25" d="m0,396.4h744.09v99.66h-744.09z"/></g></svg>