<svg xmlns="http://www.w3.org/2000/svg" viewBox="0 0 512 512" xmlns:xlink="http://www.w3.org/1999/xlink"><defs><path id="1" d="m391.56 256.53l3.57 11.24 11.56-.25-9.59 6.87 3.81 10.92-9.49-6.99-9.21 6.99 3.72-11.19-9.5-6.6 11.79.08z"/><clipPath id="0"><path d="m248.38 0h496.76v496.76h-496.76z"/></clipPath></defs><g fill-rule="evenodd" clip-path="url(#0)" transform="matrix(1.0307 0 0 1.0307-256 0)"><g stroke-width="1.25"><path fill="#fff" d="M 0,0 H992.91 V496.76 H0 z"/><path fill="#239f40" d="M 0,361.35 H992.16 V496.33 H0 z"/><path fill="#cd1738" d="M 0,0 H992.16 V134.98 H0 z"/></g><g fill="#ff0"><use transform="matrix(1 0 0 1.0461 11.932-62.42)" xlink:href="#1"/><use transform="matrix(1 0 0 1.0461.442-12.04)" xlink:href="#1"/><use transform="matrix(1 0 0 1.0461 50.823-103.52)" xlink:href="#1"/><use transform="matrix(1 0 0 1.0461 103.19-117.22)" xlink:href="#1"/><use transform="matrix(1 0 0 1.0461 156.01-103.52)" xlink:href="#1"/><use transform="matrix(1 0 0 1.0461 194.9-62.2)" xlink:href="#1"/><use transform="matrix(1 0 0 1.0461 206.17-12.04)" xlink:href="#1"/><path d="m516.09 230.63c0 9.255-9.339 16.758-20.859 16.758s-20.859-7.503-20.859-16.758c0-9.255 9.339-16.758 20.859-16.758s20.859 7.503 20.859 16.758" transform="matrix(.96067 0 0 .9021 19.12 20.782)"/><path d="m489.1 239.5h11.445v53.28h-11.445z"/><path d="m595.32 288.76c-4.981 10.57-11.684 14.321-22.625 14.03-19.15.454-23.475-13.61-25.971-19.819-6.768 8.92-10.615 12.466-21.85 12.251-16.01.358-24.09-8.753-30.06-25.979-5.967 17.12-14.05 26.23-30.06 25.869-11.235.215-15.08-3.331-21.85-12.251-2.496 6.209-6.823 20.273-25.971 19.819-10.941.293-17.644-3.458-22.13-14.175 5.205 14.967 10.361 23.342 26.344 23.864 14.476.174 21.11-8.21 24.24-13.944 10.429 5.54 11.501 6.77 26.287 6.423 11.04-.355 17.377-7.566 23.09-14.427 5.712 6.861 12.05 14.07 23.09 14.427 14.786.347 15.858-.883 26.287-6.423 3.137 5.734 9.766 14.12 24.24 13.944 15.983-.522 21.14-8.897 26.925-23.607"/><path d="m446.47 304.18l5.225 7.241 10.02-.294-7.732 8.762-15.14.387-4.735-6.342 8.743-1.413 3.671-8.32" id="2"/><use transform="matrix(-1 0 0 1 989.44 0)" xlink:href="#2"/><path d="m482.23 308.84c0-.039 6.875.039 6.875.039l5.781-4.609 5.644 4.551 6.817.098-6.133 9.06h-12.891l-6.093-9.141"/><path d="m569.2 341.11c-26.731-5.519-44.622-8.234-74.41-8.234s-47.682 2.715-74.24 8.168l-.037-11.525c26.599-5.503 44.49-8.219 74.28-8.219s47.682 2.716 74.28 8.219l.132 11.591"/></g><path fill="#fff" d="m505.31 228.88c0 3.279-4.687 5.938-10.469 5.938-5.782 0-10.469-2.658-10.469-5.938s4.687-5.938 10.469-5.938c5.782 0 10.469 2.658 10.469 5.938"/></g></svg>