<svg xmlns="http://www.w3.org/2000/svg" viewBox="0 0 512 512" xmlns:xlink="http://www.w3.org/1999/xlink"><defs><clipPath id="0"><path d="m0 0h512v512h-512z"/></clipPath></defs><g clip-path="url(#0)"><path fill="#006" d="m0 0h1024v512h-1024z"/><g fill="#fff"><path d="m0 0v28.622l454.76 227.38h57.24v-28.62l-454.76-227.38h-57.24zm512 0v28.621l-454.76 227.38h-57.24v-28.62l454.76-227.38h57.24"/><path stroke-width="1.25" d="m213.33 0v256h85.33v-256h-85.33m-213.33 85.33v85.33h512v-85.33h-512"/></g><g fill="#c00"><path stroke-width="1.25" d="m0 102.4v51.2h512v-51.2h-512m230.4-102.4v256h51.2v-256h-51.2"/><path d="m0 256l170.67-85.33h38.16l-170.67 85.33h-38.16zm0-256l170.67 85.33h-38.16l-132.51-66.25v-19.08zm303.17 85.33l170.67-85.33h38.16l-170.67 85.33h-38.16zm208.83 170.67l-170.67-85.33h38.16l132.51 66.25v19.08z"/></g><g transform="matrix(.69449 0 0 .69449-177.29 177.11)"><g transform="scale(8.5333)"><path fill="#fff" d="m90 7.995l.899 2.767h2.91l-2.354 1.71.899 2.767-2.354-1.709-2.354 1.71.899-2.767-2.354-1.71h2.91z" id="1"/><path fill="#c00" d="m90 8.846l.708 2.18h2.292l-1.854 1.347.708 2.18-1.854-1.347-1.854 1.347.708-2.18-1.854-1.347h2.292z" id="2"/></g><g transform="matrix(8.5333 0 0 8.5333-118.3 119.03)"><use xlink:href="#1"/><use xlink:href="#2"/></g><g transform="matrix(8.5333 0 0 8.5333 101.4-14.251)"><path fill="#fff" d="m90 20.648l.753 2.316h2.436l-1.97 1.432.753 2.316-1.972-1.432-1.97 1.432.753-2.316-1.97-1.432h2.436z"/><path fill="#c00" d="m90 21.371l.59 1.816h1.91l-1.545 1.123.59 1.816-1.545-1.122-1.545 1.123.59-1.816-1.545-1.123h1.91z"/></g><g fill-rule="evenodd"><path fill="#fff" d="m768 372.02l8.437 25.966h27.302l-22.09 16.05 8.437 25.966-22.09-16.06-22.09 16.05 8.437-25.966-22.09-16.05h27.302z"/><path fill="#c00" d="m768 378.2l7.05 21.699h22.816l-18.459 13.411 7.05 21.699-18.46-13.41-18.459 13.411 7.05-21.699-18.459-13.411h22.816z"/></g></g></g></svg>