<svg xmlns="http://www.w3.org/2000/svg" viewBox="0 0 512 512"><defs><clipPath id="clipPath6050" clipPathUnits="userSpaceOnUse"><path fill-opacity=".67" d="m0,0h512v512h-512z"/></clipPath></defs><g clip-path="url(#clipPath6050)"><path fill="#006" d="m0,0h1024v512h-1024z"/><g fill="#fff"><path d="m0,0v28.622l454.76,227.38h57.24v-28.62l-454.76-227.38h-57.24zm512,0v28.621l-454.76,227.38h-57.24v-28.62l454.76-227.38h57.24z"/><path stroke-width="1.25" d="m213.33,0v256h85.333v-256h-85.333zm-213.33,85.333v85.333h512v-85.333h-512z"/></g><g fill="#c00"><path stroke-width="1.25" d="m0,102.4v51.2h512v-51.2h-512zm230.4-102.4v256h51.2v-256h-51.2z"/><path d="m0,256 170.67-85.333h38.162l-170.67,85.33h-38.16zm0-256l170.67,85.333h-38.162l-132.51-66.252v-19.081zm303.17,85.333 170.67-85.333h38.16l-170.67,85.333h-38.162zm208.83,170.67-170.67-85.33h38.162l132.51,66.25v19.08z"/></g><g transform="matrix(.69449 0 0 .69449 -177.29 177.11)"><g transform="scale(8.5333)"><path fill="#fff" d="m90,7.995 .8992,2.7674h2.9098l-2.3541,1.7104 .8992,2.7674-2.354-1.709-2.3541,1.7104 .8992-2.7674-2.3541-1.7104h2.9098z"/><path fill="#c00" d="m90,8.8456 .7082,2.1796h2.2918l-1.8541,1.3471 .7082,2.1796-1.854-1.347-1.854,1.347 .708-2.18-1.854-1.347h2.2918z"/></g><g transform="matrix(8.5333 0 0 8.5333 -118.3 119.03)"><path fill="#fff" d="m90,7.995 .8992,2.7674h2.9098l-2.3541,1.7104 .8992,2.7674-2.354-1.709-2.3541,1.7104 .8992-2.7674-2.3541-1.7104h2.9098z"/><path fill="#c00" d="m90,8.8456 .7082,2.1796h2.2918l-1.8541,1.3471 .7082,2.1796-1.854-1.347-1.854,1.347 .708-2.18-1.854-1.347h2.2918z"/></g><g transform="matrix(8.5333 0 0 8.5333 101.4 -14.251)"><path fill="#fff" d="m90,20.648 .7526,2.3164h2.4356l-1.9704,1.4316 .7526,2.3164-1.972-1.432-1.9704,1.4316 .7526-2.3164-1.9704-1.4316h2.4356z"/><path fill="#c00" d="m90,21.371 .5902,1.8164h1.9098l-1.5451,1.1226 .5902,1.8164-1.545-1.122-1.5451,1.1226 .5902-1.8164-1.5451-1.1226h1.9098z"/></g><g fill-rule="evenodd"><path fill="#fff" d="m768,372.02 8.4369,25.966h27.302l-22.088,16.048 8.4369,25.966-22.09-16.06-22.088,16.048 8.4369-25.966-22.088-16.048h27.302z"/><path fill="#c00" d="m768,378.2 7.0506,21.699h22.816l-18.459,13.411 7.0506,21.699-18.46-13.41-18.459,13.411 7.0506-21.699-18.459-13.411h22.816z"/></g></g></g></svg>