<svg xmlns="http://www.w3.org/2000/svg" viewBox="0 0 512 512"><defs><clipPath id="clipPath6079" clipPathUnits="userSpaceOnUse"><path fill-opacity=".67" d="m0-0h496.06v496.06h-496.06z"/></clipPath></defs><g fill-rule="evenodd" clip-path="url(#clipPath6079)" transform="matrix(1.0321 0 0 1.0321 0 .00003)"><path fill="#cb000f" stroke-width="1.25" d="m0-0h999.07v496.06h-999.07z"/><path fill="#f8c00c" d="m0,0c3.133,0 496.06,248.73 496.06,248.73l-496.06,247.33v-496.06z"/><path d="m0,0c2.0843,0 330.01,248.73 330.01,248.73l-330.01,247.33v-496.06z"/><path fill="#fff" d="m181.87,288.88-58.92-13.058-30.105,51.194-4.71-57.819-58.862-12.956 53.133-24.045-3.1891-57.537 38.983,42.039 53.618-24.447-27.93,52.221 37.983,44.408z"/></g></svg>