<svg xmlns="http://www.w3.org/2000/svg" viewBox="0 0 512 512" xmlns:xlink="http://www.w3.org/1999/xlink"><defs><path id="1" d="m-83.27 219.68l-5.315-3.544-5.315 3.544-5.315-3.544-5.314 3.544v-1.771l3.543-1.773-1.772-1.771v-1.772h1.772l1.772 1.772 1.771-1.772h1.772v1.772l-1.772 1.771 3.543 1.772 3.544-1.772-1.772-1.771v-1.772h1.772l1.772 1.772 1.771-1.772h1.772v1.772l-1.772 1.771 3.543 1.772 3.544-1.771-1.772-1.772v-1.772h1.772l1.771 1.772 1.771-1.772h1.772v1.772l-1.772 1.772 3.543 1.772v1.771l-5.315-3.543-5.315 3.543"/><path id="2" d="m334.75 269.29h1.555l1.554 1.635 1.554-1.635h32.636v22.895h-1.554l1.554 1.636v1.635l-4.662-4.906v-1.635h1.554v1.635h1.554v-1.635l-12.619-7.223h-10.63v-7.087l-4.725-3.679h-3.108l-1.554 1.635 1.554 1.636h-1.554l-3.109-4.906"/><path id="3" d="m340.16 269.29h31.89v21.26l-14.173-8.858h-10.63v-7.087l-7.087-5.315"/><path id="4" d="m-177.16,368.5h21.259l-21.259-10.63v10.63zm24.803-1.772-.001,17.717h-33.661v-14.173h-7.086l-8.858-5.315v-12.402l5.314-5.315h-7.086v17.717h-1.772v-19.489h17.717l35.433,21.26z"/><path id="5" d="m185.66 128.9l3.42-11.64-9.72-7.25 12.12-.35 3.89-11.495 4.08 11.425 12.13.15-9.6 7.41 3.6 11.59-10.01-6.85z"/><path id="6" d="m-79.72 145.28l3.543 3.543 3.543-3.543h-7.087"/><path id="7" d="m423.42 278.15l-15.942-.002-.003-8.864 10.63.005v-8.312h10.63v-7.633h10.63v9.541c-8.802 0-15.945 6.463-15.945 15.265"/><path id="8" d="m437.6 273.72h-15.944v-15.06c8.801 0 15.944 6.747 15.944 15.06"/><path id="9" d="m345.47 251.58v5.315l5.315 7.086v5.315l5.315 5.315h10.63l8.859 5.315h12.402v-28.346h-42.52"/><path id="A" d="m328.36 268.9l-8.416 7.965h-5.03l1.676 2.654-3.351 5.31 1.675 2.655 5.03-2.655 1.676 2.655.774-7.094 9.28-8.397-3.314-3.093"/><path id="B" d="m-66.08 53.15l-1.64-1.772 1.64-1.772h1.64l4.921 7.087h-1.641l-3.281-5.315h-1.64l1.64 1.772-1.64 1.772h-3.281v-1.772h3.281"/><path id="C" d="m302.95 233.86h1.771v-5.315h3.544v5.315h1.771v-12.401h-1.771v5.315h-3.544v-5.315h-1.771v12.401"/><path id="D" d="m357.87 396.85s-3.543 3.544-3.543 5.315c-.07 1.652 3.779 5.354 5.315 5.315 2.01.039 5.315-3.543 5.315-5.315 0-1.771-3.544-5.315-3.544-5.315v-7.086s7.696 12.183 7.696 6.868c0-3.812-7.696-10.412-7.696-10.412h-3.543s-7.696 7.727-7.696 10.412c0 5.315 7.696-6.868 7.696-6.868v7.086"/><path id="E" d="m357.87 396.85s-3.543 3.544-3.543 5.315c-.07 1.652 3.779 5.354 5.315 5.315 2.01.039 5.315-3.543 5.315-5.315 0-1.771-3.544-5.315-3.544-5.315v-7.086s6.276 11.593 6.276 6.278c0-3.437-6.276-9.822-6.276-9.822h-3.543s-7.244 7.994-6.275 9.821c0 5.315 6.275-6.277 6.275-6.277v7.086"/><path id="F" d="m269.29 517.32l3.544 7.086v10.63h10.63l7.086 3.544-7.086 3.543h-10.63v10.63l-3.544 7.087v-42.52"/><path id="G" d="m265.89 605.9v-7.086l17.577-17.717-3.544-3.543 10.63-10.63-3.543-3.543-7.087 7.086-3.543-3.543 24.803-24.803 3.543 3.543-3.543 3.544 7.304 7.159 17.499-17.789-17.793-17.24-7.01 6.61 3.543 3.543-3.543 3.543-24.803-24.803 3.543-3.543 7.087 7.087 3.543-3.544-10.63-10.63 3.544-3.543-17.577-17.716v-7.087l24.663 24.803-3.543 3.543 10.63 10.63-7.087 7.087 7.087 7.086 10.63-10.629 24.943 25.23-24.943 24.381-10.63-10.63-7.087 7.087 7.087 7.086-10.63 10.63 3.543 3.543-24.663 24.803"/><path id="H" d="m256.77 423.14c-2.652-4.861-9.281-26.07-5.746-28.726 5.304-1.767 19.446 19.888 18.12 39.33-9.281 4.419-40.659-1.768-40.22-7.514 2.21-7.955 19.888-5.303 27.843-3.094"/><path id="I" d="m418.11 506.69l-7.086 7.087h14.173l-7.087-7.087"/><path id="J" d="m-76.18 154.13h7.087l1.772 1.772-1.772 1.771h-7.087v-3.543z"/><path id="K" d="m-72.64 47.835h3.281l3.806 3.543h6.04l3.281 1.772-1.64 1.772-3.281-1.772h-3.281l-3.281 5.315-4.921-1.772v-3.543h4.921l-4.921-5.315"/><path id="L" d="m419.88 411.02v14.173l1.772-1.772 1.771 1.772 1.772-1.772 1.772 1.772 1.771-1.772 1.772 1.772 1.771-1.772 1.772 1.772v-14.173h-14.173"/><path id="M" d="m354.98 396.41c-1.526 3.07-1.123 4.474-1.123 6.245-.071 1.652 4.256 4.868 5.792 4.829 2.01.039 5.315-3.543 5.315-5.315 0-1.771.084-3.301-.738-6.355l-2.215 5.178c-2.689-7.346-2.835-7.517-4.431.178l-2.6-4.76"/><path id="N" d="m-93.9 147.05l3.543 5.315 3.543-5.315h-7.087z"/><path id="O" d="m-104.53 180.71l3.544-3.544h-3.544v3.544z"/><clipPath id="0"><path d="m0 0h496.06v496.06h-496.06z"/></clipPath></defs><g fill-rule="evenodd" clip-path="url(#0)" transform="scale(1.0321)"><g stroke-width="1.25"><path fill="#004e00" d="m0 0h744.09v496.06h-744.09z"/><g><path fill="#ffef00" d="m356.1 405.71h14.173" transform="matrix(.96528 0 0 1.1242-91.27-289.56)"/><path fill="#fff" d="m154.29-5.58c-51.64 4.846-87.23 50.915-88.11 86.25-2.403 33.898 20.955 74.868 74.79 93.59-71.27-9.92-108.97-46.26-107.92-94.87 5.691-58.17 75.96-97.5 121.24-84.968" transform="matrix(-.4937-.3009.31724-.51674 333.06 176.76)"/><g fill="#feffff"><use transform="matrix(.44846 0 0 .46139 213.66 16.708)" xlink:href="#5"/><use transform="matrix(.44846 0 0 .46139 186.81 50.37)" xlink:href="#5"/><use transform="matrix(.44846 0 0 .46139 188.58 23.802)" xlink:href="#5"/><use transform="matrix(.44846 0 0 .46139 188.58-2.78)" xlink:href="#5"/><use transform="matrix(.44846 0 0 .46139 158.74 30.888)" xlink:href="#5"/></g></g></g><g><g stroke-width="1.25"><path fill="#980000" d="m46.06 0h159.45v496.06h-159.45z"/><g fill="#e69900"><g transform="matrix(.375 0 0 .5-54.26-146.16)"><path d="m265.89 605.9v-7.086l17.577-17.717-3.544-3.543 10.63-10.63-3.543-3.543-7.087 7.086-3.543-3.543 24.803-24.803 3.543 3.543-3.543 3.544 7.304 7.159 17.499-17.789-17.793-17.24-7.01 6.61 3.543 3.543-3.543 3.543-24.803-24.803 3.543-3.543 7.087 7.087 3.543-3.544-10.63-10.63 3.544-3.543-17.577-17.716v-7.087l24.663 24.803-3.543 3.543 10.63 10.63-7.087 7.087 7.087 7.086 10.63-10.629 24.943 25.23-24.943 24.381-10.63-10.63-7.087 7.087 7.087 7.086-10.63 10.63 3.543 3.543-24.663 24.803" transform="translate(1.632-54.921)"/><use transform="translate(-1.771-54.921)" xlink:href="#F"/></g><g transform="matrix(.375 0 0 .5-54.26-61.12)"><path d="m265.89 605.9v-7.086l17.577-17.717-3.544-3.543 10.63-10.63-3.543-3.543-7.087 7.086-3.543-3.543 24.803-24.803 3.543 3.543-3.543 3.544 7.304 7.159 17.499-17.789-17.793-17.24-7.01 6.61 3.543 3.543-3.543 3.543-24.803-24.803 3.543-3.543 7.087 7.087 3.543-3.544-10.63-10.63 3.544-3.543-17.577-17.716v-7.087l24.663 24.803-3.543 3.543 10.63 10.63-7.087 7.087 7.087 7.086 10.63-10.629 24.943 25.23-24.943 24.381-10.63-10.63-7.087 7.087 7.087 7.086-10.63 10.63 3.543 3.543-24.663 24.803" transform="translate(1.632-54.921)"/><use transform="translate(-1.771-54.921)" xlink:href="#F"/></g><g transform="matrix(.375 0 0 .5-54.26 23.919)"><use transform="translate(1.632-54.921)" xlink:href="#G"/><use transform="translate(-1.771-54.921)" xlink:href="#F"/></g><g transform="matrix(.375 0 0 .5-54.26 103.64)"><use transform="translate(1.632-54.921)" xlink:href="#G"/><use transform="translate(-1.771-54.921)" xlink:href="#F"/></g><g transform="matrix(-.375 0 0 .5 305.83-146.16)"><use transform="translate(1.632-54.921)" xlink:href="#G"/><use transform="translate(-1.771-54.921)" xlink:href="#F"/></g><g transform="matrix(-.375 0 0 .5 306.27-61.12)"><use transform="translate(1.632-54.921)" xlink:href="#G"/><use transform="translate(-1.771-54.921)" xlink:href="#F"/></g><g transform="matrix(-.375 0 0 .5 305.83 23.919)"><use transform="translate(1.632-54.921)" xlink:href="#G"/><use transform="translate(-1.771-54.921)" xlink:href="#F"/></g><g transform="matrix(-.375 0 0 .5 305.83 103.64)"><use transform="translate(1.632-54.921)" xlink:href="#G"/><use transform="translate(-1.771-54.921)" xlink:href="#F"/></g><g transform="matrix(.75 0 0 1 46.06 0)"><path d="m265.89 605.9v-7.086l17.577-17.717-3.544-3.543 10.63-10.63-3.543-3.543-7.087 7.086-3.543-3.543 24.803-24.803 3.543 3.543-3.543 3.544 7.304 7.159 17.499-17.789h7.227l-24.943 24.804-10.63-10.63-7.087 7.087 7.087 7.086-10.63 10.63 3.543 3.543-24.663 24.803" transform="matrix(.5 0 0 .5-132.94-269.29)"/><path d="m269.29 538.58h21.26l-7.086 3.543h-10.63v10.63l-3.544 7.087v-21.26" transform="matrix(.5 0 0 .5-134.64-269.29)" id="P"/></g><g transform="matrix(-.75 0 0 1 205.51 0)"><path d="m265.89 605.9v-7.086l17.577-17.717-3.544-3.543 10.63-10.63-3.543-3.543-7.087 7.086-3.543-3.543 24.803-24.803 3.543 3.543-3.543 3.544 7.304 7.159 17.499-17.789h7.227l-24.943 24.804-10.63-10.63-7.087 7.087 7.087 7.086-10.63 10.63 3.543 3.543-24.663 24.803" transform="matrix(.5 0 0 .5-132.94-269.29)"/><use xlink:href="#P"/></g><path d="m63.64 485.46s11.05-14.584 38.891-19c27.842-4.42 32.704 9.723 48.613 9.723 15.91 0 41.1-9.723 41.1-9.723s-25.19 18.561-44.636 18.12c-19.446-.441-26.08-9.722-45.962-8.396-19.888 1.325-38.01 9.722-38.01 9.28" transform="matrix(.51776 0 0 .6887 79.56 154.66)"/><path d="m63.64 485.46s11.05-14.584 38.891-19c27.842-4.42 32.704 9.723 48.613 9.723 15.91 0 41.1-9.723 41.1-9.723s-25.19 18.561-44.636 18.12c-19.446-.441-26.08-9.722-45.962-8.396-19.888 1.325-38.01 9.722-38.01 9.28" transform="matrix(-.51776 0 0 .6887 173.29 154.66)"/><g transform="matrix(.75 0 0 1 46.06 0)"><use transform="matrix(.6382 0 0 .54658-101.02 241.1)" xlink:href="#H"/><use transform="matrix(.62445.13174-.11283.53481-61.849 202.12)" xlink:href="#H"/><use transform="matrix(.60441.20491-.1755.51764-40.02 179.26)" xlink:href="#H"/><use transform="matrix(.56534.29612-.25361.48419-4.69 157.92)" xlink:href="#H"/><use transform="matrix(.51695.37425-.32052.44274 30.655 142.75)" xlink:href="#H"/><path d="m259.25 409.98c26.536 7.115 24.649 14.722.771 24.06-9.281 4.419-40.659-1.768-40.22-7.514 2.21-7.955 28.997-18.64 39.447-16.544" transform="matrix(.08466.44011-.38018.12856 163.19 244.99)"/></g><g transform="matrix(-.75 0 0 1 206.07 1.326)"><use transform="matrix(.6382 0 0 .54658-101.02 241.1)" xlink:href="#H"/><use transform="matrix(.62445.13174-.11283.53481-61.849 202.12)" xlink:href="#H"/><use transform="matrix(.60441.20491-.1755.51764-40.02 179.26)" xlink:href="#H"/><use transform="matrix(.56534.29612-.25361.48419-4.69 157.92)" xlink:href="#H"/><use transform="matrix(.51695.37425-.32052.44274 30.655 142.75)" xlink:href="#H"/><path d="m259.25 409.98c26.536 7.115 24.649 14.722.771 24.06-9.281 4.419-40.659-1.768-40.22-7.514 2.21-7.955 28.997-18.64 39.447-16.544" transform="matrix(.08466.44011-.38018.12856 163.19 244.99)"/></g></g></g><g transform="matrix(.96875 0 0 1.2258 182.42-74.64)"><path fill="#980000" stroke="#000" stroke-width=".125" d="m-3.543 290.55h-5.315v3.543h-5.315v3.543h-21.26l-3.543 3.544 1.772 1.771h8.858l1.772-1.771h-8.858l1.772-1.772h12.402l-5.315 5.315h-12.402l-3.543-1.772-3.543 1.771h-12.402l-5.315-5.317 12.402.002 1.772 1.772-8.858-.002 1.772 1.773h8.858l1.772-1.771-3.543-3.544h-19.488v-3.543h-5.315v-3.543h-5.315v-15.945h5.315v-3.543h5.315v-3.543h19.488l3.543-3.544-1.772-1.771h-8.858l-1.772 1.773 8.858-.002-1.772 1.772-12.402.002 5.315-5.317h12.402l3.543 1.771 3.543-1.772h12.402l5.315 5.315h-12.402l-1.772-1.772h8.858l-1.772-1.771h-8.858l-1.772 1.771 3.543 3.544h21.26v3.543h5.315v3.543h5.315v15.945z" transform="matrix(1.4884 0 0 1.24 3.502-39.474)"/><g stroke-width="1.25"><path fill="#004e00" stroke="#e69900" d="m375.59 499.67v24.803h10.629v7.02h10.63v7.087h35.433l14.174 10.63 14.173-10.63h38.976v-7.02l10.63-.068v-7.087h10.63v-24.803h-10.63v-7.086l-10.63.068v-7.155h-38.976l-14.173-10.63-14.174 10.63h-35.433v7.155h-10.63v7.086h-10.629z" transform="matrix(.74419 0 0 .62-392.03-6.521)"/><g fill="#980000"><path d="m425.2 492.52l-21.26 17.716v-17.716h21.26" transform="matrix(.74419 0 0 .62-392.03-8.718)" id="Q"/><path d="m425.2 492.52l-21.26 17.717v-17.717h21.26" transform="matrix(-.74419 0 0 .62 272.46-8.718)" id="R"/><use transform="matrix(1 0 0-1 0 621.85)" xlink:href="#Q"/><use transform="matrix(.99999 0 0-1 .004 621.85)" xlink:href="#R"/><g transform="matrix(.74419 0 0 .62-392.03-10.915)"><path d="m474.8 506.69l-7.086 7.087h14.173l-7.087-7.087"/><use xlink:href="#I"/></g><use transform="matrix(.74419 0 0-.62-392.03 632.77)" xlink:href="#I"/><use transform="matrix(.74419 0 0-.62-349.84 632.77)" xlink:href="#I"/></g><g fill="#e69900"><use transform="matrix(.74419 0 0-.62-370.94 643.75)" xlink:href="#I"/><use transform="matrix(.74419 0 0-.62-370.94 621.78)" xlink:href="#I"/><use transform="matrix(.74419 0 0 .62-370.94-21.899)" xlink:href="#I"/><use transform="matrix(.74419 0 0 .62-370.94.069)" xlink:href="#I"/></g></g><g stroke="#000" stroke-width=".125" transform="matrix(.74419 0 0 .62-392.03-6.521)"><path fill="#e69900" d="m467.72 506.69h14.173v3.543h-14.173z"/><g fill="#c00"><path d="m414.57 510.24h7.087v3.543h-7.087z"/><path d="m471.26 510.24h7.087v3.543h-7.087z"/></g><g fill="#900"><path d="m439.37 488.98h14.173v3.543h-14.173z"/><path d="m439.37 496.06h14.173v3.543h-14.173z"/><path d="m435.83 492.52h21.26v3.543h-21.26z"/><path d="m439.37 524.41h14.173v3.543h-14.173z"/><path d="m439.37 531.5h14.173v3.543h-14.173z"/><path d="m435.83 527.95h21.26v3.543h-21.26z"/></g><g fill="#e69900"><path d="m467.72 513.78h14.173v3.543h-14.173z"/><path d="m411.02 506.69h14.173v3.543h-14.173z"/><path d="m411.02 513.78h14.173v3.543h-14.173z"/><path d="m407.48 510.24h7.087v3.543h-7.087z"/><path d="m421.65 510.24h7.087v3.543h-7.087z"/><path d="m464.17 510.24h7.087v3.543h-7.087z"/><path d="m478.35 510.24h7.087v3.543h-7.087z"/></g></g><g fill="#fff" stroke-width="1.25"><ellipse cx="413.68" cy="581.99" rx=".886" ry=".886" transform="matrix(.74419 0 0 .62-374.14-38.912)"/><ellipse cx="413.68" cy="581.99" rx=".886" ry=".886" transform="matrix(.74419 0 0 .62-367.57-38.912)"/><ellipse cx="413.68" cy="581.99" rx=".886" ry=".886" transform="matrix(.74419 0 0 .62-361-38.958)"/><ellipse cx="413.68" cy="581.99" rx=".886" ry=".886" transform="matrix(.74419 0 0 .62-371.51-41.1)"/><ellipse cx="413.68" cy="581.99" rx=".886" ry=".886" transform="matrix(.74419 0 0 .62-363.68-41.15)"/><ellipse cx="413.68" cy="581.99" rx=".886" ry=".886" transform="matrix(.74419 0 0 .62-371.57-36.768)"/><ellipse cx="413.68" cy="581.99" rx=".886" ry=".886" transform="matrix(.74419 0 0 .62-363.68-36.677)"/><ellipse cx="413.68" cy="581.99" rx=".886" ry=".886" transform="matrix(.74419 0 0 .62-353.17-49.999)"/><ellipse cx="413.68" cy="581.99" rx=".886" ry=".886" transform="matrix(.74419 0 0 .62-346.59-49.999)"/><ellipse cx="413.68" cy="581.99" rx=".886" ry=".886" transform="matrix(.74419 0 0 .62-340.02-50.05)"/><ellipse cx="413.68" cy="581.99" rx=".886" ry=".886" transform="matrix(.74419 0 0 .62-350.54-52.19)"/><ellipse cx="413.68" cy="581.99" rx=".886" ry=".886" transform="matrix(.74419 0 0 .62-342.71-52.23)"/><ellipse cx="413.68" cy="581.99" rx=".886" ry=".886" transform="matrix(.74419 0 0 .62-350.59-47.855)"/><ellipse cx="413.68" cy="581.99" rx=".886" ry=".886" transform="matrix(.74419 0 0 .62-342.71-47.764)"/><ellipse cx="413.68" cy="581.99" rx=".886" ry=".886" transform="matrix(.74419 0 0 .62-374.2-60.904)"/><ellipse cx="413.68" cy="581.99" rx=".886" ry=".886" transform="matrix(.74419 0 0 .62-367.62-60.904)"/><ellipse cx="413.68" cy="581.99" rx=".886" ry=".886" transform="matrix(.74419 0 0 .62-361.05-60.949)"/><ellipse cx="413.68" cy="581.99" rx=".886" ry=".886" transform="matrix(.74419 0 0 .62-371.57-63.09)"/><ellipse cx="413.68" cy="581.99" rx=".886" ry=".886" transform="matrix(.74419 0 0 .62-363.74-63.14)"/><ellipse cx="413.68" cy="581.99" rx=".886" ry=".886" transform="matrix(.74419 0 0 .62-371.62-58.759)"/><ellipse cx="413.68" cy="581.99" rx=".886" ry=".886" transform="matrix(.74419 0 0 .62-363.74-58.668)"/><ellipse cx="413.68" cy="581.99" rx=".886" ry=".886" transform="matrix(.74419 0 0 .62-395.28-49.817)"/><ellipse cx="413.68" cy="581.99" rx=".886" ry=".886" transform="matrix(.74419 0 0 .62-388.71-49.817)"/><ellipse cx="413.68" cy="581.99" rx=".886" ry=".886" transform="matrix(.74419 0 0 .62-382.14-49.862)"/><ellipse cx="413.68" cy="581.99" rx=".886" ry=".886" transform="matrix(.74419 0 0 .62-392.65-52.01)"/><ellipse cx="413.68" cy="581.99" rx=".886" ry=".886" transform="matrix(.74419 0 0 .62-384.82-52.05)"/><ellipse cx="413.68" cy="581.99" rx=".886" ry=".886" transform="matrix(.74419 0 0 .62-392.71-47.672)"/><ellipse cx="413.68" cy="581.99" rx=".886" ry=".886" transform="matrix(.74419 0 0 .62-384.82-47.581)"/></g></g><g transform="matrix(1 0 0 1.1622 193.11-34.28)"><g fill="#fff" stroke-width="1.25"><use transform="matrix(1.24 0 0-.49996 40.32 315.35)" xlink:href="#6"/><use transform="matrix(1.24 0 0-.49996 27.14 315.35)" xlink:href="#6"/><use transform="matrix(1.24 0 0-.49996 13.961 315.35)" xlink:href="#6"/><use transform="matrix(1.24 0 0 .49996 40.32 129.34)" xlink:href="#6"/><use transform="matrix(1.24 0 0 .49996 27.14 129.34)" xlink:href="#6"/><use transform="matrix(1.24 0 0 .49996 13.961 129.34)" xlink:href="#6"/></g><g fill="#004e00"><use transform="matrix(.96446 0 0-.99994 18.11 467.7)" xlink:href="#1"/><use transform="matrix(.96446 0 0 .99994 18.11-23.02)" xlink:href="#1"/><use transform="matrix(0 .72224-1.5499 0 317.11 286.32)" xlink:href="#1"/><use transform="matrix(0 .72224 1.5499 0-451.75 286.32)" xlink:href="#1"/><g stroke="#000" stroke-width=".25" transform="matrix(1.24 0 0 1 11.764 24.803)"><path d="m-26.575 214.37h1.772v1.772h-1.772z"/><path d="m-28.346 216.14h1.772v1.772h-1.772z"/><path d="m-37.2 225h1.772v1.772h-1.772z"/><path d="m-35.433 223.23h1.772v1.772h-1.772z"/><path d="m-93.9 223.23h1.772v1.772h-1.772z"/><path d="m-102.76 214.37h1.772v1.772h-1.772z"/><path d="m-100.98 216.14h1.772v1.772h-1.772z"/><path d="m-100.98 177.17h1.772v1.772h-1.772z"/><path d="m-102.76 178.94h1.772v1.772h-1.772z"/><path d="m-92.13 168.31h1.772v1.772h-1.772z"/><path d="m-93.9 170.08h1.772v1.772h-1.772z"/><path d="m-37.2 168.31h1.772v1.772h-1.772z"/><path d="m-35.433 170.08h1.772v1.772h-1.772z"/><path d="m-28.346 177.17h1.772v1.772h-1.772z"/><path d="m-26.575 178.94h1.772v1.772h-1.772z"/><path d="m-92.13 225h1.772v1.772h-1.772z"/></g></g><g stroke-width="1.25"><path fill="#fff" d="m423.42 278.15l-15.942-.002-.003-8.864 10.63.005v-8.312h10.63v-7.633h10.63v9.541c-8.802 0-15.945 6.463-15.945 15.265" transform="matrix(.40618 0 0 .39281-246.01 113.08)"/><use fill="#e69900" transform="matrix(-.40618 0 0 .39281 110.91 113.08)" xlink:href="#7"/><use fill="#fff" transform="matrix(-.40618 0 0-.39281 110.91 331.6)" xlink:href="#7"/><use fill="#e69900" transform="matrix(.40618 0 0-.39281-246.01 331.6)" xlink:href="#7"/><path fill="#004e00" d="m437.6 273.72h-15.944v-15.06c8.801 0 15.944 6.747 15.944 15.06" transform="matrix(.40618 0 0 .39819-238.82 113.35)"/><use fill="#980000" transform="matrix(.40618 0 0-.39819-238.82 331.33)" xlink:href="#8"/><use fill="#004e00" transform="matrix(-.40618 0 0-.39819 103.72 331.33)" xlink:href="#8"/><use fill="#980000" transform="matrix(-.40618 0 0 .39819 103.72 113.35)" xlink:href="#8"/></g><g fill="#004e00"><use transform="matrix(1.24 0 0 1 42.52 24.804)" xlink:href="#1"/><use transform="matrix(1.24 0 0-1 42.52 419.88)" xlink:href="#1"/><use transform="matrix(0 .83335.93002 0-240.88 296.16)" xlink:href="#1"/></g><g stroke="#000"><path fill="#004e00" stroke-width=".4" d="m-100.98 177.17l-7.087 7.086v26.575l7.087 7.087h31.889l7.087-7.087v-26.575l-7.087-7.086h-31.889zm-1.772-5.316l-17.717 17.716v15.945l17.717 17.717h35.433l17.716-17.717v-15.945l-17.716-17.716h-35.433z" transform="matrix(1.24 0 0 1 38.13 24.804)"/><g stroke-width=".25"><g fill="#e69900"><path d="m-93.9 147.05l3.543 5.315 3.543-5.315h-7.087z" transform="matrix(.992 0 0 .66666 15.279 146.46)"/><use transform="matrix(.992 0 0-.66666 15.279 298.23)" xlink:href="#N"/><use transform="matrix(.992 0 0-.66666 29.339 298.23)" xlink:href="#N"/><use transform="matrix(.992 0 0 .66666 29.339 146.46)" xlink:href="#N"/></g><g fill="#980000"><use transform="matrix(.992 0 0-.66666 8.249 298.23)" xlink:href="#N"/><use transform="matrix(.992 0 0-.66666 22.309 298.23)" xlink:href="#N"/><use transform="matrix(.992 0 0-.66666 36.37 298.23)" xlink:href="#N"/><path d="m-104.53 180.71l3.544-3.544h-3.544v3.544z" transform="matrix(1.8599 0 0-1.4999 100.72 510.22)"/></g></g></g><use fill="#004e00" transform="matrix(0 .83335-.93002 0 106.23 296.16)" xlink:href="#1"/><g stroke="#000"><g fill="#980000"><use stroke-width=".25" transform="matrix(1.24 0 0 .90002 60.09 78.84)" xlink:href="#J"/><path stroke-width=".375" d="m-99.213,180.71-3.543,3.544v26.575l3.543,3.543h-5.316l.001-33.662h5.315z" transform="matrix(1.24 0 0 1 29.339 24.804)"/><g stroke-width=".25"><use transform="matrix(.992 0 0 .66666 8.249 146.46)" xlink:href="#N"/><use transform="matrix(.992 0 0 .66666 22.309 146.46)" xlink:href="#N"/><use transform="matrix(.992 0 0 .66666 36.37 146.46)" xlink:href="#N"/></g><path stroke-width=".375" d="m-99.21 180.71l-3.544 3.544v26.575l3.544 3.543h-5.315v-33.662h5.315z" transform="matrix(-1.24 0 0 1-163.98 24.804)"/><g stroke-width=".25"><use transform="matrix(-1.8599 0 0-1.4999-235.37 510.22)" xlink:href="#O"/><use transform="matrix(-1.8599 0 0 1.4999-235.37-65.53)" xlink:href="#O"/><use transform="matrix(1.8599 0 0 1.4999 100.72-65.53)" xlink:href="#O"/></g></g><path fill="#004e00" stroke-width=".4" d="m-100.98 177.17l-7.087 7.086v26.575l7.087 7.087h31.889l7.087-7.087v-26.575l-7.087-7.086h-31.889zm-.0001-1.773l-8.858 8.858v26.575l8.859 8.858h31.889l8.858-8.858v-26.575l-8.859-8.858h-31.889z" transform="matrix(1.24 0 0 1 38.13 24.804)"/><g stroke-width=".25"><use fill="#e69900" transform="matrix(1.24 0 0 .90008 60.09 82.01)" xlink:href="#J"/><use fill="#980000" transform="matrix(1.24 0 0 .90002 60.09 85.21)" xlink:href="#J"/><g fill="#e69900"><use transform="matrix(1.24 0 0 .90008 60.09 88.39)" xlink:href="#J"/><use transform="matrix(1.24 0 0 .90008 60.09 75.64)" xlink:href="#J"/></g><use fill="#980000" transform="matrix(-1.24 0 0 .90002-194.74 78.84)" xlink:href="#J"/><use fill="#e69900" transform="matrix(-1.24 0 0 .90008-194.74 82.02)" xlink:href="#J"/><use fill="#980000" transform="matrix(-1.24 0 0 .90002-194.74 85.21)" xlink:href="#J"/><g fill="#e69900"><use transform="matrix(-1.24 0 0 .90008-194.74 88.39)" xlink:href="#J"/><use transform="matrix(-1.24 0 0 .90008-194.74 75.64)" xlink:href="#J"/></g><path fill="#970000" d="m-100.98 178.94v37.2h8.858v8.858h56.693v-8.858h8.858v-37.2h-8.858v-8.858h-56.693v8.858h-8.858zm1.771 1.772v33.661h8.858v8.858h53.15v-8.858h8.858v-33.661h-8.858v-8.859h-53.15v8.859h-8.858z" transform="matrix(1.24 0 0 1 11.764 24.803)"/></g></g></g><g transform="matrix(1.1481 0 0 1.1176 217.32-7.816)"><path fill="#980000" stroke="#000" stroke-width=".25" d="m-28.347 69.09l-5.315-7.087v-5.315l-5.315-5.315h-10.63l-8.858-5.315h-28.346l-8.858 5.315h-10.63l-5.315 5.315v5.315l-5.315 7.087v14.173l5.315 7.087v5.315l5.315 5.315h10.63l8.858 5.315h28.346l8.858-5.315h10.63l5.315-5.314v-5.315l5.315-7.087v-14.174z" transform="matrix(1.08 0 0 1-1.276-24.803)"/><g stroke-width="1.25"><use fill="#e69900" transform="matrix(1.08 0 0 1-498.74-200.2)" xlink:href="#9"/><g fill="#980000"><use transform="matrix(.83045 0 0 .572-368.56-90.03)" xlink:href="#A"/><use transform="matrix(.83045 0 0 .572-376.21-93.58)" xlink:href="#A"/><use transform="matrix(.83045 0 0 .572-380.04-100.66)" xlink:href="#A"/></g><use fill="#e69900" transform="matrix(-1.08 0 0-1 339.29 302.96)" xlink:href="#9"/><path fill="#980000" d="m-72.64 47.835h3.281l3.806 3.543h6.04l3.281 1.772-1.64 1.772-3.281-1.772h-3.281l-3.281 5.315-4.921-1.772v-3.543h4.921l-4.921-5.315" transform="matrix(-1.08 0 0-1-158.17 127.56)"/><use fill="#fff" transform="matrix(1.08 0 0-1-498.74 302.96)" xlink:href="#9"/><g fill="#980000"><use transform="matrix(-1.08 0 0 1-158.17-24.804)" xlink:href="#K"/><use transform="matrix(1.08 0 0 1-1.275-24.804)" xlink:href="#K"/></g><use fill="#fff" transform="matrix(-1.08 0 0 1 339.29-200.2)" xlink:href="#9"/><g fill="#980000"><use transform="matrix(1.08 0 0-1-1.275 127.56)" xlink:href="#K"/><use transform="matrix(.83045 0 0-.572-376.21 196.33)" xlink:href="#A"/><use transform="matrix(-.83045 0 0-.572 209.11 192.79)" xlink:href="#A"/><use transform="matrix(.83045 0 0-.572-368.56 192.79)" xlink:href="#A"/><use transform="matrix(.83045 0 0-.572-380.04 203.42)" xlink:href="#A"/></g></g><use fill="#fff" transform="matrix(1.14 0 0 1.0834-503.85-240.36)" xlink:href="#2"/><use fill="#e69900" transform="matrix(1.14 0 0-1.0834-503.85 343.12)" xlink:href="#2"/><path fill="#004e00" d="m340.16 269.29h31.89v21.26l-14.173-8.858h-10.63v-7.087l-7.087-5.315" transform="matrix(1.08 0 0 1-481.53-217.92)"/><g fill="#980000" stroke-width="1.25"><use transform="matrix(-.83045 0 0-.572 216.76 196.33)" xlink:href="#A"/><use transform="matrix(-.83045 0 0-.572 220.59 203.42)" xlink:href="#A"/></g><use fill="#fff" transform="matrix(-1.14 0 0-1.0834 344.4 343.12)" xlink:href="#2"/><use fill="#004e00" transform="matrix(-1.08 0 0-1 322.08 320.68)" xlink:href="#3"/><g fill="#980000" stroke-width="1.25"><use transform="matrix(-.83045 0 0 .572 209.11-90.03)" xlink:href="#A"/><use transform="matrix(-.83045 0 0 .572 216.76-93.58)" xlink:href="#A"/><use transform="matrix(-.83045 0 0 .572 220.59-100.66)" xlink:href="#A"/></g><use fill="#e69900" transform="matrix(-1.14 0 0 1.0834 344.4-240.36)" xlink:href="#2"/><g fill="#980000"><use transform="matrix(-1.08 0 0 1 322.08-217.92)" xlink:href="#3"/><use transform="matrix(1.08 0 0-1-481.53 320.68)" xlink:href="#3"/></g><g stroke-width="1.25"><g fill="#980000"><use transform="matrix(-1.1419 0 0-.66735 299.01 230.83)" xlink:href="#A"/><use transform="matrix(1.1419 0 0 .66735-458.46-128.08)" xlink:href="#A"/></g><g fill="#004e00"><use transform="matrix(1.1419 0 0-.66735-458.46 230.83)" xlink:href="#A"/><use transform="matrix(-1.1419 0 0 .66735 299.01-128.08)" xlink:href="#A"/></g></g><path fill="#fff" stroke-width="1.246" d="m311.81 217.91l8.858-5.315 8.859 5.315-8.859 5.315-8.858-5.315" transform="matrix(1.296 0 0 1.6667-495.31-311.81)"/><g fill="#980000" stroke-width="1.25"><path d="m-66.08 53.15l-1.64-1.772 1.64-1.772h1.64l4.921 7.087h-1.641l-3.281-5.315h-1.64l1.64 1.772-1.64 1.772h-3.281v-1.772h3.281" transform="matrix(-1.08 0 0-1-188.29 108.07)"/><use transform="matrix(-1.08 0 0 1-188.29-5.315)" xlink:href="#B"/><use transform="matrix(1.08 0 0-1 28.843 108.07)" xlink:href="#B"/><use transform="matrix(1.08 0 0 1 28.843-5.315)" xlink:href="#B"/><path d="m-81.5 44.29h3.543v14.173h-3.543z"/><path d="m-86.81 47.835h14.173v7.087h-14.173z"/></g></g><g transform="translate(267.52-5.315)"><path fill="#004e00" stroke="#000" stroke-width=".066" d="m333.07,170.08-10.63,5.315v8.858l10.63,5.315h10.63l10.63-5.315v-8.858l-10.63-5.315h-10.63z" transform="matrix(3.4444 0 0 3.7273-1307.3-277.83)"/><g stroke-width="1.25"><g fill="#c00"><use transform="matrix(1.2501 0 0 .76401-561.78 210.59)" xlink:href="#C"/><use transform="matrix(1.2501 0 0 .76401-505.68 242.17)" xlink:href="#C"/><use transform="matrix(1.2501 0 0 .76401-541.11 194.8)" xlink:href="#C"/><use transform="matrix(1.2501 0 0 .76401-508.63 194.8)" xlink:href="#C"/><use transform="matrix(1.2501 0 0 .76401-487.97 210.59)" xlink:href="#C"/><use transform="matrix(1.2501 0 0 .76401-487.97 226.38)" xlink:href="#C"/></g><g fill="#e69900"><path d="m-205.51 345.47v38.977h53.15v-17.717l-35.433-21.26h-17.717" transform="matrix(1 0 0-.8913 63.779 735.08)"/><path d="m-205.51 345.47v38.977h53.15v-17.717l-35.433-21.26h-17.717" transform="matrix(-1 0 0 .8913-347.24 49.76)" id="S"/></g><g fill="#fff"><use transform="matrix(-1 0 0 1-283.46 0)" xlink:href="#S"/><path d="m-205.51 345.47l.0001 38.976h53.15v-17.717l-35.433-21.26h-17.717" transform="matrix(-1 0 0-.8913-347.24 735.08)"/></g></g><use fill="#e69900" stroke="#000" stroke-width=".125" transform="matrix(1 0 0 .8913 63.779 49.761)" xlink:href="#4"/><path fill="#980000" stroke-width=".625" d="m333.07 176.72v6.2h1.594l3.721 1.772 3.721-1.772h1.594v-6.2h-1.594l-3.721-1.772-3.721 1.772h-1.594" transform="matrix(3.3333 0 0 3.5653-1269.7-248.7)"/><g stroke="#000" stroke-width=".125"><use fill="#e69900" transform="matrix(-1 0 0-.8913-347.24 735.08)" xlink:href="#4"/><g fill="#fff"><use transform="matrix(-1 0 0 .8913-347.24 49.761)" xlink:href="#4"/><use transform="matrix(1 0 0-.8913 63.78 735.08)" xlink:href="#4"/></g></g><g fill="#980000" stroke-width="1.25"><use transform="matrix(1.2501 0 0 .89135-562.96 196.61)" xlink:href="#C"/><use transform="matrix(1.2501 0 0 .89135-541.71 212.4)" xlink:href="#C"/><use transform="matrix(1.2501 0 0-.89134-562.96 588.24)" xlink:href="#C"/><use transform="matrix(1.2501 0 0-.89135-541.71 572.45)" xlink:href="#C"/><use transform="matrix(1.2501 0 0 .89135-508.04 212.4)" xlink:href="#C"/><use transform="matrix(1.2501 0 0 .89135-486.78 182.39)" xlink:href="#C"/><g transform="matrix(1.2501 0 0 .89135-508.04 212.4)"><use xlink:href="#C"/><use xlink:href="#C"/></g><use transform="matrix(1.2501 0 0 .89135-486.78 196.6)" xlink:href="#C"/><use transform="matrix(1.2501 0 0 .89135-508.04 166.6)" xlink:href="#C"/></g><path fill="#004e00" stroke-width="1.247" d="m-154.13 334.84l7.087-7.088h3.543v3.543h-3.543v1.772h5.314v-7.086h-5.314v-5.314h-7.087v5.314h1.772v-3.544h3.543v3.544l-7.086 7.087-7.087-7.086v-3.543h3.543v3.543h1.772v-5.315h-7.087v5.314h-5.315v7.088h5.315v-1.772h-3.544v-3.544h3.544l7.087 7.086-7.087 7.086h-3.543v-3.543h3.543v-1.772h-5.314v7.087h5.314v5.314l7.087.002v-5.316h-1.771v3.544h-3.543v-3.544l7.085-7.086 7.088 7.088v3.543h-3.543v-3.543h-1.772v5.314h7.086v-5.314l5.315-.002v-7.086h-5.315v1.772h3.544v3.544h-3.544l-7.087-7.087" transform="matrix(1 0 0 .81248 14.173 120.37)"/></g><g transform="matrix(1 0 0 .92857 198.43 17.59)"><g fill="#980000"><path stroke-width="1.25" d="m372.05 391.54l3.544-3.543h21.259l15.945-15.946h21.26l15.945 15.945h21.26l3.543 3.543-3.543 3.544h-21.26l-15.945 15.945h-21.26l-15.945-15.945h-21.259l-3.544-3.543" transform="matrix(.96774 0 0 1.0526-482.4-277.85)"/><path stroke="#000" stroke-width=".272" d="m372.05 391.54l1.903-1.949h22.834l17.13-19.489h19.03l17.13 19.489h22.835l1.903 1.949-1.903 1.948h-22.835l-15.223 17.54h-22.834l-15.224-17.54h-22.834l-1.903-1.948z" transform="matrix(.93104 0 0 .90908-466.86-221.29)"/></g><path fill="#e69900" d="m428.74 354.33l7.087 7.086-3.543 3.543-1.772-1.772h-1.771v1.772l1.771 1.772h3.544l3.543-3.544v-3.543l-7.086-7.086 7.086-7.087v-3.543l-3.543-3.543h-3.543l-1.772 1.771v1.772h1.772l1.771-1.772 3.543 3.544-7.086 7.086-7.087-7.086 7.087-7.087v-1.771h-1.772l-7.086 7.086-7.087-7.087h-1.772v1.771l7.087 7.087-7.087 7.087-7.087-7.086 3.543-3.544 1.772 1.772h1.772v-1.772l-1.772-1.771h-3.543l-3.544 3.543v3.543l7.087 7.087-7.087 7.087v3.543l3.544 3.543h3.543l1.772-1.771v-1.772h-1.772l-1.772 1.772-3.543-3.544 7.087-7.086 7.086 7.086-7.086 7.087v1.772h1.772l7.087-7.087 7.087 7.087h1.771v-1.772l-7.086-7.087 7.086-7.086m-8.858-8.859l-7.087 7.087 7.087 7.087 7.087-7.087-7.087-7.087" transform="matrix(.96774 0 0 1.0526-478.98-236.82)"/><g stroke-width="1.25"><g fill="#e69900"><path d="m412.8 411.02v14.173l1.772-1.772 1.772 1.772 1.771-1.772 1.772 1.772 1.772-1.772 1.771 1.772 1.772-1.772 1.772 1.772 1.771-1.772 1.772 1.772 1.771-1.772 1.772 1.772v-14.173h-21.26" transform="matrix(.96774 0 0 1.0526-482.4-277.85)" id="T"/><use transform="matrix(-1 0 0-1-145.27 268.58)" xlink:href="#T"/><use transform="matrix(-.96774 0 0-1.0526 373.13 563.22)" xlink:href="#L"/><use transform="matrix(-.96774 0 0-1.0526 307.98 563.22)" xlink:href="#L"/><use transform="matrix(-.96774 0 0 1.0526 373.13-294.63)" xlink:href="#L"/><use transform="matrix(-.96774 0 0 1.0526 307.98-294.63)" xlink:href="#L"/></g><g fill="#004e00"><path d="m412.8 411.02v8.858l1.772-1.772 1.772 1.772 1.771-1.772 1.772 1.772 1.772-1.772 1.771 1.772 1.772-1.772 1.771 1.772 1.772-1.772v-23.03l-15.944 15.945" transform="matrix(.96774 0 0 1.0526-461.83-277.85)"/><path d="m412.8 411.02v8.859l1.772-1.772 1.772 1.772 1.771-1.772 1.772 1.772 1.772-1.772 1.771 1.772 1.772-1.772 1.771 1.772 1.772-1.772v-23.03l-15.944 15.945" transform="matrix(-.96774 0 0 1.0526 316.55-277.85)"/><path d="m412.8 411.02v8.858l1.772-1.772 1.772 1.772 1.771-1.772 1.772 1.772 1.772-1.772 1.771 1.772 1.772-1.772 1.771 1.772 1.772-1.772v-23.03l-15.944 15.945" transform="matrix(-.96774 0 0-1.0526 316.55 546.43)" id="U"/><use transform="matrix(-1 0 0 1-145.28 0)" xlink:href="#U"/><path d="m380.9 414.57l-1.772-1.772-1.77 1.772-1.772-1.772-1.772 1.772-1.772-1.772-1.772 1.772-1.77-1.772-1.772 1.772v-28.347l1.772 1.772 1.771-1.772 1.772 1.772 1.771-1.772 1.772 1.772 1.772-1.772 1.771 1.772 1.772-1.772v10.631h-7.086l-3.544 3.543 3.544 3.543h7.086v10.63" transform="matrix(.96774 0 0 1.0526-480.69-287.17)" id="V"/><use transform="matrix(-1 0 0 1-145.28 0)" xlink:href="#V"/></g><use fill="#fff" transform="matrix(.40322 0 0 .41595-235.66-9.09)" xlink:href="#D"/><path fill="#980000" d="m357.87 396.85s-3.543 3.544-3.543 5.315c-.07 1.652 3.779 5.354 5.315 5.315 2.01.039 5.315-3.543 5.315-5.315 0-1.771-3.544-5.315-3.544-5.315v-7.086s6.276 11.593 6.276 6.278c0-3.437-6.276-9.822-6.276-9.822h-3.543s-7.244 7.994-6.275 9.821c0 5.315 6.275-6.277 6.275-6.277v7.086" transform="matrix(.48387 0 0 .58233-246.66-69.43)"/><g fill="#004e00"><ellipse cx="403.94" cy="391.54" rx="3.543" ry="1.772" transform="matrix(.96774 0 0 1.0526-482.4-277.85)"/><ellipse cx="403.94" cy="391.54" rx="3.543" ry="1.772" transform="matrix(.96774 0 0 1.0526-463.54-277.85)"/><ellipse cx="403.94" cy="391.54" rx="3.543" ry="1.772" transform="matrix(.96774 0 0 1.0526-444.69-277.85)"/></g><use fill="#fff" transform="matrix(.40322 0 0-.41595-236.02 277.83)" xlink:href="#D"/><use fill="#980000" transform="matrix(.48387 0 0-.58233-247.02 338.16)" xlink:href="#E"/><g fill="#fff"><use transform="matrix(.40322 0 0 .41595-199.16-9.09)" xlink:href="#D"/><use transform="matrix(.40322 0 0-.41595-199.52 277.83)" xlink:href="#D"/></g><g fill="#980000"><use transform="matrix(.53608 0 0 .39023-298.12-9.27)" xlink:href="#E"/><use transform="matrix(.53608 0 0-.39022-298.52 279.33)" xlink:href="#E"/><use transform="matrix(.53608 0 0 .39023-232.27-9.712)" xlink:href="#E"/><use transform="matrix(.53608 0 0-.39022-232.67 278.89)" xlink:href="#E"/></g><g fill="#fff"><use transform="matrix(.40322 0 0-.41595-263.42 310.25)" xlink:href="#M"/><use transform="matrix(.40322 0 0 .41595-263.36-40.956)" xlink:href="#M"/><use transform="matrix(.40322 0 0-.41595-170.94 309.98)" xlink:href="#M"/><use transform="matrix(.40322 0 0 .41595-170.89-41.23)" xlink:href="#M"/></g></g><path fill="#980000" stroke="#000" stroke-width=".125" d="m115.16 177.16v-5.315h-15.944v-10.63h-14.173v-3.543h-12.402v-31.89h12.402v-3.543h14.173v-10.63h15.944v-5.315h21.26v5.315h15.945v10.63h14.173v3.543h12.402v31.89h-12.402v3.543h-14.173v10.63h-15.945v5.315h-21.26zm-1.772 1.772v-5.315h-15.944v-10.63h-14.173v-3.543h-12.402v-35.433h12.402v-3.544h14.173v-10.63h15.945v-5.315h24.803v5.315h15.945v10.63h14.173v3.544h12.402v35.433h-12.402v3.543h-14.173v10.63h-15.945v5.315h-24.804z" transform="matrix(1 0 0 .99999-198.43-7.085)"/></g></g></g></svg>