<svg xmlns="http://www.w3.org/2000/svg" viewBox="0 0 512 512"><defs><clipPath id="0"><path d="m124.02 0h496.06v496.06h-496.06z"/></clipPath></defs><g fill-rule="evenodd" clip-path="url(#0)" transform="matrix(1.0321 0 0 1.0321-128 0)"><path fill="#e70013" stroke-width="1.25" d="m0 0h744.09v496.06h-744.09z"/><path fill="#fff" d="m485.97 255.06c0 67.28-54.54 121.82-121.82 121.82-67.28 0-121.82-54.54-121.82-121.82 0-67.28 54.54-121.82 121.82-121.82 67.28 0 121.82 54.54 121.82 121.82" transform="matrix(1.027 0 0 1.027-1.281-14.14)"/><g fill="#e70013" stroke-width="1.25"><path d="m357.56 327.49c-45.799 0-82.969-37.17-82.969-82.969 0-45.8 37.17-82.97 82.969-82.97 11.45 0 24.483 2.634 33.34 9.136-60.681 2.284-76.03 53.75-76.03 74.49s9.813 67 76.03 73.833c-7.535 4.857-21.885 8.478-33.33 8.478" transform="translate(15.14 3.292)"/><path d="m445.8,282.71-37.68-13.74-24.92,31.41 1.43-40.07-37.58-14 38.56-11.02 1.69-40.07 22.4,33.27 38.63-10.77-24.71,31.58z"/></g></g></svg>