<svg xmlns="http://www.w3.org/2000/svg" viewBox="0 0 512 512"><defs><clipPath id="clipPath7035" clipPathUnits="userSpaceOnUse"><path fill-opacity=".67" d="m124.02-.0003h496.06v496.0603h-496.06z"/></clipPath></defs><g fill-rule="evenodd" clip-path="url(#clipPath7035)" transform="matrix(1.0321 0 0 1.0321 -128 .00027)"><path fill="#e70013" stroke-width="1.25" d="m0-.0002h744.09v496.0602h-744.09z"/><path fill="#fff" d="m485.97,255.06c0,67.28-54.541,121.82-121.82,121.82-67.28,0-121.82-54.541-121.82-121.82 0-67.28 54.541-121.82 121.82-121.82 67.28,0 121.82,54.541 121.82,121.82z" transform="matrix(1.027 0 0 1.027 -1.2813 -14.137)"/><g fill="#e70013" stroke-width="1.25"><path d="m357.56,327.49c-45.799,0-82.969-37.17-82.969-82.969 0-45.8 37.17-82.97 82.969-82.97 11.45,0 24.483,2.634 33.336,9.136-60.681,2.284-76.029,53.75-76.029,74.492s9.813,67.001 76.028,73.833c-7.535,4.857-21.885,8.478-33.335,8.478z" transform="translate(15.145 3.2924)"/><path d="m445.8,282.71-37.68-13.74-24.92,31.41 1.43-40.07-37.58-14 38.56-11.02 1.69-40.07 22.4,33.27 38.63-10.77-24.71,31.58z"/></g></g></svg>