<svg xmlns="http://www.w3.org/2000/svg" viewBox="0 0 512 512"><g fill-rule="evenodd"><path fill="#f31930" stroke-width="1.25" d="m0 0h512v512h-512z"/><g transform="translate(55.47 7.729)"><path fill="#fff" d="m178.37 445.64c0 100.69-81.62 182.31-182.31 182.31s-182.31-81.62-182.31-182.31 81.62-182.31 182.31-182.31 182.31 81.62 182.31 182.31" transform="matrix(.71362 0 0 .70145 166.01-56.35)"/><path fill="#f31830" d="m-15.739 157.09c0 44.19-35.82 80.01-80.01 80.01s-80.01-35.82-80.01-80.01 35.82-80.01 80.01-80.01 80.01 35.82 80.01 80.01" transform="matrix(1.3009 0 0 1.2787 320.28 55.37)"/><path fill="#fff" stroke-width="1.25" d="m318.63 196.5l-1.05 47.27-44.1 11.973 43.47 15.482-1.05 43.35 28.352-33.854 42.842 14.863-24.782-36.33 30.24-36.12-46.41 12.798-27.512-39.43z"/></g></g></svg>