<svg xmlns="http://www.w3.org/2000/svg" viewBox="0 0 512 512"><defs><clipPath id="clipPath5808" clipPathUnits="userSpaceOnUse"><path fill-opacity=".67" d="m0,0h512v512h-512z"/></clipPath></defs><g clip-path="url(#clipPath5808)"><g transform="matrix(1.0043 0 0 1.0043 .00003 -2.2302)"><path fill="#fff" fill-rule="evenodd" stroke-width="1.25" d="m.0031,0h256.6799v127.48h-256.6799z"/><path fill="#c00" d="m.0031,.0004-.0107,9.5679 61.254,31.474 23.048,.668-84.291-41.71z"/><path fill="#006" d="m26.229,.0004 74.261,38.79v-38.79h-74.261z"/><path fill="#c00" d="m110.4,.0004v49.519h-110.39v28.297h110.39v49.519h33.968v-49.519h110.39v-28.297h-110.39v-49.519h-33.968z"/><path fill="#006" d="m154.27,.0004v36.55l72.65-36.267-72.65-.2826z"/><path fill="#c00" d="m156.57,40.535 20.43-.165 79.37-40.087-21.06,.3436-78.74,39.908z"/><path fill="#006" d="m.0031,86.069v27.118l50.951-26.837-50.951-.284z"/><path fill="#c00" d="m196.2,87.189-21.24-.1649 80.064,39.863-.5267-9.12-58.297-30.578zm-176.3,40.371 75.072-39.416-19.718,.131-75.25,39.225"/><path fill="#006" d="m255.83,11.199-60.63,30.067 59.824,.2239v44.803h-50.951l50.48,27.352 .7409,13.914-26.963-.3222-73.794-36.228v36.55h-53.781v-36.55l-69.223,36.452-31.264,.0981v127.33h509.51v-254.67l-253.41-.2096m-256.1,14.373-.2689,26.445 53.64,.672-53.371-27.117z"/><g fill-rule="evenodd" stroke-width="1.25"><g fill="#009fca"><g transform="matrix(.51383 0 0 .51383 -.00367 .00019)"><path d="m496.06-0h496.06v496.06h-496.06z"/><path d="M 0,248.03 H523.49 V496.06 H0 z"/></g><g transform="matrix(.51383 0 0 .51383 -.00367 260)"><path d="m505.97-19.81h486.16v515.87h-486.16z"/><path d="m0-25.343h523.49v521.41h-523.49z"/></g></g><g fill="#fff40d" transform="matrix(1.2509 0 0 1.2509 -129.15 180.34)"><path d="m569.1,365.81 21.94,67.35-57.27-41.68-57.27,41.67 21.95-67.34-57.33-41.6 70.83,.07 21.83-67.38 21.83,67.38 70.83-.05z" transform="matrix(.25628 0 0 .24119 337.93 -50.489)"/><path d="m569.1,365.81 21.94,67.35-57.27-41.68-57.27,41.67 21.95-67.34-57.33-41.6 70.83,.07 21.83-67.38 21.83,67.38 70.83-.05z" transform="matrix(.25628 0 0 .24119 292.37 79.065)"/><path d="m569.1,365.81 21.94,67.35-57.27-41.68-57.27,41.67 21.95-67.34-57.33-41.6 70.83,.07 21.83-67.38 21.83,67.38 70.83-.05z" transform="matrix(.25628 0 0 .24119 337.93 49.738)"/><path d="m569.1,365.81 21.94,67.35-57.27-41.68-57.27,41.67 21.95-67.34-57.33-41.6 70.83,.07 21.83-67.38 21.83,67.38 70.83-.05z" transform="matrix(.25628 0 0 .24119 142.03 143.7)"/><path d="m569.1,365.81 21.94,67.35-57.27-41.68-57.27,41.67 21.95-67.34-57.33-41.6 70.83,.07 21.83-67.38 21.83,67.38 70.83-.05z" transform="matrix(-.25628 0 0 -.24119 468.01 249.77)"/><path d="m569.1,365.81 21.94,67.35-57.27-41.68-57.27,41.67 21.95-67.34-57.33-41.6 70.83,.07 21.83-67.38 21.83,67.38 70.83-.05z" transform="matrix(-.25628 0 0 -.24119 521.54 175.74)"/><path d="m569.1,365.81 21.94,67.35-57.27-41.68-57.27,41.67 21.95-67.34-57.33-41.6 70.83,.07 21.83-67.38 21.83,67.38 70.83-.05z" transform="matrix(-.25628 0 0 -.24119 566.53 160.36)"/><path d="m569.1,365.81 21.94,67.35-57.27-41.68-57.27,41.67 21.95-67.34-57.33-41.6 70.83,.07 21.83-67.38 21.83,67.38 70.83-.05z" transform="matrix(-.25628 0 0 -.24119 521.54 288.49)"/><path d="m569.1,365.81 21.94,67.35-57.27-41.68-57.27,41.67 21.95-67.34-57.33-41.6 70.83,.07 21.83-67.38 21.83,67.38 70.83-.05z" transform="matrix(-.25628 0 0 -.24119 468.01 301.59)"/></g></g></g></g></svg>