<svg xmlns="http://www.w3.org/2000/svg" viewBox="0 0 512 512" xmlns:xlink="http://www.w3.org/1999/xlink"><defs><path id="0" d="m569.1 365.81l21.94 67.35-57.27-41.68-57.27 41.67 21.95-67.34-57.33-41.6 70.83.07 21.83-67.38 21.83 67.38 70.83-.05z"/><clipPath id="1"><path d="m0 0h512v512h-512z"/></clipPath></defs><g clip-path="url(#1)"><g transform="matrix(1.0043 0 0 1.0043 0-2.23)"><path fill="#fff" fill-rule="evenodd" stroke-width="1.25" d="m.003 0h256.68v127.48h-256.68z"/><path fill="#c00" d="m.003 0l-.011 9.568 61.25 31.474 23.05.668-84.29-41.71"/><path fill="#006" d="m26.23 0l74.26 38.79v-38.79h-74.26"/><path fill="#c00" d="m110.4 0v49.52h-110.39v28.3h110.39v49.52h33.968v-49.52h110.39v-28.3h-110.39v-49.52h-33.968"/><path fill="#006" d="m154.27 0v36.55l72.65-36.27-72.65-.283"/><path fill="#c00" d="m156.57 40.535l20.43-.165 79.37-40.09-21.06.344-78.74 39.908"/><path fill="#006" d="m.003 86.07v27.12l50.951-26.837-50.951-.284z"/><path fill="#c00" d="m196.2 87.19l-21.24-.165 80.06 39.863-.527-9.12-58.3-30.578m-176.3 40.37l75.07-39.42-19.718.131-75.25 39.22"/><path fill="#006" d="m255.83 11.199l-60.63 30.07 59.824.224v44.803h-50.951l50.48 27.352.741 13.914-26.963-.322-73.79-36.23v36.55h-53.781v-36.55l-69.22 36.452-31.26.098v127.33h509.51v-254.67l-253.41-.21m-256.1 14.373l-.269 26.445 53.64.672-53.37-27.12z"/><g fill-rule="evenodd" stroke-width="1.25"><g fill="#009fca"><g transform="matrix(.51383 0 0 .51383-.004 0)"><path d="m496.06 0h496.06v496.06h-496.06z"/><path d="M 0,248.03 H523.49 V496.06 H0 z"/></g><g transform="matrix(.51383 0 0 .51383-.004 260)"><path d="m505.97-19.81h486.16v515.87h-486.16z"/><path d="m0-25.343h523.49v521.41h-523.49z"/></g></g><g fill="#fff40d" transform="matrix(1.2509 0 0 1.2509-129.15 180.34)"><use transform="matrix(.25628 0 0 .24119 337.93-50.49)" xlink:href="#0"/><use transform="matrix(.25628 0 0 .24119 292.37 79.06)" xlink:href="#0"/><use transform="matrix(.25628 0 0 .24119 337.93 49.738)" xlink:href="#0"/><use transform="matrix(.25628 0 0 .24119 142.03 143.7)" xlink:href="#0"/><use transform="matrix(-.25628 0 0-.24119 468.01 249.77)" xlink:href="#0"/><use transform="matrix(-.25628 0 0-.24119 521.54 175.74)" xlink:href="#0"/><use transform="matrix(-.25628 0 0-.24119 566.53 160.36)" xlink:href="#0"/><use transform="matrix(-.25628 0 0-.24119 521.54 288.49)" xlink:href="#0"/><use transform="matrix(-.25628 0 0-.24119 468.01 301.59)" xlink:href="#0"/></g></g></g></g></svg>