<svg xmlns="http://www.w3.org/2000/svg" viewBox="0 0 512 512"><defs><clipPath id="0"><path d="m0 0h496.06v496.06h-496.06z"/></clipPath></defs><g fill-rule="evenodd" stroke-width="1.25" clip-path="url(#0)" transform="scale(1.0321)"><path fill="#de2110" d="m0 0h744.09v496.06h-744.09z"/><path fill="#08399c" d="m0 0h373.69v248.03h-373.69z"/><path fill="#fff" d="m272.53 171.99l-45.86-9.43 9.77 45.79-35.01-31.09-14.44 44.54-14.77-44.44-34.77 31.36 9.43-45.86-45.79 9.76 31.09-35-44.539-14.44 44.43-14.77-31.35-34.773 45.86 9.427-9.76-45.792 35 31.09 14.44-44.54 14.77 44.43 34.77-31.354-9.43 45.863 45.79-9.767-31.09 35.01 44.54 14.43-44.43 14.77z" transform="translate(.794 1.011)"/><path fill="#005387" d="m230.41 167.62l-14.31 7.62-13.96 8.27-16.21-.56-16.21.19-13.76-8.59-14.14-7.95-7.62-14.32-8.27-13.95.55-16.21-.18-16.22 8.59-13.757 7.95-14.14 14.31-7.622 13.96-8.269 16.21.557 16.22-.185 13.76 8.588 14.13 7.95 7.62 14.316 8.27 13.95-.55 16.21.18 16.22-8.59 13.76z" transform="matrix(1.0112 0 0 1.0085-1.946.435)"/><path fill="#fff" d="m236.88 122.81c0 27.754-22.499 50.25-50.25 50.25s-50.25-22.499-50.25-50.25 22.499-50.25 50.25-50.25 50.25 22.499 50.25 50.25" transform="translate(.148 1.481)"/></g></svg>