<svg xmlns="http://www.w3.org/2000/svg" viewBox="0 0 512 512"><defs><clipPath id="clipPath6566" clipPathUnits="userSpaceOnUse"><path fill-opacity=".67" d="m0-0h130v130h-130z"/></clipPath></defs><g fill-rule="evenodd" clip-path="url(#clipPath6566)" transform="matrix(3.9385 0 0 3.9385 0 .00001)"><g stroke-width="1.25"><g><g fill="#bd3d44"><path d="m0,0h247v10h-247z"/><path d="m0,20h247v10h-247z"/><path d="m0,40h247v10h-247z"/><path d="m0,60h247v10h-247z"/><path d="m0,80h247v10h-247z"/><path d="m0,100h247v10h-247z"/><path d="m0,120h247v10h-247z"/></g><g fill="#fff"><path d="m0,10h247v10h-247z"/><path d="m0,30h247v10h-247z"/><path d="m0,50h247v10h-247z"/><path d="m0,70h247v10h-247z"/><path d="m0,90h247v10h-247z"/><path d="m0,110h247v10h-247z"/></g></g><path fill="#192f5d" d="m0,0h98.8v70h-98.8z"/></g><g fill="#fff"><g><g><path d="m0-4.004 .899,2.7667 2.909,0-2.3535,1.7099 .899,2.7667-2.3535-1.7099-2.3535,1.7099 .899-2.7667-2.3535-1.7099 2.909,0z" transform="translate(8.2333 7)"/><path d="m0-4.004 .899,2.7667 2.909,0-2.3535,1.7099 .899,2.7667-2.3535-1.7099-2.3535,1.7099 .899-2.7667-2.3535-1.7099 2.909,0z" transform="translate(24.7 7)"/><path d="m0-4.004 .899,2.7667 2.909,0-2.3535,1.7099 .899,2.7667-2.3535-1.7099-2.3535,1.7099 .899-2.7667-2.3535-1.7099 2.909,0z" transform="translate(41.167 7)"/><path d="m0-4.004 .899,2.7667 2.909,0-2.3535,1.7099 .899,2.7667-2.3535-1.7099-2.3535,1.7099 .899-2.7667-2.3535-1.7099 2.909,0z" transform="translate(57.633 7)"/><path d="m0-4.004 .899,2.7667 2.909,0-2.3535,1.7099 .899,2.7667-2.3535-1.7099-2.3535,1.7099 .899-2.7667-2.3535-1.7099 2.909,0z" transform="translate(74.1 7)"/><path d="m0-4.004 .899,2.7667 2.909,0-2.3535,1.7099 .899,2.7667-2.3535-1.7099-2.3535,1.7099 .899-2.7667-2.3535-1.7099 2.909,0z" transform="translate(90.567 7)"/></g><g><path d="m0-4.004 .899,2.7667 2.909,0-2.3535,1.7099 .899,2.7667-2.3535-1.7099-2.3535,1.7099 .899-2.7667-2.3535-1.7099 2.909,0z" transform="translate(16.467 14)"/><path d="m0-4.004 .899,2.7667 2.909,0-2.3535,1.7099 .899,2.7667-2.3535-1.7099-2.3535,1.7099 .899-2.7667-2.3535-1.7099 2.909,0z" transform="translate(32.933 14)"/><path d="m0-4.004 .899,2.7667 2.909,0-2.3535,1.7099 .899,2.7667-2.3535-1.7099-2.3535,1.7099 .899-2.7667-2.3535-1.7099 2.909,0z" transform="translate(49.4 14)"/><path d="m0-4.004 .899,2.7667 2.909,0-2.3535,1.7099 .899,2.7667-2.3535-1.7099-2.3535,1.7099 .899-2.7667-2.3535-1.7099 2.909,0z" transform="translate(65.867 14)"/><path d="m0-4.004 .899,2.7667 2.909,0-2.3535,1.7099 .899,2.7667-2.3535-1.7099-2.3535,1.7099 .899-2.7667-2.3535-1.7099 2.909,0z" transform="translate(82.333 14)"/></g></g><g transform="translate(0 14)"><g><path d="m0-4.004 .899,2.7667 2.909,0-2.3535,1.7099 .899,2.7667-2.3535-1.7099-2.3535,1.7099 .899-2.7667-2.3535-1.7099 2.909,0z" transform="translate(8.2333 7)"/><path d="m0-4.004 .899,2.7667 2.909,0-2.3535,1.7099 .899,2.7667-2.3535-1.7099-2.3535,1.7099 .899-2.7667-2.3535-1.7099 2.909,0z" transform="translate(24.7 7)"/><path d="m0-4.004 .899,2.7667 2.909,0-2.3535,1.7099 .899,2.7667-2.3535-1.7099-2.3535,1.7099 .899-2.7667-2.3535-1.7099 2.909,0z" transform="translate(41.167 7)"/><path d="m0-4.004 .899,2.7667 2.909,0-2.3535,1.7099 .899,2.7667-2.3535-1.7099-2.3535,1.7099 .899-2.7667-2.3535-1.7099 2.909,0z" transform="translate(57.633 7)"/><path d="m0-4.004 .899,2.7667 2.909,0-2.3535,1.7099 .899,2.7667-2.3535-1.7099-2.3535,1.7099 .899-2.7667-2.3535-1.7099 2.909,0z" transform="translate(74.1 7)"/><path d="m0-4.004 .899,2.7667 2.909,0-2.3535,1.7099 .899,2.7667-2.3535-1.7099-2.3535,1.7099 .899-2.7667-2.3535-1.7099 2.909,0z" transform="translate(90.567 7)"/></g><g><path d="m0-4.004 .899,2.7667 2.909,0-2.3535,1.7099 .899,2.7667-2.3535-1.7099-2.3535,1.7099 .899-2.7667-2.3535-1.7099 2.909,0z" transform="translate(16.467 14)"/><path d="m0-4.004 .899,2.7667 2.909,0-2.3535,1.7099 .899,2.7667-2.3535-1.7099-2.3535,1.7099 .899-2.7667-2.3535-1.7099 2.909,0z" transform="translate(32.933 14)"/><path d="m0-4.004 .899,2.7667 2.909,0-2.3535,1.7099 .899,2.7667-2.3535-1.7099-2.3535,1.7099 .899-2.7667-2.3535-1.7099 2.909,0z" transform="translate(49.4 14)"/><path d="m0-4.004 .899,2.7667 2.909,0-2.3535,1.7099 .899,2.7667-2.3535-1.7099-2.3535,1.7099 .899-2.7667-2.3535-1.7099 2.909,0z" transform="translate(65.867 14)"/><path d="m0-4.004 .899,2.7667 2.909,0-2.3535,1.7099 .899,2.7667-2.3535-1.7099-2.3535,1.7099 .899-2.7667-2.3535-1.7099 2.909,0z" transform="translate(82.333 14)"/></g></g><g transform="translate(0 28)"><g><path d="m0-4.004 .899,2.7667 2.909,0-2.3535,1.7099 .899,2.7667-2.3535-1.7099-2.3535,1.7099 .899-2.7667-2.3535-1.7099 2.909,0z" transform="translate(8.2333 7)"/><path d="m0-4.004 .899,2.7667 2.909,0-2.3535,1.7099 .899,2.7667-2.3535-1.7099-2.3535,1.7099 .899-2.7667-2.3535-1.7099 2.909,0z" transform="translate(24.7 7)"/><path d="m0-4.004 .899,2.7667 2.909,0-2.3535,1.7099 .899,2.7667-2.3535-1.7099-2.3535,1.7099 .899-2.7667-2.3535-1.7099 2.909,0z" transform="translate(41.167 7)"/><path d="m0-4.004 .899,2.7667 2.909,0-2.3535,1.7099 .899,2.7667-2.3535-1.7099-2.3535,1.7099 .899-2.7667-2.3535-1.7099 2.909,0z" transform="translate(57.633 7)"/><path d="m0-4.004 .899,2.7667 2.909,0-2.3535,1.7099 .899,2.7667-2.3535-1.7099-2.3535,1.7099 .899-2.7667-2.3535-1.7099 2.909,0z" transform="translate(74.1 7)"/><path d="m0-4.004 .899,2.7667 2.909,0-2.3535,1.7099 .899,2.7667-2.3535-1.7099-2.3535,1.7099 .899-2.7667-2.3535-1.7099 2.909,0z" transform="translate(90.567 7)"/></g><g><path d="m0-4.004 .899,2.7667 2.909,0-2.3535,1.7099 .899,2.7667-2.3535-1.7099-2.3535,1.7099 .899-2.7667-2.3535-1.7099 2.909,0z" transform="translate(16.467 14)"/><path d="m0-4.004 .899,2.7667 2.909,0-2.3535,1.7099 .899,2.7667-2.3535-1.7099-2.3535,1.7099 .899-2.7667-2.3535-1.7099 2.909,0z" transform="translate(32.933 14)"/><path d="m0-4.004 .899,2.7667 2.909,0-2.3535,1.7099 .899,2.7667-2.3535-1.7099-2.3535,1.7099 .899-2.7667-2.3535-1.7099 2.909,0z" transform="translate(49.4 14)"/><path d="m0-4.004 .899,2.7667 2.909,0-2.3535,1.7099 .899,2.7667-2.3535-1.7099-2.3535,1.7099 .899-2.7667-2.3535-1.7099 2.909,0z" transform="translate(65.867 14)"/><path d="m0-4.004 .899,2.7667 2.909,0-2.3535,1.7099 .899,2.7667-2.3535-1.7099-2.3535,1.7099 .899-2.7667-2.3535-1.7099 2.909,0z" transform="translate(82.333 14)"/></g></g><g transform="translate(0 42)"><g><path d="m0-4.004 .899,2.7667 2.909,0-2.3535,1.7099 .899,2.7667-2.3535-1.7099-2.3535,1.7099 .899-2.7667-2.3535-1.7099 2.909,0z" transform="translate(8.2333 7)"/><path d="m0-4.004 .899,2.7667 2.909,0-2.3535,1.7099 .899,2.7667-2.3535-1.7099-2.3535,1.7099 .899-2.7667-2.3535-1.7099 2.909,0z" transform="translate(24.7 7)"/><path d="m0-4.004 .899,2.7667 2.909,0-2.3535,1.7099 .899,2.7667-2.3535-1.7099-2.3535,1.7099 .899-2.7667-2.3535-1.7099 2.909,0z" transform="translate(41.167 7)"/><path d="m0-4.004 .899,2.7667 2.909,0-2.3535,1.7099 .899,2.7667-2.3535-1.7099-2.3535,1.7099 .899-2.7667-2.3535-1.7099 2.909,0z" transform="translate(57.633 7)"/><path d="m0-4.004 .899,2.7667 2.909,0-2.3535,1.7099 .899,2.7667-2.3535-1.7099-2.3535,1.7099 .899-2.7667-2.3535-1.7099 2.909,0z" transform="translate(74.1 7)"/><path d="m0-4.004 .899,2.7667 2.909,0-2.3535,1.7099 .899,2.7667-2.3535-1.7099-2.3535,1.7099 .899-2.7667-2.3535-1.7099 2.909,0z" transform="translate(90.567 7)"/></g><g><path d="m0-4.004 .899,2.7667 2.909,0-2.3535,1.7099 .899,2.7667-2.3535-1.7099-2.3535,1.7099 .899-2.7667-2.3535-1.7099 2.909,0z" transform="translate(16.467 14)"/><path d="m0-4.004 .899,2.7667 2.909,0-2.3535,1.7099 .899,2.7667-2.3535-1.7099-2.3535,1.7099 .899-2.7667-2.3535-1.7099 2.909,0z" transform="translate(32.933 14)"/><path d="m0-4.004 .899,2.7667 2.909,0-2.3535,1.7099 .899,2.7667-2.3535-1.7099-2.3535,1.7099 .899-2.7667-2.3535-1.7099 2.909,0z" transform="translate(49.4 14)"/><path d="m0-4.004 .899,2.7667 2.909,0-2.3535,1.7099 .899,2.7667-2.3535-1.7099-2.3535,1.7099 .899-2.7667-2.3535-1.7099 2.909,0z" transform="translate(65.867 14)"/><path d="m0-4.004 .899,2.7667 2.909,0-2.3535,1.7099 .899,2.7667-2.3535-1.7099-2.3535,1.7099 .899-2.7667-2.3535-1.7099 2.909,0z" transform="translate(82.333 14)"/></g></g><g transform="translate(0 56)"><path d="m0-4.004 .899,2.7667 2.909,0-2.3535,1.7099 .899,2.7667-2.3535-1.7099-2.3535,1.7099 .899-2.7667-2.3535-1.7099 2.909,0z" transform="translate(8.2333 7)"/><path d="m0-4.004 .899,2.7667 2.909,0-2.3535,1.7099 .899,2.7667-2.3535-1.7099-2.3535,1.7099 .899-2.7667-2.3535-1.7099 2.909,0z" transform="translate(24.7 7)"/><path d="m0-4.004 .899,2.7667 2.909,0-2.3535,1.7099 .899,2.7667-2.3535-1.7099-2.3535,1.7099 .899-2.7667-2.3535-1.7099 2.909,0z" transform="translate(41.167 7)"/><path d="m0-4.004 .899,2.7667 2.909,0-2.3535,1.7099 .899,2.7667-2.3535-1.7099-2.3535,1.7099 .899-2.7667-2.3535-1.7099 2.909,0z" transform="translate(57.633 7)"/><path d="m0-4.004 .899,2.7667 2.909,0-2.3535,1.7099 .899,2.7667-2.3535-1.7099-2.3535,1.7099 .899-2.7667-2.3535-1.7099 2.909,0z" transform="translate(74.1 7)"/><path d="m0-4.004 .899,2.7667 2.909,0-2.3535,1.7099 .899,2.7667-2.3535-1.7099-2.3535,1.7099 .899-2.7667-2.3535-1.7099 2.909,0z" transform="translate(90.567 7)"/></g></g></g></svg>