<svg xmlns="http://www.w3.org/2000/svg" viewBox="0 0 512 512" xmlns:xlink="http://www.w3.org/1999/xlink"><defs><path id="0" d="m101.66 488.82c9.641 18.11 21.855 33.03 30.418 58.686 1.846 34.31-2.07 40.849 4.635 57.06 2.696 5.929 6.544 8.378 7.285 22.12-1.146 19.675-9.645 20.899-18 20.359-1.5-6.04-.002-9.946-10.648-20.357-5.765-6.161-12.613-16.348-16.234-29.493-1.126-12.07-1.758-27.767-7.786-40.892-8.674-14.17-9.97-21.07-18.211-28.491-8.486-9.873-8-13.336-12.65-24.09 11.39-18.449 22.19-20.33 41.19-14.9z"/><path id="1" d="m82.66 496.87l-29.12 159.36v-159.36h29.12"/><clipPath id="2"><path d="m-.143-.339h496.74v496.74h-496.74z"/></clipPath><linearGradient gradientTransform="scale(.72665 1.3762)" id="3" y1="360.52" y2="459.27" gradientUnits="userSpaceOnUse" x2="0"><stop stop-color="#faff00"/><stop offset="1" stop-color="#f5c402"/></linearGradient></defs><g clip-path="url(#2)" transform="matrix(1.0307 0 0 1.0307.147.35)"><g fill-rule="evenodd" transform="matrix(.46905 0 0 .46905 112.73-59.885)"><path fill="#fff" stroke-width="1.25" d="m-240.65 126.95h1587v1059h-1587z"/><g stroke="#cbaa19" fill-opacity=".561" stroke-width="3.125" fill="url(#3)"><use transform="matrix(-.70971.70449-.70449-.70971 390.96 688.93)" xlink:href="#0"/><use transform="matrix(-.99992-.01294.01294-.99992 101.58 850.68)" xlink:href="#0"/><use transform="matrix(-.69945-.71468.71468-.69945-212.76 760.55)" xlink:href="#0"/><use transform="matrix(.00717-.99997.99997.00717-371.84 475.5)" xlink:href="#0"/><use transform="matrix(.71126-.70293.70293.71126-283.29 160.35)" xlink:href="#0"/><use transform="matrix(.70345.71074-.71074.70345 317.95 87.982)" xlink:href="#0"/><use transform="matrix(-.0043.99999-.99999-.0043 478.78 373.3)" xlink:href="#0"/></g><g fill="#002993" stroke-width="1.25"><path d="m345.13 247.98h1001.2v120.52h-1001.2z"/><path d="m345.13 482.62h1001.2v120.52h-1001.2z"/></g><use fill="url(#3)" stroke="#cbaa19" fill-opacity=".561" stroke-width="3.125" xlink:href="#0"/><g fill="#002993" stroke-width="1.25"><path d="m-240.65 714.54h1587v120.52h-1587z"/><path d="m-240.65 947.82h1587v120.52h-1587z"/></g><g stroke="#cbaa19" stroke-width="3.125"><use fill="#faff00" stroke-linecap="round" xlink:href="#1"/><use fill="#f5c402" transform="matrix(-1 0 0 1 107.08 0)" xlink:href="#1"/><use fill="#faff00" stroke-linecap="round" transform="matrix(.70581-.7084.7084.70581-285.33 162.96)" xlink:href="#1"/><use fill="#f5c402" transform="matrix(-.70581.7084.7084.70581-209.75 87.1)" xlink:href="#1"/><use fill="#faff00" stroke-linecap="round" transform="matrix(-.00193-1 1-.00193-371.37 479.37)" xlink:href="#1"/><use fill="#f5c402" transform="matrix(.00193 1 1-.00193-371.57 372.29)" xlink:href="#1"/><use fill="#faff00" stroke-linecap="round" transform="matrix(-.70544-.70877.70877-.70544-209.93 762.78)" xlink:href="#1"/><use fill="#f5c402" transform="matrix(.70544.70877.70877-.70544-285.47 686.88)" xlink:href="#1"/><use fill="#faff00" stroke-linecap="round" transform="matrix(-1 .00196-.00196-1 107.91 849.92)" xlink:href="#1"/><use fill="#f5c402" transform="matrix(1-.00196-.00196-1 .831 850.13)" xlink:href="#1"/><use fill="#faff00" stroke-linecap="round" transform="matrix(-.70577.70844-.70844-.70577 392.42 687.04)" xlink:href="#1"/><use fill="#f5c402" transform="matrix(.70577-.70844-.70844-.70577 316.85 762.9)" xlink:href="#1"/><use fill="#faff00" stroke-linecap="round" transform="matrix(.01106.99994-.99994.01106 477.93 366.77)" xlink:href="#1"/><use fill="#f5c402" transform="matrix(-.01106-.99994-.99994.01106 479.12 473.85)" xlink:href="#1"/><use fill="#faff00" stroke-linecap="round" transform="matrix(.71235.70182-.70182.71235 313.68 84.68)" xlink:href="#1"/><use fill="#f5c402" transform="matrix(-.71235-.70182-.70182.71235 389.96 159.83)" xlink:href="#1"/><ellipse fill="#faff00" cx="52.585" cy="422.29" rx="82.22" ry="81.27" transform="translate(.956 2.868)"/></g></g></g></svg>