<svg xmlns="http://www.w3.org/2000/svg" viewBox="0 0 512 512" xmlns:xlink="http://www.w3.org/1999/xlink"><defs><clipPath id="clipPath6042" clipPathUnits="userSpaceOnUse"><path fill-opacity=".67" d="m-.143-.3392h496.74v496.7402h-496.74z"/></clipPath><linearGradient gradientTransform="scale(.72665 1.3762)" id="linearGradient6024" xlink:href="#linearGradient583" y1="360.52" y2="459.27" gradientUnits="userSpaceOnUse" x2="0"/><linearGradient id="linearGradient583"><stop offset="0" stop-color="#faff00"/><stop offset="1" stop-color="#f5c402"/></linearGradient></defs><g clip-path="url(#clipPath6042)" transform="matrix(1.0307 0 0 1.0307 .14744 .34958)"><g fill-rule="evenodd" transform="matrix(.46905 0 0 .46905 112.73 -59.885)"><path fill="#fff" stroke-width="1.25" d="m-240.65,126.95h1587v1059h-1587z"/><g stroke="#cbaa19" fill-opacity=".561" stroke-width="3.125"><path fill="url(#linearGradient6024)" d="m101.66,488.82c9.641,18.113 21.855,33.027 30.418,58.686 1.846,34.313-2.07,40.849 4.635,57.059 2.696,5.929 6.544,8.378 7.285,22.123-1.146,19.675-9.645,20.899-18,20.359-1.5-6.043-.002-9.946-10.648-20.357-5.765-6.161-12.613-16.348-16.234-29.493-1.1265-12.074-1.7577-27.767-7.7864-40.892-8.6741-14.17-9.9698-21.069-18.211-28.491-8.486-9.873-8.0016-13.336-12.65-24.094 11.39-18.449 22.187-20.33 41.192-14.9z" transform="matrix(-.70971 .70449 -.70449 -.70971 390.96 688.93)"/><path fill="url(#linearGradient6024)" d="m101.66,488.82c9.641,18.113 21.855,33.027 30.418,58.686 1.846,34.313-2.07,40.849 4.635,57.059 2.696,5.929 6.544,8.378 7.285,22.123-1.146,19.675-9.645,20.899-18,20.359-1.5-6.043-.002-9.946-10.648-20.357-5.765-6.161-12.613-16.348-16.234-29.493-1.1265-12.074-1.7577-27.767-7.7864-40.892-8.6741-14.17-9.9698-21.069-18.211-28.491-8.486-9.873-8.0016-13.336-12.65-24.094 11.39-18.449 22.187-20.33 41.192-14.9z" transform="matrix(-.99992 -.01294 .01294 -.99992 101.58 850.68)"/><path fill="url(#linearGradient6024)" d="m101.66,488.82c9.641,18.113 21.855,33.027 30.418,58.686 1.846,34.313-2.07,40.849 4.635,57.059 2.696,5.929 6.544,8.378 7.285,22.123-1.146,19.675-9.645,20.899-18,20.359-1.5-6.043-.002-9.946-10.648-20.357-5.765-6.161-12.613-16.348-16.234-29.493-1.1265-12.074-1.7577-27.767-7.7864-40.892-8.6741-14.17-9.9698-21.069-18.211-28.491-8.486-9.873-8.0016-13.336-12.65-24.094 11.39-18.449 22.187-20.33 41.192-14.9z" transform="matrix(-.69945 -.71468 .71468 -.69945 -212.76 760.55)"/><path fill="url(#linearGradient6024)" d="m101.66,488.82c9.641,18.113 21.855,33.027 30.418,58.686 1.846,34.313-2.07,40.849 4.635,57.059 2.696,5.929 6.544,8.378 7.285,22.123-1.146,19.675-9.645,20.899-18,20.359-1.5-6.043-.002-9.946-10.648-20.357-5.765-6.161-12.613-16.348-16.234-29.493-1.1265-12.074-1.7577-27.767-7.7864-40.892-8.6741-14.17-9.9698-21.069-18.211-28.491-8.486-9.873-8.0016-13.336-12.65-24.094 11.39-18.449 22.187-20.33 41.192-14.9z" transform="matrix(.00717 -.99997 .99997 .00717 -371.84 475.5)"/><path fill="url(#linearGradient6024)" d="m101.66,488.82c9.641,18.113 21.855,33.027 30.418,58.686 1.846,34.313-2.07,40.849 4.635,57.059 2.696,5.929 6.544,8.378 7.285,22.123-1.146,19.675-9.645,20.899-18,20.359-1.5-6.043-.002-9.946-10.648-20.357-5.765-6.161-12.613-16.348-16.234-29.493-1.1265-12.074-1.7577-27.767-7.7864-40.892-8.6741-14.17-9.9698-21.069-18.211-28.491-8.486-9.873-8.0016-13.336-12.65-24.094 11.39-18.449 22.187-20.33 41.192-14.9z" transform="matrix(.71126 -.70293 .70293 .71126 -283.29 160.35)"/><path fill="url(#linearGradient6024)" d="m101.66,488.82c9.641,18.113 21.855,33.027 30.418,58.686 1.846,34.313-2.07,40.849 4.635,57.059 2.696,5.929 6.544,8.378 7.285,22.123-1.146,19.675-9.645,20.899-18,20.359-1.5-6.043-.002-9.946-10.648-20.357-5.765-6.161-12.613-16.348-16.234-29.493-1.1265-12.074-1.7577-27.767-7.7864-40.892-8.6741-14.17-9.9698-21.069-18.211-28.491-8.486-9.873-8.0016-13.336-12.65-24.094 11.39-18.449 22.187-20.33 41.192-14.9z" transform="matrix(.70345 .71074 -.71074 .70345 317.95 87.982)"/><path fill="url(#linearGradient6024)" d="m101.66,488.82c9.641,18.113 21.855,33.027 30.418,58.686 1.846,34.313-2.07,40.849 4.635,57.059 2.696,5.929 6.544,8.378 7.285,22.123-1.146,19.675-9.645,20.899-18,20.359-1.5-6.043-.002-9.946-10.648-20.357-5.765-6.161-12.613-16.348-16.234-29.493-1.1265-12.074-1.7577-27.767-7.7864-40.892-8.6741-14.17-9.9698-21.069-18.211-28.491-8.486-9.873-8.0016-13.336-12.65-24.094 11.39-18.449 22.187-20.33 41.192-14.9z" transform="matrix(-.0043 .99999 -.99999 -.0043 478.78 373.3)"/></g><g fill="#002993" stroke-width="1.25"><path d="m345.13,247.98h1001.2v120.52h-1001.2z"/><path d="m345.13,482.62h1001.2v120.52h-1001.2z"/></g><path fill="url(#linearGradient6024)" stroke="#cbaa19" fill-opacity=".561" stroke-width="3.125" d="m101.66,488.82c9.641,18.113 21.855,33.027 30.418,58.686 1.846,34.313-2.07,40.849 4.635,57.059 2.696,5.929 6.544,8.378 7.285,22.123-1.146,19.675-9.645,20.899-18,20.359-1.5-6.043-.002-9.946-10.648-20.357-5.765-6.161-12.613-16.348-16.234-29.493-1.1265-12.074-1.7577-27.767-7.7864-40.892-8.6741-14.17-9.9698-21.069-18.211-28.491-8.486-9.873-8.0016-13.336-12.65-24.094 11.39-18.449 22.187-20.33 41.192-14.9z"/><g fill="#002993" stroke-width="1.25"><path d="m-240.65,714.54h1587v120.52h-1587z"/><path d="m-240.65,947.82h1587v120.52h-1587z"/></g><g stroke="#cbaa19" stroke-width="3.125"><path fill="#faff00" stroke-linecap="round" d="m82.66,496.87-29.119,159.36v-159.36h29.119z"/><path fill="#f5c402" d="m82.66,496.87-29.119,159.36v-159.36h29.119z" transform="matrix(-1 0 0 1 107.08 -.00049)"/><path fill="#faff00" stroke-linecap="round" d="m82.66,496.87-29.119,159.36v-159.36h29.119z" transform="matrix(.70581 -.7084 .7084 .70581 -285.33 162.96)"/><path fill="#f5c402" d="m82.66,496.87-29.119,159.36v-159.36h29.119z" transform="matrix(-.70581 .7084 .7084 .70581 -209.75 87.104)"/><path fill="#faff00" stroke-linecap="round" d="m82.66,496.87-29.119,159.36v-159.36h29.119z" transform="matrix(-.00193 -1 1 -.00193 -371.37 479.37)"/><path fill="#f5c402" d="m82.66,496.87-29.119,159.36v-159.36h29.119z" transform="matrix(.00193 1 1 -.00193 -371.57 372.29)"/><path fill="#faff00" stroke-linecap="round" d="m82.66,496.87-29.119,159.36v-159.36h29.119z" transform="matrix(-.70544 -.70877 .70877 -.70544 -209.93 762.78)"/><path fill="#f5c402" d="m82.66,496.87-29.119,159.36v-159.36h29.119z" transform="matrix(.70544 .70877 .70877 -.70544 -285.47 686.88)"/><path fill="#faff00" stroke-linecap="round" d="m82.66,496.87-29.119,159.36v-159.36h29.119z" transform="matrix(-1 .00196 -.00196 -1 107.91 849.92)"/><path fill="#f5c402" d="m82.66,496.87-29.119,159.36v-159.36h29.119z" transform="matrix(1 -.00196 -.00196 -1 .83117 850.13)"/><path fill="#faff00" stroke-linecap="round" d="m82.66,496.87-29.119,159.36v-159.36h29.119z" transform="matrix(-.70577 .70844 -.70844 -.70577 392.42 687.04)"/><path fill="#f5c402" d="m82.66,496.87-29.119,159.36v-159.36h29.119z" transform="matrix(.70577 -.70844 -.70844 -.70577 316.85 762.9)"/><path fill="#faff00" stroke-linecap="round" d="m82.66,496.87-29.119,159.36v-159.36h29.119z" transform="matrix(.01106 .99994 -.99994 .01106 477.93 366.77)"/><path fill="#f5c402" d="m82.66,496.87-29.119,159.36v-159.36h29.119z" transform="matrix(-.01106 -.99994 -.99994 .01106 479.12 473.85)"/><path fill="#faff00" stroke-linecap="round" d="m82.66,496.87-29.119,159.36v-159.36h29.119z" transform="matrix(.71235 .70182 -.70182 .71235 313.68 84.677)"/><path fill="#f5c402" d="m82.66,496.87-29.119,159.36v-159.36h29.119z" transform="matrix(-.71235 -.70182 -.70182 .71235 389.96 159.83)"/><ellipse fill="#faff00" cx="52.585" cy="422.29" rx="82.224" ry="81.268" d="m 134.80975,422.29388 c 0,44.88325 -36.813109,81.26831 -82.224385,81.26831 -45.4112753,0 -82.224388,-36.38506 -82.224388,-81.26831 0,-44.88324 36.8131127,-81.26831 82.224388,-81.26831 45.411276,0 82.224385,36.38507 82.224385,81.26831 z" transform="translate(.9561 2.8683)"/></g></g></g></svg>