<svg xmlns="http://www.w3.org/2000/svg" viewBox="0 0 512 512" xmlns:xlink="http://www.w3.org/1999/xlink"><defs><path id="0" d="m205.58 128.74l-10.01-6.85-9.91 7.01 3.42-11.64-9.72-7.25 12.12-.35 3.89-11.495 4.08 11.425 12.13.15-9.6 7.41z"/><clipPath id="1"><path d="m0 0h496.06v496.06h-496.06z"/></clipPath></defs><g fill-rule="evenodd" clip-path="url(#1)" transform="scale(1.0321)"><g stroke-width="1.25"><path fill="#fff" d="m0 0h992.13v496.06h-992.13z"/><path fill="#94acd4" d="m0 0h992.13v171.7h-992.13z"/><path fill="#b73000" d="m0 160.33h992.13v11.374h-992.13z"/><path fill="#00a900" d="M 0,335.73 H992.13 V496.06 H0 z"/><path fill="#b73000" d="m0 335.73h992.13v11.374h-992.13z"/><g fill="#feffff"><use transform="matrix(.92289 0 0 .92799 71.38-68.43)" xlink:href="#0"/><use transform="matrix(.92289 0 0 .92799 27.81 17.296)" xlink:href="#0"/><use transform="matrix(.92289 0 0 .92799 71.798 17.296)" xlink:href="#0"/><use transform="matrix(.92289 0 0 .92799 112.44 17.296)" xlink:href="#0"/><use transform="matrix(.92289 0 0 .92799 150.14 17.296)" xlink:href="#0"/><use transform="matrix(.92289 0 0 .92799-18.272 17.296)" xlink:href="#0"/><use transform="matrix(.92289 0 0 .92799 26.972-25.25)" xlink:href="#0"/><use transform="matrix(.92289 0 0 .92799 71.38-25.25)" xlink:href="#0"/><use transform="matrix(.92289 0 0 .92799 113.27-25.25)" xlink:href="#0"/><use transform="matrix(.92289 0 0 .92799 149.72-25.25)" xlink:href="#0"/><use transform="matrix(.92289 0 0 .92799 149.3-68.43)" xlink:href="#0"/><use transform="matrix(.92289 0 0 .92799 112.85-68.43)" xlink:href="#0"/></g></g><path fill="#fff" d="m142.44 28.532c-49.44-13.476-80.75 21.331-80.28 52.52.471 31.19 29.377 64.22 73.99 55.984-70.1 32.67-105.95-18.79-104.52-59.65 2.462-48.29 57.05-87.68 110.81-48.858" transform="matrix(1 0 0 1.0055 0-2.739)"/></g></svg>