<svg xmlns="http://www.w3.org/2000/svg" viewBox="0 0 512 512"><defs><clipPath id="clipPath5874" clipPathUnits="userSpaceOnUse"><path fill-opacity=".67" d="m0-.0003h496.06v496.0603h-496.06z"/></clipPath></defs><g fill-rule="evenodd" clip-path="url(#clipPath5874)" transform="matrix(1.0321 0 0 1.0321 0 .00033)"><g stroke-width="1.25"><path fill="#fff" d="m0-.0003h992.13v496.0603h-992.13z"/><path fill="#94acd4" d="m0-0h992.13v171.7h-992.13z"/><path fill="#b73000" d="m0,160.33h992.13v11.374h-992.13z"/><path fill="#00a900" d="M 0,335.73 H992.13 V496.06 H0 z"/><path fill="#b73000" d="m0,335.73h992.13v11.374h-992.13z"/><g fill="#feffff"><path d="m205.58,128.74-10.01-6.85-9.91,7.01 3.42-11.64-9.72-7.25 12.12-.35 3.89-11.495 4.08,11.425 12.13,.15-9.6,7.41z" transform="matrix(.92289 0 0 .92799 71.38 -68.428)"/><path d="m205.58,128.74-10.01-6.85-9.91,7.01 3.42-11.64-9.72-7.25 12.12-.35 3.89-11.495 4.08,11.425 12.13,.15-9.6,7.41z" transform="matrix(.92289 0 0 .92799 27.81 17.296)"/><path d="m205.58,128.74-10.01-6.85-9.91,7.01 3.42-11.64-9.72-7.25 12.12-.35 3.89-11.495 4.08,11.425 12.13,.15-9.6,7.41z" transform="matrix(.92289 0 0 .92799 71.798 17.296)"/><path d="m205.58,128.74-10.01-6.85-9.91,7.01 3.42-11.64-9.72-7.25 12.12-.35 3.89-11.495 4.08,11.425 12.13,.15-9.6,7.41z" transform="matrix(.92289 0 0 .92799 112.44 17.296)"/><path d="m205.58,128.74-10.01-6.85-9.91,7.01 3.42-11.64-9.72-7.25 12.12-.35 3.89-11.495 4.08,11.425 12.13,.15-9.6,7.41z" transform="matrix(.92289 0 0 .92799 150.14 17.296)"/><path d="m205.58,128.74-10.01-6.85-9.91,7.01 3.42-11.64-9.72-7.25 12.12-.35 3.89-11.495 4.08,11.425 12.13,.15-9.6,7.41z" transform="matrix(.92289 0 0 .92799 -18.272 17.296)"/><path d="m205.58,128.74-10.01-6.85-9.91,7.01 3.42-11.64-9.72-7.25 12.12-.35 3.89-11.495 4.08,11.425 12.13,.15-9.6,7.41z" transform="matrix(.92289 0 0 .92799 26.972 -25.25)"/><path d="m205.58,128.74-10.01-6.85-9.91,7.01 3.42-11.64-9.72-7.25 12.12-.35 3.89-11.495 4.08,11.425 12.13,.15-9.6,7.41z" transform="matrix(.92289 0 0 .92799 71.38 -25.25)"/><path d="m205.58,128.74-10.01-6.85-9.91,7.01 3.42-11.64-9.72-7.25 12.12-.35 3.89-11.495 4.08,11.425 12.13,.15-9.6,7.41z" transform="matrix(.92289 0 0 .92799 113.27 -25.25)"/><path d="m205.58,128.74-10.01-6.85-9.91,7.01 3.42-11.64-9.72-7.25 12.12-.35 3.89-11.495 4.08,11.425 12.13,.15-9.6,7.41z" transform="matrix(.92289 0 0 .92799 149.72 -25.25)"/><path d="m205.58,128.74-10.01-6.85-9.91,7.01 3.42-11.64-9.72-7.25 12.12-.35 3.89-11.495 4.08,11.425 12.13,.15-9.6,7.41z" transform="matrix(.92289 0 0 .92799 149.3 -68.428)"/><path d="m205.58,128.74-10.01-6.85-9.91,7.01 3.42-11.64-9.72-7.25 12.12-.35 3.89-11.495 4.08,11.425 12.13,.15-9.6,7.41z" transform="matrix(.92289 0 0 .92799 112.85 -68.428)"/></g></g><path fill="#fff" d="m142.44,28.532c-49.436-13.476-80.752,21.331-80.28,52.524 .471,31.194 29.377,64.224 73.99,55.984-70.098,32.67-105.95-18.79-104.52-59.65 2.462-48.294 57.045-87.679 110.81-48.858z" transform="matrix(1 0 0 1.0055 0 -2.7387)"/></g></svg>