<svg xmlns="http://www.w3.org/2000/svg" viewBox="0 0 512 512" xmlns:xlink="http://www.w3.org/1999/xlink"><defs><path id="0" d="m344.54-596.29l9.152 22.14s1.455-9.767 8.526-11.534l7.07-1.768s26.864 49.33 32.17 58.17c5.302 8.838-3.536 16.793-1.769 16.793 1.769 0 26.517-11.49 26.517-11.49s-10.606.883-15.03-6.188-34.819-59.934-34.819-59.934 6.187-2.652 11.49-5.303c5.304-2.652 10.607 7.955 10.607 7.955l-13.258-26.517s0 8.839-4.42 10.607c-4.419 1.767-7.955 3.535-7.955 3.535s-3.535-6.187-7.955-13.258c-4.419-7.07 4.42-14.14 4.42-14.14l-22.981 11.49s7.955 4.42 10.607 8.839c2.651 4.42 5.303 8.839 5.303 8.839s-3.223 1.768-8.214 3.482c-3.589 1.875-7.696.054-9.464-1.714z"/><path id="1" d="m566.93-657.28c0-44.01-150.8-79.72-336.61-79.72s-336.61 35.717-336.61 79.72v26.575c0-44.01 150.8-70.866 336.61-70.866s336.61 44.576 336.61 88.58v-44.29z"/><path id="2" d="m212.6-453.54c-35.433 0-70.866 35.433-70.866 70.866s35.433 70.866 70.866 70.866h194.88c35.433 0 70.866-35.433 70.866-70.866 0-37.03-35.433-70.866-70.866-70.866h-194.88z"/><path id="3" d="m318.9-595.28h70.866c9.757-9.756 9.757-26.1 0-35.433-25.991-10.607-44.874-9.48-70.866 0-8.307 9.338-9.422 24.826 0 35.433z"/><path id="4" d="m230.32-825.59l-53.15 53.15 35.433 35.433-17.716 17.717-35.433-35.433-53.15 53.15 53.15 53.15 35.433-35.433 17.716 17.716v53.15h35.433v-53.15l17.717-17.716 35.433 35.433 53.15-53.15-53.15-53.15-35.433 35.433-17.717-17.717 35.434-35.433-53.15-53.15z"/><path id="5" d="m220.98-825.59l-8.379 53.15v35.433l-17.716 17.717v-35.434l-17.717 53.15 17.717 53.15v-35.432l17.716 17.716v53.15h17.717v-53.15l17.717-17.716-.0001 35.432 17.717-53.15-17.717-53.15.0001 35.434-17.717-17.717v-35.433l-9.338-53.15z"/><path id="6" d="m141.73-1020.5c0-17.72 17.717-35.44 35.433-35.44 17.717 0 35.433 17.72 35.433 35.44s-17.716 35.431-17.716 35.431l70.866 70.866h-35.433l-53.15-53.15-53.15 53.15h-35.433l70.866-70.866s-17.717-17.711-17.717-35.431z"/><path id="7" d="m318.9-506.69h17.716v-43.33c0-43.33-35.433-64.99-35.433-64.99l17.717 108.32z"/><path id="8" d="m301.18 804.33l35.433-35.433v-35.433l-35.433 35.433v35.433z"/><path id="9" d="m248.03 644.88v35.433l17.717-17.717-17.717-17.716z"/><path id="A" d="m354.33 822.05l106.3-106.3h35.433l-106.3 106.3h-35.433z"/><path id="B" d="m407.48 839.76v70.866l106.3-106.3v-70.866l-106.3 106.3z"/><path id="C" d="m318.9 786.62l17.717-17.717v-35.433l-35.433 35.433 17.716 17.717z"/><path id="D" d="m336.61 166.54c0 14.669 35.433 35.434 35.433-17.716h-35.433v17.716z"/><path id="E" d="m276.58 287.67c-9.223 1.889-18.773 2.881-28.552 2.881s-19.329-.992-28.553-2.881l-1.432 6.965c9.686 1.984 19.715 3.02 29.985 3.02s20.299-1.041 29.985-3.02l-1.433-6.965z"/></defs><g fill-rule="evenodd"><path fill="#fff" stroke-width="1.25" d="m248.03 0h248.03v496.06h-248.03z" transform="scale(1.0321)"/><g stroke="#000"><g stroke-width="1.25" transform="matrix(.11776 0 0 .13671 345.5 231.93)"><g fill="#fff"><path d="m282.43-735.13c0 .625 55.956 222.85 118.17 300.56 69.38 87.27 113.18 87.33 113.18 87.33l70.866-17.717s-41.496 2.093-123.8-104.21c-83.45-107.78-109.42-285.96-108.17-282.84l-70.24 16.875z" transform="matrix(-1.8293 0 0 1.3072 891.54 795.66)"/><path d="m285-727.64c-1.535-9.369 33.898 220.95 140.2 327.24 53.15 53.15 88.58 53.15 88.58 53.15l88.58-17.717s-51.712 3.751-134.02-102.55c-83.45-107.78-108.58-263.25-107.96-263.87l-75.38 3.75z" transform="matrix(1.8293 0 0 1.3072-268.51 807.56)" id="G"/><path d="m282.43-735.13c0 .625 55.956 222.85 118.17 300.56 69.38 87.27 113.18 87.33 113.18 87.33l70.866-17.717s-41.496 2.093-123.8-104.21c-83.45-107.78-109.42-285.96-108.17-282.84l-70.24 16.875z" transform="matrix(1.8293 0 0 1.3072-268.51 807.56)"/><use transform="matrix(-1 0 0 1 623.03-11.9)" xlink:href="#G"/></g><use fill="#fff133" transform="matrix(1.8289.02808-.0393 1.3069-282.83 847.84)" xlink:href="#0"/></g><g fill="#b00" stroke-width="14.25"><g transform="matrix(-.1293-.00712-.00851.10824 413.41 312.77)"><use transform="matrix(-.12336.01471-.06391-.1006 550.75 255.13)" xlink:href="#2"/><use transform="matrix(-.12126.01799-.06531-.10042 561.45 266.72)" xlink:href="#2"/><use transform="matrix(-.12336.01471-.06391-.1006 574.98 280.98)" xlink:href="#2"/><use transform="matrix(-.12303-.01726-.03612-.11358 432.3 104.15)" xlink:href="#2"/><use transform="matrix(-.12208-.01115-.03976-.113 439.61 116.98)" xlink:href="#2"/><use transform="matrix(-.12335-.01483-.03835-.11285 449.4 134.04)" xlink:href="#2"/><use transform="matrix(-.12254-.0034-.04683-.11025 455.97 139.06)" xlink:href="#2"/><use transform="matrix(-.12051-.0302-.02388-.11677 405.54 48.626)" xlink:href="#2"/><use transform="matrix(-.11971-.02639-.02525-.1171 411.41 63.26)" xlink:href="#2"/><use transform="matrix(-.12051-.0302-.02388-.11677 418.98 81.41)" xlink:href="#2"/><use transform="matrix(-.1202-.02405-.02754-.11658 426.33 94.35)" xlink:href="#2"/><use transform="matrix(-.12415.00469-.05557-.10544 505.97 205.18)" xlink:href="#2"/><use transform="matrix(-.12232.00812-.05698-.10537 515.7 217.59)" xlink:href="#2"/><use transform="matrix(-.12415.00469-.05557-.10544 528.04 232.9)" xlink:href="#2"/><use transform="matrix(-.12126.01799-.06531-.10042 537.21 240.87)" xlink:href="#2"/><use transform="matrix(-.12404-.00699-.04541-.1102 466.82 155.47)" xlink:href="#2"/><use transform="matrix(-.12254-.0034-.04683-.11025 475.34 168.73)" xlink:href="#2"/><use transform="matrix(-.12415.00469-.05557-.10544 483.91 177.46)" xlink:href="#2"/><use transform="matrix(-.12232.00812-.05698-.10537 493.63 189.87)" xlink:href="#2"/><use transform="matrix(-.11229-.05316-.00061-.11918 349.93-134.62)" xlink:href="#2"/><use transform="matrix(-.11582-.04016-.01144-.11924 349.8-129.74)" xlink:href="#2"/><use transform="matrix(-.11617-.04403-.01011-.11876 355.2-110.83)" xlink:href="#2"/><use transform="matrix(-.11582-.04016-.01144-.11924 359.33-95.61)" xlink:href="#2"/><use transform="matrix(-.11225-.04927-.00189-.11977 339.28-188.68)" xlink:href="#2"/><use transform="matrix(-.11229-.05316-.00061-.11918 343.16-169.4)" xlink:href="#2"/><use transform="matrix(-.11225-.04927-.00189-.11977 346.05-153.9)" xlink:href="#2"/><use transform="matrix(-.11931-.03465-.01953-.11758 380.94-15.821)" xlink:href="#2"/><use transform="matrix(-.11865-.03081-.0209-.11795 386.26-.98)" xlink:href="#2"/><use transform="matrix(-.11931-.03465-.01953-.11758 393.16 17.442)" xlink:href="#2"/><use transform="matrix(-.11971-.02639-.02525-.1171 397.97 30.472)" xlink:href="#2"/><use transform="matrix(-.11617-.04403-.01011-.11876 364.73-76.7)" xlink:href="#2"/><use transform="matrix(-.11865-.03081-.0209-.11795 361.84-67.5)" xlink:href="#2"/><use transform="matrix(-.11931-.03465-.01953-.11758 368.73-49.08)" xlink:href="#2"/><use transform="matrix(-.11865-.03081-.0209-.11795 374.05-34.24)" xlink:href="#2"/><use transform="matrix(-.10237-.0704.01843-.11775 323.56-283.26)" xlink:href="#2"/><use transform="matrix(-.11132-.05517.00153-.11918 322.41-270.56)" xlink:href="#2"/><use transform="matrix(-.11135-.05128.00026-.11979 325.02-255.01)" xlink:href="#2"/><use transform="matrix(-.10295-.06656.01725-.11854 321.68-338.33)" xlink:href="#2"/><use transform="matrix(-.10237-.0704.01843-.11775 322.43-318.68)" xlink:href="#2"/><use transform="matrix(-.10295-.06656.01725-.11854 322.81-302.92)" xlink:href="#2"/><use transform="matrix(-.11132-.05517.00153-.11918 328.55-235.66)" xlink:href="#2"/><use transform="matrix(-.11225-.04927-.00189-.11977 332.34-224.34)" xlink:href="#2"/><use transform="matrix(-.11229-.05316-.00061-.11918 336.21-205.06)" xlink:href="#2"/></g><g transform="matrix(.12959 0 0 .10848 351.35 303.72)"><use transform="matrix(-.12336.01471-.06391-.1006 550.75 255.13)" xlink:href="#2"/><use transform="matrix(-.12126.01799-.06531-.10042 561.45 266.72)" xlink:href="#2"/><use transform="matrix(-.12336.01471-.06391-.1006 574.98 280.98)" xlink:href="#2"/><use transform="matrix(-.12303-.01726-.03612-.11358 432.3 104.15)" xlink:href="#2"/><use transform="matrix(-.12208-.01115-.03976-.113 439.61 116.98)" xlink:href="#2"/><use transform="matrix(-.12335-.01483-.03835-.11285 449.4 134.04)" xlink:href="#2"/><use transform="matrix(-.12254-.0034-.04683-.11025 455.97 139.06)" xlink:href="#2"/><use transform="matrix(-.12051-.0302-.02388-.11677 405.54 48.626)" xlink:href="#2"/><use transform="matrix(-.11971-.02639-.02525-.1171 411.41 63.26)" xlink:href="#2"/><use transform="matrix(-.12051-.0302-.02388-.11677 418.98 81.41)" xlink:href="#2"/><use transform="matrix(-.1202-.02405-.02754-.11658 426.33 94.35)" xlink:href="#2"/><use transform="matrix(-.12415.00469-.05557-.10544 505.97 205.18)" xlink:href="#2"/><use transform="matrix(-.12232.00812-.05698-.10537 515.7 217.59)" xlink:href="#2"/><use transform="matrix(-.12415.00469-.05557-.10544 528.04 232.9)" xlink:href="#2"/><use transform="matrix(-.12126.01799-.06531-.10042 537.21 240.87)" xlink:href="#2"/><use transform="matrix(-.12404-.00699-.04541-.1102 466.82 155.47)" xlink:href="#2"/><use transform="matrix(-.12254-.0034-.04683-.11025 475.34 168.73)" xlink:href="#2"/><use transform="matrix(-.12415.00469-.05557-.10544 483.91 177.46)" xlink:href="#2"/><use transform="matrix(-.12232.00812-.05698-.10537 493.63 189.87)" xlink:href="#2"/><use transform="matrix(-.11229-.05316-.00061-.11918 349.93-134.62)" xlink:href="#2"/><use transform="matrix(-.11582-.04016-.01144-.11924 349.8-129.74)" xlink:href="#2"/><use transform="matrix(-.11617-.04403-.01011-.11876 355.2-110.83)" xlink:href="#2"/><use transform="matrix(-.11582-.04016-.01144-.11924 359.33-95.61)" xlink:href="#2"/><use transform="matrix(-.11225-.04927-.00189-.11977 339.28-188.68)" xlink:href="#2"/><use transform="matrix(-.11229-.05316-.00061-.11918 343.16-169.4)" xlink:href="#2"/><use transform="matrix(-.11225-.04927-.00189-.11977 346.05-153.9)" xlink:href="#2"/><use transform="matrix(-.11931-.03465-.01953-.11758 380.94-15.821)" xlink:href="#2"/><use transform="matrix(-.11865-.03081-.0209-.11795 386.26-.98)" xlink:href="#2"/><use transform="matrix(-.11931-.03465-.01953-.11758 393.16 17.442)" xlink:href="#2"/><use transform="matrix(-.11971-.02639-.02525-.1171 397.97 30.472)" xlink:href="#2"/><use transform="matrix(-.11617-.04403-.01011-.11876 364.73-76.7)" xlink:href="#2"/><use transform="matrix(-.11865-.03081-.0209-.11795 361.84-67.5)" xlink:href="#2"/><use transform="matrix(-.11931-.03465-.01953-.11758 368.73-49.08)" xlink:href="#2"/><use transform="matrix(-.11865-.03081-.0209-.11795 374.05-34.24)" xlink:href="#2"/><use transform="matrix(-.10237-.0704.01843-.11775 323.56-283.26)" xlink:href="#2"/><use transform="matrix(-.11132-.05517.00153-.11918 322.41-270.56)" xlink:href="#2"/><use transform="matrix(-.11135-.05128.00026-.11979 325.02-255.01)" xlink:href="#2"/><use transform="matrix(-.10295-.06656.01725-.11854 321.68-338.33)" xlink:href="#2"/><use transform="matrix(-.10237-.0704.01843-.11775 322.43-318.68)" xlink:href="#2"/><use transform="matrix(-.10295-.06656.01725-.11854 322.81-302.92)" xlink:href="#2"/><use transform="matrix(-.11132-.05517.00153-.11918 328.55-235.66)" xlink:href="#2"/><use transform="matrix(-.11225-.04927-.00189-.11977 332.34-224.34)" xlink:href="#2"/><use transform="matrix(-.11229-.05316-.00061-.11918 336.21-205.06)" xlink:href="#2"/></g></g></g><g stroke-width="1.25"><use fill="#fff133" stroke="#000" transform="matrix(-.21537.00384.00463.17867 452.17 346.22)" xlink:href="#0"/><g transform="matrix(.12959 0 0 .10848 351.35 305.64)"><path fill="#c0c0c0" d="m318.9-382.68h70.866v248.03h-70.866z" transform="matrix(-.70711.70711.70711.70711 820.64-210.27)"/><g stroke="#000"><ellipse fill="#fff133" cx="354.33" cy="-1428" rx="35.433" ry="35.433" transform="matrix(-.70711.70711.70711.70711 833.17-197.75)"/><path fill="#c0c0c0" d="m336.62-914.17v53.15h35.432v-53.15c0-17.717-35.433-17.717-35.433 0z" transform="matrix(-.70711.70711.70711.70711 482.4-548.52)"/><use fill="#fff133" transform="matrix(-.70711.70711.70711.70711 299.82-731.1)" xlink:href="#3"/><path fill="#c0c0c0" d="m318.9-914.17v53.15h70.866v-53.15c-17.717-10.607-53.15-10.607-70.866 0z" transform="matrix(-.70711.70711.70711.70711 519.99-510.93)"/><use fill="#fff133" transform="matrix(-.70711.70711.70711.70711 337.4-693.52)" xlink:href="#3"/><path fill="#c0c0c0" d="m318.9-949.61l.006 484.79h70.867l-.007-484.79c-17.717-10.607-53.15-10.607-70.866 0z" transform="matrix(-.70711.70711.70711.70711 582.62-448.3)"/><use fill="#fff133" transform="matrix(-.70711.70711.70711.70711 695.36-335.54)" xlink:href="#3"/><g fill="#c0c0c0"><path d="m318.9-949.61v318.9h70.866v-318.9c-17.717-10.607-53.15-10.607-70.866 0z" transform="matrix(-.70711.70711.70711.70711 945.92-84.995)" id="c"/><path d="m301.18-595.28h106.3c9.757-9.756 9.757-26.1 0-35.433 0 0-17.716-17.716-53.15-17.716s-53.15 17.716-53.15 17.716c-7.122 9.338-6.284 24 0 35.433z" transform="matrix(-.70711.70711.70711.70711 820.64-210.27)" id="d"/><path d="m301.18-595.28l17.717 88.58h70.866l17.716-88.58c.274-3.727-17.716-17.716-53.15-17.716s-51.928 17.341-53.15 17.716z" transform="matrix(-.70711.70711.70711.70711 820.64-210.27)" id="e"/><path d="m336.61-506.69c0-35.433 0-86.65 17.717-129.98 17.716 43.33 17.716 94.55 17.716 129.98h-35.433z" transform="matrix(-.70711.70711.57828.57828 755.37-275.55)" id="f"/><use transform="matrix(.70711-.70711.57828.57828 254.27 225.55)" xlink:href="#7"/><use transform="matrix(-.70711.70711.57828.57828 755.37-275.55)" xlink:href="#7"/></g><path fill="#fff133" d="m318.9-949.61v53.15c0 35.433 17.716 177.16 17.716 177.16s-17.71 148.17-17.71 183.61v53.15c0-35.433 35.427-219.04 35.427-219.04s35.44 165.89 35.44 219.04v-53.15c0-35.433-17.717-183.61-17.724-183.61.007 0 17.717-124.02 17.717-159.45v-70.867c0 35.433-35.426 212.6-35.426 212.6s-35.44-177.17-35.44-212.6z" transform="matrix(-.70711.70711.70711.70711 582.62-448.3)"/><g fill="#c0c0c0"><path d="m354.33-382.68c17.716 88.58 17.716 159.45 17.716 177.16.031 33.655-17.716 53.15-17.716 53.15s-17.717-17.717-17.717-53.15c0-17.716 0-88.58 17.717-177.16zm-35.433-124.02c0 124.02-35.433 230.32-35.433 318.9 0 70.866 51.654 73.45 70.12 72.16 18.464-1.294 72.3-1.191 71.61-72.16 0-88.58-35.433-194.88-35.433-318.9-17.717-17.716-53.15-17.716-70.866 0z" transform="matrix(-.70711.70711.70711.70711 820.64-210.27)"/><path d="m218.28 257.88h22.934v73.04h-22.934z" transform="matrix(-1.2487-1.4214-1.3593 1.3175 1166.1-102.64)" id="g"/></g></g></g></g><g stroke="#000"><g fill="#c0c0c0" transform="matrix(-.14867 0 0 .1217 371.74 165.87)"><path stroke-width=".625" d="m301.18 396.85l17.717 17.717-17.717 17.716 8.858 8.859 17.717-17.717 35.433 35.433-17.717 17.717 8.859 8.858 17.716-17.716 17.717 17.716-53.15 53.15-35.433-35.433 17.717-17.717 8.858 8.859 8.858-8.859-35.433-35.433-8.858 8.859 8.858 8.858-17.716 17.716-17.717-17.716 8.858-8.859-8.858-8.858-35.433 35.433 8.858 8.858 8.858-8.858 17.717 17.717-17.716 17.716-8.858-8.858-8.859 8.858 35.433 35.433 8.859-8.858-8.859-8.859 17.717-17.716 35.433 35.433-53.15 53.15-17.717-17.717 17.717-17.716-8.858-8.858-17.717 17.716-35.433-35.433 17.717-17.717-8.859-8.858-17.716 17.717-17.717-17.717 124.02-124.02z" transform="matrix(2 0 0 2-177.17-396.85)" id="F"/><g stroke-width="1.25"><path d="m318.9 786.61v35.433l88.58 88.58v-70.866l-17.716-17.717h-35.433l-35.433-35.433z" id="H"/><path d="m230.41 698.78l70.38 70.38.838 35.19-71.22-71.22v-34.35z" transform="translate(-.099-.022)" id="I"/><use xlink:href="#8"/><use transform="translate(-88.58-88.58)" xlink:href="#8"/><path d="m248.03 644.88v35.433l17.717-17.717-17.717-17.716z"/><use transform="translate(88.58 88.58)" xlink:href="#9"/><path d="m230.41 698.78l35.786 35.433v35.433l-35.786-36.514v-34.35z" transform="translate(-53.601-53.9)"/><use transform="translate(88.58-194.88)" xlink:href="#8"/><use transform="translate(17.717-124.02)" xlink:href="#8"/><path d="m283.46 822.05l53.15-53.15v-35.433l-70.866 70.866 17.716 17.717z" transform="translate(17.717-230.32)" id="J"/><use transform="translate(106.3-141.73)" xlink:href="#9"/><path d="m301.18,804.33-35.433-35.433v-35.433l35.433,35.433v35.433z" transform="translate(88.58-194.88)" id="K"/><path d="m389.76,822.05-53.15-53.15v-35.433l70.866,70.866-17.716,17.717z" transform="translate(88.58-230.32)" id="L"/><path d="m230.41 698.05l70.866 70.866h35.433l17.717 17.716v70.867l-124.02-124.37v-35.08z" transform="translate(194.78-88.61)" id="M"/><use xlink:href="#A"/><path d="m407.48 839.76l106.3-106.3-17.72-17.71-106.3 106.3 17.72 17.71z"/><use xlink:href="#B"/><g transform="translate(141.73-141.73)"><use xlink:href="#A"/><path d="m407.48 839.76l106.3-106.3-17.72-17.71-106.3 106.3 17.72 17.71z"/><use xlink:href="#B"/></g><use transform="translate(212.6-212.6)" xlink:href="#C"/><use transform="translate(124.02-301.18)" xlink:href="#C"/><path d="m265.75 768.9v-35.433l17.717 17.716-17.717 17.717z" transform="translate(88.58-53.15)"/><path d="m301.18,804.33-35.433-35.433 17.717-17.717 17.716,17.717v35.433z" transform="translate(17.717-124.02)" id="N"/><path d="m301.18,804.33-17.716-17.717 17.716-17.716v35.433z" transform="translate(124.02-265.75)" id="O"/></g></g><g stroke-width="1.25"><g transform="matrix(.12959 0 0 .10848 351.35 305.64)"><path fill="#fff133" d="m196.5 254.15h25.2v80.26h-25.2z" transform="matrix(-1.2509-1.4194-1.3614 1.3153 1166.1-102.64)"/><g fill="#c0c0c0"><g transform="matrix(-1.8992 0 0 1.8865 1166.1-102.64)"><use xlink:href="#D"/><path d="m242.1 24.803c-147.06 0-113.13 164.24-100.37 124.02 9.359-29.503 35.433-70.866 64.935-80.22 40.22-12.761 26.696 9.359 41.36 9.359 14.67 0 1.14-22.12 41.36-9.359 29.503 9.359 55.58 50.722 64.936 80.22 12.76 40.22 53.15-124.02-112.23-124.02z"/></g><use transform="matrix(-1 0 0 1 503.65 0)" xlink:href="#P"/><use transform="matrix(1.8992 0 0 1.8865 224-100.51)" xlink:href="#D"/><use transform="matrix(-1 0 0 1 503.65 0)" xlink:href="#Q"/><use transform="matrix(-1 0 0 1 503.63 0)" xlink:href="#R"/><g transform="matrix(-1 0 0 1 503.65 0)"><use xlink:href="#S"/><use xlink:href="#T"/><use xlink:href="#U"/></g></g><g fill="#fff133"><ellipse cx="82.11" cy="160.86" rx="18.433" ry="20.11" transform="matrix(-1.2929-1.3819-1.3912 1.2842 1257.6-120.02)"/><use transform="matrix(-1.2929-1.3819 1.3912-1.2842 808.89 712.05)" xlink:href="#E"/><g transform="matrix(-1.2929-1.3819-1.3912 1.2842 1223.2 329.88)"><use xlink:href="#E"/><path d="m267.7 308.51c-9.223 1.889-20.19.927-29.969.927-9.778 0-19.285-2.612-28.509-4.501l8.821-10.303c9.686 1.984 19.715 3.02 29.985 3.02s20.299-1.041 29.985-3.02l-10.313 13.877z"/></g><use transform="matrix(-1.3912 1.2842 1.2929 1.3819 847.44-345.21)" xlink:href="#E"/><ellipse cx="82.11" cy="160.86" rx="18.433" ry="20.11" transform="matrix(-1.2929-1.3819-1.3912 1.2842 789.14 314.38)"/><use transform="matrix(-1 0 0 1 503.67 0)" xlink:href="#V"/><g transform="matrix(-1 0 0 1 503.65 0)"><use xlink:href="#W"/><use xlink:href="#X"/></g><ellipse cx="82.11" cy="160.86" rx="18.433" ry="20.11" transform="matrix(-1.2929-1.3819-1.3912 1.2842 1237.6 329.88)"/></g></g><g transform="matrix(.11776 0 0 .13671 345.5 231.93)"><g fill="#fff"><path d="m513.78-790.16l35.432-17.714 35.433 17.714s-73.37 35.433-73.37 159.45c-.0001 88.58 125.26 106.3 125.26 212.6 0 45.649-34.18 88.58-69.62 88.58s-88.58-17.716-141.73-70.866c35.433 17.716 76.08 37.31 106.3 36.06 19.588-.405 55.02-17.716 55.02-53.15 0-70.866-122.77-106.92-122.77-213.22 0-124.02 50.02-159.45 50.03-159.45z" transform="matrix(-1.8293 0 0 1.3072 891.54 795.66)"/><g transform="matrix(-1 0 0 1 623.03-11.9)"><use xlink:href="#Z"/><use xlink:href="#a"/><use xlink:href="#b"/></g></g><g fill="#fff133"><use transform="matrix(-1.4889-.13557-.50826 1.1368 170.93 813.81)" xlink:href="#0"/><use transform="matrix(1.3548.15838.02361-.8707-735.63-774.35)" xlink:href="#0"/></g></g></g></g><g stroke-width="1.25" transform="matrix(.09163.0767-.09163.0767 323.26 252.94)"><g stroke="#000"><ellipse fill="#c0c0c0" cx="354.33" cy="-1428" rx="35.433" ry="35.433" transform="translate(124.01 283.46)"/><path fill="#fff133" d="m336.62-914.17v53.15h35.432v-53.15c0-17.717-35.433-17.717-35.433 0z" transform="translate(124.01-212.6)"/><use fill="#c0c0c0" transform="translate(124.01-470.81)" xlink:href="#3"/><path fill="#fff133" d="m318.9-914.17v53.15h70.866v-53.15c-17.717-10.607-53.15-10.607-70.866 0z" transform="translate(124.01-159.45)"/><use fill="#c0c0c0" transform="translate(124.01-417.66)" xlink:href="#3"/></g><path fill="#fff133" d="m318.9-382.68h70.866v248.03h-70.866z" transform="translate(124.01 265.75)"/><g stroke="#000"><path fill="#fff133" d="m318.9-949.61l.006 484.79h70.867l-.007-484.79c-17.717-10.607-53.15-10.607-70.866 0z" transform="translate(124.01-70.866)"/><use fill="#c0c0c0" transform="translate(124.02 88.58)" xlink:href="#3"/><g fill="#fff133"><use transform="matrix(-.7071.7071.7071.7071 852.98-165.85)" xlink:href="#c"/><g transform="matrix(-.7071.7071.7071.7071 852.97-165.84)"><use xlink:href="#d"/><use xlink:href="#e"/></g><use transform="matrix(-.7071.70711.7071.70711 852.98-165.85)" xlink:href="#f"/><use transform="matrix(-1 0 0 .81782 832.67 173.44)" xlink:href="#7"/><use transform="matrix(1 0 0 .81782 124.01 173.44)" xlink:href="#7"/><path d="m354.33-382.68c17.716 88.58 17.716 159.45 17.716 177.16.031 33.655-17.716 53.15-17.716 53.15s-17.717-17.717-17.717-53.15c0-17.716 0-88.58 17.717-177.16zm-35.433-124.02c0 124.02-35.433 230.32-35.433 318.9 0 70.866 51.654 73.45 70.12 72.16 18.464-1.294 72.3-1.191 71.61-72.16 0-88.58-35.433-194.88-35.433-318.9-17.717-17.716-53.15-17.716-70.866 0z" transform="translate(124.01 265.75)"/></g><path fill="#c0c0c0" d="m318.9-949.61v53.15c0 35.433 17.716 177.16 17.716 177.16s-17.71 148.17-17.71 183.61v53.15c0-35.433 35.427-219.04 35.427-219.04s35.44 165.89 35.44 219.04v-53.15c0-35.433-17.717-183.61-17.724-183.61.007 0 17.717-124.02 17.717-159.45v-70.867c0 35.433-35.426 212.6-35.426 212.6s-35.44-177.17-35.44-212.6z" transform="translate(124.01-70.866)"/></g></g><g stroke="#000"><g stroke-width="1.25" transform="matrix(.12959 0 0 .10848 351.35 305.64)"><g fill="#fff133"><use transform="matrix(-1 0 0 1 503.65 0)" xlink:href="#g"/><g transform="matrix(1.8992 0 0 1.8865-662.45-102.64)"><use xlink:href="#D"/><path d="m242.1 24.803c-147.06 0-113.13 164.24-100.37 124.02 9.359-29.503 35.433-70.866 64.935-80.22 40.22-12.761 26.696 9.359 41.36 9.359 14.67 0 1.14-22.12 41.36-9.359 29.503 9.359 55.58 50.722 64.936 80.22 12.76 40.22 53.15-124.02-112.23-124.02z"/></g><path d="m389.76 166.54c0 78.24-63.5 141.73-141.73 141.73-78.24 0-141.73-63.5-141.73-141.73v-17.716c.0001-29.12 35.433 124.02 141.73 124.02s141.73-124.77 141.73-124.02v17.716z" transform="matrix(1.8992 0 0 1.8865-662.45-102.64)" id="P"/></g><g fill="#c0c0c0"><ellipse cx="82.11" cy="160.86" rx="18.433" ry="20.11" transform="matrix(1.2929-1.3819 1.3912 1.2842-753.9-120.02)"/><path d="m196.5 254.15h25.2v80.26h-25.2z" transform="matrix(1.2509-1.4194 1.3614 1.3153-662.45-102.64)"/></g><g fill="#fff133"><use transform="matrix(-1.8992 0 0 1.8865 279.67-100.51)" xlink:href="#D"/><path d="m389.76 148.82c0 78.24-63.5 141.73-141.73 141.73-78.24 0-141.73-63.5-141.73-141.73 0-78.24 63.5-141.73 141.73-141.73 78.24 0 141.73 63.5 141.73 141.73zm-53.15 0c0 14.669 22.812 3.042 9.359 43.04-9.359 27.826-27.07 45.543-56.58 54.902-40.22 12.76-26.694-9.359-41.36-9.359-14.668 0-1.14 22.12-41.36 9.359-29.502-9.359-47.22-27.08-56.58-56.58-12.76-40.22 9.359-26.695 9.359-41.36 0-14.67-22.12-1.139-9.359-41.36 9.359-29.502 27.07-47.22 56.58-56.58 40.22-12.761 26.696 9.359 41.36 9.359 14.67 0 1.14-22.12 41.36-9.359 29.503 9.359 47.22 27.08 56.58 56.58 12.76 40.22-9.359 26.694-9.359 41.36z" transform="matrix(1.8992 0 0 1.8865-662.45-102.64)" id="Q"/><path d="m126.55 157.68c-20.248 0-1.929 67.6-9.104 51.705s-11.144-33.368-11.144-51.705 3.969-35.809 11.144-51.705c7.175-15.894-11.144 51.705 9.104 51.705z" transform="matrix(1.6618 0 0 1.7607-603.57-99.52)" id="R"/><path d="m372.05 139.96c0 15.892-2.13 31.632-9.751 44.811-7.965 13.775 9.751-44.811-7.965-44.811 17.716 0 1.687-58.59 7.965-44.811 6.279 13.776 9.751 28.919 9.751 44.811z" transform="matrix(1.8992 0 0 2.0316-662.45-106.24)" id="S"/><path d="m296.29 263.08c-14.836 6.279-31.14 9.751-48.26 9.751s-33.422-3.472-48.26-9.751c-14.835-6.278 48.26 9.751 48.26-7.966 0 17.717 63.09 1.688 48.26 7.966z" transform="matrix(1.8992 0 0 1.8865-662.45-102.64)" id="T"/><path d="m248.03 42.52c0-17.716-63.09-1.688-48.26-7.966s31.14-9.751 48.26-9.751 33.422 3.472 48.26 9.751c14.835 6.278-48.26-9.751-48.26 7.966z" transform="matrix(1.8992 0 0 1.8865-662.45-102.64)" id="U"/></g><g fill="#c0c0c0"><use transform="matrix(1.2929-1.3819-1.3912-1.2842-305.22 712.05)" xlink:href="#E"/><g transform="matrix(1.2929-1.3819 1.3912 1.2842-719.56 329.88)"><use xlink:href="#E"/><path d="m267.7 308.51c-9.223 1.889-20.19.927-29.969.927-9.778 0-19.285-2.612-28.509-4.501l8.821-10.303c9.686 1.984 19.715 3.02 29.985 3.02s20.299-1.041 29.985-3.02l-10.313 13.877z"/></g><use transform="matrix(1.3912 1.2842-1.2929 1.3819-343.78-345.21)" xlink:href="#E"/><ellipse cx="82.11" cy="160.86" rx="18.433" ry="20.11" transform="matrix(1.2929-1.3819 1.3912 1.2842-285.47 314.38)"/><path d="m267.59 281.47c-9.223 1.889-17.1 2.943-26.877 2.943s-23.11-.712-32.34-2.601l9.672 12.822c9.686 1.984 19.715 3.02 29.985 3.02s20.299-1.041 29.985-3.02l-10.429-13.164z" transform="matrix(1.3912 1.2842-1.2929 1.3819-346.96-315.18)" id="V"/><path d="m173.94 271.77l-.838 14.842-3.239 4.493.976-15.09 3.101-4.248z" transform="matrix(1.8992 0 0 1.8865-662.45-102.64)" id="W"/><path d="m330.54 265.6l3.562 4.189 1.047 13.616-2.933-2.933-1.676-14.872z" transform="matrix(1.8992 0 0 1.8865-662.45-102.64)" id="X"/><ellipse cx="82.11" cy="160.86" rx="18.433" ry="20.11" transform="matrix(1.2929-1.3819 1.3912 1.2842-733.89 329.88)"/></g></g><g fill="#fff133" transform="matrix(.14867 0 0 .1217 396.23 165.87)"><use xlink:href="#F"/><g stroke-width="1.25"><use xlink:href="#H"/><use xlink:href="#I"/><use xlink:href="#8"/><use transform="translate(-88.58-88.58)" xlink:href="#8"/><use xlink:href="#9"/><use transform="translate(88.58 88.58)" xlink:href="#9"/><path d="m230.41 698.78l35.786 35.433v35.433l-35.786-36.514v-34.35z" transform="translate(-53.601-53.9)"/><use transform="translate(88.58-194.88)" xlink:href="#8"/><use transform="translate(17.717-124.02)" xlink:href="#8"/><use xlink:href="#J"/><use transform="translate(106.3-141.73)" xlink:href="#9"/><use xlink:href="#K"/><use xlink:href="#L"/><use xlink:href="#M"/><use xlink:href="#A"/><path d="m407.48 839.76l106.3-106.3-17.72-17.71-106.3 106.3 17.72 17.71z" id="Y"/><use xlink:href="#B"/><use transform="translate(141.73-141.73)" xlink:href="#A"/><use transform="translate(141.73-141.73)" xlink:href="#Y"/><use transform="translate(141.73-141.73)" xlink:href="#B"/><use transform="translate(212.6-212.6)" xlink:href="#C"/><use transform="translate(124.02-301.18)" xlink:href="#C"/><path d="m265.75 768.9v-35.433l17.717 17.716-17.717 17.717z" transform="translate(88.58-53.15)"/><use xlink:href="#N"/><use xlink:href="#O"/></g></g><g fill="#b00"><g stroke-width="20.01"><g transform="matrix(.06574.00048-.00112.10847 364.94 307.45)"><use transform="matrix(.19723.07364-.04372.1171 178.81-149.96)" xlink:href="#2"/><use transform="matrix(.19861.06982-.04145.11793 179.05-165.72)" xlink:href="#2"/><use transform="matrix(.19723.07364-.04372.1171 178.81-185.39)" xlink:href="#2"/><use transform="matrix(.19861.06982-.04145.11793 179.05-201.16)" xlink:href="#2"/><use transform="matrix(.19723.07364-.04372.1171 178.81-79.09)" xlink:href="#2"/><use transform="matrix(.19861.06982-.04145.11793 179.05-94.86)" xlink:href="#2"/><use transform="matrix(.19723.07364-.04372.1171 178.81-114.52)" xlink:href="#2"/><use transform="matrix(.19861.06982-.04145.11793 179.05-130.29)" xlink:href="#2"/><use transform="matrix(.19723.07364-.04372.1171 178.81-291.69)" xlink:href="#2"/><use transform="matrix(.19861.06982-.04145.11793 179.05-307.45)" xlink:href="#2"/><use transform="matrix(.19723.07364-.04372.1171 178.81-327.12)" xlink:href="#2"/><use transform="matrix(.19861.06982-.04145.11793 179.05-342.89)" xlink:href="#2"/><use transform="matrix(.19723.07364-.04372.1171 178.81-220.82)" xlink:href="#2"/><use transform="matrix(.19861.06982-.04145.11793 179.05-236.59)" xlink:href="#2"/><use transform="matrix(.19723.07364-.04372.1171 178.81-256.26)" xlink:href="#2"/><use transform="matrix(.19861.06982-.04145.11793 179.05-272.02)" xlink:href="#2"/><use transform="matrix(.19723.07364-.04372.1171 178.81 133.51)" xlink:href="#2"/><use transform="matrix(.19861.06982-.04145.11793 179.05 117.74)" xlink:href="#2"/><use transform="matrix(.19723.07364-.04372.1171 178.81 98.07)" xlink:href="#2"/><use transform="matrix(.19861.06982-.04145.11793 179.05 82.31)" xlink:href="#2"/><use transform="matrix(.19723.07364-.04372.1171 178.81 204.37)" xlink:href="#2"/><use transform="matrix(.19861.06982-.04145.11793 179.05 188.61)" xlink:href="#2"/><use transform="matrix(.19723.07364-.04372.1171 178.81 168.94)" xlink:href="#2"/><use transform="matrix(.19861.06982-.04145.11793 179.05 153.18)" xlink:href="#2"/><use transform="matrix(.19723.07364-.04372.1171 178.81-8.225)" xlink:href="#2"/><use transform="matrix(.19861.06982-.04145.11793 179.05-23.99)" xlink:href="#2"/><use transform="matrix(.19723.07364-.04372.1171 178.81-43.658)" xlink:href="#2"/><use transform="matrix(.19861.06982-.04145.11793 179.05-59.42)" xlink:href="#2"/><use transform="matrix(.19723.07364-.04372.1171 178.81 62.64)" xlink:href="#2"/><use transform="matrix(.19861.06982-.04145.11793 179.05 46.876)" xlink:href="#2"/><use transform="matrix(.19723.07364-.04372.1171 178.81 27.21)" xlink:href="#2"/><use transform="matrix(.19861.06982-.04145.11793 179.05 11.443)" xlink:href="#2"/><use transform="matrix(.19723.07364-.04372.1171 178.81 416.97)" xlink:href="#2"/><use transform="matrix(.19861.06982-.04145.11793 179.05 401.21)" xlink:href="#2"/><use transform="matrix(.19723.07364-.04372.1171 178.81 381.54)" xlink:href="#2"/><use transform="matrix(.19861.06982-.04145.11793 179.05 365.77)" xlink:href="#2"/><use transform="matrix(.19861.06982-.04145.11793 179.05 472.07)" xlink:href="#2"/><use transform="matrix(.19723.07364-.04372.1171 178.81 452.4)" xlink:href="#2"/><use transform="matrix(.19861.06982-.04145.11793 179.05 436.64)" xlink:href="#2"/><use transform="matrix(.19723.07364-.04372.1171 178.81 275.24)" xlink:href="#2"/><use transform="matrix(.19861.06982-.04145.11793 179.05 259.47)" xlink:href="#2"/><use transform="matrix(.19723.07364-.04372.1171 178.81 239.81)" xlink:href="#2"/><use transform="matrix(.19861.06982-.04145.11793 179.05 224.04)" xlink:href="#2"/><use transform="matrix(.19723.07364-.04372.1171 178.81 346.11)" xlink:href="#2"/><use transform="matrix(.19861.06982-.04145.11793 179.05 330.34)" xlink:href="#2"/><use transform="matrix(.19723.07364-.04372.1171 178.81 310.67)" xlink:href="#2"/><use transform="matrix(.19861.06982-.04145.11793 179.05 294.91)" xlink:href="#2"/><use transform="matrix(.19723.07364-.04372.1171 178.81 595.04)" xlink:href="#2"/><use transform="matrix(.19861.06982-.04145.11793 179.05 579.27)" xlink:href="#2"/><use transform="matrix(.19723.07364-.04372.1171 178.81 559.61)" xlink:href="#2"/><use transform="matrix(.19861.06982-.04145.11793 179.05 543.84)" xlink:href="#2"/><use transform="matrix(.19861.06982-.04145.11793 179.05 650.14)" xlink:href="#2"/><use transform="matrix(.19723.07364-.04372.1171 178.81 630.47)" xlink:href="#2"/><use transform="matrix(.19861.06982-.04145.11793 179.05 614.71)" xlink:href="#2"/><use transform="matrix(.19723.07364-.04372.1171 178.81 524.17)" xlink:href="#2"/><use transform="matrix(.19861.06982-.04145.11793 179.05 508.41)" xlink:href="#2"/><use transform="matrix(.19723.07364-.04372.1171 178.81 488.74)" xlink:href="#2"/></g><g transform="matrix(.06574-.00014.00034.10848 367.8 307.82)"><use transform="matrix(.19723.07364-.04372.1171 178.81-149.96)" xlink:href="#2"/><use transform="matrix(.19861.06982-.04145.11793 179.05-165.72)" xlink:href="#2"/><use transform="matrix(.19723.07364-.04372.1171 178.81-185.39)" xlink:href="#2"/><use transform="matrix(.19861.06982-.04145.11793 179.05-201.16)" xlink:href="#2"/><use transform="matrix(.19723.07364-.04372.1171 178.81-79.09)" xlink:href="#2"/><use transform="matrix(.19861.06982-.04145.11793 179.05-94.86)" xlink:href="#2"/><use transform="matrix(.19723.07364-.04372.1171 178.81-114.52)" xlink:href="#2"/><use transform="matrix(.19861.06982-.04145.11793 179.05-130.29)" xlink:href="#2"/><use transform="matrix(.19723.07364-.04372.1171 178.81-291.69)" xlink:href="#2"/><use transform="matrix(.19861.06982-.04145.11793 179.05-307.45)" xlink:href="#2"/><use transform="matrix(.19723.07364-.04372.1171 178.81-327.12)" xlink:href="#2"/><use transform="matrix(.19861.06982-.04145.11793 179.05-342.89)" xlink:href="#2"/><use transform="matrix(.19723.07364-.04372.1171 178.81-220.82)" xlink:href="#2"/><use transform="matrix(.19861.06982-.04145.11793 179.05-236.59)" xlink:href="#2"/><use transform="matrix(.19723.07364-.04372.1171 178.81-256.26)" xlink:href="#2"/><use transform="matrix(.19861.06982-.04145.11793 179.05-272.02)" xlink:href="#2"/><use transform="matrix(.19723.07364-.04372.1171 178.81 133.51)" xlink:href="#2"/><use transform="matrix(.19861.06982-.04145.11793 179.05 117.74)" xlink:href="#2"/><use transform="matrix(.19723.07364-.04372.1171 178.81 98.07)" xlink:href="#2"/><use transform="matrix(.19861.06982-.04145.11793 179.05 82.31)" xlink:href="#2"/><use transform="matrix(.19723.07364-.04372.1171 178.81 204.37)" xlink:href="#2"/><use transform="matrix(.19861.06982-.04145.11793 179.05 188.61)" xlink:href="#2"/><use transform="matrix(.19723.07364-.04372.1171 178.81 168.94)" xlink:href="#2"/><use transform="matrix(.19861.06982-.04145.11793 179.05 153.18)" xlink:href="#2"/><use transform="matrix(.19723.07364-.04372.1171 178.81-8.225)" xlink:href="#2"/><use transform="matrix(.19861.06982-.04145.11793 179.05-23.99)" xlink:href="#2"/><use transform="matrix(.19723.07364-.04372.1171 178.81-43.658)" xlink:href="#2"/><use transform="matrix(.19861.06982-.04145.11793 179.05-59.42)" xlink:href="#2"/><use transform="matrix(.19723.07364-.04372.1171 178.81 62.64)" xlink:href="#2"/><use transform="matrix(.19861.06982-.04145.11793 179.05 46.876)" xlink:href="#2"/><use transform="matrix(.19723.07364-.04372.1171 178.81 27.21)" xlink:href="#2"/><use transform="matrix(.19861.06982-.04145.11793 179.05 11.443)" xlink:href="#2"/><use transform="matrix(.19723.07364-.04372.1171 178.81 416.97)" xlink:href="#2"/><use transform="matrix(.19861.06982-.04145.11793 179.05 401.21)" xlink:href="#2"/><use transform="matrix(.19723.07364-.04372.1171 178.81 381.54)" xlink:href="#2"/><use transform="matrix(.19861.06982-.04145.11793 179.05 365.77)" xlink:href="#2"/><use transform="matrix(.19861.06982-.04145.11793 179.05 472.07)" xlink:href="#2"/><use transform="matrix(.19723.07364-.04372.1171 178.81 452.4)" xlink:href="#2"/><use transform="matrix(.19861.06982-.04145.11793 179.05 436.64)" xlink:href="#2"/><use transform="matrix(.19723.07364-.04372.1171 178.81 275.24)" xlink:href="#2"/><use transform="matrix(.19861.06982-.04145.11793 179.05 259.47)" xlink:href="#2"/><use transform="matrix(.19723.07364-.04372.1171 178.81 239.81)" xlink:href="#2"/><use transform="matrix(.19861.06982-.04145.11793 179.05 224.04)" xlink:href="#2"/><use transform="matrix(.19723.07364-.04372.1171 178.81 346.11)" xlink:href="#2"/><use transform="matrix(.19861.06982-.04145.11793 179.05 330.34)" xlink:href="#2"/><use transform="matrix(.19723.07364-.04372.1171 178.81 310.67)" xlink:href="#2"/><use transform="matrix(.19861.06982-.04145.11793 179.05 294.91)" xlink:href="#2"/><use transform="matrix(.19723.07364-.04372.1171 178.81 595.04)" xlink:href="#2"/><use transform="matrix(.19861.06982-.04145.11793 179.05 579.27)" xlink:href="#2"/><use transform="matrix(.19723.07364-.04372.1171 178.81 559.61)" xlink:href="#2"/><use transform="matrix(.19861.06982-.04145.11793 179.05 543.84)" xlink:href="#2"/><use transform="matrix(.19861.06982-.04145.11793 179.05 650.14)" xlink:href="#2"/><use transform="matrix(.19723.07364-.04372.1171 178.81 630.47)" xlink:href="#2"/><use transform="matrix(.19861.06982-.04145.11793 179.05 614.71)" xlink:href="#2"/><use transform="matrix(.19723.07364-.04372.1171 178.81 524.17)" xlink:href="#2"/><use transform="matrix(.19861.06982-.04145.11793 179.05 508.41)" xlink:href="#2"/><use transform="matrix(.19723.07364-.04372.1171 178.81 488.74)" xlink:href="#2"/></g></g><g stroke-width="14.25"><g transform="matrix(.13664 0 0 .10848 350.23 305.5)"><use transform="matrix(.11852.03724.01696.11797 290.94-237.38)" xlink:href="#2"/><use transform="matrix(.03299.11978-.08992.07823 267.19-268.37)" xlink:href="#2"/><use transform="matrix(.08644.08923-.04132.11179 276.11-249.52)" xlink:href="#2"/><use transform="matrix(-.0722.10111-.11741-.0205 264.85-297.8)" xlink:href="#2"/><use transform="matrix(-.06836.10176-.11822-.01934 280.62-297.91)" xlink:href="#2"/><use transform="matrix(-.07589.09836-.11657-.02484 195.87-298.49)" xlink:href="#2"/><use transform="matrix(-.07209.09915-.11742-.0237 211.63-298.01)" xlink:href="#2"/><use transform="matrix(-.07589.09836-.11657-.02484 231.3-297.69)" xlink:href="#2"/><use transform="matrix(-.06836.10176-.11822-.01934 245.19-297.4)" xlink:href="#2"/><use transform="matrix(-.07589.09836-.11657-.02484 173.11-306)" xlink:href="#2"/><use transform="matrix(-.0833.08994-.11379-.03742 184.09-303.01)" xlink:href="#2"/><use transform="matrix(-.11007.05763-.09551-.0713 177.8-315.79)" xlink:href="#2"/></g><g transform="matrix(.12959 0 0 .10848 351.35 305.64)"><use transform="matrix(-.10088-.07251-.10458.05718 535.09 504.36)" xlink:href="#2"/><use transform="matrix(-.09746-.07436-.10571.05634 550.05 499.39)" xlink:href="#2"/><use transform="matrix(-.10088-.07251-.10458.05718 568.8 493.45)" xlink:href="#2"/><use transform="matrix(-.09746-.07436-.10571.05634 583.76 488.47)" xlink:href="#2"/><use transform="matrix(-.12031.02353-.02805.11646 694.84 430.74)" xlink:href="#2"/><use transform="matrix(-.07943.09553.04968.10834 709.29 380.99)" xlink:href="#2"/><use transform="matrix(-.1212.02731-.02666.11617 702.84 412.77)" xlink:href="#2"/><use transform="matrix(-.09425-.08094-.10912.04795 464.96 521.02)" xlink:href="#2"/><use transform="matrix(-.09069-.08249-.11018.04701 480.29 517.36)" xlink:href="#2"/><use transform="matrix(-.10342-.06885-.10246.06089 504.32 512.45)" xlink:href="#2"/><use transform="matrix(-.08682-.08654-.11221.04193 510.31 506.86)" xlink:href="#2"/><use transform="matrix(-.10088-.07251-.10458.05718 602.51 482.53)" xlink:href="#2"/><use transform="matrix(-.09746-.07436-.10571.05634 617.47 477.56)" xlink:href="#2"/><use transform="matrix(-.07592-.09834-.11656.02487 243.01 536)" xlink:href="#2"/><use transform="matrix(-.07211-.09913-.11741.02373 258.76 535.51)" xlink:href="#2"/><use transform="matrix(-.07592-.09834-.11656.02487 278.43 535.18)" xlink:href="#2"/><use transform="matrix(-.07211-.09913-.11741.02373 294.19 534.7)" xlink:href="#2"/><use transform="matrix(-.07592-.09834-.11656.02487 172.16 537.63)" xlink:href="#2"/><use transform="matrix(-.07211-.09913-.11741.02373 187.92 537.14)" xlink:href="#2"/><use transform="matrix(-.07592-.09834-.11656.02487 207.58 536.81)" xlink:href="#2"/><use transform="matrix(-.07211-.09913-.11741.02373 223.34 536.33)" xlink:href="#2"/><use transform="matrix(-.08619-.08948-.11316.03742 389.85 532.12)" xlink:href="#2"/><use transform="matrix(-.08529-.08805-.11293.03995 407.41 529.99)" xlink:href="#2"/><use transform="matrix(-.08895-.08674-.11193.04095 426.83 526.9)" xlink:href="#2"/><use transform="matrix(-.09069-.08249-.11018.04701 445.77 525.33)" xlink:href="#2"/><use transform="matrix(-.07592-.09834-.11656.02487 313.85 534.37)" xlink:href="#2"/><use transform="matrix(-.07831-.09431-.11565.0312 332.25 534.25)" xlink:href="#2"/><use transform="matrix(-.08663-.08905-.11297.03799 354.24 533.61)" xlink:href="#2"/><use transform="matrix(-.07671-.09562-.11616.02924 366.79 530.59)" xlink:href="#2"/><use transform="matrix(-.05706-.11036-.11913.00357-48.12 520.29)" xlink:href="#2"/><use transform="matrix(-.05317-.11046-.11976.0023-32.536 522.64)" xlink:href="#2"/><use transform="matrix(-.06807-.10393-.11814.01576-8.825 528.79)" xlink:href="#2"/><use transform="matrix(-.06421-.10442-.1189.01457 6.924 529.53)" xlink:href="#2"/><use transform="matrix(-.05317-.11046-.11976.0023-102.53 511.54)" xlink:href="#2"/><use transform="matrix(-.05706-.11036-.11913.00357-83.12 514.74)" xlink:href="#2"/><use transform="matrix(-.05317-.11046-.11976.0023-67.53 517.09)" xlink:href="#2"/><use transform="matrix(-.06807-.10393-.11814.01576 97.32 534.59)" xlink:href="#2"/><use transform="matrix(-.06421-.10442-.1189.01457 113.06 535.33)" xlink:href="#2"/><use transform="matrix(-.07592-.09834-.11656.02487 136.74 538.44)" xlink:href="#2"/><use transform="matrix(-.07211-.09913-.11741.02373 152.49 537.96)" xlink:href="#2"/><use transform="matrix(-.06807-.10393-.11814.01576 26.556 530.72)" xlink:href="#2"/><use transform="matrix(-.06421-.10442-.1189.01457 42.3 531.46)" xlink:href="#2"/><use transform="matrix(-.06807-.10393-.11814.01576 61.936 532.65)" xlink:href="#2"/><use transform="matrix(-.06421-.10442-.1189.01457 77.68 533.39)" xlink:href="#2"/><use transform="matrix(.12283-.01867.03481-.11399-164.68 358.3)" xlink:href="#2"/><use transform="matrix(.09767-.07408-.02608-.11692-183.73 391.77)" xlink:href="#2"/><use transform="matrix(.06561-.1055-.06404-.10052-184.81 425.77)" xlink:href="#2"/><use transform="matrix(.02606-.11979-.09582-.07189-179.82 454.47)" xlink:href="#2"/><use transform="matrix(.12234.0078.0567-.10552-126.13 311.29)" xlink:href="#2"/><use transform="matrix(.12416.00437.05529-.10559-138.44 326.64)" xlink:href="#2"/><use transform="matrix(.12167-.01496.03621-.11418-155.43 340.95)" xlink:href="#2"/><use transform="matrix(-.00693-.12404-.11017-.04547-165.59 481.38)" xlink:href="#2"/><use transform="matrix(-.03034-.11878-.11786-.02137-145.13 497.05)" xlink:href="#2"/><use transform="matrix(-.05706-.11036-.11913.00357-119.01 509.05)" xlink:href="#2"/><use transform="matrix(-.12058-.02991-.0759.0919 644.64 466.79)" xlink:href="#2"/><use transform="matrix(-.1163-.03877-.08176.08755 645.63 470.4)" xlink:href="#2"/><use transform="matrix(-.12218-.02254-.07019.09633 679.27 447.56)" xlink:href="#2"/><use transform="matrix(-.11545-.04123-.0836.08579 657.92 460.39)" xlink:href="#2"/><use transform="matrix(.11317-.05125.09129.07663 608.71 378.41)" xlink:href="#2"/><use transform="matrix(.11018-.05374.09257.07602 595.02 370.6)" xlink:href="#2"/><use transform="matrix(.1168-.04233.08508.08347 573.37 360.54)" xlink:href="#2"/><use transform="matrix(.11018-.05374.09257.07602 656.83 405.26)" xlink:href="#2"/><use transform="matrix(.11317-.05125.09129.07663 639.62 395.75)" xlink:href="#2"/><use transform="matrix(.11018-.05374.09257.07602 625.92 387.93)" xlink:href="#2"/></g></g></g><g stroke-width="1.25"><g transform="matrix(.07228 0 0 .08581 364.63 299.18)"><g fill="#fff133"><path d="m124.02-1977.2v53.15h-53.15v35.44h53.15v106.3h35.433v-106.3h53.15v-35.44h-53.15v-53.15h-35.433z" transform="translate(88.58-17.712)"/><ellipse cx="239.17" cy="-1813.5" rx="62.01" ry="57.32" transform="matrix(.57143 0 0 .61816 93.64-678.94)"/></g><path fill="#fff" d="m602.36-1119.4c0 68.45-10.417 145.68-29.25 205.02-120.08-26.455-268.06-39.682-339.04-39.682-87.59 0-246.15 13.227-345.26 26.455-18.835-59.34-30.538-123.34-30.538-191.79 0-273.81 105.27-390.21 367.5-496.03 233.3 105.82 376.6 222.22 376.6 496.03z" transform="matrix(1.0576 0 0 1.3394-5.764 363.72)"/><use fill="#fff133" transform="matrix(1.1715 0 0 .74463-32.833-634.89)" xlink:href="#1"/></g><g fill="#fff133" transform="matrix(.08475 0 0 .0639 362.24 262.81)"><use transform="translate(0-460.63)" xlink:href="#4"/><use transform="matrix(.96815-.25037.25037.96815-133.88-375.81)" xlink:href="#5"/><use transform="matrix(.97364.22811-.22811.97364 183.59-476.18)" xlink:href="#5"/><use transform="matrix(.78974-.1277.15963.98718 52.758-131.73)" xlink:href="#6"/><use transform="matrix(.79061.1222-.15274.98827 134.67-174.94)" xlink:href="#6"/><use transform="translate(0-336.61)" xlink:href="#1"/></g></g></g><g stroke-width="1.25"><g fill="#fff133" stroke="#000"><use transform="matrix(.07759 0 0 .0639 363.96 265.98)" xlink:href="#1"/><g transform="matrix(.07981 0 0 .0639 363.7 284.1)"><use transform="translate(0-460.63)" xlink:href="#4"/><path d="m220.98-825.59l-8.379 53.15v35.433l-17.716 17.717v-35.434l-17.717 53.15 17.717 53.15v-35.432l17.716 17.716v53.15h17.717v-53.15l17.717-17.716-.0001 35.432 17.717-53.15-17.717-53.15.0001 35.434-17.717-17.717v-35.433l-9.338-53.15z" transform="matrix(.96815-.25037.25037.96815-133.88-375.81)"/><use transform="matrix(.97364.22811-.22811.97364 183.59-476.18)" xlink:href="#5"/><path d="m141.73-1020.5c0-17.72 17.717-35.44 35.433-35.44 17.717 0 35.433 17.72 35.433 35.44s-17.716 35.431-17.716 35.431l70.866 70.866h-35.433l-53.15-53.15-53.15 53.15h-35.433l70.866-70.866s-17.717-17.711-17.717-35.431z" transform="matrix(.78974-.1277.15963.98718 52.758-131.73)"/><use transform="matrix(.79061.1222-.15274.98827 134.67-174.94)" xlink:href="#6"/><use transform="translate(0-336.61)" xlink:href="#1"/></g><use transform="matrix(.07987 0 0 .0639 363.46 224.94)" xlink:href="#1"/><g transform="matrix(.07806 0 0 .06027 364.18 238.44)"><use transform="translate(0-460.63)" xlink:href="#4"/><use transform="matrix(.96815-.25037.25037.96815-133.88-375.81)" xlink:href="#5"/><use transform="matrix(.97364.22811-.22811.97364 183.59-476.18)" xlink:href="#5"/><use transform="matrix(.78974-.1277.15963.98718 52.758-131.73)" xlink:href="#6"/><use transform="matrix(.79061.1222-.15274.98827 134.67-174.94)" xlink:href="#6"/><use transform="translate(0-336.61)" xlink:href="#1"/></g></g><ellipse fill="#b90000" cx="234.13" cy="-822.11" rx="375.87" ry="120.53" transform="matrix(.06984 0 0 .03551 365.56 254.77)"/></g><g stroke="#000" transform="matrix(.11776 0 0 .13671 345.5 231.93)"><path fill="#fff" stroke-width="1.25" d="m513.78-790.16l35.432-17.714 35.433 17.714s-73.37 35.433-73.37 159.45c-.0001 88.58 125.26 106.3 125.26 212.6 0 45.649-34.18 88.58-69.62 88.58s-88.58-17.716-141.73-70.866c35.433 17.716 76.08 37.31 106.3 36.06 19.588-.405 55.02-17.716 55.02-53.15 0-70.866-122.77-106.92-122.77-213.22 0-124.02 50.02-159.45 50.03-159.45z" transform="matrix(1.8293 0 0 1.3072-268.51 807.56)"/><use fill="#b00" stroke-width="20.01" transform="matrix(.15785-.00969.07222.14695 283.98 1121.6)" xlink:href="#2"/><g stroke-width="1.25"><g fill="#fff"><path d="m520.25-790.16l46.683-17.717 10 17.717s-70.65 35.433-70.65 159.45c-.0001 88.58 125.89 106.3 125.89 212.6 0 45.649-26.714 87.36-65.24 88.58-73.4 2.363-90.46-23.966-141.73-70.866 43.15 32.31 105 46.752 129.02 34.18 29.354-15.364 35.02-36.06 35.02-53.774 0-70.866-120.89-104.42-120.89-210.72 0-124.02 51.9-159.45 51.9-159.45z" transform="matrix(1.8293 0 0 1.3072-268.51 807.56)" id="Z"/><path d="m513.34-789.69c7-2.437 35.875-18.19 71.31 17.247 17.717 17.72 17.716 53.15 17.716 70.866l53.15-53.15s-29.07-86.87-107.62-53.592c-11.127 4.901-28.14 14.538-34.549 18.628z" transform="matrix(1.8293 0 0 1.3072-268.51 807.56)" id="a"/><path d="m523.8-795.94c8.839-2.869 36.676-6.325 64.6 18.501 17.717 17.72 18.966 42.933 18.966 60.65l40.65-37.933c3.44-3.21-24.832-81.25-99.24-54.03-4.498 1.807-14.779 6.302-24.971 12.816z" transform="matrix(1.8293 0 0 1.3072-268.51 807.56)" id="b"/></g><g fill="#fff133"><use transform="matrix(1.4889-.13557.50826 1.1368 452.1 825.72)" xlink:href="#0"/><use transform="matrix(-1.3548.15838-.02361-.8707 1358.7-762.45)" xlink:href="#0"/></g></g><g fill="#b00" stroke-width="20.01"><use transform="matrix(.15785-.00969.07222.14695 310.64 1120.2)" xlink:href="#2"/><use transform="matrix(.26576-.00969.1216.14695 270.95 1139.5)" xlink:href="#2"/><use transform="matrix(.26576-.00969.1216.14695 296.11 1138.1)" xlink:href="#2"/><use transform="matrix(.3295-.00969.15076.14695 260.9 1160.1)" xlink:href="#2"/><use transform="matrix(.3295-.00969.15076.14695 292.09 1158.7)" xlink:href="#2"/></g></g><path fill="#ffe000" stroke-width="1.25" d="m0 0h248.03v496.06h-248.03z" transform="scale(1.0321)"/></g></svg>