<svg xmlns="http://www.w3.org/2000/svg" viewBox="0 0 512 512"><defs><clipPath id="clipPath5767" clipPathUnits="userSpaceOnUse"><path fill-opacity=".67" d="m0,0h512v512h-512z"/></clipPath></defs><g fill-rule="evenodd" clip-path="url(#clipPath5767)"><g stroke-width="1.25"><path fill="#dc0000" d="M -128,341.33 H641.46 V512 H-128 z"/><path fill="#ffcb00" d="m-128,0h769.46v170.67h-769.46z"/><path fill="#0000ba" d="m-128,170.67h769.46v170.67h-769.46z"/></g><g fill="#fff" stroke-width=".113" transform="matrix(3.3148 0 0 3.6671 -90.916 1.2288)"><path d="m266.19,534.45-10.408-7.432-10.357,7.505 3.852-12.196-10.338-7.531 12.79-.105 3.967-12.159 4.052,12.131 12.79,.016-10.285,7.602 3.937,12.169z" transform="matrix(.35933 0 0 .32494 13.106 -111.63)"/><path d="m266.19,534.45-10.408-7.432-10.357,7.505 3.852-12.196-10.338-7.531 12.79-.105 3.967-12.159 4.052,12.131 12.79,.016-10.285,7.602 3.937,12.169z" transform="matrix(.35933 0 0 .32494 31.717 -109.56)"/><path d="m266.19,534.45-10.408-7.432-10.357,7.505 3.852-12.196-10.338-7.531 12.79-.105 3.967-12.159 4.052,12.131 12.79,.016-10.285,7.602 3.937,12.169z" transform="matrix(.35933 0 0 .32494 47.847 -100.46)"/><path d="m266.19,534.45-10.408-7.432-10.357,7.505 3.852-12.196-10.338-7.531 12.79-.105 3.967-12.159 4.052,12.131 12.79,.016-10.285,7.602 3.937,12.169z" transform="matrix(.35933 0 0 .32494 56.946 -86.815)"/><path d="m266.19,534.45-10.408-7.432-10.357,7.505 3.852-12.196-10.338-7.531 12.79-.105 3.967-12.159 4.052,12.131 12.79,.016-10.285,7.602 3.937,12.169z" transform="matrix(-.35933 0 0 .32494 178.28 -109.56)"/><path d="m266.19,534.45-10.408-7.432-10.357,7.505 3.852-12.196-10.338-7.531 12.79-.105 3.967-12.159 4.052,12.131 12.79,.016-10.285,7.602 3.937,12.169z" transform="matrix(-.35933 0 0 .32494 162.15 -100.46)"/><path d="m266.19,534.45-10.408-7.432-10.357,7.505 3.852-12.196-10.338-7.531 12.79-.105 3.967-12.159 4.052,12.131 12.79,.016-10.285,7.602 3.937,12.169z" transform="matrix(-.35933 0 0 .32494 153.05 -86.815)"/></g></g></svg>