<svg xmlns="http://www.w3.org/2000/svg" viewBox="0 0 512 512"><defs><clipPath id="clipPath3967" clipPathUnits="userSpaceOnUse"><path fill-opacity=".67" d="m0-.0003h496.06v496.0603h-496.06z"/></clipPath></defs><g stroke-width="1.25" clip-path="url(#clipPath3967)" transform="matrix(1.0321 0 0 1.0321 0 .00033)"><g fill-rule="evenodd"><path fill="#319208" d="m0,425.2h992.13v70.866h-992.13z"/><path fill="#de2010" d="m0,283.46h992.13v70.866h-992.13z"/><path fill="#ffd200" d="m0,354.33h992.13v70.866h-992.13z"/><path fill="#de2010" d="m0,141.73h992.13v70.866h-992.13z"/><path fill="#ffd200" d="m0,70.866h992.13v70.866h-992.13z"/><path fill="#319208" d="m0-0h992.13v70.866h-992.13z"/><path d="m27.992-.0003v496.06l333.07-248.03-333.07-248.03z"/><path d="m0-.0002h28.346v496.0602h-28.346z"/><path d="m0-.0001v496.06l361.42-248.03-361.42-248.03z"/><path d="m0,212.6h992.13v70.866h-992.13z"/><path fill="#fff" d="m0-.0002v496.06l333.07-248.03-333.07-248.03z"/></g><g transform="translate(-494.23 -14.644)"><path fill="#d62419" fill-rule="evenodd" d="m613.94,119.54 31.83,83.38 91.92-5.78-69.47,56.04 33.91,85.62-74.76-48.75-70.96,58.71 23.26-86.17-77.77-49.34 89.15-4.51z" transform="matrix(1.0221 .07328 -.07328 1.0221 3.3492 -41.431)"/><g stroke="#000"><path fill="#f7df00" fill-rule="evenodd" d="m542.73,175.7c1.606-2.892 1.927-4.499 10.282-8.034 10.925-31.811 38.881-19.279 54.305,24.743 14.138,6.105 98.648,69.085 97.363,72.62-.643,3.213-11.247,.643-11.247,.643s-16.709,71.335-17.03,71.335c-31.17-4.177-79.69-4.82-112.79-4.177 .321-5.463-8.997-41.131-8.997-41.131s-8.034-2.57 5.462-29.883c14.46-34.382 17.352-90.294-17.351-86.116z"/><g fill="none"><path d="m571.32,162.84c0,1.9521-1.5825,3.5346-3.5346,3.5346s-3.5346-1.5825-3.5346-3.5346 1.5825-3.5346 3.5346-3.5346 3.5346,1.5825 3.5346,3.5346z"/><path d="m606.35,192.41s-27.635,15.745-35.668,15.423"/><path d="m693.43,265.67c-1.928-1.607-102.5-6.427-98.327-40.488"/><path d="m611.17,266.31s10.925,6.427 20.243-10.282"/><path d="m623.38,265.99s7.712,7.069 18.959-8.354"/><path d="m554.94,291.7s7.069,.964 8.355-3.213"/><path d="m588.35,333.15c0-.321-7.069-45.629-7.069-45.629 34.918,3.106 71.121,3.321 104.75,9.319"/><path d="m584.82,288.16 9.639,11.246 9.962-9.64 8.354,8.998"/><path d="m615.35,299.09 8.354-7.391 8.998,8.676"/><path d="m634.3,300.37 9.319-8.354 7.069,8.355"/><path d="m654.55,300.7 8.355-5.784 7.39,7.069"/><path d="m676.08,301.66 6.105-5.784"/><path d="m583.21,298.44 10.283,11.89 10.282-9.319 8.997,9.64 10.283-8.997 8.676,10.282 10.604-8.997s8.033,9.961 8.997,9.961 10.604-8.354 10.604-8.354l9.319,10.282 12.852-10.282"/><path d="m584.82,310.01s82.903,3.214 96.398,6.427"/><path d="m598.64,272.42s78.725,4.177 91.257,8.997"/><path d="m582.57,239.64c.643,4.82-5.141,21.529-11.246,27.313-8.355,6.748-7.391,20.886-7.391,20.886 .964,5.784 13.496,5.141 15.103,2.25 1.285-13.175 15.423-16.067 15.423-16.067s19.602-5.462 27.956-21.85"/><path d="m622.09,281.41c0,2.307-1.8702,4.1773-4.1773,4.1773s-4.1773-1.8702-4.1773-4.1773c0-2.307 1.8702-4.1773 4.1773-4.1773s4.1773,1.8702 4.1773,4.1773z"/><path d="m640.73,283.02c0,2.307-1.8702,4.1773-4.1772,4.1773s-4.1772-1.8702-4.1772-4.1773c0-2.307 1.8702-4.1773 4.1772-4.1773s4.1772,1.8702 4.1772,4.1773z"/></g></g></g></g></svg>