<svg xmlns="http://www.w3.org/2000/svg" viewBox="0 0 48 24" enable-background="new 0 0 48 24"><g fill="#939393"><path d="m24 23h-16v-22h12.1l3.9 3.9z"/><ellipse cx="7.8" cy="17" rx="6.9" ry="7"/></g><path fill="#5a5a5a" d="m23 22h-16v-22h12.2l3.8 3.9z"/><path fill="#fff" d="m8 21v-20h10.3l3.7 3.8v16.2z"/><path fill="#939393" d="m22 6h-5v-5h1.3l3.7 3.8z"/><path fill="none" stroke="#5a5a5a" stroke-miterlimit="10" d="m17.5 1v4.5h4.5"/><ellipse fill="#5a5a5a" cx="6.9" cy="16" rx="6.9" ry="7"/><circle fill="#fff" cx="6.9" cy="16" r="6"/><g fill="none" stroke="#5a5a5a" stroke-miterlimit="10"><g stroke-width="2"><path d="m10 16h3"/><path d="m7 23v-4"/><path d="m7 13v-4"/></g><path stroke-width="4" d="m7 10v-3"/><path d="m1.9 11.1l2.9 2.8"/><path stroke-width="2" d="m.8 9.9l1.9 1.9"/><path d="m9 18.1l2.8 2.8"/><path d="m1.9 20.9l2.9-2.8"/><path d="m9 13.9l2.8-2.8"/><path stroke-width="2" d="m11.4 11.5l1.7-1.7"/></g><path fill="#5a5a5a" d="m0 15h3v2h-3z"/><g fill="#939393"><path d="m48 23h-16v-22h12.1l3.9 3.9z"/><ellipse cx="31.8" cy="17" rx="6.9" ry="7"/></g><path fill="#ac382e" d="m47 22h-16v-22h12.2l3.8 3.9z"/><path fill="#fff" d="m32 21v-20h10.3l3.7 3.8v16.2z"/><path fill="#e74c3c" d="m46 6h-5v-5h1.3l3.7 3.8z"/><path fill="#ac382e" d="m46 6h-5v-5h1v4h4z"/><ellipse fill="#e74c3c" cx="30.9" cy="16" rx="6.9" ry="7"/><circle fill="#fff" cx="30.9" cy="16" r="6"/><g fill="#e74c3c"><path d="m34 15h3v2h-3z"/><path d="m30 19h2v4h-2z"/><path d="m30 9h2v4h-2z"/><path d="m29 7h4v3h-4z"/><path transform="matrix(.7071.7071-.7071.7071 16.827-15.696)" d="m25.4 12h4v1h-4z"/><path transform="matrix(.7071.7071-.7071.7071 15.173-15.01)" d="m24.4 9.8h2.7v2h-2.7z"/><path transform="matrix(.707.7072-.7072.707 23.905-18.627)" d="m32.4 19h4v1h-4z"/><path transform="matrix(.7071.7071-.7071.7071 21.828-13.625)" d="m26.9 17.5h1v4h-1z"/><path transform="matrix(.7071.7071-.7071.7071 18.898-20.696)" d="m33.9 10.5h1v4h-1z"/><path transform="matrix(.7071.7071-.7071.7071 18.14-22.523)" d="m35.3 9.4h2v2.5h-2z"/><path d="m24 15h3v2h-3z"/></g></svg>