<svg xmlns="http://www.w3.org/2000/svg" viewBox="0 0 48 24" enable-background="new 0 0 48 24"><g fill="#939393"><path d="m22.2 24h-19.2v-16h21z"/><path d="m20 6h4v2h-4z"/><path d="m22 24h-19l-2-12h19z"/></g><g fill="#5a5a5a"><path d="m21.2 23h-19.2v-16h21z"/><path d="m19 9h3.8l.2-2v-3h-4z"/><path d="M2,22.1L19,20.5L17.4,4.1c-1.9-1.6-3-2.5-4.9-4.1L0,1.2L2,22.1z"/></g><path fill="#fff" d="M17.9 19.6 16.4 4.6 12.1 1 1.1 2.1 2.9 21z"/><path fill="none" stroke="#5a5a5a" stroke-miterlimit="10" d="m17.5 5l-6.5.7-.5-5.5"/><g fill="#5a5a5a"><path transform="matrix(.9955-.09492.09492.9955-.327.52)" d="m2.3 2.7h6v2h-6z"/><path transform="matrix(.9955-.09492.09492.9955-.707.538)" d="m2.3 6.7h6v2h-6z"/><path transform="matrix(.9955-.09492.09492.9955-.952.85)" d="m3 9.4h11v2h-11z"/><path transform="matrix(.9955-.09492.09492.9955-1.341.81)" d="m3.3 13.5h9v2h-9z"/><path transform="matrix(.9955-.09492.09492.9955-1.724.817)" d="m3.7 17.5h8v2h-8z"/></g><path fill="#939393" d="M2.1,21.2L19,22.7l1.5-16.4c-1.6-1.9-2.5-3-4.1-4.9L4,0.3L2.1,21.2z"/><path fill="#fff" d="m18.1 21.6l1.4-14.9-3.7-4.3-10.9-1-1.7 18.9z"/><path fill="none" stroke="#939393" stroke-miterlimit="10" d="m20.4 7.3l-6.5-.6.5-5.5"/><g fill="#5a5a5a"><path transform="matrix(.9959.09091-.09091.9959.37-.776)" d="m5.7 2.7h6v1.9h-6z"/><path transform="matrix(.9959.09091-.09091.9959.643-.763)" d="m5.7 5.7h6v1.9h-6z"/><path transform="matrix(.9959.09091-.09091.9959 1.036-.914)" d="m5 9.9h11v2h-11z"/><path transform="matrix(.9959.09091-.09091.9959 1.384-.774)" d="m4.7 13.8h9v2h-9z"/><path transform="matrix(.9959.09091-.09091.9959 1.738-.679)" d="m4.3 17.7h8v2h-8z"/></g><path fill="#d6d6d6" d="m21 23h-19l-2-11h19z"/><g fill="#939393"><path d="m46.2 24h-19.2v-16h21z"/><path d="m44 6h4v2h-4z"/><path d="m46 24h-19l-2-12h19z"/></g><g fill="#5a5a5a"><path d="m45.2 23h-19.2v-16h21z"/><path d="m43 9h3.8l.2-2v-3h-4z"/></g><path fill="#ac382e" d="m26 22.1l17-1.6-1.6-16.4c-1.9-1.6-3-2.5-4.9-4.1l-12.5 1.2 2 20.9"/><path fill="#fff" d="m41.9 19.6l-1.5-15-4.3-3.6-11 1.1 1.8 18.9z"/><path fill="none" stroke="#ac382e" stroke-miterlimit="10" d="m41.5 5l-6.5.7-.5-5.5"/><g fill="#e74c3c"><path transform="matrix(.9955-.09492.09492.9955-.219 2.798)" d="m26.3 2.7h6v2h-6z"/><path transform="matrix(.9955-.09492.09492.9955-.599 2.816)" d="m26.3 6.7h6v2h-6z"/><path transform="matrix(.9955-.09492.09492.9955-.843 3.128)" d="m27 9.4h11v2h-11z"/></g><g fill="#5a5a5a"><path transform="matrix(.9955-.09492.09492.9955-1.233 3.088)" d="m27.3 13.5h9v2h-9z"/><path transform="matrix(.9955-.09492.09492.9955-1.616 3.095)" d="m27.7 17.5h8v2h-8z"/></g><path fill="#ac382e" d="M26.1,21.2L43,22.7l1.5-16.4c-1.6-1.9-2.5-3-4.1-4.9L28,0.3L26.1,21.2z"/><path fill="#fff" d="m42.1 21.6l1.4-14.9-3.7-4.3-10.9-1-1.7 18.9z"/><path fill="none" stroke="#ac382e" stroke-miterlimit="10" d="m44.4 7.3l-6.5-.6.5-5.5"/><g fill="#e74c3c"><path transform="matrix(.9959.09091-.09091.9959.469-2.957)" d="m29.7 2.7h6v1.9h-6z"/><path transform="matrix(.9959.09091-.09091.9959.742-2.945)" d="m29.7 5.7h6v1.9h-6z"/><path transform="matrix(.9959.09091-.09091.9959 1.135-3.096)" d="m29 9.9h11v2h-11z"/></g><g fill="#5a5a5a"><path transform="matrix(.9959.09091-.09091.9959 1.483-2.956)" d="m28.7 13.8h9v2h-9z"/><path transform="matrix(.9959.09091-.09091.9959 1.838-2.861)" d="m28.3 17.7h8v2h-8z"/></g><path fill="#d6d6d6" d="m45 23h-19l-2-11h19z"/></svg>