<svg version="1.1" xmlns="http://www.w3.org/2000/svg" width="32" height="32" viewBox="0 0 32 32">
<path class="fill-active" d="M0.395 18.432c-0.078 0.092-0.126 0.212-0.126 0.344 0 0.033 0.003 0.065 0.009 0.097l-0.001-0.003 2.016 11.733c0.042 0.254 0.26 0.446 0.522 0.448h26.080c0.001 0 0.003 0 0.004 0 0.272 0 0.496-0.204 0.529-0.467l0-0.003 2.304-19.819v-3.712c0-0.295-0.239-0.533-0.533-0.533v0h-6.613l-2.549-3.68-10.496-1.888-0.789 4.384-8.245 0.565 0.853 12.363h-2.56c-0.004-0-0.009-0-0.014-0-0.154 0-0.294 0.066-0.391 0.171l-0 0zM30.667 10.667l-2.219 19.093-1.899-11.072c-0.042-0.254-0.26-0.446-0.522-0.448h-0.246l1.248-6.923 0.192-1.067-1.888-2.667h5.333zM13.248 6.656l5.216 4.544-4.875 0.331zM25.717 10.005l-4.811-0.864 0.864-4.811zM20.8 3.701l-1.131 6.304 6.304 1.131-1.28 7.115h-4.267l-0.416-6.091-0.075-1.067-6.827-5.941-1.067 0.075h-0.235l0.544-3.051zM12.16 6.283l0.437 6.4 6.4-0.437 0.416 6.016h-14.933l-0.832-11.392zM25.6 19.317l1.835 10.667h-24.171l-1.835-10.667z"></path>
</svg>
