<svg version="1.1" xmlns="http://www.w3.org/2000/svg" width="32" height="32" viewBox="0 0 32 32">
<path class="fill-active" d="M23.285 25.6c0.019 0 0.041 0 0.063 0 3.334 0 6.037-2.703 6.037-6.037 0-1.081-0.284-2.096-0.782-2.974l0.016 0.030c-0.288-0.683-1.952-5.952-3.019-9.515-0.125-0.461-0.539-0.795-1.031-0.795-0.156 0-0.303 0.033-0.437 0.093l0.007-0.003c-1.588 0.789-2.807 2.122-3.429 3.75l-0.016 0.047c-0.044 0.112-0.069 0.243-0.069 0.379 0 0.589 0.478 1.067 1.067 1.067 0.453 0 0.84-0.282 0.995-0.681l0.003-0.007c0.282-0.735 0.715-1.357 1.265-1.852l0.004-0.004 1.525 4.864c-0.657-0.268-1.419-0.423-2.218-0.423-2.459 0-4.574 1.473-5.511 3.584l-0.015 0.038c-0.515-0.198-1.111-0.313-1.733-0.313s-1.218 0.115-1.767 0.325l0.034-0.011c-0.952-2.15-3.067-3.623-5.527-3.623-0.798 0-1.561 0.155-2.258 0.437l0.040-0.014 1.515-4.864c0.554 0.499 0.987 1.121 1.258 1.823l0.011 0.033c0.157 0.406 0.544 0.688 0.997 0.688 0.589 0 1.067-0.478 1.067-1.067 0-0.136-0.025-0.266-0.072-0.386l0.002 0.007c-0.638-1.676-1.857-3.009-3.405-3.779l-0.040-0.018c-0.127-0.057-0.274-0.090-0.43-0.090-0.492 0-0.907 0.334-1.030 0.787l-0.002 0.007c-1.067 3.563-2.731 8.896-2.976 9.568-0.477 0.845-0.757 1.855-0.757 2.93 0 3.34 2.708 6.048 6.048 6.048 3.339 0 6.046-2.706 6.048-6.045v-0c0-0.096 0-0.203 0-0.299 0.365-0.189 0.796-0.299 1.253-0.299s0.889 0.111 1.269 0.307l-0.016-0.007c0 0.096 0 0.192 0 0.299 0.036 3.304 2.711 5.971 6.014 5.995h0.002zM23.285 15.637c2.162 0 3.915 1.753 3.915 3.915s-1.753 3.915-3.915 3.915c-2.162 0-3.915-1.753-3.915-3.915v0c0.024-2.144 1.767-3.872 3.914-3.872 0 0 0 0 0 0v0zM8.715 23.467c-2.162 0-3.915-1.753-3.915-3.915s1.753-3.915 3.915-3.915c2.162 0 3.915 1.753 3.915 3.915v0c0 2.162-1.753 3.915-3.915 3.915v0z"></path>
</svg>
