<svg xmlns="http://www.w3.org/2000/svg" viewBox="0 0 48 24" enable-background="new 0 0 48 24"><g fill="#939393"><path d="m1 14.7s.7-1.2 5-1.2 6 1.6 6 1.6.5 8.9-3 8.9-4 0-4 0-3-.3-3-6.5c0 0-1-.9-1-1.5 0-.6 0-1.3 0-1.3"/><path d="m24 14.7s-.7-1.2-5-1.2-6 1.6-6 1.6-.5 8.9 3 8.9 4 0 4 0 3-.3 3-6.5c0 0 1-.9 1-1.5 0-.6 0-1.3 0-1.3"/><path d="m11 16h3v2h-3z"/><path d="m5 23c-.7 0-2-1.6-2-5.4 0-.5-.2-2.5 3-2.6 2.7-.1 4.3.4 5 .7 0 2-.2 5.2-1.1 6.4-.2.3-.5.9-.9.9h-4"/><path d="m20.1 23c.7 0 2-1.6 2-5.4 0-.5.2-2.5-3-2.6-2.7-.1-4.3.4-5 .7 0 2 .2 5.2 1.1 6.4.3.3.6.9.9.9h4"/><path d="m1.4 14.7s4.2-13.4 5.6-13.4 4 6.5 4 7.2c0 .8-.7 2-2-1.2s-1.5-3.1-1.5-3.1l-4.3 10.4-1.8.1"/><path d="m23 14.7s-4.2-13.4-5.6-13.4c-1.4 0-4 6.5-4 7.2 0 .8.7 2 2-1.2s1.6-3.1 1.6-3.1l4.3 10.4 1.7.1"/></g><g fill="#5a5a5a"><path d="m0 13h11s.5 10-3.1 10-4 0-4 0-3-.4-3-6.6c0 0-1-1-1-1.6s.1-1.8.1-1.8"/><path d="m23 13h-11s-.5 10 3 10 4 0 4 0 3-.4 3-6.6c0 0 1-1 1-1.6s0-1.8 0-1.8"/><path d="m10 13h3v3h-3z"/></g><g fill="#fff"><path d="m4 22c-.7 0-2-1.7-2-5.3 0-.5 0-2.7 0-2.7h8c0 0-.2 5.8-1.1 6.9-.2.4-.5 1.1-.9 1.1h-4"/><path d="m19 22c.7 0 2-1.7 2-5.3 0-.5 0-2.7 0-2.7h-8c0 0 .2 5.8 1.1 6.9.3.3.6 1.1.9 1.1h4"/></g><g fill="#5a5a5a"><path d="m.4 13.5s4.2-13.4 5.6-13.4 4 6.5 4 7.2-.7 2-2-1.2-1.5-3.1-1.5-3.1l-4.3 10.4-1.8.1"/><path d="m22 13.5s-4.2-13.4-5.6-13.4c-1.4 0-4 6.5-4 7.2 0 .8.7 2 2-1.2s1.6-3.1 1.6-3.1l4.3 10.4 1.7.1"/></g><g fill="#939393"><path d="m25 15s.7-1.2 5-1.2 6 1.4 6 1.4.5 8.8-3 8.8-4 0-4 0-3-.1-3-6.4c0 0-1-.7-1-1.3 0-.6 0-1.3 0-1.3"/><path d="m48 15s-.7-1.2-5-1.2-6 1.4-6 1.4-.5 8.8 3 8.8 4 0 4 0 3-.1 3-6.4c0 0 1-.7 1-1.3 0-.6 0-1.3 0-1.3"/><path d="m35 16h3v2h-3z"/><path d="m29 23c-.7 0-2-1.4-2-5.3 0-.5-.2-2.5 3-2.5 2.7-.1 4.3.4 5 .8 0 2-.2 5.1-1.1 6.3-.2.3-.5.7-.9.7h-4"/><path d="m44.1 23c.7 0 2-1.4 2-5.3 0-.5.2-2.5-3-2.5-2.7-.1-4.3.4-5 .8 0 2 .2 5.1 1.1 6.3.3.4.6.8.9.8h4z"/><path d="m25.4 15s4.2-13.6 5.6-13.6 4 6.5 4 7.3-.7 2-2-1.2c-1.4-3.2-1.5-3.2-1.5-3.2l-4.3 10.5-1.8.2"/><path d="m47 15s-4.2-13.6-5.6-13.6-4 6.5-4 7.3.7 2 2-1.2c1.4-3.1 1.6-3.1 1.6-3.1l4.3 10.5 1.7.1"/></g><g fill="#e74c3c"><path d="m24 13h11s.5 10-3.1 10-4 0-4 0-3-.2-3-6.5c0 0-1-.8-1-1.4.1-.7.1-2.1.1-2.1"/><path d="m47 13h-11s-.5 10 3 10 4 0 4 0 3-.2 3-6.5c0 0 1-.8 1-1.4 0-.7 0-2.1 0-2.1"/><path d="m34 13h3v3h-3z"/></g><g fill="#fff"><path d="m28 22c-.7 0-2-1.6-2-5.3 0-.5 0-2.7 0-2.7h8c0 0-.2 5.9-1.1 7-.3.3-.6 1-.9 1h-4"/><path d="m43 22c.7 0 2-1.6 2-5.3 0-.5 0-2.7 0-2.7h-8c0 0 .2 5.9 1.1 7 .3.3.6 1 .9 1h4"/></g><g fill="#e74c3c"><path d="m24.4 13.8s4.2-13.6 5.6-13.6c1.4 0 4 6.5 4 7.3s-.7 2-2-1.2c-1.4-3.2-1.5-3.2-1.5-3.2l-4.3 10.5-1.8.2"/><path d="m46 13.8s-4.2-13.6-5.6-13.6-4 6.5-4 7.3.7 2 2-1.2c1.4-3.2 1.6-3.2 1.6-3.2l4.3 10.5 1.7.2"/></g></svg>