<svg version="1.1" xmlns="http://www.w3.org/2000/svg" width="32" height="32" viewBox="0 0 32 32">
<path class="fill-active" d="M10.667 1.067v4.267h-5.333v4.267h-5.333v21.333h17.067v-4.267h5.333v-4.267h5.333v-14.933l-6.4-6.4h-10.667zM26.229 7.467h-4.896v-4.896zM26.667 8.533v12.8h-4.267v-9.6l-6.4-6.4h-4.267v-3.2h8.533v6.4zM1.067 29.867v-19.2h8.533v6.4h6.4v12.8zM10.667 11.104l4.896 4.896h-4.896zM17.067 17.067v-1.067l-6.4-6.4h-4.267v-3.2h8.533v6.4h6.4v12.8h-4.267zM16 6.837l4.896 4.896h-4.896z"></path>
</svg>
