<svg xmlns="http://www.w3.org/2000/svg" viewBox="0 0 48 24" enable-background="new 0 0 48 24"><g fill="#939393"><path d="M1,22h17V5.5c-1.8-1.8-2.8-2.8-4.5-4.5H1V22z"/><path d="M4,23h17V6.5c-1.8-1.8-2.8-2.8-4.5-4.5H4V23z"/><path d="M7,24h17V7.5c-1.8-1.8-2.8-2.8-4.5-4.5H7V24z"/></g><path fill="#5a5a5a" d="M0,21h17V4.5c-1.8-1.8-2.8-2.8-4.5-4.5L0,0V21z"/><path fill="#fff" d="m16 20v-15l-4-4h-11v19z"/><path fill="none" stroke="#5a5a5a" stroke-miterlimit="10" d="m17 5.5h-6.5v-5.5"/><g fill="#5a5a5a"><path d="m2 2h6v5h-6z"/><path d="m2 9h11v2h-11z"/><path d="m2 13h9v2h-9z"/><path d="m2 17h8v2h-8z"/><path d="M3,22h17V5.5c-1.8-1.8-2.8-2.8-4.5-4.5H3V22z"/></g><path fill="#fff" d="m19 21v-15l-4-4h-11v19z"/><path fill="none" stroke="#5a5a5a" stroke-miterlimit="10" d="m20 6.5h-6.5v-5.5"/><g fill="#5a5a5a"><path d="m5 3h6v5h-6z"/><path d="m5 10h11v2h-11z"/><path d="m5 14h9v2h-9z"/><path d="m5 18h8v2h-8z"/><path d="M6,23h17V6.5c-1.8-1.8-2.8-2.8-4.5-4.5H6V23z"/></g><path fill="#fff" d="m22 22v-15l-4-4h-11v19z"/><path fill="none" stroke="#5a5a5a" stroke-miterlimit="10" d="m23 7.5h-6.5v-5.5"/><g fill="#5a5a5a"><path d="m8 4h6v5h-6z"/><path d="m8 11h11v2h-11z"/><path d="m8 15h9v2h-9z"/><path d="m8 19h8v2h-8z"/></g><g fill="#939393"><path d="M25,22h17V5.5c-1.8-1.8-2.8-2.8-4.5-4.5H25V22z"/><path d="M28,23h17V6.5c-1.8-1.8-2.8-2.8-4.5-4.5H28V23z"/><path d="M31,24h17V7.5c-1.8-1.8-2.8-2.8-4.5-4.5H31V24z"/></g><path fill="#ac382e" d="M24,21h17V4.5c-1.8-1.8-2.8-2.8-4.5-4.5L24,0V21z"/><path fill="#fff" d="m40 20v-15l-4-4h-11v19z"/><path fill="none" stroke="#ac382e" stroke-miterlimit="10" d="m41 5.5h-6.5v-5.5"/><g fill="#e74c3c"><path d="m26 2h6v5h-6z"/><path d="m26 9h11v2h-11z"/><path d="m26 13h9v2h-9z"/><path d="m26 17h8v2h-8z"/></g><path fill="#ac382e" d="M27,22h17V5.5c-1.8-1.8-2.8-2.8-4.5-4.5H27V22z"/><path fill="#fff" d="m43 21v-15l-4-4h-11v19z"/><path fill="none" stroke="#ac382e" stroke-miterlimit="10" d="m44 6.5h-6.5v-5.5"/><g fill="#e74c3c"><path d="m29 3h6v5h-6z"/><path d="m29 10h11v2h-11z"/><path d="m29 14h9v2h-9z"/><path d="m29 18h8v2h-8z"/></g><path fill="#ac382e" d="M30,23h17V6.5c-1.8-1.8-2.8-2.8-4.5-4.5H30V23z"/><path fill="#fff" d="m46 22v-15l-4-4h-11v19z"/><path fill="none" stroke="#ac382e" stroke-miterlimit="10" d="m47 7.5h-6.5v-5.5"/><g fill="#e74c3c"><path d="m32 4h6v5h-6z"/><path d="m32 11h11v2h-11z"/><path d="m32 15h9v2h-9z"/><path d="m32 19h8v2h-8z"/></g></svg>