<svg version="1.1" xmlns="http://www.w3.org/2000/svg" width="32" height="32" viewBox="0 0 32 32">
<path class="fill-active" d="M11.605 10.155v-5.333h9.6v7.467h7.467v14.933h-17.067v-5.675l-1.067-1.163v7.883h19.2v-17.216l-2.005-2.059-5.195-5.259h-12v5.248zM22.272 11.221v-6.133l6.112 6.112z"></path>
<path class="fill-active" d="M5.216 11.147c-0.31 0.283-0.546 0.643-0.678 1.049l-0.005 0.017 10.4 11.339 4.267 1.429c0.055 0.018 0.119 0.029 0.186 0.029 0.342 0 0.619-0.277 0.619-0.619 0-0.048-0.005-0.095-0.016-0.139l0.001 0.004-1.067-4.448-10.283-11.275c-0.452 0.075-0.851 0.264-1.177 0.536l0.004-0.003zM16.107 20.747c0.525-0.53 1.229-0.882 2.013-0.959l0.014-0.001 0.619 2.805c-0.412 0.282-0.764 0.614-1.059 0.992l-0.008 0.010-2.752-0.875c0.155-0.794 0.577-1.47 1.167-1.947l0.006-0.005z"></path>
<path class="fill-active" d="M2.816 7.819c-0.344 0.313-0.559 0.763-0.559 1.264 0 0.447 0.172 0.855 0.454 1.159l-0.001-0.001 1.227 1.344c0.137-0.424 0.373-0.783 0.681-1.065l0.002-0.002 2.283-2.133c0.311-0.28 0.697-0.483 1.125-0.573l0.016-0.003-1.237-1.333c-0.312-0.331-0.753-0.537-1.243-0.537-0.452 0-0.863 0.176-1.169 0.463l0.001-0.001z"></path>
</svg>
