<svg xmlns="http://www.w3.org/2000/svg" viewBox="0 0 48 24" enable-background="new 0 0 48 24"><g fill="#939393"><path d="M1,24h17V5.5c-1.8-1.8-2.8-2.8-4.5-4.5H1V24z"/><path d="m13 24l5-3.6-4.8-2.3z"/><path d="M24 5.4 20.2 3.6 13.6 17.3 18.4 19.6 24 8z"/></g><path fill="#5a5a5a" d="M0,23h17V4.5c-1.8-1.8-2.8-2.8-4.5-4.5L0,0V23z"/><path fill="#fff" d="m16 22v-17l-4-4h-11v21z"/><path fill="none" stroke="#5a5a5a" stroke-miterlimit="10" d="m17 5.5h-6.5v-5.5"/><g fill="#5a5a5a"><path transform="matrix(.9013.4331-.4331.9013 6.401-6.877)" d="m15.6 3h5.4v15.2h-5.4z"/><path d="m17 19.4l-5 3.6.2-5.9z"/></g><path transform="matrix(.9013.4331-.4331.9013 4.46-8.421)" fill="#fff" d="m19.4 4.9h2.7v1.3h-2.7z"/><g fill="#5a5a5a"><path d="m2 2h6v5h-6z"/><path d="m2 9h11v2h-11z"/><path d="m2 13h9v2h-9z"/><path d="m2 17h8v2h-8z"/></g><g fill="#939393"><path d="M25,24h17V5.5c-1.8-1.8-2.8-2.8-4.5-4.5H25V24z"/><path d="m37 24l5-3.6-4.8-2.3z"/><path d="M48 5.4 44.2 3.6 37.6 17.3 42.4 19.6 48 8z"/></g><path fill="#5a5a5a" d="M24,23h17V4.5c-1.8-1.8-2.8-2.8-4.5-4.5L24,0V23z"/><path fill="#fff" d="m40 22v-17l-4-4h-11v21z"/><path fill="none" stroke="#5a5a5a" stroke-miterlimit="10" d="m41 5.5h-6.5v-5.5"/><path transform="matrix(.9013.4331-.4331.9013 8.769-17.272)" fill="#ac382e" d="m39.6 3h5.4v15.2h-5.4z"/><path fill="#e74c3c" d="m41 19.4l-5 3.6.2-5.9z"/><path transform="matrix(.9013.4331-.4331.9013 6.828-18.816)" fill="#fff" d="m43.4 4.9h2.7v1.3h-2.7z"/><path fill="#e74c3c" d="m26 2h6v5h-6z"/><g fill="#ac382e"><path d="m26 9h11v2h-11z"/><path d="m26 13h9v2h-9z"/><path d="m26 17h8v2h-8z"/></g></svg>