<?xml version="1.0" encoding="UTF-8" standalone="no"?>
<svg
   xmlns:dc="http://purl.org/dc/elements/1.1/"
   xmlns:cc="http://creativecommons.org/ns#"
   xmlns:rdf="http://www.w3.org/1999/02/22-rdf-syntax-ns#"
   xmlns:svg="http://www.w3.org/2000/svg"
   xmlns="http://www.w3.org/2000/svg"
   xml:space="preserve"
   style="enable-background:new 0 0 868.6 600;"
   viewBox="0 0 868.6 600"
   y="0px"
   x="0px"
   id="Layer_1"
   version="1.1"><metadata
     id="metadata11"><rdf:RDF><cc:Work
         rdf:about=""><dc:format>image/svg+xml</dc:format><dc:type
           rdf:resource="http://purl.org/dc/dcmitype/StillImage" /><dc:title></dc:title></cc:Work></rdf:RDF></metadata><defs
     id="defs9" /><path
     style="fill:#000000;fill-opacity:0.09803922"
     d="M 844.5,5.4 C 836.2,3.3 827.7,1.8 819.1,0.9 802,-0.7 784.6,-0.3 767.4,2.1 750.3,4.6 733.4,8.9 717.1,14.7 700.7,20.4 685,27.8 669.7,35.9 639.4,52.6 611,72.8 585.1,95.7 c -24.3,21.3 -46.6,44.6 -67.6,69 -1.5,-0.5 -3,-1 -4.5,-1.6 -3.6,-1.2 -7.3,-2.3 -10.9,-3.3 -7.3,-2.1 -14.7,-3.8 -22.2,-5.2 -7.5,-1.4 -15,-2.6 -22.6,-3.3 -7.6,-0.8 -15.3,-1.1 -22.9,-1.2 -7.7,0.1 -15.3,0.4 -22.9,1.2 -7.6,0.7 -15.1,1.9 -22.6,3.3 -7.5,1.4 -14.9,3.2 -22.2,5.2 -3.7,1 -7.3,2.1 -10.9,3.3 -1.5,0.5 -3,1 -4.5,1.6 -21,-24.4 -43.4,-47.7 -67.6,-69 C 257.8,72.8 229.5,52.6 199.1,35.9 183.8,27.8 168,20.5 151.7,14.7 135.4,8.9 118.5,4.7 101.4,2.1 84,-0.3 66.6,-0.6 49.5,1 40.9,1.9 32.4,3.4 24.1,5.5 15.8,7.6 7.6,10.2 0,14.2 15.9,8 32.9,5.8 49.7,5.1 66.6,4.6 83.4,6.3 99.8,9.6 c 17.7,3.5 34.9,9.1 51.5,16.2 -5.3,51.2 5.7,118 33,198.8 15.2,44.9 31.5,82.3 39.5,99.6 l -4,3.9 -4.2,4.1 c -1.7,1.7 -3.3,3.4 -4.7,5.4 -5.8,7.5 -9.5,16.7 -10.6,26.2 -0.2,2.4 -0.4,4.8 -0.3,7.2 0,1.2 0.1,2.4 0.2,3.6 l 0.2,1.8 0.2,1.5 c 0.6,4.1 1.3,8.1 2.1,12.2 6.7,32.2 21.6,62.4 42.7,87.6 21,25 48.5,44.9 79.9,55.4 0.3,0.5 0.6,1 0.9,1.6 1.4,2.4 3,4.7 4.8,6.8 3.5,4.2 7.7,7.7 12.1,10.7 4.5,3 9.3,5.3 14.3,7 4.7,1.6 9.6,2.7 14.6,3.3 7.8,21.8 32.8,37.8 62.3,37.8 29.5,0 54.4,-16 62.3,-37.8 5,-0.6 9.9,-1.7 14.6,-3.3 5,-1.7 9.8,-4 14.3,-7 4.5,-2.9 8.6,-6.5 12.1,-10.7 1.8,-2.1 3.4,-4.4 4.8,-6.8 0.3,-0.5 0.6,-1.1 0.9,-1.6 31.4,-10.5 58.9,-30.5 79.9,-55.4 21.1,-25.2 36,-55.4 42.7,-87.6 0.8,-4 1.5,-8.1 2.1,-12.2 l 0.2,-1.5 0.2,-1.8 c 0.1,-1.2 0.2,-2.4 0.2,-3.6 0.1,-2.4 0,-4.8 -0.3,-7.2 -1.1,-9.5 -4.8,-18.7 -10.6,-26.2 -1.4,-1.9 -3,-3.7 -4.7,-5.4 l -4.2,-4.1 -4,-3.9 c 7.9,-17.3 24.3,-54.7 39.5,-99.6 C 711.6,143.8 722.7,77 717.3,25.8 733.8,18.6 751,13 768.7,9.5 785.1,6.2 802,4.6 818.8,5 c 16.8,0.7 33.8,3 49.7,9.1 -7.5,-3.9 -15.7,-6.5 -24,-8.7 z M 434.3,581.1 c -18.7,0 -34.9,-8.2 -42,-20 4.1,-0.9 8.1,-2.1 12,-3.6 4.9,-1.9 9.6,-4.4 14,-7.4 4.4,-3 8.5,-6.6 12.1,-10.8 1.4,-1.7 2.8,-3.5 4,-5.4 1.2,1.9 2.6,3.7 4,5.4 3.5,4.2 7.6,7.8 12.1,10.8 4.4,3 9.1,5.5 14,7.4 3.9,1.5 7.9,2.7 12,3.6 -7.3,11.7 -23.5,20 -42.2,20 z M 649.5,365.8 c 0.1,1.5 0.2,3 0.2,4.5 0,0.8 0,1.5 -0.1,2.3 l -0.1,1.1 -0.2,1.4 c -0.5,3.7 -1.2,7.3 -1.9,10.9 -6,29 -19.6,56.5 -38.7,79.2 -15.8,18.8 -35.6,34.3 -57.8,44.3 0.6,-3.9 1,-7.7 1.1,-11.6 0.1,-5 -0.3,-10 -1.2,-14.9 -0.4,-2.4 -1,-4.9 -1.7,-7.2 -0.7,-2.4 -1.5,-4.7 -2.5,-7 -3.7,-9.1 -9.3,-17.3 -16.3,-23.7 9.8,16.2 13.4,34.7 10.8,52 -1.2,8.7 -3.9,17 -7.7,24.7 -1,1.9 -2.1,3.9 -3,5.4 -1,1.6 -2.2,3.1 -3.6,4.5 -2.7,2.8 -5.9,5.3 -9.3,7.3 -7,4 -15.1,6.5 -23.1,7 -2,0.1 -4,0.1 -5.9,0 -1.9,-0.1 -3.9,-0.4 -5.9,-0.7 -4,-0.7 -8,-1.9 -11.8,-3.5 -7.6,-3 -14.6,-7.6 -19.8,-13.4 -3.9,-4.4 -6.7,-9.4 -8.1,-14.8 11.1,-6.9 28.5,-19.2 28.5,-29 0,-16.2 -23.1,-18.7 -36.9,-18.7 -13.8,0 -36.9,2.4 -36.9,18.7 0,9.8 17.4,22.2 28.5,29 -1.4,5.5 -4.2,10.5 -8.1,14.8 -5.2,5.8 -12.2,10.4 -19.8,13.4 -3.8,1.6 -7.8,2.7 -11.8,3.5 -2,0.4 -4,0.6 -5.9,0.7 -2,0.1 -3.9,0.1 -6,0 -8,-0.5 -16.1,-3 -23.1,-7 -3.5,-2 -6.7,-4.5 -9.3,-7.3 -1.3,-1.4 -2.5,-2.9 -3.6,-4.5 -1,-1.5 -2.1,-3.5 -3,-5.4 -3.8,-7.7 -6.5,-16 -7.7,-24.7 -2.6,-17.3 1,-35.8 10.8,-52 -7,6.4 -12.7,14.5 -16.3,23.7 -0.9,2.3 -1.7,4.6 -2.5,7 -0.7,2.4 -1.2,4.8 -1.7,7.2 -0.9,4.9 -1.3,9.9 -1.2,14.9 0.1,3.9 0.4,7.8 1.1,11.6 -22.2,-10 -42,-25.5 -57.8,-44.3 -19.1,-22.7 -32.6,-50.2 -38.7,-79.2 -0.7,-3.6 -1.4,-7.3 -1.9,-10.9 l -0.2,-1.4 -0.1,-1.1 c -0.1,-0.8 -0.1,-1.5 -0.1,-2.3 -0.1,-1.5 0,-3 0.2,-4.5 0.7,-6 3,-11.9 6.8,-16.7 0.9,-1.2 2,-2.3 3,-3.4 l 4.1,-4.1 8.4,-8.2 8.9,-8.7 c 1.7,2.9 3.6,5.7 5.2,8 14.9,21.8 48.8,81.6 101.9,90.3 53.1,8.7 65.1,-52.9 65.1,-52.9 h 23.5 c 0,0 12,61.6 65.1,52.9 53.1,-8.7 87,-68.6 101.9,-90.3 1.6,-2.3 3.5,-5.1 5.2,-8 l 8.9,8.7 8.4,8.2 4.1,4.1 c 1.1,1.1 2.1,2.2 3,3.4 3.6,4.8 5.9,10.6 6.6,16.7 z M 630.3,310 623.6,303.4 558.4,240 c -0.1,-0.8 -0.3,-1.7 -0.4,-2.6 -0.2,-2 -0.3,-4 -0.2,-6.1 0,-4.1 0.5,-8.4 1.2,-12.6 1.6,-8.5 4.3,-17 7.9,-25.3 3.6,-8.3 7.9,-16.3 12.8,-24.1 4.9,-7.7 10.2,-15.3 16,-22.6 11.5,-14.6 24.5,-28.1 38.2,-40.9 C 647.6,93 662.1,81 677,69.4 c -15.8,10.2 -31.3,21.1 -46.2,32.8 -14.9,11.8 -29.2,24.3 -42.2,38.3 -6.6,6.9 -12.8,14.3 -18.6,22.1 -5.8,7.7 -11.2,15.9 -15.8,24.6 -4.6,8.7 -8.5,18 -11.2,27.8 -1.3,4.9 -2.3,10 -2.8,15.3 -0.3,2.6 -0.4,5.3 -0.3,8.1 0,1.4 0.1,2.8 0.2,4.2 0.1,0.7 0.2,1.5 0.3,2.2 0.1,0.9 0.2,1.4 0.5,2.7 l 0.7,2.3 1.8,1.8 52.6,51.2 c -28.4,-1.4 -77.2,6.2 -133.7,35.1 -14.5,7.5 -41.1,7.5 -55.6,0 C 350.2,309 301.4,301.3 273,302.8 l 52.6,-51.2 1.8,-1.8 0.7,-2.3 c 0.4,-1.4 0.4,-1.9 0.5,-2.7 0.1,-0.8 0.2,-1.5 0.3,-2.2 0.1,-1.4 0.2,-2.8 0.2,-4.2 0,-2.7 -0.1,-5.4 -0.3,-8.1 -0.5,-5.3 -1.5,-10.3 -2.8,-15.3 -2.7,-9.8 -6.6,-19.1 -11.2,-27.8 -4.6,-8.7 -10,-16.9 -15.8,-24.6 -5.8,-7.7 -12,-15.1 -18.6,-22.1 C 267.3,126.5 253,113.9 238.2,102.2 223.3,90.5 207.8,79.6 192,69.4 c 14.5,11.6 29,23.6 42.7,36.4 13.7,12.8 26.7,26.3 38.2,40.9 5.8,7.2 11.1,14.8 16,22.6 4.9,7.8 9.2,15.8 12.8,24.1 3.5,8.3 6.3,16.8 7.9,25.3 0.7,4.3 1.2,8.5 1.2,12.6 0,2.1 -0.1,4.1 -0.2,6.1 -0.1,0.9 -0.2,1.8 -0.4,2.6 l -65.2,63.5 -6.7,6.6 C 217.8,264.3 162.6,130.7 169.6,34.2 c 7.9,3.9 15.6,8.1 23.2,12.6 28.7,17.4 55.2,38.2 79.7,61.1 24.4,23.1 47.2,48 68.4,74.1 l 4.4,5.3 6.5,-2.6 c 1.4,-0.5 3.1,-1.2 4.7,-1.8 1.6,-0.6 3.3,-1.1 5,-1.7 3.3,-1.1 6.7,-2.1 10.1,-3.1 6.8,-1.9 13.7,-3.5 20.6,-4.8 6.9,-1.3 13.9,-2.4 20.9,-3.1 7,-0.8 14,-1 21,-1.1 7,0.1 14,0.3 21,1.1 7,0.7 14,1.7 20.9,3.1 6.9,1.3 13.8,2.9 20.6,4.8 3.4,0.9 6.8,2 10.1,3.1 1.7,0.6 3.3,1.1 5,1.7 1.6,0.6 3.3,1.2 4.7,1.8 l 6.5,2.6 4.4,-5.3 v 0 c 21.3,-26.1 44,-51.1 68.4,-74.1 24.5,-22.9 51.1,-43.7 79.7,-61.1 7.6,-4.4 15.3,-8.7 23.2,-12.6 7.4,96.4 -47.8,230.1 -68.3,275.8 z m -71.4,-67.8 c 0,0 0,0 0,0 z m -249.2,0 v 0 c 0,0 0,0 0,0 z"
     id="path2" /></svg>