<svg enable-background="new 0 0 675.317 608.388" viewBox="0 0 675.317 608.388" xmlns="http://www.w3.org/2000/svg"><g opacity=".05"><path d="m561.54 80.73l.015-.584c-.158-.015-.316-.015-.473-.032 1.389-2.163 2.826-4.294 4.343-6.363 2.573-2.858 5.226-5.652 7.926-8.384 9.663-9.789 19.941-18.852 30.788-27.01 21.661-16.31 45.708-29.05 71.17-36.12-25.25 7.974-48.724 21.473-69.67 38.38-10.5 8.463-20.384 17.778-29.62 27.756-4.626 5.01-9.08 10.168-13.341 15.521-.221.268-.443.552-.679.836.363-1.041.71-2.099 1.057-3.142l-1.516-.852"/><path d="m560.63 60.22c4.658-6.473 9.711-12.584 15.01-18.362 7.04-7.626 14.526-14.715 22.341-21.33 7.816-6.585 15.915-12.789 24.378-18.3-8.21 5.952-15.994 12.568-23.462 19.531-7.452 6.978-14.541 14.399-21.14 22.294-1.674 1.989-3.316 4.03-4.91 6.11-3.19 3.268-6.269 6.694-9.221 10.263-3.427 4.137-6.694 8.478-9.71 13.04.616-1.421 1.279-2.841 1.942-4.231 1.484-3.064 3.08-6.05 4.768-9.02"/><path d="m559.87 80c1.816-2.115 3.679-4.215 5.558-6.253-1.516 2.069-2.953 4.2-4.343 6.363-.41-.047-.805-.078-1.215-.11"/><path d="m559.87 80c-.174.206-.364.426-.537.632-.064.063-.126.141-.174.22l.048-.9c.22.016.442.033.663.048"/><path d="m556.43 87.958c1.452-2.668 3.02-5.289 4.657-7.847.158.016.316.016.473.032l-.015.584 1.516.853c-.347 1.042-.695 2.101-1.057 3.142-3.237 4.09-6.395 8.29-9.332 12.584.032-.079.064-.158.095-.237 1.089-3.063 2.289-6.078 3.631-9.05.016-.015.016-.047.032-.064"/><path d="m558.58 79.907c2.905-5.258 6.189-10.342 9.726-15.205 3.521-4.815 7.295-9.441 11.273-13.893 6.331-5.937 13.01-11.384 19.909-16.452 9.71-7.137 19.862-13.515 30.28-19.246 10.437-5.701 21.11-10.88 32.11-15.11-10.831 4.721-21.267 10.373-31.435 16.515-10.152 6.157-19.973 12.947-29.29 20.414-9.315 7.484-18.14 15.678-26.08 24.725-3.378 3.869-6.631 7.895-9.646 12.09-1.879 2.037-3.742 4.138-5.558 6.253-.221-.015-.443-.032-.663-.047-.206-.016-.426-.032-.632-.047"/><path d="m559.21 79.954l-.048.9c-.599.679-1.168 1.374-1.752 2.069-.158 0-.316.015-.473.032.521-1.027 1.074-2.052 1.642-3.047.205.014.425.03.631.046"/><path d="m559.16 80.85l-.141 1.958c-.537.047-1.074.064-1.611.111.584-.694 1.152-1.389 1.752-2.069"/><path d="m561.09 80.11c-1.642 2.558-3.205 5.179-4.657 7.847.805-1.737 1.658-3.457 2.589-5.147l.141-1.958c.048-.079.111-.158.174-.22.173-.206.363-.426.537-.632.411.031.806.062 1.216.11"/><path d="m568.3 64.7c-3.537 4.863-6.821 9.947-9.726 15.205-1.262-.095-2.526-.174-3.789-.237 5.116-7.721 10.958-14.826 17.194-21.379 2.463-2.573 5.01-5.083 7.595-7.483-3.979 4.452-7.753 9.08-11.274 13.894"/><path d="m559.9 69.22c3.883-6.647 8.257-12.994 12.947-19.06 4.721-4.895 9.663-9.49 14.746-13.847 8.526-7.278 17.494-13.893 26.73-19.956 9.253-6.03 18.741-11.605 28.563-16.357-9.521 5.415-18.632 11.604-27.457 18.22-8.81 6.632-17.257 13.767-25.22 21.488-3.663 3.569-7.231 7.263-10.641 11.1-2.589 2.4-5.132 4.91-7.595 7.483-6.236 6.553-12.08 13.658-17.194 21.379-.142-.016-.284-.016-.426-.016 1.689-3.553 3.552-7.04 5.542-10.437"/><path d="m554.79 79.67c1.263.063 2.527.141 3.789.237-.568.995-1.121 2.02-1.642 3.047-1.421.094-2.842.205-4.247.331.19-.426.379-.868.584-1.294.505-.774.995-1.547 1.516-2.321"/><path d="m552.96 207.76c.458-6.142.331-12.252-.253-18.33-.599-6.06-1.673-12.11-2.92-18.12-.616-3.02-1.263-6.02-1.958-9.02l-1.027-4.499c-.347-1.5-.678-3.142-.931-4.705-2.02-12.725-.71-25.625 1.879-37.909 1.279-6.078 2.873-12.08 4.926-17.873 2.937-4.294 6.095-8.494 9.332-12.584-3.442 10.5-6.931 20.968-9.441 31.704-1.359 5.921-2.337 11.921-2.827 17.936-.505 6.02-.489 12.06.317 17.999.205 1.485.442 2.89.757 4.405l.9 4.563c.585 3.064 1.137 6.126 1.658 9.189 1.042 6.142 1.926 12.347 2.337 18.632.442 6.283.173 12.63-.569 18.851-.569 4.737-1.373 9.395-2.289 14.02l-1.405-.316c.629-4.644 1.182-9.285 1.514-13.943"/><path d="m554.79 79.67c-.521.774-1.01 1.547-1.515 2.321.347-.774.71-1.564 1.089-2.337.142 0 .283 0 .426.016"/><path d="m554.36 79.65c-.379.774-.742 1.564-1.089 2.337-.268.426-.537.868-.805 1.311-.821.079-1.641.141-2.463.22.443-1.341.931-2.668 1.438-3.994.978.015 1.941.063 2.919.126"/><path d="m553.27 81.991c-.205.426-.395.868-.584 1.294-.079 0-.142 0-.221.016.268-.442.537-.884.805-1.31"/><path d="m553.92 73.47c3.02-4.563 6.283-8.904 9.71-13.04 2.952-3.569 6.03-6.995 9.221-10.263-4.69 6.06-9.06 12.41-12.947 19.06-1.99 3.395-3.853 6.884-5.542 10.436-.978-.063-1.942-.111-2.92-.126.773-2.038 1.593-4.058 2.478-6.06"/><path d="m551.44 79.53c-.427-.015-.854-.032-1.295-.047 1.2-2.037 2.463-4.058 3.774-6.02-.885 2-1.705 4.02-2.479 6.06"/><path d="m551.44 79.53c-.506 1.326-.995 2.653-1.438 3.994-.757.079-1.515.159-2.274.238.775-1.438 1.579-2.874 2.416-4.279.443.015.869.031 1.296.047"/><path d="m553.92 73.47c-1.311 1.958-2.574 3.979-3.774 6.02-.442 0-.9 0-1.342 0 2.274-4.469 4.784-8.763 7.469-12.9 1.405-2.163 2.858-4.294 4.357-6.363-1.689 2.968-3.284 5.952-4.768 9.02-.664 1.389-1.326 2.809-1.942 4.231"/><path d="m543.21 210.64c3.078 2.336 5.431 5.699 7.325 9.252.316.6.616 1.2.901 1.816l1.405.316c-.126.664-.253 1.342-.395 1.99.963 2.384 1.737 4.878 2.353 7.389 1.91 8.05 2.115 16.484 1.105 24.615-.521 4.089-1.153 8.04-2.274 12.08-1.136 3.963-2.7 7.8-4.578 11.399-1.863 3.616-4.03 7.03-6.521 10.121-2.1 2.589-4.326 4.974-6.963 6.979.015.047.032.094.032.158l-2.827.678c-.062-.521-.141-1.042-.237-1.531l.268-.079-.126-.221c1.247-1.121 2.51-2.558 3.631-3.979 1.153-1.437 2.195-2.968 3.158-4.547 1.926-3.158 3.504-6.552 4.752-10.07 1.215-3.521 2.116-7.152 2.858-10.799.742-3.584 1.389-7.421 1.799-11.163.426-3.757.679-7.516.774-11.273.079-3.757 0-7.515-.394-11.242-.788-7.455-2.415-14.923-6.05-21.885"/><path d="m546.62 83.89c.71-1.485 1.421-2.968 2.178-4.405.443 0 .901 0 1.342 0-.837 1.405-1.642 2.841-2.416 4.279-.377.048-.741.079-1.104.126"/><path d="m546.84 95.13c.094-.016.173-.016.299-.032-.126.047-.22.064-.331.111.016-.032.016-.047.032-.079"/><path d="m546.84 95.13c-.016.032-.016.047-.032.079-.095.015-.221.063-.316.094l-.411-.111c.238-.03.506-.047.759-.062"/><path d="m544.89 79.48c1.895-4.516 4.058-8.857 6.426-13.06 4.737-8.384 10.2-16.17 16.11-23.478 5.89-7.31 12.237-14.15 18.884-20.589 6.647-6.41 13.578-12.489 20.872-17.968-6.947 5.984-13.452 12.52-19.673 19.357-6.189 6.837-12.03 14.04-17.399 21.599-3.379 4.816-6.568 9.758-9.474 14.873-1.499 2.069-2.952 4.2-4.357 6.363-2.685 4.137-5.195 8.431-7.469 12.9-1.294-.031-2.604-.031-3.915 0"/><path d="m546.09 95.19l.411.111c-.932.268-1.832.553-2.748.837l-1.484-.537c1.264-.174 2.542-.316 3.821-.411"/><path d="m548.8 79.48c-.757 1.437-1.468 2.92-2.178 4.405-1.232.142-2.463.3-3.679.458.6-1.643 1.247-3.269 1.942-4.863 1.31-.031 2.62-.031 3.915 0"/><path d="m533.2 258.37c2.179.916 3.869 2.668 4.516 5.084l-.821.9c-2.037-.3-3.631-.663-4.989-.821-1.342-.19-2.526-.237-3.726.347-1.201.552-2.353 1.626-3.379 2.937-1.042 1.311-1.942 2.858-2.763 4.516-1.658 3.284-2.937 6.947-4.138 10.658-1.183 3.726-2.194 7.547-3.315 11.383l-1.137-.205c.095-4.058.505-8.08 1.2-12.11.695-4.03 1.705-8.02 3.284-11.935.822-1.926 1.784-3.837 3.064-5.668 1.279-1.784 2.937-3.474 5.115-4.579 1.027-.521 2.195-.853 3.363-.979l2.589-.284c0 .141.032.284.032.426.38.079.759.189 1.105.331"/><path d="m538.95 162.2c-.111-5.02.032-10.06.332-15.06.331-5 .805-9.995 1.626-14.92-.047 5 .032 9.978.205 14.952.19 4.974.522 9.915.931 14.841.221 2.463.474 4.927.774 7.357.268 2.463.6 4.895.963 7.326.774 4.848 1.658 9.679 2.811 14.4.126.552.079 1.121-.142 1.594l-.031.095c-2.305 5.258-4.532 10.562-6.458 15.994-1.925 5.415-3.679 10.894-5.02 16.483-1.389 5.573-2.43 11.226-2.937 16.957-.473 5.116-.473 10.263.064 15.395l-2.589.284c-1.121-5.21-1.468-10.61-1.311-15.947.19-6.06 1.042-12.06 2.337-17.92 1.311-5.842 3.02-11.573 5.04-17.15 1.942-5.288 4.089-10.499 6.489-15.536-.963-4.657-1.705-9.347-2.163-14.05-.552-5.02-.837-10.06-.916-15.09"/><path d="m421.02 216.01c-1.69 1.215-3.553 2.178-5.479 2.762-.047.016-.063.016-.094.016l-.221-.98c1.752-.805 3.363-1.91 4.768-3.268 2.826-2.7 5-6.11 6.932-9.694 3.883-7.184 7.105-14.937 10.815-22.436 1.831-3.774 3.694-7.547 5.652-11.257 1.974-3.695 4.01-7.358 6.125-10.973 2.101-3.616 4.264-7.216 6.553-10.689 2.306-3.505 4.547-6.947 7.12-10.404 1.279-1.706 2.621-3.363 3.995-4.974 1.405-1.579 2.841-3.111 4.341-4.61 2.953-2.953 6.079-5.732 9.315-8.29 3.222-2.605 6.647-4.895 10.11-7.07 3.457-2.131 6.978-4.168 10.626-5.921 3.615-1.769 7.295-3.379 11.02-4.848 3.742-1.421 7.516-2.684 11.32-3.821 6.05-1.72 12.173-3.142 18.347-3.947l1.484.537c-13.878 4.373-27.27 10.09-39.819 17.257-3.379 2-6.726 3.994-9.948 6.236-3.236 2.195-6.331 4.61-9.378 7.07-3.03 2.479-5.922 5.131-8.669 7.942-1.373 1.405-2.7 2.873-3.979 4.358-1.311 1.484-2.558 2.999-3.773 4.563-2.384 3.078-4.69 6.536-6.964 9.915-2.257 3.395-4.516 6.805-6.694 10.278-2.195 3.442-4.311 6.964-6.363 10.516-2.084 3.551-4.152 7.12-6.173 10.735-2 3.601-3.979 7.263-6.05 10.879-2.069 3.6-4.121 7.278-6.489 10.752-2.395 3.461-5.02 6.918-8.427 9.366"/><path d="m411.57 210.32c-1.8 1.752-3.757 3.363-5.905 4.657-.331.205-.663.395-.995.569 2.953.9 5.89 1.895 8.795 2.984.6-.205 1.2-.442 1.769-.727l.221.98c-.269.079-.537.158-.805.205.979.379 1.957.758 2.937 1.153 4.42 1.847 8.778 3.883 12.962 6.283 4.168 2.432 8.29 5.05 11.795 8.479-2.084-1.153-4.217-2.116-6.395-2.984-2.178-.901-4.358-1.69-6.568-2.4-4.405-1.438-8.857-2.669-13.341-3.711-8.968-2.115-18.03-3.6-27.12-4.721-18.19-2.226-36.52-2.937-54.898-2.937-18.363.016-36.71.758-54.882 3.02-9.11 1.121-18.17 2.621-27.14 4.737-8.936 2.163-17.889 4.658-26.335 9 3.536-3.379 7.673-5.984 11.841-8.384 4.185-2.4 8.542-4.421 12.963-6.268 2.195-.884 4.42-1.737 6.662-2.542l.695-1.168c.332.205.648.41.98.599 3.189-1.089 6.394-2.068 9.631-2.952l2.336-2.747c.206.189.411.363.632.521.473.379.947.742 1.452 1.074 1.626-.411 3.269-.805 4.91-1.168 18.536-4.106 37.452-5.7 56.26-5.747 18.804 0 37.719 1.579 56.25 5.637 3.363.742 6.71 1.563 10.02 2.494.3-.111.6-.284.9-.442.948-.522 1.847-1.137 2.716-1.847 1.737-1.358 3.331-3 4.8-4.768 2.921-3.569 5.415-7.595 7.595-11.826 2.21-4.2 4.137-8.622 5.857-13.14 1.784-4.516 3.331-9.05 4.816-13.8 3.142-9.678 7.295-18.978 12.252-27.788 5.068-8.716 10.973-16.941 17.81-24.17 6.852-7.215 14.479-13.61 22.752-18.741 8.273-5.147 17.07-9.236 26.13-12.09 12.742-4.089 25.878-5.999 38.967-6.157-.695 1.594-1.342 3.221-1.942 4.863-11.953 1.594-23.668 4.278-34.878 8.525-16.925 6.427-32.54 16.516-45.14 30.13-6.315 6.758-11.967 14.274-16.783 22.436-4.91 8.07-8.984 16.799-12.442 25.783-1.721 4.642-3.584 9.394-5.684 13.958-2.131 4.563-4.469 9.03-7.137 13.309-2.715 4.246-5.699 8.336-9.315 11.841"/><path d="m399.03 373.93c-.616-.678-1.042-1.405-1.406-2.178-.047-.758-.379-1.5-.868-2.052-.064-.158-.142-.332-.221-.49.015-2.084-.19-4.152.032-6.284.41-4.058 1.737-7.862 3.773-11.336 4.264-7.278 11.02-12.41 19.31-12.773 7.152-.331 14.13 2.242 21.13 4.279.095 5.306.3 10.168-.853 15.536-.837 3.853-2.668 7.61-3.063 11.527-2.574 2.068-5.368 3.805-8.242 5.21-6.457 3.142-13.514 4.452-20.541 2.636-2.985-.76-6.805-1.644-9.05-4.075" fill="#e4e4e4"/><path d="m432.19 336.47c9.268 2.178 17.525 5.21 27.16 5.305 1.61.016 2.02 2.653.378 3.03-3.268.774-6.505.805-9.725.379 6.788 13.91-9.679 31.28-20.715 36.14-8.779 3.9-18.205 4.105-27.19.695-2.416-.931-5.21-2.589-7.279-4.768-1.846 2.668-3.836 5.241-5.463 8.099-2.732 4.784-4.452 10.31-6.694 15.378-2.795 6.269-4.879 12.947-6.964 19.515-2.1 6.679-2.984 13.831-5.337 20.399-.237.695-1.247.822-1.437 0-1.594-6.615.19-13.405 1.547-19.878 1.626-7.736 3.806-15.316 5.558-23 2.353-10.436 6.142-23.07 15.9-28.01.047-.395.141-.789.252-1.2-.757-5.399 1.453-11.257 3.584-16.02 2.841-6.38 7.578-12.142 13.784-14.905 7.47-3.3 14.875-2.983 22.643-1.152m-34.562 35.27c.364.774.79 1.5 1.406 2.178 2.242 2.432 6.06 3.316 9.05 4.074 7.03 1.816 14.08.505 20.541-2.636 2.874-1.406 5.668-3.143 8.242-5.21.395-3.916 2.226-7.674 3.063-11.527 1.153-5.368.948-10.23.853-15.536-6.994-2.037-13.973-4.61-21.13-4.279-8.289.364-15.05 5.495-19.31 12.773-2.036 3.474-3.363 7.278-3.773 11.336-.221 2.132-.016 4.2-.032 6.284.079.158.158.332.221.49.489.553.821 1.295.868 2.053"/><path d="m398.67 304.07c3.679-8.762 8.08-19.389 16.973-17.525.774.141 1.547 1.42 1.438 2.447-.901 8.921-6.679 16.42-9.916 24.14-3.647 8.763-6.06 20.257-12.947 25.783-1.279 1.027-3.379.127-3.663-1.926-1.516-11.447 4.073-23.273 8.115-32.92"/><path d="m351.21 522.29c-1.958-5.542.331-10.99 4.105-13.878.9-.695 5.59-4.138 7.941-3.837 2.527-2.479 2.669-7.657 2.148-11.273-.3-2.036-1.484-5.857-3.269-8.699-1.105-1.784-2.747-3.047-3.631-3.505-4.452-2.257-12.204-4.215-16.973-4.61-1.263-.094-2.779.079-3.742.079-.047 0-.3 0-.3 0-.031 0-.079 0-.11 0-.98 0-2.321-.173-3.601-.079-4.752.394-12.52 2.289-16.957 4.563-.883.458-2.541 1.753-3.647 3.537-1.784 2.826-2.968 6.679-3.252 8.715-.522 3.601-.395 8.795 2.147 11.258 2.353-.3 7.04 3.158 7.942 3.853 3.757 2.889 6.05 8.336 4.089 13.878-.347 1.026-1.2 1.421-2 1.294l-3.269-1.105c.347-.537.805-1.074 1.406-1.595.379-4.152-.837-7.12-3.71-9.205-.553-.395-1.406-.774-2.29-1.232-5.715 4.343-9.126-11.242-8.873-16.11.158-3.063 1.752-9.09 4.04-12.9 2.369-3.931 8.432-6.142 10.31-6.884 3.963-1.563 11.448-3.047 17.668-3.047.031 0 .079 0 .11 0 0 0 .253 0 .3 0 6.205 0 13.784 1.485 17.731 3.047 1.895.742 8 2.826 10.357 6.758 2.305 3.806 3.9 9.899 4.074 12.963.252 4.863-3.158 20.478-8.874 16.12-.884.473-1.737.868-2.274 1.263-2.873 2.084-4.105 5.05-3.71 9.22.6.505 1.042 1.042 1.389 1.595l-3.268 1.105c-.803.128-1.641-.268-2-1.294"/><path d="m312.06 504.56c-2.541-2.463-2.668-7.657-2.147-11.258.284-2.036 1.468-5.889 3.252-8.715 1.106-1.784 2.764-3.079 3.647-3.537 4.437-2.274 12.205-4.168 16.957-4.563 1.28-.094 2.621.079 3.601.079.031 0 .079 0 .11 0 0 0 .253 0 .3 0 .963 0 2.479-.173 3.742-.079 4.769.394 12.52 2.353 16.973 4.61.884.458 2.527 1.721 3.631 3.505 1.785 2.842 2.968 6.663 3.269 8.699.522 3.616.379 8.795-2.148 11.273-2.352-.3-7.04 3.143-7.941 3.837-3.774 2.889-6.06 8.336-4.105 13.878.363 1.026 1.2 1.421 2 1.294.71 3.742-2.322 5.542-4.911 7.03-1.957 1.121-4.04 2.479-6.125 3.142-1.342.411-2.636.774-4.03.837-.174.016-.364.19-.364.19h-.3c-.062 0-.11 0-.11 0s-.127-.173-.3-.19c-1.389-.063-2.636-.426-3.995-.837-2.068-.663-4.137-2.02-6.094-3.142-2.589-1.484-5.605-3.284-4.895-7.03.805.127 1.658-.268 2-1.294 1.958-5.542-.332-10.99-4.089-13.878-.899-.693-5.589-4.152-7.942-3.851" fill="#e4e4e4"/><path d="m394.34 570.16l2.274 2.147c-4.073 4.121-8.384 9.758-11.415 13.04-4.974 5.336-10.07 9.995-15.821 13.752-9.663 6.3-20.889 10.326-31.594 9.05-.047 0-.3 0-.3 0-.031 0-.079 0-.11 0-10.721 1.279-21.788-2.747-31.451-9.05-5.732-3.757-10.832-8.352-15.806-13.688-2.352-2.527-5.462-6.489-8.621-10.06l2.968-1.594c2.179 2.416 4.263 4.957 6.442 7.216 4.847 5 9.742 9.868 15.425 13.12 9.521 5.447 21.299 9.08 31.04 8.09.031 0 .079.015.11.015 0 0 .253-.015.3-.015 9.726.994 21.599-2.638 31.1-8.09 5.684-3.252 10.626-8.115 15.457-13.12 3.35-3.46 6.461-7.55 9.997-10.817"/><path d="m145.24 326.84c1.074 5.083 2.416 10.121 4.153 14.841.347.995.742 1.974 1.153 2.937.111-12.252 1.974-24.962 9.331-30.426 1.263-.947 2.905.98 2.069 2.668-5.1 10.216-6.616 22.988-6.11 35.619.031 0 .047.016.079.032l-.063.095c.332 8.05 1.532 16.04 3.142 23.257 4.547 20.19 13.5 38.746 25.294 53.16 5.447 6.662 11.368 12.678 17.763 17.762 6.426 5.1 13.278 8.969 19.862 13.658 11.431 8.179 22.341 19.973 25.94 36.819.648 3.047-2.226 4.957-3.915 2.968-5.684-6.679-10.342-14.841-16.357-21.03-1.926-2-3.948-3.757-6.03-5.399 1.705 2.431 3.284 5.04 4.657 7.862 4.942 10.31 8.352 21.678 13.06 32.16 2.4 5.336 10.2 24.504 22.22 37.625 12 13.12 31.419 14.605 38.778 14.447 9-.206 17.462-3.284 26.1-6.316 3.269-1.153 6.095-1.752 9.347-1.958.032-2.779-.22-15.09-.269-18.488-1.468-.206-3.047-.648-4.61-1.042-3.71-.948-16.11-9.1-12-15.615l3.269 1.105c-.71 3.742 2.305 5.542 4.895 7.03 1.957 1.121 4.03 2.479 6.094 3.142 1.359.411 2.606.774 3.995.837.173.016.3.19.3.19s.047 0 .11 0h .3c0 0 .19-.173.364-.19 1.389-.063 2.684-.426 4.03-.837 2.084-.663 4.168-2.02 6.125-3.142 2.589-1.484 5.621-3.284 4.911-7.03l3.268-1.105c4.105 6.505-8.273 14.667-11.983 15.615-1.564.394-3.142.836-4.626 1.042-.032 3.395-.284 15.709-.252 18.488 3.252.206 6.078.805 9.347 1.958 8.636 3.03 17.1 6.11 26.1 6.316 7.358.158 26.778-1.327 38.777-14.447 12.01-13.12 19.815-32.29 22.21-37.625 4.705-10.484 8.115-21.852 13.06-32.16 1.358-2.826 2.952-5.431 4.642-7.862-2.069 1.642-4.089 3.395-6.02 5.399-6.01 6.19-10.673 14.353-16.373 21.03-1.689 1.989-4.546.079-3.899-2.968 3.583-16.847 14.478-28.64 25.94-36.819 6.568-4.689 13.436-8.558 19.862-13.658 6.395-5.083 12.315-11.1 17.763-17.762 11.779-14.415 20.746-32.968 25.294-53.16 1.61-7.216 2.794-15.205 3.142-23.257l-.063-.095c.032-.015.048-.032.079-.032.505-12.631-1.026-25.404-6.11-35.619-.853-1.689.805-3.615 2.069-2.668 7.357 5.447 9.22 18.17 9.331 30.426.411-.963.805-1.942 1.153-2.937 1.737-4.721 3.063-9.758 4.153-14.841 1.073-5.116 1.895-10.295 2.432-15.505.252-2.621.442-5.226.505-7.831.015-2.037 0-4.137-.238-6.079l2.827-.678c.489 2.226.663 4.452.836 6.662.174 2.732.206 5.464.158 8.179-.079 5.462-.489 10.894-1.152 16.31-.679 5.415-1.611 10.815-3.079 16.199-.758 2.7-1.626 5.4-2.842 8.1-.616 1.358-1.326 2.7-2.226 4.04-.458.695-.98 1.358-1.579 2.02-.3.332-.632.648-.995.963-.158.142-.3.268-.505.426-.111 1.484-.205 2.873-.3 4.168-1.658 22.17-9.236 43.39-19.751 60.803-9.489 15.741-21.473 28.2-34.767 38.07-4.689 3.757-14.321 18.13-17.1 23.873-1.895 3.947-13.1 33.599-20.998 47.08-13.863 23.667-23.541 32.745-27.962 33.851-1.942.473-4.294 2.353-6.726 4.815l-2.274-2.147c-4.2 1.468-8.542 2.494-12.962 3.047-8.669 1.057-17.242-.616-25.626-3.331-4.847-1.564-9.362-3.758-14.32-4.564-1.232-.205-2.685-.173-3.648-.173-.047 0-.3 0-.3 0-.031 0-.079 0-.11 0-.98 0-2.258-.032-3.505.173-4.942.805-9.473 2.937-14.304 4.5-8.4 2.715-16.974 4.42-25.641 3.363-4.421-.552-8.778-1.564-12.963-3.03.443.411.869.837 1.295 1.263.758.758 1.5 1.547 2.21 2.353l-2.968 1.594c-.727-.821-1.468-1.61-2.195-2.368-2.668-2.779-5.241-4.957-7.325-5.479-4.421-1.105-14.1-10.183-27.962-33.851-7.894-13.484-19.1-43.15-20.999-47.1-2.779-5.747-12.411-20.12-17.1-23.873-13.294-9.868-25.278-22.325-34.767-38.07-10.532-17.415-18.09-38.635-19.751-60.803-.095-1.295-.189-2.685-.3-4.168-.205-.158-.332-.284-.505-.426-.364-.316-.695-.631-.995-.963-.616-.663-1.121-1.326-1.579-2.02-.9-1.342-1.61-2.685-2.226-4.04-1.232-2.7-2.101-5.4-2.842-8.1-1.468-5.384-2.4-10.784-3.079-16.199-.663-5.415-1.073-10.847-1.168-16.31-.032-2.715 0-5.447.174-8.179.158-2.274.363-4.531.868-6.82l2.747-.774.268.079c-.442 2.383-.489 5.02-.458 7.61.064 2.605.237 5.209.505 7.831.533 5.212 1.355 10.391 2.427 15.507"/><path d="m283.14 368.56c.111.411.205.805.252 1.2 9.741 4.942 13.547 17.573 15.9 28.01 1.752 7.689 3.932 15.269 5.558 23 1.341 6.473 3.126 13.262 1.547 19.878-.206.822-1.2.695-1.437 0-2.369-6.568-3.237-13.72-5.338-20.399-2.084-6.568-4.167-13.246-6.963-19.515-2.242-5.068-3.962-10.594-6.694-15.378-1.626-2.858-3.616-5.431-5.462-8.099-2.069 2.178-4.863 3.836-7.279 4.768-8.983 3.41-18.409 3.205-27.19-.695-11.04-4.863-27.504-22.23-20.715-36.14-3.237.426-6.457.395-9.726-.379-1.642-.379-1.247-3.02.379-3.03 9.632-.094 17.889-3.126 27.16-5.305 7.768-1.831 15.173-2.148 22.641 1.153 6.205 2.763 10.941 8.525 13.784 14.905 2.132 4.767 4.342 10.625 3.585 16.02m-47.745-9.931c.821 3.853 2.668 7.61 3.063 11.527 2.558 2.068 5.353 3.805 8.242 5.21 6.457 3.142 13.514 4.452 20.54 2.636 2.968-.758 6.789-1.643 9.05-4.074.616-.678 1.042-1.405 1.406-2.178.047-.758.379-1.5.868-2.052.064-.158.127-.332.221-.49-.015-2.084.173-4.152-.032-6.284-.41-4.058-1.737-7.862-3.774-11.336-4.263-7.278-11.02-12.41-19.309-12.773-7.152-.331-14.13 2.242-21.13 4.279-.109 5.305-.299 10.167.854 15.535"/><path d="m259.66 286.55c8.905-1.864 13.294 8.763 16.973 17.525 4.058 9.647 9.647 21.473 8.132 32.919-.284 2.053-2.384 2.953-3.679 1.926-6.868-5.526-9.284-17.02-12.931-25.783-3.237-7.721-9.01-15.22-9.916-24.14-.111-1.026.663-2.304 1.421-2.446"/><path d="m255.67 338.81c8.289.364 15.05 5.495 19.309 12.773 2.037 3.474 3.364 7.278 3.774 11.336.205 2.132.016 4.2.032 6.284-.094.158-.158.332-.221.49-.489.552-.821 1.294-.868 2.052-.364.774-.79 1.5-1.406 2.178-2.257 2.432-6.078 3.316-9.05 4.074-7.03 1.816-14.08.505-20.54-2.636-2.89-1.406-5.685-3.143-8.242-5.21-.394-3.916-2.242-7.674-3.063-11.527-1.153-5.368-.963-10.23-.853-15.536 6.994-2.036 13.973-4.609 21.13-4.278" fill="#e4e4e4"/><path d="m268.43 214.19c-1.673-1.137-3.221-2.463-4.674-3.868-3.616-3.505-6.615-7.595-9.315-11.842-2.668-4.279-5.01-8.746-7.137-13.309-2.1-4.564-3.979-9.316-5.684-13.958-3.458-8.983-7.531-17.714-12.442-25.783-4.816-8.163-10.468-15.678-16.784-22.436-12.615-13.61-28.21-23.699-45.16-30.12-11.211-4.247-22.926-6.931-34.878-8.525-.6-1.643-1.232-3.269-1.926-4.863 13.09.158 26.21 2.068 38.951 6.157 9.08 2.858 17.873 6.947 26.15 12.09 8.273 5.132 15.883 11.526 22.752 18.741 6.82 7.232 12.742 15.457 17.793 24.17 4.974 8.81 9.11 18.11 12.268 27.788 1.484 4.752 3.03 9.285 4.8 13.8 1.737 4.515 3.648 8.936 5.873 13.14 2.179 4.231 4.658 8.257 7.595 11.826 1.279 1.547 2.653 2.984 4.152 4.247l-2.335 2.747"/><path d="m254.29 216.01c-3.426-2.448-6.05-5.905-8.431-9.363-2.368-3.474-4.421-7.152-6.489-10.752-2.069-3.616-4.058-7.278-6.05-10.879-2.02-3.615-4.088-7.184-6.173-10.735-2.053-3.553-4.2-7.07-6.363-10.516-2.179-3.474-4.437-6.884-6.694-10.278-2.274-3.378-4.595-6.837-6.979-9.915-1.2-1.564-2.447-3.079-3.757-4.563-1.279-1.485-2.606-2.953-3.979-4.358-2.747-2.811-5.653-5.464-8.669-7.942-3.047-2.463-6.142-4.878-9.378-7.07-3.222-2.242-6.585-4.231-9.948-6.236-12.552-7.169-25.94-12.884-39.82-17.257l1.468-.537c6.19.805 12.3 2.227 18.347 3.947 3.821 1.137 7.595 2.4 11.337 3.821 3.726 1.468 7.404 3.079 11.02 4.848 3.647 1.752 7.152 3.789 10.626 5.921 3.458 2.178 6.884 4.469 10.1 7.07 3.22 2.558 6.362 5.337 9.315 8.29 1.5 1.499 2.937 3.03 4.342 4.61 1.374 1.611 2.715 3.268 3.995 4.974 2.573 3.457 4.8 6.899 7.12 10.404 2.289 3.474 4.437 7.07 6.552 10.689 2.101 3.615 4.153 7.278 6.126 10.973 1.958 3.71 3.821 7.483 5.652 11.257 3.695 7.5 6.932 15.252 10.815 22.436 1.926 3.584 4.106 6.994 6.932 9.694.757.742 1.61 1.42 2.494 2l-.695 1.168c-.976-.474-1.924-1.059-2.823-1.706"/><path d="m150.5 266.81c-1.026-1.311-2.163-2.384-3.363-2.937-1.2-.584-2.383-.537-3.726-.347-1.358.158-2.952.521-4.989.821l-.821-.9c.631-2.416 2.321-4.168 4.515-5.084.347-.141.711-.252 1.09-.331 0-.142.031-.285.031-.426l2.606.284c1.153.126 2.321.458 3.363.979 2.178 1.106 3.836 2.795 5.115 4.579 1.279 1.831 2.227 3.742 3.064 5.668 1.578 3.915 2.573 7.909 3.284 11.935.695 4.03 1.105 8.05 1.2 12.11l-1.153.205c-1.106-3.836-2.131-7.657-3.316-11.383-1.185-3.71-2.463-7.374-4.121-10.658-.821-1.658-1.721-3.205-2.779-4.516"/><path d="m143.24 257.61c.553-5.132.553-10.278.079-15.395-.505-5.731-1.547-11.384-2.937-16.957-1.358-5.589-3.094-11.07-5.04-16.483-1.91-5.432-4.137-10.736-6.442-15.994l-.047-.08c-.221-.536-.252-1.089-.126-1.61 1.153-4.721 2.037-9.552 2.794-14.4.379-2.432.711-4.863.98-7.326.299-2.431.552-4.894.757-7.357.426-4.927.758-9.868.931-14.841.19-4.974.268-9.947.221-14.952.821 4.926 1.294 9.915 1.626 14.92.3 5.01.443 10.04.332 15.06-.079 5.04-.364 10.07-.916 15.09-.458 4.704-1.2 9.394-2.163 14.05 2.384 5.04 4.547 10.248 6.489 15.536 2.02 5.574 3.726 11.305 5.04 17.15 1.279 5.858 2.148 11.857 2.337 17.92.141 5.337-.19 10.737-1.311 15.947l-2.604-.283"/><path d="m139.75 296.59c-2.636-2-4.863-4.39-6.979-6.979-2.479-3.094-4.642-6.505-6.52-10.121-1.879-3.6-3.426-7.436-4.563-11.399-1.137-4.04-1.753-7.989-2.274-12.08-1.027-8.131-.805-16.562 1.105-24.615.616-2.51 1.389-5 2.337-7.389-.126-.648-.268-1.326-.395-1.99l1.42-.316c.268-.616.585-1.215.884-1.816 1.911-3.553 4.264-6.915 7.342-9.252-3.647 6.963-5.258 14.43-6.05 21.883-.394 3.727-.49 7.484-.394 11.242.079 3.757.347 7.516.757 11.273.426 3.742 1.074 7.578 1.816 11.163.742 3.647 1.643 7.278 2.858 10.799 1.247 3.522 2.826 6.915 4.752 10.07.963 1.579 2 3.111 3.142 4.547 1.137 1.421 2.384 2.858 3.648 3.979l-.142.221-2.747.776"/><path d="m133.04 95.6l-1.468.537c-.915-.284-1.816-.569-2.747-.837l.411-.111c1.262.096 2.541.238 3.804.411"/><path d="m126.53 79.48c1.295-.032 2.589-.032 3.9 0 .695 1.594 1.326 3.221 1.926 4.863-1.216-.158-2.432-.316-3.679-.458-.694-1.484-1.405-2.968-2.147-4.405"/><path d="m129.23 95.19l-.411.11c-.094-.032-.22-.079-.316-.094-.015-.032-.015-.047-.032-.079.254.015.506.032.759.063"/><path d="m128.47 95.13c.016.032.016.047.032.079-.111-.047-.221-.064-.331-.111.109.016.188.016.299.032"/><path d="m127.59 83.76c-.789-1.438-1.594-2.874-2.415-4.279.442 0 .9 0 1.358 0 .742 1.437 1.453 2.92 2.148 4.405-.348-.047-.727-.078-1.091-.126"/><path d="m126.53 79.48c-.458 0-.916 0-1.358 0-1.216-2.037-2.479-4.058-3.789-6.02-.616-1.421-1.279-2.841-1.942-4.231-1.5-3.079-3.096-6.111-4.801-9.09 1.5 2.101 2.985 4.247 4.405 6.442 2.685 4.137 5.196 8.432 7.485 12.9"/><path d="m125.17 79.48c.821 1.405 1.626 2.841 2.415 4.279-.757-.079-1.531-.159-2.289-.238-.442-1.341-.916-2.668-1.421-3.994.426-.015.853-.031 1.295-.047"/><path d="m123.88 79.53c.505 1.326.98 2.653 1.421 3.994-.805-.079-1.642-.141-2.447-.22-.268-.426-.537-.853-.79-1.263-.363-.805-.725-1.594-1.105-2.384.964-.064 1.943-.112 2.921-.127"/><path d="m123.88 79.53c-.774-2.037-1.594-4.058-2.494-6.06 1.311 1.958 2.573 3.979 3.789 6.02-.442.015-.869.031-1.295.047"/><path d="m122.06 82.04c.253.411.522.837.79 1.263-.079-.016-.158-.016-.221-.016-.189-.426-.379-.836-.569-1.247"/><path d="m122.06 82.04c-.505-.805-1.026-1.594-1.531-2.368.141-.016.284-.016.426-.016.38.79.743 1.579 1.105 2.384"/><path d="m118.37 82.954c-.522-1.027-1.059-2.037-1.626-3.047 1.262-.095 2.51-.174 3.789-.237.505.774 1.026 1.563 1.531 2.368.19.411.379.821.569 1.247-1.422-.126-2.842-.237-4.263-.331"/><path d="m121.38 73.47c.9 2 1.72 4.03 2.494 6.06-.979.015-1.957.064-2.92.126-1.705-3.553-3.569-7.04-5.542-10.436-3.883-6.647-8.257-12.994-12.947-19.06 3.19 3.268 6.268 6.694 9.221 10.263 3.426 4.136 6.679 8.478 9.694 13.04"/><path d="m117.91 82.922c-.537-.047-1.074-.064-1.611-.111l-.141-1.942c.614.679 1.167 1.359 1.752 2.053"/><path d="m95.74 50.808c2.589 2.4 5.116 4.91 7.595 7.483 6.236 6.553 12.08 13.658 17.194 21.379-1.279.063-2.527.141-3.789.237-2.906-5.258-6.19-10.342-9.726-15.205-3.522-4.815-7.311-9.442-11.274-13.894"/><path d="m116.16 80.87v-.016l-.048-.9c.206-.015.426-.032.632-.047.568 1.01 1.105 2.02 1.626 3.047-.142-.016-.316-.032-.458-.032-.584-.694-1.137-1.374-1.752-2.052"/><path d="m115.43 80c .237-.015.458-.032.678-.047l.048.9c-.048-.079-.111-.158-.19-.22-.173-.207-.347-.427-.536-.633"/><path d="m122.36 207.76c.316 4.658.884 9.3 1.515 13.942l-1.42.316c-.901-4.625-1.706-9.283-2.274-14.02-.742-6.221-1.01-12.568-.569-18.851.394-6.284 1.295-12.49 2.321-18.632.522-3.063 1.089-6.125 1.673-9.189l.884-4.563c.317-1.515.569-2.92.758-4.405.821-5.936.837-11.983.332-17.999-.49-6.01-1.485-12.02-2.827-17.936-2.526-10.736-5.999-21.2-9.473-31.72 3.252 4.089 6.426 8.305 9.347 12.616 2.069 5.794 3.663 11.779 4.942 17.857 2.589 12.284 3.9 25.18 1.863 37.909-.237 1.564-.568 3.205-.931 4.705l-1.026 4.499c-.679 3-1.327 6-1.958 9.02-1.232 6.01-2.306 12.06-2.905 18.13-.6 6.079-.71 12.189-.252 18.331"/><path d="m116.16 80.87l.141 1.942c.901 1.643 1.721 3.299 2.51 4.989-1.437-2.621-2.968-5.194-4.578-7.689.41-.047.805-.079 1.2-.111.19.206.363.426.537.632.079.063.141.141.19.22z"/><path d="m113.76 80.14c.159-.015.317-.015.474-.032 1.61 2.495 3.142 5.068 4.578 7.689 1.374 3.02 2.621 6.126 3.742 9.268.032.079.064.174.079.253-2.921-4.311-6.095-8.526-9.347-12.616-.331-1.042-.695-2.084-1.026-3.126l1.515-.853z"/><path d="m115.43 80c-1.816-2.115-3.663-4.215-5.542-6.253-3.03-4.199-6.268-8.225-9.646-12.09-7.958-9.05-16.768-17.241-26.08-24.725-9.331-7.468-19.15-14.257-29.29-20.414-10.169-6.142-20.605-11.794-31.436-16.515 11.01 4.231 21.678 9.41 32.11 15.11 10.421 5.731 20.557 12.11 30.28 19.246 6.899 5.068 13.563 10.515 19.909 16.452 3.963 4.452 7.753 9.08 11.273 13.893 3.536 4.863 6.82 9.947 9.726 15.205-.206.015-.426.032-.632.047-.219.016-.44.033-.677.048"/><path d="m109.89 73.75c1.879 2.037 3.727 4.138 5.542 6.253-.394.032-.79.064-1.2.111-1.405-2.164-2.841-4.295-4.342-6.364"/><path d="m99.66 41.856c5.306 5.763 10.342 11.826 14.984 18.283 1.705 2.984 3.3 6.02 4.801 9.1.663 1.389 1.326 2.81 1.942 4.231-3.02-4.563-6.268-8.904-9.694-13.04-2.953-3.569-6.03-6.995-9.221-10.263-1.61-2.084-3.252-4.121-4.91-6.11-6.6-7.895-13.705-15.316-21.14-22.294-7.486-6.964-15.254-13.579-23.463-19.531 8.463 5.511 16.562 11.715 24.378 18.3 7.798 6.614 15.299 13.704 22.324 21.33"/><path d="m0 2.226c25.452 7.07 49.51 19.815 71.17 36.12 10.847 8.162 21.13 17.226 30.788 27.01 2.7 2.732 5.353 5.526 7.926 8.384 1.5 2.069 2.937 4.2 4.343 6.363-.158.016-.316.016-.474.032l.016.584-1.515.853c.331 1.042.695 2.084 1.026 3.126-.205-.268-.426-.552-.648-.821-4.263-5.353-8.715-10.515-13.341-15.521-9.236-9.978-19.14-19.293-29.62-27.756-20.952-16.909-44.45-30.408-69.68-38.38"/><path d="m85.08 39.708c-7.941-7.721-16.389-14.857-25.2-21.488-8.825-6.616-17.935-12.805-27.472-18.22 9.836 4.752 19.326 10.326 28.578 16.357 9.236 6.06 18.19 12.678 26.73 19.956 5.083 4.358 10.03 8.953 14.746 13.847 4.69 6.06 9.06 12.41 12.947 19.06 1.974 3.395 3.837 6.884 5.542 10.436-.142 0-.285 0-.426.016-5.116-7.721-10.958-14.826-17.194-21.379-2.479-2.573-5.01-5.083-7.595-7.483-3.409-3.836-6.978-7.53-10.657-11.1"/><path d="m89.02 22.356c6.647 6.442 12.978 13.279 18.884 20.589s11.368 15.09 16.11 23.478c2.353 4.2 4.531 8.542 6.426 13.06-1.311-.032-2.605-.032-3.9 0-2.289-4.469-4.8-8.763-7.484-12.9-1.42-2.195-2.905-4.342-4.405-6.442-2.889-5.083-6.078-10.01-9.441-14.794-5.353-7.563-11.194-14.762-17.399-21.599-6.205-6.837-12.71-13.373-19.657-19.357 7.293 5.48 14.209 11.558 20.871 17.968"/></g></svg>