<svg version="1.1" xmlns="http://www.w3.org/2000/svg" width="32" height="32" viewBox="0 0 32 32">
<path class="fill-active" d="M27.371 24.267v-10.272c0-1.62-1.313-2.933-2.933-2.933v0h-2.037v-2.901c0-1.888-1.205-3.36-2.741-3.36h-7.317c-1.536 0-2.741 1.472-2.741 3.36v2.901h-2.037c-1.62 0-2.933 1.313-2.933 2.933v0 10.272c0 1.62 1.313 2.933 2.933 2.933v0h16.875c1.62 0 2.933-1.313 2.933-2.933v0zM11.733 8.16c0-0.757 0.395-1.227 0.608-1.227h7.317c0.213 0 0.608 0.469 0.608 1.227v2.901h-8.533zM6.837 22.027v-5.867h18.325v5.867z"></path>
<path class="fill-active" d="M10.869 19.136c0 0.813-0.659 1.472-1.472 1.472s-1.472-0.659-1.472-1.472c0-0.813 0.659-1.472 1.472-1.472s1.472 0.659 1.472 1.472z"></path>
<path class="fill-active" d="M15.275 19.136c0 0.813-0.659 1.472-1.472 1.472s-1.472-0.659-1.472-1.472c0-0.813 0.659-1.472 1.472-1.472s1.472 0.659 1.472 1.472z"></path>
<path class="fill-active" d="M19.669 19.136c0 0.813-0.659 1.472-1.472 1.472s-1.472-0.659-1.472-1.472c0-0.813 0.659-1.472 1.472-1.472s1.472 0.659 1.472 1.472z"></path>
<path class="fill-active" d="M24.075 19.136c0 0.813-0.659 1.472-1.472 1.472s-1.472-0.659-1.472-1.472c0-0.813 0.659-1.472 1.472-1.472s1.472 0.659 1.472 1.472z"></path>
</svg>
