<svg enable-background="new 0 0 48 24" viewBox="0 0 48 24" xmlns="http://www.w3.org/2000/svg"><path d="m24 14.1c0-2-1.6-3.5-3.5-3.5-1.7 0-3.2 1.2-3.5 2.9-.7-.4-1.4-.8-2.2-1 1.9-1 3.2-3 3.2-5.3 0-3.3-2.7-6-6-6-3.3 0-6 2.7-6 6 0 2.3 1.3 4.3 3.2 5.3-4.8 1.4-8.3 6.5-8.3 11.5h21.9c0-2-.7-4.5-1.8-6.4 1.7-.3 3-1.8 3-3.5" fill="#939393"/><g fill="#5a5a5a"><circle cx="11" cy="6.1" r="6"/><path d="m11 10.9c6 0 10.9 6.1 10.9 12.1h-21.9c0-6 5-12.1 11-12.1z"/></g><g fill="#d6d6d6"><path d="m20.6 22c-.5-5-4.6-9.7-9.6-9.7s-9.1 4.7-9.6 9.7z"/><circle cx="11" cy="6.1" r="4.8"/></g><circle cx="19.5" cy="13.1" fill="#5a5a5a" r="3.5"/><circle cx="20.5" cy="13.1" fill="#fff" r="1.7"/><path d="m16.9 13.6l-7.9 7.8 1.1 1.6 2.2-.5v-1.7l1.7.1v-1.9l1-.4 1.9-.6 1.6-2.1z" fill="#5a5a5a"/><path d="m48 14.1c0-2-1.6-3.5-3.5-3.5-1.7 0-3.2 1.2-3.5 2.9-.7-.4-1.4-.8-2.2-1 1.9-1 3.2-3 3.2-5.3 0-3.3-2.7-6-6-6-3.3 0-6 2.7-6 6 0 2.3 1.3 4.3 3.2 5.3-4.6 1.5-8.1 6.6-8.1 11.6h21.9c0-2-.7-4.5-1.8-6.4 1.5-.4 2.8-1.9 2.8-3.6" fill="#939393"/><g fill="#5a5a5a"><circle cx="35" cy="6.1" r="6"/><path d="m35 10.9c6 0 10.9 6.1 10.9 12.1h-21.9c0-6 5-12.1 11-12.1"/></g><g fill="#fff"><path d="m44.6 22c-.5-5-4.6-9.7-9.6-9.7s-9.1 4.7-9.6 9.7z"/><circle cx="35" cy="6.1" r="4.8"/></g><circle cx="43.5" cy="13.1" fill="#e74c3c" r="3.5"/><circle cx="44.5" cy="13.1" fill="#fff" r="1.7"/><path d="m40.9 13.6l-7.9 7.8 1.1 1.6 2.2-.5v-1.7l1.7.1v-1.9l1-.4 1.9-.6 1.6-2.1z" fill="#e74c3c"/></svg>