<svg version="1.1" xmlns="http://www.w3.org/2000/svg" width="32" height="32" viewBox="0 0 32 32">
  <path class="fill-active" d="M 11.193359 13.587891 L 5.1171875 22.777344 C 4.6931009 23.484156 5.1166698 24.332509 5.9648438 24.615234 L 7.0625 24.933594 L 12.074219 17.451172 L 12.880859 17.777344 L 8.0390625 25.21875 L 8.2480469 25.279297 C 20.193443 28.745913 -2.5249155 22.163759 9.6289062 25.679688 L 11.232422 26.144531 L 15.244141 18.292969 L 16.103516 18.623047 L 12.191406 26.421875 L 12.720703 26.574219 C 24.452707 29.968122 2.2693192 23.552063 14.099609 26.974609 L 15.132812 27.273438 L 18.634766 19.335938 L 19.423828 19.582031 L 16.064453 27.542969 L 17.945312 28.085938 C 29.249048 31.356148 8.2399862 25.27668 19.300781 28.478516 L 21.705078 20.236328 L 22.666016 20.517578 L 20.259766 28.757812 L 21.089844 28.998047 C 22.220742 29.280772 23.352042 28.713408 23.634766 27.865234 L 26.037109 17.970703 L 11.193359 13.587891 z "/>
  <path class="fill-active" d="m 26.143468,11.997913 -2.968609,-0.424087 3.958145,-8.48174 H 22.04396 l -3.67542,7.209479 -2.827247,-0.8481742 c -0.848174,-0.1413623 -1.696347,0 -2.120434,0.5654492 l -1.467791,2.226127 14.331762,3.711091 0.706812,-2.827247 c 0.282725,-0.424087 -0.141362,-0.989536 -0.848174,-1.130898"/>
</svg>
