<svg enable-background="new 0 0 48 24" viewBox="0 0 48 24" xmlns="http://www.w3.org/2000/svg" xmlns:xlink="http://www.w3.org/1999/xlink"><defs><path id="SVGID_3_" d="m26 19v-15h19v15c0 1.1-.9 2-2 2h-15c-1.1 0-2-.9-2-2"/><clipPath id="SVGID_1_"><use xlink:href="#SVGID_3_"/></clipPath></defs><path d="m24 21.3c0 1.5-1.3 2.7-3 2.7h-17c-1.7 0-3-1.2-3-2.7v-17.6c0-1.5 1.3-2.7 3-2.7h17c1.7 0 3 1.2 3 2.7z" fill="#939393"/><path d="m20 23h-17c-1.7 0-3-1.3-3-3v-17c0-1.7 1.3-3 3-3h17c1.7 0 3 1.3 3 3v17c0 1.7-1.3 3-3 3" fill="#5a5a5a"/><path d="m2 19v-15h19v15c0 1.1-.9 2-2 2h-15c-1.1 0-2-.9-2-2" fill="#d6d6d6"/><g fill="#fff"><path d="m2 1h2v2h-2z"/><path d="m19 1h2v1h-2z"/><path d="m15 1h2v1h-2z"/></g><g fill="#5a5a5a"><path d="m3.3 16c-.3.5 0 1.1.6 1.3l10.7 3.1c.8.2 1.6-.2 1.8-.8l1.7-7-10.5-3.1z"/><path d="m18.1 8.3l-2.1-.3 2.8-6h-3.6l-2.6 5.1-2-.6c-.6-.1-1.2 0-1.5.4l-1.3 1.5 10.4 2.7.5-2c .2-.3-.1-.7-.6-.8"/></g><g fill="none" stroke="#d6d6d6" stroke-miterlimit="10"><path d="m5.3 19.3l3.7-7.3"/><path d="m8.5 20.2l3.5-7.2"/><path d="m12.6 20.6l2.4-6.6"/></g><path d="m48 21.3c0 1.5-1.3 2.7-3 2.7h-17c-1.7 0-3-1.2-3-2.7v-17.6c0-1.5 1.3-2.7 3-2.7h17c1.7 0 3 1.2 3 2.7z" fill="#939393"/><path d="m44 23h-17c-1.7 0-3-1.3-3-3v-17c0-1.7 1.3-3 3-3h17c1.7 0 3 1.3 3 3v17c0 1.7-1.3 3-3 3" fill="#ac382e"/><path d="m26 19v-15h19v15c0 1.1-.9 2-2 2h-15c-1.1 0-2-.9-2-2" fill="#d6d6d6"/><g fill="#fff"><path d="m26 1h2v2h-2z"/><path d="m43 1h2v1h-2z"/><path d="m39 1h2v1h-2z"/></g><g clip-path="url(#SVGID_1_)"><g fill="#e74c3c"><path d="m27.3 16c-.3.5 0 1.1.6 1.3l10.7 3.1c.8.2 1.6-.2 1.8-.8l1.7-7-10.5-3.1z"/><path d="m42.1 8.3l-2.1-.3 2.8-6h-3.6l-2.6 5.1-2-.6c-.6-.1-1.2 0-1.5.4l-1.2 1.6 10.4 2.7.5-2c .1-.4-.2-.8-.7-.9"/></g><g fill="none" stroke="#d6d6d6" stroke-miterlimit="10"><path d="m29.3 19.3l3.7-7.3"/><path d="m32.5 20.2l3.5-7.2"/><path d="m36.6 20.6l2.4-6.6"/></g></g></svg>