<svg xmlns="http://www.w3.org/2000/svg" xmlns:xlink="http://www.w3.org/1999/xlink" viewBox="0 0 48 24" style="enable-background:new 0 0 48 24"><defs><path id="SVGID_3_" d="m26 19v-15h19v15c0 1.1-.9 2-2 2h-15c-1.1 0-2-.9-2-2"/><clipPath id="SVGID_1_"><use xlink:href="#SVGID_3_"/></clipPath></defs><path d="M24,21.3c0,1.5-1.3,2.7-3,2.7H4c-1.7,0-3-1.2-3-2.7V3.7C1,2.2,2.3,1,4,1h17c1.7,0,3,1.2,3,2.7V21.3z" style="fill:#939393"/><path d="m20 23h-17c-1.7 0-3-1.3-3-3v-17c0-1.7 1.3-3 3-3h17c1.7 0 3 1.3 3 3v17c0 1.7-1.3 3-3 3" style="fill:#5a5a5a"/><path d="m2 19v-15h19v15c0 1.1-.9 2-2 2h-15c-1.1 0-2-.9-2-2" style="fill:#d6d6d6"/><g style="fill:#fff"><path d="m2 1h2v2h-2z"/><path d="m19 1h2v1h-2z"/><path d="m15 1h2v1h-2z"/></g><g style="fill:#5a5a5a"><path d="m3.3 16c-.3.5 0 1.1.6 1.3l10.7 3.1c.8.2 1.6-.2 1.8-.8l1.7-7-10.5-3.1-4.3 6.5"/><path d="m18.1 8.3l-2.1-.3 2.8-6h-3.6l-2.6 5.1-2-.6c-.6-.1-1.2 0-1.5.4l-1.3 1.5 10.4 2.7.5-2c.2-.3-.1-.7-.6-.8"/></g><g style="fill:none;stroke-miterlimit:10;stroke:#d6d6d6"><path d="M 5.3,19.3 9,12"/><path d="M 8.5,20.2 12,13"/><path d="M 12.6,20.6 15,14"/></g><path d="M48,21.3c0,1.5-1.3,2.7-3,2.7H28c-1.7,0-3-1.2-3-2.7V3.7C25,2.2,26.3,1,28,1h17c1.7,0,3,1.2,3,2.7V21.3z" style="fill:#939393"/><path d="m44 23h-17c-1.7 0-3-1.3-3-3v-17c0-1.7 1.3-3 3-3h17c1.7 0 3 1.3 3 3v17c0 1.7-1.3 3-3 3" style="fill:#ac382e"/><path d="m26 19v-15h19v15c0 1.1-.9 2-2 2h-15c-1.1 0-2-.9-2-2" style="fill:#d6d6d6"/><g style="fill:#fff"><path d="m26 1h2v2h-2z"/><path d="m43 1h2v1h-2z"/><path d="m39 1h2v1h-2z"/></g><defs/><g style="clip-path:url(#SVGID_1_)"><g style="fill:#e74c3c"><path d="m27.3 16c-.3.5 0 1.1.6 1.3l10.7 3.1c.8.2 1.6-.2 1.8-.8l1.7-7-10.5-3.1-4.3 6.5"/><path d="m42.1 8.3l-2.1-.3 2.8-6h-3.6l-2.6 5.1-2-.6c-.6-.1-1.2 0-1.5.4l-1.2 1.6 10.4 2.7.5-2c.1-.4-.2-.8-.7-.9"/></g><g style="fill:none;stroke-miterlimit:10;stroke:#d6d6d6"><path d="M 29.3,19.3 33,12"/><path d="M 32.5,20.2 36,13"/><path d="M 36.6,20.6 39,14"/></g></g></svg>