<svg version="1.1" xmlns="http://www.w3.org/2000/svg" width="32" height="32" viewBox="0 0 32 32">
<path class="fill-active" d="M23.221 22.837c-0.003-0-0.007-0-0.011-0-0.536 0-0.971 0.435-0.971 0.971 0 0.004 0 0.008 0 0.011v-0.001 2.528h-19.125v-13.867h4c0.031 0.003 0.066 0.005 0.102 0.005 0.542 0 0.981-0.439 0.981-0.981s-0.439-0.981-0.981-0.981c-0.036 0-0.072 0.002-0.106 0.006l0.004-0h-4.587c-0.754 0-1.365 0.611-1.365 1.365v0 15.040c0 0.754 0.611 1.365 1.365 1.365v0h20.267c0.754 0 1.365-0.611 1.365-1.365v0-3.125c-0.005-0.523-0.419-0.947-0.937-0.971l-0.002-0z"></path>
<path class="fill-active" d="M21.739 3.947c-0.172-0.153-0.401-0.247-0.651-0.247-0.539 0-0.976 0.434-0.981 0.972v3.745c-7.433 0.471-13.387 6.223-14.17 13.523l-0.006 0.067c-0.003 0.026-0.004 0.057-0.004 0.088 0 0.542 0.439 0.981 0.981 0.981 0.331 0 0.624-0.164 0.802-0.416l0.002-0.003c2.416-3.564 6.447-5.874 11.018-5.874 0.485 0 0.964 0.026 1.436 0.077l-0.058-0.005v3.829c0.005 0.538 0.443 0.972 0.981 0.972 0.25 0 0.478-0.094 0.652-0.248l-0.001 0.001 8.789-8.011c0.194-0.18 0.315-0.436 0.315-0.72s-0.121-0.54-0.314-0.719l-0.001-0.001zM22.059 18.475v-2.475c-0.004-0.482-0.355-0.881-0.816-0.959l-0.006-0.001c-0.752-0.132-1.619-0.207-2.502-0.207-3.8 0-7.275 1.39-9.944 3.69l0.020-0.017c2.046-4.838 6.752-8.171 12.236-8.171 0.011 0 0.021 0 0.032 0h-0.002c0.542 0 0.981-0.439 0.981-0.981v0-2.475l6.4 5.792z"></path>
</svg>
