<svg id="Layer_6" enable-background="new 0 0 100 100" viewBox="0 0 100 100" xmlns="http://www.w3.org/2000/svg"><path d="m89.8 45c-.7-6.8-3.2-12.9-7.2-18.4-6.5-8.9-15.1-14.3-26-16.1-2.2-.4-4.4-.5-6.5-.7-.1 0-.3 0-.4 0-2 .2-4.1.4-6.1.7-20.8 3.1-35.9 22.8-33.5 43.8 1.1 10 5.3 18.5 12.8 25.3 8.8 8.1 19.3 11.6 31.2 10.4 9.1-.9 17.1-4.6 23.7-11 9.5-9.3 13.5-20.7 12-34zm-8.4 20.6c-1-1.8-2.3-4.2-2.9-6.4-.8-3.1-2.8-.1-3 1.9s-1.5 3.5-4.2.5-3.2-2.3-4-2.3-2.3 2-2 11.3c.2 6.7 2.9 7.7 4.6 8.2-3.2 2.2-6.9 3.9-11 5-15.7 4-31.8-3.3-39.3-17.7-7-13.4-3.6-28.6 3.5-36.9.2 1.5.4 2.9.5 4.2.4 3.7.1 7.3-.7 11-.2.8-.1 1.7.1 2.4.1.4.7.9 1.2.9.3 0 .9-.5 1.1-.9.3-.7.3-1.5.3-2.3.1-.6.1-1.1.1-2 .6.5 1 .7 1.3 1.1.9.9 1.8 1.8 2.5 2.7.4.4.7 1 .7 1.5 0 1.1.5 1.8 1 2.7.6.9.9 2.1 1.3 3.2.2.5.2 1 .4 1.4.4.9 1.1 1.6 2.2 1.7 1.2.1 1.7.5 1.8 1.8-.3 0-.6.1-.9.1-1.5.1-2.2.8-2.1 2.3.1 2.9 1.2 5.5 3.4 7.5.6.6 1.2 1.1 1.8 1.7 1.3 1.3 1.8 2.9 1.2 4.7-.3.9-.7 1.7-.9 2.6-.1.9-.1 1.9.1 2.8.2.9.1 3 1.1 2.8 1.7-.3 2.7 0 2.8-1.9 0-.4 0-.4-.1-.7-.5-1.8 1.8-6.8 3.2-7.8 1.2-.8 2.3-1.6 3.4-2.5 1.5-1.3 2.2-3.1 1.6-5.1-.6-1.9.1-3.3 1.4-4.5 1.3-1.2 2.2-2.7 2.1-4.6-.1-1.9-1.3-3.3-3-3.1-.8.1-1.6.5-2.3.7-1.1.4-2.2.9-3.4 1.1-1.6.3-2.6-.8-3.4-2.1-.6-1-.8-1.1-1.8-.5-.9.5-1.7 1.1-2.6 1.6-.9.5-1.4.3-2.1-.4-.4-.5-1-.8-1.5-1.1-.4-.2-.9-.3-1.2-.6-.4-.4-1-1-.9-1.4.1-.5.7-1.2 1.2-1.4.9-.4 1.9-.4 2.9-.6.5-.1 1-.2 1.5-.4.7-.3.6-.7.1-1.1-.3-.2-.6-.3-.9-.5-1.5-.6-2.9-1.2-4.4-1.7-.4-.1-.7-.3-1-.5-.9-.6-1-1.3-.2-2 3.3-2.9 7.1-3.8 10.6.1 1.1 1.2 1.8 2.7 2.8 3.9.8 1 1.7 1.9 2.7 2.7.4.3 1.3.4 1.8.1.7-.4.7-1.2.4-1.9-.3-.6-.6-1.2-1.1-1.8-1.9-2.5-1.8-7.4 2-9.4 1.3-.7 2.6-1.4 3.2-3.2-.7.2-1.3.3-1.8.5-2.9.9-.9-1.3.5-1.6.8-.2-.7-.8-.7-.8 0-.1 1-.3 2.1-.8.7-.3 1.5-.7 2.1-1.2.4-.3.6-1 .8-1.5-.1-.1-.1-.2-.2-.2-.8.1-1.5.2-2.3.3-1.3.1-1.6-.1-1.7-1.4-.1-.9-1-1.4-1.8-.9-.6.3-1.1.8-1.6 1.1-1.3.8-2.2.5-2.7-.9-.3-.8-.7-1-1.5-.5-.4.2-.7.6-1.1.8-.7.4-1.3.7-2 1-.7.2-1.5.4-2-.3-.5-.8-.1-1.6.6-2.1.8-.6 1.7-1.1 2.6-1.6 1.3-.7 2.6-1.3 3.8-2.1.9-.6 1.3-1.5 1-2.6-.2-.9-.9-1.2-1.7-.8-.7.4-1.3.9-2 1.2-.5.2-1.2.2-1.8.1-.2 0-.4-.6-.4-1 0-.2.4-.5.6-.6 1.8-.3 3.5-.5 5.3-.7.2 0 .6.1.7.3 1.2 1.5 2.8 2.2 4.5 2.7 1.4.4 1.6.2 1.8-1.3 1.8-.4 3.7-1.3 5.6-.1 1 .6 2 1.5 2.8 2.3.2.2.1.9 0 1.3-.1.6-.5 1.1-.6 1.7-.3 1.1.4 2 1.6 1.9.4 0 .7-.1 1.1-.1 1.1 0 1.4.4 1.3 1.4-.1 1.5.1 1.7 1.6 1.4.4-.1.9.1 1.4.3.3.1.5.3.7.5 1.4 1.1 2.5.7 2.9-1.1 0-.2 0-.4.1-.6.2-.8.6-1 1.1-.4 1.1 1.2 2.2 2.4 3.3 3.7-1.2 1.1-1.3 2.5-1 3.8.3 1.5-.1 2.8-.7 4.1-.6 1.3-1.2 2.5-1.6 3.8-.6 2 .1 2.9 2.1 3.3 1.9.4 2.2.8 2.3 2.7.1 2.6 1.4 4.3 3.6 5.4.5.2 1 .4 1.5.6-.2 4.1-1.3 8.2-3.2 12.1z" fill="#fff"/></svg>