<?xml version="1.0" encoding="utf-8"?>
<!-- Generator: Adobe Illustrator 17.1.0, SVG Export Plug-In . SVG Version: 6.00 Build 0)  -->
<!DOCTYPE svg PUBLIC "-//W3C//DTD SVG 1.1//EN" "http://www.w3.org/Graphics/SVG/1.1/DTD/svg11.dtd">
<svg version="1.1" id="Layer_6" xmlns="http://www.w3.org/2000/svg" xmlns:xlink="http://www.w3.org/1999/xlink" x="0px" y="0px"
	 viewBox="0 0 100 100" enable-background="new 0 0 100 100" xml:space="preserve">
<path fill="#FFFFFF" d="M89.8,45c-0.7-6.8-3.2-12.9-7.2-18.4c-6.5-8.9-15.1-14.3-26-16.1c-2.2-0.4-4.4-0.5-6.5-0.7
	c-0.1,0-0.3,0-0.4,0c-2,0.2-4.1,0.4-6.1,0.7C22.8,13.6,7.7,33.3,10.1,54.3c1.1,10,5.3,18.5,12.8,25.3c8.8,8.1,19.3,11.6,31.2,10.4
	c9.1-0.9,17.1-4.6,23.7-11C87.3,69.7,91.3,58.3,89.8,45z M81.4,65.6c-1-1.8-2.3-4.2-2.9-6.4c-0.8-3.1-2.8-0.1-3,1.9
	s-1.5,3.5-4.2,0.5s-3.2-2.3-4-2.3s-2.3,2-2,11.3c0.2,6.7,2.9,7.7,4.6,8.2c-3.2,2.2-6.9,3.9-11,5c-15.7,4-31.8-3.3-39.3-17.7
	c-7-13.4-3.6-28.6,3.5-36.9c0.2,1.5,0.4,2.9,0.5,4.2c0.4,3.7,0.1,7.3-0.7,11c-0.2,0.8-0.1,1.7,0.1,2.4c0.1,0.4,0.7,0.9,1.2,0.9
	c0.3,0,0.9-0.5,1.1-0.9c0.3-0.7,0.3-1.5,0.3-2.3c0.1-0.6,0.1-1.1,0.1-2c0.6,0.5,1,0.7,1.3,1.1c0.9,0.9,1.8,1.8,2.5,2.7
	c0.4,0.4,0.7,1,0.7,1.5c0,1.1,0.5,1.8,1,2.7c0.6,0.9,0.9,2.1,1.3,3.2c0.2,0.5,0.2,1,0.4,1.4c0.4,0.9,1.1,1.6,2.2,1.7
	c1.2,0.1,1.7,0.5,1.8,1.8c-0.3,0-0.6,0.1-0.9,0.1c-1.5,0.1-2.2,0.8-2.1,2.3c0.1,2.9,1.2,5.5,3.4,7.5c0.6,0.6,1.2,1.1,1.8,1.7
	c1.3,1.3,1.8,2.9,1.2,4.7c-0.3,0.9-0.7,1.7-0.9,2.6c-0.1,0.9-0.1,1.9,0.1,2.8c0.2,0.9,0.1,3,1.1,2.8c1.7-0.3,2.7,0,2.8-1.9
	c0-0.4,0-0.4-0.1-0.7c-0.5-1.8,1.8-6.8,3.2-7.8c1.2-0.8,2.3-1.6,3.4-2.5c1.5-1.3,2.2-3.1,1.6-5.1c-0.6-1.9,0.1-3.3,1.4-4.5
	c1.3-1.2,2.2-2.7,2.1-4.6c-0.1-1.9-1.3-3.3-3-3.1c-0.8,0.1-1.6,0.5-2.3,0.7c-1.1,0.4-2.2,0.9-3.4,1.1c-1.6,0.3-2.6-0.8-3.4-2.1
	c-0.6-1-0.8-1.1-1.8-0.5c-0.9,0.5-1.7,1.1-2.6,1.6c-0.9,0.5-1.4,0.3-2.1-0.4c-0.4-0.5-1-0.8-1.5-1.1c-0.4-0.2-0.9-0.3-1.2-0.6
	c-0.4-0.4-1-1-0.9-1.4c0.1-0.5,0.7-1.2,1.2-1.4c0.9-0.4,1.9-0.4,2.9-0.6c0.5-0.1,1-0.2,1.5-0.4c0.7-0.3,0.6-0.7,0.1-1.1
	c-0.3-0.2-0.6-0.3-0.9-0.5c-1.5-0.6-2.9-1.2-4.4-1.7c-0.4-0.1-0.7-0.3-1-0.5c-0.9-0.6-1-1.3-0.2-2c3.3-2.9,7.1-3.8,10.6,0.1
	c1.1,1.2,1.8,2.7,2.8,3.9c0.8,1,1.7,1.9,2.7,2.7c0.4,0.3,1.3,0.4,1.8,0.1c0.7-0.4,0.7-1.2,0.4-1.9c-0.3-0.6-0.6-1.2-1.1-1.8
	c-1.9-2.5-1.8-7.4,2-9.4c1.3-0.7,2.6-1.4,3.2-3.2c-0.7,0.2-1.3,0.3-1.8,0.5c-2.9,0.9-0.9-1.3,0.5-1.6c0.8-0.2-0.7-0.8-0.7-0.8
	c0-0.1,1-0.3,2.1-0.8c0.7-0.3,1.5-0.7,2.1-1.2c0.4-0.3,0.6-1,0.8-1.5c-0.1-0.1-0.1-0.2-0.2-0.2c-0.8,0.1-1.5,0.2-2.3,0.3
	c-1.3,0.1-1.6-0.1-1.7-1.4c-0.1-0.9-1-1.4-1.8-0.9c-0.6,0.3-1.1,0.8-1.6,1.1c-1.3,0.8-2.2,0.5-2.7-0.9c-0.3-0.8-0.7-1-1.5-0.5
	c-0.4,0.2-0.7,0.6-1.1,0.8c-0.7,0.4-1.3,0.7-2,1c-0.7,0.2-1.5,0.4-2-0.3c-0.5-0.8-0.1-1.6,0.6-2.1c0.8-0.6,1.7-1.1,2.6-1.6
	c1.3-0.7,2.6-1.3,3.8-2.1c0.9-0.6,1.3-1.5,1-2.6c-0.2-0.9-0.9-1.2-1.7-0.8c-0.7,0.4-1.3,0.9-2,1.2c-0.5,0.2-1.2,0.2-1.8,0.1
	c-0.2,0-0.4-0.6-0.4-1c0-0.2,0.4-0.5,0.6-0.6c1.8-0.3,3.5-0.5,5.3-0.7c0.2,0,0.6,0.1,0.7,0.3c1.2,1.5,2.8,2.2,4.5,2.7
	c1.4,0.4,1.6,0.2,1.8-1.3c1.8-0.4,3.7-1.3,5.6-0.1c1,0.6,2,1.5,2.8,2.3c0.2,0.2,0.1,0.9,0,1.3c-0.1,0.6-0.5,1.1-0.6,1.7
	c-0.3,1.1,0.4,2,1.6,1.9c0.4,0,0.7-0.1,1.1-0.1c1.1,0,1.4,0.4,1.3,1.4c-0.1,1.5,0.1,1.7,1.6,1.4c0.4-0.1,0.9,0.1,1.4,0.3
	c0.3,0.1,0.5,0.3,0.7,0.5c1.4,1.1,2.5,0.7,2.9-1.1c0-0.2,0-0.4,0.1-0.6c0.2-0.8,0.6-1,1.1-0.4c1.1,1.2,2.2,2.4,3.3,3.7
	c-1.2,1.1-1.3,2.5-1,3.8c0.3,1.5-0.1,2.8-0.7,4.1c-0.6,1.3-1.2,2.5-1.6,3.8c-0.6,2,0.1,2.9,2.1,3.3c1.9,0.4,2.2,0.8,2.3,2.7
	c0.1,2.6,1.4,4.3,3.6,5.4c0.5,0.2,1,0.4,1.5,0.6C84.4,57.6,83.3,61.7,81.4,65.6z"/>
</svg>
