<svg enable-background="new 0 0 48 24" viewBox="0 0 48 24" xmlns="http://www.w3.org/2000/svg"><path d="m5 2h19v22h-19z" fill="#d6d6d6"/><g fill="#5a5a5a"><path d="m5 18h2v6h-2z"/><path d="m7 4h9v-2h-11v8h2z"/><path d="m24 2.3l-5.5-2.1-.3-.1c-.2 0-.3 0-.5 0-.4.1-.7.4-.7.9v21.9c0 .6.6 1 1.2.9l5.8-2.2zm-4 10.6h-2v-2h2z"/></g><path d="m18 10.9h2v2h-2z" fill="#fff"/><path d="m8 17v3.5l7.5-6.6-7.5-6.6v3.7h-8v6z" fill="#5a5a5a"/><path d="m29 2h19v22h-19z" fill="#d6d6d6"/><g fill="#ac382e"><path d="m29 18h2v6h-2z"/><path d="m31 4h9v-2h-11v8h2z"/><path d="m48 2.3l-5.5-2.1-.3-.1c-.2 0-.3 0-.5 0-.4.1-.7.4-.7.9v21.9c0 .6.6 1 1.2.9l5.8-2.2zm-4 10.6h-2v-2h2z"/></g><path d="m42 10.9h2v2h-2z" fill="#fff"/><path d="m32 17v3.5l7.5-6.6-7.5-6.6v3.7h-8v6z" fill="#e74c3c"/></svg>