<svg xmlns="http://www.w3.org/2000/svg" width="314.61" height="72.11" viewBox="0 0 314.60599 72.105003" enable-background="new 0 0 315 70"><g transform="translate(-.197 1.053)" fill="#e64c3c"><path d="m48.34 59.15c-2.419 1.188-4.703 2.051-6.844 2.57-2.233.544-4.408.815-6.519.815-3.141 0-6.13-.647-8.967-1.946-2.838-1.299-5.344-3.154-7.516-5.571-2.174-2.412-3.895-5.296-5.162-8.647-1.268-3.352-1.902-7.079-1.902-11.185 0-4.588.634-8.618 1.902-12.09 1.268-3.471 2.988-6.354 5.162-8.648 2.172-2.294 4.678-4.02 7.516-5.163 2.837-1.146 5.826-1.721 8.967-1.721 2.111 0 4.256.18 6.43.543 2.172.362 4.586.966 7.245 1.811l2.354-5.838c-2.777-1.012-5.508-1.771-8.195-2.277-2.687-.507-5.298-.759-7.833-.759-4.65 0-8.967.828-12.951 2.487-3.986 1.659-7.457 3.995-10.416 7.01-2.958 3.02-5.269 6.618-6.927 10.809-1.663 4.19-2.491 8.817-2.491 13.882 0 5.247.828 9.949 2.491 14.11 1.658 4.159 3.968 7.702 6.927 10.626 2.959 2.925 6.43 5.171 10.416 6.737 3.984 1.568 8.301 2.352 12.951 2.352 2.535 0 5.13-.316 7.788-.949.865-.207 1.743-.479 2.627-.777l2.947-8.18"/><path d="m227.18 59.15c-2.418 1.188-4.703 2.051-6.842 2.57-2.235.544-4.408.815-6.521.815-3.14 0-6.127-.647-8.965-1.946-2.84-1.299-5.344-3.154-7.518-5.571-2.173-2.412-3.895-5.296-5.162-8.647-1.27-3.352-1.901-7.079-1.901-11.185 0-4.588.632-8.618 1.901-12.09 1.268-3.471 2.989-6.354 5.162-8.648 2.174-2.294 4.678-4.02 7.518-5.163 2.838-1.146 5.825-1.721 8.965-1.721 2.113 0 4.257.18 6.43.543 2.175.362 4.588.966 7.246 1.811l2.354-5.838c-2.776-1.012-5.51-1.771-8.196-2.277-2.688-.507-5.297-.759-7.834-.759-4.65 0-8.965.828-12.951 2.487-3.984 1.659-7.457 3.995-10.413 7.01-2.958 3.02-5.271 6.618-6.929 10.809-1.66 4.19-2.49 8.817-2.49 13.882 0 5.247.83 9.949 2.49 14.11 1.658 4.159 3.971 7.702 6.929 10.626 2.956 2.925 6.429 5.171 10.413 6.737 3.986 1.568 8.301 2.352 12.951 2.352 2.537 0 5.133-.316 7.79-.949.862-.207 1.741-.479 2.626-.777l2.947-8.18"/><path d="m276.58 2.126h8.693v59.32h27.531l-.093 6.521h-36.13v-65.839z"/><path d="m56.1 67.966l5.43-15.756h5.01 7.54l-4.08-6.523h-3.46-2.11l-1.09.182 1-1.903 10.14-29.07.64-2.626.63 2.626 18.38 53.07h1.84v-20.516l-16.33-45.32h-8.42l-23.73 65.84z"/><path d="m181.28 49.34c-1.66-4.161-2.49-8.863-2.49-14.11 0-1.665.1-3.278.278-4.847l-10.183-28.25h-8.422l-23.729 65.84h8.604l5.435-15.758h5.03 7.537l-4.069-6.521h-3.468-2.134l-1.086.183.996-1.903 10.143-29.07.635-2.626.633 2.626 18.384 53.07h1.843v-11.536c-1.56-2.13-2.894-4.475-3.939-7.094"/><path d="m234.94 67.966l5.43-15.756h5.02 7.53l-4.07-6.523h-3.46-2.12l-1.09.182 1-1.903 10.14-29.07.64-2.626.63 2.626 18.39 53.07h1.84v-20.516l-16.33-45.32h-8.43l-23.73 65.84z"/><path d="m137.18 30.02c2.023-2.742 3.034-5.923 3.034-9.542v-.179c0-2.592-.559-5.066-1.676-7.417-1.118-2.351-2.716-4.417-4.799-6.194-2.083-1.781-4.605-3.182-7.562-4.207-2.96-1.025-6.249-1.539-9.871-1.539-3.322 0-6.401.182-9.238.544-2.838.363-5.947.874-9.327 1.537v64.938h8.603v-59.683c2.173-.421 3.953-.663 5.343-.724 1.389-.06 2.928-.091 4.62-.091 2.051 0 3.969.333 5.75.997 1.78.664 3.337 1.571 4.665 2.716 1.328 1.148 2.385 2.49 3.171 4.03.783 1.54 1.176 3.216 1.176 5.03 0 1.873-.393 3.593-1.176 5.162-.786 1.57-1.798 2.914-3.035 4.03-1.239 1.118-2.643 2.01-4.212 2.671-1.459.62-4.272 1.026-4.66 1.081l-2.999.004-3.85 6.168h6.04c1.254.001 2.248.013 2.554 0h.127c2.346.904 4.167 2.413 5.464 4.521 1.298 2.114 2.369 4.527 3.215 7.246.845 2.715 1.614 5.556 2.31 8.512.694 2.958 1.644 5.738 2.853 8.332h.924l4.2-11.654c-.533-1.949-1.076-3.855-1.637-5.665-.814-2.624-1.811-5.02-2.988-7.19-1.178-2.17-2.885-4.01-5.117-5.517l-1.811-.725 2.173-.724c3.136-1.567 5.717-3.722 7.74-6.466"/></g></svg>