<svg enable-background="new 0 0 65.906 59.374" viewBox="0 0 65.906 59.374" xmlns="http://www.w3.org/2000/svg"><path d="m54.802 7.878v-.057c-.015 0-.031 0-.046-.003.136-.211.276-.419.424-.621.251-.279.51-.552.773-.818.943-.955 1.946-1.84 3.01-2.636 2.114-1.592 4.461-2.835 6.946-3.526-2.464.778-4.755 2.096-6.8 3.746-1.025.826-1.989 1.735-2.891 2.709-.451.489-.886.992-1.302 1.515-.022.026-.043.054-.066.082.035-.102.069-.205.103-.307l-.147-.084"/><path d="m54.713 5.877c.455-.632.948-1.228 1.465-1.792.687-.744 1.418-1.436 2.18-2.082.763-.643 1.553-1.248 2.379-1.786-.801.581-1.561 1.227-2.29 1.906-.727.681-1.419 1.405-2.063 2.176-.163.194-.324.393-.479.596-.311.319-.612.653-.9 1-.334.404-.653.827-.948 1.273.06-.139.125-.277.189-.413.147-.299.302-.591.467-.88"/><path d="m54.639 7.807c.177-.206.359-.411.542-.61-.148.202-.288.41-.424.621-.039-.004-.078-.007-.118-.011"/><path d="m54.639 7.807c-.017.02-.035.042-.052.062-.006.006-.012.014-.017.022l.005-.088c.021 0 .043.003.064.004"/><path d="m54.3 8.584c.142-.26.294-.516.454-.766.015.002.031.002.046.003v.057l.148.083c-.034.102-.068.205-.103.307-.316.399-.624.809-.911 1.228.003-.008.006-.015.009-.023.107-.299.224-.593.355-.883.002 0 .002-.004.003-.006"/><path d="m54.51 7.798c.284-.513.604-1.01.949-1.484.344-.47.712-.921 1.1-1.356.618-.579 1.27-1.111 1.943-1.606.948-.697 1.938-1.319 2.955-1.878 1.019-.556 2.06-1.062 3.134-1.475-1.057.461-2.075 1.012-3.068 1.612-.991.601-1.949 1.263-2.858 1.992-.909.73-1.77 1.53-2.546 2.413-.33.378-.647.771-.941 1.18-.183.199-.365.404-.542.61-.022-.002-.043-.003-.065-.005-.02 0-.041 0-.061-.003"/><path d="m54.57 7.803l-.004.088c-.058.066-.114.134-.171.202-.015 0-.031.002-.046.003.051-.1.105-.2.16-.297.02 0 .041.002.061.004"/><path d="m54.57 7.891l-.014.191c-.052.005-.105.006-.157.011.057-.068.112-.136.171-.202"/><path d="m54.758 7.818c-.16.25-.313.505-.454.766.079-.17.162-.337.253-.502l.014-.191c.005-.008.011-.015.017-.022.017-.02.035-.042.052-.062.039.004.078.007.118.011"/><path d="m55.46 6.314c-.345.475-.666.971-.949 1.484-.123-.009-.246-.017-.37-.023.499-.753 1.069-1.447 1.678-2.086.24-.251.488-.496.741-.73-.388.434-.756.886-1.1 1.355"/><path d="m54.642 6.755c.379-.649.806-1.268 1.264-1.86.461-.478.943-.926 1.439-1.351.832-.71 1.707-1.356 2.609-1.948.903-.588 1.829-1.132 2.787-1.596-.929.528-1.818 1.132-2.68 1.778-.86.647-1.684 1.344-2.461 2.097-.358.348-.706.709-1.039 1.083-.253.234-.501.479-.741.73-.609.64-1.179 1.333-1.678 2.086-.014-.002-.028-.002-.042-.002.166-.345.348-.686.542-1.017"/><path d="m54.14 7.775c.123.006.247.014.37.023-.055.097-.109.197-.16.297-.139.009-.277.02-.415.032.019-.042.037-.085.057-.126.049-.075.097-.15.148-.226"/><path d="m53.964 20.276c.045-.599.032-1.196-.025-1.789-.058-.592-.163-1.182-.285-1.769-.06-.294-.123-.587-.191-.88l-.1-.439c-.034-.146-.066-.307-.091-.459-.197-1.242-.069-2.501.183-3.7.125-.593.28-1.179.481-1.744.287-.419.595-.829.911-1.228-.336 1.025-.676 2.046-.921 3.094-.133.578-.228 1.163-.276 1.75-.049.587-.048 1.177.031 1.757.02.145.043.282.074.43l.088.445c.057.299.111.598.162.897.102.599.188 1.205.228 1.818.043.613.017 1.233-.055 1.84-.056.462-.134.917-.223 1.368l-.137-.031c.06-.452.114-.905.146-1.36"/><path d="m54.14 7.775c-.051.076-.099.151-.148.227.034-.076.069-.153.106-.228.014 0 .028 0 .042 0"/><path d="m54.1 7.774c-.037.076-.072.153-.106.228-.026.042-.052.085-.079.128-.08.008-.16.014-.24.022.043-.131.091-.26.14-.39.096 0 .19.005.285.012"/><path d="m53.995 8c-.02.042-.038.085-.057.126-.008 0-.014 0-.022.002.027-.044.053-.087.079-.128"/><path d="m54.06 7.17c.294-.445.613-.869.948-1.273.288-.348.589-.683.9-1-.458.592-.885 1.211-1.264 1.86-.194.331-.376.672-.541 1.018-.095-.006-.189-.011-.285-.012.076-.198.156-.396.242-.591"/><path d="m53.816 7.761c-.042 0-.083-.003-.126-.005.117-.199.24-.396.368-.587-.086.196-.166.394-.242.592"/><path d="m53.816 7.761c-.049.129-.097.259-.14.39-.074.008-.148.016-.222.023.076-.14.154-.281.236-.418.043.002.085.004.126.005"/><path d="m54.06 7.17c-.128.191-.251.388-.368.587-.043 0-.088 0-.131 0 .222-.436.467-.855.729-1.259.137-.211.279-.419.425-.621-.165.29-.321.581-.465.88-.065.135-.13.274-.19.413"/><path d="m53.01 20.557c.3.228.53.556.715.903.031.059.06.117.088.177l.137.031c-.012.065-.025.131-.039.194.094.233.17.476.23.721.186.786.206 1.609.108 2.402-.051.399-.112.784-.222 1.179-.111.387-.264.761-.447 1.113-.182.353-.393.686-.636.988-.205.253-.422.485-.68.681 0 .005.003.009.003.015l-.276.066c-.006-.051-.014-.102-.023-.149l.026-.008-.012-.022c.122-.109.245-.25.354-.388.112-.14.214-.29.308-.444.188-.308.342-.639.464-.983.119-.344.207-.698.279-1.054.072-.35.136-.724.176-1.089.042-.367.066-.733.076-1.1.008-.367 0-.733-.039-1.097-.077-.728-.236-1.457-.59-2.136"/><path d="m53.35 8.187c.069-.145.139-.29.213-.43.043 0 .088 0 .131 0-.082.137-.16.277-.236.418-.037.004-.072.007-.108.012"/><path d="m53.37 9.284c.009-.002.017-.002.029-.003-.012.005-.021.006-.032.011 0-.004 0-.005.003-.008"/><path d="m53.37 9.284c-.002.003-.002.005-.003.008-.009.002-.022.006-.031.009l-.04-.011c.023-.003.049-.005.074-.006"/><path d="m53.18 7.757c.185-.441.396-.864.627-1.274.462-.818.995-1.578 1.572-2.291.575-.713 1.194-1.381 1.843-2.01.649-.626 1.325-1.219 2.037-1.753-.678.584-1.313 1.222-1.92 1.889-.604.667-1.174 1.37-1.698 2.108-.33.47-.641.952-.925 1.451-.146.202-.288.41-.425.621-.262.404-.507.823-.729 1.259-.126-.004-.254-.004-.382 0"/><path d="m53.29 9.29l.04.011c-.091.026-.179.054-.268.082l-.145-.053c.123-.017.248-.031.373-.04"/><path d="m53.56 7.757c-.074.14-.143.285-.213.43-.12.014-.24.029-.359.045.059-.16.122-.319.19-.475.128-.003.256-.003.382 0"/><path d="m52.04 25.21c.213.089.378.26.441.496l-.08.088c-.199-.029-.354-.065-.487-.08-.131-.018-.246-.023-.364.034-.117.054-.23.159-.33.287-.102.128-.19.279-.27.441-.162.32-.287.678-.404 1.04-.116.364-.214.736-.324 1.111l-.111-.02c.009-.396.049-.789.117-1.182.068-.393.166-.783.321-1.165.08-.188.174-.375.299-.553.125-.174.287-.339.499-.447.1-.051.214-.083.328-.096l.253-.028c0 .014.003.028.003.042.038.007.075.018.109.032"/><path d="m52.597 15.829c-.011-.49.003-.982.032-1.47.032-.488.079-.975.159-1.456-.005.488.003.974.02 1.459.019.485.051.968.091 1.448.022.24.046.481.076.718.026.24.059.478.094.715.075.473.162.945.274 1.405.012.054.008.109-.014.156l-.003.009c-.225.513-.442 1.031-.63 1.561-.188.529-.359 1.063-.49 1.609-.136.544-.237 1.096-.287 1.655-.046.499-.046 1 .006 1.502l-.253.028c-.109-.508-.143-1.035-.128-1.556.019-.592.102-1.177.228-1.749.128-.57.294-1.129.492-1.673.189-.516.399-1.025.633-1.516-.094-.455-.166-.912-.211-1.371-.053-.491-.081-.982-.089-1.474"/><path d="m41.09 21.08c-.165.119-.347.213-.535.27-.005.002-.006.002-.009.002l-.022-.096c.171-.079.328-.186.465-.319.276-.264.489-.596.677-.946.379-.701.693-1.458 1.056-2.19.179-.368.361-.736.552-1.099.193-.361.391-.718.598-1.071.205-.353.416-.704.639-1.043.225-.342.444-.678.695-1.015.125-.167.256-.328.39-.485.137-.154.277-.304.424-.45.288-.288.593-.559.909-.809.314-.254.649-.478.986-.69.337-.208.681-.407 1.037-.578.353-.173.712-.33 1.076-.473.365-.139.734-.262 1.105-.373.59-.168 1.188-.307 1.79-.385l.145.052c-1.354.427-2.661.985-3.886 1.684-.33.196-.656.39-.971.609-.316.214-.618.45-.915.69-.296.242-.578.501-.846.775-.134.137-.264.28-.388.425-.128.145-.25.293-.368.445-.233.3-.458.638-.68.968-.22.331-.441.664-.653 1-.214.336-.421.68-.621 1.026-.203.347-.405.695-.602 1.048-.196.351-.388.709-.59 1.062-.202.351-.402.71-.633 1.049-.237.337-.492.675-.825.914"/><path d="m40.17 20.526c-.176.171-.367.328-.576.455-.032.02-.065.038-.097.056.288.088.575.185.858.291.059-.02.117-.043.173-.071l.022.096c-.026.008-.052.015-.079.02.096.037.191.074.287.112.431.18.857.379 1.265.613.407.237.809.493 1.151.827-.203-.112-.411-.206-.624-.291-.213-.088-.425-.165-.641-.234-.43-.14-.864-.26-1.302-.362-.875-.206-1.76-.351-2.647-.461-1.775-.217-3.564-.287-5.358-.287-1.792.002-3.583.074-5.356.294-.889.109-1.774.256-2.649.462-.872.211-1.746.455-2.57.878.345-.33.749-.584 1.156-.818.408-.234.834-.432 1.265-.612.214-.086.431-.17.65-.248l.068-.114c.032.02.063.04.096.059.311-.106.624-.202.94-.288l.228-.268c.02.018.04.035.062.051.046.037.092.072.142.105.159-.04.319-.079.479-.114 1.809-.401 3.655-.556 5.49-.561 1.835 0 3.681.154 5.49.55.328.072.655.153.978.243.029-.011.059-.028.088-.043.093-.051.18-.111.265-.18.169-.132.325-.293.468-.465.285-.348.528-.741.741-1.154.216-.41.404-.841.572-1.282.174-.441.325-.883.47-1.347.307-.944.712-1.852 1.196-2.712.495-.851 1.071-1.653 1.738-2.359.669-.704 1.413-1.328 2.22-1.829.807-.502 1.666-.901 2.55-1.18 1.243-.399 2.525-.586 3.803-.601-.068.156-.131.314-.19.475-1.166.156-2.31.418-3.404.832-1.652.627-3.176 1.612-4.405 2.94-.616.66-1.168 1.393-1.638 2.19-.479.787-.877 1.639-1.214 2.516-.168.453-.35.917-.555 1.362-.208.445-.436.881-.696 1.299-.266.414-.557.813-.91 1.155"/><path d="m38.942 36.492c-.06-.066-.102-.137-.137-.213-.005-.074-.037-.146-.085-.2-.006-.015-.014-.032-.022-.048 0-.203-.019-.405.003-.613.04-.396.169-.767.368-1.106.416-.71 1.076-1.211 1.885-1.247.698-.032 1.379.219 2.062.418.009.518.029.992-.083 1.516-.082.376-.26.743-.299 1.125-.251.202-.524.371-.804.508-.63.307-1.319.435-2.01.257-.291-.073-.664-.159-.883-.397" fill="#e4e4e4"/><path d="m42.18 32.837c.904.213 1.71.508 2.65.518.157.002.197.259.037.296-.319.075-.635.079-.949.037.663 1.357-.945 3.052-2.02 3.527-.857.381-1.777.401-2.653.068-.236-.091-.508-.253-.71-.465-.18.26-.374.512-.533.79-.267.467-.435 1.01-.653 1.501-.273.612-.476 1.263-.68 1.904-.205.652-.291 1.35-.521 1.991-.023.068-.122.08-.14 0-.156-.646.018-1.308.151-1.94.159-.755.371-1.495.542-2.245.23-1.019.599-2.251 1.552-2.734.005-.038.014-.077.025-.117-.074-.527.142-1.099.35-1.564.277-.623.74-1.185 1.345-1.455.728-.321 1.451-.29 2.209-.112m-3.373 3.443c.035.075.077.146.137.213.219.237.592.324.883.398.686.177 1.374.049 2.01-.257.28-.137.553-.307.804-.508.038-.382.217-.749.299-1.125.113-.524.093-.998.083-1.516-.683-.199-1.364-.45-2.062-.418-.809.035-1.468.536-1.885 1.247-.199.339-.328.71-.368 1.106-.022.208-.002.41-.003.613.008.015.015.032.022.048.048.052.081.125.085.199"/><path d="m38.907 29.675c.359-.855.789-1.892 1.656-1.71.076.014.151.139.14.239-.088.871-.652 1.603-.968 2.356-.356.855-.592 1.977-1.264 2.516-.125.1-.33.012-.357-.188-.147-1.117.398-2.271.793-3.213"/><path d="m37.22 55.941c.431-.054.855-.154 1.265-.297-.345.319-.649.718-.975 1.056-.472.488-.954.963-1.509 1.28-.928.532-2.086.886-3.035.789-.005 0-.029 0-.029 0-.003 0-.008 0-.011 0-.951.097-2.1-.257-3.03-.789-.555-.317-1.032-.792-1.505-1.28-.213-.22-.416-.468-.629-.704-.069-.079-.142-.156-.216-.23-.042-.042-.083-.083-.126-.123.408.143.834.242 1.265.296.846.103 1.683-.063 2.502-.328.472-.153.914-.361 1.396-.439.122-.02.247-.017.342-.017.003 0 .008 0 .011 0 0 0 .025 0 .029 0 .094 0 .236-.003.356.017.484.079.924.293 1.397.445.818.264 1.655.427 2.501.324" fill="#e74c3c"/><path d="m34.27 50.972c-.191-.541.032-1.072.401-1.354.088-.068.546-.404.775-.375.247-.242.261-.747.21-1.1-.029-.199-.145-.572-.319-.849-.108-.174-.268-.297-.354-.342-.435-.22-1.191-.411-1.656-.45-.123-.009-.271.008-.365.008-.005 0-.029 0-.029 0-.003 0-.008 0-.011 0-.096 0-.227-.017-.351-.008-.464.038-1.222.223-1.655.445-.086.045-.248.171-.356.345-.174.276-.29.652-.317.851-.051.351-.038.858.209 1.099.23-.029.687.308.775.376.367.282.59.813.399 1.354-.034.1-.117.139-.196.126l-.319-.108c.034-.052.079-.105.137-.156.037-.405-.082-.695-.362-.898-.054-.038-.137-.076-.223-.12-.558.424-.891-1.097-.866-1.572.015-.299.171-.888.394-1.259.231-.384.823-.599 1.01-.672.387-.152 1.117-.297 1.724-.297.003 0 .008 0 .011 0 0 0 .025 0 .029 0 .606 0 1.345.145 1.73.297.185.072.781.276 1.01.66.225.371.381.966.398 1.265.025.475-.308 1.999-.866 1.573-.086.046-.169.085-.222.123-.28.203-.401.493-.362.9.059.049.102.102.136.156l-.319.108c-.08.013-.162-.026-.197-.126"/><path d="m30.455 49.24c-.248-.24-.26-.747-.209-1.099.028-.199.143-.575.317-.851.108-.174.27-.3.356-.345.433-.222 1.191-.407 1.655-.445.125-.009.256.008.351.008.003 0 .008 0 .011 0 0 0 .025 0 .029 0 .094 0 .242-.017.365-.008.465.038 1.222.23 1.656.45.086.045.247.168.354.342.174.277.29.65.319.849.051.353.037.858-.21 1.1-.229-.029-.687.307-.775.375-.368.282-.592.813-.401 1.354.035.1.117.139.196.126.069.365-.227.541-.479.686-.191.109-.394.242-.598.307-.131.04-.257.076-.393.082-.017.002-.035.019-.035.019h-.029c-.006 0-.011 0-.011 0s-.012-.017-.029-.019c-.136-.006-.257-.042-.39-.082-.202-.065-.404-.197-.595-.307-.253-.145-.547-.32-.478-.686.079.012.162-.026.196-.126.191-.541-.032-1.072-.399-1.354-.087-.067-.544-.405-.774-.376" fill="#e4e4e4"/><path d="m38.485 55.644l.222.209c-.398.402-.818.952-1.114 1.273-.485.521-.983.975-1.544 1.342-.943.615-2.039 1.01-3.083.883-.005 0-.029 0-.029 0-.003 0-.008 0-.011 0-1.046.125-2.126-.268-3.069-.883-.559-.367-1.057-.815-1.543-1.336-.229-.247-.533-.633-.841-.982l.29-.156c.213.236.416.484.629.704.473.488.951.963 1.505 1.28.929.532 2.079.886 3.03.789.003 0 .008 0 .011 0 0 0 .025 0 .029 0 .949.097 2.108-.257 3.035-.789.555-.317 1.037-.792 1.509-1.28.326-.336.63-.735.975-1.054"/><path d="m14.174 31.897c.105.496.236.988.405 1.448.034.097.072.193.113.287.011-1.196.193-2.436.911-2.969.123-.092.283.096.202.26-.498.997-.646 2.243-.596 3.476.003 0 .005.002.008.003l-.006.009c.032.786.149 1.566.307 2.27.444 1.971 1.318 3.781 2.468 5.188.532.65 1.109 1.237 1.734 1.733.627.498 1.296.875 1.938 1.333 1.116.798 2.18 1.949 2.532 3.593.063.297-.217.484-.382.29-.555-.652-1.01-1.448-1.596-2.052-.188-.196-.385-.367-.589-.527.166.237.32.492.455.767.482 1.01.815 2.116 1.274 3.139.234.521.995 2.391 2.168 3.672 1.171 1.28 3.066 1.425 3.784 1.41.878-.02 1.704-.32 2.547-.616.319-.112.595-.171.912-.191.003-.271-.022-1.473-.026-1.804-.143-.02-.297-.063-.45-.102-.362-.092-1.572-.888-1.171-1.524l.319.108c-.069.365.225.541.478.686.191.109.393.242.595.307.133.04.254.076.39.082.017.002.029.019.029.019s.005 0 .011 0h .029c0 0 .019-.017.035-.019.136-.006.262-.042.393-.082.203-.065.407-.197.598-.307.253-.145.549-.32.479-.686l.319-.108c.401.635-.807 1.431-1.17 1.524-.153.039-.307.082-.451.102-.003.331-.028 1.533-.025 1.804.317.02.593.079.912.191.843.296 1.669.596 2.547.616.718.015 2.613-.13 3.784-1.41 1.173-1.28 1.934-3.151 2.168-3.672.459-1.023.792-2.133 1.274-3.139.132-.276.288-.53.453-.767-.202.16-.399.331-.587.527-.587.604-1.042 1.401-1.598 2.052-.165.194-.444.008-.381-.29.35-1.644 1.413-2.795 2.532-3.593.641-.458 1.311-.835 1.938-1.333.624-.496 1.202-1.083 1.733-1.733 1.15-1.407 2.025-3.217 2.469-5.188.157-.704.273-1.484.307-2.27l-.006-.009c.003-.002.005-.003.008-.003.049-1.233-.1-2.479-.596-3.476-.083-.165.079-.353.202-.26.718.532.9 1.774.911 2.969.04-.094.079-.189.112-.287.17-.461.299-.952.405-1.448.105-.499.185-1 .237-1.513.025-.256.043-.51.049-.764 0-.199 0-.404-.023-.593l.276-.066c.048.217.065.434.082.65.017.267.02.533.015.798-.008.533-.048 1.063-.112 1.592-.066.528-.157 1.055-.3 1.581-.074.264-.159.527-.277.791-.06.132-.129.263-.217.394-.045.068-.096.132-.154.197-.029.032-.062.063-.097.094-.015.014-.029.026-.049.042-.011.145-.02.28-.029.407-.162 2.163-.901 4.234-1.928 5.934-.926 1.536-2.096 2.752-3.393 3.715-.458.367-1.398 1.769-1.669 2.33-.185.385-1.279 3.279-2.049 4.595-1.353 2.31-2.297 3.196-2.729 3.304-.189.046-.419.23-.656.47l-.222-.209c-.41.143-.834.243-1.265.297-.846.103-1.683-.06-2.501-.325-.473-.153-.914-.367-1.397-.445-.12-.02-.262-.017-.356-.017-.005 0-.029 0-.029 0-.003 0-.008 0-.011 0-.096 0-.22-.003-.342.017-.482.079-.924.287-1.396.439-.82.265-1.656.431-2.502.328-.431-.054-.857-.153-1.265-.296.043.04.085.082.126.123.074.074.146.151.216.23l-.29.156c-.071-.08-.143-.157-.214-.231-.26-.271-.512-.484-.715-.535-.431-.108-1.376-.994-2.729-3.304-.77-1.316-1.864-4.211-2.049-4.596-.271-.561-1.211-1.963-1.669-2.33-1.297-.963-2.467-2.179-3.393-3.715-1.028-1.7-1.766-3.771-1.928-5.934-.009-.126-.018-.262-.029-.407-.02-.015-.032-.028-.049-.042-.035-.031-.068-.062-.097-.094-.06-.065-.109-.129-.154-.197-.088-.131-.157-.262-.217-.394-.12-.264-.205-.527-.277-.791-.143-.525-.234-1.052-.3-1.581-.065-.529-.105-1.059-.114-1.592-.003-.265 0-.532.017-.798.015-.222.035-.442.085-.666l.268-.075.026.008c-.043.233-.048.49-.045.743.006.254.023.508.049.764.049.507.129 1.012.233 1.511"/><path d="m27.632 35.968c.011.04.02.079.025.117.951.482 1.322 1.715 1.552 2.734.171.75.384 1.49.542 2.245.131.632.305 1.294.151 1.94-.02.08-.117.068-.14 0-.231-.641-.316-1.339-.521-1.991-.203-.641-.407-1.293-.68-1.904-.219-.495-.387-1.034-.653-1.501-.159-.279-.353-.53-.533-.79-.202.213-.475.374-.71.465-.877.333-1.797.313-2.653-.068-1.077-.475-2.684-2.17-2.02-3.527-.316.042-.63.038-.949-.037-.16-.037-.122-.294.037-.296.94-.009 1.746-.305 2.65-.518.758-.179 1.481-.21 2.21.112.606.27 1.068.832 1.345 1.455.208.466.423 1.037.349 1.564m-4.659-.969c.08.376.26.743.299 1.125.25.202.522.371.804.508.63.307 1.319.435 2 .257.29-.074.663-.16.883-.398.06-.066.102-.137.137-.213.005-.074.037-.146.085-.2.006-.015.012-.032.022-.048-.002-.203.017-.405-.003-.613-.04-.396-.169-.767-.368-1.106-.416-.71-1.076-1.211-1.884-1.247-.698-.032-1.379.219-2.062.418-.012.519-.031.993.082 1.517"/><path d="m25.341 27.965c.869-.182 1.297.855 1.656 1.71.396.941.941 2.096.794 3.213-.028.2-.233.288-.359.188-.67-.539-.906-1.661-1.262-2.516-.316-.753-.88-1.485-.968-2.356-.001-.1.065-.225.139-.239"/><path d="m24.951 33.06c.809.035 1.468.536 1.884 1.247.199.339.328.71.368 1.106.02.208.002.41.003.613-.009.015-.015.032-.022.048-.048.054-.08.126-.085.2-.035.075-.077.146-.137.213-.22.237-.593.324-.883.398-.686.177-1.374.049-2-.257-.282-.137-.555-.307-.804-.508-.038-.382-.219-.749-.299-1.125-.112-.524-.094-.998-.083-1.516.684-.2 1.365-.451 2.063-.419" fill="#e4e4e4"/><path d="m26.2 20.903c-.163-.111-.314-.24-.456-.378-.353-.342-.646-.741-.909-1.156-.26-.418-.488-.854-.696-1.299-.205-.445-.388-.909-.555-1.362-.338-.877-.735-1.729-1.214-2.516-.47-.797-1.022-1.53-1.638-2.19-1.231-1.328-2.753-2.313-4.407-2.94-1.094-.415-2.237-.676-3.404-.832-.059-.16-.12-.319-.188-.475 1.277.015 2.558.202 3.801.601.886.279 1.744.678 2.552 1.18.807.501 1.55 1.125 2.22 1.829.666.706 1.243 1.509 1.736 2.359.485.86.889 1.767 1.197 2.712.145.464.296.906.468 1.347.17.441.356.872.573 1.282.213.413.455.806.741 1.154.125.151.259.291.405.414z"/><path d="m24.817 21.08c-.334-.239-.59-.576-.823-.914-.231-.339-.431-.698-.633-1.049-.202-.353-.396-.71-.59-1.062-.197-.353-.399-.701-.602-1.048-.2-.347-.41-.69-.621-1.026-.213-.339-.433-.672-.653-1-.222-.33-.448-.667-.681-.968-.117-.153-.239-.3-.367-.445-.125-.145-.254-.288-.388-.425-.268-.274-.552-.533-.846-.775-.297-.24-.599-.476-.915-.69-.314-.219-.643-.413-.971-.609-1.225-.7-2.532-1.257-3.886-1.684l.143-.052c.604.079 1.2.217 1.791.385.373.111.741.234 1.106.373.364.143.723.301 1.076.473.356.171.698.37 1.037.578.338.213.672.436.986.69.314.25.621.521.909.809.146.146.287.296.424.45.134.157.265.319.39.485.251.337.468.673.695 1.015.223.339.433.69.639 1.043.205.353.405.71.598 1.071.191.362.373.73.552 1.099.361.732.677 1.489 1.056 2.19.188.35.401.683.676.946.074.072.157.139.243.196l-.068.114c-.097-.047-.189-.104-.277-.167"/><path d="m14.688 26.04c-.1-.128-.211-.233-.328-.287-.117-.057-.233-.052-.364-.034-.133.015-.288.051-.487.08l-.08-.088c.062-.236.227-.407.441-.496.034-.014.069-.025.106-.032 0-.014.003-.028.003-.042l.254.028c.113.012.226.045.328.096.213.108.374.273.499.447.125.179.217.365.299.553.154.382.251.772.321 1.165.068.393.108.786.117 1.182l-.113.02c-.108-.374-.208-.747-.324-1.111-.116-.362-.24-.72-.402-1.04-.079-.162-.167-.313-.27-.441"/><path d="m13.979 25.14c.054-.501.054-1 .008-1.502-.049-.559-.151-1.111-.287-1.655-.132-.545-.302-1.08-.491-1.609-.186-.53-.404-1.048-.629-1.561l-.005-.008c-.022-.052-.025-.106-.012-.157.113-.461.199-.932.273-1.405.037-.237.069-.475.096-.715.029-.237.054-.478.074-.718.042-.481.074-.963.091-1.448.019-.485.026-.971.022-1.459.08.481.126.968.159 1.456.029.488.043.98.032 1.47-.008.491-.035.983-.089 1.473-.045.459-.117.917-.211 1.371.233.492.444 1 .633 1.516.197.544.364 1.103.492 1.673.125.572.21 1.157.228 1.749.014.521-.019 1.048-.128 1.556z"/><path d="m13.638 28.945c-.257-.196-.475-.428-.681-.681-.242-.302-.453-.635-.636-.988-.183-.351-.334-.726-.445-1.113-.111-.394-.171-.78-.222-1.179-.1-.794-.079-1.616.108-2.402.06-.245.136-.488.228-.721-.012-.063-.026-.129-.039-.194l.139-.031c.026-.06.057-.119.086-.177.186-.347.416-.675.716-.903-.356.679-.513 1.408-.59 2.136-.038.364-.048.73-.038 1.097.008.367.034.733.074 1.1.042.365.105.74.177 1.089.072.356.16.71.279 1.054.122.344.276.675.464.983.094.154.196.304.307.444.111.139.233.279.356.388l-.014.022z"/><path d="m12.983 9.33l-.143.052c-.089-.028-.177-.056-.268-.082l.04-.011c.123.001.248.024.371.041"/><path d="m12.348 7.757c.126-.003.253-.003.381 0 .068.156.129.314.188.475-.119-.016-.237-.032-.359-.045-.068-.145-.137-.29-.21-.43"/><path d="m12.612 9.29l-.04.011c-.009-.003-.022-.008-.031-.009-.002-.003-.002-.005-.003-.008.025 0 .049.003.074.006"/><path d="m12.538 9.284c.002.003.002.005.003.008-.011-.005-.022-.006-.032-.011.0001 0 .018 0 .029.003"/><path d="m44.828 33.35c-.94-.009-1.746-.305-2.65-.518-.758-.179-1.481-.21-2.21.112-.606.27-1.068.832-1.345 1.455-.208.465-.424 1.037-.35 1.564-.011.04-.02.079-.025.117-.952.482-1.322 1.715-1.552 2.734-.171.75-.384 1.49-.542 2.245-.133.632-.307 1.294-.151 1.94.018.08.117.068.14 0 .23-.641.316-1.339.521-1.991.203-.641.407-1.293.68-1.904.219-.495.387-1.034.653-1.501.159-.279.353-.53.533-.79.202.213.475.374.71.465.877.333 1.797.313 2.653-.068 1.077-.475 2.684-2.17 2.02-3.527.314.042.63.038.949-.037.162-.037.122-.294-.036-.296m-17.831-3.68c-.359-.855-.787-1.892-1.656-1.71-.074.014-.149.139-.139.239.088.871.652 1.603.968 2.356.356.855.592 1.977 1.262 2.516.126.1.331.012.359-.188.148-1.117-.398-2.271-.794-3.213m24.929-4.534c-.052-.501-.052-1-.006-1.502.049-.559.151-1.111.287-1.655.131-.545.302-1.08.49-1.609.188-.53.405-1.048.63-1.561l.003-.009c.022-.046.026-.102.014-.156-.113-.461-.199-.932-.274-1.405-.035-.237-.068-.475-.094-.715-.029-.237-.054-.478-.076-.718-.04-.481-.072-.963-.091-1.448-.017-.485-.025-.971-.02-1.459-.08.481-.126.968-.159 1.456-.029.488-.043.98-.032 1.47.008.491.035.983.089 1.473.045.459.117.917.211 1.371-.234.492-.444 1-.633 1.516-.197.544-.364 1.103-.492 1.673-.126.572-.21 1.157-.228 1.749-.015.521.019 1.048.128 1.556-.114.012-.228.045-.328.096-.213.108-.374.273-.499.447-.125.179-.219.365-.299.553-.154.382-.253.772-.321 1.165-.068.393-.108.786-.117 1.182l.111.02c.109-.374.208-.747.324-1.111.117-.362.242-.72.404-1.04.08-.162.168-.313.27-.441.1-.128.213-.233.33-.287.117-.057.233-.052.364-.034.132.015.288.051.487.08l.08-.088c-.063-.236-.228-.407-.441-.496-.034-.014-.071-.025-.108-.032 0-.014-.004-.027-.004-.041m-25.26 12.142c.236-.091.508-.253.71-.465.18.26.374.512.533.79.267.467.434 1.01.653 1.501.273.612.476 1.263.68 1.904.205.652.29 1.35.521 1.991.023.068.12.08.14 0 .154-.646-.02-1.308-.151-1.94-.159-.755-.371-1.495-.542-2.245-.23-1.019-.601-2.251-1.552-2.734-.005-.038-.014-.077-.025-.117.074-.527-.142-1.099-.35-1.564-.277-.623-.74-1.185-1.345-1.455-.729-.322-1.451-.291-2.21-.112-.904.213-1.71.508-2.65.518-.159.002-.197.259-.037.296.319.075.633.079.949.037-.663 1.357.945 3.052 2.02 3.527.857.381 1.777.401 2.654.068m-12.796-12.07c-.214.089-.379.26-.441.496l.08.088c.199-.029.354-.065.487-.08.131-.018.247-.023.364.034.117.054.228.159.328.287.103.128.191.279.271.441.162.32.287.678.402 1.04.116.364.216.736.324 1.111l.113-.02c-.009-.396-.049-.789-.117-1.182-.069-.393-.167-.783-.321-1.165-.082-.188-.174-.375-.299-.553-.125-.174-.287-.339-.499-.447-.102-.051-.216-.083-.328-.096.109-.508.142-1.035.128-1.556-.019-.592-.103-1.177-.228-1.749-.128-.57-.294-1.129-.492-1.673-.189-.516-.401-1.025-.633-1.516.094-.455.166-.912.211-1.371.054-.49.082-.982.089-1.473.011-.49-.003-.982-.032-1.47-.032-.488-.079-.975-.159-1.456.005.488-.003.974-.022 1.459-.017.485-.049.968-.091 1.448-.02.24-.045.481-.074.718-.026.24-.059.478-.096.715-.074.473-.16.945-.273 1.405-.012.051-.009.105.012.157l.005.008c.225.513.442 1.031.629 1.561.189.529.359 1.063.491 1.609.136.544.237 1.096.287 1.655.046.499.046 1-.008 1.502 0 .014-.003.028-.003.042-.035.006-.071.017-.105.031m26.694 2.75c-.867-.182-1.297.855-1.656 1.71-.395.941-.94 2.096-.792 3.213.028.2.233.288.357.188.672-.539.908-1.661 1.264-2.516.316-.753.88-1.485.968-2.356.0001-.1-.065-.225-.141-.239m-7.419 26.455c-.003-.271.021-1.473.025-1.804.145-.02.299-.063.451-.102.362-.092 1.57-.889 1.17-1.524-.034-.054-.077-.106-.136-.156-.038-.407.082-.696.362-.9.052-.039.136-.077.222-.123.558.425.891-1.099.866-1.573-.017-.299-.173-.894-.398-1.265-.23-.384-.826-.587-1.01-.66-.385-.152-1.125-.297-1.73-.297-.005 0-.029 0-.029 0-.003 0-.008 0-.011 0-.607 0-1.338.145-1.724.297-.183.072-.775.288-1.01.672-.223.371-.379.96-.394 1.259-.025.475.308 1.995.866 1.572.086.045.17.082.223.12.28.203.399.493.362.898-.059.051-.103.103-.137.156-.401.636.809 1.431 1.171 1.524.153.039.307.082.45.102.005.331.029 1.533.026 1.804-.317.02-.593.079-.912.191-.843.296-1.669.596-2.547.616-.718.015-2.613-.13-3.784-1.41-1.173-1.28-1.934-3.151-2.168-3.672-.459-1.023-.792-2.133-1.274-3.139-.134-.276-.288-.53-.455-.767.203.16.401.331.589.527.587.604 1.042 1.401 1.596 2.052.165.194.445.008.382-.29-.351-1.644-1.416-2.795-2.532-3.593-.643-.458-1.311-.835-1.938-1.333-.624-.496-1.202-1.083-1.734-1.733-1.151-1.407-2.025-3.217-2.468-5.188-.157-.704-.274-1.484-.307-2.27l.006-.009c-.003-.002-.005-.003-.008-.003-.049-1.233.099-2.479.596-3.476.082-.165-.079-.353-.202-.26-.718.533-.9 1.774-.911 2.969-.04-.094-.079-.189-.113-.287-.17-.461-.3-.952-.405-1.448-.105-.499-.185-1-.237-1.513-.026-.256-.043-.51-.049-.764-.003-.253.002-.51.045-.743l-.026-.008.014-.022c-.123-.109-.245-.25-.356-.388-.111-.14-.213-.29-.307-.444-.188-.308-.342-.639-.464-.983-.119-.344-.207-.698-.279-1.054-.072-.35-.136-.724-.177-1.089-.04-.367-.066-.733-.074-1.1-.009-.367 0-.733.038-1.097.077-.727.234-1.456.59-2.136-.3.228-.53.556-.716.903-.029.059-.06.117-.086.177-.062-.453-.117-.906-.148-1.361-.045-.599-.034-1.196.025-1.789.059-.592.163-1.182.284-1.769.062-.294.125-.587.191-.88l.1-.439c.036-.146.068-.307.091-.459.199-1.242.071-2.501-.182-3.7-.125-.593-.28-1.177-.482-1.743-.002-.008-.005-.017-.008-.025-.109-.307-.231-.61-.365-.904-.077-.165-.157-.327-.245-.487.052.005.105.006.157.011.014 0 .031.002.045.003.139.009.277.02.416.032.006 0 .014 0 .022.002.079.008.16.014.239.022.074.008.149.016.223.023.036.005.073.008.106.012.122.014.24.029.359.045 1.166.156 2.31.418 3.404.832 1.653.627 3.176 1.612 4.407 2.94.616.66 1.168 1.393 1.638 2.19.479.787.877 1.639 1.214 2.516.166.453.35.917.555 1.362.208.445.436.881.696 1.299.264.415.556.814.909 1.156.142.137.293.267.456.378-.316.086-.629.182-.94.288-.032-.018-.063-.038-.096-.059-.086-.057-.17-.123-.243-.196-.276-.264-.488-.596-.676-.946-.379-.701-.695-1.458-1.056-2.19-.179-.368-.36-.736-.552-1.099-.193-.361-.393-.718-.598-1.071-.206-.353-.416-.704-.639-1.043-.226-.342-.444-.678-.695-1.015-.125-.167-.256-.328-.39-.485-.137-.154-.277-.304-.424-.45-.288-.288-.595-.559-.909-.809-.314-.254-.649-.478-.986-.69-.339-.208-.681-.407-1.037-.578-.353-.173-.712-.33-1.076-.473-.365-.139-.733-.262-1.106-.373-.59-.168-1.186-.307-1.791-.385-.123-.017-.248-.031-.371-.04-.025-.003-.049-.005-.074-.006-.011-.002-.019-.002-.029-.003.011.005.022.006.032.011.009.002.022.006.031.009.091.026.179.054.268.082 1.355.427 2.661.985 3.886 1.684.328.196.656.39.971.609.316.214.618.45.915.69.294.242.578.501.846.775.134.137.264.28.388.425.128.145.25.293.367.445.233.3.459.638.681.968.22.331.441.664.653 1 .211.336.421.68.621 1.026.203.347.405.695.602 1.048.194.351.388.709.59 1.062.202.351.402.71.633 1.049.233.337.488.675.823.914.088.063.18.12.276.166-.219.079-.436.162-.65.248-.431.18-.857.377-1.265.612-.407.234-.811.488-1.156.818.824-.424 1.698-.667 2.57-.878.875-.207 1.76-.353 2.649-.462 1.774-.22 3.564-.293 5.356-.294 1.793 0 3.583.069 5.358.287.887.109 1.772.254 2.647.461.438.102.872.222 1.302.362.216.069.428.146.641.234.213.085.421.179.624.291-.342-.334-.744-.59-1.151-.827-.408-.234-.834-.433-1.265-.613-.096-.038-.191-.075-.287-.112.026-.005.052-.012.079-.02.003 0 .005 0 .009-.002.188-.057.37-.151.535-.27.333-.239.589-.576.823-.914.231-.339.431-.698.633-1.049.202-.353.394-.71.59-1.062.197-.353.399-.701.602-1.048.2-.347.407-.69.621-1.026.213-.339.433-.672.653-1 .222-.33.447-.667.68-.968.119-.153.24-.3.368-.445.125-.145.254-.288.388-.425.268-.274.55-.533.846-.775.297-.24.599-.476.915-.69.314-.219.641-.413.971-.609 1.225-.7 2.532-1.257 3.886-1.684.089-.028.177-.056.268-.082.009-.003.021-.008.031-.009.011-.005.02-.006.032-.011-.012.002-.02.002-.029.003-.025 0-.051.003-.074.006-.125.009-.25.023-.373.04-.602.079-1.2.217-1.79.385-.371.111-.74.234-1.105.373-.364.143-.723.301-1.076.473-.356.171-.7.37-1.037.578-.338.213-.672.436-.986.69-.316.25-.621.521-.909.809-.146.146-.287.296-.424.45-.134.157-.265.319-.39.485-.251.337-.47.673-.695 1.015-.223.339-.434.69-.639 1.043-.206.353-.405.71-.598 1.071-.191.362-.373.73-.552 1.099-.362.732-.677 1.489-1.056 2.19-.188.35-.401.683-.677.946-.137.132-.294.24-.465.319-.056.028-.114.051-.173.071-.284-.106-.57-.203-.858-.291.032-.017.065-.036.097-.056.21-.126.401-.284.576-.455.353-.342.644-.741.909-1.156.26-.418.488-.854.696-1.299.205-.445.387-.909.555-1.362.337-.877.735-1.729 1.214-2.516.47-.797 1.022-1.53 1.638-2.19 1.23-1.328 2.754-2.313 4.405-2.94 1.094-.415 2.237-.676 3.404-.832.119-.015.239-.031.359-.045.035-.005.071-.008.108-.012.074-.008.148-.016.222-.023.08-.008.16-.014.24-.022.008-.002.014-.002.022-.002.137-.012.276-.023.415-.032.015-.002.031-.003.046-.003.052-.005.105-.006.157-.011-.091.165-.174.333-.253.502.004.004.004.007.002.008-.131.29-.248.584-.354.883-.003.008-.006.015-.009.023-.2.566-.356 1.151-.481 1.744-.253 1.199-.381 2.458-.183 3.7.025.153.057.313.091.459l.1.439c.068.293.131.586.191.88.122.587.227 1.177.285 1.769.057.593.069 1.19.025 1.789-.032.455-.086.908-.148 1.361-.028-.06-.057-.119-.088-.177-.185-.347-.415-.675-.715-.903.354.679.513 1.408.59 2.136.039.364.046.73.039 1.097-.009.367-.034.733-.076 1.1-.04.365-.103.74-.176 1.089-.072.356-.16.71-.279 1.054-.122.344-.276.675-.464.983-.094.154-.196.304-.308.444-.109.139-.233.279-.354.388l.012.022-.026.008c.009.048.017.099.023.149.023.19.025.394.023.593-.006.254-.025.508-.049.764-.052.509-.133 1.014-.237 1.513-.106.496-.236.988-.405 1.448-.034.097-.072.193-.112.287-.011-1.196-.193-2.438-.911-2.969-.123-.092-.285.096-.202.26.496.997.646 2.243.596 3.476-.003 0-.005.002-.008.003l.006.009c-.034.786-.149 1.566-.307 2.27-.444 1.971-1.319 3.781-2.469 5.188-.532.65-1.109 1.237-1.733 1.733-.627.498-1.297.875-1.938 1.333-1.119.798-2.182 1.949-2.532 3.593-.063.297.216.484.381.29.556-.652 1.01-1.448 1.598-2.052.188-.196.385-.367.587-.527-.165.237-.32.492-.453.767-.482 1.01-.815 2.116-1.274 3.139-.234.521-.995 2.391-2.168 3.672-1.171 1.28-3.066 1.425-3.784 1.41-.878-.02-1.704-.32-2.547-.616-.32-.112-.596-.171-.913-.191" fill="#e74c3c"/><path d="m12.452 8.174c-.077-.14-.156-.281-.236-.418.043 0 .088 0 .132 0 .072.14.142.285.21.43-.034-.004-.071-.007-.106-.012"/><path d="m12.348 7.757c-.045 0-.089 0-.132 0-.119-.199-.242-.396-.37-.587-.06-.139-.125-.277-.189-.413-.146-.301-.302-.596-.469-.888.146.205.291.415.43.629.262.403.507.823.73 1.259"/><path d="m12.216 7.757c.08.137.159.277.236.418-.074-.008-.149-.016-.223-.023-.043-.131-.089-.26-.139-.39.041-.002.083-.004.126-.005"/><path d="m12.09 7.761c.049.129.096.259.139.39-.079-.008-.16-.014-.239-.022-.026-.042-.052-.083-.077-.123-.035-.079-.071-.156-.108-.233.094-.006.189-.001.285-.012"/><path d="m12.09 7.761c-.075-.199-.156-.396-.243-.592.128.191.251.388.37.587-.044.002-.086.004-.127.005"/><path d="m11.912 8.01c.025.04.051.082.077.123-.008-.002-.015-.002-.022-.002-.018-.041-.036-.081-.055-.121"/><path d="m11.912 8.01c-.049-.079-.1-.156-.149-.231.014-.002.028-.002.042-.002.037.078.072.155.107.233"/><path d="m11.552 8.096c-.051-.1-.103-.199-.159-.297.123-.009.245-.017.37-.023.049.076.1.153.149.231.019.04.037.08.056.122-.139-.013-.277-.024-.416-.033"/><path d="m11.846 7.17c.088.196.168.393.243.592-.095.002-.191.006-.285.012-.166-.347-.348-.687-.541-1.018-.378-.65-.805-1.269-1.263-1.861.311.319.612.653.9 1 .334.404.652.827.946 1.273"/><path d="m11.507 8.093c-.052-.005-.105-.006-.157-.011l-.014-.189c.06.065.114.132.171.2"/><path d="m9.344 4.958c.253.234.499.479.741.73.609.64 1.179 1.333 1.678 2.086-.125.006-.247.014-.37.023-.284-.513-.604-1.01-.949-1.484-.344-.468-.713-.92-1.1-1.355"/><path d="m11.336 7.892l-.005-.088c.02-.002.042-.003.062-.005.055.099.108.197.159.297-.014-.002-.031-.003-.045-.003-.057-.067-.111-.134-.171-.2"/><path d="m11.265 7.807c.023-.002.045-.003.066-.005l.005.088c-.005-.008-.011-.015-.019-.022-.016-.019-.033-.04-.052-.061"/><path d="m11.942 20.276c.031.455.086.908.148 1.361l-.139.031c-.088-.451-.166-.906-.222-1.368-.072-.607-.099-1.226-.056-1.84.039-.613.126-1.219.227-1.818.051-.299.106-.598.163-.897l.086-.445c.031-.148.055-.285.074-.43.08-.579.082-1.17.032-1.757-.048-.587-.145-1.173-.276-1.75-.247-1.048-.585-2.069-.925-3.096.317.399.627.81.912 1.231.202.565.357 1.149.482 1.743.253 1.199.381 2.458.182 3.7-.023.153-.055.313-.091.459l-.1.439c-.066.293-.13.586-.191.88-.12.587-.225 1.177-.284 1.769-.056.592-.067 1.189-.022 1.788"/><path d="m11.336 7.892l.014.189c.088.16.168.322.245.487-.14-.256-.29-.507-.447-.75.04-.005.079-.008.117-.011.019.02.035.042.052.062.008.006.014.014.019.022"/><path d="m11.1 7.821c.015 0 .031 0 .046-.003.157.244.307.495.447.75.134.294.256.598.365.904.003.008.006.017.008.025-.285-.421-.595-.832-.912-1.231-.032-.102-.068-.203-.1-.305l.148-.083z"/><path d="m11.265 7.807c-.177-.206-.358-.411-.541-.61-.296-.41-.612-.803-.941-1.18-.777-.883-1.636-1.683-2.546-2.413-.91-.729-1.869-1.391-2.858-1.992-.992-.6-2.01-1.151-3.068-1.612 1.074.413 2.116.918 3.134 1.475 1.017.559 2.01 1.182 2.955 1.878.673.495 1.324 1.026 1.943 1.606.387.434.757.886 1.1 1.356.345.475.666.971.949 1.484-.02.002-.042.003-.062.005-.02 0-.042.002-.065.003"/><path d="m10.724 7.197c.183.199.364.404.541.61-.038.003-.077.006-.117.011-.137-.211-.277-.419-.424-.621"/><path d="m9.726 4.085c.518.562 1.01 1.154 1.462 1.784.166.291.322.587.469.888.065.136.129.274.189.413-.294-.445-.612-.869-.946-1.273-.288-.348-.589-.683-.9-1-.157-.203-.317-.402-.479-.596-.644-.77-1.338-1.495-2.063-2.176-.73-.68-1.489-1.325-2.29-1.906.826.538 1.616 1.143 2.379 1.786.761.646 1.493 1.338 2.179 2.082"/><path d="m0 .217c2.484.69 4.832 1.934 6.946 3.526 1.059.797 2.062 1.681 3.01 2.636.263.267.522.539.773.818.146.202.287.41.424.621-.015.002-.031.002-.046.003l.002.057-.148.083c.032.102.068.203.1.305-.02-.026-.042-.054-.063-.08-.416-.522-.85-1.026-1.302-1.515-.902-.973-1.868-1.882-2.891-2.708-2.045-1.65-4.338-2.968-6.8-3.746"/><path d="m8.304 3.875c-.775-.753-1.599-1.45-2.459-2.097-.862-.646-1.751-1.25-2.682-1.778.96.464 1.886 1.01 2.789 1.596.901.592 1.775 1.237 2.609 1.948.496.425.978.874 1.439 1.351.458.592.885 1.211 1.264 1.86.193.331.375.672.541 1.018-.014 0-.028 0-.042.002-.499-.753-1.069-1.447-1.678-2.086-.242-.251-.489-.496-.741-.73-.333-.375-.681-.736-1.04-1.084"/><path d="m8.687 2.182c.649.628 1.267 1.296 1.843 2.01.576.713 1.109 1.473 1.572 2.291.23.41.442.834.627 1.274-.128-.003-.254-.003-.381 0-.223-.436-.468-.855-.73-1.259-.139-.214-.284-.424-.43-.629-.282-.496-.593-.977-.921-1.444-.523-.737-1.093-1.439-1.698-2.107-.606-.667-1.241-1.305-1.919-1.889.712.535 1.387 1.128 2.037 1.754"/></svg>