<svg xmlns="http://www.w3.org/2000/svg" viewBox="0 0 30 30"><defs><style>.cls-1{fill:none;}.cls-2{fill:#e74c3c;}</style></defs><title>Asset 1</title><g id="Layer_2" data-name="Layer 2"><g id="Layer_1-2" data-name="Layer 1"><rect class="cls-1" width="30" height="30"/><path class="cls-2" d="M3.23,23.95l5.58,3a.24.24,0,0,0,.12,0,.25.25,0,0,0,.13,0l.06-.05a.23.23,0,0,0,.12,0l5.65-3a.25.25,0,0,0,.1-.11.26.26,0,0,0,.11.13l5.58,3a.24.24,0,0,0,.24,0l.06-.05a.23.23,0,0,0,.12,0l5.65-3a.25.25,0,0,0,.13-.22l0-7.07a.24.24,0,0,0,0-.09h0a.25.25,0,0,0-.14-.22l-5.68-3-.09,0,0-7a.25.25,0,0,0,0-.09h0A.24.24,0,0,0,20.86,6L15.18,3A.25.25,0,0,0,15,3L9.22,5.8h0l0,0,0,0,0,0,0,0V6h0v7.31H9L3.25,16.14h0l0,0,0,0,0,0,0,0v.09h0v7.36A.25.25,0,0,0,3.23,23.95Zm17.31,2.39-5.08-2.76v-6.8l5.08,2.84Zm.41-12.48,5.14,2.69-5.3,2.65-5-2.8ZM15.06,3.52,20.2,6.21,14.9,8.86l-5-2.8ZM9.57,6.45l5.08,2.84V16L9.57,13.33Zm-.48,7.41,5.14,2.69L8.93,19.2l-5-2.8ZM3.59,16.78l5.08,2.84v6.71L3.59,23.58Z"/></g></g></svg>