<svg style="display: none;" height="0" overflow="hidden" width="0" xmlns="http://www.w3.org/2000/svg"><defs><symbol id="icon-format-h1" viewBox="0 0 46 32"><path d="m20.136 0h4.47v32h-4.47v-14.788h-15.666v14.788h-4.47v-32h4.47v13.326h15.666z"/><path d="m32.877 6.601c1.962-.713 3.642-1.53 5.223-2.495 1.62-1.118 3.12-2.498 4.397-4.067l3.08-.038v32h-4.178v-26.026c-.41.359-.86.703-1.332 1.015-.532.361-1.106.707-1.698 1.023l-2.066 1.011-2.005.794z"/></symbol><symbol id="icon-format-h2" viewBox="0 0 50 32"><path d="m19.699.736h4.373v31.264h-4.373v-14.427h-15.326v14.427h-4.373v-31.264h4.373v13.037h15.326z"/><path d="m49.042 8.705v.011c0 1.134-.241 2.212-.674 3.186-.493 1.089-1.08 2.069-1.765 2.971-.772 1.034-1.576 1.981-2.434 2.874l-4.486 4.486c-.633.691-1.249 1.437-1.826 2.213-.572.71-1.071 1.418-1.519 2.159-.409.625-.634 1.285-.659 1.997l14.426.006v3.556h-19.004c-.007-.08-.011-.172-.011-.266s.004-.186.012-.277l-.001-.642c-.002-.07-.003-.152-.003-.234 0-1.384.256-2.708.723-3.928.49-1.252 1.109-2.397 1.849-3.451.755-1.056 1.573-2.03 2.462-2.935l2.735-2.816 2.003-2.043c.62-.647 1.209-1.34 1.756-2.067.526-.696.95-1.423 1.283-2.198.336-.776.516-1.602.516-2.47 0-.003 0-.006 0-.009.001-.028.001-.062.001-.096 0-.792-.166-1.546-.464-2.228-.497-1.129-1.463-2.014-2.652-2.407-.64-.208-1.342-.327-2.07-.336-.076-.002-.16-.004-.245-.004-.789 0-1.55.121-2.265.345-.69.228-1.325.505-1.928.833-.482.265-.95.59-1.38.96l-.725.849-2.207-2.983c.376-.393.776-.755 1.201-1.085.584-.462 1.213-.869 1.88-1.214.784-.417 1.624-.764 2.501-1.027.981-.285 1.996-.434 3.046-.434h.08c.235-.019.514-.03.796-.03 2.506 0 4.808.874 6.617 2.335 1.505 1.471 2.451 3.545 2.451 5.84 0 .197-.007.393-.021.586z"/></symbol><symbol id="icon-format-h3" viewBox="0 0 49 32"><path d="m19.28.72h4.28v30.6h-4.28v-14.12h-15v14.12h-4.28v-30.6h4.28v12.76h15z"/><path d="m37.36 28.32c.226.022.489.035.755.035 1.837 0 3.534-.598 4.908-1.611 1.037-.96 1.698-2.353 1.698-3.901 0-.029 0-.058-.001-.087.001-.021.001-.052.001-.082 0-.985-.268-1.907-.734-2.699-.449-.734-1.068-1.353-1.803-1.802-.796-.467-1.697-.802-2.656-.967-.967-.185-2.025-.287-3.106-.287-.022 0-.043 0-.065 0h-1.077v-3.56h1.44c.812-.009 1.599-.096 2.359-.254.734-.137 1.459-.415 2.111-.803.627-.373 1.165-.898 1.558-1.524.391-.677.615-1.467.615-2.308 0-.067-.001-.134-.004-.2.002-.031.002-.078.002-.125 0-.721-.163-1.404-.454-2.014-.273-.545-.664-1.026-1.139-1.405-.508-.355-1.101-.608-1.741-.723-.611-.157-1.282-.244-1.972-.244-.019 0-.038 0-.057 0-.084-.003-.186-.005-.288-.005-1.189 0-2.327.222-3.373.626-.867.338-1.658.728-2.407 1.178l-1.569-3.16 1.36-.8c.503-.258 1.111-.515 1.739-.73.682-.243 1.405-.449 2.146-.609.833-.174 1.659-.261 2.505-.261h.095.066c1.403 0 2.754.22 4.022.626 1.039.343 2.014.918 2.834 1.66.733.693 1.319 1.548 1.697 2.507.371.965.577 2.028.577 3.138 0 .038 0 .077-.001.115 0 .019.001.048.001.077 0 1.486-.513 2.851-1.37 3.93-.869 1.092-1.981 1.973-3.255 2.564.814.284 1.569.624 2.269 1.048.705.43 1.341.989 1.865 1.641.548.69.993 1.471 1.311 2.314.349.913.54 1.902.54 2.934v.09.087c0 1.292-.25 2.525-.704 3.654-.46 1.097-1.182 2.075-2.086 2.845-1.024.862-2.224 1.532-3.537 1.949-1.731.581-3.641.904-5.625.904-.609 0-1.21-.03-1.803-.09l-2.205-.594-1.84-.52-1.16-.48.8-3.6c.646.294 1.468.606 2.31.873 1.374.429 2.76.649 4.197.649.089 0 .178-.001.267-.003z"/></symbol><symbol id="icon-format-h4" viewBox="0 0 53 32"><path d="m20.136 0h4.47v32h-4.47v-14.788h-15.666v14.788h-4.47v-32h4.47v13.326h15.666z"/><path d="m30.413 20.888c.85-1.919 1.646-3.469 2.515-4.971q1.37-2.465 3.292-5.306t4.178-5.64c1.434-1.819 2.869-3.44 4.391-4.976l4.173.004v20.303h3.802v3.509h-3.885v8.355h-4.178v-8.355h-14.287zm14.329-15.833q-1.379 1.462-2.799 3.3t-2.757 3.802q-1.337 2.005-2.507 4.178t-2.089 4.178h10.151z"/></symbol><symbol id="icon-format-h5" viewBox="0 0 50 32"><path d="m19.724 0h4.379v31.345h-4.379v-14.486h-15.345v14.486h-4.379v-31.345h4.379v13.054h15.345z"/><path d="m36.829 12.276c.174-.007.379-.01.584-.01 3.538 0 6.815 1.123 9.492 3.031 1.914 1.657 3.151 4.147 3.151 6.926 0 .143-.003.285-.01.426.001.016.001.059.001.101 0 1.34-.256 2.62-.721 3.795-.459 1.13-1.184 2.144-2.095 2.951-1.018.882-2.219 1.568-3.537 1.992-1.57.476-3.291.739-5.073.739-.906 0-1.797-.068-2.667-.199-.794-.118-1.556-.275-2.301-.471l-1.693-.499-1.187-.45.818-3.683c.64.293 1.467.613 2.313.889 1.347.416 2.686.626 4.074.626.071 0 .142-.001.212-.002.066.002.157.003.248.003 1.118 0 2.198-.166 3.216-.474.79-.244 1.542-.665 2.18-1.214.53-.476.949-1.08 1.209-1.762.244-.65.379-1.365.379-2.111 0-.017 0-.034 0-.05.02-.205.032-.447.032-.691 0-.911-.162-1.784-.458-2.592-.437-.908-1.156-1.679-2.046-2.185-1.207-.679-2.584-1.166-4.048-1.395-1.744-.298-3.674-.463-5.642-.463-.185 0-.369.001-.553.004q.314-2.21.437-4.092t.286-3.806q0-1.841.205-3.683t0-3.847h15.468v3.478h-11.458v6.67q-.573 1.146-.818 2.046z"/></symbol><symbol id="icon-format-h6" viewBox="0 0 51 32"><path d="m19.623 0h4.356v31.308h-4.356v-14.412h-15.267v14.412h-4.356v-31.308h4.356v13.15h15.267z"/><path d="m30.697 18.809c-.004-.156-.006-.339-.006-.523 0-2.728.464-5.348 1.318-7.785.758-2.083 1.965-4.01 3.498-5.623 1.533-1.565 3.41-2.8 5.507-3.582 2.282-.834 4.797-1.297 7.419-1.297h.143l.278 3.501c-1.709.011-3.365.218-4.952.6-1.396.306-2.759.898-3.966 1.707-1.126.786-2.092 1.804-2.823 2.983-.759 1.373-1.3 2.921-1.561 4.563.737-.265 1.62-.573 2.535-.794.959-.228 1.944-.347 2.958-.347.055 0 .109 0 .164.001.077-.002.177-.004.277-.004 1.511 0 2.952.301 4.267.845 1.111.474 2.116 1.191 2.933 2.084.749.858 1.323 1.879 1.66 3.002.35 1.142.544 2.389.544 3.681-.005 1.254-.213 2.457-.593 3.581-.394 1.186-1.004 2.283-1.783 3.236-.812.992-1.829 1.814-2.986 2.4-1.253.617-2.666.964-4.16.964-.088 0-.175-.001-.262-.004-.149.01-.338.016-.528.016-2.927 0-5.536-1.367-7.221-3.498-1.69-2.468-2.69-5.494-2.69-8.753 0-.336.011-.67.032-1.001zm10.015-3.216c-.042 0-.092-.001-.142-.001-.988 0-1.951.104-2.88.302-.94.222-1.836.53-2.689.917q.092.451.092.981v1.018.025c0 1.313.104 2.602.303 3.859.147 1.016.49 2.058.985 3.009.422.811 1.056 1.524 1.828 2.05.783.476 1.705.75 2.692.75.077 0 .153-.002.229-.005.044.003.109.004.174.004.86 0 1.667-.228 2.363-.627.664-.41 1.235-.955 1.674-1.597.438-.624.773-1.33.978-2.089.191-.719.295-1.49.296-2.286.01-.138.016-.299.016-.46 0-1.604-.558-3.077-1.491-4.235-1.007-1.005-2.412-1.635-3.965-1.635-.163 0-.324.007-.484.021z"/></symbol><symbol id="icon-format-code" viewBox="0 0 25 32"><path d="m24.113 32h-23.172c-.52 0-.941-.421-.941-.941v-30.118c0-.52.421-.941.941-.941h16.226c.52 0 .941.421.941.941s-.421.941-.941.941h-15.285v28.235h21.289v-22.231c0-.52.421-.941.941-.941s.941.421.941.941v23.172c0 .52-.421.941-.941.941z"/><path d="m24.113 8.828h-6.946c-.52 0-.941-.421-.941-.941v-6.946c.007-.514.426-.928.941-.928.257 0 .489.103.659.269l6.946 6.946c.166.17.269.402.269.659 0 .515-.414.934-.927.941zm-6.005-1.882h3.765l-3.765-3.765z"/><path d="m10.824 23.887c-.002 0-.005 0-.007 0-.202 0-.389-.063-.542-.171l-6.397-4.629c-.237-.173-.389-.45-.389-.762s.152-.589.387-.761l6.403-4.632c.091-.032.195-.051.304-.051.52 0 .941.421.941.941 0 .236-.087.451-.23.616l-5.27 3.876 5.271 3.878c.245.172.403.454.403.772 0 .52-.421.941-.941.941-.003 0-.005 0-.008 0z"/><path d="m14.231 23.887c-.002 0-.005 0-.007 0-.52 0-.941-.421-.941-.941 0-.318.158-.599.4-.77l5.349-3.88-5.346-3.859c-.236-.174-.388-.45-.388-.762 0-.521.422-.943.943-.943.209 0 .402.068.558.183l6.397 4.629c.237.173.389.45.389.762s-.152.589-.387.761l-6.421 4.651c-.15.106-.337.169-.539.169-.002 0-.005 0-.008 0z"/></symbol><symbol id="icon-format-ol" viewBox="0 0 33 32"><path d="m .4 1.48c.438-.172.813-.367 1.165-.595.366-.242.702-.539.99-.878l.686-.007v7.14h-.96v-5.82l-.28.24-.42.24-.44.2-.46.2z"/><path d="m4.24 14.18c-.03.269-.115.513-.244.728-.113.252-.247.475-.402.681-.176.235-.359.45-.555.653l-.618.638-.4.42-.44.5c-.116.146-.228.309-.329.48-.09.139-.141.282-.151.437l3.38.003v.82h-4.32c-.002-.018-.003-.039-.003-.06s.001-.042.003-.063v-.157c0-.006 0-.013 0-.02 0-.316.059-.619.166-.897.112-.281.253-.538.422-.774.176-.249.366-.478.573-.69l.679-.659.48-.48c.146-.147.284-.304.411-.468.115-.156.208-.321.283-.495.069-.17.106-.349.106-.536 0-.007 0-.014 0-.021.017-.077.027-.167.027-.259s-.01-.182-.028-.268c-.062-.133-.15-.253-.258-.351-.107-.097-.234-.172-.374-.219-.076-.013-.156-.018-.237-.018s-.161.006-.239.017c-.072-.015-.166-.022-.261-.022s-.189.008-.28.023l-.43.199-.34.22-.2.18-.66-.68.28-.24c.128-.101.272-.194.425-.273.179-.091.372-.166.573-.222.23-.069.469-.105.717-.105h.006c.053-.004.116-.007.179-.007.57 0 1.093.199 1.505.53.343.356.557.846.557 1.386 0 .025 0 .05-.001.074z"/><path d="m1.76 31.14c.05.004.107.007.165.007.433 0 .833-.137 1.161-.371.241-.223.395-.548.395-.909 0-.017 0-.033-.001-.049.001-.014.001-.033.001-.052 0-.223-.06-.432-.164-.612-.108-.168-.256-.31-.431-.411-.185-.107-.393-.184-.615-.222-.119-.012-.244-.018-.371-.018s-.252.006-.376.017l-.244-.001v-.78h.88c.188-.033.356-.096.507-.184.306-.179.514-.514.514-.897 0-.014 0-.027-.001-.041.004-.031.006-.069.006-.108 0-.187-.046-.362-.128-.516-.066-.13-.16-.244-.275-.332-.114-.093-.248-.162-.395-.2l-.387-.062c-.02-.001-.044-.001-.069-.001-.277 0-.542.052-.786.146-.209.087-.4.188-.58.304l-.366-.749.32-.18.42-.18.5-.14h.58c.019 0 .041-.001.063-.001.327 0 .643.051.939.147.243.081.47.218.659.395.172.163.308.363.395.588.092.229.144.482.144.746v.005c0 .012.001.026.001.04 0 .349-.121.67-.323.923-.202.256-.464.46-.765.592.193.068.372.149.537.251.161.104.307.237.427.39.125.159.226.337.298.53.08.216.124.45.125.694v.021c0 .302-.059.591-.166.855-.109.256-.279.484-.492.662-.239.202-.519.36-.826.458-.348.107-.727.166-1.121.166-.034 0-.068 0-.101-.001l-.575-.06-.54-.1-.44-.12-.26-.16.18-.84.58.22c.281.089.605.141.941.141.021 0 .042 0 .062-.001z"/><path d="m10.84 2.1h22.06v2.94h-22.06z"/><path d="m10.84 14.36h22.06v2.94h-22.06z"/><path d="m10.84 26.8h22.06v2.94h-22.06z"/></symbol><symbol id="icon-add" viewBox="0 0 32 32"><path d="m29.538 13.538h-11.077v-11.077c0-1.359-1.102-2.462-2.462-2.462s-2.462 1.102-2.462 2.462v11.077h-11.077c-1.359 0-2.462 1.102-2.462 2.462s1.102 2.462 2.462 2.462h11.077v11.077c0 1.359 1.102 2.462 2.462 2.462s2.462-1.102 2.462-2.462v-11.077h11.077c1.359 0 2.462-1.102 2.462-2.462s-1.102-2.462-2.462-2.462z"/></symbol><symbol id="icon-format-quote" viewBox="0 0 56 32"><path d="m1.862 20.198c1.696-2.37 3.948-4.24 6.571-5.438l.7 1.082c-1.307.917-2.454 1.863-3.522 2.89-1.152.963-1.933 2.357-2.096 3.935-.007.059-.009.097-.009.136 0 .304.155.573.39.73.192.125.421.202.668.213h1.267.027c1.033 0 1.962.446 2.605 1.156.636.727 1.022 1.681 1.022 2.726 0 .031 0 .061-.001.092.002.038.002.087.002.137 0 1.135-.427 2.171-1.13 2.954-.727.758-1.753 1.232-2.89 1.232-.082 0-.163-.002-.244-.007-.025.002-.067.002-.109.002-1.473 0-2.791-.667-3.667-1.715-.909-1.127-1.455-2.567-1.455-4.135 0-.117.003-.234.009-.35.091-2.104.774-4.049 1.885-5.677zm14.05 0c1.653-2.336 3.829-4.196 6.364-5.436l.696 1.08c-1.315.876-2.462 1.789-3.527 2.788-1.068.988-1.775 2.38-1.882 3.938-.049.149-.077.3-.077.457s.028.308.079.448c.172.186.424.308.704.308.011 0 .021 0 .032-.001h1.263.027c1.033 0 1.962.446 2.605 1.156.657.723 1.058 1.684 1.058 2.739 0 .038-.001.077-.002.115.003.057.005.131.005.205 0 1.142-.443 2.18-1.167 2.953-.752.739-1.786 1.196-2.928 1.196-.069 0-.138-.002-.206-.005-.024.001-.063.002-.103.002-1.447 0-2.741-.653-3.605-1.68-.909-1.119-1.456-2.551-1.456-4.111 0-.126.004-.25.011-.374.064-2.223.819-4.275 2.057-5.948z"/><path d="m33.3 16.158c1.315-.874 2.462-1.787 3.526-2.788 1.151-.957 1.933-2.353 2.092-3.932.002-.032.002-.04.002-.048 0-.322-.106-.619-.284-.859-.178-.192-.435-.314-.721-.314-.017 0-.035 0-.052.001h-1.087c-.057.003-.125.005-.192.005-1.002 0-1.906-.42-2.546-1.093-.679-.722-1.095-1.695-1.095-2.765 0-.066.002-.131.005-.196.001-1.109.413-2.13 1.093-2.912.723-.781 1.76-1.272 2.912-1.272.111 0 .221.005.329.013 1.363.025 2.602.598 3.498 1.509.969 1.058 1.562 2.473 1.562 4.027 0 .153-.006.305-.017.455-.041 2.855-1.229 5.445-3.124 7.32-1.528 1.541-3.273 2.861-5.188 3.911zm13.769 0c1.307-.92 2.454-1.877 3.517-2.92 1.143-.938 1.922-2.293 2.1-3.832.006-.059.008-.096.008-.133 0-.302-.123-.575-.321-.772-.186-.168-.431-.274-.701-.281h-1.125c-.047.002-.103.004-.159.004-1.001 0-1.905-.419-2.545-1.091-.677-.712-1.093-1.675-1.093-2.735 0-.051.001-.103.003-.154-.003-.049-.004-.115-.004-.182 0-1.155.457-2.203 1.2-2.974.744-.678 1.74-1.093 2.833-1.093.078 0 .156.002.233.006.022-.001.06-.002.099-.002 1.434 0 2.723.623 3.61 1.612.928 1.096 1.489 2.521 1.489 4.076 0 .125-.004.249-.011.372-.071 2.907-1.324 5.525-3.296 7.39-1.52 1.477-3.24 2.749-5.116 3.772z"/></symbol><symbol id="icon-format-ul" viewBox="0 0 33 32"><path d="m10 1.54h23.08v3.08h-23.08z"/><path d="m10 14.38h23.08v3.08h-23.08z"/><path d="m10 27.38h23.08v3.08h-23.08z"/><path d="m0 0h6.16v6.16h-6.16z"/><path d="m0 12.84h6.16v6.16h-6.16z"/><path d="m0 25.84h6.16v6.16h-6.16z"/></symbol><symbol id="icon-dropdown" viewBox="0 0 37 32"><path d="m18.481 29.375 16.197-28.062h-32.394z" fill="#fff"/><path d="m18.376 32-18.376-32h36.961zm-13.835-29.375 13.834 24.125 14.044-24.125z" fill="#e74c3c"/></symbol><symbol id="icon-format-bold" viewBox="0 0 25 32"><path d="m10.398 32q-2.575 0-5.119 0c-1.987-.193-3.784-.511-5.53-.956l.251-30.24c1.311-.256 2.931-.473 4.577-.602q2.731-.203 5.081-.203c.08-.001.174-.001.269-.001 1.838 0 3.64.153 5.394.446 1.381.244 2.788.761 4.058 1.488 1.112.631 2.069 1.557 2.751 2.67.65 1.15 1.022 2.485 1.022 3.908 0 .098-.002.196-.005.293-.002 2.548-1.465 4.769-3.6 5.86 1.688.588 3.097 1.725 4.001 3.204.708 1.261 1.114 2.728 1.114 4.29 0 .043 0 .085-.001.127.01.148.016.329.016.511 0 2.839-1.408 5.348-3.563 6.87-2.662 1.516-5.816 2.399-9.176 2.399-.542 0-1.078-.023-1.608-.068zm-3.573-19.316h3.445c.196.014.424.022.654.022 1.443 0 2.812-.317 4.042-.884.78-.493 1.331-1.407 1.331-2.45 0-.069-.002-.138-.007-.206.012-.084.018-.192.018-.302 0-1.039-.573-1.945-1.42-2.418-1.114-.504-2.399-.794-3.752-.794-.18 0-.359.005-.536.015l-3.742-.001zm0 5.376v7.984h3.67c.138.006.3.009.462.009 1.667 0 3.257-.334 4.705-.94 1.072-.477 1.862-1.609 1.862-2.925 0-.093-.004-.185-.012-.276.018-.113.028-.257.028-.404 0-1.196-.652-2.24-1.621-2.795-1.118-.483-2.401-.759-3.749-.759-.318 0-.632.015-.942.045z"/></symbol><symbol id="icon-format-italic" viewBox="0 0 22 32"><path d="m7.526 3.859 1.061-3.859h13.25l-1.029 3.859-3.602.675-6.175 22.963 3.216.675-.997 3.988h-13.25l1.029-3.859 3.602-.675 6.175-23.091z"/></symbol><symbol id="icon-format-link" viewBox="0 0 32 32"><path d="m19.146 21.268c-.004 0-.009 0-.014 0-2.318 0-4.416-.943-5.931-2.467-.225-.225-.363-.534-.363-.876 0-.684.555-1.239 1.239-1.239.342 0 .652.139.876.363 1.092 1.043 2.574 1.685 4.207 1.685s3.115-.642 4.209-1.687l4.513-4.513c1.077-1.076 1.744-2.564 1.744-4.207s-.666-3.13-1.744-4.207c-1.092-1.043-2.574-1.685-4.207-1.685s-3.115.642-4.209 1.687l-4.537 4.513c-.224.224-.534.363-.876.363-.684 0-1.239-.555-1.239-1.239 0-.342.139-.652.363-.876l4.515-4.416c1.544-1.482 3.645-2.394 5.958-2.394s4.414.912 5.961 2.397c1.518 1.519 2.458 3.621 2.458 5.943s-.94 4.424-2.461 5.946l-4.515 4.441c-1.515 1.524-3.613 2.467-5.932 2.467-.005 0-.01 0-.015 0z"/><path d="m8.413 32.074c-.028 0-.061.001-.095.001-4.647 0-8.413-3.767-8.413-8.413 0-2.371.981-4.514 2.56-6.043l4.517-4.517c1.544-1.482 3.645-2.394 5.958-2.394s4.414.912 5.961 2.397c.145.198.234.451.234.724 0 .681-.552 1.234-1.234 1.234-.286 0-.549-.097-.758-.26-1.09-1.048-2.578-1.694-4.216-1.694s-3.126.647-4.221 1.699l-4.513 4.562c-1.077 1.076-1.744 2.564-1.744 4.207s.666 3.13 1.744 4.207c1.092 1.043 2.574 1.685 4.207 1.685s3.115-.642 4.209-1.687l4.537-4.513c.224-.224.534-.363.876-.363.684 0 1.239.555 1.239 1.239 0 .342-.139.652-.363.876l-4.54 4.589c-1.515 1.524-3.613 2.467-5.932 2.467-.005 0-.01 0-.015 0z"/></symbol><symbol id="icon-checkmark" viewBox="0 0 41 32"><path d="m35.387 0-19.867 16.507-7.36-8.027-8.16 8.16 15.36 15.36 25.973-25.973-5.947-6.027z"/></symbol><symbol id="icon-default" viewBox="0 0 28 32"><path d="m13.213 30.267c-1.52.107-2.733 1.333-4.32 1.333-.014 0-.03 0-.046 0-1.64 0-3.122-.679-4.179-1.772-.866-.891-1.4-2.107-1.4-3.448 0-1.65.808-3.112 2.05-4.01.668-.463 1.668-.57 2.174-1.277 1.333-1.8 1.693-4.147 3.547-5.507 2.52-1.84 6.547 0 8.2 2.107.827 1.067 1.333 2.773 2.12 3.827.587.733 1.56.933 2.333 1.413 2.08 1.333 1.533 4.44.453 6.187-1.041 1.716-2.899 2.845-5.021 2.845-.322 0-.638-.026-.946-.076-1.633-.275-2.993-1.662-4.726-1.649z" fill="#e74c3c"/><path d="m6.467 14.747c-.587-2.2-2.067-3.773-3.547-4l-.08-.08c-.478-.803-.761-1.77-.761-2.804 0-.036 0-.072.001-.108-.497.74-.794 1.646-.794 2.621 0 .234.017.465.05.69l-.003.108c-1.16.827-1.68 3-1.08 5.253.707 2.667 2.667 4.347 4.373 3.893s2.533-2.987 1.84-5.573z" fill="#e74c3c"/><path d="m27.267 11.68c.034-.095.062-.208.079-.324.004-.073.006-.148.006-.223 0-1.132-.399-2.17-1.065-2.982.035.218.051.46.051.706 0 .809-.173 1.578-.485 2.271-1.426-.035-2.999 1.445-3.706 3.605-.813 2.48-.2 4.907 1.333 5.427s3.52-1.067 4.333-3.547c.262-.586.414-1.27.414-1.99 0-1.107-.361-2.129-.971-2.957z" fill="#e74c3c"/><path d="m12.733 8.307c-.48-2.453-1.84-4.307-3.293-4.707-.075-.384-.118-.826-.118-1.278 0-.832.146-1.631.413-2.371-1.121.941-1.895 2.208-2.144 3.653-.011.095-.014.165-.014.235s.003.14.009.209c-1.121.938-1.627 3.124-1.174 5.498.587 2.947 2.467 5.12 4.253 4.733s2.667-3.013 2.067-5.973z" fill="#e74c3c"/><path d="m19.907 3.853c.002-.038.003-.082.003-.127s-.001-.089-.004-.133c-.345-1.451-1.191-2.67-2.341-3.488.323.782.521 1.707.521 2.678 0 .283-.017.562-.05.836-1.437.487-2.57 2.634-2.663 5.18-.107 3.013 1.24 5.507 3.013 5.573s3.307-2.32 3.413-5.333c.027-.215.042-.463.042-.715 0-1.762-.743-3.35-1.932-4.468z" fill="#e74c3c"/></symbol><symbol id="icon-menu" viewBox="0 0 43 32"><path d="m0 0h42.667v5.333h-42.667z"/><path d="m0 13.333h42.667v5.333h-42.667z"/><path d="m0 26.667h42.667v5.333h-42.667z"/></symbol><symbol id="icon-reset" viewBox="0 0 39 32"><path d="m26.016 32.02h-15.009v-4.003h15.009c4.974 0 9.006-4.032 9.006-9.006s-4.032-9.006-9.006-9.006h-14.529v-4.003h14.529c7.184 0 13.008 5.824 13.008 13.008s-5.824 13.008-13.008 13.008z" fill="#7f7f7f"/><path d="m13.829 15.97-13.829-7.985 13.829-7.985z" fill="#7f7f7f"/></symbol><symbol id="icon-save" viewBox="0 0 30 32"><path d="m3.556 0v9.481h2.37v-7.111h21.333v22.519h-4.741v4.741h-16.593v-10.667h-2.37v13.037h18.963l7.111-7.111v-24.889h-26.074z"/><path d="m9.481 21.037 8.889-6.839-8.889-6.839v3.307h-9.481v7.111h9.481v3.259z"/></symbol><symbol id="icon-close" viewBox="0 0 32 32"><path d="m16 32c-8.837 0-16-7.163-16-16s7.163-16 16-16 16 7.163 16 16-7.163 16-16 16zm0-29.538c-7.477 0-13.538 6.061-13.538 13.538s6.061 13.538 13.538 13.538 13.538-6.061 13.538-13.538-6.061-13.538-13.538-13.538z" fill="#e74c3c"/><path d="m20.923 22.154c-.002 0-.005 0-.007 0-.338 0-.644-.136-.867-.357l-9.846-9.846c-.224-.224-.362-.533-.362-.874 0-.683.553-1.236 1.236-1.236.341 0 .65.138.874.362l9.846 9.846c.225.223.364.532.364.874 0 .68-.551 1.231-1.231 1.231-.003 0-.005 0-.008 0z" fill="#e74c3c"/><path d="m11.077 22.154c-.002 0-.005 0-.007 0-.68 0-1.231-.551-1.231-1.231 0-.342.139-.651.364-.874l9.846-9.846c.214-.184.494-.296.801-.296.68 0 1.231.551 1.231 1.231 0 .306-.112.587-.297.802l-9.845 9.845c-.22.224-.524.364-.861.369z" fill="#e74c3c"/></symbol><symbol id="icon-collapse" viewBox="0 0 33 32"><path d="m16 32c-.004 0-.009 0-.013 0-.628 0-1.197-.253-1.61-.663l-13.714-13.714c-.411-.413-.665-.983-.665-1.611s.254-1.198.665-1.612l13.714-13.714c.414-.417.988-.676 1.623-.676 1.263 0 2.287 1.024 2.287 2.287 0 .629-.254 1.198-.664 1.612l-12.114 12.091 12.091 12.091c.418.414.676.988.676 1.623 0 1.259-1.018 2.28-2.276 2.286z"/><path d="m30.286 32c-.004 0-.009 0-.013 0-.628 0-1.197-.253-1.61-.663l-13.714-13.714c-.411-.413-.665-.983-.665-1.611s.254-1.198.665-1.612l13.714-13.714c.422-.437 1.014-.708 1.669-.708 1.281 0 2.32 1.039 2.32 2.32 0 .626-.248 1.195-.652 1.612l-12.205 12.091 12.206 12.091c.419.415.679.99.679 1.625 0 1.262-1.023 2.286-2.286 2.286-.038 0-.075-.001-.112-.003z"/></symbol><symbol id="icon-minimize" viewBox="0 0 32 32"><path d="m16 32c-8.837 0-16-7.163-16-16s7.163-16 16-16 16 7.163 16 16-7.163 16-16 16zm0-29.538c-7.477 0-13.538 6.061-13.538 13.538s6.061 13.538 13.538 13.538 13.538-6.061 13.538-13.538-6.061-13.538-13.538-13.538z" fill="#b2b2b2"/><path d="m23.385 17.231h-14.769c-.68 0-1.231-.551-1.231-1.231s.551-1.231 1.231-1.231h14.769c.68 0 1.231.551 1.231 1.231s-.551 1.231-1.231 1.231z" fill="#b2b2b2"/></symbol><symbol id="icon-paw"><path class="fill-active" d="M307.77,285.234c-21.844,27.577-29.103,71.905-4.326,99.947 c3.051,3.07,6.711,5.613,10.819,7.045c28.522,9.524,56.007-14.431,66.226-39.516c12.598-26.873,14.264-64.633-10.464-85.23 c-0.658-0.452-1.333-0.886-2.005-1.285C347.198,253.815,320.3,266.512,307.77,285.234z M475.689,331.231 c-32.565-8.635-64.755,14.589-81.096,41.313c-12.819,20.009-17.9,51.03,2.628,67.929c2.896,2.327,6.193,4.137,9.735,5.269 c39.494,9.202,77.307-22.405,90.225-57.956c6.694-17.844,3.391-42.844-13.444-53.123 C481.332,333.195,478.657,332.035,475.689,331.231z M184.166,341.967c-15.871,29.556-13.809,75.745,17.55,94.369 c23.566,11.493,49.479-8.949,57.03-31.057c13.004-29.192,9.769-70.362-18.753-89.186 C218.03,304.826,193.257,321.608,184.166,341.967z M478.236,467.41c-35.419-2.378-71.74,22.877-81.04,57.317 c-4.314,16.122,2.263,35.388,18.863,41.525c40.345,13.717,87.34-16.863,96.114-57.367c3.269-15.148-4.746-29.813-17.377-36.961 C489.853,469.126,484.188,467.482,478.236,467.41z M286.725,446.284c-36.131,0.684-69.348,17.773-100.637,34.216 c-17.22,11.317-37.948,24.876-41.741,46.625c-1.813,22.439,19.255,38.18,39.664,40.629c23.426,3.819,48.993,3.751,68.493,19.356 c24.456,15.843,36.19,45.823,61.941,59.752c21.146,12.026,49.447-1.875,54.116-25.457c10.284-30.567,10.743-63.962,6.036-95.606 c-5.209-27.824-23.016-54.777-47.625-69.056C314.955,449.771,301.313,445.828,286.725,446.284z"/></symbol></defs></svg>
