<?xml version="1.0" encoding="UTF-8" standalone="no"?>
<svg
   xmlns:dc="http://purl.org/dc/elements/1.1/"
   xmlns:cc="http://creativecommons.org/ns#"
   xmlns:rdf="http://www.w3.org/1999/02/22-rdf-syntax-ns#"
   xmlns:svg="http://www.w3.org/2000/svg"
   xmlns="http://www.w3.org/2000/svg"
   id="svg6"
   viewBox="0 0 32 32"
   height="32"
   width="32"
   version="1.1">
  <metadata
     id="metadata12">
    <rdf:RDF>
      <cc:Work
         rdf:about="">
        <dc:format>image/svg+xml</dc:format>
        <dc:type
           rdf:resource="http://purl.org/dc/dcmitype/StillImage" />
        <dc:title></dc:title>
      </cc:Work>
    </rdf:RDF>
  </metadata>
  <defs
     id="defs10" />
  <g
     id="g4"
     transform="matrix(0.93333489,0,0,0.93333489,-132.62215,-577.85695)">
    <path
       id="path2"
       class="fill-active"
       d="m 157.63764,623.11726 c -1.6803,2.1213 -2.23869,5.53115 -0.33277,7.68823 0.23469,0.23615 0.51623,0.43177 0.83224,0.54193 2.19399,0.73261 4.30823,-1.11008 5.0943,-3.0397 0.96909,-2.06716 1.09724,-4.97178 -0.80491,-6.55616 -0.0507,-0.0348 -0.10255,-0.0682 -0.15424,-0.0988 -1.60169,-0.95231 -3.67077,0.0244 -4.63462,1.46455 z m 12.91686,3.53823 c -2.505,-0.66423 -4.98116,1.12223 -6.23816,3.17792 -0.98608,1.53916 -1.37692,3.92539 0.20216,5.22532 0.22277,0.17899 0.47638,0.31822 0.74885,0.40531 3.038,0.70784 5.94669,-1.72347 6.94038,-4.45817 0.51492,-1.37261 0.26085,-3.29569 -1.03415,-4.08638 -0.18501,-0.11292 -0.39077,-0.20216 -0.61908,-0.264 z m -22.42486,0.82584 c -1.22085,2.27355 -1.06224,5.82655 1.35,7.25916 1.81277,0.88409 3.80608,-0.68838 4.38693,-2.389 1.00031,-2.24554 0.75145,-5.41247 -1.44254,-6.86047 -1.68947,-0.86669 -3.59509,0.42423 -4.29439,1.99031 z m 22.62078,9.64947 c -2.72453,-0.18292 -5.51847,1.75977 -6.23385,4.40901 -0.33184,1.24015 0.17408,2.72216 1.45101,3.19423 3.10346,1.05515 6.71846,-1.29715 7.39339,-4.41285 0.25146,-1.16523 -0.36509,-2.29331 -1.3367,-2.84315 -0.38023,-0.21524 -0.816,-0.3417 -1.27385,-0.34724 z m -14.73163,-1.62508 c -2.77931,0.0527 -5.33446,1.36716 -7.74131,2.63201 -1.32461,0.87053 -2.91908,1.91354 -3.21085,3.58654 -0.13946,1.72608 1.48116,2.93692 3.05108,3.12531 1.80201,0.29377 3.7687,0.28854 5.2687,1.48893 1.88124,1.21869 2.78385,3.52485 4.7647,4.59631 1.62662,0.92507 3.80362,-0.14424 4.16276,-1.95824 0.79109,-2.3513 0.8264,-4.92015 0.46432,-7.35431 -0.4007,-2.14031 -1.77047,-4.21362 -3.66347,-5.312 -0.92438,-0.53632 -1.97377,-0.83962 -3.09593,-0.80455 z"
       style="stroke-width:0.07692314" />
  </g>
</svg>
