<svg version="1.1" xmlns="http://www.w3.org/2000/svg" width="32" height="32" viewBox="0 0 32 32">
<path class="fill-active" d="M20.139 14.603c0 0 0.001 0 0.002 0 1.936 0 3.512-1.54 3.572-3.461l0-0.005v-1.6c0.003-0.059 0.005-0.127 0.005-0.197 0-2.003-1.624-3.627-3.627-3.627s-3.627 1.624-3.627 3.627c0 0.069 0.002 0.138 0.006 0.206l-0-0.009v1.6c0.059 1.928 1.635 3.468 3.572 3.468 0.034 0 0.069-0 0.103-0.001l-0.005 0z"></path>
<path class="fill-active" d="M23.168 14.805c-0.809 0.703-1.872 1.131-3.035 1.131-0.002 0-0.003 0-0.005 0h0c-0.008 0-0.017 0-0.026 0-1.163 0-2.227-0.428-3.041-1.136l0.006 0.005c-0.239 0.048-0.436 0.1-0.629 0.161l0.042-0.012c-0.039 0.995-0.386 1.901-0.947 2.635l0.008-0.011c2.492 0.597 4.443 2.449 5.171 4.835l0.013 0.050c7.467-0.085 7.467-1.739 7.467-1.739 0-0.001 0-0.003 0-0.004 0-2.968-2.157-5.432-4.989-5.911l-0.035-0.005z"></path>
<path class="fill-active" d="M11.872 18.336c0 0 0.001 0 0.002 0 1.936 0 3.512-1.54 3.572-3.461l0-0.005v-1.6c0.003-0.059 0.005-0.127 0.005-0.197 0-2.003-1.624-3.627-3.627-3.627s-3.627 1.624-3.627 3.627c0 0.069 0.002 0.138 0.006 0.206l-0-0.009v1.6c0.059 1.928 1.635 3.468 3.572 3.468 0.034 0 0.069-0 0.103-0.001l-0.005 0z"></path>
<path class="fill-active" d="M14.933 18.539c-0.809 0.705-1.874 1.135-3.040 1.135s-2.231-0.43-3.046-1.139l0.006 0.005c-2.91 0.441-5.115 2.922-5.12 5.919v0.001s0 1.749 8.139 1.749 8.139-1.749 8.139-1.749c-0.002-2.985-2.186-5.46-5.043-5.916l-0.034-0.005z"></path>
</svg>
