<svg enable-background="new 0 0 48 24" viewBox="0 0 48 24" xmlns="http://www.w3.org/2000/svg"><g fill="#939393"><path d="m10 5.8c0 2.8 2.2 5 5 5s5-2.2 5-5-2.2-4.8-5-4.8-5 2.1-5 4.8"/><path d="m15 10c5 0 9 4.5 9 10h-18c0-5.5 4-10 9-10"/><path d="m23 19c-.4-4-3.8-8-8-8s-7.5 4-8 8z"/><circle cx="15" cy="5.8" r="4"/><circle cx="10" cy="9.8" r="5"/><path d="m10 14c5 0 9 4.5 9 10h-18c0-5.5 4-10 9-10"/><path d="m18 23c-.4-4-3.8-8-8-8s-7.5 4-8 8z"/><circle cx="10" cy="9.8" r="4"/></g><g fill="#5a5a5a"><path d="m9 4.8c0 2.8 2.2 5 5 5s5-2.2 5-5-2.2-4.8-5-4.8-5 2.1-5 4.8z"/><path d="m14 9c5 0 9 4.5 9 10h-18c0-5.5 4-10 9-10z"/></g><g fill="#d6d6d6"><path d="m22 18c-.4-4-3.8-8-8-8s-7.5 4-8 8z"/><circle cx="14" cy="4.8" r="4"/></g><g fill="#5a5a5a"><circle cx="9" cy="8.8" r="5"/><path d="m9 13c5 0 9 4.5 9 10h-18c0-5.5 4-10 9-10"/></g><g fill="#d6d6d6"><path d="m17 22c-.4-4-3.8-8-8-8s-7.5 4-8 8z"/><circle cx="9" cy="8.8" r="4"/></g><g fill="#939393"><path d="m34 5.8c0 2.8 2.2 5 5 5s5-2.2 5-5-2.2-4.8-5-4.8-5 2.1-5 4.8"/><path d="m39 10c5 0 9 4.5 9 10h-18c0-5.5 4-10 9-10"/><path d="m47 19c-.4-4-3.8-8-8-8s-7.5 4-8 8z"/><circle cx="39" cy="5.8" r="4"/><circle cx="34" cy="9.8" r="5"/><path d="m34 14c5 0 9 4.5 9 10h-18c0-5.5 4-10 9-10"/><path d="m42 23c-.4-4-3.8-8-8-8s-7.5 4-8 8z"/><circle cx="34" cy="9.8" r="4"/></g><g fill="#5a5a5a"><path d="m33 4.8c0 2.8 2.2 5 5 5s5-2.2 5-5-2.2-4.8-5-4.8-5 2.1-5 4.8"/><path d="m38 9c5 0 9 4.5 9 10h-18c0-5.5 4-10 9-10"/></g><g fill="#ac382e"><path d="m46 18c-.4-4-3.8-8-8-8s-7.5 4-8 8z"/><circle cx="38" cy="4.8" r="4"/></g><g fill="#5a5a5a"><circle cx="33" cy="8.8" r="5"/><path d="m33 13c5 0 9 4.5 9 10h-18c0-5.5 4-10 9-10"/></g><g fill="#e74c3c"><path d="m41 22c-.4-4-3.8-8-8-8s-7.5 4-8 8z"/><circle cx="33" cy="8.8" r="4"/></g></svg>