<svg xmlns="http://www.w3.org/2000/svg" viewBox="0 0 43.3628 22.75"><g fill="#fff" color="#000" transform="translate(-.453-1009.27)"><path d="m1.953 1009.27h40.36a1.5 1.5 0 0 1 1.5 1.5 1.5 1.5 0 0 1 -1.5 1.5h-40.36a1.5 1.5 0 0 1 -1.5 -1.5 1.5 1.5 0 0 1 1.5 -1.5"/><path d="m1.953 1019.15h40.36a1.5 1.5 0 0 1 1.5 1.5 1.5 1.5 0 0 1 -1.5 1.5h-40.36a1.5 1.5 0 0 1 -1.5 -1.5 1.5 1.5 0 0 1 1.5 -1.5"/><path d="m1.953 1029.02h40.36a1.5 1.5 0 0 1 1.5 1.5 1.5 1.5 0 0 1 -1.5 1.5h-40.36a1.5 1.5 0 0 1 -1.5 -1.5 1.5 1.5 0 0 1 1.5 -1.5"/></g></svg>