<svg xmlns="http://www.w3.org/2000/svg" viewBox="0 0 48 24" enable-background="new 0 0 48 24"><path fill="#939393" d="m24 4.7c-.9-2.2-3.1-3.7-5.6-3.7-2.9 0-5.4 2.1-5.9 4.9-.9-.7-2-1.1-3.2-1.1-2 0-3.6 1.1-4.5 2.6h-.9c-.2 0-.5 0-.7.1-.1 0-.2 0-.3 0h-.1c-.3 0-.5.3-.5.7 0 .1 0 .2 0 .3 0 .2 0 .4 0 .7v.5c0 .1 0 .1 0 .2 0 .4.2.9.4 1.2.2.3.4.6.7.8.3 0 .6.1.9.2.2 0 .3.1.5.1.5.9 1.4 1.6 2.3 2.1-4 1.1-7.1 5.4-7.1 9.7h18.5c0-4.3-3.1-8.6-7.2-9.7 1.1-.5 1.9-1.3 2.4-2.2.1 0 .1 0 .2-.1.3-.1.5-.2.6-.4.5.4 1.1.8 1.8 1 .6.2 1.5.9 0 2.4 3-.8 2.3-2 3.9-2.4 1.7-.6 3-1.8 3.6-3.5v-4.4z"/><path fill="#5a5a5a" d="m23.8 6c0 2.6-1.7 4.8-4 5.7-1.5.3-.9 1.5-3.8 2.3 1.4-1.5.6-2.2 0-2.4-2.3-.8-3.9-3-3.9-5.6 0-3.3 2.6-6 5.8-6s5.9 2.7 5.9 6"/><ellipse fill="#d6d6d6" cx="17.9" cy="6" rx="5.1" ry="5.2"/><g fill="#5a5a5a"><path d="m17.9 2.7c1.5-.2 3 .3 4 1.2-.3-.4-.7-.8-1.2-1.2-2.1-1.5-4.8-1.2-6.1.6-.6.8-.8 1.8-.6 2.7.5-1.6 2-3 3.9-3.3"/><circle cx="9" cy="8.7" r="5"/><path d="m9 13c5 0 9 5 9 10h-18c0-5 4-10 9-10"/></g><g fill="#d6d6d6"><path d="m17 22c-.4-4-3.8-8-8-8s-7.5 4-8 8h16"/><circle cx="9" cy="8.7" r="4"/></g><path fill="#5a5a5a" stroke="#5a5a5a" d="m12.2 6.5c.1 0 .1 0 0 0l.1.2c.3 0 .7.1 1 .1.3 0 .7.1 1 .1.1 0 .2.1.3.1 0 0 .1 0 .1.1 0 0-.1 0-.1.1 0 0-.1.1-.1.1 0 .1 0 .2 0 .3 0 0 .1.1.1.1 0 .3 0 .7 0 1 0 .3-.1.7-.2 1-.1.2-.2.3-.3.5-.2.2-.4.3-.6.4-.4.2-.8.1-1.2.1-.1 0-.1-.1-.2-.1-.1 0-.2 0-.2 0 0 0 0 .1 0 .1-.3 0-.6 0-.9-.1-.2-.1-.4-.1-.6-.2-.2-.1-.3-.3-.4-.5-.3-.5-.5-1-.5-1.6-.2-.2-.3-.2-.4-.3-.2-.1-.4-.1-.6-.1-.2.1-.3.2-.5.3 0 .2 0 .4-.1.6-.1.4-.3.8-.5 1.2-.2.3-.5.5-.8.6-.2.1-.5 0-.8 0-.1 0-.1-.1-.2-.1-.1 0-.2 0-.2 0 0 0 0 .1 0 .1-.3 0-.7 0-1-.1-.2-.1-.5-.1-.7-.3-.3-.1-.5-.2-.6-.5-.2-.3-.3-.6-.3-1 0-.1 0-.2 0-.2 0-.1 0-.3 0-.4 0-.2 0-.4 0-.6 0-.1 0-.2 0-.4-.1-.1-.1-.1 0-.1.1 0 .2 0 .3-.1.2 0 .4 0 .7 0 .4 0 .8-.2 1.1-.2.1 0 .1-.2.2-.2 0 0 .1 0 .1 0 0 0 0 .2 0 .2.2 0 .3.1.5.1.4 0 .8.1 1.1.2.2 0 .4.1.6.2.1 0 .1.1.2.1.2.1.4.1.6.2.3.1.6.1.9 0 .2 0 .4-.1.7-.2.1 0 .1-.1.2-.1.1-.1.4-.2.6-.2.2 0 .4-.1.6-.1.3 0 .5-.2.8-.2.1 0 .2-.2.2-.2z"/><g fill="#fff"><path d="m12.1 7.2c.4 0 .8 0 1.2.1.2 0 .4.1.6.1.1.1.2.1.3.3.1.2.1.3.1.5 0 .3 0 .7-.1 1-.1.2-.2.4-.4.6-.2.2-.4.3-.6.4-.3.1-.7.2-1.1.2-.3 0-.5 0-.8 0-.2 0-.4-.1-.6-.2-.2-.1-.3-.2-.4-.3-.2-.2-.3-.6-.4-.9-.1-.2-.1-.3-.1-.5 0-.2 0-.4 0-.6 0-.2.2-.3.3-.4.2-.1.4-.1.6-.2.3-.1.7-.1 1-.1.1 0 .3 0 .4 0"/><path d="m5.1 7c.4 0 .8.1 1.2.2.3 0 .5.1.8.2 0 0 .1.1.1.1.2.1.3.2.3.4.1.2.1.4 0 .5 0 .4-.1.7-.3 1.1-.1.2-.3.5-.5.6-.1.1-.2.1-.3.2-.2.1-.5.1-.8.1-.2 0-.5 0-.7 0-.4 0-.7-.1-1.1-.3-.1-.1-.3-.3-.4-.6-.2-.3-.3-.7-.3-1 0-.2 0-.5.1-.7 0-.1.1-.2.1-.2.1-.1.2-.2.3-.2.2-.1.4-.2.6-.2.3-.1.5-.2.8-.2 0 0 .1 0 .1 0"/></g><path fill="#939393" d="m48 4.7c-.9-2.2-3.1-3.7-5.6-3.7-2.9 0-5.4 2.1-5.9 4.9-.9-.7-2-1.1-3.2-1.1-2 0-3.6 1.1-4.5 2.6h-.9c-.2 0-.5 0-.7.1-.1 0-.2 0-.3 0h-.1c-.3 0-.5.3-.5.7 0 .1 0 .2 0 .3 0 .2 0 .4 0 .7v.5c0 .1 0 .1 0 .2 0 .4.2.9.4 1.2.2.3.4.6.7.8.3.2.5.3.9.4.2 0 .3.1.5.1.5.9 1.4 1.6 2.3 2.1-4 .9-7.1 5.2-7.1 9.5h18.5c0-4.3-3.1-8.6-7.2-9.7 1.1-.5 1.9-1.3 2.4-2.2.1 0 .1 0 .2-.1.3-.1.5-.2.6-.4.5.4 1.1.8 1.8 1 .6.2 1.5.9 0 2.4 3-.8 2.3-2 3.9-2.4 1.7-.6 3-1.8 3.6-3.5v-4.4z"/><path fill="#ac382e" d="m47.8 6c0 2.6-1.7 4.8-4 5.7-1.5.3-.9 1.5-3.8 2.3 1.4-1.5.6-2.2 0-2.4-2.3-.8-3.9-3-3.9-5.6 0-3.3 2.6-6 5.8-6s5.9 2.7 5.9 6"/><ellipse fill="#fff" cx="41.9" cy="6" rx="5.1" ry="5.2"/><path fill="#e74c3c" d="m41.9 2.7c1.5-.2 3 .3 4 1.2-.3-.4-.7-.8-1.2-1.2-2.1-1.5-4.8-1.2-6.1.6-.6.8-.8 1.8-.6 2.7.5-1.6 2-3 3.9-3.3"/><g fill="#5a5a5a"><circle cx="33" cy="8.7" r="5"/><path d="m33 13c5 0 9 5 9 10h-18c0-5 4-10 9-10"/></g><g fill="#e74c3c"><path d="m41 22c-.4-4-3.8-8-8-8s-7.5 4-8 8h16"/><circle cx="33" cy="8.7" r="4"/></g><path fill="#5a5a5a" stroke="#5a5a5a" d="m36.2 6.5c.1 0 .1 0 0 0l.1.2c.3 0 .7.1 1 .1.3 0 .7.1 1 .1.1 0 .2.1.3.1 0 0 .1 0 .1.1 0 0-.1 0-.1.1 0 0-.1.1-.1.1 0 .1 0 .2 0 .3 0 0 .1.1.1.1 0 .3 0 .7 0 1 0 .3-.1.7-.2 1-.1.2-.2.3-.3.5-.2.2-.4.3-.6.4-.4.2-.8.1-1.2.1-.1 0-.1-.1-.2-.1-.1 0-.2 0-.2 0 0 0 0 .1 0 .1-.3 0-.6 0-.9-.1-.2-.1-.4-.1-.6-.2-.2-.1-.3-.3-.4-.5-.3-.5-.5-1-.5-1.6-.1-.1-.2-.2-.3-.2-.2-.1-.4-.1-.6-.1-.2 0-.4.2-.5.3 0 .2 0 .4-.1.6-.1.4-.3.8-.5 1.2-.2.3-.5.5-.8.6-.2.1-.5 0-.8 0-.1 0-.1-.1-.2-.1-.1 0-.2 0-.2 0 0 0 0 .1 0 .1-.3 0-.7 0-1-.1-.2-.1-.5-.1-.7-.3-.2-.2-.4-.3-.6-.6-.2-.3-.3-.6-.3-1 0-.1 0-.2 0-.2 0-.1 0-.3 0-.4 0-.2 0-.4 0-.6 0-.1 0-.2 0-.4 0-.1 0-.1.1-.1.1 0 .2 0 .3-.1.2 0 .4 0 .7 0 .4 0 .8-.2 1.1-.2.1 0 .1-.2.2-.2 0 0 .1 0 .1 0 0 0 0 .2 0 .2.2 0 .3.1.5.1.4 0 .8.1 1.1.2.2 0 .4.1.6.2.1 0 .1.1.2.1.2.1.4.1.5.2.3.1.6.1.9 0 .2 0 .4-.1.7-.2.1 0 .1-.1.2-.1 0-.1.3-.2.5-.2.2 0 .4-.1.6-.1.3 0 .5-.2.8-.2.1 0 .2-.2.2-.2z"/><g fill="#fff"><path d="m36.1 7.2c.4 0 .8 0 1.2.1.2 0 .4.1.6.1.1.1.2.1.3.3.1.2.1.3.1.5 0 .3 0 .7-.1 1-.1.2-.2.4-.4.6-.2.2-.4.3-.6.4-.3.1-.7.2-1.1.2-.3 0-.5 0-.8 0-.2 0-.4-.1-.6-.2-.2-.1-.3-.2-.4-.3-.2-.2-.3-.6-.4-.9-.1-.2-.1-.4-.1-.5 0-.2 0-.4 0-.6 0-.2.2-.3.3-.4.2-.1.4-.1.6-.2.3-.1.7-.1 1-.1.1 0 .3 0 .4 0"/><path d="m29.1 7c.4 0 .8.1 1.2.2.3 0 .5.1.8.2 0 0 .1.1.1.1.2.1.3.2.3.4.1.2.1.4 0 .5 0 .4-.1.7-.3 1.1-.1.2-.3.5-.5.6-.1.1-.2.1-.3.2-.2.1-.5.1-.8.1-.2 0-.5 0-.7 0-.4 0-.7-.1-1.1-.3-.3-.1-.5-.3-.6-.6-.2-.3-.3-.7-.3-1 0-.2 0-.5.1-.7 0-.1.1-.2.1-.2.1-.1.2-.2.3-.2.2-.1.4-.2.6-.2.5-.1.7-.2 1-.2 0 0 .1 0 .1 0"/></g></svg>