<svg xmlns="http://www.w3.org/2000/svg" viewBox="0 0 48 24" enable-background="new 0 0 48 24"><g fill="#939393"><path d="M24,20.3c0,1.5-1.3,2.7-3,2.7H4c-1.7,0-3-1.2-3-2.7V4.7C1,3.2,2.3,2,4,2h17c1.7,0,3,1.2,3,2.7V20.3z"/><path d="m16.5 19s0 5 2 5c-4 0-7-5-7-5h5"/></g><path fill="#5a5a5a" d="m20 21h-17c-1.7 0-3-1.3-3-3v-15c0-1.7 1.3-3 3-3h17c1.7 0 3 1.3 3 3v15c0 1.7-1.3 3-3 3"/><path fill="#d6d6d6" d="m2 17v-13h19v13c0 1.1-.9 2-2 2h-15c-1.1 0-2-.9-2-2"/><g fill="#fff"><path d="m11 1h2v2h-2z"/><path d="m15 1h2v2h-2z"/><path d="m19 1h2v2h-2z"/></g><g fill="#5a5a5a"><path d="m16.5 18s0 5 2 5c-4 0-7-5-7-5h5"/><path d="m19 16c0 1.1-.9 2-2 2h-12c-1.1 0-2-.9-2-2v-9c0-1.1.9-2 2-2h12c1.1 0 2 .9 2 2v9"/></g><path fill="#fff" d="m5 17c-.6 0-1-.4-1-1v-9c0-.6.4-1 1-1h12c.6 0 1 .4 1 1v9c0 .6-.4 1-1 1h-12"/><circle fill="#5a5a5a" cx="18" cy="9" r="5"/><circle fill="#fff" cx="18" cy="9" r="4"/><g fill="#5a5a5a"><path d="m17 6h2v6h-2z"/><path d="m15 8h6v2h-6z"/></g><g fill="#939393"><path d="m48 20.3c0 1.5-1.3 2.7-3 2.7h-17c-1.7 0-3-1.2-3-2.7v-15.6c0-1.5 1.3-2.7 3-2.7h17c1.7 0 3 1.2 3 2.7v15.6"/><path d="m40.5 19s0 5 2 5c-4 0-7-5-7-5h5"/></g><path fill="#ac382e" d="m44 21h-17c-1.7 0-3-1.3-3-3v-15c0-1.7 1.3-3 3-3h17c1.7 0 3 1.3 3 3v15c0 1.7-1.3 3-3 3"/><g fill="#fff"><path d="m26 17v-13h19v13c0 1.1-.9 2-2 2h-15c-1.1 0-2-.9-2-2"/><path d="m35 1h2v2h-2z"/><path d="m39 1h2v2h-2z"/><path d="m43 1h2v2h-2z"/></g><g fill="#5a5a5a"><path d="m40.5 18s0 5 2 5c-4 0-7-5-7-5h5"/><path d="m43 16c0 1.1-.9 2-2 2h-12c-1.1 0-2-.9-2-2v-9c0-1.1.9-2 2-2h12c1.1 0 2 .9 2 2v9"/></g><path fill="#fff" d="m29 17c-.6 0-1-.4-1-1v-9c0-.6.4-1 1-1h12c.6 0 1 .4 1 1v9c0 .6-.4 1-1 1h-12"/><circle fill="#ac382e" cx="42" cy="9" r="5"/><circle fill="#fff" cx="42" cy="9" r="4"/><g fill="#5a5a5a"><path d="m41 6h2v6h-2z"/><path d="m39 8h6v2h-6z"/></g></svg>