<svg xmlns="http://www.w3.org/2000/svg" viewBox="0 0 48 24" enable-background="new 0 0 48 24"><path fill="#939393" d="M24,21.3c0,1.5-1.3,2.7-3,2.7H4c-1.7,0-3-1.2-3-2.7V3.7C1,2.2,2.3,1,4,1h17c1.7,0,3,1.2,3,2.7V21.3z"/><path fill="#5a5a5a" d="m20 23h-17c-1.7 0-3-1.3-3-3v-17c0-1.7 1.3-3 3-3h17c1.7 0 3 1.3 3 3v17c0 1.7-1.3 3-3 3"/><path fill="#d6d6d6" d="m2 19v-15h19v15c0 1.1-.9 2-2 2h-15c-1.1 0-2-.9-2-2"/><g fill="#fff"><path d="m2 1h2v2h-2z"/><path d="m19 1h2v1h-2z"/><path d="m15 1h2v1h-2z"/></g><g fill="#5a5a5a"><path d="m16.5 18s0 3 2 3c-4 0-7-3-7-3h5"/><path d="m19 16c0 1.1-.9 2-2 2h-12c-1.1 0-2-.9-2-2v-9c0-1.1.9-2 2-2h12c1.1 0 2 .9 2 2v9"/></g><path fill="#fff" d="m18 16c0 .6-.4 1-1 1h-12c-.6 0-1-.4-1-1v-9c0-.6.4-1 1-1h12c.6 0 1 .4 1 1v9"/><path fill="#939393" d="m48 21.3c0 1.5-1.3 2.7-3 2.7h-17c-1.7 0-3-1.2-3-2.7v-17.6c0-1.5 1.3-2.7 3-2.7h17c1.7 0 3 1.2 3 2.7v17.6"/><path fill="#ac382e" d="m44 23h-17c-1.7 0-3-1.3-3-3v-17c0-1.7 1.3-3 3-3h17c1.7 0 3 1.3 3 3v17c0 1.7-1.3 3-3 3"/><g fill="#fff"><path d="m26 19v-15h19v15c0 1.1-.9 2-2 2h-15c-1.1 0-2-.9-2-2"/><path d="m26 1h2v2h-2z"/><path d="m43 1h2v1h-2z"/><path d="m39 1h2v1h-2z"/></g><g fill="#e74c3c"><path d="m40.5 18s0 3 2 3c-4 0-7-3-7-3h5"/><path d="m43 16c0 1.1-.9 2-2 2h-12c-1.1 0-2-.9-2-2v-9c0-1.1.9-2 2-2h12c1.1 0 2 .9 2 2v9"/></g><path fill="#fff" d="m42 16c0 .6-.4 1-1 1h-12c-.6 0-1-.4-1-1v-9c0-.6.4-1 1-1h12c.6 0 1 .4 1 1v9"/></svg>