<svg xmlns="http://www.w3.org/2000/svg" viewBox="0 0 48 24" enable-background="new 0 0 48 24"><g fill="#939393"><path d="m22.1 11.7c-.9-.9-2.1-1.6-3.3-2-.9-.3-1.8-.5-2.7-.5-.6 0-1.3 0-1.9.1-1.1.1-2.2.4-3.3 1-.8.4-1.5.9-2.1 1.5-.7.7-1.3 1.5-1.6 2.4-.3.8-.4 1.5-.3 2.4.1 1.3.5 2.4 1.3 3.4.7.9 1.6 1.6 2.5 2.1 1 .5 2 .8 3.1 1 .5.1 1.1.1 1.6.1 1 0 2-.1 2.9-.4 0 0 .1 0 .1 0 .6.4 1.2.7 1.9 1 .6.2 1.3.3 1.9.4.1 0 .2 0 .3-.1.2-.1.2-.2.2-.4 0-.2-.1-.3-.3-.4-.2-.1-.5-.2-.7-.4-.4-.3-.7-.8-.9-1.3 0 0 0-.1 0-.1.7-.5 1.3-1.1 1.8-1.7.6-.8.9-1.6 1.1-2.6.2-1.2 0-2.4-.5-3.4-.1-1-.6-1.6-1.1-2.1m.6 6.3c-.3.8-.8 1.4-1.5 2-.3.3-.7.6-1.1.8 0 0 0 0 0 .1 0 .5.1 1 .3 1.5.1.1.2.3.3.4-.3-.1-.5-.2-.8-.3-.5-.2-.9-.5-1.3-.9 0 0 0 0-.1 0-.8.2-1.7.4-2.5.4-.6 0-1.2 0-1.8-.1-.7-.1-1.4-.2-2-.5-1.1-.4-2.1-1-2.9-1.8-.5-.5-.9-1.1-1.1-1.7-.4-.9-.5-1.9-.3-2.9.2-.8.5-1.5 1-2.1.7-.9 1.6-1.5 2.6-2 1.2-.6 2.5-.9 3.9-.9.7 0 1.3.1 2 .2 1 .2 2 .6 2.9 1.1.8.5 1.4 1.1 1.9 1.8.6.8.9 1.8.9 2.8 0 .8-.1 1.4-.4 2.1"/><path d="m20.7 22.8c-.1-.1-.2-.3-.3-.4-.2-.5-.3-1-.3-1.5 0 0 0 0 0-.1.4-.2.8-.5 1.1-.8.6-.6 1.1-1.2 1.5-2 .3-.6.4-1.3.4-2 0-1-.3-1.9-.9-2.8-.5-.7-1.2-1.3-1.9-1.8-.9-.6-1.9-.9-2.9-1.1-.7-.1-1.3-.2-2-.2-1.4 0-2.7.3-3.9.9-1 .5-1.9 1.1-2.6 2-.5.6-.8 1.3-1 2.1-.2 1-.1 2 .3 2.9.3.6.7 1.2 1.1 1.7.8.8 1.8 1.4 2.9 1.8.7.2 1.3.4 2 .5.6.1 1.2.1 1.8.1.8 0 1.7-.2 2.5-.5 0 0 0 0 .1 0 .4.4.8.7 1.3.9.2.1.4.2.8.3"/><path d="m9.4 14.9c-1 0-2-.1-2.9-.4 0 0-.1 0-.1 0-.6.4-1.2.7-1.9 1-.6.2-1.3.3-1.9.4-.1 0-.2 0-.3-.1-.2-.1-.2-.2-.2-.4 0-.2.1-.3.3-.4.2-.1.5-.2.7-.4.4-.3.7-.8.9-1.3 0 0 0-.1 0-.1-.7-.5-1.3-1.1-1.8-1.7-.8-.8-1.2-1.6-1.4-2.6-.2-1.2 0-2.4.5-3.4.3-.7.8-1.3 1.3-1.9 1-.9 2.1-1.6 3.4-2 .9-.3 1.8-.5 2.7-.6.6 0 1.3 0 1.9.1 1.1.1 2.2.4 3.3 1 .8.4 1.5.9 2.1 1.5.7.6 1.2 1.4 1.6 2.4.3.8.4 1.5.3 2.4-.1 1.3-.5 2.4-1.3 3.4-.7.9-1.6 1.6-2.5 2.1-1 .5-2 .8-3.1 1-.5 0-1.1 0-1.6 0m-5.3-.2c0 0 0 0 0 0 .3-.1.6-.2.8-.3.5-.2.9-.5 1.3-.9 0 0 0 0 .1 0 .8.3 1.6.4 2.5.5.6 0 1.2 0 1.8-.1.7-.1 1.4-.2 2-.5 1.1-.4 2.1-1 2.9-1.8.5-.5.9-1.1 1.1-1.7.4-.9.5-1.9.3-2.9-.2-.8-.5-1.5-1-2.1-.7-.9-1.6-1.5-2.6-2-1.2-.6-2.5-.9-3.9-.9-.6 0-1.3 0-2 .2-1 .2-2 .6-2.9 1.1-.7.5-1.4 1.1-1.9 1.8-.6.9-.9 1.8-.9 2.8 0 .7.1 1.4.4 2 .3.8.8 1.4 1.5 2 .3.3.7.6 1.1.8 0 0 0 0 0 .1 0 .5-.1 1-.3 1.5-.1.1-.2.2-.3.4"/><path d="m4.1 14.7c.1-.1.2-.3.3-.4.2-.5.3-1 .3-1.5 0 0 0 0 0-.1-.4-.2-.8-.5-1.1-.8-.6-.6-1.1-1.2-1.5-2-.3-.6-.4-1.3-.4-2 0-1 .3-1.9.9-2.8.5-.7 1.2-1.3 1.9-1.8.9-.6 1.9-.9 2.9-1.1.7-.2 1.4-.2 2-.2 1.4 0 2.7.3 3.9.9 1 .5 1.9 1.1 2.6 2 .5.6.8 1.3 1 2.1.2 1 .1 2-.3 2.9-.3.6-.7 1.2-1.1 1.7-.8.8-1.8 1.4-2.9 1.8-.7.2-1.3.4-2 .5-.7.1-1.3.1-1.8.1-.8 0-1.7-.2-2.5-.5 0 0 0 0-.1 0-.4.4-.8.7-1.3.9-.2.1-.5.2-.8.3"/></g><path fill="#5a5a5a" d="m13 21.9c-1.1-.2-2.1-.5-3.1-1-1-.5-1.8-1.2-2.5-2.1-.8-1-1.2-2.1-1.3-3.4-.1-.8 0-1.6.3-2.4.3-.9.9-1.7 1.6-2.4.6-.6 1.3-1.1 2.1-1.5 1-.5 2.1-.8 3.3-1 .6-.1 1.3-.1 1.9-.1.9.1 1.8.2 2.7.5 1.3.4 2.4 1.1 3.3 2 .5.5 1 1.2 1.3 1.9.5 1.1.7 2.2.5 3.4-.2.9-.5 1.8-1.1 2.6-.5.7-1.1 1.3-1.8 1.7 0 0 0 0 0 .1.1.5.4 1 .9 1.3.2.2.4.3.7.4.2.1.3.2.3.4 0 .2-.1.3-.2.4-.2.3-.3.3-.4.3-.7-.1-1.3-.2-1.9-.4-.7-.2-1.4-.5-1.9-1 0 0-.1 0-.1 0-1 .3-1.9.4-2.9.4-.6 0-1.2-.1-1.7-.1m6.6-.6c-.2-.5-.3-1-.3-1.5 0 0 0 0 0-.1.4-.2.8-.5 1.1-.8.6-.6 1.1-1.2 1.5-2 .3-.6.4-1.3.4-2 0-1-.3-1.9-.9-2.8-.5-.7-1.2-1.3-1.9-1.8-.9-.6-1.9-.9-2.9-1.1-.7-.1-1.3-.2-2-.2-1.4 0-2.7.3-3.9.9-1 .5-1.9 1.1-2.6 2-.5.6-.8 1.3-1 2.1-.2 1-.1 2 .3 2.9.3.6.7 1.2 1.1 1.7.8.8 1.8 1.4 2.9 1.8.7.2 1.3.4 2 .5.6.1 1.2.1 1.8.1.8 0 1.7-.2 2.5-.5 0 0 0 0 .1 0 .4.4.8.7 1.3.9.3.1.5.2.8.3-.1-.1-.2-.2-.3-.4"/><path fill="#d6d6d6" d="m19.9 21.7c-.1-.1-.2-.3-.3-.4-.2-.5-.3-1-.3-1.5 0 0 0 0 0-.1.4-.2.8-.5 1.1-.8.6-.6 1.1-1.2 1.5-2 .3-.6.4-1.3.4-2 0-1-.3-1.9-.9-2.8-.5-.7-1.2-1.3-1.9-1.8-.9-.6-1.9-.9-2.9-1.1-.7-.1-1.3-.2-2-.2-1.4 0-2.7.3-3.9.9-1 .5-1.9 1.1-2.6 2-.5.6-.8 1.3-1 2.1-.2 1-.1 2 .3 2.9.3.6.7 1.2 1.1 1.7.8.8 1.8 1.4 2.9 1.8.7.2 1.3.4 2 .5.6.1 1.2.1 1.8.1.8 0 1.7-.2 2.5-.5 0 0 0 0 .1 0 .4.4.8.7 1.3.9.2.2.5.2.8.3"/><path fill="#939393" d="m12.2 12.3c1.8-1.4 4.2-2 6.4-1.7-.8-.2-1.7-.3-2.6-.3-4 0-7.3 2.4-7.3 5.3 0 1.3.7 2.5 1.7 3.4-1.1-2.2-.4-4.9 1.8-6.7"/><path fill="#5a5a5a" d="m8.6 13.9c-1 0-2-.1-2.9-.4 0 0-.1 0-.1 0-.6.4-1.2.7-1.9 1-.6.2-1.3.3-1.9.4-.1 0-.2 0-.3-.1-.2-.1-.2-.2-.2-.4 0-.2.1-.3.3-.4.2-.1.5-.2.7-.4.4-.3.7-.8.9-1.3 0 0 0-.1 0-.1-.7-.5-1.3-1.1-1.8-1.7-.8-.8-1.2-1.7-1.4-2.6 0-1.3.1-2.4.6-3.4.3-.7.8-1.3 1.3-1.9.9-1 2.1-1.6 3.3-2 .9-.4 1.8-.5 2.7-.6.6 0 1.3 0 1.9.1 1.2.1 2.2.4 3.3.9.8.4 1.5.9 2.1 1.5.7.7 1.3 1.5 1.6 2.5.3.8.4 1.5.3 2.4-.1 1.3-.5 2.4-1.3 3.4-.7.9-1.6 1.6-2.5 2.1-1 .5-2 .8-3.1 1-.5 0-1 0-1.6 0m-5.3-.2c.1 0 .1 0 0 0 .3-.1.6-.2.8-.3.5-.2.9-.5 1.3-.9 0 0 0 0 .1 0 .8.3 1.6.4 2.5.5.6 0 1.2 0 1.8-.1.7-.1 1.4-.2 2-.5 1.1-.4 2.1-1 2.9-1.8.5-.5.9-1.1 1.1-1.7.5-1 .6-1.9.3-2.9-.2-.8-.5-1.5-1-2.1-.7-.9-1.6-1.5-2.6-2-1.2-.7-2.5-.9-3.8-.9-.7 0-1.4 0-2 .1-1 .2-2 .6-2.9 1.1-.8.6-1.4 1.2-2 1.9-.5.8-.9 1.8-.9 2.8 0 .7.1 1.4.4 2 .3.8.8 1.4 1.5 2 .3.3.7.6 1.1.8 0 0 0 0 0 .1 0 .5-.1 1-.3 1.5-.1.1-.2.2-.3.4"/><path fill="#fff" d="m3.3 13.7c.1-.1.2-.3.3-.4.2-.5.3-1 .3-1.5 0 0 0 0 0-.1-.4-.2-.8-.5-1.1-.8-.6-.6-1.1-1.2-1.5-2-.3-.7-.4-1.3-.4-2 0-1 .3-1.9.9-2.8.6-.7 1.2-1.3 2-1.8.9-.6 1.9-.9 2.9-1.1.6-.2 1.3-.2 2-.2 1.4 0 2.7.3 3.9.9 1 .5 1.9 1.1 2.6 2 .5.6.8 1.3 1 2.1.2 1 .1 2-.3 2.9-.3.6-.7 1.2-1.1 1.7-.8.8-1.8 1.4-2.9 1.8-.7.2-1.3.4-2 .5-.7.1-1.3.1-1.9 0-.8 0-1.7-.2-2.5-.5 0 0 0 0-.1 0-.4.4-.8.7-1.3.9-.2.2-.4.3-.8.4"/><g fill="#939393"><path d="m5 3.7c1.4-1.4 3.3-2 5.1-1.7-.7-.2-1.4-.3-2.1-.3-3.3 0-5.9 2.3-5.9 5.1 0 1.3.5 2.4 1.4 3.3-.8-2-.3-4.6 1.5-6.4"/><path d="m46.1 11.7c-.9-.9-2.1-1.6-3.3-2-.9-.3-1.8-.5-2.7-.5-.6 0-1.3 0-1.9.1-1.1.1-2.2.4-3.3 1-.8.4-1.5.9-2.1 1.5-.7.7-1.3 1.5-1.6 2.4-.3.8-.4 1.5-.3 2.4.1 1.3.5 2.4 1.3 3.4.7.9 1.6 1.6 2.5 2.1 1 .5 2 .8 3.1 1 .5.1 1.1.1 1.6.1 1 0 2-.1 2.9-.4 0 0 .1 0 .1 0 .6.4 1.2.7 1.9 1 .6.2 1.3.3 1.9.4.1 0 .2 0 .3-.1.2-.1.2-.2.2-.4 0-.2-.1-.3-.3-.4-.2-.1-.5-.2-.7-.4-.4-.3-.7-.8-.9-1.3 0 0 0-.1 0-.1.7-.5 1.3-1.1 1.8-1.7.6-.8.9-1.6 1.1-2.6.2-1.2 0-2.4-.5-3.4-.1-1-.6-1.6-1.1-2.1m.6 6.3c-.3.8-.8 1.4-1.5 2-.3.3-.7.6-1.1.8 0 0 0 0 0 .1 0 .5.1 1 .3 1.5.1.1.2.3.3.4-.3-.1-.5-.2-.8-.3-.5-.2-.9-.5-1.3-.9 0 0 0 0-.1 0-.8.2-1.7.4-2.5.4-.6 0-1.2 0-1.8-.1-.7-.1-1.4-.2-2-.5-1.1-.4-2.1-1-2.9-1.8-.5-.5-.9-1.1-1.1-1.7-.4-.9-.5-1.9-.3-2.9.2-.8.5-1.5 1-2.1.7-.9 1.6-1.5 2.6-2 1.2-.6 2.5-.9 3.9-.9.7 0 1.3.1 2 .2 1 .2 2 .6 2.9 1.1.8.5 1.4 1.1 1.9 1.8.6.8.9 1.8.9 2.8 0 .8-.1 1.4-.4 2.1"/><path d="m44.7 22.8c-.1-.1-.2-.3-.3-.4-.2-.5-.3-1-.3-1.5 0 0 0 0 0-.1.4-.2.8-.5 1.1-.8.6-.6 1.1-1.2 1.5-2 .3-.6.4-1.3.4-2 0-1-.3-1.9-.9-2.8-.5-.7-1.2-1.3-1.9-1.8-.9-.6-1.9-.9-2.9-1.1-.7-.1-1.3-.2-2-.2-1.4 0-2.7.3-3.9.9-1 .5-1.9 1.1-2.6 2-.5.6-.8 1.3-1 2.1-.2 1-.1 2 .3 2.9.3.6.7 1.2 1.1 1.7.8.8 1.8 1.4 2.9 1.8.7.2 1.3.4 2 .5.6.1 1.2.1 1.8.1.8 0 1.7-.2 2.5-.5 0 0 0 0 .1 0 .4.4.8.7 1.3.9.2.1.4.2.8.3"/><path d="m33.4 14.9c-1 0-2-.1-2.9-.4 0 0-.1 0-.1 0-.6.4-1.2.7-1.9 1-.6.2-1.3.3-1.9.4-.1 0-.2 0-.3-.1-.2-.1-.2-.2-.2-.4 0-.2.1-.3.3-.4.2-.1.5-.2.7-.4.4-.3.7-.8.9-1.3 0 0 0-.1 0-.1-.7-.5-1.3-1.1-1.8-1.7-.6-.8-.9-1.6-1.1-2.6-.2-1.2 0-2.4.5-3.4.3-.7.8-1.3 1.3-1.9.9-.9 2.1-1.6 3.3-2 .9-.3 1.8-.5 2.7-.5.6 0 1.3 0 1.9.1 1.1.1 2.2.4 3.3 1 .8.4 1.5.9 2.1 1.5.5.5 1 1.3 1.4 2.3.3.8.4 1.5.3 2.4-.1 1.3-.5 2.4-1.3 3.4-.7.9-1.6 1.6-2.5 2.1-1 .5-2 .8-3.1 1-.5 0-1.1 0-1.6 0m-5.3-.2c0 0 0 0 0 0 .3-.1.6-.2.8-.3.5-.2.9-.5 1.3-.9 0 0 0 0 .1 0 .8.3 1.6.4 2.5.5.6 0 1.2 0 1.8-.1.7-.1 1.4-.2 2-.5 1.1-.4 2.1-1 2.9-1.8.5-.5.9-1.1 1.1-1.7.4-.9.5-1.9.3-2.9-.2-.8-.5-1.5-1-2.1-.7-.9-1.6-1.5-2.6-2-1.2-.6-2.5-.9-3.9-.9-.7 0-1.3.1-2 .2-1 .2-2 .6-2.9 1.1-.8.5-1.4 1.1-1.9 1.8-.6.9-.9 1.8-.9 2.8 0 .7.1 1.4.4 2 .3.8.8 1.4 1.5 2 .3.3.7.6 1.1.8 0 0 0 0 0 .1 0 .5-.1 1-.3 1.5-.1.1-.2.2-.3.4"/><path d="m28.1 14.7c.1-.1.2-.3.3-.4.2-.5.3-1 .3-1.5 0 0 0 0 0-.1-.4-.2-.8-.5-1.1-.8-.6-.6-1.1-1.2-1.5-2-.3-.6-.4-1.3-.4-2 0-1 .3-1.9.9-2.8.5-.7 1.2-1.3 1.9-1.8.9-.6 1.9-.9 2.9-1.1.7-.2 1.4-.2 2-.2 1.4 0 2.7.3 3.9.9 1 .5 1.9 1.1 2.6 2 .5.6.8 1.3 1 2.1.2 1 .1 2-.3 2.9-.3.6-.7 1.2-1.1 1.7-.8.8-1.8 1.4-2.9 1.8-.7.2-1.3.4-2 .5-.7.1-1.3.1-1.8.1-.8 0-1.7-.2-2.5-.5 0 0 0 0-.1 0-.4.4-.8.7-1.3.9-.2.1-.5.2-.8.3"/></g><path fill="#ac382e" d="m37 21.9c-1.1-.2-2.1-.5-3.1-1-1-.5-1.8-1.2-2.5-2.1-.8-1-1.2-2.1-1.3-3.4-.1-.8.1-1.6.3-2.4.3-.9.9-1.7 1.6-2.4.6-.6 1.3-1.1 2.1-1.5 1-.5 2.1-.8 3.3-1 .6-.1 1.3-.1 1.9-.1.9.1 1.8.2 2.7.5 1.3.4 2.4 1.1 3.3 2 .5.5 1 1.2 1.3 1.9.5 1.1.7 2.2.5 3.4-.2.9-.5 1.8-1.1 2.6-.5.7-1.1 1.3-1.8 1.7 0 0 0 0 0 .1.1.5.4 1 .9 1.3.2.2.4.3.7.4.2.1.3.2.3.4 0 .2-.1.3-.2.4-.2.3-.3.3-.4.3-.7-.1-1.3-.2-1.9-.4-.7-.2-1.4-.5-1.9-1 0 0-.1 0-.1 0-1 .3-1.9.4-2.9.4-.6 0-1.2-.1-1.7-.1m6.6-.6c-.2-.5-.3-1-.3-1.5 0 0 0 0 0-.1.4-.2.8-.5 1.1-.8.6-.6 1.1-1.2 1.5-2 .3-.6.4-1.3.4-2 0-1-.3-1.9-.9-2.8-.5-.7-1.2-1.3-1.9-1.8-.9-.6-1.9-.9-2.9-1.1-.7-.1-1.3-.2-2-.2-1.4 0-2.7.3-3.9.9-1 .5-1.9 1.1-2.6 2-.5.6-.8 1.3-1 2.1-.2 1-.1 2 .3 2.9.3.6.7 1.2 1.1 1.7.8.8 1.8 1.4 2.9 1.8.7.2 1.3.4 2 .5.6.1 1.2.1 1.8.1.8 0 1.7-.2 2.5-.5 0 0 0 0 .1 0 .4.4.8.7 1.3.9.3.1.5.2.8.3-.1-.1-.2-.2-.3-.4"/><path fill="#d6d6d6" d="m43.9 21.7c-.1-.1-.2-.3-.3-.4-.2-.5-.3-1-.3-1.5 0 0 0 0 0-.1.4-.2.8-.5 1.1-.8.6-.6 1.1-1.2 1.5-2 .3-.6.4-1.3.4-2 0-1-.3-1.9-.9-2.8-.5-.7-1.2-1.3-1.9-1.8-.9-.6-1.9-.9-2.9-1.1-.7-.1-1.3-.2-2-.2-1.4 0-2.7.3-3.9.9-1 .5-1.9 1.1-2.6 2-.5.6-.8 1.3-1 2.1-.2 1-.1 2 .3 2.9.3.6.7 1.2 1.1 1.7.8.8 1.8 1.4 2.9 1.8.7.2 1.3.4 2 .5.6.1 1.2.1 1.8.1.8 0 1.7-.2 2.5-.5 0 0 0 0 .1 0 .4.4.8.7 1.3.9.2.2.5.2.8.3"/><path fill="#ac382e" d="m36.2 12.3c1.8-1.4 4.2-2 6.4-1.7-.8-.2-1.7-.3-2.6-.3-4 0-7.3 2.4-7.3 5.3 0 1.3.7 2.5 1.7 3.4-1.1-2.2-.4-4.9 1.8-6.7"/><path fill="#e74c3c" d="m32.6 13.9c-1 0-2-.1-2.9-.4 0 0-.1 0-.1 0-.6.4-1.2.7-1.9 1-.6.2-1.3.3-1.9.4-.1 0-.2 0-.3-.1-.2-.1-.2-.2-.2-.4 0-.2.1-.3.3-.4.2-.1.5-.2.7-.4.4-.3.7-.8.9-1.3 0 0 0-.1 0-.1-.7-.5-1.3-1.1-1.8-1.7-.6-.8-1-1.6-1.2-2.6 0-1.3.1-2.4.6-3.4.3-.7.8-1.3 1.3-1.9.9-.9 2.1-1.6 3.3-2 .7-.4 1.6-.5 2.5-.6.6 0 1.3 0 1.9.1 1.2.1 2.2.4 3.3.9.8.4 1.5.9 2.1 1.5.7.7 1.3 1.5 1.6 2.5.3.8.4 1.5.3 2.4-.1 1.3-.5 2.4-1.3 3.4-.7.9-1.6 1.6-2.5 2.1-1 .5-2 .8-3.1 1-.5 0-1 0-1.6 0m-5.3-.2c.1 0 .1 0 0 0 .3-.1.6-.2.8-.3.5-.2.9-.5 1.3-.9 0 0 0 0 .1 0 .8.3 1.6.4 2.5.5.6 0 1.2 0 1.8-.1.7-.1 1.4-.2 2-.5 1.1-.4 2.1-1 2.9-1.8.5-.5.9-1.1 1.1-1.7.5-1 .6-1.9.3-2.9-.2-.8-.5-1.5-1-2.1-.7-.9-1.6-1.5-2.6-2-1.2-.7-2.5-.9-3.8-.9-.7 0-1.3.1-2 .2-1 .2-2 .6-2.9 1.1-.8.5-1.4 1.1-1.9 1.8-.6.8-.9 1.8-.9 2.8 0 .7.1 1.4.4 2 .3.8.8 1.4 1.5 2 .3.3.7.6 1.1.8 0 0 0 0 0 .1 0 .5-.1 1-.3 1.5-.2.1-.3.2-.4.4"/><path fill="#fff" d="m27.3 13.7c.1-.1.2-.3.3-.4.2-.5.3-1 .3-1.5 0 0 0 0 0-.1-.4-.2-.8-.5-1.1-.8-.6-.6-1.1-1.2-1.5-2-.3-.6-.4-1.3-.4-2 0-1 .3-1.9.9-2.8.5-.7 1.2-1.3 1.9-1.8.9-.6 1.9-.9 2.9-1.1.7-.2 1.4-.2 2.1-.2 1.4 0 2.7.3 3.9.9 1 .5 1.9 1.1 2.6 2 .5.6.8 1.3 1 2.1.2 1 .1 2-.3 2.9-.3.6-.7 1.2-1.1 1.7-.8.8-1.8 1.4-2.9 1.8-.7.2-1.3.4-2 .5-.7.1-1.3.1-1.9 0-.8 0-1.7-.2-2.5-.5 0 0 0 0-.1 0-.4.4-.8.7-1.3.9-.2.2-.4.3-.8.4"/><path fill="#e74c3c" d="m29 3.7c1.4-1.4 3.3-2 5.1-1.7-.6-.2-1.3-.3-2.1-.3-3.2 0-5.8 2.3-5.8 5.1 0 1.3.5 2.4 1.4 3.3-.9-2-.4-4.6 1.4-6.4"/></svg>