<svg xmlns="http://www.w3.org/2000/svg" viewBox="0 0 48 24" enable-background="new 0 0 48 24"><g fill="#939393"><path d="m21 21s0 3 2 3c-4 0-7-3-7-3h5"/><path d="m22 21h-20v-18c0-1.1.9-2 2-2h18c1.1 0 2 .9 2 2v16c0 1.1-.9 2-2 2"/></g><g fill="#5a5a5a"><path d="m19 20s0 3 2 3c-4 0-7-3-7-3h5"/><path d="m21 20h-21v-18c0-1.1.9-2 2-2h19c1.1 0 2 .9 2 2v16c0 1.1-.9 2-2 2"/></g><path fill="#fff" d="m22 18c0 .6-.4 1-1 1h-19c-.6 0-1-.4-1-1v-16c0-.6.4-1 1-1h19c.6 0 1 .4 1 1v16"/><g fill="#5a5a5a"><circle cx="8.1" cy="7.2" r="4.5"/><path d="m8.1 11c4.5 0 8.1 4 8.1 9h-16.2c0-5 3.6-9 8.1-9"/></g><g fill="#d6d6d6"><path d="M15.3,19c-0.4-4-3.5-7.2-7.2-7.2S1.3,15,0.9,19H15.3z"/><circle cx="8.1" cy="7.2" r="3.6"/></g><circle fill="#5a5a5a" cx="18.5" cy="5.5" r="3.5"/><g fill="#fff"><path d="m18 3h1v5h-1z"/><path d="m16 5h5v1h-5z"/></g><circle fill="#5a5a5a" cx="18.5" cy="13.5" r="3.5"/><path fill="#fff" d="m16 13h5v1h-5z"/><g fill="#939393"><path d="m45 21s0 3 2 3c-4 0-7-3-7-3h5"/><path d="m46 21h-20v-18c0-1.1.9-2 2-2h18c1.1 0 2 .9 2 2v16c0 1.1-.9 2-2 2"/></g><g fill="#5a5a5a"><path d="m43 20s0 3 2 3c-4 0-7-3-7-3h5"/><path d="m45 20h-21v-18c0-1.1.9-2 2-2h19c1.1 0 2 .9 2 2v16c0 1.1-.9 2-2 2"/></g><path fill="#fff" d="m46 18c0 .6-.4 1-1 1h-19c-.6 0-1-.4-1-1v-16c0-.6.4-1 1-1h19c.6 0 1 .4 1 1v16"/><g fill="#5a5a5a"><circle cx="32.1" cy="7.2" r="4.5"/><path d="m32.1 11c4.5 0 8.1 4 8.1 9h-16.2c0-5 3.6-9 8.1-9"/></g><g fill="#e74c3c"><path d="m39.3 19c-.4-4-3.5-7.2-7.2-7.2-3.7 0-6.8 3.2-7.2 7.2h14.4"/><circle cx="32.1" cy="7.2" r="3.6"/></g><circle fill="#ac382e" cx="42.5" cy="5.5" r="3.5"/><g fill="#fff"><path d="m42 3h1v5h-1z"/><path d="m40 5h5v1h-5z"/></g><circle fill="#ac382e" cx="42.5" cy="13.5" r="3.5"/><path fill="#fff" d="m40 13h5v1h-5z"/></svg>