<!-- Generated by IcoMoon.io -->
<svg version="1.1" xmlns="http://www.w3.org/2000/svg" width="32" height="32" viewBox="0 0 32 32">
<title>faq</title>
<path class="fill-active" d="M16 3.733c-6.775 0-12.267 5.492-12.267 12.267s5.492 12.267 12.267 12.267c6.775 0 12.267-5.492 12.267-12.267v0c0-6.775-5.492-12.267-12.267-12.267v0zM17.611 25.493c-0.457 0.398-1.059 0.64-1.717 0.64s-1.26-0.242-1.721-0.643l0.003 0.003c-0.468-0.411-0.761-1.010-0.761-1.678 0-0.048 0.002-0.095 0.004-0.142l-0 0.006c-0.002-0.037-0.004-0.081-0.004-0.125 0-0.668 0.293-1.267 0.758-1.675l0.002-0.002c0.457-0.398 1.059-0.64 1.717-0.64s1.26 0.242 1.721 0.643l-0.003-0.003c0.467 0.411 0.761 1.010 0.761 1.677 0 0.044-0.001 0.088-0.004 0.131l0-0.006c0.003 0.041 0.004 0.088 0.004 0.135 0 0.668-0.294 1.267-0.759 1.676l-0.003 0.002zM21.76 12.981c-0.163 0.441-0.357 0.821-0.589 1.173l0.013-0.021c-0.248 0.38-0.512 0.711-0.803 1.016l0.003-0.003-0.875 0.907-0.661 0.683c-0.222 0.229-0.429 0.476-0.616 0.738l-0.013 0.019c-0.167 0.243-0.317 0.52-0.437 0.813l-0.011 0.030c-0.108 0.253-0.171 0.547-0.171 0.856 0 0.010 0 0.021 0 0.031l-0-0.002v0.32c0 0.139 0 0.192 0 0.192h-3.509c-0.042-0.129-0.066-0.278-0.066-0.433 0-0.028 0.001-0.055 0.002-0.083l-0 0.004c0-0.224 0-0.363 0-0.523-0-0.023-0.001-0.050-0.001-0.077 0-0.444 0.067-0.873 0.19-1.276l-0.008 0.031c0.135-0.408 0.302-0.761 0.503-1.089l-0.013 0.022c0.218-0.362 0.45-0.676 0.709-0.966l-0.005 0.006c0.267-0.299 0.544-0.587 0.821-0.875s0.779-0.811 1.067-1.205c0.312-0.359 0.501-0.83 0.501-1.347 0-0.007-0-0.013-0-0.020v0.001c-0.003-0.425-0.192-0.806-0.489-1.065l-0.002-0.001c-0.351-0.283-0.802-0.454-1.293-0.454-0.055 0-0.11 0.002-0.164 0.006l0.007-0c-0.017-0-0.037-0-0.056-0-0.625 0-1.23 0.086-1.804 0.246l0.047-0.011c-0.727 0.218-1.352 0.479-1.944 0.795l0.056-0.027-1.067-3.008c0.702-0.46 1.515-0.826 2.385-1.054l0.058-0.013c0.827-0.225 1.778-0.357 2.759-0.363l0.004-0c0.074-0.003 0.16-0.004 0.247-0.004 0.918 0 1.798 0.166 2.61 0.469l-0.052-0.017c0.684 0.259 1.268 0.644 1.749 1.13l0 0c0.393 0.418 0.697 0.925 0.878 1.487l0.008 0.028c0.156 0.467 0.249 1.005 0.256 1.565l0 0.004c0 0.013 0 0.028 0 0.043 0 0.474-0.082 0.928-0.233 1.35l0.009-0.028z"></path>
</svg>
