<svg xmlns="http://www.w3.org/2000/svg" viewBox="0 0 48 24" enable-background="new 0 0 48 24"><g fill-rule="evenodd"><circle fill="#939393" cx="12.5" cy="12.5" r="11.5"/><circle fill="#5a5a5a" cx="11.5" cy="11.5" r="11.5"/><circle fill="#d6d6d6" cx="11.5" cy="11.5" r="10.5"/><g fill="#5a5a5a"><path d="m13 20.4c-.5.4-1 .6-1.6.6s-1.1-.2-1.6-.6c-.5-.4-.7-1-.7-1.7 0-.7.2-1.3.7-1.7.5-.4 1-.6 1.6-.6s1.1.2 1.6.6c.5.4.7 1 .7 1.7 0 .7-.2 1.3-.7 1.7"/><path d="m16.9 8.7c-.1.4-.3.8-.5 1.1-.2.3-.5.6-.7.9-.3.3-.6.6-.8.8-.2.2-.4.4-.6.6-.2.2-.4.5-.6.7-.2.2-.3.5-.4.8-.3.4-.3.6-.3.9 0 .1 0 .2 0 .3 0 .1 0 .2 0 .2h-3.3c0 0-.1-.3-.1-.5 0-.2 0-.3 0-.5 0-.5.1-.9.2-1.2.1-.4.3-.7.5-1 .2-.3.4-.6.7-.9s.5-.6.8-.8c.4-.4.7-.8 1-1.1.3-.4.5-.8.5-1.3 0-.4-.2-.7-.5-1-.3-.3-.8-.4-1.4-.4s-1.2.1-1.7.2c-.5 0-1.1.3-1.8.6l-1-2.8c.6-.4 1.4-.7 2.3-1 .9-.2 1.7-.3 2.6-.3 1.1 0 1.9.1 2.6.4.7.3 1.2.6 1.6 1.1.4.4.7.9.8 1.4.2.5.2 1 .2 1.5.1.5 0 .9-.1 1.3"/></g><circle fill="#939393" cx="36.5" cy="12.5" r="11.5"/><circle fill="#ac382e" cx="35.5" cy="11.5" r="11.5"/><circle fill="#e74c3c" cx="35.5" cy="11.5" r="10.5"/><g fill="#fff"><path d="m37 20.4c-.5.4-1 .6-1.6.6s-1.1-.2-1.6-.6c-.5-.4-.7-1-.7-1.7 0-.7.2-1.3.7-1.7.5-.4 1-.6 1.6-.6s1.1.2 1.6.6c.5.4.7 1 .7 1.7 0 .7-.2 1.3-.7 1.7"/><path d="m40.9 8.7c-.1.4-.3.8-.5 1.1-.2.3-.5.6-.7.9-.3.3-.6.6-.8.8-.2.2-.4.4-.6.6-.2.2-.4.5-.6.7-.2.2-.3.5-.4.8-.3.4-.3.6-.3.9 0 .1 0 .2 0 .3 0 .1 0 .2 0 .2h-3.3c0 0-.1-.3-.1-.5 0-.2 0-.3 0-.5 0-.5.1-.9.2-1.2.1-.4.3-.7.5-1 .2-.3.4-.6.7-.9s.5-.6.8-.8c.4-.4.7-.8 1-1.1.3-.4.5-.8.5-1.3 0-.4-.2-.7-.5-1-.3-.3-.8-.4-1.4-.4s-1.2.1-1.7.2c-.5.2-1.1.4-1.8.7l-1-2.8c.6-.4 1.4-.7 2.3-1 .9-.3 1.7-.4 2.6-.4 1.1 0 1.9.1 2.6.4.7.3 1.2.6 1.6 1.1.4.4.7.9.8 1.4.2.5.2 1 .2 1.5.1.5 0 .9-.1 1.3"/></g></g></svg>