<!-- Generated by IcoMoon.io -->
<svg version="1.1" xmlns="http://www.w3.org/2000/svg" width="32" height="32" viewBox="0 0 32 32">
<title>manage-questions</title>
<path class="fill-active" d="M22.4 13.227v-2.827l-7.467-7.467h-10.667c-0.589 0-1.067 0.478-1.067 1.067v0 21.333c0 0.589 0.478 1.067 1.067 1.067v0h10.581c1.471 1.64 3.597 2.667 5.963 2.667 4.418 0 8-3.582 8-8 0-3.856-2.728-7.075-6.36-7.832l-0.052-0.009zM20.789 28c-3.829 0-6.933-3.104-6.933-6.933s3.104-6.933 6.933-6.933c3.829 0 6.933 3.104 6.933 6.933v0c-0.006 3.827-3.107 6.927-6.933 6.933h-0.001zM5.333 5.067h8.533v6.4h6.4v1.621c-4.188 0.269-7.482 3.731-7.482 7.963 0 1.164 0.249 2.269 0.697 3.266l-0.020-0.050h-8.128z"></path>
<path class="fill-active" d="M17.771 16.523l0.608 1.611s2.4-1.333 3.040-0.075c0.48 0.939-0.683 1.387-1.856 3.424-0.224 0.384-0.128 0.64-0.128 1.707h1.995c-0.022-0.115-0.034-0.247-0.034-0.382 0-0.381 0.1-0.738 0.275-1.048l-0.006 0.011c0.48-0.638 0.984-1.203 1.53-1.723l0.006-0.005c1.685-1.995-0.043-5.941-5.429-3.52z"></path>
<path class="fill-active" d="M21.792 25.013c0 0.748-0.607 1.355-1.355 1.355s-1.355-0.607-1.355-1.355c0-0.748 0.607-1.355 1.355-1.355s1.355 0.607 1.355 1.355z"></path>
</svg>
