<svg xmlns="http://www.w3.org/2000/svg" viewBox="0 0 48 24" enable-background="new 0 0 48 24" xmlns:xlink="http://www.w3.org/1999/xlink"><symbol viewBox="-5 -5 10 10"><path fill="#5a5a5a" d="m.3-5c-.2 0-.4 0-.6 0-.2 0-.4.2-.4.4 0 .2-.1.4-.1.6 0 .2-.1.4-.3.5-.2.1-.4.2-.6.3-.2.1-.4.1-.6-.1-.2-.1-.3-.2-.5-.3-.1 0-.1-.1-.2-.1-.2 0-.3 0-.5.2-.1.1-.2.2-.3.3-.1 0-.1.1 0 .2 0 .1.1.1.1.2.1.2.2.3.4.5.1.2.1.4.1.5-.1.2-.2.4-.3.6-.1.3-.3.4-.5.4-.1 0-.2 0-.3 0-.1 0-.2 0-.3 0-.2.2-.4.3-.4.5 0 .2 0 .4 0 .6 0 .2.2.4.4.4.2 0 .4.1.6.1.2 0 .4.2.5.4.1.2.2.4.2.6.1.2.1.4-.1.6-.1.2-.2.3-.4.5-.1.2-.1.4 0 .5.1.1.3.3.4.4.2.2.4.2.5 0 .2-.1.3-.3.5-.4.2-.1.3-.1.5-.1.2.1.4.2.6.3.4 0 .5.2.5.4 0 .2.1.4.1.6.1.2.2.4.4.4.2 0 .4 0 .6 0 .2 0 .4-.2.4-.4 0-.2.1-.4.1-.6 0-.2.2-.4.4-.5.2-.1.4-.2.6-.2.2-.1.4-.1.6.1.2.1.3.3.5.4.2.1.4.1.5 0 .1-.1.3-.3.4-.4.2-.2.2-.4 0-.6-.2-.2-.3-.3-.4-.5-.1-.2-.2-.4-.1-.6.1-.2.2-.4.3-.6 0-.2.2-.3.4-.3.2 0 .4-.1.6-.1.2 0 .4-.2.4-.4 0-.2 0-.4 0-.6 0-.2-.2-.4-.4-.4-.2 0-.4 0-.6-.1-.2 0-.4-.1-.5-.4 0-.1-.1-.3-.2-.5-.1-.2-.1-.4.1-.6.1-.2.2-.3.4-.5.1-.2.1-.4 0-.5-.2-.1-.3-.3-.5-.4-.1-.2-.3-.2-.5 0-.2.1-.4.2-.5.3-.2.1-.4.2-.5.1-.3-.1-.5-.2-.7-.3-.2-.1-.3-.2-.3-.4 0-.2-.1-.3-.1-.5 0-.3-.2-.4-.4-.5"/><path fill="#fff" d="m2 .1c0-1.1-.9-2-2-2s-2 .9-2 2 .9 2 2 2 2-.9 2-2" id="0"/></symbol><symbol viewBox="-5 -5 10 10"><path fill="#e74c3c" d="m.3-5c-.2 0-.4 0-.6 0-.2 0-.4.2-.4.4 0 .2-.1.4-.1.6 0 .2-.1.4-.3.5-.2.1-.4.2-.6.3-.2.1-.4.1-.6-.1-.2-.1-.3-.2-.5-.3-.1 0-.1-.1-.2-.1-.2 0-.3 0-.5.2-.1.1-.2.2-.3.3-.1 0-.1.1 0 .2 0 .1.1.1.1.2.1.2.2.3.4.5.1.2.1.4.1.5-.1.2-.2.4-.3.6-.1.3-.3.4-.5.4-.1 0-.2 0-.3 0-.1 0-.2 0-.3 0-.2.2-.4.3-.4.5 0 .2 0 .4 0 .6 0 .2.2.4.4.4.2 0 .4.1.6.1.2 0 .4.2.5.4.1.2.2.4.2.6.1.2.1.4-.1.6-.1.2-.2.3-.4.5-.1.2-.1.4 0 .5.1.1.3.3.4.4.2.2.4.2.5 0 .2-.1.3-.3.5-.4.2-.1.3-.1.5-.1.2.1.4.2.6.3.4 0 .5.2.5.4 0 .2.1.4.1.6.1.2.2.4.4.4.2 0 .4 0 .6 0 .2 0 .4-.2.4-.4 0-.2.1-.4.1-.6 0-.2.2-.4.4-.5.2-.1.4-.2.6-.2.2-.1.4-.1.6.1.2.1.3.3.5.4.2.1.4.1.5 0 .1-.1.3-.3.4-.4.2-.2.2-.4 0-.6-.2-.2-.3-.3-.4-.5-.1-.2-.2-.4-.1-.6.1-.2.2-.4.3-.6 0-.2.2-.3.4-.3.2 0 .4-.1.6-.1.2 0 .4-.2.4-.4 0-.2 0-.4 0-.6 0-.2-.2-.4-.4-.4-.2 0-.4 0-.6-.1-.2 0-.4-.1-.5-.4 0-.1-.1-.3-.2-.5-.1-.2-.1-.4.1-.6.1-.2.2-.3.4-.5.1-.2.1-.4 0-.5-.2-.1-.3-.3-.5-.4-.1-.2-.3-.2-.5 0-.2.1-.4.2-.5.3-.2.1-.4.2-.5.1-.3-.1-.5-.2-.7-.3-.2-.1-.3-.2-.3-.4 0-.2-.1-.3-.1-.5 0-.3-.2-.4-.4-.5"/><use xlink:href="#0"/></symbol><path fill-rule="evenodd" fill="#939393" d="m24 16c0-3.5-3-6.4-6-6.9v-3.1-1-.6c-1-1.3-2-2.1-3.3-3.4h-.6-1-11.1v23h16v-1.1c3-.5 6-3.4 6-6.9"/><path fill="#5a5a5a" d="M16,23H0V0h12.6C14,1.3,15,2.1,16,3.4V23z"/><path fill="#fff" d="M15,22H1V1h11c1.2,1.2,2,1.8,3,3V22z"/><g fill="#5a5a5a"><path d="m11 0h1v5h-1z"/><path d="m11 4h5v1h-5z"/><path d="m2 2h8v3h-8z"/><path d="m2 6h12v1h-12z"/><path d="m2 8h12v1h-12z"/><path d="m2 10h12v1h-12z"/><path d="m2 12h5v1h-5z"/><path d="m2 14h5v1h-5z"/><path d="m2 16h5v1h-5z"/><path d="m2 18h5v1h-5z"/><path d="m2 20h5v1h-5z"/></g><g fill-rule="evenodd"><circle fill="#fff" cx="15" cy="15" r="8"/><path fill="#5a5a5a" d="m15 22c-3.9 0-7-3.1-7-7s3.1-7 7-7 7 3.1 7 7-3.2 7-7 7"/><g fill="#fff"><path d="m12.7 12.3s2.3-1.2 2.9-.1c.5.9-.6 1.3-1.7 3.2-.2.4-.1.6-.1 1.6h1.9c0 0-.2-.7.2-1.3.3-.5 1.4-1.5 1.4-1.6 1.6-1.9 0-5.6-5.1-3.3"/><circle cx="14.6" cy="18.7" r="1.3"/></g><path fill="#939393" d="m48 16c0-3.5-3-6.4-6-6.9v-3.1-1-.6c-1-1.3-2-2.1-3.3-3.4h-.6-1-11.1v23h16v-1.1c3-.5 6-3.4 6-6.9"/></g><path fill="#ac382e" d="M40,23H24V0h12.6C38,1.3,39,2.1,40,3.4V23z"/><path fill="#fff" d="M39,22H25V1h11c1.2,1.2,2,1.8,3,3V22z"/><g fill="#ac382e"><path d="m35 0h1v5h-1z"/><path d="m35 4h5v1h-5z"/></g><g fill="#e74c3c"><path d="m26 2h8v3h-8z"/><path d="m26 6h12v1h-12z"/><path d="m26 8h12v1h-12z"/><path d="m26 10h12v1h-12z"/></g><g fill="#ac382e"><path d="m26 12h5v1h-5z"/><path d="m26 14h5v1h-5z"/><path d="m26 16h5v1h-5z"/><path d="m26 18h5v1h-5z"/><path d="m26 20h5v1h-5z"/></g><g fill-rule="evenodd"><circle fill="#fff" cx="39" cy="15" r="8"/><path fill="#e74c3c" d="m39 22c-3.9 0-7-3.1-7-7s3.1-7 7-7 7 3.1 7 7-3.2 7-7 7"/><g fill="#fff"><path d="m36.7 12.3s2.3-1.2 2.9-.1c.5.9-.6 1.3-1.7 3.2-.2.4-.1.6-.1 1.6h1.9c0 0-.2-.7.2-1.3.3-.5 1.4-1.5 1.4-1.6 1.6-1.9 0-5.6-5.1-3.3"/><circle cx="38.6" cy="18.7" r="1.3"/></g></g></svg>