<?xml version="1.0" encoding="utf-8"?>
<!-- Generator: Adobe Illustrator 19.2.1, SVG Export Plug-In . SVG Version: 6.00 Build 0)  -->
<svg version="1.1" id="Layer_1" xmlns="http://www.w3.org/2000/svg" xmlns:xlink="http://www.w3.org/1999/xlink" x="0px" y="0px"
	 viewBox="0 0 48 24" style="enable-background:new 0 0 48 24;" xml:space="preserve">
<style type="text/css">
	.st0{fill:#1A82E2;}
	.st1{fill:#5A5A5A;}
</style>
<g>
	<path class="st0" d="M23.9,14.5c0-0.1,0-0.3-0.1-0.4c-0.1-0.6-0.5-1-1-1.3c-0.4-0.2-0.8-0.2-1.3-0.2c-2.8,0.2-6.7,3.7-7.3,4.2
		C21.8,18.9,24,16.2,23.9,14.5z"/>
	<path class="st0" d="M23.8,13.1c-0.5-3.5-2-7.9-2-7.9c-0.5-1.4-1.3-2.6-3.7-2.6c-2.4,0-4.9,1.9-8.1,4.8c0,0-4.5,4.3-7.6,4.4
		c-1.1,0.1-1.8-0.2-2.2-0.9c1,4.9,2,7.9,2,7.9c0.5,1.4,1.3,2.6,3.7,2.6c2.4,0,4.9-1.9,8.1-4.8c0,0,4.5-4.3,7.6-4.4
		C22.6,12.1,23.4,12.4,23.8,13.1z M4.9,16.4l2.6-6.6l2.5,9.3L4.9,16.4z M12,11.7l1.9-7.1l2.4,9.5L12,11.7z M20.9,4.1
		c0,0,1.5,4,2.2,8l-3.9-3.9L20.9,4.1z"/>
	<path class="st0" d="M0,9.5c0,0.1,0,0.3,0.1,0.4c0.1,0.6,0.5,1,1,1.3c0.4,0.2,0.8,0.2,1.3,0.2C5.1,11.2,9,7.6,9.6,7.1
		C2.1,5.1-0.1,7.8,0,9.5z"/>
</g>
<g>
	<path class="st1" d="M47.9,14.5c0-0.1,0-0.3-0.1-0.4c-0.1-0.6-0.5-1-1-1.3c-0.4-0.2-0.8-0.2-1.3-0.2c-2.8,0.2-6.7,3.7-7.3,4.2
		C45.9,18.9,48,16.2,47.9,14.5z"/>
	<path class="st1" d="M47.8,13.1c-0.5-3.5-2-7.9-2-7.9c-0.5-1.4-1.3-2.6-3.7-2.6c-2.4,0-4.9,1.9-8.1,4.8c0,0-4.5,4.3-7.6,4.4
		c-1.1,0.1-1.8-0.2-2.2-0.9c1,4.9,2,7.9,2,7.9c0.5,1.4,1.3,2.6,3.7,2.6c2.4,0,4.9-1.9,8.1-4.8c0,0,4.5-4.3,7.6-4.4
		C46.6,12.1,47.4,12.4,47.8,13.1z M29,16.4l2.6-6.6l2.5,9.3L29,16.4z M36.1,11.7L38,4.6l2.4,9.5L36.1,11.7z M44.9,4.1
		c0,0,1.5,4,2.2,8l-3.9-3.9L44.9,4.1z"/>
	<path class="st1" d="M24.1,9.5c0,0.1,0,0.3,0.1,0.4c0.1,0.6,0.5,1,1,1.3c0.4,0.2,0.8,0.2,1.3,0.2c2.8-0.2,6.7-3.7,7.3-4.2
		C26.1,5.1,24,7.8,24.1,9.5z"/>
</g>
</svg>
