<svg id="Layer_1" enable-background="new 0 0 48 24" viewBox="0 0 48 24" xmlns="http://www.w3.org/2000/svg"><path d="m48 14.5c0-.1 0-.3-.1-.4-.1-.6-.5-1-1-1.3-.4-.2-.8-.2-1.3-.2-2.8.2-6.7 3.7-7.3 4.2 7.6 2.1 9.8-.6 9.7-2.3z" fill="#1a82e2"/><path d="m47.9 13.1c-.5-3.5-2-7.9-2-7.9-.5-1.4-1.3-2.6-3.7-2.6s-4.9 1.9-8.1 4.8c0 0-4.5 4.3-7.6 4.4-1.1.1-1.8-.2-2.2-.9 1 4.9 2 7.9 2 7.9.5 1.4 1.3 2.6 3.7 2.6s4.9-1.9 8.1-4.8c0 0 4.5-4.3 7.6-4.4 1-.1 1.8.2 2.2.9zm-18.9 3.3l2.6-6.6 2.5 9.3zm7.1-4.7l1.9-7.1 2.4 9.5zm8.9-7.6c0 0 1.5 4 2.2 8l-3.9-3.9z" fill="#1a82e2"/><path d="m24.1 9.5c0 .1 0 .3.1.4.1.6.5 1 1 1.3.4.2.8.2 1.3.2 2.7-.2 6.6-3.8 7.2-4.3-7.5-2-9.7.7-9.6 2.4z" fill="#1a82e2"/><path d="m23.8 14.5c0-.1 0-.3-.1-.4-.1-.6-.5-1-1-1.3-.4-.2-.8-.2-1.3-.2-2.8.2-6.7 3.7-7.3 4.2 7.7 2.1 9.8-.6 9.7-2.3z" fill="#5a5a5a"/><path d="m23.7 13.1c-.5-3.5-2-7.9-2-7.9-.5-1.4-1.3-2.6-3.7-2.6s-4.9 1.9-8.1 4.8c0 0-4.5 4.3-7.6 4.4-1.1.1-1.8-.2-2.2-.9 1 4.9 2 7.9 2 7.9.5 1.4 1.3 2.6 3.7 2.6s4.9-1.9 8.1-4.8c0 0 4.5-4.3 7.6-4.4 1-.1 1.8.2 2.2.9zm-18.8 3.3l2.6-6.6 2.5 9.3zm7.1-4.7l1.9-7.1 2.4 9.5zm8.8-7.6c0 0 1.5 4 2.2 8l-3.9-3.9z" fill="#5a5a5a"/><path d="m0 9.5c0 .1 0 .3.1.4.1.6.5 1 1 1.3.4.2.8.2 1.3.2 2.8-.2 6.7-3.7 7.3-4.2-7.7-2.1-9.8.6-9.7 2.3z" fill="#5a5a5a"/></svg>