<?xml version="1.0" encoding="utf-8"?>
<!-- Generator: Adobe Illustrator 17.1.0, SVG Export Plug-In . SVG Version: 6.00 Build 0)  -->
<!DOCTYPE svg PUBLIC "-//W3C//DTD SVG 1.1//EN" "http://www.w3.org/Graphics/SVG/1.1/DTD/svg11.dtd">
<svg version="1.1" id="Layer_1" xmlns="http://www.w3.org/2000/svg" xmlns:xlink="http://www.w3.org/1999/xlink" x="0px" y="0px"
	 viewBox="0 0 48 24" enable-background="new 0 0 48 24" xml:space="preserve">
<g>
	<text transform="matrix(1 0 0 1 12.955 -24.6135)" font-family="'Ubuntu-Light'" font-size="10">head</text>
</g>
<g>
	<g>
		<rect x="1" y="6" fill="#939393" width="15" height="13"/>
		<polygon fill="#939393" points="11,0.9 24,12.5 11,24 		"/>
	</g>
	<rect y="5" fill="#5A5A5A" width="15" height="13"/>
	<polygon fill="#5A5A5A" points="10,-0.1 23,11.5 10,23 	"/>
	<polygon fill="#D6D6D6" points="16.2,13.8 15.5,13.1 14.8,13.8 13.4,13.8 14.8,12.3 13.4,10.7 14.9,10.7 15.6,11.5 16.2,10.7 
		17.7,10.7 16.3,12.3 17.7,13.8 	"/>
	<polygon fill="#D6D6D6" points="10.7,13.8 10.7,8.9 13.4,8.9 13.4,10 11.8,10 11.8,10.7 13.4,10.7 13.4,11.8 11.8,11.8 11.8,12.7 
		13.4,12.7 13.4,13.8 	"/>
	<path fill="#FFFFFF" d="M9.5,8.9v2h0c-0.3-0.3-0.6-0.4-0.9-0.4c-0.8,0-1.3,0.5-1.5,1.2c-0.2-0.8-0.8-1.2-1.7-1.2
		c-0.7,0-1.3,0.3-1.6,0.8v-0.6H2.3V10h1.6V8.9H1v4.9h1.3v-2.1h1.3c0,0.2-0.1,0.3-0.1,0.5c0,1,0.8,1.7,1.8,1.7c0.8,0,1.4-0.4,1.7-1.1
		H5.9c-0.2,0.2-0.3,0.3-0.6,0.3c-0.4,0-0.7-0.3-0.7-0.7H7C7.1,13.3,7.7,14,8.6,14c0.4,0,0.7-0.2,0.9-0.5h0v0.3h1.2V8.9H9.5z
		 M4.7,11.8c0.1-0.3,0.3-0.5,0.6-0.5c0.3,0,0.6,0.2,0.6,0.5C6,11.8,4.7,11.8,4.7,11.8z M8.8,13.1c-0.4,0-0.7-0.4-0.7-0.8
		c0-0.4,0.2-0.9,0.7-0.9c0.5,0,0.7,0.4,0.7,0.9C9.5,12.7,9.3,13.1,8.8,13.1z"/>
</g>
<g>
	<g>
		<rect x="25" y="6" fill="#939393" width="15" height="13"/>
		<polygon fill="#939393" points="35,0.9 48,12.5 35,24 		"/>
	</g>
	<rect x="24" y="5" fill="#472F92" width="15" height="13"/>
	<polygon fill="#472F92" points="34,-0.1 47,11.5 34,23 	"/>
	<g>
		<polygon fill="#F47920" points="40.2,13.8 39.6,13.1 38.9,13.8 37.5,13.8 38.8,12.3 37.5,10.7 38.9,10.7 39.6,11.5 40.3,10.7 
			41.7,10.7 40.3,12.3 41.7,13.8 		"/>
		<polygon fill="#F47920" points="34.7,13.8 34.7,8.9 37.5,8.9 37.5,10 35.9,10 35.9,10.7 37.5,10.7 37.5,11.8 35.9,11.8 35.9,12.7 
			37.5,12.7 37.5,13.8 		"/>
		<path fill="#FFFFFF" d="M33.6,8.9v2h0c-0.3-0.3-0.6-0.4-0.9-0.4c-0.8,0-1.3,0.5-1.5,1.2c-0.2-0.8-0.8-1.2-1.7-1.2
			c-0.7,0-1.3,0.3-1.6,0.8v-0.6h-1.5V10H28V8.9H25v4.9h1.3v-2.1h1.3c0,0.2-0.1,0.3-0.1,0.5c0,1,0.8,1.7,1.8,1.7
			c0.8,0,1.4-0.4,1.7-1.1H30c-0.2,0.2-0.3,0.3-0.6,0.3c-0.4,0-0.7-0.3-0.7-0.7H31c0.1,0.8,0.7,1.5,1.6,1.5c0.4,0,0.7-0.2,0.9-0.5h0
			v0.3h1.2V8.9H33.6z M28.8,11.8c0.1-0.3,0.3-0.5,0.6-0.5c0.3,0,0.6,0.2,0.6,0.5C30,11.8,28.8,11.8,28.8,11.8z M32.9,13.1
			c-0.4,0-0.7-0.4-0.7-0.8c0-0.4,0.2-0.9,0.7-0.9c0.5,0,0.7,0.4,0.7,0.9C33.5,12.7,33.3,13.1,32.9,13.1z"/>
	</g>
</g>
</svg>
