<svg id="Layer_1" enable-background="new 0 0 48 24" viewBox="0 0 48 24" xml:space="preserve" xmlns="http://www.w3.org/2000/svg"><text font-family="'Ubuntu-Light'" font-size="10" transform="translate(12.955 -24.6135)">head</text><path d="m1 6h15v13h-15z" fill="#939393"/><path d="m11 .9l13 11.6-13 11.5z" fill="#939393"/><path d="m0 5h15v13h-15z" fill="#5a5a5a"/><path d="m10-.1l13 11.6-13 11.5z" fill="#5a5a5a"/><path d="m16.2 13.8l-.7-.7-.7.7h-1.4l1.4-1.5-1.4-1.6h1.5l.7.8.6-.8h1.5l-1.4 1.6 1.4 1.5z" fill="#d6d6d6"/><path d="m10.7 13.8v-4.9h2.7v1.1h-1.6v.7h1.6v1.1h-1.6v.9h1.6v1.1z" fill="#d6d6d6"/><path d="m9.5 8.9v2h0c-.3-.3-.6-.4-.9-.4-.8 0-1.3.5-1.5 1.2-.2-.8-.8-1.2-1.7-1.2-.7 0-1.3.3-1.6.8v-.6h-1.5v-.7h1.6v-1.1h-2.9v4.9h1.3v-2.1h1.3c0 .2-.1.3-.1.5 0 1 .8 1.7 1.8 1.7.8 0 1.4-.4 1.7-1.1h-1.1c-.2.2-.3.3-.6.3-.4 0-.7-.3-.7-.7h2.4c.1.9.7 1.6 1.6 1.6.4 0 .7-.2.9-.5h0v .3h1.2v-4.9zm-4.8 2.9c.1-.3.3-.5.6-.5.3 0 .6.2.6.5.1 0-1.2 0-1.2 0zm4.1 1.3c-.4 0-.7-.4-.7-.8 0-.4.2-.9.7-.9.5 0 .7.4.7.9 0 .4-.2.8-.7.8z" fill="#fff"/><path d="m25 6h15v13h-15z" fill="#939393"/><path d="m35 .9l13 11.6-13 11.5z" fill="#939393"/><path d="m24 5h15v13h-15z" fill="#472f92"/><path d="m34-.1l13 11.6-13 11.5z" fill="#472f92"/><path d="m40.2 13.8l-.6-.7-.7.7h-1.4l1.3-1.5-1.3-1.6h1.4l.7.8.7-.8h1.4l-1.4 1.6 1.4 1.5z" fill="#f47920"/><path d="m34.7 13.8v-4.9h2.8v1.1h-1.6v.7h1.6v1.1h-1.6v.9h1.6v1.1z" fill="#f47920"/><path d="m33.6 8.9v2h0c-.3-.3-.6-.4-.9-.4-.8 0-1.3.5-1.5 1.2-.2-.8-.8-1.2-1.7-1.2-.7 0-1.3.3-1.6.8v-.6h-1.5v-.7h1.6v-1.1h-3v4.9h1.3v-2.1h1.3c0 .2-.1.3-.1.5 0 1 .8 1.7 1.8 1.7.8 0 1.4-.4 1.7-1.1h-1c-.2.2-.3.3-.6.3-.4 0-.7-.3-.7-.7h2.3c.1.8.7 1.5 1.6 1.5.4 0 .7-.2.9-.5h0v .3h1.2v-4.8zm-4.8 2.9c.1-.3.3-.5.6-.5.3 0 .6.2.6.5 0 0-1.2 0-1.2 0zm4.1 1.3c-.4 0-.7-.4-.7-.8 0-.4.2-.9.7-.9.5 0 .7.4.7.9-.1.4-.3.8-.7.8z" fill="#fff"/></svg>