<!-- Generated by IcoMoon.io -->
<svg version="1.1" xmlns="http://www.w3.org/2000/svg" width="32" height="32" viewBox="0 0 32 32">
<title>add-news-item</title>
<path class="fill-active" d="M7.723 10.336c-0.074-0.041-0.162-0.065-0.256-0.065-0.295 0-0.533 0.239-0.533 0.533 0 0.001 0 0.001 0 0.002v-0 4.523l-1.877 1.12c-0.155 0.095-0.256 0.264-0.256 0.456 0 0.001 0 0.002 0 0.003v-0 3.36c0 0.001 0 0.002 0 0.003 0 0.192 0.101 0.36 0.254 0.454l0.002 0.001 1.877 1.173v4.011c0 0 0 0.001 0 0.001 0 0.295 0.239 0.533 0.533 0.533 0.094 0 0.182-0.024 0.259-0.067l-0.003 0.001 4.619-2.571c1.192-0.668 2.577-1.176 4.044-1.448l0.084-0.013-0.469 4.32c-0.008 0.075-0.012 0.162-0.012 0.25 0 1.272 0.92 2.329 2.13 2.542l0.016 0.002 2.357 0.395h0.085c0.26-0.001 0.476-0.188 0.522-0.434l0.001-0.003 1.333-7.328h1.152c1.974 0 3.573-1.6 3.573-3.573v0-0.32c0-1.974-1.6-3.573-3.573-3.573v0h-4.629c-2.428-0.001-4.708-0.638-6.681-1.753l0.068 0.035zM26.133 18.197v0.32c0 1.384-1.122 2.507-2.507 2.507v0h-0.693v-5.333h0.693c1.384 0 2.507 1.122 2.507 2.507v0zM18.357 28.416c-0.738-0.105-1.298-0.732-1.298-1.49 0-0.054 0.003-0.107 0.008-0.159l-0.001 0.007 0.469-4.683h3.819l-1.205 6.624zM5.867 17.205l1.067-0.64v4.085l-1.067-0.64zM8 21.6v-9.867l2.133 1.205c-0.002 0.018-0.003 0.038-0.003 0.059s0.001 0.041 0.004 0.061l-0-0.002v10.667c-0.002 0.018-0.003 0.038-0.003 0.059s0.001 0.041 0.004 0.061l-0-0.002-2.133 1.205zM11.2 23.232v-9.749l0.629 0.352c1.359 0.762 2.94 1.328 4.618 1.609l0.086 0.012v5.792c-1.764 0.293-3.345 0.86-4.778 1.66l0.074-0.038zM21.867 21.035h-4.267v-5.429c0.448 0 0.907 0.085 1.355 0.085h2.912z"></path>
<path class="fill-active" d="M24.213 7.157c0-2.769-2.245-5.013-5.013-5.013s-5.013 2.245-5.013 5.013c0 2.769 2.245 5.013 5.013 5.013v0c2.766-0.006 5.007-2.247 5.013-5.013v-0.001zM15.253 7.157c0-2.18 1.767-3.947 3.947-3.947s3.947 1.767 3.947 3.947c0 2.18-1.767 3.947-3.947 3.947v0c-2.18 0-3.947-1.767-3.947-3.947v0z"></path>
<path class="fill-active" d="M19.733 9.952v-2.261h2.272v-1.067h-2.272v-2.272h-1.067v2.272h-2.261v1.067h2.261v2.261h1.067z"></path>
</svg>
