<svg xmlns="http://www.w3.org/2000/svg" viewBox="0 0 48 24" enable-background="new 0 0 48 24"><path fill="#939393" d="m23 14.7v-11.6c0-1.2-.9-2.1-2.1-2.1h-15.1c-1.1 0-1.8.9-1.8 2.1v.9h-.9c-1.2 0-2.1 1.4-2.1 2.5v13.8c0 1.5 1.2 2.7 2.8 2.7h10.9c.9.6 2.1 1 3.3 1 3.3 0 6-2.7 6-6 0-1.2-.4-2.4-1-3.3"/><path fill="#d6d6d6" d="m21 19.3c0 1-.8 1.8-1.8 1.8h-16.4c-1 0-1.8-.8-1.8-1.8v-13.3c0-.5.4-1 1-1h1v13.6c0 .4.1.7.5.7s.5-.4.5-.7v-16.5c0-.6.5-1.1 1.1-1.1h14.9c.5 0 1 .5 1 1.1v17.2"/><path fill="#5a5a5a" d="m19.9 0h-15.1c-1.1 0-1.8.9-1.8 2.1v1.9h-.9c-1.2 0-2.1.4-2.1 1.5v13.8c0 1.5 1.2 2.7 2.8 2.7h16.5c1.5 0 2.8-1.2 2.8-2.8v-17.1c-.1-1.2-1-2.1-2.2-2.1m1.1 19.3c0 1-.8 1.8-1.8 1.8h-16.4c-1 0-1.8-.8-1.8-1.8v-13.3c0-.6.4-1 1-1h1v13.6c0 .4.1.7.5.7s.5-.4.5-.7v-16.5c0-.6.5-1.1 1.1-1.1h14.9c.5 0 1 .5 1 1.1v17.2"/><path fill="#d6d6d6" stroke="#5a5a5a" stroke-miterlimit="10" d="m11.5 3.2c0-.4-.3-.7-.7-.7h-4.6c-.4 0-.7.3-.7.7v4.6c0 .4.3.7.7.7h4.6c.4 0 .7-.3.7-.7v-4.6z"/><circle fill="#5a5a5a" cx="17" cy="17" r="6"/><path fill="#d6d6d6" d="m17 21.8c-2.6 0-4.8-2.2-4.8-4.8s2.2-4.8 4.8-4.8 4.8 2.2 4.8 4.8-2.2 4.8-4.8 4.8"/><g fill="#5a5a5a"><path d="m13 16h8v2h-8z"/><path d="m16 13h2v8h-2z"/><path d="m13 3h6v1h-6z"/><path d="m13 5h6v1h-6z"/><path d="m13 7h6v1h-6z"/><path d="m5 11h6v1h-6z"/><path d="m5 13h6v1h-6z"/><path d="m5 15h6v1h-6z"/></g><path fill="#939393" d="m47 14.7v-11.6c0-1.2-.9-2.1-2.1-2.1h-15.1c-1.1 0-1.8.9-1.8 2.1v.9h-.9c-1.2 0-2.1 1.4-2.1 2.5v13.8c0 1.5 1.2 2.8 2.8 2.8h10.9c.9.6 2.1 1 3.3 1 3.3 0 6-2.7 6-6 0-1.3-.4-2.5-1-3.4"/><path fill="#fff" d="m45 19.3c0 1-.8 1.8-1.8 1.8h-16.4c-1 0-1.8-.8-1.8-1.8v-13.3c0-.5.4-1 1-1h1v13.6c0 .4.1.7.5.7s.5-.3.5-.7v-16.5c0-.6.5-1.1 1.1-1.1h14.9c.5 0 1 .5 1 1.1v17.2"/><path fill="#ac382e" d="m43.9 0h-15.1c-1.1 0-1.8.9-1.8 2.1v1.9h-.9c-1.2 0-2.1.4-2.1 1.5v13.8c0 1.5 1.2 2.8 2.8 2.8h16.5c1.5 0 2.8-1.2 2.8-2.8v-17.2c-.1-1.2-1-2.1-2.2-2.1m1.1 19.3c0 1-.8 1.8-1.8 1.8h-16.4c-1 0-1.8-.8-1.8-1.8v-13.3c0-.6.4-1 1-1h1v13.6c0 .4.1.7.5.7s.5-.3.5-.7v-16.5c0-.6.5-1.1 1.1-1.1h14.9c.5 0 1 .5 1 1.1v17.2"/><g fill="#e74c3c"><path stroke="#e74c3c" stroke-miterlimit="10" d="m35.5 3.2c0-.4-.3-.7-.7-.7h-4.6c-.4 0-.7.3-.7.7v4.6c0 .4.3.7.7.7h4.6c.4 0 .7-.3.7-.7v-4.6z"/><circle cx="41" cy="17" r="6"/></g><path fill="#fff" d="m41 21.8c-2.6 0-4.8-2.2-4.8-4.8s2.2-4.8 4.8-4.8 4.8 2.2 4.8 4.8-2.2 4.8-4.8 4.8"/><g fill="#e74c3c"><path d="m37 16h8v2h-8z"/><path d="m40 13h2v8h-2z"/><path d="m37 3h6v1h-6z"/><path d="m37 5h6v1h-6z"/><path d="m37 7h6v1h-6z"/><path d="m29 11h6v1h-6z"/><path d="m29 13h6v1h-6z"/><path d="m29 15h6v1h-6z"/></g></svg>