<!-- Generated by IcoMoon.io -->
<svg version="1.1" xmlns="http://www.w3.org/2000/svg" width="32" height="32" viewBox="0 0 32 32">
<title>news</title>
<path class="fill-active" d="M30.997 14.752v-0.331c0-1.973-1.6-3.573-3.573-3.573v0h-4.672c-2.428-0.002-4.708-0.638-6.681-1.753l0.068 0.035-4.619-2.56c-0.074-0.041-0.162-0.065-0.256-0.065-0.295 0-0.533 0.239-0.533 0.533 0 0 0 0.001 0 0.002v-0 4.523l-1.877 1.12c-0.155 0.095-0.256 0.264-0.256 0.456 0 0.001 0 0.002 0 0.003v-0 3.413c0 0.001 0 0.002 0 0.003 0 0.192 0.101 0.36 0.254 0.454l0.002 0.001 1.877 1.12v4.021c0 0 0 0.001 0 0.001 0 0.295 0.239 0.533 0.533 0.533 0.094 0 0.182-0.024 0.259-0.067l-0.003 0.001 4.619-2.571c1.192-0.671 2.576-1.183 4.044-1.459l0.084-0.013-0.427 4.267c-0.008 0.075-0.012 0.162-0.012 0.25 0 1.272 0.92 2.329 2.13 2.542l0.016 0.002 2.357 0.395h0.085c0.26-0.001 0.476-0.188 0.522-0.434l0.001-0.003 1.333-7.328h1.152c0 0 0 0 0 0 1.955 0 3.543-1.57 3.573-3.517l0-0.003zM27.424 17.259h-0.693v-5.333h0.693c1.384 0 2.507 1.122 2.507 2.507v0 0.331c-0.006 1.38-1.126 2.496-2.507 2.496 0 0 0 0-0 0v0zM22.155 24.64c-0.717-0.128-1.254-0.748-1.254-1.492 0-0.049 0.002-0.098 0.007-0.146l-0 0.006 0.427-4.683h3.819l-1.205 6.624zM9.664 13.44l1.067-0.64v4.085l-1.067-0.64zM11.797 17.835v-9.888l2.133 1.205c-0.002 0.018-0.003 0.038-0.003 0.059s0.001 0.041 0.004 0.061l-0-0.002v10.667c-0.002 0.018-0.003 0.038-0.003 0.059s0.001 0.041 0.004 0.061l-0-0.002-2.133 1.205zM14.997 19.467v-9.739l0.629 0.352c1.358 0.772 2.938 1.349 4.616 1.641l0.088 0.013v5.792c-1.764 0.293-3.345 0.86-4.778 1.66l0.074-0.038zM25.664 11.936v5.333h-4.267v-5.429c0.448 0 0.907 0.085 1.355 0.085z"></path>
<path class="fill-active" d="M3.893 23.787c0.295 0 0.533-0.239 0.533-0.533 0-0.121-0.040-0.232-0.108-0.321l0.001 0.001c-1.415-2.16-2.257-4.807-2.257-7.65 0-0.153 0.002-0.306 0.007-0.458l-0.001 0.022c-0.005-0.133-0.007-0.289-0.007-0.446 0-2.843 0.842-5.49 2.291-7.704l-0.033 0.054c0.067-0.088 0.107-0.199 0.107-0.32 0-0.295-0.239-0.533-0.533-0.533-0.174 0-0.328 0.083-0.426 0.212l-0.001 0.001c-1.549 2.316-2.473 5.165-2.473 8.23 0 0.178 0.003 0.355 0.009 0.532l-0.001-0.026c-0.005 0.148-0.008 0.321-0.008 0.496 0 3.065 0.923 5.913 2.506 8.284l-0.034-0.054c0.098 0.13 0.253 0.213 0.427 0.213v0z"></path>
<path class="fill-active" d="M6.496 8.587c0.080-0.093 0.128-0.214 0.128-0.347 0-0.295-0.239-0.533-0.533-0.533-0.162 0-0.307 0.072-0.405 0.186l-0.001 0.001c-1.337 1.806-2.141 4.078-2.141 6.537 0 0.143 0.003 0.286 0.008 0.427l-0.001-0.020c-0.005 0.121-0.007 0.264-0.007 0.407 0 2.459 0.803 4.731 2.162 6.567l-0.021-0.030c0.098 0.115 0.243 0.187 0.405 0.187 0.295 0 0.533-0.239 0.533-0.533 0-0.133-0.048-0.254-0.129-0.347l0.001 0.001c-1.173-1.616-1.876-3.639-1.876-5.826 0-0.153 0.003-0.305 0.010-0.457l-0.001 0.021c-0.005-0.124-0.009-0.269-0.009-0.415 0-2.187 0.703-4.209 1.895-5.854l-0.020 0.029z"></path>
<path class="fill-active" d="M8.32 20.107c0.282-0.015 0.505-0.248 0.505-0.533 0-0.146-0.058-0.278-0.153-0.374l0 0c-0.934-1.048-1.505-2.437-1.505-3.96 0-0.13 0.004-0.26 0.012-0.388l-0.001 0.018c-0.007-0.111-0.012-0.24-0.012-0.371 0-1.523 0.571-2.912 1.51-3.966l-0.005 0.006c0.115-0.098 0.187-0.243 0.187-0.405 0-0.295-0.239-0.533-0.533-0.533-0.133 0-0.254 0.048-0.347 0.129l0.001-0.001c-1.163 1.237-1.877 2.907-1.877 4.744 0 0.136 0.004 0.271 0.012 0.405l-0.001-0.019c-0.007 0.117-0.011 0.253-0.011 0.39 0 1.836 0.715 3.505 1.881 4.744l-0.003-0.004c0.091 0.073 0.207 0.117 0.334 0.117 0.003 0 0.005-0 0.008-0h-0z"></path>
</svg>
