<svg xmlns="http://www.w3.org/2000/svg" viewBox="0 0 48 24" enable-background="new 0 0 48 24"><path fill="#939393" d="M21.8,1H6C4.8,1,4,2,4,3.2V5H3.2C2,5,1,5.6,1,6.8v14.4C1,22.7,2.3,24,3.9,24h17.3c1.6,0,2.9-1.3,2.9-2.9v-18
	C24,2,23,1,21.8,1z"/><path fill="#d6d6d6" d="M20.8,0H5C3.8,0,3,1,3,2.2V4H2.2C1,4,0,4.6,0,5.8v14.4C0,21.7,1.3,23,2.9,23h17.3c1.6,0,2.9-1.3,2.9-2.9v-18
	C23,1,22,0,20.8,0z"/><g fill="#5a5a5a"><path d="M20.8,0H5C3.8,0,3,1,3,2.2V4H2.2C1,4,0,4.6,0,5.8v14.4C0,21.7,1.3,23,2.9,23h17.3c1.6,0,2.9-1.3,2.9-2.9v-18
	C23,1,22,0,20.8,0z M22,20.1c0,0.8-1.1,1.9-1.9,1.9H2.9C2.1,22,1,20.9,1,20.1V5.8C1,5.4,1.8,5,2.2,5H3v14.4c0,0.4,0.1,0.7,0.5,0.7
	S4,19.8,4,19.4V2.2C4,1.8,4.6,1,5,1h15.8C21.2,1,22,1.8,22,2.2V20.1z"/><path d="m13 3h7v1h-7z"/><path d="m13 5h7v1h-7z"/><path d="m13 7h7v1h-7z"/><path d="m5 11h6v1h-6z"/><path d="m10 9h-4c-.6 0-1-.4-1-1v-4c0-.6.4-1 1-1h4c.6 0 1 .4 1 1v4c0 .6-.4 1-1 1"/><path d="m5 14h6v1h-6z"/><path d="m5 16h6v1h-6z"/><path d="m5 18h6v1h-6z"/><path d="m20 20h-2v-8l2-2z"/><path d="m17 15h1v5h-1z"/><path d="m17 20h-5v-1.3l5-3.8z"/><path d="m12 11h5v2h-5z"/></g><path fill="#939393" d="M45.8,1H30c-1.2,0-2,1-2,2.2V5h-0.8C26,5,25,5.6,25,6.8v14.4c0,1.6,1.3,2.9,2.9,2.9h17.3
	c1.6,0,2.9-1.3,2.9-2.9v-18C48,2,47,1,45.8,1z"/><path fill="#fff" d="M44.8,0H29c-1.2,0-2,1-2,2.2V4h-0.8C25,4,24,4.6,24,5.8v14.4c0,1.6,1.3,2.9,2.9,2.9h17.3
	c1.6,0,2.9-1.3,2.9-2.9v-18C47,1,46,0,44.8,0z"/><path fill="#ac382e" d="m44.8 0h-15.8c-1.2 0-2 1-2 2.2v1.8h-.8c-1.2 0-2.2.6-2.2 1.8v14.4c0 1.6 1.3 2.9 2.9 2.9h17.3c1.6 0 2.9-1.3 2.9-2.9v-18c-.1-1.2-1.1-2.2-2.3-2.2m1.2 20.1c0 .8-1.1 1.9-1.9 1.9h-17.2c-.8 0-1.9-1.1-1.9-1.9v-14.3c0-.4.8-.8 1.2-.8h.8v14.4c0 .4.1.7.5.7s.5-.3.5-.7v-17.2c0-.4.6-1.2 1-1.2h15.8c.4 0 1.2.8 1.2 1.2v17.9"/><g fill="#e74c3c"><path d="m44 20h-2v-8l2-2z"/><path d="m41 15h1v5h-1z"/><path d="m41 20h-5v-1.3l5-3.8z"/><path d="m37 3h7v1h-7z"/><path d="m37 5h7v1h-7z"/><path d="m37 7h7v1h-7z"/><path d="m29 11h6v1h-6z"/><path d="m34 9h-4c-.6 0-1-.4-1-1v-4c0-.6.4-1 1-1h4c.6 0 1 .4 1 1v4c0 .6-.4 1-1 1"/><path d="m29 14h6v1h-6z"/><path d="m29 16h6v1h-6z"/><path d="m29 18h6v1h-6z"/><path d="m36 11h5v2h-5z"/></g></svg>