<svg xmlns="http://www.w3.org/2000/svg" viewBox="0 0 48 24" enable-background="new 0 0 48 24"><path fill="#939393" d="m47.9 18c-.1-.3-.2-.6-.2-.9-.7-2.5-1.4-5.1-2.1-7.6-.1-.2-.2-.5-.3-.6-.4-.4-.8-.6-1.3-.6.2-.9.4-1.9.5-2.8 0-.2.1-.5 0-.7-.2-.7-.6-1.1-1.3-1.2-2.8-.5-5.7-1.1-8.5-1.6-1.7-.3-3.4-.6-5-1-.5-.2-.7 0-.8.4 0 .2 0 .4-.1.6-.5-.1-.9-.2-1.4-.3-.4-.1-.6.1-.7.5-.2 1.3-.5 2.5-.7 3.8-.3 1.6-.6 3.2-.9 4.8-.2.8.2 1.4.9 1.7.3.1.5.2.8.2 1 .2 2.1.4 3.1.6-.5.1-.9.2-1.3.4-.4.1-.5.3-.4.7.3 1.2.7 2.5 1 3.7.4 1.6.9 3.1 1.3 4.7.2.8.8 1.2 1.6 1.1.3 0 .5-.1.8-.1 2.7-.8 5.5-1.5 8.2-2.3 1.9-.5 3.8-1 5.6-1.6 1-.1 1.5-1 1.2-1.9"/><path fill="#fff" d="m27.7 1c0-.2 0-.4.1-.6.1-.4.3-.5.7-.5 1.7.3 3.4.6 5 1 2.8.5 5.7 1.1 8.5 1.6.7.1 1.2.5 1.3 1.2.1.2 0 .5 0 .7-.5 2.6-1 5.2-1.5 7.8-.1.3-.1.6-.2.9-.2.9-1 1.4-1.9 1.3-1.9-.4-3.8-.7-5.7-1.1-2.8-.5-5.6-1.1-8.4-1.6-.3-.1-.5-.1-.8-.2-.7-.3-1.1-.9-.9-1.7.4-1.6.8-3.2 1.1-4.8.2-1.3.5-2.5.7-3.8.1-.4.3-.5.7-.5.4.1.8.2 1.3.3"/><g fill="#ac382e"><path d="m27.7 1c0-.2 0-.4.1-.6.1-.4.3-.5.7-.5 1.7.3 3.4.6 5 1 2.8.5 5.7 1.1 8.5 1.6.7.1 1.2.5 1.3 1.2.1.2 0 .5 0 .7-.5 2.6-1 5.2-1.5 7.8-.1.3-.1.6-.2.9-.2.9-1 1.4-1.9 1.3-1.9-.4-3.8-.7-5.7-1.1-2.8-.5-5.6-1.1-8.4-1.6-.3-.1-.5-.1-.8-.2-.7-.3-1.1-.9-.9-1.7.4-1.6.8-3.2 1.1-4.8.2-1.3.5-2.5.7-3.8.1-.4.3-.5.7-.5.4.1.8.2 1.3.3m1 0c0 .1 0 .1 0 .1-.5 2.5-1 5-1.5 7.5-.2.9-.2 1.6-.5 2.4.1 0 .1 0 .2 0 3.4.6 6.8 1.3 10.2 1.9 1 .2 1.9.4 2.9.6.4.1.7-.1.8-.5 0-.1 0-.1 0-.2.5-2.8 1.1-5.6 1.6-8.3.1-.6 0-.8-.6-.9-4.2-.8-8.4-1.6-12.5-2.4-.2-.1-.4-.2-.6-.2m-2.1.8c0 0 0 .1 0 .1-.6 2.7-1.1 5.4-1.6 8.1 0 .1 0 .2 0 .2 0 .2.2.4.4.4.2.1.4 0 .5-.2.1-.1.1-.2.1-.4.5-2.6 1-5.2 1.5-7.8 0-.1.1-.3.1-.4-.4.1-.7.1-1 0"/><path d="m40.2 6.8c-.1 0-.2 0-.3 0-1.3-.3-2.6-.5-4-.8-2-.4-4-.8-6-1.2-.3-.1-.3-.1-.2-.4.1-.4.2-.9.2-1.3.1-.3.1-.3.3-.2 2.7.5 5.5 1.1 8.2 1.6.6.1 1.2.2 1.8.3.2 0 .3.1.2.3-.1.5-.2.9-.3 1.4.2.2.2.2.1.3"/><path d="m28.9 9.4c.1 0 .2 0 .3 0 1.3.3 2.7.5 4 .8.2 0 .3.1.2.3 0 .2-.2.2-.3.2-1.3-.3-2.7-.5-4-.8-.1 0-.2-.1-.3-.2 0-.1.1-.2.1-.3"/><path d="m35.4 7.7c-.2-.2-.1-.4.2-.5.1 0 .1 0 .2 0 1.2.3 2.5.6 3.8.8 0 0 .1 0 .1 0 .1.1.2.2.2.3 0 .1-.2.2-.3.2 0 0-.1 0-.2 0-1.3-.2-2.6-.5-3.9-.7 0 0-.1-.1-.1-.1"/><path d="m34.7 10.9c0-.1 0-.2 0-.3 0-.1.1-.1.2-.2.1 0 .1 0 .2 0 1.3.2 2.6.5 3.9.7.1 0 .1 0 .2 0 .1.1.2.2.2.3 0 .1-.2.1-.3.2 0 0-.1 0-.1 0-1.3-.3-2.6-.5-3.9-.8-.2.2-.3.2-.4.1"/><path d="m35 8.9c.1 0 .2 0 .3 0 1.3.3 2.7.5 4 .8.2 0 .3.1.3.3 0 .2-.2.2-.4.2-1.3-.3-2.7-.5-4-.8-.1 0-.2-.1-.3-.2 0-.1.1-.2.1-.3"/><path d="m33.7 9c-.1 0-.2 0-.3 0-1.3-.3-2.7-.5-4-.8-.2 0-.3-.2-.3-.3.1-.2.2-.2.4-.2 1.3.3 2.7.5 4 .8.1 0 .2.1.2.2.1.1 0 .2 0 .3"/><path d="m29.5 6.6c-.2-.2-.1-.4.2-.5.1 0 .1 0 .2 0 1.3.2 2.6.5 3.9.7.1 0 .1 0 .1 0 .1.2.2.3.2.4 0 .1-.2.2-.3.2 0 0-.1 0-.2 0-1.3-.2-2.6-.5-3.9-.7 0-.1-.1-.1-.2-.1"/></g><path fill="#fff" d="m28.9 12.4c-.1-.2-.1-.4-.2-.5-.1-.4 0-.6.4-.7 1.6-.5 3.3-.9 4.9-1.4 2.8-.8 5.6-1.5 8.4-2.3.7-.2 1.3-.1 1.8.5.1.2.3.4.3.6.7 2.5 1.4 5.1 2.1 7.6.1.3.2.6.2.9.2.9-.2 1.7-1.1 2-1.9.5-3.8 1-5.6 1.6-2.7.8-5.5 1.5-8.2 2.3-.3.1-.5.1-.8.1-.8 0-1.4-.4-1.6-1.1-.4-1.6-.9-3.1-1.3-4.7-.3-1.2-.7-2.5-1-3.7-.1-.4 0-.6.4-.7.3-.2.8-.3 1.3-.5"/><g fill="#e74c3c"><path d="m28.9 12.4c-.1-.2-.1-.4-.2-.5-.1-.4 0-.6.4-.7 1.6-.5 3.3-.9 4.9-1.4 2.8-.8 5.6-1.5 8.4-2.3.7-.2 1.3-.1 1.8.5.1.2.3.4.3.6.7 2.5 1.4 5.1 2.1 7.6.1.3.2.6.2.9.2.9-.2 1.7-1.1 2-1.9.5-3.8 1-5.6 1.6-2.7.8-5.5 1.5-8.2 2.3-.3.1-.5.1-.8.1-.8 0-1.4-.4-1.6-1.1-.4-1.6-.9-3.1-1.3-4.7-.3-1.2-.7-2.5-1-3.7-.1-.4 0-.6.4-.7.3-.2.8-.3 1.3-.5m.8-.4c0 .1 0 .1 0 .2.7 2.5 1.4 4.9 2 7.4.2.8.5 1.5.6 2.3.1 0 .1 0 .2-.1 3.3-.9 6.6-1.8 10-2.8 1-.3 1.9-.5 2.9-.8.4-.1.6-.4.5-.8 0-.1 0-.1-.1-.2-.8-2.7-1.5-5.4-2.3-8.2-.2-.6-.4-.7-1-.6-4.1 1.1-8.2 2.3-12.3 3.4-.1.1-.3.1-.5.2m-1.6 1.6c0 0 0 .1 0 .2.7 2.6 1.5 5.3 2.2 7.9 0 .1.1.2.1.2.1.2.3.2.6.2.2 0 .3-.2.3-.4 0-.1 0-.3 0-.4-.7-2.5-1.4-5.1-2.1-7.6 0-.1 0-.3-.1-.4-.3.2-.6.2-1 .3"/><path d="m42.6 12c-.1 0-.2.1-.2.1-1.3.4-2.6.7-3.9 1.1-2 .5-3.9 1.1-5.9 1.6-.3.1-.3.1-.4-.2-.1-.4-.2-.8-.4-1.3-.1-.3-.1-.3.2-.4 2.7-.7 5.4-1.5 8.1-2.2.6-.2 1.2-.3 1.7-.5.2-.1.3 0 .4.2.1.4.2.9.4 1.3 0 .2 0 .3 0 .3"/><path d="m33.6 19.4c.1-.1.2-.1.3-.1 1.3-.4 2.6-.7 4-1.1.2 0 .3 0 .4.2 0 .2-.1.3-.2.3-1.3.4-2.6.7-4 1.1-.1 0-.2 0-.3-.1-.2 0-.2-.2-.2-.3"/><path d="m38.6 15c-.2-.1-.2-.4-.1-.5.1 0 .1 0 .2-.1 1.3-.4 2.6-.7 3.9-1.1 0 0 .1 0 .1 0 .1.1.3.1.3.2 0 .1-.1.2-.1.3 0 0-.1 0-.1 0-1.3.4-2.5.7-3.8 1.1-.2.1-.3.1-.4.1"/><path d="m39.5 18.2c0-.1-.1-.2-.1-.3 0-.1.1-.2.1-.2 0 0 .1-.1.2-.1 1.3-.4 2.5-.7 3.8-1.1.1 0 .1 0 .2 0 .1 0 .3.1.3.2 0 .1-.1.2-.2.3 0 0-.1 0-.1 0-1.3.4-2.6.7-3.9 1.1-.1.1-.2.1-.3.1"/><path d="m38.9 16.2c.1-.1.2-.1.3-.1 1.3-.4 2.6-.7 3.9-1.1.2 0 .3 0 .4.2.1.2 0 .3-.2.3-1.3.4-2.6.7-3.9 1.1-.1 0-.2 0-.3-.1-.2 0-.2-.2-.2-.3"/><path d="m37.8 16.9c-.1.1-.2.1-.2.1-1.3.4-2.6.7-3.9 1.1-.2.1-.4 0-.4-.2 0-.2.1-.3.2-.3 1.3-.4 2.6-.7 4-1.1.1 0 .2 0 .3.1 0 .1-.1.2 0 .3"/><path d="m32.9 16.6c-.2-.1-.2-.4-.1-.5.1 0 .1 0 .2-.1 1.3-.4 2.5-.7 3.8-1.1.1 0 .1 0 .1 0 .1.1.3.1.3.2 0 .1-.1.2-.1.3 0 0-.1 0-.1 0-1.3.4-2.5.7-3.8 1.1-.1.1-.2.1-.3.1"/></g><path fill="#939393" d="m23.9 18c-.1-.3-.2-.6-.2-.9-.7-2.5-1.4-5.1-2.1-7.6-.1-.2-.2-.5-.3-.6-.4-.4-.8-.6-1.3-.6.2-.9.4-1.9.5-2.8 0-.2.1-.5 0-.7-.2-.7-.6-1.1-1.3-1.2-2.8-.5-5.7-1.1-8.5-1.6-1.7-.3-3.4-.6-5-1-.5-.2-.7 0-.8.4 0 .2 0 .4-.1.6-.5-.2-.9-.3-1.3-.3-.4-.1-.6 0-.7.4-.2 1.3-.5 2.6-.7 3.8-.3 1.6-.6 3.2-.9 4.8-.2.8.2 1.4.9 1.7.3.1.5.2.8.2 1 .2 2.1.4 3.1.6-.5.1-.9.2-1.3.4-.4.1-.5.3-.4.7.3 1.2.7 2.5 1 3.7.4 1.6.9 3.1 1.3 4.7.2.9.7 1.3 1.5 1.3.3 0 .5-.1.8-.1 2.7-.8 5.5-1.5 8.2-2.3 1.9-.5 3.8-1 5.6-1.6 1-.2 1.5-1.1 1.2-2"/><path fill="#d6d6d6" d="m3.7 1c0-.2 0-.4.1-.6.1-.3.3-.5.7-.4 1.7.3 3.4.6 5 1 2.8.5 5.7 1.1 8.5 1.6.7.1 1.2.5 1.3 1.2.1.2 0 .5 0 .7-.5 2.6-1 5.2-1.5 7.8-.1.3-.1.6-.2.9-.2.9-1 1.4-1.9 1.3-1.9-.4-3.8-.7-5.7-1.1-2.8-.5-5.6-1.1-8.4-1.6-.3-.1-.5-.1-.8-.2-.6-.4-.9-1-.8-1.8.3-1.6.7-3.2 1-4.8.2-1.3.5-2.5.7-3.8.1-.4.3-.5.7-.4.4 0 .8.1 1.3.2"/><g fill="#5a5a5a"><path d="m3.7 1c0-.2 0-.4.1-.6.1-.3.3-.5.7-.4 1.7.3 3.4.6 5 1 2.8.5 5.7 1.1 8.5 1.6.7.1 1.2.5 1.3 1.2.1.2 0 .5 0 .7-.5 2.6-1 5.2-1.5 7.8-.1.3-.1.6-.2.9-.2.9-1 1.4-1.9 1.3-1.9-.4-3.8-.7-5.7-1.1-2.8-.5-5.6-1.1-8.4-1.6-.3-.1-.5-.1-.8-.2-.6-.4-.9-1-.8-1.8.3-1.6.7-3.2 1-4.8.2-1.3.5-2.5.7-3.8.1-.4.3-.5.7-.4.4 0 .8.1 1.3.2m1 0c0 .1 0 .1 0 .1-.5 2.5-1 5-1.5 7.5-.2.9-.2 1.6-.5 2.4.1 0 .1 0 .2 0 3.4.6 6.8 1.3 10.2 1.9 1 .2 1.9.4 2.9.6.4.1.7-.1.8-.5 0-.1 0-.1 0-.2.5-2.8 1.1-5.6 1.6-8.3.1-.6 0-.8-.6-.9-4.2-.9-8.3-1.7-12.5-2.5-.2 0-.4-.1-.6-.1m-2.1.8c0 0 0 .1 0 .1-.6 2.7-1.1 5.4-1.6 8.1 0 .1 0 .2 0 .2 0 .2.2.4.4.4.2.1.4 0 .5-.2.1-.1.1-.2.1-.4.5-2.6 1-5.2 1.5-7.8 0-.1.1-.3.1-.4-.4.1-.7.1-1 0"/><path d="m16.2 6.8c-.1 0-.2 0-.3 0-1.3-.3-2.6-.5-4-.8-2-.4-4-.8-6-1.2-.2 0-.2 0-.1-.3.1-.4.1-.9.2-1.3.1-.3.1-.3.4-.2 2.7.5 5.5 1.1 8.2 1.6.6.1 1.2.2 1.8.3.2 0 .3.1.2.3-.1.5-.2.9-.3 1.4 0 .1 0 .1-.1.2"/><path d="m4.9 9.4c.1 0 .2 0 .3 0 1.3.3 2.7.5 4 .8.2 0 .3.1.2.3 0 .2-.2.2-.3.2-1.3-.3-2.7-.5-4-.8-.1 0-.2-.1-.3-.2 0-.1.1-.2.1-.3"/><path d="m11.4 7.7c-.2-.2-.1-.4.2-.5.1 0 .1 0 .2 0 1.2.3 2.5.6 3.8.8 0 0 .1 0 .1 0 .1.1.2.2.2.3 0 .1-.2.2-.3.2 0 0-.1 0-.2 0-1.3-.2-2.6-.5-3.9-.7 0 0-.1-.1-.1-.1"/><path d="m10.7 10.9c0-.1 0-.2 0-.3 0-.1.1-.1.2-.2.1 0 .1 0 .2 0 1.3.2 2.6.5 3.9.7.1 0 .1 0 .2 0 .1.1.2.2.2.3 0 .1-.2.1-.3.2 0 0-.1 0-.1 0-1.3-.3-2.6-.5-3.9-.8-.2.2-.3.2-.4.1"/><path d="m11 8.9c.1 0 .2 0 .3 0 1.3.3 2.7.5 4 .8.2 0 .3.1.3.3 0 .2-.2.2-.4.2-1.3-.3-2.7-.5-4-.8-.1 0-.2-.1-.3-.2 0-.1.1-.2.1-.3"/><path d="m9.7 9c-.1 0-.2 0-.3 0-1.3-.3-2.7-.5-4-.8-.2 0-.3-.1-.3-.2.1-.2.2-.2.4-.2 1.3.3 2.7.5 4 .8.1 0 .2.1.2.2.1 0 0 .1 0 .2"/><path d="m5.5 6.6c-.1-.2 0-.5.2-.5.1 0 .1 0 .2 0 1.3.2 2.6.5 3.9.7.1 0 .1 0 .1 0 .1.2.2.3.2.4 0 .1-.2.2-.3.2 0 0-.1 0-.2 0-1.2-.2-2.5-.5-3.8-.7-.1-.1-.2-.1-.3-.1"/></g><path fill="#d6d6d6" d="m4.9 12.4c-.1-.2-.1-.4-.2-.5-.1-.4 0-.6.4-.7 1.6-.5 3.3-.9 4.9-1.4 2.8-.8 5.6-1.5 8.4-2.3.7-.2 1.3-.1 1.8.5.1.2.3.4.3.6.7 2.5 1.4 5.1 2.1 7.6.1.3.2.6.2.9.2.9-.2 1.7-1.1 2-1.9.5-3.8 1-5.6 1.6-2.7.8-5.5 1.5-8.2 2.3-.3 0-.6.1-.9.1-.8 0-1.4-.4-1.6-1.1-.4-1.6-.9-3.1-1.3-4.7-.3-1.2-.7-2.5-1-3.7-.1-.4 0-.6.4-.7.4-.2.9-.3 1.4-.5"/><g fill="#5a5a5a"><path d="m4.9 12.4c-.1-.2-.1-.4-.2-.5-.1-.4 0-.6.4-.7 1.6-.5 3.3-.9 4.9-1.4 2.8-.8 5.6-1.5 8.4-2.3.7-.2 1.3-.1 1.8.5.1.2.3.4.3.6.7 2.5 1.4 5.1 2.1 7.6.1.3.2.6.2.9.2.9-.2 1.7-1.1 2-1.9.5-3.8 1-5.6 1.6-2.7.8-5.5 1.5-8.2 2.3-.3 0-.6.1-.9.1-.8 0-1.4-.4-1.6-1.1-.4-1.6-.9-3.1-1.3-4.7-.3-1.2-.7-2.5-1-3.7-.1-.4 0-.6.4-.7.4-.2.9-.3 1.4-.5m.8-.4c0 .1 0 .1 0 .2.7 2.5 1.4 4.9 2 7.4.3.7.5 1.4.7 2.2.1 0 .1 0 .2-.1 3.3-.9 6.6-1.8 10-2.8 1-.3 1.9-.5 2.9-.8.4-.1.6-.4.5-.8 0-.1 0-.1-.1-.2-.8-2.7-1.5-5.4-2.3-8.2-.2-.6-.4-.7-1-.6-4.1 1.1-8.2 2.3-12.3 3.4-.2.2-.4.2-.6.3m-1.6 1.6c0 0 0 .1 0 .2.7 2.6 1.5 5.3 2.2 7.9 0 .1.1.2.1.2.1.2.3.2.6.2.2 0 .3-.2.3-.4 0-.1 0-.3 0-.4-.7-2.5-1.4-5.1-2.1-7.6 0-.1 0-.3-.1-.4-.3.2-.6.2-1 .3"/><path d="m18.6 12c-.1 0-.2.1-.2.1-1.3.4-2.6.7-3.9 1.1-2 .5-3.9 1.1-5.9 1.6-.3.1-.3.1-.4-.2-.1-.4-.2-.8-.4-1.3-.1-.3-.1-.3.2-.4 2.7-.7 5.4-1.5 8.1-2.2.6-.2 1.2-.3 1.7-.5.2-.1.3 0 .4.2.1.4.2.9.4 1.3 0 .2 0 .3 0 .3"/><path d="m9.6 19.4c.1-.1.2-.1.3-.1 1.3-.4 2.6-.7 4-1.1.2 0 .3 0 .4.2 0 .2-.1.3-.2.3-1.3.4-2.6.7-4 1.1-.1 0-.2 0-.3-.1-.2 0-.2-.2-.2-.3"/><path d="m14.6 15c-.2-.1-.2-.4-.1-.5.1 0 .1 0 .2-.1 1.3-.4 2.6-.7 3.9-1.1 0 0 .1 0 .1 0 .1.1.3.1.3.2 0 .1-.1.2-.1.3 0 0-.1 0-.1 0-1.3.4-2.5.7-3.8 1.1-.2.1-.3.1-.4.1"/><path d="m15.5 18.2c0-.1-.1-.2-.1-.3 0-.1.1-.2.1-.2 0 0 .1-.1.2-.1 1.3-.4 2.5-.7 3.8-1.1.1 0 .1 0 .2 0 .1 0 .3.1.3.2 0 .1-.1.2-.2.3 0 0-.1 0-.1 0-1.3.4-2.6.7-3.9 1.1-.1.1-.2.1-.3.1"/><path d="m14.9 16.2c.1-.1.2-.1.3-.1 1.3-.4 2.6-.7 3.9-1.1.2 0 .3 0 .4.2.1.2 0 .3-.2.3-1.3.4-2.6.7-3.9 1.1-.1 0-.2 0-.3-.1-.2 0-.2-.2-.2-.3"/><path d="m13.8 16.9c-.1.1-.2.1-.2.1-1.3.4-2.6.7-3.9 1.1-.2.1-.4 0-.4-.2 0-.2.1-.3.2-.3 1.3-.4 2.6-.7 4-1.1.1 0 .2 0 .3.1 0 .1-.1.2 0 .3"/><path d="m8.9 16.6c-.2-.1-.2-.4-.1-.5.1 0 .1 0 .2-.1 1.3-.4 2.5-.7 3.8-1.1.1 0 .1 0 .1 0 .1.1.3.1.3.2 0 .1-.1.2-.1.3 0 0-.1 0-.1 0-1.3.4-2.5.7-3.8 1.1-.1.1-.2.1-.3.1"/></g></svg>