<!-- Generated by IcoMoon.io -->
<svg version="1.1" xmlns="http://www.w3.org/2000/svg" width="32" height="32" viewBox="0 0 32 32">
<title>manage-news</title>
<path class="fill-active" d="M16 30.4c7.953 0 14.4-6.447 14.4-14.4s-6.447-14.4-14.4-14.4c-7.953 0-14.4 6.447-14.4 14.4v0c0.012 7.948 6.452 14.388 14.399 14.4h0.001zM16 2.667c7.364 0 13.333 5.97 13.333 13.333s-5.97 13.333-13.333 13.333c-7.364 0-13.333-5.97-13.333-13.333v0c0.006-7.361 5.972-13.327 13.333-13.333h0.001z"></path>
<path class="fill-active" d="M5.056 17.781l1.877 1.12v4.021c0 0 0 0.001 0 0.001 0 0.295 0.239 0.533 0.533 0.533 0.094 0 0.182-0.024 0.259-0.067l-0.003 0.001 4.619-2.571c1.192-0.668 2.577-1.176 4.044-1.448l0.084-0.013-0.437 4.267c-0.008 0.075-0.012 0.162-0.012 0.25 0 1.272 0.92 2.329 2.13 2.542l0.016 0.002 2.357 0.395h0.085c0.26-0.001 0.476-0.188 0.522-0.434l0.001-0.003 1.333-7.328h1.152c1.974 0 3.573-1.6 3.573-3.573v0-0.331c0-1.973-1.6-3.573-3.573-3.573v0h-4.661c-2.428-0.001-4.708-0.638-6.681-1.753l0.068 0.035-4.619-2.517c-0.074-0.041-0.162-0.065-0.256-0.065-0.295 0-0.533 0.239-0.533 0.533 0 0 0 0.001 0 0.002v-0 4.523l-1.877 1.12c-0.144 0.088-0.242 0.239-0.256 0.414l-0 0.002v3.413c-0.001 0.013-0.002 0.029-0.002 0.045 0 0.193 0.102 0.362 0.256 0.455l0.002 0.001zM5.867 14.208l1.067-0.64v4.085l-1.067-0.64zM26.133 15.2v0.331c0 1.384-1.122 2.507-2.507 2.507v0h-0.693v-5.333h0.693c0 0 0 0 0 0 1.381 0 2.501 1.116 2.507 2.495v0.001zM18.357 25.419c-0.738-0.11-1.297-0.739-1.297-1.499 0-0.051 0.002-0.101 0.007-0.15l-0 0.006 0.469-4.683h3.819l-1.205 6.624zM21.867 18.027h-4.267v-5.419c0.448 0 0.907 0.085 1.355 0.085h2.912zM16.533 18.251c-1.764 0.293-3.345 0.86-4.778 1.66l0.074-0.038-0.629 0.395v-9.771l0.629 0.352c1.359 0.762 2.94 1.328 4.618 1.609l0.086 0.012zM10.133 20.8l-2.133 1.205v-13.291l2.133 1.205c-0.002 0.018-0.003 0.038-0.003 0.059s0.001 0.041 0.004 0.061l-0-0.002v10.667c0.004 0.039 0.011 0.076 0.022 0.11l-0.001-0.004z"></path>
</svg>
