<svg xmlns="http://www.w3.org/2000/svg" viewBox="0 0 48 24" enable-background="new 0 0 48 24"><g fill="#939393"><path d="m15.9 21.2c-.3.4-.6.7-.8 1.1-.1.1-.3.3-.4.4 0 .1 0 .2 0 .4 0 .3.2.6.5.8.3.1.6 0 .9-.2.2-.1.3-.3.4-.4.3-.3.6-.7.9-1.1.1-.1.1-.1.2-.2-.2-.3-.4-.6-.6-.8-.3-.3-.9-.3-1.1 0"/><path d="m10.9 15.2c-2.9.3-5.6.5-7 .7-.2 0-.4 0-.6 0-.1 0-.2 0-.3 0-.3 0-.5-.1-.7-.2.2.7 1 1.1 1.8 1.2.1 0 .2 0 .3 0 .2 0 .4 0 .6 0 1.4-.1 4.1-.4 6.9-.6 0-.1-.1-.2-.1-.3-.3-.3-.6-.5-.9-.8"/><path d="m22.8 17c.3-.3 1.2-.9 1.2-.9v-5c0 0-.5-5.6-.8-8.3 0-.3-.1-.6-.2-.8-.4-.7-1-.9-1.6-1 .1.2.2.5.2.7.3 3.1.6 6.2.9 9.3 0 .4.1.7.1 1.1 0 .2 0 .4 0 .6 0 0 0 0 0 0 0 .2-.1.5-.3.7 0 0 .1 0 .1 0 .5.1.7.7.4 1.2-.2.2-.4.4-.6.6-.3.3-.7.5-1 .8-.1.1-.1.2-.2.3-.1.5.1.8.5 1.1.3.2.6.4.8.6.1.1.3.3.4.5.3.6 0 1.2-.7 1.2-.5 0-1.1 0-1.6-.2-.5-.1-.8.1-1 .4-.1.1-.1.2-.1.3 0 .4.1.9.2 1.3 0 .3 0 .6-.1.8-.1.3-.3.5-.5.5.1.1.2.2.3.4.2.2.4.4.6.5.5.3 1.1.1 1.2-.4.1-.3.1-.5.1-.8 0-.4-.1-.9-.2-1.3 0-.1 0-.2.1-.3.3-.3.6-.6 1.1-.4.5.1 1.1.2 1.7.2.1 0 .2 0 .3 0v-1.7c-.3-.2-.5-.4-.8-.6-.4-.3-.6-.6-.5-1.1-.1-.1-.1-.2 0-.3"/><path d="m13.1 19.5c-.1-.1-.2-.1-.3-.1-.5 0-1 .1-1.5.2 0 .2 0 .3 0 .5.2.4.6.6 1.2.5.3 0 .6-.1.9-.1 0 0 0-.1 0-.1.2-.5 0-.7-.3-.9"/></g><g fill="#d6d6d6"><path d="m3.3 15.9c.2 0 .4 0 .6 0-.1 0-.4 0-.6 0"/><path d="m3.6 14.4c0-.1 0-.3 0-.4-.3-3.2-.6-6.3-.9-9.4 0-.2 0-.3 0-.5-.4 0-1.2.2-1.6.2 0 .1 1.1 9.9 1.2 10 .1.3.6.4.8.4.3.1.5-.1.5-.3"/></g><g fill="#5a5a5a"><path d="m13.7 5.9c1.6-.2 3.2-.3 4.7-.5.1 0 .2 0 .3-.1 0-.1 0-.2 0-.3 0-.5-.1-1.1-.2-1.6 0-.2-.1-.3-.4-.3-.7.1-1.4.1-2.1.2-3.2.4-6.5.7-9.7 1-.4.1-.4.1-.3.4 0 .5.1 1 .1 1.6 0 .4 0 .4.4.3 2.4-.2 4.8-.5 7.2-.7"/><path d="m12.3 11.8c0-.2-.2-.3-.4-.3-1.6.2-3.2.3-4.9.5-.1 0-.2.1-.3.1 0 .1 0 .3 0 .4.1.1.2.2.4.2 1.6-.1 3.2-.3 4.9-.5.1-.1.3-.1.3-.4"/><path d="m18.6 6.9s-.1 0-.2 0c-1.6.2-3.1.3-4.7.5-.1 0-.1 0-.2 0-.2.1-.3.4 0 .6.1 0 .2 0 .3 0 1.6-.1 3.1-.3 4.7-.4.1 0 .1 0 .2 0 .1-.1.2-.2.2-.3 0-.2-.2-.3-.3-.4"/><path d="m11.8 10.2c.1 0 .2-.1.3-.1 0-.1 0-.3 0-.3-.1-.1-.2-.2-.4-.2-1.6.1-3.2.3-4.8.4-.2 0-.4.1-.4.3 0 .2.2.3.4.3 1.6-.1 3.2-.2 4.9-.4"/><path d="m11.5 8.3c.1 0 .1 0 .2 0 .1-.1.2-.2.2-.3 0-.1-.2-.2-.3-.3 0 0-.1 0-.2 0-1.5.1-3.1.2-4.6.4-.1 0-.2 0-.2 0-.2.1-.3.4 0 .6.1 0 .2 0 .3 0 1.5-.1 3-.3 4.6-.4"/><path d="m3.3 15.9c.3 0 .5 0 .6 0l6-.6c-.2-.2-.3-.4-.4-.6-.1-.2-.1-.3-.1-.5-1.4.1-2.9.3-4.3.4-.1 0-.2 0-.3 0 0-1-.1-1.9-.2-2.8-.3-3-.6-6-.9-9 0 0 0-.1 0-.2.3 0 .5 0 .7 0 5-.5 10-1 15-1.4.7-.1 1 .2 1 .9.3 3.3.6 6.7 1 10 0 .1 0 .2 0 .2 0 .2 0 .4-.1.5.1 0 .1 0 .2 0 .1 0 .2 0 .3 0 .2 0 .5 0 .7.1 0-.2.1-.4 0-.6 0-.4-.1-.7-.1-1.1-.3-3.1-.6-6.2-.9-9.3 0-.3-.1-.5-.2-.7 0 0 0 0 0-.1-.4-.7-1.1-1-1.9-.9-3.4.1-6.8.5-10.2.8-2 .2-4 .4-6 .6-.5 0-.7.3-.6.7 0 .2.1.4.1.7-.7 0-1.2.1-1.7.1-.2 0-.6.1-1 .1v3.5c.2.7.5 1.4.5 2 .2 1.9.4 3.6.6 5.5.1.7.5 1.1 1.1 1.4.2.1.5.1.7.2.1.1.3.1.4.1m-1-1.5c0-.1-1.2-10-1.2-10 .4 0 1.2-.2 1.6-.2 0 .2 0 .3 0 .5.3 3.1.6 6.2.9 9.3 0 .1 0 .3 0 .4-.1.2-.2.4-.5.4-.2 0-.7-.2-.8-.4"/></g><path fill="#d6d6d6" d="m21.6 12.7c-.1 0-.1 0-.2 0 .1-.1.1-.3.1-.5 0-.1 0-.2 0-.2-.3-3.3-.6-6.7-1-10-.1-.7-.3-.9-1-.9-5 .5-10 1-15 1.4-.2 0-.5 0-.7 0 0 .1 0 .1 0 .2.3 3 .6 6 .9 9 .1.9.2 1.8.2 2.8.1 0 .2 0 .3 0 1.4-.1 2.9-.3 4.3-.4 0 .2.1.3.1.5.1.2.2.4.4.6l-6 .6c1.4-.1 4.1-.4 7-.7-.1-.1-.1-.1-.2-.2-.2-.2-.4-.4-.5-.7-.3-.5 0-1 .6-1.1.2 0 .5 0 .7 0 .4 0 .7.1 1.1.2.4.1.6 0 .9-.3.1-.1.2-.3.2-.5-.1-.4-.1-.9-.2-1.3 0-.2 0-.4 0-.6 0-.3.2-.6.5-.8.4-.1.7-.1.9.2.4.4.7.9 1.1 1.4.3.4.9.4 1.2 0 .3-.3.5-.7.8-1 .2-.2.3-.4.6-.5.4-.3 1-.1 1.2.4 0 .3 0 .6 0 .8 0 .4-.1.9-.2 1.3 0 .1.1.3.1.4.1.1.2.2.3.3.1.1.2.1.3.1.4 0 .9-.1 1.3-.1.2 0 .4 0 .6 0 .1-.2.2-.4.3-.7-.2 0-.4-.1-.7-.1-.1.4-.2.4-.3.4m-2.9-5.1c0 0-.1 0-.2 0-1.6.2-3.1.3-4.7.4-.1 0-.3 0-.3 0-.2-.2-.2-.5 0-.6.1 0 .1 0 .2 0 1.6-.2 3.1-.3 4.7-.5.1 0 .1 0 .2 0 .1.1.3.2.3.3 0 .1-.1.3-.2.4m-12.6-1.3c0-.5-.1-1-.1-1.6 0-.3 0-.3.3-.4 3.3-.3 6.6-.6 9.9-.9.7-.1 1.4-.1 2.1-.2.3 0 .3.1.4.3 0 .5.1 1.1.2 1.6 0 .1 0 .2 0 .3-.1 0-.2 0-.3.1-1.6.2-3.2.3-4.7.5-2.4.2-4.8.5-7.2.7-.6-.1-.6-.1-.6-.4m.4 1.8c.1 0 .2 0 .2 0 1.6-.1 3.1-.3 4.7-.4.1 0 .1 0 .2 0 .1.1.3.2.3.3 0 .1-.1.2-.2.3 0 0-.1 0-.2 0-1.6.1-3.1.3-4.7.4-.1 0-.3 0-.3 0-.3-.2-.2-.5 0-.6m0 2.3c0-.2.1-.3.4-.3 1.6-.2 3.2-.3 4.8-.5.1 0 .3.1.4.2.1.1 0 .2 0 .3-.1 0-.2.1-.3.1-1.6.2-3.2.3-4.8.5-.3 0-.5-.1-.5-.3m.2 2.1c-.1-.1 0-.2 0-.4.2 0 .2-.1.3-.1 1.6-.2 3.2-.3 4.8-.5.2 0 .4.1.4.3 0 .2-.1.3-.3.3-1.6.2-3.2.3-4.9.5 0 0-.2 0-.3-.1"/><path fill="#5a5a5a" d="m19.5 22.4c.1-.3.1-.5.1-.8 0-.4-.1-.9-.2-1.3 0-.1 0-.2.1-.3.3-.3.5-.6 1-.4.5.1 1.1.2 1.6.2.7 0 1-.6.7-1.2-.1-.2-.2-.3-.4-.5-.3-.2-.5-.5-.8-.6-.4-.3-.6-.6-.5-1.1 0-.1.1-.3.2-.3.3-.3.7-.5 1-.8.2-.2.4-.4.6-.6.3-.5.1-1-.4-1.2 0 0-.1 0-.1 0 .1-.2.2-.4.3-.7-.1.2-.2.5-.3.7-.2 0-.4 0-.6 0-.4 0-.9.1-1.3.1-.1 0-.2-.1-.3-.1-.1-.1-.2-.2-.3-.3-.1-.1-.1-.3-.1-.4 0-.4.1-.9.2-1.3 0-.3 0-.6 0-.8-.2-.5-.8-.7-1.2-.4-.2.1-.4.3-.6.5-.3.3-.5.6-.8 1-.3.4-.9.4-1.2 0-.4-.5-.7-.9-1.1-1.4-.2-.3-.6-.4-.9-.2-.4.1-.5.4-.5.8 0 .2 0 .4 0 .6 0 .4.1.9.2 1.3 0 .2-.1.3-.2.5-.2.3-.5.3-.9.3-.3-.1-.7-.1-1.1-.2-.2 0-.5 0-.7 0-.6.1-.9.6-.6 1.1.1.2.3.5.5.7.1.1.1.1.2.2.3.2.6.5.9.7.1.1.1.2.1.3 0 .3 0 .6-.2.7-.4.3-.8.6-1.2.9-.5.4-.7.8-.5 1.2.2.4.6.6 1.2.5.5 0 1-.1 1.5-.2.1 0 .3 0 .3.1.3.2.5.5.4.9 0 0 0 .1 0 .1-.1.3-.1.7-.2 1 0 .2-.1.4 0 .6 0 .3.2.6.5.8.3.1.6.1.9-.1.1-.1.3-.3.4-.4.3-.3.6-.7.8-1.1.2-.3.8-.3 1.1 0 .2.3.4.6.6.8.1.1.1.2.2.3.2.2.3.4.6.5 0-.1.3-.1.5-.1.2-.1.4-.3.5-.6m-4.7-5.2c-.4-1 .1-2.1 1-2.5 1-.4 2.1.1 2.5 1.1.4 1-.1 2.1-1.1 2.5-.9.3-2-.1-2.4-1.1"/><path fill="#d6d6d6" d="m18.3 15.8c-.4-1-1.5-1.5-2.5-1.1-1 .4-1.5 1.5-1 2.5.4 1 1.5 1.4 2.5 1 .9-.4 1.4-1.5 1-2.4"/><g fill="#939393"><path d="m37.1 19.5c-.1-.1-.2-.1-.3-.1-.5 0-1 .1-1.5.2 0 .2 0 .3 0 .5.2.4.6.6 1.2.5.3 0 .6-.1.9-.1 0 0 0-.1 0-.1.2-.5 0-.7-.3-.9"/><path d="m39.9 21.2c-.3.4-.6.7-.8 1.1-.1.1-.3.3-.4.4 0 .1 0 .2 0 .4 0 .3.2.6.5.8.3.1.6 0 .9-.2.2-.1.3-.3.4-.4.3-.3.6-.7.9-1.1.1-.1.1-.1.2-.2-.2-.3-.4-.6-.6-.8-.3-.3-.9-.3-1.1 0"/><path d="m34.9 15.2c-2.9.3-5.6.5-7 .7-.2 0-.4 0-.6 0-.1 0-.2 0-.3 0-.3 0-.5-.1-.7-.2.2.7 1 1.1 1.8 1.2.1 0 .2 0 .3 0 .2 0 .4 0 .6 0 1.4-.1 4.1-.4 6.9-.6 0-.1-.1-.2-.1-.3-.3-.3-.6-.5-.9-.8"/><path d="m46.8 17c.3-.3 1.2-.9 1.2-.9v-5c0 0-.5-5.6-.8-8.3 0-.3-.1-.6-.2-.8-.4-.7-1-.9-1.6-1 .1.2.2.5.2.7.3 3.1.6 6.2.9 9.3 0 .4.1.7.1 1.1 0 .2 0 .4 0 .6 0 0 0 0 0 0 0 .2-.1.5-.3.7 0 0 .1 0 .1 0 .5.1.7.7.4 1.2-.2.2-.4.4-.6.6-.3.3-.7.5-1 .8-.1.1-.1.2-.2.3-.1.5.1.8.5 1.1.3.2.6.4.8.6.1.1.3.3.4.5.3.6 0 1.2-.7 1.2-.5 0-1.1 0-1.6-.2-.5-.1-.8.1-1 .4-.1.1-.1.2-.1.3 0 .4.1.9.2 1.3 0 .3 0 .6-.1.8-.1.3-.3.5-.5.5.1.1.2.2.3.4.2.2.4.4.6.5.5.3 1.1.1 1.2-.4.1-.3.1-.5.1-.8 0-.4-.1-.9-.2-1.3 0-.1 0-.2.1-.3.3-.3.6-.6 1.1-.4.5.1 1.1.2 1.7.2.1 0 .2 0 .3 0v-1.7c-.3-.2-.5-.4-.8-.6-.4-.3-.6-.6-.5-1.1-.1-.1-.1-.2 0-.3"/></g><g fill="#fff"><path d="m27.3 15.9c.2 0 .4 0 .6 0-.1 0-.4 0-.6 0"/><path d="m27.6 14.4c0-.1 0-.3 0-.4-.3-3.1-.6-6.2-.9-9.3 0-.2 0-.3 0-.5-.4 0-1.2.2-1.6.2 0 .1 1.1 9.9 1.2 10 .1.3.6.4.8.4.3 0 .5-.2.5-.4"/></g><g fill="#ac382e"><path d="m37.7 5.9c1.6-.2 3.2-.3 4.7-.5.1 0 .2 0 .3-.1 0-.1 0-.2 0-.3 0-.5-.1-1.1-.2-1.6 0-.2-.1-.3-.4-.3-.7.1-1.4.1-2.1.2-3.3.3-6.6.6-9.9.9-.3 0-.3.1-.3.4 0 .5.1 1 .1 1.6 0 .4 0 .4.4.3 2.6-.1 5-.4 7.4-.6"/><path d="m36.3 11.8c0-.2-.2-.3-.4-.3-1.6.2-3.2.3-4.8.5-.1 0-.2.1-.3.1 0 .1 0 .3 0 .4.1.1.2.2.4.2 1.6-.1 3.2-.3 4.9-.5 0-.1.2-.1.2-.4"/><path d="m42.6 6.9s-.1 0-.2 0c-1.6.2-3.1.3-4.7.5-.1 0-.1 0-.2 0-.2.1-.3.4 0 .6.1 0 .2 0 .3 0 1.6-.1 3.1-.3 4.7-.4.1 0 .1 0 .2 0 .1-.1.2-.2.2-.3 0-.2-.2-.3-.3-.4"/><path d="m35.8 10.2c.1 0 .2-.1.3-.1 0-.1 0-.3 0-.3-.1-.1-.2-.2-.4-.2-1.6.1-3.2.3-4.8.5-.2 0-.4.1-.4.3 0 .2.2.3.4.3 1.6-.2 3.2-.3 4.9-.5"/><path d="m35.5 8.3c.1 0 .1 0 .2 0 .1-.1.2-.2.2-.3 0-.1-.2-.2-.3-.3 0 0-.1 0-.2 0-1.6.1-3.1.3-4.7.4-.1 0-.2 0-.2 0-.2.1-.3.4 0 .6.1 0 .2 0 .3 0 1.6-.1 3.1-.3 4.7-.4"/><path d="m27.3 15.9c.3 0 .5 0 .6 0l6-.6c-.2-.2-.3-.4-.4-.6-.1-.2-.1-.3-.1-.5-1.4.1-2.9.3-4.3.4-.1 0-.2 0-.3 0 0-1-.1-1.9-.2-2.8-.3-3-.6-6-.9-9 0 0 0-.1 0-.2.3 0 .5 0 .7 0 5-.5 10-1 15-1.4.7-.1 1 .2 1 .9.3 3.3.6 6.7 1 10 0 .1 0 .2 0 .2 0 .2 0 .4-.1.5.1 0 .1 0 .2 0 .1 0 .2 0 .3 0 .2 0 .5 0 .7.1 0-.2.1-.4 0-.6 0-.4-.1-.7-.1-1.1-.3-3.1-.6-6.2-.9-9.3 0-.3-.1-.5-.2-.7 0 0 0 0 0-.1-.4-.7-1.1-1-1.9-.9-3.4.1-6.8.5-10.2.8-2 .2-4 .4-6 .6-.5 0-.7.3-.6.7 0 .2.1.4.1.7-.7 0-1.2.1-1.7.1-.2 0-.6.1-1 .1v3.5c.2.7.5 1.4.5 2 .2 1.9.4 3.6.6 5.5.1.7.5 1.1 1.1 1.4.2.1.5.1.7.2.1.1.3.1.4.1m-1-1.5c0-.1-1.2-10-1.2-10 .4 0 1.2-.2 1.6-.2 0 .2 0 .3 0 .5.3 3.1.6 6.2.9 9.3 0 .1 0 .3 0 .4-.1.2-.2.4-.5.4-.2 0-.7-.2-.8-.4"/><path d="m46.3 13.4c.1-.2.2-.4.3-.7-.1.3-.2.5-.3.7"/></g><path fill="#fff" d="m45.6 12.7c-.1 0-.1 0-.2 0 .1-.1.1-.3.1-.5 0-.1 0-.2 0-.2-.3-3.3-.6-6.7-1-10-.1-.7-.3-.9-1-.9-5 .5-10 1-15 1.4-.2 0-.5 0-.7 0 0 .1 0 .1 0 .2.3 3 .6 6 .9 9 .1.9.2 1.8.2 2.8.1 0 .2 0 .3 0 1.4-.1 2.9-.3 4.3-.4 0 .2.1.3.1.5.1.2.2.4.4.6l-6 .6c1.4-.1 4.1-.4 7-.7-.1-.1-.1-.1-.2-.2-.2-.2-.4-.4-.5-.7-.3-.5 0-1 .6-1.1.2 0 .5 0 .7 0 .4 0 .7.1 1.1.2.4.1.6 0 .9-.3.1-.1.2-.3.2-.5-.1-.4-.1-.9-.2-1.3 0-.2 0-.4 0-.6 0-.3.2-.6.5-.8.4-.1.7-.1.9.2.4.4.7.9 1.1 1.4.3.4.9.4 1.2 0 .3-.3.5-.7.8-1 .2-.2.3-.4.6-.5.4-.3 1-.1 1.2.4 0 .3 0 .6 0 .8 0 .4-.1.9-.2 1.3 0 .1.1.3.1.4.1.1.2.2.3.3.1.1.2.1.3.1.4 0 .9-.1 1.3-.1.2 0 .4 0 .6 0 .1-.2.2-.4.3-.7-.2 0-.4-.1-.7-.1-.1.4-.2.4-.3.4m-2.9-5.1c0 0-.1 0-.2 0-1.6.2-3.1.3-4.7.4-.1 0-.3 0-.3 0-.2-.2-.2-.5 0-.6.1 0 .1 0 .2 0 1.6-.2 3.1-.3 4.7-.5.1 0 .1 0 .2 0 .1.1.3.2.3.3 0 .1-.1.3-.2.4m-12.6-1.3c0-.5-.1-1-.1-1.6 0-.3 0-.3.3-.4 3.3-.3 6.6-.6 9.9-.9.7-.1 1.4-.1 2.1-.2.3 0 .3.1.4.3 0 .5.1 1.1.2 1.6 0 .1 0 .2 0 .3-.1 0-.2 0-.3.1-1.6.2-3.2.3-4.7.5-2.4.2-4.8.5-7.2.7-.6-.1-.6-.1-.6-.4m.4 1.8c.1 0 .2 0 .2 0 1.6-.1 3.1-.3 4.7-.4.1 0 .1 0 .2 0 .1.1.3.2.3.3 0 .1-.1.2-.2.3 0 0-.1 0-.2 0-1.6.2-3.1.3-4.7.4-.1 0-.3 0-.3 0-.3-.2-.2-.5 0-.6m0 2.3c0-.2.1-.3.4-.3 1.6-.2 3.2-.3 4.8-.5.1 0 .3.1.4.2.1.1 0 .2 0 .3-.1 0-.2.1-.3.1-1.6.2-3.2.3-4.8.5-.3 0-.5-.1-.5-.3m.2 2.1c-.1-.1 0-.2 0-.4.1 0 .2-.1.3-.1 1.6-.2 3.2-.3 4.8-.5.2 0 .4.1.4.3 0 .2-.1.3-.3.3-1.6.2-3.2.3-4.9.5 0 0-.2 0-.3-.1"/><path fill="#e74c3c" d="m43.5 22.4c.1-.3.1-.5.1-.8 0-.4-.1-.9-.2-1.3 0-.1 0-.2.1-.3.3-.3.5-.6 1-.4.5.1 1.1.2 1.6.2.7 0 1-.6.7-1.2-.1-.2-.2-.3-.4-.5-.3-.2-.5-.5-.8-.6-.4-.3-.6-.6-.5-1.1 0-.1.1-.3.2-.3.3-.3.7-.5 1-.8.2-.2.4-.4.6-.6.3-.5.1-1-.4-1.2 0 0-.1 0-.1 0-.2 0-.4 0-.6 0-.4 0-.9.1-1.3.1-.1 0-.2-.1-.3-.1-.1-.1-.2-.2-.3-.3-.1-.1-.1-.3-.1-.4 0-.4.1-.9.2-1.3 0-.3 0-.6 0-.8-.2-.5-.8-.7-1.2-.4-.2.1-.4.3-.6.5-.3.3-.5.6-.8 1-.3.4-.9.4-1.2 0-.4-.5-.7-.9-1.1-1.4-.2-.3-.6-.4-.9-.2-.4.1-.5.4-.5.8 0 .2 0 .4 0 .6 0 .4.1.9.2 1.3 0 .2-.1.3-.2.5-.2.3-.5.3-.9.3-.3-.1-.7-.1-1.1-.2-.2 0-.5 0-.7 0-.6.1-.9.6-.6 1.1.1.2.3.5.5.7.1.1.1.1.2.2.3.2.6.5.9.7.1.1.1.2.1.3 0 .3 0 .6-.2.7-.4.3-.8.6-1.2.9-.5.4-.7.8-.5 1.2.2.4.6.6 1.2.5.5 0 1-.1 1.5-.2.1 0 .3 0 .3.1.3.2.5.5.4.9 0 0 0 .1 0 .1-.1.3-.1.7-.2 1 0 .2-.1.4 0 .6 0 .3.2.6.5.8.3.1.6.1.9-.1.1-.1.3-.3.4-.4.3-.3.6-.7.8-1.1.2-.3.8-.3 1.1 0 .2.3.4.6.6.8.1.1.1.2.2.3.2.2.3.4.6.5 0-.1.3-.1.5-.1.2-.1.4-.3.5-.6m-4.7-5.2c-.4-1 .1-2.1 1-2.5 1-.4 2.1.1 2.5 1.1.4 1-.1 2.1-1.1 2.5-.9.3-2-.1-2.4-1.1"/><path fill="#fff" d="m42.3 15.8c-.4-1-1.5-1.5-2.5-1.1-1 .4-1.5 1.5-1 2.5.4 1 1.5 1.4 2.5 1 .9-.4 1.4-1.5 1-2.4"/></svg>