<!-- Generated by IcoMoon.io -->
<svg version="1.1" xmlns="http://www.w3.org/2000/svg" width="32" height="32" viewBox="0 0 32 32">
<title>manage-groups_3</title>
<path class="fill-active" d="M2.293 30.091c0.042 0.254 0.26 0.446 0.522 0.448h26.080c0.001 0 0.003 0 0.004 0 0.272 0 0.496-0.204 0.529-0.467l0-0.003 2.304-19.84v-3.701c0-0.295-0.239-0.533-0.533-0.533v0h-9.6c-0.295 0-0.533 0.239-0.533 0.533v0 2.347l-2.272-0.427c-2.609-0.51-4.896-1.635-6.786-3.219l0.023 0.019-4.427-3.659c-0.093-0.078-0.215-0.125-0.347-0.125-0.063 0-0.123 0.011-0.179 0.030l0.004-0.001c-0.176 0.066-0.306 0.217-0.341 0.402l-0 0.003-0.917 4.875-2.261 0.843c-0.182 0.058-0.32 0.206-0.362 0.391l-0.001 0.004-0.683 3.659c-0.006 0.030-0.010 0.066-0.010 0.101 0 0.159 0.070 0.302 0.18 0.399l0.001 0.001 1.803 1.6-0.747 3.968h-2.944c-0.293 0.002-0.53 0.24-0.53 0.533 0 0.030 0.003 0.060 0.007 0.088l-0-0.003zM5.6 8l-0.853 4.544-1.067-0.971 0.587-3.040zM7.627 2.997l2.133 1.792c-0.023 0.040-0.041 0.086-0.053 0.135l-0.001 0.004-2.133 11.424c-0.003 0.022-0.005 0.048-0.005 0.075s0.002 0.052 0.006 0.078l-0-0.003-2.656 0.896zM30.667 7.061v3.115l-2.219 19.072-1.899-11.115c-0.042-0.254-0.26-0.446-0.522-0.448h-5.227l0.256-0.672 1.269 0.235c0.212 0.042 0.457 0.065 0.707 0.065 1.874 0 3.436-1.339 3.78-3.113l0.004-0.024 0.064-0.352c0.041-0.212 0.065-0.456 0.065-0.705 0-1.872-1.34-3.432-3.113-3.771l-0.024-0.004-1.312-0.245-0.352-0.064v-1.973zM9.856 16.864c1.383-0.467 2.977-0.737 4.633-0.737 0.059 0 0.117 0 0.176 0.001l-0.009-0-0.469 1.6h-6.901zM15.787 16.064l4.192 0.789-0.331 0.875h-4.341zM21.717 16.064l1.067-5.803 0.789 0.149c1.295 0.251 2.26 1.375 2.26 2.725 0 0.168-0.015 0.332-0.043 0.491l0.003-0.017-0.064 0.352c-0.256 1.295-1.382 2.258-2.734 2.258-0.165 0-0.326-0.014-0.483-0.042l0.017 0.002zM21.717 10.059l-1.067 5.803-0.736-0.139-3.915-0.693 1.067-5.888c0.491 0.139 0.981 0.267 1.483 0.363zM14.933 15.051c-0.106-0.003-0.231-0.004-0.357-0.004-1.803 0-3.536 0.298-5.153 0.848l0.113-0.033-0.811 0.277 1.941-10.592 0.661 0.555c1.349 1.122 2.918 2.039 4.625 2.673l0.111 0.036zM25.6 18.805l1.835 10.667h-24.171l-1.835-10.667z"></path>
</svg>
