<svg xmlns="http://www.w3.org/2000/svg" xmlns:xlink="http://www.w3.org/1999/xlink" viewBox="0 0 48 24" enable-background="new 0 0 48 24"><symbol id="0" viewBox="-12 -12 24 24"><path fill="#939393" d="M12-7.1C12-9.8,9.8-12,7.1-12H-6.1C-8.8-12-11-9.8-11-7.1V6.1c0,2.7,2.2,4.9,4.9,4.9H7.1
		C9.8,11,12,8.8,12,6.1V-7.1z" id="2"/><path fill="#5a5a5a" d="M11-6.1C11-8.8,8.8-11,6.1-11H-7.1C-9.8-11-12-8.8-12-6.1V7.1c0,2.7,2.2,4.9,4.9,4.9H6.1
		C8.8,12,11,9.8,11,7.1V-6.1z"/><path fill="#d6d6d6" d="M-7.1-10C-9.2-10-11-8.2-11-6.1V7.1c0,2.2,1.8,3.9,3.9,3.9H6.1C8.2,11,10,9.2,10,7.1V-6.1
		C10-8.2,8.2-10,6.1-10H-7.1z"/><path fill="#5a5a5a" d="m-4.1-5.2c0-1.2-1-2.2-2.2-2.2-1.2 0-2.2 1-2.2 2.2s1 2.2 2.2 2.2c1.2 0 2.2-1 2.2-2.2"/><path fill="#5a5a5a" d="M-8,0.3c2,0,3.8-0.6,5.2-2.1c1.5-1.5,2-3.3,2-5.3h3.2C2.5-1-2,3.5-8,3.5V0.3z"/><path fill="#5a5a5a" d="M-8,6C-1,6,4.9,0,4.9-7h3.2C8.1,2,1,9.2-8,9.2V6z"/></symbol><symbol id="1" viewBox="-12 -12 24 24"><use xlink:href="#2"/><path fill="#d95b29" d="M11-6.1C11-8.8,8.8-11,6.1-11H-7.1C-9.8-11-12-8.8-12-6.1V7.1c0,2.7,2.2,4.9,4.9,4.9H6.1
		C8.8,12,11,9.8,11,7.1V-6.1z"/><path fill="#fb9e3a" d="M-7.1-10C-9.2-10-11-8.2-11-6.1V7.1c0,2.2,1.8,3.9,3.9,3.9H6.1C8.2,11,10,9.2,10,7.1V-6.1
		C10-8.2,8.2-10,6.1-10H-7.1z"/><path fill="#fff" d="m-4.1-5.2c0-1.2-1-2.2-2.2-2.2-1.2 0-2.2 1-2.2 2.2s1 2.2 2.2 2.2c1.2 0 2.2-1 2.2-2.2"/><path fill="#fff" d="M-8,0.3c2,0,3.8-0.6,5.2-2.1c1.5-1.5,2-3.3,2-5.3h3.2C2.5-1-2,3.5-8,3.5V0.3z"/><path fill="#fff" d="M-8,6C-1,6,4.9,0,4.9-7h3.2C8.1,2,1,9.2-8,9.2V6z"/></symbol><use xlink:href="#1" width="24" height="24" x="-12" y="-12" transform="matrix(1 0 0-1 36 12)"/><use xlink:href="#0" width="24" height="24" x="-12" y="-12" transform="matrix(1 0 0-1 12 12)"/></svg>