<!-- Generated by IcoMoon.io -->
<svg version="1.1" xmlns="http://www.w3.org/2000/svg" width="32" height="32" viewBox="0 0 32 32">
<title>news-feeds</title>
<path class="fill-active" d="M28.8 23.339v-14.677c0-3.016-2.445-5.461-5.461-5.461v0h-14.677c-3.016 0-5.461 2.445-5.461 5.461v0 14.677c0 3.016 2.445 5.461 5.461 5.461h14.677c3.016 0 5.461-2.445 5.461-5.461v0zM9.824 24.469c-1.302 0-2.357-1.055-2.357-2.357s1.055-2.357 2.357-2.357c1.302 0 2.357 1.055 2.357 2.357v0c0 1.302-1.055 2.357-2.357 2.357v0zM15.744 24c0.005-0.102 0.008-0.22 0.008-0.34 0-2.061-0.816-3.931-2.143-5.305l0.002 0.002c-1.352-1.355-3.221-2.194-5.287-2.194-0.114 0-0.227 0.003-0.34 0.008l0.016-0.001v-3.371c0.080-0.002 0.175-0.003 0.27-0.003 6.038 0 10.933 4.895 10.933 10.933 0 0.095-0.001 0.19-0.004 0.284l0-0.014zM21.76 24c-0.094-7.583-6.186-13.713-13.746-13.866l-0.014-0v-3.413c0.032-0 0.070-0 0.108-0 9.426 0 17.067 7.641 17.067 17.067 0 0.075-0 0.15-0.001 0.225l0-0.011z"></path>
</svg>
