<svg xmlns="http://www.w3.org/2000/svg" viewBox="0 0 48 24" enable-background="new 0 0 48 24"><path fill="#939393" d="m22 3h-19c-1.1 0-2 1.1-2 2.2v12c0 1.1.9 1.8 2 1.8h6.9c-.3 1-2 3.2-2.7 3.9-.1.2-.2.5-.2.8v.3h11v-.3c0-.3-.1-.6-.3-.8-.7-.7-2.4-2.9-2.6-3.9h6.9c1.1 0 2-.7 2-1.8v-12c0-1.1-.9-2.2-2-2.2"/><g fill="#5a5a5a"><path d="m21 18.2h-19c-1.1 0-2-.9-2-2v-12c0-1.1.9-2 2-2h19c1.1 0 2 .9 2 2v12c0 1.1-.9 2-2 2"/><path d="m14 17.9v-.6h-5v.6c0 1.2-2 3.4-2.7 4.1-.2.2-.3.4-.3.7v.6h11v-.6c0-.3-.1-.5-.3-.7-.7-.8-2.7-2.9-2.7-4.1"/></g><g fill="#fff"><path d="m21 16.2h-19c-.6 0-1-.4-1-1v-11c0-.6.4-1 1-1h19c.6 0 1 .4 1 1v11c0 .6-.4 1-1 1"/><circle cx="11.5" cy="17.6" r=".6"/><path d="m8 0h7v5h-7z"/></g><g fill="#5a5a5a"><path d="m9 0h5v5h-5z"/><path d="M18.2 5 11.5 13.5 4.8 5z"/></g><path fill="#939393" d="m46.4 3h-6.4-7-5.6c-1.1 0-2.4 1.2-2.4 2.3v12c0 1.1 1.3 1.7 2.4 1.7h6.9c-.3 2-2.2 3.3-2.9 4-.2.2-.5.6-.5.8v.2h11v-.2c0-.3.1-.7-.1-.8-.7-.7-2.2-2-2.5-4h6.9c1.1 0 1.6-.6 1.6-1.7v-12c.2-1.1-.3-2.3-1.4-2.3"/><g fill="#ac382e"><path d="m45.4 18.3h-19c-1.1 0-2-.9-2-2v-12c0-1.1.9-2 2-2h19c1.1 0 2 .9 2 2v12c0 1.1-.9 2-2 2"/><path d="m38.4 18v-.6h-5v.6c0 1.2-2 3.4-2.7 4.1-.2.2-.3.4-.3.7v.6h11v-.6c0-.3-.1-.5-.3-.7-.7-.7-2.7-2.9-2.7-4.1"/></g><g fill="#fff"><path d="m45.4 16.3h-19c-.6 0-1-.4-1-1v-11c0-.6.4-1 1-1h19c.6 0 1 .4 1 1v11c0 .6-.5 1-1 1"/><circle cx="35.9" cy="17.7" r=".6"/><path d="m32 0h7v5h-7z"/></g><g fill="#e74c3c"><path d="m33 0h5v5h-5z"/><path d="m42.6 5l-6.7 8.5-6.8-8.5z"/></g></svg>