<svg version="1.1" xmlns="http://www.w3.org/2000/svg" width="32" height="32" viewBox="0 0 32 32">
<path class="fill-active" d="M28.267 20.917v-12.8c0-1.178-0.955-2.133-2.133-2.133v0h-6.795v1.067h6.795c0.589 0 1.067 0.478 1.067 1.067v0 11.733c0 0.589-0.478 1.067-1.067 1.067v0h-20.267c-0.589 0-1.067-0.478-1.067-1.067v0-11.733c0-0.589 0.478-1.067 1.067-1.067v0h6.005v-1.067h-6.005c-1.178 0-2.133 0.955-2.133 2.133v0 12.8c0 1.178 0.955 2.133 2.133 2.133v0h7.403c-0.288 1.333-2.133 3.307-2.837 4.053-0.184 0.191-0.297 0.45-0.299 0.736v0.63h11.733v-0.629c-0.001-0.286-0.115-0.545-0.299-0.736l0 0c-0.725-0.747-2.549-2.72-2.837-4.053h7.403c1.178 0 2.133-0.955 2.133-2.133v0z"></path>
<path class="fill-active" d="M12.939 8.853h-4.139l7.2 9.067 7.2-9.067h-4.928v-5.333h-5.333v5.333z"></path>
</svg>
