<svg xmlns="http://www.w3.org/2000/svg" viewBox="0 0 48 24" enable-background="new 0 0 48 24" xmlns:xlink="http://www.w3.org/1999/xlink"><symbol viewBox="-5 -5 10 10"><path fill="#5a5a5a" d="m.3-5c-.2 0-.4 0-.6 0-.2 0-.4.2-.4.4 0 .2-.1.4-.1.6 0 .2-.1.4-.3.5-.2.1-.4.2-.6.3-.2.1-.4.1-.6-.1-.2-.1-.3-.2-.5-.3-.1 0-.1-.1-.2-.1-.2 0-.3 0-.5.2-.1.1-.2.2-.3.3-.1 0-.1.1 0 .2 0 .1.1.1.1.2.1.2.2.3.4.5.1.2.1.4.1.5-.1.2-.2.4-.3.6-.1.3-.3.4-.5.4-.1 0-.2 0-.3 0-.1 0-.2 0-.3 0-.2.2-.4.3-.4.5 0 .2 0 .4 0 .6 0 .2.2.4.4.4.2 0 .4.1.6.1.2 0 .4.2.5.4.1.2.2.4.2.6.1.2.1.4-.1.6-.1.2-.2.3-.4.5-.1.2-.1.4 0 .5.1.1.3.3.4.4.2.2.4.2.5 0 .2-.1.3-.3.5-.4.2-.1.3-.1.5-.1.2.1.4.2.6.3.4 0 .5.2.5.4 0 .2.1.4.1.6.1.2.2.4.4.4.2 0 .4 0 .6 0 .2 0 .4-.2.4-.4 0-.2.1-.4.1-.6 0-.2.2-.4.4-.5.2-.1.4-.2.6-.2.2-.1.4-.1.6.1.2.1.3.3.5.4.2.1.4.1.5 0 .1-.1.3-.3.4-.4.2-.2.2-.4 0-.6-.2-.2-.3-.3-.4-.5-.1-.2-.2-.4-.1-.6.1-.2.2-.4.3-.6 0-.2.2-.3.4-.3.2 0 .4-.1.6-.1.2 0 .4-.2.4-.4 0-.2 0-.4 0-.6 0-.2-.2-.4-.4-.4-.2 0-.4 0-.6-.1-.2 0-.4-.1-.5-.4 0-.1-.1-.3-.2-.5-.1-.2-.1-.4.1-.6.1-.2.2-.3.4-.5.1-.2.1-.4 0-.5-.2-.1-.3-.3-.5-.4-.1-.2-.3-.2-.5 0-.2.1-.4.2-.5.3-.2.1-.4.2-.5.1-.3-.1-.5-.2-.7-.3-.2-.1-.3-.2-.3-.4 0-.2-.1-.3-.1-.5 0-.3-.2-.4-.4-.5"/><path fill="#fff" d="m2 .1c0-1.1-.9-2-2-2s-2 .9-2 2 .9 2 2 2 2-.9 2-2" id="0"/></symbol><symbol viewBox="-5 -5 10 10"><path fill="#e74c3c" d="m.3-5c-.2 0-.4 0-.6 0-.2 0-.4.2-.4.4 0 .2-.1.4-.1.6 0 .2-.1.4-.3.5-.2.1-.4.2-.6.3-.2.1-.4.1-.6-.1-.2-.1-.3-.2-.5-.3-.1 0-.1-.1-.2-.1-.2 0-.3 0-.5.2-.1.1-.2.2-.3.3-.1 0-.1.1 0 .2 0 .1.1.1.1.2.1.2.2.3.4.5.1.2.1.4.1.5-.1.2-.2.4-.3.6-.1.3-.3.4-.5.4-.1 0-.2 0-.3 0-.1 0-.2 0-.3 0-.2.2-.4.3-.4.5 0 .2 0 .4 0 .6 0 .2.2.4.4.4.2 0 .4.1.6.1.2 0 .4.2.5.4.1.2.2.4.2.6.1.2.1.4-.1.6-.1.2-.2.3-.4.5-.1.2-.1.4 0 .5.1.1.3.3.4.4.2.2.4.2.5 0 .2-.1.3-.3.5-.4.2-.1.3-.1.5-.1.2.1.4.2.6.3.4 0 .5.2.5.4 0 .2.1.4.1.6.1.2.2.4.4.4.2 0 .4 0 .6 0 .2 0 .4-.2.4-.4 0-.2.1-.4.1-.6 0-.2.2-.4.4-.5.2-.1.4-.2.6-.2.2-.1.4-.1.6.1.2.1.3.3.5.4.2.1.4.1.5 0 .1-.1.3-.3.4-.4.2-.2.2-.4 0-.6-.2-.2-.3-.3-.4-.5-.1-.2-.2-.4-.1-.6.1-.2.2-.4.3-.6 0-.2.2-.3.4-.3.2 0 .4-.1.6-.1.2 0 .4-.2.4-.4 0-.2 0-.4 0-.6 0-.2-.2-.4-.4-.4-.2 0-.4 0-.6-.1-.2 0-.4-.1-.5-.4 0-.1-.1-.3-.2-.5-.1-.2-.1-.4.1-.6.1-.2.2-.3.4-.5.1-.2.1-.4 0-.5-.2-.1-.3-.3-.5-.4-.1-.2-.3-.2-.5 0-.2.1-.4.2-.5.3-.2.1-.4.2-.5.1-.3-.1-.5-.2-.7-.3-.2-.1-.3-.2-.3-.4 0-.2-.1-.3-.1-.5 0-.3-.2-.4-.4-.5"/><use xlink:href="#0"/></symbol><g fill="#939393"><path d="m24 17c0 1.1-.9 2-2 2h-19c-1.1 0-2-.9-2-2v-12c0-1.1.9-2 2-2h19c1.1 0 2 .9 2 2v12"/><path d="m15 18.6v-.6h-5v.6c0 1.2-2 3.4-2.7 4.1-.2.2-.3.5-.3.7v.6h11v-.6c0-.3-.1-.5-.3-.7-.7-.7-2.7-2.9-2.7-4.1"/></g><g fill="#5a5a5a"><path d="m23 16c0 1.1-.9 2-2 2h-19c-1.1 0-2-.9-2-2v-12c0-1.1.9-2 2-2h19c1.1 0 2 .9 2 2v12"/><path d="m14 17.7v-.7h-5v.7c0 1.2-2 3.4-2.7 4.1-.2.2-.3.4-.3.7v.5h11v-.5c0-.3-.1-.5-.3-.7-.7-.8-2.7-2.9-2.7-4.1"/></g><g fill="#fff"><path d="m22 15c0 .6-.4 1-1 1h-19c-.6 0-1-.4-1-1v-11c0-.6.4-1 1-1h19c.6 0 1 .4 1 1v11"/><circle cx="11.5" cy="17.4" r=".6"/><path d="m3 0h6v5h-6z"/></g><g fill="#5a5a5a"><path d="m4 0h4v6h-4z"/><path d="M10.5 5 6 13.5 1.5 5z"/><path d="m16.3 15c-.2 0-.4 0-.6 0-.2 0-.4-.2-.4-.4 0-.2-.1-.4-.1-.6 0-.2-.1-.4-.3-.5-.2-.1-.4-.2-.6-.3-.2-.1-.4-.1-.6.1-.2.1-.3.2-.5.3-.1 0-.1.1-.2.1-.2 0-.3 0-.5-.2-.1-.1-.2-.2-.3-.3-.1-.1-.1-.2-.1-.3 0-.1.1-.1.1-.2.1-.2.2-.3.4-.5.1-.2.1-.4.1-.5-.1-.2-.2-.4-.3-.6-.1-.2-.2-.3-.4-.3-.1 0-.2 0-.3 0-.1 0-.2 0-.3 0-.2 0-.3-.2-.4-.4 0-.2 0-.4 0-.6 0-.2.2-.4.4-.4.2 0 .4-.1.6-.1.2 0 .4-.2.5-.4.1-.2.2-.4.2-.6.1-.2.1-.4-.1-.6-.1-.2-.2-.3-.4-.5-.1-.2-.1-.4 0-.5.1-.1.3-.3.4-.4.2-.2.4-.2.5 0 .2.1.3.3.5.4.2.1.3.1.5.1.2-.1.4-.2.6-.3.2-.1.3-.2.4-.5 0-.2.1-.4.1-.6 0-.2.2-.4.4-.4.2 0 .4 0 .6 0 .2 0 .4.2.4.4 0 .2.1.4.1.6 0 .2.2.4.4.5.2.1.4.2.6.2.2.1.4.1.6-.1.2-.1.3-.3.5-.4.2-.1.4-.1.5 0 .1.1.3.3.4.4.2.2.2.4 0 .6-.1.2-.2.3-.4.5-.1.2-.2.4-.1.6.1.2.2.4.3.6.1.2.2.3.5.4.2 0 .4.1.6.1.2 0 .4.2.4.4 0 .2 0 .4 0 .6 0 .2-.2.4-.4.4-.2 0-.4.1-.6.1-.2 0-.4.1-.5.4-.1.2-.2.4-.3.6-.1.2-.1.4.1.6.1.2.2.3.4.5.1.2.1.4 0 .5-.1.1-.2.2-.4.4-.2.2-.4.2-.6 0-.2-.1-.3-.2-.5-.4-.2-.1-.3-.1-.5-.1-.2.1-.4.2-.7.3-.2.1-.3.2-.3.5 0 .2-.1.3-.1.5.1.1-.1.2-.3.3"/></g><circle fill="#fff" cx="16" cy="9.9" r="2"/><g fill="#939393"><path d="m48 17c0 1.1-.9 2-2 2h-19c-1.1 0-2-.9-2-2v-12c0-1.1.9-2 2-2h19c1.1 0 2 .9 2 2v12"/><path d="m39 18.6v-.6h-5v.6c0 1.2-2 3.4-2.7 4.1-.2.2-.3.4-.3.7v.6h11v-.6c0-.3-.1-.5-.3-.7-.7-.7-2.7-2.9-2.7-4.1"/></g><g fill="#ac382e"><path d="m47 16c0 1.1-.9 2-2 2h-19c-1.1 0-2-.9-2-2v-12c0-1.1.9-2 2-2h19c1.1 0 2 .9 2 2v12"/><path d="m38 17.7v-.7h-5v.7c0 1.2-2 3.4-2.7 4.1-.2.2-.3.4-.3.7v.5h11v-.5c0-.3-.1-.5-.3-.7-.7-.8-2.7-2.9-2.7-4.1"/></g><g fill="#fff"><path d="m46 15c0 .6-.4 1-1 1h-19c-.6 0-1-.4-1-1v-11c0-.6.4-1 1-1h19c.6 0 1 .4 1 1v11"/><circle cx="35.5" cy="17.4" r=".6"/><path d="m27 0h6v5h-6z"/></g><g fill="#e74c3c"><path d="m28 0h4v6h-4z"/><path d="M34.5 5 30 13.5 25.5 5z"/><path d="m40.3 15c-.2 0-.4 0-.6 0-.2 0-.4-.2-.4-.4 0-.2-.1-.4-.1-.6 0-.2-.1-.4-.3-.5-.2-.1-.4-.2-.6-.3-.2-.1-.4-.1-.6.1-.2.1-.3.2-.5.3-.1 0-.1.1-.2.1-.2 0-.3 0-.5-.2-.1-.1-.2-.2-.3-.3-.1-.1-.1-.2-.1-.3 0-.1.1-.1.1-.2.1-.2.2-.3.4-.5.1-.2.1-.4.1-.5-.1-.2-.2-.4-.3-.6-.1-.2-.2-.3-.4-.3-.1 0-.2 0-.3 0-.1 0-.2 0-.3 0-.2 0-.3-.2-.4-.4 0-.2 0-.4 0-.6 0-.2.2-.4.4-.4.2 0 .4-.1.6-.1.2 0 .4-.2.5-.4.1-.2.2-.4.2-.6.1-.2.1-.4-.1-.6-.1-.2-.2-.3-.4-.5-.1-.2-.1-.4 0-.5.1-.1.3-.3.4-.4.2-.2.4-.2.5 0 .2.1.3.3.5.4.2.1.3.1.5.1.2-.1.4-.2.6-.3.2-.1.3-.2.4-.5 0-.2.1-.4.1-.6 0-.2.2-.4.4-.4.2 0 .4 0 .6 0 .2 0 .4.2.4.4 0 .2.1.4.1.6 0 .2.2.4.4.5.2.1.4.2.6.2.2.1.4.1.6-.1.2-.1.3-.3.5-.4.2-.1.4-.1.5 0 .1.1.3.3.4.4.2.2.2.4 0 .6-.1.2-.2.3-.4.5-.1.2-.2.4-.1.6.1.2.2.4.3.6.1.2.2.3.5.4.2 0 .4.1.6.1.2 0 .4.2.4.4 0 .2 0 .4 0 .6 0 .2-.2.4-.4.4-.2 0-.4.1-.6.1-.2 0-.4.1-.5.4-.1.2-.2.4-.3.6-.1.2-.1.4.1.6.1.2.2.3.4.5.1.2.1.4 0 .5-.1.1-.2.2-.4.4-.2.2-.4.2-.6 0-.2-.1-.3-.2-.5-.4-.2-.1-.3-.1-.5-.1-.2.1-.4.2-.7.3-.2.1-.3.2-.3.5 0 .2-.1.3-.1.5.1.1-.1.2-.3.3"/></g><circle fill="#fff" cx="40" cy="9.9" r="2"/></svg>