<svg version="1.1" xmlns="http://www.w3.org/2000/svg" width="32" height="32" viewBox="0 0 32 32">
<path class="fill-active" d="M12.8 11.733v1.931h0.096l0.971 0.331v-10.795h8.533v6.4h6.4v12.8h-7.467c0 0.589-0.478 1.067-1.067 1.067v0h-2.208l-0.096 0.235c-0.096 0.256-0.224 0.544-0.341 0.832h12.245c0.589 0 1.067-0.478 1.067-1.067v0-14.933l-7.467-7.467h-10.667c-0.589 0-1.067 0.478-1.067 1.067v0 8.533c0.589 0 1.067 0.478 1.067 1.067v0z"></path>
<path class="fill-active" d="M1.067 22.4h3.339c0.213 0 0.544 1.536 1.067 2.229l-2.549 2.464 2.133 2.133 2.411-2.56c0.693 0.448 2.133 0.757 2.133 0.96v3.307h2.133v-3.2c0-0.149 1.6-0.459 2.347-0.896l2.315 2.368 2.069-2.133-2.251-2.133c0.576-0.757 0.981-2.507 1.227-2.507h2.827v-2.165h-2.677c-0.16 0-0.523-1.888-1.067-2.752l1.92-1.845-2.133-2.059-1.781 1.899c-0.832-0.576-2.795-0.96-2.795-1.141v-2.635h-2.133v2.741c0 0.235-1.792 0.683-2.592 1.28l-2.048-2.133-2.069 2.133 2.251 2.133c-0.448 0.736-0.747 2.379-0.875 2.379h-3.2zM10.901 16.299c2.621 0 4.747 2.125 4.747 4.747s-2.125 4.747-4.747 4.747c-2.622 0-4.747-2.125-4.747-4.747v0c0-2.622 2.125-4.747 4.747-4.747v0z"></path>
</svg>
