<svg aria-hidden="true" style="position: absolute; width: 0; height: 0; overflow: hidden;" version="1.1" xmlns="http://www.w3.org/2000/svg" xmlns:xlink="http://www.w3.org/1999/xlink">
<defs>
<symbol id="icon-downloads-add-link" viewBox="0 0 40 32">
<path class="fill-active" d="M39.942 32h-39.942v-23.273h2.909v20.364h34.124v-20.364h2.909v23.273z"></path>
<path class="fill-active" d="M19.985 23.273c-0.803 0-1.455-0.651-1.455-1.455v0-20.364c0-0.803 0.651-1.455 1.455-1.455s1.455 0.651 1.455 1.455v0 20.364c0 0.803-0.651 1.455-1.455 1.455v0z"></path>
<path class="fill-active" d="M19.985 23.273c-0.399-0.006-0.759-0.172-1.018-0.436l-0-0-6.196-6.167c-0.277-0.269-0.448-0.646-0.448-1.062 0-0.818 0.663-1.481 1.481-1.481 0.402 0 0.766 0.16 1.033 0.42l-0-0 5.149 5.207 5.12-5.207c0.264-0.264 0.629-0.428 1.033-0.428 0.807 0 1.46 0.654 1.46 1.46 0 0.403-0.163 0.768-0.428 1.033v0l-6.167 6.225c-0.259 0.265-0.619 0.43-1.017 0.436h-0.001z"></path>
</symbol>
</defs>
</svg>
