<svg xmlns="http://www.w3.org/2000/svg" viewBox="0 0 48 24" enable-background="new 0 0 48 24" xmlns:xlink="http://www.w3.org/1999/xlink"><symbol viewBox="-5 -5 10 10"><path fill="#5a5a5a" d="m.3-5c-.2 0-.4 0-.6 0-.2 0-.4.2-.4.4 0 .2-.1.4-.1.6 0 .2-.1.4-.3.5-.2.1-.4.2-.6.3-.2.1-.4.1-.6-.1-.2-.1-.3-.2-.5-.3-.1 0-.1-.1-.2-.1-.2 0-.3 0-.5.2-.1.1-.2.2-.3.3-.1 0-.1.1 0 .2 0 .1.1.1.1.2.1.2.2.3.4.5.1.2.1.4.1.5-.1.2-.2.4-.3.6-.1.3-.3.4-.5.4-.1 0-.2 0-.3 0-.1 0-.2 0-.3 0-.2.2-.4.3-.4.5 0 .2 0 .4 0 .6 0 .2.2.4.4.4.2 0 .4.1.6.1.2 0 .4.2.5.4.1.2.2.4.2.6.1.2.1.4-.1.6-.1.2-.2.3-.4.5-.1.2-.1.4 0 .5.1.1.3.3.4.4.2.2.4.2.5 0 .2-.1.3-.3.5-.4.2-.1.3-.1.5-.1.2.1.4.2.6.3.4 0 .5.2.5.4 0 .2.1.4.1.6.1.2.2.4.4.4.2 0 .4 0 .6 0 .2 0 .4-.2.4-.4 0-.2.1-.4.1-.6 0-.2.2-.4.4-.5.2-.1.4-.2.6-.2.2-.1.4-.1.6.1.2.1.3.3.5.4.2.1.4.1.5 0 .1-.1.3-.3.4-.4.2-.2.2-.4 0-.6-.2-.2-.3-.3-.4-.5-.1-.2-.2-.4-.1-.6.1-.2.2-.4.3-.6 0-.2.2-.3.4-.3.2 0 .4-.1.6-.1.2 0 .4-.2.4-.4 0-.2 0-.4 0-.6 0-.2-.2-.4-.4-.4-.2 0-.4 0-.6-.1-.2 0-.4-.1-.5-.4 0-.1-.1-.3-.2-.5-.1-.2-.1-.4.1-.6.1-.2.2-.3.4-.5.1-.2.1-.4 0-.5-.2-.1-.3-.3-.5-.4-.1-.2-.3-.2-.5 0-.2.1-.4.2-.5.3-.2.1-.4.2-.5.1-.3-.1-.5-.2-.7-.3-.2-.1-.3-.2-.3-.4 0-.2-.1-.3-.1-.5 0-.3-.2-.4-.4-.5"/><path fill="#fff" d="m2 .1c0-1.1-.9-2-2-2s-2 .9-2 2 .9 2 2 2 2-.9 2-2" id="0"/></symbol><symbol viewBox="-5 -5 10 10"><path fill="#e74c3c" d="m.3-5c-.2 0-.4 0-.6 0-.2 0-.4.2-.4.4 0 .2-.1.4-.1.6 0 .2-.1.4-.3.5-.2.1-.4.2-.6.3-.2.1-.4.1-.6-.1-.2-.1-.3-.2-.5-.3-.1 0-.1-.1-.2-.1-.2 0-.3 0-.5.2-.1.1-.2.2-.3.3-.1 0-.1.1 0 .2 0 .1.1.1.1.2.1.2.2.3.4.5.1.2.1.4.1.5-.1.2-.2.4-.3.6-.1.3-.3.4-.5.4-.1 0-.2 0-.3 0-.1 0-.2 0-.3 0-.2.2-.4.3-.4.5 0 .2 0 .4 0 .6 0 .2.2.4.4.4.2 0 .4.1.6.1.2 0 .4.2.5.4.1.2.2.4.2.6.1.2.1.4-.1.6-.1.2-.2.3-.4.5-.1.2-.1.4 0 .5.1.1.3.3.4.4.2.2.4.2.5 0 .2-.1.3-.3.5-.4.2-.1.3-.1.5-.1.2.1.4.2.6.3.4 0 .5.2.5.4 0 .2.1.4.1.6.1.2.2.4.4.4.2 0 .4 0 .6 0 .2 0 .4-.2.4-.4 0-.2.1-.4.1-.6 0-.2.2-.4.4-.5.2-.1.4-.2.6-.2.2-.1.4-.1.6.1.2.1.3.3.5.4.2.1.4.1.5 0 .1-.1.3-.3.4-.4.2-.2.2-.4 0-.6-.2-.2-.3-.3-.4-.5-.1-.2-.2-.4-.1-.6.1-.2.2-.4.3-.6 0-.2.2-.3.4-.3.2 0 .4-.1.6-.1.2 0 .4-.2.4-.4 0-.2 0-.4 0-.6 0-.2-.2-.4-.4-.4-.2 0-.4 0-.6-.1-.2 0-.4-.1-.5-.4 0-.1-.1-.3-.2-.5-.1-.2-.1-.4.1-.6.1-.2.2-.3.4-.5.1-.2.1-.4 0-.5-.2-.1-.3-.3-.5-.4-.1-.2-.3-.2-.5 0-.2.1-.4.2-.5.3-.2.1-.4.2-.5.1-.3-.1-.5-.2-.7-.3-.2-.1-.3-.2-.3-.4 0-.2-.1-.3-.1-.5 0-.3-.2-.4-.4-.5"/><use xlink:href="#0"/></symbol><path fill="#939393" d="m24 16l-2-2.5v-9.5c0-.6-.4-1-1-1h-1-5l-1.7-2.4c-.2-.4-.5-.6-.9-.6h-3-4.4-3c-.6 0-1 .4-1 1v20c0 .6.4 1 1 1h3 10v2h5v-2h1c.6 0 1-.4 1-1v-5h2"/><path fill="#5a5a5a" d="m19 3h-5l-1.7-2.4c-.2-.4-.5-.6-.9-.6h-7.4c-.6 0-1 .4-1 1v20c0 .6.4 1 1 1h12.9c1.7 0 3.1-1.4 3.1-3.1v-14.9c0-.6-.4-1-1-1"/><path fill="#939393" d="m4 21v-20h7.4l1.7 2.4c.2.4.5.6.9.6h5v13.9c0 1.7-1.4 3.1-3.1 3.1h-11.9"/><path fill="#5a5a5a" d="m21 21v-17c0-.6-.4-1-1-1h-9l-1.7-2.4c-.2-.4-.5-.6-.9-.6h-7.4c-.6 0-1 .4-1 1v20c0 .6.4 1 1 1h19c.6 0 1-.4 1-1"/><path fill="#d6d6d6" d="m1 21v-20h7.4l1.7 2.4c.2.4.5.6.9.6h9v17h-19"/><path fill="#fff" d="m13 22h7v-5h2v-3.5l-5.5-5.9-8.8 9.4h5.3z"/><g fill="#5a5a5a"><path d="m14 15h5v9h-5z"/><path d="M10 16 16.5 9.1 23 16z"/></g><path fill="#939393" d="m48 16l-2-2.5v-9.5c0-.6-.4-1-1-1h-1-5l-1.7-2.4c-.2-.4-.5-.6-.9-.6h-3-4.4-3c-.6 0-1 .4-1 1v20c0 .6.4 1 1 1h3 10v2h5v-2h1c.6 0 1-.4 1-1v-5h2"/><path fill="#ac382e" d="m43 3h-5l-1.7-2.4c-.2-.4-.5-.6-.9-.6h-7.4c-.6 0-1 .4-1 1v20c0 .6.4 1 1 1h12.9c1.7 0 3.1-1.4 3.1-3.1v-14.9c0-.6-.4-1-1-1"/><path fill="#939393" d="m28 21v-20h7.4l1.7 2.4c.2.4.5.6.9.6h5v13.9c0 1.7-1.4 3.1-3.1 3.1h-11.9"/><path fill="#ac382e" d="m45 21v-17c0-.6-.4-1-1-1h-9l-1.7-2.4c-.2-.4-.5-.6-.9-.6h-7.4c-.6 0-1 .4-1 1v20c0 .6.4 1 1 1h19c.6 0 1-.4 1-1"/><g fill="#fff"><path d="m25 21v-20h7.4l1.7 2.4c.2.4.5.6.9.6h9v17h-19"/><path d="m37 22h7v-5h2v-3.5l-5.5-5.9-8.8 9.4h5.3z"/></g><g fill="#e74c3c"><path d="m38 15h5v9h-5z"/><path d="M34 16 40.5 9.1 47 16z"/></g></svg>