<svg version="1.1" xmlns="http://www.w3.org/2000/svg" width="32" height="32" viewBox="0 0 32 32">
<path class="fill-active" d="M10.4 27.733h17.067c0.589 0 1.067-0.478 1.067-1.067v0-14.933l-7.467-7.467h-10.667c-0.589 0-1.067 0.478-1.067 1.067v0 1.803l0.267-0.309c0.195-0.208 0.472-0.338 0.779-0.338s0.584 0.13 0.778 0.337l0.001 0.001 0.288 0.309v-0.736h8.533v6.4h6.4v12.8h-14.933v-1.067h-2.133v2.133c0 0 0 0 0 0 0 0.589 0.478 1.067 1.067 1.067 0.008 0 0.015-0 0.022-0l-0.001 0z"></path>
<path class="fill-active" d="M13.6 23.467v-8.533h3.733l-6.933-7.381-6.933 7.381h3.733v8.533h6.4z"></path>
</svg>
