<svg xmlns="http://www.w3.org/2000/svg" viewBox="0 0 48 24" enable-background="new 0 0 48 24"><path fill="#939393" d="m22 4.9c0-.6-.4-.9-1-.9h-1-7l-1.7-2.4c-.2-.4-.5-.6-.9-.6h-8.4c-.6 0-1 .3-1 .9v20c0 .5.4 1.1 1 1.1h9.8c.9.7 1.8.9 2.8 1h1.8c4.2-.3 7.5-3.8 7.5-8.1 0-2-.8-3.9-2-5.4v-5.6z"/><path fill="#5a5a5a" d="m19 3h-5l-1.7-2.4c-.2-.4-.5-.6-.9-.6h-7.4c-.6 0-1 .4-1 1v20c0 .6.4 1 1 1h12.9c1.7 0 3.1-1.4 3.1-3.1v-14.9c0-.6-.4-1-1-1"/><path fill="#939393" d="m4 21v-20h7.4l1.7 2.4c.2.4.5.6.9.6h5v13.9c0 1.7-1.4 3.1-3.1 3.1h-11.9"/><path fill="#5a5a5a" d="m9.5 16.9c0-4.1 3.3-7.4 7.4-7.4 1.6 0 3 .5 4.2 1.3v-6.8c0-.6-.4-1-1-1h-9l-1.8-2.4c-.2-.4-.5-.6-.9-.6h-7.4c-.6 0-1 .4-1 1v20c0 .6.4 1 1 1h10.5c-1.3-1-2-3.1-2-5.1"/><path fill="#d6d6d6" d="m1 21v-20h7.4l1.7 2.4c.2.4.5.6.9.6h9v17h-19"/><circle fill="#5a5a5a" cx="14.9" cy="14.9" r="8.1"/><path fill="#fff" d="m12 9.8l8.9 5.1-8.9 5.1z"/><path fill="#939393" d="m46 4.9c0-.6-.4-.9-1-.9h-1-7l-1.7-2.4c-.2-.4-.5-.6-.9-.6h-8.4c-.6 0-1 .3-1 .9v20c0 .6.4 1.1 1 1.1h9.8c.9.7 1.8.9 2.8 1h1.8c4.2-.3 7.5-3.8 7.5-8.1 0-2-.8-3.9-2-5.4v-5.6z"/><path fill="#ac382e" d="m43 3h-5l-1.7-2.4c-.2-.4-.5-.6-.9-.6h-7.4c-.6 0-1 .4-1 1v20c0 .6.4 1 1 1h12.9c1.7 0 3.1-1.4 3.1-3.1v-14.9c0-.6-.4-1-1-1"/><path fill="#939393" d="m28 21v-20h7.4l1.7 2.4c.2.4.5.6.9.6h5v13.9c0 1.7-1.4 3.1-3.1 3.1h-11.9"/><path fill="#ac382e" d="m33.5 16.9c0-4.1 3.3-7.4 7.4-7.4 1.6 0 3 .5 4.2 1.3v-6.8c0-.6-.4-1-1-1h-9l-1.7-2.4c-.3-.4-.6-.6-1-.6h-7.4c-.6 0-1 .4-1 1v20c0 .6.4 1 1 1h10.5c-1.3-1-2-3.1-2-5.1"/><path fill="#fff" d="m25 21v-20h7.4l1.7 2.4c.2.4.5.6.9.6h9v17h-19"/><circle fill="#e74c3c" cx="38.9" cy="14.9" r="8.1"/><path fill="#fff" d="m36 9.8l8.9 5.1-8.9 5.1z"/></svg>