<!-- Generated by IcoMoon.io -->
<svg version="1.1" xmlns="http://www.w3.org/2000/svg" width="32" height="32" viewBox="0 0 32 32">
<title>manage-groups</title>
<path class="fill-active" d="M30.933 16.533l-6.4 3.296v-0.96c-0.006-1.596-0.85-2.993-2.114-3.776l-0.019-0.011c2.493-0.913 4.24-3.265 4.24-6.024 0-3.535-2.865-6.4-6.4-6.4s-6.4 2.865-6.4 6.4c0 2.222 1.132 4.18 2.852 5.327l0.023 0.015h-7.115c1.323-0.982 2.171-2.539 2.171-4.294 0-2.946-2.388-5.333-5.333-5.333s-5.333 2.388-5.333 5.333c0 1.983 1.082 3.714 2.689 4.633l0.026 0.014c-1.628 0.694-2.75 2.28-2.752 4.128v5.974c0 2.474 2.006 4.48 4.48 4.48v0h14.507c0.003 0 0.008 0 0.012 0 2.435 0 4.415-1.947 4.468-4.368l0-0.005 6.4 3.307zM20.267 6.507c1.414 0 2.56 1.146 2.56 2.56s-1.146 2.56-2.56 2.56c-1.414 0-2.56-1.146-2.56-2.56v0c0-1.414 1.146-2.56 2.56-2.56v0zM6.4 8c1.178 0 2.133 0.955 2.133 2.133s-0.955 2.133-2.133 2.133c-1.178 0-2.133-0.955-2.133-2.133v0c0-1.178 0.955-2.133 2.133-2.133v0z"></path>
</svg>
