<!-- Generated by IcoMoon.io -->
<svg version="1.1" xmlns="http://www.w3.org/2000/svg" width="32" height="32" viewBox="0 0 32 32">
<title>youtube</title>
<path class="fill-active" d="M24.533 10.357c-0.485-0.469-1.146-0.758-1.875-0.758-0.020 0-0.039 0-0.058 0.001l0.003-0c-2.645-0.235-6.603-0.235-6.603-0.235v0s-3.957 0-6.592 0.192c-0.007-0-0.015-0-0.023-0-0.75 0-1.429 0.306-1.918 0.8l-0 0c-0.385 0.523-0.651 1.157-0.744 1.846l-0.002 0.021c-0.112 0.905-0.182 1.964-0.192 3.037l-0 0.014v1.429c0.010 1.087 0.080 2.146 0.205 3.187l-0.013-0.136c0.094 0.713 0.36 1.351 0.755 1.889l-0.008-0.011c0.556 0.478 1.284 0.768 2.080 0.768 0.019 0 0.037-0 0.056-0l-0.003 0c1.504 0.149 6.4 0.192 6.4 0.192s3.957 0 6.603-0.192c0.013 0 0.029 0 0.045 0 0.734 0 1.4-0.293 1.886-0.769l-0 0c0.385-0.523 0.651-1.157 0.744-1.846l0.002-0.021c0.112-0.905 0.182-1.964 0.192-3.036l0-0.014v-1.429c-0.010-1.087-0.080-2.146-0.205-3.187l0.013 0.136c-0.094-0.713-0.36-1.351-0.755-1.889l0.008 0.011zM14.101 18.443v-5.333l5.099 2.699z"></path>
</svg>
