<svg xmlns="http://www.w3.org/2000/svg" viewBox="0 0 48 24" enable-background="new 0 0 48 24"><path fill="#939393" d="m22 6.3c-.2-.2-.5-.5-.8-.6-2.5-.7-4.2-.7-6.2-.7h-.7l2.7-2.9-1.4-1.2-3.2 3.5-3.2-3.5-1.4 1.2 2.6 2.9h-.8c-2 0-3.6 0-6.1.7-.3 0-.5.3-.7.6-1.3 1.6-1.8 4.8-1.8 7.2v.9.9c0 2.5.3 5 1.9 8.1.1.2.3-.2.4.7h6.3 2.7 2.7 6.3c.2-.9.5-.5.6-.7 1.6-3.1 2.1-5.6 2.1-8.1v-.9-.9c0-2.4-.7-5.6-2-7.2"/><path fill="#5a5a5a" d="m20.9 5.3c-.2-.2-.4-.5-.7-.6-2.5-.6-4.1-.7-6.1-.7h-2.7-2.7c-2 0-3.6 0-6.1.7-.3.1-.5.3-.7.6-1.4 1.7-1.9 4.9-1.9 7.2v.9.9c0 2.5.3 4.8 1.9 7.9.1.2.3.4.5.5h6.3 2.7 2.7 6.3c.2-.1.3-.3.5-.5 1.6-3.1 1.9-5.4 1.9-7.9v-.9-.9c-.1-2.3-.6-5.5-1.9-7.2"/><path fill="#d6d6d6" d="m18.6 7.7c-.9-.7-3-.9-4.4-.9h-2.8-2.8c-1.5 0-3.5.1-4.4.9-1.2 1-1.4 3.1-1.4 4.8v1.7c0 1.3.6 4.9 2 4.9h6.5 6.5c1.4 0 2-3.5 2-4.9v-1.7c.1-1.7 0-3.8-1.2-4.8"/><g fill="#5a5a5a"><path d="M11.3 6.1 6.8 1.2 8.2 0 12.7 4.8z"/><path d="M11.6 6.1 10.2 4.8 14.6 0 16 1.2z"/><path d="m7.5 8.6l8.6 4.3-8.6 4.3z"/></g><path fill="#939393" d="m46 6.3c-.2-.2-.5-.5-.8-.6-2.5-.7-4.2-.7-6.2-.7h-.7l2.7-2.9-1.4-1.2-3.2 3.5-3.2-3.5-1.4 1.2 2.6 2.9h-.8c-2 0-3.6 0-6.1.7-.3 0-.5.3-.7.6-1.3 1.6-1.8 4.8-1.8 7.2v.9.9c0 2.5.3 5 1.9 8.1.1.1.3-.3.4.6h6.3 2.7 2.7 6.3c.2-.9.5-.5.6-.7 1.6-3.1 2.1-5.6 2.1-8.1v-.9-.9c0-2.3-.7-5.5-2-7.1"/><path fill="#e74c3c" d="m44.9 5.3c-.2-.2-.4-.5-.7-.6-2.5-.6-4.1-.7-6.1-.7h-2.7-2.7c-2 0-3.6 0-6.1.7-.3.1-.6.4-.8.6-1.3 1.7-1.8 4.9-1.8 7.2v.9.9c0 2.5.3 4.8 1.9 7.9.1.2.3.4.5.5h6.3 2.7 2.7 6.3c.2-.1.3-.3.5-.5 1.6-3.1 1.9-5.4 1.9-7.9v-.9-.9c-.1-2.3-.6-5.5-1.9-7.2"/><path fill="#fff" d="m42.6 7.7c-.9-.7-3-.9-4.4-.9h-2.8-2.8c-1.5 0-3.5.2-4.4.9-1.2 1-1.4 3.1-1.4 4.8v1.7c0 1.3.6 4.9 2 4.9h6.5 6.5c1.4 0 2-3.5 2-4.9v-1.7c.1-1.7 0-3.8-1.2-4.8"/><g fill="#e74c3c"><path d="m35.3 6.1l-4.5-4.9 1.4-1.2 4.5 4.8z"/><path d="M35.6 6.1 34.2 4.8 38.6 0 40 1.2z"/></g><path fill="#5a5a5a" d="m31.5 8.6l8.6 4.3-8.6 4.3z"/></svg>