<!-- Generated by IcoMoon.io -->
<svg version="1.1" xmlns="http://www.w3.org/2000/svg" width="32" height="32" viewBox="0 0 32 32">
<title>video-list</title>
<path class="fill-active" d="M1.6 29.867h28.8v-27.733h-28.8zM6.933 28.8h-2.133v-2.133h2.133zM11.2 28.8h-2.133v-2.133h2.133zM15.467 28.8h-2.133v-2.133h2.133zM19.733 28.8h-2.133v-2.133h2.133zM24 28.8h-2.133v-2.133h2.133zM28.267 28.8h-2.133v-2.133h2.133zM26.133 3.2h2.133v2.133h-2.133zM21.867 3.2h2.133v2.133h-2.133zM17.6 3.2h2.133v2.133h-2.133zM13.333 3.2h2.133v2.133h-2.133zM9.067 3.2h2.133v2.133h-2.133zM4.8 3.2h2.133v2.133h-2.133zM3.733 8.821c0-1.337 1.084-2.421 2.421-2.421v0h19.691c1.337 0 2.421 1.084 2.421 2.421v0 14.357c0 1.337-1.084 2.421-2.421 2.421v0h-19.691c-1.337 0-2.421-1.084-2.421-2.421v0z"></path>
<path class="fill-active" d="M16 22.933c3.829 0 6.933-3.104 6.933-6.933s-3.104-6.933-6.933-6.933c-3.829 0-6.933 3.104-6.933 6.933v0c0 3.829 3.104 6.933 6.933 6.933v0zM13.568 11.637l7.563 4.363-7.563 4.363z"></path>
</svg>
