<svg xmlns="http://www.w3.org/2000/svg" viewBox="0 0 48 24" enable-background="new 0 0 48 24"><g fill="#939393"><path d="M17,24H1V1h12.6c1.3,1.3,2.1,2.1,3.4,3.4V24z"/><path d="M16,23H2V2h11c1.2,1.2,1.8,1.8,3,3V23z"/><path d="m12 1h1v5h-1z"/><path d="m12 5h5v1h-5z"/><path d="m8 13h11v11h-11z"/><path d="m9 14h10v10h-10z"/><path d="m24 24l-5-1.8v-6.4l5-1.8z"/><path d="m3 3h8v3h-8z"/><path d="m3 8h12v2h-12z"/><path d="m3 16h5v2h-5z"/><path d="m3 12h5v2h-5z"/><path d="m3 20h5v2h-5z"/></g><path fill="#5a5a5a" d="M16,23H0V0h12.6c1.3,1.3,2.1,2.1,3.4,3.4V23z"/><path fill="#fff" d="M15,22H1V1h11c1.2,1.2,1.8,1.8,3,3V22z"/><g fill="#5a5a5a"><path d="m11 0h1v5h-1z"/><path d="m11 4h5v1h-5z"/></g><path fill="#fff" d="m7 12h11v11h-11z"/><g fill="#5a5a5a"><path d="m8 13h10v10h-10z"/><path d="m23 23l-5-2.9v-4.1l5-3z"/><path d="m2 2h8v3h-8z"/><path d="m2 7h12v2h-12z"/><path d="m2 15h5v2h-5z"/><path d="m2 11h5v2h-5z"/><path d="m2 19h5v2h-5z"/></g><path fill="#d6d6d6" d="m9 14h7v7h-7z"/><path fill="#5a5a5a" d="m10 15h7v7h-7z"/><g fill="#939393"><path d="M41,24H25V1h12.6c1.3,1.3,2.1,2.1,3.4,3.4V24z"/><path d="M40,23H26V2h11c1.2,1.2,1.8,1.8,3,3V23z"/><path d="m36 1h1v5h-1z"/><path d="m36 5h5v1h-5z"/><path d="m32 13h11v11h-11z"/><path d="m33 14h10v10h-10z"/><path d="m48 24l-5-1.8v-6.4l5-1.8z"/><path d="m27 3h8v3h-8z"/><path d="m27 8h12v2h-12z"/><path d="m27 16h5v2h-5z"/><path d="m27 12h5v2h-5z"/><path d="m27 20h5v2h-5z"/></g><path fill="#ac382e" d="M40,23H24V0h12.6c1.3,1.3,2.1,2.1,3.4,3.4V23z"/><path fill="#fff" d="M39,22H25V1h11c1.2,1.2,1.8,1.8,3,3V22z"/><g fill="#ac382e"><path d="m35 0h1v5h-1z"/><path d="m35 4h5v1h-5z"/></g><path fill="#fff" d="m31 12h11v11h-11z"/><g fill="#e74c3c"><path d="m32 13h10v10h-10z"/><path d="m47 23l-5-2.9v-4.1l5-3z"/><path d="m26 2h8v3h-8z"/><path d="m26 7h12v2h-12z"/></g><g fill="#ac382e"><path d="m26 15h5v2h-5z"/><path d="m26 11h5v2h-5z"/><path d="m26 19h5v2h-5z"/></g><path fill="#fff" d="m33 14h7v7h-7z"/><path fill="#e74c3c" d="m34 15h7v7h-7z"/></svg>