<svg version="1.1" xmlns="http://www.w3.org/2000/svg" width="32" height="32" viewBox="0 0 32 32">
<path class="fill-active" d="M24.416 20.661c-0.149-0.192-3.797-4.661-8.416-4.661s-8.267 4.523-8.416 4.715l-0.267 0.331 0.267 0.331c0.149 0.192 3.797 4.715 8.416 4.715s8.267-4.523 8.416-4.715l0.267-0.331zM20.149 20.992c-0.059 2.21-1.865 3.979-4.084 3.979-0.023 0-0.046-0-0.069-0.001l0.003 0c-0.029 0.001-0.063 0.001-0.097 0.001-2.219 0-4.025-1.769-4.084-3.974l-0-0.005c0.088-2.187 1.882-3.927 4.082-3.927 0.035 0 0.070 0 0.104 0.001l-0.005-0c0.029-0.001 0.064-0.001 0.099-0.001 2.2 0 3.995 1.74 4.082 3.919l0 0.008zM8.672 20.992c0.793-0.874 1.67-1.646 2.627-2.313l0.050-0.033c-0.396 0.673-0.63 1.482-0.63 2.347s0.234 1.674 0.642 2.369l-0.012-0.022c-0.994-0.701-1.861-1.473-2.633-2.332l-0.013-0.014zM20.587 23.339c0.396-0.673 0.63-1.482 0.63-2.347s-0.234-1.674-0.642-2.369l0.012 0.022c1.007 0.7 1.884 1.473 2.666 2.334l0.011 0.013c-0.785 0.874-1.652 1.646-2.597 2.314l-0.048 0.032z"></path>
<path class="fill-active" d="M16 22.763c0.984 0 1.781-0.798 1.781-1.781s-0.798-1.781-1.781-1.781h-0.139c0.211 0.148 0.348 0.388 0.352 0.661v0.001c0.001 0.014 0.001 0.031 0.001 0.048 0 0.484-0.392 0.876-0.876 0.876-0.467 0-0.848-0.365-0.875-0.826l-0-0.002c-0.2 0.275-0.319 0.62-0.32 0.992v0c-0 0.003-0 0.007-0 0.011 0 0.996 0.807 1.803 1.803 1.803 0.019 0 0.037-0 0.056-0.001l-0.003 0z"></path>
<path class="fill-active" d="M16 2.731l-15.328 26.539h30.656zM16 4.864l13.472 23.339h-26.944z"></path>
</svg>
