<svg xmlns="http://www.w3.org/2000/svg" xmlns:xlink="http://www.w3.org/1999/xlink" viewBox="0 0 48 24" enable-background="new 0 0 48 24"><symbol id="0" viewBox="-12 -12 24 24"><path fill="#5a5a5a" d="m12-6.1s-5.4-5.9-12-5.9-12 5.9-12 5.9 5.4 5.9 12 5.9 12-5.9 12-5.9"/><path fill="#5a5a5a" d="m12-6.5s-5.4-5.5-12-5.5-12 5.5-12 5.5 1 7.5 12 7.5 12-7.5 12-7.5"/><path fill="#d6d6d6" d="M0-11c-4.8,0-9,3.4-10.6,4.9C-9-4.6-4.8-1.2,0-1.2c4.8,0,9-3.4,10.6-4.9C9-7.6,4.8-11,0-11z"/><path fill="#939393" d="m6.4-9.1c.4.9.7 2 .7 3 0 1.1-.2 2.1-.7 3.1-1.8 1-4 1.8-6.4 1.8-2.4 0-4.6-.8-6.4-1.9-.4-.9-.7-2-.7-3 0-1.1.2-2.1.7-3 1.8-1 4.1-1.9 6.4-1.9 2.4 0 4.6.8 6.4 1.9"/><path fill="#5a5a5a" d="m3-5c0-1.7-1.3-3-3-3s-3 1.3-3 3 1.3 3 3 3 3-1.3 3-3"/><path fill="#fff" d="m.5-4c0-.8-.7-1.5-1.5-1.5s-1.5.7-1.5 1.5.7 1.5 1.5 1.5 1.5-.7 1.5-1.5"/><path fill="none" stroke="#5a5a5a" stroke-width="2" stroke-miterlimit="10" d="M10,8.6C7,10.1,3.6,11,0,11s-7-0.9-10-2.4"/><path fill="none" stroke="#5a5a5a" stroke-width="2" stroke-miterlimit="10" d="M8.5,6C6,7.3,3.1,8,0,8s-6-0.7-8.5-2"/><path fill="none" stroke="#5a5a5a" stroke-width="2" stroke-miterlimit="10" d="m-6.5 2.5c2 .9 4.2 1.5 6.5 1.5 2.3 0 4.5-.6 6.5-1.5"/></symbol><path fill="#939393" d="M24,21.3c0,1.5-1.3,2.7-3,2.7H4c-1.7,0-3-1.2-3-2.7V3.7C1,2.2,2.3,1,4,1h17c1.7,0,3,1.2,3,2.7V21.3z"/><path fill="#5a5a5a" d="m20 23h-17c-1.7 0-3-1.3-3-3v-17c0-1.7 1.3-3 3-3h17c1.7 0 3 1.3 3 3v17c0 1.7-1.3 3-3 3"/><path fill="#d6d6d6" d="m2 19v-15h19v15c0 1.1-.9 2-2 2h-15c-1.1 0-2-.9-2-2"/><g fill="#fff"><path d="m2 1h2v2h-2z"/><path d="m19 1h2v1h-2z"/><path d="m15 1h2v1h-2z"/></g><use xlink:href="#0" width="24" height="24" x="-12" y="-12" transform="matrix(.5955 0 0-.5955 12 12.1)"/><path fill="#939393" d="M48,21.3c0,1.5-1.3,2.7-3,2.7H28c-1.7,0-3-1.2-3-2.7V3.7C25,2.2,26.3,1,28,1h17c1.7,0,3,1.2,3,2.7V21.3z"/><path fill="#ac382e" d="m44 23h-17c-1.7 0-3-1.3-3-3v-17c0-1.7 1.3-3 3-3h17c1.7 0 3 1.3 3 3v17c0 1.7-1.3 3-3 3"/><g fill="#fff"><path d="m26 19v-15h19v15c0 1.1-.9 2-2 2h-15c-1.1 0-2-.9-2-2"/><path d="m26 1h2v2h-2z"/><path d="m43 1h2v1h-2z"/><path d="m39 1h2v1h-2z"/></g><path fill="#5a5a5a" d="m42.6 15.8s-3.2 3.5-7.1 3.5-7.1-3.5-7.1-3.5 3.2-3.5 7.1-3.5 7.1 3.5 7.1 3.5"/><path fill="#e74c3c" d="m42.6 16.1s-3.2 3.3-7.1 3.3-7.1-3.3-7.1-3.3.6-4.5 7.1-4.5 7.1 4.5 7.1 4.5"/><path fill="#fff" d="m35.5 18.8c-2.9 0-5.4-2-6.3-2.9.9-.9 3.4-2.9 6.3-2.9 2.9 0 5.4 2 6.3 2.9-.9.8-3.4 2.9-6.3 2.9"/><path fill="#939393" d="m39.3 17.6c.3-.6.4-1.2.4-1.8 0-.6-.1-1.3-.4-1.8-1.1-.6-2.4-1.1-3.8-1.1-1.4 0-2.7.5-3.8 1.1-.3.6-.4 1.2-.4 1.8 0 .6.1 1.3.4 1.8 1.1.6 2.4 1.1 3.8 1.1 1.4.1 2.7-.4 3.8-1.1"/><circle fill="#5a5a5a" cx="35.5" cy="15.2" r="1.8"/><circle fill="#fff" cx="34.9" cy="14.6" r=".9"/><g fill="none" stroke="#e74c3c" stroke-width="1.191" stroke-miterlimit="10"><path d="m41.5 7.1c-1.8-.9-3.8-1.4-6-1.4s-4.2.5-6 1.4"/><path d="m40.6 8.6c-1.5-.8-3.2-1.2-5.1-1.2s-3.5.5-5.1 1.2"/><path d="m31.6 10.7c1.2-.6 2.5-.9 3.9-.9 1.4 0 2.7.3 3.9.9"/></g></svg>