<svg xmlns="http://www.w3.org/2000/svg" xmlns:xlink="http://www.w3.org/1999/xlink" viewBox="-17.9 0 48 24" enable-background="new -17.9 0 48 24"><symbol id="0" viewBox="-12 -12 24 24"><path fill="#5a5a5a" d="m12-6.1s-5.4-5.9-12-5.9-12 5.9-12 5.9 5.4 5.9 12 5.9 12-5.9 12-5.9" id="2"/><path fill="#5a5a5a" d="m12-6.5s-5.4-5.5-12-5.5-12 5.5-12 5.5 1 7.5 12 7.5 12-7.5 12-7.5"/><path fill="#d6d6d6" d="M0-11c-4.8,0-9,3.4-10.6,4.9C-9-4.6-4.8-1.2,0-1.2s9-3.4,10.6-4.9C9-7.6,4.8-11,0-11z"/><path fill="#939393" d="m6.4-9.1c.4.9.7 2 .7 3 0 1.1-.2 2.1-.7 3.1-1.8 1-4 1.8-6.4 1.8s-4.6-.8-6.4-1.9c-.4-.9-.7-2-.7-3 0-1.1.2-2.1.7-3 1.8-1 4.1-1.9 6.4-1.9 2.4 0 4.6.8 6.4 1.9"/><path fill="#5a5a5a" d="m3-5c0-1.7-1.3-3-3-3s-3 1.3-3 3 1.3 3 3 3 3-1.3 3-3" id="3"/><path fill="#fff" d="m.5-4c0-.8-.7-1.5-1.5-1.5s-1.5.7-1.5 1.5.7 1.5 1.5 1.5 1.5-.7 1.5-1.5" id="4"/><path fill="none" stroke="#5a5a5a" stroke-width="2" stroke-miterlimit="10" d="M10,8.6C7,10.1,3.6,11,0,11s-7-0.9-10-2.4"/><path fill="none" stroke="#5a5a5a" stroke-width="2" stroke-miterlimit="10" d="M8.5,6C6,7.3,3.1,8,0,8s-6-0.7-8.5-2"/><path fill="none" stroke="#5a5a5a" stroke-width="2" stroke-miterlimit="10" d="M-6.5,2.5C-4.5,3.4-2.3,4,0,4s4.5-0.6,6.5-1.5"/></symbol><symbol id="1" viewBox="-12 -12 24 24"><use xlink:href="#2"/><path fill="#ac382e" d="m12-6.5s-5.4-5.5-12-5.5-12 5.5-12 5.5 1 7.5 12 7.5 12-7.5 12-7.5"/><path fill="#fff" d="M0-11c-4.8,0-9,3.4-10.6,4.9C-9-4.6-4.8-1.2,0-1.2s9-3.4,10.6-4.9C9-7.6,4.8-11,0-11z"/><path fill="#d6d6d6" d="m6.4-9.1c.4.9.7 2 .7 3 0 1.1-.2 2.1-.7 3.1-1.8 1-4 1.8-6.4 1.8s-4.6-.8-6.4-1.9c-.4-.9-.7-2-.7-3 0-1.1.2-2.1.7-3 1.8-1 4.1-1.9 6.4-1.9 2.4 0 4.6.8 6.4 1.9"/><use xlink:href="#3"/><use xlink:href="#4"/><path fill="none" stroke="#e74c3c" stroke-width="2" stroke-miterlimit="10" d="M10,8.6C7,10.1,3.6,11,0,11s-7-0.9-10-2.4"/><path fill="none" stroke="#e74c3c" stroke-width="2" stroke-miterlimit="10" d="M8.5,6C6,7.3,3.1,8,0,8s-6-0.7-8.5-2"/><path fill="none" stroke="#e74c3c" stroke-width="2" stroke-miterlimit="10" d="M-6.5,2.5C-4.5,3.4-2.3,4,0,4s4.5-0.6,6.5-1.5"/></symbol><use xlink:href="#0" width="24" height="24" x="-12" y="-12" transform="matrix(1 0 0-1-5.878 12)"/><use xlink:href="#1" width="24" height="24" x="-12" y="-12" transform="matrix(1 0 0-1 18.12 12)"/></svg>