<svg version="1.1" xmlns="http://www.w3.org/2000/svg" width="32" height="32" viewBox="0 0 32 32">
<path class="fill-active" d="M16.768 15.861c-0.231-0.029-0.497-0.046-0.768-0.046s-0.537 0.017-0.799 0.049l0.031-0.003c-5.568 0.459-9.899 5.781-10.048 6.016l-0.267 0.331 0.267 0.331c0.192 0.235 4.491 5.557 10.048 6.027 0.231 0.029 0.497 0.046 0.768 0.046s0.537-0.017 0.799-0.049l-0.031 0.003c5.568-0.469 9.867-5.781 10.048-6.027l0.267-0.331-0.267-0.331c-0.149-0.235-4.48-5.557-10.048-6.016zM21.6 22.261c-0.083 2.964-2.505 5.335-5.481 5.335-0.042 0-0.084-0-0.126-0.001l0.006 0c-0.036 0.001-0.077 0.001-0.119 0.001-2.976 0-5.398-2.371-5.481-5.327l-0-0.008c0.083-2.964 2.505-5.335 5.481-5.335 0.042 0 0.084 0 0.126 0.001l-0.006-0c0.036-0.001 0.078-0.001 0.121-0.001 2.957 0 5.368 2.341 5.479 5.271l0 0.010zM6.304 22.261c1.203-1.373 2.567-2.56 4.074-3.548l0.075-0.046c-0.7 0.986-1.119 2.215-1.119 3.541s0.419 2.555 1.131 3.561l-0.013-0.019c-1.581-1.020-2.945-2.191-4.132-3.522l-0.017-0.020zM21.547 25.76c0.7-0.986 1.119-2.215 1.119-3.541s-0.419-2.555-1.131-3.561l0.013 0.019c1.581 1.020 2.945 2.191 4.132 3.522l0.017 0.020c-1.204 1.352-2.568 2.522-4.072 3.494l-0.078 0.047z"></path>
<path class="fill-active" d="M16 24.533c1.267 0 2.293-1.027 2.293-2.293s-1.027-2.293-2.293-2.293v0h-0.171c0.273 0.191 0.451 0.5 0.459 0.852l0 0.001c-0.014 0.619-0.52 1.116-1.141 1.116-0.576 0-1.053-0.427-1.13-0.982l-0.001-0.006c-0.26 0.358-0.415 0.806-0.416 1.291v0c0.018 1.282 1.061 2.315 2.346 2.315 0.019 0 0.038-0 0.056-0.001l-0.003 0z"></path>
<path class="fill-active" d="M5.088 6.027l0.491 0.949c3.029-1.585 6.617-2.515 10.421-2.515s7.392 0.93 10.548 2.575l-0.126-0.060 0.491-0.949c-3.172-1.66-6.928-2.633-10.912-2.633s-7.74 0.974-11.044 2.696l0.132-0.063z"></path>
<path class="fill-active" d="M25.301 10.592c-2.707-1.4-5.908-2.221-9.301-2.221s-6.595 0.821-9.417 2.275l0.115-0.054 0.48 0.949c2.567-1.327 5.603-2.106 8.821-2.106s6.254 0.778 8.931 2.157l-0.11-0.051z"></path>
<path class="fill-active" d="M8.843 14.272l0.459 0.96c1.957-0.972 4.261-1.54 6.699-1.54s4.742 0.569 6.788 1.58l-0.090-0.040 0.459-0.96c-2.091-1.036-4.553-1.642-7.157-1.642s-5.066 0.606-7.253 1.685l0.096-0.043z"></path>
</svg>
