<svg xmlns="http://www.w3.org/2000/svg" viewBox="0 0 48 24" enable-background="new 0 0 48 24"><path fill="#939393" d="m48 5c-1.6-1.6-2.4-2.4-4-4h-11v3h-2v3.2c.3-.1.7-.1 1-.1v15.9h-1v1h15v-3h2v-16"/><g fill="#fff"><path d="m31 4h13v19h-13z"/><path d="m46 19h-13v-18h10.2l2.8 2.8z"/></g><path fill="#ac382e" d="m41 3h-11v3.2c.3-.1.7-.1 1-.1v-2.1h9.6l3.4 3.4v14.6h-8.1c-1.1.4-2.3.7-3.6.7-.8 0-1.6-.1-2.3-.3v.6h15v-16c-1.6-1.6-2.4-2.4-4-4"/><path fill="#e74c3c" d="m38.3 18.3s-3.2 3.3-7.1 3.3-7.2-3.3-7.2-3.3.6-4.5 7.1-4.5 7.2 4.5 7.2 4.5"/><path fill="#fff" d="m31.1 20.9c-2.9 0-5.4-2-6.3-2.9.9-.9 3.4-2.9 6.3-2.9 2.9 0 5.4 2 6.3 2.9-.9.9-3.4 2.9-6.3 2.9"/><path fill="#d6d6d6" d="m35 19.8c.3-.6.4-1.2.4-1.8 0-.6-.1-1.3-.4-1.8-1.1-.6-2.4-1.1-3.8-1.1-1.4 0-2.7.5-3.8 1.1-.3.6-.4 1.2-.4 1.8 0 .6.1 1.3.4 1.8 1.1.6 2.4 1.1 3.8 1.1 1.4 0 2.7-.5 3.8-1.1"/><circle fill="#5a5a5a" cx="31.1" cy="17.4" r="1.8"/><circle fill="#fff" cx="30.6" cy="16.8" r=".9"/><g fill="#e74c3c"><path d="m36.9 9.8c-1.8-.9-3.7-1.4-5.7-1.4s-3.9.5-5.7 1.4l-.5-1.1c1.9-1 4.1-1.5 6.2-1.5s4.3.5 6.2 1.5l-.5 1.1"/><path d="m36 11.4c-3-1.5-6.6-1.5-9.6 0l-.5-1.1c1.6-.8 3.4-1.3 5.2-1.3 1.9 0 3.7.4 5.3 1.3l-.4 1.1"/><path d="m34.8 13.4c-2.3-1.1-4.9-1.1-7.2 0l-.6-1c2.6-1.3 5.7-1.3 8.3 0l-.5 1"/></g><path fill="none" stroke="#ac382e" stroke-miterlimit="10" d="m39.5 3v4.5h5.5"/><path fill="#ac382e" d="m43 0h-11v4c.3-.1.7 0 1 0v-3h9.6l3.4 3.4v14.6h-2v1h3v-16c-1.6-1.6-2.4-2.4-4-4"/><path fill="none" stroke="#ac382e" stroke-miterlimit="10" d="m41.5 0v4.1l.4.4h5.1"/><path fill="#939393" d="M24,5c-1.6-1.6-2.4-2.4-4-4H9v3H7v3.2c0.3-0.1,0.7-0.1,1-0.1V23H7v1h15v-3h2V5z"/><g fill="#fff"><path d="m7 4h13v19h-13z"/><path d="m22 19h-13v-18h10.2l2.8 2.8z"/></g><g fill="#5a5a5a"><path d="m17 3h-11v3.2c.3-.1.7-.1 1-.1v-2.1h9.6l3.4 3.4v14.6h-8.1c-1.1.4-2.3.7-3.6.7-.8 0-1.6-.1-2.3-.3v.6h15v-16c-1.6-1.6-2.4-2.4-4-4"/><path d="m14.3 18.3s-3.2 3.3-7.1 3.3-7.2-3.3-7.2-3.3.6-4.5 7.1-4.5 7.2 4.5 7.2 4.5"/></g><path fill="#d6d6d6" d="m7.1 20.9c-2.9 0-5.4-2-6.3-2.9.9-.9 3.4-2.9 6.3-2.9 2.9 0 5.4 2 6.3 2.9-.9.9-3.4 2.9-6.3 2.9"/><path fill="#939393" d="m11 19.8c.3-.6.4-1.2.4-1.8 0-.6-.1-1.3-.4-1.8-1.1-.6-2.4-1.1-3.8-1.1-1.4 0-2.7.5-3.8 1.1-.3.6-.4 1.2-.4 1.8 0 .6.1 1.3.4 1.8 1.1.6 2.4 1.1 3.8 1.1 1.4 0 2.7-.5 3.8-1.1"/><circle fill="#5a5a5a" cx="7.1" cy="17.4" r="1.8"/><circle fill="#fff" cx="6.6" cy="16.8" r=".9"/><g fill="#5a5a5a"><path d="m12.9 9.8c-1.8-.9-3.7-1.4-5.7-1.4s-4 .5-5.8 1.4l-.5-1.1c1.9-1 4.1-1.5 6.2-1.5s4.3.5 6.2 1.5l-.4 1.1"/><path d="m12 11.4c-3-1.5-6.6-1.5-9.6 0l-.5-1.1c1.6-.8 3.4-1.3 5.2-1.3s3.7.4 5.3 1.3l-.4 1.1"/><path d="m10.8 13.4c-2.3-1.1-4.9-1.1-7.2 0l-.6-1c2.6-1.3 5.7-1.3 8.3 0l-.5 1"/></g><path fill="none" stroke="#5a5a5a" stroke-miterlimit="10" d="m15.5 3v4.5h5.5"/><path fill="#5a5a5a" d="M19,0H8v4c0.3-0.1,0.7,0,1,0V1h9.6L22,4.4V19h-2v1h3V4C21.4,2.4,20.6,1.6,19,0z"/><path fill="none" stroke="#5a5a5a" stroke-miterlimit="10" d="m17.5 0v4.1l.4.4h5.1"/></svg>