<svg version="1.1" xmlns="http://www.w3.org/2000/svg" width="32" height="32" viewBox="0 0 32 32">
<path class="fill-active" d="M26.667 29.227c0.589 0 1.067-0.478 1.067-1.067v0-18.133l-7.253-7.253h-15.147c-0.589 0-1.067 0.478-1.067 1.067v0 24.32c0 0.589 0.478 1.067 1.067 1.067v0zM6.4 4.907h13.013v6.187h6.187v16h-19.2z"></path>
<path class="fill-active" d="M16 13.867c-4.331 0-7.744 4.267-7.883 4.416l-0.267 0.331 0.267 0.331c0.139 0.181 3.552 4.416 7.883 4.416s7.744-4.267 7.883-4.416l0.267-0.331-0.267-0.331c-0.139-0.235-3.552-4.416-7.883-4.416zM19.872 18.613c-0.088 2.022-1.748 3.628-3.783 3.628-0.031 0-0.062-0-0.093-0.001l0.005 0c-0.026 0.001-0.056 0.001-0.087 0.001-2.054 0-3.726-1.636-3.785-3.676l-0-0.005c0.088-2.022 1.748-3.628 3.783-3.628 0.031 0 0.062 0 0.093 0.001l-0.005-0c0.026-0.001 0.057-0.001 0.089-0.001 2.035 0 3.696 1.606 3.783 3.62l0 0.008zM9.205 18.613c0.699-0.765 1.468-1.446 2.302-2.039l0.044-0.030c-0.326 0.601-0.518 1.315-0.518 2.075s0.192 1.474 0.529 2.098l-0.012-0.023c-0.865-0.642-1.623-1.343-2.3-2.117l-0.014-0.017zM20.384 20.693c0.326-0.601 0.518-1.315 0.518-2.075s-0.192-1.474-0.529-2.098l0.012 0.023c0.874 0.624 1.639 1.305 2.326 2.058l0.010 0.011c-0.688 0.747-1.442 1.414-2.26 1.997l-0.044 0.030z"></path>
<path class="fill-active" d="M16 20.213c0.040 0.003 0.086 0.005 0.133 0.005 0.913 0 1.653-0.74 1.653-1.653s-0.74-1.653-1.653-1.653c-0.047 0-0.093 0.002-0.139 0.006l0.006-0h-0.128c0.198 0.138 0.326 0.363 0.331 0.618v0.001c-0.018 0.44-0.378 0.789-0.821 0.789-0.408 0-0.747-0.298-0.811-0.689l-0.001-0.005c-0.187 0.257-0.299 0.579-0.299 0.927 0 0 0 0 0 0.001v-0c0.018 0.917 0.765 1.654 1.685 1.654 0.015 0 0.030-0 0.045-0.001l-0.002 0z"></path>
</svg>
