<svg xmlns="http://www.w3.org/2000/svg" xmlns:xlink="http://www.w3.org/1999/xlink" viewBox="0 0 48 24" enable-background="new 0 0 48 24"><defs><path id="2" d="m-3.7-11c-.1 0-.2.1-.3.1-1.9 1.2-3.9 2.5-5.8 3.7-.2.2-.3.4-.3.7 0 3.5 0 6.9 0 10.4 0 .1 0 .3-.1.4-.5 1.3-1.1 2.6-1.6 3.8 0 .1-.1.1-.1.2-.1.2-.1.4.1.6.2.1.3.2.5.1.5-.2 1-.5 1.5-.7 1.2-.7 2.5-1.3 3.8-1.9.4-.2.6-.4.7-.7.2-.5.2-.5.7-.4 1.9.2 3.7.4 5.6.6.2 0 .2.1.3.2.7 1.1 1.4 2.2 2.1 3.3.2.4.4.4.8.3 2.2-.9 4.3-1.8 6.4-2.7.5-.2.5-.4.3-.9-.9-1.4-1.8-2.9-2.7-4.3-.1-.2-.2-.4-.2-.5 0-3.5 0-6.9 0-10.3 0-.5-.1-.6-.6-.7-2.4-.3-4.7-.6-7.1-.8-1.3-.2-2.5-.3-3.8-.5 0 0-.1 0-.2 0m10.7 2.2c0 3.3 0 6.6 0 10-3-.5-7-.8-10-1.2 0-3.3 0-6.7 0-10 3 .4 7 .8 10 1.2m-16 12.1c0-.1 0-.2 0-.3 0-3-.1-6.1-.1-9.2 0-.2 0-.3.2-.3 1.5-1 3.1-2 4.6-3 .1 0 .1-.1.2-.1 0 .1 0 .1 0 .1 0 3.2 0 6.3 0 9.5 0 .2-.1.3-.2.3-1.5 1-3 2-4.5 3-.1-.1-.2 0-.2 0m11.2 2.3c1.7-1.1 3.5-2.2 5.2-3.3.8 1.3 1.7 2.7 2.5 4-1.9.8-3.8 1.6-5.8 2.5-.6-1.1-1.3-2.1-1.9-3.2m-6.9-1.3c0 0 0 0 0 0 .5-1.2 1-2.2 1.4-3.3.1 0 .2-.1.3-.1.3 0 .6.1.9.1 1 .1 2.1.3 3.1.4 0 1.2 0 2.4 0 3.6-2-.2-3.8-.5-5.7-.7m-5.9 3.3c.5-1 .9-2 1.3-3 0-.1.1-.1.2-.2 1-.6 2-1.3 3-1.9.5-.3 1.1-.7 1.7-1.1 0 .1-.1.2-.1.2-.5 1.2-1 2.3-1.5 3.4-.2.4-.4.7-.8.8-1.3.6-2.5 1.2-3.8 1.8m12.6-3c0-1.1 0-2.1 0-3.2 1 .2 2.8.4 4.1.6 0 0 0 0 0 .1-1.3.8-3.1 1.7-4.1 2.5"/><path id="3" d="m-9 3.3c0-.1.1-.1.1-.1 1.5-1 3-2 4.6-3 .1-.1.2-.2.2-.3 0-3.2 0-6.3 0-9.5 0 0 0-.1 0-.1-.1 0-.2.1-.2.1-1.5 1-3.1 2-4.6 3-.1.1-.1.2-.1.3-.1 3.2 0 6.3 0 9.4 0 0 0 .1 0 .2"/><path id="4" d="m-4.7 4.3c1.9.2 3.7.5 5.7.7 0-1.2 0-2.4 0-3.6-1-.1-2.1-.3-3.1-.4-.3 0-.6-.1-.9-.1-.1 0-.2.1-.3.1-.4 1.1-.9 2.2-1.4 3.3"/><path id="5" d="m2 4.6c1-.8 2.8-1.7 4.1-2.6 0 0 0 0 0-.1-1.4-.1-3.1-.3-4.1-.4 0 1 0 2.1 0 3.1"/><path id="6" d="M-6.9 7.9 3.9 9.8 6-2-4.8-4z"/><path id="7" d="m.9 2.1c-.1.1-.6 1.3-.6 1.4-.8 1.3-2 1.4-2.6.8-.6-.7-.7-.8-.8-1.7l-.4-2.2 7.7 1.4h-1.1c-.8.2-1.7-.1-2.2.3"/><path id="8" d="m-4.7 5.8c0 .6.9.8 1.3 1 .5.2 1.2.3 1.8.3.2 0 .7 0 .9-.2.2-.2.1-.6-.1-.8-.3-.3-1-.3-1.4-.4-.4 0-.8 0-1.2-.1-.3 0-1-.1-1.3.2"/><path id="9" d="m7-8.8c-3-.4-7-.8-10-1.2 0 3.3 0 6.6 0 10 3 .4 7 .7 10 1.1 0-3.3 0-6.6 0-9.9"/><path id="A" d="m2.2 5.6c.7 1 1.3 2.1 2 3.1 1.9-.8 3.8-1.6 5.7-2.4-.8-1.3-1.7-2.6-2.5-4-1.7 1.1-3.5 2.2-5.2 3.3"/><path id="B" d="M-5.8 7.1 3.1 8.6 4.5.7-4.4-.8z" fill="#fff"/><path id="C" d="m10.6 7c.5-.2.5-.4.3-.9-.9-1.4-1.8-2.9-2.7-4.3-.1-.2-.2-.4-.2-.5 0-3.5 0-6.9 0-10.3 0-.5-.1-.6-.6-.7-2.4-.3-4.7-.6-7.1-.8-1.3-.2-2.5-.3-3.8-.5 0 0-.1 0-.2 0-.1 0-.2.1-.3.1-1.9 1.2-3.9 2.5-5.8 3.7-.2.2-.3.4-.3.7 0 3.5 0 6.9 0 10.4 0 .1 0 .3-.1.4-.5 1.3-1.1 2.6-1.6 3.8 0 .1-.1.1-.1.2-.1.2-.1.4.1.6.2.1.3.2.5.1.5-.2 1-.5 1.5-.7 1.2-.7 2.5-1.3 3.8-1.9.4-.2.6-.4.7-.7 0 0 1.6-3.6 2-4.7.1 0 .2-.1.3-.1.3 0 .6.1 1 .1 1 .1 2 .3 3.1.4l1 .1c1.3.1 2.7.3 4 .5 0 0 1.3.4 1.3.4.8 1.3 1.7 2.7 2.5 4 0-.1.5.7.7.6m-3.6-15.8c0 3.3 0 6.6 0 10-3-.5-7-.8-10-1.2 0-3.3 0-6.7 0-10 3 .4 7 .8 10 1.2m-16 12.1c0-.1 0-.2 0-.3 0-3-.1-6.1-.1-9.2 0-.2 0-.3.2-.3 1.5-1 3.1-2 4.6-3 .1 0 .1-.1.2-.1 0 .1 0 .1 0 .1 0 3.2 0 6.3 0 9.5 0 .2-.1.3-.2.3-1.5 1-3 2-4.5 3-.1-.1-.2 0-.2 0m-1.6 4.3c.5-1 .9-2 1.3-3 0-.1.1-.1.2-.2 1-.6 2-1.3 3-1.9.5-.3 1.1-.7 1.7-1.1 0 .1-.1.2-.1.2-.5 1.2-1 2.3-1.5 3.4-.2.4-.4.7-.8.8-1.3.6-2.5 1.2-3.8 1.8"/><path id="D" d="m-10.6 7.6c1.3-.6 2.5-1.2 3.8-1.8.4-.2.7-.4.8-.8.5-1.1 1-2.2 1.4-3.3 0-.1 0-.1.1-.2-.6.4-1.1.7-1.7 1.1-1 .6-2 1.3-3 1.9-.1 0-.2.1-.2.2-.3.9-.8 1.8-1.2 2.9" fill="#d6d6d6"/></defs><symbol id="0" viewBox="-12 -12 24 24"><path fill="#939393" d="m11.6 6c-.7.3-1.3.6-2 .8l.4 2.2-10.8 2-.6-3.3-4.6-.8.2-1.1c-1 .5-2.1 1-3.1 1.5-.5.2-1 .5-1.5.7-.1 0-.3 0-.5-.1-.1-.2-.2-.4-.1-.6 0-.1.1-.1.1-.2.6-1.3 1.1-2.5 1.6-3.8.1-.1.1-.3.1-.4 0-3.5 0-6.9 0-10.4 0-.3.1-.5.3-.6 2-1.3 3.9-2.5 5.9-3.8.1-.1.2-.1.3-.1.1 0 .2 0 .2 0 1.3.1 2.5.3 3.8.4 2.3.3 4.7.6 7.1.9.5 0 .6.1.6.7 0 3.4 0 6.8 0 10.3 0 .1 0 .3.1.4.9 1.5 1.8 2.9 2.7 4.4.3.4.2.7-.2.9" id="E"/><use fill="#5a5a5a" xlink:href="#2"/><path fill="#d6d6d6" d="m7-8.8c-3-.4-7-.8-10-1.2 0 3.3 0 6.6 0 10 3 .4 7 .7 10 1.1 0-3.3 0-6.6 0-9.9"/><use fill="#d6d6d6" xlink:href="#3"/><path fill="#d6d6d6" d="m2.2 5.6c.7 1 1.3 2.1 2 3.1 1.9-.8 3.8-1.6 5.7-2.4-.8-1.3-1.7-2.6-2.5-4-1.7 1.1-3.5 2.2-5.2 3.3"/><use fill="#d6d6d6" xlink:href="#4"/><path fill="#d6d6d6" d="m-10.6 7.6c1.3-.6 2.5-1.2 3.8-1.8.4-.2.7-.4.8-.8.5-1.1 1-2.2 1.4-3.3 0-.1 0-.1.1-.2-.6.4-1.1.7-1.7 1.1-1 .6-2 1.3-3 1.9-.1 0-.2.1-.2.2-.3.9-.8 1.8-1.2 2.9"/><use fill="#d6d6d6" xlink:href="#5"/><path fill="#fff" d="M0 10.8 8.9 9.2 7.4 1.3-1.4 3z"/><path fill="#5a5a5a" d="m4.5 3.8c0 .2-.1 1.5-.1 1.6-.3 1.5-1.4 2-2.1 1.6-.8-.4-.9-.5-1.3-1.3l-1.1-2 7.7-1.4-1.1.4c-.7.6-1.7.6-2 1.1" id="F"/><path fill="#5a5a5a" d="m8.5 7.2c-.2-.9-1-1.5-1.9-1.3-.9.1-1.5 1-1.3 1.8s1 1.5 1.9 1.3 1.4-1 1.3-1.8" id="G"/><path fill="#5a5a5a" d="m.6 9.2c.2.6 1.1.5 1.6.5.5 0 1.2-.1 1.8-.3.2-.1.7-.3.8-.5.1-.3-.1-.6-.4-.7-.5-.1-1.1.1-1.5.2-.4.1-.8.2-1.2.3-.3 0-.9.2-1.1.5" id="H"/><use fill="#5a5a5a" xlink:href="#6"/><path fill="#fff" d="M-5.8 7.1 3.1 8.6 4.5.7-4.4-.8z"/><use fill="#5a5a5a" xlink:href="#7"/><path fill="#5a5a5a" d="m3.4 6.6c.2-.9-.4-1.7-1.3-1.9-.9-.2-1.7.4-1.8 1.3s.4 1.7 1.3 1.9 1.7-.4 1.8-1.3"/><use fill="#5a5a5a" xlink:href="#8"/><path fill="#5a5a5a" d="m10.6 7c.5-.2.5-.4.3-.9-.9-1.4-1.8-2.9-2.7-4.3-.1-.2-.2-.4-.2-.5 0-3.5 0-6.9 0-10.3 0-.5-.1-.6-.6-.7-2.4-.3-4.7-.6-7.1-.8-1.3-.2-2.5-.3-3.8-.5 0 0-.1 0-.2 0-.1 0-.2.1-.3.1-1.9 1.2-3.9 2.5-5.8 3.7-.2.2-.3.4-.3.7 0 3.5 0 6.9 0 10.4 0 .1 0 .3-.1.4-.5 1.3-1.1 2.6-1.6 3.8 0 .1-.1.1-.1.2-.1.2-.1.4.1.6.2.1.3.2.5.1.5-.2 1-.5 1.5-.7 1.2-.7 2.5-1.3 3.8-1.9.4-.2.6-.4.7-.7 0 0 1.6-3.6 2-4.7.1 0 .2-.1.3-.1.3 0 .6.1 1 .1 1 .1 2 .3 3.1.4l1 .1c1.3.1 2.7.3 4 .5 0 0 1.3.4 1.3.4.8 1.3 1.7 2.7 2.5 4 0-.1.5.7.7.6m-3.6-15.8c0 3.3 0 6.6 0 10-3-.5-7-.8-10-1.2 0-3.3 0-6.7 0-10 3 .4 7 .8 10 1.2m-16 12.1c0-.1 0-.2 0-.3 0-3-.1-6.1-.1-9.2 0-.2 0-.3.2-.3 1.5-1 3.1-2 4.6-3 .1 0 .1-.1.2-.1 0 .1 0 .1 0 .1 0 3.2 0 6.3 0 9.5 0 .2-.1.3-.2.3-1.5 1-3 2-4.5 3-.1-.1-.2 0-.2 0m-1.6 4.3c.5-1 .9-2 1.3-3 0-.1.1-.1.2-.2 1-.6 2-1.3 3-1.9.5-.3 1.1-.7 1.7-1.1 0 .1-.1.2-.1.2-.5 1.2-1 2.3-1.5 3.4-.2.4-.4.7-.8.8-1.3.6-2.5 1.2-3.8 1.8"/><use fill="#d6d6d6" xlink:href="#9"/><use fill="#d6d6d6" xlink:href="#3"/><path fill="#d6d6d6" d="m-10.6 7.6c1.3-.6 2.5-1.2 3.8-1.8.4-.2.7-.4.8-.8.5-1.1 1-2.2 1.4-3.3 0-.1 0-.1.1-.2-.6.4-1.1.7-1.7 1.1-1 .6-2 1.3-3 1.9-.1 0-.2.1-.2.2-.3.9-.8 1.8-1.2 2.9"/><use fill="#ac382e" xlink:href="#2"/><use fill="#fff" xlink:href="#9"/><use fill="#fff" xlink:href="#3"/><use fill="#fff" xlink:href="#A"/><use fill="#fff" xlink:href="#4"/><path fill="#fff" d="m-10.6 7.6c1.3-.6 2.5-1.2 3.8-1.8.4-.2.7-.4.8-.8.5-1.1 1-2.2 1.4-3.3 0-.1 0-.1.1-.2-.6.4-1.1.7-1.7 1.1-1 .6-2 1.3-3 1.9-.1 0-.2.1-.2.2-.3.9-.8 1.8-1.2 2.9"/><use fill="#fff" xlink:href="#5"/><path fill="#e74c3c" d="M-1.8 12 9 10 6.8-1.8-4 .2z"/><path fill="#fff" d="M-1 10.8 7.9 9.2 6.4 1.3-2.4 3z" id="I"/><path fill="#e74c3c" d="m3.5 3.8c0 .2-.1 1.5-.1 1.6-.3 1.5-1.4 2-2.1 1.6-.8-.4-.9-.5-1.3-1.3l-1.1-2 7.7-1.4-1.1.4c-.7.6-1.7.6-2 1.1"/><path fill="#e74c3c" d="m7.5 7.2c-.2-.9-1-1.5-1.9-1.3-.9.1-1.5 1-1.3 1.8s1 1.5 1.9 1.3 1.4-1 1.3-1.8"/><path fill="#e74c3c" d="m-.4 9.2c.2.6 1.1.5 1.6.5.5 0 1.2-.1 1.8-.3.2-.1.7-.3.8-.5.1-.3-.1-.6-.4-.7-.5-.1-1.1.1-1.5.2-.4.1-.8.2-1.2.3-.3 0-.9.2-1.1.5"/><use fill="#e74c3c" xlink:href="#6"/><use xlink:href="#B"/><use fill="#e74c3c" xlink:href="#7"/><path fill="#e74c3c" d="m3.4 6.6c.2-.9-.4-1.7-1.3-1.9-.9-.2-1.7.4-1.8 1.3s.4 1.7 1.3 1.9 1.7-.4 1.8-1.3"/><use fill="#e74c3c" xlink:href="#8"/><use fill="#ac382e" xlink:href="#C"/><use fill="#fff" xlink:href="#9"/><use fill="#fff" xlink:href="#3"/><path fill="#fff" d="m-10.6 7.6c1.3-.6 2.5-1.2 3.8-1.8.4-.2.7-.4.8-.8.5-1.1 1-2.2 1.4-3.3 0-.1 0-.1.1-.2-.6.4-1.1.7-1.7 1.1-1 .6-2 1.3-3 1.9-.1 0-.2.1-.2.2-.3.9-.8 1.8-1.2 2.9"/></symbol><symbol id="1" viewBox="-12 -12 24 24"><use xlink:href="#E"/><use fill="#5a5a5a" xlink:href="#2"/><use fill="#d6d6d6" xlink:href="#9"/><use fill="#d6d6d6" xlink:href="#3"/><use fill="#d6d6d6" xlink:href="#A"/><use fill="#d6d6d6" xlink:href="#4"/><use xlink:href="#D"/><use fill="#d6d6d6" xlink:href="#5"/><path fill="#fff" d="M0 10.8 8.9 9.2 7.4 1.3-1.4 3z"/><use xlink:href="#F"/><use xlink:href="#G"/><use xlink:href="#H"/><use fill="#5a5a5a" xlink:href="#6"/><use xlink:href="#B"/><use fill="#5a5a5a" xlink:href="#7"/><path fill="#5a5a5a" d="m3.4 6.6c.2-.9-.4-1.7-1.3-1.9-.9-.2-1.7.4-1.8 1.3s.4 1.7 1.3 1.9 1.7-.4 1.8-1.3" id="J"/><use fill="#5a5a5a" xlink:href="#8"/><use fill="#5a5a5a" xlink:href="#C"/><use fill="#d6d6d6" xlink:href="#9"/><use fill="#d6d6d6" xlink:href="#3"/><use xlink:href="#D"/><use fill="#5a5a5a" xlink:href="#2"/><use fill="#d6d6d6" xlink:href="#9"/><use fill="#d6d6d6" xlink:href="#3"/><use fill="#d6d6d6" xlink:href="#A"/><use fill="#d6d6d6" xlink:href="#4"/><use xlink:href="#D"/><use fill="#d6d6d6" xlink:href="#5"/><path fill="#5a5a5a" d="M-1.8 12 9 10 6.8-1.8-4 .2z"/><use xlink:href="#I"/><path fill="#5a5a5a" d="m3.5 3.8c0 .2-.1 1.5-.1 1.6-.3 1.5-1.4 2-2.1 1.6-.8-.4-.9-.5-1.3-1.3l-1.1-2 7.7-1.4-1.1.4c-.7.6-1.7.6-2 1.1"/><path fill="#5a5a5a" d="m7.5 7.2c-.2-.9-1-1.5-1.9-1.3-.9.1-1.5 1-1.3 1.8s1 1.5 1.9 1.3 1.4-1 1.3-1.8"/><path fill="#5a5a5a" d="m-.4 9.2c.2.6 1.1.5 1.6.5.5 0 1.2-.1 1.8-.3.2-.1.7-.3.8-.5.1-.3-.1-.6-.4-.7-.5-.1-1.1.1-1.5.2-.4.1-.8.2-1.2.3-.3 0-.9.2-1.1.5"/><use fill="#5a5a5a" xlink:href="#6"/><use xlink:href="#B"/><use fill="#5a5a5a" xlink:href="#7"/><use xlink:href="#J"/><use fill="#5a5a5a" xlink:href="#8"/><use fill="#5a5a5a" xlink:href="#C"/><use fill="#d6d6d6" xlink:href="#9"/><use fill="#d6d6d6" xlink:href="#3"/><use xlink:href="#D"/></symbol><use xlink:href="#1" width="24" height="24" x="-12" y="-12" transform="matrix(1 0 0-1 12 12)"/><use xlink:href="#0" width="24" height="24" x="-12" y="-12" transform="matrix(1 0 0-1 36 12)"/></svg>