<!-- Generated by IcoMoon.io -->
<svg version="1.1" xmlns="http://www.w3.org/2000/svg" width="32" height="32" viewBox="0 0 32 32">
<title>group-containers</title>
<path class="fill-active" d="M31.381 17.461v0c-0.030-0.062-0.070-0.115-0.117-0.16l-0-0h-0.064l-7.851-4.267 0.448-10.901-12.992-0.608-0.459 9.899-9.28 1.301-0.075 0.075c-0.019-0.002-0.041-0.004-0.064-0.004s-0.045 0.001-0.067 0.004l0.003-0-0.075 0.075c-0.041 0.048-0.074 0.105-0.095 0.167l-0.001 0.004s0 0 0 0.064 0 0 0 0 0 0 0 0v9.845c0 0 0 0.001 0 0.001 0 0.201 0.111 0.375 0.275 0.466l0.003 0.001 12.576 6.837c0.065 0.033 0.142 0.052 0.224 0.053h0.075l17.088-2.261c0.259-0.038 0.456-0.257 0.459-0.522v-9.846c0.005-0.026 0.007-0.056 0.007-0.087 0-0.049-0.006-0.096-0.019-0.141l0.001 0.004zM23.243 14.133l5.984 3.2-15.424 2.133-10.997-5.909 7.467-1.067-0.171 3.744 12.992 0.597zM1.653 14.133l1.664 0.907 9.845 5.333v8.629l-11.531-6.219zM11.616 2.4l11.264 0.512-0.48 11.296-11.264-0.512z"></path>
<path class="fill-active" d="M11.68 12.693l10.133 0.459-2.773-1.707c-0.989-0.59-1.739-1.492-2.123-2.569l-0.011-0.034c-0.448-1.333-1.067-4.192-2.208-4.171-1.899 0.053-3.019 8.021-3.019 8.021z"></path>
<path class="fill-active" d="M21.877 6.475c0 1.143-0.926 2.069-2.069 2.069s-2.069-0.926-2.069-2.069c0-1.143 0.926-2.069 2.069-2.069s2.069 0.926 2.069 2.069z"></path>
</svg>
