<svg xmlns="http://www.w3.org/2000/svg" viewBox="0 0 48 24" enable-background="new 0 0 48 24"><path fill="#939393" d="m22 9v-4c0-.6-.4-1-1-1h-1-5l-1.7-2.4c-.2-.4-.5-.6-.9-.6h-3-4.4-3c-.6 0-1 .4-1 1v20c0 .6.4 1 1 1h3 5v1h14v-15h-2"/><path fill="#5a5a5a" d="m19 3h-5l-1.7-2.4c-.2-.4-.5-.6-.9-.6h-7.4c-.6 0-1 .4-1 1v20c0 .6.4 1 1 1h12.9c1.7 0 3.1-1.4 3.1-3.1v-14.9c0-.6-.4-1-1-1"/><path fill="#939393" d="m4 21v-20h7.4l1.7 2.4c.2.4.5.6.9.6h5v13.9c0 1.7-1.4 3.1-3.1 3.1h-11.9"/><path fill="#5a5a5a" d="m21 21v-17c0-.6-.4-1-1-1h-9l-1.7-2.4c-.2-.4-.5-.6-.9-.6h-7.4c-.6 0-1 .4-1 1v20c0 .6.4 1 1 1h19c.6 0 1-.4 1-1"/><path fill="#d6d6d6" d="m1 21v-20h7.4l1.7 2.4c.2.4.5.6.9.6h9v17h-19"/><path fill="#fff" d="m8 7h15v16h-15z"/><path fill="#5a5a5a" d="m9 8h14v15h-14z"/><path fill="#fff" d="m10 9h12v11h-12z"/><g fill="#5a5a5a"><path d="m16.9 16.7c-.1-.1-.4-1.8-.5-2-.7-1.8-2.2-2.1-3-1.5-.9.7-1 1.4-1.4 2.5l-1 3.3h10l-1.4-.8c-1-.5-2.2-.8-2.7-1.5"/><circle cx="19" cy="11.6" r="2.1"/><path d="m10.7 10.8c.1-.7 1.3-.9 1.9-.9.7-.1 1.6-.1 2.3 0 .3 0 .9.2 1.1.4.2.3 0 .8-.3.9-.5.3-1.3.1-1.9.1-.5 0-1-.1-1.5-.1-.5.1-1.3 0-1.6-.4"/></g><path fill="#939393" d="m46 9v-4c0-.6-.4-1-1-1h-1-5l-1.7-2.4c-.2-.4-.5-.6-.9-.6h-3-4.4-3c-.6 0-1 .4-1 1v20c0 .6.4 1 1 1h3 5v1h14v-15h-2"/><path fill="#ac382e" d="m43 3h-5l-1.7-2.4c-.2-.4-.5-.6-.9-.6h-7.4c-.6 0-1 .4-1 1v20c0 .6.4 1 1 1h12.9c1.7 0 3.1-1.4 3.1-3.1v-14.9c0-.6-.4-1-1-1"/><path fill="#939393" d="m28 21v-20h7.4l1.7 2.4c.2.4.5.6.9.6h5v13.9c0 1.7-1.4 3.1-3.1 3.1h-11.9"/><path fill="#ac382e" d="m45 21v-17c0-.6-.4-1-1-1h-9l-1.7-2.4c-.2-.4-.5-.6-.9-.6h-7.4c-.6 0-1 .4-1 1v20c0 .6.4 1 1 1h19c.6 0 1-.4 1-1"/><g fill="#fff"><path d="m25 21v-20h7.4l1.7 2.4c.2.4.5.6.9.6h9v17h-19"/><path d="m32 7h15v16h-15z"/></g><path fill="#e74c3c" d="m33 8h14v15h-14z"/><path fill="#fff" d="m34 9h12v11h-12z"/><g fill="#ac382e"><path d="m40.9 16.7c-.1-.1-.4-1.8-.5-2-.7-1.8-2.2-2.1-3-1.5-.9.7-1 1.4-1.4 2.5l-1 3.3h10l-1.4-.8c-1-.5-2.2-.8-2.7-1.5"/><circle cx="43" cy="11.6" r="2.1"/><path d="m34.7 10.8c.1-.7 1.3-.9 1.9-.9.7-.1 1.6-.1 2.3 0 .3 0 .9.2 1.1.4.2.3 0 .8-.3.9-.5.3-1.3.1-1.9.1-.5 0-1-.1-1.5-.1-.5.1-1.3 0-1.6-.4"/></g></svg>