<!-- Generated by IcoMoon.io -->
<svg version="1.1" xmlns="http://www.w3.org/2000/svg" width="32" height="32" viewBox="0 0 32 32">
<title>image-groups</title>
<path class="fill-active" d="M1.536 10.965c-0.11 0.097-0.179 0.238-0.181 0.394v16c0 0.295 0.239 0.533 0.533 0.533v0c0.092-0.008 0.176-0.039 0.247-0.087l-0.002 0.001c0.068 0.034 0.148 0.053 0.232 0.053 0.001 0 0.002 0 0.002 0h22.656c0.001 0 0.002 0 0.003 0 0.237 0 0.439-0.155 0.508-0.37l0.001-0.004 1.771-5.493 2.539 0.117 0.789-17.291-15.253-0.704-0.245 5.387-0.864-0.768c-0.427-0.384-9.835-0.384-10.261 0zM13.664 9.6l1.419 1.248-0.149 3.147h-8.448c-0.001 0-0.002 0-0.003 0-0.237 0-0.439 0.155-0.508 0.37l-0.001 0.004-3.552 10.997v-13.771l2.197-1.995c1.045-0.096 8.011-0.096 9.045 0zM3.083 26.795l3.797-11.733h21.557l-3.797 11.733zM28.288 18.987l0.8-2.485-0.117 2.517zM16.352 5.195l13.227 0.608-0.373 8.203h-5.973c-0.251-0.366-0.467-0.785-0.628-1.231l-0.012-0.039c-0.523-1.568-1.237-4.928-2.592-4.896s-2.379 3.456-2.933 6.155h-1.067z"></path>
<path class="fill-active" d="M28.384 9.941c0 1.343-1.089 2.432-2.432 2.432s-2.432-1.089-2.432-2.432c0-1.343 1.089-2.432 2.432-2.432s2.432 1.089 2.432 2.432z"></path>
</svg>
