<svg xmlns="http://www.w3.org/2000/svg" viewBox="0 0 48 24" enable-background="new 0 0 48 24"><path fill="#939393" d="m3.6 24l-2.6-2.6v-11.8l2.6-2.6h1.6l2.9-6h8.5l2.9 6h4.5v14.4l-2.6 2.6z"/><path fill="#5a5a5a" d="m2.6 23l-2.6-2.6v-11.8l2.6-2.6h2.6l2.9-6h7.5l2.9 6h4.5v14.4l-2.6 2.6z"/><path fill="#d6d6d6" d="m20 22h-17c-.8-.8-1.2-1.2-2-2v-11c.8-.8 1.2-1.2 2-2h19v13c-.8.8-1.2 1.2-2 2"/><path fill="#5a5a5a" d="m11.5 20.6c-3.3 0-5.9-2.5-5.9-5.8 0-3.1 2.4-5.8 5.4-5.8h1c3 0 5.4 2.7 5.4 5.8 0 3.2-2.6 5.8-5.9 5.8"/><circle fill="#fff" cx="11.5" cy="14.6" r="3.1"/><path fill="#5a5a5a" d="m17 8h4v2h-4z"/><path fill="#d6d6d6" d="m18 7h-12.3l2.7-6h6.9z"/><g fill="#5a5a5a"><path d="m19 14h3v1h-3z"/><path d="m3 6h16v1h-16z"/></g><path fill="#fff" d="m15.9 5l-1.3-3h-5.5l-1.3 3z"/><path fill="#5a5a5a" d="m1 14h3v1h-3z"/><path fill="#939393" d="m27.6 24l-2.6-2.6v-11.8l2.6-2.6h1.6l2.9-6h8.5l2.9 6h4.5v14.4l-2.6 2.6z"/><path fill="#5a5a5a" d="m26.6 23l-2.6-2.6v-11.8l2.6-2.6h2.6l2.9-6h7.5l2.9 6h4.5v14.4l-2.6 2.6z"/><path fill="#e74c3c" d="m44 22h-17c-.8-.8-1.2-1.2-2-2v-11c.8-.8 1.2-1.2 2-2h19v13c-.8.8-1.2 1.2-2 2"/><path fill="#5a5a5a" d="m35.5 20.6c-3.3 0-5.9-2.5-5.9-5.8 0-3.1 2.4-5.8 5.4-5.8h1c3 0 5.4 2.7 5.4 5.8 0 3.2-2.6 5.8-5.9 5.8"/><circle fill="#fff" cx="35.5" cy="14.6" r="3.1"/><path fill="#5a5a5a" d="m41 8h4v2h-4z"/><path fill="#e74c3c" d="m42 7h-12.3l2.7-6h6.9z"/><g fill="#5a5a5a"><path d="m43 14h3v1h-3z"/><path d="m27 6h16v1h-16z"/></g><path fill="#fff" d="m39.9 5l-1.3-3h-5.5l-1.3 3z"/><path fill="#5a5a5a" d="m25 14h3v1h-3z"/></svg>