<!-- Generated by IcoMoon.io -->
<svg version="1.1" xmlns="http://www.w3.org/2000/svg" width="32" height="32" viewBox="0 0 32 32">
<title>gallery</title>
<path class="fill-active" d="M29.333 26.517v-16.64c0-0.636-0.516-1.152-1.152-1.152v0h-19.808c-0.636 0-1.152 0.516-1.152 1.152v16.64c0 0.636 0.516 1.152 1.152 1.152v0h19.808c0.636 0 1.152-0.516 1.152-1.152v0zM8.373 9.792h19.808c0.047 0 0.085 0.038 0.085 0.085v11.819l-5.259-2.443-3.808 2.336-4.8-4.875-6.133 4.267v-11.104c-0-0.001-0-0.002-0-0.003 0-0.047 0.038-0.085 0.085-0.085 0.008 0 0.015 0.001 0.022 0.003l-0.001-0z"></path>
<path class="fill-active" d="M2.88 8.203c-0.131 0.185-0.21 0.414-0.21 0.663 0 0.071 0.006 0.141 0.019 0.208l-0.001-0.007 2.837 16.395c0.095 0.548 0.567 0.96 1.136 0.96 0.002 0 0.004 0 0.006 0h0.192l-0.181-1.067c-0.006 0.002-0.014 0.003-0.022 0.003-0.044 0-0.081-0.034-0.085-0.077l-0-0-2.837-16.395 0.075-0.096 19.509-3.392c0.006-0.002 0.014-0.003 0.022-0.003 0.044 0 0.081 0.034 0.085 0.077l0 0 0.501 2.859 1.067-0.181-0.523-2.816c-0.097-0.546-0.568-0.956-1.135-0.956-0.070 0-0.139 0.006-0.205 0.018l0.007-0.001-19.509 3.339c-0.31 0.054-0.572 0.225-0.744 0.466l-0.002 0.003z"></path>
<path class="fill-active" d="M25.088 13.685c0 1.278-1.036 2.315-2.315 2.315s-2.315-1.036-2.315-2.315c0-1.278 1.036-2.315 2.315-2.315s2.315 1.036 2.315 2.315z"></path>
</svg>
