<!-- Generated by IcoMoon.io -->
<svg version="1.1" xmlns="http://www.w3.org/2000/svg" width="32" height="32" viewBox="0 0 32 32">
<title>all-images</title>
<path class="fill-active" d="M4.821 17.621v-12.8h12.8v0.448l1.067-0.192v-1.323h-14.933v17.067h3.861l-0.565-3.2h-2.229z"></path>
<path class="fill-active" d="M6.485 8.32l3.019 17.045 1.739-0.309 0.139-3.125-1.408 0.256-2.304-13.045 13.035-2.293 0.48 2.709 1.003 0.053h0.043l-0.704-3.947-0.032 0.011-15.008 2.645z"></path>
<path class="fill-active" d="M12.981 10.251l-0.789 17.291 15.253 0.704 0.789-17.291zM26.571 25.184l-13.216-0.651 0.608-13.227 13.227 0.608z"></path>
<path class="fill-active" d="M22.645 21.899c-1.14-0.699-2.003-1.755-2.441-3.011l-0.012-0.040c-0.523-1.557-1.237-4.928-2.592-4.896-2.251 0-3.584 9.408-3.584 9.408l11.893 0.533z"></path>
<path class="fill-active" d="M25.984 16.053c0 1.343-1.089 2.432-2.432 2.432s-2.432-1.089-2.432-2.432c0-1.343 1.089-2.432 2.432-2.432s2.432 1.089 2.432 2.432z"></path>
</svg>
