<svg xmlns="http://www.w3.org/2000/svg" viewBox="0 0 48 24" enable-background="new 0 0 48 24"><path fill="#939393" d="m18.3 6.8l-.9-5-1.4.3v-1.1h-15v17h4l.6 3.2 2.8-.5-.2 2.6 15 .7.8-17z"/><g fill="#fff"><path transform="matrix(.9847-.1742.1742.9847-1.752 2.085)" d="m3.9 2.9h14.3v16.2h-14.3z"/><path d="m0 0h14v16h-14z"/></g><path fill="#5a5a5a" d="m14 1.2v-1.2h-14v16h3.6l-2.2-12.5z"/><g fill="#fff"><path d="m1 1h12v12h-12z"/><path transform="matrix(.999.04574-.04574.999.656-.667)" d="m7.2 5.4h15.4v17.2h-15.4z"/></g><path fill="#5a5a5a" d="m7.7 5l9.6.5-.6-3.7-14.1 2.5 2.8 16 1.6-.3z"/><path transform="matrix(.9848-.1739.1739.9848-1.588 2.042)" fill="#fff" d="m4.7 3.9h12.4v12.4h-12.4z"/><path transform="matrix(.04578-.999.999.04578.219 29.27)" fill="#5a5a5a" d="m7.3 7.4h16.2v14.3h-16.2z"/><path transform="matrix(.999.04578-.04578.999.637-.694)" fill="#fff" d="m9.3 7.4h12.4v12.4h-12.4z"/><g fill="#5a5a5a"><path d="m20.8 18.9l-11.2-.5s1.3-8.8 3.4-8.8c1.3 0 1.9 3.1 2.4 4.6.4 1.2 1.2 2.2 2.3 2.9l3.1 1.8"/><circle cx="18.6" cy="11.5" r="2.3"/></g><path fill="#939393" d="m42.3 6.8l-.9-5-1.4.3v-1.1h-15v17h4l.6 3.2 2.8-.5-.2 2.6 15 .7.8-17z"/><g fill="#fff"><path transform="matrix(.9847-.1742.1742.9847-1.385 6.266)" d="m27.9 2.9h14.3v16.2h-14.3z"/><path d="m24 0h14v16h-14z"/></g><path fill="#ac382e" d="m38 1.2v-1.2h-14v16h3.6l-2.2-12.5z"/><g fill="#fff"><path d="m25 1h12v12h-12z"/><path transform="matrix(.999.04574-.04574.999.681-1.765)" d="m31.2 5.4h15.4v17.2h-15.4z"/></g><path fill="#ac382e" d="m31.7 5l9.6.5-.6-3.7-14.1 2.5 2.8 16 1.6-.3z"/><path transform="matrix(.9848-.1739.1739.9848-1.222 6.215)" fill="#fff" d="m28.7 3.9h12.4v12.4h-12.4z"/><path transform="matrix(.04578-.999.999.04578 23.12 53.25)" fill="#ac382e" d="m31.3 7.4h16.2v14.3h-16.2z"/><path transform="matrix(.999.04578-.04578.999.662-1.793)" fill="#fff" d="m33.3 7.4h12.4v12.4h-12.4z"/><g fill="#e74c3c"><path d="m44.8 18.9l-11.1-.5s1.3-8.8 3.4-8.8c1.3 0 1.9 3.1 2.4 4.6.4 1.2 1.2 2.2 2.3 2.9l3 1.8"/><circle cx="42.6" cy="11.5" r="2.3"/></g></svg>