<svg aria-hidden="true" style="position: absolute; width: 0; height: 0; overflow: hidden;" version="1.1" xmlns="http://www.w3.org/2000/svg" xmlns:xlink="http://www.w3.org/1999/xlink">
<defs>
<symbol id="icon-gallery-add-image" viewBox="0 0 32 32">
<path d="M26.033 32h-20.066c-3.296 0-5.967-2.672-5.967-5.967v0-20.066c0-3.296 2.672-5.967 5.967-5.967v0h20.066c3.296 0 5.967 2.672 5.967 5.967v0 20.066c0 3.296-2.672 5.967-5.967 5.967v0zM5.967 1.882c-2.256 0-4.085 1.829-4.085 4.085v0 20.066c0 2.256 1.829 4.085 4.085 4.085v0h20.066c2.256 0 4.085-1.829 4.085-4.085v0-20.066c0-2.256-1.829-4.085-4.085-4.085v0z"></path>
<path d="M16 25.299c-5.136 0-9.299-4.163-9.299-9.299s4.163-9.299 9.299-9.299c5.136 0 9.299 4.163 9.299 9.299v0c-0.063 5.11-4.189 9.236-9.293 9.299l-0.006 0zM16 8.565c-4.096 0-7.416 3.32-7.416 7.416s3.32 7.416 7.416 7.416c4.089 0 7.406-3.31 7.416-7.397v-0.001c-0.011-4.092-3.325-7.406-7.415-7.416h-0.001z"></path>
<path d="M11.652 16.941c-0.52 0-0.941-0.421-0.941-0.941v0c0-2.921 2.368-5.289 5.289-5.289v0c0.52 0 0.941 0.421 0.941 0.941s-0.421 0.941-0.941 0.941v0c-1.882 0-3.407 1.525-3.407 3.407v0c0 0.52-0.421 0.941-0.941 0.941v0z"></path>
<path d="M25.374 8.584h-1.675c-1.445 0-2.616-1.171-2.616-2.616s1.171-2.616 2.616-2.616v0h1.675c1.445 0 2.616 1.171 2.616 2.616s-1.171 2.616-2.616 2.616v0zM23.699 5.233c-0.405 0-0.734 0.329-0.734 0.734s0.329 0.734 0.734 0.734v0h1.675c0.405 0 0.734-0.329 0.734-0.734s-0.329-0.734-0.734-0.734v0z"></path>
</symbol>
</defs>
</svg>
