<?xml version="1.0" encoding="utf-8"?>
<!-- Generator: Adobe Illustrator 18.0.0, SVG Export Plug-In . SVG Version: 6.00 Build 0)  -->
<!DOCTYPE svg PUBLIC "-//W3C//DTD SVG 1.1//EN" "http://www.w3.org/Graphics/SVG/1.1/DTD/svg11.dtd">
<svg version="1.1" id="Layer_1" xmlns="http://www.w3.org/2000/svg" xmlns:xlink="http://www.w3.org/1999/xlink" x="0px" y="0px"
	 width="48px" height="24px" viewBox="-22.6 -34.3 48 24" enable-background="new -22.6 -34.3 48 24" xml:space="preserve">
<g>
	<polygon fill="#5A5A5A" points="19.4,-33.3 19.5,-33.3 19.5,-33 14.6,-23.2 9.1,-33.3 8.7,-33.3 2.5,-33.3 2.4,-33.3 2.5,-33.1 
		2.5,-10.3 8.5,-10.3 8.5,-21.4 11.2,-16.6 14.4,-10.5 17.8,-17.2 19.5,-20.4 19.5,-10.3 25.5,-10.3 25.5,-33.3 	"/>
	<rect x="1.5" y="-34.3" fill="#54B9E8" width="6.3" height="22.8"/>
	<rect x="18.2" y="-34.3" fill="#C81B35" width="6.3" height="22.8"/>
	<path fill="none" d="M13.5-24.2L8.1-34.3L13.5-24.2z"/>
	<polygon fill="none" points="13.5,-24.2 13.5,-24.2 13.5,-24.2 	"/>
	<polygon fill="none" points="18.4,-34.3 13.5,-24.2 13.5,-24.2 	"/>
	<polygon fill="#F1A034" points="18.4,-34.3 13.5,-24.2 16.7,-18.2 24.5,-34.3 	"/>
	<polygon fill="#C17A1C" points="13.5,-24.2 13.5,-24.2 10.3,-17.6 13.5,-11.5 16.7,-18.2 	"/>
	<polygon fill="#5A5A5A" points="8.1,-34.3 1.4,-34.3 10.3,-17.6 13.5,-24.2 	"/>
	<polygon points="8.1,-34.3 1.4,-34.3 10.3,-17.6 13.5,-24.2 	"/>
	<rect x="1.5" y="-34.3" opacity="0.5" fill="#54B9E8" enable-background="new    " width="6.3" height="22.8"/>
	<rect x="18.2" y="-34.3" opacity="0.5" fill="#C81B35" enable-background="new    " width="6.3" height="22.8"/>
</g>
<g>
	<polygon fill="#5A5A5A" points="-4.6,-33.3 -4.5,-33.3 -4.5,-33 -9.4,-23.2 -14.9,-33.3 -15.3,-33.3 -21.5,-33.3 -21.6,-33.3 
		-21.5,-33.1 -21.5,-10.3 -15.5,-10.3 -15.5,-21.4 -12.8,-16.6 -9.6,-10.5 -6.2,-17.2 -4.5,-20.4 -4.5,-10.3 1.5,-10.3 1.5,-33.3 	
		"/>
	<rect x="-22.5" y="-34.3" fill="#D6D6D6" width="6.3" height="22.8"/>
	<rect x="-5.8" y="-34.3" fill="#D6D6D6" width="6.3" height="22.8"/>
	<path fill="none" d="M-10.5-24.2l-5.4-10.1L-10.5-24.2z"/>
	<polygon fill="none" points="-10.5,-24.2 -10.5,-24.2 -10.5,-24.2 	"/>
	<polygon fill="none" points="-5.6,-34.3 -10.5,-24.2 -10.5,-24.2 	"/>
	<polygon fill="#939393" points="-5.6,-34.3 -10.5,-24.2 -7.3,-18.2 0.5,-34.3 	"/>
	<polygon fill="#D6D6D6" points="-10.5,-24.2 -10.5,-24.2 -13.7,-17.6 -10.5,-11.5 -7.3,-18.2 	"/>
	<polygon fill="#5A5A5A" points="-15.9,-34.3 -22.6,-34.3 -13.7,-17.6 -10.5,-24.2 	"/>
	<polygon points="-15.9,-34.3 -22.6,-34.3 -13.7,-17.6 -10.5,-24.2 	"/>
	<rect x="-22.5" y="-34.3" opacity="0.5" fill="#D6D6D6" enable-background="new    " width="6.3" height="22.8"/>
	<rect x="-5.8" y="-34.3" opacity="0.5" fill="#D6D6D6" enable-background="new    " width="6.3" height="22.8"/>
</g>
</svg>
