<svg enable-background="new -22.6 -34.3 48 24" height="24" viewBox="-22.6 -34.3 48 24" width="48" xmlns="http://www.w3.org/2000/svg"><path d="m19.4-33.3h.1v.3l-4.9 9.8-5.5-10.1h-.4-6.2-.1l.1.2v22.8h6v-11.1l2.7 4.8 3.2 6.1 3.4-6.7 1.7-3.2v10.1h6v-23z" fill="#5a5a5a"/><path d="m1.5-34.3h6.3v22.8h-6.3z" fill="#54b9e8"/><path d="m18.2-34.3h6.3v22.8h-6.3z" fill="#c81b35"/><g fill="none"><path d="m13.5-24.2l-5.4-10.1z"/><path d=""/><path d="m18.4-34.3l-4.9 10.1z"/></g><path d="m18.4-34.3l-4.9 10.1 3.2 6 7.8-16.1z" fill="#f1a034"/><path d="m13.5-24.2l-3.2 6.6 3.2 6.1 3.2-6.7z" fill="#c17a1c"/><path d="m8.1-34.3h-6.7l8.9 16.7 3.2-6.6z" fill="#5a5a5a"/><path d="m8.1-34.3h-6.7l8.9 16.7 3.2-6.6z"/><path d="m1.5-34.3h6.3v22.8h-6.3z" fill="#54b9e8" opacity=".5"/><path d="m18.2-34.3h6.3v22.8h-6.3z" fill="#c81b35" opacity=".5"/><path d="m-4.6-33.3h.1v.3l-4.9 9.8-5.5-10.1h-.4-6.2-.1l.1.2v22.8h6v-11.1l2.7 4.8 3.2 6.1 3.4-6.7 1.7-3.2v10.1h6v-23z" fill="#5a5a5a"/><g fill="#d6d6d6"><path d="m-22.5-34.3h6.3v22.8h-6.3z"/><path d="m-5.8-34.3h6.3v22.8h-6.3z"/></g><g fill="none"><path d="m-10.5-24.2l-5.4-10.1z"/><path d=""/><path d="m-5.6-34.3l-4.9 10.1z"/></g><path d="m-5.6-34.3l-4.9 10.1 3.2 6 7.8-16.1z" fill="#939393"/><path d="m-10.5-24.2l-3.2 6.6 3.2 6.1 3.2-6.7z" fill="#d6d6d6"/><path d="m-15.9-34.3h-6.7l8.9 16.7 3.2-6.6z" fill="#5a5a5a"/><path d="m-15.9-34.3h-6.7l8.9 16.7 3.2-6.6z"/><g fill="#d6d6d6"><path d="m-22.5-34.3h6.3v22.8h-6.3z" opacity=".5"/><path d="m-5.8-34.3h6.3v22.8h-6.3z" opacity=".5"/></g></svg>