<svg width="48" xmlns="http://www.w3.org/2000/svg" height="24" viewBox="-22.6 -34.3 48 24" xmlns:xlink="http://www.w3.org/1999/xlink" enable-background="new -22.6 -34.3 48 24"><path fill="#5a5a5a" d="m19.4-33.3 .1,0 0,.3-4.9,9.8-5.5-10.1-.4,0-6.2,0-.1,0 .1,.2 0,22.8 6,0 0-11.1 2.7,4.8 3.2,6.1 3.4-6.7 1.7-3.2 0,10.1 6,0 0-23z"/><path fill="#54b9e8" d="m1.5-34.3h6.3v22.8h-6.3z"/><path fill="#c81b35" d="m18.2-34.3h6.3v22.8h-6.3z"/><g fill="none"><path d="m13.5-24.2l-5.4-10.1 5.4,10.1z"/><path d="m13.5-24.2 0,0z"/><path d="m18.4-34.3-4.9,10.1z"/></g><path fill="#f1a034" d="m18.4-34.3-4.9,10.1 3.2,6 7.8-16.1z"/><path fill="#c17a1c" d="m13.5-24.2-3.2,6.6 3.2,6.1 3.2-6.7z"/><path fill="#5a5a5a" d="m8.1-34.3-6.7,0 8.9,16.7 3.2-6.6z"/><path d="m8.1-34.3-6.7,0 8.9,16.7 3.2-6.6z"/><path opacity=".5" fill="#54b9e8" d="m1.5-34.3h6.3v22.8h-6.3z"/><path opacity=".5" fill="#c81b35" d="m18.2-34.3h6.3v22.8h-6.3z"/><path fill="#5a5a5a" d="m-4.6-33.3 .1,0 0,.3-4.9,9.8-5.5-10.1-.4,0-6.2,0-.1,0 .1,.2 0,22.8 6,0 0-11.1 2.7,4.8 3.2,6.1 3.4-6.7 1.7-3.2 0,10.1 6,0 0-23z"/><g fill="#d6d6d6"><path d="m-22.5-34.3h6.3v22.8h-6.3z"/><path d="m-5.8-34.3h6.3v22.8h-6.3z"/></g><g fill="none"><path d="m-10.5-24.2l-5.4-10.1 5.4,10.1z"/><path d="m-10.5-24.2 0,0z"/><path d="m-5.6-34.3-4.9,10.1z"/></g><path fill="#939393" d="m-5.6-34.3-4.9,10.1 3.2,6 7.8-16.1z"/><path fill="#d6d6d6" d="m-10.5-24.2-3.2,6.6 3.2,6.1 3.2-6.7z"/><path fill="#5a5a5a" d="m-15.9-34.3-6.7,0 8.9,16.7 3.2-6.6z"/><path d="m-15.9-34.3-6.7,0 8.9,16.7 3.2-6.6z"/><g fill="#d6d6d6"><path opacity=".5" d="m-22.5-34.3h6.3v22.8h-6.3z"/><path opacity=".5" d="m-5.8-34.3h6.3v22.8h-6.3z"/></g></svg>