<svg xmlns="http://www.w3.org/2000/svg" viewBox="0 0 48 24" enable-background="new 0 0 48 24"><path fill="#939393" d="m23 16c0 1.7-1.3 3-3 3h-18.2c.5.6 1.3 1 2.2 1h9c3.1.7 4 2 3 4 3.3-1 5.1-2.3 5-4 1.7 0 3-1.3 3-3v-12.2c-.3.4-.7.8-1 1.2v10"/><path fill="#5a5a5a" d="m23 16v-10c-3.2 3.7-5 6.1-6.1 8-.2.4-.6.6-1.1.6-.4 0-.8-.2-1.1-.6-.2-.3-.5-.8-.7-1.1v-.1l-2.1-3.7.3-.6c.1-.3.5-.5.9-.5h.3l.2.1 2.1.9 6.4-6c.2-.2.5-.3.9-.4-.1-.4-.2-.9-.4-1.2-.6-.8-1.5-1.4-2.6-1.4h-17c-1.7 0-3 1.3-3 3v16h1.8 18.2c1.7 0 3-1.3 3-3"/><path fill="#fff" d="m3 18c-1.1 0-2-.9-2-2v-13c0-1.1.9-2 2-2h17c1.1 0 2 .9 2 2v13c0 1.1-.9 2-2 2h-17"/><path fill="#5a5a5a" d="m20 19c.1 1.7-1.7 3-5 4 1.1-2 .1-3.3-3-4h8"/><path fill="#939393" d="m23.2 2.6c.2 0 .4 0 .5.1-.3-.5-.7-1-1.2-1.3.2.4.4.8.4 1.2.1.1.2 0 .3 0"/><g fill="#5a5a5a"><path d="m13.1 9c.9.4 1.7.7 2.7 1.2.1 0 .1 0 .2 0 2.3-2.1 4.5-4.2 6.8-6.4.3-.3.9-.1.7.1-4.1 4.7-6.2 7.4-7.5 9.6-.1.2-.3.2-.5 0-.3-.5-.7-1.2-.7-1.2-.9-1.6-.9-1.7-1.8-3.2 0-.1 0-.1.1-.1"/><circle cx="7.1" cy="7.7" r="4"/><path d="m7.1 11.1c3.9 0 7.1 3.6 7.1 7.9h-14.2c0-4.4 3.2-7.9 7.1-7.9"/></g><g fill="#d6d6d6"><path d="m13.5 18c-.4-3-3-6.4-6.3-6.4s-6 3.4-6.4 6.4h12.7"/><circle cx="7.1" cy="7.7" r="3.2"/></g><path fill="#939393" d="m47 16c0 1.7-1.3 3-3 3h-18.2c.5.6 1.3 1 2.2 1h9c3.1.7 4 2 3 4 3.3-1 5.1-2.3 5-4 1.7 0 3-1.3 3-3v-12.2c-.3.4-.7.8-1 1.2v10"/><path fill="#5a5a5a" d="m47 16v-10c-3.2 3.7-5 6.1-6.1 8-.2.4-.6.6-1.1.6-.4 0-.8-.2-1.1-.6-.2-.3-.5-.8-.7-1.1v-.1l-2.1-3.7.3-.6c.1-.3.5-.5.9-.5h.3l.2.1 2.1.9 6.4-6c.2-.2.5-.3.9-.4-.1-.4-.2-.9-.4-1.2-.6-.8-1.5-1.4-2.6-1.4h-17c-1.7 0-3 1.3-3 3v16h1.8 18.2c1.7 0 3-1.3 3-3"/><path fill="#fff" d="m27 18c-1.1 0-2-.9-2-2v-13c0-1.1.9-2 2-2h17c1.1 0 2 .9 2 2v13c0 1.1-.9 2-2 2h-17"/><path fill="#5a5a5a" d="m44 19c.1 1.7-1.7 3-5 4 1.1-2 .1-3.3-3-4h8"/><path fill="#939393" d="m47.2 2.6c.2 0 .4 0 .5.1-.3-.5-.7-1-1.2-1.3.2.4.4.8.4 1.2.1.1.2 0 .3 0"/><path fill="#e74c3c" d="m37.1 9c.9.4 1.7.7 2.7 1.2.1 0 .1 0 .2 0 2.3-2.1 4.5-4.2 6.8-6.4.3-.3.9-.1.7.1-4.1 4.7-6.2 7.4-7.5 9.6-.1.2-.3.2-.5 0-.3-.5-.7-1.2-.7-1.2-.9-1.6-.9-1.7-1.8-3.2 0-.1 0-.1.1-.1"/><g fill="#5a5a5a"><circle cx="31.1" cy="7.7" r="4"/><path d="m31.1 11.1c3.9 0 7.1 3.6 7.1 7.9h-14.2c0-4.4 3.2-7.9 7.1-7.9"/></g><g fill="#e74c3c"><path d="m37.5 18c-.4-3-3-6.4-6.3-6.4s-6 3.4-6.3 6.4h12.6"/><circle cx="31.1" cy="7.7" r="3.2"/></g></svg>