<svg xmlns="http://www.w3.org/2000/svg" viewBox="0 0 48 24" enable-background="new 0 0 48 24"><g fill="#939393"><path d="m21 20h-17c-1.7 0-3-1.3-3-3v-13c0-1.7 1.3-3 3-3h17c1.7 0 3 1.3 3 3v13c0 1.7-1.3 3-3 3"/><path d="m21 20c.1 1.7-1.7 3-5 4 1.1-2 .1-3.3-3-4h8"/></g><path fill="#5a5a5a" d="m20 19h-20v-16c0-1.7 1.3-3 3-3h17c1.7 0 3 1.3 3 3v13c0 1.7-1.3 3-3 3"/><path fill="#fff" d="m3 18c-1.1 0-2-.9-2-2v-13c0-1.1.9-2 2-2h17c1.1 0 2 .9 2 2v13c0 1.1-.9 2-2 2h-17"/><g fill="#5a5a5a"><path d="m20 19c.1 1.7-1.7 3-5 4 1.1-2 .1-3.3-3-4h8"/><circle cx="8.1" cy="6.2" r="4.5"/><path d="m8.1 10c4.5 0 8.1 4 8.1 9h-16.2c0-5 3.6-9 8.1-9"/></g><g fill="#d6d6d6"><path d="M15.3,18c-0.4-4-3.5-7.2-7.2-7.2S1.3,14,0.9,18H15.3z"/><circle cx="8.1" cy="6.2" r="3.6"/></g><path fill="#5a5a5a" d="m16.5 13.1c0-.9.6-1.5 1.5-1.5.9 0 1.5.6 1.5 1.5 0 .9-.6 1.5-1.5 1.5-.9.1-1.5-.6-1.5-1.5m.5-3.1l-1-7h3.9l-1 7h-1.9"/><g fill="#939393"><path d="m45 20h-17c-1.7 0-3-1.3-3-3v-13c0-1.7 1.3-3 3-3h17c1.7 0 3 1.3 3 3v13c0 1.7-1.3 3-3 3"/><path d="m45 20c.1 1.7-1.7 3-5 4 1.1-2 .1-3.3-3-4h8"/></g><path fill="#5a5a5a" d="m44 19h-20v-16c0-1.7 1.3-3 3-3h17c1.7 0 3 1.3 3 3v13c0 1.7-1.3 3-3 3"/><path fill="#fff" d="m27 18c-1.1 0-2-.9-2-2v-13c0-1.1.9-2 2-2h17c1.1 0 2 .9 2 2v13c0 1.1-.9 2-2 2h-17"/><g fill="#5a5a5a"><path d="m44 19c.1 1.7-1.7 3-5 4 1.1-2 .1-3.3-3-4h8"/><circle cx="32.1" cy="6.2" r="4.5"/><path d="m32.1 10c4.5 0 8.1 4 8.1 9h-16.2c0-5 3.6-9 8.1-9"/></g><g fill="#e74c3c"><path d="m39.3 18c-.4-4-3.5-7.2-7.2-7.2-3.7 0-6.8 3.2-7.2 7.2h14.4"/><circle cx="32.1" cy="6.2" r="3.6"/><path d="m40.5 13.1c0-.9.6-1.5 1.5-1.5.9 0 1.5.6 1.5 1.5 0 .9-.6 1.5-1.5 1.5s-1.5-.6-1.5-1.5m.5-3.1l-1-7h3.9l-1 7h-1.9"/></g></svg>