<svg version="1.1" xmlns="http://www.w3.org/2000/svg" width="32" height="32" viewBox="0 0 32 32">
<path class="fill-active" d="M1.493 13.867c0.066 2.964 1.366 5.611 3.405 7.459l0.009 0.008-0.085 8.331 8.533-4.491c0.639 0.087 1.38 0.137 2.131 0.139h0.002c0.007 0 0.016 0 0.024 0 2.177 0 4.254-0.423 6.156-1.191l-0.11 0.039-1.909-1.589c-1.248 0.386-2.684 0.608-4.171 0.608h-0c-0.005 0-0.011 0-0.017 0-0.769 0-1.525-0.058-2.263-0.17l0.083 0.010h-0.341l-5.952 3.115 0.064-5.717-0.373-0.32c-1.812-1.497-2.979-3.72-3.050-6.217l-0-0.012c0-5.173 5.333-9.376 11.872-9.376s11.883 4.16 11.883 9.376c-0.011 1.543-0.471 2.977-1.256 4.179l0.018-0.030 1.653 1.376c1.067-1.547 1.708-3.461 1.717-5.523v-0.002c0-6.4-6.283-11.509-14.005-11.509s-14.016 5.109-14.016 11.509z"></path>
<path class="fill-active" d="M28.491 21.333c-0.071 0.451-0.257 0.85-0.526 1.178l0.003-0.004-1.984 2.347c-0.279 0.331-0.639 0.584-1.050 0.731l-0.017 0.005 1.397 1.163c0.294 0.247 0.676 0.397 1.094 0.397 0.529 0 1.001-0.24 1.314-0.618l0.002-0.003 1.365-1.643c0.247-0.294 0.397-0.676 0.397-1.094 0-0.529-0.24-1.001-0.618-1.314l-0.003-0.002z"></path>
<path class="fill-active" d="M16 10.933l-4.491-0.821h-0.117c-0.341 0-0.618 0.277-0.618 0.619 0 0.081 0.015 0.158 0.043 0.228l-0.001-0.004 1.632 4.267 11.797 9.813c0.428-0.152 0.788-0.405 1.064-0.732l0.003-0.004 1.973-2.368c0.266-0.323 0.451-0.722 0.521-1.159l0.002-0.014zM14.933 13.621c-0.353 0.474-0.859 0.817-1.444 0.957l-0.017 0.003-0.757-2.069c0.283-0.249 0.524-0.537 0.716-0.858l0.009-0.016 2.133 0.373c-0.018 0.621-0.258 1.183-0.642 1.613l0.002-0.002z"></path>
</svg>
