<svg enable-background="new 0 0 48 24" viewBox="0 0 48 24" xmlns="http://www.w3.org/2000/svg"><path d="m21.4 1h-16.8c-1.4 0-2.6 1.2-2.6 2.6v11.8c0 1.4 1.2 2.6 2.6 2.6h-.2c0 0 0 3.7-2.4 3.7 3.1 0 5.8-1.5 7.3-2.6l.1-2.1.1-1v-.3l.8-1.7.5-1 .5-1 .5-1 .5-1 .5-1 3.9-7.7 5.3 2.5 1 .5v.9l-1 2.2-3.9 8.6-.5 1-1 2.1-4.6 3.5v1.4l5-3.5 1.2-2.5h3.2c1.4 0 2.6-1.2 2.6-2.6v-11.8c0-1.4-1.2-2.6-2.6-2.6" fill="#939393"/><g fill="#5a5a5a"><path d="m22 14.6c0 .8-.6 1.4-1.4 1.4h-2.5l-.5 1h2.7c1.4 0 2.6-1.2 2.6-2.6v-9.2l-1 2.2v7.2z"/><path d="m20.4 0h-17.8c-1.4 0-2.6 1.2-2.6 2.6v11.8c0 1.4 1.2 2.6 2.6 2.6h-.2c0 0 .3 4-2.1 4 4.9 0 8.2-4 8.2-4h .8l.1-1h-7c-.8 0-1.4-.6-1.4-1.4v-12.2c0-.8.6-1.4 1.4-1.4h18.2c.8 0 1.4.6 1.4 1.4v1.4l1 .5v-1.7c0-1.4-1.2-2.6-2.6-2.6z"/></g><g fill="#d6d6d6"><path d="m22 14.6v-7.2l-3.9 8.6h2.5c.8 0 1.4-.6 1.4-1.4"/><path d="m10.3 14h-8.3v-1h8.8l.5-1h-9.3v-1h9.8l.5-1h-10.3v-1h10.8l3.9-7.7 5.3 2.5v-1.4c0-.8-.6-1.4-1.4-1.4h-18.2c-.8 0-1.4.6-1.4 1.4v12.2c0 .8.6 1.4 1.4 1.4h7v-.3zm-8.3-12h7v2h-7zm0 3h10v3h-10z"/></g><g fill="#5a5a5a"><path d="m2 2h7v2h-7z"/><path d="m2 5h10v3h-10z"/><path d="m2 10h10.3l.5-1h-10.8z"/><path d="m2 12h9.3l.5-1h-9.8z"/><path d="m2 14h8.3l.5-1h-8.8z"/><path d="m10.6 16.3l4.8 2.3 6.6-13.7-4.8-2.3zm7.2-11.9l2.4 1.2-.6 1.2-2.4-1.2z"/><path d="m10 23l5-3.6-4.8-2.3z"/></g><path d="m17.4 4.9h2.7v1.3h-2.7z" fill="#fff" transform="matrix(.9013 .4331 -.4331 .9013 4.263 -7.554)"/><path d="m45.4 1h-16.8c-1.4 0-2.6 1.2-2.6 2.6v11.8c0 1.4 1.2 2.6 2.6 2.6h-.2c0 0 0 3.7-2.4 3.7 3.1 0 5.8-1.5 7.3-2.6l.1-2.1.1-1v-.3l.8-1.7.5-1 .5-1 .5-1 .5-1 .5-1 3.9-7.7 5.3 2.5 1 .5v.9l-1 2.2-3.9 8.6-.5 1-1 2.1-4.6 3.5v1.4l5-3.5 1.2-2.5h3.2c1.4 0 2.6-1.2 2.6-2.6v-11.8c0-1.4-1.2-2.6-2.6-2.6" fill="#939393"/><g fill="#ac382e"><path d="m46 14.6c0 .8-.6 1.4-1.4 1.4h-2.5l-.5 1h2.7c1.4 0 2.6-1.2 2.6-2.6v-9.2l-1 2.2v7.2z"/><path d="m44.4 0h-17.8c-1.4 0-2.6 1.2-2.6 2.6v11.8c0 1.4 1.2 2.6 2.6 2.6h-.2c0 0 .3 4-2.1 4 4.9 0 8.2-4 8.2-4h .8l.1-1h-7c-.8 0-1.4-.6-1.4-1.4v-12.2c0-.8.6-1.4 1.4-1.4h18.2c.8 0 1.4.6 1.4 1.4v1.4l1 .5v-1.7c0-1.4-1.2-2.6-2.6-2.6"/></g><g fill="#fff"><path d="m46 14.6v-7.2l-3.9 8.6h2.5c.8 0 1.4-.6 1.4-1.4"/><path d="m34.3 14h-8.3v-1h8.8l.5-1h-9.3v-1h9.8l.5-1h-10.3v-1h10.8l3.9-7.7 5.3 2.5v-1.4c0-.8-.6-1.4-1.4-1.4h-18.2c-.8 0-1.4.6-1.4 1.4v12.2c0 .8.6 1.4 1.4 1.4h7v-.3zm-8.3-12h7v2h-7zm0 3h10v3h-10z"/></g><g fill="#e74c3c"><path d="m26 2h7v2h-7z"/><path d="m26 5h10v3h-10z"/><path d="m26 10h10.3l.5-1h-10.8z"/><path d="m26 12h9.3l.5-1h-9.8z"/><path d="m26 14h8.3l.5-1h-8.8z"/><path d="m34.6 16.3l4.8 2.3 6.6-13.7-4.8-2.3zm7.2-11.9l2.4 1.2-.6 1.2-2.4-1.2z"/><path d="m34 23l5-3.6-4.8-2.3z"/></g><path d="m41.4 4.9h2.7v1.3h-2.7z" fill="#fff" transform="matrix(.9013 .4331 -.4331 .9013 6.631 -17.95)"/></svg>