<svg version="1.1" xmlns="http://www.w3.org/2000/svg" width="32" height="32" viewBox="0 0 32 32">
<path class="fill-active" d="M27.2 22.4c1.178 0 2.133-0.955 2.133-2.133v0-14.933c0-1.178-0.955-2.133-2.133-2.133v0h-22.4c-1.178 0-2.133 0.955-2.133 2.133v0 14.933c0 1.178 0.955 2.133 2.133 2.133v0h10.496c1.688 3.797 5.425 6.398 9.77 6.4h1.334s-4.267-2.816-3.456-6.4zM5.749 20.267c-0.524 0-0.949-0.425-0.949-0.949v0-13.035c0-0.524 0.425-0.949 0.949-0.949v0h20.501c0.524 0 0.949 0.425 0.949 0.949v0 13.035c0 0.524-0.425 0.949-0.949 0.949v0z"></path>
<path class="fill-active" d="M24.533 7.467h-17.067c-0.589 0-1.067 0.478-1.067 1.067s0.478 1.067 1.067 1.067v0h17.067c0.589 0 1.067-0.478 1.067-1.067s-0.478-1.067-1.067-1.067v0z"></path>
<path class="fill-active" d="M24.533 11.733h-17.067c-0.589 0-1.067 0.478-1.067 1.067s0.478 1.067 1.067 1.067v0h17.067c0.589 0 1.067-0.478 1.067-1.067s-0.478-1.067-1.067-1.067v0z"></path>
<path class="fill-active" d="M24.533 16h-9.6c-0.589 0-1.067 0.478-1.067 1.067s0.478 1.067 1.067 1.067v0h9.6c0.589 0 1.067-0.478 1.067-1.067s-0.478-1.067-1.067-1.067v0z"></path>
</svg>
