<svg xmlns="http://www.w3.org/2000/svg" viewBox="0 0 48 24" enable-background="new 0 0 48 24"><g fill="#939393"><path d="m24 24h-16v-23h12.3l3.7 4.1z"/><path d="M19,16.9c0,1.2-1,2.1-2.1,2.1H3.1C2,19,1,18,1,16.9v-6.7C1,9,2,8,3.1,8h13.7C18,8,19,9,19,10.1V16.9z"/></g><path fill="#5a5a5a" d="m23 23h-16v-23h12.3l3.7 4.1z"/><path fill="#fff" d="m8 22v-21h10.4l3.6 4v17z"/><path fill="#d6d6d6" d="m22 5v1h-4v-5h.5z"/><path fill="none" stroke="#5a5a5a" stroke-miterlimit="10" d="m17.5 1v4.5h5.5"/><path fill="#5a5a5a" d="M18,15.9c0,1.2-1,2.1-2.1,2.1H2.1C1,18,0,17,0,15.9V9.1C0,8,1,7,2.1,7h13.7C17,7,18,8,18,9.1V15.9z"/><path fill="#fff" d="m17 15.9c0 .6-.5 1.1-1.1 1.1h-13.8c-.6 0-1.1-.5-1.1-1.1v-6.8c0-.6.5-1.1 1.1-1.1h13.7c.7 0 1.2.5 1.2 1.1v6.8"/><g fill="#939393"><path d="m18 9h3v3h-3z"/><path d="m18 14h3v3h-3z"/></g><path fill="#5a5a5a" d="m16 18s0 3 2 3c-4 0-7-3-7-3h5"/><g fill="#939393"><path d="m9 2h7v3h-7z"/><path d="m3 9h12v1h-12z"/><path d="m3 11h12v1h-12z"/><path d="m3 13h12v1h-12z"/><path d="m5 15h8v1h-8z"/><path d="m48 24h-16v-23h12.3l3.7 4.1z"/><path d="m43 16.9c0 1.2-1 2.1-2.1 2.1h-13.8c-1.1 0-2.1-1-2.1-2.1v-6.7c0-1.2 1-2.2 2.1-2.2h13.7c1.2 0 2.2 1 2.2 2.1v6.8"/></g><path fill="#e74c3c" d="m47 23h-16v-23h12.3l3.7 4.1z"/><path fill="#fff" d="m32 22v-21h10.4l3.6 4v17z"/><path fill="#d6d6d6" d="m46 5h-4v-4h.5z"/><path fill="none" stroke="#e74c3c" stroke-miterlimit="10" d="m41.5 1v4.5h5.5"/><path fill="#e74c3c" d="M42,15.9c0,1.2-1,2.1-2.1,2.1H26.1C25,18,24,17,24,15.9V9.1C24,8,25,7,26.1,7h13.7C41,7,42,8,42,9.1V15.9
				z"/><path fill="#fff" d="m41 15.9c0 .6-.5 1.1-1.1 1.1h-13.8c-.6 0-1.1-.5-1.1-1.1v-6.8c0-.6.5-1.1 1.1-1.1h13.7c.7 0 1.2.5 1.2 1.1v6.8"/><g fill="#5a5a5a"><path d="m42 9h3v3h-3z"/><path d="m42 14h3v3h-3z"/></g><path fill="#e74c3c" d="m40 18s0 3 2 3c-4 0-7-3-7-3h5"/><path fill="#5a5a5a" d="m33 2h7v3h-7z"/><g fill="#ac382e"><path d="m27 9h12v1h-12z"/><path d="m27 11h12v1h-12z"/><path d="m27 13h12v1h-12z"/><path d="m29 15h8v1h-8z"/></g></svg>