<svg version="1.1" xmlns="http://www.w3.org/2000/svg" width="32" height="32" viewBox="0 0 32 32">
<path class="fill-active" d="M16 2.315c-7.723 0-14.005 5.152-14.005 11.552 0.066 2.964 1.366 5.611 3.405 7.459l0.009 0.008-0.075 8.352 8.533-4.491c0.639 0.087 1.38 0.137 2.131 0.139h0.002c7.723 0 14.005-5.163 14.005-11.509s-6.283-11.509-14.005-11.509zM16 23.211c-0.005 0-0.011 0-0.017 0-0.769 0-1.525-0.058-2.263-0.17l0.083 0.010h-0.341l-5.995 3.083 0.064-5.717-0.373-0.32c-1.804-1.5-2.963-3.723-3.029-6.218l-0-0.011c0-5.173 5.333-9.376 11.872-9.376s11.872 4.16 11.872 9.376-5.323 9.333-11.872 9.333z"></path>
<path class="fill-active" d="M20.053 11.797l1.205-1.131-1.312-1.323-1.067 1.184c-0.587-0.352-1.813-0.587-1.813-0.704v-1.643h-2.133v1.707c0 0.149-1.12 0.427-1.621 0.8l-1.28-1.323-1.291 1.301 1.408 1.312c-0.277 0.491-0.469 1.515-0.555 1.515h-1.995v2.133h2.133c0.139 0 0.341 0.96 0.64 1.397l-1.568 1.536 1.312 1.301 1.515-1.589c0.427 0.277 1.355 0.48 1.355 0.597v2.133h2.133v-2.027c0-0.096 0.992-0.288 1.461-0.555l1.44 1.472 1.291-1.312-1.408-1.344c0.363-0.48 0.619-1.568 0.768-1.568h1.728v-2.133h-1.675c-0.096-0.021-0.32-1.205-0.672-1.739zM16.16 17.557c-1.767 0-3.2-1.433-3.2-3.2s1.433-3.2 3.2-3.2c1.767 0 3.2 1.433 3.2 3.2v0c0 1.767-1.433 3.2-3.2 3.2v0z"></path>
</svg>
