<svg xmlns="http://www.w3.org/2000/svg" viewBox="0 0 48 24" enable-background="new 0 0 48 24"><path fill="#939393" d="m24 3.6c0-1.4-1.2-2.6-2.6-2.6h-17.8c-1.4 0-2.6 1.2-2.6 2.6v11.8c0 1.4 1.2 2.6 2.6 2.6h-.2c0 0 0 3.7-2.4 3.7 2.7 0 5-1.1 6.6-2.1.4.4 1 .7 1.7.7.1 0 .2 0 .4 0 .3 0 .6-.1.9-.1.2 0 .4-.1.6-.1-.1.4-.1.7-.2 1.1v.2c0 .3-.1.6 0 .9.1 1 .7 1.5 1.2 1.7.2.1.5.1.7.1.4 0 .8-.2 1.2-.4h.1c.2-.2.4-.4.6-.6.2-.3.4-.6.6-.8l.2-.3.7.9c.1.1.1.1.2.2.3.3.6.6.9.8.3.2.7.3 1 .3.2 0 .3 0 .5-.1.6-.2 1.1-.7 1.3-1.3.1-.5.1-1 .1-1.3 0-.3-.1-.6-.1-1 0-.1 0-.3-.1-.4 0 0 0 0 .1 0 .6 0 1.3.2 1.9.2h.3c.7 0 1.2-.4 1.5-.9.3-.6.3-1.3 0-1.9-.1-.1-.2-.3-.3-.4.3-.4.5-1 .5-1.6v-11.9z"/><path fill="#5a5a5a" d="M23,2.6C23,1.2,21.8,0,20.4,0H2.6C1.2,0,0,1.2,0,2.6v11.8C0,15.8,1.2,17,2.6,17h17.8
				c1.4,0,2.6-1.2,2.6-2.6V2.6z"/><path fill="#d6d6d6" d="m22 2.4c0-.8-.6-1.4-1.4-1.4h-18.2c-.8 0-1.4.6-1.4 1.4v12.2c0 .8.6 1.4 1.4 1.4h18.2c.8 0 1.4-.6 1.4-1.4v-12.2"/><g fill="#5a5a5a"><path d="m2.4 17s0 3.7-2.4 3.7c4.9 0 8.6-3.7 8.6-3.7h-6.2"/><path d="m2 2h7v2h-7z"/><path d="m2 5h10v3h-10z"/><path d="m2 9h10v1h-10z"/><path d="m2 11h10v1h-10z"/><path d="m2 13h8v1h-8z"/></g><path fill="#d6d6d6" d="m17.3 23c-.4 0-.7-.1-1-.3-.3-.2-.6-.4-.9-.8-.1-.1-.1-.2-.2-.2l-.7-.9-.1.2c-.2.3-.4.6-.6.8-.2.2-.4.4-.6.6h-.1c-.4.3-.8.4-1.2.4-.2 0-.5 0-.7-.1-.5-.2-1.1-.6-1.2-1.7 0-.3 0-.6 0-.9v-.2c0-.3.1-.7.2-1.1-.2.2-.4.2-.6.3-.3 0-.6.1-.9.1-.2 0-.3 0-.4 0-1 0-1.7-.4-2-1.2-.2-.4-.4-1.5.9-2.5.4-.3.8-.6 1.2-.9-.1-.1-.2-.1-.2-.2-.2-.2-.4-.3-.6-.5 0 0-.2-.2-.3-.2-.4-.3-.7-.7-.9-1-.3-.5-.3-1.2 0-1.7.3-.5.8-.9 1.4-1 .2 0 .3 0 .5 0 .2 0 .4 0 .6 0 .4 0 .9.1 1.4.2-.2-.4-.3-.9-.3-1.3 0-.3-.1-.6 0-.9.1-1.1.8-1.5 1.2-1.7.2-.1.5-.2.7-.2.5 0 1 .2 1.4.6.5.5.9 1 1.3 1.6l.2-.3c.2-.3.4-.5.6-.8.2-.3.5-.6.8-.8.3-.2.7-.3 1-.3.7 0 1.4.4 1.8 1.1l.1.2v.5c0 .3 0 .5 0 .8 0 .3-.1.6-.1.8 0 .2-.1.4-.1.6.2 0 .3 0 .5-.1.3 0 .6-.1.9-.1h.2c.2 0 .9 0 1.1.1.6.2 1.1.6 1.3 1.1.2.6.2 1.2-.2 1.7-.2.4-.6.7-.9.9-.2.2-.4.3-.6.5-.1.1-.3.2-.4.3 0 0 0 .1.2.1.4.2.8.5 1.1.8.3.3.5.5.7.8.3.6.3 1.3 0 1.9-.3.5-.9.9-1.5.9h-.3c-.7 0-1.3-.2-1.9-.2 0 0 0 0-.1 0 0 .1 0 .3.1.4 0 .3.1.6.1 1 0 .3.1.8-.1 1.3-.2.6-.6 1.1-1.3 1.3-.1.2-.3.2-.5.2"/><path fill="#5a5a5a" d="m18.2 21.4c.1-.3.1-.6 0-.9 0-.5-.1-1-.2-1.5 0-.1 0-.3.1-.4.3-.4.6-.7 1.2-.5.6.1 1.3.2 1.9.2.8 0 1.1-.7.7-1.4-.1-.2-.3-.4-.5-.5-.3-.3-.6-.5-1-.7-.5-.3-.7-.7-.6-1.2 0-.1.1-.3.2-.4.4-.3.8-.6 1.1-.9.3-.2.5-.4.7-.7.3-.5.1-1.2-.5-1.4-.1 0-.7-.1-.9 0-.5 0-1 .1-1.6.2-.1 0-.3-.1-.4-.1-.1-.1-.2-.2-.3-.3-.1-.1-.2-.3-.2-.5 0-.5.1-1 .2-1.6 0-.3 0-.7 0-1-.3-.5-.9-.8-1.4-.4-.2.2-.4.4-.6.6-.3.4-.6.8-.9 1.1-.3.5-1.1.4-1.4 0-.4-.5-.8-1.1-1.3-1.6-.3-.3-.7-.4-1.1-.2-.4.2-.6.5-.6.9 0 .2 0 .4 0 .6.1.5.1 1 .2 1.6 0 .2-.1.4-.2.5-.3.4-.6.4-1 .3-.3-.2-.7-.2-1.1-.3-.3 0-.5 0-.8 0-.6.1-1 .7-.7 1.3.2.3.4.5.6.7.1.1.2.1.2.2.4.3.7.5 1.1.8.1.1.1.2.2.3.1.3 0 .7-.2.8-.5.4-.9.7-1.4 1.1-.6.5-.8 1-.6 1.4.2.5.7.7 1.4.6 0 0 0 0 .1 0 .6-.1 1.1-.2 1.7-.2.1 0 .3 0 .4.1.3.3.6.5.4 1 0 0 0 .1 0 .1-.1.5-.1.9-.2 1.3 0 .2-.1.5 0 .7.1.4.2.7.6.9.4.1.7 0 1-.2.2-.1.3-.3.5-.5.3-.4.6-.8.9-1.3.3-.3 1-.3 1.2 0 .2.3.5.6.7 1 .1.1.2.2.2.3.2.2.4.4.6.6.2.2.5.2.8.1.4-.1.7-.3.8-.6m-5.6-6c-.5-1.1 0-2.4 1.2-2.9 1.1-.5 2.4 0 2.9 1.2.5 1.1-.1 2.4-1.2 2.9-1.2.4-2.4-.1-2.9-1.2"/><path fill="#939393" d="m48 3.6c0-1.4-1.2-2.6-2.6-2.6h-17.8c-1.4 0-2.6 1.2-2.6 2.6v11.8c0 1.4 1.2 2.6 2.6 2.6h-.2c0 0 0 3.7-2.4 3.7 2.7 0 5-1.1 6.6-2.1.4.4 1 .7 1.7.7.1 0 .2 0 .4 0 .3 0 .6-.1.9-.1.2 0 .4-.1.6-.1-.1.4-.1.7-.2 1.1v.2c0 .3-.1.6 0 .9.1 1 .7 1.5 1.2 1.7.2.1.5.1.7.1.4 0 .8-.2 1.2-.4h.1c.2-.2.4-.4.6-.6.2-.3.4-.6.6-.8l.2-.3.7.9c.1.1.1.1.2.2.3.3.6.6.9.8.3.2.7.3 1 .3.2 0 .3 0 .5-.1.6-.2 1.1-.7 1.3-1.3.1-.5.1-1 .1-1.3 0-.3-.1-.6-.1-1 0-.1 0-.3-.1-.4 0 0 0 0 .1 0 .6 0 1.3.2 1.9.2h.3c.7 0 1.2-.4 1.5-.9.3-.6.3-1.3 0-1.9-.1-.1-.2-.3-.3-.4.3-.4.5-1 .5-1.6v-11.9z"/><path fill="#ac382e" d="M47,2.6C47,1.2,45.8,0,44.4,0H26.6C25.2,0,24,1.2,24,2.6v11.8c0,1.4,1.2,2.6,2.6,2.6h17.8
			c1.4,0,2.6-1.2,2.6-2.6V2.6z"/><path fill="#fff" d="m46 2.4c0-.8-.6-1.4-1.4-1.4h-18.2c-.8 0-1.4.6-1.4 1.4v12.2c0 .8.6 1.4 1.4 1.4h18.2c.8 0 1.4-.6 1.4-1.4v-12.2"/><path fill="#ac382e" d="m26.4 17s0 3.7-2.4 3.7c4.9 0 8.6-3.7 8.6-3.7h-6.2"/><g fill="#e74c3c"><path d="m26 2h7v2h-7z"/><path d="m26 5h10v3h-10z"/><path d="m26 9h10v1h-10z"/><path d="m26 11h10v1h-10z"/><path d="m26 13h8v1h-8z"/></g><path fill="#fff" d="m41.3 23c-.4 0-.7-.1-1-.3-.3-.2-.6-.4-.9-.8-.1-.1-.1-.2-.2-.2l-.7-.9-.1.2c-.2.3-.4.6-.6.8-.2.2-.4.4-.6.6h-.1c-.4.3-.8.4-1.2.4-.2 0-.5 0-.7-.1-.5-.2-1.1-.6-1.2-1.7 0-.3 0-.6 0-.9v-.2c0-.3.1-.7.2-1.1-.2 0-.4.1-.6.1-.3 0-.6.1-.9.1-.2 0-.3 0-.4 0-1 0-1.7-.4-2-1.2-.2-.4-.4-1.5.9-2.5.4-.3.8-.6 1.2-.9-.1-.1-.2-.1-.2-.2-.2-.2-.4-.3-.6-.5 0 0-.2-.2-.3-.2-.4-.3-.7-.7-.9-1-.3-.5-.3-1.2 0-1.7.3-.5.8-.9 1.4-1 .2 0 .3 0 .5 0 .2 0 .4 0 .6 0 .4 0 .9.1 1.4.2-.2-.2-.3-.7-.3-1.1 0-.3-.1-.6 0-.9.1-1.1.8-1.5 1.2-1.7.2-.1.5-.2.7-.2.5 0 1 .2 1.4.6.5.5.9 1 1.3 1.6l.2-.3c.2-.3.4-.5.6-.8.2-.3.5-.6.8-.8.3-.2.7-.3 1-.3.7 0 1.4.4 1.8 1.1l.1.2v.5c0 .3 0 .5 0 .8 0 .3-.1.6-.1.8 0 .2-.1.4-.1.6.2 0 .3 0 .5-.1.3 0 .6-.1.9-.1h.2c.2 0 .9 0 1.1.1.6.2 1.1.6 1.3 1.1.2.6.2 1.2-.2 1.7-.2.4-.6.7-.9.9-.2.2-.4.3-.6.5-.1.1-.3.2-.4.3 0 0 0 .1.2.1.4.2.8.5 1.1.8.3.3.5.5.7.8.3.6.3 1.3 0 1.9-.3.5-.9.9-1.5.9h-.3c-.7 0-1.3-.2-1.9-.2 0 0 0 0-.1 0 0 .1 0 .3.1.4 0 .3.1.6.1 1 0 .3.1.8-.1 1.3-.2.6-.6 1.1-1.3 1.3-.1.2-.3.2-.5.2"/><path fill="#e74c3c" d="m42.2 21.4c.1-.3.1-.6 0-.9 0-.5-.1-1-.2-1.5 0-.1 0-.3.1-.4.3-.4.6-.7 1.2-.5.6.1 1.3.2 1.9.2.8 0 1.1-.7.7-1.4-.1-.2-.3-.4-.5-.5-.3-.3-.6-.5-1-.7-.5-.3-.7-.7-.6-1.2 0-.1.1-.3.2-.4.4-.3.8-.6 1.1-.9.3-.2.5-.4.7-.7.3-.5.1-1.2-.5-1.4-.1 0-.7-.1-.9 0-.5 0-1 .1-1.6.2-.1 0-.3-.1-.4-.1-.1-.1-.2-.2-.3-.3-.1-.1-.2-.3-.2-.5 0-.5.1-1 .2-1.6 0-.3 0-.7 0-1-.3-.5-.9-.8-1.4-.4-.2.2-.4.4-.6.6-.3.4-.6.8-.9 1.1-.3.5-1.1.4-1.4 0-.4-.5-.8-1.1-1.3-1.6-.3-.3-.7-.4-1.1-.2-.4.2-.6.5-.6.9 0 .2 0 .4 0 .6.1.5.1 1 .2 1.6 0 .2-.1.4-.2.5-.3.4-.6.4-1 .3-.4-.1-.8-.1-1.2-.2-.3 0-.5 0-.8 0-.6.1-1 .7-.7 1.3.2.3.4.5.6.7.1.1.2.1.2.2.4.3.7.5 1.1.8.1.1.1.2.2.3.1.3 0 .7-.2.8-.5.4-.9.7-1.4 1.1-.6.5-.8 1-.6 1.4.2.5.7.7 1.4.6 0 0 0 0 .1 0 .6-.1 1.1-.2 1.7-.2.1 0 .3 0 .4.1.3.3.6.5.4 1 0 0 0 .1 0 .1 0 .4 0 .8-.1 1.2 0 .2-.1.5 0 .7.1.4.2.7.6.9.4.1.7 0 1-.2.2-.1.3-.3.5-.5.3-.4.6-.8.9-1.3.3-.3 1-.3 1.2 0 .2.3.5.6.7 1 .1.1.2.2.2.3.2.2.4.4.6.6.2.2.5.2.8.1.4-.1.7-.3.8-.6m-5.6-6c-.5-1.1 0-2.4 1.2-2.9 1.1-.5 2.4 0 2.9 1.2.5 1.1-.1 2.4-1.2 2.9-1.2.4-2.4-.1-2.9-1.2"/></svg>