<svg id="svg2" height="24" viewBox="0 0 48 24" width="48" xmlns="http://www.w3.org/2000/svg" xmlns:xlink="http://www.w3.org/1999/xlink"><defs id="defs4"><linearGradient id="linear-gradient" gradientUnits="userSpaceOnUse" x1="1.19" x2="20.81" y1="1.19" y2="20.81"><stop id="stop3506" offset="0" stop-color="#f9ad29"/><stop id="stop3508" offset="1" stop-color="#f33432"/></linearGradient></defs><g id="layer1" transform="translate(0 -1028.3622)"><g id="Layer_1-2" transform="translate(0 1028.3622)"><rect id="rect3468" fill="#939393" height="21.629999" rx="4" width="21.629999" x="2.3699999" y="2.3699999"/><rect id="rect3470" fill="url(#linear-gradient)" height="22" rx="4.0700002" width="22"/><path id="path3472" d="m3.5 6.38h12.06v2.37h-13.31v-1.13a1.25 1.25 0 0 1 1.25-1.24z" fill="#5a5a5a"/><path id="polygon3474" d="m20.42 6.38h-4.4v2.37h2.3z" fill="#5a5a5a"/><path id="rect3476" d="m9.3999996 9.3800001h9.1700001v3.1600001h-9.1700001z" fill="#5a5a5a" transform="matrix(0 1 -1 0 24.94 -3.02)"/><path id="path3478" d="m .55 10.73h6.51v1.87" fill="#5a5a5a" transform="matrix(0 1 -1 0 16.1 8.48)"/><path id="path3480" d="m7.12 10.73h5.26a1.25 1.25 0 0 1 1.25 1.27v1.87h-6.51z" fill="#5a5a5a" transform="matrix(0 1 -1 0 22.66 1.92)"/><path id="rect3482" d="m4.3099999 13.16h5.5700002v2.3900001h-5.5700002z" fill="#5a5a5a" transform="matrix(-1 0 0 -1 14.18 28.7)"/></g><g id="Layer_1-2-6" transform="translate(24.000001 1028.3622)"><rect id="rect3514" fill="#939393" height="21.629999" rx="4" width="21.629999" x="2.3699999" y="2.3699999"/><rect id="rect3516" fill="url(#linear-gradient)" height="22" rx="4.0700002" width="22"/><path id="path3518" d="m3.5 6.38h12.06v2.37h-13.31v-1.13a1.25 1.25 0 0 1 1.25-1.24z" fill="#fff"/><path id="polygon3520" d="m20.42 6.38h-4.4v2.37h2.3z" fill="#fff"/><path id="rect3522" d="m9.3999996 9.3800001h9.1700001v3.1600001h-9.1700001z" fill="#fff" transform="matrix(0 1 -1 0 24.94 -3.02)"/><path id="path3524" d="m .55 10.73h6.51v1.87" fill="#fff" transform="matrix(0 1 -1 0 16.1 8.48)"/><path id="path3526" d="m7.12 10.73h5.26a1.25 1.25 0 0 1 1.25 1.27v1.87h-6.51z" fill="#fff" transform="matrix(0 1 -1 0 22.66 1.92)"/><path id="rect3528" d="m4.3099999 13.16h5.5700002v2.3900001h-5.5700002z" fill="#fff" transform="matrix(-1 0 0 -1 14.18 28.7)"/></g></g></svg>