<?xml version="1.0" encoding="UTF-8" standalone="no"?>
<svg
   xmlns:dc="http://purl.org/dc/elements/1.1/"
   xmlns:cc="http://creativecommons.org/ns#"
   xmlns:rdf="http://www.w3.org/1999/02/22-rdf-syntax-ns#"
   xmlns:svg="http://www.w3.org/2000/svg"
   xmlns="http://www.w3.org/2000/svg"
   version="1.1"
   id="svg2"
   viewBox="0 0 48 24"
   height="24"
   width="48">
  <defs
     id="defs4">
    <style
       id="style3462">.cls-1{fill:#939393;}.cls-2{fill:#d6d6d6;}.cls-3{fill:#5a5a5a;}</style>
    <style
       id="style3503">.cls-1{fill:#939393;}.cls-2{fill:url(#linear-gradient);}.cls-3{fill:#fff;}</style>
    <linearGradient
       id="linear-gradient"
       x1="1.19"
       y1="1.19"
       x2="20.81"
       y2="20.81"
       gradientUnits="userSpaceOnUse">
      <stop
         offset="0"
         stop-color="#f9ad29"
         id="stop3506" />
      <stop
         offset="1"
         stop-color="#f33432"
         id="stop3508" />
    </linearGradient>
  </defs>
  <metadata
     id="metadata7">
    <rdf:RDF>
      <cc:Work
         rdf:about="">
        <dc:format>image/svg+xml</dc:format>
        <dc:type
           rdf:resource="http://purl.org/dc/dcmitype/StillImage" />
        <dc:title></dc:title>
      </cc:Work>
    </rdf:RDF>
  </metadata>
  <g
     transform="translate(0,-1028.3622)"
     id="layer1">
    <g
       transform="translate(0,1028.3622)"
       id="Layer_2"
       data-name="Layer 2">
      <g
         id="Layer_1-2"
         data-name="Layer 1">
        <rect
           style="fill:#939393"
           class="cls-1"
           x="2.3699999"
           y="2.3699999"
           width="21.629999"
           height="21.629999"
           rx="4"
           ry="4"
           id="rect3468" />
        <rect
           style="fill:#d6d6d6"
           y="0"
           x="0"
           class="cls-2"
           width="22"
           height="22"
           rx="4.0700002"
           ry="4.0700002"
           id="rect3470" />
        <path
           style="fill:#5a5a5a"
           class="cls-3"
           d="m 3.5,6.38 12.06,0 0,2.37 -13.31,0 0,-1.13 A 1.25,1.25 0 0 1 3.5,6.38 Z"
           id="path3472" />
        <polygon
           style="fill:#5a5a5a"
           class="cls-3"
           points="20.42,6.38 16.02,6.38 16.02,8.75 18.32,8.75 20.42,6.38 "
           id="polygon3474" />
        <rect
           style="fill:#5a5a5a"
           class="cls-3"
           x="9.3999996"
           y="9.3800001"
           width="9.1700001"
           height="3.1600001"
           transform="matrix(0,1,-1,0,24.94,-3.02)"
           id="rect3476" />
        <path
           style="fill:#5a5a5a"
           class="cls-3"
           d="m 0.55,10.73 6.51,0 0,1.87"
           transform="matrix(0,1,-1,0,16.1,8.48)"
           id="path3478" />
        <path
           style="fill:#5a5a5a"
           class="cls-3"
           d="m 7.12,10.73 5.26,0 A 1.25,1.25 0 0 1 13.63,12 l 0,1.87 -6.51,0 0,-3.14 z"
           transform="matrix(0,1,-1,0,22.66,1.92)"
           id="path3480" />
        <rect
           style="fill:#5a5a5a"
           class="cls-3"
           x="4.3099999"
           y="13.16"
           width="5.5700002"
           height="2.3900001"
           transform="matrix(-1,0,0,-1,14.18,28.7)"
           id="rect3482" />
      </g>
    </g>
    <g
       transform="translate(24.000001,1028.3622)"
       id="Layer_2-3"
       data-name="Layer 2">
      <g
         id="Layer_1-2-6"
         data-name="Layer 1">
        <rect
           style="fill:#939393"
           class="cls-1"
           x="2.3699999"
           y="2.3699999"
           width="21.629999"
           height="21.629999"
           rx="4"
           ry="4"
           id="rect3514" />
        <rect
           style="fill:url(#linear-gradient)"
           y="0"
           x="0"
           class="cls-2"
           width="22"
           height="22"
           rx="4.0700002"
           ry="4.0700002"
           id="rect3516" />
        <path
           style="fill:#ffffff"
           class="cls-3"
           d="m 3.5,6.38 12.06,0 0,2.37 -13.31,0 0,-1.13 A 1.25,1.25 0 0 1 3.5,6.38 Z"
           id="path3518" />
        <polygon
           style="fill:#ffffff"
           class="cls-3"
           points="20.42,6.38 16.02,6.38 16.02,8.75 18.32,8.75 20.42,6.38 "
           id="polygon3520" />
        <rect
           style="fill:#ffffff"
           class="cls-3"
           x="9.3999996"
           y="9.3800001"
           width="9.1700001"
           height="3.1600001"
           transform="matrix(0,1,-1,0,24.94,-3.02)"
           id="rect3522" />
        <path
           style="fill:#ffffff"
           class="cls-3"
           d="m 0.55,10.73 6.51,0 0,1.87"
           transform="matrix(0,1,-1,0,16.1,8.48)"
           id="path3524" />
        <path
           style="fill:#ffffff"
           class="cls-3"
           d="m 7.12,10.73 5.26,0 A 1.25,1.25 0 0 1 13.63,12 l 0,1.87 -6.51,0 0,-3.14 z"
           transform="matrix(0,1,-1,0,22.66,1.92)"
           id="path3526" />
        <rect
           style="fill:#ffffff"
           class="cls-3"
           x="4.3099999"
           y="13.16"
           width="5.5700002"
           height="2.3900001"
           transform="matrix(-1,0,0,-1,14.18,28.7)"
           id="rect3528" />
      </g>
    </g>
  </g>
</svg>
