<svg xmlns="http://www.w3.org/2000/svg" viewBox="0 0 48 24" enable-background="new 0 0 48 24"><path fill="#939393" d="m24 14.1c0-2-1.6-3.5-3.5-3.5-1.7 0-3.2 1.2-3.5 2.9-.7-.4-1.4-.8-2.2-1 1.9-1 3.2-3 3.2-5.3 0-3.3-2.7-6-6-6-3.3 0-6 2.7-6 6 0 2.3 1.3 4.3 3.2 5.3-4.8 1.4-8.3 6.5-8.3 11.5h21.9c0-2-.7-4.5-1.8-6.4 1.7-.3 3-1.8 3-3.5"/><g fill="#5a5a5a"><circle cx="11" cy="6.1" r="6"/><path d="M11,10.9c6,0,10.9,6.1,10.9,12.1H0C0,17,5,10.9,11,10.9z"/></g><g fill="#d6d6d6"><path d="M20.6,22c-0.5-5-4.6-9.7-9.6-9.7S1.9,17,1.4,22H20.6z"/><circle cx="11" cy="6.1" r="4.8"/></g><circle fill="#5a5a5a" cx="19.5" cy="13.1" r="3.5"/><circle fill="#fff" cx="20.5" cy="13.1" r="1.7"/><path fill="#5a5a5a" d="m16.9 13.6l-7.9 7.8 1.1 1.6 2.2-.5v-1.7l1.7.1v-1.9l1-.4 1.9-.6 1.6-2.1z"/><path fill="#939393" d="m48 14.1c0-2-1.6-3.5-3.5-3.5-1.7 0-3.2 1.2-3.5 2.9-.7-.4-1.4-.8-2.2-1 1.9-1 3.2-3 3.2-5.3 0-3.3-2.7-6-6-6-3.3 0-6 2.7-6 6 0 2.3 1.3 4.3 3.2 5.3-4.6 1.5-8.1 6.6-8.1 11.6h21.9c0-2-.7-4.5-1.8-6.4 1.5-.4 2.8-1.9 2.8-3.6"/><g fill="#5a5a5a"><circle cx="35" cy="6.1" r="6"/><path d="m35 10.9c6 0 10.9 6.1 10.9 12.1h-21.9c0-6 5-12.1 11-12.1"/></g><g fill="#fff"><path d="m44.6 22c-.5-5-4.6-9.7-9.6-9.7s-9.1 4.7-9.6 9.7h19.2"/><circle cx="35" cy="6.1" r="4.8"/></g><circle fill="#e74c3c" cx="43.5" cy="13.1" r="3.5"/><circle fill="#fff" cx="44.5" cy="13.1" r="1.7"/><path fill="#e74c3c" d="m40.9 13.6l-7.9 7.8 1.1 1.6 2.2-.5v-1.7l1.7.1v-1.9l1-.4 1.9-.6 1.6-2.1z"/></svg>