<svg xmlns="http://www.w3.org/2000/svg" viewBox="0 0 48 24" enable-background="new 0 0 48 24"><g fill="#939393"><path d="m24 13.8c0-.1-.1-.1-.1-.1l-4-2.4-1.4.2v-7.6c0-.1 0-.1 0-.2l-.1-.1-4-2.4-7.4 1h-.1c0 0 0 0-.1.1 0 0 0 .1-.1.1v7.6l-5.3 1h-.1c0 0 0 0-.1.1 0 0 0 .1-.1.1v8.8l4.3 2.5c0 0 6.9-1.1 7-1l3.9 2.3c.1 0 7.7-1 7.7-1v-9c0 .1 0 0 0 0"/><path d="m48 13.8c0-.1-.1-.1-.1-.1l-4-2.4-1.4.2v-7.6c0-.1 0-.1 0-.2l-.1-.1-4-2.4-7.4 1h-.1c0 0 0 0-.1.1 0 0 0 .1-.1.1v7.6l-5.3 1h-.1c0 0 0 0-.1.1 0 0 0 .1-.1.1v8.8l4.3 2.5c0 0 6.9-1.1 7-1l3.9 2.3c.1 0 7.7-1 7.7-1v-9c0 .1 0 0 0 0"/></g><path fill="#5a5a5a" d="m19 10c-.1 0-.2 0-.2 0l-.8.2v-7.6c0-.1 0-.1 0-.2l-.3-.1-4.1-2.3c-.1 0-.2 0-.2 0l-7.5 1h-.1c0 0 .2.1.1.2l.1.1v7.6l-6 1.1v9c0 .1.1.5.2.5l3.9 2.5c.1 0 .1 0 .2 0 0 0 0 0 .1 0l6.9-1.2 3.9 2.2c.1 0 .1 0 .2 0 0 0 0 0 .1 0l7.2-1.2c.2 0 .3-.3.3-.5v-8.6c0-.1 0-.1 0-.2l-.1-.1-3.9-2.4"/><path fill="#d6d6d6" d="m11 3.3l4.9-.8-2.9-1.7-5.9.9 2.8 1.7z"/><g fill="#939393"><path d="m5.6 12.1l2.4-.4-2-1.3s0-.2 0-.3v-.2l-4.3.6 2.8 1.8 1.1-.2"/><path d="m9.9 13c-.1 0-.1 0-.2 0v.1l-4.7.8v6.8l6.3-.9v-6.8h-1.4c0 0 0 0 0 0"/></g><path fill="#d6d6d6" d="m17 3.2l-7 1v7.2l7-1.3z"/><path fill="#939393" d="m16.5 13.4l4.8-.8-2.9-1.7-1.4.2v.2c0 .2.1.4-.1.4l-3.6.6 2.1 1.3 1.1-.2"/><path fill="#d6d6d6" d="m15.8 15l-.2 7.2 6.4-.9v-7.4l-1.3.2z"/><path fill="#ac382e" d="m46.9 12.3l-3.9-2.3c-.1 0-.2 0-.2 0l-.8.2v-7.6c0-.1 0-.1 0-.2l-.3-.1-4.1-2.3c-.1 0-.2 0-.2 0l-7.2 1h-.1c0 0 .1.1 0 .2v.2 7.6l-6.1 1v9c0 .1.1.5.2.5l3.9 2.5c.1 0 .1 0 .2 0 0 0 0 0 .1 0l6.9-1.2 3.9 2.2c.1 0 .1 0 .2 0 0 0 0 0 .1 0l7.2-1.2c.2 0 .3-.3.3-.5v-8.6c0-.1 0-.1 0-.2l-.1-.2"/><path fill="#fff" d="m35 3.3l4.9-.8-2.9-1.7-5.9 1 2.8 1.7z"/><g fill="#e74c3c"><path d="m29.6 12.1l2.4-.4-2-1.3s0-.2 0-.3v-.2l-4.3.7 2.8 1.7 1.1-.2"/><path d="m33.9 13c-.1 0-.1 0-.2 0h-.1l-4.6 1v6.8l6.2-.9v-6.9h-1.3c0 0 0 0 0 0"/><path d="m40.5 13.4l4.8-.8-2.9-1.7-1.4.2v.2c0 .2.1.4-.1.4l-3.6.6 2.1 1.3 1.1-.2"/></g><path fill="#d6d6d6" d="m39.8 15l.3 7.2 6.9-.9v-7.4l-3.3.5z"/><path fill="#fff" d="m41 3.2l-7 1v7.2l7-1.3z"/></svg>