<svg xmlns="http://www.w3.org/2000/svg" xmlns:xlink="http://www.w3.org/1999/xlink" viewBox="-17.5 6.1 48 24" enable-background="new -17.5 6.1 48 24"><symbol id="0" viewBox="-12 -12 24 24"><path fill="#939393" d="M8.2,8.3C7.2,7.9,4,7,3,3h-5c-1,4-4.2,4.9-5.2,5.3L-11,11V9.2l3-2v-7.7v-0.2C-7.5-1.9-2.9-12,0.6-12
			C4-12,8.6-1.9,9.1-0.8V7l0,0L12,9.2V11L8.2,8.3z" id="2"/><path fill="#e74c3c" d="M7.2,9.3c-1-0.4-3.9-1.5-5-5.5h-5.7c-1,4-3.8,5-4.7,5.4L-12,12v-1.8l3-2V0.5V0.3C-8.5-0.9-3.9-11-0.4-11
			C3-11,7.3-0.7,7.9,0.5v7.7L8.2,8l2.8,2.2V12L7.2,9.3z"/><path d="m-9.1 8l-2.9 2.2v1.8l5.8-4z"/><path fill="none" stroke="#000" stroke-miterlimit="10" d="m-.5-10.5c3.2 0 8 11 8 11v8.6c0 0-4.1-1.6-5.1-5.6-1.8 0-4.7 0-5.8 0-1 4-5.1 5.6-5.1 5.6v-8.6c0 0 4.8-11 8-11z"/><path d="m8.2 8l2.8 2.2v1.8l-5.7-4z"/><path fill="#fff" d="m-3.2-2.4l-1.8 2.9 3-1v-1c0-.5-.6-.9-1.2-.9"/><path fill="#fff" d="m2.2-2.4l1.8 2.9-3-1v-1c0-.5.7-.9 1.2-.9"/><path fill="#fff" d="M1.1-4-.5-6.7-2-4z"/><path opacity=".5" fill="#5a5a5a" d="m1-8h-3v1h3z"/><path d="m-5.3 1.5s.1.1.2.1c.1.1.3.1.5.1.2 0 .4 0 .7-.1.2-.1.4-.3.6-.5.1-.1.3-.3.4-.5s.3-.4.3-.5c.1-.3.2-.6.2-.6h-.1c0 0-.2.2-.4.4 0 .1-.2.2-.4.3-.1.1-.3.2-.5.3-.2.1-.4.1-.6.2-.1.1-.3.2-.4.3-.1.1-.2.2-.3.3-.1 0-.2.1-.2.2"/><path d="m4.3 1.4s-.1 0-.1-.1c-.1-.1-.2-.2-.4-.3-.1-.1-.2-.2-.4-.3-.2-.1-.4-.1-.6-.2-.1-.1-.3-.1-.5-.3-.1-.1-.3-.2-.4-.3-.3-.3-.4-.4-.4-.4h-.1c0 0 .1.2.2.6.1.2.2.4.3.5.1.2.3.4.5.6.2.2.4.3.6.5.2.1.5.1.7.1s.4-.1.5-.1c.1-.2.1-.2.1-.3"/><path d="m-8.1 8.2s.4-.3.8-.7c.1-.3.3-.6.5-.9s.3-.7.4-1.1c.6-1.5 1.1-3 1.1-3h-.1c0 0-.9 1.3-1.8 2.7-.2.3-.5.7-.6 1-.2.3-.3.7-.4 1 0 .5 0 .9.1 1"/><path d="m7.2 8.1s0-.5-.1-1.1c-.1-.2-.2-.6-.3-.9-.2-.3-.4-.7-.6-1-.9-1.4-1.8-2.7-1.8-2.7h-.1c0 0 .5 1.5 1.1 3 .1.4.3.8.4 1.1.2.4.4.7.6.9.4.5.8.8.8.7"/></symbol><symbol id="1" viewBox="-12 -12 24 24"><use xlink:href="#2"/><path fill="#d6d6d6" d="M7.2,9.3c-1-0.4-3.9-1.5-5-5.5h-5.7c-1,4-3.8,5-4.7,5.4L-12,12v-1.8l3-2V0.5V0.3C-8.5-0.9-3.9-11-0.4-11
			C3-11,7.3-0.7,7.9,0.5v7.7L8.2,8l2.8,2.2V12L7.2,9.3z"/><path fill="#5a5a5a" d="m-9.1 8l-2.9 2.2v1.8l5.8-4z"/><path fill="none" stroke="#5a5a5a" stroke-miterlimit="10" d="m-.5-10.5c3.2 0 8 11 8 11v8.6c0 0-4.1-1.6-5.1-5.6-1.8 0-4.7 0-5.8 0-1 4-5.1 5.6-5.1 5.6v-8.6c0 0 4.8-11 8-11z"/><path fill="#5a5a5a" d="m8.2 8l2.8 2.2v1.8l-5.7-4z"/><path fill="#5a5a5a" d="m-3.2-2.4l-1.8 2.9 3-1v-1c0-.5-.6-.9-1.2-.9"/><path fill="#5a5a5a" d="m2.2-2.4l1.8 2.9-3-1v-1c0-.5.7-.9 1.2-.9"/><path fill="#5a5a5a" d="M1.1-4-.5-6.7-2-4z"/><path opacity=".5" d="m1-8h-3v1h3z"/><path fill="#5a5a5a" d="m-8.1 8.2s.4-.3.8-.7c.1-.3.3-.6.5-.9s.3-.7.4-1.1c.6-1.5 1.1-3 1.1-3h-.1c0 0-.9 1.3-1.8 2.7-.2.3-.5.7-.6 1-.2.3-.3.7-.4 1 0 .5 0 .9.1 1"/><path fill="#5a5a5a" d="m7.2 8.1s0-.5-.1-1.1c-.1-.2-.2-.6-.3-.9-.2-.3-.4-.7-.6-1-.9-1.4-1.8-2.7-1.8-2.7h-.1c0 0 .5 1.5 1.1 3 .1.4.3.8.4 1.1.2.4.4.7.6.9.4.5.8.8.8.7"/></symbol><use xlink:href="#1" width="24" height="24" x="-12" y="-12" transform="matrix(1 0 0-1-5.503 18.1)"/><use xlink:href="#0" width="24" height="24" x="-12" y="-12" transform="matrix(1 0 0-1 18.497 18.1)"/></svg>