<svg enable-background="new 0 0 48 24" viewBox="0 0 48 24" xmlns="http://www.w3.org/2000/svg"><defs><symbol viewBox="-6 -5 12 11.3"><path d="m2-2.7c0-.2.2-.3.5-.3h1c .3 0 .5.1.5.3v4.7h1.5l-2.5 4.3-2.5-4.3h1.5z" fill="#fff"/></symbol></defs><g fill="#939393"><path d="m21.9 13.9c-.5-.5-.9-.9-1.9-1.2v-2.6l2.8-5.1c.1-.1.1-.3 0-.4s-.1-.2-.3-.3l-6.3-2.9c-.2-.1-.5 0-.6.2l-2.3 3.6-5.4.7-1.8-.7-3.9-4.2h-1.2v2.1l1 4v10l6.2 3.9h1 3.6c.8 1.5 2.1 2.6 3.7 3h2.8c2.6-.7 4.5-3.1 4.5-5.9 0-1.3-.4-2.5-1.1-3.4-.3-.7-.8-.8-.8-.8"/><path d="m20 17.8l-1.1-1.1 5.1-4.7v1.9z"/></g><path d="m18.5 7.8l2-3.9-5.4-2.5-1.9 2.9z" fill="#d6d6d6"/><g fill="#939393"><path d="m7 5.8l1.3 3.4 3.8-.4-.1-3.6z"/><path d="m13 5.4l.1 3.3 4.2-.5z"/></g><g fill="#d6d6d6"><path d="m10.8 17c0-3.3 2.6-5.9 5.9-5.9.5 0 .9.1 1.3.2v-2.2l-10 1.2v8.7h3.1c-.2-.6-.3-1.3-.3-2"/><path d="m7 10.1l-5-3v7.9l5 3.3z"/><path d="m2 5.4l4.2 2.6c.3.2.6-.1.5-.4l-1.2-3.8c0-.1-.1-.1-.1-.2l-4-2.3c-.2-.2-.5 0-.5.3l.9 3.6c.1.1.1.2.2.2"/></g><path d="m16 20.7c-.1.1-.2.2-.3.2-.1 0-.3-.1-.3-.2-.2-.3-.5-.8-.6-1l-.1-.1c-.4-.8-.7-1.1-.9-1.5-.2-.3-.4-.7-.8-1.4 0-.1 0-.2 0-.2s.1-.1.2-.1c0 0 .1 0 .1 0l1.2.5c.4.2.8.3 1.3.6l3.1-2.9 1.4-1.3c-1.1-.8-2.3-1.3-3.6-1.3-2.8 0-5.1 2.3-5.1 5.1s2.3 5.1 5.1 5.1c2.8 0 5.1-2.3 5.1-5.1 0-1-.3-2-.8-2.8-2.6 2.9-4.1 4.8-5 6.4" fill="#fff"/><path d="m22.8 11.8c-.1-.1-.2-.2-.5-.2-.2 0-.3.1-.5.2l-1.1 1c-.5-.5-1.1-.9-1.8-1.2v-2.6l2.6-5.1c.1-.1.1-.3 0-.4s-.1-.2-.3-.3l-6.3-2.9c-.2-.1-.5 0-.6.2l-2.3 3.6-5.3.7-.7-1.8-5-3h-1v2l1 4v10l6 4h1 3.6c1 1.7 2.9 2.9 5.1 2.9 3.3 0 5.9-2.6 5.9-5.9 0-1.3-.4-2.5-1.1-3.4.4-.5.8-1 1.3-1.5 0-.1 0-.2 0-.3m-9.8-6.4l4.3 2.8-4.2.5zm7.5-1.5l-2 3.9-5.3-3.5 1.9-2.9zm-12.2 5.3l-1.3-3.4 5-.6.1 3.6zm-.3 1.1l10-1.2v2.2c-.4-.1-.9-.2-1.3-.2-3.3 0-5.9 2.6-5.9 5.9 0 .7.1 1.4.3 2h-3.1zm-7.1-8.7c0-.3.3-.5.5-.3l3.9 2.4c.1 0 .1.1.1.2l1.2 3.8c.2.2-.2.5-.4.3l-4.2-2.6c-.1 0-.1-.1-.1-.2zm1.1 5.5l5 3v8.2l-5-3.3zm19.7 9.9c0 2.8-2.3 5.1-5.1 5.1-2.8 0-5.1-2.3-5.1-5.1s2.3-5.1 5.1-5.1c1.3 0 2.5.5 3.5 1.4l-1.4 1.3-3.1 2.9c-.5-.2-.8-.4-1.3-.6l-1.2-.5c0 0-.1 0-.1 0-.1 0-.2 0-.2.1s0 .2 0 .2c.4.7.6 1 .8 1.4.2.4.5.7.9 1.5l.1.1c.1.2.4.7.6 1 .1.1.2.2.3.2.1 0 .3-.1.3-.2.9-1.6 2.4-3.6 4.9-6.5.7.8 1 1.8 1 2.8" fill="#5a5a5a"/><g fill="#939393"><path d="m45.9 13.9c-.5-.5-.9-.9-1.9-1.2v-2.6l2.8-5.1c.1-.1.1-.3 0-.4s-.1-.2-.3-.3l-6.3-2.9c-.2-.1-.5 0-.6.2l-2.3 3.6-5.5.7-1.8-.7-3.8-4.2h-1.2v2.1l1 4v10l6.2 3.9h1 3.6c.8 1.5 2.1 2.6 3.7 3h2.8c2.6-.7 4.5-3.1 4.5-5.9 0-1.3-.4-2.5-1.1-3.4-.3-.7-.8-.8-.8-.8"/><path d="m44 17.8l-1.1-1.1 5.1-4.7v1.9z"/></g><path d="m42.5 7.8l2-3.9-5.4-2.5-1.9 2.9z" fill="#e74c3c"/><g fill="#fff"><path d="m31 5.8l1.3 3.4 3.8-.4-.1-3.6z"/><path d="m37 5.4l.1 3.3 4.2-.5z"/></g><g fill="#e74c3c"><path d="m34.8 17c0-3.3 2.6-5.9 5.9-5.9.5 0 .9.1 1.3.2v-2.2l-10 1.2v8.7h3.1c-.2-.6-.3-1.3-.3-2"/><path d="m31 10.1l-5-3v7.9l5 3.3z"/><path d="m26 5.4l4.2 2.6c.3.2.6-.1.5-.4l-1.2-3.8c0-.1-.1-.1-.1-.2l-3.9-2.4c-.3-.2-.6.1-.5.4l.9 3.6c0 .1 0 .2.1.2"/></g><path d="m40 20.7c-.1.1-.2.2-.3.2-.1 0-.3-.1-.3-.2-.2-.3-.5-.8-.6-1l-.1-.1c-.4-.8-.7-1.1-.9-1.5-.2-.3-.4-.7-.8-1.4 0-.1 0-.2 0-.2s.1-.1.2-.1c0 0 .1 0 .1 0l1.2.5c.4.2.8.3 1.3.6l3.1-2.9 1.4-1.3c-1.1-.8-2.3-1.3-3.6-1.3-2.8 0-5.1 2.3-5.1 5.1s2.3 5.1 5.1 5.1c2.8 0 5.1-2.3 5.1-5.1 0-1-.3-2-.8-2.8-2.6 2.9-4.1 4.8-5 6.4" fill="#fff"/><path d="m46.8 11.8c-.1-.1-.2-.2-.5-.2-.2 0-.3.1-.5.2l-1.1 1c-.5-.5-1.1-.9-1.8-1.2v-2.6l2.6-5.1c.1-.1.1-.3 0-.4s-.1-.2-.3-.3l-6.3-2.9c-.2-.1-.5 0-.6.2l-2.3 3.6-5.5.7-.5-1.8-5-3h-1v2l1 4v10l6 4h1 3.6c1 1.7 2.9 2.9 5.1 2.9 3.3 0 5.9-2.6 5.9-5.9 0-1.3-.4-2.5-1.1-3.4.4-.5.8-1 1.3-1.5 0-.1 0-.2 0-.3m-9.8-6.4l4.3 2.8-4.2.5zm7.5-1.5l-2 3.9-5.3-3.5 1.9-2.9zm-12.2 5.3l-1.3-3.4 5-.6.1 3.6zm-.3 1.1l10-1.2v2.2c-.4-.1-.9-.2-1.3-.2-3.3 0-5.9 2.6-5.9 5.9 0 .7.1 1.4.3 2h-3.1zm-7.1-8.7c-.1-.3.2-.5.5-.4l3.9 2.4c.1 0 .1.1.1.2l1.2 3.8c.1.3-.2.6-.5.4l-4.1-2.6c-.1 0-.1-.1-.1-.2zm1.1 5.5l5 3v8.2l-5-3.3zm19.7 9.9c0 2.8-2.3 5.1-5.1 5.1-2.8 0-5.1-2.3-5.1-5.1s2.3-5.1 5.1-5.1c1.3 0 2.5.5 3.5 1.4l-1.4 1.3-3.1 2.9c-.5-.2-.8-.4-1.3-.6l-1.2-.5c0 0-.1 0-.1 0-.1 0-.2 0-.2.1s0 .2 0 .2c.4.7.6 1 .8 1.4.2.4.5.7.9 1.5l.1.1c.1.2.4.7.6 1 .1.1.2.2.3.2.1 0 .3-.1.3-.2.9-1.6 2.4-3.6 4.9-6.5.7.8 1 1.8 1 2.8" fill="#ac382e"/></svg>