<!-- Generated by IcoMoon.io -->
<svg version="1.1" xmlns="http://www.w3.org/2000/svg" width="32" height="32" viewBox="0 0 32 32">
<title>manage-categories</title>
<path class="fill-active" d="M30.933 11.925c0-0.001 0-0.003 0-0.005 0-0.159-0.070-0.302-0.181-0.4l-0.001-0.001-2.709-2.368h-0.053l-10.272-4.16h-0.373l-12.011 4.128s0 0-0.064 0.064v0l-4.075 4.768c-0.079 0.092-0.127 0.213-0.127 0.345 0 0.225 0.139 0.418 0.337 0.496l0.004 0.001 3.723 1.451v5.333c0.001 0.22 0.136 0.409 0.327 0.489l0.003 0.001 11.861 4.917c0.064 0.030 0.139 0.047 0.219 0.047s0.154-0.017 0.222-0.048l-0.003 0.001 10.165-4.917c0.178-0.089 0.299-0.27 0.299-0.479 0-0 0-0.001 0-0.001v0-8.533l1.931 1.003c0.071 0.038 0.156 0.060 0.245 0.060 0.293 0 0.531-0.236 0.533-0.529v-0zM6.197 16.661l7.403 2.88c0.056 0.022 0.12 0.034 0.188 0.034 0.17 0 0.322-0.080 0.419-0.204l0.001-0.001 2.773-3.531v9.856l-10.784-4.469zM18.059 13.461v-7.179l8.288 3.317zM16.992 13.461l-9.792-3.861 9.792-3.36zM5.824 10.197l10.848 4.341-3.040 3.872-11.136-4.331z"></path>
</svg>
