<?xml version="1.0" encoding="UTF-8" standalone="no"?>
<svg
   xmlns:dc="http://purl.org/dc/elements/1.1/"
   xmlns:cc="http://creativecommons.org/ns#"
   xmlns:rdf="http://www.w3.org/1999/02/22-rdf-syntax-ns#"
   xmlns:svg="http://www.w3.org/2000/svg"
   xmlns="http://www.w3.org/2000/svg"
   version="1.1"
   id="svg2"
   viewBox="0 0 48 24"
   height="24"
   width="48">
  <defs
     id="defs4">
    <style
       id="style3462">.cls-1{fill:#939393;}.cls-2{fill:#d6d6d6;}.cls-3{fill:#5a5a5a;}</style>
    <style
       id="style3503">.cls-1{fill:#939393;}.cls-2{fill:url(#linear-gradient);}.cls-3{fill:#fff;}</style>
    <linearGradient
       id="linear-gradient"
       x1="1.19"
       y1="1.19"
       x2="20.81"
       y2="20.81"
       gradientUnits="userSpaceOnUse">
      <stop
         offset="0"
         stop-color="#f9ad29"
         id="stop3506" />
      <stop
         offset="1"
         stop-color="#f33432"
         id="stop3508" />
    </linearGradient>
    <style
       id="style3653">.cls-1{fill:#ac382e;}.cls-2{fill:#e74c3c;}</style>
    <style
       id="style3682">.cls-1{fill:#5a5a5a;}</style>
    <style
       id="style3815">.cls-1{fill:#ac382e;}.cls-2{fill:#e74c3c;}</style>
    <style
       id="style3844">.cls-1{fill:#5a5a5a;}</style>
  </defs>
  <metadata
     id="metadata7">
    <rdf:RDF>
      <cc:Work
         rdf:about="">
        <dc:format>image/svg+xml</dc:format>
        <dc:type
           rdf:resource="http://purl.org/dc/dcmitype/StillImage" />
        <dc:title></dc:title>
      </cc:Work>
    </rdf:RDF>
  </metadata>
  <g
     transform="translate(0,-1028.3622)"
     id="layer1">
    <path
       style="fill:#5a5a5a"
       class="st0"
       d="m 17.915552,1028.3622 -1.990617,0 0,1.0042 1.990617,0 0,-1.0042 z m -3.981234,0 -1.990617,0 0,1.0042 1.990617,0 0,-1.0042 z m -3.9812337,0 -1.9906169,0 0,1.0042 1.9906169,0 0,-1.0042 z m -3.9812337,0 -1.9906169,0 0,1.0042 1.9906169,0 0,-1.0042 z m -3.9812337,0 -1.9906169,0 0,1.0042 1.9906169,0 0,-1.0042 z m -0.99530847,2.0084 -0.99530843,0 0,2.0083 0.99530843,0 0,-2.0083 z m 0,4.0167 -0.99530843,0 0,2.0084 0.99530843,0 0,-2.0084 z m 0,4.0167 -0.99530843,0 0,2.0084 0.99530843,0 0,-2.0084 z m 0,4.0168 -0.99530843,0 0,2.0083 0.99530843,0 0,-2.0083 z m 0.99530847,3.0125 -1.9906169,0 0,1.0042 1.9906169,0 0,-1.0042 z m 3.9812337,0 -1.9906169,0 0,1.0042 1.9906169,0 0,-1.0042 z m 3.9812337,0 -1.9906169,0 0,1.0042 1.9906169,0 0,-1.0042 z m 7.9624677,-7.0293 -0.995309,0 0,2.0084 0.995309,0 0,-2.0084 z m 0,-4.0167 -0.995309,0 0,2.0084 0.995309,0 0,-2.0084 z m 0,-4.0167 -0.995309,0 0,2.0083 0.995309,0 0,-2.0083 z m 5.474199,13.1548 c -0.796247,-0.8034 -2.090151,-0.8034 -2.886397,0 -0.398124,0.4017 -0.497655,0.8033 -0.497655,1.3054 -0.696715,-0.1004 -1.393431,-0.3012 -2.090147,-0.6025 -0.298593,-0.1004 -0.696716,-0.2008 -1.09484,-0.4017 -0.497654,-2.0083 -1.293901,-4.7196 -1.891086,-6.728 -0.696715,-2.3096 -2.289209,-2.0084 -2.289209,-2.0084 0,0 1.293901,4.7197 2.289209,8.1339 -3.384048,-1.0042 -7.962467,-2.3096 -7.962467,-2.3096 0,0 -0.2985925,1.7071 1.9906169,2.3096 1.8910861,0.6025 4.5784191,1.4059 6.5690351,1.908 0.09953,0.4016 0.298593,0.8033 0.398124,1.1046 0.298592,0.7029 0.497654,1.4058 0.597185,2.1088 -0.497654,0 -0.995309,0.2008 -1.293901,0.5021 -0.796247,0.8033 -0.796247,2.1087 0,2.9121 0.796247,0.8033 2.090148,0.8033 2.886394,0 0.497655,-0.5021 0.696716,-1.3054 0.497655,-2.0084 -0.597185,-1.4058 -0.995309,-2.8117 -1.293901,-4.318 1.492962,0.3013 2.886394,0.703 4.279826,1.3055 0.696716,0.2008 1.393435,0.1004 1.891089,-0.5021 0.696716,-0.6025 0.696716,-1.908 -0.09953,-2.7113 z m -5.971853,7.7322 c -0.497655,0.4017 -1.194371,0.4017 -1.592494,-0.1004 0,0 0,0 0,0 l 0,0 c -0.298593,-0.5021 -0.199062,-1.1046 0.199062,-1.4059 0.497654,-0.3012 1.094839,-0.2008 1.393432,0.2009 0.298592,0.5021 0.298592,1.0041 0,1.3054 z m 5.374668,-5.4226 c 0,0 0,0.1004 0,0 l 0,0 c -0.398126,0.5021 -1.194373,0.6025 -1.692027,0.2008 -0.497655,-0.4016 -0.597185,-1.1046 -0.199062,-1.7071 0.398123,-0.5021 1.094839,-0.6025 1.692027,-0.2008 0,0 0.09953,0.1004 0.09953,0.1004 0.398124,0.5021 0.497654,1.205 0.09953,1.6067 z M 5.9718506,1033.584 c 0.099531,1.205 -0.6967159,2.3096 -1.9906169,2.5104 -0.099531,0 -0.1990617,0 -0.1990617,0 -1.1943701,0 -2.0901477,-1.0042 -2.0901477,-2.2092 0,-0.1004 0,-0.1004 0,-0.2008 -0.099531,-1.205 0.7962468,-2.3096 1.9906169,-2.4101 0.099531,0 0.099531,0 0.1990617,0 1.0948392,-0.1004 2.0901477,0.8034 2.0901477,1.908 0,0.1004 0,0.3012 0,0.4017 z m -2.9859253,0.1004 c 0,0.8033 0.2985925,1.4058 0.7962467,1.4058 0.4976542,0 0.7962468,-0.5021 0.7962468,-1.4058 0,-0.9038 -0.2985926,-1.5063 -0.7962468,-1.5063 -0.4976542,0 -0.7962467,0.7029 -0.7962467,1.5063 z m 0.7962467,5.6234 4.478888,-8.0335 0.9953084,0 -4.4788879,8.0335 -0.9953085,0 z m 7.763406,-2.5105 c 0.09953,1.2051 -0.696716,2.3097 -1.8910862,2.5105 -0.099531,0 -0.099531,0 -0.1990617,0 -1.1943701,0 -2.0901477,-1.0042 -2.0901477,-2.2092 0,-0.1004 0,-0.1004 0,-0.2008 -0.099531,-1.2051 0.7962467,-2.3097 1.9906168,-2.4101 0.099531,0 0.099531,0 0.1990617,0 1.0948391,0 2.0901481,0.9038 2.0901481,2.0084 -0.09953,0.1004 -0.09953,0.2008 -0.09953,0.3012 z m -2.8863947,0.1005 c 0,0.8033 0.2985926,1.4058 0.7962468,1.4058 0.4976542,0 0.7962469,-0.5021 0.7962469,-1.4058 0,-0.9038 -0.2985927,-1.4059 -0.8957778,-1.4059 -0.597185,0 -0.6967159,0.6025 -0.6967159,1.4059 z"
       id="path4139" />
    <g
       transform="matrix(0.99530855,0,0,1.0041841,24,1028.3622)"
       id="g4165">
      <path
         style="fill:#ac382e"
         class="st0"
         d="m 18,0 -2,0 0,1 2,0 0,-1 z m -4,0 -2,0 0,1 2,0 0,-1 z M 10,0 8,0 8,1 10,1 10,0 Z M 6,0 4,0 4,1 6,1 6,0 Z M 2,0 0,0 0,1 2,1 2,0 Z M 1,2 0,2 0,4 1,4 1,2 Z M 1,6 0,6 0,8 1,8 1,6 Z m 0,4 -1,0 0,2 1,0 0,-2 z m 0,4 -1,0 0,2 1,0 0,-2 z m 1,3 -2,0 0,1 2,0 0,-1 z m 4,0 -2,0 0,1 2,0 0,-1 z m 4,0 -2,0 0,1 2,0 0,-1 z m 8,-7 -1,0 0,2 1,0 0,-2 z m 0,-4 -1,0 0,2 1,0 0,-2 z m 0,-4 -1,0 0,2 1,0 0,-2 z M 6,5.2 c 0.1,1.2 -0.7,2.3 -2,2.5 -0.1,0 -0.2,0 -0.2,0 -1.2,0 -2.1,-1 -2.1,-2.2 0,-0.1 0,-0.1 0,-0.2 -0.1,-1.2 0.8,-2.3 2,-2.4 0.1,0 0.1,0 0.2,0 C 5,2.8 6,3.7 6,4.8 6,4.9 6,5.1 6,5.2 Z M 3,5.3 C 3,6.1 3.3,6.7 3.8,6.7 4.3,6.7 4.6,6.2 4.6,5.3 4.6,4.4 4.3,3.8 3.8,3.8 3.3,3.8 3,4.5 3,5.3 Z m 0.8,5.6 4.5,-8 1,0 -4.5,8 -1,0 z m 7.8,-2.5 c 0.1,1.2 -0.7,2.3 -1.9,2.5 -0.1,0 -0.1,0 -0.2,0 -1.2,0 -2.1,-1 -2.1,-2.2 0,-0.1 0,-0.1 0,-0.2 -0.1,-1.2 0.8,-2.3 2,-2.4 0.1,0 0.1,0 0.2,0 1.1,0 2.1,0.9 2.1,2 -0.1,0.1 -0.1,0.2 -0.1,0.3 z M 8.7,8.5 C 8.7,9.3 9,9.9 9.5,9.9 10,9.9 10.3,9.4 10.3,8.5 10.3,7.6 10,7.1 9.4,7.1 8.8,7.1 8.7,7.7 8.7,8.5 Z"
         id="path4154" />
      <path
         style="fill:#e74c3c"
         class="st1"
         d="m 23.5,15.1 c -0.8,-0.8 -2.1,-0.8 -2.9,0 -0.4,0.4 -0.5,0.8 -0.5,1.3 -0.7,-0.1 -1.4,-0.3 -2.1,-0.6 -0.3,-0.1 -0.7,-0.2 -1.1,-0.4 -0.5,-2 -1.3,-4.7 -1.9,-6.7 -0.7,-2.3 -2.3,-2 -2.3,-2 0,0 1.3,4.7 2.3,8.1 -3.4,-1 -8,-2.3 -8,-2.3 0,0 -0.3,1.7 2,2.3 1.9,0.6 4.6,1.4 6.6,1.9 0.1,0.4 0.3,0.8 0.4,1.1 0.3,0.7 0.5,1.4 0.6,2.1 -0.5,0 -1,0.2 -1.3,0.5 -0.8,0.8 -0.8,2.1 0,2.9 0.8,0.8 2.1,0.8 2.9,0 0.5,-0.5 0.7,-1.3 0.5,-2 -0.6,-1.4 -1,-2.8 -1.3,-4.3 1.5,0.3 2.9,0.7 4.3,1.3 0.7,0.2 1.4,0.1 1.9,-0.5 0.7,-0.6 0.7,-1.9 -0.1,-2.7 z m -6,7.7 c -0.5,0.4 -1.2,0.4 -1.6,-0.1 0,0 0,0 0,0 l 0,0 c -0.3,-0.5 -0.2,-1.1 0.2,-1.4 0.5,-0.3 1.1,-0.2 1.4,0.2 0.3,0.5 0.3,1 0,1.3 z m 5.4,-5.4 c 0,0 0,0.1 0,0 l 0,0 c -0.4,0.5 -1.2,0.6 -1.7,0.2 -0.5,-0.4 -0.6,-1.1 -0.2,-1.7 0.4,-0.5 1.1,-0.6 1.7,-0.2 0,0 0.1,0.1 0.1,0.1 0.4,0.5 0.5,1.2 0.1,1.6 z"
         id="path4156" />
    </g>
  </g>
  <style
     type="text/css"
     id="style3966">
	.st0{fill-rule:evenodd;clip-rule:evenodd;fill:#939393;}
	.st1{fill:#E74C3C;}
	.st2{fill:#FFFFFF;}
	.st3{fill-rule:evenodd;clip-rule:evenodd;fill:#E74C3C;}
	.st4{fill-rule:evenodd;clip-rule:evenodd;fill:#FFFFFF;}
</style>
  <style
     type="text/css"
     id="style4008">
	.st0{fill-rule:evenodd;clip-rule:evenodd;fill:#939393;}
	.st1{fill:#5A5A5A;}
	.st2{fill:#FFFFFF;}
	.st3{fill-rule:evenodd;clip-rule:evenodd;fill:#5A5A5A;}
	.st4{fill-rule:evenodd;clip-rule:evenodd;fill:#FFFFFF;}
</style>
  <style
     type="text/css"
     id="style4135">
	.st0{fill:#5A5A5A;}
</style>
  <style
     type="text/css"
     id="style4150">
	.st0{fill:#AC382E;}
	.st1{fill:#E74C3C;}
</style>
</svg>
