<svg id="svg2" height="24" viewBox="0 0 48 24" width="48" xmlns="http://www.w3.org/2000/svg"><defs id="defs4"><linearGradient id="linear-gradient" gradientUnits="userSpaceOnUse" x1="1.19" x2="20.81" y1="1.19" y2="20.81"><stop id="stop3506" offset="0" stop-color="#f9ad29"/><stop id="stop3508" offset="1" stop-color="#f33432"/></linearGradient></defs><g id="layer1" transform="translate(0 -1028.3622)"><path id="path4139" clip-rule="evenodd" d="m17.915552 1028.3622h-1.990617v1.0042h1.990617zm-3.981234 0h-1.990617v1.0042h1.990617zm-3.9812337 0h-1.9906169v1.0042h1.9906169zm-3.9812337 0h-1.9906169v1.0042h1.9906169zm-3.9812337 0h-1.9906169v1.0042h1.9906169zm-.99530847 2.0084h-.99530843v2.0083h.99530843zm0 4.0167h-.99530843v2.0084h.99530843zm0 4.0167h-.99530843v2.0084h.99530843zm0 4.0168h-.99530843v2.0083h.99530843zm.99530847 3.0125h-1.9906169v1.0042h1.9906169zm3.9812337 0h-1.9906169v1.0042h1.9906169zm3.9812337 0h-1.9906169v1.0042h1.9906169zm7.9624677-7.0293h-.995309v2.0084h.995309zm0-4.0167h-.995309v2.0084h.995309zm0-4.0167h-.995309v2.0083h.995309zm5.474199 13.1548c-.796247-.8034-2.090151-.8034-2.886397 0-.398124.4017-.497655.8033-.497655 1.3054-.696715-.1004-1.393431-.3012-2.090147-.6025-.298593-.1004-.696716-.2008-1.09484-.4017-.497654-2.0083-1.293901-4.7196-1.891086-6.728-.696715-2.3096-2.289209-2.0084-2.289209-2.0084 0 0 1.293901 4.7197 2.289209 8.1339-3.384048-1.0042-7.962467-2.3096-7.962467-2.3096 0 0-.2985925 1.7071 1.9906169 2.3096 1.8910861.6025 4.5784191 1.4059 6.5690351 1.908.09953.4016.298593.8033.398124 1.1046.298592.7029.497654 1.4058.597185 2.1088-.497654 0-.995309.2008-1.293901.5021-.796247.8033-.796247 2.1087 0 2.9121.796247.8033 2.090148.8033 2.886394 0 .497655-.5021.696716-1.3054.497655-2.0084-.597185-1.4058-.995309-2.8117-1.293901-4.318 1.492962.3013 2.886394.703 4.279826 1.3055.696716.2008 1.393435.1004 1.891089-.5021.696716-.6025.696716-1.908-.09953-2.7113zm-5.971853 7.7322c-.497655.4017-1.194371.4017-1.592494-.1004 0 0 0 0 0 0l0 0c-.298593-.5021-.199062-1.1046.199062-1.4059.497654-.3012 1.094839-.2008 1.393432.2009.298592.5021.298592 1.0041 0 1.3054zm5.374668-5.4226c0 0 0 .1004 0 0l0 0c-.398126.5021-1.194373.6025-1.692027.2008-.497655-.4016-.597185-1.1046-.199062-1.7071.398123-.5021 1.094839-.6025 1.692027-.2008 0 0 .09953.1004.09953.1004.398124.5021.497654 1.205.09953 1.6067zm-16.8207154-12.251c.099531 1.205-.6967159 2.3096-1.9906169 2.5104-.099531 0-.1990617 0-.1990617 0-1.1943701 0-2.0901477-1.0042-2.0901477-2.2092 0-.1004 0-.1004 0-.2008-.099531-1.205.7962468-2.3096 1.9906169-2.4101.099531 0 .099531 0 .1990617 0 1.0948392-.1004 2.0901477.8034 2.0901477 1.908 0 .1004 0 .3012 0 .4017zm-2.9859253.1004c0 .8033.2985925 1.4058.7962467 1.4058.4976542 0 .7962468-.5021.7962468-1.4058 0-.9038-.2985926-1.5063-.7962468-1.5063-.4976542 0-.7962467.7029-.7962467 1.5063zm.7962467 5.6234l4.478888-8.0335h.9953084l-4.4788879 8.0335zm7.763406-2.5105c.09953 1.2051-.696716 2.3097-1.8910862 2.5105-.099531 0-.099531 0-.1990617 0-1.1943701 0-2.0901477-1.0042-2.0901477-2.2092 0-.1004 0-.1004 0-.2008-.099531-1.2051.7962467-2.3097 1.9906168-2.4101.099531 0 .099531 0 .1990617 0 1.0948391 0 2.0901481.9038 2.0901481 2.0084-.09953.1004-.09953.2008-.09953.3012zm-2.8863947.1005c0 .8033.2985926 1.4058.7962468 1.4058.4976542 0 .7962469-.5021.7962469-1.4058 0-.9038-.2985927-1.4059-.8957778-1.4059-.597185 0-.6967159.6025-.6967159 1.4059z" fill="#5a5a5a" fill-rule="evenodd"/><g id="g4165" transform="matrix(.99530855 0 0 1.0041841 24 1028.3622)"><path id="path4154" clip-rule="evenodd" d="m18 0h-2v1h2zm-4 0h-2v1h2zm-4 0h-2v1h2zm-4 0h-2v1h2zm-4 0h-2v1h2zm-1 2h-1v2h1zm0 4h-1v2h1zm0 4h-1v2h1zm0 4h-1v2h1zm1 3h-2v1h2zm4 0h-2v1h2zm4 0h-2v1h2zm8-7h-1v2h1zm0-4h-1v2h1zm0-4h-1v2h1zm-12 3.2c.1 1.2-.7 2.3-2 2.5-.1 0-.2 0-.2 0-1.2 0-2.1-1-2.1-2.2 0-.1 0-.1 0-.2-.1-1.2.8-2.3 2-2.4.1 0 .1 0 .2 0 1.1-.1 2.1.8 2.1 1.9 0 .1 0 .3 0 .4zm-3 .1c0 .8.3 1.4.8 1.4.5 0 .8-.5.8-1.4 0-.9-.3-1.5-.8-1.5-.5 0-.8.7-.8 1.5zm.8 5.6l4.5-8h1l-4.5 8zm7.8-2.5c.1 1.2-.7 2.3-1.9 2.5-.1 0-.1 0-.2 0-1.2 0-2.1-1-2.1-2.2 0-.1 0-.1 0-.2-.1-1.2.8-2.3 2-2.4.1 0 .1 0 .2 0 1.1 0 2.1.9 2.1 2-.1.1-.1.2-.1.3zm-2.9.1c0 .8.3 1.4.8 1.4.5 0 .8-.5.8-1.4 0-.9-.3-1.4-.9-1.4-.6 0-.7.6-.7 1.4z" fill="#ac382e" fill-rule="evenodd"/><path id="path4156" d="m23.5 15.1c-.8-.8-2.1-.8-2.9 0-.4.4-.5.8-.5 1.3-.7-.1-1.4-.3-2.1-.6-.3-.1-.7-.2-1.1-.4-.5-2-1.3-4.7-1.9-6.7-.7-2.3-2.3-2-2.3-2 0 0 1.3 4.7 2.3 8.1-3.4-1-8-2.3-8-2.3 0 0-.3 1.7 2 2.3 1.9.6 4.6 1.4 6.6 1.9.1.4.3.8.4 1.1.3.7.5 1.4.6 2.1-.5 0-1 .2-1.3.5-.8.8-.8 2.1 0 2.9.8.8 2.1.8 2.9 0 .5-.5.7-1.3.5-2-.6-1.4-1-2.8-1.3-4.3 1.5.3 2.9.7 4.3 1.3.7.2 1.4.1 1.9-.5.7-.6.7-1.9-.1-2.7zm-6 7.7c-.5.4-1.2.4-1.6-.1 0 0 0 0 0 0l0 0c-.3-.5-.2-1.1.2-1.4.5-.3 1.1-.2 1.4.2.3.5.3 1 0 1.3zm5.4-5.4c0 0 0 .1 0 0l0 0c-.4.5-1.2.6-1.7.2-.5-.4-.6-1.1-.2-1.7.4-.5 1.1-.6 1.7-.2 0 0 .1.1.1.1.4.5.5 1.2.1 1.6z" fill="#e74c3c"/></g></g></svg>