<svg xmlns="http://www.w3.org/2000/svg" viewBox="0 0 48 24" enable-background="new 0 0 48 24"><path fill="#939393" d="m23.8 10.2c-.7-1.6-1.5-3.3-2.2-4.9-.5-1.1-1-2.2-1.5-3.4-.3-.7-.8-1-1.6-.9-.4 0-.8.1-1.2.2-2 .4-3.8 1.3-5.5 2.4-1.4.9-2.8 1.8-4.2 2.7-1.4.9-3 1.5-4.7 1.8-1.1.1-1.5 1.1-1.1 2.1.2.5.4 1 .6 1.5.1.3.3.6.4 1-.2 0-.3.1-.5.1-1.1.2-1.6 1.1-1.2 2.1.2.4.4.8.6 1.2 1 2.3 2.1 4.7 3.1 7 .3.7.9 1.1 1.7.9.6-.1 1.2-.2 1.7-.3 1.9-.5 3.6-1.4 5.2-2.5 1.3-.8 2.6-1.7 4-2.5 1.4-.9 3-1.5 4.7-1.7 1.1-.1 1.6-1.1 1.1-2.1-.1-.3-.2-.5-.4-.8-.2-.5-.5-1.1-.7-1.7.2 0 .3 0 .4-.1.3-.1.6-.1.8-.3.7-.4.9-1.1.5-1.8"/><path fill="#5a5a5a" d="m1.8 11.6c-.2-.3-.3-.7-.4-1-.2-.5-.4-1-.6-1.5-.4-1 .1-1.9 1.1-2.1 1.8-.2 3.3-.9 4.8-1.8 1.4-.9 2.8-1.8 4.2-2.7 1.7-1.1 3.5-2 5.5-2.4.4-.1.8-.1 1.2-.2.7-.1 1.2.2 1.6.9.5 1.1 1 2.2 1.5 3.4.7 1.6 1.5 3.3 2.2 4.9.3.8.2 1.5-.4 1.9-.2.2-.5.2-.8.3-.1 0-.3 0-.4.1.3.6.5 1.1.7 1.7.1.3.2.5.4.8.4 1-.1 1.9-1.1 2.1-1.7.2-3.2.9-4.7 1.7-1.3.8-2.7 1.7-4 2.5-1.6 1-3.3 2-5.2 2.5-.6.2-1.1.3-1.7.3-.8.1-1.3-.2-1.7-.9-1-2.3-2.1-4.7-3.1-7-.2-.4-.4-.8-.6-1.2-.4-1 .1-2 1.2-2.1 0-.2.2-.2.3-.2m19.8-1.7c-.3-.7-.6-1.4-1-2.1-.9-2-1.8-4.1-2.7-6.1-.1-.2-.2-.2-.3-.2-.4.1-.9.2-1.3.3-1.8.4-3.3 1.2-4.8 2.1-1.4.9-2.8 1.8-4.2 2.7-1 .6-2.2 1.1-3.3 1.5-.7.2-1.3.3-1.9.4 0 .1.1.2.1.3.3.6.5 1.2.8 1.7.9 2.1 1.9 4.2 2.8 6.3 0 .1.1.2.2.1.3-.1.6-.1.9-.2 1.6-.4 3.1-1.1 4.5-1.9 1.3-.8 2.6-1.7 3.9-2.5 1.4-.9 2.8-1.6 4.4-2.1.7-.1 1.2-.2 1.9-.3m-2.2 1.2c-.1 0-.2 0-.2.1-.9.4-1.8.8-2.7 1.3-1.7 1-3.4 2.2-5.2 3.2-1.8 1.1-3.7 1.8-5.7 2-.2 0-.3 0-.4-.2-.6-1.4-1.3-2.8-1.9-4.2-.2-.5-.2-.5-.8-.4-.3.1-.7.1-1.1.2.1.2.2.4.3.6 1.2 2.6 2.3 5.1 3.5 7.7.1.1.1.2.3.2.3-.1.6-.1.9-.2 1.5-.3 2.8-.9 4.1-1.7 1.5-.9 2.9-1.8 4.4-2.8 1.3-.8 2.7-1.6 4.2-2 .6-.2 1.3-.3 1.9-.4-.5-1.1-1-2.2-1.6-3.4"/><g fill="#fff"><path d="m21.6 9.9c-.6.1-1.2.2-1.8.4-1.6.4-3 1.2-4.4 2.1-1.3.8-2.6 1.7-3.9 2.5-1.4.9-2.9 1.6-4.5 1.9-.3.1-.6.1-.9.2-.2 0-.2 0-.3-.2-.9-2.1-1.9-4.2-2.8-6.3-.3-.6-.6-1.2-.8-1.7 0-.1-.1-.2-.1-.3.6-.1 1.3-.3 1.9-.4 1.2-.3 2.3-.9 3.3-1.5 1.4-.9 2.8-1.8 4.2-2.7 1.5-.9 3-1.8 4.7-2.2.4-.1.9-.2 1.3-.3.2 0 .3 0 .3.2.9 2 1.8 4.1 2.7 6.1.4.7.7 1.5 1.1 2.2"/><path d="m19.4 11.1c.5 1.1 1 2.2 1.5 3.3-.7.1-1.3.3-1.9.4-1.5.4-2.9 1.2-4.2 2-1.5.9-2.9 1.9-4.4 2.8-1.3.8-2.6 1.4-4.1 1.7-.3.1-.6.1-.9.2-.1 0-.2 0-.3-.2-1.1-2.6-2.3-5.1-3.5-7.7-.1-.2-.2-.4-.3-.6.5 0 .9 0 1.3-.1.6-.1.6-.1.8.4.6 1.4 1.3 2.8 1.9 4.2.1.2.2.3.4.2 2.1-.2 4-.9 5.7-2 1.7-1 3.4-2.2 5.2-3.2.8-.5 1.8-.9 2.7-1.3 0 0 .1 0 .1-.1"/></g><path fill="#5a5a5a" d="m6.7 13.9c-.3-.5-.6-.9-.9-1.4.4-.3.8-.6 1.2-.9-.3-.7-.6-1.5-1-2.2-.2-.5-.1-.7.4-.9.5-.1.9-.3 1.4-.5.2.7.4 1.3.7 1.9.3.5.7 1.1 1.1 1.5.6.6 1.4.2 1.5-.6.1-.4 0-.8-.1-1.2-.1-.7-.3-1.3-.4-2-.5-2.5 1.9-3.8 3.7-3.1.6.2 1.1.5 1.6.9.4-.2.8-.5 1.3-.9.3.5.6.9.9 1.4-.4.3-.8.6-1.2.9.2.7.5 1.4.7 2.1.1.3 0 .5-.4.6-.4.1-.9.3-1.3.5-.2-.6-.3-1.1-.5-1.6-.2-.5-.5-.9-.8-1.2-.2-.2-.7-.4-1-.3-.4.1-.6.5-.5.9.1.6.2 1.3.3 1.9.1.6.2 1.3.1 1.9-.1 1.3-.8 2.2-2 2.7-1.1.5-2.2.1-3-.7-.4-.4-.7-.4-1.1 0-.1-.1-.4 0-.7.3"/><path fill="#939393" d="m47.8 10.2c-.7-1.6-1.5-3.3-2.2-4.9-.5-1.1-1-2.2-1.5-3.4-.3-.7-.8-1-1.6-.9-.4 0-.8.1-1.2.2-2 .4-3.8 1.3-5.5 2.4-1.4.9-2.8 1.8-4.2 2.7-1.5.9-3.1 1.6-4.8 1.8-1.1.1-1.5 1.1-1.1 2.1.2.5.4 1 .6 1.5.1.3.3.6.4 1-.2 0-.3.1-.5.1-1.1.2-1.6 1.1-1.2 2.1.2.4.4.8.6 1.2 1 2.3 2.1 4.7 3.1 7 .3.7.9 1.1 1.7.9.6-.1 1.2-.2 1.7-.3 1.9-.5 3.6-1.4 5.2-2.5 1.3-.8 2.6-1.7 4-2.5 1.4-.9 3-1.5 4.7-1.7 1.1-.1 1.6-1.1 1.1-2.1-.1-.3-.2-.5-.4-.8-.2-.5-.5-1.1-.7-1.7.2 0 .3 0 .4-.1.3-.1.6-.1.8-.3.8-.4 1-1.1.6-1.8"/><path fill="#ac382e" d="m25.8 11.6c-.2-.3-.3-.7-.4-1-.2-.5-.4-1-.6-1.5-.4-1 .1-1.9 1.1-2.1 1.8-.2 3.3-.9 4.8-1.8 1.4-.9 2.8-1.8 4.2-2.7 1.7-1.1 3.5-2 5.5-2.4.4-.1.8-.1 1.2-.2.7-.1 1.2.2 1.6.9.5 1.1 1 2.2 1.5 3.4.7 1.6 1.5 3.3 2.2 4.9.3.8.2 1.5-.4 1.9-.2.2-.5.2-.8.3-.1 0-.3 0-.4.1.3.6.5 1.1.7 1.7.1.3.2.5.4.8.4 1-.1 1.9-1.1 2.1-1.7.2-3.2.9-4.7 1.7-1.3.8-2.7 1.7-4 2.5-1.6 1-3.3 2-5.2 2.5-.6.2-1.1.3-1.7.3-.8.1-1.3-.2-1.7-.9-1-2.3-2.1-4.7-3.1-7-.2-.4-.4-.8-.6-1.2-.4-1 .1-2 1.2-2.1 0-.2.2-.2.3-.2m19.8-1.7c-.3-.7-.6-1.4-1-2.1-.9-2-1.8-4.1-2.7-6.1-.1-.2-.2-.2-.3-.2-.4.1-.9.2-1.3.3-1.8.4-3.3 1.2-4.8 2.1-1.4.9-2.8 1.8-4.2 2.7-1 .6-2.2 1.1-3.3 1.5-.6.2-1.2.3-1.9.4 0 .1.1.2.1.3.3.6.5 1.2.8 1.7.9 2.1 1.9 4.2 2.8 6.3.1.1.1.2.3.2.3-.1.6-.1.9-.2 1.6-.4 3.1-1.1 4.5-1.9 1.3-.8 2.6-1.7 3.9-2.5 1.4-.9 2.8-1.6 4.4-2.1.6-.2 1.1-.3 1.8-.4m-2.2 1.2c-.1 0-.2 0-.2.1-.9.4-1.8.8-2.7 1.3-1.7 1-3.4 2.2-5.2 3.2-1.8 1.1-3.7 1.8-5.7 2-.2 0-.3 0-.4-.2-.6-1.4-1.3-2.8-1.9-4.2-.2-.5-.2-.5-.8-.4-.4.1-.8.2-1.2.2.1.2.2.4.3.6 1.2 2.6 2.3 5.1 3.5 7.7.1.1.1.2.3.2.3-.1.6-.1.9-.2 1.5-.3 2.8-.9 4.1-1.7 1.5-.9 2.9-1.8 4.4-2.8 1.3-.8 2.7-1.6 4.2-2 .6-.2 1.3-.3 1.9-.4-.4-1.1-.9-2.2-1.5-3.4"/><g fill="#fff"><path d="m45.6 9.9c-.6.1-1.2.2-1.8.4-1.6.4-3 1.2-4.4 2.1-1.3.8-2.6 1.7-3.9 2.5-1.4.9-2.9 1.6-4.5 1.9-.3.1-.6.1-.9.2-.2 0-.2 0-.3-.2-.9-2.1-1.9-4.2-2.8-6.3-.3-.6-.5-1.2-.8-1.7 0-.1-.1-.2-.1-.3.6-.1 1.3-.3 1.9-.4 1.2-.3 2.3-.9 3.3-1.5 1.4-.9 2.8-1.8 4.2-2.7 1.5-.9 3-1.8 4.7-2.2.4-.1.9-.2 1.3-.3.2 0 .3 0 .3.2.9 2 1.8 4.1 2.7 6.1.4.7.7 1.5 1.1 2.2"/><path d="m43.4 11.1c.5 1.1 1 2.2 1.5 3.3-.7.1-1.3.3-1.9.4-1.5.4-2.9 1.2-4.2 2-1.5.9-2.9 1.9-4.4 2.8-1.3.8-2.6 1.4-4.1 1.7-.3.1-.6.1-.9.2-.1 0-.2 0-.3-.2-1.1-2.6-2.3-5.1-3.5-7.7-.1-.2-.2-.4-.3-.6.4-.1.8-.1 1.2-.2.6-.1.6-.1.8.4.6 1.4 1.3 2.8 1.9 4.2.1.2.2.3.4.2 2.1-.2 4-.9 5.7-2 1.7-1 3.4-2.2 5.2-3.2.8-.5 1.8-.9 2.7-1.3.1.1.2.1.2 0"/></g><path fill="#e74c3c" d="m30.7 13.9c-.3-.5-.6-.9-.9-1.4.4-.3.8-.6 1.2-.9-.3-.7-.6-1.5-1-2.2-.2-.4-.1-.7.4-.8.5-.1.9-.3 1.3-.5.3.7.4 1.3.7 1.9.3.5.7 1.1 1.1 1.5.6.6 1.4.2 1.5-.6.1-.4 0-.8-.1-1.2-.1-.7-.3-1.3-.4-2-.5-2.5 1.9-3.8 3.7-3.1.6.2 1.1.5 1.6.9.4-.2.8-.5 1.3-.9.3.5.6.9.9 1.4-.4.3-.8.6-1.2.9.2.7.5 1.4.7 2.1.1.3 0 .5-.4.6-.4.1-.9.3-1.3.5-.2-.6-.3-1.1-.5-1.6-.2-.5-.5-.9-.8-1.2-.2-.2-.7-.4-1-.3-.4.1-.6.5-.5.9.1.6.2 1.3.3 1.9.1.6.2 1.3.1 1.9-.1 1.3-.8 2.2-2 2.7-1.1.5-2.2.1-3-.7-.4-.4-.7-.4-1.1 0 0-.2-.3-.1-.6.2"/></svg>