<!-- Generated by IcoMoon.io -->
<svg version="1.1" xmlns="http://www.w3.org/2000/svg" width="32" height="32" viewBox="0 0 32 32">
<title>currencies</title>
<path class="fill-active" d="M30.4 11.733h-2.133v-2.133h-2.133v-3.2h-24.533v14.933h2.133v2.133h2.133v2.133h24.533zM25.067 7.467v3.2c-1.664-0.235-2.965-1.536-3.198-3.18l-0.002-0.020zM20.853 7.467c0.257 2.216 1.997 3.956 4.191 4.211l0.022 0.002v4.373c-2.216 0.257-3.956 1.997-4.211 4.191l-0.002 0.022h-13.973c-0.257-2.216-1.997-3.956-4.191-4.211l-0.022-0.002v-4.373c2.216-0.257 3.956-1.997 4.211-4.191l0.002-0.022zM25.067 17.067v3.2h-3.2c0.235-1.664 1.536-2.965 3.18-3.198l0.020-0.002zM2.667 7.467h3.2c-0.235 1.664-1.536 2.965-3.18 3.198l-0.020 0.002zM2.667 20.267v-3.2c1.664 0.235 2.965 1.536 3.198 3.18l0.002 0.020zM4.8 22.4v-1.067h21.333v-10.667h1.067v11.733zM29.333 24.533h-22.4v-1.067h21.333v-10.667h1.067z"></path>
<path class="fill-active" d="M11.733 13.579c0.21 0.176 0.449 0.329 0.705 0.45l0.020 0.009q0.405 0.181 0.821 0.341l0.768 0.288c0.214 0.084 0.396 0.177 0.568 0.285l-0.014-0.008c0.132 0.082 0.242 0.185 0.328 0.306l0.002 0.003c0.074 0.113 0.118 0.251 0.118 0.399 0 0.006-0 0.012-0 0.018l0-0.001c0.001 0.010 0.001 0.022 0.001 0.034 0 0.231-0.113 0.436-0.287 0.562l-0.002 0.001c-0.259 0.139-0.567 0.221-0.894 0.221-0.061 0-0.121-0.003-0.18-0.008l0.008 0.001c-0.006 0-0.013 0-0.020 0-0.46 0-0.905-0.066-1.325-0.19l0.033 0.008c-0.414-0.115-0.768-0.25-1.107-0.412l0.040 0.017-0.555 1.472c0.226 0.111 0.511 0.23 0.804 0.334l0.060 0.018c0.446 0.152 0.963 0.255 1.498 0.287l0.017 0.001v1.525h1.611v-1.568c0.398-0.055 0.757-0.171 1.086-0.34l-0.019 0.009c0.271-0.145 0.501-0.33 0.691-0.552l0.003-0.003c0.167-0.195 0.299-0.426 0.38-0.679l0.004-0.014c0.073-0.226 0.116-0.487 0.117-0.757v-0.001c0.001-0.021 0.001-0.046 0.001-0.071 0-0.655-0.288-1.244-0.745-1.644l-0.003-0.002c-0.242-0.211-0.515-0.396-0.81-0.544l-0.022-0.010c-0.286-0.146-0.638-0.298-1.001-0.427l-0.066-0.021-0.629-0.235c-0.169-0.069-0.313-0.144-0.449-0.231l0.011 0.007c-0.11-0.066-0.2-0.156-0.265-0.263l-0.002-0.003c-0.054-0.097-0.085-0.213-0.085-0.336 0-0.006 0-0.011 0-0.017v0.001c-0-0.004-0-0.009-0-0.013 0-0.213 0.104-0.402 0.265-0.519l0.002-0.001c0.217-0.131 0.478-0.208 0.758-0.208 0.045 0 0.089 0.002 0.133 0.006l-0.006-0c0.007-0 0.014-0 0.022-0 0.408 0 0.805 0.047 1.186 0.135l-0.035-0.007c0.379 0.085 0.706 0.191 1.020 0.324l-0.039-0.015 0.395-1.536c-0.209-0.093-0.462-0.181-0.722-0.248l-0.036-0.008c-0.327-0.087-0.716-0.155-1.114-0.19l-0.027-0.002v-1.355h-1.632v1.397c-0.364 0.063-0.69 0.178-0.988 0.339l0.017-0.008c-0.261 0.14-0.481 0.322-0.658 0.54l-0.003 0.004c-0.162 0.202-0.29 0.44-0.369 0.7l-0.004 0.015c-0.075 0.236-0.117 0.508-0.117 0.789 0 0.008 0 0.015 0 0.023v-0.001c-0.001 0.022-0.001 0.049-0.001 0.075 0 0.614 0.282 1.162 0.723 1.522l0.004 0.003z"></path>
</svg>
