<svg enable-background="new 0 0 48 24" viewBox="0 0 48 24" xmlns="http://www.w3.org/2000/svg"><defs><symbol viewBox="-6 -5 12 11.3"><path d="m2-2.7c0-.2.2-.3.5-.3h1c .3 0 .5.1.5.3v4.7h1.5l-2.5 4.3-2.5-4.3h1.5z" fill="#fff"/></symbol></defs><g fill="#939393"><path d="m6.2 7.1l1.4-.5-2.1-5.6h-1.5l1.1 3h-4.1v2h4.8z"/><path d="m11.6 21.7l-1.3-2.5c-.6.5-1 1.3-1 2.2 0 1.1.6 2.1 1.5 2.6h3c .9-.5 1.5-1.5 1.5-2.6 0-.4-.1-.8-.2-1.1z"/><path d="m20.9 4.2c-.1-.4-.5-.6-.9-.7l3.4 9.5v2l .3-.1c.1 0 .2-.1.2-.1v-2.1z"/><path d="m15.7 19.4c.1.3.4 1.3.5 1.6l7.8-2.9v-2z"/></g><g fill="#5a5a5a"><path d="m23.4 12.7c.2.5-.1 1.1-.6 1.3l-8.6 3.1c-1-.5-1.6-.7-2.6-1.2l-3.1-8.6c-.2-.5.1-1.1.6-1.3l9.5-3.5c.5-.2 1.1.1 1.3.6z"/><path d="m4.5 0h-1.5l6.3 17c .4-.3.9-.4 1.4-.5z"/><path d="m23.8 15.8c-.2-.5-.8-.8-1.3-.6l-7.9 2.9c.4.5.6 1.2.7 1.9l7.9-2.9c.5-.2.8-.8.6-1.3"/><circle cx="11.3" cy="20.4" r="3"/><path d="m0 3h5v2h-5z"/></g><g fill="#fff"><circle cx="11.3" cy="20.4" r="1.3"/><path d="m21.5 11.5c-.1-.2-.3-.3-.5-.2l-8 2.9c-.2.1-.3.3-.2.5.1.2.3.3.5.2l8-2.9c.1-.1.2-.3.2-.5"/><path d="m13.7 12.8c.1.2.3.2.5.1l.7-.3c.2-.1.3-.2.3-.4l-1.2-3.3 1-.4-3-2.5-.7 3.8 1.1-.4z"/><path d="m18.1 11.2c.1.2.3.2.5.1l.7-.3c.2-.1.3-.2.3-.4l-1.2-3.4 1.1-.4-3-2.5-.7 3.8 1.1-.4z"/></g><g fill="#939393"><path d="m30.2 7.1l1.4-.5-2.1-5.6h-1.5l1.1 3h-4.1v2h4.8z"/><path d="m35.6 21.7l-1.3-2.5c-.6.5-1 1.3-1 2.2 0 1.1.6 2.1 1.5 2.6h3c .9-.5 1.5-1.5 1.5-2.6 0-.4-.1-.8-.2-1.1z"/><path d="m44.9 4.2c-.1-.4-.5-.6-.9-.7l3.4 9.5v2l .3-.1c.1 0 .2-.1.2-.1v-2.1z"/><path d="m39.7 19.4c.1.3.4 1.3.5 1.6l7.8-2.9v-2z"/></g><path d="m47.4 12.7c.2.5-.1 1.1-.6 1.3l-8.6 3.1c-1-.5-1.6-.7-2.6-1.2l-3.1-8.6c-.2-.5.1-1.1.6-1.3l9.5-3.5c.5-.2 1.1.1 1.3.6z" fill="#e74c3c"/><g fill="#ac382e"><path d="m28.5 0h-1.5l6.3 17c .4-.3.9-.4 1.4-.5z"/><path d="m47.8 15.8c-.2-.5-.8-.8-1.3-.6l-7.9 2.9c.4.5.6 1.2.7 1.9l7.9-2.9c.5-.2.8-.8.6-1.3"/><circle cx="35.3" cy="20.4" r="3"/><path d="m24 3h5v2h-5z"/></g><g fill="#fff"><circle cx="35.3" cy="20.4" r="1.3"/><path d="m45.5 11.5c-.1-.2-.3-.3-.5-.2l-8 2.9c-.2.1-.3.3-.2.5.1.2.3.3.5.2l8-2.9c.1-.1.2-.3.2-.5"/><path d="m37.7 12.8c.1.2.3.2.5.1l.7-.3c.2-.1.3-.2.3-.4l-1.2-3.3 1-.4-3-2.5-.7 3.8 1.1-.4z"/><path d="m42.1 11.2c.1.2.3.2.5.1l.7-.3c.2-.1.3-.2.3-.4l-1.2-3.4 1.1-.4-3-2.5-.7 3.8 1.1-.4z"/></g></svg>