<!-- Generated by IcoMoon.io -->
<svg version="1.1" xmlns="http://www.w3.org/2000/svg" width="32" height="32" viewBox="0 0 32 32">
<title>delivery-methods</title>
<path class="fill-active" d="M19.392 20.213l8.245-2.997c0.37-0.139 0.629-0.49 0.629-0.901 0-0.113-0.019-0.221-0.055-0.322l0.002 0.007-3.328-9.173c-0.137-0.374-0.49-0.636-0.904-0.636-0.12 0-0.235 0.022-0.34 0.062l0.007-0.002-9.152 3.349c-0.374 0.137-0.636 0.49-0.636 0.904 0 0.12 0.022 0.235 0.062 0.34l-0.002-0.007 2.997 8.245z"></path>
<path class="fill-active" d="M28.64 20.363c-0.155-0.411-0.544-0.698-1.001-0.698-0.135 0-0.264 0.025-0.383 0.071l0.007-0.002-9.28 3.733c-0.585-0.814-1.526-1.339-2.591-1.344h-0.075l-6.571-17.067c-0.357-0.906-1.224-1.536-2.239-1.536-0 0-0.001 0-0.001 0h0l1.184 3.2h-3.328c-0.589 0-1.067 0.478-1.067 1.067s0.478 1.067 1.067 1.067v0h4.096l5.333 13.696c-0.979 0.56-1.628 1.598-1.628 2.787 0 1.767 1.433 3.2 3.2 3.2 1.712 0 3.11-1.345 3.196-3.036l0-0.008 9.451-3.755c0.411-0.155 0.698-0.544 0.698-1.001 0-0.135-0.025-0.264-0.071-0.383l0.002 0.007zM15.381 26.667c-0.784 0-1.419-0.635-1.419-1.419s0.635-1.419 1.419-1.419c0.784 0 1.419 0.635 1.419 1.419v0c0 0.784-0.635 1.419-1.419 1.419v0z"></path>
</svg>
