<svg id="Layer_1" enable-background="new 0 0 57.069 82.469" viewBox="0 0 57.069 82.469" xmlns="http://www.w3.org/2000/svg"><path clip-rule="evenodd" d="m45.628 17.453l0 0-25.466 44.129-10.094 5.798-10.068 5.823v-11.621-11.646l25.467-44.129c3.209-5.564 10.328-7.454 15.892-4.245 5.565 3.209 7.481 10.328 4.269 15.891zm-45.628 58.83h57.069v6.187h-57.069zm4.581-25.104l.026 9.291 4.141 2.381 8.049-4.633zm13.406 4.969l19.256-33.362-12.19-7.039-19.283 33.36zm21.664-37.529l1.992-3.469c1.942-3.364.803-7.661-2.562-9.627-3.391-1.942-7.686-.776-9.628 2.588l-1.992 3.467z" fill="#010202" fill-rule="evenodd"/></svg>