<?xml version="1.0" encoding="iso-8859-1"?>
<!-- Generator: Adobe Illustrator 19.2.1, SVG Export Plug-In . SVG Version: 6.00 Build 0)  -->
<svg version="1.1" id="Layer_1" xmlns="http://www.w3.org/2000/svg" xmlns:xlink="http://www.w3.org/1999/xlink" x="0px" y="0px"
	 viewBox="0 0 57.069 82.469" style="enable-background:new 0 0 57.069 82.469;" xml:space="preserve">
<path style="fill-rule:evenodd;clip-rule:evenodd;fill:#010202;" d="M45.628,17.453L45.628,17.453L20.162,61.582L10.068,67.38
	L0,73.203V61.582V49.936L25.467,5.807c3.209-5.564,10.328-7.454,15.892-4.245C46.924,4.771,48.84,11.89,45.628,17.453L45.628,17.453
	z M0,76.283h57.069v6.187H0V76.283z M4.581,51.179l0.026,9.291l4.141,2.381l8.049-4.633L4.581,51.179z M17.987,56.148l19.256-33.362
	l-12.19-7.039L5.77,49.107L17.987,56.148z M39.651,18.619l1.992-3.469c1.942-3.364,0.803-7.661-2.562-9.627
	c-3.391-1.942-7.686-0.776-9.628,2.588l-1.992,3.467L39.651,18.619z"/>
</svg>
