<svg xmlns="http://www.w3.org/2000/svg" xmlns:xlink="http://www.w3.org/1999/xlink" viewBox="0 0 48 24" enable-background="new 0 0 48 24"><symbol id="0" viewBox="-12 -12 24 24"><path fill="#939393" d="m-4.7-4c.1 0 .2 0 .3 0h12.9c.4 0 .8.3.9.6l2.6 8.3v1.1h-17l-.2 1.2c-.1.4-.3.8-.6 1l-4.2 2.8h-1v-2l3.2-1.8c.5-.3.8-.8.9-1.3l1.4-7.5c.1-.3 0-.6-.2-.8l-4.3-4.5c-.7-.7-.2-2.1.8-2.1h19.2v2h-16.8c-.2 0-.3.4-.2.6l2.3 2.4" id="2"/><path fill="#939393" d="m-2-12h-4v3h4z" id="3"/><path fill="#939393" d="m8-12h-4v3h4z" id="4"/><path fill="#e74c3c" d="m-5.7-3c.1 0 .2 0 .3 0h12.9c.4 0 .8.3.9.6l2.6 8.3c.1.3 0 .6-.1.8-.3.2-.6.3-.9.3h-16l-.2 1.2c-.1.4-.3.8-.6 1l-4.2 2.8h-1v-2l3.2-1.8c.5-.3.8-.8.9-1.3l1.4-7.5c.1-.3 0-.6-.2-.8l-4.3-4.5c-.7-.7-.2-2.1.8-2.1h3.6c-.4 0-.7-.7-.7-1.3 0-1.1.9-1.8 1.9-1.8 1.1 0 1.9.7 1.9 1.8.1.6-.2 1.3-.6 1.3h7.9c-.4 0-.7-.7-.7-1.3 0-1.1.9-1.8 1.9-1.8 1.1 0 1.9.7 1.9 1.8 0 .6-.2 1.3-.7 1.3h2.8v2h-16.8c-.2 0-.3.4-.2.6l2.3 2.4"/><path fill="#fff" d="M8.7 5 6.8-1-4.5-1-5.7 5z" id="5"/></symbol><symbol id="1" viewBox="-12 -12 24 24"><use xlink:href="#2"/><use xlink:href="#3"/><use xlink:href="#4"/><path fill="#5a5a5a" d="m-5.7-3c.1 0 .2 0 .3 0h12.9c.4 0 .8.3.9.6l2.6 8.3c.1.3 0 .6-.1.8-.3.2-.6.3-.9.3h-16l-.2 1.2c-.1.4-.3.8-.6 1l-4.2 2.8h-1v-2l3.2-1.8c.5-.3.8-.8.9-1.3l1.4-7.5c.1-.3 0-.6-.2-.8l-4.3-4.5c-.7-.7-.2-2.1.8-2.1h3.6c-.4 0-.7-.7-.7-1.3 0-1.1.9-1.8 1.9-1.8 1.1 0 1.9.7 1.9 1.8.1.6-.2 1.3-.6 1.3h7.9c-.4 0-.7-.7-.7-1.3 0-1.1.9-1.8 1.9-1.8 1.1 0 1.9.7 1.9 1.8 0 .6-.2 1.3-.7 1.3h2.8v2h-16.8c-.2 0-.3.4-.2.6l2.3 2.4"/><use xlink:href="#5"/></symbol><use xlink:href="#1" width="24" height="24" x="-12" y="-12" transform="matrix(1 0 0-1 12 12)"/><use xlink:href="#0" width="24" height="24" x="-12" y="-12" transform="matrix(1 0 0-1 36 12)"/></svg>