<svg enable-background="new 0 0 48 24" viewBox="0 0 48 24" xmlns="http://www.w3.org/2000/svg" xmlns:xlink="http://www.w3.org/1999/xlink"><defs><symbol id="0" viewBox="-12 -12 24 24"><path id="2" d="m-4.7-4c .1 0 .2 0 .3 0h12.9c.4 0 .8.3.9.6l2.6 8.3v1.1h-17l-.2 1.2c-.1.4-.3.8-.6 1l-4.2 2.8h-1v-2l3.2-1.8c.5-.3.8-.8.9-1.3l1.4-7.5c.1-.3 0-.6-.2-.8l-4.3-4.5c-.7-.7-.2-2.1.8-2.1h19.2v2h-16.8c-.2 0-.3.4-.2.6z" fill="#939393"/><path id="3" d="m-2-12h-4v3h4z" fill="#939393"/><path id="4" d="m8-12h-4v3h4z" fill="#939393"/><path d="m-5.7-3c .1 0 .2 0 .3 0h12.9c.4 0 .8.3.9.6l2.6 8.3c.1.3 0 .6-.1.8-.3.2-.6.3-.9.3h-16l-.2 1.2c-.1.4-.3.8-.6 1l-4.2 2.8h-1v-2l3.2-1.8c.5-.3.8-.8.9-1.3l1.4-7.5c.1-.3 0-.6-.2-.8l-4.3-4.5c-.7-.7-.2-2.1.8-2.1h3.6c-.4 0-.7-.7-.7-1.3 0-1.1.9-1.8 1.9-1.8 1.1 0 1.9.7 1.9 1.8.1.6-.2 1.3-.6 1.3h7.9c-.4 0-.7-.7-.7-1.3 0-1.1.9-1.8 1.9-1.8 1.1 0 1.9.7 1.9 1.8 0 .6-.2 1.3-.7 1.3h2.8v2h-16.8c-.2 0-.3.4-.2.6z" fill="#e74c3c"/><path id="5" d="m8.7 5l-1.9-6h-11.3l-1.2 6z" fill="#fff"/></symbol><symbol id="1" viewBox="-12 -12 24 24"><use xlink:href="#2"/><use xlink:href="#3"/><use xlink:href="#4"/><path d="m-5.7-3c .1 0 .2 0 .3 0h12.9c.4 0 .8.3.9.6l2.6 8.3c.1.3 0 .6-.1.8-.3.2-.6.3-.9.3h-16l-.2 1.2c-.1.4-.3.8-.6 1l-4.2 2.8h-1v-2l3.2-1.8c.5-.3.8-.8.9-1.3l1.4-7.5c.1-.3 0-.6-.2-.8l-4.3-4.5c-.7-.7-.2-2.1.8-2.1h3.6c-.4 0-.7-.7-.7-1.3 0-1.1.9-1.8 1.9-1.8 1.1 0 1.9.7 1.9 1.8.1.6-.2 1.3-.6 1.3h7.9c-.4 0-.7-.7-.7-1.3 0-1.1.9-1.8 1.9-1.8 1.1 0 1.9.7 1.9 1.8 0 .6-.2 1.3-.7 1.3h2.8v2h-16.8c-.2 0-.3.4-.2.6z" fill="#5a5a5a"/><use xlink:href="#5"/></symbol></defs><use height="24" transform="matrix(1 0 0 -1 12 12)" width="24" x="-12" xlink:href="#1" y="-12"/><use height="24" transform="matrix(1 0 0 -1 36 12)" width="24" x="-12" xlink:href="#0" y="-12"/></svg>