<!-- Generated by IcoMoon.io -->
<svg version="1.1" xmlns="http://www.w3.org/2000/svg" width="32" height="32" viewBox="0 0 32 32">
<title>shop</title>
<path class="fill-active" d="M25.664 17.312c0.248-0.023 0.445-0.213 0.48-0.456l0-0.003 0.992-7.776c0.002-0.019 0.004-0.042 0.004-0.064 0-0.288-0.229-0.523-0.515-0.533l-15.681-0.416-1.067-2.507c-0.077-0.175-0.24-0.3-0.435-0.32l-0.002-0-3.979-0.437c-0.020-0.003-0.043-0.004-0.066-0.004-0.271 0-0.494 0.207-0.52 0.471l-0 0.002c-0.003 0.021-0.004 0.044-0.004 0.069 0 0.27 0.2 0.493 0.46 0.528l0.003 0 3.648 0.395 4.992 11.563-2.485 3.136c-0.072 0.090-0.115 0.205-0.115 0.331 0 0.294 0.237 0.532 0.531 0.533h14.549c0.295 0 0.533-0.239 0.533-0.533s-0.239-0.533-0.533-0.533v0h-13.451l1.856-2.347zM25.995 9.525l-0.864 6.763-10.208 1.067-3.531-8.213z"></path>
<path class="fill-active" d="M12.075 24.971c0 1.231 0.998 2.229 2.229 2.229s2.229-0.998 2.229-2.229c0-1.231-0.998-2.229-2.229-2.229v0c-1.231 0-2.229 0.998-2.229 2.229v0zM15.467 24.971c0 0.642-0.521 1.163-1.163 1.163s-1.163-0.521-1.163-1.163c0-0.642 0.521-1.163 1.163-1.163v0c0.642 0 1.163 0.521 1.163 1.163v0z"></path>
<path class="fill-active" d="M24.48 22.741c-0.013-0-0.028-0-0.043-0-1.231 0-2.229 0.998-2.229 2.229s0.998 2.229 2.229 2.229c1.231 0 2.229-0.998 2.229-2.229v-0c0-0 0-0 0-0 0-1.216-0.974-2.205-2.184-2.229l-0.002-0zM24.48 26.133c-0.013 0-0.028 0.001-0.043 0.001-0.642 0-1.163-0.521-1.163-1.163s0.521-1.163 1.163-1.163c0.642 0 1.162 0.52 1.163 1.162v0c0 0 0 0 0 0.001 0 0.627-0.497 1.138-1.118 1.162l-0.002 0z"></path>
</svg>
