<!-- Generated by IcoMoon.io -->
<svg version="1.1" xmlns="http://www.w3.org/2000/svg" width="32" height="32" viewBox="0 0 32 32">
<title>manage-item-sizes</title>
<path class="fill-active" d="M6.667 4.8c0.295 0 0.533-0.239 0.533-0.533s-0.239-0.533-0.533-0.533v0h-3.2c-0.295 0-0.533 0.239-0.533 0.533v0 23.467c0 0.295 0.239 0.533 0.533 0.533v0h24.533c0.295 0 0.533-0.239 0.533-0.533v0-3.2c0-0.295-0.239-0.533-0.533-0.533s-0.533 0.239-0.533 0.533v0 2.667h-2.133v-1.6c0-0.295-0.239-0.533-0.533-0.533s-0.533 0.239-0.533 0.533v0 1.6h-2.133v-1.6c0-0.295-0.239-0.533-0.533-0.533s-0.533 0.239-0.533 0.533v0 1.6h-2.133v-1.6c0-0.295-0.239-0.533-0.533-0.533s-0.533 0.239-0.533 0.533v0 1.6h-2.133v-1.6c0-0.295-0.239-0.533-0.533-0.533s-0.533 0.239-0.533 0.533v0 1.6h-2.133v-1.6c0-0.295-0.239-0.533-0.533-0.533s-0.533 0.239-0.533 0.533v0 1.6h-2.133v-1.6c0-0.295-0.239-0.533-0.533-0.533s-0.533 0.239-0.533 0.533v0 1.6h-4.267v-3.2h1.6c0.295 0 0.533-0.239 0.533-0.533s-0.239-0.533-0.533-0.533v0h-1.6v-2.133h1.6c0.295 0 0.533-0.239 0.533-0.533s-0.239-0.533-0.533-0.533v0h-1.6v-2.133h1.6c0.295 0 0.533-0.239 0.533-0.533s-0.239-0.533-0.533-0.533v0h-1.6v-2.133h1.6c0.295 0 0.533-0.239 0.533-0.533s-0.239-0.533-0.533-0.533v0h-1.6v-2.133h1.6c0.295 0 0.533-0.239 0.533-0.533s-0.239-0.533-0.533-0.533v0h-1.6v-2.133h1.6c0.295 0 0.533-0.239 0.533-0.533s-0.239-0.533-0.533-0.533v0h-1.6v-2.133z"></path>
<path class="fill-active" d="M18.752 23.851c0.052 0.019 0.113 0.030 0.176 0.030s0.124-0.011 0.18-0.031l-0.004 0.001 9.6-3.413c0.207-0.076 0.352-0.272 0.352-0.501v0-11.083c-0-0.229-0.145-0.425-0.348-0.5l-0.004-0.001h-0.149l-9.44-3.403c-0.052-0.019-0.113-0.029-0.176-0.029s-0.124 0.011-0.18 0.030l0.004-0.001-9.611 3.403c-0.207 0.076-0.352 0.272-0.352 0.501v0 11.093c0 0.229 0.145 0.425 0.348 0.5l0.004 0.001zM9.867 9.504l8.533 3.125v9.963l-8.533-3.029zM28 19.563l-8.533 3.029v-9.952l8.533-3.125zM18.944 11.733l-7.883-2.923 7.872-2.795 7.883 2.795z"></path>
</svg>
