<!-- Generated by IcoMoon.io -->
<svg version="1.1" xmlns="http://www.w3.org/2000/svg" width="32" height="32" viewBox="0 0 32 32">
<title>manage-items</title>
<path class="fill-active" d="M3.723 13.045v0c0 0 0 0 0 0 0 0.892 0.72 1.615 1.61 1.621h0.577l0.373 2.133 1.899 10.667h10.229c0.714 0.333 1.55 0.528 2.432 0.528 3.24 0 5.867-2.627 5.867-5.867 0-1.005-0.253-1.951-0.698-2.778l0.015 0.031-0.747 0.907c0.226 0.539 0.357 1.165 0.357 1.822 0 2.663-2.159 4.821-4.821 4.821s-4.821-2.159-4.821-4.821c0-2.663 2.159-4.821 4.821-4.821 1.032 0 1.988 0.324 2.773 0.876l-0.015-0.010 0.789-0.747c-0.983-0.773-2.239-1.24-3.604-1.24-3.234 0-5.856 2.622-5.856 5.856 0 1.721 0.742 3.268 1.924 4.34l0.005 0.004h-7.829l-1.813-10.667h17.632l-0.288 1.504 1.376-1.205 0.224-1.291h0.533c0.873-0.006 1.579-0.715 1.579-1.589 0-0.004 0-0.008-0-0.011v0.001c0-0.003 0-0.007 0-0.011 0-0.273-0.218-0.495-0.49-0.501h-3.627l-4.629-8.533h-2.955l1.163 2.133 3.477 6.4h-10.208l3.477-6.4 1.163-2.133h-2.976l-4.629 8.533h-3.744c-0.008-0-0.017-0.001-0.027-0.001-0.263 0-0.48 0.194-0.517 0.446l-0 0.003z"></path>
<path class="fill-active" d="M20.683 21.717l-2.624-1.131c-0.064 0-0.149 0-0.107 0.085l1.781 3.136 0.715 1.152c0.045 0.079 0.128 0.132 0.224 0.132s0.179-0.053 0.223-0.131l0.001-0.001c1.29-2.035 2.593-3.793 4.011-5.451l-0.053 0.064c0.949-1.163 2.048-2.464 3.381-4 0.181-0.245-0.384-0.405-0.683-0.139l-3.445 3.2-3.2 3.029c-0.031 0.045-0.083 0.075-0.141 0.075-0.030 0-0.059-0.008-0.084-0.022l0.001 0z"></path>
</svg>
