<svg xmlns="http://www.w3.org/2000/svg" viewBox="0 0 48 24" enable-background="new 0 0 48 24"><symbol viewBox="-6 -5 12 11.3"><path fill="#fff" d="M2-2.7C2-2.9,2.2-3,2.5-3h1C3.8-3,4-2.9,4-2.7V2h1.5L3,6.3L0.5,2H2V-2.7z"/></symbol><path fill="#939393" d="m20.9 14.4c.4.8.6 1.6.6 2.6 0 3-2.5 5.5-5.5 5.5-.8 0-1.6-.2-2.3-.5h-8.9l.4 2h9.6c.7 0 1.5 0 2.3 0 3 0 5.5-2.3 5.5-5.4 0-1.2-.4-2.4-1-3.3.7-.9 1.6-1.9 2.5-3 0-.7-.4-.4-.6-.2-.6.5-1.2 1.3-1.7 1.9l.1-.7c-.5.4-.8.8-1 1.1"/><path fill="#5a5a5a" d="m16 22.5c3 0 5.5-2.5 5.5-5.5 0-.9-.2-1.8-.6-2.6-2 2.5-3.3 4.2-4.2 5.6-.2.3-.5.5-.8.5-.3 0-.6-.2-.8-.5-.2-.3-.5-.8-.6-1 0 0-1.7-3-1.7-3-.1-.2-.1-.5 0-.8.1-.2.4-.4.7-.4.1 0 .2 0 .3.1l2.1.9 3.4-3.2c-.9-.7-2.1-1.1-3.3-1.1-3 0-5.5 2.5-5.5 5.5 0 1.6.7 3 1.7 4h-7.3l-1.7-10h16.5l-.2 1.4 1.3-1.2.2-1.2h.5c.8 0 1.5-.7 1.5-1.5 0-.3-.2-.5-.5-.5h-3.4l-4.3-8h-2.8l1.1 2 3.3 6h-.3-7-2.3l3.2-6 1.1-2h-2.8l-4.3 8h-3.5c-.3 0-.5.2-.5.5 0 .7.4 1.2 1 1.4.2.1.3.1.5.1h.5l.3 2 1.8 10h.6 8.9c.8.3 1.6.5 2.4.5"/><circle fill="#fff" cx="16" cy="17" r="4.5"/><g fill="#939393"><path d="m1.5 10s0 0 0 0c-.2 0-.3 0-.5-.1 0 0 0 0 0 .1 0 .8.6 1.8 1.3 2l-.3-2h-.5"/><path d="m20.8 11.2l1.1-1c.1-.1.2-.2.3-.2h-.7-.5l-.2 1.2"/><path d="m9.1 8l3-6h-2.1l-3.2 6z"/><path d="m13.1 2h-.1l3.1 6h.2z"/></g><path fill="#d6d6d6" d="m19.8 11h-16.6l1.7 10h7.3c-1.1-1-1.7-2.4-1.7-4 0-3 2.5-5.5 5.5-5.5 1.2 0 2.4.4 3.3 1.1l.2-.2.3-1.4"/><path fill="#5a5a5a" d="m22.3 10.7c-2.1 2-4.2 3.9-6.3 5.9-.1.1-.1 0-.2 0-.9-.4-1.6-.7-2.5-1.1-.1 0-.1 0-.1.1.8 1.4.8 1.5 1.7 2.9 0 0 .4.7.7 1.1.1.2.3.2.4 0 1.2-2 3.1-4.5 6.9-8.8.2-.2-.3-.3-.6-.1"/><path fill="#939393" d="m44.9 14.4c.4.8.6 1.6.6 2.6 0 3-2.5 5.5-5.5 5.5-.8 0-1.6-.2-2.3-.5h-8.9l.4 2h9.6c.7 0 1.5 0 2.3 0 3 0 5.5-2.3 5.5-5.4 0-1.2-.4-2.4-1-3.3.7-.9 1.6-1.9 2.5-3 0-.7-.4-.4-.6-.2-.6.5-1.2 1.3-1.7 1.9l.1-.7c-.5.4-.8.8-1 1.1"/><path fill="#ac382e" d="m40 22.5c3 0 5.5-2.5 5.5-5.5 0-.9-.2-1.8-.6-2.6-2 2.5-3.3 4.2-4.2 5.6-.2.3-.5.5-.8.5-.3 0-.6-.2-.8-.5-.2-.3-.5-.8-.6-1 0 0-1.7-3-1.7-3-.1-.2-.1-.5 0-.8.1-.2.4-.4.7-.4.1 0 .2 0 .3.1l2.1.9 3.4-3.2c-.9-.7-2.1-1.1-3.3-1.1-3 0-5.5 2.5-5.5 5.5 0 1.6.7 3 1.7 4h-7.2l-1.7-10h16.5l-.2 1.4 1.3-1.2.1-1.2h.5c.8 0 1.5-.7 1.5-1.5 0-.3-.2-.5-.5-.5h-3.4l-4.3-8h-2.8l1.1 2 3.3 6h-.3-7-2.3l3.3-6 1.1-2h-2.8l-4.4 8h-3.5c-.3 0-.5.2-.5.5 0 .7.4 1.2 1 1.4.1 0 .3.1.4.1h.6l.3 2 1.8 10h.6 8.9c.8.3 1.6.5 2.4.5"/><circle fill="#fff" cx="40" cy="17" r="4.5"/><g fill="#939393"><path d="m25.5 10s0 0 0 0c-.2 0-.3 0-.5-.1 0 0 0 0 0 .1 0 .8.6 1.8 1.4 2l-.4-2h-.5"/><path d="m44.8 11.2l1.1-1c.1-.1.2-.2.3-.2h-.7-.5l-.2 1.2"/><path d="m33.1 8l3-6h-2l-3.3 6z"/><path d="m37.1 2h-.1l3.1 6h.3z"/></g><path fill="#fff" d="m43.8 11h-16.5l1.7 10h7.3c-1.1-1-1.7-2.4-1.7-4 0-3 2.5-5.5 5.5-5.5 1.2 0 2.4.4 3.3 1.1l.2-.2.2-1.4"/><path fill="#e74c3c" d="m46.3 10.7c-2.1 2-4.2 3.9-6.3 5.9-.1.1-.1 0-.2 0-.9-.4-1.6-.7-2.5-1.1-.1 0-.1 0-.1.1.8 1.4.8 1.5 1.7 2.9 0 0 .4.7.7 1.1.1.2.3.2.4 0 1.2-2 3.1-4.5 6.9-8.8.3-.2-.3-.3-.6-.1"/></svg>