<svg xmlns="http://www.w3.org/2000/svg" viewBox="0 0 48 24" enable-background="new 0 0 48 24"><symbol viewBox="-6 -5 12 11.3"><path fill="#fff" d="M2-2.7C2-2.9,2.2-3,2.5-3h1C3.8-3,4-2.9,4-2.7V2h1.5L3,6.3L0.5,2H2V-2.7z"/></symbol><path fill="#939393" d="m24 16.4l-3.1-6.3-2.5 1.2v-2l.3-.2 2.2-4.3-5.7-2.6-2.2 3.5-5 .7-.8-1.9-4.5-2.5h-1.7v1.3l1.3 3.7v8.6l3.6 2.5 3 5.9 15.1-7.6"/><path fill="#d6d6d6" d="m11.5 4l2-3.2 5.4 2.5-2.2 4.3z"/><path fill="#939393" d="m6.3 4.8l5.3-.7 5.2 3.5-9.2 1.3z"/><g fill="#d6d6d6"><path d="m7 9v8.1l9.7-.2-.1-9.2z"/><path d="m2 5.4v9l5.2 3.3.2-8.8z"/></g><path fill="none" stroke="#5a5a5a" stroke-linecap="round" stroke-linejoin="round" stroke-miterlimit="10" d="m6 4.8l5.5-.7 5.2 3.6 2.2-4.4-5.4-2.6-2.1 3.4.1 4.2"/><path fill="#5a5a5a" d="M1.1 5.4 0 1.8 0 0 1.3 0 5.8 2.7 8 8.5 7.1 9z"/><path fill="#d6d6d6" d="m2.1 4.7l-.8-3.2c-.1-.3.2-.5.4-.4l3.5 2.2c.1 0 .1.1.1.2l1.1 3.4c.1.2-.2.5-.4.3l-3.8-2.3c0-.1-.1-.1-.1-.2"/><g fill="#5a5a5a"><path d="m16 8h1v9h-1z"/><path d="m17 16.2v.9l-9 .9v-.9z"/><path d="m1 5h1v9h-1z"/><path d="m7 9h1v9h-1z"/><path d="m1 14l6 4 .6-.9-6-3.8z"/></g><path fill="none" stroke="#5a5a5a" stroke-miterlimit="10" d="m7 8.9l9.8-1.3"/><g transform="matrix(-.4464-.8948.8948-.4464 5.679 34.513)"><path fill="#5a5a5a" d="m10 7h7v17h-7z"/><path fill="#fff" d="m11 8h5v15h-5z"/></g><g fill="#5a5a5a"><path transform="matrix(-.4464-.8948.8948-.4464-4.716 36.12)" d="m6.8 19h4v1h-4z"/><path transform="matrix(-.4464-.8948.8948-.4464 2.059 36.744)" d="m10.4 17.2h4v1h-4z"/><path transform="matrix(-.4464-.8948.8948-.4464-1.406 37.28)" d="m9.3 18.6h3v1h-3z"/><path transform="matrix(-.4464-.8948.8948-.4464 8.834 37.36)" d="m14 15.4h4v1h-4z"/><path transform="matrix(-.4464-.8948.8948-.4464 5.369 37.901)" d="m12.9 16.8h3v1h-3z"/><path transform="matrix(-.4464-.8948.8948-.4464 15.609 37.983)" d="m17.6 13.7h4v1h-4z"/><path transform="matrix(-.4464-.8948.8948-.4464 12.144 38.52)" d="m16.5 15h3v1h-3z"/></g><path fill="#939393" d="m48 16.4l-3.1-6.3-2.5 1.2v-2l.3-.2 2.2-4.3-5.7-2.6-2.2 3.5-5 .7-.8-1.9-4.5-2.5h-1.7v1.3l1.3 3.7v8.6l3.6 2.5 3 5.9 15.1-7.6"/><path fill="#5a5a5a" d="m41 16.2v.9l-9 .9v-.9z"/><path fill="#e74c3c" d="m30.3 4.8l5.3-.7 5.2 3.5-9.2 1.3z"/><g fill="#fff"><path d="m35.5 4l2-3.2 5.4 2.5-2.2 4.3z"/><path d="m31 9v8.1l9.7-.2-.1-9.2z"/><path d="m26 5.4v9l5.2 3.3.2-8.8z"/></g><g fill="#ac382e"><path d="m35 8.4l-.1-3.7-4.6.6-.4-1 5.1-.7 2-3.2c.1-.2.4-.3.6-.2l5.4 2.6c.1.1.2.2.3.3s0 .3 0 .4l-2.5 4.9-4.9-3.5.1 3.5h-1m1.1-4.5l4.4 3.1 1.7-3.4-4.6-2.2-1.5 2.5"/><path d="m25.1 5.4l-1.1-3.6v-1.8h1.3l4.5 2.7 2.2 5.8-.9.5z"/><path d="m40 8h1v9h-1z"/><path d="m25 5h1v9h-1z"/><path d="m31 9h1v9h-1z"/><path d="m25 14l6 4 .6-.9-6-3.8z"/><path d="m31 9.3l-.1-.9 10-.8.1 1z"/></g><path fill="#fff" d="m26.1 4.7l-.8-3.2c-.1-.3.2-.5.5-.3l3.5 2.2c.1 0 .1.1.1.2l1.1 3.4c.1.3-.2.5-.4.3l-3.8-2.3c-.1-.2-.2-.2-.2-.3"/><g transform="matrix(-.4464-.8948.8948-.4464 40.39 55.989)"><path fill="#e74c3c" d="m34 7h7v17h-7z"/><path fill="#fff" d="m35 8h5v15h-5z"/></g><g fill="#e74c3c"><path transform="matrix(-.4464-.8948.8948-.4464 29.998 57.6)" d="m30.8 19h4v1h-4z"/><path transform="matrix(-.4464-.8948.8948-.4464 36.773 58.22)" d="m34.4 17.2h4v1h-4z"/><path transform="matrix(-.4464-.8948.8948-.4464 33.31 58.756)" d="m33.3 18.6h3v1h-3z"/><path transform="matrix(-.4464-.8948.8948-.4464 43.548 58.839)" d="m38 15.4h4v1h-4z"/><path transform="matrix(-.4464-.8948.8948-.4464 40.08 59.38)" d="m36.9 16.8h3v1h-3z"/><path transform="matrix(-.4464-.8948.8948-.4464 50.32 59.46)" d="m41.6 13.7h4v1h-4z"/><path transform="matrix(-.4464-.8948.8948-.4464 46.858 59.996)" d="m40.5 15h3v1h-3z"/></g></svg>