<svg id="svg3119" enable-background="new 0 0 48 24" viewBox="0 0 48 24" xmlns="http://www.w3.org/2000/svg"><defs id="defs3147"><symbol id="symbol3121" viewBox="-6 -5 12 11.3"><path id="path3123" d="m2-2.7c0-.2.2-.3.5-.3h1c .3 0 .5.1.5.3v4.7h1.5l-2.5 4.3-2.5-4.3h1.5z" fill="#fff"/></symbol></defs><path id="path3125" d="m13.4 24l-11.4-11.4v-6.4l4.6-3.9 5.9-.9 11.5 12c0 .5 0 .9 0 1.4l-9.2 9.2c-.6 0-.9 0-1.4 0" fill="#939393"/><path id="path3127" d="m12.4 23.5l-12.4-12.1v-6.6l5.9-4.8h4.8l12.3 12.9c0 .6 0 .9 0 1.4l-9.2 9.2c-.5.1-.8.1-1.4 0" fill="#5a5a5a"/><path id="path3129" d="m1.1 10.7v-5.6l4.9-4.1h4.3l10.3 11c0 .5 0 .8 0 1.3l-7.7 7.7c-.6 0-.9 0-1.4 0z" fill="#d6d6d6"/><circle id="circle3131" cx="6.2" cy="6.7" fill="#5a5a5a" r="2.7"/><circle id="circle3133" cx="6.2" cy="6.7" fill="#fff" r="1.7"/><g id="g3151" transform="translate(1)"><path id="path3135" d="m36.4 24l-11.4-11.4v-6.4l4.6-3.9 5.9-.9 11.5 12c0 .5 0 .9 0 1.4l-9.2 9.2c-.6 0-.9 0-1.4 0" fill="#939393"/><path id="path3137" d="m35.4 23.5l-12.4-12.1v-6.6l5.9-4.8h4.8l12.3 12.9c0 .6 0 .9 0 1.4l-9.2 9.2c-.5.1-.8.1-1.4 0" fill="#ac382e"/><path id="path3139" d="m24.1 10.7v-5.6l4.9-4.1h4.3l10.3 11c0 .5 0 .8 0 1.3l-7.7 7.7c-.6 0-.9 0-1.4 0z" fill="#e74c3c"/><circle id="circle3141" cx="29.200001" cy="6.6999998" fill="#fff" r="2.7"/><circle id="circle3143" cx="29.200001" cy="6.6999998" fill="#939393" r="1.7"/></g></svg>