<svg xmlns="http://www.w3.org/2000/svg" viewBox="0 0 48 24" enable-background="new 0 0 48 24"><symbol viewBox="-6 -5 12 11.3"><path fill="#fff" d="M2-2.7C2-2.9,2.2-3,2.5-3h1C3.8-3,4-2.9,4-2.7V2h1.5L3,6.3L0.5,2H2V-2.7z"/></symbol><path fill="#939393" d="m13.4 24l-11.4-11.4v-6.4l4.6-3.9 5.9-.9 11.5 12c0 .5 0 .9 0 1.4l-9.2 9.2c-.6 0-.9 0-1.4 0"/><path fill="#5a5a5a" d="m12.4 23.5l-12.4-12.1v-6.6l5.9-4.8h4.8l12.3 12.9c0 .6 0 .9 0 1.4l-9.2 9.2c-.5.1-.8.1-1.4 0"/><path fill="#d6d6d6" d="M1.1,10.7l0-5.6L6,1h4.3l10.3,11c0,0.5,0,0.8,0,1.3L12.9,21c-0.6,0-0.9,0-1.4,0L1.1,10.7z"/><circle fill="#5a5a5a" cx="6.2" cy="6.7" r="2.7"/><circle fill="#fff" cx="6.2" cy="6.7" r="1.7"/><path fill="#939393" d="m36.4 24l-11.4-11.4v-6.4l4.6-3.9 5.9-.9 11.5 12c0 .5 0 .9 0 1.4l-9.2 9.2c-.6 0-.9 0-1.4 0"/><path fill="#ac382e" d="m35.4 23.5l-12.4-12.1v-6.6l5.9-4.8h4.8l12.3 12.9c0 .6 0 .9 0 1.4l-9.2 9.2c-.5.1-.8.1-1.4 0"/><path fill="#e74c3c" d="m24.1 10.7v-5.6l4.9-4.1h4.3l10.3 11c0 .5 0 .8 0 1.3l-7.7 7.7c-.6 0-.9 0-1.4 0l-10.4-10.3"/><circle fill="#fff" cx="29.2" cy="6.7" r="2.7"/><circle fill="#939393" cx="29.2" cy="6.7" r="1.7"/></svg>