<!-- Generated by IcoMoon.io -->
<svg version="1.1" xmlns="http://www.w3.org/2000/svg" width="32" height="32" viewBox="0 0 32 32">
<title>manufacturers</title>
<path class="fill-active" d="M2.944 21.781c0.612 1.781 1.596 3.298 2.866 4.519l0.004 0.003c1.139 1.21 2.577 2.125 4.198 2.627l0.069 0.018c0.201 0.056 0.431 0.088 0.669 0.088 0.728 0 1.386-0.299 1.858-0.78l0-0 11.755-11.797c0.426-0.423 0.689-1.009 0.689-1.657 0-0.169-0.018-0.333-0.052-0.492l0.003 0.015-0.672-3.381c1.404-0.919 2.596-1.792 3.742-2.722l-0.084 0.066c1.408-1.408 1.611-3.477 0.469-4.619s-3.2-0.928-4.619 0.469c0 0-1.355 1.557-2.635 3.36l-3.776-0.757c-0.143-0.031-0.308-0.049-0.477-0.049-0.648 0-1.233 0.263-1.657 0.689l-11.733 11.733c-0.464 0.475-0.751 1.125-0.751 1.842 0 0.295 0.048 0.578 0.138 0.843l-0.005-0.019zM20.64 10.336c0.43 0.232 0.76 0.604 0.934 1.053l0.005 0.014c-0.5 0.284-1.088 0.554-1.7 0.774l-0.082 0.026c0.19-0.71 0.479-1.331 0.857-1.888l-0.014 0.022zM24.533 4.917c0.502-0.531 1.2-0.872 1.978-0.906l0.006-0c0.038-0.003 0.083-0.005 0.128-0.005 0.423 0 0.807 0.169 1.088 0.443l-0-0c0.725 0.725 0.512 2.133-0.469 3.115-0.309 0.309-1.824 1.365-3.125 2.272l-0.096-0.235c-0.186-0.884-0.855-1.574-1.712-1.789l-0.016-0.003c0.721-1.085 1.451-2.029 2.241-2.916l-0.022 0.026zM18.080 10.667c0.384-0.387 0.916-0.627 1.503-0.629h0c-0.725 1.344-1.067 2.539-0.565 3.072 0.135 0.133 0.32 0.214 0.524 0.214 0.015 0 0.029-0 0.044-0.001l-0.002 0c0.801-0.112 1.522-0.379 2.157-0.771l-0.024 0.014c-0.207 0.979-1.064 1.703-2.089 1.703-1.178 0-2.133-0.955-2.133-2.133 0-0.569 0.223-1.086 0.586-1.469l-0.001 0.001z"></path>
</svg>
