<svg xmlns="http://www.w3.org/2000/svg" viewBox="0 0 48 24" enable-background="new 0 0 48 24"><symbol viewBox="-6 -5 12 11.3"><path fill="#fff" d="M2-2.7C2-2.9,2.2-3,2.5-3h1C3.8-3,4-2.9,4-2.7V2h1.5L3,6.3L0.5,2H2V-2.7z"/></symbol><path fill="#939393" d="m23 24h-21c-.6 0-1-.4-1-1v-21c0-.6.4-1 1-1h21c.6 0 1 .4 1 1v21c0 .6-.4 1-1 1"/><path fill="#5a5a5a" d="m22 23h-21c-.6 0-1-.4-1-1v-21c0-.6.4-1 1-1h21c.6 0 1 .4 1 1v21c0 .6-.4 1-1 1"/><g fill="#d6d6d6"><path d="m1 21v-17h21v17c0 .6-.4 1-1 1h-19c-.6 0-1-.4-1-1"/><path d="m1 1h3v1h-3z"/><path d="m20.5 1h1.5v1h-1.5z"/><path d="m17.5 1h1.5v1h-1.5z"/><path d="m14.5 1h1.5v1h-1.5z"/></g><g fill="#5a5a5a"><path d="m11.2 17.9c.9 0 1.5-.2 2-.5s.7-.8.7-1.4c0-.4-.1-.7-.3-1-.2-.3-.4-.5-.8-.7-.4-.2-1-.5-1.8-.7-1.1-.4-1.9-.9-2.3-1.4-.5-.6-.7-1.3-.7-2.2 0-.9.3-1.6 1-2.1s1.6-.8 2.7-.8 2.2.2 3.2.6l-.4 1.2c-1-.4-1.9-.6-2.8-.6-.7 0-1.3.2-1.7.5-.4.3-.6.7-.6 1.3 0 .4.1.7.2 1 .1.3.4.5.7.7.3.2.9.5 1.6.7 1.2.4 2.1.9 2.5 1.4.5.5.7 1.1.7 1.9 0 1-.4 1.8-1.1 2.4-.7.6-1.7.9-3 .9s-2-.2-3-.5v-1.3c1 .4 2 .6 3.2.6"/><path d="m10 6h1v14h-1z"/><path d="m12 6h1v14h-1z"/><circle cx="18.4" cy="13" r="1.8"/><circle cx="4" cy="13" r="1.8"/></g><path fill="#939393" d="m47 24h-21c-.6 0-1-.4-1-1v-21c0-.6.4-1 1-1h21c.6 0 1 .4 1 1v21c0 .6-.4 1-1 1"/><path fill="#ac382e" d="m46 23h-21c-.6 0-1-.4-1-1v-21c0-.6.4-1 1-1h21c.6 0 1 .4 1 1v21c0 .6-.4 1-1 1"/><g fill="#fff"><path d="m25 21v-17h21v17c0 .6-.4 1-1 1h-19c-.6 0-1-.4-1-1"/><path d="m25 1h3v1h-3z"/><path d="m44.5 1h1.5v1h-1.5z"/><path d="m41.5 1h1.5v1h-1.5z"/><path d="m38.5 1h1.5v1h-1.5z"/></g><g fill="#e74c3c"><path d="m35.2 17.9c.9 0 1.5-.2 2-.5.5-.3.7-.8.7-1.4 0-.4-.1-.7-.3-1-.2-.3-.4-.5-.8-.7-.4-.2-1-.5-1.8-.7-1.1-.4-1.9-.9-2.3-1.4-.5-.6-.7-1.3-.7-2.2 0-.9.3-1.6 1-2.1s1.6-.8 2.7-.8 2.2.2 3.2.6l-.4 1.2c-1-.4-1.9-.6-2.8-.6-.7 0-1.3.2-1.7.5-.4.3-.6.7-.6 1.3 0 .4.1.7.2 1 .1.3.4.5.7.7.3.2.9.5 1.6.7 1.2.4 2.1.9 2.5 1.4.5.5.7 1.1.7 1.9 0 1-.4 1.8-1.1 2.4-.7.6-1.7.9-3 .9-1.3 0-2-.2-3-.5v-1.3c1 .4 2 .6 3.2.6"/><path d="m34 6h1v14h-1z"/><path d="m36 6h1v14h-1z"/><circle cx="42.4" cy="13" r="1.8"/><circle cx="28" cy="13" r="1.8"/></g></svg>