<!-- Generated by IcoMoon.io -->
<svg version="1.1" xmlns="http://www.w3.org/2000/svg" width="32" height="32" viewBox="0 0 32 32">
<title>payment-methods</title>
<path class="fill-active" d="M1.205 15.627v8.907c0 1.767 1.433 3.2 3.2 3.2v0h13.312c1.767 0 3.2-1.433 3.2-3.2v0-2.347l2.88 0.939c0.304 0.106 0.655 0.167 1.020 0.167 1.427 0 2.636-0.934 3.049-2.224l0.006-0.023 2.741-8.437c0.108-0.307 0.17-0.661 0.17-1.029 0-1.416-0.92-2.618-2.195-3.039l-0.023-0.006-12.629-4.107c-0.304-0.106-0.655-0.167-1.020-0.167-1.427 0-2.636 0.934-3.049 2.224l-0.006 0.023-1.909 5.888h-5.515c-0.010-0-0.021-0-0.032-0-1.767 0-3.2 1.433-3.2 3.2 0 0.011 0 0.023 0 0.034v-0.002zM11.872 9.856l0.971-2.987 16.747 5.44-0.971 2.987zM4.437 26.667c-1.178 0-2.133-0.955-2.133-2.133v0-5.728h17.579v5.728c0 1.178-0.955 2.133-2.133 2.133v0zM21.717 19.328l0.971-2.987 2.987 0.971-0.971 2.955zM17.717 13.461c1.178 0 2.133 0.955 2.133 2.133v0 0h-17.579c0-1.178 0.955-2.133 2.133-2.133v0z"></path>
<path class="fill-active" d="M4.469 21.632h3.147v3.147h-3.147v-3.147z"></path>
</svg>
