<!-- Generated by IcoMoon.io -->
<svg version="1.1" xmlns="http://www.w3.org/2000/svg" width="32" height="32" viewBox="0 0 32 32">
<title>recurring-payment-plans</title>
<path class="fill-active" d="M2.667 7.467v20.267c0 1.178 0.955 2.133 2.133 2.133v0h22.4c1.178 0 2.133-0.955 2.133-2.133v0-20.267c0-0.589-0.478-1.067-1.067-1.067v0h-4.267v0.533c0 1.473-1.194 2.667-2.667 2.667s-2.667-1.194-2.667-2.667v0-0.533h-6.4v0.533c0 1.473-1.194 2.667-2.667 2.667s-2.667-1.194-2.667-2.667v0-0.533h-3.2c-0.589 0-1.067 0.478-1.067 1.067v0zM4.8 10.667h22.4v16c0 0.589-0.478 1.067-1.067 1.067v0h-20.267c-0.589 0-1.067-0.478-1.067-1.067v0z"></path>
<path class="fill-active" d="M5.867 11.733h4.267v4.267h-4.267v-4.267z"></path>
<path class="fill-active" d="M11.2 11.733h4.267v4.267h-4.267v-4.267z"></path>
<path class="fill-active" d="M16.533 11.733h4.267v4.267h-4.267v-4.267z"></path>
<path class="fill-active" d="M21.867 11.733h4.267v4.267h-4.267v-4.267z"></path>
<path class="fill-active" d="M5.867 17.067h4.267v4.267h-4.267v-4.267z"></path>
<path class="fill-active" d="M11.2 17.067h4.267v4.267h-4.267v-4.267z"></path>
<path class="fill-active" d="M16.533 17.067h4.267v4.267h-4.267v-4.267z"></path>
<path class="fill-active" d="M21.867 17.067h4.267v4.267h-4.267v-4.267z"></path>
<path class="fill-active" d="M5.867 22.4h4.267v4.267h-4.267v-4.267z"></path>
<path class="fill-active" d="M11.2 22.4h4.267v4.267h-4.267v-4.267z"></path>
<path class="fill-active" d="M16.533 22.4h4.267v4.267h-4.267v-4.267z"></path>
<path class="fill-active" d="M21.867 22.4h4.267v4.267h-4.267v-4.267z"></path>
<path class="fill-active" d="M8 6.933c0 0.884 0.716 1.6 1.6 1.6s1.6-0.716 1.6-1.6v0-3.2c0-0.884-0.716-1.6-1.6-1.6s-1.6 0.716-1.6 1.6v0z"></path>
<path class="fill-active" d="M19.733 6.933c0 0.884 0.716 1.6 1.6 1.6s1.6-0.716 1.6-1.6v0-3.2c0-0.884-0.716-1.6-1.6-1.6s-1.6 0.716-1.6 1.6v0z"></path>
</svg>
