<svg enable-background="new 0 0 48 24" viewBox="0 0 48 24" xmlns="http://www.w3.org/2000/svg"><defs><symbol viewBox="-6 -5 12 11.3"><path d="m2-2.7c0-.2.2-.3.5-.3h1c .3 0 .5.1.5.3v4.7h1.5l-2.5 4.3-2.5-4.3h1.5z" fill="#fff"/></symbol></defs><path d="m22 24h-19c-1.1 0-2-.9-2-2v-17h23v17c0 1.1-.9 2-2 2" fill="#939393"/><path d="m20 3v1c0 .6-.4 1-1 1h-3c-.6 0-1-.4-1-1v-1h-7v1c0 .6-.4 1-1 1h-3c-.6 0-1-.4-1-1v-1h-3v17c0 1.1.9 2 2 2h19c1.1 0 2-.9 2-2v-17z" fill="#5a5a5a"/><path d="m2 19v-13h19v13c0 .6-.4 1-1 1h-17c-.6 0-1-.4-1-1" fill="#fff"/><g fill="#5a5a5a"><path d="m6 4h-1c-.6 0-1-.4-1-1v-2c0-.6.4-1 1-1h1c .6 0 1 .4 1 1v2c0 .6-.4 1-1 1"/><path d="m19 3c0 .6-.4 1-1 1h-1c-.6 0-1-.4-1-1v-2c0-.6.4-1 1-1h1c .6 0 1 .4 1 1z"/></g><path d="m9 9h13v12h-13z" fill="#fff"/><path d="m10.8 16.1c.1 0 .1-.1.2-.1h7.8c.3 0 .5-.1.6-.3l1.6-5c .1-.2 0-.4-.1-.5-.1-.1-.3-.2-.5-.2h-9.8l-.1-.7c0-.2-.2-.5-.4-.6l-2.5-1.7h-.6v1.3l1.9 1.1c.3.2.5.4.6.8l.8 4.6c0 .2 0 .4-.2.5l-2.6 2.6c-.3.4 0 1.1.6 1.1h2.2c-.3 0-.4.5-.4.9 0 .6.5 1.2 1.2 1.2.6 0 1.2-.5 1.2-1.2 0-.4-.2-.9-.4-.9h4.8c-.3 0-.4.5-.4.9 0 .6.5 1.2 1.2 1.2.6 0 1.2-.5 1.2-1.2 0-.4-.2-.9-.4-.9h1.7v-1h-10.4c-.1 0-.2-.3-.1-.4z" fill="#5a5a5a"/><path d="m19.6 11l-1.2 4h-6.8l-.8-4z" fill="#fff"/><g fill="#5a5a5a"><path d="m3 16h2v2h-2z"/><path d="m3 13h2v2h-2z"/><path d="m3 10h2v2h-2z"/><path d="m3 7h2v2h-2z"/><path d="m6 13h2v2h-2z"/><path d="m6 10h2v2h-2z"/><path d="m18 7h2v2h-2z"/><path d="m15 7h2v2h-2z"/><path d="m12 7h2v2h-2z"/></g><path d="m46 24h-19c-1.1 0-2-.9-2-2v-17h23v17c0 1.1-.9 2-2 2" fill="#939393"/><path d="m44 3v1c0 .6-.4 1-1 1h-3c-.6 0-1-.4-1-1v-1h-7v1c0 .6-.4 1-1 1h-3c-.6 0-1-.4-1-1v-1h-3v17c0 1.1.9 2 2 2h19c1.1 0 2-.9 2-2v-17z" fill="#ac382e"/><path d="m26 19v-13h19v13c0 .6-.4 1-1 1h-17c-.6 0-1-.4-1-1" fill="#fff"/><g fill="#e74c3c"><path d="m30 4h-1c-.6 0-1-.4-1-1v-2c0-.6.4-1 1-1h1c .6 0 1 .4 1 1v2c0 .6-.4 1-1 1"/><path d="m43 3c0 .6-.4 1-1 1h-1c-.6 0-1-.4-1-1v-2c0-.6.4-1 1-1h1c .6 0 1 .4 1 1z"/></g><path d="m33 9h13v12h-13z" fill="#fff"/><path d="m34.8 16.1c.1 0 .1-.1.2-.1h7.8c.3 0 .5-.1.6-.3l1.6-5c .1-.2 0-.4-.1-.5-.1-.1-.3-.2-.5-.2h-9.8l-.1-.7c0-.2-.2-.5-.4-.6l-2.5-1.7h-.6v1.3l1.9 1.1c.3.2.5.4.6.8l.8 4.6c0 .2 0 .4-.2.5l-2.6 2.6c-.4.4-.1 1.2.5 1.2h2.2c-.3 0-.4.5-.4.9 0 .6.5 1.2 1.2 1.2.6 0 1.2-.5 1.2-1.2 0-.4-.2-.9-.4-.9h4.8c-.3 0-.4.5-.4.9 0 .6.5 1.2 1.2 1.2.6 0 1.2-.5 1.2-1.2 0-.4-.2-.9-.4-.9h1.8v-1h-10.4c-.1 0-.2-.3-.1-.4z" fill="#e74c3c"/><path d="m43.6 11l-1.2 4h-6.8l-.8-4z" fill="#fff"/><g fill="#ac382e"><path d="m27 16h2v2h-2z"/><path d="m27 13h2v2h-2z"/><path d="m27 10h2v2h-2z"/><path d="m27 7h2v2h-2z"/><path d="m30 13h2v2h-2z"/><path d="m30 10h2v2h-2z"/><path d="m42 7h2v2h-2z"/><path d="m39 7h2v2h-2z"/><path d="m36 7h2v2h-2z"/></g></svg>