<svg xmlns="http://www.w3.org/2000/svg" viewBox="0 0 48 24" enable-background="new 0 0 48 24"><symbol viewBox="-6 -5 12 11.3"><path fill="#fff" d="M2-2.7C2-2.9,2.2-3,2.5-3h1C3.8-3,4-2.9,4-2.7V2h1.5L3,6.3L0.5,2H2V-2.7z"/></symbol><g fill="#939393"><path d="m6.1 16.8c.1 0 .2.2.3.2h11.6c.4 0 .7-.3.8-.7l2.3-7.5c.1-.3 0-.4-.1-.6-.2-.2-.4-.2-.7-.2h-14.5l-.2-1.2c-.1-.4-.3-.9-.6-1.1l-2.7-1.7h-1.3v2l2.1.6c.4.3.8.7.9 1.2l1.3 6.7c0 .3 0 .5-.2.7l-3.8 3.9c-.6.8-.2 1.9.7 1.9h3.3c-.4 0-.6.7-.6 1.3 0 1 .8 1.7 1.7 1.7 1 0 1.7-.7 1.7-1.7 0-.5-.2-1.3-.6-1.3h7.2c-.4 0-.6.7-.6 1.3 0 1 .8 1.7 1.7 1.7 1 0 1.7-.7 1.7-1.7 0-.5-.2-1.3-.6-1.3h2.1v-2h-14.8c-.2 0-.3-.1-.2-.3l2.1-1.9"/><path d="m19.9 9l-2.6 7h-10.1l-1.1-7z"/><path d="m16.1 15c-.5 0-1.1-.4-1.1-.9v-1.4c0 0-.1-.1-.2-.1l-1 1c-.2.2-.4.3-.6.3-.2 0-.4-.1-.6-.3l-1.2-1.2c-.2-.2-.3-.4-.3-.6 0-.2.1-.5.3-.6l1-.9c-.1-.1-.1-.2-.1-.2h-1.4c-.5-.1-.9-.7-.9-1.2v-1.7c0-.5.4-1.2.9-1.2h1.3c0 0 .1-.2.2-.3l-.9-.8c-.2-.2-.3-.3-.3-.6 0-.2.1-.4.3-.6l1.2-1.2c.2-.2.4-.3.6-.3.2 0 .5.1.6.3l.6.7c.2-.1.5-.2.5-.2v-1c0-.5.7-1 1.1-1h1.7c.6 0 1.2.5 1.2.9v.9c0 .1.3.2.6.3l.6-.6c.2-.2.4-.3.6-.3.2 0 .4.1.6.3l1.2 1.2c.2.2.3.4.3.6 0 .2-.1.5-.3.6l-.7.5c.1.3.2.6.2.6h1c.5 0 .9.7.9 1.2v1.7c0 .5-.4 1.1-.9 1.1h-1.1c-.1 0-.2.2-.2.4l.8.8c.2.2.3.4.3.6 0 .2-.1.4-.3.6l-1.2 1.2c-.2.2-.4.3-.6.3s-.4-.1-.6-.3l-.8-.9c-.1.1-.3.1-.3.1v1.4c0 .5-.6.9-1.1.9h-1.9z"/><path d="m23 9v-2h-1.6c-.1 0-.3-1.1-.6-1.6l1.1-1.1-1.2-1.2-1 1.1c-.6-.3-1.7-.6-1.7-.7v-1.5h-2v1.6c0 .1-1.1.4-1.5.8l-1.2-1.2-1.2 1.2 1.3 1.2c-.3.4-.5 1.4-.5 1.4h-1.9v2h2c.1 0 .3.9.6 1.3l-1.5 1.4 1.2 1.2 1.4-1.5c.4.3 1.3.4 1.3.6v2h2v-1.9c0-.1.9-.3 1.4-.5l1.4 1.4 1.2-1.2-1.3-1.3c.3-.5.5-1.5.6-1.5h1.7"/><circle cx="17.1" cy="7.8" r="3"/></g><path fill="#5a5a5a" d="m5.1 15.8c.1 0 .2.2.3.2h11.6c.4 0 .7-.3.8-.7l2.3-7.5c.1-.3 0-.4-.1-.6-.2-.2-.4-.2-.7-.2h-14.5l-.2-1.2c-.1-.4-.3-.9-.6-1.1l-2.7-1.7h-1.3v2l2.1.6c.4.3.8.7.9 1.2l1.3 6.7c0 .3 0 .5-.2.7l-3.7 3.8c-.6.8-.3 2 .6 2h3.3c-.4 0-.6.7-.6 1.3 0 1 .8 1.7 1.7 1.7 1 0 1.7-.7 1.7-1.7 0-.5-.2-1.3-.6-1.3h7.2c-.4 0-.6.7-.6 1.3 0 1 .8 1.7 1.7 1.7 1 0 1.7-.7 1.7-1.7 0-.5-.2-1.3-.6-1.3h2.1v-2h-14.8c-.2 0-.3-.1-.2-.3l2.1-1.9"/><path fill="#fff" d="m18.9 8l-2.6 7h-10.1l-1.1-7z"/><path fill="#5a5a5a" d="m15.1 14c-.5 0-1.1-.4-1.1-.9v-1.4c0 0-.1-.1-.2-.1l-1 1c-.2.2-.4.3-.6.3-.2 0-.4-.1-.6-.3l-1.2-1.2c-.2-.2-.3-.4-.3-.6 0-.2.1-.5.3-.6l1-.9c0-.2 0-.3-.1-.3h-1.4c-.5 0-.9-.6-.9-1.1v-1.7c0-.5.4-1.2.9-1.2h1.3c0 0 .1-.2.2-.3l-.9-.8c-.2-.2-.3-.3-.3-.6 0-.2.1-.4.3-.6l1.2-1.2c.2-.2.4-.3.6-.3.2 0 .5.1.6.3l.6.7c.2-.1.5-.2.5-.2v-1c0-.5.7-1 1.1-1h1.7c.6 0 1.2.5 1.2.9v.9c0 .1.3.2.6.3l.6-.6c.2-.2.4-.3.6-.3.2 0 .4.1.6.3l1.2 1.2c.2.2.3.4.3.6 0 .2-.1.5-.3.6l-.7.5c.1.3.2.6.2.6h1c.5 0 .9.7.9 1.2v1.7c0 .5-.4 1.1-.9 1.1h-1.1c-.1 0-.2.2-.2.4l.8.8c.2.2.3.4.3.6 0 .2-.1.4-.3.6l-1.2 1.2c-.2.2-.4.3-.6.3s-.4-.1-.6-.3l-.8-.9c-.1.1-.3.1-.3.1v1.4c0 .5-.6.9-1.1.9h-1.9z"/><path fill="#fff" d="m22 8v-2h-1.6c-.1 0-.3-1.1-.6-1.6l1.1-1.1-1.2-1.2-1 1.1c-.6-.3-1.7-.6-1.7-.7v-1.5h-2v1.6c0 .1-1.1.4-1.5.8l-1.2-1.2-1.2 1.2 1.3 1.2c-.3.4-.5 1.4-.5 1.4h-1.9v2h2c.1 0 .3.9.6 1.3l-1.5 1.4 1.2 1.2 1.4-1.5c.4.3 1.3.4 1.3.6v2h2v-1.9c0-.1.9-.3 1.4-.5l1.4 1.4 1.2-1.2-1.3-1.3c.3-.5.5-1.5.6-1.5h1.7"/><circle fill="#5a5a5a" cx="16.1" cy="6.8" r="3"/><g fill="#939393"><path d="m30.1 16.9c.1 0 .2.1.3.1h11.6c.4 0 .7-.3.8-.7l2.3-7.5c.1-.3 0-.4-.1-.6-.2-.2-.4-.2-.7-.2h-14.5l-.2-1.2c-.1-.4-.3-.9-.6-1.1l-2.7-1.7h-1.3v2.1l2.1.6c.4.2.8.7.9 1.1l1.3 6.7c0 .3 0 .5-.2.7l-3.8 3.9c-.6.8-.2 1.9.7 1.9h3.3c-.4 0-.6.7-.6 1.3 0 1 .8 1.7 1.7 1.7 1 0 1.7-.7 1.7-1.7 0-.5-.2-1.3-.6-1.3h7.2c-.4 0-.6.7-.6 1.3 0 1 .8 1.7 1.7 1.7 1 0 1.7-.7 1.7-1.7 0-.5-.2-1.3-.6-1.3h2.1v-2h-14.8c-.2 0-.3-.1-.2-.2l2.1-1.9"/><path d="m43.9 9l-2.6 7h-10.1l-1.1-7z"/><path d="m40.1 15c-.5 0-1.1-.4-1.1-.9v-1.4c0 0-.1-.1-.2-.1l-1 1c-.2.2-.4.3-.6.3-.2 0-.4-.1-.6-.3l-1.2-1.2c-.2-.2-.3-.4-.3-.6 0-.2.1-.5.3-.6l1-.9c-.1-.1-.1-.2-.1-.2h-1.4c-.5-.1-.9-.7-.9-1.2v-1.7c0-.5.4-1.2.9-1.2h1.3c0 0 .1-.2.2-.3l-.9-.8c-.2-.2-.3-.3-.3-.6 0-.2.1-.4.3-.6l1.2-1.2c.2-.2.4-.3.6-.3.2 0 .5.1.6.3l.6.7c.2-.1.5-.2.5-.2v-1c0-.5.7-1 1.1-1h1.7c.6 0 1.2.5 1.2 1v.9c0 .1.3.2.6.3l.6-.6c.2-.2.4-.3.6-.3.2 0 .4.1.6.3l1.2 1.2c.2.2.3.4.3.6 0 .2-.1.5-.3.6l-.7.5c.1.2.2.5.2.5h1c.5 0 .9.7.9 1.2v1.7c0 .5-.4 1.1-.9 1.1h-1.1c-.1 0-.2.2-.2.4l.8.8c.2.2.3.4.3.6 0 .2-.1.4-.3.6l-1.2 1.2c-.2.2-.4.3-.6.3s-.4-.1-.6-.3l-.8-.9c-.1.1-.3.1-.3.1v1.4c0 .5-.6.9-1.1.9h-1.9z"/><path d="m47 9v-2h-1.6c-.1 0-.3-1.1-.6-1.6l1.1-1.1-1.2-1.2-1 1.1c-.6-.3-1.7-.5-1.7-.7v-1.5h-2v1.6c0 .1-1.1.4-1.5.8l-1.2-1.2-1.2 1.2 1.3 1.2c-.3.4-.5 1.4-.5 1.4h-1.9v2h2c.1 0 .3.9.6 1.3l-1.5 1.4 1.2 1.2 1.4-1.5c.4.3 1.3.4 1.3.6v2h2v-1.9c0-.1.9-.3 1.4-.5l1.4 1.4 1.2-1.2-1.3-1.3c.3-.5.5-1.5.6-1.5h1.7"/><circle cx="41.1" cy="7.8" r="3"/></g><path fill="#ac382e" d="m29.1 15.9c.1 0 .2.1.3.1h11.6c.4 0 .7-.3.8-.7l2.3-7.5c.1-.3 0-.4-.1-.6-.2-.2-.4-.2-.7-.2h-14.5l-.2-1.2c-.1-.4-.3-.9-.6-1.1l-2.7-1.7h-1.3v2.1l2.1.6c.4.2.8.7.9 1.1l1.3 6.7c0 .3 0 .5-.2.7l-3.7 3.8c-.6.8-.3 2 .6 2h3.3c-.4 0-.6.7-.6 1.3 0 1 .8 1.7 1.7 1.7 1 0 1.7-.7 1.7-1.7 0-.5-.2-1.3-.6-1.3h7.2c-.4 0-.6.7-.6 1.3 0 1 .8 1.7 1.7 1.7 1 0 1.7-.7 1.7-1.7 0-.5-.2-1.3-.6-1.3h2.1v-2h-14.8c-.2 0-.3-.1-.2-.2l2.1-1.9"/><g fill="#fff"><path d="m42.9 8l-2.6 7h-10.1l-1.1-7z"/><path d="m39.1 14c-.5 0-1.1-.4-1.1-.9v-1.4c0 0-.1-.1-.2-.1l-1 1c-.2.2-.4.3-.6.3-.2 0-.4-.1-.6-.3l-1.2-1.2c-.2-.2-.3-.4-.3-.6 0-.2.1-.5.3-.6l1-.9c0-.2 0-.3-.1-.3h-1.4c-.5 0-.9-.6-.9-1.1v-1.7c0-.5.4-1.2.9-1.2h1.3c0 0 .1-.2.2-.3l-.9-.8c-.2-.2-.3-.3-.3-.6 0-.2.1-.4.3-.6l1.2-1.2c.2-.2.4-.3.6-.3.2 0 .5.1.6.3l.6.7c.2-.1.5-.2.5-.2v-1c0-.5.7-1 1.1-1h1.7c.6 0 1.2.5 1.2 1v.9c0 .1.3.2.6.3l.6-.6c.2-.2.4-.3.6-.3.2 0 .4.1.6.3l1.2 1.2c.2.2.3.4.3.6 0 .2-.1.5-.3.6l-.7.5c.1.2.2.5.2.5h1c.5 0 .9.7.9 1.2v1.7c0 .5-.4 1.1-.9 1.1h-1.1c-.1 0-.2.2-.2.4l.8.8c.2.2.3.4.3.6 0 .2-.1.4-.3.6l-1.2 1.2c-.2.2-.4.3-.6.3s-.4-.1-.6-.3l-.8-.9c-.1.1-.3.1-.3.1v1.4c0 .5-.6.9-1.1.9h-1.9z"/></g><path fill="#e74c3c" d="m46 8v-2h-1.6c-.1 0-.3-1.1-.6-1.6l1.1-1.1-1.2-1.2-1 1.1c-.6-.3-1.7-.5-1.7-.7v-1.5h-2v1.6c0 .1-1.1.4-1.5.8l-1.2-1.2-1.2 1.2 1.3 1.2c-.3.4-.5 1.4-.5 1.4h-1.9v2h2c.1 0 .3.9.6 1.3l-1.5 1.4 1.2 1.2 1.4-1.5c.4.3 1.3.4 1.3.6v2h2v-1.9c0-.1.9-.3 1.4-.5l1.4 1.4 1.2-1.2-1.3-1.3c.3-.5.5-1.5.6-1.5h1.7"/><circle fill="#fff" cx="40.1" cy="6.8" r="3"/></svg>