<!-- Generated by IcoMoon.io -->
<svg version="1.1" xmlns="http://www.w3.org/2000/svg" width="32" height="32" viewBox="0 0 32 32">
<title>special-offers</title>
<path class="fill-active" d="M27.531 9.493c-0.010-0.080-0.036-0.152-0.076-0.216l0.001 0.002-0.064-0.075c-0.028-0.036-0.060-0.068-0.095-0.095l-0.001-0.001h-0.053l-10.176-4.107c-0.055-0.022-0.12-0.034-0.187-0.034s-0.131 0.013-0.19 0.036l-11.879 4.052h-0.075c-0.028 0.025-0.052 0.053-0.074 0.084l-0.001 0.002-0.064 0.075c-0.041 0.067-0.068 0.147-0.075 0.233l-0 0.002s0 0 0 0v0 12.139c0.001 0.22 0.136 0.409 0.327 0.489l0.003 0.001 11.787 4.917c0.064 0.030 0.139 0.047 0.219 0.047s0.154-0.017 0.222-0.048l-0.003 0.001 10.165-4.917c0.178-0.089 0.299-0.27 0.299-0.479 0-0 0-0.001 0-0.001v0-12s-0.011-0.085-0.011-0.107zM25.077 20.8h-2.219l-2.219 2.368 0.181-3.2-1.557-1.589 2.325-1.973 1.259-3.349 1.259 2.027 2.325-0.48-1.557 3.2zM25.675 9.6l-8.843 4.128-10.315-4.128 10.315-3.531zM5.525 10.347l10.795 4.267v11.093l-10.795-4.469z"></path>
</svg>
