<svg xmlns="http://www.w3.org/2000/svg" viewBox="0 0 48 24" enable-background="new 0 0 48 24"><symbol viewBox="-6 -5 12 11.3"><path fill="#fff" d="M2-2.7C2-2.9,2.2-3,2.5-3h1C3.8-3,4-2.9,4-2.7V2h1.5L3,6.3L0.5,2H2V-2.7z"/></symbol><g fill="#939393"><path d="m6 23h-5v1h6v-2h-1z"/><path d="m15 23h-6v1h7v-2h-1z"/><path d="m23 23h-5v1h6v-2h-1z"/><path d="m18 7h1v-3h-1v1z"/><path d="m23 9v1 2 1 1 1 4h-5-5-1-1-1-1-1-6-1v1h23v-5-1-5z"/><path d="m9 1h1v1h-1z"/></g><g fill="#5a5a5a"><path d="m6 22v-1h-6v2h1 5z"/><path d="m15 22v-1h-7v2h1 6z"/><path d="m23 22v-1h-6v2h1 5z"/><path d="m8 18v-16-1h-7v17z"/><path d="m9 4v14h2v-6h3v-5h3v-4h-8z"/><path d="m14 13h-2v1 4h5 5v-5z"/><path d="m15 9v3h7v-4h-7z"/></g><path fill="#fff" d="m8 19h1 1 1 1 1 5 5v-4-1-1-1-2-1-2h-4-1v-2-1-2h-8-1v-1-1h-9v19h1 1 6m14-1h-5-5v-4-1h2 8v5m0-10v4h-7v-3-1h7m-5-5v4h-3v5h-3v6h-2v-14-1h8m-16 15v-17h7v1 16h-7"/><g fill="#939393"><path d="m30 23h-5v1h6v-2h-1z"/><path d="m39 23h-6v1h7v-2h-1z"/><path d="m47 23h-5v1h6v-2h-1z"/><path d="m42 7h1v-3h-1v1z"/><path d="m47 9v1 2 1 1 1 4h-5-5-1-1-1-1-1-6-1v1h23v-5-1-5z"/><path d="m33 1h1v1h-1z"/></g><g fill="#ac382e"><path d="m30 22v-1h-6v2h1 5z"/><path d="m39 22v-1h-7v2h1 6z"/><path d="m47 22v-1h-6v2h1 5z"/></g><path fill="#e74c3c" d="m32 18v-16-1h-7v17z"/><path fill="#ac382e" d="m33 4v14h2v-6h3v-5h3v-4h-8z"/><g fill="#e74c3c"><path d="m38 13h-2v1 4h5 5v-5z"/><path d="m39 9v3h7v-4h-7z"/></g><path fill="#fff" d="m32 19h1 1 1 1 1 5 5v-4-1-1-1-2-1-2h-4-1v-2-1-2h-8-1v-1-1h-9v19h1 1 6m14-1h-5-5v-4-1h2 8v5m0-10v4h-7v-3-1h7m-5-5v4h-3v5h-3v6h-2v-14-1h8m-16 15v-17h7v1 16h-7"/></svg>