<!-- Generated by IcoMoon.io -->
<svg version="1.1" xmlns="http://www.w3.org/2000/svg" width="32" height="32" viewBox="0 0 32 32">
<title>stocks</title>
<path class="fill-active" d="M27.083 15.104v0c-0.030-0.062-0.070-0.115-0.117-0.16l-0-0h-0.064l-2.773-1.515c0.003-0.022 0.005-0.048 0.005-0.075s-0.002-0.052-0.006-0.078l0 0.003v-8.448c0.008-0.034 0.012-0.072 0.012-0.112s-0.004-0.078-0.013-0.116l0.001 0.004c-0.030-0.062-0.070-0.115-0.117-0.16l-0-0h-0.064l-5.813-3.168c-0.075-0.043-0.164-0.069-0.259-0.069-0.025 0-0.050 0.002-0.074 0.005l0.003-0-7.755 1.067h-0.064c-0.019-0.003-0.041-0.004-0.064-0.004s-0.045 0.001-0.067 0.004l0.003-0-0.075 0.075c-0.041 0.048-0.074 0.105-0.095 0.167l-0.001 0.004s0 0 0 0.064 0 0 0 0 0 0 0 0v8.213l-4.267 0.597-0.085 0.331c-0.019-0.003-0.041-0.004-0.064-0.004s-0.045 0.001-0.067 0.004l0.003-0-0.075 0.075c-0.041 0.048-0.074 0.105-0.095 0.167l-0.001 0.004s0 0 0 0.064 0 0 0 0 0 0 0 0v13.205c0 0 0 0.001 0 0.001 0 0.201 0.111 0.375 0.275 0.466l0.003 0.001 8.949 4.864c0.065 0.033 0.142 0.052 0.224 0.053h0.075l12.107-1.579c0.259-0.038 0.456-0.257 0.459-0.522v-13.206c0-0.004 0-0.009 0-0.014 0-0.076-0.016-0.148-0.044-0.213l0.001 0.003zM10.667 10.891v-7.157l4.608 2.507v7.157zM24.907 15.029l-10.464 1.472-7.349-4.021 3.403-0.48 5.067 2.752c0.065 0.033 0.142 0.052 0.224 0.053h0.075l6.912-0.939zM21.92 4.533l-5.984 0.8-4.096-2.187 5.984-0.843zM5.92 13.067l7.883 4.267v11.989l-7.883-4.267z"></path>
</svg>
