<!-- Generated by IcoMoon.io -->
<svg version="1.1" xmlns="http://www.w3.org/2000/svg" width="32" height="32" viewBox="0 0 32 32">
<title>supplier</title>
<path class="fill-active" d="M1.067 17.525v5.237c0 0.542 0.439 0.981 0.981 0.981v0h1.237c-0.001-0.029-0.001-0.063-0.001-0.097 0-2.037 1.621-3.694 3.644-3.753l0.005-0c2.028 0.059 3.649 1.717 3.649 3.753 0 0.034-0 0.068-0.001 0.102l0-0.005h1.237c0.542 0 0.981-0.439 0.981-0.981v0-10.848c0-0.542-0.439-0.981-0.981-0.981v0h-4.8c-0 0-0.001 0-0.001 0-0.292 0-0.554 0.127-0.734 0.33l-0.001 0.001-4.971 5.611c-0.152 0.172-0.245 0.4-0.245 0.649 0 0.001 0 0.001 0 0.002v-0zM4.16 15.392l2.624-3.2c0.11-0.137 0.278-0.224 0.466-0.224 0.001 0 0.002 0 0.003 0h1.749c0.33 0 0.597 0.267 0.597 0.597v0 3.061c0 0.33-0.267 0.597-0.597 0.597v0h-4.437c-0.275-0.016-0.492-0.244-0.492-0.522 0-0.108 0.033-0.208 0.088-0.291l-0.001 0.002z"></path>
<path class="fill-active" d="M30.933 7.648c0-0.542-0.439-0.981-0.981-0.981v0h-15.104c-0.542 0-0.981 0.439-0.981 0.981v0 15.115c0 0.542 0.439 0.981 0.981 0.981h3.797c-0.014-0.12-0.021-0.259-0.021-0.4 0-2.074 1.681-3.755 3.755-3.755s3.755 1.681 3.755 3.755c0 0.141-0.008 0.28-0.023 0.417l0.002-0.017h3.797c0.542 0 0.981-0.439 0.981-0.981v0z"></path>
<path class="fill-active" d="M9.173 23.189c0 1.178-0.955 2.133-2.133 2.133s-2.133-0.955-2.133-2.133c0-1.178 0.955-2.133 2.133-2.133s2.133 0.955 2.133 2.133z"></path>
<path class="fill-active" d="M24.629 23.189c0 1.178-0.955 2.133-2.133 2.133s-2.133-0.955-2.133-2.133c0-1.178 0.955-2.133 2.133-2.133s2.133 0.955 2.133 2.133z"></path>
</svg>
