<svg xmlns="http://www.w3.org/2000/svg" viewBox="0 0 48 24" enable-background="new 0 0 48 24"><symbol viewBox="-6 -5 12 11.3"><path fill="#fff" d="M2-2.7C2-2.9,2.2-3,2.5-3h1C3.8-3,4-2.9,4-2.7V2h1.5L3,6.3L0.5,2H2V-2.7z"/></symbol><circle fill="#939393" cx="12" cy="12" r="12"/><ellipse fill="#d6d6d6" cx="11.5" cy="11" rx="11.5" ry="11"/><g fill="#5a5a5a"><path d="m20.1 6.8c-1.4-2.8-5.3-4.8-9-4.8-3.1 0-5.9 1.6-7.6 4.2l-1.7-1.1c2.1-3.2 5.5-5.1 9.3-5.1 4.4 0 8.9 2.4 10.8 5.8l-1.8 1"/><path d="M7 5.9 2 11 0 3.9z"/><path d="m10.6 22.7c-4.3 0-8.2-2.2-10.2-5.8l1.8-1c1.7 2.9 4.9 4.8 8.4 4.8 3.3 0 6.8-1.7 8.8-4.3l1.7 1.2c-2.4 3.2-6.4 5.1-10.5 5.1"/><path d="m15.7 16.5l6.6-4.9 1.1 7.9z"/><path d="m10 14.5v-3c-1-.3-1.5-.7-1.9-1.2-.4-.5-.6-1.2-.6-2 0-.8.1-1.4.6-2 .5-.5.9-.8 1.9-.9v-.4h1v.4c1 .1 1.6.4 2 .8.5.4.8 1 1 1.7l-2 .2c-.1-.6 0-1-1-1.2v2.8c2 .3 2.1.7 2.5 1.2.4.5.7 1.1.7 1.9 0 .9-.4 1.6-.9 2.2-.5.6-1.3 1-2.3 1.1v1.9h-1v-1.7c-1-.1-1.3-.4-1.9-.9-.5-.5-.8-1.3-.9-2.2l1.9-.2c.1.4.1.7.3 1 .2.2.6.4.6.5m0-7.5c0 .1-.4.3-.5.5-.2.2-.2.4-.2.7 0 .3 0 .5.1.7.2.2.6.4.6.6v-2.5m1 7.6c1-.1.8-.2 1.1-.5.2-.3.4-.6.4-.9 0-.3-.2-.6-.4-.8-.2-.2-.1-.4-1.1-.5v2.7"/></g><circle fill="#939393" cx="36" cy="12" r="12"/><ellipse fill="#fff" cx="35.5" cy="11" rx="11.5" ry="11"/><g fill="#ac382e"><path d="m44.1 6.8c-1.4-2.8-5.3-4.8-9-4.8-3.1 0-6 1.6-7.7 4.2l-1.7-1.1c2.2-3.2 5.6-5.1 9.4-5.1 4.4 0 8.9 2.4 10.8 5.8l-1.8 1"/><path d="m31 5.9l-5 5.1-2-7.1z"/><path d="m34.6 22.7c-4.3 0-8.2-2.2-10.2-5.8l1.8-1c1.7 2.9 4.9 4.8 8.4 4.8 3.3 0 6.8-1.7 8.8-4.3l1.7 1.2c-2.4 3.2-6.4 5.1-10.5 5.1"/><path d="m39.7 16.5l6.6-4.9 1.1 7.9z"/></g><path fill="#e74c3c" d="m34 14.5v-3c-1-.3-1.5-.7-1.9-1.2-.4-.5-.6-1.2-.6-2 0-.8.1-1.4.6-2 .5-.5.9-.8 1.9-.9v-1.4h1v1.4c1 .1 1.6.4 2 .8.5.4.8 1 1 1.7l-2 .2c-.1-.6 0-1-1-1.2v2.8c2 .3 2.1.7 2.5 1.2.4.5.7 1.1.7 1.9 0 .9-.4 1.6-.9 2.2-.5.6-1.3 1-2.3 1.1v1.9h-1v-1.7c-1-.1-1.3-.4-1.9-.9-.5-.5-.8-1.3-.9-2.2l1.9-.2c.1.4.1.7.3 1 .2.2.6.4.6.5m0-7.5c0 .1-.4.3-.5.5-.2.2-.2.5-.2.8 0 .3 0 .5.1.7.2.1.6.3.6.5v-2.5m1 7.6c1-.1.8-.2 1.1-.5.2-.3.4-.6.4-.9 0-.3-.2-.6-.4-.8-.2-.2-.1-.4-1.1-.5v2.7"/></svg>