<svg xmlns="http://www.w3.org/2000/svg" viewBox="0 0 48 24" enable-background="new 0 0 48 24"><symbol viewBox="-6 -5 12 11.3"><path fill="#fff" d="M2-2.7C2-2.9,2.2-3,2.5-3h1C3.8-3,4-2.9,4-2.7V2h1.5L3,6.3L0.5,2H2V-2.7z"/></symbol><g fill="#939393"><path d="m22.9 13h-20.9c-.6 0-1-.5-1-1.1v-4.9h23v4.9c0 .6-.5 1.1-1.1 1.1"/><path d="m2 13h21v11h-21z"/><path d="m1 7l9.9-6h3.1l10 6z"/></g><g fill="#5a5a5a"><path d="m21.9 12h-20.8c-.6 0-1.1-.5-1.1-1.1v-4.9h23v4.9c0 .6-.5 1.1-1.1 1.1"/><path d="m1 12h21v11h-21z"/><path d="m0 6l10-6h3l10 6z"/></g><g fill="#d6d6d6"><path d="m1 11v-4.4l9.3-5.6h2.4l9.3 5.5v4.5z"/><path d="m2 11h19v11h-19z"/></g><path fill="#5a5a5a" d="m3 10h17v12h-17z"/><path fill="#fff" d="m4 11h15v11h-15z"/><g fill="#5a5a5a"><path d="m3 8h3v1h-3z"/><path d="m7 8h3v1h-3z"/><path d="m13 8h3v1h-3z"/><path d="m17 8h3v1h-3z"/><path d="m11 8h1v1h-1z"/><path d="m5 12h6v10h-6z"/></g><g fill="#fff"><path d="m6 15h4v7h-4z"/><path d="m6 13h4v9h-4z"/></g><path fill="#5a5a5a" d="m10 18h5v4h-5z"/><path fill="#fff" d="m11 19h3v3h-3z"/><path fill="#5a5a5a" d="m15 19h3v3h-3z"/><path fill="#fff" d="m15 20h2v2h-2z"/><g fill="#5a5a5a"><path d="m5 15h6v1h-6z"/><path d="m5 18h6v1h-6z"/></g><g fill="#939393"><path d="m46.9 13h-20.9c-.6 0-1-.5-1-1.1v-4.9h23v4.9c0 .6-.5 1.1-1.1 1.1"/><path d="m26 13h21v11h-21z"/><path d="m25 7l9.9-6h3.1l10 6z"/></g><g fill="#ac382e"><path d="m45.9 12h-20.8c-.6 0-1.1-.5-1.1-1.1v-4.9h23v4.9c0 .6-.5 1.1-1.1 1.1"/><path d="m25 12h21v11h-21z"/><path d="m24 6l10-6h3l10 6z"/></g><g fill="#e74c3c"><path d="m25 11v-4.4l9.3-5.6h2.4l9.3 5.5v4.5z"/><path d="m26 11h19v11h-19z"/></g><path fill="#ac382e" d="m27 10h17v12h-17z"/><path fill="#fff" d="m28 11h15v11h-15z"/><g fill="#ac382e"><path d="m27 8h3v1h-3z"/><path d="m31 8h3v1h-3z"/><path d="m37 8h3v1h-3z"/><path d="m41 8h3v1h-3z"/><path d="m35 8h1v1h-1z"/><path d="m29 12h6v10h-6z"/></g><path fill="#fff" d="m30 15h4v7h-4z"/><path fill="#e74c3c" d="m30 13h4v9h-4z"/><path fill="#ac382e" d="m34 18h5v4h-5z"/><path fill="#e74c3c" d="m35 19h3v3h-3z"/><path fill="#ac382e" d="m39 19h3v3h-3z"/><path fill="#e74c3c" d="m39 20h2v2h-2z"/><g fill="#ac382e"><path d="m29 15h6v1h-6z"/><path d="m29 18h6v1h-6z"/></g></svg>