<svg xmlns="http://www.w3.org/2000/svg" viewBox="0 0 48 24" enable-background="new 0 0 48 24"><symbol viewBox="-12 -12 24 24"><path fill="none" stroke="#5a5a5a" stroke-width="2" stroke-miterlimit="10" d="M10,8.6C7,10.1,3.6,11,0,11s-7-0.9-10-2.4"/><path fill="none" stroke="#5a5a5a" stroke-width="2" stroke-miterlimit="10" d="M8.5,6C6,7.3,3.1,8,0,8s-6-0.7-8.5-2"/><path fill="none" stroke="#5a5a5a" stroke-width="2" stroke-miterlimit="10" d="m-6.5 2.5c2 .9 4.2 1.5 6.5 1.5 2.3 0 4.5-.6 6.5-1.5"/></symbol><g fill="#939393"><path d="m17.4 15h-2.1-1.3v6h-3v1h4v-6h1v-.1c.6-.1 1-.5 1.4-.9"/><path d="m1.7 17c-.2 0-.4 0-.6-.1.2.6.8 1.1 1.6 1.1h.3v-1h-1.3"/><path d="m10.4 17h-2.1-1.3v6h-3v1h4v-6h1.3c.2 0 .5-.1.7-.1v-.5c.1-.1.3-.3.4-.4"/><path d="m22.9 6.1c.1.2.1.4.1.6v4.7c0 .9-.7 1.7-1.7 1.7h-1.3v6h-3v1h4v-6h1.3c.9 0 1.7-.7 1.7-1.7v-4.7c0-.8-.5-1.4-1.1-1.6"/></g><g fill="#5a5a5a"><path d="m16.5 6.3l-.7-1.3h-.4c-.1.4-.3.7-.5 1h.5c.4 0 .8.1 1.1.3"/><path d="m20 13h1.3c.9 0 1.7-.7 1.7-1.7v-4.6c0-.2 0-.4-.1-.6-.2-.6-.8-1.1-1.6-1.1h-.8-.3l-1.4 2.4-.6-.8c.2 0 .3-.1.4-.3l.4-.5c.2-.4-.2-.8-.7-.8h-.6c-.5 0-.9.4-.7.8l.3.5c.1.2.2.2.4.3l-.3.4c.2.3.4.6.5 1 .1.2.1.4.1.7v1 3.7c0 .6-.2 1.2-.6 1.7-.4.4-.8.8-1.4.9v3h1 3v-6"/><circle cx="12" cy="4" r="2.5"/><path d="m14 15h1.3c.9 0 1.7-.7 1.7-1.7v-4.6c0-.2-.1-.5-.1-.7-.3-.6-.8-1-1.5-1h-1.1l-1.4 2.4-.6-.8c.2 0 .3-.1.4-.3l.3-.5c.2-.4-.2-.8-.7-.8h-.6c-.5 0-.9.4-.7.8l.3.5c.1.2.2.2.4.3l-.6.8-1.3-2.4h-1.1c-.1 0-.3 0-.4 0-.1.4-.2.7-.4 1h.5c1.2 0 2.3.9 2.6 2 .1.2.1.4.1.7v1 3.7c0 .6-.2 1.2-.6 1.7-.1.1-.3.3-.4.4v.5 1 2h1 3v-6z"/><circle cx="5" cy="6" r="2.5"/><path d="m7 17h1.3c.9 0 1.7-.7 1.7-1.7v-.3-4.3c0-.2-.1-.5-.1-.7-.3-.6-.9-1-1.6-1h-.8-.3l-1.4 2.4-.6-.8c.2 0 .3-.1.4-.3l.4-.5c.2-.4-.2-.8-.7-.8h-.6c-.5 0-.9.4-.7.8l.3.5c.1.2.2.2.4.3l-.6.8-1.3-2.4h-.1-1c-1 0-1.7.7-1.7 1.7v1 3.7c0 .7.5 1.3 1.1 1.6.2 0 .4 0 .6 0h1.3v1 1 4h1 3v-6"/><path d="m18 4.5c1.4 0 2.5-1.1 2.5-2.5 0-.8-.4-1.5-1-2h-3c-.6.5-1 1.2-1 2 0 1.4 1.1 2.5 2.5 2.5"/></g><g fill="#939393"><path d="m41.4 15h-2.1-1.3v6h-3v1h4v-6h1v-.1c.6-.1 1-.5 1.4-.9"/><path d="m25.7 17c-.2 0-.4 0-.6-.1.2.6.8 1.1 1.6 1.1h.3v-1h-1.3"/><path d="m34.4 17h-2.1-1.3v6h-3v1h4v-6h1.3c.2 0 .5-.1.7-.1v-.5c.1-.1.3-.3.4-.4"/><path d="m46.9 6.1c.1.2.1.4.1.6v4.7c0 .9-.7 1.7-1.7 1.7h-1.3v6h-3v1h4v-6h1.3c.9 0 1.7-.7 1.7-1.7v-4.7c0-.8-.5-1.4-1.1-1.6"/></g><g fill="#5a5a5a"><path d="m40.5 6.3l-.7-1.3h-.4c-.1.4-.3.7-.5 1h.5c.4 0 .8.1 1.1.3"/><path d="m44 13h1.3c.9 0 1.7-.7 1.7-1.7v-4.6c0-.2 0-.4-.1-.6-.2-.6-.8-1.1-1.6-1.1h-.8-.3l-1.4 2.4-.6-.8c.2 0 .3-.1.4-.3l.4-.5c.2-.4-.2-.8-.7-.8h-.6c-.5 0-.9.4-.7.8l.3.5c.1.2.2.2.4.3l-.3.4c.2.3.4.6.5 1 .1.2.1.4.1.7v1 3.7c0 .6-.2 1.2-.6 1.7-.4.4-.8.8-1.4.9v3h1 3v-6"/></g><g fill="#ac382e"><circle cx="36" cy="4" r="2.5"/><path d="m38 15h1.3c.9 0 1.7-.7 1.7-1.7v-4.6c0-.2-.1-.5-.1-.7-.3-.6-.8-1-1.5-1h-1.1l-1.4 2.4-.6-.8c.2 0 .3-.1.4-.3l.3-.5c.2-.4-.2-.8-.7-.8h-.6c-.5 0-.9.4-.7.8l.3.5c.1.2.2.2.4.3l-.6.8-1.3-2.4h-1.1c-.1 0-.2 0-.3 0-.1.3-.3.7-.5 1h.5c1.2 0 2.3.9 2.6 2 .1.2.1.4.1.7v1 3.7c0 .6-.2 1.2-.6 1.7-.1.1-.3.3-.4.4v.5 1 2h1 3v-6z"/></g><g fill="#e74c3c"><circle cx="29" cy="6" r="2.5"/><path d="m31 17h1.3c.9 0 1.7-.7 1.7-1.7v-.3-4.3c0-.2-.1-.5-.1-.7-.3-.6-.8-1-1.5-1h-.8-.3l-1.4 2.4-.6-.8c.2 0 .3-.1.4-.3l.3-.5c.2-.4-.2-.8-.7-.8h-.6c-.5 0-.9.4-.7.8l.3.5c.1.2.2.2.4.3l-.6.8-1.3-2.4h-.1-1c-1 0-1.7.7-1.7 1.7v1 3.7c0 .7.5 1.3 1.1 1.6.2.1.4.1.6.1h1.3v1 1 4h1 3v-6.1"/></g><path fill="#5a5a5a" d="m42 4.5c1.4 0 2.5-1.1 2.5-2.5 0-.8-.4-1.5-1-2h-3c-.6.5-1 1.2-1 2 0 1.4 1.1 2.5 2.5 2.5"/></svg>