<svg xmlns="http://www.w3.org/2000/svg" viewBox="0 0 48 24" enable-background="new 0 0 48 24"><symbol viewBox="-12 -12 24 24"><path fill="none" stroke="#5a5a5a" stroke-width="2" stroke-miterlimit="10" d="M10,8.6C7,10.1,3.6,11,0,11s-7-0.9-10-2.4"/><path fill="none" stroke="#5a5a5a" stroke-width="2" stroke-miterlimit="10" d="M8.5,6C6,7.3,3.1,8,0,8s-6-0.7-8.5-2"/><path fill="none" stroke="#5a5a5a" stroke-width="2" stroke-miterlimit="10" d="m-6.5 2.5c2 .9 4.2 1.5 6.5 1.5 2.3 0 4.5-.6 6.5-1.5"/></symbol><g fill="#939393"><path d="m4 16h4v8h-4z"/><circle cx="6" cy="3.6" r="2.6"/><path d="m9.5 7h-1.2l-2.3 4-2.4-4h-1.1c-1 0-1.5.5-1.5 1.5v4.9c0 1 .5 2.6 1.5 2.6h7c1 0 1.5-1.7 1.5-2.6v-4.9c0-1-.6-1.5-1.5-1.5"/><path d="M3 13 6 9.1 8.9 13z"/><path d="m7 7.7l-.3.5c-.3.5-1.1.4-1.4 0l-.3-.4c-.3-.5.1-.8.7-.8h.6c.6 0 .9.3.7.7"/><circle cx="21" cy="4" r="3"/><circle cx="21" cy="12" r="3"/><circle cx="21" cy="20.5" r="3"/><path d="m16.8 13h-5c-.6 0-1-.4-1-1s.4-1 1-1h5c.6 0 1 .4 1 1s-.5 1-1 1"/><path d="m14 22c-.6 0-1-.4-1-1v-17c0-.6.4-1 1-1s1 .4 1 1v17c0 .6-.4 1-1 1"/><path d="m16.8 5h-3c-.6 0-1-.4-1-1s.4-1 1-1h3c.6 0 1 .4 1 1s-.5 1-1 1"/><path d="m16.8 22h-3c-.6 0-1-.4-1-1s.4-1 1-1h3c.6 0 1 .4 1 1s-.5 1-1 1"/></g><g fill="#5a5a5a"><path d="m3 15h4v8h-4z"/><circle cx="5.2" cy="2.6" r="2.6"/><path d="m8.7 6h-1.1l-2.3 4-2.4-4h-1.2c-.9 0-1.7.5-1.7 1.5v4.9c0 1 .8 2.6 1.7 2.6h7c1 0 1.3-1.7 1.3-2.6v-4.9c0-1-.3-1.5-1.3-1.5"/><path d="m2.3 12l2.9-3.9 3 3.9z"/><path d="m6.2 6.7l-.3.5c-.3.5-1.1.4-1.4 0l-.3-.4c-.2-.5.2-.8.7-.8h.6c.6 0 1 .3.7.7"/><circle cx="20.3" cy="3" r="3"/><circle cx="20.3" cy="11" r="3"/><circle cx="20.3" cy="19.5" r="3"/><path d="m16 12h-5c-.6 0-1-.4-1-1s.4-1 1-1h5c.6 0 1 .4 1 1s-.4 1-1 1"/><path d="m13 21c-.6 0-1-.4-1-1v-17c0-.6.4-1 1-1s1 .4 1 1v17c0 .6-.4 1-1 1"/><path d="m16 4h-3c-.6 0-1-.4-1-1s.4-1 1-1h3c.6 0 1 .4 1 1s-.4 1-1 1"/><path d="m16 21h-3c-.6 0-1-.4-1-1s.4-1 1-1h3c.6 0 1 .4 1 1s-.4 1-1 1"/></g><g fill="#939393"><path d="m28 16h4v8h-4z"/><circle cx="30" cy="3.6" r="2.6"/><path d="m33.5 7h-1.1l-2.4 4-2.3-4h-1.1c-1 0-1.5.5-1.5 1.5v4.9c0 1 .5 2.6 1.5 2.6h7c1 0 1.5-1.7 1.5-2.6v-4.9c-.1-1-.7-1.5-1.6-1.5"/><path d="m27 13l3-3.9 2.9 3.9z"/><path d="m31 7.7l-.3.5c-.3.5-1.1.4-1.4 0l-.3-.4c-.3-.5.1-.8.7-.8h.6c.6 0 .9.3.7.7"/><circle cx="45" cy="4" r="3"/><circle cx="45" cy="12" r="3"/><circle cx="45" cy="20.5" r="3"/><path d="m40.8 13h-5c-.6 0-1-.4-1-1s.4-1 1-1h5c.6 0 1 .4 1 1s-.5 1-1 1"/><path d="m38 22c-.6 0-1-.4-1-1v-17c0-.6.4-1 1-1s1 .4 1 1v17c0 .6-.4 1-1 1"/><path d="m40.8 5h-3c-.6 0-1-.4-1-1s.4-1 1-1h3c.6 0 1 .4 1 1s-.5 1-1 1"/><path d="m40.8 22h-3c-.6 0-1-.4-1-1s.4-1 1-1h3c.6 0 1 .4 1 1s-.5 1-1 1"/></g><g fill="#e74c3c"><path d="m27 15h4v8h-4z"/><circle cx="29.2" cy="2.6" r="2.6"/><path d="m32.7 6h-1.1l-2.3 4-2.3-4h-1.1c-1 0-1.7.5-1.7 1.5v4.9c0 1 .8 2.6 1.7 2.6h7c1 0 1.3-1.7 1.3-2.6v-4.9c-.2-1-.5-1.5-1.5-1.5"/><path d="m26.3 12l2.9-3.9 3 3.9z"/><path d="m30.2 6.7l-.3.5c-.3.5-1.1.4-1.4 0l-.3-.4c-.2-.5.2-.8.7-.8h.6c.6 0 1 .3.7.7"/><circle cx="44.3" cy="3" r="3"/><circle cx="44.3" cy="11" r="3"/><circle cx="44.3" cy="19.5" r="3"/></g><g fill="#ac382e"><path d="m40 12h-5c-.6 0-1-.4-1-1s.4-1 1-1h5c.6 0 1 .4 1 1s-.4 1-1 1"/><path d="m37 21c-.6 0-1-.4-1-1v-17c0-.6.4-1 1-1s1 .4 1 1v17c0 .6-.4 1-1 1"/><path d="m40 4h-3c-.6 0-1-.4-1-1s.4-1 1-1h3c.6 0 1 .4 1 1s-.4 1-1 1"/><path d="m40 21h-3c-.6 0-1-.4-1-1s.4-1 1-1h3c.6 0 1 .4 1 1s-.4 1-1 1"/></g></svg>