<svg xmlns="http://www.w3.org/2000/svg" viewBox="0 0 48 24" enable-background="new 0 0 48 24"><symbol viewBox="-12 -12 24 24"><path fill="none" stroke="#5a5a5a" stroke-width="2" stroke-miterlimit="10" d="M10,8.6C7,10.1,3.6,11,0,11s-7-0.9-10-2.4"/><path fill="none" stroke="#5a5a5a" stroke-width="2" stroke-miterlimit="10" d="M8.5,6C6,7.3,3.1,8,0,8s-6-0.7-8.5-2"/><path fill="none" stroke="#5a5a5a" stroke-width="2" stroke-miterlimit="10" d="m-6.5 2.5c2 .9 4.2 1.5 6.5 1.5 2.3 0 4.5-.6 6.5-1.5"/></symbol><g fill="#939393"><path d="m35.6 23c-.5 0-.9 0-1.4 0-.4 0-.8-.1-1.2-.2-3.8-.7-7-3.8-7.8-7.7-.1-.5-.2-1-.2-1.5 0-.5 0-.9 0-1.4 0-.4.1-.8.2-1.2.7-3.8 3.8-7 7.6-7.8.5-.1 1-.2 1.4-.2.5 0 .9 0 1.4 0 .4 0 .8.1 1.2.2 3.8.7 7.1 3.8 7.9 7.7.1.5.3 1 .3 1.4 0 .5 0 .9 0 1.4 0 .4-.1.8-.2 1.2-.7 3.8-3.8 7.1-7.7 7.9-.5.1-1 .2-1.5.2"/><path d="m47.8 11.9c.2-.8.2-1.7-.1-2.4-.7-1.8-2.9-2.7-5.2-2.4 0 0 .1.1.1.2 1.9.1 3.5.9 4.2 2.4.2.4.3.8.3 1.3 0 1.3-.7 2.7-1.9 3.8-1.6 1.2-4 2.3-7.9 2.7l-.4-3.8-7 6.7 5.8 3.4c1 .6 2.3-.2 2.2-1.4l-.1-.9c8.5-1 9.9-6.7 10-9.6"/></g><path fill="#2c3e50" d="m34.7 20c-.5 0-.9 0-1.4 0-.4 0-.8-.1-1.2-.2-3.8-.7-7.1-3.8-7.9-7.7-.1-.5-.3-1-.3-1.4 0-.5 0-.9 0-1.4 0-.4.1-.8.2-1.2.7-3.9 3.9-7.1 7.7-7.9.5-.1 1-.2 1.4-.2.5 0 .9 0 1.4 0 .4 0 .8.1 1.2.2 3.8.7 7.1 3.9 7.9 7.7.1.5.2 1 .2 1.5 0 .5 0 .9 0 1.4 0 .4-.1.8-.2 1.2-.7 3.8-3.8 7.1-7.7 7.9-.3 0-.8.1-1.3.1"/><g fill="#fff"><path d="m37.8 4.8c-.1-.1-.1-.2-.1-.3-.2-.4-.3-.4-.6-.1-.2.3-.5.3-.8.1 0 0-.1-.1-.1-.1.1-.1.3-.1.4-.1.2-.1.4-.1.6-.2.3-.1.3-.2.1-.4-.1-.1-.2-.2-.2-.2-.2-.2-.4-.4-.5-.7-.1-.3-.2-.3-.4-.2-.3.1-.5 0-.7-.1-.4-.3-.6-.5-.9-.5-.3-.1-.5.1-.4.4.2.5 0 .9-.1 1.3 0 .1-.1.2-.2.2-.1 0-.2.1-.2 0 0 0-.1-.1 0-.2 0-.2-.1-.3-.2-.4-.4-.2-.8-.3-1.2-.5-.5-.2-.5-.5-.1-.9.4-.3.7-.6 1.1-.9 0 0 .1 0 .1 0 .5 0 1 0 1.6 0 0 0 0 0 0 .1-.2.1-.4.2-.6.4.3.1.6.1.9.2.3.1.5.3.7.4 0 0 0-.1.1-.1-.1-.1-.2-.2-.3-.3.1 0 .2 0 .3 0 .1 0 .1 0 .2-.1 0-.1 0-.1-.1-.2-.1-.1-.2-.1-.3-.2 0 0 0 0 0-.1.1 0 .1 0 .2 0 .4.1.9.3 1.3.4.1 0 .2.1.2.1.2.2.2.4-.1.5-.5.4-.5.5-.2.9.2.2.4.5.7.7.4.3.7.2.9-.2 0-.3.1-.4.2-.5.1-.1.2-.2.4 0 2 1.6 3.3 3.7 3.5 6.3.3 3.6-1.2 6.4-4.2 8.4-.9.6-1.8 1-2.9 1.2.2-.3.3-.6.5-.9 0 0 .1-.1.1-.1 0-.2.2-.2.3-.2.1 0 .2 0 .3-.1.1-.1.2-.2.3-.3.3.1.4-.2.6-.4.2-.3.4-.6.7-.9.1-.1.2-.2.3-.3.3-.1.6-.4.8-.7.1-.1.1-.3.1-.4 0-.3.1-.6.4-.8.1 0 .1-.1.1-.2.3-.4.2-.8-.3-.9-.4-.1-.8-.2-1.2-.3-.3-.1-.5-.2-.6-.6 0-.2-.2-.4-.5-.5-.4-.1-.7-.3-1-.4-.5-.3-1.1-.4-1.7-.4-.2 0-.4.1-.5.3 0 .1-.2.1-.2.1-.5-.2-1-.5-1.3-.9 0-.1-.2-.1-.2-.2.1-.1.1-.2.2-.3 0-.1 0-.2.1-.3-.1 0-.2-.1-.3-.1-.1 0-.3 0-.4 0-.2 0-.2 0-.3-.2-.4-.9.1-1.5.8-1.4.2 0 .4.1.5.3.1.1.2.3.3.4 0 0 .1 0 .1 0 0-.1 0-.3 0-.4-.2-.4 0-.6.3-.8.2-.1.4-.2.3-.5 0 0 0-.1.1-.2.1-.3.3-.5.4-.7.3-.3.6-.5 1-.4.1 0 .3 0 .4-.1.4-.3.8-.4 1.4-.3"/><path d="m27 4.6c0 .1 0 .2-.1.3-.1.5-.1 1 .2 1.4.1.2.3.3.5.5.1.1.2.2.3.2.1.1.2.2.3.2.6.2.9.8 1.2 1.3.1.2.3.4.5.4 1 .1 1.7.7 2.5 1.1.3.2.6.3 1 .5.2.1.4.1.7.2.4 0 .6.3.3.7-.2.3-.2.5-.3.9-.1.4.1.6.3.9.3.4.6.8 1 1.1.2.2.3.4.3.7-.1.8-.1 1.7-.4 2.5-.1.2 0 .4 0 .5 0 .2 0 .4 0 .6 0 .2-.1.3-.4.4-1.6.1-3-.2-4.4-.9-2.7-1.4-4.4-3.6-4.9-6.7-.4-2.5.2-4.7 1.7-6.8-.4 0-.4 0-.3 0"/><path d="m46.9 7.7c0 .1.1.3.1.4 0 2.5-.6 9.4-10.2 10.5l.4 3.8-8.3-4.9 7-6.7.4 3.8c3.9-.4 6.3-1.5 7.9-2.7 1.2-1.1 1.9-2.5 1.9-3.8 0 0 .1 0 .1 0 .2-.1.5-.2.7-.4m-5.3-4.2c.2.2.6.7 1.2 1.7 1.7-.3 2.2 1.7 2.2 1.7v1.1c0 1-.5 2.1-1.5 3-1.5 1.1-3.7 1.9-6.4 2.4l-.3-2.8-.2-2-1.4 1.4-7 6.7-1 .9 1.1.7 8.8 5c.4.2 1.3-.1 1.3-.6l-.6-3.3c9.2-1.5 10.2-8.4 10.1-11.3 0-.3-.1-.5-.1-.7l-.4-1.5c-1.4-3.2-6-2.6-5.8-2.4z"/></g><path fill="#e74c3c" d="m46.8 6.5c-.7-1.6-2.6-2.5-4.7-2.4.1.1.1.2.2.2 1.6.2 3 1 3.6 2.4.1.4.2.9.2 1.3 0 1.3-.7 2.7-1.9 3.8-1.6 1.2-4 2.3-7.9 2.7l-.4-3.8-7 6.7 8.3 4.9-.4-3.8c8.6-1 10-6.6 10.1-9.6.2-.8.2-1.6-.1-2.4"/><g fill="#939393"><path d="m11.6 23c-.5 0-.9 0-1.4 0-.4 0-.8-.1-1.2-.2-3.8-.7-7-3.8-7.8-7.7-.1-.5-.2-1-.2-1.5 0-.5 0-.9 0-1.4 0-.4.1-.8.2-1.2.7-3.8 3.8-7 7.6-7.8.5-.1 1-.2 1.4-.2.5 0 .9 0 1.4 0 .4 0 .8.1 1.2.2 3.8.7 7.1 3.8 7.9 7.7.1.5.3 1 .3 1.4 0 .5 0 .9 0 1.4 0 .4-.1.8-.2 1.2-.7 3.8-3.8 7.1-7.7 7.9-.5.1-1 .2-1.5.2"/><path d="m23.8 11.9c.2-.8.2-1.7-.1-2.4-.7-1.8-2.9-2.7-5.2-2.4 0 0 .1.1.1.2 1.9.1 3.5.9 4.2 2.4.2.4.3.8.3 1.3 0 1.3-.7 2.7-1.9 3.8-1.6 1.2-4 2.3-7.9 2.7l-.4-3.8-7 6.7 5.8 3.4c1 .6 2.3-.2 2.2-1.4l-.1-.9c8.5-1 9.8-6.7 10-9.6"/></g><path fill="#5a5a5a" d="m10.7 20c-.5 0-.9 0-1.4 0-.4 0-.8-.1-1.2-.2-3.8-.7-7.1-3.8-7.9-7.6-.1-.5-.2-1-.2-1.4 0-.5 0-.9 0-1.4 0-.4.1-.8.2-1.2.7-4 3.9-7.2 7.7-8 .5-.1.9-.2 1.4-.2.5 0 .9 0 1.4 0 .4 0 .8.1 1.2.2 3.9.7 7.1 3.8 7.9 7.7.1.5.2 1 .2 1.5 0 .5 0 .9 0 1.4 0 .4-.1.8-.2 1.2-.7 3.8-3.8 7.1-7.7 7.9-.4 0-.9.1-1.4.1"/><g fill="#d6d6d6"><path d="m13.8 4.8c-.1-.1-.1-.2-.1-.3-.2-.4-.3-.4-.6-.1-.2.3-.5.3-.8.1 0 0-.1-.1-.1-.1.1-.1.3-.1.4-.1.2-.1.4-.1.6-.2.3-.1.3-.2.1-.4-.2-.2-.3-.2-.3-.3-.2-.2-.4-.4-.5-.7-.1-.3-.2-.3-.4-.2-.3.1-.5 0-.7-.1-.3-.2-.5-.4-.8-.4-.3-.1-.5.1-.4.4.2.5 0 .9-.1 1.3 0 .1-.1.2-.2.2-.1 0-.2.1-.2 0 0 0-.1-.1 0-.2 0-.2-.1-.3-.2-.4-.5-.1-.9-.2-1.3-.4-.5-.2-.5-.5-.1-.9.4-.3.7-.6 1.1-.9 0 0 .1 0 .1 0 .5 0 1 0 1.6 0 0 0 0 0 0 .1-.2.1-.4.2-.6.4.3.1.6.1.9.2.3.1.5.3.7.4 0 0 0-.1.1-.1-.1-.1-.2-.2-.3-.3.1 0 .2 0 .3 0 .1 0 .1 0 .2-.1 0-.1 0-.1-.1-.2-.1-.1-.2-.1-.3-.2 0 0 0 0 0-.1.1 0 .1 0 .2 0 .4.1.9.3 1.3.4.1 0 .2.1.2.1.2.2.2.4-.1.5-.4.3-.4.4-.1.7.2.2.4.5.7.7.4.3.7.2.9-.2 0-.2.1-.3.2-.4.1-.1.2-.2.4 0 2 1.6 3.3 3.7 3.5 6.3.3 3.6-1.2 6.4-4.2 8.4-.9.6-1.8 1-2.9 1.2.2-.3.3-.6.5-.9 0 0 .1-.1.1-.1 0-.2.2-.2.3-.2.1 0 .2 0 .3-.1.1-.1.2-.2.3-.3.3.1.4-.2.6-.4.2-.3.4-.6.7-.9.1-.1.2-.2.3-.3.3-.1.6-.4.8-.7.1-.1.1-.3.1-.4 0-.3.1-.6.4-.8.1 0 .1-.1.1-.2.3-.4.2-.8-.3-.9-.4-.1-.8-.2-1.2-.3-.3-.1-.5-.2-.6-.6 0-.2-.2-.4-.5-.5-.4-.1-.7-.3-1-.4-.5-.3-1.1-.4-1.7-.4-.2 0-.4.1-.5.3 0 .1-.2.1-.2.1-.5-.2-1-.5-1.3-.9 0-.1-.2-.1-.2-.2.1-.1.1-.2.2-.3 0-.1 0-.2.1-.3-.1 0-.2-.1-.3-.1-.1 0-.3 0-.4 0-.4-.2-.5-.3-.5-.4-.2-.7.3-1.3 1-1.3.2 0 .4.1.5.3.1.2.2.3.3.5 0 0 .1 0 .1 0 0-.1 0-.3 0-.4-.2-.4 0-.6.3-.8.2-.1.4-.2.3-.5 0 0 0-.1.1-.2.1-.3.2-.5.4-.7.3-.3.6-.5 1-.4.1 0 .3 0 .4-.1.4-.3.8-.4 1.4-.3"/><path d="m3 4.6c0 .1 0 .2-.1.3-.2.6-.1 1.1.1 1.5.1.2.3.3.5.5.1.1.2.2.3.3.1 0 .2.2.3.2.6.2.9.8 1.2 1.3.1.2.2.3.4.4 1 .1 1.7.7 2.5 1.1.3.2.6.3 1 .5.2.1.4.1.7.2.4 0 .6.3.3.7-.2.2-.3.4-.3.8-.1.4.1.6.3.9.3.4.6.8 1 1.1.2.2.3.4.3.7-.1.8-.1 1.7-.4 2.5-.1.2 0 .4 0 .5 0 .2 0 .4 0 .6 0 .2-.1.3-.4.4-1.6.1-3-.2-4.4-.9-2.7-1.4-4.4-3.6-4.9-6.7-.6-2.6 0-4.8 1.4-6.8.1-.1.1-.1.2-.1"/><path d="m22.9 7.7c0 .1.1.3.1.4 0 2.5-.6 9.4-10.2 10.5l.4 3.8-8.3-4.9 7-6.7.4 3.8c3.9-.4 6.3-1.5 7.9-2.7 1.2-1.1 1.9-2.5 1.9-3.8 0 0 .1 0 .1 0 .2-.1.5-.2.7-.4m-5.3-4.2c.2.2.6.7 1.2 1.7 1.7-.3 2.2 1.7 2.2 1.7v1.1c0 1-.5 2.1-1.5 3-1.5 1.1-3.7 1.9-6.4 2.4l-.3-2.8-.2-2-1.4 1.4-7 6.7-1 .9 1.1.7 8.8 5c.4.2 1.3-.1 1.3-.6l-.6-3.3c9.2-1.5 10.2-8.4 10.1-11.4 0-.3-.1-.5-.1-.7l-.4-1.5c-1.4-3.1-6-2.5-5.8-2.3z"/></g><path fill="#5a5a5a" d="m22.9 9c.2-.8.2-1.7-.1-2.4-.7-1.8-2.9-2.7-5.2-2.4 0 0 .1.1.1.2 1.9.1 3.5.9 4.2 2.4.1.3.2.8.2 1.2 0 1.3-.7 2.7-1.9 3.8-1.6 1.2-4 2.3-7.9 2.7l-.4-3.8-7 6.7 8.3 4.9-.4-3.8c8.5-.9 9.9-6.6 10.1-9.5"/></svg>