<svg xmlns="http://www.w3.org/2000/svg" viewBox="0 0 48 24" enable-background="new 0 0 48 24"><g fill="#939393"><path d="m23 12.7s0 0 0 0c0-.2.1-.3.2-.5l.4-1c.1-.2.3-.4.4-.6v-1.9c-.1-.1-.1-.1-.2-.2-.6-.7-.9-1.6-1.8-2l-1.8-.8c-.1-.1-.3-.1-.4-.1v-.6c0-.5-.5-1.1-1-1.1h-7.2c0 0-.2 0-.3-.2l-.3-1.7c-.1-.7-.7-1-1.2-1h-8c-.2 0-.4 0-.6.2-.2.2-.3.5-.3.8l.5 20.6c0 .4.3 1 .6 1.2.1 0 .2.3.2.3h.1c0 0 0 0 0 0h17.9c.8 0 1.5-1.1 1.6-2.2 0-.8.1-1.7.1-2.5l1.3-2.6c.4-.8.7-1.7.4-2.6-.1-.6-.6-1.1-.6-1.5"/><path d="m1 21.5c0 .3.3.5.5.5h17c.2 0 .4-.2.4-.5l-.5-17.1c0-.3-.2-.4-.5-.4h-7.2c-.2 0-.7-.3-.7-.9l-.4-1.6c-.1-.5-.5-.5-.7-.5h-8c-.2 0-.4 0-.4.3l.5 20.2"/></g><path fill="#5a5a5a" d="m0 0l.5 21.8c0 .5.5 1.2 1 1.2h17c.2 0 .5-.3.6-.5.2-.2.3-.6.3-.9l-.5-17.4c0-.5-.5-1.2-1-1.2h-7.2c0 0-.2.1-.3-.2l-.3-1.8c-.1-.7-.7-1-1.2-1h-8.9m8.9 1c0 0 .2 0 .2.3l.3 1.8c.1.7.7 1.1 1.3 1.1h6.5c.4 0 .7.3.7.6l.5 16c0 .4-.3.7-.7.7h-15.5c-.4 0-.7-.3-.7-.6l-.6-19.2c0-.4.3-.7.7-.7h7.3"/><path fill="#d6d6d6" d="m19.4 22.1c.6 0 1.1-.7 1.1-1.5.4-7.4.9-13.4.9-13.4 0-.2-.1-.2-.3-.2h-17.9l-1 13.8c-.1.6-.2 1.1-.8 1.3h18"/><path fill="#5a5a5a" d="m1.4 22.6c-.2 0-.4-.2-.5-.4s.1-.5.3-.6c.3-.1.5-.3.5-1l1-14.1c0-.2.3-.5.5-.5h17.9c.2 0 .5.3.6.4.1.2.2.5.1.7 0 0-.5 6.2-.9 13.5-.1 1.1-.7 1.9-1.6 2h-17.9m2.3-15.6l-1 13.6c0 .3-.1.6-.2.9h16.8c.3 0 .6-.6.6-1.1.5-6.5.9-12.4 1-13.4h-17.2"/><path fill="#fff" d="m12.1 17.6c-.4.9-.4 1.9 0 2.8.3.7.9 1.2 1.6 1.5l1.7.8c.4.2.9.3 1.3.3.4 0 .8-.1 1.2-.2.8-.3 1.5-.9 1.9-1.7l2.6-5.4c.4-.8.4-1.7.1-2.5-.2-.5-.5-1-1-1.4.2-.1.4-.3.5-.5l.6-1c.4-.9.5-1.8.2-2.7-.3-.9-.9-1.6-1.8-2l-1.8-.8c-.4-.2-.9-.3-1.3-.3-1.4 0-2.6.8-3.2 2l-2.9 6c-.5 1-.5 2.1 0 3 .2.5.6.9 1 1.2-.3.3-.6.6-.7.9"/><g fill="#5a5a5a"><path d="m13.8 17.7c.3.1.5.5.3.8-.3.5 0 1.1.5 1.4l1.7.8c.3.1.5.1.8 0 .3-.1.5-.3.6-.5l2.6-5.4c.3-.5 0-1.1-.5-1.4l-1.7-.8c-.3-.1-.5-.1-.8 0-.3.1-.5.3-.6.6l-.5 1c-.2.3-.5.4-.9.3-.3-.2-.4-.5-.3-.8l.5-.9c.3-.6.7-1 1.3-1.2.6-.2 1.2-.2 1.8 0l1.7.8c1.2.5 1.6 1.9 1.1 3l-2.6 5.4c-.3.6-.7 1-1.3 1.2-.6.2-1.2.2-1.8 0l-1.7-1c-.5-.2-.9-.6-1.1-1-.3-.6-.3-1.3 0-2 .2-.3.6-.4.9-.3"/><path d="m12.7 13.1l2.9-6c.6-1.2 2.1-1.8 3.3-1.3l1.8.8c.6.3 1 .7 1.2 1.4.2.6.1 1.3-.2 1.9l-.6 1c-.2.3-.6.4-.9.3-.3-.2-.4-.5-.2-.8l.5-1c.1-.3.2-.6.1-.9-.1-.3-.3-.5-.6-.6l-1.8-.8c-.6-.2-1.3 0-1.6.7l-2.9 6c-.3.6-.1 1.3.5 1.6l1.8.8c.6.2 1.3 0 1.6-.7l.4-.8c.2-.3.5-.5.9-.3.3.1.5.5.3.8l-.4.8c-.6 1.2-2.1 1.8-3.3 1.3l-1.8-.8c-.5-.2-.9-.6-1.1-1-.2-.9-.3-1.7.1-2.4"/></g><path fill="#939393" d="m47 12.7s0 0 0 0c0-.2.1-.3.2-.5l.4-1c.1-.2.3-.4.4-.6v-1.9c-.1-.1-.1-.1-.2-.2-.6-.7-.9-1.6-1.8-2l-1.8-.8c-.1-.1-.3-.1-.4-.1v-.6c0-.5-.5-1.1-1-1.1h-7.2c0 0-.2 0-.3-.2l-.3-1.7c-.1-.7-.7-1-1.2-1h-8c-.2 0-.5 0-.6.2-.2.2-.3.5-.3.8l.5 20.6c0 .4.3 1 .6 1.2.1 0 .2.3.2.3h.1c0 0 0 0 0 0h17.9c.8 0 1.5-1.1 1.6-2.2 0-.8.1-1.7.1-2.5l1.3-2.6c.4-.8.7-1.7.4-2.6-.1-.6-.6-1.1-.6-1.5"/><path fill="#e74c3c" d="m25 21.5c0 .3.2.5.5.5h17c.2 0 .4-.2.4-.5l-.5-17.1c0-.3-.2-.4-.5-.4h-7.2c-.2 0-.7-.3-.7-.9l-.3-1.7c-.2-.4-.6-.4-.8-.4h-8c-.2 0-.4 0-.4.3l.5 20.2"/><path fill="#ac382e" d="m24 0l.5 21.8c0 .5.5 1.2 1 1.2h17c.2 0 .5-.3.6-.5.2-.2.3-.6.3-.9l-.5-17.4c0-.5-.5-1.2-1-1.2h-7.2c0 0-.2.1-.3-.2l-.3-1.8c-.1-.7-.7-1-1.2-1h-8.9m8.9 1c0 0 .2 0 .2.3l.3 1.8c.1.7.7 1.1 1.3 1.1h6.5c.4 0 .7.3.7.6l.5 16c0 .4-.3.7-.7.7h-15.5c-.4 0-.7-.3-.7-.6l-.6-19.2c0-.4.3-.7.7-.7h7.3"/><path fill="#fff" d="m43.4 22.1c.6 0 1.1-.7 1.1-1.5.4-7.4.9-13.4.9-13.4 0-.2-.1-.2-.3-.2h-17.9l-1 13.8c-.1.6-.2 1.1-.8 1.3h18"/><path fill="#ac382e" d="m25.4 22.6c-.2 0-.4-.2-.5-.4s.1-.5.3-.6c.3-.1.5-.3.5-1l1-14.1c0-.2.3-.5.5-.5h17.9c.2 0 .5.3.6.4.1.2.2.5.1.7 0 0-.5 6.2-.9 13.5-.1 1.1-.7 1.9-1.6 2h-17.9m2.3-15.6l-1 13.6c0 .3-.1.6-.2.9h16.8c.3 0 .6-.6.6-1.1.5-6.5.9-12.4 1-13.4h-17.2"/><path fill="#fff" d="m36.1 17.6c-.4.9-.4 1.9 0 2.8.3.7.9 1.2 1.6 1.5l1.7.8c.4.2.9.3 1.3.3.4 0 .8-.1 1.2-.2.8-.3 1.5-.9 1.9-1.7l2.6-5.4c.4-.8.4-1.7.1-2.5-.2-.5-.5-1-1-1.4.2-.1.4-.3.5-.5l.6-1c.4-.9.5-1.8.2-2.7-.3-.9-.9-1.6-1.8-2l-1.8-.8c-.4-.2-.9-.3-1.3-.3-1.4 0-2.6.8-3.2 2l-2.9 6c-.5 1-.5 2.1 0 3 .2.5.6.9 1 1.2-.3.3-.6.6-.7.9"/><g fill="#e74c3c"><path d="m37.8 17.7c.3.1.5.5.3.8-.3.5 0 1.1.5 1.4l1.7.8c.3.1.5.1.8 0 .3-.1.5-.3.6-.5l2.6-5.4c.3-.5 0-1.1-.5-1.4l-1.7-.8c-.3-.1-.5-.1-.8 0-.3.1-.5.3-.6.6l-.5 1c-.2.3-.5.4-.9.3-.3-.2-.4-.5-.3-.8l.5-.9c.3-.6.7-1 1.3-1.2.6-.2 1.2-.2 1.8 0l1.7.8c1.2.5 1.6 1.9 1.1 3l-2.6 5.4c-.3.6-.7 1-1.3 1.2-.6.2-1.2.2-1.8 0l-1.7-1c-.5-.2-.9-.6-1.1-1-.3-.6-.3-1.3 0-2 .2-.3.6-.4.9-.3"/><path d="m36.7 13.1l2.9-6c.6-1.2 2.1-1.8 3.3-1.3l1.8.8c.6.3 1 .7 1.2 1.4.2.6.1 1.3-.2 1.9l-.6 1c-.2.3-.6.4-.9.3-.3-.2-.4-.5-.2-.8l.5-1c.1-.3.2-.6.1-.9-.1-.3-.3-.5-.6-.6l-1.8-.8c-.6-.2-1.3 0-1.6.7l-2.9 6c-.3.6-.1 1.3.5 1.6l1.8.8c.6.2 1.3 0 1.6-.7l.4-.8c.2-.3.5-.5.9-.3.3.1.5.5.3.8l-.4.8c-.6 1.2-2.1 1.8-3.3 1.3l-1.8-.8c-.5-.2-.9-.6-1.1-1-.2-.9-.3-1.7.1-2.4"/></g></svg>