<!-- Generated by IcoMoon.io -->
<svg version="1.1" xmlns="http://www.w3.org/2000/svg" width="32" height="32" viewBox="0 0 32 32">
<title>manage-groups_1</title>
<path class="fill-active" d="M31.893 10.581c-0.097-0.124-0.246-0.203-0.413-0.203-0.001 0-0.002 0-0.003 0h-3.061l0.523-3.893c0.003-0.022 0.005-0.048 0.005-0.075 0-0.289-0.234-0.523-0.523-0.523-0.002 0-0.004 0-0.006 0h-11.21l-2.645-2.88c-0.171-0.192-0.352-0.384-5.813-0.384s-5.632 0.192-5.813 0.384l-2.795 3.093c-0.075 0.079-0.125 0.182-0.138 0.296l-0 0.002v22.4c0 0.289 0.234 0.523 0.523 0.523v0c0.095-0.002 0.183-0.029 0.258-0.076l-0.002 0.001c0.073 0.045 0.161 0.073 0.255 0.075h25.739c0.002 0 0.003 0 0.005 0 0.243 0 0.448-0.166 0.506-0.391l0.001-0.004 4.715-17.899c0.008-0.035 0.013-0.074 0.013-0.115 0-0.127-0.045-0.243-0.12-0.334l0.001 0.001zM1.728 28.331l4.416-16.907h24.651l-4.427 16.907zM13.867 3.819l2.709 2.944c0.095 0.104 0.232 0.17 0.384 0.171h10.859l-0.459 3.435h-21.621c-0.002-0-0.003-0-0.005-0-0.243 0-0.448 0.166-0.506 0.391l-0.001 0.004-4.16 15.989v-20.096l2.56-2.837c1.53-0.093 3.319-0.146 5.12-0.146s3.59 0.053 5.365 0.158l-0.245-0.012z"></path>
<path class="fill-active" d="M21.045 14.571l-4.757 1.429c0.887 0.314 1.639 0.819 2.236 1.468l0.003 0.004 3.061-0.907c0.21-0.066 0.452-0.105 0.702-0.105 1.068 0 1.973 0.694 2.29 1.656l0.005 0.017c0.055 0.19 0.086 0.408 0.086 0.633 0 1.070-0.707 1.976-1.68 2.274l-0.017 0.004-3.104 0.917-1.12 0.437-0.608 0.181c-0.202 0.062-0.435 0.098-0.675 0.098-1.071 0-1.977-0.708-2.275-1.681l-0.004-0.017v-0.171c-0.1-0.451-0.496-0.783-0.97-0.783-0.034 0-0.068 0.002-0.101 0.005l0.004-0h-0.075c-0.48 0.075-0.842 0.486-0.842 0.981 0 0.072 0.008 0.142 0.022 0.21l-0.001-0.007q0 0.171 0.085 0.341c0.57 1.831 2.25 3.137 4.235 3.137 0.421 0 0.829-0.059 1.215-0.169l-0.031 0.008h0.075l4.757-1.408c1.859-0.561 3.19-2.259 3.19-4.267 0-2.457-1.992-4.448-4.448-4.448-0.449 0-0.882 0.066-1.29 0.19l0.032-0.008z"></path>
<path class="fill-active" d="M10.379 24.832c-0.208 0.065-0.447 0.102-0.694 0.102-1.090 0-2.011-0.724-2.309-1.717l-0.004-0.017c-0.057-0.195-0.091-0.419-0.091-0.65 0-1.076 0.715-1.985 1.695-2.279l0.017-0.004 4.832-1.429c0.202-0.062 0.435-0.098 0.675-0.098 1.071 0 1.977 0.708 2.275 1.681l0.004 0.017v0.171c0.099 0.451 0.496 0.783 0.97 0.783 0.034 0 0.068-0.002 0.101-0.005l-0.004 0h0.075c0.514-0.041 0.915-0.468 0.915-0.989 0-0.046-0.003-0.092-0.009-0.136l0.001 0.005q0-0.171-0.085-0.341c-0.56-1.848-2.248-3.17-4.244-3.17-0.449 0-0.883 0.067-1.291 0.191l0.031-0.008h-0.075l-4.757 1.387c-1.859 0.561-3.19 2.259-3.19 4.267 0 2.457 1.992 4.448 4.448 4.448 0.449 0 0.882-0.066 1.29-0.19l-0.031 0.008 4.757-1.408c-0.887-0.314-1.639-0.819-2.236-1.468l-0.004-0.004z"></path>
</svg>
