<!-- Generated by IcoMoon.io -->
<svg version="1.1" xmlns="http://www.w3.org/2000/svg" width="32" height="32" viewBox="0 0 32 32">
<title>links</title>
<path class="fill-active" d="M3.733 21.483c0 0.003 0 0.008 0 0.012 0 1.313 0.534 2.501 1.397 3.359l2.016 2.016c0.864 0.86 2.055 1.391 3.371 1.391s2.507-0.532 3.371-1.392l2.016-2.016c0.266-0.285 0.429-0.669 0.429-1.091 0-0.884-0.716-1.6-1.6-1.6-0.422 0-0.806 0.163-1.092 0.43l0.001-0.001-2.016 2.016c-0.284 0.284-0.676 0.46-1.109 0.46s-0.826-0.176-1.109-0.46v0l-2.016-2.016c-0.284-0.284-0.46-0.676-0.46-1.109s0.176-0.826 0.46-1.109v0l6.24-6.251c0.284-0.284 0.676-0.46 1.109-0.46s0.826 0.176 1.109 0.46v0c0.291 0.295 0.695 0.477 1.141 0.477 0.885 0 1.603-0.718 1.603-1.603 0-0.439-0.176-0.836-0.462-1.126l0 0c-0.864-0.86-2.055-1.391-3.371-1.391s-2.507 0.531-3.371 1.392l-6.261 6.261c-0.861 0.856-1.395 2.040-1.397 3.349v0.001z"></path>
<path class="fill-active" d="M18.357 17.867c-0.284 0.284-0.676 0.46-1.109 0.46s-0.826-0.176-1.109-0.46v0c-0.291-0.291-0.692-0.471-1.136-0.471-0.887 0-1.607 0.719-1.607 1.607 0 0.444 0.18 0.845 0.471 1.136v0c0.864 0.86 2.055 1.391 3.371 1.391s2.507-0.532 3.371-1.392l-0 0 6.261-6.272c0.862-0.863 1.396-2.054 1.396-3.371s-0.533-2.508-1.396-3.371l0 0-2.016-1.995c-0.864-0.86-2.055-1.391-3.371-1.391s-2.507 0.532-3.371 1.391l-2.016 2.016c-0.266 0.285-0.429 0.669-0.429 1.091 0 0.884 0.716 1.6 1.6 1.6 0.422 0 0.806-0.163 1.092-0.43l-0.001 0.001 2.016-2.016c0.284-0.284 0.676-0.46 1.109-0.46s0.826 0.176 1.109 0.46v0l2.016 2.016c0.284 0.284 0.46 0.676 0.46 1.109s-0.176 0.826-0.46 1.109v0z"></path>
</svg>
