<svg enable-background="new 0 0 48 24" viewBox="0 0 48 24" xmlns="http://www.w3.org/2000/svg" xmlns:xlink="http://www.w3.org/1999/xlink"><defs><symbol id="0" viewBox="-12 -12 24 24"><path id="2" d="m10.4 7.2l-2.3 1.9c-.8.7-1.7 1-2.7 1-.2 0-.4 0-.6 0-1.2-.3-2.3-.9-3.1-2l-1-1.4c-.3-.4-.4-.9-.3-1.4 0-.1 0-.2.1-.3-.8.6-1.7.9-2.6.9-1.3 0-2.6-.6-3.4-1.7l-6.5-8.4v-1.9c0 0 .7-2.3 1.6-3l2.2-1.8c.8-.6 1.7-1 2.7-1 1.3 0 2.5.6 3.4 1.7.3.4.5.9.4 1.4 0 .3-.1.7-.2 1l .4-.3c.8-.7 1.7-1 2.7-1 1.4 0 2.7.7 3.6 1.8l6.2 7.9 1 3.4v2z" fill="#939393"/><path d="m8.1 11c-.8.7-1.7 1-2.7 1-.2 0-.4 0-.6 0-1.2-.2-2.3-.8-3.1-1.9l-1-1.4c-.3-.4-.4-1-.3-1.5 0-.1 0-.2.1-.3-.8.6-1.7.9-2.6.9-1.3 0-2.5-.6-3.4-1.7l-5.5-7c-.8-1-1-3.3-1-3.3s.7-2.3 1.6-3l2.2-1.8c.8-.6 1.7-1 2.7-1 1.3 0 2.5.6 3.4 1.7.3.3.4.8.4 1.3 0 .3-.1.7-.2 1l .4-.3c.8-.7 1.7-1 2.7-1 1.4 0 2.7.7 3.6 1.8l7.2 9.6v2.9z" fill="#fff"/><path d="m-5.5-9.1c-.7 0-1.5.3-2.1.8l-2.2 1.8c-.7.6-1.2 1.4-1.2 2.4-.1.9.2 1.9.7 2.6l5.5 7.1c1.2 1.5 3.3 1.7 4.8.5l2.2-1.8c.7-.6 1.1-1.4 1.2-2.4.1-.9-.2-1.8-.8-2.6l-.9-1.3c-.3-.4-.9-.5-1.3-.2-.4.4-.5 1-.2 1.4l1 1.3c.3.4.4.8.4 1.2 0 .4-.2.8-.6 1.1l-2.2 1.8c-.6.5-1.6.4-2.1-.3l-5.5-7.1c-.3-.3-.4-.7-.3-1.2-.1-.3.1-.7.5-1l2.2-1.8c.7-.5 1.6-.4 2.1.2.3.5.9.5 1.3.2.4-.3.5-.9.1-1.4-.7-.8-1.6-1.3-2.6-1.3" fill="#e74c3c"/><path d="m1.2-6.3c-.8 0-1.6.3-2.2.8l-2.3 1.9c-1.5 1.2-1.6 3.6-.4 5.2l.8 1c .3.5.9.5 1.3.2.4-.3.5-.9.1-1.4l-.8-1c-.6-.8-.6-1.9.1-2.5l2.4-1.9c.7-.6 1.8-.4 2.4.4l6.2 7.9c.6.8.6 1.9-.1 2.5l-2.3 1.9c-.4.3-.8.4-1.2.4-.5-.1-.9-.4-1.2-.8l-1-1.3c-.3-.5-.9-.6-1.3-.2-.4.3-.5.9-.2 1.3l1 1.4c.6.9 1.5 1.4 2.4 1.5 1 .1 1.9-.1 2.6-.7l2.3-1.9c1.5-1.3 1.7-3.6.4-5.3l-6.1-7.9c-.8-1-1.9-1.5-2.9-1.5" fill="#e74c3c"/></symbol><symbol id="1" viewBox="-12 -12 24 24"><use xlink:href="#2"/><path d="m8.1 11c-.8.7-1.7 1-2.7 1-.2 0-.4 0-.6 0-1.2-.2-2.3-.8-3.1-1.9l-1-1.4c-.3-.4-.4-1-.3-1.5 0-.1 0-.2.1-.3-.8.6-1.7.9-2.6.9-1.3 0-2.5-.6-3.4-1.7l-5.5-7c-.8-1-1-3.3-1-3.3s.7-2.3 1.6-3l2.2-1.8c.8-.6 1.7-1 2.7-1 1.3 0 2.5.6 3.4 1.7.3.3.4.8.4 1.3 0 .3-.1.7-.2 1l .4-.3c.8-.7 1.7-1 2.7-1 1.4 0 2.7.7 3.6 1.8l7.2 9.6v2.9z" fill="#d6d6d6"/><path d="m-5.5-9.1c-.7 0-1.5.3-2.1.8l-2.2 1.8c-.7.6-1.2 1.4-1.2 2.4-.1.9.2 1.9.7 2.6l5.5 7.1c1.2 1.5 3.3 1.7 4.8.5l2.2-1.8c.7-.6 1.1-1.4 1.2-2.4.1-.9-.2-1.8-.8-2.6l-.9-1.3c-.3-.4-.9-.5-1.3-.2-.4.4-.5 1-.2 1.4l1 1.3c.3.4.4.8.4 1.2 0 .4-.2.8-.6 1.1l-2.2 1.8c-.6.5-1.6.4-2.1-.3l-5.5-7.1c-.3-.3-.4-.7-.3-1.2-.1-.3.1-.7.5-1l2.2-1.8c.7-.5 1.6-.4 2.1.2.3.5.9.5 1.3.2.4-.3.5-.9.1-1.4-.7-.8-1.6-1.3-2.6-1.3" fill="#5a5a5a"/><path d="m1.2-6.3c-.8 0-1.6.3-2.2.8l-2.3 1.9c-1.5 1.2-1.6 3.6-.4 5.2l.8 1c .3.5.9.5 1.3.2.4-.3.5-.9.1-1.4l-.8-1c-.6-.8-.6-1.9.1-2.5l2.4-1.9c.7-.6 1.8-.4 2.4.4l6.2 7.9c.6.8.6 1.9-.1 2.5l-2.3 1.9c-.4.3-.8.4-1.2.4-.5-.1-.9-.4-1.2-.8l-1-1.3c-.3-.5-.9-.6-1.3-.2-.4.3-.5.9-.2 1.3l1 1.4c.6.9 1.5 1.4 2.4 1.5 1 .1 1.9-.1 2.6-.7l2.3-1.9c1.5-1.3 1.7-3.6.4-5.3l-6.1-7.9c-.8-1-1.9-1.5-2.9-1.5" fill="#5a5a5a"/></symbol></defs><use height="24" transform="matrix(1 0 0 -1 12 12)" width="24" x="-12" xlink:href="#1" y="-12"/><use height="24" transform="matrix(1 0 0 -1 36 12)" width="24" x="-12" xlink:href="#0" y="-12"/></svg>