<!-- Generated by IcoMoon.io -->
<svg version="1.1" xmlns="http://www.w3.org/2000/svg" width="32" height="32" viewBox="0 0 32 32">
<title>manage-links</title>
<path class="fill-active" d="M18.208 26.165c0.012 0.279 0.241 0.501 0.522 0.501 0 0 0 0 0 0h-0c0.001 0 0.001 0 0.002 0 0.107 0 0.206-0.032 0.288-0.087l-0.002 0.001 3.2-2.133 6.005-11.648c-0.201-0.31-0.47-0.559-0.789-0.73l-0.011-0.006-2.336-1.195c-0.272-0.141-0.593-0.224-0.934-0.224-0.005 0-0.011 0-0.016 0h-0.127l-5.963 11.627zM20.64 22.4c0.615 0.274 1.101 0.743 1.39 1.328l0.007 0.016-2.059 1.323c-0.321-0.223-0.693-0.405-1.092-0.526l-0.028-0.007-0.128-2.443c0.16-0.033 0.345-0.051 0.534-0.051 0.506 0 0.98 0.134 1.39 0.368l-0.014-0.007z"></path>
<path class="fill-active" d="M24.533 9.963c0.005-0 0.010-0 0.015-0 0.341 0 0.662 0.083 0.945 0.229l-0.011-0.005 2.251 1.195c0.33 0.177 0.599 0.426 0.795 0.728l0.005 0.008 0.704-1.376c0.101-0.193 0.16-0.422 0.16-0.665 0-0.562-0.317-1.049-0.781-1.294l-0.008-0.004-1.621-0.832c-0.193-0.101-0.422-0.16-0.665-0.16-0.562 0-1.049 0.317-1.294 0.781l-0.004 0.008-0.704 1.376z"></path>
<path class="fill-active" d="M5.045 23.211c0.615 0.656 1.486 1.064 2.453 1.064s1.839-0.409 2.452-1.062l0.002-0.002 1.515-1.589c0.184-0.192 0.298-0.453 0.298-0.741 0-0.592-0.48-1.071-1.071-1.071-0.304 0-0.578 0.126-0.773 0.33l-0 0-1.504 1.6c-0.229 0.238-0.551 0.386-0.907 0.386s-0.677-0.148-0.906-0.385l-0-0-1.515-1.589c-0.249-0.272-0.401-0.636-0.401-1.035s0.152-0.763 0.402-1.036l-0.001 0.001 4.683-4.928c0.229-0.238 0.551-0.386 0.907-0.386s0.677 0.148 0.906 0.385l0 0c0.195 0.204 0.469 0.332 0.773 0.332 0.59 0 1.068-0.478 1.068-1.068 0-0.286-0.112-0.545-0.295-0.736l0 0c-0.624-0.636-1.493-1.031-2.453-1.031s-1.829 0.395-2.453 1.030l-0.001 0.001-4.683 4.928c-0.611 0.655-0.986 1.537-0.986 2.507s0.375 1.852 0.988 2.509l-0.002-0.002z"></path>
<path class="fill-active" d="M15.008 17.888l4.683-4.928c0.611-0.655 0.986-1.537 0.986-2.507s-0.375-1.852-0.988-2.509l0.002 0.002-1.557-1.547c-0.625-0.634-1.493-1.026-2.453-1.026s-1.828 0.393-2.453 1.026l-0 0-1.493 1.557c-0.182 0.191-0.294 0.45-0.294 0.736 0 0.59 0.478 1.068 1.068 1.068 0.304 0 0.578-0.127 0.773-0.331l0-0 1.547-1.6c0.229-0.238 0.551-0.386 0.907-0.386s0.677 0.148 0.906 0.385l0 0 1.493 1.589c0.249 0.272 0.401 0.636 0.401 1.035s-0.152 0.763-0.402 1.036l0.001-0.001-4.683 4.928c-0.229 0.238-0.551 0.386-0.907 0.386s-0.677-0.148-0.906-0.385l-0-0c-0.195-0.204-0.469-0.332-0.773-0.332-0.59 0-1.068 0.478-1.068 1.068 0 0.286 0.112 0.545 0.295 0.736l-0-0c0.615 0.656 1.486 1.064 2.453 1.064s1.839-0.409 2.452-1.062l0.002-0.002z"></path>
</svg>
