<svg xmlns="http://www.w3.org/2000/svg" viewBox="0 0 48 24" enable-background="new 0 0 48 24"><path fill="#939393" d="m20.6 1h-12.6v2h-5c-1.1 0-2 .9-2 2v6c0 1.1.9 2 2 2h5v1h-5c-1.1 0-2 .9-2 2v6c0 1.1.9 2 2 2h6c.7 0 1.4-.4 1.7-1h13.3v-18.6c-1.3-1.3-2.1-2.1-3.4-3.4"/><path fill="#5a5a5a" d="M23,22H7V0h12.6c1.3,1.3,2.1,2.1,3.4,3.4V22z"/><path fill="#d6d6d6" d="M22,21H8V1h11c1.2,1.2,1.8,1.8,3,3V21z"/><g fill="#5a5a5a"><path d="m18 0h1v5h-1z"/><path d="m18 4h5v1h-5z"/><path d="m19.3 17.8c-.3.4-.7.7-1.2.9l-1.7.6c-.6.2-1.2.1-1.7-.1-.5-.3-1-.7-1.2-1.3l-2-5.5c-.4-1.2.2-2.4 1.3-2.8l1.8-.6c.6-.2 1.2-.1 1.7.1.5.3 1 .7 1.2 1.3l.4 1c.1.3 0 .7-.3.8-.3.1-.7-.1-.8-.4l-.4-1c-.1-.3-.3-.5-.5-.6-.2-.1-.5-.1-.8-.1l-1.7.6c-.5.2-.8.7-.6 1.3l2 5.5c.1.3.3.5.5.6.2.1.5.1.8.1l1.7-.6c.5-.2.8-.7.6-1.3-.1-.3 0-.7.4-.8.3-.1.7.1.8.4.1.6 0 1.3-.3 1.9"/><path d="m20 13.2c-.3.4-.7.7-1.2.9l-1.8.6c-1.2.4-2.6-.3-3-1.6l-.3-.8c-.1-.3 0-.7.4-.8.3-.1.7.1.8.4l.3.8c.2.6.9 1 1.4.8l1.8-.6c.6-.2.8-.8.6-1.5l-2.2-6.1c-.2-.6-.9-1-1.4-.8l-1.8.6c-.3.1-.5.3-.6.5-.1.3-.1.6 0 .9l.4 1c.1.3 0 .7-.3.8-.3.1-.7 0-.8-.3l-.4-1c-.2-.6-.2-1.3 0-1.8.3-.6.7-1 1.3-1.2l1.8-.6c1.2-.4 2.5.3 3 1.6l2.2 6.1c.3.7.2 1.5-.2 2.1"/><path d="m8 12h-6c-1.1 0-2-.9-2-2v-6c0-1.1.9-2 2-2h6c1.1 0 2 .9 2 2v6c0 1.1-.9 2-2 2"/></g><path fill="#fff" d="m2 11c-.6 0-1-.4-1-1v-6c0-.6.4-1 1-1h6c.6 0 1 .4 1 1v6c0 .6-.4 1-1 1h-6"/><path fill="#5a5a5a" d="m8 23h-6c-1.1 0-2-.9-2-2v-6c0-1.1.9-2 2-2h6c1.1 0 2 .9 2 2v6c0 1.1-.9 2-2 2"/><path fill="#fff" d="m2 22c-.6 0-1-.4-1-1v-6c0-.6.4-1 1-1h6c.6 0 1 .4 1 1v6c0 .6-.4 1-1 1h-6"/><g fill="#5a5a5a"><path d="m4 4h2v6h-2z"/><path d="m2 6h6v2h-6z"/><path d="m2 17h6v2h-6z"/></g><path fill="#939393" d="m44.6 1h-12.6v2h-5c-1.1 0-2 .9-2 2v6c0 1.1.9 2 2 2h5v1h-5c-1.1 0-2 .9-2 2v6c0 1.1.9 2 2 2h6c.7 0 1.4-.4 1.7-1h13.3v-18.6c-1.3-1.3-2.1-2.1-3.4-3.4"/><path fill="#ac382e" d="M47,22H31V0h12.6c1.3,1.3,2.1,2.1,3.4,3.4V22z"/><path fill="#fff" d="M46,21H32V1h11c1.2,1.2,1.8,1.8,3,3V21z"/><g fill="#ac382e"><path d="m42 0h1v5h-1z"/><path d="m42 4h5v1h-5z"/><path d="m43.3 17.8c-.3.4-.7.7-1.2.9l-1.7.6c-.6.2-1.2.1-1.7-.1-.5-.3-1-.7-1.2-1.3l-2-5.5c-.4-1.2.2-2.4 1.3-2.8l1.8-.6c.6-.2 1.2-.1 1.7.1.5.3 1 .7 1.2 1.3l.4 1c.1.3 0 .7-.3.8-.3.1-.7-.1-.8-.4l-.4-1c-.1-.3-.3-.5-.5-.6-.2-.1-.5-.1-.8-.1l-1.7.6c-.5.2-.8.7-.6 1.3l2 5.5c.1.3.3.5.5.6.2.1.5.1.8.1l1.7-.6c.5-.2.8-.7.6-1.3-.1-.3 0-.7.4-.8.3-.1.7.1.8.4.1.6 0 1.3-.3 1.9"/><path d="m44 13.2c-.3.4-.7.7-1.2.9l-1.8.6c-1.2.4-2.6-.3-3-1.6l-.3-.8c-.1-.3 0-.7.4-.8.3-.1.7.1.8.4l.3.8c.2.6.9 1 1.4.8l1.8-.6c.6-.2.8-.8.6-1.5l-2.2-6.1c-.2-.6-.9-1-1.4-.8l-1.8.6c-.3.1-.5.3-.6.5-.1.3-.1.6 0 .9l.4 1c.1.3 0 .7-.3.8-.3.1-.7 0-.8-.3l-.4-1c-.2-.6-.2-1.3 0-1.8.3-.6.7-1 1.3-1.2l1.8-.6c1.2-.4 2.5.3 3 1.6l2.2 6.1c.3.7.2 1.5-.2 2.1"/><path d="m32 12h-6c-1.1 0-2-.9-2-2v-6c0-1.1.9-2 2-2h6c1.1 0 2 .9 2 2v6c0 1.1-.9 2-2 2"/></g><path fill="#e74c3c" d="m26 11c-.6 0-1-.4-1-1v-6c0-.6.4-1 1-1h6c.6 0 1 .4 1 1v6c0 .6-.4 1-1 1h-6"/><path fill="#ac382e" d="m32 23h-6c-1.1 0-2-.9-2-2v-6c0-1.1.9-2 2-2h6c1.1 0 2 .9 2 2v6c0 1.1-.9 2-2 2"/><path fill="#e74c3c" d="m26 22c-.6 0-1-.4-1-1v-6c0-.6.4-1 1-1h6c.6 0 1 .4 1 1v6c0 .6-.4 1-1 1h-6"/><g fill="#fff"><path d="m28 4h2v6h-2z"/><path d="m26 6h6v2h-6z"/><path d="m26 17h6v2h-6z"/></g></svg>