<svg enable-background="new 0 0 48 24" viewBox="0 0 48 24" xmlns="http://www.w3.org/2000/svg"><path d="m22 6h-2v-2c0-1.7-1.3-3-3-3h-9c-1.7 0-3 1.3-3 3v2h-2c-1.1 0-2 .9-2 2v14c0 1.1.9 2 2 2h19c1.1 0 2-.9 2-2v-14c0-1.1-.9-2-2-2m-15-1.2c0-1 .8-1.8 1.7-1.8h7.5c1 0 1.7.8 1.7 1.8v1.2h-10.9z" fill="#939393"/><g fill="#5a5a5a"><path d="m16 0h-9c-1.7 0-3 1.3-3 3v15h15v-15c0-1.7-1.3-3-3-3m1 16h-11v-12.2c0-1 .8-1.8 1.7-1.8h7.5c1 0 1.7.8 1.7 1.8v12.2z"/><path d="m21 23h-19c-1.1 0-2-.9-2-2v-14c0-1.1.9-2 2-2h19c1.1 0 2 .9 2 2v14c0 1.1-.9 2-2 2"/></g><path d="m2 22c-.6 0-1-.4-1-1v-14c0-.6.4-1 1-1h19c .6 0 1 .4 1 1v14c0 .6-.4 1-1 1z" fill="#d6d6d6"/><circle cx="11.5" cy="14" fill="#5a5a5a" r="7.3"/><g fill="#d6d6d6"><path d="m8.8 19c-.4 0-.7-.1-1.1-.4l-1.1-.9c-.3-.3-.5-.7-.6-1.2 0-.5.1-.9.4-1.3l2.7-3.5c.6-.8 1.6-.9 2.4-.3l1.1.9c.4.3.6.7.6 1.2 0 .5-.1.9-.4 1.3l-.5.6c-.2.2-.4.3-.6.1-.2-.2-.2-.5-.1-.7l.5-.7c.1-.2.2-.4.2-.6 0-.2-.1-.4-.3-.5l-1.1-.9c-.3-.3-.8-.2-1.1.1l-2.7 3.5c-.1.3-.2.5-.2.7 0 .2.1.4.3.5l1.1.9c.3.3.8.2 1.1-.1.2-.2.5-.2.7-.1.2.2.2.5.1.7-.5.5-1 .7-1.4.7"/><path d="m12.1 17.6c-.4 0-.8-.1-1.1-.4l-1.1-.9c-.7-.6-.8-1.8-.2-2.6l.4-.5c.2-.2.5-.2.7-.1.2.2.2.5.1.7l-.4.5c-.3.4-.3 1 .1 1.3l1.1.9c.3.3.9.2 1.2-.2l3.1-3.9c.3-.4.3-1-.1-1.3l-1.1-.9c-.2-.1-.4-.2-.6-.2-.2 0-.4.2-.6.4l-.6.6c-.1.2-.4.3-.6.1-.2-.2-.3-.5-.1-.7l.5-.7c.2-.4.7-.6 1.1-.7.5-.1.9.1 1.3.4l1.1.9c.7.6.8 1.8.2 2.6l-3.1 3.9c-.3.6-.8.8-1.3.8"/></g><path d="m46 6h-2v-2c0-1.7-1.3-3-3-3h-9c-1.7 0-3 1.3-3 3v2h-2c-1.1 0-2 .9-2 2v14c0 1.1.9 2 2 2h19c1.1 0 2-.9 2-2v-14c0-1.1-.9-2-2-2m-15-1.2c0-1 .8-1.8 1.7-1.8h7.5c1 0 1.7.8 1.7 1.8v1.2h-10.9z" fill="#939393"/><g fill="#ac382e"><path d="m40 0h-9c-1.7 0-3 1.3-3 3v15h15v-15c0-1.7-1.3-3-3-3m1 16h-11v-12.2c0-1 .8-1.8 1.7-1.8h7.5c1 0 1.7.8 1.7 1.8v12.2z"/><path d="m45 23h-19c-1.1 0-2-.9-2-2v-14c0-1.1.9-2 2-2h19c1.1 0 2 .9 2 2v14c0 1.1-.9 2-2 2"/></g><path d="m26 22c-.6 0-1-.4-1-1v-14c0-.6.4-1 1-1h19c .6 0 1 .4 1 1v14c0 .6-.4 1-1 1z" fill="#e74c3c"/><circle cx="35.5" cy="14" fill="#fff" r="7.3"/><g fill="#e74c3c"><path d="m32.8 19c-.4 0-.7-.1-1.1-.4l-1.1-.9c-.4-.3-.6-.7-.6-1.2 0-.5.1-.9.4-1.3l2.7-3.5c.6-.8 1.6-.9 2.4-.3l1.1.9c.4.3.6.7.6 1.2 0 .5-.1.9-.4 1.3l-.5.6c-.2.2-.4.3-.6.1-.2-.2-.2-.5-.1-.7l.5-.7c.1-.2.2-.4.2-.6 0-.2-.1-.4-.3-.5l-1.1-.9c-.3-.3-.8-.2-1.1.1l-2.7 3.5c-.1.2-.2.4-.2.6 0 .2.1.4.3.5l1.1.9c.3.3.8.2 1.1-.1.2-.2.5-.2.7-.1.2.2.2.5.1.7-.5.6-1 .8-1.4.8"/><path d="m36.1 17.6c-.4 0-.8-.1-1.1-.4l-1.1-.9c-.7-.6-.8-1.8-.2-2.6l.4-.5c.2-.2.5-.2.7-.1.2.2.2.5.1.7l-.4.5c-.3.4-.3 1 .1 1.3l1.1.9c.3.3.9.2 1.2-.2l3.1-3.9c.3-.4.3-1-.1-1.3l-1.1-.9c-.2-.1-.4-.2-.6-.2-.2 0-.4.2-.6.4l-.6.6c-.1.2-.4.3-.6.1-.2-.2-.3-.5-.1-.7l.5-.7c.2-.4.7-.6 1.1-.7.5-.1.9.1 1.3.4l1.1.9c.7.6.8 1.8.2 2.6l-3.1 3.9c-.3.6-.8.8-1.3.8"/></g></svg>