<!-- Generated by IcoMoon.io -->
<svg version="1.1" xmlns="http://www.w3.org/2000/svg" width="32" height="32" viewBox="0 0 32 32">
<title>sponsored-overview</title>
<path class="fill-active" d="M19.2 2.752h-6.4c-2.121 0-3.84 1.719-3.84 3.84v0 0.459h-4.981c0 0-0 0-0 0-1.019 0-1.845 0.826-1.845 1.845 0 0.004 0 0.008 0 0.011v-0.001 15.712c0 1.019 0.826 1.845 1.845 1.845v0h1.856c0 1.532 1.242 2.773 2.773 2.773s2.773-1.242 2.773-2.773v0h9.248c0 1.532 1.242 2.773 2.773 2.773s2.773-1.242 2.773-2.773v0h1.845c1.019 0 1.845-0.826 1.845-1.845v-15.712c0-1.019-0.826-1.845-1.845-1.845v0h-4.949v-0.469c0-0 0-0 0-0 0-2.121-1.719-3.84-3.84-3.84-0.011 0-0.023 0-0.034 0h0.002zM11.019 7.019v-0.427c0-0 0-0.001 0-0.002 0-0.943 0.764-1.707 1.707-1.707 0.026 0 0.052 0.001 0.078 0.002l-0.004-0h6.4c0.943 0 1.707 0.764 1.707 1.707v0 0.459zM12.267 22.677c-0.47 0.216-1.020 0.342-1.6 0.342-2.16 0-3.91-1.751-3.91-3.91 0-1.58 0.937-2.941 2.286-3.558l0.024-0.010 4-1.771h0.064c0.464-0.211 1.006-0.333 1.576-0.333 1.584 0 2.947 0.946 3.555 2.303l0.010 0.025q0.064 0.139 0.117 0.288c0.029 0.083 0.046 0.18 0.046 0.28 0 0.397-0.264 0.732-0.626 0.839l-0.006 0.002h-0.064c-0.072 0.021-0.155 0.034-0.24 0.034-0.381 0-0.704-0.243-0.825-0.582l-0.002-0.006-0.053-0.139c-0.126-0.276-0.299-0.51-0.51-0.702l-0.002-0.002c-0.375-0.334-0.872-0.538-1.417-0.538-0.297 0-0.58 0.061-0.837 0.17l0.014-0.005-1.461 0.64-2.56 1.152c-0.729 0.35-1.223 1.082-1.223 1.929 0 0.289 0.057 0.564 0.161 0.816l-0.005-0.014c0.344 0.743 1.084 1.249 1.942 1.249 0.313 0 0.61-0.067 0.877-0.188l-0.013 0.005 2.571-1.131c0.587 0.51 1.307 0.883 2.101 1.061l0.032 0.006zM24.875 12.8c0.209 0.462 0.33 1.003 0.33 1.571 0 1.584-0.944 2.948-2.3 3.56l-0.025 0.010-4 1.771h-0.064c-0.464 0.211-1.006 0.333-1.576 0.333-1.584 0-2.947-0.946-3.555-2.303l-0.010-0.025q-0.064-0.139-0.117-0.288c-0.029-0.083-0.046-0.18-0.046-0.28 0-0.397 0.264-0.732 0.626-0.839l0.006-0.002h0.064c0.072-0.021 0.155-0.034 0.24-0.034 0.38 0 0.704 0.243 0.825 0.582l0.002 0.006 0.053 0.139c0.126 0.276 0.299 0.51 0.51 0.702l0.002 0.002c0.382 0.366 0.902 0.591 1.473 0.591 0.296 0 0.578-0.060 0.834-0.169l-0.014 0.005 1.461-0.64 2.603-1.152c0.729-0.35 1.223-1.082 1.223-1.929 0-0.289-0.057-0.564-0.161-0.816l0.005 0.014c-0.344-0.743-1.084-1.249-1.942-1.249-0.313 0-0.61 0.067-0.877 0.188l0.013-0.005-2.603 1.109c-0.587-0.51-1.307-0.883-2.101-1.061l-0.032-0.006 4-1.771c0.466-0.212 1.010-0.336 1.584-0.336 1.583 0 2.945 0.942 3.558 2.295l0.010 0.025z"></path>
</svg>
